%TF.GenerationSoftware,KiCad,Pcbnew,8.0.1*%
%TF.CreationDate,2024-05-30T20:42:28+03:00*%
%TF.ProjectId,jantteri-hit-detector,6a616e74-7465-4726-992d-6869742d6465,rev?*%
%TF.SameCoordinates,Original*%
%TF.FileFunction,Soldermask,Top*%
%TF.FilePolarity,Negative*%
%FSLAX46Y46*%
G04 Gerber Fmt 4.6, Leading zero omitted, Abs format (unit mm)*
G04 Created by KiCad (PCBNEW 8.0.1) date 2024-05-30 20:42:28*
%MOMM*%
%LPD*%
G01*
G04 APERTURE LIST*
G04 Aperture macros list*
%AMRoundRect*
0 Rectangle with rounded corners*
0 $1 Rounding radius*
0 $2 $3 $4 $5 $6 $7 $8 $9 X,Y pos of 4 corners*
0 Add a 4 corners polygon primitive as box body*
4,1,4,$2,$3,$4,$5,$6,$7,$8,$9,$2,$3,0*
0 Add four circle primitives for the rounded corners*
1,1,$1+$1,$2,$3*
1,1,$1+$1,$4,$5*
1,1,$1+$1,$6,$7*
1,1,$1+$1,$8,$9*
0 Add four rect primitives between the rounded corners*
20,1,$1+$1,$2,$3,$4,$5,0*
20,1,$1+$1,$4,$5,$6,$7,0*
20,1,$1+$1,$6,$7,$8,$9,0*
20,1,$1+$1,$8,$9,$2,$3,0*%
G04 Aperture macros list end*
%ADD10RoundRect,0.249999X-0.650001X0.325001X-0.650001X-0.325001X0.650001X-0.325001X0.650001X0.325001X0*%
%ADD11RoundRect,0.225000X-0.225000X-0.250000X0.225000X-0.250000X0.225000X0.250000X-0.225000X0.250000X0*%
%ADD12RoundRect,0.225000X0.225000X0.250000X-0.225000X0.250000X-0.225000X-0.250000X0.225000X-0.250000X0*%
%ADD13RoundRect,0.225000X-0.250000X0.225000X-0.250000X-0.225000X0.250000X-0.225000X0.250000X0.225000X0*%
%ADD14RoundRect,0.140000X-0.140000X-0.170000X0.140000X-0.170000X0.140000X0.170000X-0.140000X0.170000X0*%
%ADD15RoundRect,0.225000X0.250000X-0.225000X0.250000X0.225000X-0.250000X0.225000X-0.250000X-0.225000X0*%
%ADD16RoundRect,0.250000X-0.250000X-0.475000X0.250000X-0.475000X0.250000X0.475000X-0.250000X0.475000X0*%
%ADD17RoundRect,0.250000X0.475000X-0.250000X0.475000X0.250000X-0.475000X0.250000X-0.475000X-0.250000X0*%
%ADD18RoundRect,0.218750X0.218750X0.256250X-0.218750X0.256250X-0.218750X-0.256250X0.218750X-0.256250X0*%
%ADD19RoundRect,0.218750X0.381250X-0.218750X0.381250X0.218750X-0.381250X0.218750X-0.381250X-0.218750X0*%
%ADD20RoundRect,0.249999X-0.265001X-0.615001X0.265001X-0.615001X0.265001X0.615001X-0.265001X0.615001X0*%
%ADD21O,1.030000X1.730000*%
%ADD22C,2.374900*%
%ADD23C,0.990600*%
%ADD24C,0.787400*%
%ADD25RoundRect,0.135000X0.185000X-0.135000X0.185000X0.135000X-0.185000X0.135000X-0.185000X-0.135000X0*%
%ADD26RoundRect,0.135000X0.135000X0.185000X-0.135000X0.185000X-0.135000X-0.185000X0.135000X-0.185000X0*%
%ADD27RoundRect,0.075000X0.662500X0.075000X-0.662500X0.075000X-0.662500X-0.075000X0.662500X-0.075000X0*%
%ADD28RoundRect,0.075000X0.075000X0.662500X-0.075000X0.662500X-0.075000X-0.662500X0.075000X-0.662500X0*%
%ADD29R,0.375000X0.350000*%
%ADD30R,0.350000X0.375000*%
%ADD31R,1.500000X2.000000*%
%ADD32R,3.800000X2.000000*%
%ADD33R,1.400000X1.200000*%
%ADD34C,1.000000*%
%ADD35R,0.800000X0.900000*%
G04 APERTURE END LIST*
D10*
%TO.C,C1*%
X99060000Y-47193200D03*
X99060000Y-50143200D03*
%TD*%
D11*
%TO.C,C2*%
X91820400Y-46939200D03*
X93370400Y-46939200D03*
%TD*%
D12*
%TO.C,C3*%
X96723200Y-46939200D03*
X95173200Y-46939200D03*
%TD*%
D13*
%TO.C,C4*%
X95250000Y-48691200D03*
X95250000Y-50241200D03*
%TD*%
%TO.C,C5*%
X96926400Y-48717200D03*
X96926400Y-50267200D03*
%TD*%
%TO.C,C6*%
X93573600Y-48666400D03*
X93573600Y-50216400D03*
%TD*%
%TO.C,C7*%
X91795600Y-48666400D03*
X91795600Y-50216400D03*
%TD*%
D14*
%TO.C,C8*%
X93726000Y-45618400D03*
X94686000Y-45618400D03*
%TD*%
%TO.C,C9*%
X94363600Y-40944800D03*
X95323600Y-40944800D03*
%TD*%
D15*
%TO.C,C12*%
X105435400Y-40780000D03*
X105435400Y-39230000D03*
%TD*%
%TO.C,C13*%
X107022900Y-40767000D03*
X107022900Y-39217000D03*
%TD*%
%TO.C,C14*%
X139598400Y-40767000D03*
X139598400Y-39217000D03*
%TD*%
%TO.C,C15*%
X141249400Y-40767000D03*
X141249400Y-39217000D03*
%TD*%
%TO.C,C16*%
X71932800Y-40792400D03*
X71932800Y-39242400D03*
%TD*%
%TO.C,C17*%
X70358000Y-40792400D03*
X70358000Y-39242400D03*
%TD*%
D16*
%TO.C,C18*%
X129316400Y-50749200D03*
X131216400Y-50749200D03*
%TD*%
D17*
%TO.C,C19*%
X116078000Y-46096000D03*
X116078000Y-44196000D03*
%TD*%
D18*
%TO.C,D1*%
X93319600Y-51968400D03*
X91744600Y-51968400D03*
%TD*%
D19*
%TO.C,FB1*%
X129286000Y-48310800D03*
X129286000Y-46185800D03*
%TD*%
D20*
%TO.C,J1*%
X105736000Y-48768000D03*
D21*
X107236000Y-48768000D03*
X108736000Y-48768000D03*
X110236000Y-48768000D03*
%TD*%
D22*
%TO.C,J2*%
X70967600Y-46228000D03*
D23*
X68427600Y-46228000D03*
D22*
X65887600Y-46228000D03*
X70967600Y-49403000D03*
X65887600Y-49403000D03*
D23*
X69443600Y-51308000D03*
X67411600Y-51308000D03*
D24*
X67792600Y-47498000D03*
X69062600Y-47498000D03*
X67792600Y-48768000D03*
X69062600Y-48768000D03*
X67792600Y-50038000D03*
X69062600Y-50038000D03*
%TD*%
D25*
%TO.C,R1*%
X91541600Y-44551600D03*
X91541600Y-43531600D03*
%TD*%
D26*
%TO.C,R2*%
X96930400Y-51968400D03*
X95910400Y-51968400D03*
%TD*%
D27*
%TO.C,U1*%
X89455700Y-48724000D03*
X89455700Y-48224000D03*
X89455700Y-47724000D03*
X89455700Y-47224000D03*
X89455700Y-46724000D03*
X89455700Y-46224000D03*
X89455700Y-45724000D03*
X89455700Y-45224000D03*
X89455700Y-44724000D03*
X89455700Y-44224000D03*
X89455700Y-43724000D03*
X89455700Y-43224000D03*
D28*
X88043200Y-41811500D03*
X87543200Y-41811500D03*
X87043200Y-41811500D03*
X86543200Y-41811500D03*
X86043200Y-41811500D03*
X85543200Y-41811500D03*
X85043200Y-41811500D03*
X84543200Y-41811500D03*
X84043200Y-41811500D03*
X83543200Y-41811500D03*
X83043200Y-41811500D03*
X82543200Y-41811500D03*
D27*
X81130700Y-43224000D03*
X81130700Y-43724000D03*
X81130700Y-44224000D03*
X81130700Y-44724000D03*
X81130700Y-45224000D03*
X81130700Y-45724000D03*
X81130700Y-46224000D03*
X81130700Y-46724000D03*
X81130700Y-47224000D03*
X81130700Y-47724000D03*
X81130700Y-48224000D03*
X81130700Y-48724000D03*
D28*
X82543200Y-50136500D03*
X83043200Y-50136500D03*
X83543200Y-50136500D03*
X84043200Y-50136500D03*
X84543200Y-50136500D03*
X85043200Y-50136500D03*
X85543200Y-50136500D03*
X86043200Y-50136500D03*
X86543200Y-50136500D03*
X87043200Y-50136500D03*
X87543200Y-50136500D03*
X88043200Y-50136500D03*
%TD*%
D29*
%TO.C,U3*%
X102552000Y-42239500D03*
X102552000Y-42739500D03*
X102552000Y-43239500D03*
X102552000Y-43739500D03*
D30*
X103064500Y-43752000D03*
X103564500Y-43752000D03*
D29*
X104077000Y-43739500D03*
X104077000Y-43239500D03*
X104077000Y-42739500D03*
X104077000Y-42239500D03*
D30*
X103564500Y-42227000D03*
X103064500Y-42227000D03*
%TD*%
D29*
%TO.C,U4*%
X137540500Y-42239500D03*
X137540500Y-42739500D03*
X137540500Y-43239500D03*
X137540500Y-43739500D03*
D30*
X138053000Y-43752000D03*
X138553000Y-43752000D03*
D29*
X139065500Y-43739500D03*
X139065500Y-43239500D03*
X139065500Y-42739500D03*
X139065500Y-42239500D03*
D30*
X138553000Y-42227000D03*
X138053000Y-42227000D03*
%TD*%
D29*
%TO.C,U5*%
X67500000Y-42239500D03*
X67500000Y-42739500D03*
X67500000Y-43239500D03*
X67500000Y-43739500D03*
D30*
X68012500Y-43752000D03*
X68512500Y-43752000D03*
D29*
X69025000Y-43739500D03*
X69025000Y-43239500D03*
X69025000Y-42739500D03*
X69025000Y-42239500D03*
D30*
X68512500Y-42227000D03*
X68012500Y-42227000D03*
%TD*%
D31*
%TO.C,U6*%
X122007600Y-50648400D03*
X124307600Y-50648400D03*
D32*
X124307600Y-44348400D03*
D31*
X126607600Y-50648400D03*
%TD*%
D33*
%TO.C,Y1*%
X93235600Y-44131600D03*
X95435600Y-44131600D03*
X95435600Y-42431600D03*
X93235600Y-42431600D03*
%TD*%
D34*
%TO.C,TP1*%
X131165600Y-39116000D03*
%TD*%
%TO.C,TP2*%
X125780800Y-39166800D03*
%TD*%
%TO.C,TP3*%
X128524000Y-39116000D03*
%TD*%
%TO.C,TP4*%
X84632800Y-39319200D03*
%TD*%
%TO.C,TP5*%
X119583200Y-42113200D03*
%TD*%
%TO.C,TP6*%
X67614800Y-39928800D03*
%TD*%
%TO.C,TP7*%
X82550000Y-39319200D03*
%TD*%
%TO.C,TP8*%
X141884400Y-43891200D03*
%TD*%
%TO.C,TP9*%
X77012800Y-44297600D03*
%TD*%
%TO.C,TP10*%
X80467200Y-39319200D03*
%TD*%
%TO.C,TP11*%
X132130800Y-43891200D03*
%TD*%
%TO.C,TP12*%
X77216000Y-46329600D03*
%TD*%
D35*
%TO.C,Q1*%
X133385600Y-46260000D03*
X131485600Y-46260000D03*
X132435600Y-48260000D03*
%TD*%
M02*
