M48
; DRILL file {KiCad 8.0.1} date 2024-05-30T20:42:28+0300
; FORMAT={-:-/ absolute / metric / decimal}
; #@! TF.CreationDate,2024-05-30T20:42:28+03:00
; #@! TF.GenerationSoftware,Kicad,Pcbnew,8.0.1
; #@! TF.FileFunction,MixedPlating,1,2
FMAT,2
METRIC
; #@! TA.AperFunction,Plated,PTH,ViaDrill
T1C0.400
; #@! TA.AperFunction,Plated,PTH,ComponentDrill
T2C0.730
; #@! TA.AperFunction,NonPlated,NPTH,ComponentDrill
T3C0.991
; #@! TA.AperFunction,NonPlated,NPTH,ComponentDrill
T4C2.375
%
G90
G05
T1
X64.059Y-40.691
X64.364Y-51.511
X64.973Y-39.776
X65.126Y-42.774
X65.481Y-51.403
X65.735Y-38.862
X66.65Y-41.453
X70.815Y-42.014
X72.224Y-43.37
X72.695Y-50.952
X72.949Y-41.808
X73.406Y-45.364
X74.168Y-43.536
X74.168Y-50.394
X75.065Y-51.403
X75.794Y-44.247
X76.403Y-43.18
X76.911Y-49.073
X77.622Y-43.18
X82.855Y-47.645
X83.617Y-45.669
X83.644Y-46.92
X83.769Y-48.463
X84.505Y-44.375
X84.582Y-46.279
X85.801Y-48.616
X86.004Y-45.314
X86.055Y-39.776
X86.868Y-43.854
X87.935Y-43.18
X89.357Y-40.691
X89.967Y-38.862
X94.285Y-47.701
X94.386Y-49.53
X97.841Y-41.808
X99.3Y-40.691
X100.025Y-39.776
X100.787Y-38.862
X100.787Y-42.723
X101.752Y-41.416
X102.311Y-49.073
X102.311Y-50.241
X105.816Y-42.014
X105.816Y-43.739
X109.728Y-43.688
X109.779Y-42.52
X119.634Y-43.282
X133.147Y-41.656
X133.604Y-50.038
X133.756Y-43.739
X134.01Y-40.691
X134.823Y-39.776
X135.636Y-38.862
X135.788Y-42.723
X136.601Y-41.3
X136.652Y-39.573
X137.566Y-38.71
X140.411Y-42.014
X140.411Y-43.739
X141.122Y-51.206
X141.986Y-42.113
T2
X105.736Y-48.768
X107.236Y-48.768
X108.736Y-48.768
X110.236Y-48.768
T3
X67.412Y-51.308
X68.428Y-46.228
X69.444Y-51.308
T4
X65.888Y-46.228
X65.888Y-49.403
X70.968Y-46.228
X70.968Y-49.403
M30
