M48
; DRILL file {KiCad 8.0.1} date 2024-09-05T21:12:15+0300
; FORMAT={-:-/ absolute / metric / decimal}
; #@! TF.CreationDate,2024-09-05T21:12:15+03:00
; #@! TF.GenerationSoftware,Kicad,Pcbnew,8.0.1
; #@! TF.FileFunction,MixedPlating,1,2
FMAT,2
METRIC
; #@! TA.AperFunction,Plated,PTH,ViaDrill
T1C0.300
; #@! TA.AperFunction,Plated,PTH,ComponentDrill
T2C0.730
; #@! TA.AperFunction,Plated,PTH,ComponentDrill
T3C0.762
; #@! TA.AperFunction,Plated,PTH,ComponentDrill
T4C1.520
%
G90
G05
T1
X53.975Y-60.325
X53.975Y-67.945
X53.975Y-83.82
X53.975Y-89.535
X54.61Y-74.295
X59.69Y-80.645
X67.945Y-88.9
X68.58Y-76.2
X75.565Y-70.485
X76.2Y-88.265
X78.105Y-81.28
X81.915Y-84.455
X83.063Y-73.782
X83.185Y-70.485
X83.185Y-74.93
X83.82Y-71.755
X84.455Y-72.39
X88.265Y-60.96
X88.265Y-75.565
X88.9Y-73.66
X88.9Y-76.2
X89.535Y-73.025
X89.535Y-78.74
X90.805Y-87.63
X92.71Y-81.915
X93.345Y-78.74
X93.541Y-74.099
X93.98Y-72.39
X93.98Y-74.93
X94.615Y-59.055
X94.615Y-73.025
X95.885Y-81.915
X96.52Y-59.055
X98.425Y-73.66
X98.425Y-74.93
X99.06Y-59.69
X99.06Y-73.025
X99.06Y-75.565
X99.06Y-78.74
X100.33Y-81.28
X100.33Y-87.63
X102.235Y-72.39
X102.235Y-79.375
X105.41Y-59.055
X107.315Y-59.055
X108.585Y-64.135
T2
X91.44Y-60.96
X92.94Y-60.96
X94.44Y-60.96
X95.94Y-60.96
X102.18Y-60.96
X103.68Y-60.96
X105.18Y-60.96
X106.68Y-60.96
T3
X61.1Y-69.365
X61.1Y-88.115
X105.41Y-69.85
X105.41Y-72.39
X105.41Y-74.93
X105.41Y-77.47
X105.41Y-80.01
X105.41Y-82.55
X105.41Y-85.09
X105.41Y-87.63
X107.95Y-69.85
X107.95Y-72.39
X107.95Y-74.93
X107.95Y-77.47
X107.95Y-80.01
X107.95Y-82.55
X107.95Y-85.09
X107.95Y-87.63
T4
X58.42Y-60.96
X63.5Y-60.96
X68.58Y-60.96
X73.66Y-60.96
X78.74Y-60.96
X83.82Y-60.96
M30
