%TF.GenerationSoftware,KiCad,Pcbnew,(5.1.9)-1*%
%TF.CreationDate,2021-09-29T18:46:32+03:00*%
%TF.ProjectId,jantteri-motor-pwr,6a616e74-7465-4726-992d-6d6f746f722d,rev?*%
%TF.SameCoordinates,Original*%
%TF.FileFunction,Legend,Top*%
%TF.FilePolarity,Positive*%
%FSLAX46Y46*%
G04 Gerber Fmt 4.6, Leading zero omitted, Abs format (unit mm)*
G04 Created by KiCad (PCBNEW (5.1.9)-1) date 2021-09-29 18:46:32*
%MOMM*%
%LPD*%
G01*
G04 APERTURE LIST*
%ADD10C,0.120000*%
%ADD11C,0.150000*%
G04 APERTURE END LIST*
D10*
%TO.C,U1*%
X115887500Y-137287000D02*
X115887500Y-136017000D01*
X90487500Y-137287000D02*
X90487500Y-89027000D01*
X115887500Y-137287000D02*
X90487500Y-137287000D01*
X115887500Y-89027000D02*
X115887500Y-136017000D01*
X115887500Y-89027000D02*
X90487500Y-89027000D01*
%TO.C,C1*%
X98807748Y-103018000D02*
X100230252Y-103018000D01*
X98807748Y-101198000D02*
X100230252Y-101198000D01*
%TO.C,C2*%
X98652420Y-103630000D02*
X98933580Y-103630000D01*
X98652420Y-104650000D02*
X98933580Y-104650000D01*
%TO.C,C3*%
X98652420Y-106301000D02*
X98933580Y-106301000D01*
X98652420Y-105281000D02*
X98933580Y-105281000D01*
%TO.C,C4*%
X98652420Y-107952000D02*
X98933580Y-107952000D01*
X98652420Y-106932000D02*
X98933580Y-106932000D01*
%TO.C,C5*%
X95403580Y-109218000D02*
X95122420Y-109218000D01*
X95403580Y-110238000D02*
X95122420Y-110238000D01*
%TO.C,C6*%
X95377580Y-108587000D02*
X95096420Y-108587000D01*
X95377580Y-107567000D02*
X95096420Y-107567000D01*
%TO.C,C7*%
X95403580Y-106936000D02*
X95122420Y-106936000D01*
X95403580Y-105916000D02*
X95122420Y-105916000D01*
%TO.C,C8*%
X93874000Y-113077164D02*
X93874000Y-113292836D01*
X94594000Y-113077164D02*
X94594000Y-113292836D01*
%TO.C,C9*%
X96909836Y-116565000D02*
X96694164Y-116565000D01*
X96909836Y-115845000D02*
X96694164Y-115845000D01*
%TO.C,C10*%
X93537500Y-87184920D02*
X93537500Y-87466080D01*
X92517500Y-87184920D02*
X92517500Y-87466080D01*
%TO.C,C11*%
X96330080Y-89406000D02*
X96048920Y-89406000D01*
X96330080Y-90426000D02*
X96048920Y-90426000D01*
%TO.C,C12*%
X103795500Y-88064748D02*
X103795500Y-88587252D01*
X102325500Y-88064748D02*
X102325500Y-88587252D01*
%TO.C,C13*%
X102198500Y-101209248D02*
X102198500Y-101731752D01*
X103668500Y-101209248D02*
X103668500Y-101731752D01*
%TO.C,C14*%
X108139920Y-96772000D02*
X108421080Y-96772000D01*
X108139920Y-97792000D02*
X108421080Y-97792000D01*
%TO.C,C15*%
X107126500Y-90310580D02*
X107126500Y-90029420D01*
X106106500Y-90310580D02*
X106106500Y-90029420D01*
%TO.C,C16*%
X105851354Y-80445000D02*
X105851354Y-81445000D01*
X105351354Y-80945000D02*
X106351354Y-80945000D01*
X115912000Y-83221000D02*
X115912000Y-84419000D01*
X115872000Y-82958000D02*
X115872000Y-84682000D01*
X115832000Y-82758000D02*
X115832000Y-84882000D01*
X115792000Y-82590000D02*
X115792000Y-85050000D01*
X115752000Y-82442000D02*
X115752000Y-85198000D01*
X115712000Y-82310000D02*
X115712000Y-85330000D01*
X115672000Y-82190000D02*
X115672000Y-85450000D01*
X115632000Y-82078000D02*
X115632000Y-85562000D01*
X115592000Y-81974000D02*
X115592000Y-85666000D01*
X115552000Y-81876000D02*
X115552000Y-85764000D01*
X115512000Y-81783000D02*
X115512000Y-85857000D01*
X115472000Y-81695000D02*
X115472000Y-85945000D01*
X115432000Y-81611000D02*
X115432000Y-86029000D01*
X115392000Y-81531000D02*
X115392000Y-86109000D01*
X115352000Y-81455000D02*
X115352000Y-86185000D01*
X115312000Y-81381000D02*
X115312000Y-86259000D01*
X115272000Y-81310000D02*
X115272000Y-86330000D01*
X115232000Y-81241000D02*
X115232000Y-86399000D01*
X115192000Y-81175000D02*
X115192000Y-86465000D01*
X115152000Y-81111000D02*
X115152000Y-86529000D01*
X115112000Y-81050000D02*
X115112000Y-86590000D01*
X115072000Y-80990000D02*
X115072000Y-86650000D01*
X115032000Y-80931000D02*
X115032000Y-86709000D01*
X114992000Y-80875000D02*
X114992000Y-86765000D01*
X114952000Y-80820000D02*
X114952000Y-86820000D01*
X114912000Y-80766000D02*
X114912000Y-86874000D01*
X114872000Y-80714000D02*
X114872000Y-86926000D01*
X114832000Y-80664000D02*
X114832000Y-86976000D01*
X114792000Y-80614000D02*
X114792000Y-87026000D01*
X114752000Y-80566000D02*
X114752000Y-87074000D01*
X114712000Y-80519000D02*
X114712000Y-87121000D01*
X114672000Y-80473000D02*
X114672000Y-87167000D01*
X114632000Y-80428000D02*
X114632000Y-87212000D01*
X114592000Y-80384000D02*
X114592000Y-87256000D01*
X114552000Y-85061000D02*
X114552000Y-87298000D01*
X114552000Y-80342000D02*
X114552000Y-82579000D01*
X114512000Y-85061000D02*
X114512000Y-87340000D01*
X114512000Y-80300000D02*
X114512000Y-82579000D01*
X114472000Y-85061000D02*
X114472000Y-87381000D01*
X114472000Y-80259000D02*
X114472000Y-82579000D01*
X114432000Y-85061000D02*
X114432000Y-87421000D01*
X114432000Y-80219000D02*
X114432000Y-82579000D01*
X114392000Y-85061000D02*
X114392000Y-87460000D01*
X114392000Y-80180000D02*
X114392000Y-82579000D01*
X114352000Y-85061000D02*
X114352000Y-87499000D01*
X114352000Y-80141000D02*
X114352000Y-82579000D01*
X114312000Y-85061000D02*
X114312000Y-87536000D01*
X114312000Y-80104000D02*
X114312000Y-82579000D01*
X114272000Y-85061000D02*
X114272000Y-87573000D01*
X114272000Y-80067000D02*
X114272000Y-82579000D01*
X114232000Y-85061000D02*
X114232000Y-87609000D01*
X114232000Y-80031000D02*
X114232000Y-82579000D01*
X114192000Y-85061000D02*
X114192000Y-87644000D01*
X114192000Y-79996000D02*
X114192000Y-82579000D01*
X114152000Y-85061000D02*
X114152000Y-87678000D01*
X114152000Y-79962000D02*
X114152000Y-82579000D01*
X114112000Y-85061000D02*
X114112000Y-87712000D01*
X114112000Y-79928000D02*
X114112000Y-82579000D01*
X114072000Y-85061000D02*
X114072000Y-87745000D01*
X114072000Y-79895000D02*
X114072000Y-82579000D01*
X114032000Y-85061000D02*
X114032000Y-87777000D01*
X114032000Y-79863000D02*
X114032000Y-82579000D01*
X113992000Y-85061000D02*
X113992000Y-87809000D01*
X113992000Y-79831000D02*
X113992000Y-82579000D01*
X113952000Y-85061000D02*
X113952000Y-87840000D01*
X113952000Y-79800000D02*
X113952000Y-82579000D01*
X113912000Y-85061000D02*
X113912000Y-87870000D01*
X113912000Y-79770000D02*
X113912000Y-82579000D01*
X113872000Y-85061000D02*
X113872000Y-87900000D01*
X113872000Y-79740000D02*
X113872000Y-82579000D01*
X113832000Y-85061000D02*
X113832000Y-87930000D01*
X113832000Y-79710000D02*
X113832000Y-82579000D01*
X113792000Y-85061000D02*
X113792000Y-87958000D01*
X113792000Y-79682000D02*
X113792000Y-82579000D01*
X113752000Y-85061000D02*
X113752000Y-87986000D01*
X113752000Y-79654000D02*
X113752000Y-82579000D01*
X113712000Y-85061000D02*
X113712000Y-88014000D01*
X113712000Y-79626000D02*
X113712000Y-82579000D01*
X113672000Y-85061000D02*
X113672000Y-88041000D01*
X113672000Y-79599000D02*
X113672000Y-82579000D01*
X113632000Y-85061000D02*
X113632000Y-88067000D01*
X113632000Y-79573000D02*
X113632000Y-82579000D01*
X113592000Y-85061000D02*
X113592000Y-88093000D01*
X113592000Y-79547000D02*
X113592000Y-82579000D01*
X113552000Y-85061000D02*
X113552000Y-88118000D01*
X113552000Y-79522000D02*
X113552000Y-82579000D01*
X113512000Y-85061000D02*
X113512000Y-88143000D01*
X113512000Y-79497000D02*
X113512000Y-82579000D01*
X113472000Y-85061000D02*
X113472000Y-88167000D01*
X113472000Y-79473000D02*
X113472000Y-82579000D01*
X113432000Y-85061000D02*
X113432000Y-88191000D01*
X113432000Y-79449000D02*
X113432000Y-82579000D01*
X113392000Y-85061000D02*
X113392000Y-88215000D01*
X113392000Y-79425000D02*
X113392000Y-82579000D01*
X113352000Y-85061000D02*
X113352000Y-88237000D01*
X113352000Y-79403000D02*
X113352000Y-82579000D01*
X113312000Y-85061000D02*
X113312000Y-88260000D01*
X113312000Y-79380000D02*
X113312000Y-82579000D01*
X113272000Y-85061000D02*
X113272000Y-88282000D01*
X113272000Y-79358000D02*
X113272000Y-82579000D01*
X113232000Y-85061000D02*
X113232000Y-88303000D01*
X113232000Y-79337000D02*
X113232000Y-82579000D01*
X113192000Y-85061000D02*
X113192000Y-88324000D01*
X113192000Y-79316000D02*
X113192000Y-82579000D01*
X113152000Y-85061000D02*
X113152000Y-88345000D01*
X113152000Y-79295000D02*
X113152000Y-82579000D01*
X113112000Y-85061000D02*
X113112000Y-88365000D01*
X113112000Y-79275000D02*
X113112000Y-82579000D01*
X113072000Y-85061000D02*
X113072000Y-88384000D01*
X113072000Y-79256000D02*
X113072000Y-82579000D01*
X113032000Y-85061000D02*
X113032000Y-88404000D01*
X113032000Y-79236000D02*
X113032000Y-82579000D01*
X112992000Y-85061000D02*
X112992000Y-88423000D01*
X112992000Y-79217000D02*
X112992000Y-82579000D01*
X112952000Y-85061000D02*
X112952000Y-88441000D01*
X112952000Y-79199000D02*
X112952000Y-82579000D01*
X112912000Y-85061000D02*
X112912000Y-88459000D01*
X112912000Y-79181000D02*
X112912000Y-82579000D01*
X112872000Y-85061000D02*
X112872000Y-88477000D01*
X112872000Y-79163000D02*
X112872000Y-82579000D01*
X112832000Y-85061000D02*
X112832000Y-88494000D01*
X112832000Y-79146000D02*
X112832000Y-82579000D01*
X112792000Y-85061000D02*
X112792000Y-88510000D01*
X112792000Y-79130000D02*
X112792000Y-82579000D01*
X112752000Y-85061000D02*
X112752000Y-88527000D01*
X112752000Y-79113000D02*
X112752000Y-82579000D01*
X112712000Y-85061000D02*
X112712000Y-88543000D01*
X112712000Y-79097000D02*
X112712000Y-82579000D01*
X112672000Y-85061000D02*
X112672000Y-88558000D01*
X112672000Y-79082000D02*
X112672000Y-82579000D01*
X112632000Y-85061000D02*
X112632000Y-88574000D01*
X112632000Y-79066000D02*
X112632000Y-82579000D01*
X112592000Y-85061000D02*
X112592000Y-88588000D01*
X112592000Y-79052000D02*
X112592000Y-82579000D01*
X112552000Y-85061000D02*
X112552000Y-88603000D01*
X112552000Y-79037000D02*
X112552000Y-82579000D01*
X112512000Y-85061000D02*
X112512000Y-88617000D01*
X112512000Y-79023000D02*
X112512000Y-82579000D01*
X112472000Y-85061000D02*
X112472000Y-88631000D01*
X112472000Y-79009000D02*
X112472000Y-82579000D01*
X112432000Y-85061000D02*
X112432000Y-88644000D01*
X112432000Y-78996000D02*
X112432000Y-82579000D01*
X112392000Y-85061000D02*
X112392000Y-88657000D01*
X112392000Y-78983000D02*
X112392000Y-82579000D01*
X112352000Y-85061000D02*
X112352000Y-88670000D01*
X112352000Y-78970000D02*
X112352000Y-82579000D01*
X112312000Y-85061000D02*
X112312000Y-88682000D01*
X112312000Y-78958000D02*
X112312000Y-82579000D01*
X112272000Y-85061000D02*
X112272000Y-88694000D01*
X112272000Y-78946000D02*
X112272000Y-82579000D01*
X112232000Y-85061000D02*
X112232000Y-88705000D01*
X112232000Y-78935000D02*
X112232000Y-82579000D01*
X112192000Y-85061000D02*
X112192000Y-88717000D01*
X112192000Y-78923000D02*
X112192000Y-82579000D01*
X112152000Y-85061000D02*
X112152000Y-88727000D01*
X112152000Y-78913000D02*
X112152000Y-82579000D01*
X112112000Y-85061000D02*
X112112000Y-88738000D01*
X112112000Y-78902000D02*
X112112000Y-82579000D01*
X112072000Y-78892000D02*
X112072000Y-88748000D01*
X112032000Y-78882000D02*
X112032000Y-88758000D01*
X111992000Y-78873000D02*
X111992000Y-88767000D01*
X111952000Y-78864000D02*
X111952000Y-88776000D01*
X111912000Y-78855000D02*
X111912000Y-88785000D01*
X111872000Y-78846000D02*
X111872000Y-88794000D01*
X111832000Y-78838000D02*
X111832000Y-88802000D01*
X111792000Y-78830000D02*
X111792000Y-88810000D01*
X111752000Y-78823000D02*
X111752000Y-88817000D01*
X111712000Y-78816000D02*
X111712000Y-88824000D01*
X111672000Y-78809000D02*
X111672000Y-88831000D01*
X111632000Y-78802000D02*
X111632000Y-88838000D01*
X111592000Y-78796000D02*
X111592000Y-88844000D01*
X111552000Y-78790000D02*
X111552000Y-88850000D01*
X111511000Y-78785000D02*
X111511000Y-88855000D01*
X111471000Y-78780000D02*
X111471000Y-88860000D01*
X111431000Y-78775000D02*
X111431000Y-88865000D01*
X111391000Y-78770000D02*
X111391000Y-88870000D01*
X111351000Y-78766000D02*
X111351000Y-88874000D01*
X111311000Y-78762000D02*
X111311000Y-88878000D01*
X111271000Y-78758000D02*
X111271000Y-88882000D01*
X111231000Y-78755000D02*
X111231000Y-88885000D01*
X111191000Y-78752000D02*
X111191000Y-88888000D01*
X111151000Y-78750000D02*
X111151000Y-88890000D01*
X111111000Y-78747000D02*
X111111000Y-88893000D01*
X111071000Y-78745000D02*
X111071000Y-88895000D01*
X111031000Y-78743000D02*
X111031000Y-88897000D01*
X110991000Y-78742000D02*
X110991000Y-88898000D01*
X110951000Y-78741000D02*
X110951000Y-88899000D01*
X110911000Y-78740000D02*
X110911000Y-88900000D01*
X110871000Y-78740000D02*
X110871000Y-88900000D01*
X110831000Y-78740000D02*
X110831000Y-88900000D01*
X115951000Y-83820000D02*
G75*
G03*
X115951000Y-83820000I-5120000J0D01*
G01*
%TO.C,C17*%
X93118500Y-65748500D02*
X85058500Y-65748500D01*
X93118500Y-70268500D02*
X93118500Y-65748500D01*
X85058500Y-70268500D02*
X93118500Y-70268500D01*
%TO.C,C18*%
X97216500Y-142530920D02*
X97216500Y-142812080D01*
X98236500Y-142530920D02*
X98236500Y-142812080D01*
%TO.C,C19*%
X100366500Y-142420748D02*
X100366500Y-142943252D01*
X98896500Y-142420748D02*
X98896500Y-142943252D01*
%TO.C,C20*%
X92038500Y-147696248D02*
X92038500Y-148218752D01*
X93508500Y-147696248D02*
X93508500Y-148218752D01*
%TO.C,C21*%
X85434500Y-144902248D02*
X85434500Y-145424752D01*
X86904500Y-144902248D02*
X86904500Y-145424752D01*
%TO.C,D1*%
X86932500Y-142975000D02*
X89217500Y-142975000D01*
X86932500Y-141505000D02*
X86932500Y-142975000D01*
X89217500Y-141505000D02*
X86932500Y-141505000D01*
%TO.C,D2*%
X96285500Y-63516000D02*
X100135500Y-63516000D01*
X96285500Y-65516000D02*
X100135500Y-65516000D01*
X96285500Y-63516000D02*
X96285500Y-65516000D01*
%TO.C,FB1*%
X102310000Y-66393122D02*
X102310000Y-65593878D01*
X103430000Y-66393122D02*
X103430000Y-65593878D01*
%TO.C,J1*%
X104585000Y-138534500D02*
X104585000Y-139334500D01*
X105385000Y-138534500D02*
X104585000Y-138534500D01*
X113145000Y-142054500D02*
X113145000Y-141654500D01*
X113245000Y-141654500D02*
X113245000Y-142054500D01*
X113045000Y-141654500D02*
X113245000Y-141654500D01*
X113045000Y-142054500D02*
X113045000Y-141654500D01*
X111645000Y-142054500D02*
X111645000Y-141654500D01*
X111745000Y-141654500D02*
X111745000Y-142054500D01*
X111545000Y-141654500D02*
X111745000Y-141654500D01*
X111545000Y-142054500D02*
X111545000Y-141654500D01*
X110145000Y-142054500D02*
X110145000Y-141654500D01*
X110245000Y-141654500D02*
X110245000Y-142054500D01*
X110045000Y-141654500D02*
X110245000Y-141654500D01*
X110045000Y-142054500D02*
X110045000Y-141654500D01*
X108645000Y-142054500D02*
X108645000Y-141654500D01*
X108745000Y-141654500D02*
X108745000Y-142054500D01*
X108545000Y-141654500D02*
X108745000Y-141654500D01*
X108545000Y-142054500D02*
X108545000Y-141654500D01*
X107145000Y-142054500D02*
X107145000Y-141654500D01*
X107245000Y-141654500D02*
X107245000Y-142054500D01*
X107045000Y-141654500D02*
X107245000Y-141654500D01*
X107045000Y-142054500D02*
X107045000Y-141654500D01*
X115505000Y-140644500D02*
X115105000Y-140644500D01*
X115505000Y-139644500D02*
X115105000Y-139644500D01*
X104785000Y-140644500D02*
X105185000Y-140644500D01*
X104785000Y-139644500D02*
X105185000Y-139644500D01*
X115105000Y-139134500D02*
X105185000Y-139134500D01*
X115105000Y-142054500D02*
X115105000Y-139134500D01*
X105185000Y-142054500D02*
X115105000Y-142054500D01*
X105185000Y-139134500D02*
X105185000Y-142054500D01*
X106095000Y-138634500D02*
X105795000Y-138634500D01*
X105795000Y-138534500D02*
X105795000Y-138734500D01*
X106095000Y-138534500D02*
X105795000Y-138534500D01*
X106095000Y-138734500D02*
X106095000Y-138534500D01*
X115505000Y-138734500D02*
X104785000Y-138734500D01*
X115505000Y-142454500D02*
X115505000Y-138734500D01*
X104785000Y-142454500D02*
X115505000Y-142454500D01*
X104785000Y-138734500D02*
X104785000Y-142454500D01*
%TO.C,J2*%
X107507500Y-127510000D02*
X108267500Y-127510000D01*
X107507500Y-128270000D02*
X107507500Y-127510000D01*
X115097500Y-133610000D02*
X111097500Y-133610000D01*
X115097500Y-133090000D02*
X115097500Y-133610000D01*
X111097500Y-133090000D02*
X115097500Y-133090000D01*
X109977500Y-132699677D02*
X109977500Y-132730323D01*
X109977500Y-132715000D02*
X111097500Y-132715000D01*
X115097500Y-132340000D02*
X111097500Y-132340000D01*
X115097500Y-131820000D02*
X115097500Y-132340000D01*
X111097500Y-131820000D02*
X115097500Y-131820000D01*
X109977500Y-131429677D02*
X109977500Y-131460323D01*
X109977500Y-131445000D02*
X111097500Y-131445000D01*
X115097500Y-131070000D02*
X111097500Y-131070000D01*
X115097500Y-130550000D02*
X115097500Y-131070000D01*
X111097500Y-130550000D02*
X115097500Y-130550000D01*
X109977500Y-130159677D02*
X109977500Y-130190323D01*
X109977500Y-130175000D02*
X111097500Y-130175000D01*
X115097500Y-129800000D02*
X111097500Y-129800000D01*
X115097500Y-129280000D02*
X115097500Y-129800000D01*
X111097500Y-129280000D02*
X115097500Y-129280000D01*
X109977500Y-128889677D02*
X109977500Y-128920323D01*
X109977500Y-128905000D02*
X111097500Y-128905000D01*
X111097500Y-128430000D02*
X115097500Y-128430000D01*
X111097500Y-128310000D02*
X115097500Y-128310000D01*
X111097500Y-128190000D02*
X115097500Y-128190000D01*
X111097500Y-128070000D02*
X115097500Y-128070000D01*
X115097500Y-128530000D02*
X111097500Y-128530000D01*
X115097500Y-128010000D02*
X115097500Y-128530000D01*
X111097500Y-128010000D02*
X115097500Y-128010000D01*
X109977500Y-134045000D02*
X109977500Y-133969677D01*
X111097500Y-134045000D02*
X109977500Y-134045000D01*
X111097500Y-127575000D02*
X111097500Y-134045000D01*
X109977500Y-127575000D02*
X111097500Y-127575000D01*
X109977500Y-127650323D02*
X109977500Y-127575000D01*
%TO.C,J3*%
X110721500Y-97750000D02*
X111521500Y-97750000D01*
X110721500Y-96950000D02*
X110721500Y-97750000D01*
X114241500Y-92190000D02*
X113841500Y-92190000D01*
X113841500Y-92090000D02*
X114241500Y-92090000D01*
X113841500Y-92290000D02*
X113841500Y-92090000D01*
X114241500Y-92290000D02*
X113841500Y-92290000D01*
X114241500Y-93690000D02*
X113841500Y-93690000D01*
X113841500Y-93590000D02*
X114241500Y-93590000D01*
X113841500Y-93790000D02*
X113841500Y-93590000D01*
X114241500Y-93790000D02*
X113841500Y-93790000D01*
X114241500Y-95190000D02*
X113841500Y-95190000D01*
X113841500Y-95090000D02*
X114241500Y-95090000D01*
X113841500Y-95290000D02*
X113841500Y-95090000D01*
X114241500Y-95290000D02*
X113841500Y-95290000D01*
X112831500Y-89830000D02*
X112831500Y-90230000D01*
X111831500Y-89830000D02*
X111831500Y-90230000D01*
X112831500Y-97550000D02*
X112831500Y-97150000D01*
X111831500Y-97550000D02*
X111831500Y-97150000D01*
X111321500Y-90230000D02*
X111321500Y-97150000D01*
X114241500Y-90230000D02*
X111321500Y-90230000D01*
X114241500Y-97150000D02*
X114241500Y-90230000D01*
X111321500Y-97150000D02*
X114241500Y-97150000D01*
X110821500Y-96240000D02*
X110821500Y-96540000D01*
X110721500Y-96540000D02*
X110921500Y-96540000D01*
X110721500Y-96240000D02*
X110721500Y-96540000D01*
X110921500Y-96240000D02*
X110721500Y-96240000D01*
X110921500Y-89830000D02*
X110921500Y-97550000D01*
X114641500Y-89830000D02*
X110921500Y-89830000D01*
X114641500Y-97550000D02*
X114641500Y-89830000D01*
X110921500Y-97550000D02*
X114641500Y-97550000D01*
%TO.C,J4*%
X84867500Y-147551500D02*
X84867500Y-148351500D01*
X85667500Y-147551500D02*
X84867500Y-147551500D01*
X88927500Y-151071500D02*
X88927500Y-150671500D01*
X89027500Y-150671500D02*
X89027500Y-151071500D01*
X88827500Y-150671500D02*
X89027500Y-150671500D01*
X88827500Y-151071500D02*
X88827500Y-150671500D01*
X87427500Y-151071500D02*
X87427500Y-150671500D01*
X87527500Y-150671500D02*
X87527500Y-151071500D01*
X87327500Y-150671500D02*
X87527500Y-150671500D01*
X87327500Y-151071500D02*
X87327500Y-150671500D01*
X91287500Y-149661500D02*
X90887500Y-149661500D01*
X91287500Y-148661500D02*
X90887500Y-148661500D01*
X85067500Y-149661500D02*
X85467500Y-149661500D01*
X85067500Y-148661500D02*
X85467500Y-148661500D01*
X90887500Y-148151500D02*
X85467500Y-148151500D01*
X90887500Y-151071500D02*
X90887500Y-148151500D01*
X85467500Y-151071500D02*
X90887500Y-151071500D01*
X85467500Y-148151500D02*
X85467500Y-151071500D01*
X86377500Y-147651500D02*
X86077500Y-147651500D01*
X86077500Y-147551500D02*
X86077500Y-147751500D01*
X86377500Y-147551500D02*
X86077500Y-147551500D01*
X86377500Y-147751500D02*
X86377500Y-147551500D01*
X91287500Y-147751500D02*
X85067500Y-147751500D01*
X91287500Y-151471500D02*
X91287500Y-147751500D01*
X85067500Y-151471500D02*
X91287500Y-151471500D01*
X85067500Y-147751500D02*
X85067500Y-151471500D01*
%TO.C,J5*%
X109985500Y-73529500D02*
X109985500Y-72199500D01*
X111315500Y-73529500D02*
X109985500Y-73529500D01*
X112585500Y-73529500D02*
X112585500Y-70869500D01*
X112585500Y-70869500D02*
X115185500Y-70869500D01*
X112585500Y-73529500D02*
X115185500Y-73529500D01*
X115185500Y-73529500D02*
X115185500Y-70869500D01*
%TO.C,J6*%
X115185500Y-74933500D02*
X115185500Y-76263500D01*
X113855500Y-74933500D02*
X115185500Y-74933500D01*
X112585500Y-74933500D02*
X112585500Y-77593500D01*
X112585500Y-77593500D02*
X107445500Y-77593500D01*
X112585500Y-74933500D02*
X107445500Y-74933500D01*
X107445500Y-74933500D02*
X107445500Y-77593500D01*
%TO.C,J7*%
X107883000Y-146117000D02*
X105223000Y-146117000D01*
X107883000Y-148717000D02*
X107883000Y-146117000D01*
X105223000Y-148717000D02*
X105223000Y-146117000D01*
X107883000Y-148717000D02*
X105223000Y-148717000D01*
X107883000Y-149987000D02*
X107883000Y-151317000D01*
X107883000Y-151317000D02*
X106553000Y-151317000D01*
%TO.C,L1*%
X92917000Y-71170000D02*
X92917000Y-74170000D01*
X80317000Y-71170000D02*
X92917000Y-71170000D01*
X80317000Y-74170000D02*
X80317000Y-71170000D01*
X80317000Y-83770000D02*
X80317000Y-80770000D01*
X92917000Y-83770000D02*
X80317000Y-83770000D01*
X92917000Y-80770000D02*
X92917000Y-83770000D01*
%TO.C,Q1*%
X104211000Y-66689000D02*
X104211000Y-65229000D01*
X107371000Y-66689000D02*
X107371000Y-64529000D01*
X107371000Y-66689000D02*
X106441000Y-66689000D01*
X104211000Y-66689000D02*
X105141000Y-66689000D01*
%TO.C,Q2*%
X89553000Y-85481000D02*
X91013000Y-85481000D01*
X89553000Y-88641000D02*
X91713000Y-88641000D01*
X89553000Y-88641000D02*
X89553000Y-87711000D01*
X89553000Y-85481000D02*
X89553000Y-86411000D01*
%TO.C,Q3*%
X109265500Y-95875000D02*
X107805500Y-95875000D01*
X109265500Y-92715000D02*
X107105500Y-92715000D01*
X109265500Y-92715000D02*
X109265500Y-93645000D01*
X109265500Y-95875000D02*
X109265500Y-94945000D01*
%TO.C,R1*%
X95246564Y-103786000D02*
X94792436Y-103786000D01*
X95246564Y-105256000D02*
X94792436Y-105256000D01*
%TO.C,R2*%
X95199564Y-102970000D02*
X94745436Y-102970000D01*
X95199564Y-101500000D02*
X94745436Y-101500000D01*
%TO.C,R3*%
X98680000Y-114275359D02*
X98680000Y-114582641D01*
X99440000Y-114275359D02*
X99440000Y-114582641D01*
%TO.C,R4*%
X85315359Y-141860000D02*
X85622641Y-141860000D01*
X85315359Y-142620000D02*
X85622641Y-142620000D01*
%TO.C,R5*%
X92167141Y-90232500D02*
X91859859Y-90232500D01*
X92167141Y-89472500D02*
X91859859Y-89472500D01*
%TO.C,R6*%
X108365859Y-92328000D02*
X108673141Y-92328000D01*
X108365859Y-91568000D02*
X108673141Y-91568000D01*
%TO.C,R7*%
X105194859Y-123506500D02*
X105502141Y-123506500D01*
X105194859Y-122746500D02*
X105502141Y-122746500D01*
%TO.C,R8*%
X87593500Y-144893936D02*
X87593500Y-145348064D01*
X89063500Y-144893936D02*
X89063500Y-145348064D01*
%TO.C,U2*%
X101546000Y-108981000D02*
X100256000Y-108981000D01*
X101546000Y-108531000D02*
X101546000Y-108981000D01*
X101996000Y-108531000D02*
X101546000Y-108531000D01*
X108766000Y-108531000D02*
X108766000Y-108981000D01*
X108316000Y-108531000D02*
X108766000Y-108531000D01*
X101546000Y-115751000D02*
X101546000Y-115301000D01*
X101996000Y-115751000D02*
X101546000Y-115751000D01*
X108766000Y-115751000D02*
X108766000Y-115301000D01*
X108316000Y-115751000D02*
X108766000Y-115751000D01*
%TO.C,U3*%
X97862500Y-85616500D02*
X94987500Y-85616500D01*
X97862500Y-85616500D02*
X99362500Y-85616500D01*
X97862500Y-88836500D02*
X96362500Y-88836500D01*
X97862500Y-88836500D02*
X99362500Y-88836500D01*
%TO.C,U4*%
X101517500Y-92204500D02*
X101517500Y-98214500D01*
X94697500Y-94454500D02*
X94697500Y-98214500D01*
X101517500Y-98214500D02*
X100257500Y-98214500D01*
X94697500Y-98214500D02*
X95957500Y-98214500D01*
%TO.C,U5*%
X105791000Y-95241000D02*
X105791000Y-93741000D01*
X105791000Y-95241000D02*
X105791000Y-96741000D01*
X102571000Y-95241000D02*
X102571000Y-93741000D01*
X102571000Y-95241000D02*
X102571000Y-98116000D01*
%TO.C,U6*%
X95240000Y-73310000D02*
X95240000Y-72210000D01*
X94290000Y-73310000D02*
X95240000Y-73310000D01*
X94290000Y-74810000D02*
X94290000Y-73310000D01*
X103740000Y-73310000D02*
X103740000Y-68185000D01*
X104690000Y-73310000D02*
X103740000Y-73310000D01*
X104690000Y-74810000D02*
X104690000Y-73310000D01*
D11*
%TO.C,U7*%
X103089000Y-151377500D02*
X97464000Y-151377500D01*
X101964000Y-145827500D02*
X97464000Y-145827500D01*
D10*
%TO.C,Y1*%
X95036000Y-111241000D02*
X95036000Y-115241000D01*
X98336000Y-111241000D02*
X95036000Y-111241000D01*
%TO.C,U1*%
D11*
X113474595Y-125690380D02*
X113474595Y-126499904D01*
X113522214Y-126595142D01*
X113569833Y-126642761D01*
X113665071Y-126690380D01*
X113855547Y-126690380D01*
X113950785Y-126642761D01*
X113998404Y-126595142D01*
X114046023Y-126499904D01*
X114046023Y-125690380D01*
X115046023Y-126690380D02*
X114474595Y-126690380D01*
X114760309Y-126690380D02*
X114760309Y-125690380D01*
X114665071Y-125833238D01*
X114569833Y-125928476D01*
X114474595Y-125976095D01*
%TO.C,C1*%
X102893833Y-104560642D02*
X102846214Y-104608261D01*
X102703357Y-104655880D01*
X102608119Y-104655880D01*
X102465261Y-104608261D01*
X102370023Y-104513023D01*
X102322404Y-104417785D01*
X102274785Y-104227309D01*
X102274785Y-104084452D01*
X102322404Y-103893976D01*
X102370023Y-103798738D01*
X102465261Y-103703500D01*
X102608119Y-103655880D01*
X102703357Y-103655880D01*
X102846214Y-103703500D01*
X102893833Y-103751119D01*
X103846214Y-104655880D02*
X103274785Y-104655880D01*
X103560500Y-104655880D02*
X103560500Y-103655880D01*
X103465261Y-103798738D01*
X103370023Y-103893976D01*
X103274785Y-103941595D01*
%TO.C,C2*%
X101052333Y-104624142D02*
X101004714Y-104671761D01*
X100861857Y-104719380D01*
X100766619Y-104719380D01*
X100623761Y-104671761D01*
X100528523Y-104576523D01*
X100480904Y-104481285D01*
X100433285Y-104290809D01*
X100433285Y-104147952D01*
X100480904Y-103957476D01*
X100528523Y-103862238D01*
X100623761Y-103767000D01*
X100766619Y-103719380D01*
X100861857Y-103719380D01*
X101004714Y-103767000D01*
X101052333Y-103814619D01*
X101433285Y-103814619D02*
X101480904Y-103767000D01*
X101576142Y-103719380D01*
X101814238Y-103719380D01*
X101909476Y-103767000D01*
X101957095Y-103814619D01*
X102004714Y-103909857D01*
X102004714Y-104005095D01*
X101957095Y-104147952D01*
X101385666Y-104719380D01*
X102004714Y-104719380D01*
%TO.C,C3*%
X101052333Y-106148142D02*
X101004714Y-106195761D01*
X100861857Y-106243380D01*
X100766619Y-106243380D01*
X100623761Y-106195761D01*
X100528523Y-106100523D01*
X100480904Y-106005285D01*
X100433285Y-105814809D01*
X100433285Y-105671952D01*
X100480904Y-105481476D01*
X100528523Y-105386238D01*
X100623761Y-105291000D01*
X100766619Y-105243380D01*
X100861857Y-105243380D01*
X101004714Y-105291000D01*
X101052333Y-105338619D01*
X101385666Y-105243380D02*
X102004714Y-105243380D01*
X101671380Y-105624333D01*
X101814238Y-105624333D01*
X101909476Y-105671952D01*
X101957095Y-105719571D01*
X102004714Y-105814809D01*
X102004714Y-106052904D01*
X101957095Y-106148142D01*
X101909476Y-106195761D01*
X101814238Y-106243380D01*
X101528523Y-106243380D01*
X101433285Y-106195761D01*
X101385666Y-106148142D01*
%TO.C,C4*%
X101052333Y-107672142D02*
X101004714Y-107719761D01*
X100861857Y-107767380D01*
X100766619Y-107767380D01*
X100623761Y-107719761D01*
X100528523Y-107624523D01*
X100480904Y-107529285D01*
X100433285Y-107338809D01*
X100433285Y-107195952D01*
X100480904Y-107005476D01*
X100528523Y-106910238D01*
X100623761Y-106815000D01*
X100766619Y-106767380D01*
X100861857Y-106767380D01*
X101004714Y-106815000D01*
X101052333Y-106862619D01*
X101909476Y-107100714D02*
X101909476Y-107767380D01*
X101671380Y-106719761D02*
X101433285Y-107434047D01*
X102052333Y-107434047D01*
%TO.C,C5*%
X97893142Y-109894666D02*
X97940761Y-109942285D01*
X97988380Y-110085142D01*
X97988380Y-110180380D01*
X97940761Y-110323238D01*
X97845523Y-110418476D01*
X97750285Y-110466095D01*
X97559809Y-110513714D01*
X97416952Y-110513714D01*
X97226476Y-110466095D01*
X97131238Y-110418476D01*
X97036000Y-110323238D01*
X96988380Y-110180380D01*
X96988380Y-110085142D01*
X97036000Y-109942285D01*
X97083619Y-109894666D01*
X96988380Y-108989904D02*
X96988380Y-109466095D01*
X97464571Y-109513714D01*
X97416952Y-109466095D01*
X97369333Y-109370857D01*
X97369333Y-109132761D01*
X97416952Y-109037523D01*
X97464571Y-108989904D01*
X97559809Y-108942285D01*
X97797904Y-108942285D01*
X97893142Y-108989904D01*
X97940761Y-109037523D01*
X97988380Y-109132761D01*
X97988380Y-109370857D01*
X97940761Y-109466095D01*
X97893142Y-109513714D01*
%TO.C,C6*%
X93575142Y-108878666D02*
X93622761Y-108926285D01*
X93670380Y-109069142D01*
X93670380Y-109164380D01*
X93622761Y-109307238D01*
X93527523Y-109402476D01*
X93432285Y-109450095D01*
X93241809Y-109497714D01*
X93098952Y-109497714D01*
X92908476Y-109450095D01*
X92813238Y-109402476D01*
X92718000Y-109307238D01*
X92670380Y-109164380D01*
X92670380Y-109069142D01*
X92718000Y-108926285D01*
X92765619Y-108878666D01*
X92670380Y-108021523D02*
X92670380Y-108212000D01*
X92718000Y-108307238D01*
X92765619Y-108354857D01*
X92908476Y-108450095D01*
X93098952Y-108497714D01*
X93479904Y-108497714D01*
X93575142Y-108450095D01*
X93622761Y-108402476D01*
X93670380Y-108307238D01*
X93670380Y-108116761D01*
X93622761Y-108021523D01*
X93575142Y-107973904D01*
X93479904Y-107926285D01*
X93241809Y-107926285D01*
X93146571Y-107973904D01*
X93098952Y-108021523D01*
X93051333Y-108116761D01*
X93051333Y-108307238D01*
X93098952Y-108402476D01*
X93146571Y-108450095D01*
X93241809Y-108497714D01*
%TO.C,C7*%
X97919142Y-106719666D02*
X97966761Y-106767285D01*
X98014380Y-106910142D01*
X98014380Y-107005380D01*
X97966761Y-107148238D01*
X97871523Y-107243476D01*
X97776285Y-107291095D01*
X97585809Y-107338714D01*
X97442952Y-107338714D01*
X97252476Y-107291095D01*
X97157238Y-107243476D01*
X97062000Y-107148238D01*
X97014380Y-107005380D01*
X97014380Y-106910142D01*
X97062000Y-106767285D01*
X97109619Y-106719666D01*
X97014380Y-106386333D02*
X97014380Y-105719666D01*
X98014380Y-106148238D01*
%TO.C,C8*%
X93559333Y-111990142D02*
X93511714Y-112037761D01*
X93368857Y-112085380D01*
X93273619Y-112085380D01*
X93130761Y-112037761D01*
X93035523Y-111942523D01*
X92987904Y-111847285D01*
X92940285Y-111656809D01*
X92940285Y-111513952D01*
X92987904Y-111323476D01*
X93035523Y-111228238D01*
X93130761Y-111133000D01*
X93273619Y-111085380D01*
X93368857Y-111085380D01*
X93511714Y-111133000D01*
X93559333Y-111180619D01*
X94130761Y-111513952D02*
X94035523Y-111466333D01*
X93987904Y-111418714D01*
X93940285Y-111323476D01*
X93940285Y-111275857D01*
X93987904Y-111180619D01*
X94035523Y-111133000D01*
X94130761Y-111085380D01*
X94321238Y-111085380D01*
X94416476Y-111133000D01*
X94464095Y-111180619D01*
X94511714Y-111275857D01*
X94511714Y-111323476D01*
X94464095Y-111418714D01*
X94416476Y-111466333D01*
X94321238Y-111513952D01*
X94130761Y-111513952D01*
X94035523Y-111561571D01*
X93987904Y-111609190D01*
X93940285Y-111704428D01*
X93940285Y-111894904D01*
X93987904Y-111990142D01*
X94035523Y-112037761D01*
X94130761Y-112085380D01*
X94321238Y-112085380D01*
X94416476Y-112037761D01*
X94464095Y-111990142D01*
X94511714Y-111894904D01*
X94511714Y-111704428D01*
X94464095Y-111609190D01*
X94416476Y-111561571D01*
X94321238Y-111513952D01*
%TO.C,C9*%
X95210333Y-117959142D02*
X95162714Y-118006761D01*
X95019857Y-118054380D01*
X94924619Y-118054380D01*
X94781761Y-118006761D01*
X94686523Y-117911523D01*
X94638904Y-117816285D01*
X94591285Y-117625809D01*
X94591285Y-117482952D01*
X94638904Y-117292476D01*
X94686523Y-117197238D01*
X94781761Y-117102000D01*
X94924619Y-117054380D01*
X95019857Y-117054380D01*
X95162714Y-117102000D01*
X95210333Y-117149619D01*
X95686523Y-118054380D02*
X95877000Y-118054380D01*
X95972238Y-118006761D01*
X96019857Y-117959142D01*
X96115095Y-117816285D01*
X96162714Y-117625809D01*
X96162714Y-117244857D01*
X96115095Y-117149619D01*
X96067476Y-117102000D01*
X95972238Y-117054380D01*
X95781761Y-117054380D01*
X95686523Y-117102000D01*
X95638904Y-117149619D01*
X95591285Y-117244857D01*
X95591285Y-117482952D01*
X95638904Y-117578190D01*
X95686523Y-117625809D01*
X95781761Y-117673428D01*
X95972238Y-117673428D01*
X96067476Y-117625809D01*
X96115095Y-117578190D01*
X96162714Y-117482952D01*
%TO.C,C10*%
X92003642Y-85523642D02*
X91956023Y-85571261D01*
X91813166Y-85618880D01*
X91717928Y-85618880D01*
X91575071Y-85571261D01*
X91479833Y-85476023D01*
X91432214Y-85380785D01*
X91384595Y-85190309D01*
X91384595Y-85047452D01*
X91432214Y-84856976D01*
X91479833Y-84761738D01*
X91575071Y-84666500D01*
X91717928Y-84618880D01*
X91813166Y-84618880D01*
X91956023Y-84666500D01*
X92003642Y-84714119D01*
X92956023Y-85618880D02*
X92384595Y-85618880D01*
X92670309Y-85618880D02*
X92670309Y-84618880D01*
X92575071Y-84761738D01*
X92479833Y-84856976D01*
X92384595Y-84904595D01*
X93575071Y-84618880D02*
X93670309Y-84618880D01*
X93765547Y-84666500D01*
X93813166Y-84714119D01*
X93860785Y-84809357D01*
X93908404Y-84999833D01*
X93908404Y-85237928D01*
X93860785Y-85428404D01*
X93813166Y-85523642D01*
X93765547Y-85571261D01*
X93670309Y-85618880D01*
X93575071Y-85618880D01*
X93479833Y-85571261D01*
X93432214Y-85523642D01*
X93384595Y-85428404D01*
X93336976Y-85237928D01*
X93336976Y-84999833D01*
X93384595Y-84809357D01*
X93432214Y-84714119D01*
X93479833Y-84666500D01*
X93575071Y-84618880D01*
%TO.C,C11*%
X93654642Y-91670142D02*
X93607023Y-91717761D01*
X93464166Y-91765380D01*
X93368928Y-91765380D01*
X93226071Y-91717761D01*
X93130833Y-91622523D01*
X93083214Y-91527285D01*
X93035595Y-91336809D01*
X93035595Y-91193952D01*
X93083214Y-91003476D01*
X93130833Y-90908238D01*
X93226071Y-90813000D01*
X93368928Y-90765380D01*
X93464166Y-90765380D01*
X93607023Y-90813000D01*
X93654642Y-90860619D01*
X94607023Y-91765380D02*
X94035595Y-91765380D01*
X94321309Y-91765380D02*
X94321309Y-90765380D01*
X94226071Y-90908238D01*
X94130833Y-91003476D01*
X94035595Y-91051095D01*
X95559404Y-91765380D02*
X94987976Y-91765380D01*
X95273690Y-91765380D02*
X95273690Y-90765380D01*
X95178452Y-90908238D01*
X95083214Y-91003476D01*
X94987976Y-91051095D01*
%TO.C,C12*%
X102481142Y-86082142D02*
X102433523Y-86129761D01*
X102290666Y-86177380D01*
X102195428Y-86177380D01*
X102052571Y-86129761D01*
X101957333Y-86034523D01*
X101909714Y-85939285D01*
X101862095Y-85748809D01*
X101862095Y-85605952D01*
X101909714Y-85415476D01*
X101957333Y-85320238D01*
X102052571Y-85225000D01*
X102195428Y-85177380D01*
X102290666Y-85177380D01*
X102433523Y-85225000D01*
X102481142Y-85272619D01*
X103433523Y-86177380D02*
X102862095Y-86177380D01*
X103147809Y-86177380D02*
X103147809Y-85177380D01*
X103052571Y-85320238D01*
X102957333Y-85415476D01*
X102862095Y-85463095D01*
X103814476Y-85272619D02*
X103862095Y-85225000D01*
X103957333Y-85177380D01*
X104195428Y-85177380D01*
X104290666Y-85225000D01*
X104338285Y-85272619D01*
X104385904Y-85367857D01*
X104385904Y-85463095D01*
X104338285Y-85605952D01*
X103766857Y-86177380D01*
X104385904Y-86177380D01*
%TO.C,C13*%
X104970642Y-102113357D02*
X105018261Y-102160976D01*
X105065880Y-102303833D01*
X105065880Y-102399071D01*
X105018261Y-102541928D01*
X104923023Y-102637166D01*
X104827785Y-102684785D01*
X104637309Y-102732404D01*
X104494452Y-102732404D01*
X104303976Y-102684785D01*
X104208738Y-102637166D01*
X104113500Y-102541928D01*
X104065880Y-102399071D01*
X104065880Y-102303833D01*
X104113500Y-102160976D01*
X104161119Y-102113357D01*
X105065880Y-101160976D02*
X105065880Y-101732404D01*
X105065880Y-101446690D02*
X104065880Y-101446690D01*
X104208738Y-101541928D01*
X104303976Y-101637166D01*
X104351595Y-101732404D01*
X104065880Y-100827642D02*
X104065880Y-100208595D01*
X104446833Y-100541928D01*
X104446833Y-100399071D01*
X104494452Y-100303833D01*
X104542071Y-100256214D01*
X104637309Y-100208595D01*
X104875404Y-100208595D01*
X104970642Y-100256214D01*
X105018261Y-100303833D01*
X105065880Y-100399071D01*
X105065880Y-100684785D01*
X105018261Y-100780023D01*
X104970642Y-100827642D01*
%TO.C,C14*%
X107637642Y-99544142D02*
X107590023Y-99591761D01*
X107447166Y-99639380D01*
X107351928Y-99639380D01*
X107209071Y-99591761D01*
X107113833Y-99496523D01*
X107066214Y-99401285D01*
X107018595Y-99210809D01*
X107018595Y-99067952D01*
X107066214Y-98877476D01*
X107113833Y-98782238D01*
X107209071Y-98687000D01*
X107351928Y-98639380D01*
X107447166Y-98639380D01*
X107590023Y-98687000D01*
X107637642Y-98734619D01*
X108590023Y-99639380D02*
X108018595Y-99639380D01*
X108304309Y-99639380D02*
X108304309Y-98639380D01*
X108209071Y-98782238D01*
X108113833Y-98877476D01*
X108018595Y-98925095D01*
X109447166Y-98972714D02*
X109447166Y-99639380D01*
X109209071Y-98591761D02*
X108970976Y-99306047D01*
X109590023Y-99306047D01*
%TO.C,C15*%
X106783142Y-87701357D02*
X106830761Y-87748976D01*
X106878380Y-87891833D01*
X106878380Y-87987071D01*
X106830761Y-88129928D01*
X106735523Y-88225166D01*
X106640285Y-88272785D01*
X106449809Y-88320404D01*
X106306952Y-88320404D01*
X106116476Y-88272785D01*
X106021238Y-88225166D01*
X105926000Y-88129928D01*
X105878380Y-87987071D01*
X105878380Y-87891833D01*
X105926000Y-87748976D01*
X105973619Y-87701357D01*
X106878380Y-86748976D02*
X106878380Y-87320404D01*
X106878380Y-87034690D02*
X105878380Y-87034690D01*
X106021238Y-87129928D01*
X106116476Y-87225166D01*
X106164095Y-87320404D01*
X105878380Y-85844214D02*
X105878380Y-86320404D01*
X106354571Y-86368023D01*
X106306952Y-86320404D01*
X106259333Y-86225166D01*
X106259333Y-85987071D01*
X106306952Y-85891833D01*
X106354571Y-85844214D01*
X106449809Y-85796595D01*
X106687904Y-85796595D01*
X106783142Y-85844214D01*
X106830761Y-85891833D01*
X106878380Y-85987071D01*
X106878380Y-86225166D01*
X106830761Y-86320404D01*
X106783142Y-86368023D01*
%TO.C,C16*%
X106465142Y-78462142D02*
X106417523Y-78509761D01*
X106274666Y-78557380D01*
X106179428Y-78557380D01*
X106036571Y-78509761D01*
X105941333Y-78414523D01*
X105893714Y-78319285D01*
X105846095Y-78128809D01*
X105846095Y-77985952D01*
X105893714Y-77795476D01*
X105941333Y-77700238D01*
X106036571Y-77605000D01*
X106179428Y-77557380D01*
X106274666Y-77557380D01*
X106417523Y-77605000D01*
X106465142Y-77652619D01*
X107417523Y-78557380D02*
X106846095Y-78557380D01*
X107131809Y-78557380D02*
X107131809Y-77557380D01*
X107036571Y-77700238D01*
X106941333Y-77795476D01*
X106846095Y-77843095D01*
X108274666Y-77557380D02*
X108084190Y-77557380D01*
X107988952Y-77605000D01*
X107941333Y-77652619D01*
X107846095Y-77795476D01*
X107798476Y-77985952D01*
X107798476Y-78366904D01*
X107846095Y-78462142D01*
X107893714Y-78509761D01*
X107988952Y-78557380D01*
X108179428Y-78557380D01*
X108274666Y-78509761D01*
X108322285Y-78462142D01*
X108369904Y-78366904D01*
X108369904Y-78128809D01*
X108322285Y-78033571D01*
X108274666Y-77985952D01*
X108179428Y-77938333D01*
X107988952Y-77938333D01*
X107893714Y-77985952D01*
X107846095Y-78033571D01*
X107798476Y-78128809D01*
%TO.C,C17*%
X88001142Y-68556142D02*
X87953523Y-68603761D01*
X87810666Y-68651380D01*
X87715428Y-68651380D01*
X87572571Y-68603761D01*
X87477333Y-68508523D01*
X87429714Y-68413285D01*
X87382095Y-68222809D01*
X87382095Y-68079952D01*
X87429714Y-67889476D01*
X87477333Y-67794238D01*
X87572571Y-67699000D01*
X87715428Y-67651380D01*
X87810666Y-67651380D01*
X87953523Y-67699000D01*
X88001142Y-67746619D01*
X88953523Y-68651380D02*
X88382095Y-68651380D01*
X88667809Y-68651380D02*
X88667809Y-67651380D01*
X88572571Y-67794238D01*
X88477333Y-67889476D01*
X88382095Y-67937095D01*
X89286857Y-67651380D02*
X89953523Y-67651380D01*
X89524952Y-68651380D01*
%TO.C,C18*%
X98147142Y-140215857D02*
X98194761Y-140263476D01*
X98242380Y-140406333D01*
X98242380Y-140501571D01*
X98194761Y-140644428D01*
X98099523Y-140739666D01*
X98004285Y-140787285D01*
X97813809Y-140834904D01*
X97670952Y-140834904D01*
X97480476Y-140787285D01*
X97385238Y-140739666D01*
X97290000Y-140644428D01*
X97242380Y-140501571D01*
X97242380Y-140406333D01*
X97290000Y-140263476D01*
X97337619Y-140215857D01*
X98242380Y-139263476D02*
X98242380Y-139834904D01*
X98242380Y-139549190D02*
X97242380Y-139549190D01*
X97385238Y-139644428D01*
X97480476Y-139739666D01*
X97528095Y-139834904D01*
X97670952Y-138692047D02*
X97623333Y-138787285D01*
X97575714Y-138834904D01*
X97480476Y-138882523D01*
X97432857Y-138882523D01*
X97337619Y-138834904D01*
X97290000Y-138787285D01*
X97242380Y-138692047D01*
X97242380Y-138501571D01*
X97290000Y-138406333D01*
X97337619Y-138358714D01*
X97432857Y-138311095D01*
X97480476Y-138311095D01*
X97575714Y-138358714D01*
X97623333Y-138406333D01*
X97670952Y-138501571D01*
X97670952Y-138692047D01*
X97718571Y-138787285D01*
X97766190Y-138834904D01*
X97861428Y-138882523D01*
X98051904Y-138882523D01*
X98147142Y-138834904D01*
X98194761Y-138787285D01*
X98242380Y-138692047D01*
X98242380Y-138501571D01*
X98194761Y-138406333D01*
X98147142Y-138358714D01*
X98051904Y-138311095D01*
X97861428Y-138311095D01*
X97766190Y-138358714D01*
X97718571Y-138406333D01*
X97670952Y-138501571D01*
%TO.C,C19*%
X100052142Y-140025357D02*
X100099761Y-140072976D01*
X100147380Y-140215833D01*
X100147380Y-140311071D01*
X100099761Y-140453928D01*
X100004523Y-140549166D01*
X99909285Y-140596785D01*
X99718809Y-140644404D01*
X99575952Y-140644404D01*
X99385476Y-140596785D01*
X99290238Y-140549166D01*
X99195000Y-140453928D01*
X99147380Y-140311071D01*
X99147380Y-140215833D01*
X99195000Y-140072976D01*
X99242619Y-140025357D01*
X100147380Y-139072976D02*
X100147380Y-139644404D01*
X100147380Y-139358690D02*
X99147380Y-139358690D01*
X99290238Y-139453928D01*
X99385476Y-139549166D01*
X99433095Y-139644404D01*
X100147380Y-138596785D02*
X100147380Y-138406309D01*
X100099761Y-138311071D01*
X100052142Y-138263452D01*
X99909285Y-138168214D01*
X99718809Y-138120595D01*
X99337857Y-138120595D01*
X99242619Y-138168214D01*
X99195000Y-138215833D01*
X99147380Y-138311071D01*
X99147380Y-138501547D01*
X99195000Y-138596785D01*
X99242619Y-138644404D01*
X99337857Y-138692023D01*
X99575952Y-138692023D01*
X99671190Y-138644404D01*
X99718809Y-138596785D01*
X99766428Y-138501547D01*
X99766428Y-138311071D01*
X99718809Y-138215833D01*
X99671190Y-138168214D01*
X99575952Y-138120595D01*
%TO.C,C20*%
X91352642Y-148661357D02*
X91400261Y-148708976D01*
X91447880Y-148851833D01*
X91447880Y-148947071D01*
X91400261Y-149089928D01*
X91305023Y-149185166D01*
X91209785Y-149232785D01*
X91019309Y-149280404D01*
X90876452Y-149280404D01*
X90685976Y-149232785D01*
X90590738Y-149185166D01*
X90495500Y-149089928D01*
X90447880Y-148947071D01*
X90447880Y-148851833D01*
X90495500Y-148708976D01*
X90543119Y-148661357D01*
X90543119Y-148280404D02*
X90495500Y-148232785D01*
X90447880Y-148137547D01*
X90447880Y-147899452D01*
X90495500Y-147804214D01*
X90543119Y-147756595D01*
X90638357Y-147708976D01*
X90733595Y-147708976D01*
X90876452Y-147756595D01*
X91447880Y-148328023D01*
X91447880Y-147708976D01*
X90447880Y-147089928D02*
X90447880Y-146994690D01*
X90495500Y-146899452D01*
X90543119Y-146851833D01*
X90638357Y-146804214D01*
X90828833Y-146756595D01*
X91066928Y-146756595D01*
X91257404Y-146804214D01*
X91352642Y-146851833D01*
X91400261Y-146899452D01*
X91447880Y-146994690D01*
X91447880Y-147089928D01*
X91400261Y-147185166D01*
X91352642Y-147232785D01*
X91257404Y-147280404D01*
X91066928Y-147328023D01*
X90828833Y-147328023D01*
X90638357Y-147280404D01*
X90543119Y-147232785D01*
X90495500Y-147185166D01*
X90447880Y-147089928D01*
%TO.C,C21*%
X84113642Y-145803857D02*
X84161261Y-145851476D01*
X84208880Y-145994333D01*
X84208880Y-146089571D01*
X84161261Y-146232428D01*
X84066023Y-146327666D01*
X83970785Y-146375285D01*
X83780309Y-146422904D01*
X83637452Y-146422904D01*
X83446976Y-146375285D01*
X83351738Y-146327666D01*
X83256500Y-146232428D01*
X83208880Y-146089571D01*
X83208880Y-145994333D01*
X83256500Y-145851476D01*
X83304119Y-145803857D01*
X83304119Y-145422904D02*
X83256500Y-145375285D01*
X83208880Y-145280047D01*
X83208880Y-145041952D01*
X83256500Y-144946714D01*
X83304119Y-144899095D01*
X83399357Y-144851476D01*
X83494595Y-144851476D01*
X83637452Y-144899095D01*
X84208880Y-145470523D01*
X84208880Y-144851476D01*
X84208880Y-143899095D02*
X84208880Y-144470523D01*
X84208880Y-144184809D02*
X83208880Y-144184809D01*
X83351738Y-144280047D01*
X83446976Y-144375285D01*
X83494595Y-144470523D01*
%TO.C,D1*%
X87679404Y-141262380D02*
X87679404Y-140262380D01*
X87917500Y-140262380D01*
X88060357Y-140310000D01*
X88155595Y-140405238D01*
X88203214Y-140500476D01*
X88250833Y-140690952D01*
X88250833Y-140833809D01*
X88203214Y-141024285D01*
X88155595Y-141119523D01*
X88060357Y-141214761D01*
X87917500Y-141262380D01*
X87679404Y-141262380D01*
X89203214Y-141262380D02*
X88631785Y-141262380D01*
X88917500Y-141262380D02*
X88917500Y-140262380D01*
X88822261Y-140405238D01*
X88727023Y-140500476D01*
X88631785Y-140548095D01*
%TO.C,D2*%
X94384904Y-64904880D02*
X94384904Y-63904880D01*
X94623000Y-63904880D01*
X94765857Y-63952500D01*
X94861095Y-64047738D01*
X94908714Y-64142976D01*
X94956333Y-64333452D01*
X94956333Y-64476309D01*
X94908714Y-64666785D01*
X94861095Y-64762023D01*
X94765857Y-64857261D01*
X94623000Y-64904880D01*
X94384904Y-64904880D01*
X95337285Y-64000119D02*
X95384904Y-63952500D01*
X95480142Y-63904880D01*
X95718238Y-63904880D01*
X95813476Y-63952500D01*
X95861095Y-64000119D01*
X95908714Y-64095357D01*
X95908714Y-64190595D01*
X95861095Y-64333452D01*
X95289666Y-64904880D01*
X95908714Y-64904880D01*
%TO.C,FB1*%
X101248571Y-66826833D02*
X101248571Y-67160166D01*
X101772380Y-67160166D02*
X100772380Y-67160166D01*
X100772380Y-66683976D01*
X101248571Y-65969690D02*
X101296190Y-65826833D01*
X101343809Y-65779214D01*
X101439047Y-65731595D01*
X101581904Y-65731595D01*
X101677142Y-65779214D01*
X101724761Y-65826833D01*
X101772380Y-65922071D01*
X101772380Y-66303023D01*
X100772380Y-66303023D01*
X100772380Y-65969690D01*
X100820000Y-65874452D01*
X100867619Y-65826833D01*
X100962857Y-65779214D01*
X101058095Y-65779214D01*
X101153333Y-65826833D01*
X101200952Y-65874452D01*
X101248571Y-65969690D01*
X101248571Y-66303023D01*
X101772380Y-64779214D02*
X101772380Y-65350642D01*
X101772380Y-65064928D02*
X100772380Y-65064928D01*
X100915238Y-65160166D01*
X101010476Y-65255404D01*
X101058095Y-65350642D01*
%TO.C,H1*%
X79121095Y-145604380D02*
X79121095Y-144604380D01*
X79121095Y-145080571D02*
X79692523Y-145080571D01*
X79692523Y-145604380D02*
X79692523Y-144604380D01*
X80692523Y-145604380D02*
X80121095Y-145604380D01*
X80406809Y-145604380D02*
X80406809Y-144604380D01*
X80311571Y-144747238D01*
X80216333Y-144842476D01*
X80121095Y-144890095D01*
%TO.C,H2*%
X112014095Y-62546380D02*
X112014095Y-61546380D01*
X112014095Y-62022571D02*
X112585523Y-62022571D01*
X112585523Y-62546380D02*
X112585523Y-61546380D01*
X113014095Y-61641619D02*
X113061714Y-61594000D01*
X113156952Y-61546380D01*
X113395047Y-61546380D01*
X113490285Y-61594000D01*
X113537904Y-61641619D01*
X113585523Y-61736857D01*
X113585523Y-61832095D01*
X113537904Y-61974952D01*
X112966476Y-62546380D01*
X113585523Y-62546380D01*
%TO.C,H3*%
X79121095Y-62546380D02*
X79121095Y-61546380D01*
X79121095Y-62022571D02*
X79692523Y-62022571D01*
X79692523Y-62546380D02*
X79692523Y-61546380D01*
X80073476Y-61546380D02*
X80692523Y-61546380D01*
X80359190Y-61927333D01*
X80502047Y-61927333D01*
X80597285Y-61974952D01*
X80644904Y-62022571D01*
X80692523Y-62117809D01*
X80692523Y-62355904D01*
X80644904Y-62451142D01*
X80597285Y-62498761D01*
X80502047Y-62546380D01*
X80216333Y-62546380D01*
X80121095Y-62498761D01*
X80073476Y-62451142D01*
%TO.C,H4*%
X112014095Y-145604380D02*
X112014095Y-144604380D01*
X112014095Y-145080571D02*
X112585523Y-145080571D01*
X112585523Y-145604380D02*
X112585523Y-144604380D01*
X113490285Y-144937714D02*
X113490285Y-145604380D01*
X113252190Y-144556761D02*
X113014095Y-145271047D01*
X113633142Y-145271047D01*
%TO.C,J1*%
X109811666Y-137096880D02*
X109811666Y-137811166D01*
X109764047Y-137954023D01*
X109668809Y-138049261D01*
X109525952Y-138096880D01*
X109430714Y-138096880D01*
X110811666Y-138096880D02*
X110240238Y-138096880D01*
X110525952Y-138096880D02*
X110525952Y-137096880D01*
X110430714Y-137239738D01*
X110335476Y-137334976D01*
X110240238Y-137382595D01*
%TO.C,J2*%
X111001666Y-126087380D02*
X111001666Y-126801666D01*
X110954047Y-126944523D01*
X110858809Y-127039761D01*
X110715952Y-127087380D01*
X110620714Y-127087380D01*
X111430238Y-126182619D02*
X111477857Y-126135000D01*
X111573095Y-126087380D01*
X111811190Y-126087380D01*
X111906428Y-126135000D01*
X111954047Y-126182619D01*
X112001666Y-126277857D01*
X112001666Y-126373095D01*
X111954047Y-126515952D01*
X111382619Y-127087380D01*
X112001666Y-127087380D01*
%TO.C,J3*%
X113458666Y-98376880D02*
X113458666Y-99091166D01*
X113411047Y-99234023D01*
X113315809Y-99329261D01*
X113172952Y-99376880D01*
X113077714Y-99376880D01*
X113839619Y-98376880D02*
X114458666Y-98376880D01*
X114125333Y-98757833D01*
X114268190Y-98757833D01*
X114363428Y-98805452D01*
X114411047Y-98853071D01*
X114458666Y-98948309D01*
X114458666Y-99186404D01*
X114411047Y-99281642D01*
X114363428Y-99329261D01*
X114268190Y-99376880D01*
X113982476Y-99376880D01*
X113887238Y-99329261D01*
X113839619Y-99281642D01*
%TO.C,J4*%
X83423166Y-151090380D02*
X83423166Y-151804666D01*
X83375547Y-151947523D01*
X83280309Y-152042761D01*
X83137452Y-152090380D01*
X83042214Y-152090380D01*
X84327928Y-151423714D02*
X84327928Y-152090380D01*
X84089833Y-151042761D02*
X83851738Y-151757047D01*
X84470785Y-151757047D01*
%TO.C,J5*%
X108437880Y-72532833D02*
X109152166Y-72532833D01*
X109295023Y-72580452D01*
X109390261Y-72675690D01*
X109437880Y-72818547D01*
X109437880Y-72913785D01*
X108437880Y-71580452D02*
X108437880Y-72056642D01*
X108914071Y-72104261D01*
X108866452Y-72056642D01*
X108818833Y-71961404D01*
X108818833Y-71723309D01*
X108866452Y-71628071D01*
X108914071Y-71580452D01*
X109009309Y-71532833D01*
X109247404Y-71532833D01*
X109342642Y-71580452D01*
X109390261Y-71628071D01*
X109437880Y-71723309D01*
X109437880Y-71961404D01*
X109390261Y-72056642D01*
X109342642Y-72104261D01*
%TO.C,J6*%
X115637880Y-76215833D02*
X116352166Y-76215833D01*
X116495023Y-76263452D01*
X116590261Y-76358690D01*
X116637880Y-76501547D01*
X116637880Y-76596785D01*
X115637880Y-75311071D02*
X115637880Y-75501547D01*
X115685500Y-75596785D01*
X115733119Y-75644404D01*
X115875976Y-75739642D01*
X116066452Y-75787261D01*
X116447404Y-75787261D01*
X116542642Y-75739642D01*
X116590261Y-75692023D01*
X116637880Y-75596785D01*
X116637880Y-75406309D01*
X116590261Y-75311071D01*
X116542642Y-75263452D01*
X116447404Y-75215833D01*
X116209309Y-75215833D01*
X116114071Y-75263452D01*
X116066452Y-75311071D01*
X116018833Y-75406309D01*
X116018833Y-75596785D01*
X116066452Y-75692023D01*
X116114071Y-75739642D01*
X116209309Y-75787261D01*
%TO.C,J7*%
X106219666Y-151769380D02*
X106219666Y-152483666D01*
X106172047Y-152626523D01*
X106076809Y-152721761D01*
X105933952Y-152769380D01*
X105838714Y-152769380D01*
X106600619Y-151769380D02*
X107267285Y-151769380D01*
X106838714Y-152769380D01*
%TO.C,L1*%
X86066333Y-72842380D02*
X85590142Y-72842380D01*
X85590142Y-71842380D01*
X86923476Y-72842380D02*
X86352047Y-72842380D01*
X86637761Y-72842380D02*
X86637761Y-71842380D01*
X86542523Y-71985238D01*
X86447285Y-72080476D01*
X86352047Y-72128095D01*
%TO.C,Q1*%
X108838619Y-66024238D02*
X108791000Y-66119476D01*
X108695761Y-66214714D01*
X108552904Y-66357571D01*
X108505285Y-66452809D01*
X108505285Y-66548047D01*
X108743380Y-66500428D02*
X108695761Y-66595666D01*
X108600523Y-66690904D01*
X108410047Y-66738523D01*
X108076714Y-66738523D01*
X107886238Y-66690904D01*
X107791000Y-66595666D01*
X107743380Y-66500428D01*
X107743380Y-66309952D01*
X107791000Y-66214714D01*
X107886238Y-66119476D01*
X108076714Y-66071857D01*
X108410047Y-66071857D01*
X108600523Y-66119476D01*
X108695761Y-66214714D01*
X108743380Y-66309952D01*
X108743380Y-66500428D01*
X108743380Y-65119476D02*
X108743380Y-65690904D01*
X108743380Y-65405190D02*
X107743380Y-65405190D01*
X107886238Y-65500428D01*
X107981476Y-65595666D01*
X108029095Y-65690904D01*
%TO.C,Q2*%
X90424261Y-85195619D02*
X90329023Y-85148000D01*
X90233785Y-85052761D01*
X90090928Y-84909904D01*
X89995690Y-84862285D01*
X89900452Y-84862285D01*
X89948071Y-85100380D02*
X89852833Y-85052761D01*
X89757595Y-84957523D01*
X89709976Y-84767047D01*
X89709976Y-84433714D01*
X89757595Y-84243238D01*
X89852833Y-84148000D01*
X89948071Y-84100380D01*
X90138547Y-84100380D01*
X90233785Y-84148000D01*
X90329023Y-84243238D01*
X90376642Y-84433714D01*
X90376642Y-84767047D01*
X90329023Y-84957523D01*
X90233785Y-85052761D01*
X90138547Y-85100380D01*
X89948071Y-85100380D01*
X90757595Y-84195619D02*
X90805214Y-84148000D01*
X90900452Y-84100380D01*
X91138547Y-84100380D01*
X91233785Y-84148000D01*
X91281404Y-84195619D01*
X91329023Y-84290857D01*
X91329023Y-84386095D01*
X91281404Y-84528952D01*
X90709976Y-85100380D01*
X91329023Y-85100380D01*
%TO.C,Q3*%
X108934261Y-90463619D02*
X108839023Y-90416000D01*
X108743785Y-90320761D01*
X108600928Y-90177904D01*
X108505690Y-90130285D01*
X108410452Y-90130285D01*
X108458071Y-90368380D02*
X108362833Y-90320761D01*
X108267595Y-90225523D01*
X108219976Y-90035047D01*
X108219976Y-89701714D01*
X108267595Y-89511238D01*
X108362833Y-89416000D01*
X108458071Y-89368380D01*
X108648547Y-89368380D01*
X108743785Y-89416000D01*
X108839023Y-89511238D01*
X108886642Y-89701714D01*
X108886642Y-90035047D01*
X108839023Y-90225523D01*
X108743785Y-90320761D01*
X108648547Y-90368380D01*
X108458071Y-90368380D01*
X109219976Y-89368380D02*
X109839023Y-89368380D01*
X109505690Y-89749333D01*
X109648547Y-89749333D01*
X109743785Y-89796952D01*
X109791404Y-89844571D01*
X109839023Y-89939809D01*
X109839023Y-90177904D01*
X109791404Y-90273142D01*
X109743785Y-90320761D01*
X109648547Y-90368380D01*
X109362833Y-90368380D01*
X109267595Y-90320761D01*
X109219976Y-90273142D01*
%TO.C,R1*%
X93670380Y-106719666D02*
X93194190Y-107053000D01*
X93670380Y-107291095D02*
X92670380Y-107291095D01*
X92670380Y-106910142D01*
X92718000Y-106814904D01*
X92765619Y-106767285D01*
X92860857Y-106719666D01*
X93003714Y-106719666D01*
X93098952Y-106767285D01*
X93146571Y-106814904D01*
X93194190Y-106910142D01*
X93194190Y-107291095D01*
X93670380Y-105767285D02*
X93670380Y-106338714D01*
X93670380Y-106053000D02*
X92670380Y-106053000D01*
X92813238Y-106148238D01*
X92908476Y-106243476D01*
X92956095Y-106338714D01*
%TO.C,R2*%
X94805833Y-100909380D02*
X94472500Y-100433190D01*
X94234404Y-100909380D02*
X94234404Y-99909380D01*
X94615357Y-99909380D01*
X94710595Y-99957000D01*
X94758214Y-100004619D01*
X94805833Y-100099857D01*
X94805833Y-100242714D01*
X94758214Y-100337952D01*
X94710595Y-100385571D01*
X94615357Y-100433190D01*
X94234404Y-100433190D01*
X95186785Y-100004619D02*
X95234404Y-99957000D01*
X95329642Y-99909380D01*
X95567738Y-99909380D01*
X95662976Y-99957000D01*
X95710595Y-100004619D01*
X95758214Y-100099857D01*
X95758214Y-100195095D01*
X95710595Y-100337952D01*
X95139166Y-100909380D01*
X95758214Y-100909380D01*
%TO.C,R3*%
X99766380Y-112561666D02*
X99290190Y-112895000D01*
X99766380Y-113133095D02*
X98766380Y-113133095D01*
X98766380Y-112752142D01*
X98814000Y-112656904D01*
X98861619Y-112609285D01*
X98956857Y-112561666D01*
X99099714Y-112561666D01*
X99194952Y-112609285D01*
X99242571Y-112656904D01*
X99290190Y-112752142D01*
X99290190Y-113133095D01*
X98766380Y-112228333D02*
X98766380Y-111609285D01*
X99147333Y-111942619D01*
X99147333Y-111799761D01*
X99194952Y-111704523D01*
X99242571Y-111656904D01*
X99337809Y-111609285D01*
X99575904Y-111609285D01*
X99671142Y-111656904D01*
X99718761Y-111704523D01*
X99766380Y-111799761D01*
X99766380Y-112085476D01*
X99718761Y-112180714D01*
X99671142Y-112228333D01*
%TO.C,R4*%
X85177333Y-141422380D02*
X84844000Y-140946190D01*
X84605904Y-141422380D02*
X84605904Y-140422380D01*
X84986857Y-140422380D01*
X85082095Y-140470000D01*
X85129714Y-140517619D01*
X85177333Y-140612857D01*
X85177333Y-140755714D01*
X85129714Y-140850952D01*
X85082095Y-140898571D01*
X84986857Y-140946190D01*
X84605904Y-140946190D01*
X86034476Y-140755714D02*
X86034476Y-141422380D01*
X85796380Y-140374761D02*
X85558285Y-141089047D01*
X86177333Y-141089047D01*
%TO.C,R5*%
X88987333Y-90368380D02*
X88654000Y-89892190D01*
X88415904Y-90368380D02*
X88415904Y-89368380D01*
X88796857Y-89368380D01*
X88892095Y-89416000D01*
X88939714Y-89463619D01*
X88987333Y-89558857D01*
X88987333Y-89701714D01*
X88939714Y-89796952D01*
X88892095Y-89844571D01*
X88796857Y-89892190D01*
X88415904Y-89892190D01*
X89892095Y-89368380D02*
X89415904Y-89368380D01*
X89368285Y-89844571D01*
X89415904Y-89796952D01*
X89511142Y-89749333D01*
X89749238Y-89749333D01*
X89844476Y-89796952D01*
X89892095Y-89844571D01*
X89939714Y-89939809D01*
X89939714Y-90177904D01*
X89892095Y-90273142D01*
X89844476Y-90320761D01*
X89749238Y-90368380D01*
X89511142Y-90368380D01*
X89415904Y-90320761D01*
X89368285Y-90273142D01*
%TO.C,R6*%
X109747833Y-91257380D02*
X109414500Y-90781190D01*
X109176404Y-91257380D02*
X109176404Y-90257380D01*
X109557357Y-90257380D01*
X109652595Y-90305000D01*
X109700214Y-90352619D01*
X109747833Y-90447857D01*
X109747833Y-90590714D01*
X109700214Y-90685952D01*
X109652595Y-90733571D01*
X109557357Y-90781190D01*
X109176404Y-90781190D01*
X110604976Y-90257380D02*
X110414500Y-90257380D01*
X110319261Y-90305000D01*
X110271642Y-90352619D01*
X110176404Y-90495476D01*
X110128785Y-90685952D01*
X110128785Y-91066904D01*
X110176404Y-91162142D01*
X110224023Y-91209761D01*
X110319261Y-91257380D01*
X110509738Y-91257380D01*
X110604976Y-91209761D01*
X110652595Y-91162142D01*
X110700214Y-91066904D01*
X110700214Y-90828809D01*
X110652595Y-90733571D01*
X110604976Y-90685952D01*
X110509738Y-90638333D01*
X110319261Y-90638333D01*
X110224023Y-90685952D01*
X110176404Y-90733571D01*
X110128785Y-90828809D01*
%TO.C,R7*%
X105181833Y-122408880D02*
X104848500Y-121932690D01*
X104610404Y-122408880D02*
X104610404Y-121408880D01*
X104991357Y-121408880D01*
X105086595Y-121456500D01*
X105134214Y-121504119D01*
X105181833Y-121599357D01*
X105181833Y-121742214D01*
X105134214Y-121837452D01*
X105086595Y-121885071D01*
X104991357Y-121932690D01*
X104610404Y-121932690D01*
X105515166Y-121408880D02*
X106181833Y-121408880D01*
X105753261Y-122408880D01*
%TO.C,R8*%
X90431880Y-146153166D02*
X89955690Y-146486500D01*
X90431880Y-146724595D02*
X89431880Y-146724595D01*
X89431880Y-146343642D01*
X89479500Y-146248404D01*
X89527119Y-146200785D01*
X89622357Y-146153166D01*
X89765214Y-146153166D01*
X89860452Y-146200785D01*
X89908071Y-146248404D01*
X89955690Y-146343642D01*
X89955690Y-146724595D01*
X89860452Y-145581738D02*
X89812833Y-145676976D01*
X89765214Y-145724595D01*
X89669976Y-145772214D01*
X89622357Y-145772214D01*
X89527119Y-145724595D01*
X89479500Y-145676976D01*
X89431880Y-145581738D01*
X89431880Y-145391261D01*
X89479500Y-145296023D01*
X89527119Y-145248404D01*
X89622357Y-145200785D01*
X89669976Y-145200785D01*
X89765214Y-145248404D01*
X89812833Y-145296023D01*
X89860452Y-145391261D01*
X89860452Y-145581738D01*
X89908071Y-145676976D01*
X89955690Y-145724595D01*
X90050928Y-145772214D01*
X90241404Y-145772214D01*
X90336642Y-145724595D01*
X90384261Y-145676976D01*
X90431880Y-145581738D01*
X90431880Y-145391261D01*
X90384261Y-145296023D01*
X90336642Y-145248404D01*
X90241404Y-145200785D01*
X90050928Y-145200785D01*
X89955690Y-145248404D01*
X89908071Y-145296023D01*
X89860452Y-145391261D01*
%TO.C,U2*%
X104394095Y-105743380D02*
X104394095Y-106552904D01*
X104441714Y-106648142D01*
X104489333Y-106695761D01*
X104584571Y-106743380D01*
X104775047Y-106743380D01*
X104870285Y-106695761D01*
X104917904Y-106648142D01*
X104965523Y-106552904D01*
X104965523Y-105743380D01*
X105394095Y-105838619D02*
X105441714Y-105791000D01*
X105536952Y-105743380D01*
X105775047Y-105743380D01*
X105870285Y-105791000D01*
X105917904Y-105838619D01*
X105965523Y-105933857D01*
X105965523Y-106029095D01*
X105917904Y-106171952D01*
X105346476Y-106743380D01*
X105965523Y-106743380D01*
%TO.C,U3*%
X97100595Y-84228880D02*
X97100595Y-85038404D01*
X97148214Y-85133642D01*
X97195833Y-85181261D01*
X97291071Y-85228880D01*
X97481547Y-85228880D01*
X97576785Y-85181261D01*
X97624404Y-85133642D01*
X97672023Y-85038404D01*
X97672023Y-84228880D01*
X98052976Y-84228880D02*
X98672023Y-84228880D01*
X98338690Y-84609833D01*
X98481547Y-84609833D01*
X98576785Y-84657452D01*
X98624404Y-84705071D01*
X98672023Y-84800309D01*
X98672023Y-85038404D01*
X98624404Y-85133642D01*
X98576785Y-85181261D01*
X98481547Y-85228880D01*
X98195833Y-85228880D01*
X98100595Y-85181261D01*
X98052976Y-85133642D01*
%TO.C,U4*%
X97599595Y-95756880D02*
X97599595Y-96566404D01*
X97647214Y-96661642D01*
X97694833Y-96709261D01*
X97790071Y-96756880D01*
X97980547Y-96756880D01*
X98075785Y-96709261D01*
X98123404Y-96661642D01*
X98171023Y-96566404D01*
X98171023Y-95756880D01*
X99075785Y-96090214D02*
X99075785Y-96756880D01*
X98837690Y-95709261D02*
X98599595Y-96423547D01*
X99218642Y-96423547D01*
%TO.C,U5*%
X102298595Y-98575880D02*
X102298595Y-99385404D01*
X102346214Y-99480642D01*
X102393833Y-99528261D01*
X102489071Y-99575880D01*
X102679547Y-99575880D01*
X102774785Y-99528261D01*
X102822404Y-99480642D01*
X102870023Y-99385404D01*
X102870023Y-98575880D01*
X103822404Y-98575880D02*
X103346214Y-98575880D01*
X103298595Y-99052071D01*
X103346214Y-99004452D01*
X103441452Y-98956833D01*
X103679547Y-98956833D01*
X103774785Y-99004452D01*
X103822404Y-99052071D01*
X103870023Y-99147309D01*
X103870023Y-99385404D01*
X103822404Y-99480642D01*
X103774785Y-99528261D01*
X103679547Y-99575880D01*
X103441452Y-99575880D01*
X103346214Y-99528261D01*
X103298595Y-99480642D01*
%TO.C,U6*%
X105927380Y-72830904D02*
X106736904Y-72830904D01*
X106832142Y-72783285D01*
X106879761Y-72735666D01*
X106927380Y-72640428D01*
X106927380Y-72449952D01*
X106879761Y-72354714D01*
X106832142Y-72307095D01*
X106736904Y-72259476D01*
X105927380Y-72259476D01*
X105927380Y-71354714D02*
X105927380Y-71545190D01*
X105975000Y-71640428D01*
X106022619Y-71688047D01*
X106165476Y-71783285D01*
X106355952Y-71830904D01*
X106736904Y-71830904D01*
X106832142Y-71783285D01*
X106879761Y-71735666D01*
X106927380Y-71640428D01*
X106927380Y-71449952D01*
X106879761Y-71354714D01*
X106832142Y-71307095D01*
X106736904Y-71259476D01*
X106498809Y-71259476D01*
X106403571Y-71307095D01*
X106355952Y-71354714D01*
X106308333Y-71449952D01*
X106308333Y-71640428D01*
X106355952Y-71735666D01*
X106403571Y-71783285D01*
X106498809Y-71830904D01*
%TO.C,U7*%
X98952095Y-151554880D02*
X98952095Y-152364404D01*
X98999714Y-152459642D01*
X99047333Y-152507261D01*
X99142571Y-152554880D01*
X99333047Y-152554880D01*
X99428285Y-152507261D01*
X99475904Y-152459642D01*
X99523523Y-152364404D01*
X99523523Y-151554880D01*
X99904476Y-151554880D02*
X100571142Y-151554880D01*
X100142571Y-152554880D01*
%TO.C,Y1*%
X94972190Y-116681190D02*
X95448380Y-116681190D01*
X94448380Y-117014523D02*
X94972190Y-116681190D01*
X94448380Y-116347857D01*
X95448380Y-115490714D02*
X95448380Y-116062142D01*
X95448380Y-115776428D02*
X94448380Y-115776428D01*
X94591238Y-115871666D01*
X94686476Y-115966904D01*
X94734095Y-116062142D01*
%TD*%
M02*
