M48
; DRILL file {KiCad (5.1.9)-1} date 09/29/21 18:46:27
; FORMAT={-:-/ absolute / metric / decimal}
; #@! TF.CreationDate,2021-09-29T18:46:27+03:00
; #@! TF.GenerationSoftware,Kicad,Pcbnew,(5.1.9)-1
; #@! TF.FileFunction,Plated,1,2,PTH
FMAT,2
METRIC
T1C0.400
T2C0.500
T3C0.650
T4C0.730
T5C0.762
T6C1.000
T7C3.200
%
G90
G05
T1
X78.105Y-72.39
X78.105Y-74.358
X78.105Y-76.327
X78.105Y-92.71
X78.105Y-97.79
X80.01Y-95.25
X80.137Y-72.326
X81.343Y-82.423
X81.915Y-92.71
X81.915Y-97.79
X82.105Y-72.326
X83.185Y-82.486
X83.82Y-95.25
X83.947Y-72.326
X85.153Y-64.389
X85.153Y-82.486
X85.217Y-71.247
X85.725Y-92.71
X85.852Y-97.853
X85.915Y-76.454
X86.995Y-64.389
X87.376Y-75.248
X88.773Y-64.389
X88.837Y-74.105
X90.868Y-142.177
X90.995Y-147.891
X91.63Y-81.852
X91.885Y-144.145
X92.075Y-125.73
X92.075Y-128.27
X92.075Y-130.81
X92.138Y-92.71
X92.138Y-95.186
X92.138Y-97.472
X92.773Y-101.727
X93.218Y-103.378
X93.281Y-106.426
X93.281Y-108.077
X93.281Y-109.728
X93.472Y-150.749
X93.98Y-68.58
X93.98Y-70.294
X93.98Y-72.072
X93.98Y-125.73
X93.98Y-128.27
X94.234Y-115.062
X94.488Y-149.923
X94.869Y-110.871
X95.382Y-149.377
X95.567Y-147.427
X95.758Y-110.841
X96.647Y-110.871
X97.218Y-139.573
X97.536Y-110.871
X98.108Y-138.62
X98.489Y-151.892
X98.552Y-121.92
X98.552Y-124.46
X98.552Y-127.0
X98.552Y-145.606
X98.602Y-90.945
X98.933Y-111.887
X98.996Y-139.51
X99.682Y-90.945
X99.695Y-95.313
X99.695Y-96.584
X99.822Y-120.269
X99.943Y-117.406
X100.457Y-108.585
X100.698Y-90.945
X100.711Y-95.313
X100.711Y-96.584
X100.774Y-104.584
X100.774Y-105.791
X100.8Y-121.221
X100.832Y-144.688
X100.838Y-107.442
X100.965Y-151.892
X101.028Y-145.669
X101.6Y-117.919
X101.6Y-123.126
X101.714Y-90.945
X101.727Y-95.313
X101.727Y-96.584
X102.297Y-104.967
X102.489Y-118.618
X102.489Y-151.828
X102.666Y-90.945
X102.87Y-143.701
X103.378Y-103.95
X103.441Y-109.664
X103.822Y-147.32
X104.131Y-104.657
X104.203Y-149.352
X104.457Y-109.791
X105.029Y-111.569
X105.093Y-102.425
X105.156Y-145.288
X105.918Y-103.251
X106.299Y-114.744
X106.648Y-92.424
X106.743Y-104.076
X106.997Y-86.36
X107.251Y-113.03
X107.251Y-123.126
X107.251Y-125.031
X107.315Y-136.588
X107.569Y-104.838
X107.823Y-67.818
X107.879Y-110.479
X108.204Y-145.288
X108.267Y-136.588
X108.458Y-118.808
X108.458Y-120.078
X108.458Y-121.349
X108.521Y-87.82
X108.585Y-68.834
X109.347Y-108.585
X109.474Y-69.913
X109.537Y-116.649
X109.664Y-136.588
X109.728Y-88.963
X109.918Y-80.01
X110.363Y-117.475
X110.426Y-135.826
X110.744Y-145.288
X110.807Y-89.98
X111.379Y-80.01
X111.697Y-102.298
X111.697Y-103.314
X111.697Y-104.331
X112.966Y-80.01
X114.3Y-144.272
X114.554Y-80.01
X114.808Y-127.0
X114.808Y-129.54
X114.808Y-134.112
X114.808Y-137.16
T2
X77.483Y-66.294
X77.483Y-149.352
X78.186Y-64.597
X78.186Y-67.991
X78.186Y-147.655
X78.186Y-151.049
X79.883Y-63.894
X79.883Y-68.694
X79.883Y-146.952
X79.883Y-151.752
X81.58Y-64.597
X81.58Y-67.991
X81.58Y-147.655
X81.58Y-151.049
X82.283Y-66.294
X82.283Y-149.352
X110.376Y-66.294
X110.376Y-149.352
X111.079Y-64.597
X111.079Y-67.991
X111.079Y-147.655
X111.079Y-151.049
X112.776Y-63.894
X112.776Y-68.694
X112.776Y-146.952
X112.776Y-151.752
X114.473Y-64.597
X114.473Y-67.991
X114.473Y-147.655
X114.473Y-151.049
X115.176Y-66.294
X115.176Y-149.352
T3
X108.267Y-128.27
X108.267Y-129.54
X108.267Y-130.81
X108.267Y-132.08
X108.267Y-133.35
X109.537Y-128.27
X109.537Y-129.54
X109.537Y-130.81
X109.537Y-132.08
X109.537Y-133.35
T4
X86.677Y-149.161
X88.177Y-149.161
X89.677Y-149.161
X106.395Y-140.144
X107.895Y-140.144
X109.395Y-140.144
X110.895Y-140.144
X112.331Y-91.44
X112.331Y-92.94
X112.331Y-94.44
X112.331Y-95.94
X112.395Y-140.144
X113.895Y-140.144
T5
X91.757Y-100.457
X91.757Y-102.997
X91.757Y-105.537
X91.757Y-108.077
X91.757Y-110.617
X91.757Y-113.157
X91.757Y-115.697
X91.757Y-118.237
X91.757Y-120.777
X91.757Y-123.317
X114.617Y-100.457
X114.617Y-102.997
X114.617Y-105.537
X114.617Y-108.077
X114.617Y-110.617
X114.617Y-113.157
X114.617Y-115.697
X114.617Y-118.237
X114.617Y-120.777
X114.617Y-123.317
T6
X106.553Y-147.447
X106.553Y-149.987
X108.331Y-83.82
X108.775Y-76.263
X111.316Y-72.2
X111.316Y-76.263
X113.331Y-83.82
X113.855Y-72.2
X113.855Y-76.263
T7
X79.883Y-66.294
X79.883Y-149.352
X112.776Y-66.294
X112.776Y-149.352
T0
M30
