%TF.GenerationSoftware,KiCad,Pcbnew,(5.1.9)-1*%
%TF.CreationDate,2022-06-19T13:41:10+03:00*%
%TF.ProjectId,jantteri-motor-pwr,6a616e74-7465-4726-992d-6d6f746f722d,rev?*%
%TF.SameCoordinates,Original*%
%TF.FileFunction,Copper,L2,Bot*%
%TF.FilePolarity,Positive*%
%FSLAX46Y46*%
G04 Gerber Fmt 4.6, Leading zero omitted, Abs format (unit mm)*
G04 Created by KiCad (PCBNEW (5.1.9)-1) date 2022-06-19 13:41:10*
%MOMM*%
%LPD*%
G01*
G04 APERTURE LIST*
%TA.AperFunction,ComponentPad*%
%ADD10R,1.700000X1.700000*%
%TD*%
%TA.AperFunction,ComponentPad*%
%ADD11O,1.700000X1.700000*%
%TD*%
%TA.AperFunction,ComponentPad*%
%ADD12O,1.030000X1.730000*%
%TD*%
%TA.AperFunction,ComponentPad*%
%ADD13O,2.100000X1.000000*%
%TD*%
%TA.AperFunction,ComponentPad*%
%ADD14O,1.600000X1.000000*%
%TD*%
%TA.AperFunction,ComponentPad*%
%ADD15R,2.000000X2.000000*%
%TD*%
%TA.AperFunction,ComponentPad*%
%ADD16C,2.000000*%
%TD*%
%TA.AperFunction,ComponentPad*%
%ADD17C,2.700000*%
%TD*%
%TA.AperFunction,ViaPad*%
%ADD18C,0.800000*%
%TD*%
%TA.AperFunction,Conductor*%
%ADD19C,1.270000*%
%TD*%
%TA.AperFunction,Conductor*%
%ADD20C,0.500000*%
%TD*%
%TA.AperFunction,Conductor*%
%ADD21C,0.250000*%
%TD*%
%TA.AperFunction,Conductor*%
%ADD22C,0.400000*%
%TD*%
%TA.AperFunction,Conductor*%
%ADD23C,0.254000*%
%TD*%
%TA.AperFunction,Conductor*%
%ADD24C,0.100000*%
%TD*%
G04 APERTURE END LIST*
D10*
%TO.P,J4,1*%
%TO.N,+3V3*%
X72999600Y-129082800D03*
D11*
%TO.P,J4,2*%
%TO.N,Net-(J4-Pad2)*%
X72999600Y-126542800D03*
%TO.P,J4,3*%
%TO.N,Net-(J4-Pad3)*%
X72999600Y-124002800D03*
%TO.P,J4,4*%
%TO.N,Net-(J4-Pad4)*%
X72999600Y-121462800D03*
%TO.P,J4,5*%
%TO.N,GND*%
X72999600Y-118922800D03*
%TD*%
%TO.P,J1,1*%
%TO.N,GND*%
%TA.AperFunction,ComponentPad*%
G36*
G01*
X130139800Y-128123001D02*
X130139800Y-126892999D01*
G75*
G02*
X130389799Y-126643000I249999J0D01*
G01*
X130919801Y-126643000D01*
G75*
G02*
X131169800Y-126892999I0J-249999D01*
G01*
X131169800Y-128123001D01*
G75*
G02*
X130919801Y-128373000I-249999J0D01*
G01*
X130389799Y-128373000D01*
G75*
G02*
X130139800Y-128123001I0J249999D01*
G01*
G37*
%TD.AperFunction*%
D12*
%TO.P,J1,2*%
%TO.N,LED*%
X132154800Y-127508000D03*
%TO.P,J1,3*%
%TO.N,+5V*%
X133654800Y-127508000D03*
%TD*%
%TO.P,J2,1*%
%TO.N,/STM32L151C8T6A/PA2*%
%TA.AperFunction,ComponentPad*%
G36*
G01*
X130091800Y-117556601D02*
X130091800Y-116326599D01*
G75*
G02*
X130341799Y-116076600I249999J0D01*
G01*
X130871801Y-116076600D01*
G75*
G02*
X131121800Y-116326599I0J-249999D01*
G01*
X131121800Y-117556601D01*
G75*
G02*
X130871801Y-117806600I-249999J0D01*
G01*
X130341799Y-117806600D01*
G75*
G02*
X130091800Y-117556601I0J249999D01*
G01*
G37*
%TD.AperFunction*%
%TO.P,J2,2*%
%TO.N,/STM32L151C8T6A/PA3*%
X132106800Y-116941600D03*
%TO.P,J2,3*%
%TO.N,+5V*%
X133606800Y-116941600D03*
%TO.P,J2,4*%
%TO.N,PERIPH_GND*%
X135106800Y-116941600D03*
%TD*%
%TO.P,J3,1*%
%TO.N,/STM32L151C8T6A/PA9*%
%TA.AperFunction,ComponentPad*%
G36*
G01*
X130041000Y-112273401D02*
X130041000Y-111043399D01*
G75*
G02*
X130290999Y-110793400I249999J0D01*
G01*
X130821001Y-110793400D01*
G75*
G02*
X131071000Y-111043399I0J-249999D01*
G01*
X131071000Y-112273401D01*
G75*
G02*
X130821001Y-112523400I-249999J0D01*
G01*
X130290999Y-112523400D01*
G75*
G02*
X130041000Y-112273401I0J249999D01*
G01*
G37*
%TD.AperFunction*%
%TO.P,J3,2*%
%TO.N,/STM32L151C8T6A/PA10*%
X132056000Y-111658400D03*
%TO.P,J3,3*%
%TO.N,+5V*%
X133556000Y-111658400D03*
%TO.P,J3,4*%
%TO.N,GND*%
X135056000Y-111658400D03*
%TD*%
%TO.P,J6,4*%
%TO.N,PERIPH_GND*%
X135130800Y-122123200D03*
%TO.P,J6,3*%
%TO.N,+5V*%
X133630800Y-122123200D03*
%TO.P,J6,2*%
%TO.N,/STM32L151C8T6A/PB11*%
X132130800Y-122123200D03*
%TO.P,J6,1*%
%TO.N,/STM32L151C8T6A/PB10*%
%TA.AperFunction,ComponentPad*%
G36*
G01*
X130115800Y-122738201D02*
X130115800Y-121508199D01*
G75*
G02*
X130365799Y-121258200I249999J0D01*
G01*
X130895801Y-121258200D01*
G75*
G02*
X131145800Y-121508199I0J-249999D01*
G01*
X131145800Y-122738201D01*
G75*
G02*
X130895801Y-122988200I-249999J0D01*
G01*
X130365799Y-122988200D01*
G75*
G02*
X130115800Y-122738201I0J249999D01*
G01*
G37*
%TD.AperFunction*%
%TD*%
D13*
%TO.P,J9,S1*%
%TO.N,Net-(J9-PadS1)*%
X69348200Y-119682800D03*
X69348200Y-128322800D03*
D14*
X65168200Y-119682800D03*
X65168200Y-128322800D03*
%TD*%
D15*
%TO.P,C16,1*%
%TO.N,VIN*%
X177110400Y-110490000D03*
D16*
%TO.P,C16,2*%
%TO.N,GND*%
X172110400Y-110490000D03*
%TD*%
D17*
%TO.P,J5,2*%
%TO.N,GND*%
X186182000Y-127457200D03*
%TO.P,J5,1*%
%TO.N,Net-(J5-Pad1)*%
%TA.AperFunction,ComponentPad*%
G36*
G01*
X187281999Y-132767200D02*
X185082001Y-132767200D01*
G75*
G02*
X184832000Y-132517199I0J250001D01*
G01*
X184832000Y-130317201D01*
G75*
G02*
X185082001Y-130067200I250001J0D01*
G01*
X187281999Y-130067200D01*
G75*
G02*
X187532000Y-130317201I0J-250001D01*
G01*
X187532000Y-132517199D01*
G75*
G02*
X187281999Y-132767200I-250001J0D01*
G01*
G37*
%TD.AperFunction*%
%TD*%
%TO.P,J7,1*%
%TO.N,M+*%
%TA.AperFunction,ComponentPad*%
G36*
G01*
X187281999Y-121847600D02*
X185082001Y-121847600D01*
G75*
G02*
X184832000Y-121597599I0J250001D01*
G01*
X184832000Y-119397601D01*
G75*
G02*
X185082001Y-119147600I250001J0D01*
G01*
X187281999Y-119147600D01*
G75*
G02*
X187532000Y-119397601I0J-250001D01*
G01*
X187532000Y-121597599D01*
G75*
G02*
X187281999Y-121847600I-250001J0D01*
G01*
G37*
%TD.AperFunction*%
%TO.P,J7,2*%
%TO.N,M-*%
X186182000Y-116537600D03*
%TD*%
D18*
%TO.N,+3V3*%
X145007360Y-115098800D03*
X144087880Y-115098800D03*
X143158240Y-115098800D03*
X146102040Y-115098800D03*
X75727560Y-138927840D03*
X87609680Y-134269480D03*
X91125040Y-134716520D03*
X93934280Y-116316760D03*
X99684840Y-103078280D03*
X82244092Y-103078280D03*
X106126280Y-103078280D03*
X104693720Y-132328920D03*
X103499920Y-124241560D03*
X101208840Y-103098600D03*
X102844600Y-103083360D03*
X104607360Y-103083360D03*
X185089800Y-144998440D03*
X175844200Y-144998440D03*
X200111360Y-111831120D03*
%TO.N,GND*%
X190342520Y-113568480D03*
X192948560Y-113502440D03*
X67086480Y-114721640D03*
X70398640Y-115824000D03*
X67396360Y-117332760D03*
X69021960Y-131805680D03*
X80487520Y-141427200D03*
X80487520Y-142890240D03*
X76347320Y-143002000D03*
X86075520Y-129301240D03*
X79354680Y-130835400D03*
X85318600Y-118623080D03*
X76316840Y-108696760D03*
X89225120Y-105156000D03*
X92847160Y-108981240D03*
X91653360Y-114493040D03*
X100015040Y-127492760D03*
X97114360Y-129042160D03*
X99522280Y-129560320D03*
X98145600Y-127584200D03*
X113776760Y-129143760D03*
X112222280Y-131561840D03*
X115407440Y-131236720D03*
X114101880Y-115067080D03*
X114081560Y-119806720D03*
X119263160Y-115183920D03*
X119283480Y-120248680D03*
X84129880Y-138160760D03*
X83896200Y-128483360D03*
%TO.N,+5V*%
X133563360Y-104490520D03*
X85775800Y-114935000D03*
X83144360Y-120512840D03*
X83220560Y-123454160D03*
%TO.N,/usbc/CC1*%
X68254880Y-122829320D03*
X82646520Y-132486400D03*
%TO.N,/usbc/CC2*%
X80126840Y-133211400D03*
X68173600Y-125272800D03*
%TO.N,/DRV8848/VINT*%
X192809040Y-104419400D03*
X190609040Y-104409240D03*
%TO.N,POT*%
X97481902Y-125419441D03*
X91480640Y-122082560D03*
%TO.N,LED*%
X92953840Y-127457200D03*
X120854640Y-125984000D03*
%TO.N,/STM32L151C8T6A/SWDIO*%
X100673601Y-133710680D03*
X98440240Y-110483480D03*
%TO.N,/STM32L151C8T6A/NRST*%
X98049080Y-111414560D03*
X98201480Y-122504200D03*
X87106760Y-109499400D03*
X78831440Y-109555280D03*
%TO.N,/STM32L151C8T6A/SWCLK*%
X105919440Y-130952240D03*
X105661566Y-113503848D03*
%TO.N,/STM32L151C8T6A/SWO*%
X105469430Y-129946400D03*
X104449880Y-113451640D03*
%TO.N,BATMEAS*%
X96715086Y-126061311D03*
X118191280Y-134127240D03*
X126076681Y-135275720D03*
X150754080Y-136545320D03*
%TO.N,PERIPH_EN*%
X126740920Y-125227080D03*
X142438120Y-125227080D03*
%TO.N,DRV_FAULT*%
X94176920Y-140671751D03*
X196641720Y-113380520D03*
%TO.N,/STM32L151C8T6A/BOOT0*%
X109773720Y-127355600D03*
X110403640Y-111424720D03*
%TO.N,USB_SDA*%
X107665520Y-137825480D03*
X85664040Y-138145520D03*
%TO.N,USB_SCL*%
X107309281Y-138759877D03*
X86857840Y-140197840D03*
%TO.N,USB_INT*%
X108158280Y-126732401D03*
X108362572Y-128182401D03*
X107964627Y-139515208D03*
X85755480Y-140639800D03*
%TO.N,CURMEAS*%
X92516960Y-125755400D03*
X119359680Y-135295640D03*
X125076877Y-135295640D03*
X188747400Y-141218920D03*
%TO.N,DRV_SLEEP*%
X95175678Y-140721604D03*
X188026040Y-111836200D03*
%TO.N,MOTOR_A*%
X96175678Y-140719644D03*
X187787280Y-106309160D03*
%TO.N,MOTOR_B*%
X97175320Y-140746480D03*
X188696600Y-104744520D03*
%TO.N,/STM32L151C8T6A/PA2*%
X96001840Y-122716120D03*
X125613160Y-109758480D03*
%TO.N,/STM32L151C8T6A/PA3*%
X94787720Y-123444000D03*
X126527560Y-110576360D03*
%TO.N,/STM32L151C8T6A/PA9*%
X98709480Y-141483080D03*
%TO.N,/STM32L151C8T6A/PA10*%
X98823601Y-140462000D03*
X123352560Y-111394240D03*
%TO.N,Net-(J4-Pad3)*%
X75620880Y-123591320D03*
%TO.N,/STM32L151C8T6A/PB11*%
X93085920Y-130232401D03*
X121579640Y-120904000D03*
%TO.N,/STM32L151C8T6A/PB10*%
X92087399Y-130177988D03*
X122473720Y-122123200D03*
%TD*%
D19*
%TO.N,+3V3*%
X143158240Y-115098800D02*
X144087880Y-115098800D01*
X144087880Y-115098800D02*
X145007360Y-115098800D01*
X145007360Y-115098800D02*
X146102040Y-115098800D01*
X143158240Y-115098800D02*
X143158240Y-103473280D01*
X143158240Y-103473280D02*
X142763240Y-103078280D01*
X82244092Y-103078280D02*
X82223772Y-103098600D01*
X82244092Y-103078280D02*
X76616560Y-103078280D01*
X76616560Y-103078280D02*
X73162160Y-106532680D01*
X73162160Y-106532680D02*
X73162160Y-111998760D01*
X73162160Y-111998760D02*
X77480160Y-116316760D01*
X77480160Y-116316760D02*
X77480160Y-128772920D01*
X77170280Y-129082800D02*
X72999600Y-129082800D01*
X77480160Y-128772920D02*
X77170280Y-129082800D01*
D20*
X77480160Y-116316760D02*
X93934280Y-116316760D01*
X77480160Y-128772920D02*
X82118200Y-128772920D01*
X82118200Y-128772920D02*
X85171280Y-131826000D01*
X78069440Y-138927840D02*
X75727560Y-138927840D01*
X85171280Y-131826000D02*
X78069440Y-138927840D01*
X85171280Y-131826000D02*
X85171280Y-131831080D01*
X85171280Y-131831080D02*
X87609680Y-134269480D01*
X90678000Y-134269480D02*
X91125040Y-134716520D01*
X87609680Y-134269480D02*
X90678000Y-134269480D01*
D19*
X99684840Y-103078280D02*
X82244092Y-103078280D01*
X142763240Y-103078280D02*
X106126280Y-103078280D01*
D20*
X103499920Y-131135120D02*
X103499920Y-124241560D01*
X104693720Y-132328920D02*
X103499920Y-131135120D01*
D19*
X142763240Y-103078280D02*
X199186800Y-103078280D01*
X199186800Y-103078280D02*
X200111360Y-104002840D01*
X198064120Y-144998440D02*
X187035440Y-144998440D01*
X200111360Y-142951200D02*
X198064120Y-144998440D01*
X186034680Y-144998440D02*
X185089800Y-144998440D01*
X187035440Y-144998440D02*
X186034680Y-144998440D01*
X185089800Y-144998440D02*
X175844200Y-144998440D01*
X200111360Y-111831120D02*
X200111360Y-142951200D01*
X200111360Y-104002840D02*
X200111360Y-111831120D01*
D20*
%TO.N,+5V*%
X133563360Y-104490520D02*
X132969000Y-105084880D01*
X132969000Y-105084880D02*
X95620840Y-105084880D01*
X85775800Y-114794598D02*
X85775800Y-114935000D01*
X95485518Y-105084880D02*
X85775800Y-114794598D01*
X95620840Y-105084880D02*
X95485518Y-105084880D01*
X83144360Y-123377960D02*
X83220560Y-123454160D01*
X83144360Y-120512840D02*
X83144360Y-123377960D01*
D21*
%TO.N,/usbc/CC1*%
X70723210Y-125297650D02*
X70723210Y-130667210D01*
X68254880Y-122829320D02*
X70723210Y-125297650D01*
X70723210Y-130667210D02*
X72542400Y-132486400D01*
X72542400Y-132486400D02*
X82646520Y-132486400D01*
%TO.N,/usbc/CC2*%
X67973190Y-125473210D02*
X68173600Y-125272800D01*
X67973190Y-128664530D02*
X67973190Y-125473210D01*
X72520060Y-133211400D02*
X67973190Y-128664530D01*
X80126840Y-133211400D02*
X72520060Y-133211400D01*
D22*
%TO.N,/DRV8848/VINT*%
X192798880Y-104409240D02*
X192809040Y-104419400D01*
X190609040Y-104409240D02*
X192798880Y-104409240D01*
D21*
%TO.N,POT*%
X97481902Y-125419441D02*
X97784920Y-125116423D01*
X97784920Y-125116423D02*
X97784920Y-124739400D01*
X97214521Y-124169001D02*
X93628041Y-124169001D01*
X97784920Y-124739400D02*
X97214521Y-124169001D01*
X91541600Y-122082560D02*
X91480640Y-122082560D01*
X93628041Y-124169001D02*
X91541600Y-122082560D01*
%TO.N,LED*%
X92953840Y-127457200D02*
X92953840Y-128137920D01*
X92953840Y-128137920D02*
X94548960Y-129733040D01*
X94548960Y-129733040D02*
X94548960Y-133375400D01*
X94548960Y-133375400D02*
X96245680Y-135072120D01*
X96245680Y-135072120D02*
X96306640Y-135133080D01*
X96306640Y-135133080D02*
X118267480Y-135133080D01*
X120854640Y-132545920D02*
X120854640Y-125984000D01*
X118267480Y-135133080D02*
X120854640Y-132545920D01*
%TO.N,/STM32L151C8T6A/SWDIO*%
X100673601Y-133710680D02*
X105552240Y-133710680D01*
X106644440Y-132618480D02*
X106644440Y-131475480D01*
X105552240Y-133710680D02*
X106644440Y-132618480D01*
X106644440Y-131475480D02*
X106644440Y-113319560D01*
X106644440Y-113319560D02*
X103687880Y-110363000D01*
X98560720Y-110363000D02*
X98440240Y-110483480D01*
X103687880Y-110363000D02*
X98560720Y-110363000D01*
%TO.N,/STM32L151C8T6A/NRST*%
X98201480Y-111566960D02*
X98049080Y-111414560D01*
X98201480Y-122504200D02*
X98201480Y-111566960D01*
X78873469Y-109513251D02*
X78831440Y-109555280D01*
X87092909Y-109513251D02*
X78873469Y-109513251D01*
X87106760Y-109499400D02*
X87092909Y-109513251D01*
%TO.N,/STM32L151C8T6A/SWCLK*%
X105919440Y-130952240D02*
X106194430Y-130677250D01*
X106194430Y-114036712D02*
X105661566Y-113503848D01*
X106194430Y-130677250D02*
X106194430Y-114036712D01*
%TO.N,/STM32L151C8T6A/SWO*%
X105469430Y-129946400D02*
X105744420Y-129671410D01*
X105744420Y-114746180D02*
X104449880Y-113451640D01*
X105744420Y-129671410D02*
X105744420Y-114746180D01*
%TO.N,BATMEAS*%
X96715086Y-126061311D02*
X95086329Y-126061311D01*
X94909640Y-129457310D02*
X95133160Y-129680830D01*
X94909640Y-126238000D02*
X94909640Y-129457310D01*
X95086329Y-126061311D02*
X94909640Y-126238000D01*
X95133160Y-133055360D02*
X96753680Y-134675880D01*
X95133160Y-129680830D02*
X95133160Y-133055360D01*
X96753680Y-134675880D02*
X117373400Y-134675880D01*
X117642640Y-134675880D02*
X118191280Y-134127240D01*
X117373400Y-134675880D02*
X117642640Y-134675880D01*
X126076681Y-135275720D02*
X126076681Y-140818841D01*
X126076681Y-140818841D02*
X126451360Y-141193520D01*
X126451360Y-141193520D02*
X150322280Y-141193520D01*
X150754080Y-140761720D02*
X150754080Y-136545320D01*
X150322280Y-141193520D02*
X150754080Y-140761720D01*
%TO.N,PERIPH_EN*%
X126740920Y-125227080D02*
X142438120Y-125227080D01*
%TO.N,DRV_FAULT*%
X195265040Y-139302910D02*
X195265040Y-117581680D01*
X191009842Y-143558108D02*
X195265040Y-139302910D01*
X94176920Y-141237436D02*
X96497593Y-143558109D01*
X96497593Y-143558109D02*
X191009842Y-143558108D01*
X94176920Y-140671751D02*
X94176920Y-141237436D01*
X195265040Y-114757200D02*
X196641720Y-113380520D01*
X195265040Y-117581680D02*
X195265040Y-114757200D01*
%TO.N,/STM32L151C8T6A/BOOT0*%
X110403640Y-126725680D02*
X110403640Y-111424720D01*
X109773720Y-127355600D02*
X110403640Y-126725680D01*
%TO.N,USB_SDA*%
X85984080Y-137825480D02*
X85664040Y-138145520D01*
X107665520Y-137825480D02*
X85984080Y-137825480D01*
%TO.N,USB_SCL*%
X87895804Y-139159876D02*
X86857840Y-140197840D01*
X106909282Y-139159876D02*
X87895804Y-139159876D01*
X107309281Y-138759877D02*
X106909282Y-139159876D01*
%TO.N,USB_INT*%
X108158280Y-127978109D02*
X108362572Y-128182401D01*
X108158280Y-126732401D02*
X108158280Y-127978109D01*
X86038521Y-140922841D02*
X85755480Y-140639800D01*
X87205841Y-140922841D02*
X86038521Y-140922841D01*
X88391683Y-139736999D02*
X87205841Y-140922841D01*
X107742836Y-139736999D02*
X88391683Y-139736999D01*
X107964627Y-139515208D02*
X107742836Y-139736999D01*
%TO.N,CURMEAS*%
X92516960Y-125755400D02*
X91526360Y-126746000D01*
X91526360Y-127599839D02*
X93868240Y-129941719D01*
X91526360Y-126746000D02*
X91526360Y-127599839D01*
X93868240Y-130749040D02*
X93888560Y-130769360D01*
X93868240Y-129941719D02*
X93868240Y-130749040D01*
X93888560Y-130769360D02*
X93888560Y-135178800D01*
X93888560Y-135178800D02*
X94672990Y-135963230D01*
X102008510Y-135963230D02*
X102229060Y-135742680D01*
X94672990Y-135963230D02*
X102008510Y-135963230D01*
X118912640Y-135742680D02*
X119359680Y-135295640D01*
X102229060Y-135742680D02*
X118912640Y-135742680D01*
X125076877Y-135295640D02*
X125076877Y-141582468D01*
X125076877Y-141582468D02*
X125252480Y-141758071D01*
X188208249Y-141758071D02*
X188747400Y-141218920D01*
X125252480Y-141758071D02*
X188208249Y-141758071D01*
%TO.N,DRV_SLEEP*%
X95175678Y-141287289D02*
X96996489Y-143108100D01*
X95175678Y-140721604D02*
X95175678Y-141287289D01*
X96996489Y-143108100D02*
X190823441Y-143108099D01*
X190823441Y-143108099D02*
X191087049Y-142844489D01*
X191087049Y-142844489D02*
X194815030Y-139116508D01*
X194815030Y-139116508D02*
X194815030Y-112661270D01*
X193989960Y-111836200D02*
X188026040Y-111836200D01*
X194815030Y-112661270D02*
X193989960Y-111836200D01*
%TO.N,MOTOR_A*%
X96175678Y-140719644D02*
X96175678Y-141285329D01*
X96175678Y-141285329D02*
X97548440Y-142658091D01*
X97548440Y-142658091D02*
X190637040Y-142658090D01*
X190637040Y-142658090D02*
X190637040Y-142658088D01*
X190637040Y-142658088D02*
X192542160Y-140752968D01*
X192542160Y-140752968D02*
X192542160Y-118506240D01*
X187301039Y-106795401D02*
X187787280Y-106309160D01*
X187301039Y-113265119D02*
X187301039Y-106795401D01*
X192542160Y-118506240D02*
X187301039Y-113265119D01*
%TO.N,MOTOR_B*%
X97175320Y-140746480D02*
X97175320Y-141312165D01*
X98071236Y-142208081D02*
X190450639Y-142208081D01*
X97175320Y-141312165D02*
X98071236Y-142208081D01*
X190450639Y-142208081D02*
X190450639Y-142203001D01*
X191028320Y-141625320D02*
X191033398Y-141625320D01*
X190450639Y-142203001D02*
X191028320Y-141625320D01*
X191033398Y-141625320D02*
X192092150Y-140566568D01*
X188278918Y-104744520D02*
X188696600Y-104744520D01*
X186851029Y-106172409D02*
X188278918Y-104744520D01*
X186851029Y-113451519D02*
X186851029Y-106172409D01*
X192092150Y-118692640D02*
X186851029Y-113451519D01*
X192092150Y-140566568D02*
X192092150Y-118692640D01*
%TO.N,/STM32L151C8T6A/PA2*%
X96001840Y-122716120D02*
X96001840Y-110601760D01*
X96001840Y-110601760D02*
X96845120Y-109758480D01*
X96845120Y-109758480D02*
X125613160Y-109758480D01*
%TO.N,/STM32L151C8T6A/PA3*%
X94787720Y-123444000D02*
X94787720Y-122150710D01*
X94787720Y-122150710D02*
X95551830Y-121386600D01*
X95551830Y-121386600D02*
X95551831Y-110415359D01*
X125961161Y-109033479D02*
X126527560Y-109599878D01*
X96933711Y-109033479D02*
X125961161Y-109033479D01*
X95551831Y-110415359D02*
X96933711Y-109033479D01*
X126527560Y-109599878D02*
X126527560Y-110576360D01*
%TO.N,/STM32L151C8T6A/PA9*%
X121159410Y-141483080D02*
X124351877Y-138290613D01*
X124351877Y-138290613D02*
X124351877Y-111431251D01*
X98709480Y-141483080D02*
X121159410Y-141483080D01*
X130328851Y-111431251D02*
X130556000Y-111658400D01*
X124351877Y-111431251D02*
X130328851Y-111431251D01*
%TO.N,/STM32L151C8T6A/PA10*%
X98823601Y-140462000D02*
X121544080Y-140462000D01*
X121544080Y-140462000D02*
X123352560Y-138653520D01*
X123352560Y-138653520D02*
X123352560Y-111394240D01*
D20*
%TO.N,Net-(J4-Pad3)*%
X75209400Y-124002800D02*
X75620880Y-123591320D01*
X72999600Y-124002800D02*
X75209400Y-124002800D01*
D21*
%TO.N,/STM32L151C8T6A/PB11*%
X93085920Y-130232401D02*
X93085920Y-136184640D01*
X93085920Y-136184640D02*
X93314520Y-136413240D01*
X101789082Y-136413240D02*
X101814482Y-136438640D01*
X93314520Y-136413240D02*
X101789082Y-136413240D01*
X101814482Y-136438640D02*
X119969280Y-136438640D01*
X121579640Y-134828280D02*
X121579640Y-120904000D01*
X119969280Y-136438640D02*
X121579640Y-134828280D01*
%TO.N,/STM32L151C8T6A/PB10*%
X92087399Y-130177988D02*
X92087399Y-135927799D01*
X93260079Y-137100479D02*
X120686999Y-137100479D01*
X92087399Y-135927799D02*
X93260079Y-137100479D01*
X122473720Y-135313758D02*
X122473720Y-122123200D01*
X120686999Y-137100479D02*
X122473720Y-135313758D01*
%TD*%
D23*
%TO.N,GND*%
X201194200Y-145923800D02*
X198488187Y-145923800D01*
X198631310Y-145847300D01*
X198786016Y-145720336D01*
X198817832Y-145681568D01*
X200794493Y-143704908D01*
X200833256Y-143673096D01*
X200960220Y-143518390D01*
X201054562Y-143341887D01*
X201112658Y-143150371D01*
X201127360Y-143001102D01*
X201132275Y-142951200D01*
X201127360Y-142901298D01*
X201127360Y-104052733D01*
X201132274Y-104002839D01*
X201127360Y-103952945D01*
X201127360Y-103952938D01*
X201112658Y-103803669D01*
X201054562Y-103612153D01*
X200960220Y-103435650D01*
X200833256Y-103280944D01*
X200794493Y-103249132D01*
X199940512Y-102395152D01*
X199908696Y-102356384D01*
X199753990Y-102229420D01*
X199577487Y-102135078D01*
X199385971Y-102076982D01*
X199236702Y-102062280D01*
X199186800Y-102057365D01*
X199136898Y-102062280D01*
X142813142Y-102062280D01*
X142763240Y-102057365D01*
X142713338Y-102062280D01*
X106076378Y-102062280D01*
X105927109Y-102076982D01*
X105735593Y-102135078D01*
X105559090Y-102229420D01*
X105404384Y-102356384D01*
X105277420Y-102511090D01*
X105227138Y-102605161D01*
X105214002Y-102585501D01*
X105105219Y-102476718D01*
X104977302Y-102391247D01*
X104835169Y-102332373D01*
X104684282Y-102302360D01*
X104530438Y-102302360D01*
X104379551Y-102332373D01*
X104237418Y-102391247D01*
X104109501Y-102476718D01*
X104000718Y-102585501D01*
X103915247Y-102713418D01*
X103856373Y-102855551D01*
X103826360Y-103006438D01*
X103826360Y-103160282D01*
X103856373Y-103311169D01*
X103915247Y-103453302D01*
X104000718Y-103581219D01*
X104109501Y-103690002D01*
X104237418Y-103775473D01*
X104379551Y-103834347D01*
X104530438Y-103864360D01*
X104684282Y-103864360D01*
X104835169Y-103834347D01*
X104977302Y-103775473D01*
X105105219Y-103690002D01*
X105214002Y-103581219D01*
X105230155Y-103557044D01*
X105277420Y-103645470D01*
X105404384Y-103800176D01*
X105559090Y-103927140D01*
X105735593Y-104021482D01*
X105927109Y-104079578D01*
X106076378Y-104094280D01*
X132888819Y-104094280D01*
X132871247Y-104120578D01*
X132812373Y-104262711D01*
X132790913Y-104370598D01*
X132707632Y-104453880D01*
X95516508Y-104453880D01*
X95485518Y-104450828D01*
X95454527Y-104453880D01*
X95454520Y-104453880D01*
X95361820Y-104463010D01*
X95242876Y-104499091D01*
X95133257Y-104557684D01*
X95064371Y-104614218D01*
X95037175Y-104636537D01*
X95017417Y-104660612D01*
X85455851Y-114222179D01*
X85405858Y-114242887D01*
X85277941Y-114328358D01*
X85169158Y-114437141D01*
X85083687Y-114565058D01*
X85024813Y-114707191D01*
X84994800Y-114858078D01*
X84994800Y-115011922D01*
X85024813Y-115162809D01*
X85083687Y-115304942D01*
X85169158Y-115432859D01*
X85277941Y-115541642D01*
X85405858Y-115627113D01*
X85547443Y-115685760D01*
X78276652Y-115685760D01*
X78202056Y-115594864D01*
X78163293Y-115563052D01*
X74178160Y-111577920D01*
X74178160Y-109478358D01*
X78050440Y-109478358D01*
X78050440Y-109632202D01*
X78080453Y-109783089D01*
X78139327Y-109925222D01*
X78224798Y-110053139D01*
X78333581Y-110161922D01*
X78461498Y-110247393D01*
X78603631Y-110306267D01*
X78754518Y-110336280D01*
X78908362Y-110336280D01*
X79001810Y-110317692D01*
X78924858Y-110432860D01*
X78806625Y-110718300D01*
X78746350Y-111021321D01*
X78746350Y-111330279D01*
X78806625Y-111633300D01*
X78924858Y-111918740D01*
X79096505Y-112175629D01*
X79314971Y-112394095D01*
X79571860Y-112565742D01*
X79857300Y-112683975D01*
X80160321Y-112744250D01*
X80469279Y-112744250D01*
X80772300Y-112683975D01*
X81057740Y-112565742D01*
X81229042Y-112451282D01*
X81158133Y-112522191D01*
X81062233Y-112665716D01*
X80996176Y-112825193D01*
X80962500Y-112994492D01*
X80962500Y-113167108D01*
X80996176Y-113336407D01*
X81062233Y-113495884D01*
X81158133Y-113639409D01*
X81280191Y-113761467D01*
X81423716Y-113857367D01*
X81583193Y-113923424D01*
X81752492Y-113957100D01*
X81925108Y-113957100D01*
X82094407Y-113923424D01*
X82253884Y-113857367D01*
X82397409Y-113761467D01*
X82519467Y-113639409D01*
X82615367Y-113495884D01*
X82681424Y-113336407D01*
X82715100Y-113167108D01*
X82715100Y-112994492D01*
X82681424Y-112825193D01*
X82615367Y-112665716D01*
X82519467Y-112522191D01*
X82397409Y-112400133D01*
X82253884Y-112304233D01*
X82094407Y-112238176D01*
X81925108Y-112204500D01*
X81752492Y-112204500D01*
X81583193Y-112238176D01*
X81423716Y-112304233D01*
X81365779Y-112342945D01*
X81533095Y-112175629D01*
X81704742Y-111918740D01*
X81822975Y-111633300D01*
X81883250Y-111330279D01*
X81883250Y-111021321D01*
X81822975Y-110718300D01*
X81704742Y-110432860D01*
X81533095Y-110175971D01*
X81376375Y-110019251D01*
X84333225Y-110019251D01*
X84176505Y-110175971D01*
X84004858Y-110432860D01*
X83886625Y-110718300D01*
X83826350Y-111021321D01*
X83826350Y-111330279D01*
X83886625Y-111633300D01*
X84004858Y-111918740D01*
X84176505Y-112175629D01*
X84343821Y-112342945D01*
X84285884Y-112304233D01*
X84126407Y-112238176D01*
X83957108Y-112204500D01*
X83784492Y-112204500D01*
X83615193Y-112238176D01*
X83455716Y-112304233D01*
X83312191Y-112400133D01*
X83190133Y-112522191D01*
X83094233Y-112665716D01*
X83028176Y-112825193D01*
X82994500Y-112994492D01*
X82994500Y-113167108D01*
X83028176Y-113336407D01*
X83094233Y-113495884D01*
X83190133Y-113639409D01*
X83312191Y-113761467D01*
X83455716Y-113857367D01*
X83615193Y-113923424D01*
X83784492Y-113957100D01*
X83957108Y-113957100D01*
X84126407Y-113923424D01*
X84285884Y-113857367D01*
X84429409Y-113761467D01*
X84551467Y-113639409D01*
X84647367Y-113495884D01*
X84713424Y-113336407D01*
X84747100Y-113167108D01*
X84747100Y-112994492D01*
X84713424Y-112825193D01*
X84647367Y-112665716D01*
X84551467Y-112522191D01*
X84480558Y-112451282D01*
X84651860Y-112565742D01*
X84937300Y-112683975D01*
X85240321Y-112744250D01*
X85549279Y-112744250D01*
X85852300Y-112683975D01*
X86137740Y-112565742D01*
X86394629Y-112394095D01*
X86613095Y-112175629D01*
X86784742Y-111918740D01*
X86902975Y-111633300D01*
X86963250Y-111330279D01*
X86963250Y-111021321D01*
X86902975Y-110718300D01*
X86784742Y-110432860D01*
X86613095Y-110175971D01*
X86456375Y-110019251D01*
X86522110Y-110019251D01*
X86608901Y-110106042D01*
X86736818Y-110191513D01*
X86878951Y-110250387D01*
X87029838Y-110280400D01*
X87183682Y-110280400D01*
X87334569Y-110250387D01*
X87476702Y-110191513D01*
X87604619Y-110106042D01*
X87713402Y-109997259D01*
X87798873Y-109869342D01*
X87857747Y-109727209D01*
X87887760Y-109576322D01*
X87887760Y-109422478D01*
X87857747Y-109271591D01*
X87798873Y-109129458D01*
X87713402Y-109001541D01*
X87604619Y-108892758D01*
X87476702Y-108807287D01*
X87334569Y-108748413D01*
X87183682Y-108718400D01*
X87029838Y-108718400D01*
X86878951Y-108748413D01*
X86744372Y-108804158D01*
X86784742Y-108743740D01*
X86902975Y-108458300D01*
X86963250Y-108155279D01*
X86963250Y-107846321D01*
X86902975Y-107543300D01*
X86784742Y-107257860D01*
X86613095Y-107000971D01*
X86394629Y-106782505D01*
X86137740Y-106610858D01*
X85852300Y-106492625D01*
X85549279Y-106432350D01*
X85240321Y-106432350D01*
X84937300Y-106492625D01*
X84651860Y-106610858D01*
X84394971Y-106782505D01*
X84176505Y-107000971D01*
X84004858Y-107257860D01*
X83886625Y-107543300D01*
X83826350Y-107846321D01*
X83826350Y-108155279D01*
X83886625Y-108458300D01*
X84004858Y-108743740D01*
X84176505Y-109000629D01*
X84183127Y-109007251D01*
X81526473Y-109007251D01*
X81533095Y-109000629D01*
X81704742Y-108743740D01*
X81822975Y-108458300D01*
X81883250Y-108155279D01*
X81883250Y-107914492D01*
X81978500Y-107914492D01*
X81978500Y-108087108D01*
X82012176Y-108256407D01*
X82078233Y-108415884D01*
X82174133Y-108559409D01*
X82296191Y-108681467D01*
X82439716Y-108777367D01*
X82599193Y-108843424D01*
X82768492Y-108877100D01*
X82941108Y-108877100D01*
X83110407Y-108843424D01*
X83269884Y-108777367D01*
X83413409Y-108681467D01*
X83535467Y-108559409D01*
X83631367Y-108415884D01*
X83697424Y-108256407D01*
X83731100Y-108087108D01*
X83731100Y-107914492D01*
X83697424Y-107745193D01*
X83631367Y-107585716D01*
X83535467Y-107442191D01*
X83413409Y-107320133D01*
X83269884Y-107224233D01*
X83110407Y-107158176D01*
X82941108Y-107124500D01*
X82768492Y-107124500D01*
X82599193Y-107158176D01*
X82439716Y-107224233D01*
X82296191Y-107320133D01*
X82174133Y-107442191D01*
X82078233Y-107585716D01*
X82012176Y-107745193D01*
X81978500Y-107914492D01*
X81883250Y-107914492D01*
X81883250Y-107846321D01*
X81822975Y-107543300D01*
X81704742Y-107257860D01*
X81533095Y-107000971D01*
X81314629Y-106782505D01*
X81057740Y-106610858D01*
X80772300Y-106492625D01*
X80469279Y-106432350D01*
X80160321Y-106432350D01*
X79857300Y-106492625D01*
X79571860Y-106610858D01*
X79314971Y-106782505D01*
X79096505Y-107000971D01*
X78924858Y-107257860D01*
X78806625Y-107543300D01*
X78746350Y-107846321D01*
X78746350Y-108155279D01*
X78806625Y-108458300D01*
X78924858Y-108743740D01*
X78950920Y-108782745D01*
X78908362Y-108774280D01*
X78754518Y-108774280D01*
X78603631Y-108804293D01*
X78461498Y-108863167D01*
X78333581Y-108948638D01*
X78224798Y-109057421D01*
X78139327Y-109185338D01*
X78080453Y-109327471D01*
X78050440Y-109478358D01*
X74178160Y-109478358D01*
X74178160Y-106953520D01*
X77037401Y-104094280D01*
X82006082Y-104094280D01*
X82024602Y-104099898D01*
X82223772Y-104119515D01*
X82422942Y-104099898D01*
X82441462Y-104094280D01*
X99734742Y-104094280D01*
X99884011Y-104079578D01*
X100075527Y-104021482D01*
X100252030Y-103927140D01*
X100406736Y-103800176D01*
X100533700Y-103645470D01*
X100578697Y-103561287D01*
X100602198Y-103596459D01*
X100710981Y-103705242D01*
X100838898Y-103790713D01*
X100981031Y-103849587D01*
X101131918Y-103879600D01*
X101285762Y-103879600D01*
X101436649Y-103849587D01*
X101578782Y-103790713D01*
X101706699Y-103705242D01*
X101815482Y-103596459D01*
X101900953Y-103468542D01*
X101959827Y-103326409D01*
X101989840Y-103175522D01*
X101989840Y-103021678D01*
X101986809Y-103006438D01*
X102063600Y-103006438D01*
X102063600Y-103160282D01*
X102093613Y-103311169D01*
X102152487Y-103453302D01*
X102237958Y-103581219D01*
X102346741Y-103690002D01*
X102474658Y-103775473D01*
X102616791Y-103834347D01*
X102767678Y-103864360D01*
X102921522Y-103864360D01*
X103072409Y-103834347D01*
X103214542Y-103775473D01*
X103342459Y-103690002D01*
X103451242Y-103581219D01*
X103536713Y-103453302D01*
X103595587Y-103311169D01*
X103625600Y-103160282D01*
X103625600Y-103006438D01*
X103595587Y-102855551D01*
X103536713Y-102713418D01*
X103451242Y-102585501D01*
X103342459Y-102476718D01*
X103214542Y-102391247D01*
X103072409Y-102332373D01*
X102921522Y-102302360D01*
X102767678Y-102302360D01*
X102616791Y-102332373D01*
X102474658Y-102391247D01*
X102346741Y-102476718D01*
X102237958Y-102585501D01*
X102152487Y-102713418D01*
X102093613Y-102855551D01*
X102063600Y-103006438D01*
X101986809Y-103006438D01*
X101959827Y-102870791D01*
X101900953Y-102728658D01*
X101815482Y-102600741D01*
X101706699Y-102491958D01*
X101578782Y-102406487D01*
X101436649Y-102347613D01*
X101285762Y-102317600D01*
X101131918Y-102317600D01*
X100981031Y-102347613D01*
X100838898Y-102406487D01*
X100710981Y-102491958D01*
X100602198Y-102600741D01*
X100590765Y-102617852D01*
X100533700Y-102511090D01*
X100406736Y-102356384D01*
X100252030Y-102229420D01*
X100075527Y-102135078D01*
X99884011Y-102076982D01*
X99734742Y-102062280D01*
X82293994Y-102062280D01*
X82244092Y-102057365D01*
X82194190Y-102062280D01*
X76666453Y-102062280D01*
X76616559Y-102057366D01*
X76566665Y-102062280D01*
X76566658Y-102062280D01*
X76436737Y-102075076D01*
X76417388Y-102076982D01*
X76359292Y-102094606D01*
X76225873Y-102135078D01*
X76049370Y-102229420D01*
X75894664Y-102356384D01*
X75862852Y-102395147D01*
X72479032Y-105778968D01*
X72440264Y-105810784D01*
X72313300Y-105965490D01*
X72218958Y-106141994D01*
X72160862Y-106333509D01*
X72160862Y-106333510D01*
X72141245Y-106532680D01*
X72146160Y-106582582D01*
X72146161Y-111948848D01*
X72141245Y-111998760D01*
X72160862Y-112197930D01*
X72218509Y-112387963D01*
X72218959Y-112389447D01*
X72313301Y-112565950D01*
X72440265Y-112720656D01*
X72479028Y-112752468D01*
X76464160Y-116737601D01*
X76464161Y-128066800D01*
X74192882Y-128066800D01*
X74167922Y-128020104D01*
X74120311Y-127962089D01*
X74062296Y-127914478D01*
X73996108Y-127879099D01*
X73924289Y-127857313D01*
X73849600Y-127849957D01*
X72149600Y-127849957D01*
X72074911Y-127857313D01*
X72003092Y-127879099D01*
X71936904Y-127914478D01*
X71878889Y-127962089D01*
X71831278Y-128020104D01*
X71795899Y-128086292D01*
X71774113Y-128158111D01*
X71766757Y-128232800D01*
X71766757Y-129932800D01*
X71774113Y-130007489D01*
X71795899Y-130079308D01*
X71831278Y-130145496D01*
X71878889Y-130203511D01*
X71936904Y-130251122D01*
X72003092Y-130286501D01*
X72074911Y-130308287D01*
X72149600Y-130315643D01*
X73849600Y-130315643D01*
X73924289Y-130308287D01*
X73996108Y-130286501D01*
X74062296Y-130251122D01*
X74120311Y-130203511D01*
X74167922Y-130145496D01*
X74192882Y-130098800D01*
X77120378Y-130098800D01*
X77170280Y-130103715D01*
X77220182Y-130098800D01*
X77369451Y-130084098D01*
X77560967Y-130026002D01*
X77737470Y-129931660D01*
X77892176Y-129804696D01*
X77923993Y-129765927D01*
X78163287Y-129526633D01*
X78202056Y-129494816D01*
X78276652Y-129403920D01*
X81856832Y-129403920D01*
X84278912Y-131826000D01*
X83399196Y-132705716D01*
X83427520Y-132563322D01*
X83427520Y-132409478D01*
X83397507Y-132258591D01*
X83338633Y-132116458D01*
X83253162Y-131988541D01*
X83144379Y-131879758D01*
X83016462Y-131794287D01*
X82874329Y-131735413D01*
X82723442Y-131705400D01*
X82569598Y-131705400D01*
X82418711Y-131735413D01*
X82276578Y-131794287D01*
X82148661Y-131879758D01*
X82048019Y-131980400D01*
X72751992Y-131980400D01*
X71229210Y-130457619D01*
X71229210Y-126421557D01*
X71768600Y-126421557D01*
X71768600Y-126664043D01*
X71815907Y-126901869D01*
X71908702Y-127125897D01*
X72043420Y-127327517D01*
X72214883Y-127498980D01*
X72416503Y-127633698D01*
X72640531Y-127726493D01*
X72878357Y-127773800D01*
X73120843Y-127773800D01*
X73358669Y-127726493D01*
X73582697Y-127633698D01*
X73784317Y-127498980D01*
X73955780Y-127327517D01*
X74090498Y-127125897D01*
X74183293Y-126901869D01*
X74230600Y-126664043D01*
X74230600Y-126421557D01*
X74183293Y-126183731D01*
X74090498Y-125959703D01*
X73955780Y-125758083D01*
X73784317Y-125586620D01*
X73582697Y-125451902D01*
X73358669Y-125359107D01*
X73120843Y-125311800D01*
X72878357Y-125311800D01*
X72640531Y-125359107D01*
X72416503Y-125451902D01*
X72214883Y-125586620D01*
X72043420Y-125758083D01*
X71908702Y-125959703D01*
X71815907Y-126183731D01*
X71768600Y-126421557D01*
X71229210Y-126421557D01*
X71229210Y-125322504D01*
X71231658Y-125297650D01*
X71221888Y-125198457D01*
X71192955Y-125103075D01*
X71179673Y-125078226D01*
X71145969Y-125015171D01*
X71082737Y-124938123D01*
X71063430Y-124922278D01*
X70022709Y-123881557D01*
X71768600Y-123881557D01*
X71768600Y-124124043D01*
X71815907Y-124361869D01*
X71908702Y-124585897D01*
X72043420Y-124787517D01*
X72214883Y-124958980D01*
X72416503Y-125093698D01*
X72640531Y-125186493D01*
X72878357Y-125233800D01*
X73120843Y-125233800D01*
X73358669Y-125186493D01*
X73582697Y-125093698D01*
X73784317Y-124958980D01*
X73955780Y-124787517D01*
X74058490Y-124633800D01*
X75178410Y-124633800D01*
X75209400Y-124636852D01*
X75240390Y-124633800D01*
X75240398Y-124633800D01*
X75333098Y-124624670D01*
X75452042Y-124588589D01*
X75561661Y-124529996D01*
X75657743Y-124451143D01*
X75677505Y-124427063D01*
X75740801Y-124363767D01*
X75848689Y-124342307D01*
X75990822Y-124283433D01*
X76118739Y-124197962D01*
X76227522Y-124089179D01*
X76312993Y-123961262D01*
X76371867Y-123819129D01*
X76401880Y-123668242D01*
X76401880Y-123514398D01*
X76371867Y-123363511D01*
X76312993Y-123221378D01*
X76227522Y-123093461D01*
X76118739Y-122984678D01*
X75990822Y-122899207D01*
X75848689Y-122840333D01*
X75697802Y-122810320D01*
X75543958Y-122810320D01*
X75393071Y-122840333D01*
X75250938Y-122899207D01*
X75123021Y-122984678D01*
X75014238Y-123093461D01*
X74928767Y-123221378D01*
X74869893Y-123363511D01*
X74868244Y-123371800D01*
X74058490Y-123371800D01*
X73955780Y-123218083D01*
X73784317Y-123046620D01*
X73582697Y-122911902D01*
X73358669Y-122819107D01*
X73120843Y-122771800D01*
X72878357Y-122771800D01*
X72640531Y-122819107D01*
X72416503Y-122911902D01*
X72214883Y-123046620D01*
X72043420Y-123218083D01*
X71908702Y-123419703D01*
X71815907Y-123643731D01*
X71768600Y-123881557D01*
X70022709Y-123881557D01*
X69035880Y-122894729D01*
X69035880Y-122752398D01*
X69005867Y-122601511D01*
X68946993Y-122459378D01*
X68861522Y-122331461D01*
X68752739Y-122222678D01*
X68624822Y-122137207D01*
X68482689Y-122078333D01*
X68331802Y-122048320D01*
X68177958Y-122048320D01*
X68027071Y-122078333D01*
X67884938Y-122137207D01*
X67757021Y-122222678D01*
X67648238Y-122331461D01*
X67562767Y-122459378D01*
X67503893Y-122601511D01*
X67473880Y-122752398D01*
X67473880Y-122906242D01*
X67503893Y-123057129D01*
X67562767Y-123199262D01*
X67648238Y-123327179D01*
X67757021Y-123435962D01*
X67884938Y-123521433D01*
X68027071Y-123580307D01*
X68177958Y-123610320D01*
X68320289Y-123610320D01*
X70217210Y-125507242D01*
X70217210Y-127498929D01*
X70070906Y-127454548D01*
X69941473Y-127441800D01*
X69297330Y-127441800D01*
X69298249Y-127441186D01*
X69396586Y-127342849D01*
X69473849Y-127227216D01*
X69527069Y-127098733D01*
X69554200Y-126962335D01*
X69554200Y-126823265D01*
X69527069Y-126686867D01*
X69473849Y-126558384D01*
X69396586Y-126442751D01*
X69298249Y-126344414D01*
X69182616Y-126267151D01*
X69054133Y-126213931D01*
X68917735Y-126186800D01*
X68778665Y-126186800D01*
X68642267Y-126213931D01*
X68513784Y-126267151D01*
X68479190Y-126290266D01*
X68479190Y-125991569D01*
X68543542Y-125964913D01*
X68671459Y-125879442D01*
X68780242Y-125770659D01*
X68865713Y-125642742D01*
X68924587Y-125500609D01*
X68954600Y-125349722D01*
X68954600Y-125195878D01*
X68924587Y-125044991D01*
X68865713Y-124902858D01*
X68780242Y-124774941D01*
X68671459Y-124666158D01*
X68543542Y-124580687D01*
X68401409Y-124521813D01*
X68250522Y-124491800D01*
X68096678Y-124491800D01*
X67945791Y-124521813D01*
X67803658Y-124580687D01*
X67675741Y-124666158D01*
X67566958Y-124774941D01*
X67481487Y-124902858D01*
X67422613Y-125044991D01*
X67392600Y-125195878D01*
X67392600Y-125349722D01*
X67422613Y-125500609D01*
X67467191Y-125608229D01*
X67467190Y-128639684D01*
X67464743Y-128664530D01*
X67467190Y-128689376D01*
X67467190Y-128689383D01*
X67474512Y-128763722D01*
X67503445Y-128859104D01*
X67550431Y-128947009D01*
X67613663Y-129024057D01*
X67632975Y-129039906D01*
X72144688Y-133551620D01*
X72160533Y-133570927D01*
X72237581Y-133634159D01*
X72325485Y-133681145D01*
X72420866Y-133710078D01*
X72426979Y-133710680D01*
X72495206Y-133717400D01*
X72495213Y-133717400D01*
X72520059Y-133719847D01*
X72544905Y-133717400D01*
X79528339Y-133717400D01*
X79628981Y-133818042D01*
X79756898Y-133903513D01*
X79899031Y-133962387D01*
X80049918Y-133992400D01*
X80203762Y-133992400D01*
X80354649Y-133962387D01*
X80496782Y-133903513D01*
X80624699Y-133818042D01*
X80733482Y-133709259D01*
X80818953Y-133581342D01*
X80877827Y-133439209D01*
X80907840Y-133288322D01*
X80907840Y-133134478D01*
X80879579Y-132992400D01*
X82048019Y-132992400D01*
X82148661Y-133093042D01*
X82276578Y-133178513D01*
X82418711Y-133237387D01*
X82569598Y-133267400D01*
X82723442Y-133267400D01*
X82865836Y-133239076D01*
X77808072Y-138296840D01*
X76188965Y-138296840D01*
X76097502Y-138235727D01*
X75955369Y-138176853D01*
X75804482Y-138146840D01*
X75650638Y-138146840D01*
X75499751Y-138176853D01*
X75357618Y-138235727D01*
X75229701Y-138321198D01*
X75120918Y-138429981D01*
X75035447Y-138557898D01*
X74976573Y-138700031D01*
X74946560Y-138850918D01*
X74946560Y-139004762D01*
X74976573Y-139155649D01*
X75035447Y-139297782D01*
X75120918Y-139425699D01*
X75229701Y-139534482D01*
X75357618Y-139619953D01*
X75499751Y-139678827D01*
X75650638Y-139708840D01*
X75804482Y-139708840D01*
X75955369Y-139678827D01*
X76097502Y-139619953D01*
X76188965Y-139558840D01*
X78038450Y-139558840D01*
X78069440Y-139561892D01*
X78100430Y-139558840D01*
X78100438Y-139558840D01*
X78193138Y-139549710D01*
X78312082Y-139513629D01*
X78421701Y-139455036D01*
X78517783Y-139376183D01*
X78537545Y-139352103D01*
X85168740Y-132720908D01*
X86837233Y-134389402D01*
X86858693Y-134497289D01*
X86917567Y-134639422D01*
X87003038Y-134767339D01*
X87111821Y-134876122D01*
X87239738Y-134961593D01*
X87381871Y-135020467D01*
X87532758Y-135050480D01*
X87686602Y-135050480D01*
X87837489Y-135020467D01*
X87979622Y-134961593D01*
X88071085Y-134900480D01*
X90365331Y-134900480D01*
X90374053Y-134944329D01*
X90432927Y-135086462D01*
X90518398Y-135214379D01*
X90627181Y-135323162D01*
X90755098Y-135408633D01*
X90897231Y-135467507D01*
X91048118Y-135497520D01*
X91201962Y-135497520D01*
X91352849Y-135467507D01*
X91494982Y-135408633D01*
X91581400Y-135350891D01*
X91581400Y-135902943D01*
X91578952Y-135927799D01*
X91588721Y-136026991D01*
X91617654Y-136122373D01*
X91635715Y-136156161D01*
X91664641Y-136210278D01*
X91727873Y-136287326D01*
X91747179Y-136303170D01*
X92763488Y-137319480D01*
X86008934Y-137319480D01*
X85984080Y-137317032D01*
X85959226Y-137319480D01*
X85884887Y-137326802D01*
X85789505Y-137355735D01*
X85764362Y-137369174D01*
X85740962Y-137364520D01*
X85587118Y-137364520D01*
X85436231Y-137394533D01*
X85294098Y-137453407D01*
X85166181Y-137538878D01*
X85057398Y-137647661D01*
X84971927Y-137775578D01*
X84913053Y-137917711D01*
X84883040Y-138068598D01*
X84883040Y-138222442D01*
X84913053Y-138373329D01*
X84971927Y-138515462D01*
X85057398Y-138643379D01*
X85166181Y-138752162D01*
X85294098Y-138837633D01*
X85436231Y-138896507D01*
X85587118Y-138926520D01*
X85740962Y-138926520D01*
X85891849Y-138896507D01*
X86033982Y-138837633D01*
X86161899Y-138752162D01*
X86270682Y-138643379D01*
X86356153Y-138515462D01*
X86415027Y-138373329D01*
X86423351Y-138331480D01*
X106656226Y-138331480D01*
X106617168Y-138389935D01*
X106558294Y-138532068D01*
X106534065Y-138653876D01*
X87920658Y-138653876D01*
X87895804Y-138651428D01*
X87870950Y-138653876D01*
X87796611Y-138661198D01*
X87701229Y-138690131D01*
X87613325Y-138737117D01*
X87536277Y-138800349D01*
X87520433Y-138819655D01*
X86923249Y-139416840D01*
X86780918Y-139416840D01*
X86630031Y-139446853D01*
X86487898Y-139505727D01*
X86359981Y-139591198D01*
X86251198Y-139699981D01*
X86165727Y-139827898D01*
X86117472Y-139944394D01*
X85983289Y-139888813D01*
X85832402Y-139858800D01*
X85678558Y-139858800D01*
X85527671Y-139888813D01*
X85385538Y-139947687D01*
X85257621Y-140033158D01*
X85148838Y-140141941D01*
X85063367Y-140269858D01*
X85004493Y-140411991D01*
X84974480Y-140562878D01*
X84974480Y-140716722D01*
X85004493Y-140867609D01*
X85063367Y-141009742D01*
X85148838Y-141137659D01*
X85257621Y-141246442D01*
X85385538Y-141331913D01*
X85527671Y-141390787D01*
X85678558Y-141420800D01*
X85832402Y-141420800D01*
X85895549Y-141408239D01*
X85912876Y-141413495D01*
X85939327Y-141421519D01*
X85949215Y-141422493D01*
X86013667Y-141428841D01*
X86013674Y-141428841D01*
X86038520Y-141431288D01*
X86063366Y-141428841D01*
X87180995Y-141428841D01*
X87205841Y-141431288D01*
X87230687Y-141428841D01*
X87230695Y-141428841D01*
X87305034Y-141421519D01*
X87400416Y-141392586D01*
X87488320Y-141345600D01*
X87565368Y-141282368D01*
X87581217Y-141263056D01*
X88601275Y-140242999D01*
X93524102Y-140242999D01*
X93484807Y-140301809D01*
X93425933Y-140443942D01*
X93395920Y-140594829D01*
X93395920Y-140748673D01*
X93425933Y-140899560D01*
X93484807Y-141041693D01*
X93570278Y-141169610D01*
X93671791Y-141271123D01*
X93678242Y-141336628D01*
X93707175Y-141432010D01*
X93707176Y-141432011D01*
X93754162Y-141519915D01*
X93817394Y-141596963D01*
X93836701Y-141612808D01*
X96122227Y-143898335D01*
X96138067Y-143917636D01*
X96157368Y-143933476D01*
X96157371Y-143933479D01*
X96180546Y-143952498D01*
X96215115Y-143980868D01*
X96256032Y-144002739D01*
X96303018Y-144027854D01*
X96398399Y-144056787D01*
X96418174Y-144058735D01*
X96472740Y-144064109D01*
X96472746Y-144064109D01*
X96497592Y-144066556D01*
X96522438Y-144064109D01*
X175436920Y-144064107D01*
X175277010Y-144149580D01*
X175122304Y-144276544D01*
X174995340Y-144431250D01*
X174900998Y-144607753D01*
X174842902Y-144799269D01*
X174823285Y-144998440D01*
X174842902Y-145197611D01*
X174900998Y-145389127D01*
X174995340Y-145565630D01*
X175122304Y-145720336D01*
X175277010Y-145847300D01*
X175420133Y-145923800D01*
X71449400Y-145923800D01*
X71449400Y-136114368D01*
X71451485Y-136093200D01*
X71443163Y-136008709D01*
X71418518Y-135927466D01*
X71378497Y-135852591D01*
X71324637Y-135786963D01*
X71259009Y-135733103D01*
X71184134Y-135693082D01*
X71102891Y-135668437D01*
X71039568Y-135662200D01*
X71018400Y-135660115D01*
X70997232Y-135662200D01*
X64337400Y-135662200D01*
X64337400Y-129026882D01*
X64376375Y-129058868D01*
X64529425Y-129140675D01*
X64695494Y-129191052D01*
X64824927Y-129203800D01*
X65511473Y-129203800D01*
X65640906Y-129191052D01*
X65806975Y-129140675D01*
X65960025Y-129058868D01*
X66094175Y-128948775D01*
X66204268Y-128814625D01*
X66286075Y-128661575D01*
X66336452Y-128495506D01*
X66353462Y-128322800D01*
X66336452Y-128150094D01*
X66286075Y-127984025D01*
X66204268Y-127830975D01*
X66094175Y-127696825D01*
X65960025Y-127586732D01*
X65806975Y-127504925D01*
X65640906Y-127454548D01*
X65511473Y-127441800D01*
X64824927Y-127441800D01*
X64695494Y-127454548D01*
X64529425Y-127504925D01*
X64376375Y-127586732D01*
X64337400Y-127618718D01*
X64337400Y-120386882D01*
X64376375Y-120418868D01*
X64529425Y-120500675D01*
X64695494Y-120551052D01*
X64824927Y-120563800D01*
X65511473Y-120563800D01*
X65640906Y-120551052D01*
X65806975Y-120500675D01*
X65960025Y-120418868D01*
X66094175Y-120308775D01*
X66204268Y-120174625D01*
X66286075Y-120021575D01*
X66336452Y-119855506D01*
X66353462Y-119682800D01*
X67912938Y-119682800D01*
X67929948Y-119855506D01*
X67980325Y-120021575D01*
X68062132Y-120174625D01*
X68172225Y-120308775D01*
X68306375Y-120418868D01*
X68459425Y-120500675D01*
X68482890Y-120507793D01*
X68398151Y-120564414D01*
X68299814Y-120662751D01*
X68222551Y-120778384D01*
X68169331Y-120906867D01*
X68142200Y-121043265D01*
X68142200Y-121182335D01*
X68169331Y-121318733D01*
X68222551Y-121447216D01*
X68299814Y-121562849D01*
X68398151Y-121661186D01*
X68513784Y-121738449D01*
X68642267Y-121791669D01*
X68778665Y-121818800D01*
X68917735Y-121818800D01*
X69054133Y-121791669D01*
X69182616Y-121738449D01*
X69298249Y-121661186D01*
X69396586Y-121562849D01*
X69473849Y-121447216D01*
X69527069Y-121318733D01*
X69554200Y-121182335D01*
X69554200Y-121043265D01*
X69527069Y-120906867D01*
X69473849Y-120778384D01*
X69396586Y-120662751D01*
X69298249Y-120564414D01*
X69297330Y-120563800D01*
X69941473Y-120563800D01*
X70070906Y-120551052D01*
X70236975Y-120500675D01*
X70390025Y-120418868D01*
X70524175Y-120308775D01*
X70634268Y-120174625D01*
X70716075Y-120021575D01*
X70766452Y-119855506D01*
X70783462Y-119682800D01*
X70766452Y-119510094D01*
X70716075Y-119344025D01*
X70681688Y-119279690D01*
X71558124Y-119279690D01*
X71602775Y-119426899D01*
X71727959Y-119689720D01*
X71902012Y-119923069D01*
X72118245Y-120117978D01*
X72368348Y-120266957D01*
X72530768Y-120324572D01*
X72416503Y-120371902D01*
X72214883Y-120506620D01*
X72043420Y-120678083D01*
X71908702Y-120879703D01*
X71815907Y-121103731D01*
X71768600Y-121341557D01*
X71768600Y-121584043D01*
X71815907Y-121821869D01*
X71908702Y-122045897D01*
X72043420Y-122247517D01*
X72214883Y-122418980D01*
X72416503Y-122553698D01*
X72640531Y-122646493D01*
X72878357Y-122693800D01*
X73120843Y-122693800D01*
X73358669Y-122646493D01*
X73582697Y-122553698D01*
X73784317Y-122418980D01*
X73955780Y-122247517D01*
X74090498Y-122045897D01*
X74183293Y-121821869D01*
X74230600Y-121584043D01*
X74230600Y-121341557D01*
X74183293Y-121103731D01*
X74090498Y-120879703D01*
X73955780Y-120678083D01*
X73784317Y-120506620D01*
X73582697Y-120371902D01*
X73468432Y-120324572D01*
X73630852Y-120266957D01*
X73880955Y-120117978D01*
X74097188Y-119923069D01*
X74271241Y-119689720D01*
X74396425Y-119426899D01*
X74441076Y-119279690D01*
X74319755Y-119049800D01*
X73126600Y-119049800D01*
X73126600Y-119069800D01*
X72872600Y-119069800D01*
X72872600Y-119049800D01*
X71679445Y-119049800D01*
X71558124Y-119279690D01*
X70681688Y-119279690D01*
X70634268Y-119190975D01*
X70524175Y-119056825D01*
X70390025Y-118946732D01*
X70236975Y-118864925D01*
X70070906Y-118814548D01*
X69941473Y-118801800D01*
X68754927Y-118801800D01*
X68625494Y-118814548D01*
X68459425Y-118864925D01*
X68306375Y-118946732D01*
X68172225Y-119056825D01*
X68062132Y-119190975D01*
X67980325Y-119344025D01*
X67929948Y-119510094D01*
X67912938Y-119682800D01*
X66353462Y-119682800D01*
X66336452Y-119510094D01*
X66286075Y-119344025D01*
X66204268Y-119190975D01*
X66094175Y-119056825D01*
X65960025Y-118946732D01*
X65806975Y-118864925D01*
X65640906Y-118814548D01*
X65511473Y-118801800D01*
X64824927Y-118801800D01*
X64695494Y-118814548D01*
X64529425Y-118864925D01*
X64376375Y-118946732D01*
X64337400Y-118978718D01*
X64337400Y-118565910D01*
X71558124Y-118565910D01*
X71679445Y-118795800D01*
X72872600Y-118795800D01*
X72872600Y-117601986D01*
X73126600Y-117601986D01*
X73126600Y-118795800D01*
X74319755Y-118795800D01*
X74441076Y-118565910D01*
X74396425Y-118418701D01*
X74271241Y-118155880D01*
X74097188Y-117922531D01*
X73880955Y-117727622D01*
X73630852Y-117578643D01*
X73356491Y-117481319D01*
X73126600Y-117601986D01*
X72872600Y-117601986D01*
X72642709Y-117481319D01*
X72368348Y-117578643D01*
X72118245Y-117727622D01*
X71902012Y-117922531D01*
X71727959Y-118155880D01*
X71602775Y-118418701D01*
X71558124Y-118565910D01*
X64337400Y-118565910D01*
X64337400Y-112394200D01*
X70997232Y-112394200D01*
X71018400Y-112396285D01*
X71039568Y-112394200D01*
X71102891Y-112387963D01*
X71184134Y-112363318D01*
X71259009Y-112323297D01*
X71324637Y-112269437D01*
X71378497Y-112203809D01*
X71418518Y-112128934D01*
X71443163Y-112047691D01*
X71451485Y-111963200D01*
X71449400Y-111942032D01*
X71449400Y-101827800D01*
X201194201Y-101827800D01*
X201194200Y-145923800D01*
%TA.AperFunction,Conductor*%
D24*
G36*
X201194200Y-145923800D02*
G01*
X198488187Y-145923800D01*
X198631310Y-145847300D01*
X198786016Y-145720336D01*
X198817832Y-145681568D01*
X200794493Y-143704908D01*
X200833256Y-143673096D01*
X200960220Y-143518390D01*
X201054562Y-143341887D01*
X201112658Y-143150371D01*
X201127360Y-143001102D01*
X201132275Y-142951200D01*
X201127360Y-142901298D01*
X201127360Y-104052733D01*
X201132274Y-104002839D01*
X201127360Y-103952945D01*
X201127360Y-103952938D01*
X201112658Y-103803669D01*
X201054562Y-103612153D01*
X200960220Y-103435650D01*
X200833256Y-103280944D01*
X200794493Y-103249132D01*
X199940512Y-102395152D01*
X199908696Y-102356384D01*
X199753990Y-102229420D01*
X199577487Y-102135078D01*
X199385971Y-102076982D01*
X199236702Y-102062280D01*
X199186800Y-102057365D01*
X199136898Y-102062280D01*
X142813142Y-102062280D01*
X142763240Y-102057365D01*
X142713338Y-102062280D01*
X106076378Y-102062280D01*
X105927109Y-102076982D01*
X105735593Y-102135078D01*
X105559090Y-102229420D01*
X105404384Y-102356384D01*
X105277420Y-102511090D01*
X105227138Y-102605161D01*
X105214002Y-102585501D01*
X105105219Y-102476718D01*
X104977302Y-102391247D01*
X104835169Y-102332373D01*
X104684282Y-102302360D01*
X104530438Y-102302360D01*
X104379551Y-102332373D01*
X104237418Y-102391247D01*
X104109501Y-102476718D01*
X104000718Y-102585501D01*
X103915247Y-102713418D01*
X103856373Y-102855551D01*
X103826360Y-103006438D01*
X103826360Y-103160282D01*
X103856373Y-103311169D01*
X103915247Y-103453302D01*
X104000718Y-103581219D01*
X104109501Y-103690002D01*
X104237418Y-103775473D01*
X104379551Y-103834347D01*
X104530438Y-103864360D01*
X104684282Y-103864360D01*
X104835169Y-103834347D01*
X104977302Y-103775473D01*
X105105219Y-103690002D01*
X105214002Y-103581219D01*
X105230155Y-103557044D01*
X105277420Y-103645470D01*
X105404384Y-103800176D01*
X105559090Y-103927140D01*
X105735593Y-104021482D01*
X105927109Y-104079578D01*
X106076378Y-104094280D01*
X132888819Y-104094280D01*
X132871247Y-104120578D01*
X132812373Y-104262711D01*
X132790913Y-104370598D01*
X132707632Y-104453880D01*
X95516508Y-104453880D01*
X95485518Y-104450828D01*
X95454527Y-104453880D01*
X95454520Y-104453880D01*
X95361820Y-104463010D01*
X95242876Y-104499091D01*
X95133257Y-104557684D01*
X95064371Y-104614218D01*
X95037175Y-104636537D01*
X95017417Y-104660612D01*
X85455851Y-114222179D01*
X85405858Y-114242887D01*
X85277941Y-114328358D01*
X85169158Y-114437141D01*
X85083687Y-114565058D01*
X85024813Y-114707191D01*
X84994800Y-114858078D01*
X84994800Y-115011922D01*
X85024813Y-115162809D01*
X85083687Y-115304942D01*
X85169158Y-115432859D01*
X85277941Y-115541642D01*
X85405858Y-115627113D01*
X85547443Y-115685760D01*
X78276652Y-115685760D01*
X78202056Y-115594864D01*
X78163293Y-115563052D01*
X74178160Y-111577920D01*
X74178160Y-109478358D01*
X78050440Y-109478358D01*
X78050440Y-109632202D01*
X78080453Y-109783089D01*
X78139327Y-109925222D01*
X78224798Y-110053139D01*
X78333581Y-110161922D01*
X78461498Y-110247393D01*
X78603631Y-110306267D01*
X78754518Y-110336280D01*
X78908362Y-110336280D01*
X79001810Y-110317692D01*
X78924858Y-110432860D01*
X78806625Y-110718300D01*
X78746350Y-111021321D01*
X78746350Y-111330279D01*
X78806625Y-111633300D01*
X78924858Y-111918740D01*
X79096505Y-112175629D01*
X79314971Y-112394095D01*
X79571860Y-112565742D01*
X79857300Y-112683975D01*
X80160321Y-112744250D01*
X80469279Y-112744250D01*
X80772300Y-112683975D01*
X81057740Y-112565742D01*
X81229042Y-112451282D01*
X81158133Y-112522191D01*
X81062233Y-112665716D01*
X80996176Y-112825193D01*
X80962500Y-112994492D01*
X80962500Y-113167108D01*
X80996176Y-113336407D01*
X81062233Y-113495884D01*
X81158133Y-113639409D01*
X81280191Y-113761467D01*
X81423716Y-113857367D01*
X81583193Y-113923424D01*
X81752492Y-113957100D01*
X81925108Y-113957100D01*
X82094407Y-113923424D01*
X82253884Y-113857367D01*
X82397409Y-113761467D01*
X82519467Y-113639409D01*
X82615367Y-113495884D01*
X82681424Y-113336407D01*
X82715100Y-113167108D01*
X82715100Y-112994492D01*
X82681424Y-112825193D01*
X82615367Y-112665716D01*
X82519467Y-112522191D01*
X82397409Y-112400133D01*
X82253884Y-112304233D01*
X82094407Y-112238176D01*
X81925108Y-112204500D01*
X81752492Y-112204500D01*
X81583193Y-112238176D01*
X81423716Y-112304233D01*
X81365779Y-112342945D01*
X81533095Y-112175629D01*
X81704742Y-111918740D01*
X81822975Y-111633300D01*
X81883250Y-111330279D01*
X81883250Y-111021321D01*
X81822975Y-110718300D01*
X81704742Y-110432860D01*
X81533095Y-110175971D01*
X81376375Y-110019251D01*
X84333225Y-110019251D01*
X84176505Y-110175971D01*
X84004858Y-110432860D01*
X83886625Y-110718300D01*
X83826350Y-111021321D01*
X83826350Y-111330279D01*
X83886625Y-111633300D01*
X84004858Y-111918740D01*
X84176505Y-112175629D01*
X84343821Y-112342945D01*
X84285884Y-112304233D01*
X84126407Y-112238176D01*
X83957108Y-112204500D01*
X83784492Y-112204500D01*
X83615193Y-112238176D01*
X83455716Y-112304233D01*
X83312191Y-112400133D01*
X83190133Y-112522191D01*
X83094233Y-112665716D01*
X83028176Y-112825193D01*
X82994500Y-112994492D01*
X82994500Y-113167108D01*
X83028176Y-113336407D01*
X83094233Y-113495884D01*
X83190133Y-113639409D01*
X83312191Y-113761467D01*
X83455716Y-113857367D01*
X83615193Y-113923424D01*
X83784492Y-113957100D01*
X83957108Y-113957100D01*
X84126407Y-113923424D01*
X84285884Y-113857367D01*
X84429409Y-113761467D01*
X84551467Y-113639409D01*
X84647367Y-113495884D01*
X84713424Y-113336407D01*
X84747100Y-113167108D01*
X84747100Y-112994492D01*
X84713424Y-112825193D01*
X84647367Y-112665716D01*
X84551467Y-112522191D01*
X84480558Y-112451282D01*
X84651860Y-112565742D01*
X84937300Y-112683975D01*
X85240321Y-112744250D01*
X85549279Y-112744250D01*
X85852300Y-112683975D01*
X86137740Y-112565742D01*
X86394629Y-112394095D01*
X86613095Y-112175629D01*
X86784742Y-111918740D01*
X86902975Y-111633300D01*
X86963250Y-111330279D01*
X86963250Y-111021321D01*
X86902975Y-110718300D01*
X86784742Y-110432860D01*
X86613095Y-110175971D01*
X86456375Y-110019251D01*
X86522110Y-110019251D01*
X86608901Y-110106042D01*
X86736818Y-110191513D01*
X86878951Y-110250387D01*
X87029838Y-110280400D01*
X87183682Y-110280400D01*
X87334569Y-110250387D01*
X87476702Y-110191513D01*
X87604619Y-110106042D01*
X87713402Y-109997259D01*
X87798873Y-109869342D01*
X87857747Y-109727209D01*
X87887760Y-109576322D01*
X87887760Y-109422478D01*
X87857747Y-109271591D01*
X87798873Y-109129458D01*
X87713402Y-109001541D01*
X87604619Y-108892758D01*
X87476702Y-108807287D01*
X87334569Y-108748413D01*
X87183682Y-108718400D01*
X87029838Y-108718400D01*
X86878951Y-108748413D01*
X86744372Y-108804158D01*
X86784742Y-108743740D01*
X86902975Y-108458300D01*
X86963250Y-108155279D01*
X86963250Y-107846321D01*
X86902975Y-107543300D01*
X86784742Y-107257860D01*
X86613095Y-107000971D01*
X86394629Y-106782505D01*
X86137740Y-106610858D01*
X85852300Y-106492625D01*
X85549279Y-106432350D01*
X85240321Y-106432350D01*
X84937300Y-106492625D01*
X84651860Y-106610858D01*
X84394971Y-106782505D01*
X84176505Y-107000971D01*
X84004858Y-107257860D01*
X83886625Y-107543300D01*
X83826350Y-107846321D01*
X83826350Y-108155279D01*
X83886625Y-108458300D01*
X84004858Y-108743740D01*
X84176505Y-109000629D01*
X84183127Y-109007251D01*
X81526473Y-109007251D01*
X81533095Y-109000629D01*
X81704742Y-108743740D01*
X81822975Y-108458300D01*
X81883250Y-108155279D01*
X81883250Y-107914492D01*
X81978500Y-107914492D01*
X81978500Y-108087108D01*
X82012176Y-108256407D01*
X82078233Y-108415884D01*
X82174133Y-108559409D01*
X82296191Y-108681467D01*
X82439716Y-108777367D01*
X82599193Y-108843424D01*
X82768492Y-108877100D01*
X82941108Y-108877100D01*
X83110407Y-108843424D01*
X83269884Y-108777367D01*
X83413409Y-108681467D01*
X83535467Y-108559409D01*
X83631367Y-108415884D01*
X83697424Y-108256407D01*
X83731100Y-108087108D01*
X83731100Y-107914492D01*
X83697424Y-107745193D01*
X83631367Y-107585716D01*
X83535467Y-107442191D01*
X83413409Y-107320133D01*
X83269884Y-107224233D01*
X83110407Y-107158176D01*
X82941108Y-107124500D01*
X82768492Y-107124500D01*
X82599193Y-107158176D01*
X82439716Y-107224233D01*
X82296191Y-107320133D01*
X82174133Y-107442191D01*
X82078233Y-107585716D01*
X82012176Y-107745193D01*
X81978500Y-107914492D01*
X81883250Y-107914492D01*
X81883250Y-107846321D01*
X81822975Y-107543300D01*
X81704742Y-107257860D01*
X81533095Y-107000971D01*
X81314629Y-106782505D01*
X81057740Y-106610858D01*
X80772300Y-106492625D01*
X80469279Y-106432350D01*
X80160321Y-106432350D01*
X79857300Y-106492625D01*
X79571860Y-106610858D01*
X79314971Y-106782505D01*
X79096505Y-107000971D01*
X78924858Y-107257860D01*
X78806625Y-107543300D01*
X78746350Y-107846321D01*
X78746350Y-108155279D01*
X78806625Y-108458300D01*
X78924858Y-108743740D01*
X78950920Y-108782745D01*
X78908362Y-108774280D01*
X78754518Y-108774280D01*
X78603631Y-108804293D01*
X78461498Y-108863167D01*
X78333581Y-108948638D01*
X78224798Y-109057421D01*
X78139327Y-109185338D01*
X78080453Y-109327471D01*
X78050440Y-109478358D01*
X74178160Y-109478358D01*
X74178160Y-106953520D01*
X77037401Y-104094280D01*
X82006082Y-104094280D01*
X82024602Y-104099898D01*
X82223772Y-104119515D01*
X82422942Y-104099898D01*
X82441462Y-104094280D01*
X99734742Y-104094280D01*
X99884011Y-104079578D01*
X100075527Y-104021482D01*
X100252030Y-103927140D01*
X100406736Y-103800176D01*
X100533700Y-103645470D01*
X100578697Y-103561287D01*
X100602198Y-103596459D01*
X100710981Y-103705242D01*
X100838898Y-103790713D01*
X100981031Y-103849587D01*
X101131918Y-103879600D01*
X101285762Y-103879600D01*
X101436649Y-103849587D01*
X101578782Y-103790713D01*
X101706699Y-103705242D01*
X101815482Y-103596459D01*
X101900953Y-103468542D01*
X101959827Y-103326409D01*
X101989840Y-103175522D01*
X101989840Y-103021678D01*
X101986809Y-103006438D01*
X102063600Y-103006438D01*
X102063600Y-103160282D01*
X102093613Y-103311169D01*
X102152487Y-103453302D01*
X102237958Y-103581219D01*
X102346741Y-103690002D01*
X102474658Y-103775473D01*
X102616791Y-103834347D01*
X102767678Y-103864360D01*
X102921522Y-103864360D01*
X103072409Y-103834347D01*
X103214542Y-103775473D01*
X103342459Y-103690002D01*
X103451242Y-103581219D01*
X103536713Y-103453302D01*
X103595587Y-103311169D01*
X103625600Y-103160282D01*
X103625600Y-103006438D01*
X103595587Y-102855551D01*
X103536713Y-102713418D01*
X103451242Y-102585501D01*
X103342459Y-102476718D01*
X103214542Y-102391247D01*
X103072409Y-102332373D01*
X102921522Y-102302360D01*
X102767678Y-102302360D01*
X102616791Y-102332373D01*
X102474658Y-102391247D01*
X102346741Y-102476718D01*
X102237958Y-102585501D01*
X102152487Y-102713418D01*
X102093613Y-102855551D01*
X102063600Y-103006438D01*
X101986809Y-103006438D01*
X101959827Y-102870791D01*
X101900953Y-102728658D01*
X101815482Y-102600741D01*
X101706699Y-102491958D01*
X101578782Y-102406487D01*
X101436649Y-102347613D01*
X101285762Y-102317600D01*
X101131918Y-102317600D01*
X100981031Y-102347613D01*
X100838898Y-102406487D01*
X100710981Y-102491958D01*
X100602198Y-102600741D01*
X100590765Y-102617852D01*
X100533700Y-102511090D01*
X100406736Y-102356384D01*
X100252030Y-102229420D01*
X100075527Y-102135078D01*
X99884011Y-102076982D01*
X99734742Y-102062280D01*
X82293994Y-102062280D01*
X82244092Y-102057365D01*
X82194190Y-102062280D01*
X76666453Y-102062280D01*
X76616559Y-102057366D01*
X76566665Y-102062280D01*
X76566658Y-102062280D01*
X76436737Y-102075076D01*
X76417388Y-102076982D01*
X76359292Y-102094606D01*
X76225873Y-102135078D01*
X76049370Y-102229420D01*
X75894664Y-102356384D01*
X75862852Y-102395147D01*
X72479032Y-105778968D01*
X72440264Y-105810784D01*
X72313300Y-105965490D01*
X72218958Y-106141994D01*
X72160862Y-106333509D01*
X72160862Y-106333510D01*
X72141245Y-106532680D01*
X72146160Y-106582582D01*
X72146161Y-111948848D01*
X72141245Y-111998760D01*
X72160862Y-112197930D01*
X72218509Y-112387963D01*
X72218959Y-112389447D01*
X72313301Y-112565950D01*
X72440265Y-112720656D01*
X72479028Y-112752468D01*
X76464160Y-116737601D01*
X76464161Y-128066800D01*
X74192882Y-128066800D01*
X74167922Y-128020104D01*
X74120311Y-127962089D01*
X74062296Y-127914478D01*
X73996108Y-127879099D01*
X73924289Y-127857313D01*
X73849600Y-127849957D01*
X72149600Y-127849957D01*
X72074911Y-127857313D01*
X72003092Y-127879099D01*
X71936904Y-127914478D01*
X71878889Y-127962089D01*
X71831278Y-128020104D01*
X71795899Y-128086292D01*
X71774113Y-128158111D01*
X71766757Y-128232800D01*
X71766757Y-129932800D01*
X71774113Y-130007489D01*
X71795899Y-130079308D01*
X71831278Y-130145496D01*
X71878889Y-130203511D01*
X71936904Y-130251122D01*
X72003092Y-130286501D01*
X72074911Y-130308287D01*
X72149600Y-130315643D01*
X73849600Y-130315643D01*
X73924289Y-130308287D01*
X73996108Y-130286501D01*
X74062296Y-130251122D01*
X74120311Y-130203511D01*
X74167922Y-130145496D01*
X74192882Y-130098800D01*
X77120378Y-130098800D01*
X77170280Y-130103715D01*
X77220182Y-130098800D01*
X77369451Y-130084098D01*
X77560967Y-130026002D01*
X77737470Y-129931660D01*
X77892176Y-129804696D01*
X77923993Y-129765927D01*
X78163287Y-129526633D01*
X78202056Y-129494816D01*
X78276652Y-129403920D01*
X81856832Y-129403920D01*
X84278912Y-131826000D01*
X83399196Y-132705716D01*
X83427520Y-132563322D01*
X83427520Y-132409478D01*
X83397507Y-132258591D01*
X83338633Y-132116458D01*
X83253162Y-131988541D01*
X83144379Y-131879758D01*
X83016462Y-131794287D01*
X82874329Y-131735413D01*
X82723442Y-131705400D01*
X82569598Y-131705400D01*
X82418711Y-131735413D01*
X82276578Y-131794287D01*
X82148661Y-131879758D01*
X82048019Y-131980400D01*
X72751992Y-131980400D01*
X71229210Y-130457619D01*
X71229210Y-126421557D01*
X71768600Y-126421557D01*
X71768600Y-126664043D01*
X71815907Y-126901869D01*
X71908702Y-127125897D01*
X72043420Y-127327517D01*
X72214883Y-127498980D01*
X72416503Y-127633698D01*
X72640531Y-127726493D01*
X72878357Y-127773800D01*
X73120843Y-127773800D01*
X73358669Y-127726493D01*
X73582697Y-127633698D01*
X73784317Y-127498980D01*
X73955780Y-127327517D01*
X74090498Y-127125897D01*
X74183293Y-126901869D01*
X74230600Y-126664043D01*
X74230600Y-126421557D01*
X74183293Y-126183731D01*
X74090498Y-125959703D01*
X73955780Y-125758083D01*
X73784317Y-125586620D01*
X73582697Y-125451902D01*
X73358669Y-125359107D01*
X73120843Y-125311800D01*
X72878357Y-125311800D01*
X72640531Y-125359107D01*
X72416503Y-125451902D01*
X72214883Y-125586620D01*
X72043420Y-125758083D01*
X71908702Y-125959703D01*
X71815907Y-126183731D01*
X71768600Y-126421557D01*
X71229210Y-126421557D01*
X71229210Y-125322504D01*
X71231658Y-125297650D01*
X71221888Y-125198457D01*
X71192955Y-125103075D01*
X71179673Y-125078226D01*
X71145969Y-125015171D01*
X71082737Y-124938123D01*
X71063430Y-124922278D01*
X70022709Y-123881557D01*
X71768600Y-123881557D01*
X71768600Y-124124043D01*
X71815907Y-124361869D01*
X71908702Y-124585897D01*
X72043420Y-124787517D01*
X72214883Y-124958980D01*
X72416503Y-125093698D01*
X72640531Y-125186493D01*
X72878357Y-125233800D01*
X73120843Y-125233800D01*
X73358669Y-125186493D01*
X73582697Y-125093698D01*
X73784317Y-124958980D01*
X73955780Y-124787517D01*
X74058490Y-124633800D01*
X75178410Y-124633800D01*
X75209400Y-124636852D01*
X75240390Y-124633800D01*
X75240398Y-124633800D01*
X75333098Y-124624670D01*
X75452042Y-124588589D01*
X75561661Y-124529996D01*
X75657743Y-124451143D01*
X75677505Y-124427063D01*
X75740801Y-124363767D01*
X75848689Y-124342307D01*
X75990822Y-124283433D01*
X76118739Y-124197962D01*
X76227522Y-124089179D01*
X76312993Y-123961262D01*
X76371867Y-123819129D01*
X76401880Y-123668242D01*
X76401880Y-123514398D01*
X76371867Y-123363511D01*
X76312993Y-123221378D01*
X76227522Y-123093461D01*
X76118739Y-122984678D01*
X75990822Y-122899207D01*
X75848689Y-122840333D01*
X75697802Y-122810320D01*
X75543958Y-122810320D01*
X75393071Y-122840333D01*
X75250938Y-122899207D01*
X75123021Y-122984678D01*
X75014238Y-123093461D01*
X74928767Y-123221378D01*
X74869893Y-123363511D01*
X74868244Y-123371800D01*
X74058490Y-123371800D01*
X73955780Y-123218083D01*
X73784317Y-123046620D01*
X73582697Y-122911902D01*
X73358669Y-122819107D01*
X73120843Y-122771800D01*
X72878357Y-122771800D01*
X72640531Y-122819107D01*
X72416503Y-122911902D01*
X72214883Y-123046620D01*
X72043420Y-123218083D01*
X71908702Y-123419703D01*
X71815907Y-123643731D01*
X71768600Y-123881557D01*
X70022709Y-123881557D01*
X69035880Y-122894729D01*
X69035880Y-122752398D01*
X69005867Y-122601511D01*
X68946993Y-122459378D01*
X68861522Y-122331461D01*
X68752739Y-122222678D01*
X68624822Y-122137207D01*
X68482689Y-122078333D01*
X68331802Y-122048320D01*
X68177958Y-122048320D01*
X68027071Y-122078333D01*
X67884938Y-122137207D01*
X67757021Y-122222678D01*
X67648238Y-122331461D01*
X67562767Y-122459378D01*
X67503893Y-122601511D01*
X67473880Y-122752398D01*
X67473880Y-122906242D01*
X67503893Y-123057129D01*
X67562767Y-123199262D01*
X67648238Y-123327179D01*
X67757021Y-123435962D01*
X67884938Y-123521433D01*
X68027071Y-123580307D01*
X68177958Y-123610320D01*
X68320289Y-123610320D01*
X70217210Y-125507242D01*
X70217210Y-127498929D01*
X70070906Y-127454548D01*
X69941473Y-127441800D01*
X69297330Y-127441800D01*
X69298249Y-127441186D01*
X69396586Y-127342849D01*
X69473849Y-127227216D01*
X69527069Y-127098733D01*
X69554200Y-126962335D01*
X69554200Y-126823265D01*
X69527069Y-126686867D01*
X69473849Y-126558384D01*
X69396586Y-126442751D01*
X69298249Y-126344414D01*
X69182616Y-126267151D01*
X69054133Y-126213931D01*
X68917735Y-126186800D01*
X68778665Y-126186800D01*
X68642267Y-126213931D01*
X68513784Y-126267151D01*
X68479190Y-126290266D01*
X68479190Y-125991569D01*
X68543542Y-125964913D01*
X68671459Y-125879442D01*
X68780242Y-125770659D01*
X68865713Y-125642742D01*
X68924587Y-125500609D01*
X68954600Y-125349722D01*
X68954600Y-125195878D01*
X68924587Y-125044991D01*
X68865713Y-124902858D01*
X68780242Y-124774941D01*
X68671459Y-124666158D01*
X68543542Y-124580687D01*
X68401409Y-124521813D01*
X68250522Y-124491800D01*
X68096678Y-124491800D01*
X67945791Y-124521813D01*
X67803658Y-124580687D01*
X67675741Y-124666158D01*
X67566958Y-124774941D01*
X67481487Y-124902858D01*
X67422613Y-125044991D01*
X67392600Y-125195878D01*
X67392600Y-125349722D01*
X67422613Y-125500609D01*
X67467191Y-125608229D01*
X67467190Y-128639684D01*
X67464743Y-128664530D01*
X67467190Y-128689376D01*
X67467190Y-128689383D01*
X67474512Y-128763722D01*
X67503445Y-128859104D01*
X67550431Y-128947009D01*
X67613663Y-129024057D01*
X67632975Y-129039906D01*
X72144688Y-133551620D01*
X72160533Y-133570927D01*
X72237581Y-133634159D01*
X72325485Y-133681145D01*
X72420866Y-133710078D01*
X72426979Y-133710680D01*
X72495206Y-133717400D01*
X72495213Y-133717400D01*
X72520059Y-133719847D01*
X72544905Y-133717400D01*
X79528339Y-133717400D01*
X79628981Y-133818042D01*
X79756898Y-133903513D01*
X79899031Y-133962387D01*
X80049918Y-133992400D01*
X80203762Y-133992400D01*
X80354649Y-133962387D01*
X80496782Y-133903513D01*
X80624699Y-133818042D01*
X80733482Y-133709259D01*
X80818953Y-133581342D01*
X80877827Y-133439209D01*
X80907840Y-133288322D01*
X80907840Y-133134478D01*
X80879579Y-132992400D01*
X82048019Y-132992400D01*
X82148661Y-133093042D01*
X82276578Y-133178513D01*
X82418711Y-133237387D01*
X82569598Y-133267400D01*
X82723442Y-133267400D01*
X82865836Y-133239076D01*
X77808072Y-138296840D01*
X76188965Y-138296840D01*
X76097502Y-138235727D01*
X75955369Y-138176853D01*
X75804482Y-138146840D01*
X75650638Y-138146840D01*
X75499751Y-138176853D01*
X75357618Y-138235727D01*
X75229701Y-138321198D01*
X75120918Y-138429981D01*
X75035447Y-138557898D01*
X74976573Y-138700031D01*
X74946560Y-138850918D01*
X74946560Y-139004762D01*
X74976573Y-139155649D01*
X75035447Y-139297782D01*
X75120918Y-139425699D01*
X75229701Y-139534482D01*
X75357618Y-139619953D01*
X75499751Y-139678827D01*
X75650638Y-139708840D01*
X75804482Y-139708840D01*
X75955369Y-139678827D01*
X76097502Y-139619953D01*
X76188965Y-139558840D01*
X78038450Y-139558840D01*
X78069440Y-139561892D01*
X78100430Y-139558840D01*
X78100438Y-139558840D01*
X78193138Y-139549710D01*
X78312082Y-139513629D01*
X78421701Y-139455036D01*
X78517783Y-139376183D01*
X78537545Y-139352103D01*
X85168740Y-132720908D01*
X86837233Y-134389402D01*
X86858693Y-134497289D01*
X86917567Y-134639422D01*
X87003038Y-134767339D01*
X87111821Y-134876122D01*
X87239738Y-134961593D01*
X87381871Y-135020467D01*
X87532758Y-135050480D01*
X87686602Y-135050480D01*
X87837489Y-135020467D01*
X87979622Y-134961593D01*
X88071085Y-134900480D01*
X90365331Y-134900480D01*
X90374053Y-134944329D01*
X90432927Y-135086462D01*
X90518398Y-135214379D01*
X90627181Y-135323162D01*
X90755098Y-135408633D01*
X90897231Y-135467507D01*
X91048118Y-135497520D01*
X91201962Y-135497520D01*
X91352849Y-135467507D01*
X91494982Y-135408633D01*
X91581400Y-135350891D01*
X91581400Y-135902943D01*
X91578952Y-135927799D01*
X91588721Y-136026991D01*
X91617654Y-136122373D01*
X91635715Y-136156161D01*
X91664641Y-136210278D01*
X91727873Y-136287326D01*
X91747179Y-136303170D01*
X92763488Y-137319480D01*
X86008934Y-137319480D01*
X85984080Y-137317032D01*
X85959226Y-137319480D01*
X85884887Y-137326802D01*
X85789505Y-137355735D01*
X85764362Y-137369174D01*
X85740962Y-137364520D01*
X85587118Y-137364520D01*
X85436231Y-137394533D01*
X85294098Y-137453407D01*
X85166181Y-137538878D01*
X85057398Y-137647661D01*
X84971927Y-137775578D01*
X84913053Y-137917711D01*
X84883040Y-138068598D01*
X84883040Y-138222442D01*
X84913053Y-138373329D01*
X84971927Y-138515462D01*
X85057398Y-138643379D01*
X85166181Y-138752162D01*
X85294098Y-138837633D01*
X85436231Y-138896507D01*
X85587118Y-138926520D01*
X85740962Y-138926520D01*
X85891849Y-138896507D01*
X86033982Y-138837633D01*
X86161899Y-138752162D01*
X86270682Y-138643379D01*
X86356153Y-138515462D01*
X86415027Y-138373329D01*
X86423351Y-138331480D01*
X106656226Y-138331480D01*
X106617168Y-138389935D01*
X106558294Y-138532068D01*
X106534065Y-138653876D01*
X87920658Y-138653876D01*
X87895804Y-138651428D01*
X87870950Y-138653876D01*
X87796611Y-138661198D01*
X87701229Y-138690131D01*
X87613325Y-138737117D01*
X87536277Y-138800349D01*
X87520433Y-138819655D01*
X86923249Y-139416840D01*
X86780918Y-139416840D01*
X86630031Y-139446853D01*
X86487898Y-139505727D01*
X86359981Y-139591198D01*
X86251198Y-139699981D01*
X86165727Y-139827898D01*
X86117472Y-139944394D01*
X85983289Y-139888813D01*
X85832402Y-139858800D01*
X85678558Y-139858800D01*
X85527671Y-139888813D01*
X85385538Y-139947687D01*
X85257621Y-140033158D01*
X85148838Y-140141941D01*
X85063367Y-140269858D01*
X85004493Y-140411991D01*
X84974480Y-140562878D01*
X84974480Y-140716722D01*
X85004493Y-140867609D01*
X85063367Y-141009742D01*
X85148838Y-141137659D01*
X85257621Y-141246442D01*
X85385538Y-141331913D01*
X85527671Y-141390787D01*
X85678558Y-141420800D01*
X85832402Y-141420800D01*
X85895549Y-141408239D01*
X85912876Y-141413495D01*
X85939327Y-141421519D01*
X85949215Y-141422493D01*
X86013667Y-141428841D01*
X86013674Y-141428841D01*
X86038520Y-141431288D01*
X86063366Y-141428841D01*
X87180995Y-141428841D01*
X87205841Y-141431288D01*
X87230687Y-141428841D01*
X87230695Y-141428841D01*
X87305034Y-141421519D01*
X87400416Y-141392586D01*
X87488320Y-141345600D01*
X87565368Y-141282368D01*
X87581217Y-141263056D01*
X88601275Y-140242999D01*
X93524102Y-140242999D01*
X93484807Y-140301809D01*
X93425933Y-140443942D01*
X93395920Y-140594829D01*
X93395920Y-140748673D01*
X93425933Y-140899560D01*
X93484807Y-141041693D01*
X93570278Y-141169610D01*
X93671791Y-141271123D01*
X93678242Y-141336628D01*
X93707175Y-141432010D01*
X93707176Y-141432011D01*
X93754162Y-141519915D01*
X93817394Y-141596963D01*
X93836701Y-141612808D01*
X96122227Y-143898335D01*
X96138067Y-143917636D01*
X96157368Y-143933476D01*
X96157371Y-143933479D01*
X96180546Y-143952498D01*
X96215115Y-143980868D01*
X96256032Y-144002739D01*
X96303018Y-144027854D01*
X96398399Y-144056787D01*
X96418174Y-144058735D01*
X96472740Y-144064109D01*
X96472746Y-144064109D01*
X96497592Y-144066556D01*
X96522438Y-144064109D01*
X175436920Y-144064107D01*
X175277010Y-144149580D01*
X175122304Y-144276544D01*
X174995340Y-144431250D01*
X174900998Y-144607753D01*
X174842902Y-144799269D01*
X174823285Y-144998440D01*
X174842902Y-145197611D01*
X174900998Y-145389127D01*
X174995340Y-145565630D01*
X175122304Y-145720336D01*
X175277010Y-145847300D01*
X175420133Y-145923800D01*
X71449400Y-145923800D01*
X71449400Y-136114368D01*
X71451485Y-136093200D01*
X71443163Y-136008709D01*
X71418518Y-135927466D01*
X71378497Y-135852591D01*
X71324637Y-135786963D01*
X71259009Y-135733103D01*
X71184134Y-135693082D01*
X71102891Y-135668437D01*
X71039568Y-135662200D01*
X71018400Y-135660115D01*
X70997232Y-135662200D01*
X64337400Y-135662200D01*
X64337400Y-129026882D01*
X64376375Y-129058868D01*
X64529425Y-129140675D01*
X64695494Y-129191052D01*
X64824927Y-129203800D01*
X65511473Y-129203800D01*
X65640906Y-129191052D01*
X65806975Y-129140675D01*
X65960025Y-129058868D01*
X66094175Y-128948775D01*
X66204268Y-128814625D01*
X66286075Y-128661575D01*
X66336452Y-128495506D01*
X66353462Y-128322800D01*
X66336452Y-128150094D01*
X66286075Y-127984025D01*
X66204268Y-127830975D01*
X66094175Y-127696825D01*
X65960025Y-127586732D01*
X65806975Y-127504925D01*
X65640906Y-127454548D01*
X65511473Y-127441800D01*
X64824927Y-127441800D01*
X64695494Y-127454548D01*
X64529425Y-127504925D01*
X64376375Y-127586732D01*
X64337400Y-127618718D01*
X64337400Y-120386882D01*
X64376375Y-120418868D01*
X64529425Y-120500675D01*
X64695494Y-120551052D01*
X64824927Y-120563800D01*
X65511473Y-120563800D01*
X65640906Y-120551052D01*
X65806975Y-120500675D01*
X65960025Y-120418868D01*
X66094175Y-120308775D01*
X66204268Y-120174625D01*
X66286075Y-120021575D01*
X66336452Y-119855506D01*
X66353462Y-119682800D01*
X67912938Y-119682800D01*
X67929948Y-119855506D01*
X67980325Y-120021575D01*
X68062132Y-120174625D01*
X68172225Y-120308775D01*
X68306375Y-120418868D01*
X68459425Y-120500675D01*
X68482890Y-120507793D01*
X68398151Y-120564414D01*
X68299814Y-120662751D01*
X68222551Y-120778384D01*
X68169331Y-120906867D01*
X68142200Y-121043265D01*
X68142200Y-121182335D01*
X68169331Y-121318733D01*
X68222551Y-121447216D01*
X68299814Y-121562849D01*
X68398151Y-121661186D01*
X68513784Y-121738449D01*
X68642267Y-121791669D01*
X68778665Y-121818800D01*
X68917735Y-121818800D01*
X69054133Y-121791669D01*
X69182616Y-121738449D01*
X69298249Y-121661186D01*
X69396586Y-121562849D01*
X69473849Y-121447216D01*
X69527069Y-121318733D01*
X69554200Y-121182335D01*
X69554200Y-121043265D01*
X69527069Y-120906867D01*
X69473849Y-120778384D01*
X69396586Y-120662751D01*
X69298249Y-120564414D01*
X69297330Y-120563800D01*
X69941473Y-120563800D01*
X70070906Y-120551052D01*
X70236975Y-120500675D01*
X70390025Y-120418868D01*
X70524175Y-120308775D01*
X70634268Y-120174625D01*
X70716075Y-120021575D01*
X70766452Y-119855506D01*
X70783462Y-119682800D01*
X70766452Y-119510094D01*
X70716075Y-119344025D01*
X70681688Y-119279690D01*
X71558124Y-119279690D01*
X71602775Y-119426899D01*
X71727959Y-119689720D01*
X71902012Y-119923069D01*
X72118245Y-120117978D01*
X72368348Y-120266957D01*
X72530768Y-120324572D01*
X72416503Y-120371902D01*
X72214883Y-120506620D01*
X72043420Y-120678083D01*
X71908702Y-120879703D01*
X71815907Y-121103731D01*
X71768600Y-121341557D01*
X71768600Y-121584043D01*
X71815907Y-121821869D01*
X71908702Y-122045897D01*
X72043420Y-122247517D01*
X72214883Y-122418980D01*
X72416503Y-122553698D01*
X72640531Y-122646493D01*
X72878357Y-122693800D01*
X73120843Y-122693800D01*
X73358669Y-122646493D01*
X73582697Y-122553698D01*
X73784317Y-122418980D01*
X73955780Y-122247517D01*
X74090498Y-122045897D01*
X74183293Y-121821869D01*
X74230600Y-121584043D01*
X74230600Y-121341557D01*
X74183293Y-121103731D01*
X74090498Y-120879703D01*
X73955780Y-120678083D01*
X73784317Y-120506620D01*
X73582697Y-120371902D01*
X73468432Y-120324572D01*
X73630852Y-120266957D01*
X73880955Y-120117978D01*
X74097188Y-119923069D01*
X74271241Y-119689720D01*
X74396425Y-119426899D01*
X74441076Y-119279690D01*
X74319755Y-119049800D01*
X73126600Y-119049800D01*
X73126600Y-119069800D01*
X72872600Y-119069800D01*
X72872600Y-119049800D01*
X71679445Y-119049800D01*
X71558124Y-119279690D01*
X70681688Y-119279690D01*
X70634268Y-119190975D01*
X70524175Y-119056825D01*
X70390025Y-118946732D01*
X70236975Y-118864925D01*
X70070906Y-118814548D01*
X69941473Y-118801800D01*
X68754927Y-118801800D01*
X68625494Y-118814548D01*
X68459425Y-118864925D01*
X68306375Y-118946732D01*
X68172225Y-119056825D01*
X68062132Y-119190975D01*
X67980325Y-119344025D01*
X67929948Y-119510094D01*
X67912938Y-119682800D01*
X66353462Y-119682800D01*
X66336452Y-119510094D01*
X66286075Y-119344025D01*
X66204268Y-119190975D01*
X66094175Y-119056825D01*
X65960025Y-118946732D01*
X65806975Y-118864925D01*
X65640906Y-118814548D01*
X65511473Y-118801800D01*
X64824927Y-118801800D01*
X64695494Y-118814548D01*
X64529425Y-118864925D01*
X64376375Y-118946732D01*
X64337400Y-118978718D01*
X64337400Y-118565910D01*
X71558124Y-118565910D01*
X71679445Y-118795800D01*
X72872600Y-118795800D01*
X72872600Y-117601986D01*
X73126600Y-117601986D01*
X73126600Y-118795800D01*
X74319755Y-118795800D01*
X74441076Y-118565910D01*
X74396425Y-118418701D01*
X74271241Y-118155880D01*
X74097188Y-117922531D01*
X73880955Y-117727622D01*
X73630852Y-117578643D01*
X73356491Y-117481319D01*
X73126600Y-117601986D01*
X72872600Y-117601986D01*
X72642709Y-117481319D01*
X72368348Y-117578643D01*
X72118245Y-117727622D01*
X71902012Y-117922531D01*
X71727959Y-118155880D01*
X71602775Y-118418701D01*
X71558124Y-118565910D01*
X64337400Y-118565910D01*
X64337400Y-112394200D01*
X70997232Y-112394200D01*
X71018400Y-112396285D01*
X71039568Y-112394200D01*
X71102891Y-112387963D01*
X71184134Y-112363318D01*
X71259009Y-112323297D01*
X71324637Y-112269437D01*
X71378497Y-112203809D01*
X71418518Y-112128934D01*
X71443163Y-112047691D01*
X71451485Y-111963200D01*
X71449400Y-111942032D01*
X71449400Y-101827800D01*
X201194201Y-101827800D01*
X201194200Y-145923800D01*
G37*
%TD.AperFunction*%
D23*
X142142240Y-115048898D02*
X142137325Y-115098800D01*
X142156942Y-115297971D01*
X142215038Y-115489487D01*
X142257567Y-115569053D01*
X142309380Y-115665990D01*
X142436344Y-115820696D01*
X142591050Y-115947660D01*
X142767553Y-116042002D01*
X142959069Y-116100098D01*
X143158240Y-116119715D01*
X143208142Y-116114800D01*
X146151942Y-116114800D01*
X146301211Y-116100098D01*
X146492727Y-116042002D01*
X146669230Y-115947660D01*
X146823936Y-115820696D01*
X146950900Y-115665990D01*
X147045242Y-115489487D01*
X147103338Y-115297971D01*
X147122955Y-115098800D01*
X147103338Y-114899629D01*
X147045242Y-114708113D01*
X146950900Y-114531610D01*
X146823936Y-114376904D01*
X146669230Y-114249940D01*
X146492727Y-114155598D01*
X146301211Y-114097502D01*
X146151942Y-114082800D01*
X144174240Y-114082800D01*
X144174240Y-111625413D01*
X171154592Y-111625413D01*
X171250356Y-111889814D01*
X171539971Y-112030704D01*
X171851508Y-112112384D01*
X172172995Y-112131718D01*
X172492075Y-112087961D01*
X172796488Y-111982795D01*
X172970444Y-111889814D01*
X173066208Y-111625413D01*
X172110400Y-110669605D01*
X171154592Y-111625413D01*
X144174240Y-111625413D01*
X144174240Y-110552595D01*
X170468682Y-110552595D01*
X170512439Y-110871675D01*
X170617605Y-111176088D01*
X170710586Y-111350044D01*
X170974987Y-111445808D01*
X171930795Y-110490000D01*
X172290005Y-110490000D01*
X173245813Y-111445808D01*
X173510214Y-111350044D01*
X173651104Y-111060429D01*
X173732784Y-110748892D01*
X173752118Y-110427405D01*
X173708361Y-110108325D01*
X173603195Y-109803912D01*
X173510214Y-109629956D01*
X173245813Y-109534192D01*
X172290005Y-110490000D01*
X171930795Y-110490000D01*
X170974987Y-109534192D01*
X170710586Y-109629956D01*
X170569696Y-109919571D01*
X170488016Y-110231108D01*
X170468682Y-110552595D01*
X144174240Y-110552595D01*
X144174240Y-109354587D01*
X171154592Y-109354587D01*
X172110400Y-110310395D01*
X172930795Y-109490000D01*
X175727557Y-109490000D01*
X175727557Y-111490000D01*
X175734913Y-111564689D01*
X175756699Y-111636508D01*
X175792078Y-111702696D01*
X175839689Y-111760711D01*
X175897704Y-111808322D01*
X175963892Y-111843701D01*
X176035711Y-111865487D01*
X176110400Y-111872843D01*
X178110400Y-111872843D01*
X178185089Y-111865487D01*
X178256908Y-111843701D01*
X178323096Y-111808322D01*
X178381111Y-111760711D01*
X178428722Y-111702696D01*
X178464101Y-111636508D01*
X178485887Y-111564689D01*
X178493243Y-111490000D01*
X178493243Y-109490000D01*
X178485887Y-109415311D01*
X178464101Y-109343492D01*
X178428722Y-109277304D01*
X178381111Y-109219289D01*
X178323096Y-109171678D01*
X178256908Y-109136299D01*
X178185089Y-109114513D01*
X178110400Y-109107157D01*
X176110400Y-109107157D01*
X176035711Y-109114513D01*
X175963892Y-109136299D01*
X175897704Y-109171678D01*
X175839689Y-109219289D01*
X175792078Y-109277304D01*
X175756699Y-109343492D01*
X175734913Y-109415311D01*
X175727557Y-109490000D01*
X172930795Y-109490000D01*
X173066208Y-109354587D01*
X172970444Y-109090186D01*
X172680829Y-108949296D01*
X172369292Y-108867616D01*
X172047805Y-108848282D01*
X171728725Y-108892039D01*
X171424312Y-108997205D01*
X171250356Y-109090186D01*
X171154592Y-109354587D01*
X144174240Y-109354587D01*
X144174240Y-104094280D01*
X188263990Y-104094280D01*
X188198741Y-104137878D01*
X188089958Y-104246661D01*
X188063856Y-104285726D01*
X187996439Y-104321761D01*
X187919391Y-104384993D01*
X187903546Y-104404300D01*
X186510809Y-105797037D01*
X186491503Y-105812882D01*
X186428271Y-105889930D01*
X186404827Y-105933790D01*
X186381284Y-105977835D01*
X186352351Y-106073217D01*
X186342582Y-106172409D01*
X186345030Y-106197265D01*
X186345029Y-113426673D01*
X186342582Y-113451519D01*
X186345029Y-113476365D01*
X186345029Y-113476372D01*
X186352351Y-113550711D01*
X186381284Y-113646093D01*
X186428270Y-113733998D01*
X186491502Y-113811046D01*
X186510814Y-113826895D01*
X191586151Y-118902233D01*
X191586150Y-140356976D01*
X190716423Y-141226703D01*
X190668793Y-141265793D01*
X190652949Y-141285099D01*
X190235968Y-141702081D01*
X189363863Y-141702081D01*
X189439513Y-141588862D01*
X189498387Y-141446729D01*
X189528400Y-141295842D01*
X189528400Y-141141998D01*
X189498387Y-140991111D01*
X189439513Y-140848978D01*
X189354042Y-140721061D01*
X189245259Y-140612278D01*
X189117342Y-140526807D01*
X188975209Y-140467933D01*
X188824322Y-140437920D01*
X188670478Y-140437920D01*
X188519591Y-140467933D01*
X188377458Y-140526807D01*
X188249541Y-140612278D01*
X188140758Y-140721061D01*
X188055287Y-140848978D01*
X187996413Y-140991111D01*
X187966400Y-141141998D01*
X187966400Y-141252071D01*
X150979321Y-141252071D01*
X151094300Y-141137092D01*
X151113607Y-141121247D01*
X151176839Y-141044199D01*
X151223825Y-140956295D01*
X151246024Y-140883113D01*
X151252758Y-140860914D01*
X151256428Y-140823648D01*
X151260080Y-140786574D01*
X151260080Y-140786567D01*
X151262527Y-140761721D01*
X151260080Y-140736875D01*
X151260080Y-137143821D01*
X151360722Y-137043179D01*
X151446193Y-136915262D01*
X151505067Y-136773129D01*
X151535080Y-136622242D01*
X151535080Y-136468398D01*
X151505067Y-136317511D01*
X151446193Y-136175378D01*
X151360722Y-136047461D01*
X151251939Y-135938678D01*
X151124022Y-135853207D01*
X150981889Y-135794333D01*
X150831002Y-135764320D01*
X150677158Y-135764320D01*
X150526271Y-135794333D01*
X150384138Y-135853207D01*
X150256221Y-135938678D01*
X150147438Y-136047461D01*
X150061967Y-136175378D01*
X150003093Y-136317511D01*
X149973080Y-136468398D01*
X149973080Y-136622242D01*
X150003093Y-136773129D01*
X150061967Y-136915262D01*
X150147438Y-137043179D01*
X150248081Y-137143822D01*
X150248080Y-140552128D01*
X150112689Y-140687520D01*
X126660952Y-140687520D01*
X126582681Y-140609250D01*
X126582681Y-135874221D01*
X126683323Y-135773579D01*
X126768794Y-135645662D01*
X126827668Y-135503529D01*
X126857681Y-135352642D01*
X126857681Y-135198798D01*
X126827668Y-135047911D01*
X126768794Y-134905778D01*
X126683323Y-134777861D01*
X126574540Y-134669078D01*
X126446623Y-134583607D01*
X126304490Y-134524733D01*
X126153603Y-134494720D01*
X125999759Y-134494720D01*
X125848872Y-134524733D01*
X125706739Y-134583607D01*
X125578822Y-134669078D01*
X125565244Y-134682656D01*
X125446819Y-134603527D01*
X125304686Y-134544653D01*
X125153799Y-134514640D01*
X124999955Y-134514640D01*
X124857877Y-134542901D01*
X124857877Y-130317201D01*
X184449157Y-130317201D01*
X184449157Y-132517199D01*
X184461317Y-132640661D01*
X184497329Y-132759378D01*
X184555810Y-132868788D01*
X184634513Y-132964687D01*
X184730412Y-133043390D01*
X184839822Y-133101871D01*
X184958539Y-133137883D01*
X185082001Y-133150043D01*
X187281999Y-133150043D01*
X187405461Y-133137883D01*
X187524178Y-133101871D01*
X187633588Y-133043390D01*
X187729487Y-132964687D01*
X187808190Y-132868788D01*
X187866671Y-132759378D01*
X187902683Y-132640661D01*
X187914843Y-132517199D01*
X187914843Y-130317201D01*
X187902683Y-130193739D01*
X187866671Y-130075022D01*
X187808190Y-129965612D01*
X187729487Y-129869713D01*
X187633588Y-129791010D01*
X187524178Y-129732529D01*
X187405461Y-129696517D01*
X187281999Y-129684357D01*
X185082001Y-129684357D01*
X184958539Y-129696517D01*
X184839822Y-129732529D01*
X184730412Y-129791010D01*
X184634513Y-129869713D01*
X184555810Y-129965612D01*
X184497329Y-130075022D01*
X184461317Y-130193739D01*
X184449157Y-130317201D01*
X124857877Y-130317201D01*
X124857877Y-128373000D01*
X129501728Y-128373000D01*
X129513988Y-128497482D01*
X129550298Y-128617180D01*
X129609263Y-128727494D01*
X129688615Y-128824185D01*
X129785306Y-128903537D01*
X129895620Y-128962502D01*
X130015318Y-128998812D01*
X130139800Y-129011072D01*
X130369050Y-129008000D01*
X130527800Y-128849250D01*
X130527800Y-127635000D01*
X129663550Y-127635000D01*
X129504800Y-127793750D01*
X129501728Y-128373000D01*
X124857877Y-128373000D01*
X124857877Y-126643000D01*
X129501728Y-126643000D01*
X129504800Y-127222250D01*
X129663550Y-127381000D01*
X130527800Y-127381000D01*
X130527800Y-126166750D01*
X130781800Y-126166750D01*
X130781800Y-127381000D01*
X130801800Y-127381000D01*
X130801800Y-127635000D01*
X130781800Y-127635000D01*
X130781800Y-128849250D01*
X130940550Y-129008000D01*
X131169800Y-129011072D01*
X131294282Y-128998812D01*
X131413980Y-128962502D01*
X131524294Y-128903537D01*
X131599230Y-128842038D01*
X184976767Y-128842038D01*
X185114724Y-129142244D01*
X185463967Y-129318082D01*
X185840804Y-129422407D01*
X186230753Y-129451209D01*
X186618828Y-129403384D01*
X186990116Y-129280768D01*
X187249276Y-129142244D01*
X187387233Y-128842038D01*
X186182000Y-127636805D01*
X184976767Y-128842038D01*
X131599230Y-128842038D01*
X131620985Y-128824185D01*
X131700337Y-128727494D01*
X131740434Y-128652479D01*
X131810258Y-128689801D01*
X131979154Y-128741035D01*
X132154800Y-128758335D01*
X132330447Y-128741035D01*
X132499343Y-128689801D01*
X132654999Y-128606601D01*
X132791433Y-128494633D01*
X132903401Y-128358199D01*
X132904800Y-128355581D01*
X132906200Y-128358199D01*
X133018168Y-128494633D01*
X133154602Y-128606601D01*
X133310258Y-128689801D01*
X133479154Y-128741035D01*
X133654800Y-128758335D01*
X133830447Y-128741035D01*
X133999343Y-128689801D01*
X134154999Y-128606601D01*
X134291433Y-128494633D01*
X134403401Y-128358199D01*
X134486601Y-128202543D01*
X134537835Y-128033647D01*
X134550800Y-127902013D01*
X134550800Y-127505953D01*
X184187991Y-127505953D01*
X184235816Y-127894028D01*
X184358432Y-128265316D01*
X184496956Y-128524476D01*
X184797162Y-128662433D01*
X186002395Y-127457200D01*
X186361605Y-127457200D01*
X187566838Y-128662433D01*
X187867044Y-128524476D01*
X188042882Y-128175233D01*
X188147207Y-127798396D01*
X188176009Y-127408447D01*
X188128184Y-127020372D01*
X188005568Y-126649084D01*
X187867044Y-126389924D01*
X187566838Y-126251967D01*
X186361605Y-127457200D01*
X186002395Y-127457200D01*
X184797162Y-126251967D01*
X184496956Y-126389924D01*
X184321118Y-126739167D01*
X184216793Y-127116004D01*
X184187991Y-127505953D01*
X134550800Y-127505953D01*
X134550800Y-127113987D01*
X134537835Y-126982353D01*
X134486601Y-126813457D01*
X134403401Y-126657801D01*
X134291433Y-126521367D01*
X134154998Y-126409399D01*
X133999342Y-126326199D01*
X133830446Y-126274965D01*
X133654800Y-126257665D01*
X133479153Y-126274965D01*
X133310257Y-126326199D01*
X133154601Y-126409399D01*
X133018167Y-126521367D01*
X132906199Y-126657802D01*
X132904800Y-126660419D01*
X132903401Y-126657801D01*
X132791433Y-126521367D01*
X132654998Y-126409399D01*
X132499342Y-126326199D01*
X132330446Y-126274965D01*
X132154800Y-126257665D01*
X131979153Y-126274965D01*
X131810257Y-126326199D01*
X131740434Y-126363520D01*
X131700337Y-126288506D01*
X131620985Y-126191815D01*
X131524294Y-126112463D01*
X131449272Y-126072362D01*
X184976767Y-126072362D01*
X186182000Y-127277595D01*
X187387233Y-126072362D01*
X187249276Y-125772156D01*
X186900033Y-125596318D01*
X186523196Y-125491993D01*
X186133247Y-125463191D01*
X185745172Y-125511016D01*
X185373884Y-125633632D01*
X185114724Y-125772156D01*
X184976767Y-126072362D01*
X131449272Y-126072362D01*
X131413980Y-126053498D01*
X131294282Y-126017188D01*
X131169800Y-126004928D01*
X130940550Y-126008000D01*
X130781800Y-126166750D01*
X130527800Y-126166750D01*
X130369050Y-126008000D01*
X130139800Y-126004928D01*
X130015318Y-126017188D01*
X129895620Y-126053498D01*
X129785306Y-126112463D01*
X129688615Y-126191815D01*
X129609263Y-126288506D01*
X129550298Y-126398820D01*
X129513988Y-126518518D01*
X129501728Y-126643000D01*
X124857877Y-126643000D01*
X124857877Y-125150158D01*
X125959920Y-125150158D01*
X125959920Y-125304002D01*
X125989933Y-125454889D01*
X126048807Y-125597022D01*
X126134278Y-125724939D01*
X126243061Y-125833722D01*
X126370978Y-125919193D01*
X126513111Y-125978067D01*
X126663998Y-126008080D01*
X126817842Y-126008080D01*
X126968729Y-125978067D01*
X127110862Y-125919193D01*
X127238779Y-125833722D01*
X127339421Y-125733080D01*
X141839619Y-125733080D01*
X141940261Y-125833722D01*
X142068178Y-125919193D01*
X142210311Y-125978067D01*
X142361198Y-126008080D01*
X142515042Y-126008080D01*
X142665929Y-125978067D01*
X142808062Y-125919193D01*
X142935979Y-125833722D01*
X143044762Y-125724939D01*
X143130233Y-125597022D01*
X143189107Y-125454889D01*
X143219120Y-125304002D01*
X143219120Y-125150158D01*
X143189107Y-124999271D01*
X143130233Y-124857138D01*
X143044762Y-124729221D01*
X142935979Y-124620438D01*
X142808062Y-124534967D01*
X142665929Y-124476093D01*
X142515042Y-124446080D01*
X142361198Y-124446080D01*
X142210311Y-124476093D01*
X142068178Y-124534967D01*
X141940261Y-124620438D01*
X141839619Y-124721080D01*
X127339421Y-124721080D01*
X127238779Y-124620438D01*
X127110862Y-124534967D01*
X126968729Y-124476093D01*
X126817842Y-124446080D01*
X126663998Y-124446080D01*
X126513111Y-124476093D01*
X126370978Y-124534967D01*
X126243061Y-124620438D01*
X126134278Y-124729221D01*
X126048807Y-124857138D01*
X125989933Y-124999271D01*
X125959920Y-125150158D01*
X124857877Y-125150158D01*
X124857877Y-121508199D01*
X129732957Y-121508199D01*
X129732957Y-122738201D01*
X129745117Y-122861662D01*
X129781129Y-122980379D01*
X129839610Y-123089789D01*
X129918312Y-123185688D01*
X130014211Y-123264390D01*
X130123621Y-123322871D01*
X130242338Y-123358883D01*
X130365799Y-123371043D01*
X130895801Y-123371043D01*
X131019262Y-123358883D01*
X131137979Y-123322871D01*
X131247389Y-123264390D01*
X131343288Y-123185688D01*
X131421990Y-123089789D01*
X131443970Y-123048667D01*
X131494168Y-123109833D01*
X131630602Y-123221801D01*
X131786258Y-123305001D01*
X131955154Y-123356235D01*
X132130800Y-123373535D01*
X132306447Y-123356235D01*
X132475343Y-123305001D01*
X132630999Y-123221801D01*
X132767433Y-123109833D01*
X132879401Y-122973399D01*
X132880801Y-122970781D01*
X132882200Y-122973399D01*
X132994168Y-123109833D01*
X133130602Y-123221801D01*
X133286258Y-123305001D01*
X133455154Y-123356235D01*
X133630800Y-123373535D01*
X133806447Y-123356235D01*
X133975343Y-123305001D01*
X134130999Y-123221801D01*
X134267433Y-123109833D01*
X134379401Y-122973399D01*
X134380801Y-122970781D01*
X134382200Y-122973399D01*
X134494168Y-123109833D01*
X134630602Y-123221801D01*
X134786258Y-123305001D01*
X134955154Y-123356235D01*
X135130800Y-123373535D01*
X135306447Y-123356235D01*
X135475343Y-123305001D01*
X135630999Y-123221801D01*
X135767433Y-123109833D01*
X135879401Y-122973399D01*
X135962601Y-122817743D01*
X136013835Y-122648847D01*
X136026800Y-122517213D01*
X136026800Y-121729187D01*
X136013835Y-121597553D01*
X135962601Y-121428657D01*
X135879401Y-121273001D01*
X135767433Y-121136567D01*
X135630998Y-121024599D01*
X135475342Y-120941399D01*
X135306446Y-120890165D01*
X135130800Y-120872865D01*
X134955153Y-120890165D01*
X134786257Y-120941399D01*
X134630601Y-121024599D01*
X134494167Y-121136567D01*
X134382199Y-121273002D01*
X134380800Y-121275619D01*
X134379401Y-121273001D01*
X134267433Y-121136567D01*
X134130998Y-121024599D01*
X133975342Y-120941399D01*
X133806446Y-120890165D01*
X133630800Y-120872865D01*
X133455153Y-120890165D01*
X133286257Y-120941399D01*
X133130601Y-121024599D01*
X132994167Y-121136567D01*
X132882199Y-121273002D01*
X132880800Y-121275619D01*
X132879401Y-121273001D01*
X132767433Y-121136567D01*
X132630998Y-121024599D01*
X132475342Y-120941399D01*
X132306446Y-120890165D01*
X132130800Y-120872865D01*
X131955153Y-120890165D01*
X131786257Y-120941399D01*
X131630601Y-121024599D01*
X131494167Y-121136567D01*
X131443970Y-121197733D01*
X131421990Y-121156611D01*
X131343288Y-121060712D01*
X131247389Y-120982010D01*
X131137979Y-120923529D01*
X131019262Y-120887517D01*
X130895801Y-120875357D01*
X130365799Y-120875357D01*
X130242338Y-120887517D01*
X130123621Y-120923529D01*
X130014211Y-120982010D01*
X129918312Y-121060712D01*
X129839610Y-121156611D01*
X129781129Y-121266021D01*
X129745117Y-121384738D01*
X129732957Y-121508199D01*
X124857877Y-121508199D01*
X124857877Y-119397601D01*
X184449157Y-119397601D01*
X184449157Y-121597599D01*
X184461317Y-121721061D01*
X184497329Y-121839778D01*
X184555810Y-121949188D01*
X184634513Y-122045087D01*
X184730412Y-122123790D01*
X184839822Y-122182271D01*
X184958539Y-122218283D01*
X185082001Y-122230443D01*
X187281999Y-122230443D01*
X187405461Y-122218283D01*
X187524178Y-122182271D01*
X187633588Y-122123790D01*
X187729487Y-122045087D01*
X187808190Y-121949188D01*
X187866671Y-121839778D01*
X187902683Y-121721061D01*
X187914843Y-121597599D01*
X187914843Y-119397601D01*
X187902683Y-119274139D01*
X187866671Y-119155422D01*
X187808190Y-119046012D01*
X187729487Y-118950113D01*
X187633588Y-118871410D01*
X187524178Y-118812929D01*
X187405461Y-118776917D01*
X187281999Y-118764757D01*
X185082001Y-118764757D01*
X184958539Y-118776917D01*
X184839822Y-118812929D01*
X184730412Y-118871410D01*
X184634513Y-118950113D01*
X184555810Y-119046012D01*
X184497329Y-119155422D01*
X184461317Y-119274139D01*
X184449157Y-119397601D01*
X124857877Y-119397601D01*
X124857877Y-116326599D01*
X129708957Y-116326599D01*
X129708957Y-117556601D01*
X129721117Y-117680062D01*
X129757129Y-117798779D01*
X129815610Y-117908189D01*
X129894312Y-118004088D01*
X129990211Y-118082790D01*
X130099621Y-118141271D01*
X130218338Y-118177283D01*
X130341799Y-118189443D01*
X130871801Y-118189443D01*
X130995262Y-118177283D01*
X131113979Y-118141271D01*
X131223389Y-118082790D01*
X131319288Y-118004088D01*
X131397990Y-117908189D01*
X131419970Y-117867067D01*
X131470168Y-117928233D01*
X131606602Y-118040201D01*
X131762258Y-118123401D01*
X131931154Y-118174635D01*
X132106800Y-118191935D01*
X132282447Y-118174635D01*
X132451343Y-118123401D01*
X132606999Y-118040201D01*
X132743433Y-117928233D01*
X132855401Y-117791799D01*
X132856801Y-117789181D01*
X132858200Y-117791799D01*
X132970168Y-117928233D01*
X133106602Y-118040201D01*
X133262258Y-118123401D01*
X133431154Y-118174635D01*
X133606800Y-118191935D01*
X133782447Y-118174635D01*
X133951343Y-118123401D01*
X134106999Y-118040201D01*
X134243433Y-117928233D01*
X134355401Y-117791799D01*
X134356801Y-117789181D01*
X134358200Y-117791799D01*
X134470168Y-117928233D01*
X134606602Y-118040201D01*
X134762258Y-118123401D01*
X134931154Y-118174635D01*
X135106800Y-118191935D01*
X135282447Y-118174635D01*
X135451343Y-118123401D01*
X135606999Y-118040201D01*
X135743433Y-117928233D01*
X135855401Y-117791799D01*
X135938601Y-117636143D01*
X135989835Y-117467247D01*
X136002800Y-117335613D01*
X136002800Y-116547587D01*
X135989835Y-116415953D01*
X135975019Y-116367111D01*
X184451000Y-116367111D01*
X184451000Y-116708089D01*
X184517521Y-117042514D01*
X184648007Y-117357536D01*
X184837444Y-117641048D01*
X185078552Y-117882156D01*
X185362064Y-118071593D01*
X185677086Y-118202079D01*
X186011511Y-118268600D01*
X186352489Y-118268600D01*
X186686914Y-118202079D01*
X187001936Y-118071593D01*
X187285448Y-117882156D01*
X187526556Y-117641048D01*
X187715993Y-117357536D01*
X187846479Y-117042514D01*
X187913000Y-116708089D01*
X187913000Y-116367111D01*
X187846479Y-116032686D01*
X187715993Y-115717664D01*
X187526556Y-115434152D01*
X187285448Y-115193044D01*
X187001936Y-115003607D01*
X186686914Y-114873121D01*
X186352489Y-114806600D01*
X186011511Y-114806600D01*
X185677086Y-114873121D01*
X185362064Y-115003607D01*
X185078552Y-115193044D01*
X184837444Y-115434152D01*
X184648007Y-115717664D01*
X184517521Y-116032686D01*
X184451000Y-116367111D01*
X135975019Y-116367111D01*
X135938601Y-116247057D01*
X135855401Y-116091401D01*
X135743433Y-115954967D01*
X135606998Y-115842999D01*
X135451342Y-115759799D01*
X135282446Y-115708565D01*
X135106800Y-115691265D01*
X134931153Y-115708565D01*
X134762257Y-115759799D01*
X134606601Y-115842999D01*
X134470167Y-115954967D01*
X134358199Y-116091402D01*
X134356800Y-116094019D01*
X134355401Y-116091401D01*
X134243433Y-115954967D01*
X134106998Y-115842999D01*
X133951342Y-115759799D01*
X133782446Y-115708565D01*
X133606800Y-115691265D01*
X133431153Y-115708565D01*
X133262257Y-115759799D01*
X133106601Y-115842999D01*
X132970167Y-115954967D01*
X132858199Y-116091402D01*
X132856800Y-116094019D01*
X132855401Y-116091401D01*
X132743433Y-115954967D01*
X132606998Y-115842999D01*
X132451342Y-115759799D01*
X132282446Y-115708565D01*
X132106800Y-115691265D01*
X131931153Y-115708565D01*
X131762257Y-115759799D01*
X131606601Y-115842999D01*
X131470167Y-115954967D01*
X131419970Y-116016133D01*
X131397990Y-115975011D01*
X131319288Y-115879112D01*
X131223389Y-115800410D01*
X131113979Y-115741929D01*
X130995262Y-115705917D01*
X130871801Y-115693757D01*
X130341799Y-115693757D01*
X130218338Y-115705917D01*
X130099621Y-115741929D01*
X129990211Y-115800410D01*
X129894312Y-115879112D01*
X129815610Y-115975011D01*
X129757129Y-116084421D01*
X129721117Y-116203138D01*
X129708957Y-116326599D01*
X124857877Y-116326599D01*
X124857877Y-111937251D01*
X129658157Y-111937251D01*
X129658157Y-112273401D01*
X129670317Y-112396862D01*
X129706329Y-112515579D01*
X129764810Y-112624989D01*
X129843512Y-112720888D01*
X129939411Y-112799590D01*
X130048821Y-112858071D01*
X130167538Y-112894083D01*
X130290999Y-112906243D01*
X130821001Y-112906243D01*
X130944462Y-112894083D01*
X131063179Y-112858071D01*
X131172589Y-112799590D01*
X131268488Y-112720888D01*
X131347190Y-112624989D01*
X131369170Y-112583867D01*
X131419368Y-112645033D01*
X131555802Y-112757001D01*
X131711458Y-112840201D01*
X131880354Y-112891435D01*
X132056000Y-112908735D01*
X132231647Y-112891435D01*
X132400543Y-112840201D01*
X132556199Y-112757001D01*
X132692633Y-112645033D01*
X132804601Y-112508599D01*
X132806001Y-112505981D01*
X132807400Y-112508599D01*
X132919368Y-112645033D01*
X133055802Y-112757001D01*
X133211458Y-112840201D01*
X133380354Y-112891435D01*
X133556000Y-112908735D01*
X133731647Y-112891435D01*
X133900543Y-112840201D01*
X134056199Y-112757001D01*
X134131064Y-112695561D01*
X134170367Y-112752903D01*
X134332630Y-112911376D01*
X134522691Y-113035148D01*
X134751764Y-113117427D01*
X134929000Y-112991481D01*
X134929000Y-111785400D01*
X135183000Y-111785400D01*
X135183000Y-112991481D01*
X135360236Y-113117427D01*
X135589309Y-113035148D01*
X135779370Y-112911376D01*
X135941633Y-112752903D01*
X136069861Y-112565819D01*
X136159127Y-112357314D01*
X136206000Y-112135400D01*
X136206000Y-111785400D01*
X135183000Y-111785400D01*
X134929000Y-111785400D01*
X134909000Y-111785400D01*
X134909000Y-111531400D01*
X134929000Y-111531400D01*
X134929000Y-110325319D01*
X135183000Y-110325319D01*
X135183000Y-111531400D01*
X136206000Y-111531400D01*
X136206000Y-111181400D01*
X136159127Y-110959486D01*
X136069861Y-110750981D01*
X135941633Y-110563897D01*
X135779370Y-110405424D01*
X135589309Y-110281652D01*
X135360236Y-110199373D01*
X135183000Y-110325319D01*
X134929000Y-110325319D01*
X134751764Y-110199373D01*
X134522691Y-110281652D01*
X134332630Y-110405424D01*
X134170367Y-110563897D01*
X134131064Y-110621239D01*
X134056198Y-110559799D01*
X133900542Y-110476599D01*
X133731646Y-110425365D01*
X133556000Y-110408065D01*
X133380353Y-110425365D01*
X133211457Y-110476599D01*
X133055801Y-110559799D01*
X132919367Y-110671767D01*
X132807399Y-110808202D01*
X132806000Y-110810819D01*
X132804601Y-110808201D01*
X132692633Y-110671767D01*
X132556198Y-110559799D01*
X132400542Y-110476599D01*
X132231646Y-110425365D01*
X132056000Y-110408065D01*
X131880353Y-110425365D01*
X131711457Y-110476599D01*
X131555801Y-110559799D01*
X131419367Y-110671767D01*
X131369170Y-110732933D01*
X131347190Y-110691811D01*
X131268488Y-110595912D01*
X131172589Y-110517210D01*
X131063179Y-110458729D01*
X130944462Y-110422717D01*
X130821001Y-110410557D01*
X130290999Y-110410557D01*
X130167538Y-110422717D01*
X130048821Y-110458729D01*
X129939411Y-110517210D01*
X129843512Y-110595912D01*
X129764810Y-110691811D01*
X129706329Y-110801221D01*
X129670317Y-110919938D01*
X129669794Y-110925251D01*
X127228393Y-110925251D01*
X127278547Y-110804169D01*
X127308560Y-110653282D01*
X127308560Y-110499438D01*
X127278547Y-110348551D01*
X127219673Y-110206418D01*
X127134202Y-110078501D01*
X127033560Y-109977859D01*
X127033560Y-109624723D01*
X127036007Y-109599877D01*
X127033560Y-109575031D01*
X127033560Y-109575024D01*
X127026238Y-109500685D01*
X127019466Y-109478358D01*
X126997305Y-109405303D01*
X126988344Y-109388538D01*
X126950319Y-109317399D01*
X126887087Y-109240351D01*
X126867780Y-109224506D01*
X126336537Y-108693264D01*
X126320688Y-108673952D01*
X126243640Y-108610720D01*
X126155736Y-108563734D01*
X126060354Y-108534801D01*
X125986015Y-108527479D01*
X125986007Y-108527479D01*
X125961161Y-108525032D01*
X125936315Y-108527479D01*
X96958556Y-108527479D01*
X96933710Y-108525032D01*
X96908864Y-108527479D01*
X96908857Y-108527479D01*
X96844405Y-108533827D01*
X96834517Y-108534801D01*
X96812318Y-108541535D01*
X96739136Y-108563734D01*
X96651232Y-108610720D01*
X96574184Y-108673952D01*
X96558339Y-108693259D01*
X95211611Y-110039987D01*
X95192305Y-110055832D01*
X95129073Y-110132880D01*
X95113550Y-110161922D01*
X95082086Y-110220785D01*
X95053153Y-110316167D01*
X95043384Y-110415359D01*
X95045832Y-110440215D01*
X95045830Y-121177008D01*
X94447500Y-121775339D01*
X94428194Y-121791183D01*
X94364962Y-121868231D01*
X94350445Y-121895391D01*
X94317975Y-121956136D01*
X94289042Y-122051518D01*
X94279273Y-122150710D01*
X94281721Y-122175566D01*
X94281720Y-122845499D01*
X94181078Y-122946141D01*
X94095607Y-123074058D01*
X94036733Y-123216191D01*
X94006720Y-123367078D01*
X94006720Y-123520922D01*
X94034981Y-123663001D01*
X93837633Y-123663001D01*
X92261640Y-122087009D01*
X92261640Y-122005638D01*
X92231627Y-121854751D01*
X92172753Y-121712618D01*
X92087282Y-121584701D01*
X91978499Y-121475918D01*
X91850582Y-121390447D01*
X91708449Y-121331573D01*
X91557562Y-121301560D01*
X91403718Y-121301560D01*
X91252831Y-121331573D01*
X91110698Y-121390447D01*
X90982781Y-121475918D01*
X90873998Y-121584701D01*
X90788527Y-121712618D01*
X90729653Y-121854751D01*
X90699640Y-122005638D01*
X90699640Y-122159482D01*
X90729653Y-122310369D01*
X90788527Y-122452502D01*
X90873998Y-122580419D01*
X90982781Y-122689202D01*
X91110698Y-122774673D01*
X91252831Y-122833547D01*
X91403718Y-122863560D01*
X91557562Y-122863560D01*
X91598805Y-122855356D01*
X93252669Y-124509221D01*
X93268514Y-124528528D01*
X93345562Y-124591760D01*
X93407132Y-124624670D01*
X93433466Y-124638746D01*
X93528847Y-124667679D01*
X93536716Y-124668454D01*
X93603187Y-124675001D01*
X93603194Y-124675001D01*
X93628040Y-124677448D01*
X93652886Y-124675001D01*
X97004930Y-124675001D01*
X97079168Y-124749239D01*
X96984043Y-124812799D01*
X96875260Y-124921582D01*
X96789789Y-125049499D01*
X96730915Y-125191632D01*
X96713276Y-125280311D01*
X96638164Y-125280311D01*
X96487277Y-125310324D01*
X96345144Y-125369198D01*
X96217227Y-125454669D01*
X96116585Y-125555311D01*
X95111175Y-125555311D01*
X95086329Y-125552864D01*
X95061483Y-125555311D01*
X95061475Y-125555311D01*
X94987136Y-125562633D01*
X94891754Y-125591566D01*
X94803850Y-125638552D01*
X94726802Y-125701784D01*
X94710953Y-125721096D01*
X94569425Y-125862624D01*
X94550113Y-125878473D01*
X94486881Y-125955521D01*
X94439895Y-126043426D01*
X94410962Y-126138808D01*
X94403640Y-126213147D01*
X94403640Y-126213154D01*
X94401193Y-126238000D01*
X94403640Y-126262846D01*
X94403641Y-128872129D01*
X93523526Y-127992015D01*
X93560482Y-127955059D01*
X93645953Y-127827142D01*
X93704827Y-127685009D01*
X93734840Y-127534122D01*
X93734840Y-127380278D01*
X93704827Y-127229391D01*
X93645953Y-127087258D01*
X93560482Y-126959341D01*
X93451699Y-126850558D01*
X93323782Y-126765087D01*
X93181649Y-126706213D01*
X93030762Y-126676200D01*
X92876918Y-126676200D01*
X92726031Y-126706213D01*
X92583898Y-126765087D01*
X92455981Y-126850558D01*
X92347198Y-126959341D01*
X92261727Y-127087258D01*
X92202853Y-127229391D01*
X92172840Y-127380278D01*
X92172840Y-127530728D01*
X92032360Y-127390248D01*
X92032360Y-126955591D01*
X92451552Y-126536400D01*
X92593882Y-126536400D01*
X92744769Y-126506387D01*
X92886902Y-126447513D01*
X93014819Y-126362042D01*
X93123602Y-126253259D01*
X93209073Y-126125342D01*
X93267947Y-125983209D01*
X93297960Y-125832322D01*
X93297960Y-125678478D01*
X93267947Y-125527591D01*
X93209073Y-125385458D01*
X93123602Y-125257541D01*
X93014819Y-125148758D01*
X92886902Y-125063287D01*
X92744769Y-125004413D01*
X92593882Y-124974400D01*
X92440038Y-124974400D01*
X92289151Y-125004413D01*
X92147018Y-125063287D01*
X92019101Y-125148758D01*
X91910318Y-125257541D01*
X91824847Y-125385458D01*
X91765973Y-125527591D01*
X91735960Y-125678478D01*
X91735960Y-125820808D01*
X91186145Y-126370624D01*
X91166833Y-126386473D01*
X91103601Y-126463521D01*
X91056615Y-126551426D01*
X91027682Y-126646808D01*
X91020360Y-126721147D01*
X91020360Y-126721154D01*
X91017913Y-126746000D01*
X91020360Y-126770847D01*
X91020361Y-127574983D01*
X91017913Y-127599839D01*
X91027682Y-127699031D01*
X91056615Y-127794413D01*
X91056616Y-127794414D01*
X91103602Y-127882318D01*
X91166834Y-127959366D01*
X91186141Y-127975211D01*
X92740896Y-129529967D01*
X92715978Y-129540288D01*
X92618999Y-129605087D01*
X92585258Y-129571346D01*
X92457341Y-129485875D01*
X92315208Y-129427001D01*
X92164321Y-129396988D01*
X92010477Y-129396988D01*
X91859590Y-129427001D01*
X91717457Y-129485875D01*
X91589540Y-129571346D01*
X91480757Y-129680129D01*
X91395286Y-129808046D01*
X91336412Y-129950179D01*
X91306399Y-130101066D01*
X91306399Y-130254910D01*
X91336412Y-130405797D01*
X91395286Y-130547930D01*
X91480757Y-130675847D01*
X91581399Y-130776489D01*
X91581400Y-134082149D01*
X91494982Y-134024407D01*
X91352849Y-133965533D01*
X91244961Y-133944073D01*
X91146105Y-133845217D01*
X91126343Y-133821137D01*
X91030261Y-133742284D01*
X90920642Y-133683691D01*
X90801698Y-133647610D01*
X90708998Y-133638480D01*
X90708990Y-133638480D01*
X90678000Y-133635428D01*
X90647010Y-133638480D01*
X88071085Y-133638480D01*
X87979622Y-133577367D01*
X87837489Y-133518493D01*
X87729602Y-133497033D01*
X85662637Y-131430069D01*
X85639383Y-131401734D01*
X85639381Y-131401732D01*
X85619623Y-131377657D01*
X85595547Y-131357898D01*
X82586305Y-128348657D01*
X82566543Y-128324577D01*
X82470461Y-128245724D01*
X82360842Y-128187131D01*
X82241898Y-128151050D01*
X82149198Y-128141920D01*
X82149190Y-128141920D01*
X82118200Y-128138868D01*
X82087210Y-128141920D01*
X78496160Y-128141920D01*
X78496160Y-120435918D01*
X82363360Y-120435918D01*
X82363360Y-120589762D01*
X82393373Y-120740649D01*
X82452247Y-120882782D01*
X82513360Y-120974245D01*
X82513361Y-123120639D01*
X82469573Y-123226351D01*
X82439560Y-123377238D01*
X82439560Y-123531082D01*
X82469573Y-123681969D01*
X82528447Y-123824102D01*
X82613918Y-123952019D01*
X82722701Y-124060802D01*
X82850618Y-124146273D01*
X82992751Y-124205147D01*
X83143638Y-124235160D01*
X83297482Y-124235160D01*
X83448369Y-124205147D01*
X83590502Y-124146273D01*
X83718419Y-124060802D01*
X83827202Y-123952019D01*
X83912673Y-123824102D01*
X83971547Y-123681969D01*
X84001560Y-123531082D01*
X84001560Y-123377238D01*
X83971547Y-123226351D01*
X83912673Y-123084218D01*
X83827202Y-122956301D01*
X83775360Y-122904459D01*
X83775360Y-120974245D01*
X83836473Y-120882782D01*
X83895347Y-120740649D01*
X83925360Y-120589762D01*
X83925360Y-120435918D01*
X83895347Y-120285031D01*
X83836473Y-120142898D01*
X83751002Y-120014981D01*
X83642219Y-119906198D01*
X83514302Y-119820727D01*
X83372169Y-119761853D01*
X83221282Y-119731840D01*
X83067438Y-119731840D01*
X82916551Y-119761853D01*
X82774418Y-119820727D01*
X82646501Y-119906198D01*
X82537718Y-120014981D01*
X82452247Y-120142898D01*
X82393373Y-120285031D01*
X82363360Y-120435918D01*
X78496160Y-120435918D01*
X78496160Y-116947760D01*
X93472875Y-116947760D01*
X93564338Y-117008873D01*
X93706471Y-117067747D01*
X93857358Y-117097760D01*
X94011202Y-117097760D01*
X94162089Y-117067747D01*
X94304222Y-117008873D01*
X94432139Y-116923402D01*
X94540922Y-116814619D01*
X94626393Y-116686702D01*
X94685267Y-116544569D01*
X94715280Y-116393682D01*
X94715280Y-116239838D01*
X94685267Y-116088951D01*
X94626393Y-115946818D01*
X94540922Y-115818901D01*
X94432139Y-115710118D01*
X94304222Y-115624647D01*
X94162089Y-115565773D01*
X94011202Y-115535760D01*
X93857358Y-115535760D01*
X93706471Y-115565773D01*
X93564338Y-115624647D01*
X93472875Y-115685760D01*
X86004157Y-115685760D01*
X86145742Y-115627113D01*
X86273659Y-115541642D01*
X86382442Y-115432859D01*
X86467913Y-115304942D01*
X86526787Y-115162809D01*
X86556800Y-115011922D01*
X86556800Y-114905966D01*
X95746887Y-105715880D01*
X132938010Y-105715880D01*
X132969000Y-105718932D01*
X132999990Y-105715880D01*
X132999998Y-105715880D01*
X133092698Y-105706750D01*
X133211642Y-105670669D01*
X133321261Y-105612076D01*
X133417343Y-105533223D01*
X133437105Y-105509143D01*
X133683282Y-105262967D01*
X133791169Y-105241507D01*
X133933302Y-105182633D01*
X134061219Y-105097162D01*
X134170002Y-104988379D01*
X134255473Y-104860462D01*
X134314347Y-104718329D01*
X134344360Y-104567442D01*
X134344360Y-104413598D01*
X134314347Y-104262711D01*
X134255473Y-104120578D01*
X134237901Y-104094280D01*
X142142241Y-104094280D01*
X142142240Y-115048898D01*
%TA.AperFunction,Conductor*%
D24*
G36*
X142142240Y-115048898D02*
G01*
X142137325Y-115098800D01*
X142156942Y-115297971D01*
X142215038Y-115489487D01*
X142257567Y-115569053D01*
X142309380Y-115665990D01*
X142436344Y-115820696D01*
X142591050Y-115947660D01*
X142767553Y-116042002D01*
X142959069Y-116100098D01*
X143158240Y-116119715D01*
X143208142Y-116114800D01*
X146151942Y-116114800D01*
X146301211Y-116100098D01*
X146492727Y-116042002D01*
X146669230Y-115947660D01*
X146823936Y-115820696D01*
X146950900Y-115665990D01*
X147045242Y-115489487D01*
X147103338Y-115297971D01*
X147122955Y-115098800D01*
X147103338Y-114899629D01*
X147045242Y-114708113D01*
X146950900Y-114531610D01*
X146823936Y-114376904D01*
X146669230Y-114249940D01*
X146492727Y-114155598D01*
X146301211Y-114097502D01*
X146151942Y-114082800D01*
X144174240Y-114082800D01*
X144174240Y-111625413D01*
X171154592Y-111625413D01*
X171250356Y-111889814D01*
X171539971Y-112030704D01*
X171851508Y-112112384D01*
X172172995Y-112131718D01*
X172492075Y-112087961D01*
X172796488Y-111982795D01*
X172970444Y-111889814D01*
X173066208Y-111625413D01*
X172110400Y-110669605D01*
X171154592Y-111625413D01*
X144174240Y-111625413D01*
X144174240Y-110552595D01*
X170468682Y-110552595D01*
X170512439Y-110871675D01*
X170617605Y-111176088D01*
X170710586Y-111350044D01*
X170974987Y-111445808D01*
X171930795Y-110490000D01*
X172290005Y-110490000D01*
X173245813Y-111445808D01*
X173510214Y-111350044D01*
X173651104Y-111060429D01*
X173732784Y-110748892D01*
X173752118Y-110427405D01*
X173708361Y-110108325D01*
X173603195Y-109803912D01*
X173510214Y-109629956D01*
X173245813Y-109534192D01*
X172290005Y-110490000D01*
X171930795Y-110490000D01*
X170974987Y-109534192D01*
X170710586Y-109629956D01*
X170569696Y-109919571D01*
X170488016Y-110231108D01*
X170468682Y-110552595D01*
X144174240Y-110552595D01*
X144174240Y-109354587D01*
X171154592Y-109354587D01*
X172110400Y-110310395D01*
X172930795Y-109490000D01*
X175727557Y-109490000D01*
X175727557Y-111490000D01*
X175734913Y-111564689D01*
X175756699Y-111636508D01*
X175792078Y-111702696D01*
X175839689Y-111760711D01*
X175897704Y-111808322D01*
X175963892Y-111843701D01*
X176035711Y-111865487D01*
X176110400Y-111872843D01*
X178110400Y-111872843D01*
X178185089Y-111865487D01*
X178256908Y-111843701D01*
X178323096Y-111808322D01*
X178381111Y-111760711D01*
X178428722Y-111702696D01*
X178464101Y-111636508D01*
X178485887Y-111564689D01*
X178493243Y-111490000D01*
X178493243Y-109490000D01*
X178485887Y-109415311D01*
X178464101Y-109343492D01*
X178428722Y-109277304D01*
X178381111Y-109219289D01*
X178323096Y-109171678D01*
X178256908Y-109136299D01*
X178185089Y-109114513D01*
X178110400Y-109107157D01*
X176110400Y-109107157D01*
X176035711Y-109114513D01*
X175963892Y-109136299D01*
X175897704Y-109171678D01*
X175839689Y-109219289D01*
X175792078Y-109277304D01*
X175756699Y-109343492D01*
X175734913Y-109415311D01*
X175727557Y-109490000D01*
X172930795Y-109490000D01*
X173066208Y-109354587D01*
X172970444Y-109090186D01*
X172680829Y-108949296D01*
X172369292Y-108867616D01*
X172047805Y-108848282D01*
X171728725Y-108892039D01*
X171424312Y-108997205D01*
X171250356Y-109090186D01*
X171154592Y-109354587D01*
X144174240Y-109354587D01*
X144174240Y-104094280D01*
X188263990Y-104094280D01*
X188198741Y-104137878D01*
X188089958Y-104246661D01*
X188063856Y-104285726D01*
X187996439Y-104321761D01*
X187919391Y-104384993D01*
X187903546Y-104404300D01*
X186510809Y-105797037D01*
X186491503Y-105812882D01*
X186428271Y-105889930D01*
X186404827Y-105933790D01*
X186381284Y-105977835D01*
X186352351Y-106073217D01*
X186342582Y-106172409D01*
X186345030Y-106197265D01*
X186345029Y-113426673D01*
X186342582Y-113451519D01*
X186345029Y-113476365D01*
X186345029Y-113476372D01*
X186352351Y-113550711D01*
X186381284Y-113646093D01*
X186428270Y-113733998D01*
X186491502Y-113811046D01*
X186510814Y-113826895D01*
X191586151Y-118902233D01*
X191586150Y-140356976D01*
X190716423Y-141226703D01*
X190668793Y-141265793D01*
X190652949Y-141285099D01*
X190235968Y-141702081D01*
X189363863Y-141702081D01*
X189439513Y-141588862D01*
X189498387Y-141446729D01*
X189528400Y-141295842D01*
X189528400Y-141141998D01*
X189498387Y-140991111D01*
X189439513Y-140848978D01*
X189354042Y-140721061D01*
X189245259Y-140612278D01*
X189117342Y-140526807D01*
X188975209Y-140467933D01*
X188824322Y-140437920D01*
X188670478Y-140437920D01*
X188519591Y-140467933D01*
X188377458Y-140526807D01*
X188249541Y-140612278D01*
X188140758Y-140721061D01*
X188055287Y-140848978D01*
X187996413Y-140991111D01*
X187966400Y-141141998D01*
X187966400Y-141252071D01*
X150979321Y-141252071D01*
X151094300Y-141137092D01*
X151113607Y-141121247D01*
X151176839Y-141044199D01*
X151223825Y-140956295D01*
X151246024Y-140883113D01*
X151252758Y-140860914D01*
X151256428Y-140823648D01*
X151260080Y-140786574D01*
X151260080Y-140786567D01*
X151262527Y-140761721D01*
X151260080Y-140736875D01*
X151260080Y-137143821D01*
X151360722Y-137043179D01*
X151446193Y-136915262D01*
X151505067Y-136773129D01*
X151535080Y-136622242D01*
X151535080Y-136468398D01*
X151505067Y-136317511D01*
X151446193Y-136175378D01*
X151360722Y-136047461D01*
X151251939Y-135938678D01*
X151124022Y-135853207D01*
X150981889Y-135794333D01*
X150831002Y-135764320D01*
X150677158Y-135764320D01*
X150526271Y-135794333D01*
X150384138Y-135853207D01*
X150256221Y-135938678D01*
X150147438Y-136047461D01*
X150061967Y-136175378D01*
X150003093Y-136317511D01*
X149973080Y-136468398D01*
X149973080Y-136622242D01*
X150003093Y-136773129D01*
X150061967Y-136915262D01*
X150147438Y-137043179D01*
X150248081Y-137143822D01*
X150248080Y-140552128D01*
X150112689Y-140687520D01*
X126660952Y-140687520D01*
X126582681Y-140609250D01*
X126582681Y-135874221D01*
X126683323Y-135773579D01*
X126768794Y-135645662D01*
X126827668Y-135503529D01*
X126857681Y-135352642D01*
X126857681Y-135198798D01*
X126827668Y-135047911D01*
X126768794Y-134905778D01*
X126683323Y-134777861D01*
X126574540Y-134669078D01*
X126446623Y-134583607D01*
X126304490Y-134524733D01*
X126153603Y-134494720D01*
X125999759Y-134494720D01*
X125848872Y-134524733D01*
X125706739Y-134583607D01*
X125578822Y-134669078D01*
X125565244Y-134682656D01*
X125446819Y-134603527D01*
X125304686Y-134544653D01*
X125153799Y-134514640D01*
X124999955Y-134514640D01*
X124857877Y-134542901D01*
X124857877Y-130317201D01*
X184449157Y-130317201D01*
X184449157Y-132517199D01*
X184461317Y-132640661D01*
X184497329Y-132759378D01*
X184555810Y-132868788D01*
X184634513Y-132964687D01*
X184730412Y-133043390D01*
X184839822Y-133101871D01*
X184958539Y-133137883D01*
X185082001Y-133150043D01*
X187281999Y-133150043D01*
X187405461Y-133137883D01*
X187524178Y-133101871D01*
X187633588Y-133043390D01*
X187729487Y-132964687D01*
X187808190Y-132868788D01*
X187866671Y-132759378D01*
X187902683Y-132640661D01*
X187914843Y-132517199D01*
X187914843Y-130317201D01*
X187902683Y-130193739D01*
X187866671Y-130075022D01*
X187808190Y-129965612D01*
X187729487Y-129869713D01*
X187633588Y-129791010D01*
X187524178Y-129732529D01*
X187405461Y-129696517D01*
X187281999Y-129684357D01*
X185082001Y-129684357D01*
X184958539Y-129696517D01*
X184839822Y-129732529D01*
X184730412Y-129791010D01*
X184634513Y-129869713D01*
X184555810Y-129965612D01*
X184497329Y-130075022D01*
X184461317Y-130193739D01*
X184449157Y-130317201D01*
X124857877Y-130317201D01*
X124857877Y-128373000D01*
X129501728Y-128373000D01*
X129513988Y-128497482D01*
X129550298Y-128617180D01*
X129609263Y-128727494D01*
X129688615Y-128824185D01*
X129785306Y-128903537D01*
X129895620Y-128962502D01*
X130015318Y-128998812D01*
X130139800Y-129011072D01*
X130369050Y-129008000D01*
X130527800Y-128849250D01*
X130527800Y-127635000D01*
X129663550Y-127635000D01*
X129504800Y-127793750D01*
X129501728Y-128373000D01*
X124857877Y-128373000D01*
X124857877Y-126643000D01*
X129501728Y-126643000D01*
X129504800Y-127222250D01*
X129663550Y-127381000D01*
X130527800Y-127381000D01*
X130527800Y-126166750D01*
X130781800Y-126166750D01*
X130781800Y-127381000D01*
X130801800Y-127381000D01*
X130801800Y-127635000D01*
X130781800Y-127635000D01*
X130781800Y-128849250D01*
X130940550Y-129008000D01*
X131169800Y-129011072D01*
X131294282Y-128998812D01*
X131413980Y-128962502D01*
X131524294Y-128903537D01*
X131599230Y-128842038D01*
X184976767Y-128842038D01*
X185114724Y-129142244D01*
X185463967Y-129318082D01*
X185840804Y-129422407D01*
X186230753Y-129451209D01*
X186618828Y-129403384D01*
X186990116Y-129280768D01*
X187249276Y-129142244D01*
X187387233Y-128842038D01*
X186182000Y-127636805D01*
X184976767Y-128842038D01*
X131599230Y-128842038D01*
X131620985Y-128824185D01*
X131700337Y-128727494D01*
X131740434Y-128652479D01*
X131810258Y-128689801D01*
X131979154Y-128741035D01*
X132154800Y-128758335D01*
X132330447Y-128741035D01*
X132499343Y-128689801D01*
X132654999Y-128606601D01*
X132791433Y-128494633D01*
X132903401Y-128358199D01*
X132904800Y-128355581D01*
X132906200Y-128358199D01*
X133018168Y-128494633D01*
X133154602Y-128606601D01*
X133310258Y-128689801D01*
X133479154Y-128741035D01*
X133654800Y-128758335D01*
X133830447Y-128741035D01*
X133999343Y-128689801D01*
X134154999Y-128606601D01*
X134291433Y-128494633D01*
X134403401Y-128358199D01*
X134486601Y-128202543D01*
X134537835Y-128033647D01*
X134550800Y-127902013D01*
X134550800Y-127505953D01*
X184187991Y-127505953D01*
X184235816Y-127894028D01*
X184358432Y-128265316D01*
X184496956Y-128524476D01*
X184797162Y-128662433D01*
X186002395Y-127457200D01*
X186361605Y-127457200D01*
X187566838Y-128662433D01*
X187867044Y-128524476D01*
X188042882Y-128175233D01*
X188147207Y-127798396D01*
X188176009Y-127408447D01*
X188128184Y-127020372D01*
X188005568Y-126649084D01*
X187867044Y-126389924D01*
X187566838Y-126251967D01*
X186361605Y-127457200D01*
X186002395Y-127457200D01*
X184797162Y-126251967D01*
X184496956Y-126389924D01*
X184321118Y-126739167D01*
X184216793Y-127116004D01*
X184187991Y-127505953D01*
X134550800Y-127505953D01*
X134550800Y-127113987D01*
X134537835Y-126982353D01*
X134486601Y-126813457D01*
X134403401Y-126657801D01*
X134291433Y-126521367D01*
X134154998Y-126409399D01*
X133999342Y-126326199D01*
X133830446Y-126274965D01*
X133654800Y-126257665D01*
X133479153Y-126274965D01*
X133310257Y-126326199D01*
X133154601Y-126409399D01*
X133018167Y-126521367D01*
X132906199Y-126657802D01*
X132904800Y-126660419D01*
X132903401Y-126657801D01*
X132791433Y-126521367D01*
X132654998Y-126409399D01*
X132499342Y-126326199D01*
X132330446Y-126274965D01*
X132154800Y-126257665D01*
X131979153Y-126274965D01*
X131810257Y-126326199D01*
X131740434Y-126363520D01*
X131700337Y-126288506D01*
X131620985Y-126191815D01*
X131524294Y-126112463D01*
X131449272Y-126072362D01*
X184976767Y-126072362D01*
X186182000Y-127277595D01*
X187387233Y-126072362D01*
X187249276Y-125772156D01*
X186900033Y-125596318D01*
X186523196Y-125491993D01*
X186133247Y-125463191D01*
X185745172Y-125511016D01*
X185373884Y-125633632D01*
X185114724Y-125772156D01*
X184976767Y-126072362D01*
X131449272Y-126072362D01*
X131413980Y-126053498D01*
X131294282Y-126017188D01*
X131169800Y-126004928D01*
X130940550Y-126008000D01*
X130781800Y-126166750D01*
X130527800Y-126166750D01*
X130369050Y-126008000D01*
X130139800Y-126004928D01*
X130015318Y-126017188D01*
X129895620Y-126053498D01*
X129785306Y-126112463D01*
X129688615Y-126191815D01*
X129609263Y-126288506D01*
X129550298Y-126398820D01*
X129513988Y-126518518D01*
X129501728Y-126643000D01*
X124857877Y-126643000D01*
X124857877Y-125150158D01*
X125959920Y-125150158D01*
X125959920Y-125304002D01*
X125989933Y-125454889D01*
X126048807Y-125597022D01*
X126134278Y-125724939D01*
X126243061Y-125833722D01*
X126370978Y-125919193D01*
X126513111Y-125978067D01*
X126663998Y-126008080D01*
X126817842Y-126008080D01*
X126968729Y-125978067D01*
X127110862Y-125919193D01*
X127238779Y-125833722D01*
X127339421Y-125733080D01*
X141839619Y-125733080D01*
X141940261Y-125833722D01*
X142068178Y-125919193D01*
X142210311Y-125978067D01*
X142361198Y-126008080D01*
X142515042Y-126008080D01*
X142665929Y-125978067D01*
X142808062Y-125919193D01*
X142935979Y-125833722D01*
X143044762Y-125724939D01*
X143130233Y-125597022D01*
X143189107Y-125454889D01*
X143219120Y-125304002D01*
X143219120Y-125150158D01*
X143189107Y-124999271D01*
X143130233Y-124857138D01*
X143044762Y-124729221D01*
X142935979Y-124620438D01*
X142808062Y-124534967D01*
X142665929Y-124476093D01*
X142515042Y-124446080D01*
X142361198Y-124446080D01*
X142210311Y-124476093D01*
X142068178Y-124534967D01*
X141940261Y-124620438D01*
X141839619Y-124721080D01*
X127339421Y-124721080D01*
X127238779Y-124620438D01*
X127110862Y-124534967D01*
X126968729Y-124476093D01*
X126817842Y-124446080D01*
X126663998Y-124446080D01*
X126513111Y-124476093D01*
X126370978Y-124534967D01*
X126243061Y-124620438D01*
X126134278Y-124729221D01*
X126048807Y-124857138D01*
X125989933Y-124999271D01*
X125959920Y-125150158D01*
X124857877Y-125150158D01*
X124857877Y-121508199D01*
X129732957Y-121508199D01*
X129732957Y-122738201D01*
X129745117Y-122861662D01*
X129781129Y-122980379D01*
X129839610Y-123089789D01*
X129918312Y-123185688D01*
X130014211Y-123264390D01*
X130123621Y-123322871D01*
X130242338Y-123358883D01*
X130365799Y-123371043D01*
X130895801Y-123371043D01*
X131019262Y-123358883D01*
X131137979Y-123322871D01*
X131247389Y-123264390D01*
X131343288Y-123185688D01*
X131421990Y-123089789D01*
X131443970Y-123048667D01*
X131494168Y-123109833D01*
X131630602Y-123221801D01*
X131786258Y-123305001D01*
X131955154Y-123356235D01*
X132130800Y-123373535D01*
X132306447Y-123356235D01*
X132475343Y-123305001D01*
X132630999Y-123221801D01*
X132767433Y-123109833D01*
X132879401Y-122973399D01*
X132880801Y-122970781D01*
X132882200Y-122973399D01*
X132994168Y-123109833D01*
X133130602Y-123221801D01*
X133286258Y-123305001D01*
X133455154Y-123356235D01*
X133630800Y-123373535D01*
X133806447Y-123356235D01*
X133975343Y-123305001D01*
X134130999Y-123221801D01*
X134267433Y-123109833D01*
X134379401Y-122973399D01*
X134380801Y-122970781D01*
X134382200Y-122973399D01*
X134494168Y-123109833D01*
X134630602Y-123221801D01*
X134786258Y-123305001D01*
X134955154Y-123356235D01*
X135130800Y-123373535D01*
X135306447Y-123356235D01*
X135475343Y-123305001D01*
X135630999Y-123221801D01*
X135767433Y-123109833D01*
X135879401Y-122973399D01*
X135962601Y-122817743D01*
X136013835Y-122648847D01*
X136026800Y-122517213D01*
X136026800Y-121729187D01*
X136013835Y-121597553D01*
X135962601Y-121428657D01*
X135879401Y-121273001D01*
X135767433Y-121136567D01*
X135630998Y-121024599D01*
X135475342Y-120941399D01*
X135306446Y-120890165D01*
X135130800Y-120872865D01*
X134955153Y-120890165D01*
X134786257Y-120941399D01*
X134630601Y-121024599D01*
X134494167Y-121136567D01*
X134382199Y-121273002D01*
X134380800Y-121275619D01*
X134379401Y-121273001D01*
X134267433Y-121136567D01*
X134130998Y-121024599D01*
X133975342Y-120941399D01*
X133806446Y-120890165D01*
X133630800Y-120872865D01*
X133455153Y-120890165D01*
X133286257Y-120941399D01*
X133130601Y-121024599D01*
X132994167Y-121136567D01*
X132882199Y-121273002D01*
X132880800Y-121275619D01*
X132879401Y-121273001D01*
X132767433Y-121136567D01*
X132630998Y-121024599D01*
X132475342Y-120941399D01*
X132306446Y-120890165D01*
X132130800Y-120872865D01*
X131955153Y-120890165D01*
X131786257Y-120941399D01*
X131630601Y-121024599D01*
X131494167Y-121136567D01*
X131443970Y-121197733D01*
X131421990Y-121156611D01*
X131343288Y-121060712D01*
X131247389Y-120982010D01*
X131137979Y-120923529D01*
X131019262Y-120887517D01*
X130895801Y-120875357D01*
X130365799Y-120875357D01*
X130242338Y-120887517D01*
X130123621Y-120923529D01*
X130014211Y-120982010D01*
X129918312Y-121060712D01*
X129839610Y-121156611D01*
X129781129Y-121266021D01*
X129745117Y-121384738D01*
X129732957Y-121508199D01*
X124857877Y-121508199D01*
X124857877Y-119397601D01*
X184449157Y-119397601D01*
X184449157Y-121597599D01*
X184461317Y-121721061D01*
X184497329Y-121839778D01*
X184555810Y-121949188D01*
X184634513Y-122045087D01*
X184730412Y-122123790D01*
X184839822Y-122182271D01*
X184958539Y-122218283D01*
X185082001Y-122230443D01*
X187281999Y-122230443D01*
X187405461Y-122218283D01*
X187524178Y-122182271D01*
X187633588Y-122123790D01*
X187729487Y-122045087D01*
X187808190Y-121949188D01*
X187866671Y-121839778D01*
X187902683Y-121721061D01*
X187914843Y-121597599D01*
X187914843Y-119397601D01*
X187902683Y-119274139D01*
X187866671Y-119155422D01*
X187808190Y-119046012D01*
X187729487Y-118950113D01*
X187633588Y-118871410D01*
X187524178Y-118812929D01*
X187405461Y-118776917D01*
X187281999Y-118764757D01*
X185082001Y-118764757D01*
X184958539Y-118776917D01*
X184839822Y-118812929D01*
X184730412Y-118871410D01*
X184634513Y-118950113D01*
X184555810Y-119046012D01*
X184497329Y-119155422D01*
X184461317Y-119274139D01*
X184449157Y-119397601D01*
X124857877Y-119397601D01*
X124857877Y-116326599D01*
X129708957Y-116326599D01*
X129708957Y-117556601D01*
X129721117Y-117680062D01*
X129757129Y-117798779D01*
X129815610Y-117908189D01*
X129894312Y-118004088D01*
X129990211Y-118082790D01*
X130099621Y-118141271D01*
X130218338Y-118177283D01*
X130341799Y-118189443D01*
X130871801Y-118189443D01*
X130995262Y-118177283D01*
X131113979Y-118141271D01*
X131223389Y-118082790D01*
X131319288Y-118004088D01*
X131397990Y-117908189D01*
X131419970Y-117867067D01*
X131470168Y-117928233D01*
X131606602Y-118040201D01*
X131762258Y-118123401D01*
X131931154Y-118174635D01*
X132106800Y-118191935D01*
X132282447Y-118174635D01*
X132451343Y-118123401D01*
X132606999Y-118040201D01*
X132743433Y-117928233D01*
X132855401Y-117791799D01*
X132856801Y-117789181D01*
X132858200Y-117791799D01*
X132970168Y-117928233D01*
X133106602Y-118040201D01*
X133262258Y-118123401D01*
X133431154Y-118174635D01*
X133606800Y-118191935D01*
X133782447Y-118174635D01*
X133951343Y-118123401D01*
X134106999Y-118040201D01*
X134243433Y-117928233D01*
X134355401Y-117791799D01*
X134356801Y-117789181D01*
X134358200Y-117791799D01*
X134470168Y-117928233D01*
X134606602Y-118040201D01*
X134762258Y-118123401D01*
X134931154Y-118174635D01*
X135106800Y-118191935D01*
X135282447Y-118174635D01*
X135451343Y-118123401D01*
X135606999Y-118040201D01*
X135743433Y-117928233D01*
X135855401Y-117791799D01*
X135938601Y-117636143D01*
X135989835Y-117467247D01*
X136002800Y-117335613D01*
X136002800Y-116547587D01*
X135989835Y-116415953D01*
X135975019Y-116367111D01*
X184451000Y-116367111D01*
X184451000Y-116708089D01*
X184517521Y-117042514D01*
X184648007Y-117357536D01*
X184837444Y-117641048D01*
X185078552Y-117882156D01*
X185362064Y-118071593D01*
X185677086Y-118202079D01*
X186011511Y-118268600D01*
X186352489Y-118268600D01*
X186686914Y-118202079D01*
X187001936Y-118071593D01*
X187285448Y-117882156D01*
X187526556Y-117641048D01*
X187715993Y-117357536D01*
X187846479Y-117042514D01*
X187913000Y-116708089D01*
X187913000Y-116367111D01*
X187846479Y-116032686D01*
X187715993Y-115717664D01*
X187526556Y-115434152D01*
X187285448Y-115193044D01*
X187001936Y-115003607D01*
X186686914Y-114873121D01*
X186352489Y-114806600D01*
X186011511Y-114806600D01*
X185677086Y-114873121D01*
X185362064Y-115003607D01*
X185078552Y-115193044D01*
X184837444Y-115434152D01*
X184648007Y-115717664D01*
X184517521Y-116032686D01*
X184451000Y-116367111D01*
X135975019Y-116367111D01*
X135938601Y-116247057D01*
X135855401Y-116091401D01*
X135743433Y-115954967D01*
X135606998Y-115842999D01*
X135451342Y-115759799D01*
X135282446Y-115708565D01*
X135106800Y-115691265D01*
X134931153Y-115708565D01*
X134762257Y-115759799D01*
X134606601Y-115842999D01*
X134470167Y-115954967D01*
X134358199Y-116091402D01*
X134356800Y-116094019D01*
X134355401Y-116091401D01*
X134243433Y-115954967D01*
X134106998Y-115842999D01*
X133951342Y-115759799D01*
X133782446Y-115708565D01*
X133606800Y-115691265D01*
X133431153Y-115708565D01*
X133262257Y-115759799D01*
X133106601Y-115842999D01*
X132970167Y-115954967D01*
X132858199Y-116091402D01*
X132856800Y-116094019D01*
X132855401Y-116091401D01*
X132743433Y-115954967D01*
X132606998Y-115842999D01*
X132451342Y-115759799D01*
X132282446Y-115708565D01*
X132106800Y-115691265D01*
X131931153Y-115708565D01*
X131762257Y-115759799D01*
X131606601Y-115842999D01*
X131470167Y-115954967D01*
X131419970Y-116016133D01*
X131397990Y-115975011D01*
X131319288Y-115879112D01*
X131223389Y-115800410D01*
X131113979Y-115741929D01*
X130995262Y-115705917D01*
X130871801Y-115693757D01*
X130341799Y-115693757D01*
X130218338Y-115705917D01*
X130099621Y-115741929D01*
X129990211Y-115800410D01*
X129894312Y-115879112D01*
X129815610Y-115975011D01*
X129757129Y-116084421D01*
X129721117Y-116203138D01*
X129708957Y-116326599D01*
X124857877Y-116326599D01*
X124857877Y-111937251D01*
X129658157Y-111937251D01*
X129658157Y-112273401D01*
X129670317Y-112396862D01*
X129706329Y-112515579D01*
X129764810Y-112624989D01*
X129843512Y-112720888D01*
X129939411Y-112799590D01*
X130048821Y-112858071D01*
X130167538Y-112894083D01*
X130290999Y-112906243D01*
X130821001Y-112906243D01*
X130944462Y-112894083D01*
X131063179Y-112858071D01*
X131172589Y-112799590D01*
X131268488Y-112720888D01*
X131347190Y-112624989D01*
X131369170Y-112583867D01*
X131419368Y-112645033D01*
X131555802Y-112757001D01*
X131711458Y-112840201D01*
X131880354Y-112891435D01*
X132056000Y-112908735D01*
X132231647Y-112891435D01*
X132400543Y-112840201D01*
X132556199Y-112757001D01*
X132692633Y-112645033D01*
X132804601Y-112508599D01*
X132806001Y-112505981D01*
X132807400Y-112508599D01*
X132919368Y-112645033D01*
X133055802Y-112757001D01*
X133211458Y-112840201D01*
X133380354Y-112891435D01*
X133556000Y-112908735D01*
X133731647Y-112891435D01*
X133900543Y-112840201D01*
X134056199Y-112757001D01*
X134131064Y-112695561D01*
X134170367Y-112752903D01*
X134332630Y-112911376D01*
X134522691Y-113035148D01*
X134751764Y-113117427D01*
X134929000Y-112991481D01*
X134929000Y-111785400D01*
X135183000Y-111785400D01*
X135183000Y-112991481D01*
X135360236Y-113117427D01*
X135589309Y-113035148D01*
X135779370Y-112911376D01*
X135941633Y-112752903D01*
X136069861Y-112565819D01*
X136159127Y-112357314D01*
X136206000Y-112135400D01*
X136206000Y-111785400D01*
X135183000Y-111785400D01*
X134929000Y-111785400D01*
X134909000Y-111785400D01*
X134909000Y-111531400D01*
X134929000Y-111531400D01*
X134929000Y-110325319D01*
X135183000Y-110325319D01*
X135183000Y-111531400D01*
X136206000Y-111531400D01*
X136206000Y-111181400D01*
X136159127Y-110959486D01*
X136069861Y-110750981D01*
X135941633Y-110563897D01*
X135779370Y-110405424D01*
X135589309Y-110281652D01*
X135360236Y-110199373D01*
X135183000Y-110325319D01*
X134929000Y-110325319D01*
X134751764Y-110199373D01*
X134522691Y-110281652D01*
X134332630Y-110405424D01*
X134170367Y-110563897D01*
X134131064Y-110621239D01*
X134056198Y-110559799D01*
X133900542Y-110476599D01*
X133731646Y-110425365D01*
X133556000Y-110408065D01*
X133380353Y-110425365D01*
X133211457Y-110476599D01*
X133055801Y-110559799D01*
X132919367Y-110671767D01*
X132807399Y-110808202D01*
X132806000Y-110810819D01*
X132804601Y-110808201D01*
X132692633Y-110671767D01*
X132556198Y-110559799D01*
X132400542Y-110476599D01*
X132231646Y-110425365D01*
X132056000Y-110408065D01*
X131880353Y-110425365D01*
X131711457Y-110476599D01*
X131555801Y-110559799D01*
X131419367Y-110671767D01*
X131369170Y-110732933D01*
X131347190Y-110691811D01*
X131268488Y-110595912D01*
X131172589Y-110517210D01*
X131063179Y-110458729D01*
X130944462Y-110422717D01*
X130821001Y-110410557D01*
X130290999Y-110410557D01*
X130167538Y-110422717D01*
X130048821Y-110458729D01*
X129939411Y-110517210D01*
X129843512Y-110595912D01*
X129764810Y-110691811D01*
X129706329Y-110801221D01*
X129670317Y-110919938D01*
X129669794Y-110925251D01*
X127228393Y-110925251D01*
X127278547Y-110804169D01*
X127308560Y-110653282D01*
X127308560Y-110499438D01*
X127278547Y-110348551D01*
X127219673Y-110206418D01*
X127134202Y-110078501D01*
X127033560Y-109977859D01*
X127033560Y-109624723D01*
X127036007Y-109599877D01*
X127033560Y-109575031D01*
X127033560Y-109575024D01*
X127026238Y-109500685D01*
X127019466Y-109478358D01*
X126997305Y-109405303D01*
X126988344Y-109388538D01*
X126950319Y-109317399D01*
X126887087Y-109240351D01*
X126867780Y-109224506D01*
X126336537Y-108693264D01*
X126320688Y-108673952D01*
X126243640Y-108610720D01*
X126155736Y-108563734D01*
X126060354Y-108534801D01*
X125986015Y-108527479D01*
X125986007Y-108527479D01*
X125961161Y-108525032D01*
X125936315Y-108527479D01*
X96958556Y-108527479D01*
X96933710Y-108525032D01*
X96908864Y-108527479D01*
X96908857Y-108527479D01*
X96844405Y-108533827D01*
X96834517Y-108534801D01*
X96812318Y-108541535D01*
X96739136Y-108563734D01*
X96651232Y-108610720D01*
X96574184Y-108673952D01*
X96558339Y-108693259D01*
X95211611Y-110039987D01*
X95192305Y-110055832D01*
X95129073Y-110132880D01*
X95113550Y-110161922D01*
X95082086Y-110220785D01*
X95053153Y-110316167D01*
X95043384Y-110415359D01*
X95045832Y-110440215D01*
X95045830Y-121177008D01*
X94447500Y-121775339D01*
X94428194Y-121791183D01*
X94364962Y-121868231D01*
X94350445Y-121895391D01*
X94317975Y-121956136D01*
X94289042Y-122051518D01*
X94279273Y-122150710D01*
X94281721Y-122175566D01*
X94281720Y-122845499D01*
X94181078Y-122946141D01*
X94095607Y-123074058D01*
X94036733Y-123216191D01*
X94006720Y-123367078D01*
X94006720Y-123520922D01*
X94034981Y-123663001D01*
X93837633Y-123663001D01*
X92261640Y-122087009D01*
X92261640Y-122005638D01*
X92231627Y-121854751D01*
X92172753Y-121712618D01*
X92087282Y-121584701D01*
X91978499Y-121475918D01*
X91850582Y-121390447D01*
X91708449Y-121331573D01*
X91557562Y-121301560D01*
X91403718Y-121301560D01*
X91252831Y-121331573D01*
X91110698Y-121390447D01*
X90982781Y-121475918D01*
X90873998Y-121584701D01*
X90788527Y-121712618D01*
X90729653Y-121854751D01*
X90699640Y-122005638D01*
X90699640Y-122159482D01*
X90729653Y-122310369D01*
X90788527Y-122452502D01*
X90873998Y-122580419D01*
X90982781Y-122689202D01*
X91110698Y-122774673D01*
X91252831Y-122833547D01*
X91403718Y-122863560D01*
X91557562Y-122863560D01*
X91598805Y-122855356D01*
X93252669Y-124509221D01*
X93268514Y-124528528D01*
X93345562Y-124591760D01*
X93407132Y-124624670D01*
X93433466Y-124638746D01*
X93528847Y-124667679D01*
X93536716Y-124668454D01*
X93603187Y-124675001D01*
X93603194Y-124675001D01*
X93628040Y-124677448D01*
X93652886Y-124675001D01*
X97004930Y-124675001D01*
X97079168Y-124749239D01*
X96984043Y-124812799D01*
X96875260Y-124921582D01*
X96789789Y-125049499D01*
X96730915Y-125191632D01*
X96713276Y-125280311D01*
X96638164Y-125280311D01*
X96487277Y-125310324D01*
X96345144Y-125369198D01*
X96217227Y-125454669D01*
X96116585Y-125555311D01*
X95111175Y-125555311D01*
X95086329Y-125552864D01*
X95061483Y-125555311D01*
X95061475Y-125555311D01*
X94987136Y-125562633D01*
X94891754Y-125591566D01*
X94803850Y-125638552D01*
X94726802Y-125701784D01*
X94710953Y-125721096D01*
X94569425Y-125862624D01*
X94550113Y-125878473D01*
X94486881Y-125955521D01*
X94439895Y-126043426D01*
X94410962Y-126138808D01*
X94403640Y-126213147D01*
X94403640Y-126213154D01*
X94401193Y-126238000D01*
X94403640Y-126262846D01*
X94403641Y-128872129D01*
X93523526Y-127992015D01*
X93560482Y-127955059D01*
X93645953Y-127827142D01*
X93704827Y-127685009D01*
X93734840Y-127534122D01*
X93734840Y-127380278D01*
X93704827Y-127229391D01*
X93645953Y-127087258D01*
X93560482Y-126959341D01*
X93451699Y-126850558D01*
X93323782Y-126765087D01*
X93181649Y-126706213D01*
X93030762Y-126676200D01*
X92876918Y-126676200D01*
X92726031Y-126706213D01*
X92583898Y-126765087D01*
X92455981Y-126850558D01*
X92347198Y-126959341D01*
X92261727Y-127087258D01*
X92202853Y-127229391D01*
X92172840Y-127380278D01*
X92172840Y-127530728D01*
X92032360Y-127390248D01*
X92032360Y-126955591D01*
X92451552Y-126536400D01*
X92593882Y-126536400D01*
X92744769Y-126506387D01*
X92886902Y-126447513D01*
X93014819Y-126362042D01*
X93123602Y-126253259D01*
X93209073Y-126125342D01*
X93267947Y-125983209D01*
X93297960Y-125832322D01*
X93297960Y-125678478D01*
X93267947Y-125527591D01*
X93209073Y-125385458D01*
X93123602Y-125257541D01*
X93014819Y-125148758D01*
X92886902Y-125063287D01*
X92744769Y-125004413D01*
X92593882Y-124974400D01*
X92440038Y-124974400D01*
X92289151Y-125004413D01*
X92147018Y-125063287D01*
X92019101Y-125148758D01*
X91910318Y-125257541D01*
X91824847Y-125385458D01*
X91765973Y-125527591D01*
X91735960Y-125678478D01*
X91735960Y-125820808D01*
X91186145Y-126370624D01*
X91166833Y-126386473D01*
X91103601Y-126463521D01*
X91056615Y-126551426D01*
X91027682Y-126646808D01*
X91020360Y-126721147D01*
X91020360Y-126721154D01*
X91017913Y-126746000D01*
X91020360Y-126770847D01*
X91020361Y-127574983D01*
X91017913Y-127599839D01*
X91027682Y-127699031D01*
X91056615Y-127794413D01*
X91056616Y-127794414D01*
X91103602Y-127882318D01*
X91166834Y-127959366D01*
X91186141Y-127975211D01*
X92740896Y-129529967D01*
X92715978Y-129540288D01*
X92618999Y-129605087D01*
X92585258Y-129571346D01*
X92457341Y-129485875D01*
X92315208Y-129427001D01*
X92164321Y-129396988D01*
X92010477Y-129396988D01*
X91859590Y-129427001D01*
X91717457Y-129485875D01*
X91589540Y-129571346D01*
X91480757Y-129680129D01*
X91395286Y-129808046D01*
X91336412Y-129950179D01*
X91306399Y-130101066D01*
X91306399Y-130254910D01*
X91336412Y-130405797D01*
X91395286Y-130547930D01*
X91480757Y-130675847D01*
X91581399Y-130776489D01*
X91581400Y-134082149D01*
X91494982Y-134024407D01*
X91352849Y-133965533D01*
X91244961Y-133944073D01*
X91146105Y-133845217D01*
X91126343Y-133821137D01*
X91030261Y-133742284D01*
X90920642Y-133683691D01*
X90801698Y-133647610D01*
X90708998Y-133638480D01*
X90708990Y-133638480D01*
X90678000Y-133635428D01*
X90647010Y-133638480D01*
X88071085Y-133638480D01*
X87979622Y-133577367D01*
X87837489Y-133518493D01*
X87729602Y-133497033D01*
X85662637Y-131430069D01*
X85639383Y-131401734D01*
X85639381Y-131401732D01*
X85619623Y-131377657D01*
X85595547Y-131357898D01*
X82586305Y-128348657D01*
X82566543Y-128324577D01*
X82470461Y-128245724D01*
X82360842Y-128187131D01*
X82241898Y-128151050D01*
X82149198Y-128141920D01*
X82149190Y-128141920D01*
X82118200Y-128138868D01*
X82087210Y-128141920D01*
X78496160Y-128141920D01*
X78496160Y-120435918D01*
X82363360Y-120435918D01*
X82363360Y-120589762D01*
X82393373Y-120740649D01*
X82452247Y-120882782D01*
X82513360Y-120974245D01*
X82513361Y-123120639D01*
X82469573Y-123226351D01*
X82439560Y-123377238D01*
X82439560Y-123531082D01*
X82469573Y-123681969D01*
X82528447Y-123824102D01*
X82613918Y-123952019D01*
X82722701Y-124060802D01*
X82850618Y-124146273D01*
X82992751Y-124205147D01*
X83143638Y-124235160D01*
X83297482Y-124235160D01*
X83448369Y-124205147D01*
X83590502Y-124146273D01*
X83718419Y-124060802D01*
X83827202Y-123952019D01*
X83912673Y-123824102D01*
X83971547Y-123681969D01*
X84001560Y-123531082D01*
X84001560Y-123377238D01*
X83971547Y-123226351D01*
X83912673Y-123084218D01*
X83827202Y-122956301D01*
X83775360Y-122904459D01*
X83775360Y-120974245D01*
X83836473Y-120882782D01*
X83895347Y-120740649D01*
X83925360Y-120589762D01*
X83925360Y-120435918D01*
X83895347Y-120285031D01*
X83836473Y-120142898D01*
X83751002Y-120014981D01*
X83642219Y-119906198D01*
X83514302Y-119820727D01*
X83372169Y-119761853D01*
X83221282Y-119731840D01*
X83067438Y-119731840D01*
X82916551Y-119761853D01*
X82774418Y-119820727D01*
X82646501Y-119906198D01*
X82537718Y-120014981D01*
X82452247Y-120142898D01*
X82393373Y-120285031D01*
X82363360Y-120435918D01*
X78496160Y-120435918D01*
X78496160Y-116947760D01*
X93472875Y-116947760D01*
X93564338Y-117008873D01*
X93706471Y-117067747D01*
X93857358Y-117097760D01*
X94011202Y-117097760D01*
X94162089Y-117067747D01*
X94304222Y-117008873D01*
X94432139Y-116923402D01*
X94540922Y-116814619D01*
X94626393Y-116686702D01*
X94685267Y-116544569D01*
X94715280Y-116393682D01*
X94715280Y-116239838D01*
X94685267Y-116088951D01*
X94626393Y-115946818D01*
X94540922Y-115818901D01*
X94432139Y-115710118D01*
X94304222Y-115624647D01*
X94162089Y-115565773D01*
X94011202Y-115535760D01*
X93857358Y-115535760D01*
X93706471Y-115565773D01*
X93564338Y-115624647D01*
X93472875Y-115685760D01*
X86004157Y-115685760D01*
X86145742Y-115627113D01*
X86273659Y-115541642D01*
X86382442Y-115432859D01*
X86467913Y-115304942D01*
X86526787Y-115162809D01*
X86556800Y-115011922D01*
X86556800Y-114905966D01*
X95746887Y-105715880D01*
X132938010Y-105715880D01*
X132969000Y-105718932D01*
X132999990Y-105715880D01*
X132999998Y-105715880D01*
X133092698Y-105706750D01*
X133211642Y-105670669D01*
X133321261Y-105612076D01*
X133417343Y-105533223D01*
X133437105Y-105509143D01*
X133683282Y-105262967D01*
X133791169Y-105241507D01*
X133933302Y-105182633D01*
X134061219Y-105097162D01*
X134170002Y-104988379D01*
X134255473Y-104860462D01*
X134314347Y-104718329D01*
X134344360Y-104567442D01*
X134344360Y-104413598D01*
X134314347Y-104262711D01*
X134255473Y-104120578D01*
X134237901Y-104094280D01*
X142142241Y-104094280D01*
X142142240Y-115048898D01*
G37*
%TD.AperFunction*%
D23*
X194309031Y-112870863D02*
X194309030Y-138906916D01*
X193048160Y-140167786D01*
X193048160Y-118531085D01*
X193050607Y-118506239D01*
X193048160Y-118481393D01*
X193048160Y-118481386D01*
X193040838Y-118407047D01*
X193011905Y-118311665D01*
X192964919Y-118223761D01*
X192901687Y-118146713D01*
X192882380Y-118130868D01*
X187807039Y-113055528D01*
X187807039Y-112588939D01*
X187949118Y-112617200D01*
X188102962Y-112617200D01*
X188253849Y-112587187D01*
X188395982Y-112528313D01*
X188523899Y-112442842D01*
X188624541Y-112342200D01*
X193780369Y-112342200D01*
X194309031Y-112870863D01*
%TA.AperFunction,Conductor*%
D24*
G36*
X194309031Y-112870863D02*
G01*
X194309030Y-138906916D01*
X193048160Y-140167786D01*
X193048160Y-118531085D01*
X193050607Y-118506239D01*
X193048160Y-118481393D01*
X193048160Y-118481386D01*
X193040838Y-118407047D01*
X193011905Y-118311665D01*
X192964919Y-118223761D01*
X192901687Y-118146713D01*
X192882380Y-118130868D01*
X187807039Y-113055528D01*
X187807039Y-112588939D01*
X187949118Y-112617200D01*
X188102962Y-112617200D01*
X188253849Y-112587187D01*
X188395982Y-112528313D01*
X188523899Y-112442842D01*
X188624541Y-112342200D01*
X193780369Y-112342200D01*
X194309031Y-112870863D01*
G37*
%TD.AperFunction*%
D23*
X97659240Y-110406558D02*
X97659240Y-110560402D01*
X97689253Y-110711289D01*
X97691717Y-110717237D01*
X97679138Y-110722447D01*
X97551221Y-110807918D01*
X97442438Y-110916701D01*
X97356967Y-111044618D01*
X97298093Y-111186751D01*
X97268080Y-111337638D01*
X97268080Y-111491482D01*
X97298093Y-111642369D01*
X97356967Y-111784502D01*
X97442438Y-111912419D01*
X97551221Y-112021202D01*
X97679138Y-112106673D01*
X97695481Y-112113443D01*
X97695480Y-121905699D01*
X97594838Y-122006341D01*
X97509367Y-122134258D01*
X97450493Y-122276391D01*
X97420480Y-122427278D01*
X97420480Y-122581122D01*
X97450493Y-122732009D01*
X97509367Y-122874142D01*
X97594838Y-123002059D01*
X97703621Y-123110842D01*
X97831538Y-123196313D01*
X97973671Y-123255187D01*
X98124558Y-123285200D01*
X98278402Y-123285200D01*
X98429289Y-123255187D01*
X98571422Y-123196313D01*
X98699339Y-123110842D01*
X98808122Y-123002059D01*
X98893593Y-122874142D01*
X98952467Y-122732009D01*
X98982480Y-122581122D01*
X98982480Y-122427278D01*
X98952467Y-122276391D01*
X98893593Y-122134258D01*
X98808122Y-122006341D01*
X98707480Y-121905699D01*
X98707480Y-111834957D01*
X98741193Y-111784502D01*
X98800067Y-111642369D01*
X98830080Y-111491482D01*
X98830080Y-111337638D01*
X98800067Y-111186751D01*
X98797603Y-111180803D01*
X98810182Y-111175593D01*
X98938099Y-111090122D01*
X99046882Y-110981339D01*
X99121944Y-110869000D01*
X103478289Y-110869000D01*
X105383123Y-112773835D01*
X105291624Y-112811735D01*
X105163707Y-112897206D01*
X105076793Y-112984120D01*
X105056522Y-112953781D01*
X104947739Y-112844998D01*
X104819822Y-112759527D01*
X104677689Y-112700653D01*
X104526802Y-112670640D01*
X104372958Y-112670640D01*
X104222071Y-112700653D01*
X104079938Y-112759527D01*
X103952021Y-112844998D01*
X103843238Y-112953781D01*
X103757767Y-113081698D01*
X103698893Y-113223831D01*
X103668880Y-113374718D01*
X103668880Y-113528562D01*
X103698893Y-113679449D01*
X103757767Y-113821582D01*
X103843238Y-113949499D01*
X103952021Y-114058282D01*
X104079938Y-114143753D01*
X104222071Y-114202627D01*
X104372958Y-114232640D01*
X104515289Y-114232640D01*
X105238421Y-114955773D01*
X105238420Y-129196739D01*
X105099488Y-129254287D01*
X104971571Y-129339758D01*
X104862788Y-129448541D01*
X104777317Y-129576458D01*
X104718443Y-129718591D01*
X104688430Y-129869478D01*
X104688430Y-130023322D01*
X104718443Y-130174209D01*
X104777317Y-130316342D01*
X104862788Y-130444259D01*
X104971571Y-130553042D01*
X105099488Y-130638513D01*
X105188730Y-130675479D01*
X105168453Y-130724431D01*
X105138440Y-130875318D01*
X105138440Y-131029162D01*
X105168453Y-131180049D01*
X105227327Y-131322182D01*
X105312798Y-131450099D01*
X105421581Y-131558882D01*
X105549498Y-131644353D01*
X105691631Y-131703227D01*
X105842518Y-131733240D01*
X105996362Y-131733240D01*
X106138441Y-131704979D01*
X106138440Y-132408888D01*
X105342649Y-133204680D01*
X101272102Y-133204680D01*
X101171460Y-133104038D01*
X101043543Y-133018567D01*
X100901410Y-132959693D01*
X100750523Y-132929680D01*
X100596679Y-132929680D01*
X100445792Y-132959693D01*
X100303659Y-133018567D01*
X100175742Y-133104038D01*
X100066959Y-133212821D01*
X99981488Y-133340738D01*
X99922614Y-133482871D01*
X99892601Y-133633758D01*
X99892601Y-133787602D01*
X99922614Y-133938489D01*
X99981488Y-134080622D01*
X100041128Y-134169880D01*
X96963272Y-134169880D01*
X95639160Y-132845769D01*
X95639160Y-129705675D01*
X95641607Y-129680829D01*
X95639160Y-129655983D01*
X95639160Y-129655976D01*
X95631838Y-129581637D01*
X95602905Y-129486255D01*
X95555919Y-129398351D01*
X95492687Y-129321303D01*
X95473375Y-129305454D01*
X95415640Y-129247719D01*
X95415640Y-126567311D01*
X96116585Y-126567311D01*
X96217227Y-126667953D01*
X96345144Y-126753424D01*
X96487277Y-126812298D01*
X96638164Y-126842311D01*
X96792008Y-126842311D01*
X96942895Y-126812298D01*
X97085028Y-126753424D01*
X97212945Y-126667953D01*
X97321728Y-126559170D01*
X97407199Y-126431253D01*
X97466073Y-126289120D01*
X97483712Y-126200441D01*
X97558824Y-126200441D01*
X97709711Y-126170428D01*
X97851844Y-126111554D01*
X97979761Y-126026083D01*
X98088544Y-125917300D01*
X98174015Y-125789383D01*
X98232889Y-125647250D01*
X98262902Y-125496363D01*
X98262902Y-125342519D01*
X98255853Y-125307081D01*
X98260462Y-125291887D01*
X98283598Y-125215617D01*
X98286466Y-125186493D01*
X98290920Y-125141277D01*
X98290920Y-125141270D01*
X98293367Y-125116424D01*
X98290920Y-125091578D01*
X98290920Y-124764245D01*
X98293367Y-124739399D01*
X98290920Y-124714553D01*
X98290920Y-124714547D01*
X98283598Y-124640208D01*
X98281655Y-124633800D01*
X98254665Y-124544825D01*
X98245953Y-124528527D01*
X98207679Y-124456921D01*
X98144447Y-124379873D01*
X98125140Y-124364028D01*
X97925750Y-124164638D01*
X102718920Y-124164638D01*
X102718920Y-124318482D01*
X102748933Y-124469369D01*
X102807807Y-124611502D01*
X102868921Y-124702966D01*
X102868920Y-131104130D01*
X102865868Y-131135120D01*
X102868920Y-131166110D01*
X102868920Y-131166117D01*
X102878050Y-131258817D01*
X102914131Y-131377761D01*
X102972724Y-131487380D01*
X103051577Y-131583463D01*
X103075657Y-131603225D01*
X103921273Y-132448842D01*
X103942733Y-132556729D01*
X104001607Y-132698862D01*
X104087078Y-132826779D01*
X104195861Y-132935562D01*
X104323778Y-133021033D01*
X104465911Y-133079907D01*
X104616798Y-133109920D01*
X104770642Y-133109920D01*
X104921529Y-133079907D01*
X105063662Y-133021033D01*
X105191579Y-132935562D01*
X105300362Y-132826779D01*
X105385833Y-132698862D01*
X105444707Y-132556729D01*
X105474720Y-132405842D01*
X105474720Y-132251998D01*
X105444707Y-132101111D01*
X105385833Y-131958978D01*
X105300362Y-131831061D01*
X105191579Y-131722278D01*
X105063662Y-131636807D01*
X104921529Y-131577933D01*
X104813642Y-131556473D01*
X104130920Y-130873752D01*
X104130920Y-124702965D01*
X104192033Y-124611502D01*
X104250907Y-124469369D01*
X104280920Y-124318482D01*
X104280920Y-124164638D01*
X104250907Y-124013751D01*
X104192033Y-123871618D01*
X104106562Y-123743701D01*
X103997779Y-123634918D01*
X103869862Y-123549447D01*
X103727729Y-123490573D01*
X103576842Y-123460560D01*
X103422998Y-123460560D01*
X103272111Y-123490573D01*
X103129978Y-123549447D01*
X103002061Y-123634918D01*
X102893278Y-123743701D01*
X102807807Y-123871618D01*
X102748933Y-124013751D01*
X102718920Y-124164638D01*
X97925750Y-124164638D01*
X97589897Y-123828786D01*
X97574048Y-123809474D01*
X97497000Y-123746242D01*
X97409096Y-123699256D01*
X97313714Y-123670323D01*
X97239375Y-123663001D01*
X97239367Y-123663001D01*
X97214521Y-123660554D01*
X97189675Y-123663001D01*
X95540459Y-123663001D01*
X95568720Y-123520922D01*
X95568720Y-123367078D01*
X95568477Y-123365857D01*
X95631898Y-123408233D01*
X95774031Y-123467107D01*
X95924918Y-123497120D01*
X96078762Y-123497120D01*
X96229649Y-123467107D01*
X96371782Y-123408233D01*
X96499699Y-123322762D01*
X96608482Y-123213979D01*
X96693953Y-123086062D01*
X96752827Y-122943929D01*
X96782840Y-122793042D01*
X96782840Y-122639198D01*
X96752827Y-122488311D01*
X96693953Y-122346178D01*
X96608482Y-122218261D01*
X96507840Y-122117619D01*
X96507840Y-110811351D01*
X97054712Y-110264480D01*
X97687501Y-110264480D01*
X97659240Y-110406558D01*
%TA.AperFunction,Conductor*%
D24*
G36*
X97659240Y-110406558D02*
G01*
X97659240Y-110560402D01*
X97689253Y-110711289D01*
X97691717Y-110717237D01*
X97679138Y-110722447D01*
X97551221Y-110807918D01*
X97442438Y-110916701D01*
X97356967Y-111044618D01*
X97298093Y-111186751D01*
X97268080Y-111337638D01*
X97268080Y-111491482D01*
X97298093Y-111642369D01*
X97356967Y-111784502D01*
X97442438Y-111912419D01*
X97551221Y-112021202D01*
X97679138Y-112106673D01*
X97695481Y-112113443D01*
X97695480Y-121905699D01*
X97594838Y-122006341D01*
X97509367Y-122134258D01*
X97450493Y-122276391D01*
X97420480Y-122427278D01*
X97420480Y-122581122D01*
X97450493Y-122732009D01*
X97509367Y-122874142D01*
X97594838Y-123002059D01*
X97703621Y-123110842D01*
X97831538Y-123196313D01*
X97973671Y-123255187D01*
X98124558Y-123285200D01*
X98278402Y-123285200D01*
X98429289Y-123255187D01*
X98571422Y-123196313D01*
X98699339Y-123110842D01*
X98808122Y-123002059D01*
X98893593Y-122874142D01*
X98952467Y-122732009D01*
X98982480Y-122581122D01*
X98982480Y-122427278D01*
X98952467Y-122276391D01*
X98893593Y-122134258D01*
X98808122Y-122006341D01*
X98707480Y-121905699D01*
X98707480Y-111834957D01*
X98741193Y-111784502D01*
X98800067Y-111642369D01*
X98830080Y-111491482D01*
X98830080Y-111337638D01*
X98800067Y-111186751D01*
X98797603Y-111180803D01*
X98810182Y-111175593D01*
X98938099Y-111090122D01*
X99046882Y-110981339D01*
X99121944Y-110869000D01*
X103478289Y-110869000D01*
X105383123Y-112773835D01*
X105291624Y-112811735D01*
X105163707Y-112897206D01*
X105076793Y-112984120D01*
X105056522Y-112953781D01*
X104947739Y-112844998D01*
X104819822Y-112759527D01*
X104677689Y-112700653D01*
X104526802Y-112670640D01*
X104372958Y-112670640D01*
X104222071Y-112700653D01*
X104079938Y-112759527D01*
X103952021Y-112844998D01*
X103843238Y-112953781D01*
X103757767Y-113081698D01*
X103698893Y-113223831D01*
X103668880Y-113374718D01*
X103668880Y-113528562D01*
X103698893Y-113679449D01*
X103757767Y-113821582D01*
X103843238Y-113949499D01*
X103952021Y-114058282D01*
X104079938Y-114143753D01*
X104222071Y-114202627D01*
X104372958Y-114232640D01*
X104515289Y-114232640D01*
X105238421Y-114955773D01*
X105238420Y-129196739D01*
X105099488Y-129254287D01*
X104971571Y-129339758D01*
X104862788Y-129448541D01*
X104777317Y-129576458D01*
X104718443Y-129718591D01*
X104688430Y-129869478D01*
X104688430Y-130023322D01*
X104718443Y-130174209D01*
X104777317Y-130316342D01*
X104862788Y-130444259D01*
X104971571Y-130553042D01*
X105099488Y-130638513D01*
X105188730Y-130675479D01*
X105168453Y-130724431D01*
X105138440Y-130875318D01*
X105138440Y-131029162D01*
X105168453Y-131180049D01*
X105227327Y-131322182D01*
X105312798Y-131450099D01*
X105421581Y-131558882D01*
X105549498Y-131644353D01*
X105691631Y-131703227D01*
X105842518Y-131733240D01*
X105996362Y-131733240D01*
X106138441Y-131704979D01*
X106138440Y-132408888D01*
X105342649Y-133204680D01*
X101272102Y-133204680D01*
X101171460Y-133104038D01*
X101043543Y-133018567D01*
X100901410Y-132959693D01*
X100750523Y-132929680D01*
X100596679Y-132929680D01*
X100445792Y-132959693D01*
X100303659Y-133018567D01*
X100175742Y-133104038D01*
X100066959Y-133212821D01*
X99981488Y-133340738D01*
X99922614Y-133482871D01*
X99892601Y-133633758D01*
X99892601Y-133787602D01*
X99922614Y-133938489D01*
X99981488Y-134080622D01*
X100041128Y-134169880D01*
X96963272Y-134169880D01*
X95639160Y-132845769D01*
X95639160Y-129705675D01*
X95641607Y-129680829D01*
X95639160Y-129655983D01*
X95639160Y-129655976D01*
X95631838Y-129581637D01*
X95602905Y-129486255D01*
X95555919Y-129398351D01*
X95492687Y-129321303D01*
X95473375Y-129305454D01*
X95415640Y-129247719D01*
X95415640Y-126567311D01*
X96116585Y-126567311D01*
X96217227Y-126667953D01*
X96345144Y-126753424D01*
X96487277Y-126812298D01*
X96638164Y-126842311D01*
X96792008Y-126842311D01*
X96942895Y-126812298D01*
X97085028Y-126753424D01*
X97212945Y-126667953D01*
X97321728Y-126559170D01*
X97407199Y-126431253D01*
X97466073Y-126289120D01*
X97483712Y-126200441D01*
X97558824Y-126200441D01*
X97709711Y-126170428D01*
X97851844Y-126111554D01*
X97979761Y-126026083D01*
X98088544Y-125917300D01*
X98174015Y-125789383D01*
X98232889Y-125647250D01*
X98262902Y-125496363D01*
X98262902Y-125342519D01*
X98255853Y-125307081D01*
X98260462Y-125291887D01*
X98283598Y-125215617D01*
X98286466Y-125186493D01*
X98290920Y-125141277D01*
X98290920Y-125141270D01*
X98293367Y-125116424D01*
X98290920Y-125091578D01*
X98290920Y-124764245D01*
X98293367Y-124739399D01*
X98290920Y-124714553D01*
X98290920Y-124714547D01*
X98283598Y-124640208D01*
X98281655Y-124633800D01*
X98254665Y-124544825D01*
X98245953Y-124528527D01*
X98207679Y-124456921D01*
X98144447Y-124379873D01*
X98125140Y-124364028D01*
X97925750Y-124164638D01*
X102718920Y-124164638D01*
X102718920Y-124318482D01*
X102748933Y-124469369D01*
X102807807Y-124611502D01*
X102868921Y-124702966D01*
X102868920Y-131104130D01*
X102865868Y-131135120D01*
X102868920Y-131166110D01*
X102868920Y-131166117D01*
X102878050Y-131258817D01*
X102914131Y-131377761D01*
X102972724Y-131487380D01*
X103051577Y-131583463D01*
X103075657Y-131603225D01*
X103921273Y-132448842D01*
X103942733Y-132556729D01*
X104001607Y-132698862D01*
X104087078Y-132826779D01*
X104195861Y-132935562D01*
X104323778Y-133021033D01*
X104465911Y-133079907D01*
X104616798Y-133109920D01*
X104770642Y-133109920D01*
X104921529Y-133079907D01*
X105063662Y-133021033D01*
X105191579Y-132935562D01*
X105300362Y-132826779D01*
X105385833Y-132698862D01*
X105444707Y-132556729D01*
X105474720Y-132405842D01*
X105474720Y-132251998D01*
X105444707Y-132101111D01*
X105385833Y-131958978D01*
X105300362Y-131831061D01*
X105191579Y-131722278D01*
X105063662Y-131636807D01*
X104921529Y-131577933D01*
X104813642Y-131556473D01*
X104130920Y-130873752D01*
X104130920Y-124702965D01*
X104192033Y-124611502D01*
X104250907Y-124469369D01*
X104280920Y-124318482D01*
X104280920Y-124164638D01*
X104250907Y-124013751D01*
X104192033Y-123871618D01*
X104106562Y-123743701D01*
X103997779Y-123634918D01*
X103869862Y-123549447D01*
X103727729Y-123490573D01*
X103576842Y-123460560D01*
X103422998Y-123460560D01*
X103272111Y-123490573D01*
X103129978Y-123549447D01*
X103002061Y-123634918D01*
X102893278Y-123743701D01*
X102807807Y-123871618D01*
X102748933Y-124013751D01*
X102718920Y-124164638D01*
X97925750Y-124164638D01*
X97589897Y-123828786D01*
X97574048Y-123809474D01*
X97497000Y-123746242D01*
X97409096Y-123699256D01*
X97313714Y-123670323D01*
X97239375Y-123663001D01*
X97239367Y-123663001D01*
X97214521Y-123660554D01*
X97189675Y-123663001D01*
X95540459Y-123663001D01*
X95568720Y-123520922D01*
X95568720Y-123367078D01*
X95568477Y-123365857D01*
X95631898Y-123408233D01*
X95774031Y-123467107D01*
X95924918Y-123497120D01*
X96078762Y-123497120D01*
X96229649Y-123467107D01*
X96371782Y-123408233D01*
X96499699Y-123322762D01*
X96608482Y-123213979D01*
X96693953Y-123086062D01*
X96752827Y-122943929D01*
X96782840Y-122793042D01*
X96782840Y-122639198D01*
X96752827Y-122488311D01*
X96693953Y-122346178D01*
X96608482Y-122218261D01*
X96507840Y-122117619D01*
X96507840Y-110811351D01*
X97054712Y-110264480D01*
X97687501Y-110264480D01*
X97659240Y-110406558D01*
G37*
%TD.AperFunction*%
D23*
X125115301Y-110365122D02*
X125243218Y-110450593D01*
X125385351Y-110509467D01*
X125536238Y-110539480D01*
X125690082Y-110539480D01*
X125746560Y-110528246D01*
X125746560Y-110653282D01*
X125776573Y-110804169D01*
X125826727Y-110925251D01*
X124376731Y-110925251D01*
X124351877Y-110922803D01*
X124327023Y-110925251D01*
X124252684Y-110932573D01*
X124157302Y-110961506D01*
X124069398Y-111008492D01*
X124046060Y-111027645D01*
X124044673Y-111024298D01*
X123959202Y-110896381D01*
X123850419Y-110787598D01*
X123722502Y-110702127D01*
X123580369Y-110643253D01*
X123429482Y-110613240D01*
X123275638Y-110613240D01*
X123124751Y-110643253D01*
X122982618Y-110702127D01*
X122854701Y-110787598D01*
X122745918Y-110896381D01*
X122660447Y-111024298D01*
X122601573Y-111166431D01*
X122571560Y-111317318D01*
X122571560Y-111471162D01*
X122601573Y-111622049D01*
X122660447Y-111764182D01*
X122745918Y-111892099D01*
X122846561Y-111992742D01*
X122846561Y-121433024D01*
X122843662Y-121431087D01*
X122701529Y-121372213D01*
X122550642Y-121342200D01*
X122396798Y-121342200D01*
X122245911Y-121372213D01*
X122190852Y-121395019D01*
X122271753Y-121273942D01*
X122330627Y-121131809D01*
X122360640Y-120980922D01*
X122360640Y-120827078D01*
X122330627Y-120676191D01*
X122271753Y-120534058D01*
X122186282Y-120406141D01*
X122077499Y-120297358D01*
X121949582Y-120211887D01*
X121807449Y-120153013D01*
X121656562Y-120123000D01*
X121502718Y-120123000D01*
X121351831Y-120153013D01*
X121209698Y-120211887D01*
X121081781Y-120297358D01*
X120972998Y-120406141D01*
X120887527Y-120534058D01*
X120828653Y-120676191D01*
X120798640Y-120827078D01*
X120798640Y-120980922D01*
X120828653Y-121131809D01*
X120887527Y-121273942D01*
X120972998Y-121401859D01*
X121073641Y-121502502D01*
X121073641Y-125231261D01*
X120931562Y-125203000D01*
X120777718Y-125203000D01*
X120626831Y-125233013D01*
X120484698Y-125291887D01*
X120356781Y-125377358D01*
X120247998Y-125486141D01*
X120162527Y-125614058D01*
X120103653Y-125756191D01*
X120073640Y-125907078D01*
X120073640Y-126060922D01*
X120103653Y-126211809D01*
X120162527Y-126353942D01*
X120247998Y-126481859D01*
X120348641Y-126582502D01*
X120348640Y-132336328D01*
X118896362Y-133788607D01*
X118883393Y-133757298D01*
X118797922Y-133629381D01*
X118689139Y-133520598D01*
X118561222Y-133435127D01*
X118419089Y-133376253D01*
X118268202Y-133346240D01*
X118114358Y-133346240D01*
X117963471Y-133376253D01*
X117821338Y-133435127D01*
X117693421Y-133520598D01*
X117584638Y-133629381D01*
X117499167Y-133757298D01*
X117440293Y-133899431D01*
X117410280Y-134050318D01*
X117410280Y-134169880D01*
X105766543Y-134169880D01*
X105834719Y-134133439D01*
X105911767Y-134070207D01*
X105927616Y-134050895D01*
X106984660Y-132993852D01*
X107003967Y-132978007D01*
X107067199Y-132900959D01*
X107114185Y-132813055D01*
X107143118Y-132717673D01*
X107150440Y-132643334D01*
X107150440Y-132643327D01*
X107152887Y-132618481D01*
X107150440Y-132593635D01*
X107150440Y-126655479D01*
X107377280Y-126655479D01*
X107377280Y-126809323D01*
X107407293Y-126960210D01*
X107466167Y-127102343D01*
X107551638Y-127230260D01*
X107652280Y-127330902D01*
X107652281Y-127856344D01*
X107611585Y-127954592D01*
X107581572Y-128105479D01*
X107581572Y-128259323D01*
X107611585Y-128410210D01*
X107670459Y-128552343D01*
X107755930Y-128680260D01*
X107864713Y-128789043D01*
X107992630Y-128874514D01*
X108134763Y-128933388D01*
X108285650Y-128963401D01*
X108439494Y-128963401D01*
X108590381Y-128933388D01*
X108732514Y-128874514D01*
X108860431Y-128789043D01*
X108969214Y-128680260D01*
X109054685Y-128552343D01*
X109113559Y-128410210D01*
X109143572Y-128259323D01*
X109143572Y-128105479D01*
X109113559Y-127954592D01*
X109054685Y-127812459D01*
X108969214Y-127684542D01*
X108860431Y-127575759D01*
X108732514Y-127490288D01*
X108664280Y-127462024D01*
X108664280Y-127330902D01*
X108716504Y-127278678D01*
X108992720Y-127278678D01*
X108992720Y-127432522D01*
X109022733Y-127583409D01*
X109081607Y-127725542D01*
X109167078Y-127853459D01*
X109275861Y-127962242D01*
X109403778Y-128047713D01*
X109545911Y-128106587D01*
X109696798Y-128136600D01*
X109850642Y-128136600D01*
X110001529Y-128106587D01*
X110143662Y-128047713D01*
X110271579Y-127962242D01*
X110380362Y-127853459D01*
X110465833Y-127725542D01*
X110524707Y-127583409D01*
X110554720Y-127432522D01*
X110554720Y-127290192D01*
X110743860Y-127101052D01*
X110763167Y-127085207D01*
X110826399Y-127008159D01*
X110873385Y-126920255D01*
X110902318Y-126824873D01*
X110909640Y-126750534D01*
X110909640Y-126750527D01*
X110912087Y-126725681D01*
X110909640Y-126700835D01*
X110909640Y-112023221D01*
X111010282Y-111922579D01*
X111095753Y-111794662D01*
X111154627Y-111652529D01*
X111184640Y-111501642D01*
X111184640Y-111347798D01*
X111154627Y-111196911D01*
X111095753Y-111054778D01*
X111010282Y-110926861D01*
X110901499Y-110818078D01*
X110773582Y-110732607D01*
X110631449Y-110673733D01*
X110480562Y-110643720D01*
X110326718Y-110643720D01*
X110175831Y-110673733D01*
X110033698Y-110732607D01*
X109905781Y-110818078D01*
X109796998Y-110926861D01*
X109711527Y-111054778D01*
X109652653Y-111196911D01*
X109622640Y-111347798D01*
X109622640Y-111501642D01*
X109652653Y-111652529D01*
X109711527Y-111794662D01*
X109796998Y-111922579D01*
X109897641Y-112023222D01*
X109897640Y-126516088D01*
X109839128Y-126574600D01*
X109696798Y-126574600D01*
X109545911Y-126604613D01*
X109403778Y-126663487D01*
X109275861Y-126748958D01*
X109167078Y-126857741D01*
X109081607Y-126985658D01*
X109022733Y-127127791D01*
X108992720Y-127278678D01*
X108716504Y-127278678D01*
X108764922Y-127230260D01*
X108850393Y-127102343D01*
X108909267Y-126960210D01*
X108939280Y-126809323D01*
X108939280Y-126655479D01*
X108909267Y-126504592D01*
X108850393Y-126362459D01*
X108764922Y-126234542D01*
X108656139Y-126125759D01*
X108528222Y-126040288D01*
X108386089Y-125981414D01*
X108235202Y-125951401D01*
X108081358Y-125951401D01*
X107930471Y-125981414D01*
X107788338Y-126040288D01*
X107660421Y-126125759D01*
X107551638Y-126234542D01*
X107466167Y-126362459D01*
X107407293Y-126504592D01*
X107377280Y-126655479D01*
X107150440Y-126655479D01*
X107150440Y-113344405D01*
X107152887Y-113319559D01*
X107150440Y-113294713D01*
X107150440Y-113294706D01*
X107143118Y-113220367D01*
X107114185Y-113124985D01*
X107067199Y-113037081D01*
X107003967Y-112960033D01*
X106984660Y-112944188D01*
X104304951Y-110264480D01*
X125014659Y-110264480D01*
X125115301Y-110365122D01*
%TA.AperFunction,Conductor*%
D24*
G36*
X125115301Y-110365122D02*
G01*
X125243218Y-110450593D01*
X125385351Y-110509467D01*
X125536238Y-110539480D01*
X125690082Y-110539480D01*
X125746560Y-110528246D01*
X125746560Y-110653282D01*
X125776573Y-110804169D01*
X125826727Y-110925251D01*
X124376731Y-110925251D01*
X124351877Y-110922803D01*
X124327023Y-110925251D01*
X124252684Y-110932573D01*
X124157302Y-110961506D01*
X124069398Y-111008492D01*
X124046060Y-111027645D01*
X124044673Y-111024298D01*
X123959202Y-110896381D01*
X123850419Y-110787598D01*
X123722502Y-110702127D01*
X123580369Y-110643253D01*
X123429482Y-110613240D01*
X123275638Y-110613240D01*
X123124751Y-110643253D01*
X122982618Y-110702127D01*
X122854701Y-110787598D01*
X122745918Y-110896381D01*
X122660447Y-111024298D01*
X122601573Y-111166431D01*
X122571560Y-111317318D01*
X122571560Y-111471162D01*
X122601573Y-111622049D01*
X122660447Y-111764182D01*
X122745918Y-111892099D01*
X122846561Y-111992742D01*
X122846561Y-121433024D01*
X122843662Y-121431087D01*
X122701529Y-121372213D01*
X122550642Y-121342200D01*
X122396798Y-121342200D01*
X122245911Y-121372213D01*
X122190852Y-121395019D01*
X122271753Y-121273942D01*
X122330627Y-121131809D01*
X122360640Y-120980922D01*
X122360640Y-120827078D01*
X122330627Y-120676191D01*
X122271753Y-120534058D01*
X122186282Y-120406141D01*
X122077499Y-120297358D01*
X121949582Y-120211887D01*
X121807449Y-120153013D01*
X121656562Y-120123000D01*
X121502718Y-120123000D01*
X121351831Y-120153013D01*
X121209698Y-120211887D01*
X121081781Y-120297358D01*
X120972998Y-120406141D01*
X120887527Y-120534058D01*
X120828653Y-120676191D01*
X120798640Y-120827078D01*
X120798640Y-120980922D01*
X120828653Y-121131809D01*
X120887527Y-121273942D01*
X120972998Y-121401859D01*
X121073641Y-121502502D01*
X121073641Y-125231261D01*
X120931562Y-125203000D01*
X120777718Y-125203000D01*
X120626831Y-125233013D01*
X120484698Y-125291887D01*
X120356781Y-125377358D01*
X120247998Y-125486141D01*
X120162527Y-125614058D01*
X120103653Y-125756191D01*
X120073640Y-125907078D01*
X120073640Y-126060922D01*
X120103653Y-126211809D01*
X120162527Y-126353942D01*
X120247998Y-126481859D01*
X120348641Y-126582502D01*
X120348640Y-132336328D01*
X118896362Y-133788607D01*
X118883393Y-133757298D01*
X118797922Y-133629381D01*
X118689139Y-133520598D01*
X118561222Y-133435127D01*
X118419089Y-133376253D01*
X118268202Y-133346240D01*
X118114358Y-133346240D01*
X117963471Y-133376253D01*
X117821338Y-133435127D01*
X117693421Y-133520598D01*
X117584638Y-133629381D01*
X117499167Y-133757298D01*
X117440293Y-133899431D01*
X117410280Y-134050318D01*
X117410280Y-134169880D01*
X105766543Y-134169880D01*
X105834719Y-134133439D01*
X105911767Y-134070207D01*
X105927616Y-134050895D01*
X106984660Y-132993852D01*
X107003967Y-132978007D01*
X107067199Y-132900959D01*
X107114185Y-132813055D01*
X107143118Y-132717673D01*
X107150440Y-132643334D01*
X107150440Y-132643327D01*
X107152887Y-132618481D01*
X107150440Y-132593635D01*
X107150440Y-126655479D01*
X107377280Y-126655479D01*
X107377280Y-126809323D01*
X107407293Y-126960210D01*
X107466167Y-127102343D01*
X107551638Y-127230260D01*
X107652280Y-127330902D01*
X107652281Y-127856344D01*
X107611585Y-127954592D01*
X107581572Y-128105479D01*
X107581572Y-128259323D01*
X107611585Y-128410210D01*
X107670459Y-128552343D01*
X107755930Y-128680260D01*
X107864713Y-128789043D01*
X107992630Y-128874514D01*
X108134763Y-128933388D01*
X108285650Y-128963401D01*
X108439494Y-128963401D01*
X108590381Y-128933388D01*
X108732514Y-128874514D01*
X108860431Y-128789043D01*
X108969214Y-128680260D01*
X109054685Y-128552343D01*
X109113559Y-128410210D01*
X109143572Y-128259323D01*
X109143572Y-128105479D01*
X109113559Y-127954592D01*
X109054685Y-127812459D01*
X108969214Y-127684542D01*
X108860431Y-127575759D01*
X108732514Y-127490288D01*
X108664280Y-127462024D01*
X108664280Y-127330902D01*
X108716504Y-127278678D01*
X108992720Y-127278678D01*
X108992720Y-127432522D01*
X109022733Y-127583409D01*
X109081607Y-127725542D01*
X109167078Y-127853459D01*
X109275861Y-127962242D01*
X109403778Y-128047713D01*
X109545911Y-128106587D01*
X109696798Y-128136600D01*
X109850642Y-128136600D01*
X110001529Y-128106587D01*
X110143662Y-128047713D01*
X110271579Y-127962242D01*
X110380362Y-127853459D01*
X110465833Y-127725542D01*
X110524707Y-127583409D01*
X110554720Y-127432522D01*
X110554720Y-127290192D01*
X110743860Y-127101052D01*
X110763167Y-127085207D01*
X110826399Y-127008159D01*
X110873385Y-126920255D01*
X110902318Y-126824873D01*
X110909640Y-126750534D01*
X110909640Y-126750527D01*
X110912087Y-126725681D01*
X110909640Y-126700835D01*
X110909640Y-112023221D01*
X111010282Y-111922579D01*
X111095753Y-111794662D01*
X111154627Y-111652529D01*
X111184640Y-111501642D01*
X111184640Y-111347798D01*
X111154627Y-111196911D01*
X111095753Y-111054778D01*
X111010282Y-110926861D01*
X110901499Y-110818078D01*
X110773582Y-110732607D01*
X110631449Y-110673733D01*
X110480562Y-110643720D01*
X110326718Y-110643720D01*
X110175831Y-110673733D01*
X110033698Y-110732607D01*
X109905781Y-110818078D01*
X109796998Y-110926861D01*
X109711527Y-111054778D01*
X109652653Y-111196911D01*
X109622640Y-111347798D01*
X109622640Y-111501642D01*
X109652653Y-111652529D01*
X109711527Y-111794662D01*
X109796998Y-111922579D01*
X109897641Y-112023222D01*
X109897640Y-126516088D01*
X109839128Y-126574600D01*
X109696798Y-126574600D01*
X109545911Y-126604613D01*
X109403778Y-126663487D01*
X109275861Y-126748958D01*
X109167078Y-126857741D01*
X109081607Y-126985658D01*
X109022733Y-127127791D01*
X108992720Y-127278678D01*
X108716504Y-127278678D01*
X108764922Y-127230260D01*
X108850393Y-127102343D01*
X108909267Y-126960210D01*
X108939280Y-126809323D01*
X108939280Y-126655479D01*
X108909267Y-126504592D01*
X108850393Y-126362459D01*
X108764922Y-126234542D01*
X108656139Y-126125759D01*
X108528222Y-126040288D01*
X108386089Y-125981414D01*
X108235202Y-125951401D01*
X108081358Y-125951401D01*
X107930471Y-125981414D01*
X107788338Y-126040288D01*
X107660421Y-126125759D01*
X107551638Y-126234542D01*
X107466167Y-126362459D01*
X107407293Y-126504592D01*
X107377280Y-126655479D01*
X107150440Y-126655479D01*
X107150440Y-113344405D01*
X107152887Y-113319559D01*
X107150440Y-113294713D01*
X107150440Y-113294706D01*
X107143118Y-113220367D01*
X107114185Y-113124985D01*
X107067199Y-113037081D01*
X107003967Y-112960033D01*
X106984660Y-112944188D01*
X104304951Y-110264480D01*
X125014659Y-110264480D01*
X125115301Y-110365122D01*
G37*
%TD.AperFunction*%
%TD*%
M02*
