%TF.GenerationSoftware,KiCad,Pcbnew,(5.1.9)-1*%
%TF.CreationDate,2022-06-19T13:41:10+03:00*%
%TF.ProjectId,jantteri-motor-pwr,6a616e74-7465-4726-992d-6d6f746f722d,rev?*%
%TF.SameCoordinates,Original*%
%TF.FileFunction,Soldermask,Bot*%
%TF.FilePolarity,Negative*%
%FSLAX46Y46*%
G04 Gerber Fmt 4.6, Leading zero omitted, Abs format (unit mm)*
G04 Created by KiCad (PCBNEW (5.1.9)-1) date 2022-06-19 13:41:10*
%MOMM*%
%LPD*%
G01*
G04 APERTURE LIST*
%ADD10R,1.700000X1.700000*%
%ADD11O,1.700000X1.700000*%
%ADD12O,1.030000X1.730000*%
%ADD13C,2.374900*%
%ADD14C,0.990600*%
%ADD15O,2.100000X1.000000*%
%ADD16O,1.600000X1.000000*%
%ADD17C,0.650000*%
%ADD18R,2.000000X2.000000*%
%ADD19C,2.000000*%
%ADD20C,2.700000*%
G04 APERTURE END LIST*
D10*
%TO.C,J4*%
X72999600Y-129082800D03*
D11*
X72999600Y-126542800D03*
X72999600Y-124002800D03*
X72999600Y-121462800D03*
X72999600Y-118922800D03*
%TD*%
%TO.C,J1*%
G36*
G01*
X130139800Y-128123001D02*
X130139800Y-126892999D01*
G75*
G02*
X130389799Y-126643000I249999J0D01*
G01*
X130919801Y-126643000D01*
G75*
G02*
X131169800Y-126892999I0J-249999D01*
G01*
X131169800Y-128123001D01*
G75*
G02*
X130919801Y-128373000I-249999J0D01*
G01*
X130389799Y-128373000D01*
G75*
G02*
X130139800Y-128123001I0J249999D01*
G01*
G37*
D12*
X132154800Y-127508000D03*
X133654800Y-127508000D03*
%TD*%
%TO.C,J2*%
G36*
G01*
X130091800Y-117556601D02*
X130091800Y-116326599D01*
G75*
G02*
X130341799Y-116076600I249999J0D01*
G01*
X130871801Y-116076600D01*
G75*
G02*
X131121800Y-116326599I0J-249999D01*
G01*
X131121800Y-117556601D01*
G75*
G02*
X130871801Y-117806600I-249999J0D01*
G01*
X130341799Y-117806600D01*
G75*
G02*
X130091800Y-117556601I0J249999D01*
G01*
G37*
X132106800Y-116941600D03*
X133606800Y-116941600D03*
X135106800Y-116941600D03*
%TD*%
%TO.C,J3*%
G36*
G01*
X130041000Y-112273401D02*
X130041000Y-111043399D01*
G75*
G02*
X130290999Y-110793400I249999J0D01*
G01*
X130821001Y-110793400D01*
G75*
G02*
X131071000Y-111043399I0J-249999D01*
G01*
X131071000Y-112273401D01*
G75*
G02*
X130821001Y-112523400I-249999J0D01*
G01*
X130290999Y-112523400D01*
G75*
G02*
X130041000Y-112273401I0J249999D01*
G01*
G37*
X132056000Y-111658400D03*
X133556000Y-111658400D03*
X135056000Y-111658400D03*
%TD*%
%TO.C,J6*%
X135130800Y-122123200D03*
X133630800Y-122123200D03*
X132130800Y-122123200D03*
G36*
G01*
X130115800Y-122738201D02*
X130115800Y-121508199D01*
G75*
G02*
X130365799Y-121258200I249999J0D01*
G01*
X130895801Y-121258200D01*
G75*
G02*
X131145800Y-121508199I0J-249999D01*
G01*
X131145800Y-122738201D01*
G75*
G02*
X130895801Y-122988200I-249999J0D01*
G01*
X130365799Y-122988200D01*
G75*
G02*
X130115800Y-122738201I0J249999D01*
G01*
G37*
%TD*%
D13*
%TO.C,J8*%
X80314800Y-108000800D03*
X85394800Y-108000800D03*
X85394800Y-111175800D03*
X80314800Y-111175800D03*
D14*
X83870800Y-113080800D03*
X81838800Y-113080800D03*
X82854800Y-108000800D03*
%TD*%
D15*
%TO.C,J9*%
X69348200Y-119682800D03*
X69348200Y-128322800D03*
D16*
X65168200Y-119682800D03*
X65168200Y-128322800D03*
D17*
X68848200Y-126892800D03*
X68848200Y-121112800D03*
%TD*%
D18*
%TO.C,C16*%
X177110400Y-110490000D03*
D19*
X172110400Y-110490000D03*
%TD*%
D20*
%TO.C,J5*%
X186182000Y-127457200D03*
G36*
G01*
X187281999Y-132767200D02*
X185082001Y-132767200D01*
G75*
G02*
X184832000Y-132517199I0J250001D01*
G01*
X184832000Y-130317201D01*
G75*
G02*
X185082001Y-130067200I250001J0D01*
G01*
X187281999Y-130067200D01*
G75*
G02*
X187532000Y-130317201I0J-250001D01*
G01*
X187532000Y-132517199D01*
G75*
G02*
X187281999Y-132767200I-250001J0D01*
G01*
G37*
%TD*%
%TO.C,J7*%
G36*
G01*
X187281999Y-121847600D02*
X185082001Y-121847600D01*
G75*
G02*
X184832000Y-121597599I0J250001D01*
G01*
X184832000Y-119397601D01*
G75*
G02*
X185082001Y-119147600I250001J0D01*
G01*
X187281999Y-119147600D01*
G75*
G02*
X187532000Y-119397601I0J-250001D01*
G01*
X187532000Y-121597599D01*
G75*
G02*
X187281999Y-121847600I-250001J0D01*
G01*
G37*
X186182000Y-116537600D03*
%TD*%
M02*
