%TF.GenerationSoftware,KiCad,Pcbnew,(5.1.9)-1*%
%TF.CreationDate,2021-09-29T18:46:32+03:00*%
%TF.ProjectId,jantteri-motor-pwr,6a616e74-7465-4726-992d-6d6f746f722d,rev?*%
%TF.SameCoordinates,Original*%
%TF.FileFunction,Soldermask,Top*%
%TF.FilePolarity,Negative*%
%FSLAX46Y46*%
G04 Gerber Fmt 4.6, Leading zero omitted, Abs format (unit mm)*
G04 Created by KiCad (PCBNEW (5.1.9)-1) date 2021-09-29 18:46:32*
%MOMM*%
%LPD*%
G01*
G04 APERTURE LIST*
%ADD10C,1.524000*%
%ADD11R,2.000000X2.000000*%
%ADD12C,2.000000*%
%ADD13R,1.100000X1.100000*%
%ADD14C,0.800000*%
%ADD15C,6.400000*%
%ADD16O,1.030000X1.730000*%
%ADD17R,1.000000X1.000000*%
%ADD18O,1.000000X1.000000*%
%ADD19O,1.730000X1.030000*%
%ADD20R,1.700000X1.700000*%
%ADD21O,1.700000X1.700000*%
%ADD22R,2.900000X5.400000*%
%ADD23R,0.800000X0.900000*%
%ADD24R,0.900000X0.800000*%
%ADD25R,1.680000X1.880000*%
%ADD26R,3.800000X2.000000*%
%ADD27R,1.500000X2.000000*%
%ADD28R,1.880000X1.680000*%
%ADD29R,1.100000X4.600000*%
%ADD30R,10.800000X9.400000*%
%ADD31R,1.050000X0.450000*%
%ADD32R,1.470000X0.895000*%
%ADD33R,1.200000X1.400000*%
G04 APERTURE END LIST*
D10*
%TO.C,U1*%
X91757500Y-100457000D03*
X91757500Y-102997000D03*
X91757500Y-105537000D03*
X91757500Y-108077000D03*
X91757500Y-110617000D03*
X91757500Y-113157000D03*
X91757500Y-115697000D03*
X91757500Y-118237000D03*
X91757500Y-120777000D03*
X91757500Y-123317000D03*
X114617500Y-100457000D03*
X114617500Y-102997000D03*
X114617500Y-105537000D03*
X114617500Y-108077000D03*
X114617500Y-110617000D03*
X114617500Y-113157000D03*
X114617500Y-115697000D03*
X114617500Y-118237000D03*
X114617500Y-120777000D03*
X114617500Y-123317000D03*
%TD*%
%TO.C,C1*%
G36*
G01*
X97469000Y-102758001D02*
X97469000Y-101457999D01*
G75*
G02*
X97718999Y-101208000I249999J0D01*
G01*
X98369001Y-101208000D01*
G75*
G02*
X98619000Y-101457999I0J-249999D01*
G01*
X98619000Y-102758001D01*
G75*
G02*
X98369001Y-103008000I-249999J0D01*
G01*
X97718999Y-103008000D01*
G75*
G02*
X97469000Y-102758001I0J249999D01*
G01*
G37*
G36*
G01*
X100419000Y-102758001D02*
X100419000Y-101457999D01*
G75*
G02*
X100668999Y-101208000I249999J0D01*
G01*
X101319001Y-101208000D01*
G75*
G02*
X101569000Y-101457999I0J-249999D01*
G01*
X101569000Y-102758001D01*
G75*
G02*
X101319001Y-103008000I-249999J0D01*
G01*
X100668999Y-103008000D01*
G75*
G02*
X100419000Y-102758001I0J249999D01*
G01*
G37*
%TD*%
%TO.C,C2*%
G36*
G01*
X99118000Y-104390000D02*
X99118000Y-103890000D01*
G75*
G02*
X99343000Y-103665000I225000J0D01*
G01*
X99793000Y-103665000D01*
G75*
G02*
X100018000Y-103890000I0J-225000D01*
G01*
X100018000Y-104390000D01*
G75*
G02*
X99793000Y-104615000I-225000J0D01*
G01*
X99343000Y-104615000D01*
G75*
G02*
X99118000Y-104390000I0J225000D01*
G01*
G37*
G36*
G01*
X97568000Y-104390000D02*
X97568000Y-103890000D01*
G75*
G02*
X97793000Y-103665000I225000J0D01*
G01*
X98243000Y-103665000D01*
G75*
G02*
X98468000Y-103890000I0J-225000D01*
G01*
X98468000Y-104390000D01*
G75*
G02*
X98243000Y-104615000I-225000J0D01*
G01*
X97793000Y-104615000D01*
G75*
G02*
X97568000Y-104390000I0J225000D01*
G01*
G37*
%TD*%
%TO.C,C3*%
G36*
G01*
X97568000Y-106041000D02*
X97568000Y-105541000D01*
G75*
G02*
X97793000Y-105316000I225000J0D01*
G01*
X98243000Y-105316000D01*
G75*
G02*
X98468000Y-105541000I0J-225000D01*
G01*
X98468000Y-106041000D01*
G75*
G02*
X98243000Y-106266000I-225000J0D01*
G01*
X97793000Y-106266000D01*
G75*
G02*
X97568000Y-106041000I0J225000D01*
G01*
G37*
G36*
G01*
X99118000Y-106041000D02*
X99118000Y-105541000D01*
G75*
G02*
X99343000Y-105316000I225000J0D01*
G01*
X99793000Y-105316000D01*
G75*
G02*
X100018000Y-105541000I0J-225000D01*
G01*
X100018000Y-106041000D01*
G75*
G02*
X99793000Y-106266000I-225000J0D01*
G01*
X99343000Y-106266000D01*
G75*
G02*
X99118000Y-106041000I0J225000D01*
G01*
G37*
%TD*%
%TO.C,C4*%
G36*
G01*
X97568000Y-107692000D02*
X97568000Y-107192000D01*
G75*
G02*
X97793000Y-106967000I225000J0D01*
G01*
X98243000Y-106967000D01*
G75*
G02*
X98468000Y-107192000I0J-225000D01*
G01*
X98468000Y-107692000D01*
G75*
G02*
X98243000Y-107917000I-225000J0D01*
G01*
X97793000Y-107917000D01*
G75*
G02*
X97568000Y-107692000I0J225000D01*
G01*
G37*
G36*
G01*
X99118000Y-107692000D02*
X99118000Y-107192000D01*
G75*
G02*
X99343000Y-106967000I225000J0D01*
G01*
X99793000Y-106967000D01*
G75*
G02*
X100018000Y-107192000I0J-225000D01*
G01*
X100018000Y-107692000D01*
G75*
G02*
X99793000Y-107917000I-225000J0D01*
G01*
X99343000Y-107917000D01*
G75*
G02*
X99118000Y-107692000I0J225000D01*
G01*
G37*
%TD*%
%TO.C,C5*%
G36*
G01*
X96488000Y-109478000D02*
X96488000Y-109978000D01*
G75*
G02*
X96263000Y-110203000I-225000J0D01*
G01*
X95813000Y-110203000D01*
G75*
G02*
X95588000Y-109978000I0J225000D01*
G01*
X95588000Y-109478000D01*
G75*
G02*
X95813000Y-109253000I225000J0D01*
G01*
X96263000Y-109253000D01*
G75*
G02*
X96488000Y-109478000I0J-225000D01*
G01*
G37*
G36*
G01*
X94938000Y-109478000D02*
X94938000Y-109978000D01*
G75*
G02*
X94713000Y-110203000I-225000J0D01*
G01*
X94263000Y-110203000D01*
G75*
G02*
X94038000Y-109978000I0J225000D01*
G01*
X94038000Y-109478000D01*
G75*
G02*
X94263000Y-109253000I225000J0D01*
G01*
X94713000Y-109253000D01*
G75*
G02*
X94938000Y-109478000I0J-225000D01*
G01*
G37*
%TD*%
%TO.C,C6*%
G36*
G01*
X94912000Y-107827000D02*
X94912000Y-108327000D01*
G75*
G02*
X94687000Y-108552000I-225000J0D01*
G01*
X94237000Y-108552000D01*
G75*
G02*
X94012000Y-108327000I0J225000D01*
G01*
X94012000Y-107827000D01*
G75*
G02*
X94237000Y-107602000I225000J0D01*
G01*
X94687000Y-107602000D01*
G75*
G02*
X94912000Y-107827000I0J-225000D01*
G01*
G37*
G36*
G01*
X96462000Y-107827000D02*
X96462000Y-108327000D01*
G75*
G02*
X96237000Y-108552000I-225000J0D01*
G01*
X95787000Y-108552000D01*
G75*
G02*
X95562000Y-108327000I0J225000D01*
G01*
X95562000Y-107827000D01*
G75*
G02*
X95787000Y-107602000I225000J0D01*
G01*
X96237000Y-107602000D01*
G75*
G02*
X96462000Y-107827000I0J-225000D01*
G01*
G37*
%TD*%
%TO.C,C7*%
G36*
G01*
X94938000Y-106176000D02*
X94938000Y-106676000D01*
G75*
G02*
X94713000Y-106901000I-225000J0D01*
G01*
X94263000Y-106901000D01*
G75*
G02*
X94038000Y-106676000I0J225000D01*
G01*
X94038000Y-106176000D01*
G75*
G02*
X94263000Y-105951000I225000J0D01*
G01*
X94713000Y-105951000D01*
G75*
G02*
X94938000Y-106176000I0J-225000D01*
G01*
G37*
G36*
G01*
X96488000Y-106176000D02*
X96488000Y-106676000D01*
G75*
G02*
X96263000Y-106901000I-225000J0D01*
G01*
X95813000Y-106901000D01*
G75*
G02*
X95588000Y-106676000I0J225000D01*
G01*
X95588000Y-106176000D01*
G75*
G02*
X95813000Y-105951000I225000J0D01*
G01*
X96263000Y-105951000D01*
G75*
G02*
X96488000Y-106176000I0J-225000D01*
G01*
G37*
%TD*%
%TO.C,C8*%
G36*
G01*
X94064000Y-112425000D02*
X94404000Y-112425000D01*
G75*
G02*
X94544000Y-112565000I0J-140000D01*
G01*
X94544000Y-112845000D01*
G75*
G02*
X94404000Y-112985000I-140000J0D01*
G01*
X94064000Y-112985000D01*
G75*
G02*
X93924000Y-112845000I0J140000D01*
G01*
X93924000Y-112565000D01*
G75*
G02*
X94064000Y-112425000I140000J0D01*
G01*
G37*
G36*
G01*
X94064000Y-113385000D02*
X94404000Y-113385000D01*
G75*
G02*
X94544000Y-113525000I0J-140000D01*
G01*
X94544000Y-113805000D01*
G75*
G02*
X94404000Y-113945000I-140000J0D01*
G01*
X94064000Y-113945000D01*
G75*
G02*
X93924000Y-113805000I0J140000D01*
G01*
X93924000Y-113525000D01*
G75*
G02*
X94064000Y-113385000I140000J0D01*
G01*
G37*
%TD*%
%TO.C,C9*%
G36*
G01*
X96602000Y-116035000D02*
X96602000Y-116375000D01*
G75*
G02*
X96462000Y-116515000I-140000J0D01*
G01*
X96182000Y-116515000D01*
G75*
G02*
X96042000Y-116375000I0J140000D01*
G01*
X96042000Y-116035000D01*
G75*
G02*
X96182000Y-115895000I140000J0D01*
G01*
X96462000Y-115895000D01*
G75*
G02*
X96602000Y-116035000I0J-140000D01*
G01*
G37*
G36*
G01*
X97562000Y-116035000D02*
X97562000Y-116375000D01*
G75*
G02*
X97422000Y-116515000I-140000J0D01*
G01*
X97142000Y-116515000D01*
G75*
G02*
X97002000Y-116375000I0J140000D01*
G01*
X97002000Y-116035000D01*
G75*
G02*
X97142000Y-115895000I140000J0D01*
G01*
X97422000Y-115895000D01*
G75*
G02*
X97562000Y-116035000I0J-140000D01*
G01*
G37*
%TD*%
%TO.C,C10*%
G36*
G01*
X92777500Y-87650500D02*
X93277500Y-87650500D01*
G75*
G02*
X93502500Y-87875500I0J-225000D01*
G01*
X93502500Y-88325500D01*
G75*
G02*
X93277500Y-88550500I-225000J0D01*
G01*
X92777500Y-88550500D01*
G75*
G02*
X92552500Y-88325500I0J225000D01*
G01*
X92552500Y-87875500D01*
G75*
G02*
X92777500Y-87650500I225000J0D01*
G01*
G37*
G36*
G01*
X92777500Y-86100500D02*
X93277500Y-86100500D01*
G75*
G02*
X93502500Y-86325500I0J-225000D01*
G01*
X93502500Y-86775500D01*
G75*
G02*
X93277500Y-87000500I-225000J0D01*
G01*
X92777500Y-87000500D01*
G75*
G02*
X92552500Y-86775500I0J225000D01*
G01*
X92552500Y-86325500D01*
G75*
G02*
X92777500Y-86100500I225000J0D01*
G01*
G37*
%TD*%
%TO.C,C11*%
G36*
G01*
X97414500Y-89666000D02*
X97414500Y-90166000D01*
G75*
G02*
X97189500Y-90391000I-225000J0D01*
G01*
X96739500Y-90391000D01*
G75*
G02*
X96514500Y-90166000I0J225000D01*
G01*
X96514500Y-89666000D01*
G75*
G02*
X96739500Y-89441000I225000J0D01*
G01*
X97189500Y-89441000D01*
G75*
G02*
X97414500Y-89666000I0J-225000D01*
G01*
G37*
G36*
G01*
X95864500Y-89666000D02*
X95864500Y-90166000D01*
G75*
G02*
X95639500Y-90391000I-225000J0D01*
G01*
X95189500Y-90391000D01*
G75*
G02*
X94964500Y-90166000I0J225000D01*
G01*
X94964500Y-89666000D01*
G75*
G02*
X95189500Y-89441000I225000J0D01*
G01*
X95639500Y-89441000D01*
G75*
G02*
X95864500Y-89666000I0J-225000D01*
G01*
G37*
%TD*%
%TO.C,C12*%
G36*
G01*
X102585500Y-88776000D02*
X103535500Y-88776000D01*
G75*
G02*
X103785500Y-89026000I0J-250000D01*
G01*
X103785500Y-89526000D01*
G75*
G02*
X103535500Y-89776000I-250000J0D01*
G01*
X102585500Y-89776000D01*
G75*
G02*
X102335500Y-89526000I0J250000D01*
G01*
X102335500Y-89026000D01*
G75*
G02*
X102585500Y-88776000I250000J0D01*
G01*
G37*
G36*
G01*
X102585500Y-86876000D02*
X103535500Y-86876000D01*
G75*
G02*
X103785500Y-87126000I0J-250000D01*
G01*
X103785500Y-87626000D01*
G75*
G02*
X103535500Y-87876000I-250000J0D01*
G01*
X102585500Y-87876000D01*
G75*
G02*
X102335500Y-87626000I0J250000D01*
G01*
X102335500Y-87126000D01*
G75*
G02*
X102585500Y-86876000I250000J0D01*
G01*
G37*
%TD*%
%TO.C,C13*%
G36*
G01*
X102458500Y-100020500D02*
X103408500Y-100020500D01*
G75*
G02*
X103658500Y-100270500I0J-250000D01*
G01*
X103658500Y-100770500D01*
G75*
G02*
X103408500Y-101020500I-250000J0D01*
G01*
X102458500Y-101020500D01*
G75*
G02*
X102208500Y-100770500I0J250000D01*
G01*
X102208500Y-100270500D01*
G75*
G02*
X102458500Y-100020500I250000J0D01*
G01*
G37*
G36*
G01*
X102458500Y-101920500D02*
X103408500Y-101920500D01*
G75*
G02*
X103658500Y-102170500I0J-250000D01*
G01*
X103658500Y-102670500D01*
G75*
G02*
X103408500Y-102920500I-250000J0D01*
G01*
X102458500Y-102920500D01*
G75*
G02*
X102208500Y-102670500I0J250000D01*
G01*
X102208500Y-102170500D01*
G75*
G02*
X102458500Y-101920500I250000J0D01*
G01*
G37*
%TD*%
%TO.C,C14*%
G36*
G01*
X108605500Y-97532000D02*
X108605500Y-97032000D01*
G75*
G02*
X108830500Y-96807000I225000J0D01*
G01*
X109280500Y-96807000D01*
G75*
G02*
X109505500Y-97032000I0J-225000D01*
G01*
X109505500Y-97532000D01*
G75*
G02*
X109280500Y-97757000I-225000J0D01*
G01*
X108830500Y-97757000D01*
G75*
G02*
X108605500Y-97532000I0J225000D01*
G01*
G37*
G36*
G01*
X107055500Y-97532000D02*
X107055500Y-97032000D01*
G75*
G02*
X107280500Y-96807000I225000J0D01*
G01*
X107730500Y-96807000D01*
G75*
G02*
X107955500Y-97032000I0J-225000D01*
G01*
X107955500Y-97532000D01*
G75*
G02*
X107730500Y-97757000I-225000J0D01*
G01*
X107280500Y-97757000D01*
G75*
G02*
X107055500Y-97532000I0J225000D01*
G01*
G37*
%TD*%
%TO.C,C15*%
G36*
G01*
X106866500Y-91395000D02*
X106366500Y-91395000D01*
G75*
G02*
X106141500Y-91170000I0J225000D01*
G01*
X106141500Y-90720000D01*
G75*
G02*
X106366500Y-90495000I225000J0D01*
G01*
X106866500Y-90495000D01*
G75*
G02*
X107091500Y-90720000I0J-225000D01*
G01*
X107091500Y-91170000D01*
G75*
G02*
X106866500Y-91395000I-225000J0D01*
G01*
G37*
G36*
G01*
X106866500Y-89845000D02*
X106366500Y-89845000D01*
G75*
G02*
X106141500Y-89620000I0J225000D01*
G01*
X106141500Y-89170000D01*
G75*
G02*
X106366500Y-88945000I225000J0D01*
G01*
X106866500Y-88945000D01*
G75*
G02*
X107091500Y-89170000I0J-225000D01*
G01*
X107091500Y-89620000D01*
G75*
G02*
X106866500Y-89845000I-225000J0D01*
G01*
G37*
%TD*%
D11*
%TO.C,C16*%
X108331000Y-83820000D03*
D12*
X113331000Y-83820000D03*
%TD*%
%TO.C,C17*%
G36*
G01*
X92858500Y-66983500D02*
X92858500Y-69033500D01*
G75*
G02*
X92608500Y-69283500I-250000J0D01*
G01*
X91033500Y-69283500D01*
G75*
G02*
X90783500Y-69033500I0J250000D01*
G01*
X90783500Y-66983500D01*
G75*
G02*
X91033500Y-66733500I250000J0D01*
G01*
X92608500Y-66733500D01*
G75*
G02*
X92858500Y-66983500I0J-250000D01*
G01*
G37*
G36*
G01*
X86633500Y-66983500D02*
X86633500Y-69033500D01*
G75*
G02*
X86383500Y-69283500I-250000J0D01*
G01*
X84808500Y-69283500D01*
G75*
G02*
X84558500Y-69033500I0J250000D01*
G01*
X84558500Y-66983500D01*
G75*
G02*
X84808500Y-66733500I250000J0D01*
G01*
X86383500Y-66733500D01*
G75*
G02*
X86633500Y-66983500I0J-250000D01*
G01*
G37*
%TD*%
%TO.C,C18*%
G36*
G01*
X97476500Y-141446500D02*
X97976500Y-141446500D01*
G75*
G02*
X98201500Y-141671500I0J-225000D01*
G01*
X98201500Y-142121500D01*
G75*
G02*
X97976500Y-142346500I-225000J0D01*
G01*
X97476500Y-142346500D01*
G75*
G02*
X97251500Y-142121500I0J225000D01*
G01*
X97251500Y-141671500D01*
G75*
G02*
X97476500Y-141446500I225000J0D01*
G01*
G37*
G36*
G01*
X97476500Y-142996500D02*
X97976500Y-142996500D01*
G75*
G02*
X98201500Y-143221500I0J-225000D01*
G01*
X98201500Y-143671500D01*
G75*
G02*
X97976500Y-143896500I-225000J0D01*
G01*
X97476500Y-143896500D01*
G75*
G02*
X97251500Y-143671500I0J225000D01*
G01*
X97251500Y-143221500D01*
G75*
G02*
X97476500Y-142996500I225000J0D01*
G01*
G37*
%TD*%
%TO.C,C19*%
G36*
G01*
X99156500Y-143132000D02*
X100106500Y-143132000D01*
G75*
G02*
X100356500Y-143382000I0J-250000D01*
G01*
X100356500Y-143882000D01*
G75*
G02*
X100106500Y-144132000I-250000J0D01*
G01*
X99156500Y-144132000D01*
G75*
G02*
X98906500Y-143882000I0J250000D01*
G01*
X98906500Y-143382000D01*
G75*
G02*
X99156500Y-143132000I250000J0D01*
G01*
G37*
G36*
G01*
X99156500Y-141232000D02*
X100106500Y-141232000D01*
G75*
G02*
X100356500Y-141482000I0J-250000D01*
G01*
X100356500Y-141982000D01*
G75*
G02*
X100106500Y-142232000I-250000J0D01*
G01*
X99156500Y-142232000D01*
G75*
G02*
X98906500Y-141982000I0J250000D01*
G01*
X98906500Y-141482000D01*
G75*
G02*
X99156500Y-141232000I250000J0D01*
G01*
G37*
%TD*%
%TO.C,C20*%
G36*
G01*
X92298500Y-146507500D02*
X93248500Y-146507500D01*
G75*
G02*
X93498500Y-146757500I0J-250000D01*
G01*
X93498500Y-147257500D01*
G75*
G02*
X93248500Y-147507500I-250000J0D01*
G01*
X92298500Y-147507500D01*
G75*
G02*
X92048500Y-147257500I0J250000D01*
G01*
X92048500Y-146757500D01*
G75*
G02*
X92298500Y-146507500I250000J0D01*
G01*
G37*
G36*
G01*
X92298500Y-148407500D02*
X93248500Y-148407500D01*
G75*
G02*
X93498500Y-148657500I0J-250000D01*
G01*
X93498500Y-149157500D01*
G75*
G02*
X93248500Y-149407500I-250000J0D01*
G01*
X92298500Y-149407500D01*
G75*
G02*
X92048500Y-149157500I0J250000D01*
G01*
X92048500Y-148657500D01*
G75*
G02*
X92298500Y-148407500I250000J0D01*
G01*
G37*
%TD*%
%TO.C,C21*%
G36*
G01*
X85694500Y-143713500D02*
X86644500Y-143713500D01*
G75*
G02*
X86894500Y-143963500I0J-250000D01*
G01*
X86894500Y-144463500D01*
G75*
G02*
X86644500Y-144713500I-250000J0D01*
G01*
X85694500Y-144713500D01*
G75*
G02*
X85444500Y-144463500I0J250000D01*
G01*
X85444500Y-143963500D01*
G75*
G02*
X85694500Y-143713500I250000J0D01*
G01*
G37*
G36*
G01*
X85694500Y-145613500D02*
X86644500Y-145613500D01*
G75*
G02*
X86894500Y-145863500I0J-250000D01*
G01*
X86894500Y-146363500D01*
G75*
G02*
X86644500Y-146613500I-250000J0D01*
G01*
X85694500Y-146613500D01*
G75*
G02*
X85444500Y-146363500I0J250000D01*
G01*
X85444500Y-145863500D01*
G75*
G02*
X85694500Y-145613500I250000J0D01*
G01*
G37*
%TD*%
%TO.C,D1*%
G36*
G01*
X87192500Y-142496250D02*
X87192500Y-141983750D01*
G75*
G02*
X87411250Y-141765000I218750J0D01*
G01*
X87848750Y-141765000D01*
G75*
G02*
X88067500Y-141983750I0J-218750D01*
G01*
X88067500Y-142496250D01*
G75*
G02*
X87848750Y-142715000I-218750J0D01*
G01*
X87411250Y-142715000D01*
G75*
G02*
X87192500Y-142496250I0J218750D01*
G01*
G37*
G36*
G01*
X88767500Y-142496250D02*
X88767500Y-141983750D01*
G75*
G02*
X88986250Y-141765000I218750J0D01*
G01*
X89423750Y-141765000D01*
G75*
G02*
X89642500Y-141983750I0J-218750D01*
G01*
X89642500Y-142496250D01*
G75*
G02*
X89423750Y-142715000I-218750J0D01*
G01*
X88986250Y-142715000D01*
G75*
G02*
X88767500Y-142496250I0J218750D01*
G01*
G37*
%TD*%
D13*
%TO.C,D2*%
X97085500Y-64516000D03*
X99885500Y-64516000D03*
%TD*%
%TO.C,FB1*%
G36*
G01*
X103251250Y-65368500D02*
X102488750Y-65368500D01*
G75*
G02*
X102270000Y-65149750I0J218750D01*
G01*
X102270000Y-64712250D01*
G75*
G02*
X102488750Y-64493500I218750J0D01*
G01*
X103251250Y-64493500D01*
G75*
G02*
X103470000Y-64712250I0J-218750D01*
G01*
X103470000Y-65149750D01*
G75*
G02*
X103251250Y-65368500I-218750J0D01*
G01*
G37*
G36*
G01*
X103251250Y-67493500D02*
X102488750Y-67493500D01*
G75*
G02*
X102270000Y-67274750I0J218750D01*
G01*
X102270000Y-66837250D01*
G75*
G02*
X102488750Y-66618500I218750J0D01*
G01*
X103251250Y-66618500D01*
G75*
G02*
X103470000Y-66837250I0J-218750D01*
G01*
X103470000Y-67274750D01*
G75*
G02*
X103251250Y-67493500I-218750J0D01*
G01*
G37*
%TD*%
D14*
%TO.C,H1*%
X81580056Y-147654944D03*
X79883000Y-146952000D03*
X78185944Y-147654944D03*
X77483000Y-149352000D03*
X78185944Y-151049056D03*
X79883000Y-151752000D03*
X81580056Y-151049056D03*
X82283000Y-149352000D03*
D15*
X79883000Y-149352000D03*
%TD*%
D14*
%TO.C,H2*%
X114473056Y-64596944D03*
X112776000Y-63894000D03*
X111078944Y-64596944D03*
X110376000Y-66294000D03*
X111078944Y-67991056D03*
X112776000Y-68694000D03*
X114473056Y-67991056D03*
X115176000Y-66294000D03*
D15*
X112776000Y-66294000D03*
%TD*%
%TO.C,H3*%
X79883000Y-66294000D03*
D14*
X82283000Y-66294000D03*
X81580056Y-67991056D03*
X79883000Y-68694000D03*
X78185944Y-67991056D03*
X77483000Y-66294000D03*
X78185944Y-64596944D03*
X79883000Y-63894000D03*
X81580056Y-64596944D03*
%TD*%
D15*
%TO.C,H4*%
X112776000Y-149352000D03*
D14*
X115176000Y-149352000D03*
X114473056Y-151049056D03*
X112776000Y-151752000D03*
X111078944Y-151049056D03*
X110376000Y-149352000D03*
X111078944Y-147654944D03*
X112776000Y-146952000D03*
X114473056Y-147654944D03*
%TD*%
%TO.C,J1*%
G36*
G01*
X105880000Y-140759501D02*
X105880000Y-139529499D01*
G75*
G02*
X106129999Y-139279500I249999J0D01*
G01*
X106660001Y-139279500D01*
G75*
G02*
X106910000Y-139529499I0J-249999D01*
G01*
X106910000Y-140759501D01*
G75*
G02*
X106660001Y-141009500I-249999J0D01*
G01*
X106129999Y-141009500D01*
G75*
G02*
X105880000Y-140759501I0J249999D01*
G01*
G37*
D16*
X107895000Y-140144500D03*
X109395000Y-140144500D03*
X110895000Y-140144500D03*
X112395000Y-140144500D03*
X113895000Y-140144500D03*
%TD*%
D17*
%TO.C,J2*%
X108267500Y-128270000D03*
D18*
X109537500Y-128270000D03*
X108267500Y-129540000D03*
X109537500Y-129540000D03*
X108267500Y-130810000D03*
X109537500Y-130810000D03*
X108267500Y-132080000D03*
X109537500Y-132080000D03*
X108267500Y-133350000D03*
X109537500Y-133350000D03*
%TD*%
%TO.C,J3*%
G36*
G01*
X112946501Y-96455000D02*
X111716499Y-96455000D01*
G75*
G02*
X111466500Y-96205001I0J249999D01*
G01*
X111466500Y-95674999D01*
G75*
G02*
X111716499Y-95425000I249999J0D01*
G01*
X112946501Y-95425000D01*
G75*
G02*
X113196500Y-95674999I0J-249999D01*
G01*
X113196500Y-96205001D01*
G75*
G02*
X112946501Y-96455000I-249999J0D01*
G01*
G37*
D19*
X112331500Y-94440000D03*
X112331500Y-92940000D03*
X112331500Y-91440000D03*
%TD*%
%TO.C,J4*%
G36*
G01*
X86162500Y-149776501D02*
X86162500Y-148546499D01*
G75*
G02*
X86412499Y-148296500I249999J0D01*
G01*
X86942501Y-148296500D01*
G75*
G02*
X87192500Y-148546499I0J-249999D01*
G01*
X87192500Y-149776501D01*
G75*
G02*
X86942501Y-150026500I-249999J0D01*
G01*
X86412499Y-150026500D01*
G75*
G02*
X86162500Y-149776501I0J249999D01*
G01*
G37*
D16*
X88177500Y-149161500D03*
X89677500Y-149161500D03*
%TD*%
D20*
%TO.C,J5*%
X111315500Y-72199500D03*
D21*
X113855500Y-72199500D03*
%TD*%
D20*
%TO.C,J6*%
X113855500Y-76263500D03*
D21*
X111315500Y-76263500D03*
X108775500Y-76263500D03*
%TD*%
%TO.C,J7*%
X106553000Y-147447000D03*
D20*
X106553000Y-149987000D03*
%TD*%
D22*
%TO.C,L1*%
X81667000Y-77470000D03*
X91567000Y-77470000D03*
%TD*%
D23*
%TO.C,Q1*%
X106741000Y-64929000D03*
X104841000Y-64929000D03*
X105791000Y-66929000D03*
%TD*%
D24*
%TO.C,Q2*%
X91313000Y-88011000D03*
X91313000Y-86111000D03*
X89313000Y-87061000D03*
%TD*%
%TO.C,Q3*%
X107505500Y-93345000D03*
X107505500Y-95245000D03*
X109505500Y-94295000D03*
%TD*%
%TO.C,R1*%
G36*
G01*
X96444500Y-104070999D02*
X96444500Y-104971001D01*
G75*
G02*
X96194501Y-105221000I-249999J0D01*
G01*
X95669499Y-105221000D01*
G75*
G02*
X95419500Y-104971001I0J249999D01*
G01*
X95419500Y-104070999D01*
G75*
G02*
X95669499Y-103821000I249999J0D01*
G01*
X96194501Y-103821000D01*
G75*
G02*
X96444500Y-104070999I0J-249999D01*
G01*
G37*
G36*
G01*
X94619500Y-104070999D02*
X94619500Y-104971001D01*
G75*
G02*
X94369501Y-105221000I-249999J0D01*
G01*
X93844499Y-105221000D01*
G75*
G02*
X93594500Y-104971001I0J249999D01*
G01*
X93594500Y-104070999D01*
G75*
G02*
X93844499Y-103821000I249999J0D01*
G01*
X94369501Y-103821000D01*
G75*
G02*
X94619500Y-104070999I0J-249999D01*
G01*
G37*
%TD*%
%TO.C,R2*%
G36*
G01*
X94572500Y-101784999D02*
X94572500Y-102685001D01*
G75*
G02*
X94322501Y-102935000I-249999J0D01*
G01*
X93797499Y-102935000D01*
G75*
G02*
X93547500Y-102685001I0J249999D01*
G01*
X93547500Y-101784999D01*
G75*
G02*
X93797499Y-101535000I249999J0D01*
G01*
X94322501Y-101535000D01*
G75*
G02*
X94572500Y-101784999I0J-249999D01*
G01*
G37*
G36*
G01*
X96397500Y-101784999D02*
X96397500Y-102685001D01*
G75*
G02*
X96147501Y-102935000I-249999J0D01*
G01*
X95622499Y-102935000D01*
G75*
G02*
X95372500Y-102685001I0J249999D01*
G01*
X95372500Y-101784999D01*
G75*
G02*
X95622499Y-101535000I249999J0D01*
G01*
X96147501Y-101535000D01*
G75*
G02*
X96397500Y-101784999I0J-249999D01*
G01*
G37*
%TD*%
%TO.C,R3*%
G36*
G01*
X98875000Y-113649000D02*
X99245000Y-113649000D01*
G75*
G02*
X99380000Y-113784000I0J-135000D01*
G01*
X99380000Y-114054000D01*
G75*
G02*
X99245000Y-114189000I-135000J0D01*
G01*
X98875000Y-114189000D01*
G75*
G02*
X98740000Y-114054000I0J135000D01*
G01*
X98740000Y-113784000D01*
G75*
G02*
X98875000Y-113649000I135000J0D01*
G01*
G37*
G36*
G01*
X98875000Y-114669000D02*
X99245000Y-114669000D01*
G75*
G02*
X99380000Y-114804000I0J-135000D01*
G01*
X99380000Y-115074000D01*
G75*
G02*
X99245000Y-115209000I-135000J0D01*
G01*
X98875000Y-115209000D01*
G75*
G02*
X98740000Y-115074000I0J135000D01*
G01*
X98740000Y-114804000D01*
G75*
G02*
X98875000Y-114669000I135000J0D01*
G01*
G37*
%TD*%
%TO.C,R4*%
G36*
G01*
X85709000Y-142425000D02*
X85709000Y-142055000D01*
G75*
G02*
X85844000Y-141920000I135000J0D01*
G01*
X86114000Y-141920000D01*
G75*
G02*
X86249000Y-142055000I0J-135000D01*
G01*
X86249000Y-142425000D01*
G75*
G02*
X86114000Y-142560000I-135000J0D01*
G01*
X85844000Y-142560000D01*
G75*
G02*
X85709000Y-142425000I0J135000D01*
G01*
G37*
G36*
G01*
X84689000Y-142425000D02*
X84689000Y-142055000D01*
G75*
G02*
X84824000Y-141920000I135000J0D01*
G01*
X85094000Y-141920000D01*
G75*
G02*
X85229000Y-142055000I0J-135000D01*
G01*
X85229000Y-142425000D01*
G75*
G02*
X85094000Y-142560000I-135000J0D01*
G01*
X84824000Y-142560000D01*
G75*
G02*
X84689000Y-142425000I0J135000D01*
G01*
G37*
%TD*%
%TO.C,R5*%
G36*
G01*
X91773500Y-89667500D02*
X91773500Y-90037500D01*
G75*
G02*
X91638500Y-90172500I-135000J0D01*
G01*
X91368500Y-90172500D01*
G75*
G02*
X91233500Y-90037500I0J135000D01*
G01*
X91233500Y-89667500D01*
G75*
G02*
X91368500Y-89532500I135000J0D01*
G01*
X91638500Y-89532500D01*
G75*
G02*
X91773500Y-89667500I0J-135000D01*
G01*
G37*
G36*
G01*
X92793500Y-89667500D02*
X92793500Y-90037500D01*
G75*
G02*
X92658500Y-90172500I-135000J0D01*
G01*
X92388500Y-90172500D01*
G75*
G02*
X92253500Y-90037500I0J135000D01*
G01*
X92253500Y-89667500D01*
G75*
G02*
X92388500Y-89532500I135000J0D01*
G01*
X92658500Y-89532500D01*
G75*
G02*
X92793500Y-89667500I0J-135000D01*
G01*
G37*
%TD*%
%TO.C,R6*%
G36*
G01*
X107739500Y-92133000D02*
X107739500Y-91763000D01*
G75*
G02*
X107874500Y-91628000I135000J0D01*
G01*
X108144500Y-91628000D01*
G75*
G02*
X108279500Y-91763000I0J-135000D01*
G01*
X108279500Y-92133000D01*
G75*
G02*
X108144500Y-92268000I-135000J0D01*
G01*
X107874500Y-92268000D01*
G75*
G02*
X107739500Y-92133000I0J135000D01*
G01*
G37*
G36*
G01*
X108759500Y-92133000D02*
X108759500Y-91763000D01*
G75*
G02*
X108894500Y-91628000I135000J0D01*
G01*
X109164500Y-91628000D01*
G75*
G02*
X109299500Y-91763000I0J-135000D01*
G01*
X109299500Y-92133000D01*
G75*
G02*
X109164500Y-92268000I-135000J0D01*
G01*
X108894500Y-92268000D01*
G75*
G02*
X108759500Y-92133000I0J135000D01*
G01*
G37*
%TD*%
%TO.C,R7*%
G36*
G01*
X104568500Y-123311500D02*
X104568500Y-122941500D01*
G75*
G02*
X104703500Y-122806500I135000J0D01*
G01*
X104973500Y-122806500D01*
G75*
G02*
X105108500Y-122941500I0J-135000D01*
G01*
X105108500Y-123311500D01*
G75*
G02*
X104973500Y-123446500I-135000J0D01*
G01*
X104703500Y-123446500D01*
G75*
G02*
X104568500Y-123311500I0J135000D01*
G01*
G37*
G36*
G01*
X105588500Y-123311500D02*
X105588500Y-122941500D01*
G75*
G02*
X105723500Y-122806500I135000J0D01*
G01*
X105993500Y-122806500D01*
G75*
G02*
X106128500Y-122941500I0J-135000D01*
G01*
X106128500Y-123311500D01*
G75*
G02*
X105993500Y-123446500I-135000J0D01*
G01*
X105723500Y-123446500D01*
G75*
G02*
X105588500Y-123311500I0J135000D01*
G01*
G37*
%TD*%
%TO.C,R8*%
G36*
G01*
X87878499Y-143696000D02*
X88778501Y-143696000D01*
G75*
G02*
X89028500Y-143945999I0J-249999D01*
G01*
X89028500Y-144471001D01*
G75*
G02*
X88778501Y-144721000I-249999J0D01*
G01*
X87878499Y-144721000D01*
G75*
G02*
X87628500Y-144471001I0J249999D01*
G01*
X87628500Y-143945999D01*
G75*
G02*
X87878499Y-143696000I249999J0D01*
G01*
G37*
G36*
G01*
X87878499Y-145521000D02*
X88778501Y-145521000D01*
G75*
G02*
X89028500Y-145770999I0J-249999D01*
G01*
X89028500Y-146296001D01*
G75*
G02*
X88778501Y-146546000I-249999J0D01*
G01*
X87878499Y-146546000D01*
G75*
G02*
X87628500Y-146296001I0J249999D01*
G01*
X87628500Y-145770999D01*
G75*
G02*
X87878499Y-145521000I249999J0D01*
G01*
G37*
%TD*%
%TO.C,U2*%
G36*
G01*
X100256000Y-109466000D02*
X100256000Y-109316000D01*
G75*
G02*
X100331000Y-109241000I75000J0D01*
G01*
X101656000Y-109241000D01*
G75*
G02*
X101731000Y-109316000I0J-75000D01*
G01*
X101731000Y-109466000D01*
G75*
G02*
X101656000Y-109541000I-75000J0D01*
G01*
X100331000Y-109541000D01*
G75*
G02*
X100256000Y-109466000I0J75000D01*
G01*
G37*
G36*
G01*
X100256000Y-109966000D02*
X100256000Y-109816000D01*
G75*
G02*
X100331000Y-109741000I75000J0D01*
G01*
X101656000Y-109741000D01*
G75*
G02*
X101731000Y-109816000I0J-75000D01*
G01*
X101731000Y-109966000D01*
G75*
G02*
X101656000Y-110041000I-75000J0D01*
G01*
X100331000Y-110041000D01*
G75*
G02*
X100256000Y-109966000I0J75000D01*
G01*
G37*
G36*
G01*
X100256000Y-110466000D02*
X100256000Y-110316000D01*
G75*
G02*
X100331000Y-110241000I75000J0D01*
G01*
X101656000Y-110241000D01*
G75*
G02*
X101731000Y-110316000I0J-75000D01*
G01*
X101731000Y-110466000D01*
G75*
G02*
X101656000Y-110541000I-75000J0D01*
G01*
X100331000Y-110541000D01*
G75*
G02*
X100256000Y-110466000I0J75000D01*
G01*
G37*
G36*
G01*
X100256000Y-110966000D02*
X100256000Y-110816000D01*
G75*
G02*
X100331000Y-110741000I75000J0D01*
G01*
X101656000Y-110741000D01*
G75*
G02*
X101731000Y-110816000I0J-75000D01*
G01*
X101731000Y-110966000D01*
G75*
G02*
X101656000Y-111041000I-75000J0D01*
G01*
X100331000Y-111041000D01*
G75*
G02*
X100256000Y-110966000I0J75000D01*
G01*
G37*
G36*
G01*
X100256000Y-111466000D02*
X100256000Y-111316000D01*
G75*
G02*
X100331000Y-111241000I75000J0D01*
G01*
X101656000Y-111241000D01*
G75*
G02*
X101731000Y-111316000I0J-75000D01*
G01*
X101731000Y-111466000D01*
G75*
G02*
X101656000Y-111541000I-75000J0D01*
G01*
X100331000Y-111541000D01*
G75*
G02*
X100256000Y-111466000I0J75000D01*
G01*
G37*
G36*
G01*
X100256000Y-111966000D02*
X100256000Y-111816000D01*
G75*
G02*
X100331000Y-111741000I75000J0D01*
G01*
X101656000Y-111741000D01*
G75*
G02*
X101731000Y-111816000I0J-75000D01*
G01*
X101731000Y-111966000D01*
G75*
G02*
X101656000Y-112041000I-75000J0D01*
G01*
X100331000Y-112041000D01*
G75*
G02*
X100256000Y-111966000I0J75000D01*
G01*
G37*
G36*
G01*
X100256000Y-112466000D02*
X100256000Y-112316000D01*
G75*
G02*
X100331000Y-112241000I75000J0D01*
G01*
X101656000Y-112241000D01*
G75*
G02*
X101731000Y-112316000I0J-75000D01*
G01*
X101731000Y-112466000D01*
G75*
G02*
X101656000Y-112541000I-75000J0D01*
G01*
X100331000Y-112541000D01*
G75*
G02*
X100256000Y-112466000I0J75000D01*
G01*
G37*
G36*
G01*
X100256000Y-112966000D02*
X100256000Y-112816000D01*
G75*
G02*
X100331000Y-112741000I75000J0D01*
G01*
X101656000Y-112741000D01*
G75*
G02*
X101731000Y-112816000I0J-75000D01*
G01*
X101731000Y-112966000D01*
G75*
G02*
X101656000Y-113041000I-75000J0D01*
G01*
X100331000Y-113041000D01*
G75*
G02*
X100256000Y-112966000I0J75000D01*
G01*
G37*
G36*
G01*
X100256000Y-113466000D02*
X100256000Y-113316000D01*
G75*
G02*
X100331000Y-113241000I75000J0D01*
G01*
X101656000Y-113241000D01*
G75*
G02*
X101731000Y-113316000I0J-75000D01*
G01*
X101731000Y-113466000D01*
G75*
G02*
X101656000Y-113541000I-75000J0D01*
G01*
X100331000Y-113541000D01*
G75*
G02*
X100256000Y-113466000I0J75000D01*
G01*
G37*
G36*
G01*
X100256000Y-113966000D02*
X100256000Y-113816000D01*
G75*
G02*
X100331000Y-113741000I75000J0D01*
G01*
X101656000Y-113741000D01*
G75*
G02*
X101731000Y-113816000I0J-75000D01*
G01*
X101731000Y-113966000D01*
G75*
G02*
X101656000Y-114041000I-75000J0D01*
G01*
X100331000Y-114041000D01*
G75*
G02*
X100256000Y-113966000I0J75000D01*
G01*
G37*
G36*
G01*
X100256000Y-114466000D02*
X100256000Y-114316000D01*
G75*
G02*
X100331000Y-114241000I75000J0D01*
G01*
X101656000Y-114241000D01*
G75*
G02*
X101731000Y-114316000I0J-75000D01*
G01*
X101731000Y-114466000D01*
G75*
G02*
X101656000Y-114541000I-75000J0D01*
G01*
X100331000Y-114541000D01*
G75*
G02*
X100256000Y-114466000I0J75000D01*
G01*
G37*
G36*
G01*
X100256000Y-114966000D02*
X100256000Y-114816000D01*
G75*
G02*
X100331000Y-114741000I75000J0D01*
G01*
X101656000Y-114741000D01*
G75*
G02*
X101731000Y-114816000I0J-75000D01*
G01*
X101731000Y-114966000D01*
G75*
G02*
X101656000Y-115041000I-75000J0D01*
G01*
X100331000Y-115041000D01*
G75*
G02*
X100256000Y-114966000I0J75000D01*
G01*
G37*
G36*
G01*
X102256000Y-116966000D02*
X102256000Y-115641000D01*
G75*
G02*
X102331000Y-115566000I75000J0D01*
G01*
X102481000Y-115566000D01*
G75*
G02*
X102556000Y-115641000I0J-75000D01*
G01*
X102556000Y-116966000D01*
G75*
G02*
X102481000Y-117041000I-75000J0D01*
G01*
X102331000Y-117041000D01*
G75*
G02*
X102256000Y-116966000I0J75000D01*
G01*
G37*
G36*
G01*
X102756000Y-116966000D02*
X102756000Y-115641000D01*
G75*
G02*
X102831000Y-115566000I75000J0D01*
G01*
X102981000Y-115566000D01*
G75*
G02*
X103056000Y-115641000I0J-75000D01*
G01*
X103056000Y-116966000D01*
G75*
G02*
X102981000Y-117041000I-75000J0D01*
G01*
X102831000Y-117041000D01*
G75*
G02*
X102756000Y-116966000I0J75000D01*
G01*
G37*
G36*
G01*
X103256000Y-116966000D02*
X103256000Y-115641000D01*
G75*
G02*
X103331000Y-115566000I75000J0D01*
G01*
X103481000Y-115566000D01*
G75*
G02*
X103556000Y-115641000I0J-75000D01*
G01*
X103556000Y-116966000D01*
G75*
G02*
X103481000Y-117041000I-75000J0D01*
G01*
X103331000Y-117041000D01*
G75*
G02*
X103256000Y-116966000I0J75000D01*
G01*
G37*
G36*
G01*
X103756000Y-116966000D02*
X103756000Y-115641000D01*
G75*
G02*
X103831000Y-115566000I75000J0D01*
G01*
X103981000Y-115566000D01*
G75*
G02*
X104056000Y-115641000I0J-75000D01*
G01*
X104056000Y-116966000D01*
G75*
G02*
X103981000Y-117041000I-75000J0D01*
G01*
X103831000Y-117041000D01*
G75*
G02*
X103756000Y-116966000I0J75000D01*
G01*
G37*
G36*
G01*
X104256000Y-116966000D02*
X104256000Y-115641000D01*
G75*
G02*
X104331000Y-115566000I75000J0D01*
G01*
X104481000Y-115566000D01*
G75*
G02*
X104556000Y-115641000I0J-75000D01*
G01*
X104556000Y-116966000D01*
G75*
G02*
X104481000Y-117041000I-75000J0D01*
G01*
X104331000Y-117041000D01*
G75*
G02*
X104256000Y-116966000I0J75000D01*
G01*
G37*
G36*
G01*
X104756000Y-116966000D02*
X104756000Y-115641000D01*
G75*
G02*
X104831000Y-115566000I75000J0D01*
G01*
X104981000Y-115566000D01*
G75*
G02*
X105056000Y-115641000I0J-75000D01*
G01*
X105056000Y-116966000D01*
G75*
G02*
X104981000Y-117041000I-75000J0D01*
G01*
X104831000Y-117041000D01*
G75*
G02*
X104756000Y-116966000I0J75000D01*
G01*
G37*
G36*
G01*
X105256000Y-116966000D02*
X105256000Y-115641000D01*
G75*
G02*
X105331000Y-115566000I75000J0D01*
G01*
X105481000Y-115566000D01*
G75*
G02*
X105556000Y-115641000I0J-75000D01*
G01*
X105556000Y-116966000D01*
G75*
G02*
X105481000Y-117041000I-75000J0D01*
G01*
X105331000Y-117041000D01*
G75*
G02*
X105256000Y-116966000I0J75000D01*
G01*
G37*
G36*
G01*
X105756000Y-116966000D02*
X105756000Y-115641000D01*
G75*
G02*
X105831000Y-115566000I75000J0D01*
G01*
X105981000Y-115566000D01*
G75*
G02*
X106056000Y-115641000I0J-75000D01*
G01*
X106056000Y-116966000D01*
G75*
G02*
X105981000Y-117041000I-75000J0D01*
G01*
X105831000Y-117041000D01*
G75*
G02*
X105756000Y-116966000I0J75000D01*
G01*
G37*
G36*
G01*
X106256000Y-116966000D02*
X106256000Y-115641000D01*
G75*
G02*
X106331000Y-115566000I75000J0D01*
G01*
X106481000Y-115566000D01*
G75*
G02*
X106556000Y-115641000I0J-75000D01*
G01*
X106556000Y-116966000D01*
G75*
G02*
X106481000Y-117041000I-75000J0D01*
G01*
X106331000Y-117041000D01*
G75*
G02*
X106256000Y-116966000I0J75000D01*
G01*
G37*
G36*
G01*
X106756000Y-116966000D02*
X106756000Y-115641000D01*
G75*
G02*
X106831000Y-115566000I75000J0D01*
G01*
X106981000Y-115566000D01*
G75*
G02*
X107056000Y-115641000I0J-75000D01*
G01*
X107056000Y-116966000D01*
G75*
G02*
X106981000Y-117041000I-75000J0D01*
G01*
X106831000Y-117041000D01*
G75*
G02*
X106756000Y-116966000I0J75000D01*
G01*
G37*
G36*
G01*
X107256000Y-116966000D02*
X107256000Y-115641000D01*
G75*
G02*
X107331000Y-115566000I75000J0D01*
G01*
X107481000Y-115566000D01*
G75*
G02*
X107556000Y-115641000I0J-75000D01*
G01*
X107556000Y-116966000D01*
G75*
G02*
X107481000Y-117041000I-75000J0D01*
G01*
X107331000Y-117041000D01*
G75*
G02*
X107256000Y-116966000I0J75000D01*
G01*
G37*
G36*
G01*
X107756000Y-116966000D02*
X107756000Y-115641000D01*
G75*
G02*
X107831000Y-115566000I75000J0D01*
G01*
X107981000Y-115566000D01*
G75*
G02*
X108056000Y-115641000I0J-75000D01*
G01*
X108056000Y-116966000D01*
G75*
G02*
X107981000Y-117041000I-75000J0D01*
G01*
X107831000Y-117041000D01*
G75*
G02*
X107756000Y-116966000I0J75000D01*
G01*
G37*
G36*
G01*
X108581000Y-114966000D02*
X108581000Y-114816000D01*
G75*
G02*
X108656000Y-114741000I75000J0D01*
G01*
X109981000Y-114741000D01*
G75*
G02*
X110056000Y-114816000I0J-75000D01*
G01*
X110056000Y-114966000D01*
G75*
G02*
X109981000Y-115041000I-75000J0D01*
G01*
X108656000Y-115041000D01*
G75*
G02*
X108581000Y-114966000I0J75000D01*
G01*
G37*
G36*
G01*
X108581000Y-114466000D02*
X108581000Y-114316000D01*
G75*
G02*
X108656000Y-114241000I75000J0D01*
G01*
X109981000Y-114241000D01*
G75*
G02*
X110056000Y-114316000I0J-75000D01*
G01*
X110056000Y-114466000D01*
G75*
G02*
X109981000Y-114541000I-75000J0D01*
G01*
X108656000Y-114541000D01*
G75*
G02*
X108581000Y-114466000I0J75000D01*
G01*
G37*
G36*
G01*
X108581000Y-113966000D02*
X108581000Y-113816000D01*
G75*
G02*
X108656000Y-113741000I75000J0D01*
G01*
X109981000Y-113741000D01*
G75*
G02*
X110056000Y-113816000I0J-75000D01*
G01*
X110056000Y-113966000D01*
G75*
G02*
X109981000Y-114041000I-75000J0D01*
G01*
X108656000Y-114041000D01*
G75*
G02*
X108581000Y-113966000I0J75000D01*
G01*
G37*
G36*
G01*
X108581000Y-113466000D02*
X108581000Y-113316000D01*
G75*
G02*
X108656000Y-113241000I75000J0D01*
G01*
X109981000Y-113241000D01*
G75*
G02*
X110056000Y-113316000I0J-75000D01*
G01*
X110056000Y-113466000D01*
G75*
G02*
X109981000Y-113541000I-75000J0D01*
G01*
X108656000Y-113541000D01*
G75*
G02*
X108581000Y-113466000I0J75000D01*
G01*
G37*
G36*
G01*
X108581000Y-112966000D02*
X108581000Y-112816000D01*
G75*
G02*
X108656000Y-112741000I75000J0D01*
G01*
X109981000Y-112741000D01*
G75*
G02*
X110056000Y-112816000I0J-75000D01*
G01*
X110056000Y-112966000D01*
G75*
G02*
X109981000Y-113041000I-75000J0D01*
G01*
X108656000Y-113041000D01*
G75*
G02*
X108581000Y-112966000I0J75000D01*
G01*
G37*
G36*
G01*
X108581000Y-112466000D02*
X108581000Y-112316000D01*
G75*
G02*
X108656000Y-112241000I75000J0D01*
G01*
X109981000Y-112241000D01*
G75*
G02*
X110056000Y-112316000I0J-75000D01*
G01*
X110056000Y-112466000D01*
G75*
G02*
X109981000Y-112541000I-75000J0D01*
G01*
X108656000Y-112541000D01*
G75*
G02*
X108581000Y-112466000I0J75000D01*
G01*
G37*
G36*
G01*
X108581000Y-111966000D02*
X108581000Y-111816000D01*
G75*
G02*
X108656000Y-111741000I75000J0D01*
G01*
X109981000Y-111741000D01*
G75*
G02*
X110056000Y-111816000I0J-75000D01*
G01*
X110056000Y-111966000D01*
G75*
G02*
X109981000Y-112041000I-75000J0D01*
G01*
X108656000Y-112041000D01*
G75*
G02*
X108581000Y-111966000I0J75000D01*
G01*
G37*
G36*
G01*
X108581000Y-111466000D02*
X108581000Y-111316000D01*
G75*
G02*
X108656000Y-111241000I75000J0D01*
G01*
X109981000Y-111241000D01*
G75*
G02*
X110056000Y-111316000I0J-75000D01*
G01*
X110056000Y-111466000D01*
G75*
G02*
X109981000Y-111541000I-75000J0D01*
G01*
X108656000Y-111541000D01*
G75*
G02*
X108581000Y-111466000I0J75000D01*
G01*
G37*
G36*
G01*
X108581000Y-110966000D02*
X108581000Y-110816000D01*
G75*
G02*
X108656000Y-110741000I75000J0D01*
G01*
X109981000Y-110741000D01*
G75*
G02*
X110056000Y-110816000I0J-75000D01*
G01*
X110056000Y-110966000D01*
G75*
G02*
X109981000Y-111041000I-75000J0D01*
G01*
X108656000Y-111041000D01*
G75*
G02*
X108581000Y-110966000I0J75000D01*
G01*
G37*
G36*
G01*
X108581000Y-110466000D02*
X108581000Y-110316000D01*
G75*
G02*
X108656000Y-110241000I75000J0D01*
G01*
X109981000Y-110241000D01*
G75*
G02*
X110056000Y-110316000I0J-75000D01*
G01*
X110056000Y-110466000D01*
G75*
G02*
X109981000Y-110541000I-75000J0D01*
G01*
X108656000Y-110541000D01*
G75*
G02*
X108581000Y-110466000I0J75000D01*
G01*
G37*
G36*
G01*
X108581000Y-109966000D02*
X108581000Y-109816000D01*
G75*
G02*
X108656000Y-109741000I75000J0D01*
G01*
X109981000Y-109741000D01*
G75*
G02*
X110056000Y-109816000I0J-75000D01*
G01*
X110056000Y-109966000D01*
G75*
G02*
X109981000Y-110041000I-75000J0D01*
G01*
X108656000Y-110041000D01*
G75*
G02*
X108581000Y-109966000I0J75000D01*
G01*
G37*
G36*
G01*
X108581000Y-109466000D02*
X108581000Y-109316000D01*
G75*
G02*
X108656000Y-109241000I75000J0D01*
G01*
X109981000Y-109241000D01*
G75*
G02*
X110056000Y-109316000I0J-75000D01*
G01*
X110056000Y-109466000D01*
G75*
G02*
X109981000Y-109541000I-75000J0D01*
G01*
X108656000Y-109541000D01*
G75*
G02*
X108581000Y-109466000I0J75000D01*
G01*
G37*
G36*
G01*
X107756000Y-108641000D02*
X107756000Y-107316000D01*
G75*
G02*
X107831000Y-107241000I75000J0D01*
G01*
X107981000Y-107241000D01*
G75*
G02*
X108056000Y-107316000I0J-75000D01*
G01*
X108056000Y-108641000D01*
G75*
G02*
X107981000Y-108716000I-75000J0D01*
G01*
X107831000Y-108716000D01*
G75*
G02*
X107756000Y-108641000I0J75000D01*
G01*
G37*
G36*
G01*
X107256000Y-108641000D02*
X107256000Y-107316000D01*
G75*
G02*
X107331000Y-107241000I75000J0D01*
G01*
X107481000Y-107241000D01*
G75*
G02*
X107556000Y-107316000I0J-75000D01*
G01*
X107556000Y-108641000D01*
G75*
G02*
X107481000Y-108716000I-75000J0D01*
G01*
X107331000Y-108716000D01*
G75*
G02*
X107256000Y-108641000I0J75000D01*
G01*
G37*
G36*
G01*
X106756000Y-108641000D02*
X106756000Y-107316000D01*
G75*
G02*
X106831000Y-107241000I75000J0D01*
G01*
X106981000Y-107241000D01*
G75*
G02*
X107056000Y-107316000I0J-75000D01*
G01*
X107056000Y-108641000D01*
G75*
G02*
X106981000Y-108716000I-75000J0D01*
G01*
X106831000Y-108716000D01*
G75*
G02*
X106756000Y-108641000I0J75000D01*
G01*
G37*
G36*
G01*
X106256000Y-108641000D02*
X106256000Y-107316000D01*
G75*
G02*
X106331000Y-107241000I75000J0D01*
G01*
X106481000Y-107241000D01*
G75*
G02*
X106556000Y-107316000I0J-75000D01*
G01*
X106556000Y-108641000D01*
G75*
G02*
X106481000Y-108716000I-75000J0D01*
G01*
X106331000Y-108716000D01*
G75*
G02*
X106256000Y-108641000I0J75000D01*
G01*
G37*
G36*
G01*
X105756000Y-108641000D02*
X105756000Y-107316000D01*
G75*
G02*
X105831000Y-107241000I75000J0D01*
G01*
X105981000Y-107241000D01*
G75*
G02*
X106056000Y-107316000I0J-75000D01*
G01*
X106056000Y-108641000D01*
G75*
G02*
X105981000Y-108716000I-75000J0D01*
G01*
X105831000Y-108716000D01*
G75*
G02*
X105756000Y-108641000I0J75000D01*
G01*
G37*
G36*
G01*
X105256000Y-108641000D02*
X105256000Y-107316000D01*
G75*
G02*
X105331000Y-107241000I75000J0D01*
G01*
X105481000Y-107241000D01*
G75*
G02*
X105556000Y-107316000I0J-75000D01*
G01*
X105556000Y-108641000D01*
G75*
G02*
X105481000Y-108716000I-75000J0D01*
G01*
X105331000Y-108716000D01*
G75*
G02*
X105256000Y-108641000I0J75000D01*
G01*
G37*
G36*
G01*
X104756000Y-108641000D02*
X104756000Y-107316000D01*
G75*
G02*
X104831000Y-107241000I75000J0D01*
G01*
X104981000Y-107241000D01*
G75*
G02*
X105056000Y-107316000I0J-75000D01*
G01*
X105056000Y-108641000D01*
G75*
G02*
X104981000Y-108716000I-75000J0D01*
G01*
X104831000Y-108716000D01*
G75*
G02*
X104756000Y-108641000I0J75000D01*
G01*
G37*
G36*
G01*
X104256000Y-108641000D02*
X104256000Y-107316000D01*
G75*
G02*
X104331000Y-107241000I75000J0D01*
G01*
X104481000Y-107241000D01*
G75*
G02*
X104556000Y-107316000I0J-75000D01*
G01*
X104556000Y-108641000D01*
G75*
G02*
X104481000Y-108716000I-75000J0D01*
G01*
X104331000Y-108716000D01*
G75*
G02*
X104256000Y-108641000I0J75000D01*
G01*
G37*
G36*
G01*
X103756000Y-108641000D02*
X103756000Y-107316000D01*
G75*
G02*
X103831000Y-107241000I75000J0D01*
G01*
X103981000Y-107241000D01*
G75*
G02*
X104056000Y-107316000I0J-75000D01*
G01*
X104056000Y-108641000D01*
G75*
G02*
X103981000Y-108716000I-75000J0D01*
G01*
X103831000Y-108716000D01*
G75*
G02*
X103756000Y-108641000I0J75000D01*
G01*
G37*
G36*
G01*
X103256000Y-108641000D02*
X103256000Y-107316000D01*
G75*
G02*
X103331000Y-107241000I75000J0D01*
G01*
X103481000Y-107241000D01*
G75*
G02*
X103556000Y-107316000I0J-75000D01*
G01*
X103556000Y-108641000D01*
G75*
G02*
X103481000Y-108716000I-75000J0D01*
G01*
X103331000Y-108716000D01*
G75*
G02*
X103256000Y-108641000I0J75000D01*
G01*
G37*
G36*
G01*
X102756000Y-108641000D02*
X102756000Y-107316000D01*
G75*
G02*
X102831000Y-107241000I75000J0D01*
G01*
X102981000Y-107241000D01*
G75*
G02*
X103056000Y-107316000I0J-75000D01*
G01*
X103056000Y-108641000D01*
G75*
G02*
X102981000Y-108716000I-75000J0D01*
G01*
X102831000Y-108716000D01*
G75*
G02*
X102756000Y-108641000I0J75000D01*
G01*
G37*
G36*
G01*
X102256000Y-108641000D02*
X102256000Y-107316000D01*
G75*
G02*
X102331000Y-107241000I75000J0D01*
G01*
X102481000Y-107241000D01*
G75*
G02*
X102556000Y-107316000I0J-75000D01*
G01*
X102556000Y-108641000D01*
G75*
G02*
X102481000Y-108716000I-75000J0D01*
G01*
X102331000Y-108716000D01*
G75*
G02*
X102256000Y-108641000I0J75000D01*
G01*
G37*
%TD*%
%TO.C,U3*%
G36*
G01*
X94987500Y-86351500D02*
X94987500Y-86151500D01*
G75*
G02*
X95087500Y-86051500I100000J0D01*
G01*
X96337500Y-86051500D01*
G75*
G02*
X96437500Y-86151500I0J-100000D01*
G01*
X96437500Y-86351500D01*
G75*
G02*
X96337500Y-86451500I-100000J0D01*
G01*
X95087500Y-86451500D01*
G75*
G02*
X94987500Y-86351500I0J100000D01*
G01*
G37*
G36*
G01*
X94987500Y-87001500D02*
X94987500Y-86801500D01*
G75*
G02*
X95087500Y-86701500I100000J0D01*
G01*
X96337500Y-86701500D01*
G75*
G02*
X96437500Y-86801500I0J-100000D01*
G01*
X96437500Y-87001500D01*
G75*
G02*
X96337500Y-87101500I-100000J0D01*
G01*
X95087500Y-87101500D01*
G75*
G02*
X94987500Y-87001500I0J100000D01*
G01*
G37*
G36*
G01*
X94987500Y-87651500D02*
X94987500Y-87451500D01*
G75*
G02*
X95087500Y-87351500I100000J0D01*
G01*
X96337500Y-87351500D01*
G75*
G02*
X96437500Y-87451500I0J-100000D01*
G01*
X96437500Y-87651500D01*
G75*
G02*
X96337500Y-87751500I-100000J0D01*
G01*
X95087500Y-87751500D01*
G75*
G02*
X94987500Y-87651500I0J100000D01*
G01*
G37*
G36*
G01*
X94987500Y-88301500D02*
X94987500Y-88101500D01*
G75*
G02*
X95087500Y-88001500I100000J0D01*
G01*
X96337500Y-88001500D01*
G75*
G02*
X96437500Y-88101500I0J-100000D01*
G01*
X96437500Y-88301500D01*
G75*
G02*
X96337500Y-88401500I-100000J0D01*
G01*
X95087500Y-88401500D01*
G75*
G02*
X94987500Y-88301500I0J100000D01*
G01*
G37*
G36*
G01*
X99287500Y-88301500D02*
X99287500Y-88101500D01*
G75*
G02*
X99387500Y-88001500I100000J0D01*
G01*
X100637500Y-88001500D01*
G75*
G02*
X100737500Y-88101500I0J-100000D01*
G01*
X100737500Y-88301500D01*
G75*
G02*
X100637500Y-88401500I-100000J0D01*
G01*
X99387500Y-88401500D01*
G75*
G02*
X99287500Y-88301500I0J100000D01*
G01*
G37*
G36*
G01*
X99287500Y-87651500D02*
X99287500Y-87451500D01*
G75*
G02*
X99387500Y-87351500I100000J0D01*
G01*
X100637500Y-87351500D01*
G75*
G02*
X100737500Y-87451500I0J-100000D01*
G01*
X100737500Y-87651500D01*
G75*
G02*
X100637500Y-87751500I-100000J0D01*
G01*
X99387500Y-87751500D01*
G75*
G02*
X99287500Y-87651500I0J100000D01*
G01*
G37*
G36*
G01*
X99287500Y-87001500D02*
X99287500Y-86801500D01*
G75*
G02*
X99387500Y-86701500I100000J0D01*
G01*
X100637500Y-86701500D01*
G75*
G02*
X100737500Y-86801500I0J-100000D01*
G01*
X100737500Y-87001500D01*
G75*
G02*
X100637500Y-87101500I-100000J0D01*
G01*
X99387500Y-87101500D01*
G75*
G02*
X99287500Y-87001500I0J100000D01*
G01*
G37*
G36*
G01*
X99287500Y-86351500D02*
X99287500Y-86151500D01*
G75*
G02*
X99387500Y-86051500I100000J0D01*
G01*
X100637500Y-86051500D01*
G75*
G02*
X100737500Y-86151500I0J-100000D01*
G01*
X100737500Y-86351500D01*
G75*
G02*
X100637500Y-86451500I-100000J0D01*
G01*
X99387500Y-86451500D01*
G75*
G02*
X99287500Y-86351500I0J100000D01*
G01*
G37*
D25*
X97862500Y-87226500D03*
%TD*%
D26*
%TO.C,U4*%
X98107500Y-99454500D03*
D27*
X98107500Y-93154500D03*
X95807500Y-93154500D03*
X100407500Y-93154500D03*
%TD*%
D28*
%TO.C,U5*%
X104181000Y-95241000D03*
G36*
G01*
X103306000Y-93816000D02*
X103106000Y-93816000D01*
G75*
G02*
X103006000Y-93716000I0J100000D01*
G01*
X103006000Y-92466000D01*
G75*
G02*
X103106000Y-92366000I100000J0D01*
G01*
X103306000Y-92366000D01*
G75*
G02*
X103406000Y-92466000I0J-100000D01*
G01*
X103406000Y-93716000D01*
G75*
G02*
X103306000Y-93816000I-100000J0D01*
G01*
G37*
G36*
G01*
X103956000Y-93816000D02*
X103756000Y-93816000D01*
G75*
G02*
X103656000Y-93716000I0J100000D01*
G01*
X103656000Y-92466000D01*
G75*
G02*
X103756000Y-92366000I100000J0D01*
G01*
X103956000Y-92366000D01*
G75*
G02*
X104056000Y-92466000I0J-100000D01*
G01*
X104056000Y-93716000D01*
G75*
G02*
X103956000Y-93816000I-100000J0D01*
G01*
G37*
G36*
G01*
X104606000Y-93816000D02*
X104406000Y-93816000D01*
G75*
G02*
X104306000Y-93716000I0J100000D01*
G01*
X104306000Y-92466000D01*
G75*
G02*
X104406000Y-92366000I100000J0D01*
G01*
X104606000Y-92366000D01*
G75*
G02*
X104706000Y-92466000I0J-100000D01*
G01*
X104706000Y-93716000D01*
G75*
G02*
X104606000Y-93816000I-100000J0D01*
G01*
G37*
G36*
G01*
X105256000Y-93816000D02*
X105056000Y-93816000D01*
G75*
G02*
X104956000Y-93716000I0J100000D01*
G01*
X104956000Y-92466000D01*
G75*
G02*
X105056000Y-92366000I100000J0D01*
G01*
X105256000Y-92366000D01*
G75*
G02*
X105356000Y-92466000I0J-100000D01*
G01*
X105356000Y-93716000D01*
G75*
G02*
X105256000Y-93816000I-100000J0D01*
G01*
G37*
G36*
G01*
X105256000Y-98116000D02*
X105056000Y-98116000D01*
G75*
G02*
X104956000Y-98016000I0J100000D01*
G01*
X104956000Y-96766000D01*
G75*
G02*
X105056000Y-96666000I100000J0D01*
G01*
X105256000Y-96666000D01*
G75*
G02*
X105356000Y-96766000I0J-100000D01*
G01*
X105356000Y-98016000D01*
G75*
G02*
X105256000Y-98116000I-100000J0D01*
G01*
G37*
G36*
G01*
X104606000Y-98116000D02*
X104406000Y-98116000D01*
G75*
G02*
X104306000Y-98016000I0J100000D01*
G01*
X104306000Y-96766000D01*
G75*
G02*
X104406000Y-96666000I100000J0D01*
G01*
X104606000Y-96666000D01*
G75*
G02*
X104706000Y-96766000I0J-100000D01*
G01*
X104706000Y-98016000D01*
G75*
G02*
X104606000Y-98116000I-100000J0D01*
G01*
G37*
G36*
G01*
X103956000Y-98116000D02*
X103756000Y-98116000D01*
G75*
G02*
X103656000Y-98016000I0J100000D01*
G01*
X103656000Y-96766000D01*
G75*
G02*
X103756000Y-96666000I100000J0D01*
G01*
X103956000Y-96666000D01*
G75*
G02*
X104056000Y-96766000I0J-100000D01*
G01*
X104056000Y-98016000D01*
G75*
G02*
X103956000Y-98116000I-100000J0D01*
G01*
G37*
G36*
G01*
X103306000Y-98116000D02*
X103106000Y-98116000D01*
G75*
G02*
X103006000Y-98016000I0J100000D01*
G01*
X103006000Y-96766000D01*
G75*
G02*
X103106000Y-96666000I100000J0D01*
G01*
X103306000Y-96666000D01*
G75*
G02*
X103406000Y-96766000I0J-100000D01*
G01*
X103406000Y-98016000D01*
G75*
G02*
X103306000Y-98116000I-100000J0D01*
G01*
G37*
%TD*%
D29*
%TO.C,U6*%
X102890000Y-70485000D03*
X101190000Y-70485000D03*
X99490000Y-70485000D03*
X97790000Y-70485000D03*
X96090000Y-70485000D03*
D30*
X99490000Y-79635000D03*
%TD*%
D31*
%TO.C,U7*%
X102489000Y-150827500D03*
X102489000Y-150177500D03*
X102489000Y-149527500D03*
X102489000Y-148877500D03*
X102489000Y-148227500D03*
X102489000Y-147577500D03*
X102489000Y-146927500D03*
X102489000Y-146277500D03*
X96939000Y-146277500D03*
X96939000Y-146927500D03*
X96939000Y-147577500D03*
X96939000Y-148227500D03*
X96939000Y-148877500D03*
X96939000Y-149527500D03*
X96939000Y-150177500D03*
X96939000Y-150827500D03*
D32*
X98979000Y-147210000D03*
X98979000Y-148105000D03*
X98979000Y-149000000D03*
X98979000Y-149895000D03*
X100449000Y-147210000D03*
X100449000Y-148105000D03*
X100449000Y-149000000D03*
X100449000Y-149895000D03*
%TD*%
D33*
%TO.C,Y1*%
X95836000Y-112141000D03*
X95836000Y-114341000D03*
X97536000Y-114341000D03*
X97536000Y-112141000D03*
%TD*%
M02*
