M48
; DRILL file {KiCad (5.1.9)-1} date 06/19/22 13:41:08
; FORMAT={-:-/ absolute / metric / decimal}
; #@! TF.CreationDate,2022-06-19T13:41:08+03:00
; #@! TF.GenerationSoftware,Kicad,Pcbnew,(5.1.9)-1
; #@! TF.FileFunction,Plated,1,2,PTH
FMAT,2
METRIC
T1C0.400
T2C0.600
T3C0.730
T4C1.000
T5C1.700
%
G90
G05
T1
X67.086Y-114.722
X67.396Y-117.333
X68.174Y-125.273
X68.255Y-122.829
X69.022Y-131.806
X70.399Y-115.824
X75.621Y-123.591
X75.728Y-138.928
X76.317Y-108.697
X76.347Y-143.002
X78.831Y-109.555
X79.355Y-130.835
X80.127Y-133.211
X80.488Y-141.427
X80.488Y-142.89
X82.244Y-103.078
X82.647Y-132.486
X83.144Y-120.513
X83.221Y-123.454
X83.896Y-128.483
X84.13Y-138.161
X85.319Y-118.623
X85.664Y-138.146
X85.755Y-140.64
X85.776Y-114.935
X86.076Y-129.301
X86.858Y-140.198
X87.107Y-109.499
X87.61Y-134.269
X89.225Y-105.156
X91.125Y-134.717
X91.481Y-122.083
X91.653Y-114.493
X92.087Y-130.178
X92.517Y-125.755
X92.847Y-108.981
X92.954Y-127.457
X93.086Y-130.232
X93.934Y-116.317
X94.177Y-140.672
X94.788Y-123.444
X95.176Y-140.722
X96.002Y-122.716
X96.176Y-140.72
X96.715Y-126.061
X97.114Y-129.042
X97.175Y-140.746
X97.482Y-125.419
X98.049Y-111.415
X98.146Y-127.584
X98.201Y-122.504
X98.44Y-110.483
X98.709Y-141.483
X98.824Y-140.462
X99.522Y-129.56
X99.685Y-103.078
X100.015Y-127.493
X100.674Y-133.711
X101.209Y-103.099
X102.845Y-103.083
X103.5Y-124.242
X104.45Y-113.452
X104.607Y-103.083
X104.694Y-132.329
X105.469Y-129.946
X105.662Y-113.504
X105.919Y-130.952
X106.126Y-103.078
X107.309Y-138.76
X107.666Y-137.825
X107.965Y-139.515
X108.158Y-126.732
X108.363Y-128.182
X109.774Y-127.356
X110.404Y-111.425
X112.222Y-131.562
X113.777Y-129.144
X114.082Y-119.807
X114.102Y-115.067
X115.407Y-131.237
X118.191Y-134.127
X119.263Y-115.184
X119.283Y-120.249
X119.36Y-135.296
X120.855Y-125.984
X121.58Y-120.904
X122.474Y-122.123
X123.353Y-111.394
X125.077Y-135.296
X125.613Y-109.758
X126.077Y-135.276
X126.528Y-110.576
X126.741Y-125.227
X133.563Y-104.491
X142.438Y-125.227
X143.158Y-115.099
X144.088Y-115.099
X145.007Y-115.099
X146.102Y-115.099
X150.754Y-136.545
X175.844Y-144.998
X185.09Y-144.998
X187.787Y-106.309
X188.026Y-111.836
X188.697Y-104.745
X188.747Y-141.219
X190.343Y-113.568
X190.609Y-104.409
X192.809Y-104.419
X192.949Y-113.502
X196.642Y-113.381
X200.111Y-111.831
T3
X130.556Y-111.658
X130.607Y-116.942
X130.631Y-122.123
X130.655Y-127.508
X132.056Y-111.658
X132.107Y-116.942
X132.131Y-122.123
X132.155Y-127.508
X133.556Y-111.658
X133.607Y-116.942
X133.631Y-122.123
X133.655Y-127.508
X135.056Y-111.658
X135.107Y-116.942
X135.131Y-122.123
T4
X73.0Y-118.923
X73.0Y-121.463
X73.0Y-124.003
X73.0Y-126.543
X73.0Y-129.083
X172.11Y-110.49
X177.11Y-110.49
T5
X186.182Y-116.538
X186.182Y-120.498
X186.182Y-127.457
X186.182Y-131.417
T2
G00X65.468Y-119.683
M15
G01X64.868Y-119.683
M16
G05
G00X65.468Y-128.323
M15
G01X64.868Y-128.323
M16
G05
G00X69.898Y-119.683
M15
G01X68.798Y-119.683
M16
G05
G00X69.898Y-128.323
M15
G01X68.798Y-128.323
M16
G05
T0
M30
