%TF.GenerationSoftware,KiCad,Pcbnew,(5.1.9)-1*%
%TF.CreationDate,2021-09-29T18:46:32+03:00*%
%TF.ProjectId,jantteri-motor-pwr,6a616e74-7465-4726-992d-6d6f746f722d,rev?*%
%TF.SameCoordinates,Original*%
%TF.FileFunction,Copper,L2,Bot*%
%TF.FilePolarity,Positive*%
%FSLAX46Y46*%
G04 Gerber Fmt 4.6, Leading zero omitted, Abs format (unit mm)*
G04 Created by KiCad (PCBNEW (5.1.9)-1) date 2021-09-29 18:46:32*
%MOMM*%
%LPD*%
G01*
G04 APERTURE LIST*
%TA.AperFunction,ComponentPad*%
%ADD10C,1.524000*%
%TD*%
%TA.AperFunction,ComponentPad*%
%ADD11R,2.000000X2.000000*%
%TD*%
%TA.AperFunction,ComponentPad*%
%ADD12C,2.000000*%
%TD*%
%TA.AperFunction,ComponentPad*%
%ADD13C,0.800000*%
%TD*%
%TA.AperFunction,ComponentPad*%
%ADD14C,6.400000*%
%TD*%
%TA.AperFunction,ComponentPad*%
%ADD15O,1.030000X1.730000*%
%TD*%
%TA.AperFunction,ComponentPad*%
%ADD16R,1.000000X1.000000*%
%TD*%
%TA.AperFunction,ComponentPad*%
%ADD17O,1.000000X1.000000*%
%TD*%
%TA.AperFunction,ComponentPad*%
%ADD18O,1.730000X1.030000*%
%TD*%
%TA.AperFunction,ComponentPad*%
%ADD19R,1.700000X1.700000*%
%TD*%
%TA.AperFunction,ComponentPad*%
%ADD20O,1.700000X1.700000*%
%TD*%
%TA.AperFunction,ViaPad*%
%ADD21C,0.800000*%
%TD*%
%TA.AperFunction,Conductor*%
%ADD22C,0.400000*%
%TD*%
%TA.AperFunction,Conductor*%
%ADD23C,1.000000*%
%TD*%
%TA.AperFunction,Conductor*%
%ADD24C,0.500000*%
%TD*%
%TA.AperFunction,Conductor*%
%ADD25C,0.250000*%
%TD*%
%TA.AperFunction,Conductor*%
%ADD26C,0.254000*%
%TD*%
%TA.AperFunction,Conductor*%
%ADD27C,0.100000*%
%TD*%
G04 APERTURE END LIST*
D10*
%TO.P,U1,1*%
%TO.N,SDA*%
X91757500Y-100457000D03*
%TO.P,U1,2*%
%TO.N,SCL*%
X91757500Y-102997000D03*
%TO.P,U1,3*%
%TO.N,LORA_INT*%
X91757500Y-105537000D03*
%TO.P,U1,4*%
%TO.N,Net-(U1-Pad4)*%
X91757500Y-108077000D03*
%TO.P,U1,5*%
%TO.N,Net-(U1-Pad5)*%
X91757500Y-110617000D03*
%TO.P,U1,6*%
%TO.N,Net-(U1-Pad6)*%
X91757500Y-113157000D03*
%TO.P,U1,7*%
%TO.N,Net-(U1-Pad7)*%
X91757500Y-115697000D03*
%TO.P,U1,8*%
%TO.N,Net-(U1-Pad8)*%
X91757500Y-118237000D03*
%TO.P,U1,9*%
%TO.N,Net-(U1-Pad9)*%
X91757500Y-120777000D03*
%TO.P,U1,10*%
%TO.N,Net-(U1-Pad10)*%
X91757500Y-123317000D03*
%TO.P,U1,11*%
%TO.N,+5V*%
X114617500Y-100457000D03*
%TO.P,U1,12*%
%TO.N,GND*%
X114617500Y-102997000D03*
%TO.P,U1,13*%
%TO.N,Net-(U1-Pad13)*%
X114617500Y-105537000D03*
%TO.P,U1,14*%
%TO.N,Net-(U1-Pad14)*%
X114617500Y-108077000D03*
%TO.P,U1,15*%
%TO.N,Net-(U1-Pad15)*%
X114617500Y-110617000D03*
%TO.P,U1,16*%
%TO.N,Net-(U1-Pad16)*%
X114617500Y-113157000D03*
%TO.P,U1,17*%
%TO.N,Net-(U1-Pad17)*%
X114617500Y-115697000D03*
%TO.P,U1,18*%
%TO.N,Net-(U1-Pad18)*%
X114617500Y-118237000D03*
%TO.P,U1,19*%
%TO.N,Net-(U1-Pad19)*%
X114617500Y-120777000D03*
%TO.P,U1,20*%
%TO.N,Net-(U1-Pad20)*%
X114617500Y-123317000D03*
%TD*%
D11*
%TO.P,C16,1*%
%TO.N,+12V*%
X108331000Y-83820000D03*
D12*
%TO.P,C16,2*%
%TO.N,GND*%
X113331000Y-83820000D03*
%TD*%
D13*
%TO.P,H1,1*%
%TO.N,GND*%
X81580056Y-147654944D03*
X79883000Y-146952000D03*
X78185944Y-147654944D03*
X77483000Y-149352000D03*
X78185944Y-151049056D03*
X79883000Y-151752000D03*
X81580056Y-151049056D03*
X82283000Y-149352000D03*
D14*
X79883000Y-149352000D03*
%TD*%
D13*
%TO.P,H2,1*%
%TO.N,GND*%
X114473056Y-64596944D03*
X112776000Y-63894000D03*
X111078944Y-64596944D03*
X110376000Y-66294000D03*
X111078944Y-67991056D03*
X112776000Y-68694000D03*
X114473056Y-67991056D03*
X115176000Y-66294000D03*
D14*
X112776000Y-66294000D03*
%TD*%
%TO.P,H3,1*%
%TO.N,GND*%
X79883000Y-66294000D03*
D13*
X82283000Y-66294000D03*
X81580056Y-67991056D03*
X79883000Y-68694000D03*
X78185944Y-67991056D03*
X77483000Y-66294000D03*
X78185944Y-64596944D03*
X79883000Y-63894000D03*
X81580056Y-64596944D03*
%TD*%
D14*
%TO.P,H4,1*%
%TO.N,GND*%
X112776000Y-149352000D03*
D13*
X115176000Y-149352000D03*
X114473056Y-151049056D03*
X112776000Y-151752000D03*
X111078944Y-151049056D03*
X110376000Y-149352000D03*
X111078944Y-147654944D03*
X112776000Y-146952000D03*
X114473056Y-147654944D03*
%TD*%
%TO.P,J1,1*%
%TO.N,+12V*%
%TA.AperFunction,ComponentPad*%
G36*
G01*
X105880000Y-140759501D02*
X105880000Y-139529499D01*
G75*
G02*
X106129999Y-139279500I249999J0D01*
G01*
X106660001Y-139279500D01*
G75*
G02*
X106910000Y-139529499I0J-249999D01*
G01*
X106910000Y-140759501D01*
G75*
G02*
X106660001Y-141009500I-249999J0D01*
G01*
X106129999Y-141009500D01*
G75*
G02*
X105880000Y-140759501I0J249999D01*
G01*
G37*
%TD.AperFunction*%
D15*
%TO.P,J1,2*%
%TO.N,+5V*%
X107895000Y-140144500D03*
%TO.P,J1,3*%
%TO.N,HIT_INT*%
X109395000Y-140144500D03*
%TO.P,J1,4*%
%TO.N,SCL*%
X110895000Y-140144500D03*
%TO.P,J1,5*%
%TO.N,SDA*%
X112395000Y-140144500D03*
%TO.P,J1,6*%
%TO.N,GND*%
X113895000Y-140144500D03*
%TD*%
D16*
%TO.P,J2,1*%
%TO.N,+3V3*%
X108267500Y-128270000D03*
D17*
%TO.P,J2,2*%
%TO.N,/10pinARM/SWDIO*%
X109537500Y-128270000D03*
%TO.P,J2,3*%
%TO.N,GND*%
X108267500Y-129540000D03*
%TO.P,J2,4*%
%TO.N,/10pinARM/SWCLK*%
X109537500Y-129540000D03*
%TO.P,J2,5*%
%TO.N,GND*%
X108267500Y-130810000D03*
%TO.P,J2,6*%
%TO.N,/10pinARM/SWO*%
X109537500Y-130810000D03*
%TO.P,J2,7*%
%TO.N,Net-(J2-Pad7)*%
X108267500Y-132080000D03*
%TO.P,J2,8*%
%TO.N,Net-(J2-Pad8)*%
X109537500Y-132080000D03*
%TO.P,J2,9*%
%TO.N,GND*%
X108267500Y-133350000D03*
%TO.P,J2,10*%
%TO.N,/10pinARM/NRST*%
X109537500Y-133350000D03*
%TD*%
%TO.P,J3,1*%
%TO.N,/jst-dbg/DBG_TX*%
%TA.AperFunction,ComponentPad*%
G36*
G01*
X112946501Y-96455000D02*
X111716499Y-96455000D01*
G75*
G02*
X111466500Y-96205001I0J249999D01*
G01*
X111466500Y-95674999D01*
G75*
G02*
X111716499Y-95425000I249999J0D01*
G01*
X112946501Y-95425000D01*
G75*
G02*
X113196500Y-95674999I0J-249999D01*
G01*
X113196500Y-96205001D01*
G75*
G02*
X112946501Y-96455000I-249999J0D01*
G01*
G37*
%TD.AperFunction*%
D18*
%TO.P,J3,2*%
%TO.N,/jst-dbg/DBG_RX*%
X112331500Y-94440000D03*
%TO.P,J3,3*%
%TO.N,USB-5V*%
X112331500Y-92940000D03*
%TO.P,J3,4*%
%TO.N,GND*%
X112331500Y-91440000D03*
%TD*%
%TO.P,J4,1*%
%TO.N,GND*%
%TA.AperFunction,ComponentPad*%
G36*
G01*
X86162500Y-149776501D02*
X86162500Y-148546499D01*
G75*
G02*
X86412499Y-148296500I249999J0D01*
G01*
X86942501Y-148296500D01*
G75*
G02*
X87192500Y-148546499I0J-249999D01*
G01*
X87192500Y-149776501D01*
G75*
G02*
X86942501Y-150026500I-249999J0D01*
G01*
X86412499Y-150026500D01*
G75*
G02*
X86162500Y-149776501I0J249999D01*
G01*
G37*
%TD.AperFunction*%
D15*
%TO.P,J4,2*%
%TO.N,Net-(J4-Pad2)*%
X88177500Y-149161500D03*
%TO.P,J4,3*%
%TO.N,+3V3*%
X89677500Y-149161500D03*
%TD*%
D19*
%TO.P,J5,1*%
%TO.N,GND*%
X111315500Y-72199500D03*
D20*
%TO.P,J5,2*%
%TO.N,Net-(J5-Pad2)*%
X113855500Y-72199500D03*
%TD*%
D19*
%TO.P,J6,1*%
%TO.N,Net-(J5-Pad2)*%
X113855500Y-76263500D03*
D20*
%TO.P,J6,2*%
%TO.N,PWR+*%
X111315500Y-76263500D03*
%TO.P,J6,3*%
%TO.N,GND*%
X108775500Y-76263500D03*
%TD*%
%TO.P,J7,2*%
%TO.N,M+*%
X106553000Y-147447000D03*
D19*
%TO.P,J7,1*%
%TO.N,M-*%
X106553000Y-149987000D03*
%TD*%
D21*
%TO.N,+3V3*%
X107251500Y-123126500D03*
X107251500Y-125031500D03*
X107251500Y-113030000D03*
%TO.N,GND*%
X97536000Y-110871000D03*
X96647000Y-110871000D03*
X95758000Y-110840998D03*
X94869000Y-110871000D03*
X98933000Y-111887000D03*
X94234000Y-115062000D03*
X98488500Y-151892000D03*
X100965000Y-151892000D03*
X98552000Y-145605500D03*
X101028500Y-145669000D03*
X104203500Y-149352000D03*
X103822500Y-147320000D03*
X93281500Y-106426000D03*
X93281500Y-108077000D03*
X93281500Y-109728000D03*
X100774500Y-104584500D03*
X100774500Y-105791000D03*
X100838000Y-107442000D03*
X99695000Y-95313500D03*
X100711000Y-95313500D03*
X101727000Y-95313500D03*
X99695000Y-96583500D03*
X100711000Y-96583500D03*
X101727000Y-96583500D03*
X105092500Y-102425500D03*
X105918000Y-103251000D03*
X106743500Y-104076500D03*
X107569000Y-104838500D03*
X93980000Y-125730000D03*
X92075000Y-125730000D03*
X92075000Y-128270000D03*
X93980000Y-128270000D03*
X92075000Y-130810000D03*
X105156000Y-145288000D03*
X108204000Y-145288000D03*
X110744000Y-145288000D03*
X114300000Y-144272000D03*
X114808000Y-137160000D03*
X114808000Y-134112000D03*
X114808000Y-129540000D03*
X114808000Y-127000000D03*
X98552000Y-127000000D03*
X98552000Y-124460000D03*
X98552000Y-121920000D03*
%TO.N,+5V*%
X98602500Y-90945000D03*
X99682000Y-90945000D03*
X100698000Y-90945000D03*
X101714000Y-90945000D03*
X102666500Y-90945000D03*
%TO.N,GND*%
X92138500Y-92710000D03*
X92138500Y-95186500D03*
X81343500Y-82423000D03*
X83185000Y-82486500D03*
X85153500Y-82486500D03*
X85153500Y-64389000D03*
X86995000Y-64389000D03*
X88773000Y-64389000D03*
X109918500Y-80010000D03*
X111379000Y-80010000D03*
X112966500Y-80010000D03*
X78105000Y-97790000D03*
X80010000Y-95250000D03*
X81915000Y-97790000D03*
X85852000Y-97853500D03*
X83820000Y-95250000D03*
X78105000Y-72390000D03*
X78105000Y-74358500D03*
X78105000Y-76327000D03*
X97218500Y-139573000D03*
X98996500Y-139509500D03*
X98107500Y-138620500D03*
X102870000Y-143700500D03*
X90995500Y-147891500D03*
X106997500Y-86360000D03*
X108521500Y-87820500D03*
X109728000Y-88963500D03*
X110807500Y-89979500D03*
X93980000Y-68580000D03*
X93980000Y-70294500D03*
X93980000Y-72072500D03*
X85915500Y-76454000D03*
X87376000Y-75247500D03*
X88836500Y-74104500D03*
X108458000Y-118808500D03*
X108458000Y-120078500D03*
X108458000Y-121348500D03*
X107823000Y-67818000D03*
X108585000Y-68834000D03*
X109474000Y-69913500D03*
X114554000Y-80010000D03*
X92138500Y-97472500D03*
X80137000Y-72326500D03*
X82105500Y-72326500D03*
X83947000Y-72326500D03*
X85217000Y-71247000D03*
X78105000Y-92710000D03*
X81915000Y-92710000D03*
X85725000Y-92710000D03*
%TO.N,+12V*%
X111696500Y-102298500D03*
X111696500Y-103314500D03*
X111696500Y-104330500D03*
X107315000Y-136588500D03*
X108267500Y-136588500D03*
X109664500Y-136588500D03*
X110426500Y-135826500D03*
%TO.N,/5V-buck/5V*%
X91630500Y-81851500D03*
X106648250Y-92424250D03*
%TO.N,/DRV8848/VINT*%
X95567500Y-147427500D03*
X95381521Y-149377500D03*
%TO.N,POT*%
X91884500Y-144145000D03*
X99943186Y-117405686D03*
%TO.N,Net-(D1-Pad2)*%
X90868500Y-142176500D03*
X100457000Y-108585000D03*
%TO.N,HIT_INT*%
X105029000Y-111569500D03*
%TO.N,SCL*%
X104131000Y-104656608D03*
X93218000Y-103378000D03*
X104457500Y-109791500D03*
%TO.N,SDA*%
X103378000Y-103949500D03*
X92773500Y-101727000D03*
X103441500Y-109664500D03*
%TO.N,/10pinARM/SWDIO*%
X109537500Y-116649500D03*
X107878994Y-110479163D03*
%TO.N,/10pinARM/SWCLK*%
X109347000Y-108585000D03*
X110362501Y-117474501D03*
%TO.N,/10pinARM/NRST*%
X106299000Y-114744500D03*
%TO.N,DRV_FAULT*%
X101600000Y-117919500D03*
X101600000Y-123126500D03*
X100832384Y-144688418D03*
%TO.N,LORA_INT*%
X102297096Y-104966904D03*
%TO.N,DRV_SLEEP*%
X102489000Y-151828500D03*
X102489000Y-118618000D03*
%TO.N,MOTOR_A*%
X93472000Y-150749000D03*
X99822000Y-120269000D03*
%TO.N,MOTOR_B*%
X94488000Y-149923500D03*
X100800000Y-121221500D03*
%TD*%
D22*
%TO.N,+3V3*%
X107251500Y-128154000D02*
X107251500Y-125031500D01*
X107367500Y-128270000D02*
X107251500Y-128154000D01*
X108267500Y-128270000D02*
X107367500Y-128270000D01*
X107251500Y-123126500D02*
X107251500Y-125031500D01*
X107251500Y-123126500D02*
X107251500Y-113030000D01*
%TO.N,GND*%
X97536000Y-110871000D02*
X96647000Y-110871000D01*
X94899002Y-110840998D02*
X94869000Y-110871000D01*
X95758000Y-110840998D02*
X94899002Y-110840998D01*
X96616998Y-110840998D02*
X96647000Y-110871000D01*
X95758000Y-110840998D02*
X96616998Y-110840998D01*
D23*
%TO.N,+5V*%
X110161561Y-137788509D02*
X112960010Y-134990060D01*
X112960010Y-134990060D02*
X112960010Y-101911010D01*
X108385990Y-137788510D02*
X110161561Y-137788509D01*
X107895000Y-138279500D02*
X108385990Y-137788510D01*
X107895000Y-140144500D02*
X107895000Y-138279500D01*
X114414020Y-100457000D02*
X114617500Y-100457000D01*
X112960010Y-101911010D02*
X114414020Y-100457000D01*
X98602500Y-90945000D02*
X102666500Y-90945000D01*
X102666500Y-90945000D02*
X107124500Y-95403000D01*
X107124500Y-96710500D02*
X107061000Y-96774000D01*
X107124500Y-95403000D02*
X107124500Y-96710500D01*
X107061000Y-96774000D02*
X107061000Y-100965000D01*
X114109500Y-100965000D02*
X114617500Y-100457000D01*
X107061000Y-100965000D02*
X114109500Y-100965000D01*
%TO.N,+12V*%
X111760000Y-105029000D02*
X111760000Y-134493000D01*
X106395000Y-137508500D02*
X106395000Y-140144500D01*
X107315000Y-136588500D02*
X106395000Y-137508500D01*
X111696500Y-104965500D02*
X111760000Y-105029000D01*
X111696500Y-102298500D02*
X111696500Y-103314500D01*
X111696500Y-104330500D02*
X111696500Y-104965500D01*
X111696500Y-103314500D02*
X111696500Y-104330500D01*
X108267500Y-136588500D02*
X107315000Y-136588500D01*
X109664500Y-136588500D02*
X108267500Y-136588500D01*
X110426500Y-135826500D02*
X109664500Y-136588500D01*
X111760000Y-134493000D02*
X110426500Y-135826500D01*
D22*
%TO.N,/5V-buck/5V*%
X91757500Y-86106000D02*
X94043500Y-88392000D01*
X102616000Y-88392000D02*
X106648250Y-92424250D01*
X94043500Y-88392000D02*
X102616000Y-88392000D01*
D24*
X91757500Y-81978500D02*
X91630500Y-81851500D01*
X91757500Y-86106000D02*
X91757500Y-81978500D01*
D22*
%TO.N,/DRV8848/VINT*%
X95567500Y-149191521D02*
X95381521Y-149377500D01*
X95567500Y-147427500D02*
X95567500Y-149191521D01*
%TO.N,POT*%
X97345500Y-120003372D02*
X99943186Y-117405686D01*
X97345500Y-130429000D02*
X97345500Y-120003372D01*
X91884500Y-135890000D02*
X97345500Y-130429000D01*
X91884500Y-144145000D02*
X91884500Y-135890000D01*
%TO.N,Net-(D1-Pad2)*%
X90868500Y-142176500D02*
X90868500Y-135636000D01*
X90868500Y-135636000D02*
X96583500Y-129921000D01*
X96583500Y-126936500D02*
X96520000Y-126873000D01*
X96583500Y-129921000D02*
X96583500Y-126936500D01*
X96520000Y-126873000D02*
X96520000Y-119697500D01*
X100453999Y-108588001D02*
X100457000Y-108585000D01*
X100453999Y-115763501D02*
X100453999Y-108588001D01*
X96520000Y-119697500D02*
X100453999Y-115763501D01*
%TO.N,HIT_INT*%
X109395000Y-141409500D02*
X108783510Y-142020990D01*
X109395000Y-140144500D02*
X109395000Y-141409500D01*
X108783510Y-142020990D02*
X105063990Y-142020990D01*
X105063990Y-142020990D02*
X101727000Y-138684000D01*
X101727000Y-138684000D02*
X101727000Y-135509000D01*
X101727000Y-135509000D02*
X105219500Y-132016500D01*
X105219500Y-111760000D02*
X105029000Y-111569500D01*
X105219500Y-132016500D02*
X105219500Y-111760000D01*
D25*
%TO.N,SCL*%
X100532508Y-102177010D02*
X99250500Y-102177010D01*
X103029999Y-104674501D02*
X100532508Y-102177010D01*
X103726001Y-104674501D02*
X103029999Y-104674501D01*
X103743894Y-104656608D02*
X103726001Y-104674501D01*
X104131000Y-104656608D02*
X103743894Y-104656608D01*
X94418990Y-102177010D02*
X93218000Y-103378000D01*
X99250500Y-102177010D02*
X94418990Y-102177010D01*
D22*
X110895000Y-140144500D02*
X110895000Y-142470000D01*
X110744000Y-142621000D02*
X104290042Y-142621000D01*
X110895000Y-142470000D02*
X110744000Y-142621000D01*
X104290042Y-142621000D02*
X100838000Y-139168958D01*
X100838000Y-139168958D02*
X100838000Y-136588500D01*
X100838000Y-136588500D02*
X100838000Y-135295458D01*
X100838000Y-135295458D02*
X104140000Y-131993458D01*
X104140000Y-110109000D02*
X104457500Y-109791500D01*
X104140000Y-131993458D02*
X104140000Y-110109000D01*
D25*
%TO.N,SDA*%
X101155500Y-101727000D02*
X92773500Y-101727000D01*
X103378000Y-103949500D02*
X101155500Y-101727000D01*
D22*
X112395000Y-140144500D02*
X112395000Y-141409500D01*
X112395000Y-141409500D02*
X112395000Y-142494000D01*
X112395000Y-142494000D02*
X111506000Y-143383000D01*
X111506000Y-143383000D02*
X104203500Y-143383000D01*
X104203500Y-143383000D02*
X102997000Y-142176500D01*
X102997000Y-142176500D02*
X102489000Y-142176500D01*
X102489000Y-142176500D02*
X100012500Y-139700000D01*
X100012500Y-139700000D02*
X100012500Y-136525000D01*
X100012500Y-136525000D02*
X100012500Y-135203448D01*
X103441500Y-131774448D02*
X103441500Y-109664500D01*
X100012500Y-135203448D02*
X103441500Y-131774448D01*
D25*
%TO.N,/10pinARM/SWDIO*%
X109537500Y-112137669D02*
X107878994Y-110479163D01*
X109537500Y-116649500D02*
X109537500Y-112137669D01*
%TO.N,/10pinARM/SWCLK*%
X110362501Y-109600501D02*
X110362501Y-117474501D01*
X109347000Y-108585000D02*
X110362501Y-109600501D01*
%TO.N,/10pinARM/NRST*%
X109537500Y-134810500D02*
X109537500Y-133350000D01*
X109347000Y-135001000D02*
X109537500Y-134810500D01*
X106299000Y-135001000D02*
X109347000Y-135001000D01*
X106299000Y-114744500D02*
X106299000Y-135001000D01*
D22*
%TO.N,DRV_FAULT*%
X101600000Y-123126500D02*
X101600000Y-117919500D01*
X101600000Y-130937000D02*
X101600000Y-123126500D01*
X97663000Y-134874000D02*
X101600000Y-130937000D01*
X97663000Y-136144000D02*
X97663000Y-134874000D01*
X95377000Y-138430000D02*
X97663000Y-136144000D01*
X95377000Y-142072542D02*
X95377000Y-138430000D01*
X97992876Y-144688418D02*
X95377000Y-142072542D01*
X100832384Y-144688418D02*
X97992876Y-144688418D01*
D25*
%TO.N,LORA_INT*%
X102297096Y-104966904D02*
X100136692Y-102806500D01*
X92132002Y-105537000D02*
X91757500Y-105537000D01*
X94862502Y-102806500D02*
X92132002Y-105537000D01*
X100136692Y-102806500D02*
X94862502Y-102806500D01*
D22*
%TO.N,DRV_SLEEP*%
X97028000Y-142875000D02*
X96139000Y-141986000D01*
X96139000Y-141986000D02*
X96139000Y-139001500D01*
X96139000Y-139001500D02*
X98869500Y-136271000D01*
X102489000Y-151828500D02*
X102489000Y-145075002D01*
X98869500Y-136271000D02*
X98869500Y-134747000D01*
X102489000Y-131127500D02*
X102489000Y-118618000D01*
X98869500Y-134747000D02*
X102489000Y-131127500D01*
X100288998Y-142875000D02*
X102489000Y-145075002D01*
X97028000Y-142875000D02*
X100288998Y-142875000D01*
%TO.N,MOTOR_A*%
X93472000Y-150749000D02*
X93472000Y-137922000D01*
X93472000Y-137922000D02*
X95567500Y-135826500D01*
X95567500Y-135826500D02*
X95567500Y-134556500D01*
X99822000Y-130302000D02*
X99822000Y-120269000D01*
X95567500Y-134556500D02*
X99822000Y-130302000D01*
%TO.N,MOTOR_B*%
X94488000Y-149923500D02*
X94488000Y-137985500D01*
X94488000Y-137985500D02*
X96520000Y-135953500D01*
X96520000Y-135953500D02*
X96520000Y-134683500D01*
X100800000Y-130403500D02*
X100800000Y-121221500D01*
X96520000Y-134683500D02*
X100800000Y-130403500D01*
%TD*%
D26*
%TO.N,GND*%
X77361724Y-63593119D02*
X79883000Y-66114395D01*
X82404276Y-63593119D01*
X82092304Y-63169000D01*
X110566696Y-63169000D01*
X110254724Y-63593119D01*
X112776000Y-66114395D01*
X115297276Y-63593119D01*
X114985304Y-63169000D01*
X115901001Y-63169000D01*
X115901001Y-64084697D01*
X115476881Y-63772724D01*
X112955605Y-66294000D01*
X115476881Y-68815276D01*
X115901001Y-68503303D01*
X115901001Y-102438005D01*
X115885136Y-102393977D01*
X115823156Y-102278020D01*
X115583065Y-102211040D01*
X114797105Y-102997000D01*
X115583065Y-103782960D01*
X115823156Y-103715980D01*
X115901001Y-103550434D01*
X115901000Y-147142696D01*
X115476881Y-146830724D01*
X112955605Y-149352000D01*
X115476881Y-151873276D01*
X115901000Y-151561304D01*
X115901000Y-152477000D01*
X114985304Y-152477000D01*
X115297276Y-152052881D01*
X112776000Y-149531605D01*
X110254724Y-152052881D01*
X110566696Y-152477000D01*
X102924214Y-152477000D01*
X102986859Y-152435142D01*
X103095642Y-152326359D01*
X103181113Y-152198442D01*
X103239987Y-152056309D01*
X103270000Y-151905422D01*
X103270000Y-151751578D01*
X103239987Y-151600691D01*
X103181113Y-151458558D01*
X103095642Y-151330641D01*
X103070000Y-151304999D01*
X103070000Y-149137000D01*
X105320157Y-149137000D01*
X105320157Y-150837000D01*
X105327513Y-150911689D01*
X105349299Y-150983508D01*
X105384678Y-151049696D01*
X105432289Y-151107711D01*
X105490304Y-151155322D01*
X105556492Y-151190701D01*
X105628311Y-151212487D01*
X105703000Y-151219843D01*
X107403000Y-151219843D01*
X107477689Y-151212487D01*
X107549508Y-151190701D01*
X107615696Y-151155322D01*
X107673711Y-151107711D01*
X107721322Y-151049696D01*
X107756701Y-150983508D01*
X107778487Y-150911689D01*
X107785843Y-150837000D01*
X107785843Y-149327695D01*
X108922520Y-149327695D01*
X108991822Y-150079938D01*
X109206548Y-150804208D01*
X109558445Y-151472670D01*
X109585452Y-151513088D01*
X110075119Y-151873276D01*
X112596395Y-149352000D01*
X110075119Y-146830724D01*
X109585452Y-147190912D01*
X109225151Y-147854882D01*
X109001306Y-148576385D01*
X108922520Y-149327695D01*
X107785843Y-149327695D01*
X107785843Y-149137000D01*
X107778487Y-149062311D01*
X107756701Y-148990492D01*
X107721322Y-148924304D01*
X107673711Y-148866289D01*
X107615696Y-148818678D01*
X107549508Y-148783299D01*
X107477689Y-148761513D01*
X107403000Y-148754157D01*
X105703000Y-148754157D01*
X105628311Y-148761513D01*
X105556492Y-148783299D01*
X105490304Y-148818678D01*
X105432289Y-148866289D01*
X105384678Y-148924304D01*
X105349299Y-148990492D01*
X105327513Y-149062311D01*
X105320157Y-149137000D01*
X103070000Y-149137000D01*
X103070000Y-147325757D01*
X105322000Y-147325757D01*
X105322000Y-147568243D01*
X105369307Y-147806069D01*
X105462102Y-148030097D01*
X105596820Y-148231717D01*
X105768283Y-148403180D01*
X105969903Y-148537898D01*
X106193931Y-148630693D01*
X106431757Y-148678000D01*
X106674243Y-148678000D01*
X106912069Y-148630693D01*
X107136097Y-148537898D01*
X107337717Y-148403180D01*
X107509180Y-148231717D01*
X107643898Y-148030097D01*
X107736693Y-147806069D01*
X107784000Y-147568243D01*
X107784000Y-147325757D01*
X107736693Y-147087931D01*
X107643898Y-146863903D01*
X107509180Y-146662283D01*
X107498016Y-146651119D01*
X110254724Y-146651119D01*
X112776000Y-149172395D01*
X115297276Y-146651119D01*
X114937088Y-146161452D01*
X114273118Y-145801151D01*
X113551615Y-145577306D01*
X112800305Y-145498520D01*
X112048062Y-145567822D01*
X111323792Y-145782548D01*
X110655330Y-146134445D01*
X110614912Y-146161452D01*
X110254724Y-146651119D01*
X107498016Y-146651119D01*
X107337717Y-146490820D01*
X107136097Y-146356102D01*
X106912069Y-146263307D01*
X106674243Y-146216000D01*
X106431757Y-146216000D01*
X106193931Y-146263307D01*
X105969903Y-146356102D01*
X105768283Y-146490820D01*
X105596820Y-146662283D01*
X105462102Y-146863903D01*
X105369307Y-147087931D01*
X105322000Y-147325757D01*
X103070000Y-147325757D01*
X103070000Y-145103542D01*
X103072811Y-145075002D01*
X103061593Y-144961106D01*
X103028371Y-144851587D01*
X102974421Y-144750654D01*
X102947289Y-144717593D01*
X102901817Y-144662185D01*
X102879645Y-144643989D01*
X100720015Y-142484360D01*
X100701815Y-142462183D01*
X100613346Y-142389579D01*
X100512413Y-142335629D01*
X100402894Y-142302407D01*
X100317538Y-142294000D01*
X100288998Y-142291189D01*
X100260458Y-142294000D01*
X97268658Y-142294000D01*
X96720000Y-141745343D01*
X96720000Y-139242157D01*
X99260146Y-136702012D01*
X99282317Y-136683817D01*
X99354921Y-136595348D01*
X99408871Y-136494415D01*
X99431500Y-136419816D01*
X99431500Y-136553539D01*
X99431501Y-136553549D01*
X99431500Y-139671460D01*
X99428689Y-139700000D01*
X99431500Y-139728539D01*
X99439907Y-139813895D01*
X99473129Y-139923414D01*
X99527079Y-140024347D01*
X99599683Y-140112817D01*
X99621860Y-140131017D01*
X102057987Y-142567145D01*
X102076183Y-142589317D01*
X102152059Y-142651586D01*
X102164652Y-142661921D01*
X102265585Y-142715871D01*
X102375104Y-142749093D01*
X102489000Y-142760311D01*
X102517540Y-142757500D01*
X102756343Y-142757500D01*
X103772487Y-143773645D01*
X103790683Y-143795817D01*
X103879152Y-143868421D01*
X103980085Y-143922371D01*
X104089604Y-143955593D01*
X104203500Y-143966811D01*
X104232040Y-143964000D01*
X111477460Y-143964000D01*
X111506000Y-143966811D01*
X111534540Y-143964000D01*
X111619896Y-143955593D01*
X111729415Y-143922371D01*
X111830348Y-143868421D01*
X111918817Y-143795817D01*
X111937017Y-143773640D01*
X112785645Y-142925013D01*
X112807817Y-142906817D01*
X112880421Y-142818348D01*
X112934371Y-142717415D01*
X112967593Y-142607896D01*
X112976000Y-142522540D01*
X112978811Y-142494000D01*
X112976000Y-142465460D01*
X112976000Y-141190321D01*
X113009367Y-141239003D01*
X113171630Y-141397476D01*
X113361691Y-141521248D01*
X113590764Y-141603527D01*
X113768000Y-141477581D01*
X113768000Y-140271500D01*
X114022000Y-140271500D01*
X114022000Y-141477581D01*
X114199236Y-141603527D01*
X114428309Y-141521248D01*
X114618370Y-141397476D01*
X114780633Y-141239003D01*
X114908861Y-141051919D01*
X114998127Y-140843414D01*
X115045000Y-140621500D01*
X115045000Y-140271500D01*
X114022000Y-140271500D01*
X113768000Y-140271500D01*
X113748000Y-140271500D01*
X113748000Y-140017500D01*
X113768000Y-140017500D01*
X113768000Y-138811419D01*
X114022000Y-138811419D01*
X114022000Y-140017500D01*
X115045000Y-140017500D01*
X115045000Y-139667500D01*
X114998127Y-139445586D01*
X114908861Y-139237081D01*
X114780633Y-139049997D01*
X114618370Y-138891524D01*
X114428309Y-138767752D01*
X114199236Y-138685473D01*
X114022000Y-138811419D01*
X113768000Y-138811419D01*
X113590764Y-138685473D01*
X113361691Y-138767752D01*
X113171630Y-138891524D01*
X113009367Y-139049997D01*
X112970064Y-139107339D01*
X112895198Y-139045899D01*
X112739542Y-138962699D01*
X112570646Y-138911465D01*
X112395000Y-138894165D01*
X112219353Y-138911465D01*
X112050457Y-138962699D01*
X111894801Y-139045899D01*
X111758367Y-139157867D01*
X111646399Y-139294302D01*
X111645000Y-139296919D01*
X111643601Y-139294301D01*
X111531633Y-139157867D01*
X111395198Y-139045899D01*
X111239542Y-138962699D01*
X111070646Y-138911465D01*
X110895000Y-138894165D01*
X110719353Y-138911465D01*
X110550457Y-138962699D01*
X110394801Y-139045899D01*
X110258367Y-139157867D01*
X110146399Y-139294302D01*
X110145000Y-139296919D01*
X110143601Y-139294301D01*
X110031633Y-139157867D01*
X109895198Y-139045899D01*
X109739542Y-138962699D01*
X109570646Y-138911465D01*
X109395000Y-138894165D01*
X109219353Y-138911465D01*
X109050457Y-138962699D01*
X108894801Y-139045899D01*
X108776000Y-139143396D01*
X108776000Y-138669510D01*
X110118282Y-138669508D01*
X110161561Y-138673771D01*
X110318698Y-138658293D01*
X110334267Y-138656760D01*
X110384643Y-138641478D01*
X110500335Y-138606384D01*
X110653386Y-138524577D01*
X110753923Y-138442068D01*
X110787536Y-138414483D01*
X110815122Y-138380869D01*
X113552377Y-135643616D01*
X113585985Y-135616035D01*
X113613567Y-135582426D01*
X113613570Y-135582423D01*
X113696078Y-135481885D01*
X113777885Y-135328835D01*
X113784755Y-135306189D01*
X113828262Y-135162766D01*
X113841010Y-135033333D01*
X113841010Y-135033330D01*
X113845272Y-134990060D01*
X113841010Y-134946790D01*
X113841010Y-124156956D01*
X113888880Y-124204826D01*
X114076087Y-124329913D01*
X114284099Y-124416075D01*
X114504924Y-124460000D01*
X114730076Y-124460000D01*
X114950901Y-124416075D01*
X115158913Y-124329913D01*
X115346120Y-124204826D01*
X115505326Y-124045620D01*
X115630413Y-123858413D01*
X115716575Y-123650401D01*
X115760500Y-123429576D01*
X115760500Y-123204424D01*
X115716575Y-122983599D01*
X115630413Y-122775587D01*
X115505326Y-122588380D01*
X115346120Y-122429174D01*
X115158913Y-122304087D01*
X114950901Y-122217925D01*
X114730076Y-122174000D01*
X114504924Y-122174000D01*
X114284099Y-122217925D01*
X114076087Y-122304087D01*
X113888880Y-122429174D01*
X113841010Y-122477044D01*
X113841010Y-121616956D01*
X113888880Y-121664826D01*
X114076087Y-121789913D01*
X114284099Y-121876075D01*
X114504924Y-121920000D01*
X114730076Y-121920000D01*
X114950901Y-121876075D01*
X115158913Y-121789913D01*
X115346120Y-121664826D01*
X115505326Y-121505620D01*
X115630413Y-121318413D01*
X115716575Y-121110401D01*
X115760500Y-120889576D01*
X115760500Y-120664424D01*
X115716575Y-120443599D01*
X115630413Y-120235587D01*
X115505326Y-120048380D01*
X115346120Y-119889174D01*
X115158913Y-119764087D01*
X114950901Y-119677925D01*
X114730076Y-119634000D01*
X114504924Y-119634000D01*
X114284099Y-119677925D01*
X114076087Y-119764087D01*
X113888880Y-119889174D01*
X113841010Y-119937044D01*
X113841010Y-119076956D01*
X113888880Y-119124826D01*
X114076087Y-119249913D01*
X114284099Y-119336075D01*
X114504924Y-119380000D01*
X114730076Y-119380000D01*
X114950901Y-119336075D01*
X115158913Y-119249913D01*
X115346120Y-119124826D01*
X115505326Y-118965620D01*
X115630413Y-118778413D01*
X115716575Y-118570401D01*
X115760500Y-118349576D01*
X115760500Y-118124424D01*
X115716575Y-117903599D01*
X115630413Y-117695587D01*
X115505326Y-117508380D01*
X115346120Y-117349174D01*
X115158913Y-117224087D01*
X114950901Y-117137925D01*
X114730076Y-117094000D01*
X114504924Y-117094000D01*
X114284099Y-117137925D01*
X114076087Y-117224087D01*
X113888880Y-117349174D01*
X113841010Y-117397044D01*
X113841010Y-116536956D01*
X113888880Y-116584826D01*
X114076087Y-116709913D01*
X114284099Y-116796075D01*
X114504924Y-116840000D01*
X114730076Y-116840000D01*
X114950901Y-116796075D01*
X115158913Y-116709913D01*
X115346120Y-116584826D01*
X115505326Y-116425620D01*
X115630413Y-116238413D01*
X115716575Y-116030401D01*
X115760500Y-115809576D01*
X115760500Y-115584424D01*
X115716575Y-115363599D01*
X115630413Y-115155587D01*
X115505326Y-114968380D01*
X115346120Y-114809174D01*
X115158913Y-114684087D01*
X114950901Y-114597925D01*
X114730076Y-114554000D01*
X114504924Y-114554000D01*
X114284099Y-114597925D01*
X114076087Y-114684087D01*
X113888880Y-114809174D01*
X113841010Y-114857044D01*
X113841010Y-113996956D01*
X113888880Y-114044826D01*
X114076087Y-114169913D01*
X114284099Y-114256075D01*
X114504924Y-114300000D01*
X114730076Y-114300000D01*
X114950901Y-114256075D01*
X115158913Y-114169913D01*
X115346120Y-114044826D01*
X115505326Y-113885620D01*
X115630413Y-113698413D01*
X115716575Y-113490401D01*
X115760500Y-113269576D01*
X115760500Y-113044424D01*
X115716575Y-112823599D01*
X115630413Y-112615587D01*
X115505326Y-112428380D01*
X115346120Y-112269174D01*
X115158913Y-112144087D01*
X114950901Y-112057925D01*
X114730076Y-112014000D01*
X114504924Y-112014000D01*
X114284099Y-112057925D01*
X114076087Y-112144087D01*
X113888880Y-112269174D01*
X113841010Y-112317044D01*
X113841010Y-111456956D01*
X113888880Y-111504826D01*
X114076087Y-111629913D01*
X114284099Y-111716075D01*
X114504924Y-111760000D01*
X114730076Y-111760000D01*
X114950901Y-111716075D01*
X115158913Y-111629913D01*
X115346120Y-111504826D01*
X115505326Y-111345620D01*
X115630413Y-111158413D01*
X115716575Y-110950401D01*
X115760500Y-110729576D01*
X115760500Y-110504424D01*
X115716575Y-110283599D01*
X115630413Y-110075587D01*
X115505326Y-109888380D01*
X115346120Y-109729174D01*
X115158913Y-109604087D01*
X114950901Y-109517925D01*
X114730076Y-109474000D01*
X114504924Y-109474000D01*
X114284099Y-109517925D01*
X114076087Y-109604087D01*
X113888880Y-109729174D01*
X113841010Y-109777044D01*
X113841010Y-108916956D01*
X113888880Y-108964826D01*
X114076087Y-109089913D01*
X114284099Y-109176075D01*
X114504924Y-109220000D01*
X114730076Y-109220000D01*
X114950901Y-109176075D01*
X115158913Y-109089913D01*
X115346120Y-108964826D01*
X115505326Y-108805620D01*
X115630413Y-108618413D01*
X115716575Y-108410401D01*
X115760500Y-108189576D01*
X115760500Y-107964424D01*
X115716575Y-107743599D01*
X115630413Y-107535587D01*
X115505326Y-107348380D01*
X115346120Y-107189174D01*
X115158913Y-107064087D01*
X114950901Y-106977925D01*
X114730076Y-106934000D01*
X114504924Y-106934000D01*
X114284099Y-106977925D01*
X114076087Y-107064087D01*
X113888880Y-107189174D01*
X113841010Y-107237044D01*
X113841010Y-106376956D01*
X113888880Y-106424826D01*
X114076087Y-106549913D01*
X114284099Y-106636075D01*
X114504924Y-106680000D01*
X114730076Y-106680000D01*
X114950901Y-106636075D01*
X115158913Y-106549913D01*
X115346120Y-106424826D01*
X115505326Y-106265620D01*
X115630413Y-106078413D01*
X115716575Y-105870401D01*
X115760500Y-105649576D01*
X115760500Y-105424424D01*
X115716575Y-105203599D01*
X115630413Y-104995587D01*
X115505326Y-104808380D01*
X115346120Y-104649174D01*
X115158913Y-104524087D01*
X114950901Y-104437925D01*
X114730076Y-104394000D01*
X114722114Y-104394000D01*
X114961633Y-104357922D01*
X115220523Y-104264636D01*
X115336480Y-104202656D01*
X115403460Y-103962565D01*
X114617500Y-103176605D01*
X114603358Y-103190748D01*
X114423753Y-103011143D01*
X114437895Y-102997000D01*
X114423753Y-102982858D01*
X114603358Y-102803253D01*
X114617500Y-102817395D01*
X115403460Y-102031435D01*
X115336480Y-101791344D01*
X115087452Y-101674244D01*
X114820365Y-101607977D01*
X114720465Y-101603293D01*
X114724478Y-101600000D01*
X114730076Y-101600000D01*
X114950901Y-101556075D01*
X115158913Y-101469913D01*
X115346120Y-101344826D01*
X115505326Y-101185620D01*
X115630413Y-100998413D01*
X115716575Y-100790401D01*
X115760500Y-100569576D01*
X115760500Y-100344424D01*
X115716575Y-100123599D01*
X115630413Y-99915587D01*
X115505326Y-99728380D01*
X115346120Y-99569174D01*
X115158913Y-99444087D01*
X114950901Y-99357925D01*
X114730076Y-99314000D01*
X114504924Y-99314000D01*
X114284099Y-99357925D01*
X114076087Y-99444087D01*
X113888880Y-99569174D01*
X113729674Y-99728380D01*
X113604587Y-99915587D01*
X113534828Y-100084000D01*
X107942000Y-100084000D01*
X107942000Y-97049977D01*
X107942375Y-97049275D01*
X107992752Y-96883206D01*
X108005500Y-96753773D01*
X108005500Y-96753770D01*
X108009762Y-96710500D01*
X108005500Y-96667230D01*
X108005500Y-95446269D01*
X108009762Y-95402999D01*
X108001886Y-95323035D01*
X107992752Y-95230294D01*
X107942375Y-95064225D01*
X107860569Y-94911176D01*
X107860568Y-94911174D01*
X107778059Y-94810637D01*
X107750475Y-94777025D01*
X107716862Y-94749440D01*
X103320066Y-90352645D01*
X103292475Y-90319025D01*
X103158325Y-90208932D01*
X103005275Y-90127125D01*
X102839206Y-90076748D01*
X102709773Y-90064000D01*
X102709770Y-90064000D01*
X102666500Y-90059738D01*
X102623230Y-90064000D01*
X98559227Y-90064000D01*
X98429794Y-90076748D01*
X98263725Y-90127125D01*
X98110675Y-90208932D01*
X97976525Y-90319025D01*
X97866432Y-90453175D01*
X97784625Y-90606225D01*
X97734248Y-90772294D01*
X97717238Y-90945000D01*
X97734248Y-91117706D01*
X97784625Y-91283775D01*
X97866432Y-91436825D01*
X97976525Y-91570975D01*
X98110675Y-91681068D01*
X98263725Y-91762875D01*
X98429794Y-91813252D01*
X98559227Y-91826000D01*
X102301579Y-91826000D01*
X106243500Y-95767922D01*
X106243501Y-96434523D01*
X106243125Y-96435226D01*
X106192748Y-96601295D01*
X106180000Y-96730727D01*
X106175738Y-96774000D01*
X106180000Y-96817270D01*
X106180001Y-100921717D01*
X106175738Y-100965000D01*
X106192748Y-101137706D01*
X106243125Y-101303775D01*
X106324932Y-101456825D01*
X106435025Y-101590975D01*
X106569175Y-101701068D01*
X106722225Y-101782875D01*
X106888294Y-101833252D01*
X107017727Y-101846000D01*
X107061000Y-101850262D01*
X107104273Y-101846000D01*
X110939413Y-101846000D01*
X110878625Y-101959726D01*
X110828248Y-102125795D01*
X110815500Y-102255228D01*
X110815501Y-103271219D01*
X110815500Y-103271228D01*
X110815501Y-104287219D01*
X110815500Y-104287228D01*
X110815500Y-104922230D01*
X110811238Y-104965500D01*
X110815500Y-105008770D01*
X110815500Y-105008773D01*
X110828248Y-105138206D01*
X110851775Y-105215762D01*
X110878625Y-105304274D01*
X110879000Y-105304976D01*
X110879000Y-116886499D01*
X110868501Y-116876000D01*
X110868501Y-109625346D01*
X110870948Y-109600500D01*
X110868501Y-109575654D01*
X110868501Y-109575647D01*
X110861179Y-109501308D01*
X110832246Y-109405926D01*
X110785260Y-109318022D01*
X110722028Y-109240974D01*
X110702721Y-109225129D01*
X110128000Y-108650409D01*
X110128000Y-108508078D01*
X110097987Y-108357191D01*
X110039113Y-108215058D01*
X109953642Y-108087141D01*
X109844859Y-107978358D01*
X109716942Y-107892887D01*
X109574809Y-107834013D01*
X109423922Y-107804000D01*
X109270078Y-107804000D01*
X109119191Y-107834013D01*
X108977058Y-107892887D01*
X108849141Y-107978358D01*
X108740358Y-108087141D01*
X108654887Y-108215058D01*
X108596013Y-108357191D01*
X108566000Y-108508078D01*
X108566000Y-108661922D01*
X108596013Y-108812809D01*
X108654887Y-108954942D01*
X108740358Y-109082859D01*
X108849141Y-109191642D01*
X108977058Y-109277113D01*
X109119191Y-109335987D01*
X109270078Y-109366000D01*
X109412409Y-109366000D01*
X109856501Y-109810093D01*
X109856501Y-111741078D01*
X108659994Y-110544572D01*
X108659994Y-110402241D01*
X108629981Y-110251354D01*
X108571107Y-110109221D01*
X108485636Y-109981304D01*
X108376853Y-109872521D01*
X108248936Y-109787050D01*
X108106803Y-109728176D01*
X107955916Y-109698163D01*
X107802072Y-109698163D01*
X107651185Y-109728176D01*
X107509052Y-109787050D01*
X107381135Y-109872521D01*
X107272352Y-109981304D01*
X107186881Y-110109221D01*
X107128007Y-110251354D01*
X107097994Y-110402241D01*
X107097994Y-110556085D01*
X107128007Y-110706972D01*
X107186881Y-110849105D01*
X107272352Y-110977022D01*
X107381135Y-111085805D01*
X107509052Y-111171276D01*
X107651185Y-111230150D01*
X107802072Y-111260163D01*
X107944403Y-111260163D01*
X109031501Y-112347262D01*
X109031500Y-116050999D01*
X108930858Y-116151641D01*
X108845387Y-116279558D01*
X108786513Y-116421691D01*
X108756500Y-116572578D01*
X108756500Y-116726422D01*
X108786513Y-116877309D01*
X108845387Y-117019442D01*
X108930858Y-117147359D01*
X109039641Y-117256142D01*
X109167558Y-117341613D01*
X109309691Y-117400487D01*
X109460578Y-117430500D01*
X109581501Y-117430500D01*
X109581501Y-117551423D01*
X109611514Y-117702310D01*
X109670388Y-117844443D01*
X109755859Y-117972360D01*
X109864642Y-118081143D01*
X109992559Y-118166614D01*
X110134692Y-118225488D01*
X110285579Y-118255501D01*
X110439423Y-118255501D01*
X110590310Y-118225488D01*
X110732443Y-118166614D01*
X110860360Y-118081143D01*
X110879000Y-118062503D01*
X110879001Y-134128077D01*
X110009527Y-134997552D01*
X110036178Y-134909693D01*
X110043500Y-134835354D01*
X110043500Y-134835353D01*
X110045948Y-134810500D01*
X110043500Y-134785646D01*
X110043500Y-134071472D01*
X110099105Y-134034318D01*
X110221818Y-133911605D01*
X110318232Y-133767310D01*
X110384644Y-133606978D01*
X110418500Y-133436771D01*
X110418500Y-133263229D01*
X110384644Y-133093022D01*
X110318232Y-132932690D01*
X110221818Y-132788395D01*
X110148423Y-132715000D01*
X110221818Y-132641605D01*
X110318232Y-132497310D01*
X110384644Y-132336978D01*
X110418500Y-132166771D01*
X110418500Y-131993229D01*
X110384644Y-131823022D01*
X110318232Y-131662690D01*
X110221818Y-131518395D01*
X110148423Y-131445000D01*
X110221818Y-131371605D01*
X110318232Y-131227310D01*
X110384644Y-131066978D01*
X110418500Y-130896771D01*
X110418500Y-130723229D01*
X110384644Y-130553022D01*
X110318232Y-130392690D01*
X110221818Y-130248395D01*
X110148423Y-130175000D01*
X110221818Y-130101605D01*
X110318232Y-129957310D01*
X110384644Y-129796978D01*
X110418500Y-129626771D01*
X110418500Y-129453229D01*
X110384644Y-129283022D01*
X110318232Y-129122690D01*
X110221818Y-128978395D01*
X110148423Y-128905000D01*
X110221818Y-128831605D01*
X110318232Y-128687310D01*
X110384644Y-128526978D01*
X110418500Y-128356771D01*
X110418500Y-128183229D01*
X110384644Y-128013022D01*
X110318232Y-127852690D01*
X110221818Y-127708395D01*
X110099105Y-127585682D01*
X109954810Y-127489268D01*
X109794478Y-127422856D01*
X109624271Y-127389000D01*
X109450729Y-127389000D01*
X109280522Y-127422856D01*
X109120190Y-127489268D01*
X109061932Y-127528194D01*
X109038211Y-127499289D01*
X108980196Y-127451678D01*
X108914008Y-127416299D01*
X108842189Y-127394513D01*
X108767500Y-127387157D01*
X107832500Y-127387157D01*
X107832500Y-125555001D01*
X107858142Y-125529359D01*
X107943613Y-125401442D01*
X108002487Y-125259309D01*
X108032500Y-125108422D01*
X108032500Y-124954578D01*
X108002487Y-124803691D01*
X107943613Y-124661558D01*
X107858142Y-124533641D01*
X107832500Y-124507999D01*
X107832500Y-123650001D01*
X107858142Y-123624359D01*
X107943613Y-123496442D01*
X108002487Y-123354309D01*
X108032500Y-123203422D01*
X108032500Y-123049578D01*
X108002487Y-122898691D01*
X107943613Y-122756558D01*
X107858142Y-122628641D01*
X107832500Y-122602999D01*
X107832500Y-113553501D01*
X107858142Y-113527859D01*
X107943613Y-113399942D01*
X108002487Y-113257809D01*
X108032500Y-113106922D01*
X108032500Y-112953078D01*
X108002487Y-112802191D01*
X107943613Y-112660058D01*
X107858142Y-112532141D01*
X107749359Y-112423358D01*
X107621442Y-112337887D01*
X107479309Y-112279013D01*
X107328422Y-112249000D01*
X107174578Y-112249000D01*
X107023691Y-112279013D01*
X106881558Y-112337887D01*
X106753641Y-112423358D01*
X106644858Y-112532141D01*
X106559387Y-112660058D01*
X106500513Y-112802191D01*
X106470500Y-112953078D01*
X106470500Y-113106922D01*
X106500513Y-113257809D01*
X106559387Y-113399942D01*
X106644858Y-113527859D01*
X106670501Y-113553502D01*
X106670501Y-114053429D01*
X106668942Y-114052387D01*
X106526809Y-113993513D01*
X106375922Y-113963500D01*
X106222078Y-113963500D01*
X106071191Y-113993513D01*
X105929058Y-114052387D01*
X105801141Y-114137858D01*
X105800500Y-114138499D01*
X105800500Y-111788540D01*
X105803311Y-111760000D01*
X105798044Y-111706528D01*
X105810000Y-111646422D01*
X105810000Y-111492578D01*
X105779987Y-111341691D01*
X105721113Y-111199558D01*
X105635642Y-111071641D01*
X105526859Y-110962858D01*
X105398942Y-110877387D01*
X105256809Y-110818513D01*
X105105922Y-110788500D01*
X104952078Y-110788500D01*
X104801191Y-110818513D01*
X104721000Y-110851730D01*
X104721000Y-110527703D01*
X104827442Y-110483613D01*
X104955359Y-110398142D01*
X105064142Y-110289359D01*
X105149613Y-110161442D01*
X105208487Y-110019309D01*
X105238500Y-109868422D01*
X105238500Y-109714578D01*
X105208487Y-109563691D01*
X105149613Y-109421558D01*
X105064142Y-109293641D01*
X104955359Y-109184858D01*
X104827442Y-109099387D01*
X104685309Y-109040513D01*
X104534422Y-109010500D01*
X104380578Y-109010500D01*
X104229691Y-109040513D01*
X104087558Y-109099387D01*
X104023614Y-109142113D01*
X103939359Y-109057858D01*
X103811442Y-108972387D01*
X103669309Y-108913513D01*
X103518422Y-108883500D01*
X103364578Y-108883500D01*
X103213691Y-108913513D01*
X103071558Y-108972387D01*
X102943641Y-109057858D01*
X102834858Y-109166641D01*
X102749387Y-109294558D01*
X102690513Y-109436691D01*
X102660500Y-109587578D01*
X102660500Y-109741422D01*
X102690513Y-109892309D01*
X102749387Y-110034442D01*
X102834858Y-110162359D01*
X102860501Y-110188002D01*
X102860501Y-117926928D01*
X102858942Y-117925887D01*
X102716809Y-117867013D01*
X102565922Y-117837000D01*
X102412078Y-117837000D01*
X102381000Y-117843182D01*
X102381000Y-117842578D01*
X102350987Y-117691691D01*
X102292113Y-117549558D01*
X102206642Y-117421641D01*
X102097859Y-117312858D01*
X101969942Y-117227387D01*
X101827809Y-117168513D01*
X101676922Y-117138500D01*
X101523078Y-117138500D01*
X101372191Y-117168513D01*
X101230058Y-117227387D01*
X101102141Y-117312858D01*
X100993358Y-117421641D01*
X100907887Y-117549558D01*
X100849013Y-117691691D01*
X100819000Y-117842578D01*
X100819000Y-117996422D01*
X100849013Y-118147309D01*
X100907887Y-118289442D01*
X100993358Y-118417359D01*
X101019001Y-118443002D01*
X101019001Y-120468761D01*
X100876922Y-120440500D01*
X100723078Y-120440500D01*
X100578466Y-120469265D01*
X100603000Y-120345922D01*
X100603000Y-120192078D01*
X100572987Y-120041191D01*
X100514113Y-119899058D01*
X100428642Y-119771141D01*
X100319859Y-119662358D01*
X100191942Y-119576887D01*
X100049809Y-119518013D01*
X99898922Y-119488000D01*
X99745078Y-119488000D01*
X99594191Y-119518013D01*
X99452058Y-119576887D01*
X99324141Y-119662358D01*
X99215358Y-119771141D01*
X99129887Y-119899058D01*
X99071013Y-120041191D01*
X99041000Y-120192078D01*
X99041000Y-120345922D01*
X99071013Y-120496809D01*
X99129887Y-120638942D01*
X99215358Y-120766859D01*
X99241001Y-120792502D01*
X99241000Y-130061342D01*
X95176856Y-134125487D01*
X95154684Y-134143683D01*
X95129470Y-134174407D01*
X95082079Y-134232153D01*
X95028129Y-134333086D01*
X94994907Y-134442605D01*
X94983689Y-134556500D01*
X94986501Y-134585049D01*
X94986500Y-135585842D01*
X93081356Y-137490987D01*
X93059184Y-137509183D01*
X93040991Y-137531352D01*
X92986579Y-137597653D01*
X92932629Y-137698586D01*
X92899407Y-137808105D01*
X92888189Y-137922000D01*
X92891001Y-137950550D01*
X92891000Y-150225499D01*
X92865358Y-150251141D01*
X92779887Y-150379058D01*
X92721013Y-150521191D01*
X92691000Y-150672078D01*
X92691000Y-150825922D01*
X92721013Y-150976809D01*
X92779887Y-151118942D01*
X92865358Y-151246859D01*
X92974141Y-151355642D01*
X93102058Y-151441113D01*
X93244191Y-151499987D01*
X93395078Y-151530000D01*
X93548922Y-151530000D01*
X93699809Y-151499987D01*
X93841942Y-151441113D01*
X93969859Y-151355642D01*
X94078642Y-151246859D01*
X94164113Y-151118942D01*
X94222987Y-150976809D01*
X94253000Y-150825922D01*
X94253000Y-150672078D01*
X94252877Y-150671457D01*
X94260191Y-150674487D01*
X94411078Y-150704500D01*
X94564922Y-150704500D01*
X94715809Y-150674487D01*
X94857942Y-150615613D01*
X94985859Y-150530142D01*
X95094642Y-150421359D01*
X95180113Y-150293442D01*
X95238987Y-150151309D01*
X95240108Y-150145672D01*
X95304599Y-150158500D01*
X95458443Y-150158500D01*
X95609330Y-150128487D01*
X95751463Y-150069613D01*
X95879380Y-149984142D01*
X95988163Y-149875359D01*
X96073634Y-149747442D01*
X96132508Y-149605309D01*
X96162521Y-149454422D01*
X96162521Y-149300578D01*
X96147839Y-149226768D01*
X96151311Y-149191522D01*
X96148500Y-149162982D01*
X96148500Y-147951001D01*
X96174142Y-147925359D01*
X96259613Y-147797442D01*
X96318487Y-147655309D01*
X96348500Y-147504422D01*
X96348500Y-147350578D01*
X96318487Y-147199691D01*
X96259613Y-147057558D01*
X96174142Y-146929641D01*
X96065359Y-146820858D01*
X95937442Y-146735387D01*
X95795309Y-146676513D01*
X95644422Y-146646500D01*
X95490578Y-146646500D01*
X95339691Y-146676513D01*
X95197558Y-146735387D01*
X95069641Y-146820858D01*
X95069000Y-146821499D01*
X95069000Y-142586199D01*
X97561863Y-145079063D01*
X97580059Y-145101235D01*
X97668528Y-145173839D01*
X97769461Y-145227789D01*
X97878980Y-145261011D01*
X97964336Y-145269418D01*
X97964338Y-145269418D01*
X97992875Y-145272229D01*
X98021412Y-145269418D01*
X100308883Y-145269418D01*
X100334525Y-145295060D01*
X100462442Y-145380531D01*
X100604575Y-145439405D01*
X100755462Y-145469418D01*
X100909306Y-145469418D01*
X101060193Y-145439405D01*
X101202326Y-145380531D01*
X101330243Y-145295060D01*
X101439026Y-145186277D01*
X101524497Y-145058360D01*
X101561461Y-144969121D01*
X101908001Y-145315661D01*
X101908000Y-151304999D01*
X101882358Y-151330641D01*
X101796887Y-151458558D01*
X101738013Y-151600691D01*
X101708000Y-151751578D01*
X101708000Y-151905422D01*
X101738013Y-152056309D01*
X101796887Y-152198442D01*
X101882358Y-152326359D01*
X101991141Y-152435142D01*
X102053786Y-152477000D01*
X82092304Y-152477000D01*
X82404276Y-152052881D01*
X79883000Y-149531605D01*
X77361724Y-152052881D01*
X77673696Y-152477000D01*
X76758000Y-152477000D01*
X76758000Y-151561304D01*
X77182119Y-151873276D01*
X79703395Y-149352000D01*
X80062605Y-149352000D01*
X82583881Y-151873276D01*
X83073548Y-151513088D01*
X83433849Y-150849118D01*
X83657694Y-150127615D01*
X83668297Y-150026500D01*
X85524428Y-150026500D01*
X85536688Y-150150982D01*
X85572998Y-150270680D01*
X85631963Y-150380994D01*
X85711315Y-150477685D01*
X85808006Y-150557037D01*
X85918320Y-150616002D01*
X86038018Y-150652312D01*
X86162500Y-150664572D01*
X86391750Y-150661500D01*
X86550500Y-150502750D01*
X86550500Y-149288500D01*
X85686250Y-149288500D01*
X85527500Y-149447250D01*
X85524428Y-150026500D01*
X83668297Y-150026500D01*
X83736480Y-149376305D01*
X83667178Y-148624062D01*
X83570065Y-148296500D01*
X85524428Y-148296500D01*
X85527500Y-148875750D01*
X85686250Y-149034500D01*
X86550500Y-149034500D01*
X86550500Y-147820250D01*
X86804500Y-147820250D01*
X86804500Y-149034500D01*
X86824500Y-149034500D01*
X86824500Y-149288500D01*
X86804500Y-149288500D01*
X86804500Y-150502750D01*
X86963250Y-150661500D01*
X87192500Y-150664572D01*
X87316982Y-150652312D01*
X87436680Y-150616002D01*
X87546994Y-150557037D01*
X87643685Y-150477685D01*
X87723037Y-150380994D01*
X87763134Y-150305979D01*
X87832958Y-150343301D01*
X88001854Y-150394535D01*
X88177500Y-150411835D01*
X88353147Y-150394535D01*
X88522043Y-150343301D01*
X88677699Y-150260101D01*
X88814133Y-150148133D01*
X88926101Y-150011699D01*
X88927500Y-150009081D01*
X88928900Y-150011699D01*
X89040868Y-150148133D01*
X89177302Y-150260101D01*
X89332958Y-150343301D01*
X89501854Y-150394535D01*
X89677500Y-150411835D01*
X89853147Y-150394535D01*
X90022043Y-150343301D01*
X90177699Y-150260101D01*
X90314133Y-150148133D01*
X90426101Y-150011699D01*
X90509301Y-149856043D01*
X90560535Y-149687147D01*
X90573500Y-149555513D01*
X90573500Y-148767487D01*
X90560535Y-148635853D01*
X90509301Y-148466957D01*
X90426101Y-148311301D01*
X90314133Y-148174867D01*
X90177698Y-148062899D01*
X90022042Y-147979699D01*
X89853146Y-147928465D01*
X89677500Y-147911165D01*
X89501853Y-147928465D01*
X89332957Y-147979699D01*
X89177301Y-148062899D01*
X89040867Y-148174867D01*
X88928899Y-148311302D01*
X88927500Y-148313919D01*
X88926101Y-148311301D01*
X88814133Y-148174867D01*
X88677698Y-148062899D01*
X88522042Y-147979699D01*
X88353146Y-147928465D01*
X88177500Y-147911165D01*
X88001853Y-147928465D01*
X87832957Y-147979699D01*
X87763134Y-148017020D01*
X87723037Y-147942006D01*
X87643685Y-147845315D01*
X87546994Y-147765963D01*
X87436680Y-147706998D01*
X87316982Y-147670688D01*
X87192500Y-147658428D01*
X86963250Y-147661500D01*
X86804500Y-147820250D01*
X86550500Y-147820250D01*
X86391750Y-147661500D01*
X86162500Y-147658428D01*
X86038018Y-147670688D01*
X85918320Y-147706998D01*
X85808006Y-147765963D01*
X85711315Y-147845315D01*
X85631963Y-147942006D01*
X85572998Y-148052320D01*
X85536688Y-148172018D01*
X85524428Y-148296500D01*
X83570065Y-148296500D01*
X83452452Y-147899792D01*
X83100555Y-147231330D01*
X83073548Y-147190912D01*
X82583881Y-146830724D01*
X80062605Y-149352000D01*
X79703395Y-149352000D01*
X77182119Y-146830724D01*
X76758000Y-147142696D01*
X76758000Y-146651119D01*
X77361724Y-146651119D01*
X79883000Y-149172395D01*
X82404276Y-146651119D01*
X82044088Y-146161452D01*
X81380118Y-145801151D01*
X80658615Y-145577306D01*
X79907305Y-145498520D01*
X79155062Y-145567822D01*
X78430792Y-145782548D01*
X77762330Y-146134445D01*
X77721912Y-146161452D01*
X77361724Y-146651119D01*
X76758000Y-146651119D01*
X76758000Y-140629640D01*
X90287500Y-140629640D01*
X90287500Y-141652999D01*
X90261858Y-141678641D01*
X90176387Y-141806558D01*
X90117513Y-141948691D01*
X90087500Y-142099578D01*
X90087500Y-142253422D01*
X90117513Y-142404309D01*
X90176387Y-142546442D01*
X90261858Y-142674359D01*
X90370641Y-142783142D01*
X90498558Y-142868613D01*
X90640691Y-142927487D01*
X90791578Y-142957500D01*
X90945422Y-142957500D01*
X91096309Y-142927487D01*
X91238442Y-142868613D01*
X91303500Y-142825143D01*
X91303500Y-143621499D01*
X91277858Y-143647141D01*
X91192387Y-143775058D01*
X91133513Y-143917191D01*
X91103500Y-144068078D01*
X91103500Y-144221922D01*
X91133513Y-144372809D01*
X91192387Y-144514942D01*
X91277858Y-144642859D01*
X91386641Y-144751642D01*
X91514558Y-144837113D01*
X91656691Y-144895987D01*
X91807578Y-144926000D01*
X91961422Y-144926000D01*
X92112309Y-144895987D01*
X92254442Y-144837113D01*
X92382359Y-144751642D01*
X92491142Y-144642859D01*
X92576613Y-144514942D01*
X92635487Y-144372809D01*
X92665500Y-144221922D01*
X92665500Y-144068078D01*
X92635487Y-143917191D01*
X92576613Y-143775058D01*
X92491142Y-143647141D01*
X92465500Y-143621499D01*
X92465500Y-136130657D01*
X97736146Y-130860012D01*
X97758317Y-130841817D01*
X97830921Y-130753348D01*
X97884871Y-130652415D01*
X97918093Y-130542896D01*
X97926500Y-130457540D01*
X97926500Y-130457538D01*
X97929311Y-130429001D01*
X97926500Y-130400464D01*
X97926500Y-120244029D01*
X99983845Y-118186686D01*
X100020108Y-118186686D01*
X100170995Y-118156673D01*
X100313128Y-118097799D01*
X100441045Y-118012328D01*
X100549828Y-117903545D01*
X100635299Y-117775628D01*
X100694173Y-117633495D01*
X100724186Y-117482608D01*
X100724186Y-117328764D01*
X100694173Y-117177877D01*
X100635299Y-117035744D01*
X100549828Y-116907827D01*
X100441045Y-116799044D01*
X100320596Y-116718563D01*
X100844651Y-116194508D01*
X100866816Y-116176318D01*
X100939420Y-116087849D01*
X100993370Y-115986916D01*
X101026592Y-115877397D01*
X101034999Y-115792041D01*
X101034999Y-115792040D01*
X101037810Y-115763501D01*
X101034999Y-115734961D01*
X101034999Y-109111502D01*
X101063642Y-109082859D01*
X101149113Y-108954942D01*
X101207987Y-108812809D01*
X101238000Y-108661922D01*
X101238000Y-108508078D01*
X101207987Y-108357191D01*
X101149113Y-108215058D01*
X101063642Y-108087141D01*
X100954859Y-107978358D01*
X100826942Y-107892887D01*
X100684809Y-107834013D01*
X100533922Y-107804000D01*
X100380078Y-107804000D01*
X100229191Y-107834013D01*
X100087058Y-107892887D01*
X99959141Y-107978358D01*
X99850358Y-108087141D01*
X99764887Y-108215058D01*
X99706013Y-108357191D01*
X99676000Y-108508078D01*
X99676000Y-108661922D01*
X99706013Y-108812809D01*
X99764887Y-108954942D01*
X99850358Y-109082859D01*
X99873000Y-109105501D01*
X99872999Y-115522842D01*
X96129356Y-119266487D01*
X96107184Y-119284683D01*
X96065008Y-119336075D01*
X96034579Y-119373153D01*
X95980629Y-119474086D01*
X95947407Y-119583605D01*
X95936189Y-119697500D01*
X95939001Y-119726050D01*
X95939000Y-126844460D01*
X95936189Y-126873000D01*
X95939000Y-126901539D01*
X95947407Y-126986895D01*
X95980629Y-127096414D01*
X96002501Y-127137333D01*
X96002500Y-129680342D01*
X90710755Y-134972087D01*
X90806391Y-123950910D01*
X90869674Y-124045620D01*
X91028880Y-124204826D01*
X91216087Y-124329913D01*
X91424099Y-124416075D01*
X91644924Y-124460000D01*
X91870076Y-124460000D01*
X92090901Y-124416075D01*
X92298913Y-124329913D01*
X92486120Y-124204826D01*
X92645326Y-124045620D01*
X92770413Y-123858413D01*
X92856575Y-123650401D01*
X92900500Y-123429576D01*
X92900500Y-123204424D01*
X92856575Y-122983599D01*
X92770413Y-122775587D01*
X92645326Y-122588380D01*
X92486120Y-122429174D01*
X92298913Y-122304087D01*
X92090901Y-122217925D01*
X91870076Y-122174000D01*
X91644924Y-122174000D01*
X91424099Y-122217925D01*
X91216087Y-122304087D01*
X91028880Y-122429174D01*
X90869674Y-122588380D01*
X90817537Y-122666409D01*
X90828149Y-121443473D01*
X90869674Y-121505620D01*
X91028880Y-121664826D01*
X91216087Y-121789913D01*
X91424099Y-121876075D01*
X91644924Y-121920000D01*
X91870076Y-121920000D01*
X92090901Y-121876075D01*
X92298913Y-121789913D01*
X92486120Y-121664826D01*
X92645326Y-121505620D01*
X92770413Y-121318413D01*
X92856575Y-121110401D01*
X92900500Y-120889576D01*
X92900500Y-120664424D01*
X92856575Y-120443599D01*
X92770413Y-120235587D01*
X92645326Y-120048380D01*
X92486120Y-119889174D01*
X92298913Y-119764087D01*
X92090901Y-119677925D01*
X91870076Y-119634000D01*
X91644924Y-119634000D01*
X91424099Y-119677925D01*
X91216087Y-119764087D01*
X91028880Y-119889174D01*
X90869674Y-120048380D01*
X90839868Y-120092989D01*
X90849907Y-118936036D01*
X90869674Y-118965620D01*
X91028880Y-119124826D01*
X91216087Y-119249913D01*
X91424099Y-119336075D01*
X91644924Y-119380000D01*
X91870076Y-119380000D01*
X92090901Y-119336075D01*
X92298913Y-119249913D01*
X92486120Y-119124826D01*
X92645326Y-118965620D01*
X92770413Y-118778413D01*
X92856575Y-118570401D01*
X92900500Y-118349576D01*
X92900500Y-118124424D01*
X92856575Y-117903599D01*
X92770413Y-117695587D01*
X92645326Y-117508380D01*
X92486120Y-117349174D01*
X92298913Y-117224087D01*
X92090901Y-117137925D01*
X91870076Y-117094000D01*
X91644924Y-117094000D01*
X91424099Y-117137925D01*
X91216087Y-117224087D01*
X91028880Y-117349174D01*
X90869674Y-117508380D01*
X90862198Y-117519568D01*
X90871674Y-116427620D01*
X91028880Y-116584826D01*
X91216087Y-116709913D01*
X91424099Y-116796075D01*
X91644924Y-116840000D01*
X91870076Y-116840000D01*
X92090901Y-116796075D01*
X92298913Y-116709913D01*
X92486120Y-116584826D01*
X92645326Y-116425620D01*
X92770413Y-116238413D01*
X92856575Y-116030401D01*
X92900500Y-115809576D01*
X92900500Y-115584424D01*
X92856575Y-115363599D01*
X92770413Y-115155587D01*
X92645326Y-114968380D01*
X92486120Y-114809174D01*
X92298913Y-114684087D01*
X92090901Y-114597925D01*
X91870076Y-114554000D01*
X91644924Y-114554000D01*
X91424099Y-114597925D01*
X91216087Y-114684087D01*
X91028880Y-114809174D01*
X90884464Y-114953590D01*
X90893525Y-113909471D01*
X91028880Y-114044826D01*
X91216087Y-114169913D01*
X91424099Y-114256075D01*
X91644924Y-114300000D01*
X91870076Y-114300000D01*
X92090901Y-114256075D01*
X92298913Y-114169913D01*
X92486120Y-114044826D01*
X92645326Y-113885620D01*
X92770413Y-113698413D01*
X92856575Y-113490401D01*
X92900500Y-113269576D01*
X92900500Y-113044424D01*
X92856575Y-112823599D01*
X92770413Y-112615587D01*
X92645326Y-112428380D01*
X92486120Y-112269174D01*
X92298913Y-112144087D01*
X92090901Y-112057925D01*
X91870076Y-112014000D01*
X91644924Y-112014000D01*
X91424099Y-112057925D01*
X91216087Y-112144087D01*
X91028880Y-112269174D01*
X90906698Y-112391356D01*
X90915376Y-111391322D01*
X91028880Y-111504826D01*
X91216087Y-111629913D01*
X91424099Y-111716075D01*
X91644924Y-111760000D01*
X91870076Y-111760000D01*
X92090901Y-111716075D01*
X92298913Y-111629913D01*
X92486120Y-111504826D01*
X92645326Y-111345620D01*
X92770413Y-111158413D01*
X92856575Y-110950401D01*
X92900500Y-110729576D01*
X92900500Y-110504424D01*
X92856575Y-110283599D01*
X92770413Y-110075587D01*
X92645326Y-109888380D01*
X92486120Y-109729174D01*
X92298913Y-109604087D01*
X92090901Y-109517925D01*
X91870076Y-109474000D01*
X91644924Y-109474000D01*
X91424099Y-109517925D01*
X91216087Y-109604087D01*
X91028880Y-109729174D01*
X90928931Y-109829123D01*
X90937227Y-108873173D01*
X91028880Y-108964826D01*
X91216087Y-109089913D01*
X91424099Y-109176075D01*
X91644924Y-109220000D01*
X91870076Y-109220000D01*
X92090901Y-109176075D01*
X92298913Y-109089913D01*
X92486120Y-108964826D01*
X92645326Y-108805620D01*
X92770413Y-108618413D01*
X92856575Y-108410401D01*
X92900500Y-108189576D01*
X92900500Y-107964424D01*
X92856575Y-107743599D01*
X92770413Y-107535587D01*
X92645326Y-107348380D01*
X92486120Y-107189174D01*
X92298913Y-107064087D01*
X92090901Y-106977925D01*
X91870076Y-106934000D01*
X91644924Y-106934000D01*
X91424099Y-106977925D01*
X91216087Y-107064087D01*
X91028880Y-107189174D01*
X90951165Y-107266889D01*
X90959078Y-106355024D01*
X91028880Y-106424826D01*
X91216087Y-106549913D01*
X91424099Y-106636075D01*
X91644924Y-106680000D01*
X91870076Y-106680000D01*
X92090901Y-106636075D01*
X92298913Y-106549913D01*
X92486120Y-106424826D01*
X92645326Y-106265620D01*
X92770413Y-106078413D01*
X92856575Y-105870401D01*
X92900500Y-105649576D01*
X92900500Y-105484093D01*
X95072094Y-103312500D01*
X99927101Y-103312500D01*
X101516096Y-104901496D01*
X101516096Y-105043826D01*
X101546109Y-105194713D01*
X101604983Y-105336846D01*
X101690454Y-105464763D01*
X101799237Y-105573546D01*
X101927154Y-105659017D01*
X102069287Y-105717891D01*
X102220174Y-105747904D01*
X102374018Y-105747904D01*
X102524905Y-105717891D01*
X102667038Y-105659017D01*
X102794955Y-105573546D01*
X102903738Y-105464763D01*
X102989209Y-105336846D01*
X103048083Y-105194713D01*
X103050831Y-105180897D01*
X103054853Y-105180501D01*
X103550392Y-105180501D01*
X103633141Y-105263250D01*
X103761058Y-105348721D01*
X103903191Y-105407595D01*
X104054078Y-105437608D01*
X104207922Y-105437608D01*
X104358809Y-105407595D01*
X104500942Y-105348721D01*
X104628859Y-105263250D01*
X104737642Y-105154467D01*
X104823113Y-105026550D01*
X104881987Y-104884417D01*
X104912000Y-104733530D01*
X104912000Y-104579686D01*
X104881987Y-104428799D01*
X104823113Y-104286666D01*
X104737642Y-104158749D01*
X104628859Y-104049966D01*
X104500942Y-103964495D01*
X104358809Y-103905621D01*
X104207922Y-103875608D01*
X104159000Y-103875608D01*
X104159000Y-103872578D01*
X104128987Y-103721691D01*
X104070113Y-103579558D01*
X103984642Y-103451641D01*
X103875859Y-103342858D01*
X103747942Y-103257387D01*
X103605809Y-103198513D01*
X103454922Y-103168500D01*
X103312592Y-103168500D01*
X101530876Y-101386785D01*
X101515027Y-101367473D01*
X101437979Y-101304241D01*
X101350075Y-101257255D01*
X101254693Y-101228322D01*
X101180354Y-101221000D01*
X101180346Y-101221000D01*
X101155500Y-101218553D01*
X101130654Y-101221000D01*
X93372001Y-101221000D01*
X93271359Y-101120358D01*
X93143442Y-101034887D01*
X93001309Y-100976013D01*
X92850422Y-100946000D01*
X92792123Y-100946000D01*
X92856575Y-100790401D01*
X92900500Y-100569576D01*
X92900500Y-100344424D01*
X92856575Y-100123599D01*
X92770413Y-99915587D01*
X92645326Y-99728380D01*
X92486120Y-99569174D01*
X92298913Y-99444087D01*
X92090901Y-99357925D01*
X91870076Y-99314000D01*
X91644924Y-99314000D01*
X91424099Y-99357925D01*
X91216087Y-99444087D01*
X91028880Y-99569174D01*
X90869674Y-99728380D01*
X90744587Y-99915587D01*
X90658425Y-100123599D01*
X90614500Y-100344424D01*
X90614500Y-100569576D01*
X90658425Y-100790401D01*
X90744587Y-100998413D01*
X90869674Y-101185620D01*
X91028880Y-101344826D01*
X91216087Y-101469913D01*
X91424099Y-101556075D01*
X91644924Y-101600000D01*
X91870076Y-101600000D01*
X92007915Y-101572582D01*
X91992500Y-101650078D01*
X91992500Y-101803922D01*
X92007915Y-101881418D01*
X91870076Y-101854000D01*
X91644924Y-101854000D01*
X91424099Y-101897925D01*
X91216087Y-101984087D01*
X91028880Y-102109174D01*
X90869674Y-102268380D01*
X90744587Y-102455587D01*
X90658425Y-102663599D01*
X90614500Y-102884424D01*
X90614500Y-103109576D01*
X90658425Y-103330401D01*
X90744587Y-103538413D01*
X90869674Y-103725620D01*
X91028880Y-103884826D01*
X91216087Y-104009913D01*
X91424099Y-104096075D01*
X91644924Y-104140000D01*
X91870076Y-104140000D01*
X92090901Y-104096075D01*
X92298913Y-104009913D01*
X92486120Y-103884826D01*
X92564787Y-103806159D01*
X92611358Y-103875859D01*
X92720141Y-103984642D01*
X92848058Y-104070113D01*
X92872976Y-104080435D01*
X92377089Y-104576322D01*
X92298913Y-104524087D01*
X92090901Y-104437925D01*
X91870076Y-104394000D01*
X91644924Y-104394000D01*
X91424099Y-104437925D01*
X91216087Y-104524087D01*
X91028880Y-104649174D01*
X90869674Y-104808380D01*
X90744587Y-104995587D01*
X90658425Y-105203599D01*
X90649199Y-105249980D01*
X76758000Y-105249980D01*
X76758000Y-81774578D01*
X90849500Y-81774578D01*
X90849500Y-81928422D01*
X90879513Y-82079309D01*
X90938387Y-82221442D01*
X91023858Y-82349359D01*
X91126501Y-82452002D01*
X91126500Y-86136997D01*
X91135630Y-86229697D01*
X91171711Y-86348641D01*
X91230304Y-86458260D01*
X91309157Y-86554343D01*
X91405239Y-86633196D01*
X91514858Y-86691789D01*
X91524581Y-86694739D01*
X93612487Y-88782645D01*
X93630683Y-88804817D01*
X93719152Y-88877421D01*
X93820085Y-88931371D01*
X93929604Y-88964593D01*
X94043499Y-88975811D01*
X94072039Y-88973000D01*
X102375343Y-88973000D01*
X105867250Y-92464908D01*
X105867250Y-92501172D01*
X105897263Y-92652059D01*
X105956137Y-92794192D01*
X106041608Y-92922109D01*
X106150391Y-93030892D01*
X106278308Y-93116363D01*
X106420441Y-93175237D01*
X106571328Y-93205250D01*
X106725172Y-93205250D01*
X106876059Y-93175237D01*
X107018192Y-93116363D01*
X107146109Y-93030892D01*
X107254892Y-92922109D01*
X107340363Y-92794192D01*
X107399237Y-92652059D01*
X107429250Y-92501172D01*
X107429250Y-92347328D01*
X107399237Y-92196441D01*
X107340363Y-92054308D01*
X107254892Y-91926391D01*
X107146109Y-91817608D01*
X107036300Y-91744236D01*
X110872473Y-91744236D01*
X110954752Y-91973309D01*
X111078524Y-92163370D01*
X111236997Y-92325633D01*
X111294339Y-92364936D01*
X111232899Y-92439801D01*
X111149699Y-92595457D01*
X111098465Y-92764353D01*
X111081165Y-92940000D01*
X111098465Y-93115647D01*
X111149699Y-93284543D01*
X111232899Y-93440199D01*
X111344867Y-93576633D01*
X111481301Y-93688601D01*
X111483918Y-93690000D01*
X111481301Y-93691399D01*
X111344867Y-93803367D01*
X111232899Y-93939801D01*
X111149699Y-94095457D01*
X111098465Y-94264353D01*
X111081165Y-94440000D01*
X111098465Y-94615647D01*
X111149699Y-94784543D01*
X111232899Y-94940199D01*
X111344867Y-95076633D01*
X111406033Y-95126830D01*
X111364911Y-95148810D01*
X111269012Y-95227512D01*
X111190310Y-95323411D01*
X111131829Y-95432821D01*
X111095817Y-95551538D01*
X111083657Y-95674999D01*
X111083657Y-96205001D01*
X111095817Y-96328462D01*
X111131829Y-96447179D01*
X111190310Y-96556589D01*
X111269012Y-96652488D01*
X111364911Y-96731190D01*
X111474321Y-96789671D01*
X111593038Y-96825683D01*
X111716499Y-96837843D01*
X112946501Y-96837843D01*
X113069962Y-96825683D01*
X113188679Y-96789671D01*
X113298089Y-96731190D01*
X113393988Y-96652488D01*
X113472690Y-96556589D01*
X113531171Y-96447179D01*
X113567183Y-96328462D01*
X113579343Y-96205001D01*
X113579343Y-95674999D01*
X113567183Y-95551538D01*
X113531171Y-95432821D01*
X113472690Y-95323411D01*
X113393988Y-95227512D01*
X113298089Y-95148810D01*
X113256967Y-95126830D01*
X113318133Y-95076633D01*
X113430101Y-94940199D01*
X113513301Y-94784543D01*
X113564535Y-94615647D01*
X113581835Y-94440000D01*
X113564535Y-94264353D01*
X113513301Y-94095457D01*
X113430101Y-93939801D01*
X113318133Y-93803367D01*
X113181699Y-93691399D01*
X113179082Y-93690000D01*
X113181699Y-93688601D01*
X113318133Y-93576633D01*
X113430101Y-93440199D01*
X113513301Y-93284543D01*
X113564535Y-93115647D01*
X113581835Y-92940000D01*
X113564535Y-92764353D01*
X113513301Y-92595457D01*
X113430101Y-92439801D01*
X113368661Y-92364936D01*
X113426003Y-92325633D01*
X113584476Y-92163370D01*
X113708248Y-91973309D01*
X113790527Y-91744236D01*
X113664581Y-91567000D01*
X112458500Y-91567000D01*
X112458500Y-91587000D01*
X112204500Y-91587000D01*
X112204500Y-91567000D01*
X110998419Y-91567000D01*
X110872473Y-91744236D01*
X107036300Y-91744236D01*
X107018192Y-91732137D01*
X106876059Y-91673263D01*
X106725172Y-91643250D01*
X106688908Y-91643250D01*
X106181422Y-91135764D01*
X110872473Y-91135764D01*
X110998419Y-91313000D01*
X112204500Y-91313000D01*
X112204500Y-90290000D01*
X112458500Y-90290000D01*
X112458500Y-91313000D01*
X113664581Y-91313000D01*
X113790527Y-91135764D01*
X113708248Y-90906691D01*
X113584476Y-90716630D01*
X113426003Y-90554367D01*
X113238919Y-90426139D01*
X113030414Y-90336873D01*
X112808500Y-90290000D01*
X112458500Y-90290000D01*
X112204500Y-90290000D01*
X111854500Y-90290000D01*
X111632586Y-90336873D01*
X111424081Y-90426139D01*
X111236997Y-90554367D01*
X111078524Y-90716630D01*
X110954752Y-90906691D01*
X110872473Y-91135764D01*
X106181422Y-91135764D01*
X103047017Y-88001360D01*
X103028817Y-87979183D01*
X102940348Y-87906579D01*
X102839415Y-87852629D01*
X102729896Y-87819407D01*
X102644540Y-87811000D01*
X102616000Y-87808189D01*
X102587460Y-87811000D01*
X94284158Y-87811000D01*
X92388500Y-85915343D01*
X92388500Y-82820000D01*
X106948157Y-82820000D01*
X106948157Y-84820000D01*
X106955513Y-84894689D01*
X106977299Y-84966508D01*
X107012678Y-85032696D01*
X107060289Y-85090711D01*
X107118304Y-85138322D01*
X107184492Y-85173701D01*
X107256311Y-85195487D01*
X107331000Y-85202843D01*
X109331000Y-85202843D01*
X109405689Y-85195487D01*
X109477508Y-85173701D01*
X109543696Y-85138322D01*
X109601711Y-85090711D01*
X109649322Y-85032696D01*
X109684701Y-84966508D01*
X109688066Y-84955413D01*
X112375192Y-84955413D01*
X112470956Y-85219814D01*
X112760571Y-85360704D01*
X113072108Y-85442384D01*
X113393595Y-85461718D01*
X113712675Y-85417961D01*
X114017088Y-85312795D01*
X114191044Y-85219814D01*
X114286808Y-84955413D01*
X113331000Y-83999605D01*
X112375192Y-84955413D01*
X109688066Y-84955413D01*
X109706487Y-84894689D01*
X109713843Y-84820000D01*
X109713843Y-83882595D01*
X111689282Y-83882595D01*
X111733039Y-84201675D01*
X111838205Y-84506088D01*
X111931186Y-84680044D01*
X112195587Y-84775808D01*
X113151395Y-83820000D01*
X113510605Y-83820000D01*
X114466413Y-84775808D01*
X114730814Y-84680044D01*
X114871704Y-84390429D01*
X114953384Y-84078892D01*
X114972718Y-83757405D01*
X114928961Y-83438325D01*
X114823795Y-83133912D01*
X114730814Y-82959956D01*
X114466413Y-82864192D01*
X113510605Y-83820000D01*
X113151395Y-83820000D01*
X112195587Y-82864192D01*
X111931186Y-82959956D01*
X111790296Y-83249571D01*
X111708616Y-83561108D01*
X111689282Y-83882595D01*
X109713843Y-83882595D01*
X109713843Y-82820000D01*
X109706487Y-82745311D01*
X109688067Y-82684587D01*
X112375192Y-82684587D01*
X113331000Y-83640395D01*
X114286808Y-82684587D01*
X114191044Y-82420186D01*
X113901429Y-82279296D01*
X113589892Y-82197616D01*
X113268405Y-82178282D01*
X112949325Y-82222039D01*
X112644912Y-82327205D01*
X112470956Y-82420186D01*
X112375192Y-82684587D01*
X109688067Y-82684587D01*
X109684701Y-82673492D01*
X109649322Y-82607304D01*
X109601711Y-82549289D01*
X109543696Y-82501678D01*
X109477508Y-82466299D01*
X109405689Y-82444513D01*
X109331000Y-82437157D01*
X107331000Y-82437157D01*
X107256311Y-82444513D01*
X107184492Y-82466299D01*
X107118304Y-82501678D01*
X107060289Y-82549289D01*
X107012678Y-82607304D01*
X106977299Y-82673492D01*
X106955513Y-82745311D01*
X106948157Y-82820000D01*
X92388500Y-82820000D01*
X92388500Y-82044052D01*
X92411500Y-81928422D01*
X92411500Y-81774578D01*
X92381487Y-81623691D01*
X92322613Y-81481558D01*
X92237142Y-81353641D01*
X92128359Y-81244858D01*
X92000442Y-81159387D01*
X91858309Y-81100513D01*
X91707422Y-81070500D01*
X91553578Y-81070500D01*
X91402691Y-81100513D01*
X91260558Y-81159387D01*
X91132641Y-81244858D01*
X91023858Y-81353641D01*
X90938387Y-81481558D01*
X90879513Y-81623691D01*
X90849500Y-81774578D01*
X76758000Y-81774578D01*
X76758000Y-76620391D01*
X107334019Y-76620391D01*
X107431343Y-76894752D01*
X107580322Y-77144855D01*
X107775231Y-77361088D01*
X108008580Y-77535141D01*
X108271401Y-77660325D01*
X108418610Y-77704976D01*
X108648500Y-77583655D01*
X108648500Y-76390500D01*
X107454686Y-76390500D01*
X107334019Y-76620391D01*
X76758000Y-76620391D01*
X76758000Y-75906609D01*
X107334019Y-75906609D01*
X107454686Y-76136500D01*
X108648500Y-76136500D01*
X108648500Y-74943345D01*
X108902500Y-74943345D01*
X108902500Y-76136500D01*
X108922500Y-76136500D01*
X108922500Y-76390500D01*
X108902500Y-76390500D01*
X108902500Y-77583655D01*
X109132390Y-77704976D01*
X109279599Y-77660325D01*
X109542420Y-77535141D01*
X109775769Y-77361088D01*
X109970678Y-77144855D01*
X110119657Y-76894752D01*
X110177272Y-76732332D01*
X110224602Y-76846597D01*
X110359320Y-77048217D01*
X110530783Y-77219680D01*
X110732403Y-77354398D01*
X110956431Y-77447193D01*
X111194257Y-77494500D01*
X111436743Y-77494500D01*
X111674569Y-77447193D01*
X111898597Y-77354398D01*
X112100217Y-77219680D01*
X112271680Y-77048217D01*
X112406398Y-76846597D01*
X112499193Y-76622569D01*
X112546500Y-76384743D01*
X112546500Y-76142257D01*
X112499193Y-75904431D01*
X112406398Y-75680403D01*
X112271680Y-75478783D01*
X112206397Y-75413500D01*
X112622657Y-75413500D01*
X112622657Y-77113500D01*
X112630013Y-77188189D01*
X112651799Y-77260008D01*
X112687178Y-77326196D01*
X112734789Y-77384211D01*
X112792804Y-77431822D01*
X112858992Y-77467201D01*
X112930811Y-77488987D01*
X113005500Y-77496343D01*
X114705500Y-77496343D01*
X114780189Y-77488987D01*
X114852008Y-77467201D01*
X114918196Y-77431822D01*
X114976211Y-77384211D01*
X115023822Y-77326196D01*
X115059201Y-77260008D01*
X115080987Y-77188189D01*
X115088343Y-77113500D01*
X115088343Y-75413500D01*
X115080987Y-75338811D01*
X115059201Y-75266992D01*
X115023822Y-75200804D01*
X114976211Y-75142789D01*
X114918196Y-75095178D01*
X114852008Y-75059799D01*
X114780189Y-75038013D01*
X114705500Y-75030657D01*
X113005500Y-75030657D01*
X112930811Y-75038013D01*
X112858992Y-75059799D01*
X112792804Y-75095178D01*
X112734789Y-75142789D01*
X112687178Y-75200804D01*
X112651799Y-75266992D01*
X112630013Y-75338811D01*
X112622657Y-75413500D01*
X112206397Y-75413500D01*
X112100217Y-75307320D01*
X111898597Y-75172602D01*
X111674569Y-75079807D01*
X111436743Y-75032500D01*
X111194257Y-75032500D01*
X110956431Y-75079807D01*
X110732403Y-75172602D01*
X110530783Y-75307320D01*
X110359320Y-75478783D01*
X110224602Y-75680403D01*
X110177272Y-75794668D01*
X110119657Y-75632248D01*
X109970678Y-75382145D01*
X109775769Y-75165912D01*
X109542420Y-74991859D01*
X109279599Y-74866675D01*
X109132390Y-74822024D01*
X108902500Y-74943345D01*
X108648500Y-74943345D01*
X108418610Y-74822024D01*
X108271401Y-74866675D01*
X108008580Y-74991859D01*
X107775231Y-75165912D01*
X107580322Y-75382145D01*
X107431343Y-75632248D01*
X107334019Y-75906609D01*
X76758000Y-75906609D01*
X76758000Y-73049500D01*
X109827428Y-73049500D01*
X109839688Y-73173982D01*
X109875998Y-73293680D01*
X109934963Y-73403994D01*
X110014315Y-73500685D01*
X110111006Y-73580037D01*
X110221320Y-73639002D01*
X110341018Y-73675312D01*
X110465500Y-73687572D01*
X111029750Y-73684500D01*
X111188500Y-73525750D01*
X111188500Y-72326500D01*
X109989250Y-72326500D01*
X109830500Y-72485250D01*
X109827428Y-73049500D01*
X76758000Y-73049500D01*
X76758000Y-71349500D01*
X109827428Y-71349500D01*
X109830500Y-71913750D01*
X109989250Y-72072500D01*
X111188500Y-72072500D01*
X111188500Y-70873250D01*
X111442500Y-70873250D01*
X111442500Y-72072500D01*
X111462500Y-72072500D01*
X111462500Y-72326500D01*
X111442500Y-72326500D01*
X111442500Y-73525750D01*
X111601250Y-73684500D01*
X112165500Y-73687572D01*
X112289982Y-73675312D01*
X112409680Y-73639002D01*
X112519994Y-73580037D01*
X112616685Y-73500685D01*
X112696037Y-73403994D01*
X112755002Y-73293680D01*
X112791312Y-73173982D01*
X112803572Y-73049500D01*
X112802427Y-72839206D01*
X112899320Y-72984217D01*
X113070783Y-73155680D01*
X113272403Y-73290398D01*
X113496431Y-73383193D01*
X113734257Y-73430500D01*
X113976743Y-73430500D01*
X114214569Y-73383193D01*
X114438597Y-73290398D01*
X114640217Y-73155680D01*
X114811680Y-72984217D01*
X114946398Y-72782597D01*
X115039193Y-72558569D01*
X115086500Y-72320743D01*
X115086500Y-72078257D01*
X115039193Y-71840431D01*
X114946398Y-71616403D01*
X114811680Y-71414783D01*
X114640217Y-71243320D01*
X114438597Y-71108602D01*
X114214569Y-71015807D01*
X113976743Y-70968500D01*
X113734257Y-70968500D01*
X113496431Y-71015807D01*
X113272403Y-71108602D01*
X113070783Y-71243320D01*
X112899320Y-71414783D01*
X112802427Y-71559794D01*
X112803572Y-71349500D01*
X112791312Y-71225018D01*
X112755002Y-71105320D01*
X112696037Y-70995006D01*
X112616685Y-70898315D01*
X112519994Y-70818963D01*
X112409680Y-70759998D01*
X112289982Y-70723688D01*
X112165500Y-70711428D01*
X111601250Y-70714500D01*
X111442500Y-70873250D01*
X111188500Y-70873250D01*
X111029750Y-70714500D01*
X110465500Y-70711428D01*
X110341018Y-70723688D01*
X110221320Y-70759998D01*
X110111006Y-70818963D01*
X110014315Y-70898315D01*
X109934963Y-70995006D01*
X109875998Y-71105320D01*
X109839688Y-71225018D01*
X109827428Y-71349500D01*
X76758000Y-71349500D01*
X76758000Y-68994881D01*
X77361724Y-68994881D01*
X77721912Y-69484548D01*
X78385882Y-69844849D01*
X79107385Y-70068694D01*
X79858695Y-70147480D01*
X80610938Y-70078178D01*
X81335208Y-69863452D01*
X82003670Y-69511555D01*
X82044088Y-69484548D01*
X82404276Y-68994881D01*
X110254724Y-68994881D01*
X110614912Y-69484548D01*
X111278882Y-69844849D01*
X112000385Y-70068694D01*
X112751695Y-70147480D01*
X113503938Y-70078178D01*
X114228208Y-69863452D01*
X114896670Y-69511555D01*
X114937088Y-69484548D01*
X115297276Y-68994881D01*
X112776000Y-66473605D01*
X110254724Y-68994881D01*
X82404276Y-68994881D01*
X79883000Y-66473605D01*
X77361724Y-68994881D01*
X76758000Y-68994881D01*
X76758000Y-68503304D01*
X77182119Y-68815276D01*
X79703395Y-66294000D01*
X80062605Y-66294000D01*
X82583881Y-68815276D01*
X83073548Y-68455088D01*
X83433849Y-67791118D01*
X83657694Y-67069615D01*
X83736480Y-66318305D01*
X83732002Y-66269695D01*
X108922520Y-66269695D01*
X108991822Y-67021938D01*
X109206548Y-67746208D01*
X109558445Y-68414670D01*
X109585452Y-68455088D01*
X110075119Y-68815276D01*
X112596395Y-66294000D01*
X110075119Y-63772724D01*
X109585452Y-64132912D01*
X109225151Y-64796882D01*
X109001306Y-65518385D01*
X108922520Y-66269695D01*
X83732002Y-66269695D01*
X83667178Y-65566062D01*
X83452452Y-64841792D01*
X83100555Y-64173330D01*
X83073548Y-64132912D01*
X82583881Y-63772724D01*
X80062605Y-66294000D01*
X79703395Y-66294000D01*
X77182119Y-63772724D01*
X76758000Y-64084696D01*
X76758000Y-63169000D01*
X77673696Y-63169000D01*
X77361724Y-63593119D01*
%TA.AperFunction,Conductor*%
D27*
G36*
X77361724Y-63593119D02*
G01*
X79883000Y-66114395D01*
X82404276Y-63593119D01*
X82092304Y-63169000D01*
X110566696Y-63169000D01*
X110254724Y-63593119D01*
X112776000Y-66114395D01*
X115297276Y-63593119D01*
X114985304Y-63169000D01*
X115901001Y-63169000D01*
X115901001Y-64084697D01*
X115476881Y-63772724D01*
X112955605Y-66294000D01*
X115476881Y-68815276D01*
X115901001Y-68503303D01*
X115901001Y-102438005D01*
X115885136Y-102393977D01*
X115823156Y-102278020D01*
X115583065Y-102211040D01*
X114797105Y-102997000D01*
X115583065Y-103782960D01*
X115823156Y-103715980D01*
X115901001Y-103550434D01*
X115901000Y-147142696D01*
X115476881Y-146830724D01*
X112955605Y-149352000D01*
X115476881Y-151873276D01*
X115901000Y-151561304D01*
X115901000Y-152477000D01*
X114985304Y-152477000D01*
X115297276Y-152052881D01*
X112776000Y-149531605D01*
X110254724Y-152052881D01*
X110566696Y-152477000D01*
X102924214Y-152477000D01*
X102986859Y-152435142D01*
X103095642Y-152326359D01*
X103181113Y-152198442D01*
X103239987Y-152056309D01*
X103270000Y-151905422D01*
X103270000Y-151751578D01*
X103239987Y-151600691D01*
X103181113Y-151458558D01*
X103095642Y-151330641D01*
X103070000Y-151304999D01*
X103070000Y-149137000D01*
X105320157Y-149137000D01*
X105320157Y-150837000D01*
X105327513Y-150911689D01*
X105349299Y-150983508D01*
X105384678Y-151049696D01*
X105432289Y-151107711D01*
X105490304Y-151155322D01*
X105556492Y-151190701D01*
X105628311Y-151212487D01*
X105703000Y-151219843D01*
X107403000Y-151219843D01*
X107477689Y-151212487D01*
X107549508Y-151190701D01*
X107615696Y-151155322D01*
X107673711Y-151107711D01*
X107721322Y-151049696D01*
X107756701Y-150983508D01*
X107778487Y-150911689D01*
X107785843Y-150837000D01*
X107785843Y-149327695D01*
X108922520Y-149327695D01*
X108991822Y-150079938D01*
X109206548Y-150804208D01*
X109558445Y-151472670D01*
X109585452Y-151513088D01*
X110075119Y-151873276D01*
X112596395Y-149352000D01*
X110075119Y-146830724D01*
X109585452Y-147190912D01*
X109225151Y-147854882D01*
X109001306Y-148576385D01*
X108922520Y-149327695D01*
X107785843Y-149327695D01*
X107785843Y-149137000D01*
X107778487Y-149062311D01*
X107756701Y-148990492D01*
X107721322Y-148924304D01*
X107673711Y-148866289D01*
X107615696Y-148818678D01*
X107549508Y-148783299D01*
X107477689Y-148761513D01*
X107403000Y-148754157D01*
X105703000Y-148754157D01*
X105628311Y-148761513D01*
X105556492Y-148783299D01*
X105490304Y-148818678D01*
X105432289Y-148866289D01*
X105384678Y-148924304D01*
X105349299Y-148990492D01*
X105327513Y-149062311D01*
X105320157Y-149137000D01*
X103070000Y-149137000D01*
X103070000Y-147325757D01*
X105322000Y-147325757D01*
X105322000Y-147568243D01*
X105369307Y-147806069D01*
X105462102Y-148030097D01*
X105596820Y-148231717D01*
X105768283Y-148403180D01*
X105969903Y-148537898D01*
X106193931Y-148630693D01*
X106431757Y-148678000D01*
X106674243Y-148678000D01*
X106912069Y-148630693D01*
X107136097Y-148537898D01*
X107337717Y-148403180D01*
X107509180Y-148231717D01*
X107643898Y-148030097D01*
X107736693Y-147806069D01*
X107784000Y-147568243D01*
X107784000Y-147325757D01*
X107736693Y-147087931D01*
X107643898Y-146863903D01*
X107509180Y-146662283D01*
X107498016Y-146651119D01*
X110254724Y-146651119D01*
X112776000Y-149172395D01*
X115297276Y-146651119D01*
X114937088Y-146161452D01*
X114273118Y-145801151D01*
X113551615Y-145577306D01*
X112800305Y-145498520D01*
X112048062Y-145567822D01*
X111323792Y-145782548D01*
X110655330Y-146134445D01*
X110614912Y-146161452D01*
X110254724Y-146651119D01*
X107498016Y-146651119D01*
X107337717Y-146490820D01*
X107136097Y-146356102D01*
X106912069Y-146263307D01*
X106674243Y-146216000D01*
X106431757Y-146216000D01*
X106193931Y-146263307D01*
X105969903Y-146356102D01*
X105768283Y-146490820D01*
X105596820Y-146662283D01*
X105462102Y-146863903D01*
X105369307Y-147087931D01*
X105322000Y-147325757D01*
X103070000Y-147325757D01*
X103070000Y-145103542D01*
X103072811Y-145075002D01*
X103061593Y-144961106D01*
X103028371Y-144851587D01*
X102974421Y-144750654D01*
X102947289Y-144717593D01*
X102901817Y-144662185D01*
X102879645Y-144643989D01*
X100720015Y-142484360D01*
X100701815Y-142462183D01*
X100613346Y-142389579D01*
X100512413Y-142335629D01*
X100402894Y-142302407D01*
X100317538Y-142294000D01*
X100288998Y-142291189D01*
X100260458Y-142294000D01*
X97268658Y-142294000D01*
X96720000Y-141745343D01*
X96720000Y-139242157D01*
X99260146Y-136702012D01*
X99282317Y-136683817D01*
X99354921Y-136595348D01*
X99408871Y-136494415D01*
X99431500Y-136419816D01*
X99431500Y-136553539D01*
X99431501Y-136553549D01*
X99431500Y-139671460D01*
X99428689Y-139700000D01*
X99431500Y-139728539D01*
X99439907Y-139813895D01*
X99473129Y-139923414D01*
X99527079Y-140024347D01*
X99599683Y-140112817D01*
X99621860Y-140131017D01*
X102057987Y-142567145D01*
X102076183Y-142589317D01*
X102152059Y-142651586D01*
X102164652Y-142661921D01*
X102265585Y-142715871D01*
X102375104Y-142749093D01*
X102489000Y-142760311D01*
X102517540Y-142757500D01*
X102756343Y-142757500D01*
X103772487Y-143773645D01*
X103790683Y-143795817D01*
X103879152Y-143868421D01*
X103980085Y-143922371D01*
X104089604Y-143955593D01*
X104203500Y-143966811D01*
X104232040Y-143964000D01*
X111477460Y-143964000D01*
X111506000Y-143966811D01*
X111534540Y-143964000D01*
X111619896Y-143955593D01*
X111729415Y-143922371D01*
X111830348Y-143868421D01*
X111918817Y-143795817D01*
X111937017Y-143773640D01*
X112785645Y-142925013D01*
X112807817Y-142906817D01*
X112880421Y-142818348D01*
X112934371Y-142717415D01*
X112967593Y-142607896D01*
X112976000Y-142522540D01*
X112978811Y-142494000D01*
X112976000Y-142465460D01*
X112976000Y-141190321D01*
X113009367Y-141239003D01*
X113171630Y-141397476D01*
X113361691Y-141521248D01*
X113590764Y-141603527D01*
X113768000Y-141477581D01*
X113768000Y-140271500D01*
X114022000Y-140271500D01*
X114022000Y-141477581D01*
X114199236Y-141603527D01*
X114428309Y-141521248D01*
X114618370Y-141397476D01*
X114780633Y-141239003D01*
X114908861Y-141051919D01*
X114998127Y-140843414D01*
X115045000Y-140621500D01*
X115045000Y-140271500D01*
X114022000Y-140271500D01*
X113768000Y-140271500D01*
X113748000Y-140271500D01*
X113748000Y-140017500D01*
X113768000Y-140017500D01*
X113768000Y-138811419D01*
X114022000Y-138811419D01*
X114022000Y-140017500D01*
X115045000Y-140017500D01*
X115045000Y-139667500D01*
X114998127Y-139445586D01*
X114908861Y-139237081D01*
X114780633Y-139049997D01*
X114618370Y-138891524D01*
X114428309Y-138767752D01*
X114199236Y-138685473D01*
X114022000Y-138811419D01*
X113768000Y-138811419D01*
X113590764Y-138685473D01*
X113361691Y-138767752D01*
X113171630Y-138891524D01*
X113009367Y-139049997D01*
X112970064Y-139107339D01*
X112895198Y-139045899D01*
X112739542Y-138962699D01*
X112570646Y-138911465D01*
X112395000Y-138894165D01*
X112219353Y-138911465D01*
X112050457Y-138962699D01*
X111894801Y-139045899D01*
X111758367Y-139157867D01*
X111646399Y-139294302D01*
X111645000Y-139296919D01*
X111643601Y-139294301D01*
X111531633Y-139157867D01*
X111395198Y-139045899D01*
X111239542Y-138962699D01*
X111070646Y-138911465D01*
X110895000Y-138894165D01*
X110719353Y-138911465D01*
X110550457Y-138962699D01*
X110394801Y-139045899D01*
X110258367Y-139157867D01*
X110146399Y-139294302D01*
X110145000Y-139296919D01*
X110143601Y-139294301D01*
X110031633Y-139157867D01*
X109895198Y-139045899D01*
X109739542Y-138962699D01*
X109570646Y-138911465D01*
X109395000Y-138894165D01*
X109219353Y-138911465D01*
X109050457Y-138962699D01*
X108894801Y-139045899D01*
X108776000Y-139143396D01*
X108776000Y-138669510D01*
X110118282Y-138669508D01*
X110161561Y-138673771D01*
X110318698Y-138658293D01*
X110334267Y-138656760D01*
X110384643Y-138641478D01*
X110500335Y-138606384D01*
X110653386Y-138524577D01*
X110753923Y-138442068D01*
X110787536Y-138414483D01*
X110815122Y-138380869D01*
X113552377Y-135643616D01*
X113585985Y-135616035D01*
X113613567Y-135582426D01*
X113613570Y-135582423D01*
X113696078Y-135481885D01*
X113777885Y-135328835D01*
X113784755Y-135306189D01*
X113828262Y-135162766D01*
X113841010Y-135033333D01*
X113841010Y-135033330D01*
X113845272Y-134990060D01*
X113841010Y-134946790D01*
X113841010Y-124156956D01*
X113888880Y-124204826D01*
X114076087Y-124329913D01*
X114284099Y-124416075D01*
X114504924Y-124460000D01*
X114730076Y-124460000D01*
X114950901Y-124416075D01*
X115158913Y-124329913D01*
X115346120Y-124204826D01*
X115505326Y-124045620D01*
X115630413Y-123858413D01*
X115716575Y-123650401D01*
X115760500Y-123429576D01*
X115760500Y-123204424D01*
X115716575Y-122983599D01*
X115630413Y-122775587D01*
X115505326Y-122588380D01*
X115346120Y-122429174D01*
X115158913Y-122304087D01*
X114950901Y-122217925D01*
X114730076Y-122174000D01*
X114504924Y-122174000D01*
X114284099Y-122217925D01*
X114076087Y-122304087D01*
X113888880Y-122429174D01*
X113841010Y-122477044D01*
X113841010Y-121616956D01*
X113888880Y-121664826D01*
X114076087Y-121789913D01*
X114284099Y-121876075D01*
X114504924Y-121920000D01*
X114730076Y-121920000D01*
X114950901Y-121876075D01*
X115158913Y-121789913D01*
X115346120Y-121664826D01*
X115505326Y-121505620D01*
X115630413Y-121318413D01*
X115716575Y-121110401D01*
X115760500Y-120889576D01*
X115760500Y-120664424D01*
X115716575Y-120443599D01*
X115630413Y-120235587D01*
X115505326Y-120048380D01*
X115346120Y-119889174D01*
X115158913Y-119764087D01*
X114950901Y-119677925D01*
X114730076Y-119634000D01*
X114504924Y-119634000D01*
X114284099Y-119677925D01*
X114076087Y-119764087D01*
X113888880Y-119889174D01*
X113841010Y-119937044D01*
X113841010Y-119076956D01*
X113888880Y-119124826D01*
X114076087Y-119249913D01*
X114284099Y-119336075D01*
X114504924Y-119380000D01*
X114730076Y-119380000D01*
X114950901Y-119336075D01*
X115158913Y-119249913D01*
X115346120Y-119124826D01*
X115505326Y-118965620D01*
X115630413Y-118778413D01*
X115716575Y-118570401D01*
X115760500Y-118349576D01*
X115760500Y-118124424D01*
X115716575Y-117903599D01*
X115630413Y-117695587D01*
X115505326Y-117508380D01*
X115346120Y-117349174D01*
X115158913Y-117224087D01*
X114950901Y-117137925D01*
X114730076Y-117094000D01*
X114504924Y-117094000D01*
X114284099Y-117137925D01*
X114076087Y-117224087D01*
X113888880Y-117349174D01*
X113841010Y-117397044D01*
X113841010Y-116536956D01*
X113888880Y-116584826D01*
X114076087Y-116709913D01*
X114284099Y-116796075D01*
X114504924Y-116840000D01*
X114730076Y-116840000D01*
X114950901Y-116796075D01*
X115158913Y-116709913D01*
X115346120Y-116584826D01*
X115505326Y-116425620D01*
X115630413Y-116238413D01*
X115716575Y-116030401D01*
X115760500Y-115809576D01*
X115760500Y-115584424D01*
X115716575Y-115363599D01*
X115630413Y-115155587D01*
X115505326Y-114968380D01*
X115346120Y-114809174D01*
X115158913Y-114684087D01*
X114950901Y-114597925D01*
X114730076Y-114554000D01*
X114504924Y-114554000D01*
X114284099Y-114597925D01*
X114076087Y-114684087D01*
X113888880Y-114809174D01*
X113841010Y-114857044D01*
X113841010Y-113996956D01*
X113888880Y-114044826D01*
X114076087Y-114169913D01*
X114284099Y-114256075D01*
X114504924Y-114300000D01*
X114730076Y-114300000D01*
X114950901Y-114256075D01*
X115158913Y-114169913D01*
X115346120Y-114044826D01*
X115505326Y-113885620D01*
X115630413Y-113698413D01*
X115716575Y-113490401D01*
X115760500Y-113269576D01*
X115760500Y-113044424D01*
X115716575Y-112823599D01*
X115630413Y-112615587D01*
X115505326Y-112428380D01*
X115346120Y-112269174D01*
X115158913Y-112144087D01*
X114950901Y-112057925D01*
X114730076Y-112014000D01*
X114504924Y-112014000D01*
X114284099Y-112057925D01*
X114076087Y-112144087D01*
X113888880Y-112269174D01*
X113841010Y-112317044D01*
X113841010Y-111456956D01*
X113888880Y-111504826D01*
X114076087Y-111629913D01*
X114284099Y-111716075D01*
X114504924Y-111760000D01*
X114730076Y-111760000D01*
X114950901Y-111716075D01*
X115158913Y-111629913D01*
X115346120Y-111504826D01*
X115505326Y-111345620D01*
X115630413Y-111158413D01*
X115716575Y-110950401D01*
X115760500Y-110729576D01*
X115760500Y-110504424D01*
X115716575Y-110283599D01*
X115630413Y-110075587D01*
X115505326Y-109888380D01*
X115346120Y-109729174D01*
X115158913Y-109604087D01*
X114950901Y-109517925D01*
X114730076Y-109474000D01*
X114504924Y-109474000D01*
X114284099Y-109517925D01*
X114076087Y-109604087D01*
X113888880Y-109729174D01*
X113841010Y-109777044D01*
X113841010Y-108916956D01*
X113888880Y-108964826D01*
X114076087Y-109089913D01*
X114284099Y-109176075D01*
X114504924Y-109220000D01*
X114730076Y-109220000D01*
X114950901Y-109176075D01*
X115158913Y-109089913D01*
X115346120Y-108964826D01*
X115505326Y-108805620D01*
X115630413Y-108618413D01*
X115716575Y-108410401D01*
X115760500Y-108189576D01*
X115760500Y-107964424D01*
X115716575Y-107743599D01*
X115630413Y-107535587D01*
X115505326Y-107348380D01*
X115346120Y-107189174D01*
X115158913Y-107064087D01*
X114950901Y-106977925D01*
X114730076Y-106934000D01*
X114504924Y-106934000D01*
X114284099Y-106977925D01*
X114076087Y-107064087D01*
X113888880Y-107189174D01*
X113841010Y-107237044D01*
X113841010Y-106376956D01*
X113888880Y-106424826D01*
X114076087Y-106549913D01*
X114284099Y-106636075D01*
X114504924Y-106680000D01*
X114730076Y-106680000D01*
X114950901Y-106636075D01*
X115158913Y-106549913D01*
X115346120Y-106424826D01*
X115505326Y-106265620D01*
X115630413Y-106078413D01*
X115716575Y-105870401D01*
X115760500Y-105649576D01*
X115760500Y-105424424D01*
X115716575Y-105203599D01*
X115630413Y-104995587D01*
X115505326Y-104808380D01*
X115346120Y-104649174D01*
X115158913Y-104524087D01*
X114950901Y-104437925D01*
X114730076Y-104394000D01*
X114722114Y-104394000D01*
X114961633Y-104357922D01*
X115220523Y-104264636D01*
X115336480Y-104202656D01*
X115403460Y-103962565D01*
X114617500Y-103176605D01*
X114603358Y-103190748D01*
X114423753Y-103011143D01*
X114437895Y-102997000D01*
X114423753Y-102982858D01*
X114603358Y-102803253D01*
X114617500Y-102817395D01*
X115403460Y-102031435D01*
X115336480Y-101791344D01*
X115087452Y-101674244D01*
X114820365Y-101607977D01*
X114720465Y-101603293D01*
X114724478Y-101600000D01*
X114730076Y-101600000D01*
X114950901Y-101556075D01*
X115158913Y-101469913D01*
X115346120Y-101344826D01*
X115505326Y-101185620D01*
X115630413Y-100998413D01*
X115716575Y-100790401D01*
X115760500Y-100569576D01*
X115760500Y-100344424D01*
X115716575Y-100123599D01*
X115630413Y-99915587D01*
X115505326Y-99728380D01*
X115346120Y-99569174D01*
X115158913Y-99444087D01*
X114950901Y-99357925D01*
X114730076Y-99314000D01*
X114504924Y-99314000D01*
X114284099Y-99357925D01*
X114076087Y-99444087D01*
X113888880Y-99569174D01*
X113729674Y-99728380D01*
X113604587Y-99915587D01*
X113534828Y-100084000D01*
X107942000Y-100084000D01*
X107942000Y-97049977D01*
X107942375Y-97049275D01*
X107992752Y-96883206D01*
X108005500Y-96753773D01*
X108005500Y-96753770D01*
X108009762Y-96710500D01*
X108005500Y-96667230D01*
X108005500Y-95446269D01*
X108009762Y-95402999D01*
X108001886Y-95323035D01*
X107992752Y-95230294D01*
X107942375Y-95064225D01*
X107860569Y-94911176D01*
X107860568Y-94911174D01*
X107778059Y-94810637D01*
X107750475Y-94777025D01*
X107716862Y-94749440D01*
X103320066Y-90352645D01*
X103292475Y-90319025D01*
X103158325Y-90208932D01*
X103005275Y-90127125D01*
X102839206Y-90076748D01*
X102709773Y-90064000D01*
X102709770Y-90064000D01*
X102666500Y-90059738D01*
X102623230Y-90064000D01*
X98559227Y-90064000D01*
X98429794Y-90076748D01*
X98263725Y-90127125D01*
X98110675Y-90208932D01*
X97976525Y-90319025D01*
X97866432Y-90453175D01*
X97784625Y-90606225D01*
X97734248Y-90772294D01*
X97717238Y-90945000D01*
X97734248Y-91117706D01*
X97784625Y-91283775D01*
X97866432Y-91436825D01*
X97976525Y-91570975D01*
X98110675Y-91681068D01*
X98263725Y-91762875D01*
X98429794Y-91813252D01*
X98559227Y-91826000D01*
X102301579Y-91826000D01*
X106243500Y-95767922D01*
X106243501Y-96434523D01*
X106243125Y-96435226D01*
X106192748Y-96601295D01*
X106180000Y-96730727D01*
X106175738Y-96774000D01*
X106180000Y-96817270D01*
X106180001Y-100921717D01*
X106175738Y-100965000D01*
X106192748Y-101137706D01*
X106243125Y-101303775D01*
X106324932Y-101456825D01*
X106435025Y-101590975D01*
X106569175Y-101701068D01*
X106722225Y-101782875D01*
X106888294Y-101833252D01*
X107017727Y-101846000D01*
X107061000Y-101850262D01*
X107104273Y-101846000D01*
X110939413Y-101846000D01*
X110878625Y-101959726D01*
X110828248Y-102125795D01*
X110815500Y-102255228D01*
X110815501Y-103271219D01*
X110815500Y-103271228D01*
X110815501Y-104287219D01*
X110815500Y-104287228D01*
X110815500Y-104922230D01*
X110811238Y-104965500D01*
X110815500Y-105008770D01*
X110815500Y-105008773D01*
X110828248Y-105138206D01*
X110851775Y-105215762D01*
X110878625Y-105304274D01*
X110879000Y-105304976D01*
X110879000Y-116886499D01*
X110868501Y-116876000D01*
X110868501Y-109625346D01*
X110870948Y-109600500D01*
X110868501Y-109575654D01*
X110868501Y-109575647D01*
X110861179Y-109501308D01*
X110832246Y-109405926D01*
X110785260Y-109318022D01*
X110722028Y-109240974D01*
X110702721Y-109225129D01*
X110128000Y-108650409D01*
X110128000Y-108508078D01*
X110097987Y-108357191D01*
X110039113Y-108215058D01*
X109953642Y-108087141D01*
X109844859Y-107978358D01*
X109716942Y-107892887D01*
X109574809Y-107834013D01*
X109423922Y-107804000D01*
X109270078Y-107804000D01*
X109119191Y-107834013D01*
X108977058Y-107892887D01*
X108849141Y-107978358D01*
X108740358Y-108087141D01*
X108654887Y-108215058D01*
X108596013Y-108357191D01*
X108566000Y-108508078D01*
X108566000Y-108661922D01*
X108596013Y-108812809D01*
X108654887Y-108954942D01*
X108740358Y-109082859D01*
X108849141Y-109191642D01*
X108977058Y-109277113D01*
X109119191Y-109335987D01*
X109270078Y-109366000D01*
X109412409Y-109366000D01*
X109856501Y-109810093D01*
X109856501Y-111741078D01*
X108659994Y-110544572D01*
X108659994Y-110402241D01*
X108629981Y-110251354D01*
X108571107Y-110109221D01*
X108485636Y-109981304D01*
X108376853Y-109872521D01*
X108248936Y-109787050D01*
X108106803Y-109728176D01*
X107955916Y-109698163D01*
X107802072Y-109698163D01*
X107651185Y-109728176D01*
X107509052Y-109787050D01*
X107381135Y-109872521D01*
X107272352Y-109981304D01*
X107186881Y-110109221D01*
X107128007Y-110251354D01*
X107097994Y-110402241D01*
X107097994Y-110556085D01*
X107128007Y-110706972D01*
X107186881Y-110849105D01*
X107272352Y-110977022D01*
X107381135Y-111085805D01*
X107509052Y-111171276D01*
X107651185Y-111230150D01*
X107802072Y-111260163D01*
X107944403Y-111260163D01*
X109031501Y-112347262D01*
X109031500Y-116050999D01*
X108930858Y-116151641D01*
X108845387Y-116279558D01*
X108786513Y-116421691D01*
X108756500Y-116572578D01*
X108756500Y-116726422D01*
X108786513Y-116877309D01*
X108845387Y-117019442D01*
X108930858Y-117147359D01*
X109039641Y-117256142D01*
X109167558Y-117341613D01*
X109309691Y-117400487D01*
X109460578Y-117430500D01*
X109581501Y-117430500D01*
X109581501Y-117551423D01*
X109611514Y-117702310D01*
X109670388Y-117844443D01*
X109755859Y-117972360D01*
X109864642Y-118081143D01*
X109992559Y-118166614D01*
X110134692Y-118225488D01*
X110285579Y-118255501D01*
X110439423Y-118255501D01*
X110590310Y-118225488D01*
X110732443Y-118166614D01*
X110860360Y-118081143D01*
X110879000Y-118062503D01*
X110879001Y-134128077D01*
X110009527Y-134997552D01*
X110036178Y-134909693D01*
X110043500Y-134835354D01*
X110043500Y-134835353D01*
X110045948Y-134810500D01*
X110043500Y-134785646D01*
X110043500Y-134071472D01*
X110099105Y-134034318D01*
X110221818Y-133911605D01*
X110318232Y-133767310D01*
X110384644Y-133606978D01*
X110418500Y-133436771D01*
X110418500Y-133263229D01*
X110384644Y-133093022D01*
X110318232Y-132932690D01*
X110221818Y-132788395D01*
X110148423Y-132715000D01*
X110221818Y-132641605D01*
X110318232Y-132497310D01*
X110384644Y-132336978D01*
X110418500Y-132166771D01*
X110418500Y-131993229D01*
X110384644Y-131823022D01*
X110318232Y-131662690D01*
X110221818Y-131518395D01*
X110148423Y-131445000D01*
X110221818Y-131371605D01*
X110318232Y-131227310D01*
X110384644Y-131066978D01*
X110418500Y-130896771D01*
X110418500Y-130723229D01*
X110384644Y-130553022D01*
X110318232Y-130392690D01*
X110221818Y-130248395D01*
X110148423Y-130175000D01*
X110221818Y-130101605D01*
X110318232Y-129957310D01*
X110384644Y-129796978D01*
X110418500Y-129626771D01*
X110418500Y-129453229D01*
X110384644Y-129283022D01*
X110318232Y-129122690D01*
X110221818Y-128978395D01*
X110148423Y-128905000D01*
X110221818Y-128831605D01*
X110318232Y-128687310D01*
X110384644Y-128526978D01*
X110418500Y-128356771D01*
X110418500Y-128183229D01*
X110384644Y-128013022D01*
X110318232Y-127852690D01*
X110221818Y-127708395D01*
X110099105Y-127585682D01*
X109954810Y-127489268D01*
X109794478Y-127422856D01*
X109624271Y-127389000D01*
X109450729Y-127389000D01*
X109280522Y-127422856D01*
X109120190Y-127489268D01*
X109061932Y-127528194D01*
X109038211Y-127499289D01*
X108980196Y-127451678D01*
X108914008Y-127416299D01*
X108842189Y-127394513D01*
X108767500Y-127387157D01*
X107832500Y-127387157D01*
X107832500Y-125555001D01*
X107858142Y-125529359D01*
X107943613Y-125401442D01*
X108002487Y-125259309D01*
X108032500Y-125108422D01*
X108032500Y-124954578D01*
X108002487Y-124803691D01*
X107943613Y-124661558D01*
X107858142Y-124533641D01*
X107832500Y-124507999D01*
X107832500Y-123650001D01*
X107858142Y-123624359D01*
X107943613Y-123496442D01*
X108002487Y-123354309D01*
X108032500Y-123203422D01*
X108032500Y-123049578D01*
X108002487Y-122898691D01*
X107943613Y-122756558D01*
X107858142Y-122628641D01*
X107832500Y-122602999D01*
X107832500Y-113553501D01*
X107858142Y-113527859D01*
X107943613Y-113399942D01*
X108002487Y-113257809D01*
X108032500Y-113106922D01*
X108032500Y-112953078D01*
X108002487Y-112802191D01*
X107943613Y-112660058D01*
X107858142Y-112532141D01*
X107749359Y-112423358D01*
X107621442Y-112337887D01*
X107479309Y-112279013D01*
X107328422Y-112249000D01*
X107174578Y-112249000D01*
X107023691Y-112279013D01*
X106881558Y-112337887D01*
X106753641Y-112423358D01*
X106644858Y-112532141D01*
X106559387Y-112660058D01*
X106500513Y-112802191D01*
X106470500Y-112953078D01*
X106470500Y-113106922D01*
X106500513Y-113257809D01*
X106559387Y-113399942D01*
X106644858Y-113527859D01*
X106670501Y-113553502D01*
X106670501Y-114053429D01*
X106668942Y-114052387D01*
X106526809Y-113993513D01*
X106375922Y-113963500D01*
X106222078Y-113963500D01*
X106071191Y-113993513D01*
X105929058Y-114052387D01*
X105801141Y-114137858D01*
X105800500Y-114138499D01*
X105800500Y-111788540D01*
X105803311Y-111760000D01*
X105798044Y-111706528D01*
X105810000Y-111646422D01*
X105810000Y-111492578D01*
X105779987Y-111341691D01*
X105721113Y-111199558D01*
X105635642Y-111071641D01*
X105526859Y-110962858D01*
X105398942Y-110877387D01*
X105256809Y-110818513D01*
X105105922Y-110788500D01*
X104952078Y-110788500D01*
X104801191Y-110818513D01*
X104721000Y-110851730D01*
X104721000Y-110527703D01*
X104827442Y-110483613D01*
X104955359Y-110398142D01*
X105064142Y-110289359D01*
X105149613Y-110161442D01*
X105208487Y-110019309D01*
X105238500Y-109868422D01*
X105238500Y-109714578D01*
X105208487Y-109563691D01*
X105149613Y-109421558D01*
X105064142Y-109293641D01*
X104955359Y-109184858D01*
X104827442Y-109099387D01*
X104685309Y-109040513D01*
X104534422Y-109010500D01*
X104380578Y-109010500D01*
X104229691Y-109040513D01*
X104087558Y-109099387D01*
X104023614Y-109142113D01*
X103939359Y-109057858D01*
X103811442Y-108972387D01*
X103669309Y-108913513D01*
X103518422Y-108883500D01*
X103364578Y-108883500D01*
X103213691Y-108913513D01*
X103071558Y-108972387D01*
X102943641Y-109057858D01*
X102834858Y-109166641D01*
X102749387Y-109294558D01*
X102690513Y-109436691D01*
X102660500Y-109587578D01*
X102660500Y-109741422D01*
X102690513Y-109892309D01*
X102749387Y-110034442D01*
X102834858Y-110162359D01*
X102860501Y-110188002D01*
X102860501Y-117926928D01*
X102858942Y-117925887D01*
X102716809Y-117867013D01*
X102565922Y-117837000D01*
X102412078Y-117837000D01*
X102381000Y-117843182D01*
X102381000Y-117842578D01*
X102350987Y-117691691D01*
X102292113Y-117549558D01*
X102206642Y-117421641D01*
X102097859Y-117312858D01*
X101969942Y-117227387D01*
X101827809Y-117168513D01*
X101676922Y-117138500D01*
X101523078Y-117138500D01*
X101372191Y-117168513D01*
X101230058Y-117227387D01*
X101102141Y-117312858D01*
X100993358Y-117421641D01*
X100907887Y-117549558D01*
X100849013Y-117691691D01*
X100819000Y-117842578D01*
X100819000Y-117996422D01*
X100849013Y-118147309D01*
X100907887Y-118289442D01*
X100993358Y-118417359D01*
X101019001Y-118443002D01*
X101019001Y-120468761D01*
X100876922Y-120440500D01*
X100723078Y-120440500D01*
X100578466Y-120469265D01*
X100603000Y-120345922D01*
X100603000Y-120192078D01*
X100572987Y-120041191D01*
X100514113Y-119899058D01*
X100428642Y-119771141D01*
X100319859Y-119662358D01*
X100191942Y-119576887D01*
X100049809Y-119518013D01*
X99898922Y-119488000D01*
X99745078Y-119488000D01*
X99594191Y-119518013D01*
X99452058Y-119576887D01*
X99324141Y-119662358D01*
X99215358Y-119771141D01*
X99129887Y-119899058D01*
X99071013Y-120041191D01*
X99041000Y-120192078D01*
X99041000Y-120345922D01*
X99071013Y-120496809D01*
X99129887Y-120638942D01*
X99215358Y-120766859D01*
X99241001Y-120792502D01*
X99241000Y-130061342D01*
X95176856Y-134125487D01*
X95154684Y-134143683D01*
X95129470Y-134174407D01*
X95082079Y-134232153D01*
X95028129Y-134333086D01*
X94994907Y-134442605D01*
X94983689Y-134556500D01*
X94986501Y-134585049D01*
X94986500Y-135585842D01*
X93081356Y-137490987D01*
X93059184Y-137509183D01*
X93040991Y-137531352D01*
X92986579Y-137597653D01*
X92932629Y-137698586D01*
X92899407Y-137808105D01*
X92888189Y-137922000D01*
X92891001Y-137950550D01*
X92891000Y-150225499D01*
X92865358Y-150251141D01*
X92779887Y-150379058D01*
X92721013Y-150521191D01*
X92691000Y-150672078D01*
X92691000Y-150825922D01*
X92721013Y-150976809D01*
X92779887Y-151118942D01*
X92865358Y-151246859D01*
X92974141Y-151355642D01*
X93102058Y-151441113D01*
X93244191Y-151499987D01*
X93395078Y-151530000D01*
X93548922Y-151530000D01*
X93699809Y-151499987D01*
X93841942Y-151441113D01*
X93969859Y-151355642D01*
X94078642Y-151246859D01*
X94164113Y-151118942D01*
X94222987Y-150976809D01*
X94253000Y-150825922D01*
X94253000Y-150672078D01*
X94252877Y-150671457D01*
X94260191Y-150674487D01*
X94411078Y-150704500D01*
X94564922Y-150704500D01*
X94715809Y-150674487D01*
X94857942Y-150615613D01*
X94985859Y-150530142D01*
X95094642Y-150421359D01*
X95180113Y-150293442D01*
X95238987Y-150151309D01*
X95240108Y-150145672D01*
X95304599Y-150158500D01*
X95458443Y-150158500D01*
X95609330Y-150128487D01*
X95751463Y-150069613D01*
X95879380Y-149984142D01*
X95988163Y-149875359D01*
X96073634Y-149747442D01*
X96132508Y-149605309D01*
X96162521Y-149454422D01*
X96162521Y-149300578D01*
X96147839Y-149226768D01*
X96151311Y-149191522D01*
X96148500Y-149162982D01*
X96148500Y-147951001D01*
X96174142Y-147925359D01*
X96259613Y-147797442D01*
X96318487Y-147655309D01*
X96348500Y-147504422D01*
X96348500Y-147350578D01*
X96318487Y-147199691D01*
X96259613Y-147057558D01*
X96174142Y-146929641D01*
X96065359Y-146820858D01*
X95937442Y-146735387D01*
X95795309Y-146676513D01*
X95644422Y-146646500D01*
X95490578Y-146646500D01*
X95339691Y-146676513D01*
X95197558Y-146735387D01*
X95069641Y-146820858D01*
X95069000Y-146821499D01*
X95069000Y-142586199D01*
X97561863Y-145079063D01*
X97580059Y-145101235D01*
X97668528Y-145173839D01*
X97769461Y-145227789D01*
X97878980Y-145261011D01*
X97964336Y-145269418D01*
X97964338Y-145269418D01*
X97992875Y-145272229D01*
X98021412Y-145269418D01*
X100308883Y-145269418D01*
X100334525Y-145295060D01*
X100462442Y-145380531D01*
X100604575Y-145439405D01*
X100755462Y-145469418D01*
X100909306Y-145469418D01*
X101060193Y-145439405D01*
X101202326Y-145380531D01*
X101330243Y-145295060D01*
X101439026Y-145186277D01*
X101524497Y-145058360D01*
X101561461Y-144969121D01*
X101908001Y-145315661D01*
X101908000Y-151304999D01*
X101882358Y-151330641D01*
X101796887Y-151458558D01*
X101738013Y-151600691D01*
X101708000Y-151751578D01*
X101708000Y-151905422D01*
X101738013Y-152056309D01*
X101796887Y-152198442D01*
X101882358Y-152326359D01*
X101991141Y-152435142D01*
X102053786Y-152477000D01*
X82092304Y-152477000D01*
X82404276Y-152052881D01*
X79883000Y-149531605D01*
X77361724Y-152052881D01*
X77673696Y-152477000D01*
X76758000Y-152477000D01*
X76758000Y-151561304D01*
X77182119Y-151873276D01*
X79703395Y-149352000D01*
X80062605Y-149352000D01*
X82583881Y-151873276D01*
X83073548Y-151513088D01*
X83433849Y-150849118D01*
X83657694Y-150127615D01*
X83668297Y-150026500D01*
X85524428Y-150026500D01*
X85536688Y-150150982D01*
X85572998Y-150270680D01*
X85631963Y-150380994D01*
X85711315Y-150477685D01*
X85808006Y-150557037D01*
X85918320Y-150616002D01*
X86038018Y-150652312D01*
X86162500Y-150664572D01*
X86391750Y-150661500D01*
X86550500Y-150502750D01*
X86550500Y-149288500D01*
X85686250Y-149288500D01*
X85527500Y-149447250D01*
X85524428Y-150026500D01*
X83668297Y-150026500D01*
X83736480Y-149376305D01*
X83667178Y-148624062D01*
X83570065Y-148296500D01*
X85524428Y-148296500D01*
X85527500Y-148875750D01*
X85686250Y-149034500D01*
X86550500Y-149034500D01*
X86550500Y-147820250D01*
X86804500Y-147820250D01*
X86804500Y-149034500D01*
X86824500Y-149034500D01*
X86824500Y-149288500D01*
X86804500Y-149288500D01*
X86804500Y-150502750D01*
X86963250Y-150661500D01*
X87192500Y-150664572D01*
X87316982Y-150652312D01*
X87436680Y-150616002D01*
X87546994Y-150557037D01*
X87643685Y-150477685D01*
X87723037Y-150380994D01*
X87763134Y-150305979D01*
X87832958Y-150343301D01*
X88001854Y-150394535D01*
X88177500Y-150411835D01*
X88353147Y-150394535D01*
X88522043Y-150343301D01*
X88677699Y-150260101D01*
X88814133Y-150148133D01*
X88926101Y-150011699D01*
X88927500Y-150009081D01*
X88928900Y-150011699D01*
X89040868Y-150148133D01*
X89177302Y-150260101D01*
X89332958Y-150343301D01*
X89501854Y-150394535D01*
X89677500Y-150411835D01*
X89853147Y-150394535D01*
X90022043Y-150343301D01*
X90177699Y-150260101D01*
X90314133Y-150148133D01*
X90426101Y-150011699D01*
X90509301Y-149856043D01*
X90560535Y-149687147D01*
X90573500Y-149555513D01*
X90573500Y-148767487D01*
X90560535Y-148635853D01*
X90509301Y-148466957D01*
X90426101Y-148311301D01*
X90314133Y-148174867D01*
X90177698Y-148062899D01*
X90022042Y-147979699D01*
X89853146Y-147928465D01*
X89677500Y-147911165D01*
X89501853Y-147928465D01*
X89332957Y-147979699D01*
X89177301Y-148062899D01*
X89040867Y-148174867D01*
X88928899Y-148311302D01*
X88927500Y-148313919D01*
X88926101Y-148311301D01*
X88814133Y-148174867D01*
X88677698Y-148062899D01*
X88522042Y-147979699D01*
X88353146Y-147928465D01*
X88177500Y-147911165D01*
X88001853Y-147928465D01*
X87832957Y-147979699D01*
X87763134Y-148017020D01*
X87723037Y-147942006D01*
X87643685Y-147845315D01*
X87546994Y-147765963D01*
X87436680Y-147706998D01*
X87316982Y-147670688D01*
X87192500Y-147658428D01*
X86963250Y-147661500D01*
X86804500Y-147820250D01*
X86550500Y-147820250D01*
X86391750Y-147661500D01*
X86162500Y-147658428D01*
X86038018Y-147670688D01*
X85918320Y-147706998D01*
X85808006Y-147765963D01*
X85711315Y-147845315D01*
X85631963Y-147942006D01*
X85572998Y-148052320D01*
X85536688Y-148172018D01*
X85524428Y-148296500D01*
X83570065Y-148296500D01*
X83452452Y-147899792D01*
X83100555Y-147231330D01*
X83073548Y-147190912D01*
X82583881Y-146830724D01*
X80062605Y-149352000D01*
X79703395Y-149352000D01*
X77182119Y-146830724D01*
X76758000Y-147142696D01*
X76758000Y-146651119D01*
X77361724Y-146651119D01*
X79883000Y-149172395D01*
X82404276Y-146651119D01*
X82044088Y-146161452D01*
X81380118Y-145801151D01*
X80658615Y-145577306D01*
X79907305Y-145498520D01*
X79155062Y-145567822D01*
X78430792Y-145782548D01*
X77762330Y-146134445D01*
X77721912Y-146161452D01*
X77361724Y-146651119D01*
X76758000Y-146651119D01*
X76758000Y-140629640D01*
X90287500Y-140629640D01*
X90287500Y-141652999D01*
X90261858Y-141678641D01*
X90176387Y-141806558D01*
X90117513Y-141948691D01*
X90087500Y-142099578D01*
X90087500Y-142253422D01*
X90117513Y-142404309D01*
X90176387Y-142546442D01*
X90261858Y-142674359D01*
X90370641Y-142783142D01*
X90498558Y-142868613D01*
X90640691Y-142927487D01*
X90791578Y-142957500D01*
X90945422Y-142957500D01*
X91096309Y-142927487D01*
X91238442Y-142868613D01*
X91303500Y-142825143D01*
X91303500Y-143621499D01*
X91277858Y-143647141D01*
X91192387Y-143775058D01*
X91133513Y-143917191D01*
X91103500Y-144068078D01*
X91103500Y-144221922D01*
X91133513Y-144372809D01*
X91192387Y-144514942D01*
X91277858Y-144642859D01*
X91386641Y-144751642D01*
X91514558Y-144837113D01*
X91656691Y-144895987D01*
X91807578Y-144926000D01*
X91961422Y-144926000D01*
X92112309Y-144895987D01*
X92254442Y-144837113D01*
X92382359Y-144751642D01*
X92491142Y-144642859D01*
X92576613Y-144514942D01*
X92635487Y-144372809D01*
X92665500Y-144221922D01*
X92665500Y-144068078D01*
X92635487Y-143917191D01*
X92576613Y-143775058D01*
X92491142Y-143647141D01*
X92465500Y-143621499D01*
X92465500Y-136130657D01*
X97736146Y-130860012D01*
X97758317Y-130841817D01*
X97830921Y-130753348D01*
X97884871Y-130652415D01*
X97918093Y-130542896D01*
X97926500Y-130457540D01*
X97926500Y-130457538D01*
X97929311Y-130429001D01*
X97926500Y-130400464D01*
X97926500Y-120244029D01*
X99983845Y-118186686D01*
X100020108Y-118186686D01*
X100170995Y-118156673D01*
X100313128Y-118097799D01*
X100441045Y-118012328D01*
X100549828Y-117903545D01*
X100635299Y-117775628D01*
X100694173Y-117633495D01*
X100724186Y-117482608D01*
X100724186Y-117328764D01*
X100694173Y-117177877D01*
X100635299Y-117035744D01*
X100549828Y-116907827D01*
X100441045Y-116799044D01*
X100320596Y-116718563D01*
X100844651Y-116194508D01*
X100866816Y-116176318D01*
X100939420Y-116087849D01*
X100993370Y-115986916D01*
X101026592Y-115877397D01*
X101034999Y-115792041D01*
X101034999Y-115792040D01*
X101037810Y-115763501D01*
X101034999Y-115734961D01*
X101034999Y-109111502D01*
X101063642Y-109082859D01*
X101149113Y-108954942D01*
X101207987Y-108812809D01*
X101238000Y-108661922D01*
X101238000Y-108508078D01*
X101207987Y-108357191D01*
X101149113Y-108215058D01*
X101063642Y-108087141D01*
X100954859Y-107978358D01*
X100826942Y-107892887D01*
X100684809Y-107834013D01*
X100533922Y-107804000D01*
X100380078Y-107804000D01*
X100229191Y-107834013D01*
X100087058Y-107892887D01*
X99959141Y-107978358D01*
X99850358Y-108087141D01*
X99764887Y-108215058D01*
X99706013Y-108357191D01*
X99676000Y-108508078D01*
X99676000Y-108661922D01*
X99706013Y-108812809D01*
X99764887Y-108954942D01*
X99850358Y-109082859D01*
X99873000Y-109105501D01*
X99872999Y-115522842D01*
X96129356Y-119266487D01*
X96107184Y-119284683D01*
X96065008Y-119336075D01*
X96034579Y-119373153D01*
X95980629Y-119474086D01*
X95947407Y-119583605D01*
X95936189Y-119697500D01*
X95939001Y-119726050D01*
X95939000Y-126844460D01*
X95936189Y-126873000D01*
X95939000Y-126901539D01*
X95947407Y-126986895D01*
X95980629Y-127096414D01*
X96002501Y-127137333D01*
X96002500Y-129680342D01*
X90710755Y-134972087D01*
X90806391Y-123950910D01*
X90869674Y-124045620D01*
X91028880Y-124204826D01*
X91216087Y-124329913D01*
X91424099Y-124416075D01*
X91644924Y-124460000D01*
X91870076Y-124460000D01*
X92090901Y-124416075D01*
X92298913Y-124329913D01*
X92486120Y-124204826D01*
X92645326Y-124045620D01*
X92770413Y-123858413D01*
X92856575Y-123650401D01*
X92900500Y-123429576D01*
X92900500Y-123204424D01*
X92856575Y-122983599D01*
X92770413Y-122775587D01*
X92645326Y-122588380D01*
X92486120Y-122429174D01*
X92298913Y-122304087D01*
X92090901Y-122217925D01*
X91870076Y-122174000D01*
X91644924Y-122174000D01*
X91424099Y-122217925D01*
X91216087Y-122304087D01*
X91028880Y-122429174D01*
X90869674Y-122588380D01*
X90817537Y-122666409D01*
X90828149Y-121443473D01*
X90869674Y-121505620D01*
X91028880Y-121664826D01*
X91216087Y-121789913D01*
X91424099Y-121876075D01*
X91644924Y-121920000D01*
X91870076Y-121920000D01*
X92090901Y-121876075D01*
X92298913Y-121789913D01*
X92486120Y-121664826D01*
X92645326Y-121505620D01*
X92770413Y-121318413D01*
X92856575Y-121110401D01*
X92900500Y-120889576D01*
X92900500Y-120664424D01*
X92856575Y-120443599D01*
X92770413Y-120235587D01*
X92645326Y-120048380D01*
X92486120Y-119889174D01*
X92298913Y-119764087D01*
X92090901Y-119677925D01*
X91870076Y-119634000D01*
X91644924Y-119634000D01*
X91424099Y-119677925D01*
X91216087Y-119764087D01*
X91028880Y-119889174D01*
X90869674Y-120048380D01*
X90839868Y-120092989D01*
X90849907Y-118936036D01*
X90869674Y-118965620D01*
X91028880Y-119124826D01*
X91216087Y-119249913D01*
X91424099Y-119336075D01*
X91644924Y-119380000D01*
X91870076Y-119380000D01*
X92090901Y-119336075D01*
X92298913Y-119249913D01*
X92486120Y-119124826D01*
X92645326Y-118965620D01*
X92770413Y-118778413D01*
X92856575Y-118570401D01*
X92900500Y-118349576D01*
X92900500Y-118124424D01*
X92856575Y-117903599D01*
X92770413Y-117695587D01*
X92645326Y-117508380D01*
X92486120Y-117349174D01*
X92298913Y-117224087D01*
X92090901Y-117137925D01*
X91870076Y-117094000D01*
X91644924Y-117094000D01*
X91424099Y-117137925D01*
X91216087Y-117224087D01*
X91028880Y-117349174D01*
X90869674Y-117508380D01*
X90862198Y-117519568D01*
X90871674Y-116427620D01*
X91028880Y-116584826D01*
X91216087Y-116709913D01*
X91424099Y-116796075D01*
X91644924Y-116840000D01*
X91870076Y-116840000D01*
X92090901Y-116796075D01*
X92298913Y-116709913D01*
X92486120Y-116584826D01*
X92645326Y-116425620D01*
X92770413Y-116238413D01*
X92856575Y-116030401D01*
X92900500Y-115809576D01*
X92900500Y-115584424D01*
X92856575Y-115363599D01*
X92770413Y-115155587D01*
X92645326Y-114968380D01*
X92486120Y-114809174D01*
X92298913Y-114684087D01*
X92090901Y-114597925D01*
X91870076Y-114554000D01*
X91644924Y-114554000D01*
X91424099Y-114597925D01*
X91216087Y-114684087D01*
X91028880Y-114809174D01*
X90884464Y-114953590D01*
X90893525Y-113909471D01*
X91028880Y-114044826D01*
X91216087Y-114169913D01*
X91424099Y-114256075D01*
X91644924Y-114300000D01*
X91870076Y-114300000D01*
X92090901Y-114256075D01*
X92298913Y-114169913D01*
X92486120Y-114044826D01*
X92645326Y-113885620D01*
X92770413Y-113698413D01*
X92856575Y-113490401D01*
X92900500Y-113269576D01*
X92900500Y-113044424D01*
X92856575Y-112823599D01*
X92770413Y-112615587D01*
X92645326Y-112428380D01*
X92486120Y-112269174D01*
X92298913Y-112144087D01*
X92090901Y-112057925D01*
X91870076Y-112014000D01*
X91644924Y-112014000D01*
X91424099Y-112057925D01*
X91216087Y-112144087D01*
X91028880Y-112269174D01*
X90906698Y-112391356D01*
X90915376Y-111391322D01*
X91028880Y-111504826D01*
X91216087Y-111629913D01*
X91424099Y-111716075D01*
X91644924Y-111760000D01*
X91870076Y-111760000D01*
X92090901Y-111716075D01*
X92298913Y-111629913D01*
X92486120Y-111504826D01*
X92645326Y-111345620D01*
X92770413Y-111158413D01*
X92856575Y-110950401D01*
X92900500Y-110729576D01*
X92900500Y-110504424D01*
X92856575Y-110283599D01*
X92770413Y-110075587D01*
X92645326Y-109888380D01*
X92486120Y-109729174D01*
X92298913Y-109604087D01*
X92090901Y-109517925D01*
X91870076Y-109474000D01*
X91644924Y-109474000D01*
X91424099Y-109517925D01*
X91216087Y-109604087D01*
X91028880Y-109729174D01*
X90928931Y-109829123D01*
X90937227Y-108873173D01*
X91028880Y-108964826D01*
X91216087Y-109089913D01*
X91424099Y-109176075D01*
X91644924Y-109220000D01*
X91870076Y-109220000D01*
X92090901Y-109176075D01*
X92298913Y-109089913D01*
X92486120Y-108964826D01*
X92645326Y-108805620D01*
X92770413Y-108618413D01*
X92856575Y-108410401D01*
X92900500Y-108189576D01*
X92900500Y-107964424D01*
X92856575Y-107743599D01*
X92770413Y-107535587D01*
X92645326Y-107348380D01*
X92486120Y-107189174D01*
X92298913Y-107064087D01*
X92090901Y-106977925D01*
X91870076Y-106934000D01*
X91644924Y-106934000D01*
X91424099Y-106977925D01*
X91216087Y-107064087D01*
X91028880Y-107189174D01*
X90951165Y-107266889D01*
X90959078Y-106355024D01*
X91028880Y-106424826D01*
X91216087Y-106549913D01*
X91424099Y-106636075D01*
X91644924Y-106680000D01*
X91870076Y-106680000D01*
X92090901Y-106636075D01*
X92298913Y-106549913D01*
X92486120Y-106424826D01*
X92645326Y-106265620D01*
X92770413Y-106078413D01*
X92856575Y-105870401D01*
X92900500Y-105649576D01*
X92900500Y-105484093D01*
X95072094Y-103312500D01*
X99927101Y-103312500D01*
X101516096Y-104901496D01*
X101516096Y-105043826D01*
X101546109Y-105194713D01*
X101604983Y-105336846D01*
X101690454Y-105464763D01*
X101799237Y-105573546D01*
X101927154Y-105659017D01*
X102069287Y-105717891D01*
X102220174Y-105747904D01*
X102374018Y-105747904D01*
X102524905Y-105717891D01*
X102667038Y-105659017D01*
X102794955Y-105573546D01*
X102903738Y-105464763D01*
X102989209Y-105336846D01*
X103048083Y-105194713D01*
X103050831Y-105180897D01*
X103054853Y-105180501D01*
X103550392Y-105180501D01*
X103633141Y-105263250D01*
X103761058Y-105348721D01*
X103903191Y-105407595D01*
X104054078Y-105437608D01*
X104207922Y-105437608D01*
X104358809Y-105407595D01*
X104500942Y-105348721D01*
X104628859Y-105263250D01*
X104737642Y-105154467D01*
X104823113Y-105026550D01*
X104881987Y-104884417D01*
X104912000Y-104733530D01*
X104912000Y-104579686D01*
X104881987Y-104428799D01*
X104823113Y-104286666D01*
X104737642Y-104158749D01*
X104628859Y-104049966D01*
X104500942Y-103964495D01*
X104358809Y-103905621D01*
X104207922Y-103875608D01*
X104159000Y-103875608D01*
X104159000Y-103872578D01*
X104128987Y-103721691D01*
X104070113Y-103579558D01*
X103984642Y-103451641D01*
X103875859Y-103342858D01*
X103747942Y-103257387D01*
X103605809Y-103198513D01*
X103454922Y-103168500D01*
X103312592Y-103168500D01*
X101530876Y-101386785D01*
X101515027Y-101367473D01*
X101437979Y-101304241D01*
X101350075Y-101257255D01*
X101254693Y-101228322D01*
X101180354Y-101221000D01*
X101180346Y-101221000D01*
X101155500Y-101218553D01*
X101130654Y-101221000D01*
X93372001Y-101221000D01*
X93271359Y-101120358D01*
X93143442Y-101034887D01*
X93001309Y-100976013D01*
X92850422Y-100946000D01*
X92792123Y-100946000D01*
X92856575Y-100790401D01*
X92900500Y-100569576D01*
X92900500Y-100344424D01*
X92856575Y-100123599D01*
X92770413Y-99915587D01*
X92645326Y-99728380D01*
X92486120Y-99569174D01*
X92298913Y-99444087D01*
X92090901Y-99357925D01*
X91870076Y-99314000D01*
X91644924Y-99314000D01*
X91424099Y-99357925D01*
X91216087Y-99444087D01*
X91028880Y-99569174D01*
X90869674Y-99728380D01*
X90744587Y-99915587D01*
X90658425Y-100123599D01*
X90614500Y-100344424D01*
X90614500Y-100569576D01*
X90658425Y-100790401D01*
X90744587Y-100998413D01*
X90869674Y-101185620D01*
X91028880Y-101344826D01*
X91216087Y-101469913D01*
X91424099Y-101556075D01*
X91644924Y-101600000D01*
X91870076Y-101600000D01*
X92007915Y-101572582D01*
X91992500Y-101650078D01*
X91992500Y-101803922D01*
X92007915Y-101881418D01*
X91870076Y-101854000D01*
X91644924Y-101854000D01*
X91424099Y-101897925D01*
X91216087Y-101984087D01*
X91028880Y-102109174D01*
X90869674Y-102268380D01*
X90744587Y-102455587D01*
X90658425Y-102663599D01*
X90614500Y-102884424D01*
X90614500Y-103109576D01*
X90658425Y-103330401D01*
X90744587Y-103538413D01*
X90869674Y-103725620D01*
X91028880Y-103884826D01*
X91216087Y-104009913D01*
X91424099Y-104096075D01*
X91644924Y-104140000D01*
X91870076Y-104140000D01*
X92090901Y-104096075D01*
X92298913Y-104009913D01*
X92486120Y-103884826D01*
X92564787Y-103806159D01*
X92611358Y-103875859D01*
X92720141Y-103984642D01*
X92848058Y-104070113D01*
X92872976Y-104080435D01*
X92377089Y-104576322D01*
X92298913Y-104524087D01*
X92090901Y-104437925D01*
X91870076Y-104394000D01*
X91644924Y-104394000D01*
X91424099Y-104437925D01*
X91216087Y-104524087D01*
X91028880Y-104649174D01*
X90869674Y-104808380D01*
X90744587Y-104995587D01*
X90658425Y-105203599D01*
X90649199Y-105249980D01*
X76758000Y-105249980D01*
X76758000Y-81774578D01*
X90849500Y-81774578D01*
X90849500Y-81928422D01*
X90879513Y-82079309D01*
X90938387Y-82221442D01*
X91023858Y-82349359D01*
X91126501Y-82452002D01*
X91126500Y-86136997D01*
X91135630Y-86229697D01*
X91171711Y-86348641D01*
X91230304Y-86458260D01*
X91309157Y-86554343D01*
X91405239Y-86633196D01*
X91514858Y-86691789D01*
X91524581Y-86694739D01*
X93612487Y-88782645D01*
X93630683Y-88804817D01*
X93719152Y-88877421D01*
X93820085Y-88931371D01*
X93929604Y-88964593D01*
X94043499Y-88975811D01*
X94072039Y-88973000D01*
X102375343Y-88973000D01*
X105867250Y-92464908D01*
X105867250Y-92501172D01*
X105897263Y-92652059D01*
X105956137Y-92794192D01*
X106041608Y-92922109D01*
X106150391Y-93030892D01*
X106278308Y-93116363D01*
X106420441Y-93175237D01*
X106571328Y-93205250D01*
X106725172Y-93205250D01*
X106876059Y-93175237D01*
X107018192Y-93116363D01*
X107146109Y-93030892D01*
X107254892Y-92922109D01*
X107340363Y-92794192D01*
X107399237Y-92652059D01*
X107429250Y-92501172D01*
X107429250Y-92347328D01*
X107399237Y-92196441D01*
X107340363Y-92054308D01*
X107254892Y-91926391D01*
X107146109Y-91817608D01*
X107036300Y-91744236D01*
X110872473Y-91744236D01*
X110954752Y-91973309D01*
X111078524Y-92163370D01*
X111236997Y-92325633D01*
X111294339Y-92364936D01*
X111232899Y-92439801D01*
X111149699Y-92595457D01*
X111098465Y-92764353D01*
X111081165Y-92940000D01*
X111098465Y-93115647D01*
X111149699Y-93284543D01*
X111232899Y-93440199D01*
X111344867Y-93576633D01*
X111481301Y-93688601D01*
X111483918Y-93690000D01*
X111481301Y-93691399D01*
X111344867Y-93803367D01*
X111232899Y-93939801D01*
X111149699Y-94095457D01*
X111098465Y-94264353D01*
X111081165Y-94440000D01*
X111098465Y-94615647D01*
X111149699Y-94784543D01*
X111232899Y-94940199D01*
X111344867Y-95076633D01*
X111406033Y-95126830D01*
X111364911Y-95148810D01*
X111269012Y-95227512D01*
X111190310Y-95323411D01*
X111131829Y-95432821D01*
X111095817Y-95551538D01*
X111083657Y-95674999D01*
X111083657Y-96205001D01*
X111095817Y-96328462D01*
X111131829Y-96447179D01*
X111190310Y-96556589D01*
X111269012Y-96652488D01*
X111364911Y-96731190D01*
X111474321Y-96789671D01*
X111593038Y-96825683D01*
X111716499Y-96837843D01*
X112946501Y-96837843D01*
X113069962Y-96825683D01*
X113188679Y-96789671D01*
X113298089Y-96731190D01*
X113393988Y-96652488D01*
X113472690Y-96556589D01*
X113531171Y-96447179D01*
X113567183Y-96328462D01*
X113579343Y-96205001D01*
X113579343Y-95674999D01*
X113567183Y-95551538D01*
X113531171Y-95432821D01*
X113472690Y-95323411D01*
X113393988Y-95227512D01*
X113298089Y-95148810D01*
X113256967Y-95126830D01*
X113318133Y-95076633D01*
X113430101Y-94940199D01*
X113513301Y-94784543D01*
X113564535Y-94615647D01*
X113581835Y-94440000D01*
X113564535Y-94264353D01*
X113513301Y-94095457D01*
X113430101Y-93939801D01*
X113318133Y-93803367D01*
X113181699Y-93691399D01*
X113179082Y-93690000D01*
X113181699Y-93688601D01*
X113318133Y-93576633D01*
X113430101Y-93440199D01*
X113513301Y-93284543D01*
X113564535Y-93115647D01*
X113581835Y-92940000D01*
X113564535Y-92764353D01*
X113513301Y-92595457D01*
X113430101Y-92439801D01*
X113368661Y-92364936D01*
X113426003Y-92325633D01*
X113584476Y-92163370D01*
X113708248Y-91973309D01*
X113790527Y-91744236D01*
X113664581Y-91567000D01*
X112458500Y-91567000D01*
X112458500Y-91587000D01*
X112204500Y-91587000D01*
X112204500Y-91567000D01*
X110998419Y-91567000D01*
X110872473Y-91744236D01*
X107036300Y-91744236D01*
X107018192Y-91732137D01*
X106876059Y-91673263D01*
X106725172Y-91643250D01*
X106688908Y-91643250D01*
X106181422Y-91135764D01*
X110872473Y-91135764D01*
X110998419Y-91313000D01*
X112204500Y-91313000D01*
X112204500Y-90290000D01*
X112458500Y-90290000D01*
X112458500Y-91313000D01*
X113664581Y-91313000D01*
X113790527Y-91135764D01*
X113708248Y-90906691D01*
X113584476Y-90716630D01*
X113426003Y-90554367D01*
X113238919Y-90426139D01*
X113030414Y-90336873D01*
X112808500Y-90290000D01*
X112458500Y-90290000D01*
X112204500Y-90290000D01*
X111854500Y-90290000D01*
X111632586Y-90336873D01*
X111424081Y-90426139D01*
X111236997Y-90554367D01*
X111078524Y-90716630D01*
X110954752Y-90906691D01*
X110872473Y-91135764D01*
X106181422Y-91135764D01*
X103047017Y-88001360D01*
X103028817Y-87979183D01*
X102940348Y-87906579D01*
X102839415Y-87852629D01*
X102729896Y-87819407D01*
X102644540Y-87811000D01*
X102616000Y-87808189D01*
X102587460Y-87811000D01*
X94284158Y-87811000D01*
X92388500Y-85915343D01*
X92388500Y-82820000D01*
X106948157Y-82820000D01*
X106948157Y-84820000D01*
X106955513Y-84894689D01*
X106977299Y-84966508D01*
X107012678Y-85032696D01*
X107060289Y-85090711D01*
X107118304Y-85138322D01*
X107184492Y-85173701D01*
X107256311Y-85195487D01*
X107331000Y-85202843D01*
X109331000Y-85202843D01*
X109405689Y-85195487D01*
X109477508Y-85173701D01*
X109543696Y-85138322D01*
X109601711Y-85090711D01*
X109649322Y-85032696D01*
X109684701Y-84966508D01*
X109688066Y-84955413D01*
X112375192Y-84955413D01*
X112470956Y-85219814D01*
X112760571Y-85360704D01*
X113072108Y-85442384D01*
X113393595Y-85461718D01*
X113712675Y-85417961D01*
X114017088Y-85312795D01*
X114191044Y-85219814D01*
X114286808Y-84955413D01*
X113331000Y-83999605D01*
X112375192Y-84955413D01*
X109688066Y-84955413D01*
X109706487Y-84894689D01*
X109713843Y-84820000D01*
X109713843Y-83882595D01*
X111689282Y-83882595D01*
X111733039Y-84201675D01*
X111838205Y-84506088D01*
X111931186Y-84680044D01*
X112195587Y-84775808D01*
X113151395Y-83820000D01*
X113510605Y-83820000D01*
X114466413Y-84775808D01*
X114730814Y-84680044D01*
X114871704Y-84390429D01*
X114953384Y-84078892D01*
X114972718Y-83757405D01*
X114928961Y-83438325D01*
X114823795Y-83133912D01*
X114730814Y-82959956D01*
X114466413Y-82864192D01*
X113510605Y-83820000D01*
X113151395Y-83820000D01*
X112195587Y-82864192D01*
X111931186Y-82959956D01*
X111790296Y-83249571D01*
X111708616Y-83561108D01*
X111689282Y-83882595D01*
X109713843Y-83882595D01*
X109713843Y-82820000D01*
X109706487Y-82745311D01*
X109688067Y-82684587D01*
X112375192Y-82684587D01*
X113331000Y-83640395D01*
X114286808Y-82684587D01*
X114191044Y-82420186D01*
X113901429Y-82279296D01*
X113589892Y-82197616D01*
X113268405Y-82178282D01*
X112949325Y-82222039D01*
X112644912Y-82327205D01*
X112470956Y-82420186D01*
X112375192Y-82684587D01*
X109688067Y-82684587D01*
X109684701Y-82673492D01*
X109649322Y-82607304D01*
X109601711Y-82549289D01*
X109543696Y-82501678D01*
X109477508Y-82466299D01*
X109405689Y-82444513D01*
X109331000Y-82437157D01*
X107331000Y-82437157D01*
X107256311Y-82444513D01*
X107184492Y-82466299D01*
X107118304Y-82501678D01*
X107060289Y-82549289D01*
X107012678Y-82607304D01*
X106977299Y-82673492D01*
X106955513Y-82745311D01*
X106948157Y-82820000D01*
X92388500Y-82820000D01*
X92388500Y-82044052D01*
X92411500Y-81928422D01*
X92411500Y-81774578D01*
X92381487Y-81623691D01*
X92322613Y-81481558D01*
X92237142Y-81353641D01*
X92128359Y-81244858D01*
X92000442Y-81159387D01*
X91858309Y-81100513D01*
X91707422Y-81070500D01*
X91553578Y-81070500D01*
X91402691Y-81100513D01*
X91260558Y-81159387D01*
X91132641Y-81244858D01*
X91023858Y-81353641D01*
X90938387Y-81481558D01*
X90879513Y-81623691D01*
X90849500Y-81774578D01*
X76758000Y-81774578D01*
X76758000Y-76620391D01*
X107334019Y-76620391D01*
X107431343Y-76894752D01*
X107580322Y-77144855D01*
X107775231Y-77361088D01*
X108008580Y-77535141D01*
X108271401Y-77660325D01*
X108418610Y-77704976D01*
X108648500Y-77583655D01*
X108648500Y-76390500D01*
X107454686Y-76390500D01*
X107334019Y-76620391D01*
X76758000Y-76620391D01*
X76758000Y-75906609D01*
X107334019Y-75906609D01*
X107454686Y-76136500D01*
X108648500Y-76136500D01*
X108648500Y-74943345D01*
X108902500Y-74943345D01*
X108902500Y-76136500D01*
X108922500Y-76136500D01*
X108922500Y-76390500D01*
X108902500Y-76390500D01*
X108902500Y-77583655D01*
X109132390Y-77704976D01*
X109279599Y-77660325D01*
X109542420Y-77535141D01*
X109775769Y-77361088D01*
X109970678Y-77144855D01*
X110119657Y-76894752D01*
X110177272Y-76732332D01*
X110224602Y-76846597D01*
X110359320Y-77048217D01*
X110530783Y-77219680D01*
X110732403Y-77354398D01*
X110956431Y-77447193D01*
X111194257Y-77494500D01*
X111436743Y-77494500D01*
X111674569Y-77447193D01*
X111898597Y-77354398D01*
X112100217Y-77219680D01*
X112271680Y-77048217D01*
X112406398Y-76846597D01*
X112499193Y-76622569D01*
X112546500Y-76384743D01*
X112546500Y-76142257D01*
X112499193Y-75904431D01*
X112406398Y-75680403D01*
X112271680Y-75478783D01*
X112206397Y-75413500D01*
X112622657Y-75413500D01*
X112622657Y-77113500D01*
X112630013Y-77188189D01*
X112651799Y-77260008D01*
X112687178Y-77326196D01*
X112734789Y-77384211D01*
X112792804Y-77431822D01*
X112858992Y-77467201D01*
X112930811Y-77488987D01*
X113005500Y-77496343D01*
X114705500Y-77496343D01*
X114780189Y-77488987D01*
X114852008Y-77467201D01*
X114918196Y-77431822D01*
X114976211Y-77384211D01*
X115023822Y-77326196D01*
X115059201Y-77260008D01*
X115080987Y-77188189D01*
X115088343Y-77113500D01*
X115088343Y-75413500D01*
X115080987Y-75338811D01*
X115059201Y-75266992D01*
X115023822Y-75200804D01*
X114976211Y-75142789D01*
X114918196Y-75095178D01*
X114852008Y-75059799D01*
X114780189Y-75038013D01*
X114705500Y-75030657D01*
X113005500Y-75030657D01*
X112930811Y-75038013D01*
X112858992Y-75059799D01*
X112792804Y-75095178D01*
X112734789Y-75142789D01*
X112687178Y-75200804D01*
X112651799Y-75266992D01*
X112630013Y-75338811D01*
X112622657Y-75413500D01*
X112206397Y-75413500D01*
X112100217Y-75307320D01*
X111898597Y-75172602D01*
X111674569Y-75079807D01*
X111436743Y-75032500D01*
X111194257Y-75032500D01*
X110956431Y-75079807D01*
X110732403Y-75172602D01*
X110530783Y-75307320D01*
X110359320Y-75478783D01*
X110224602Y-75680403D01*
X110177272Y-75794668D01*
X110119657Y-75632248D01*
X109970678Y-75382145D01*
X109775769Y-75165912D01*
X109542420Y-74991859D01*
X109279599Y-74866675D01*
X109132390Y-74822024D01*
X108902500Y-74943345D01*
X108648500Y-74943345D01*
X108418610Y-74822024D01*
X108271401Y-74866675D01*
X108008580Y-74991859D01*
X107775231Y-75165912D01*
X107580322Y-75382145D01*
X107431343Y-75632248D01*
X107334019Y-75906609D01*
X76758000Y-75906609D01*
X76758000Y-73049500D01*
X109827428Y-73049500D01*
X109839688Y-73173982D01*
X109875998Y-73293680D01*
X109934963Y-73403994D01*
X110014315Y-73500685D01*
X110111006Y-73580037D01*
X110221320Y-73639002D01*
X110341018Y-73675312D01*
X110465500Y-73687572D01*
X111029750Y-73684500D01*
X111188500Y-73525750D01*
X111188500Y-72326500D01*
X109989250Y-72326500D01*
X109830500Y-72485250D01*
X109827428Y-73049500D01*
X76758000Y-73049500D01*
X76758000Y-71349500D01*
X109827428Y-71349500D01*
X109830500Y-71913750D01*
X109989250Y-72072500D01*
X111188500Y-72072500D01*
X111188500Y-70873250D01*
X111442500Y-70873250D01*
X111442500Y-72072500D01*
X111462500Y-72072500D01*
X111462500Y-72326500D01*
X111442500Y-72326500D01*
X111442500Y-73525750D01*
X111601250Y-73684500D01*
X112165500Y-73687572D01*
X112289982Y-73675312D01*
X112409680Y-73639002D01*
X112519994Y-73580037D01*
X112616685Y-73500685D01*
X112696037Y-73403994D01*
X112755002Y-73293680D01*
X112791312Y-73173982D01*
X112803572Y-73049500D01*
X112802427Y-72839206D01*
X112899320Y-72984217D01*
X113070783Y-73155680D01*
X113272403Y-73290398D01*
X113496431Y-73383193D01*
X113734257Y-73430500D01*
X113976743Y-73430500D01*
X114214569Y-73383193D01*
X114438597Y-73290398D01*
X114640217Y-73155680D01*
X114811680Y-72984217D01*
X114946398Y-72782597D01*
X115039193Y-72558569D01*
X115086500Y-72320743D01*
X115086500Y-72078257D01*
X115039193Y-71840431D01*
X114946398Y-71616403D01*
X114811680Y-71414783D01*
X114640217Y-71243320D01*
X114438597Y-71108602D01*
X114214569Y-71015807D01*
X113976743Y-70968500D01*
X113734257Y-70968500D01*
X113496431Y-71015807D01*
X113272403Y-71108602D01*
X113070783Y-71243320D01*
X112899320Y-71414783D01*
X112802427Y-71559794D01*
X112803572Y-71349500D01*
X112791312Y-71225018D01*
X112755002Y-71105320D01*
X112696037Y-70995006D01*
X112616685Y-70898315D01*
X112519994Y-70818963D01*
X112409680Y-70759998D01*
X112289982Y-70723688D01*
X112165500Y-70711428D01*
X111601250Y-70714500D01*
X111442500Y-70873250D01*
X111188500Y-70873250D01*
X111029750Y-70714500D01*
X110465500Y-70711428D01*
X110341018Y-70723688D01*
X110221320Y-70759998D01*
X110111006Y-70818963D01*
X110014315Y-70898315D01*
X109934963Y-70995006D01*
X109875998Y-71105320D01*
X109839688Y-71225018D01*
X109827428Y-71349500D01*
X76758000Y-71349500D01*
X76758000Y-68994881D01*
X77361724Y-68994881D01*
X77721912Y-69484548D01*
X78385882Y-69844849D01*
X79107385Y-70068694D01*
X79858695Y-70147480D01*
X80610938Y-70078178D01*
X81335208Y-69863452D01*
X82003670Y-69511555D01*
X82044088Y-69484548D01*
X82404276Y-68994881D01*
X110254724Y-68994881D01*
X110614912Y-69484548D01*
X111278882Y-69844849D01*
X112000385Y-70068694D01*
X112751695Y-70147480D01*
X113503938Y-70078178D01*
X114228208Y-69863452D01*
X114896670Y-69511555D01*
X114937088Y-69484548D01*
X115297276Y-68994881D01*
X112776000Y-66473605D01*
X110254724Y-68994881D01*
X82404276Y-68994881D01*
X79883000Y-66473605D01*
X77361724Y-68994881D01*
X76758000Y-68994881D01*
X76758000Y-68503304D01*
X77182119Y-68815276D01*
X79703395Y-66294000D01*
X80062605Y-66294000D01*
X82583881Y-68815276D01*
X83073548Y-68455088D01*
X83433849Y-67791118D01*
X83657694Y-67069615D01*
X83736480Y-66318305D01*
X83732002Y-66269695D01*
X108922520Y-66269695D01*
X108991822Y-67021938D01*
X109206548Y-67746208D01*
X109558445Y-68414670D01*
X109585452Y-68455088D01*
X110075119Y-68815276D01*
X112596395Y-66294000D01*
X110075119Y-63772724D01*
X109585452Y-64132912D01*
X109225151Y-64796882D01*
X109001306Y-65518385D01*
X108922520Y-66269695D01*
X83732002Y-66269695D01*
X83667178Y-65566062D01*
X83452452Y-64841792D01*
X83100555Y-64173330D01*
X83073548Y-64132912D01*
X82583881Y-63772724D01*
X80062605Y-66294000D01*
X79703395Y-66294000D01*
X77182119Y-63772724D01*
X76758000Y-64084696D01*
X76758000Y-63169000D01*
X77673696Y-63169000D01*
X77361724Y-63593119D01*
G37*
%TD.AperFunction*%
D26*
X106838683Y-128566817D02*
X106860859Y-128585016D01*
X106936486Y-128660644D01*
X106954683Y-128682817D01*
X107043152Y-128755421D01*
X107144085Y-128809371D01*
X107253604Y-128842593D01*
X107367500Y-128853811D01*
X107369381Y-128853626D01*
X107280377Y-128979794D01*
X107190054Y-129183136D01*
X107173381Y-129238126D01*
X107299546Y-129413000D01*
X108140500Y-129413000D01*
X108140500Y-129393000D01*
X108394500Y-129393000D01*
X108394500Y-129413000D01*
X108414500Y-129413000D01*
X108414500Y-129667000D01*
X108394500Y-129667000D01*
X108394500Y-130683000D01*
X108414500Y-130683000D01*
X108414500Y-130937000D01*
X108394500Y-130937000D01*
X108394500Y-130957000D01*
X108140500Y-130957000D01*
X108140500Y-130937000D01*
X107299546Y-130937000D01*
X107173381Y-131111874D01*
X107190054Y-131166864D01*
X107280377Y-131370206D01*
X107408635Y-131552020D01*
X107501641Y-131640431D01*
X107486768Y-131662690D01*
X107420356Y-131823022D01*
X107386500Y-131993229D01*
X107386500Y-132166771D01*
X107420356Y-132336978D01*
X107486768Y-132497310D01*
X107501641Y-132519569D01*
X107408635Y-132607980D01*
X107280377Y-132789794D01*
X107190054Y-132993136D01*
X107173381Y-133048126D01*
X107299546Y-133223000D01*
X108140500Y-133223000D01*
X108140500Y-133203000D01*
X108394500Y-133203000D01*
X108394500Y-133223000D01*
X108414500Y-133223000D01*
X108414500Y-133477000D01*
X108394500Y-133477000D01*
X108394500Y-134319129D01*
X108569376Y-134444126D01*
X108777029Y-134364210D01*
X108965101Y-134245318D01*
X109031500Y-134182199D01*
X109031500Y-134495000D01*
X106805000Y-134495000D01*
X106805000Y-133651874D01*
X107173381Y-133651874D01*
X107190054Y-133706864D01*
X107280377Y-133910206D01*
X107408635Y-134092020D01*
X107569899Y-134245318D01*
X107757971Y-134364210D01*
X107965624Y-134444126D01*
X108140500Y-134319129D01*
X108140500Y-133477000D01*
X107299546Y-133477000D01*
X107173381Y-133651874D01*
X106805000Y-133651874D01*
X106805000Y-129841874D01*
X107173381Y-129841874D01*
X107190054Y-129896864D01*
X107280377Y-130100206D01*
X107333139Y-130175000D01*
X107280377Y-130249794D01*
X107190054Y-130453136D01*
X107173381Y-130508126D01*
X107299546Y-130683000D01*
X108140500Y-130683000D01*
X108140500Y-129667000D01*
X107299546Y-129667000D01*
X107173381Y-129841874D01*
X106805000Y-129841874D01*
X106805000Y-128525773D01*
X106838683Y-128566817D01*
%TA.AperFunction,Conductor*%
D27*
G36*
X106838683Y-128566817D02*
G01*
X106860859Y-128585016D01*
X106936486Y-128660644D01*
X106954683Y-128682817D01*
X107043152Y-128755421D01*
X107144085Y-128809371D01*
X107253604Y-128842593D01*
X107367500Y-128853811D01*
X107369381Y-128853626D01*
X107280377Y-128979794D01*
X107190054Y-129183136D01*
X107173381Y-129238126D01*
X107299546Y-129413000D01*
X108140500Y-129413000D01*
X108140500Y-129393000D01*
X108394500Y-129393000D01*
X108394500Y-129413000D01*
X108414500Y-129413000D01*
X108414500Y-129667000D01*
X108394500Y-129667000D01*
X108394500Y-130683000D01*
X108414500Y-130683000D01*
X108414500Y-130937000D01*
X108394500Y-130937000D01*
X108394500Y-130957000D01*
X108140500Y-130957000D01*
X108140500Y-130937000D01*
X107299546Y-130937000D01*
X107173381Y-131111874D01*
X107190054Y-131166864D01*
X107280377Y-131370206D01*
X107408635Y-131552020D01*
X107501641Y-131640431D01*
X107486768Y-131662690D01*
X107420356Y-131823022D01*
X107386500Y-131993229D01*
X107386500Y-132166771D01*
X107420356Y-132336978D01*
X107486768Y-132497310D01*
X107501641Y-132519569D01*
X107408635Y-132607980D01*
X107280377Y-132789794D01*
X107190054Y-132993136D01*
X107173381Y-133048126D01*
X107299546Y-133223000D01*
X108140500Y-133223000D01*
X108140500Y-133203000D01*
X108394500Y-133203000D01*
X108394500Y-133223000D01*
X108414500Y-133223000D01*
X108414500Y-133477000D01*
X108394500Y-133477000D01*
X108394500Y-134319129D01*
X108569376Y-134444126D01*
X108777029Y-134364210D01*
X108965101Y-134245318D01*
X109031500Y-134182199D01*
X109031500Y-134495000D01*
X106805000Y-134495000D01*
X106805000Y-133651874D01*
X107173381Y-133651874D01*
X107190054Y-133706864D01*
X107280377Y-133910206D01*
X107408635Y-134092020D01*
X107569899Y-134245318D01*
X107757971Y-134364210D01*
X107965624Y-134444126D01*
X108140500Y-134319129D01*
X108140500Y-133477000D01*
X107299546Y-133477000D01*
X107173381Y-133651874D01*
X106805000Y-133651874D01*
X106805000Y-129841874D01*
X107173381Y-129841874D01*
X107190054Y-129896864D01*
X107280377Y-130100206D01*
X107333139Y-130175000D01*
X107280377Y-130249794D01*
X107190054Y-130453136D01*
X107173381Y-130508126D01*
X107299546Y-130683000D01*
X108140500Y-130683000D01*
X108140500Y-129667000D01*
X107299546Y-129667000D01*
X107173381Y-129841874D01*
X106805000Y-129841874D01*
X106805000Y-128525773D01*
X106838683Y-128566817D01*
G37*
%TD.AperFunction*%
%TD*%
M02*
