%TF.GenerationSoftware,KiCad,Pcbnew,8.0.1*%
%TF.CreationDate,2024-05-30T20:48:59+03:00*%
%TF.ProjectId,jantteri_right,6a616e74-7465-4726-995f-72696768742e,rev?*%
%TF.SameCoordinates,Original*%
%TF.FileFunction,Legend,Top*%
%TF.FilePolarity,Positive*%
%FSLAX46Y46*%
G04 Gerber Fmt 4.6, Leading zero omitted, Abs format (unit mm)*
G04 Created by KiCad (PCBNEW 8.0.1) date 2024-05-30 20:48:59*
%MOMM*%
%LPD*%
G01*
G04 APERTURE LIST*
%ADD10C,0.150000*%
%ADD11C,0.120000*%
G04 APERTURE END LIST*
D10*
X-6135667Y9518420D02*
X-6183286Y9470800D01*
X-6183286Y9470800D02*
X-6326143Y9423181D01*
X-6326143Y9423181D02*
X-6421381Y9423181D01*
X-6421381Y9423181D02*
X-6564238Y9470800D01*
X-6564238Y9470800D02*
X-6659476Y9566039D01*
X-6659476Y9566039D02*
X-6707095Y9661277D01*
X-6707095Y9661277D02*
X-6754714Y9851753D01*
X-6754714Y9851753D02*
X-6754714Y9994610D01*
X-6754714Y9994610D02*
X-6707095Y10185086D01*
X-6707095Y10185086D02*
X-6659476Y10280324D01*
X-6659476Y10280324D02*
X-6564238Y10375562D01*
X-6564238Y10375562D02*
X-6421381Y10423181D01*
X-6421381Y10423181D02*
X-6326143Y10423181D01*
X-6326143Y10423181D02*
X-6183286Y10375562D01*
X-6183286Y10375562D02*
X-6135667Y10327943D01*
X-5183286Y9423181D02*
X-5754714Y9423181D01*
X-5469000Y9423181D02*
X-5469000Y10423181D01*
X-5469000Y10423181D02*
X-5564238Y10280324D01*
X-5564238Y10280324D02*
X-5659476Y10185086D01*
X-5659476Y10185086D02*
X-5754714Y10137467D01*
X-17768400Y18101014D02*
X-17720780Y18053395D01*
X-17720780Y18053395D02*
X-17673161Y17910538D01*
X-17673161Y17910538D02*
X-17673161Y17815300D01*
X-17673161Y17815300D02*
X-17720780Y17672443D01*
X-17720780Y17672443D02*
X-17816019Y17577205D01*
X-17816019Y17577205D02*
X-17911257Y17529586D01*
X-17911257Y17529586D02*
X-18101733Y17481967D01*
X-18101733Y17481967D02*
X-18244590Y17481967D01*
X-18244590Y17481967D02*
X-18435066Y17529586D01*
X-18435066Y17529586D02*
X-18530304Y17577205D01*
X-18530304Y17577205D02*
X-18625542Y17672443D01*
X-18625542Y17672443D02*
X-18673161Y17815300D01*
X-18673161Y17815300D02*
X-18673161Y17910538D01*
X-18673161Y17910538D02*
X-18625542Y18053395D01*
X-18625542Y18053395D02*
X-18577923Y18101014D01*
X-18577923Y18481967D02*
X-18625542Y18529586D01*
X-18625542Y18529586D02*
X-18673161Y18624824D01*
X-18673161Y18624824D02*
X-18673161Y18862919D01*
X-18673161Y18862919D02*
X-18625542Y18958157D01*
X-18625542Y18958157D02*
X-18577923Y19005776D01*
X-18577923Y19005776D02*
X-18482685Y19053395D01*
X-18482685Y19053395D02*
X-18387447Y19053395D01*
X-18387447Y19053395D02*
X-18244590Y19005776D01*
X-18244590Y19005776D02*
X-17673161Y18434348D01*
X-17673161Y18434348D02*
X-17673161Y19053395D01*
X-10263167Y16777800D02*
X-10310786Y16730180D01*
X-10310786Y16730180D02*
X-10453643Y16682561D01*
X-10453643Y16682561D02*
X-10548881Y16682561D01*
X-10548881Y16682561D02*
X-10691738Y16730180D01*
X-10691738Y16730180D02*
X-10786976Y16825419D01*
X-10786976Y16825419D02*
X-10834595Y16920657D01*
X-10834595Y16920657D02*
X-10882214Y17111133D01*
X-10882214Y17111133D02*
X-10882214Y17253990D01*
X-10882214Y17253990D02*
X-10834595Y17444466D01*
X-10834595Y17444466D02*
X-10786976Y17539704D01*
X-10786976Y17539704D02*
X-10691738Y17634942D01*
X-10691738Y17634942D02*
X-10548881Y17682561D01*
X-10548881Y17682561D02*
X-10453643Y17682561D01*
X-10453643Y17682561D02*
X-10310786Y17634942D01*
X-10310786Y17634942D02*
X-10263167Y17587323D01*
X-9929833Y17682561D02*
X-9310786Y17682561D01*
X-9310786Y17682561D02*
X-9644119Y17301609D01*
X-9644119Y17301609D02*
X-9501262Y17301609D01*
X-9501262Y17301609D02*
X-9406024Y17253990D01*
X-9406024Y17253990D02*
X-9358405Y17206371D01*
X-9358405Y17206371D02*
X-9310786Y17111133D01*
X-9310786Y17111133D02*
X-9310786Y16873038D01*
X-9310786Y16873038D02*
X-9358405Y16777800D01*
X-9358405Y16777800D02*
X-9406024Y16730180D01*
X-9406024Y16730180D02*
X-9501262Y16682561D01*
X-9501262Y16682561D02*
X-9786976Y16682561D01*
X-9786976Y16682561D02*
X-9882214Y16730180D01*
X-9882214Y16730180D02*
X-9929833Y16777800D01*
X-16335840Y13163254D02*
X-16288220Y13115635D01*
X-16288220Y13115635D02*
X-16240601Y12972778D01*
X-16240601Y12972778D02*
X-16240601Y12877540D01*
X-16240601Y12877540D02*
X-16288220Y12734683D01*
X-16288220Y12734683D02*
X-16383459Y12639445D01*
X-16383459Y12639445D02*
X-16478697Y12591826D01*
X-16478697Y12591826D02*
X-16669173Y12544207D01*
X-16669173Y12544207D02*
X-16812030Y12544207D01*
X-16812030Y12544207D02*
X-17002506Y12591826D01*
X-17002506Y12591826D02*
X-17097744Y12639445D01*
X-17097744Y12639445D02*
X-17192982Y12734683D01*
X-17192982Y12734683D02*
X-17240601Y12877540D01*
X-17240601Y12877540D02*
X-17240601Y12972778D01*
X-17240601Y12972778D02*
X-17192982Y13115635D01*
X-17192982Y13115635D02*
X-17145363Y13163254D01*
X-16907268Y14020397D02*
X-16240601Y14020397D01*
X-17288220Y13782302D02*
X-16573935Y13544207D01*
X-16573935Y13544207D02*
X-16573935Y14163254D01*
X-18375460Y15243514D02*
X-18327840Y15195895D01*
X-18327840Y15195895D02*
X-18280221Y15053038D01*
X-18280221Y15053038D02*
X-18280221Y14957800D01*
X-18280221Y14957800D02*
X-18327840Y14814943D01*
X-18327840Y14814943D02*
X-18423079Y14719705D01*
X-18423079Y14719705D02*
X-18518317Y14672086D01*
X-18518317Y14672086D02*
X-18708793Y14624467D01*
X-18708793Y14624467D02*
X-18851650Y14624467D01*
X-18851650Y14624467D02*
X-19042126Y14672086D01*
X-19042126Y14672086D02*
X-19137364Y14719705D01*
X-19137364Y14719705D02*
X-19232602Y14814943D01*
X-19232602Y14814943D02*
X-19280221Y14957800D01*
X-19280221Y14957800D02*
X-19280221Y15053038D01*
X-19280221Y15053038D02*
X-19232602Y15195895D01*
X-19232602Y15195895D02*
X-19184983Y15243514D01*
X-19280221Y16148276D02*
X-19280221Y15672086D01*
X-19280221Y15672086D02*
X-18804031Y15624467D01*
X-18804031Y15624467D02*
X-18851650Y15672086D01*
X-18851650Y15672086D02*
X-18899269Y15767324D01*
X-18899269Y15767324D02*
X-18899269Y16005419D01*
X-18899269Y16005419D02*
X-18851650Y16100657D01*
X-18851650Y16100657D02*
X-18804031Y16148276D01*
X-18804031Y16148276D02*
X-18708793Y16195895D01*
X-18708793Y16195895D02*
X-18470698Y16195895D01*
X-18470698Y16195895D02*
X-18375460Y16148276D01*
X-18375460Y16148276D02*
X-18327840Y16100657D01*
X-18327840Y16100657D02*
X-18280221Y16005419D01*
X-18280221Y16005419D02*
X-18280221Y15767324D01*
X-18280221Y15767324D02*
X-18327840Y15672086D01*
X-18327840Y15672086D02*
X-18375460Y15624467D01*
X-9234467Y22746800D02*
X-9282086Y22699180D01*
X-9282086Y22699180D02*
X-9424943Y22651561D01*
X-9424943Y22651561D02*
X-9520181Y22651561D01*
X-9520181Y22651561D02*
X-9663038Y22699180D01*
X-9663038Y22699180D02*
X-9758276Y22794419D01*
X-9758276Y22794419D02*
X-9805895Y22889657D01*
X-9805895Y22889657D02*
X-9853514Y23080133D01*
X-9853514Y23080133D02*
X-9853514Y23222990D01*
X-9853514Y23222990D02*
X-9805895Y23413466D01*
X-9805895Y23413466D02*
X-9758276Y23508704D01*
X-9758276Y23508704D02*
X-9663038Y23603942D01*
X-9663038Y23603942D02*
X-9520181Y23651561D01*
X-9520181Y23651561D02*
X-9424943Y23651561D01*
X-9424943Y23651561D02*
X-9282086Y23603942D01*
X-9282086Y23603942D02*
X-9234467Y23556323D01*
X-8377324Y23651561D02*
X-8567800Y23651561D01*
X-8567800Y23651561D02*
X-8663038Y23603942D01*
X-8663038Y23603942D02*
X-8710657Y23556323D01*
X-8710657Y23556323D02*
X-8805895Y23413466D01*
X-8805895Y23413466D02*
X-8853514Y23222990D01*
X-8853514Y23222990D02*
X-8853514Y22842038D01*
X-8853514Y22842038D02*
X-8805895Y22746800D01*
X-8805895Y22746800D02*
X-8758276Y22699180D01*
X-8758276Y22699180D02*
X-8663038Y22651561D01*
X-8663038Y22651561D02*
X-8472562Y22651561D01*
X-8472562Y22651561D02*
X-8377324Y22699180D01*
X-8377324Y22699180D02*
X-8329705Y22746800D01*
X-8329705Y22746800D02*
X-8282086Y22842038D01*
X-8282086Y22842038D02*
X-8282086Y23080133D01*
X-8282086Y23080133D02*
X-8329705Y23175371D01*
X-8329705Y23175371D02*
X-8377324Y23222990D01*
X-8377324Y23222990D02*
X-8472562Y23270609D01*
X-8472562Y23270609D02*
X-8663038Y23270609D01*
X-8663038Y23270609D02*
X-8758276Y23222990D01*
X-8758276Y23222990D02*
X-8805895Y23175371D01*
X-8805895Y23175371D02*
X-8853514Y23080133D01*
X13580280Y5992834D02*
X13627900Y5945215D01*
X13627900Y5945215D02*
X13675519Y5802358D01*
X13675519Y5802358D02*
X13675519Y5707120D01*
X13675519Y5707120D02*
X13627900Y5564263D01*
X13627900Y5564263D02*
X13532661Y5469025D01*
X13532661Y5469025D02*
X13437423Y5421406D01*
X13437423Y5421406D02*
X13246947Y5373787D01*
X13246947Y5373787D02*
X13104090Y5373787D01*
X13104090Y5373787D02*
X12913614Y5421406D01*
X12913614Y5421406D02*
X12818376Y5469025D01*
X12818376Y5469025D02*
X12723138Y5564263D01*
X12723138Y5564263D02*
X12675519Y5707120D01*
X12675519Y5707120D02*
X12675519Y5802358D01*
X12675519Y5802358D02*
X12723138Y5945215D01*
X12723138Y5945215D02*
X12770757Y5992834D01*
X12675519Y6326168D02*
X12675519Y6992834D01*
X12675519Y6992834D02*
X13675519Y6564263D01*
X-4154467Y-16775600D02*
X-4202086Y-16823220D01*
X-4202086Y-16823220D02*
X-4344943Y-16870839D01*
X-4344943Y-16870839D02*
X-4440181Y-16870839D01*
X-4440181Y-16870839D02*
X-4583038Y-16823220D01*
X-4583038Y-16823220D02*
X-4678276Y-16727981D01*
X-4678276Y-16727981D02*
X-4725895Y-16632743D01*
X-4725895Y-16632743D02*
X-4773514Y-16442267D01*
X-4773514Y-16442267D02*
X-4773514Y-16299410D01*
X-4773514Y-16299410D02*
X-4725895Y-16108934D01*
X-4725895Y-16108934D02*
X-4678276Y-16013696D01*
X-4678276Y-16013696D02*
X-4583038Y-15918458D01*
X-4583038Y-15918458D02*
X-4440181Y-15870839D01*
X-4440181Y-15870839D02*
X-4344943Y-15870839D01*
X-4344943Y-15870839D02*
X-4202086Y-15918458D01*
X-4202086Y-15918458D02*
X-4154467Y-15966077D01*
X-3583038Y-16299410D02*
X-3678276Y-16251791D01*
X-3678276Y-16251791D02*
X-3725895Y-16204172D01*
X-3725895Y-16204172D02*
X-3773514Y-16108934D01*
X-3773514Y-16108934D02*
X-3773514Y-16061315D01*
X-3773514Y-16061315D02*
X-3725895Y-15966077D01*
X-3725895Y-15966077D02*
X-3678276Y-15918458D01*
X-3678276Y-15918458D02*
X-3583038Y-15870839D01*
X-3583038Y-15870839D02*
X-3392562Y-15870839D01*
X-3392562Y-15870839D02*
X-3297324Y-15918458D01*
X-3297324Y-15918458D02*
X-3249705Y-15966077D01*
X-3249705Y-15966077D02*
X-3202086Y-16061315D01*
X-3202086Y-16061315D02*
X-3202086Y-16108934D01*
X-3202086Y-16108934D02*
X-3249705Y-16204172D01*
X-3249705Y-16204172D02*
X-3297324Y-16251791D01*
X-3297324Y-16251791D02*
X-3392562Y-16299410D01*
X-3392562Y-16299410D02*
X-3583038Y-16299410D01*
X-3583038Y-16299410D02*
X-3678276Y-16347029D01*
X-3678276Y-16347029D02*
X-3725895Y-16394648D01*
X-3725895Y-16394648D02*
X-3773514Y-16489886D01*
X-3773514Y-16489886D02*
X-3773514Y-16680362D01*
X-3773514Y-16680362D02*
X-3725895Y-16775600D01*
X-3725895Y-16775600D02*
X-3678276Y-16823220D01*
X-3678276Y-16823220D02*
X-3583038Y-16870839D01*
X-3583038Y-16870839D02*
X-3392562Y-16870839D01*
X-3392562Y-16870839D02*
X-3297324Y-16823220D01*
X-3297324Y-16823220D02*
X-3249705Y-16775600D01*
X-3249705Y-16775600D02*
X-3202086Y-16680362D01*
X-3202086Y-16680362D02*
X-3202086Y-16489886D01*
X-3202086Y-16489886D02*
X-3249705Y-16394648D01*
X-3249705Y-16394648D02*
X-3297324Y-16347029D01*
X-3297324Y-16347029D02*
X-3392562Y-16299410D01*
X-6580167Y-20801500D02*
X-6627786Y-20849120D01*
X-6627786Y-20849120D02*
X-6770643Y-20896739D01*
X-6770643Y-20896739D02*
X-6865881Y-20896739D01*
X-6865881Y-20896739D02*
X-7008738Y-20849120D01*
X-7008738Y-20849120D02*
X-7103976Y-20753881D01*
X-7103976Y-20753881D02*
X-7151595Y-20658643D01*
X-7151595Y-20658643D02*
X-7199214Y-20468167D01*
X-7199214Y-20468167D02*
X-7199214Y-20325310D01*
X-7199214Y-20325310D02*
X-7151595Y-20134834D01*
X-7151595Y-20134834D02*
X-7103976Y-20039596D01*
X-7103976Y-20039596D02*
X-7008738Y-19944358D01*
X-7008738Y-19944358D02*
X-6865881Y-19896739D01*
X-6865881Y-19896739D02*
X-6770643Y-19896739D01*
X-6770643Y-19896739D02*
X-6627786Y-19944358D01*
X-6627786Y-19944358D02*
X-6580167Y-19991977D01*
X-6103976Y-20896739D02*
X-5913500Y-20896739D01*
X-5913500Y-20896739D02*
X-5818262Y-20849120D01*
X-5818262Y-20849120D02*
X-5770643Y-20801500D01*
X-5770643Y-20801500D02*
X-5675405Y-20658643D01*
X-5675405Y-20658643D02*
X-5627786Y-20468167D01*
X-5627786Y-20468167D02*
X-5627786Y-20087215D01*
X-5627786Y-20087215D02*
X-5675405Y-19991977D01*
X-5675405Y-19991977D02*
X-5723024Y-19944358D01*
X-5723024Y-19944358D02*
X-5818262Y-19896739D01*
X-5818262Y-19896739D02*
X-6008738Y-19896739D01*
X-6008738Y-19896739D02*
X-6103976Y-19944358D01*
X-6103976Y-19944358D02*
X-6151595Y-19991977D01*
X-6151595Y-19991977D02*
X-6199214Y-20087215D01*
X-6199214Y-20087215D02*
X-6199214Y-20325310D01*
X-6199214Y-20325310D02*
X-6151595Y-20420548D01*
X-6151595Y-20420548D02*
X-6103976Y-20468167D01*
X-6103976Y-20468167D02*
X-6008738Y-20515786D01*
X-6008738Y-20515786D02*
X-5818262Y-20515786D01*
X-5818262Y-20515786D02*
X-5723024Y-20468167D01*
X-5723024Y-20468167D02*
X-5675405Y-20420548D01*
X-5675405Y-20420548D02*
X-5627786Y-20325310D01*
X-13949918Y587840D02*
X-13997537Y540220D01*
X-13997537Y540220D02*
X-14140394Y492601D01*
X-14140394Y492601D02*
X-14235632Y492601D01*
X-14235632Y492601D02*
X-14378489Y540220D01*
X-14378489Y540220D02*
X-14473727Y635459D01*
X-14473727Y635459D02*
X-14521346Y730697D01*
X-14521346Y730697D02*
X-14568965Y921173D01*
X-14568965Y921173D02*
X-14568965Y1064030D01*
X-14568965Y1064030D02*
X-14521346Y1254506D01*
X-14521346Y1254506D02*
X-14473727Y1349744D01*
X-14473727Y1349744D02*
X-14378489Y1444982D01*
X-14378489Y1444982D02*
X-14235632Y1492601D01*
X-14235632Y1492601D02*
X-14140394Y1492601D01*
X-14140394Y1492601D02*
X-13997537Y1444982D01*
X-13997537Y1444982D02*
X-13949918Y1397363D01*
X-12997537Y492601D02*
X-13568965Y492601D01*
X-13283251Y492601D02*
X-13283251Y1492601D01*
X-13283251Y1492601D02*
X-13378489Y1349744D01*
X-13378489Y1349744D02*
X-13473727Y1254506D01*
X-13473727Y1254506D02*
X-13568965Y1206887D01*
X-12378489Y1492601D02*
X-12283251Y1492601D01*
X-12283251Y1492601D02*
X-12188013Y1444982D01*
X-12188013Y1444982D02*
X-12140394Y1397363D01*
X-12140394Y1397363D02*
X-12092775Y1302125D01*
X-12092775Y1302125D02*
X-12045156Y1111649D01*
X-12045156Y1111649D02*
X-12045156Y873554D01*
X-12045156Y873554D02*
X-12092775Y683078D01*
X-12092775Y683078D02*
X-12140394Y587840D01*
X-12140394Y587840D02*
X-12188013Y540220D01*
X-12188013Y540220D02*
X-12283251Y492601D01*
X-12283251Y492601D02*
X-12378489Y492601D01*
X-12378489Y492601D02*
X-12473727Y540220D01*
X-12473727Y540220D02*
X-12521346Y587840D01*
X-12521346Y587840D02*
X-12568965Y683078D01*
X-12568965Y683078D02*
X-12616584Y873554D01*
X-12616584Y873554D02*
X-12616584Y1111649D01*
X-12616584Y1111649D02*
X-12568965Y1302125D01*
X-12568965Y1302125D02*
X-12521346Y1397363D01*
X-12521346Y1397363D02*
X-12473727Y1444982D01*
X-12473727Y1444982D02*
X-12378489Y1492601D01*
X5185580Y-13850857D02*
X5233200Y-13898476D01*
X5233200Y-13898476D02*
X5280819Y-14041333D01*
X5280819Y-14041333D02*
X5280819Y-14136571D01*
X5280819Y-14136571D02*
X5233200Y-14279428D01*
X5233200Y-14279428D02*
X5137961Y-14374666D01*
X5137961Y-14374666D02*
X5042723Y-14422285D01*
X5042723Y-14422285D02*
X4852247Y-14469904D01*
X4852247Y-14469904D02*
X4709390Y-14469904D01*
X4709390Y-14469904D02*
X4518914Y-14422285D01*
X4518914Y-14422285D02*
X4423676Y-14374666D01*
X4423676Y-14374666D02*
X4328438Y-14279428D01*
X4328438Y-14279428D02*
X4280819Y-14136571D01*
X4280819Y-14136571D02*
X4280819Y-14041333D01*
X4280819Y-14041333D02*
X4328438Y-13898476D01*
X4328438Y-13898476D02*
X4376057Y-13850857D01*
X5280819Y-12898476D02*
X5280819Y-13469904D01*
X5280819Y-13184190D02*
X4280819Y-13184190D01*
X4280819Y-13184190D02*
X4423676Y-13279428D01*
X4423676Y-13279428D02*
X4518914Y-13374666D01*
X4518914Y-13374666D02*
X4566533Y-13469904D01*
X5280819Y-11946095D02*
X5280819Y-12517523D01*
X5280819Y-12231809D02*
X4280819Y-12231809D01*
X4280819Y-12231809D02*
X4423676Y-12327047D01*
X4423676Y-12327047D02*
X4518914Y-12422285D01*
X4518914Y-12422285D02*
X4566533Y-12517523D01*
X-12301458Y-18909200D02*
X-12349077Y-18956820D01*
X-12349077Y-18956820D02*
X-12491934Y-19004439D01*
X-12491934Y-19004439D02*
X-12587172Y-19004439D01*
X-12587172Y-19004439D02*
X-12730029Y-18956820D01*
X-12730029Y-18956820D02*
X-12825267Y-18861581D01*
X-12825267Y-18861581D02*
X-12872886Y-18766343D01*
X-12872886Y-18766343D02*
X-12920505Y-18575867D01*
X-12920505Y-18575867D02*
X-12920505Y-18433010D01*
X-12920505Y-18433010D02*
X-12872886Y-18242534D01*
X-12872886Y-18242534D02*
X-12825267Y-18147296D01*
X-12825267Y-18147296D02*
X-12730029Y-18052058D01*
X-12730029Y-18052058D02*
X-12587172Y-18004439D01*
X-12587172Y-18004439D02*
X-12491934Y-18004439D01*
X-12491934Y-18004439D02*
X-12349077Y-18052058D01*
X-12349077Y-18052058D02*
X-12301458Y-18099677D01*
X-11349077Y-19004439D02*
X-11920505Y-19004439D01*
X-11634791Y-19004439D02*
X-11634791Y-18004439D01*
X-11634791Y-18004439D02*
X-11730029Y-18147296D01*
X-11730029Y-18147296D02*
X-11825267Y-18242534D01*
X-11825267Y-18242534D02*
X-11920505Y-18290153D01*
X-10968124Y-18099677D02*
X-10920505Y-18052058D01*
X-10920505Y-18052058D02*
X-10825267Y-18004439D01*
X-10825267Y-18004439D02*
X-10587172Y-18004439D01*
X-10587172Y-18004439D02*
X-10491934Y-18052058D01*
X-10491934Y-18052058D02*
X-10444315Y-18099677D01*
X-10444315Y-18099677D02*
X-10396696Y-18194915D01*
X-10396696Y-18194915D02*
X-10396696Y-18290153D01*
X-10396696Y-18290153D02*
X-10444315Y-18433010D01*
X-10444315Y-18433010D02*
X-11015743Y-19004439D01*
X-11015743Y-19004439D02*
X-10396696Y-19004439D01*
X16361580Y-14612857D02*
X16409200Y-14660476D01*
X16409200Y-14660476D02*
X16456819Y-14803333D01*
X16456819Y-14803333D02*
X16456819Y-14898571D01*
X16456819Y-14898571D02*
X16409200Y-15041428D01*
X16409200Y-15041428D02*
X16313961Y-15136666D01*
X16313961Y-15136666D02*
X16218723Y-15184285D01*
X16218723Y-15184285D02*
X16028247Y-15231904D01*
X16028247Y-15231904D02*
X15885390Y-15231904D01*
X15885390Y-15231904D02*
X15694914Y-15184285D01*
X15694914Y-15184285D02*
X15599676Y-15136666D01*
X15599676Y-15136666D02*
X15504438Y-15041428D01*
X15504438Y-15041428D02*
X15456819Y-14898571D01*
X15456819Y-14898571D02*
X15456819Y-14803333D01*
X15456819Y-14803333D02*
X15504438Y-14660476D01*
X15504438Y-14660476D02*
X15552057Y-14612857D01*
X16456819Y-13660476D02*
X16456819Y-14231904D01*
X16456819Y-13946190D02*
X15456819Y-13946190D01*
X15456819Y-13946190D02*
X15599676Y-14041428D01*
X15599676Y-14041428D02*
X15694914Y-14136666D01*
X15694914Y-14136666D02*
X15742533Y-14231904D01*
X15790152Y-12803333D02*
X16456819Y-12803333D01*
X15409200Y-13041428D02*
X16123485Y-13279523D01*
X16123485Y-13279523D02*
X16123485Y-12660476D01*
X12132480Y-19001977D02*
X12180100Y-19049596D01*
X12180100Y-19049596D02*
X12227719Y-19192453D01*
X12227719Y-19192453D02*
X12227719Y-19287691D01*
X12227719Y-19287691D02*
X12180100Y-19430548D01*
X12180100Y-19430548D02*
X12084861Y-19525786D01*
X12084861Y-19525786D02*
X11989623Y-19573405D01*
X11989623Y-19573405D02*
X11799147Y-19621024D01*
X11799147Y-19621024D02*
X11656290Y-19621024D01*
X11656290Y-19621024D02*
X11465814Y-19573405D01*
X11465814Y-19573405D02*
X11370576Y-19525786D01*
X11370576Y-19525786D02*
X11275338Y-19430548D01*
X11275338Y-19430548D02*
X11227719Y-19287691D01*
X11227719Y-19287691D02*
X11227719Y-19192453D01*
X11227719Y-19192453D02*
X11275338Y-19049596D01*
X11275338Y-19049596D02*
X11322957Y-19001977D01*
X12227719Y-18049596D02*
X12227719Y-18621024D01*
X12227719Y-18335310D02*
X11227719Y-18335310D01*
X11227719Y-18335310D02*
X11370576Y-18430548D01*
X11370576Y-18430548D02*
X11465814Y-18525786D01*
X11465814Y-18525786D02*
X11513433Y-18621024D01*
X11227719Y-17192453D02*
X11227719Y-17382929D01*
X11227719Y-17382929D02*
X11275338Y-17478167D01*
X11275338Y-17478167D02*
X11322957Y-17525786D01*
X11322957Y-17525786D02*
X11465814Y-17621024D01*
X11465814Y-17621024D02*
X11656290Y-17668643D01*
X11656290Y-17668643D02*
X12037242Y-17668643D01*
X12037242Y-17668643D02*
X12132480Y-17621024D01*
X12132480Y-17621024D02*
X12180100Y-17573405D01*
X12180100Y-17573405D02*
X12227719Y-17478167D01*
X12227719Y-17478167D02*
X12227719Y-17287691D01*
X12227719Y-17287691D02*
X12180100Y-17192453D01*
X12180100Y-17192453D02*
X12132480Y-17144834D01*
X12132480Y-17144834D02*
X12037242Y-17097215D01*
X12037242Y-17097215D02*
X11799147Y-17097215D01*
X11799147Y-17097215D02*
X11703909Y-17144834D01*
X11703909Y-17144834D02*
X11656290Y-17192453D01*
X11656290Y-17192453D02*
X11608671Y-17287691D01*
X11608671Y-17287691D02*
X11608671Y-17478167D01*
X11608671Y-17478167D02*
X11656290Y-17573405D01*
X11656290Y-17573405D02*
X11703909Y-17621024D01*
X11703909Y-17621024D02*
X11799147Y-17668643D01*
X26559680Y-14379177D02*
X26607300Y-14426796D01*
X26607300Y-14426796D02*
X26654919Y-14569653D01*
X26654919Y-14569653D02*
X26654919Y-14664891D01*
X26654919Y-14664891D02*
X26607300Y-14807748D01*
X26607300Y-14807748D02*
X26512061Y-14902986D01*
X26512061Y-14902986D02*
X26416823Y-14950605D01*
X26416823Y-14950605D02*
X26226347Y-14998224D01*
X26226347Y-14998224D02*
X26083490Y-14998224D01*
X26083490Y-14998224D02*
X25893014Y-14950605D01*
X25893014Y-14950605D02*
X25797776Y-14902986D01*
X25797776Y-14902986D02*
X25702538Y-14807748D01*
X25702538Y-14807748D02*
X25654919Y-14664891D01*
X25654919Y-14664891D02*
X25654919Y-14569653D01*
X25654919Y-14569653D02*
X25702538Y-14426796D01*
X25702538Y-14426796D02*
X25750157Y-14379177D01*
X26654919Y-13426796D02*
X26654919Y-13998224D01*
X26654919Y-13712510D02*
X25654919Y-13712510D01*
X25654919Y-13712510D02*
X25797776Y-13807748D01*
X25797776Y-13807748D02*
X25893014Y-13902986D01*
X25893014Y-13902986D02*
X25940633Y-13998224D01*
X25654919Y-13093462D02*
X25654919Y-12426796D01*
X25654919Y-12426796D02*
X26654919Y-12855367D01*
X18507880Y-14607777D02*
X18555500Y-14655396D01*
X18555500Y-14655396D02*
X18603119Y-14798253D01*
X18603119Y-14798253D02*
X18603119Y-14893491D01*
X18603119Y-14893491D02*
X18555500Y-15036348D01*
X18555500Y-15036348D02*
X18460261Y-15131586D01*
X18460261Y-15131586D02*
X18365023Y-15179205D01*
X18365023Y-15179205D02*
X18174547Y-15226824D01*
X18174547Y-15226824D02*
X18031690Y-15226824D01*
X18031690Y-15226824D02*
X17841214Y-15179205D01*
X17841214Y-15179205D02*
X17745976Y-15131586D01*
X17745976Y-15131586D02*
X17650738Y-15036348D01*
X17650738Y-15036348D02*
X17603119Y-14893491D01*
X17603119Y-14893491D02*
X17603119Y-14798253D01*
X17603119Y-14798253D02*
X17650738Y-14655396D01*
X17650738Y-14655396D02*
X17698357Y-14607777D01*
X18603119Y-13655396D02*
X18603119Y-14226824D01*
X18603119Y-13941110D02*
X17603119Y-13941110D01*
X17603119Y-13941110D02*
X17745976Y-14036348D01*
X17745976Y-14036348D02*
X17841214Y-14131586D01*
X17841214Y-14131586D02*
X17888833Y-14226824D01*
X18031690Y-13083967D02*
X17984071Y-13179205D01*
X17984071Y-13179205D02*
X17936452Y-13226824D01*
X17936452Y-13226824D02*
X17841214Y-13274443D01*
X17841214Y-13274443D02*
X17793595Y-13274443D01*
X17793595Y-13274443D02*
X17698357Y-13226824D01*
X17698357Y-13226824D02*
X17650738Y-13179205D01*
X17650738Y-13179205D02*
X17603119Y-13083967D01*
X17603119Y-13083967D02*
X17603119Y-12893491D01*
X17603119Y-12893491D02*
X17650738Y-12798253D01*
X17650738Y-12798253D02*
X17698357Y-12750634D01*
X17698357Y-12750634D02*
X17793595Y-12703015D01*
X17793595Y-12703015D02*
X17841214Y-12703015D01*
X17841214Y-12703015D02*
X17936452Y-12750634D01*
X17936452Y-12750634D02*
X17984071Y-12798253D01*
X17984071Y-12798253D02*
X18031690Y-12893491D01*
X18031690Y-12893491D02*
X18031690Y-13083967D01*
X18031690Y-13083967D02*
X18079309Y-13179205D01*
X18079309Y-13179205D02*
X18126928Y-13226824D01*
X18126928Y-13226824D02*
X18222166Y-13274443D01*
X18222166Y-13274443D02*
X18412642Y-13274443D01*
X18412642Y-13274443D02*
X18507880Y-13226824D01*
X18507880Y-13226824D02*
X18555500Y-13179205D01*
X18555500Y-13179205D02*
X18603119Y-13083967D01*
X18603119Y-13083967D02*
X18603119Y-12893491D01*
X18603119Y-12893491D02*
X18555500Y-12798253D01*
X18555500Y-12798253D02*
X18507880Y-12750634D01*
X18507880Y-12750634D02*
X18412642Y-12703015D01*
X18412642Y-12703015D02*
X18222166Y-12703015D01*
X18222166Y-12703015D02*
X18126928Y-12750634D01*
X18126928Y-12750634D02*
X18079309Y-12798253D01*
X18079309Y-12798253D02*
X18031690Y-12893491D01*
X10952242Y21400600D02*
X10904623Y21352980D01*
X10904623Y21352980D02*
X10761766Y21305361D01*
X10761766Y21305361D02*
X10666528Y21305361D01*
X10666528Y21305361D02*
X10523671Y21352980D01*
X10523671Y21352980D02*
X10428433Y21448219D01*
X10428433Y21448219D02*
X10380814Y21543457D01*
X10380814Y21543457D02*
X10333195Y21733933D01*
X10333195Y21733933D02*
X10333195Y21876790D01*
X10333195Y21876790D02*
X10380814Y22067266D01*
X10380814Y22067266D02*
X10428433Y22162504D01*
X10428433Y22162504D02*
X10523671Y22257742D01*
X10523671Y22257742D02*
X10666528Y22305361D01*
X10666528Y22305361D02*
X10761766Y22305361D01*
X10761766Y22305361D02*
X10904623Y22257742D01*
X10904623Y22257742D02*
X10952242Y22210123D01*
X11904623Y21305361D02*
X11333195Y21305361D01*
X11618909Y21305361D02*
X11618909Y22305361D01*
X11618909Y22305361D02*
X11523671Y22162504D01*
X11523671Y22162504D02*
X11428433Y22067266D01*
X11428433Y22067266D02*
X11333195Y22019647D01*
X12380814Y21305361D02*
X12571290Y21305361D01*
X12571290Y21305361D02*
X12666528Y21352980D01*
X12666528Y21352980D02*
X12714147Y21400600D01*
X12714147Y21400600D02*
X12809385Y21543457D01*
X12809385Y21543457D02*
X12857004Y21733933D01*
X12857004Y21733933D02*
X12857004Y22114885D01*
X12857004Y22114885D02*
X12809385Y22210123D01*
X12809385Y22210123D02*
X12761766Y22257742D01*
X12761766Y22257742D02*
X12666528Y22305361D01*
X12666528Y22305361D02*
X12476052Y22305361D01*
X12476052Y22305361D02*
X12380814Y22257742D01*
X12380814Y22257742D02*
X12333195Y22210123D01*
X12333195Y22210123D02*
X12285576Y22114885D01*
X12285576Y22114885D02*
X12285576Y21876790D01*
X12285576Y21876790D02*
X12333195Y21781552D01*
X12333195Y21781552D02*
X12380814Y21733933D01*
X12380814Y21733933D02*
X12476052Y21686314D01*
X12476052Y21686314D02*
X12666528Y21686314D01*
X12666528Y21686314D02*
X12761766Y21733933D01*
X12761766Y21733933D02*
X12809385Y21781552D01*
X12809385Y21781552D02*
X12857004Y21876790D01*
X9054780Y18503723D02*
X9102400Y18456104D01*
X9102400Y18456104D02*
X9150019Y18313247D01*
X9150019Y18313247D02*
X9150019Y18218009D01*
X9150019Y18218009D02*
X9102400Y18075152D01*
X9102400Y18075152D02*
X9007161Y17979914D01*
X9007161Y17979914D02*
X8911923Y17932295D01*
X8911923Y17932295D02*
X8721447Y17884676D01*
X8721447Y17884676D02*
X8578590Y17884676D01*
X8578590Y17884676D02*
X8388114Y17932295D01*
X8388114Y17932295D02*
X8292876Y17979914D01*
X8292876Y17979914D02*
X8197638Y18075152D01*
X8197638Y18075152D02*
X8150019Y18218009D01*
X8150019Y18218009D02*
X8150019Y18313247D01*
X8150019Y18313247D02*
X8197638Y18456104D01*
X8197638Y18456104D02*
X8245257Y18503723D01*
X8245257Y18884676D02*
X8197638Y18932295D01*
X8197638Y18932295D02*
X8150019Y19027533D01*
X8150019Y19027533D02*
X8150019Y19265628D01*
X8150019Y19265628D02*
X8197638Y19360866D01*
X8197638Y19360866D02*
X8245257Y19408485D01*
X8245257Y19408485D02*
X8340495Y19456104D01*
X8340495Y19456104D02*
X8435733Y19456104D01*
X8435733Y19456104D02*
X8578590Y19408485D01*
X8578590Y19408485D02*
X9150019Y18837057D01*
X9150019Y18837057D02*
X9150019Y19456104D01*
X8150019Y20075152D02*
X8150019Y20170390D01*
X8150019Y20170390D02*
X8197638Y20265628D01*
X8197638Y20265628D02*
X8245257Y20313247D01*
X8245257Y20313247D02*
X8340495Y20360866D01*
X8340495Y20360866D02*
X8530971Y20408485D01*
X8530971Y20408485D02*
X8769066Y20408485D01*
X8769066Y20408485D02*
X8959542Y20360866D01*
X8959542Y20360866D02*
X9054780Y20313247D01*
X9054780Y20313247D02*
X9102400Y20265628D01*
X9102400Y20265628D02*
X9150019Y20170390D01*
X9150019Y20170390D02*
X9150019Y20075152D01*
X9150019Y20075152D02*
X9102400Y19979914D01*
X9102400Y19979914D02*
X9054780Y19932295D01*
X9054780Y19932295D02*
X8959542Y19884676D01*
X8959542Y19884676D02*
X8769066Y19837057D01*
X8769066Y19837057D02*
X8530971Y19837057D01*
X8530971Y19837057D02*
X8340495Y19884676D01*
X8340495Y19884676D02*
X8245257Y19932295D01*
X8245257Y19932295D02*
X8197638Y19979914D01*
X8197638Y19979914D02*
X8150019Y20075152D01*
X6113542Y21019600D02*
X6065923Y20971980D01*
X6065923Y20971980D02*
X5923066Y20924361D01*
X5923066Y20924361D02*
X5827828Y20924361D01*
X5827828Y20924361D02*
X5684971Y20971980D01*
X5684971Y20971980D02*
X5589733Y21067219D01*
X5589733Y21067219D02*
X5542114Y21162457D01*
X5542114Y21162457D02*
X5494495Y21352933D01*
X5494495Y21352933D02*
X5494495Y21495790D01*
X5494495Y21495790D02*
X5542114Y21686266D01*
X5542114Y21686266D02*
X5589733Y21781504D01*
X5589733Y21781504D02*
X5684971Y21876742D01*
X5684971Y21876742D02*
X5827828Y21924361D01*
X5827828Y21924361D02*
X5923066Y21924361D01*
X5923066Y21924361D02*
X6065923Y21876742D01*
X6065923Y21876742D02*
X6113542Y21829123D01*
X6494495Y21829123D02*
X6542114Y21876742D01*
X6542114Y21876742D02*
X6637352Y21924361D01*
X6637352Y21924361D02*
X6875447Y21924361D01*
X6875447Y21924361D02*
X6970685Y21876742D01*
X6970685Y21876742D02*
X7018304Y21829123D01*
X7018304Y21829123D02*
X7065923Y21733885D01*
X7065923Y21733885D02*
X7065923Y21638647D01*
X7065923Y21638647D02*
X7018304Y21495790D01*
X7018304Y21495790D02*
X6446876Y20924361D01*
X6446876Y20924361D02*
X7065923Y20924361D01*
X8018304Y20924361D02*
X7446876Y20924361D01*
X7732590Y20924361D02*
X7732590Y21924361D01*
X7732590Y21924361D02*
X7637352Y21781504D01*
X7637352Y21781504D02*
X7542114Y21686266D01*
X7542114Y21686266D02*
X7446876Y21638647D01*
X4691142Y13864420D02*
X4643523Y13816800D01*
X4643523Y13816800D02*
X4500666Y13769181D01*
X4500666Y13769181D02*
X4405428Y13769181D01*
X4405428Y13769181D02*
X4262571Y13816800D01*
X4262571Y13816800D02*
X4167333Y13912039D01*
X4167333Y13912039D02*
X4119714Y14007277D01*
X4119714Y14007277D02*
X4072095Y14197753D01*
X4072095Y14197753D02*
X4072095Y14340610D01*
X4072095Y14340610D02*
X4119714Y14531086D01*
X4119714Y14531086D02*
X4167333Y14626324D01*
X4167333Y14626324D02*
X4262571Y14721562D01*
X4262571Y14721562D02*
X4405428Y14769181D01*
X4405428Y14769181D02*
X4500666Y14769181D01*
X4500666Y14769181D02*
X4643523Y14721562D01*
X4643523Y14721562D02*
X4691142Y14673943D01*
X5072095Y14673943D02*
X5119714Y14721562D01*
X5119714Y14721562D02*
X5214952Y14769181D01*
X5214952Y14769181D02*
X5453047Y14769181D01*
X5453047Y14769181D02*
X5548285Y14721562D01*
X5548285Y14721562D02*
X5595904Y14673943D01*
X5595904Y14673943D02*
X5643523Y14578705D01*
X5643523Y14578705D02*
X5643523Y14483467D01*
X5643523Y14483467D02*
X5595904Y14340610D01*
X5595904Y14340610D02*
X5024476Y13769181D01*
X5024476Y13769181D02*
X5643523Y13769181D01*
X6024476Y14673943D02*
X6072095Y14721562D01*
X6072095Y14721562D02*
X6167333Y14769181D01*
X6167333Y14769181D02*
X6405428Y14769181D01*
X6405428Y14769181D02*
X6500666Y14721562D01*
X6500666Y14721562D02*
X6548285Y14673943D01*
X6548285Y14673943D02*
X6595904Y14578705D01*
X6595904Y14578705D02*
X6595904Y14483467D01*
X6595904Y14483467D02*
X6548285Y14340610D01*
X6548285Y14340610D02*
X5976857Y13769181D01*
X5976857Y13769181D02*
X6595904Y13769181D01*
X-10663158Y18784400D02*
X-10710777Y18736780D01*
X-10710777Y18736780D02*
X-10853634Y18689161D01*
X-10853634Y18689161D02*
X-10948872Y18689161D01*
X-10948872Y18689161D02*
X-11091729Y18736780D01*
X-11091729Y18736780D02*
X-11186967Y18832019D01*
X-11186967Y18832019D02*
X-11234586Y18927257D01*
X-11234586Y18927257D02*
X-11282205Y19117733D01*
X-11282205Y19117733D02*
X-11282205Y19260590D01*
X-11282205Y19260590D02*
X-11234586Y19451066D01*
X-11234586Y19451066D02*
X-11186967Y19546304D01*
X-11186967Y19546304D02*
X-11091729Y19641542D01*
X-11091729Y19641542D02*
X-10948872Y19689161D01*
X-10948872Y19689161D02*
X-10853634Y19689161D01*
X-10853634Y19689161D02*
X-10710777Y19641542D01*
X-10710777Y19641542D02*
X-10663158Y19593923D01*
X-10282205Y19593923D02*
X-10234586Y19641542D01*
X-10234586Y19641542D02*
X-10139348Y19689161D01*
X-10139348Y19689161D02*
X-9901253Y19689161D01*
X-9901253Y19689161D02*
X-9806015Y19641542D01*
X-9806015Y19641542D02*
X-9758396Y19593923D01*
X-9758396Y19593923D02*
X-9710777Y19498685D01*
X-9710777Y19498685D02*
X-9710777Y19403447D01*
X-9710777Y19403447D02*
X-9758396Y19260590D01*
X-9758396Y19260590D02*
X-10329824Y18689161D01*
X-10329824Y18689161D02*
X-9710777Y18689161D01*
X-9377443Y19689161D02*
X-8758396Y19689161D01*
X-8758396Y19689161D02*
X-9091729Y19308209D01*
X-9091729Y19308209D02*
X-8948872Y19308209D01*
X-8948872Y19308209D02*
X-8853634Y19260590D01*
X-8853634Y19260590D02*
X-8806015Y19212971D01*
X-8806015Y19212971D02*
X-8758396Y19117733D01*
X-8758396Y19117733D02*
X-8758396Y18879638D01*
X-8758396Y18879638D02*
X-8806015Y18784400D01*
X-8806015Y18784400D02*
X-8853634Y18736780D01*
X-8853634Y18736780D02*
X-8948872Y18689161D01*
X-8948872Y18689161D02*
X-9234586Y18689161D01*
X-9234586Y18689161D02*
X-9329824Y18736780D01*
X-9329824Y18736780D02*
X-9377443Y18784400D01*
X-148420Y13581143D02*
X-100800Y13533524D01*
X-100800Y13533524D02*
X-53181Y13390667D01*
X-53181Y13390667D02*
X-53181Y13295429D01*
X-53181Y13295429D02*
X-100800Y13152572D01*
X-100800Y13152572D02*
X-196039Y13057334D01*
X-196039Y13057334D02*
X-291277Y13009715D01*
X-291277Y13009715D02*
X-481753Y12962096D01*
X-481753Y12962096D02*
X-624610Y12962096D01*
X-624610Y12962096D02*
X-815086Y13009715D01*
X-815086Y13009715D02*
X-910324Y13057334D01*
X-910324Y13057334D02*
X-1005562Y13152572D01*
X-1005562Y13152572D02*
X-1053181Y13295429D01*
X-1053181Y13295429D02*
X-1053181Y13390667D01*
X-1053181Y13390667D02*
X-1005562Y13533524D01*
X-1005562Y13533524D02*
X-957943Y13581143D01*
X-957943Y13962096D02*
X-1005562Y14009715D01*
X-1005562Y14009715D02*
X-1053181Y14104953D01*
X-1053181Y14104953D02*
X-1053181Y14343048D01*
X-1053181Y14343048D02*
X-1005562Y14438286D01*
X-1005562Y14438286D02*
X-957943Y14485905D01*
X-957943Y14485905D02*
X-862705Y14533524D01*
X-862705Y14533524D02*
X-767467Y14533524D01*
X-767467Y14533524D02*
X-624610Y14485905D01*
X-624610Y14485905D02*
X-53181Y13914477D01*
X-53181Y13914477D02*
X-53181Y14533524D01*
X-719848Y15390667D02*
X-53181Y15390667D01*
X-1100800Y15152572D02*
X-386515Y14914477D01*
X-386515Y14914477D02*
X-386515Y15533524D01*
X18139580Y12311143D02*
X18187200Y12263524D01*
X18187200Y12263524D02*
X18234819Y12120667D01*
X18234819Y12120667D02*
X18234819Y12025429D01*
X18234819Y12025429D02*
X18187200Y11882572D01*
X18187200Y11882572D02*
X18091961Y11787334D01*
X18091961Y11787334D02*
X17996723Y11739715D01*
X17996723Y11739715D02*
X17806247Y11692096D01*
X17806247Y11692096D02*
X17663390Y11692096D01*
X17663390Y11692096D02*
X17472914Y11739715D01*
X17472914Y11739715D02*
X17377676Y11787334D01*
X17377676Y11787334D02*
X17282438Y11882572D01*
X17282438Y11882572D02*
X17234819Y12025429D01*
X17234819Y12025429D02*
X17234819Y12120667D01*
X17234819Y12120667D02*
X17282438Y12263524D01*
X17282438Y12263524D02*
X17330057Y12311143D01*
X17330057Y12692096D02*
X17282438Y12739715D01*
X17282438Y12739715D02*
X17234819Y12834953D01*
X17234819Y12834953D02*
X17234819Y13073048D01*
X17234819Y13073048D02*
X17282438Y13168286D01*
X17282438Y13168286D02*
X17330057Y13215905D01*
X17330057Y13215905D02*
X17425295Y13263524D01*
X17425295Y13263524D02*
X17520533Y13263524D01*
X17520533Y13263524D02*
X17663390Y13215905D01*
X17663390Y13215905D02*
X18234819Y12644477D01*
X18234819Y12644477D02*
X18234819Y13263524D01*
X17234819Y14168286D02*
X17234819Y13692096D01*
X17234819Y13692096D02*
X17711009Y13644477D01*
X17711009Y13644477D02*
X17663390Y13692096D01*
X17663390Y13692096D02*
X17615771Y13787334D01*
X17615771Y13787334D02*
X17615771Y14025429D01*
X17615771Y14025429D02*
X17663390Y14120667D01*
X17663390Y14120667D02*
X17711009Y14168286D01*
X17711009Y14168286D02*
X17806247Y14215905D01*
X17806247Y14215905D02*
X18044342Y14215905D01*
X18044342Y14215905D02*
X18139580Y14168286D01*
X18139580Y14168286D02*
X18187200Y14120667D01*
X18187200Y14120667D02*
X18234819Y14025429D01*
X18234819Y14025429D02*
X18234819Y13787334D01*
X18234819Y13787334D02*
X18187200Y13692096D01*
X18187200Y13692096D02*
X18139580Y13644477D01*
X20933580Y6469143D02*
X20981200Y6421524D01*
X20981200Y6421524D02*
X21028819Y6278667D01*
X21028819Y6278667D02*
X21028819Y6183429D01*
X21028819Y6183429D02*
X20981200Y6040572D01*
X20981200Y6040572D02*
X20885961Y5945334D01*
X20885961Y5945334D02*
X20790723Y5897715D01*
X20790723Y5897715D02*
X20600247Y5850096D01*
X20600247Y5850096D02*
X20457390Y5850096D01*
X20457390Y5850096D02*
X20266914Y5897715D01*
X20266914Y5897715D02*
X20171676Y5945334D01*
X20171676Y5945334D02*
X20076438Y6040572D01*
X20076438Y6040572D02*
X20028819Y6183429D01*
X20028819Y6183429D02*
X20028819Y6278667D01*
X20028819Y6278667D02*
X20076438Y6421524D01*
X20076438Y6421524D02*
X20124057Y6469143D01*
X20124057Y6850096D02*
X20076438Y6897715D01*
X20076438Y6897715D02*
X20028819Y6992953D01*
X20028819Y6992953D02*
X20028819Y7231048D01*
X20028819Y7231048D02*
X20076438Y7326286D01*
X20076438Y7326286D02*
X20124057Y7373905D01*
X20124057Y7373905D02*
X20219295Y7421524D01*
X20219295Y7421524D02*
X20314533Y7421524D01*
X20314533Y7421524D02*
X20457390Y7373905D01*
X20457390Y7373905D02*
X21028819Y6802477D01*
X21028819Y6802477D02*
X21028819Y7421524D01*
X20028819Y8278667D02*
X20028819Y8088191D01*
X20028819Y8088191D02*
X20076438Y7992953D01*
X20076438Y7992953D02*
X20124057Y7945334D01*
X20124057Y7945334D02*
X20266914Y7850096D01*
X20266914Y7850096D02*
X20457390Y7802477D01*
X20457390Y7802477D02*
X20838342Y7802477D01*
X20838342Y7802477D02*
X20933580Y7850096D01*
X20933580Y7850096D02*
X20981200Y7897715D01*
X20981200Y7897715D02*
X21028819Y7992953D01*
X21028819Y7992953D02*
X21028819Y8183429D01*
X21028819Y8183429D02*
X20981200Y8278667D01*
X20981200Y8278667D02*
X20933580Y8326286D01*
X20933580Y8326286D02*
X20838342Y8373905D01*
X20838342Y8373905D02*
X20600247Y8373905D01*
X20600247Y8373905D02*
X20505009Y8326286D01*
X20505009Y8326286D02*
X20457390Y8278667D01*
X20457390Y8278667D02*
X20409771Y8183429D01*
X20409771Y8183429D02*
X20409771Y7992953D01*
X20409771Y7992953D02*
X20457390Y7897715D01*
X20457390Y7897715D02*
X20505009Y7850096D01*
X20505009Y7850096D02*
X20600247Y7802477D01*
X27994780Y7807723D02*
X28042400Y7760104D01*
X28042400Y7760104D02*
X28090019Y7617247D01*
X28090019Y7617247D02*
X28090019Y7522009D01*
X28090019Y7522009D02*
X28042400Y7379152D01*
X28042400Y7379152D02*
X27947161Y7283914D01*
X27947161Y7283914D02*
X27851923Y7236295D01*
X27851923Y7236295D02*
X27661447Y7188676D01*
X27661447Y7188676D02*
X27518590Y7188676D01*
X27518590Y7188676D02*
X27328114Y7236295D01*
X27328114Y7236295D02*
X27232876Y7283914D01*
X27232876Y7283914D02*
X27137638Y7379152D01*
X27137638Y7379152D02*
X27090019Y7522009D01*
X27090019Y7522009D02*
X27090019Y7617247D01*
X27090019Y7617247D02*
X27137638Y7760104D01*
X27137638Y7760104D02*
X27185257Y7807723D01*
X27185257Y8188676D02*
X27137638Y8236295D01*
X27137638Y8236295D02*
X27090019Y8331533D01*
X27090019Y8331533D02*
X27090019Y8569628D01*
X27090019Y8569628D02*
X27137638Y8664866D01*
X27137638Y8664866D02*
X27185257Y8712485D01*
X27185257Y8712485D02*
X27280495Y8760104D01*
X27280495Y8760104D02*
X27375733Y8760104D01*
X27375733Y8760104D02*
X27518590Y8712485D01*
X27518590Y8712485D02*
X28090019Y8141057D01*
X28090019Y8141057D02*
X28090019Y8760104D01*
X27090019Y9093438D02*
X27090019Y9760104D01*
X27090019Y9760104D02*
X28090019Y9331533D01*
X24058642Y6719400D02*
X24011023Y6671780D01*
X24011023Y6671780D02*
X23868166Y6624161D01*
X23868166Y6624161D02*
X23772928Y6624161D01*
X23772928Y6624161D02*
X23630071Y6671780D01*
X23630071Y6671780D02*
X23534833Y6767019D01*
X23534833Y6767019D02*
X23487214Y6862257D01*
X23487214Y6862257D02*
X23439595Y7052733D01*
X23439595Y7052733D02*
X23439595Y7195590D01*
X23439595Y7195590D02*
X23487214Y7386066D01*
X23487214Y7386066D02*
X23534833Y7481304D01*
X23534833Y7481304D02*
X23630071Y7576542D01*
X23630071Y7576542D02*
X23772928Y7624161D01*
X23772928Y7624161D02*
X23868166Y7624161D01*
X23868166Y7624161D02*
X24011023Y7576542D01*
X24011023Y7576542D02*
X24058642Y7528923D01*
X24439595Y7528923D02*
X24487214Y7576542D01*
X24487214Y7576542D02*
X24582452Y7624161D01*
X24582452Y7624161D02*
X24820547Y7624161D01*
X24820547Y7624161D02*
X24915785Y7576542D01*
X24915785Y7576542D02*
X24963404Y7528923D01*
X24963404Y7528923D02*
X25011023Y7433685D01*
X25011023Y7433685D02*
X25011023Y7338447D01*
X25011023Y7338447D02*
X24963404Y7195590D01*
X24963404Y7195590D02*
X24391976Y6624161D01*
X24391976Y6624161D02*
X25011023Y6624161D01*
X25582452Y7195590D02*
X25487214Y7243209D01*
X25487214Y7243209D02*
X25439595Y7290828D01*
X25439595Y7290828D02*
X25391976Y7386066D01*
X25391976Y7386066D02*
X25391976Y7433685D01*
X25391976Y7433685D02*
X25439595Y7528923D01*
X25439595Y7528923D02*
X25487214Y7576542D01*
X25487214Y7576542D02*
X25582452Y7624161D01*
X25582452Y7624161D02*
X25772928Y7624161D01*
X25772928Y7624161D02*
X25868166Y7576542D01*
X25868166Y7576542D02*
X25915785Y7528923D01*
X25915785Y7528923D02*
X25963404Y7433685D01*
X25963404Y7433685D02*
X25963404Y7386066D01*
X25963404Y7386066D02*
X25915785Y7290828D01*
X25915785Y7290828D02*
X25868166Y7243209D01*
X25868166Y7243209D02*
X25772928Y7195590D01*
X25772928Y7195590D02*
X25582452Y7195590D01*
X25582452Y7195590D02*
X25487214Y7147971D01*
X25487214Y7147971D02*
X25439595Y7100352D01*
X25439595Y7100352D02*
X25391976Y7005114D01*
X25391976Y7005114D02*
X25391976Y6814638D01*
X25391976Y6814638D02*
X25439595Y6719400D01*
X25439595Y6719400D02*
X25487214Y6671780D01*
X25487214Y6671780D02*
X25582452Y6624161D01*
X25582452Y6624161D02*
X25772928Y6624161D01*
X25772928Y6624161D02*
X25868166Y6671780D01*
X25868166Y6671780D02*
X25915785Y6719400D01*
X25915785Y6719400D02*
X25963404Y6814638D01*
X25963404Y6814638D02*
X25963404Y7005114D01*
X25963404Y7005114D02*
X25915785Y7100352D01*
X25915785Y7100352D02*
X25868166Y7147971D01*
X25868166Y7147971D02*
X25772928Y7195590D01*
X21992780Y-7178277D02*
X22040400Y-7225896D01*
X22040400Y-7225896D02*
X22088019Y-7368753D01*
X22088019Y-7368753D02*
X22088019Y-7463991D01*
X22088019Y-7463991D02*
X22040400Y-7606848D01*
X22040400Y-7606848D02*
X21945161Y-7702086D01*
X21945161Y-7702086D02*
X21849923Y-7749705D01*
X21849923Y-7749705D02*
X21659447Y-7797324D01*
X21659447Y-7797324D02*
X21516590Y-7797324D01*
X21516590Y-7797324D02*
X21326114Y-7749705D01*
X21326114Y-7749705D02*
X21230876Y-7702086D01*
X21230876Y-7702086D02*
X21135638Y-7606848D01*
X21135638Y-7606848D02*
X21088019Y-7463991D01*
X21088019Y-7463991D02*
X21088019Y-7368753D01*
X21088019Y-7368753D02*
X21135638Y-7225896D01*
X21135638Y-7225896D02*
X21183257Y-7178277D01*
X21183257Y-6797324D02*
X21135638Y-6749705D01*
X21135638Y-6749705D02*
X21088019Y-6654467D01*
X21088019Y-6654467D02*
X21088019Y-6416372D01*
X21088019Y-6416372D02*
X21135638Y-6321134D01*
X21135638Y-6321134D02*
X21183257Y-6273515D01*
X21183257Y-6273515D02*
X21278495Y-6225896D01*
X21278495Y-6225896D02*
X21373733Y-6225896D01*
X21373733Y-6225896D02*
X21516590Y-6273515D01*
X21516590Y-6273515D02*
X22088019Y-6844943D01*
X22088019Y-6844943D02*
X22088019Y-6225896D01*
X22088019Y-5749705D02*
X22088019Y-5559229D01*
X22088019Y-5559229D02*
X22040400Y-5463991D01*
X22040400Y-5463991D02*
X21992780Y-5416372D01*
X21992780Y-5416372D02*
X21849923Y-5321134D01*
X21849923Y-5321134D02*
X21659447Y-5273515D01*
X21659447Y-5273515D02*
X21278495Y-5273515D01*
X21278495Y-5273515D02*
X21183257Y-5321134D01*
X21183257Y-5321134D02*
X21135638Y-5368753D01*
X21135638Y-5368753D02*
X21088019Y-5463991D01*
X21088019Y-5463991D02*
X21088019Y-5654467D01*
X21088019Y-5654467D02*
X21135638Y-5749705D01*
X21135638Y-5749705D02*
X21183257Y-5797324D01*
X21183257Y-5797324D02*
X21278495Y-5844943D01*
X21278495Y-5844943D02*
X21516590Y-5844943D01*
X21516590Y-5844943D02*
X21611828Y-5797324D01*
X21611828Y-5797324D02*
X21659447Y-5749705D01*
X21659447Y-5749705D02*
X21707066Y-5654467D01*
X21707066Y-5654467D02*
X21707066Y-5463991D01*
X21707066Y-5463991D02*
X21659447Y-5368753D01*
X21659447Y-5368753D02*
X21611828Y-5321134D01*
X21611828Y-5321134D02*
X21516590Y-5273515D01*
X1897142Y-19912500D02*
X1849523Y-19960120D01*
X1849523Y-19960120D02*
X1706666Y-20007739D01*
X1706666Y-20007739D02*
X1611428Y-20007739D01*
X1611428Y-20007739D02*
X1468571Y-19960120D01*
X1468571Y-19960120D02*
X1373333Y-19864881D01*
X1373333Y-19864881D02*
X1325714Y-19769643D01*
X1325714Y-19769643D02*
X1278095Y-19579167D01*
X1278095Y-19579167D02*
X1278095Y-19436310D01*
X1278095Y-19436310D02*
X1325714Y-19245834D01*
X1325714Y-19245834D02*
X1373333Y-19150596D01*
X1373333Y-19150596D02*
X1468571Y-19055358D01*
X1468571Y-19055358D02*
X1611428Y-19007739D01*
X1611428Y-19007739D02*
X1706666Y-19007739D01*
X1706666Y-19007739D02*
X1849523Y-19055358D01*
X1849523Y-19055358D02*
X1897142Y-19102977D01*
X2230476Y-19007739D02*
X2849523Y-19007739D01*
X2849523Y-19007739D02*
X2516190Y-19388691D01*
X2516190Y-19388691D02*
X2659047Y-19388691D01*
X2659047Y-19388691D02*
X2754285Y-19436310D01*
X2754285Y-19436310D02*
X2801904Y-19483929D01*
X2801904Y-19483929D02*
X2849523Y-19579167D01*
X2849523Y-19579167D02*
X2849523Y-19817262D01*
X2849523Y-19817262D02*
X2801904Y-19912500D01*
X2801904Y-19912500D02*
X2754285Y-19960120D01*
X2754285Y-19960120D02*
X2659047Y-20007739D01*
X2659047Y-20007739D02*
X2373333Y-20007739D01*
X2373333Y-20007739D02*
X2278095Y-19960120D01*
X2278095Y-19960120D02*
X2230476Y-19912500D01*
X3468571Y-19007739D02*
X3563809Y-19007739D01*
X3563809Y-19007739D02*
X3659047Y-19055358D01*
X3659047Y-19055358D02*
X3706666Y-19102977D01*
X3706666Y-19102977D02*
X3754285Y-19198215D01*
X3754285Y-19198215D02*
X3801904Y-19388691D01*
X3801904Y-19388691D02*
X3801904Y-19626786D01*
X3801904Y-19626786D02*
X3754285Y-19817262D01*
X3754285Y-19817262D02*
X3706666Y-19912500D01*
X3706666Y-19912500D02*
X3659047Y-19960120D01*
X3659047Y-19960120D02*
X3563809Y-20007739D01*
X3563809Y-20007739D02*
X3468571Y-20007739D01*
X3468571Y-20007739D02*
X3373333Y-19960120D01*
X3373333Y-19960120D02*
X3325714Y-19912500D01*
X3325714Y-19912500D02*
X3278095Y-19817262D01*
X3278095Y-19817262D02*
X3230476Y-19626786D01*
X3230476Y-19626786D02*
X3230476Y-19388691D01*
X3230476Y-19388691D02*
X3278095Y-19198215D01*
X3278095Y-19198215D02*
X3325714Y-19102977D01*
X3325714Y-19102977D02*
X3373333Y-19055358D01*
X3373333Y-19055358D02*
X3468571Y-19007739D01*
X15517905Y-12392819D02*
X15517905Y-11392819D01*
X15517905Y-11392819D02*
X15756000Y-11392819D01*
X15756000Y-11392819D02*
X15898857Y-11440438D01*
X15898857Y-11440438D02*
X15994095Y-11535676D01*
X15994095Y-11535676D02*
X16041714Y-11630914D01*
X16041714Y-11630914D02*
X16089333Y-11821390D01*
X16089333Y-11821390D02*
X16089333Y-11964247D01*
X16089333Y-11964247D02*
X16041714Y-12154723D01*
X16041714Y-12154723D02*
X15994095Y-12249961D01*
X15994095Y-12249961D02*
X15898857Y-12345200D01*
X15898857Y-12345200D02*
X15756000Y-12392819D01*
X15756000Y-12392819D02*
X15517905Y-12392819D01*
X16470286Y-11488057D02*
X16517905Y-11440438D01*
X16517905Y-11440438D02*
X16613143Y-11392819D01*
X16613143Y-11392819D02*
X16851238Y-11392819D01*
X16851238Y-11392819D02*
X16946476Y-11440438D01*
X16946476Y-11440438D02*
X16994095Y-11488057D01*
X16994095Y-11488057D02*
X17041714Y-11583295D01*
X17041714Y-11583295D02*
X17041714Y-11678533D01*
X17041714Y-11678533D02*
X16994095Y-11821390D01*
X16994095Y-11821390D02*
X16422667Y-12392819D01*
X16422667Y-12392819D02*
X17041714Y-12392819D01*
X-6936581Y22418986D02*
X-7936581Y22418986D01*
X-7936581Y22418986D02*
X-7936581Y22657081D01*
X-7936581Y22657081D02*
X-7888962Y22799938D01*
X-7888962Y22799938D02*
X-7793724Y22895176D01*
X-7793724Y22895176D02*
X-7698486Y22942795D01*
X-7698486Y22942795D02*
X-7508010Y22990414D01*
X-7508010Y22990414D02*
X-7365153Y22990414D01*
X-7365153Y22990414D02*
X-7174677Y22942795D01*
X-7174677Y22942795D02*
X-7079439Y22895176D01*
X-7079439Y22895176D02*
X-6984200Y22799938D01*
X-6984200Y22799938D02*
X-6936581Y22657081D01*
X-6936581Y22657081D02*
X-6936581Y22418986D01*
X-7936581Y23323748D02*
X-7936581Y23942795D01*
X-7936581Y23942795D02*
X-7555629Y23609462D01*
X-7555629Y23609462D02*
X-7555629Y23752319D01*
X-7555629Y23752319D02*
X-7508010Y23847557D01*
X-7508010Y23847557D02*
X-7460391Y23895176D01*
X-7460391Y23895176D02*
X-7365153Y23942795D01*
X-7365153Y23942795D02*
X-7127058Y23942795D01*
X-7127058Y23942795D02*
X-7031820Y23895176D01*
X-7031820Y23895176D02*
X-6984200Y23847557D01*
X-6984200Y23847557D02*
X-6936581Y23752319D01*
X-6936581Y23752319D02*
X-6936581Y23466605D01*
X-6936581Y23466605D02*
X-6984200Y23371367D01*
X-6984200Y23371367D02*
X-7031820Y23323748D01*
X6259605Y22727761D02*
X6259605Y23727761D01*
X6259605Y23727761D02*
X6497700Y23727761D01*
X6497700Y23727761D02*
X6640557Y23680142D01*
X6640557Y23680142D02*
X6735795Y23584904D01*
X6735795Y23584904D02*
X6783414Y23489666D01*
X6783414Y23489666D02*
X6831033Y23299190D01*
X6831033Y23299190D02*
X6831033Y23156333D01*
X6831033Y23156333D02*
X6783414Y22965857D01*
X6783414Y22965857D02*
X6735795Y22870619D01*
X6735795Y22870619D02*
X6640557Y22775380D01*
X6640557Y22775380D02*
X6497700Y22727761D01*
X6497700Y22727761D02*
X6259605Y22727761D01*
X7688176Y23394428D02*
X7688176Y22727761D01*
X7450081Y23775380D02*
X7211986Y23061095D01*
X7211986Y23061095D02*
X7831033Y23061095D01*
X-13298395Y20175061D02*
X-13298395Y21175061D01*
X-13298395Y21175061D02*
X-13060300Y21175061D01*
X-13060300Y21175061D02*
X-12917443Y21127442D01*
X-12917443Y21127442D02*
X-12822205Y21032204D01*
X-12822205Y21032204D02*
X-12774586Y20936966D01*
X-12774586Y20936966D02*
X-12726967Y20746490D01*
X-12726967Y20746490D02*
X-12726967Y20603633D01*
X-12726967Y20603633D02*
X-12774586Y20413157D01*
X-12774586Y20413157D02*
X-12822205Y20317919D01*
X-12822205Y20317919D02*
X-12917443Y20222680D01*
X-12917443Y20222680D02*
X-13060300Y20175061D01*
X-13060300Y20175061D02*
X-13298395Y20175061D01*
X-11822205Y21175061D02*
X-12298395Y21175061D01*
X-12298395Y21175061D02*
X-12346014Y20698871D01*
X-12346014Y20698871D02*
X-12298395Y20746490D01*
X-12298395Y20746490D02*
X-12203157Y20794109D01*
X-12203157Y20794109D02*
X-11965062Y20794109D01*
X-11965062Y20794109D02*
X-11869824Y20746490D01*
X-11869824Y20746490D02*
X-11822205Y20698871D01*
X-11822205Y20698871D02*
X-11774586Y20603633D01*
X-11774586Y20603633D02*
X-11774586Y20365538D01*
X-11774586Y20365538D02*
X-11822205Y20270300D01*
X-11822205Y20270300D02*
X-11869824Y20222680D01*
X-11869824Y20222680D02*
X-11965062Y20175061D01*
X-11965062Y20175061D02*
X-12203157Y20175061D01*
X-12203157Y20175061D02*
X-12298395Y20222680D01*
X-12298395Y20222680D02*
X-12346014Y20270300D01*
X2944905Y21533961D02*
X2944905Y22533961D01*
X2944905Y22533961D02*
X3183000Y22533961D01*
X3183000Y22533961D02*
X3325857Y22486342D01*
X3325857Y22486342D02*
X3421095Y22391104D01*
X3421095Y22391104D02*
X3468714Y22295866D01*
X3468714Y22295866D02*
X3516333Y22105390D01*
X3516333Y22105390D02*
X3516333Y21962533D01*
X3516333Y21962533D02*
X3468714Y21772057D01*
X3468714Y21772057D02*
X3421095Y21676819D01*
X3421095Y21676819D02*
X3325857Y21581580D01*
X3325857Y21581580D02*
X3183000Y21533961D01*
X3183000Y21533961D02*
X2944905Y21533961D01*
X3849667Y22533961D02*
X4516333Y22533961D01*
X4516333Y22533961D02*
X4087762Y21533961D01*
X-3671795Y21089461D02*
X-3671795Y22089461D01*
X-3671795Y22089461D02*
X-3433700Y22089461D01*
X-3433700Y22089461D02*
X-3290843Y22041842D01*
X-3290843Y22041842D02*
X-3195605Y21946604D01*
X-3195605Y21946604D02*
X-3147986Y21851366D01*
X-3147986Y21851366D02*
X-3100367Y21660890D01*
X-3100367Y21660890D02*
X-3100367Y21518033D01*
X-3100367Y21518033D02*
X-3147986Y21327557D01*
X-3147986Y21327557D02*
X-3195605Y21232319D01*
X-3195605Y21232319D02*
X-3290843Y21137080D01*
X-3290843Y21137080D02*
X-3433700Y21089461D01*
X-3433700Y21089461D02*
X-3671795Y21089461D01*
X-2528938Y21660890D02*
X-2624176Y21708509D01*
X-2624176Y21708509D02*
X-2671795Y21756128D01*
X-2671795Y21756128D02*
X-2719414Y21851366D01*
X-2719414Y21851366D02*
X-2719414Y21898985D01*
X-2719414Y21898985D02*
X-2671795Y21994223D01*
X-2671795Y21994223D02*
X-2624176Y22041842D01*
X-2624176Y22041842D02*
X-2528938Y22089461D01*
X-2528938Y22089461D02*
X-2338462Y22089461D01*
X-2338462Y22089461D02*
X-2243224Y22041842D01*
X-2243224Y22041842D02*
X-2195605Y21994223D01*
X-2195605Y21994223D02*
X-2147986Y21898985D01*
X-2147986Y21898985D02*
X-2147986Y21851366D01*
X-2147986Y21851366D02*
X-2195605Y21756128D01*
X-2195605Y21756128D02*
X-2243224Y21708509D01*
X-2243224Y21708509D02*
X-2338462Y21660890D01*
X-2338462Y21660890D02*
X-2528938Y21660890D01*
X-2528938Y21660890D02*
X-2624176Y21613271D01*
X-2624176Y21613271D02*
X-2671795Y21565652D01*
X-2671795Y21565652D02*
X-2719414Y21470414D01*
X-2719414Y21470414D02*
X-2719414Y21279938D01*
X-2719414Y21279938D02*
X-2671795Y21184700D01*
X-2671795Y21184700D02*
X-2624176Y21137080D01*
X-2624176Y21137080D02*
X-2528938Y21089461D01*
X-2528938Y21089461D02*
X-2338462Y21089461D01*
X-2338462Y21089461D02*
X-2243224Y21137080D01*
X-2243224Y21137080D02*
X-2195605Y21184700D01*
X-2195605Y21184700D02*
X-2147986Y21279938D01*
X-2147986Y21279938D02*
X-2147986Y21470414D01*
X-2147986Y21470414D02*
X-2195605Y21565652D01*
X-2195605Y21565652D02*
X-2243224Y21613271D01*
X-2243224Y21613271D02*
X-2338462Y21660890D01*
X-18441895Y22969061D02*
X-18441895Y23969061D01*
X-18441895Y23969061D02*
X-18203800Y23969061D01*
X-18203800Y23969061D02*
X-18060943Y23921442D01*
X-18060943Y23921442D02*
X-17965705Y23826204D01*
X-17965705Y23826204D02*
X-17918086Y23730966D01*
X-17918086Y23730966D02*
X-17870467Y23540490D01*
X-17870467Y23540490D02*
X-17870467Y23397633D01*
X-17870467Y23397633D02*
X-17918086Y23207157D01*
X-17918086Y23207157D02*
X-17965705Y23111919D01*
X-17965705Y23111919D02*
X-18060943Y23016680D01*
X-18060943Y23016680D02*
X-18203800Y22969061D01*
X-18203800Y22969061D02*
X-18441895Y22969061D01*
X-17394276Y22969061D02*
X-17203800Y22969061D01*
X-17203800Y22969061D02*
X-17108562Y23016680D01*
X-17108562Y23016680D02*
X-17060943Y23064300D01*
X-17060943Y23064300D02*
X-16965705Y23207157D01*
X-16965705Y23207157D02*
X-16918086Y23397633D01*
X-16918086Y23397633D02*
X-16918086Y23778585D01*
X-16918086Y23778585D02*
X-16965705Y23873823D01*
X-16965705Y23873823D02*
X-17013324Y23921442D01*
X-17013324Y23921442D02*
X-17108562Y23969061D01*
X-17108562Y23969061D02*
X-17299038Y23969061D01*
X-17299038Y23969061D02*
X-17394276Y23921442D01*
X-17394276Y23921442D02*
X-17441895Y23873823D01*
X-17441895Y23873823D02*
X-17489514Y23778585D01*
X-17489514Y23778585D02*
X-17489514Y23540490D01*
X-17489514Y23540490D02*
X-17441895Y23445252D01*
X-17441895Y23445252D02*
X-17394276Y23397633D01*
X-17394276Y23397633D02*
X-17299038Y23350014D01*
X-17299038Y23350014D02*
X-17108562Y23350014D01*
X-17108562Y23350014D02*
X-17013324Y23397633D01*
X-17013324Y23397633D02*
X-16965705Y23445252D01*
X-16965705Y23445252D02*
X-16918086Y23540490D01*
X4665814Y-21569839D02*
X4665814Y-20569839D01*
X4665814Y-20569839D02*
X4903909Y-20569839D01*
X4903909Y-20569839D02*
X5046766Y-20617458D01*
X5046766Y-20617458D02*
X5142004Y-20712696D01*
X5142004Y-20712696D02*
X5189623Y-20807934D01*
X5189623Y-20807934D02*
X5237242Y-20998410D01*
X5237242Y-20998410D02*
X5237242Y-21141267D01*
X5237242Y-21141267D02*
X5189623Y-21331743D01*
X5189623Y-21331743D02*
X5142004Y-21426981D01*
X5142004Y-21426981D02*
X5046766Y-21522220D01*
X5046766Y-21522220D02*
X4903909Y-21569839D01*
X4903909Y-21569839D02*
X4665814Y-21569839D01*
X6189623Y-21569839D02*
X5618195Y-21569839D01*
X5903909Y-21569839D02*
X5903909Y-20569839D01*
X5903909Y-20569839D02*
X5808671Y-20712696D01*
X5808671Y-20712696D02*
X5713433Y-20807934D01*
X5713433Y-20807934D02*
X5618195Y-20855553D01*
X7142004Y-21569839D02*
X6570576Y-21569839D01*
X6856290Y-21569839D02*
X6856290Y-20569839D01*
X6856290Y-20569839D02*
X6761052Y-20712696D01*
X6761052Y-20712696D02*
X6665814Y-20807934D01*
X6665814Y-20807934D02*
X6570576Y-20855553D01*
X-541614Y30265721D02*
X-541614Y29551436D01*
X-541614Y29551436D02*
X-589233Y29408579D01*
X-589233Y29408579D02*
X-684471Y29313340D01*
X-684471Y29313340D02*
X-827328Y29265721D01*
X-827328Y29265721D02*
X-922566Y29265721D01*
X458386Y29265721D02*
X-113042Y29265721D01*
X172672Y29265721D02*
X172672Y30265721D01*
X172672Y30265721D02*
X77434Y30122864D01*
X77434Y30122864D02*
X-17804Y30027626D01*
X-17804Y30027626D02*
X-113042Y29980007D01*
X21656561Y11499743D02*
X21561323Y11547362D01*
X21561323Y11547362D02*
X21466085Y11642600D01*
X21466085Y11642600D02*
X21323228Y11785458D01*
X21323228Y11785458D02*
X21227990Y11833077D01*
X21227990Y11833077D02*
X21132752Y11833077D01*
X21180371Y11594981D02*
X21085133Y11642600D01*
X21085133Y11642600D02*
X20989895Y11737839D01*
X20989895Y11737839D02*
X20942276Y11928315D01*
X20942276Y11928315D02*
X20942276Y12261648D01*
X20942276Y12261648D02*
X20989895Y12452124D01*
X20989895Y12452124D02*
X21085133Y12547362D01*
X21085133Y12547362D02*
X21180371Y12594981D01*
X21180371Y12594981D02*
X21370847Y12594981D01*
X21370847Y12594981D02*
X21466085Y12547362D01*
X21466085Y12547362D02*
X21561323Y12452124D01*
X21561323Y12452124D02*
X21608942Y12261648D01*
X21608942Y12261648D02*
X21608942Y11928315D01*
X21608942Y11928315D02*
X21561323Y11737839D01*
X21561323Y11737839D02*
X21466085Y11642600D01*
X21466085Y11642600D02*
X21370847Y11594981D01*
X21370847Y11594981D02*
X21180371Y11594981D01*
X22561323Y11594981D02*
X21989895Y11594981D01*
X22275609Y11594981D02*
X22275609Y12594981D01*
X22275609Y12594981D02*
X22180371Y12452124D01*
X22180371Y12452124D02*
X22085133Y12356886D01*
X22085133Y12356886D02*
X21989895Y12309267D01*
X5492761Y-6900057D02*
X5397523Y-6852438D01*
X5397523Y-6852438D02*
X5302285Y-6757200D01*
X5302285Y-6757200D02*
X5159428Y-6614342D01*
X5159428Y-6614342D02*
X5064190Y-6566723D01*
X5064190Y-6566723D02*
X4968952Y-6566723D01*
X5016571Y-6804819D02*
X4921333Y-6757200D01*
X4921333Y-6757200D02*
X4826095Y-6661961D01*
X4826095Y-6661961D02*
X4778476Y-6471485D01*
X4778476Y-6471485D02*
X4778476Y-6138152D01*
X4778476Y-6138152D02*
X4826095Y-5947676D01*
X4826095Y-5947676D02*
X4921333Y-5852438D01*
X4921333Y-5852438D02*
X5016571Y-5804819D01*
X5016571Y-5804819D02*
X5207047Y-5804819D01*
X5207047Y-5804819D02*
X5302285Y-5852438D01*
X5302285Y-5852438D02*
X5397523Y-5947676D01*
X5397523Y-5947676D02*
X5445142Y-6138152D01*
X5445142Y-6138152D02*
X5445142Y-6471485D01*
X5445142Y-6471485D02*
X5397523Y-6661961D01*
X5397523Y-6661961D02*
X5302285Y-6757200D01*
X5302285Y-6757200D02*
X5207047Y-6804819D01*
X5207047Y-6804819D02*
X5016571Y-6804819D01*
X5826095Y-5900057D02*
X5873714Y-5852438D01*
X5873714Y-5852438D02*
X5968952Y-5804819D01*
X5968952Y-5804819D02*
X6207047Y-5804819D01*
X6207047Y-5804819D02*
X6302285Y-5852438D01*
X6302285Y-5852438D02*
X6349904Y-5900057D01*
X6349904Y-5900057D02*
X6397523Y-5995295D01*
X6397523Y-5995295D02*
X6397523Y-6090533D01*
X6397523Y-6090533D02*
X6349904Y-6233390D01*
X6349904Y-6233390D02*
X5778476Y-6804819D01*
X5778476Y-6804819D02*
X6397523Y-6804819D01*
X10064761Y-5884057D02*
X9969523Y-5836438D01*
X9969523Y-5836438D02*
X9874285Y-5741200D01*
X9874285Y-5741200D02*
X9731428Y-5598342D01*
X9731428Y-5598342D02*
X9636190Y-5550723D01*
X9636190Y-5550723D02*
X9540952Y-5550723D01*
X9588571Y-5788819D02*
X9493333Y-5741200D01*
X9493333Y-5741200D02*
X9398095Y-5645961D01*
X9398095Y-5645961D02*
X9350476Y-5455485D01*
X9350476Y-5455485D02*
X9350476Y-5122152D01*
X9350476Y-5122152D02*
X9398095Y-4931676D01*
X9398095Y-4931676D02*
X9493333Y-4836438D01*
X9493333Y-4836438D02*
X9588571Y-4788819D01*
X9588571Y-4788819D02*
X9779047Y-4788819D01*
X9779047Y-4788819D02*
X9874285Y-4836438D01*
X9874285Y-4836438D02*
X9969523Y-4931676D01*
X9969523Y-4931676D02*
X10017142Y-5122152D01*
X10017142Y-5122152D02*
X10017142Y-5455485D01*
X10017142Y-5455485D02*
X9969523Y-5645961D01*
X9969523Y-5645961D02*
X9874285Y-5741200D01*
X9874285Y-5741200D02*
X9779047Y-5788819D01*
X9779047Y-5788819D02*
X9588571Y-5788819D01*
X10350476Y-4788819D02*
X10969523Y-4788819D01*
X10969523Y-4788819D02*
X10636190Y-5169771D01*
X10636190Y-5169771D02*
X10779047Y-5169771D01*
X10779047Y-5169771D02*
X10874285Y-5217390D01*
X10874285Y-5217390D02*
X10921904Y-5265009D01*
X10921904Y-5265009D02*
X10969523Y-5360247D01*
X10969523Y-5360247D02*
X10969523Y-5598342D01*
X10969523Y-5598342D02*
X10921904Y-5693580D01*
X10921904Y-5693580D02*
X10874285Y-5741200D01*
X10874285Y-5741200D02*
X10779047Y-5788819D01*
X10779047Y-5788819D02*
X10493333Y-5788819D01*
X10493333Y-5788819D02*
X10398095Y-5741200D01*
X10398095Y-5741200D02*
X10350476Y-5693580D01*
X20326361Y-14311777D02*
X20231123Y-14264158D01*
X20231123Y-14264158D02*
X20135885Y-14168920D01*
X20135885Y-14168920D02*
X19993028Y-14026062D01*
X19993028Y-14026062D02*
X19897790Y-13978443D01*
X19897790Y-13978443D02*
X19802552Y-13978443D01*
X19850171Y-14216539D02*
X19754933Y-14168920D01*
X19754933Y-14168920D02*
X19659695Y-14073681D01*
X19659695Y-14073681D02*
X19612076Y-13883205D01*
X19612076Y-13883205D02*
X19612076Y-13549872D01*
X19612076Y-13549872D02*
X19659695Y-13359396D01*
X19659695Y-13359396D02*
X19754933Y-13264158D01*
X19754933Y-13264158D02*
X19850171Y-13216539D01*
X19850171Y-13216539D02*
X20040647Y-13216539D01*
X20040647Y-13216539D02*
X20135885Y-13264158D01*
X20135885Y-13264158D02*
X20231123Y-13359396D01*
X20231123Y-13359396D02*
X20278742Y-13549872D01*
X20278742Y-13549872D02*
X20278742Y-13883205D01*
X20278742Y-13883205D02*
X20231123Y-14073681D01*
X20231123Y-14073681D02*
X20135885Y-14168920D01*
X20135885Y-14168920D02*
X20040647Y-14216539D01*
X20040647Y-14216539D02*
X19850171Y-14216539D01*
X21135885Y-13549872D02*
X21135885Y-14216539D01*
X20897790Y-13168920D02*
X20659695Y-13883205D01*
X20659695Y-13883205D02*
X21278742Y-13883205D01*
X-7450943Y11504942D02*
X-7498562Y11409704D01*
X-7498562Y11409704D02*
X-7593800Y11314466D01*
X-7593800Y11314466D02*
X-7736658Y11171609D01*
X-7736658Y11171609D02*
X-7784277Y11076371D01*
X-7784277Y11076371D02*
X-7784277Y10981133D01*
X-7546181Y11028752D02*
X-7593800Y10933514D01*
X-7593800Y10933514D02*
X-7689039Y10838276D01*
X-7689039Y10838276D02*
X-7879515Y10790657D01*
X-7879515Y10790657D02*
X-8212848Y10790657D01*
X-8212848Y10790657D02*
X-8403324Y10838276D01*
X-8403324Y10838276D02*
X-8498562Y10933514D01*
X-8498562Y10933514D02*
X-8546181Y11028752D01*
X-8546181Y11028752D02*
X-8546181Y11219228D01*
X-8546181Y11219228D02*
X-8498562Y11314466D01*
X-8498562Y11314466D02*
X-8403324Y11409704D01*
X-8403324Y11409704D02*
X-8212848Y11457323D01*
X-8212848Y11457323D02*
X-7879515Y11457323D01*
X-7879515Y11457323D02*
X-7689039Y11409704D01*
X-7689039Y11409704D02*
X-7593800Y11314466D01*
X-7593800Y11314466D02*
X-7546181Y11219228D01*
X-7546181Y11219228D02*
X-7546181Y11028752D01*
X-8546181Y12362085D02*
X-8546181Y11885895D01*
X-8546181Y11885895D02*
X-8069991Y11838276D01*
X-8069991Y11838276D02*
X-8117610Y11885895D01*
X-8117610Y11885895D02*
X-8165229Y11981133D01*
X-8165229Y11981133D02*
X-8165229Y12219228D01*
X-8165229Y12219228D02*
X-8117610Y12314466D01*
X-8117610Y12314466D02*
X-8069991Y12362085D01*
X-8069991Y12362085D02*
X-7974753Y12409704D01*
X-7974753Y12409704D02*
X-7736658Y12409704D01*
X-7736658Y12409704D02*
X-7641420Y12362085D01*
X-7641420Y12362085D02*
X-7593800Y12314466D01*
X-7593800Y12314466D02*
X-7546181Y12219228D01*
X-7546181Y12219228D02*
X-7546181Y11981133D01*
X-7546181Y11981133D02*
X-7593800Y11885895D01*
X-7593800Y11885895D02*
X-7641420Y11838276D01*
X-19860101Y3584914D02*
X-20336292Y3251581D01*
X-19860101Y3013486D02*
X-20860101Y3013486D01*
X-20860101Y3013486D02*
X-20860101Y3394438D01*
X-20860101Y3394438D02*
X-20812482Y3489676D01*
X-20812482Y3489676D02*
X-20764863Y3537295D01*
X-20764863Y3537295D02*
X-20669625Y3584914D01*
X-20669625Y3584914D02*
X-20526768Y3584914D01*
X-20526768Y3584914D02*
X-20431530Y3537295D01*
X-20431530Y3537295D02*
X-20383911Y3489676D01*
X-20383911Y3489676D02*
X-20336292Y3394438D01*
X-20336292Y3394438D02*
X-20336292Y3013486D01*
X-19860101Y4537295D02*
X-19860101Y3965867D01*
X-19860101Y4251581D02*
X-20860101Y4251581D01*
X-20860101Y4251581D02*
X-20717244Y4156343D01*
X-20717244Y4156343D02*
X-20622006Y4061105D01*
X-20622006Y4061105D02*
X-20574387Y3965867D01*
X-10301267Y11500961D02*
X-10634600Y11977152D01*
X-10872695Y11500961D02*
X-10872695Y12500961D01*
X-10872695Y12500961D02*
X-10491743Y12500961D01*
X-10491743Y12500961D02*
X-10396505Y12453342D01*
X-10396505Y12453342D02*
X-10348886Y12405723D01*
X-10348886Y12405723D02*
X-10301267Y12310485D01*
X-10301267Y12310485D02*
X-10301267Y12167628D01*
X-10301267Y12167628D02*
X-10348886Y12072390D01*
X-10348886Y12072390D02*
X-10396505Y12024771D01*
X-10396505Y12024771D02*
X-10491743Y11977152D01*
X-10491743Y11977152D02*
X-10872695Y11977152D01*
X-9920314Y12405723D02*
X-9872695Y12453342D01*
X-9872695Y12453342D02*
X-9777457Y12500961D01*
X-9777457Y12500961D02*
X-9539362Y12500961D01*
X-9539362Y12500961D02*
X-9444124Y12453342D01*
X-9444124Y12453342D02*
X-9396505Y12405723D01*
X-9396505Y12405723D02*
X-9348886Y12310485D01*
X-9348886Y12310485D02*
X-9348886Y12215247D01*
X-9348886Y12215247D02*
X-9396505Y12072390D01*
X-9396505Y12072390D02*
X-9967933Y11500961D01*
X-9967933Y11500961D02*
X-9348886Y11500961D01*
X-5158581Y19167814D02*
X-5634772Y18834481D01*
X-5158581Y18596386D02*
X-6158581Y18596386D01*
X-6158581Y18596386D02*
X-6158581Y18977338D01*
X-6158581Y18977338D02*
X-6110962Y19072576D01*
X-6110962Y19072576D02*
X-6063343Y19120195D01*
X-6063343Y19120195D02*
X-5968105Y19167814D01*
X-5968105Y19167814D02*
X-5825248Y19167814D01*
X-5825248Y19167814D02*
X-5730010Y19120195D01*
X-5730010Y19120195D02*
X-5682391Y19072576D01*
X-5682391Y19072576D02*
X-5634772Y18977338D01*
X-5634772Y18977338D02*
X-5634772Y18596386D01*
X-6158581Y19501148D02*
X-6158581Y20120195D01*
X-6158581Y20120195D02*
X-5777629Y19786862D01*
X-5777629Y19786862D02*
X-5777629Y19929719D01*
X-5777629Y19929719D02*
X-5730010Y20024957D01*
X-5730010Y20024957D02*
X-5682391Y20072576D01*
X-5682391Y20072576D02*
X-5587153Y20120195D01*
X-5587153Y20120195D02*
X-5349058Y20120195D01*
X-5349058Y20120195D02*
X-5253820Y20072576D01*
X-5253820Y20072576D02*
X-5206200Y20024957D01*
X-5206200Y20024957D02*
X-5158581Y19929719D01*
X-5158581Y19929719D02*
X-5158581Y19644005D01*
X-5158581Y19644005D02*
X-5206200Y19548767D01*
X-5206200Y19548767D02*
X-5253820Y19501148D01*
X-11690647Y5930741D02*
X-12023980Y6406932D01*
X-12262075Y5930741D02*
X-12262075Y6930741D01*
X-12262075Y6930741D02*
X-11881123Y6930741D01*
X-11881123Y6930741D02*
X-11785885Y6883122D01*
X-11785885Y6883122D02*
X-11738266Y6835503D01*
X-11738266Y6835503D02*
X-11690647Y6740265D01*
X-11690647Y6740265D02*
X-11690647Y6597408D01*
X-11690647Y6597408D02*
X-11738266Y6502170D01*
X-11738266Y6502170D02*
X-11785885Y6454551D01*
X-11785885Y6454551D02*
X-11881123Y6406932D01*
X-11881123Y6406932D02*
X-12262075Y6406932D01*
X-10833504Y6597408D02*
X-10833504Y5930741D01*
X-11071599Y6978360D02*
X-11309694Y6264075D01*
X-11309694Y6264075D02*
X-10690647Y6264075D01*
X-14869001Y20630854D02*
X-15345192Y20297521D01*
X-14869001Y20059426D02*
X-15869001Y20059426D01*
X-15869001Y20059426D02*
X-15869001Y20440378D01*
X-15869001Y20440378D02*
X-15821382Y20535616D01*
X-15821382Y20535616D02*
X-15773763Y20583235D01*
X-15773763Y20583235D02*
X-15678525Y20630854D01*
X-15678525Y20630854D02*
X-15535668Y20630854D01*
X-15535668Y20630854D02*
X-15440430Y20583235D01*
X-15440430Y20583235D02*
X-15392811Y20535616D01*
X-15392811Y20535616D02*
X-15345192Y20440378D01*
X-15345192Y20440378D02*
X-15345192Y20059426D01*
X-15869001Y21535616D02*
X-15869001Y21059426D01*
X-15869001Y21059426D02*
X-15392811Y21011807D01*
X-15392811Y21011807D02*
X-15440430Y21059426D01*
X-15440430Y21059426D02*
X-15488049Y21154664D01*
X-15488049Y21154664D02*
X-15488049Y21392759D01*
X-15488049Y21392759D02*
X-15440430Y21487997D01*
X-15440430Y21487997D02*
X-15392811Y21535616D01*
X-15392811Y21535616D02*
X-15297573Y21583235D01*
X-15297573Y21583235D02*
X-15059478Y21583235D01*
X-15059478Y21583235D02*
X-14964240Y21535616D01*
X-14964240Y21535616D02*
X-14916620Y21487997D01*
X-14916620Y21487997D02*
X-14869001Y21392759D01*
X-14869001Y21392759D02*
X-14869001Y21154664D01*
X-14869001Y21154664D02*
X-14916620Y21059426D01*
X-14916620Y21059426D02*
X-14964240Y21011807D01*
X-15912921Y3424894D02*
X-16389112Y3091561D01*
X-15912921Y2853466D02*
X-16912921Y2853466D01*
X-16912921Y2853466D02*
X-16912921Y3234418D01*
X-16912921Y3234418D02*
X-16865302Y3329656D01*
X-16865302Y3329656D02*
X-16817683Y3377275D01*
X-16817683Y3377275D02*
X-16722445Y3424894D01*
X-16722445Y3424894D02*
X-16579588Y3424894D01*
X-16579588Y3424894D02*
X-16484350Y3377275D01*
X-16484350Y3377275D02*
X-16436731Y3329656D01*
X-16436731Y3329656D02*
X-16389112Y3234418D01*
X-16389112Y3234418D02*
X-16389112Y2853466D01*
X-16912921Y4282037D02*
X-16912921Y4091561D01*
X-16912921Y4091561D02*
X-16865302Y3996323D01*
X-16865302Y3996323D02*
X-16817683Y3948704D01*
X-16817683Y3948704D02*
X-16674826Y3853466D01*
X-16674826Y3853466D02*
X-16484350Y3805847D01*
X-16484350Y3805847D02*
X-16103398Y3805847D01*
X-16103398Y3805847D02*
X-16008160Y3853466D01*
X-16008160Y3853466D02*
X-15960540Y3901085D01*
X-15960540Y3901085D02*
X-15912921Y3996323D01*
X-15912921Y3996323D02*
X-15912921Y4186799D01*
X-15912921Y4186799D02*
X-15960540Y4282037D01*
X-15960540Y4282037D02*
X-16008160Y4329656D01*
X-16008160Y4329656D02*
X-16103398Y4377275D01*
X-16103398Y4377275D02*
X-16341493Y4377275D01*
X-16341493Y4377275D02*
X-16436731Y4329656D01*
X-16436731Y4329656D02*
X-16484350Y4282037D01*
X-16484350Y4282037D02*
X-16531969Y4186799D01*
X-16531969Y4186799D02*
X-16531969Y3996323D01*
X-16531969Y3996323D02*
X-16484350Y3901085D01*
X-16484350Y3901085D02*
X-16436731Y3853466D01*
X-16436731Y3853466D02*
X-16341493Y3805847D01*
X-10039647Y10088721D02*
X-10372980Y10564912D01*
X-10611075Y10088721D02*
X-10611075Y11088721D01*
X-10611075Y11088721D02*
X-10230123Y11088721D01*
X-10230123Y11088721D02*
X-10134885Y11041102D01*
X-10134885Y11041102D02*
X-10087266Y10993483D01*
X-10087266Y10993483D02*
X-10039647Y10898245D01*
X-10039647Y10898245D02*
X-10039647Y10755388D01*
X-10039647Y10755388D02*
X-10087266Y10660150D01*
X-10087266Y10660150D02*
X-10134885Y10612531D01*
X-10134885Y10612531D02*
X-10230123Y10564912D01*
X-10230123Y10564912D02*
X-10611075Y10564912D01*
X-9706313Y11088721D02*
X-9039647Y11088721D01*
X-9039647Y11088721D02*
X-9468218Y10088721D01*
X1751533Y-9675019D02*
X1418200Y-9198828D01*
X1180105Y-9675019D02*
X1180105Y-8675019D01*
X1180105Y-8675019D02*
X1561057Y-8675019D01*
X1561057Y-8675019D02*
X1656295Y-8722638D01*
X1656295Y-8722638D02*
X1703914Y-8770257D01*
X1703914Y-8770257D02*
X1751533Y-8865495D01*
X1751533Y-8865495D02*
X1751533Y-9008352D01*
X1751533Y-9008352D02*
X1703914Y-9103590D01*
X1703914Y-9103590D02*
X1656295Y-9151209D01*
X1656295Y-9151209D02*
X1561057Y-9198828D01*
X1561057Y-9198828D02*
X1180105Y-9198828D01*
X2322962Y-9103590D02*
X2227724Y-9055971D01*
X2227724Y-9055971D02*
X2180105Y-9008352D01*
X2180105Y-9008352D02*
X2132486Y-8913114D01*
X2132486Y-8913114D02*
X2132486Y-8865495D01*
X2132486Y-8865495D02*
X2180105Y-8770257D01*
X2180105Y-8770257D02*
X2227724Y-8722638D01*
X2227724Y-8722638D02*
X2322962Y-8675019D01*
X2322962Y-8675019D02*
X2513438Y-8675019D01*
X2513438Y-8675019D02*
X2608676Y-8722638D01*
X2608676Y-8722638D02*
X2656295Y-8770257D01*
X2656295Y-8770257D02*
X2703914Y-8865495D01*
X2703914Y-8865495D02*
X2703914Y-8913114D01*
X2703914Y-8913114D02*
X2656295Y-9008352D01*
X2656295Y-9008352D02*
X2608676Y-9055971D01*
X2608676Y-9055971D02*
X2513438Y-9103590D01*
X2513438Y-9103590D02*
X2322962Y-9103590D01*
X2322962Y-9103590D02*
X2227724Y-9151209D01*
X2227724Y-9151209D02*
X2180105Y-9198828D01*
X2180105Y-9198828D02*
X2132486Y-9294066D01*
X2132486Y-9294066D02*
X2132486Y-9484542D01*
X2132486Y-9484542D02*
X2180105Y-9579780D01*
X2180105Y-9579780D02*
X2227724Y-9627400D01*
X2227724Y-9627400D02*
X2322962Y-9675019D01*
X2322962Y-9675019D02*
X2513438Y-9675019D01*
X2513438Y-9675019D02*
X2608676Y-9627400D01*
X2608676Y-9627400D02*
X2656295Y-9579780D01*
X2656295Y-9579780D02*
X2703914Y-9484542D01*
X2703914Y-9484542D02*
X2703914Y-9294066D01*
X2703914Y-9294066D02*
X2656295Y-9198828D01*
X2656295Y-9198828D02*
X2608676Y-9151209D01*
X2608676Y-9151209D02*
X2513438Y-9103590D01*
X18590419Y3082534D02*
X18114228Y2749201D01*
X18590419Y2511106D02*
X17590419Y2511106D01*
X17590419Y2511106D02*
X17590419Y2892058D01*
X17590419Y2892058D02*
X17638038Y2987296D01*
X17638038Y2987296D02*
X17685657Y3034915D01*
X17685657Y3034915D02*
X17780895Y3082534D01*
X17780895Y3082534D02*
X17923752Y3082534D01*
X17923752Y3082534D02*
X18018990Y3034915D01*
X18018990Y3034915D02*
X18066609Y2987296D01*
X18066609Y2987296D02*
X18114228Y2892058D01*
X18114228Y2892058D02*
X18114228Y2511106D01*
X18590419Y3558725D02*
X18590419Y3749201D01*
X18590419Y3749201D02*
X18542800Y3844439D01*
X18542800Y3844439D02*
X18495180Y3892058D01*
X18495180Y3892058D02*
X18352323Y3987296D01*
X18352323Y3987296D02*
X18161847Y4034915D01*
X18161847Y4034915D02*
X17780895Y4034915D01*
X17780895Y4034915D02*
X17685657Y3987296D01*
X17685657Y3987296D02*
X17638038Y3939677D01*
X17638038Y3939677D02*
X17590419Y3844439D01*
X17590419Y3844439D02*
X17590419Y3653963D01*
X17590419Y3653963D02*
X17638038Y3558725D01*
X17638038Y3558725D02*
X17685657Y3511106D01*
X17685657Y3511106D02*
X17780895Y3463487D01*
X17780895Y3463487D02*
X18018990Y3463487D01*
X18018990Y3463487D02*
X18114228Y3511106D01*
X18114228Y3511106D02*
X18161847Y3558725D01*
X18161847Y3558725D02*
X18209466Y3653963D01*
X18209466Y3653963D02*
X18209466Y3844439D01*
X18209466Y3844439D02*
X18161847Y3939677D01*
X18161847Y3939677D02*
X18114228Y3987296D01*
X18114228Y3987296D02*
X18018990Y4034915D01*
X11485642Y-25989439D02*
X11152309Y-25513248D01*
X10914214Y-25989439D02*
X10914214Y-24989439D01*
X10914214Y-24989439D02*
X11295166Y-24989439D01*
X11295166Y-24989439D02*
X11390404Y-25037058D01*
X11390404Y-25037058D02*
X11438023Y-25084677D01*
X11438023Y-25084677D02*
X11485642Y-25179915D01*
X11485642Y-25179915D02*
X11485642Y-25322772D01*
X11485642Y-25322772D02*
X11438023Y-25418010D01*
X11438023Y-25418010D02*
X11390404Y-25465629D01*
X11390404Y-25465629D02*
X11295166Y-25513248D01*
X11295166Y-25513248D02*
X10914214Y-25513248D01*
X12438023Y-25989439D02*
X11866595Y-25989439D01*
X12152309Y-25989439D02*
X12152309Y-24989439D01*
X12152309Y-24989439D02*
X12057071Y-25132296D01*
X12057071Y-25132296D02*
X11961833Y-25227534D01*
X11961833Y-25227534D02*
X11866595Y-25275153D01*
X13057071Y-24989439D02*
X13152309Y-24989439D01*
X13152309Y-24989439D02*
X13247547Y-25037058D01*
X13247547Y-25037058D02*
X13295166Y-25084677D01*
X13295166Y-25084677D02*
X13342785Y-25179915D01*
X13342785Y-25179915D02*
X13390404Y-25370391D01*
X13390404Y-25370391D02*
X13390404Y-25608486D01*
X13390404Y-25608486D02*
X13342785Y-25798962D01*
X13342785Y-25798962D02*
X13295166Y-25894200D01*
X13295166Y-25894200D02*
X13247547Y-25941820D01*
X13247547Y-25941820D02*
X13152309Y-25989439D01*
X13152309Y-25989439D02*
X13057071Y-25989439D01*
X13057071Y-25989439D02*
X12961833Y-25941820D01*
X12961833Y-25941820D02*
X12914214Y-25894200D01*
X12914214Y-25894200D02*
X12866595Y-25798962D01*
X12866595Y-25798962D02*
X12818976Y-25608486D01*
X12818976Y-25608486D02*
X12818976Y-25370391D01*
X12818976Y-25370391D02*
X12866595Y-25179915D01*
X12866595Y-25179915D02*
X12914214Y-25084677D01*
X12914214Y-25084677D02*
X12961833Y-25037058D01*
X12961833Y-25037058D02*
X13057071Y-24989439D01*
X13784342Y-20998339D02*
X13451009Y-20522148D01*
X13212914Y-20998339D02*
X13212914Y-19998339D01*
X13212914Y-19998339D02*
X13593866Y-19998339D01*
X13593866Y-19998339D02*
X13689104Y-20045958D01*
X13689104Y-20045958D02*
X13736723Y-20093577D01*
X13736723Y-20093577D02*
X13784342Y-20188815D01*
X13784342Y-20188815D02*
X13784342Y-20331672D01*
X13784342Y-20331672D02*
X13736723Y-20426910D01*
X13736723Y-20426910D02*
X13689104Y-20474529D01*
X13689104Y-20474529D02*
X13593866Y-20522148D01*
X13593866Y-20522148D02*
X13212914Y-20522148D01*
X14736723Y-20998339D02*
X14165295Y-20998339D01*
X14451009Y-20998339D02*
X14451009Y-19998339D01*
X14451009Y-19998339D02*
X14355771Y-20141196D01*
X14355771Y-20141196D02*
X14260533Y-20236434D01*
X14260533Y-20236434D02*
X14165295Y-20284053D01*
X15689104Y-20998339D02*
X15117676Y-20998339D01*
X15403390Y-20998339D02*
X15403390Y-19998339D01*
X15403390Y-19998339D02*
X15308152Y-20141196D01*
X15308152Y-20141196D02*
X15212914Y-20236434D01*
X15212914Y-20236434D02*
X15117676Y-20284053D01*
X15041642Y-24503539D02*
X14708309Y-24027348D01*
X14470214Y-24503539D02*
X14470214Y-23503539D01*
X14470214Y-23503539D02*
X14851166Y-23503539D01*
X14851166Y-23503539D02*
X14946404Y-23551158D01*
X14946404Y-23551158D02*
X14994023Y-23598777D01*
X14994023Y-23598777D02*
X15041642Y-23694015D01*
X15041642Y-23694015D02*
X15041642Y-23836872D01*
X15041642Y-23836872D02*
X14994023Y-23932110D01*
X14994023Y-23932110D02*
X14946404Y-23979729D01*
X14946404Y-23979729D02*
X14851166Y-24027348D01*
X14851166Y-24027348D02*
X14470214Y-24027348D01*
X15994023Y-24503539D02*
X15422595Y-24503539D01*
X15708309Y-24503539D02*
X15708309Y-23503539D01*
X15708309Y-23503539D02*
X15613071Y-23646396D01*
X15613071Y-23646396D02*
X15517833Y-23741634D01*
X15517833Y-23741634D02*
X15422595Y-23789253D01*
X16374976Y-23598777D02*
X16422595Y-23551158D01*
X16422595Y-23551158D02*
X16517833Y-23503539D01*
X16517833Y-23503539D02*
X16755928Y-23503539D01*
X16755928Y-23503539D02*
X16851166Y-23551158D01*
X16851166Y-23551158D02*
X16898785Y-23598777D01*
X16898785Y-23598777D02*
X16946404Y-23694015D01*
X16946404Y-23694015D02*
X16946404Y-23789253D01*
X16946404Y-23789253D02*
X16898785Y-23932110D01*
X16898785Y-23932110D02*
X16327357Y-24503539D01*
X16327357Y-24503539D02*
X16946404Y-24503539D01*
X29109819Y-8902077D02*
X28633628Y-9235410D01*
X29109819Y-9473505D02*
X28109819Y-9473505D01*
X28109819Y-9473505D02*
X28109819Y-9092553D01*
X28109819Y-9092553D02*
X28157438Y-8997315D01*
X28157438Y-8997315D02*
X28205057Y-8949696D01*
X28205057Y-8949696D02*
X28300295Y-8902077D01*
X28300295Y-8902077D02*
X28443152Y-8902077D01*
X28443152Y-8902077D02*
X28538390Y-8949696D01*
X28538390Y-8949696D02*
X28586009Y-8997315D01*
X28586009Y-8997315D02*
X28633628Y-9092553D01*
X28633628Y-9092553D02*
X28633628Y-9473505D01*
X29109819Y-7949696D02*
X29109819Y-8521124D01*
X29109819Y-8235410D02*
X28109819Y-8235410D01*
X28109819Y-8235410D02*
X28252676Y-8330648D01*
X28252676Y-8330648D02*
X28347914Y-8425886D01*
X28347914Y-8425886D02*
X28395533Y-8521124D01*
X28109819Y-7616362D02*
X28109819Y-6997315D01*
X28109819Y-6997315D02*
X28490771Y-7330648D01*
X28490771Y-7330648D02*
X28490771Y-7187791D01*
X28490771Y-7187791D02*
X28538390Y-7092553D01*
X28538390Y-7092553D02*
X28586009Y-7044934D01*
X28586009Y-7044934D02*
X28681247Y-6997315D01*
X28681247Y-6997315D02*
X28919342Y-6997315D01*
X28919342Y-6997315D02*
X29014580Y-7044934D01*
X29014580Y-7044934D02*
X29062200Y-7092553D01*
X29062200Y-7092553D02*
X29109819Y-7187791D01*
X29109819Y-7187791D02*
X29109819Y-7473505D01*
X29109819Y-7473505D02*
X29062200Y-7568743D01*
X29062200Y-7568743D02*
X29014580Y-7616362D01*
X17187942Y-22903339D02*
X16854609Y-22427148D01*
X16616514Y-22903339D02*
X16616514Y-21903339D01*
X16616514Y-21903339D02*
X16997466Y-21903339D01*
X16997466Y-21903339D02*
X17092704Y-21950958D01*
X17092704Y-21950958D02*
X17140323Y-21998577D01*
X17140323Y-21998577D02*
X17187942Y-22093815D01*
X17187942Y-22093815D02*
X17187942Y-22236672D01*
X17187942Y-22236672D02*
X17140323Y-22331910D01*
X17140323Y-22331910D02*
X17092704Y-22379529D01*
X17092704Y-22379529D02*
X16997466Y-22427148D01*
X16997466Y-22427148D02*
X16616514Y-22427148D01*
X18140323Y-22903339D02*
X17568895Y-22903339D01*
X17854609Y-22903339D02*
X17854609Y-21903339D01*
X17854609Y-21903339D02*
X17759371Y-22046196D01*
X17759371Y-22046196D02*
X17664133Y-22141434D01*
X17664133Y-22141434D02*
X17568895Y-22189053D01*
X18997466Y-22236672D02*
X18997466Y-22903339D01*
X18759371Y-21855720D02*
X18521276Y-22570005D01*
X18521276Y-22570005D02*
X19140323Y-22570005D01*
X-12725241Y11467863D02*
X-13201432Y11134530D01*
X-12725241Y10896435D02*
X-13725241Y10896435D01*
X-13725241Y10896435D02*
X-13725241Y11277387D01*
X-13725241Y11277387D02*
X-13677622Y11372625D01*
X-13677622Y11372625D02*
X-13630003Y11420244D01*
X-13630003Y11420244D02*
X-13534765Y11467863D01*
X-13534765Y11467863D02*
X-13391908Y11467863D01*
X-13391908Y11467863D02*
X-13296670Y11420244D01*
X-13296670Y11420244D02*
X-13249051Y11372625D01*
X-13249051Y11372625D02*
X-13201432Y11277387D01*
X-13201432Y11277387D02*
X-13201432Y10896435D01*
X-12725241Y12420244D02*
X-12725241Y11848816D01*
X-12725241Y12134530D02*
X-13725241Y12134530D01*
X-13725241Y12134530D02*
X-13582384Y12039292D01*
X-13582384Y12039292D02*
X-13487146Y11944054D01*
X-13487146Y11944054D02*
X-13439527Y11848816D01*
X-13725241Y13325006D02*
X-13725241Y12848816D01*
X-13725241Y12848816D02*
X-13249051Y12801197D01*
X-13249051Y12801197D02*
X-13296670Y12848816D01*
X-13296670Y12848816D02*
X-13344289Y12944054D01*
X-13344289Y12944054D02*
X-13344289Y13182149D01*
X-13344289Y13182149D02*
X-13296670Y13277387D01*
X-13296670Y13277387D02*
X-13249051Y13325006D01*
X-13249051Y13325006D02*
X-13153813Y13372625D01*
X-13153813Y13372625D02*
X-12915718Y13372625D01*
X-12915718Y13372625D02*
X-12820480Y13325006D01*
X-12820480Y13325006D02*
X-12772860Y13277387D01*
X-12772860Y13277387D02*
X-12725241Y13182149D01*
X-12725241Y13182149D02*
X-12725241Y12944054D01*
X-12725241Y12944054D02*
X-12772860Y12848816D01*
X-12772860Y12848816D02*
X-12820480Y12801197D01*
X-18709878Y1366361D02*
X-19043211Y1842552D01*
X-19281306Y1366361D02*
X-19281306Y2366361D01*
X-19281306Y2366361D02*
X-18900354Y2366361D01*
X-18900354Y2366361D02*
X-18805116Y2318742D01*
X-18805116Y2318742D02*
X-18757497Y2271123D01*
X-18757497Y2271123D02*
X-18709878Y2175885D01*
X-18709878Y2175885D02*
X-18709878Y2033028D01*
X-18709878Y2033028D02*
X-18757497Y1937790D01*
X-18757497Y1937790D02*
X-18805116Y1890171D01*
X-18805116Y1890171D02*
X-18900354Y1842552D01*
X-18900354Y1842552D02*
X-19281306Y1842552D01*
X-17757497Y1366361D02*
X-18328925Y1366361D01*
X-18043211Y1366361D02*
X-18043211Y2366361D01*
X-18043211Y2366361D02*
X-18138449Y2223504D01*
X-18138449Y2223504D02*
X-18233687Y2128266D01*
X-18233687Y2128266D02*
X-18328925Y2080647D01*
X-16900354Y2366361D02*
X-17090830Y2366361D01*
X-17090830Y2366361D02*
X-17186068Y2318742D01*
X-17186068Y2318742D02*
X-17233687Y2271123D01*
X-17233687Y2271123D02*
X-17328925Y2128266D01*
X-17328925Y2128266D02*
X-17376544Y1937790D01*
X-17376544Y1937790D02*
X-17376544Y1556838D01*
X-17376544Y1556838D02*
X-17328925Y1461600D01*
X-17328925Y1461600D02*
X-17281306Y1413980D01*
X-17281306Y1413980D02*
X-17186068Y1366361D01*
X-17186068Y1366361D02*
X-16995592Y1366361D01*
X-16995592Y1366361D02*
X-16900354Y1413980D01*
X-16900354Y1413980D02*
X-16852735Y1461600D01*
X-16852735Y1461600D02*
X-16805116Y1556838D01*
X-16805116Y1556838D02*
X-16805116Y1794933D01*
X-16805116Y1794933D02*
X-16852735Y1890171D01*
X-16852735Y1890171D02*
X-16900354Y1937790D01*
X-16900354Y1937790D02*
X-16995592Y1985409D01*
X-16995592Y1985409D02*
X-17186068Y1985409D01*
X-17186068Y1985409D02*
X-17281306Y1937790D01*
X-17281306Y1937790D02*
X-17328925Y1890171D01*
X-17328925Y1890171D02*
X-17376544Y1794933D01*
X13847842Y-17975739D02*
X13514509Y-17499548D01*
X13276414Y-17975739D02*
X13276414Y-16975739D01*
X13276414Y-16975739D02*
X13657366Y-16975739D01*
X13657366Y-16975739D02*
X13752604Y-17023358D01*
X13752604Y-17023358D02*
X13800223Y-17070977D01*
X13800223Y-17070977D02*
X13847842Y-17166215D01*
X13847842Y-17166215D02*
X13847842Y-17309072D01*
X13847842Y-17309072D02*
X13800223Y-17404310D01*
X13800223Y-17404310D02*
X13752604Y-17451929D01*
X13752604Y-17451929D02*
X13657366Y-17499548D01*
X13657366Y-17499548D02*
X13276414Y-17499548D01*
X14800223Y-17975739D02*
X14228795Y-17975739D01*
X14514509Y-17975739D02*
X14514509Y-16975739D01*
X14514509Y-16975739D02*
X14419271Y-17118596D01*
X14419271Y-17118596D02*
X14324033Y-17213834D01*
X14324033Y-17213834D02*
X14228795Y-17261453D01*
X15133557Y-16975739D02*
X15800223Y-16975739D01*
X15800223Y-16975739D02*
X15371652Y-17975739D01*
X-11023838Y7645241D02*
X-11357171Y8121432D01*
X-11595266Y7645241D02*
X-11595266Y8645241D01*
X-11595266Y8645241D02*
X-11214314Y8645241D01*
X-11214314Y8645241D02*
X-11119076Y8597622D01*
X-11119076Y8597622D02*
X-11071457Y8550003D01*
X-11071457Y8550003D02*
X-11023838Y8454765D01*
X-11023838Y8454765D02*
X-11023838Y8311908D01*
X-11023838Y8311908D02*
X-11071457Y8216670D01*
X-11071457Y8216670D02*
X-11119076Y8169051D01*
X-11119076Y8169051D02*
X-11214314Y8121432D01*
X-11214314Y8121432D02*
X-11595266Y8121432D01*
X-10071457Y7645241D02*
X-10642885Y7645241D01*
X-10357171Y7645241D02*
X-10357171Y8645241D01*
X-10357171Y8645241D02*
X-10452409Y8502384D01*
X-10452409Y8502384D02*
X-10547647Y8407146D01*
X-10547647Y8407146D02*
X-10642885Y8359527D01*
X-9500028Y8216670D02*
X-9595266Y8264289D01*
X-9595266Y8264289D02*
X-9642885Y8311908D01*
X-9642885Y8311908D02*
X-9690504Y8407146D01*
X-9690504Y8407146D02*
X-9690504Y8454765D01*
X-9690504Y8454765D02*
X-9642885Y8550003D01*
X-9642885Y8550003D02*
X-9595266Y8597622D01*
X-9595266Y8597622D02*
X-9500028Y8645241D01*
X-9500028Y8645241D02*
X-9309552Y8645241D01*
X-9309552Y8645241D02*
X-9214314Y8597622D01*
X-9214314Y8597622D02*
X-9166695Y8550003D01*
X-9166695Y8550003D02*
X-9119076Y8454765D01*
X-9119076Y8454765D02*
X-9119076Y8407146D01*
X-9119076Y8407146D02*
X-9166695Y8311908D01*
X-9166695Y8311908D02*
X-9214314Y8264289D01*
X-9214314Y8264289D02*
X-9309552Y8216670D01*
X-9309552Y8216670D02*
X-9500028Y8216670D01*
X-9500028Y8216670D02*
X-9595266Y8169051D01*
X-9595266Y8169051D02*
X-9642885Y8121432D01*
X-9642885Y8121432D02*
X-9690504Y8026194D01*
X-9690504Y8026194D02*
X-9690504Y7835718D01*
X-9690504Y7835718D02*
X-9642885Y7740480D01*
X-9642885Y7740480D02*
X-9595266Y7692860D01*
X-9595266Y7692860D02*
X-9500028Y7645241D01*
X-9500028Y7645241D02*
X-9309552Y7645241D01*
X-9309552Y7645241D02*
X-9214314Y7692860D01*
X-9214314Y7692860D02*
X-9166695Y7740480D01*
X-9166695Y7740480D02*
X-9119076Y7835718D01*
X-9119076Y7835718D02*
X-9119076Y8026194D01*
X-9119076Y8026194D02*
X-9166695Y8121432D01*
X-9166695Y8121432D02*
X-9214314Y8169051D01*
X-9214314Y8169051D02*
X-9309552Y8216670D01*
X8366919Y14068823D02*
X7890728Y13735490D01*
X8366919Y13497395D02*
X7366919Y13497395D01*
X7366919Y13497395D02*
X7366919Y13878347D01*
X7366919Y13878347D02*
X7414538Y13973585D01*
X7414538Y13973585D02*
X7462157Y14021204D01*
X7462157Y14021204D02*
X7557395Y14068823D01*
X7557395Y14068823D02*
X7700252Y14068823D01*
X7700252Y14068823D02*
X7795490Y14021204D01*
X7795490Y14021204D02*
X7843109Y13973585D01*
X7843109Y13973585D02*
X7890728Y13878347D01*
X7890728Y13878347D02*
X7890728Y13497395D01*
X8366919Y15021204D02*
X8366919Y14449776D01*
X8366919Y14735490D02*
X7366919Y14735490D01*
X7366919Y14735490D02*
X7509776Y14640252D01*
X7509776Y14640252D02*
X7605014Y14545014D01*
X7605014Y14545014D02*
X7652633Y14449776D01*
X8366919Y15497395D02*
X8366919Y15687871D01*
X8366919Y15687871D02*
X8319300Y15783109D01*
X8319300Y15783109D02*
X8271680Y15830728D01*
X8271680Y15830728D02*
X8128823Y15925966D01*
X8128823Y15925966D02*
X7938347Y15973585D01*
X7938347Y15973585D02*
X7557395Y15973585D01*
X7557395Y15973585D02*
X7462157Y15925966D01*
X7462157Y15925966D02*
X7414538Y15878347D01*
X7414538Y15878347D02*
X7366919Y15783109D01*
X7366919Y15783109D02*
X7366919Y15592633D01*
X7366919Y15592633D02*
X7414538Y15497395D01*
X7414538Y15497395D02*
X7462157Y15449776D01*
X7462157Y15449776D02*
X7557395Y15402157D01*
X7557395Y15402157D02*
X7795490Y15402157D01*
X7795490Y15402157D02*
X7890728Y15449776D01*
X7890728Y15449776D02*
X7938347Y15497395D01*
X7938347Y15497395D02*
X7985966Y15592633D01*
X7985966Y15592633D02*
X7985966Y15783109D01*
X7985966Y15783109D02*
X7938347Y15878347D01*
X7938347Y15878347D02*
X7890728Y15925966D01*
X7890728Y15925966D02*
X7795490Y15973585D01*
X18367042Y4206081D02*
X18033709Y4682272D01*
X17795614Y4206081D02*
X17795614Y5206081D01*
X17795614Y5206081D02*
X18176566Y5206081D01*
X18176566Y5206081D02*
X18271804Y5158462D01*
X18271804Y5158462D02*
X18319423Y5110843D01*
X18319423Y5110843D02*
X18367042Y5015605D01*
X18367042Y5015605D02*
X18367042Y4872748D01*
X18367042Y4872748D02*
X18319423Y4777510D01*
X18319423Y4777510D02*
X18271804Y4729891D01*
X18271804Y4729891D02*
X18176566Y4682272D01*
X18176566Y4682272D02*
X17795614Y4682272D01*
X18747995Y5110843D02*
X18795614Y5158462D01*
X18795614Y5158462D02*
X18890852Y5206081D01*
X18890852Y5206081D02*
X19128947Y5206081D01*
X19128947Y5206081D02*
X19224185Y5158462D01*
X19224185Y5158462D02*
X19271804Y5110843D01*
X19271804Y5110843D02*
X19319423Y5015605D01*
X19319423Y5015605D02*
X19319423Y4920367D01*
X19319423Y4920367D02*
X19271804Y4777510D01*
X19271804Y4777510D02*
X18700376Y4206081D01*
X18700376Y4206081D02*
X19319423Y4206081D01*
X19938471Y5206081D02*
X20033709Y5206081D01*
X20033709Y5206081D02*
X20128947Y5158462D01*
X20128947Y5158462D02*
X20176566Y5110843D01*
X20176566Y5110843D02*
X20224185Y5015605D01*
X20224185Y5015605D02*
X20271804Y4825129D01*
X20271804Y4825129D02*
X20271804Y4587034D01*
X20271804Y4587034D02*
X20224185Y4396558D01*
X20224185Y4396558D02*
X20176566Y4301320D01*
X20176566Y4301320D02*
X20128947Y4253700D01*
X20128947Y4253700D02*
X20033709Y4206081D01*
X20033709Y4206081D02*
X19938471Y4206081D01*
X19938471Y4206081D02*
X19843233Y4253700D01*
X19843233Y4253700D02*
X19795614Y4301320D01*
X19795614Y4301320D02*
X19747995Y4396558D01*
X19747995Y4396558D02*
X19700376Y4587034D01*
X19700376Y4587034D02*
X19700376Y4825129D01*
X19700376Y4825129D02*
X19747995Y5015605D01*
X19747995Y5015605D02*
X19795614Y5110843D01*
X19795614Y5110843D02*
X19843233Y5158462D01*
X19843233Y5158462D02*
X19938471Y5206081D01*
X2951242Y-25113139D02*
X2617909Y-24636948D01*
X2379814Y-25113139D02*
X2379814Y-24113139D01*
X2379814Y-24113139D02*
X2760766Y-24113139D01*
X2760766Y-24113139D02*
X2856004Y-24160758D01*
X2856004Y-24160758D02*
X2903623Y-24208377D01*
X2903623Y-24208377D02*
X2951242Y-24303615D01*
X2951242Y-24303615D02*
X2951242Y-24446472D01*
X2951242Y-24446472D02*
X2903623Y-24541710D01*
X2903623Y-24541710D02*
X2856004Y-24589329D01*
X2856004Y-24589329D02*
X2760766Y-24636948D01*
X2760766Y-24636948D02*
X2379814Y-24636948D01*
X3332195Y-24208377D02*
X3379814Y-24160758D01*
X3379814Y-24160758D02*
X3475052Y-24113139D01*
X3475052Y-24113139D02*
X3713147Y-24113139D01*
X3713147Y-24113139D02*
X3808385Y-24160758D01*
X3808385Y-24160758D02*
X3856004Y-24208377D01*
X3856004Y-24208377D02*
X3903623Y-24303615D01*
X3903623Y-24303615D02*
X3903623Y-24398853D01*
X3903623Y-24398853D02*
X3856004Y-24541710D01*
X3856004Y-24541710D02*
X3284576Y-25113139D01*
X3284576Y-25113139D02*
X3903623Y-25113139D01*
X4856004Y-25113139D02*
X4284576Y-25113139D01*
X4570290Y-25113139D02*
X4570290Y-24113139D01*
X4570290Y-24113139D02*
X4475052Y-24255996D01*
X4475052Y-24255996D02*
X4379814Y-24351234D01*
X4379814Y-24351234D02*
X4284576Y-24398853D01*
X19931142Y-21734939D02*
X19597809Y-21258748D01*
X19359714Y-21734939D02*
X19359714Y-20734939D01*
X19359714Y-20734939D02*
X19740666Y-20734939D01*
X19740666Y-20734939D02*
X19835904Y-20782558D01*
X19835904Y-20782558D02*
X19883523Y-20830177D01*
X19883523Y-20830177D02*
X19931142Y-20925415D01*
X19931142Y-20925415D02*
X19931142Y-21068272D01*
X19931142Y-21068272D02*
X19883523Y-21163510D01*
X19883523Y-21163510D02*
X19835904Y-21211129D01*
X19835904Y-21211129D02*
X19740666Y-21258748D01*
X19740666Y-21258748D02*
X19359714Y-21258748D01*
X20312095Y-20830177D02*
X20359714Y-20782558D01*
X20359714Y-20782558D02*
X20454952Y-20734939D01*
X20454952Y-20734939D02*
X20693047Y-20734939D01*
X20693047Y-20734939D02*
X20788285Y-20782558D01*
X20788285Y-20782558D02*
X20835904Y-20830177D01*
X20835904Y-20830177D02*
X20883523Y-20925415D01*
X20883523Y-20925415D02*
X20883523Y-21020653D01*
X20883523Y-21020653D02*
X20835904Y-21163510D01*
X20835904Y-21163510D02*
X20264476Y-21734939D01*
X20264476Y-21734939D02*
X20883523Y-21734939D01*
X21264476Y-20830177D02*
X21312095Y-20782558D01*
X21312095Y-20782558D02*
X21407333Y-20734939D01*
X21407333Y-20734939D02*
X21645428Y-20734939D01*
X21645428Y-20734939D02*
X21740666Y-20782558D01*
X21740666Y-20782558D02*
X21788285Y-20830177D01*
X21788285Y-20830177D02*
X21835904Y-20925415D01*
X21835904Y-20925415D02*
X21835904Y-21020653D01*
X21835904Y-21020653D02*
X21788285Y-21163510D01*
X21788285Y-21163510D02*
X21216857Y-21734939D01*
X21216857Y-21734939D02*
X21835904Y-21734939D01*
X16845042Y-21392039D02*
X16511709Y-20915848D01*
X16273614Y-21392039D02*
X16273614Y-20392039D01*
X16273614Y-20392039D02*
X16654566Y-20392039D01*
X16654566Y-20392039D02*
X16749804Y-20439658D01*
X16749804Y-20439658D02*
X16797423Y-20487277D01*
X16797423Y-20487277D02*
X16845042Y-20582515D01*
X16845042Y-20582515D02*
X16845042Y-20725372D01*
X16845042Y-20725372D02*
X16797423Y-20820610D01*
X16797423Y-20820610D02*
X16749804Y-20868229D01*
X16749804Y-20868229D02*
X16654566Y-20915848D01*
X16654566Y-20915848D02*
X16273614Y-20915848D01*
X17225995Y-20487277D02*
X17273614Y-20439658D01*
X17273614Y-20439658D02*
X17368852Y-20392039D01*
X17368852Y-20392039D02*
X17606947Y-20392039D01*
X17606947Y-20392039D02*
X17702185Y-20439658D01*
X17702185Y-20439658D02*
X17749804Y-20487277D01*
X17749804Y-20487277D02*
X17797423Y-20582515D01*
X17797423Y-20582515D02*
X17797423Y-20677753D01*
X17797423Y-20677753D02*
X17749804Y-20820610D01*
X17749804Y-20820610D02*
X17178376Y-21392039D01*
X17178376Y-21392039D02*
X17797423Y-21392039D01*
X18130757Y-20392039D02*
X18749804Y-20392039D01*
X18749804Y-20392039D02*
X18416471Y-20772991D01*
X18416471Y-20772991D02*
X18559328Y-20772991D01*
X18559328Y-20772991D02*
X18654566Y-20820610D01*
X18654566Y-20820610D02*
X18702185Y-20868229D01*
X18702185Y-20868229D02*
X18749804Y-20963467D01*
X18749804Y-20963467D02*
X18749804Y-21201562D01*
X18749804Y-21201562D02*
X18702185Y-21296800D01*
X18702185Y-21296800D02*
X18654566Y-21344420D01*
X18654566Y-21344420D02*
X18559328Y-21392039D01*
X18559328Y-21392039D02*
X18273614Y-21392039D01*
X18273614Y-21392039D02*
X18178376Y-21344420D01*
X18178376Y-21344420D02*
X18130757Y-21296800D01*
X-10119598Y26883201D02*
X-10452931Y27359392D01*
X-10691026Y26883201D02*
X-10691026Y27883201D01*
X-10691026Y27883201D02*
X-10310074Y27883201D01*
X-10310074Y27883201D02*
X-10214836Y27835582D01*
X-10214836Y27835582D02*
X-10167217Y27787963D01*
X-10167217Y27787963D02*
X-10119598Y27692725D01*
X-10119598Y27692725D02*
X-10119598Y27549868D01*
X-10119598Y27549868D02*
X-10167217Y27454630D01*
X-10167217Y27454630D02*
X-10214836Y27407011D01*
X-10214836Y27407011D02*
X-10310074Y27359392D01*
X-10310074Y27359392D02*
X-10691026Y27359392D01*
X-9738645Y27787963D02*
X-9691026Y27835582D01*
X-9691026Y27835582D02*
X-9595788Y27883201D01*
X-9595788Y27883201D02*
X-9357693Y27883201D01*
X-9357693Y27883201D02*
X-9262455Y27835582D01*
X-9262455Y27835582D02*
X-9214836Y27787963D01*
X-9214836Y27787963D02*
X-9167217Y27692725D01*
X-9167217Y27692725D02*
X-9167217Y27597487D01*
X-9167217Y27597487D02*
X-9214836Y27454630D01*
X-9214836Y27454630D02*
X-9786264Y26883201D01*
X-9786264Y26883201D02*
X-9167217Y26883201D01*
X-8310074Y27549868D02*
X-8310074Y26883201D01*
X-8548169Y27930820D02*
X-8786264Y27216535D01*
X-8786264Y27216535D02*
X-8167217Y27216535D01*
X12888119Y25536923D02*
X12411928Y25203590D01*
X12888119Y24965495D02*
X11888119Y24965495D01*
X11888119Y24965495D02*
X11888119Y25346447D01*
X11888119Y25346447D02*
X11935738Y25441685D01*
X11935738Y25441685D02*
X11983357Y25489304D01*
X11983357Y25489304D02*
X12078595Y25536923D01*
X12078595Y25536923D02*
X12221452Y25536923D01*
X12221452Y25536923D02*
X12316690Y25489304D01*
X12316690Y25489304D02*
X12364309Y25441685D01*
X12364309Y25441685D02*
X12411928Y25346447D01*
X12411928Y25346447D02*
X12411928Y24965495D01*
X11983357Y25917876D02*
X11935738Y25965495D01*
X11935738Y25965495D02*
X11888119Y26060733D01*
X11888119Y26060733D02*
X11888119Y26298828D01*
X11888119Y26298828D02*
X11935738Y26394066D01*
X11935738Y26394066D02*
X11983357Y26441685D01*
X11983357Y26441685D02*
X12078595Y26489304D01*
X12078595Y26489304D02*
X12173833Y26489304D01*
X12173833Y26489304D02*
X12316690Y26441685D01*
X12316690Y26441685D02*
X12888119Y25870257D01*
X12888119Y25870257D02*
X12888119Y26489304D01*
X11888119Y27394066D02*
X11888119Y26917876D01*
X11888119Y26917876D02*
X12364309Y26870257D01*
X12364309Y26870257D02*
X12316690Y26917876D01*
X12316690Y26917876D02*
X12269071Y27013114D01*
X12269071Y27013114D02*
X12269071Y27251209D01*
X12269071Y27251209D02*
X12316690Y27346447D01*
X12316690Y27346447D02*
X12364309Y27394066D01*
X12364309Y27394066D02*
X12459547Y27441685D01*
X12459547Y27441685D02*
X12697642Y27441685D01*
X12697642Y27441685D02*
X12792880Y27394066D01*
X12792880Y27394066D02*
X12840500Y27346447D01*
X12840500Y27346447D02*
X12888119Y27251209D01*
X12888119Y27251209D02*
X12888119Y27013114D01*
X12888119Y27013114D02*
X12840500Y26917876D01*
X12840500Y26917876D02*
X12792880Y26870257D01*
X10449719Y-25263077D02*
X9973528Y-25596410D01*
X10449719Y-25834505D02*
X9449719Y-25834505D01*
X9449719Y-25834505D02*
X9449719Y-25453553D01*
X9449719Y-25453553D02*
X9497338Y-25358315D01*
X9497338Y-25358315D02*
X9544957Y-25310696D01*
X9544957Y-25310696D02*
X9640195Y-25263077D01*
X9640195Y-25263077D02*
X9783052Y-25263077D01*
X9783052Y-25263077D02*
X9878290Y-25310696D01*
X9878290Y-25310696D02*
X9925909Y-25358315D01*
X9925909Y-25358315D02*
X9973528Y-25453553D01*
X9973528Y-25453553D02*
X9973528Y-25834505D01*
X9544957Y-24882124D02*
X9497338Y-24834505D01*
X9497338Y-24834505D02*
X9449719Y-24739267D01*
X9449719Y-24739267D02*
X9449719Y-24501172D01*
X9449719Y-24501172D02*
X9497338Y-24405934D01*
X9497338Y-24405934D02*
X9544957Y-24358315D01*
X9544957Y-24358315D02*
X9640195Y-24310696D01*
X9640195Y-24310696D02*
X9735433Y-24310696D01*
X9735433Y-24310696D02*
X9878290Y-24358315D01*
X9878290Y-24358315D02*
X10449719Y-24929743D01*
X10449719Y-24929743D02*
X10449719Y-24310696D01*
X9449719Y-23453553D02*
X9449719Y-23644029D01*
X9449719Y-23644029D02*
X9497338Y-23739267D01*
X9497338Y-23739267D02*
X9544957Y-23786886D01*
X9544957Y-23786886D02*
X9687814Y-23882124D01*
X9687814Y-23882124D02*
X9878290Y-23929743D01*
X9878290Y-23929743D02*
X10259242Y-23929743D01*
X10259242Y-23929743D02*
X10354480Y-23882124D01*
X10354480Y-23882124D02*
X10402100Y-23834505D01*
X10402100Y-23834505D02*
X10449719Y-23739267D01*
X10449719Y-23739267D02*
X10449719Y-23548791D01*
X10449719Y-23548791D02*
X10402100Y-23453553D01*
X10402100Y-23453553D02*
X10354480Y-23405934D01*
X10354480Y-23405934D02*
X10259242Y-23358315D01*
X10259242Y-23358315D02*
X10021147Y-23358315D01*
X10021147Y-23358315D02*
X9925909Y-23405934D01*
X9925909Y-23405934D02*
X9878290Y-23453553D01*
X9878290Y-23453553D02*
X9830671Y-23548791D01*
X9830671Y-23548791D02*
X9830671Y-23739267D01*
X9830671Y-23739267D02*
X9878290Y-23834505D01*
X9878290Y-23834505D02*
X9925909Y-23882124D01*
X9925909Y-23882124D02*
X10021147Y-23929743D01*
X9103519Y-27358577D02*
X8627328Y-27691910D01*
X9103519Y-27930005D02*
X8103519Y-27930005D01*
X8103519Y-27930005D02*
X8103519Y-27549053D01*
X8103519Y-27549053D02*
X8151138Y-27453815D01*
X8151138Y-27453815D02*
X8198757Y-27406196D01*
X8198757Y-27406196D02*
X8293995Y-27358577D01*
X8293995Y-27358577D02*
X8436852Y-27358577D01*
X8436852Y-27358577D02*
X8532090Y-27406196D01*
X8532090Y-27406196D02*
X8579709Y-27453815D01*
X8579709Y-27453815D02*
X8627328Y-27549053D01*
X8627328Y-27549053D02*
X8627328Y-27930005D01*
X8198757Y-26977624D02*
X8151138Y-26930005D01*
X8151138Y-26930005D02*
X8103519Y-26834767D01*
X8103519Y-26834767D02*
X8103519Y-26596672D01*
X8103519Y-26596672D02*
X8151138Y-26501434D01*
X8151138Y-26501434D02*
X8198757Y-26453815D01*
X8198757Y-26453815D02*
X8293995Y-26406196D01*
X8293995Y-26406196D02*
X8389233Y-26406196D01*
X8389233Y-26406196D02*
X8532090Y-26453815D01*
X8532090Y-26453815D02*
X9103519Y-27025243D01*
X9103519Y-27025243D02*
X9103519Y-26406196D01*
X8103519Y-26072862D02*
X8103519Y-25406196D01*
X8103519Y-25406196D02*
X9103519Y-25834767D01*
X10914142Y23400861D02*
X10580809Y23877052D01*
X10342714Y23400861D02*
X10342714Y24400861D01*
X10342714Y24400861D02*
X10723666Y24400861D01*
X10723666Y24400861D02*
X10818904Y24353242D01*
X10818904Y24353242D02*
X10866523Y24305623D01*
X10866523Y24305623D02*
X10914142Y24210385D01*
X10914142Y24210385D02*
X10914142Y24067528D01*
X10914142Y24067528D02*
X10866523Y23972290D01*
X10866523Y23972290D02*
X10818904Y23924671D01*
X10818904Y23924671D02*
X10723666Y23877052D01*
X10723666Y23877052D02*
X10342714Y23877052D01*
X11295095Y24305623D02*
X11342714Y24353242D01*
X11342714Y24353242D02*
X11437952Y24400861D01*
X11437952Y24400861D02*
X11676047Y24400861D01*
X11676047Y24400861D02*
X11771285Y24353242D01*
X11771285Y24353242D02*
X11818904Y24305623D01*
X11818904Y24305623D02*
X11866523Y24210385D01*
X11866523Y24210385D02*
X11866523Y24115147D01*
X11866523Y24115147D02*
X11818904Y23972290D01*
X11818904Y23972290D02*
X11247476Y23400861D01*
X11247476Y23400861D02*
X11866523Y23400861D01*
X12437952Y23972290D02*
X12342714Y24019909D01*
X12342714Y24019909D02*
X12295095Y24067528D01*
X12295095Y24067528D02*
X12247476Y24162766D01*
X12247476Y24162766D02*
X12247476Y24210385D01*
X12247476Y24210385D02*
X12295095Y24305623D01*
X12295095Y24305623D02*
X12342714Y24353242D01*
X12342714Y24353242D02*
X12437952Y24400861D01*
X12437952Y24400861D02*
X12628428Y24400861D01*
X12628428Y24400861D02*
X12723666Y24353242D01*
X12723666Y24353242D02*
X12771285Y24305623D01*
X12771285Y24305623D02*
X12818904Y24210385D01*
X12818904Y24210385D02*
X12818904Y24162766D01*
X12818904Y24162766D02*
X12771285Y24067528D01*
X12771285Y24067528D02*
X12723666Y24019909D01*
X12723666Y24019909D02*
X12628428Y23972290D01*
X12628428Y23972290D02*
X12437952Y23972290D01*
X12437952Y23972290D02*
X12342714Y23924671D01*
X12342714Y23924671D02*
X12295095Y23877052D01*
X12295095Y23877052D02*
X12247476Y23781814D01*
X12247476Y23781814D02*
X12247476Y23591338D01*
X12247476Y23591338D02*
X12295095Y23496100D01*
X12295095Y23496100D02*
X12342714Y23448480D01*
X12342714Y23448480D02*
X12437952Y23400861D01*
X12437952Y23400861D02*
X12628428Y23400861D01*
X12628428Y23400861D02*
X12723666Y23448480D01*
X12723666Y23448480D02*
X12771285Y23496100D01*
X12771285Y23496100D02*
X12818904Y23591338D01*
X12818904Y23591338D02*
X12818904Y23781814D01*
X12818904Y23781814D02*
X12771285Y23877052D01*
X12771285Y23877052D02*
X12723666Y23924671D01*
X12723666Y23924671D02*
X12628428Y23972290D01*
X4369719Y-28280833D02*
X4369719Y-27709405D01*
X5369719Y-27995119D02*
X4369719Y-27995119D01*
X5369719Y-27376071D02*
X4369719Y-27376071D01*
X4845909Y-27376071D02*
X4845909Y-26804643D01*
X5369719Y-26804643D02*
X4369719Y-26804643D01*
X5369719Y-25804643D02*
X5369719Y-26376071D01*
X5369719Y-26090357D02*
X4369719Y-26090357D01*
X4369719Y-26090357D02*
X4512576Y-26185595D01*
X4512576Y-26185595D02*
X4607814Y-26280833D01*
X4607814Y-26280833D02*
X4655433Y-26376071D01*
X-21975985Y11736421D02*
X-21975985Y10926898D01*
X-21975985Y10926898D02*
X-21928366Y10831660D01*
X-21928366Y10831660D02*
X-21880747Y10784040D01*
X-21880747Y10784040D02*
X-21785509Y10736421D01*
X-21785509Y10736421D02*
X-21595033Y10736421D01*
X-21595033Y10736421D02*
X-21499795Y10784040D01*
X-21499795Y10784040D02*
X-21452176Y10831660D01*
X-21452176Y10831660D02*
X-21404557Y10926898D01*
X-21404557Y10926898D02*
X-21404557Y11736421D01*
X-20404557Y10736421D02*
X-20975985Y10736421D01*
X-20690271Y10736421D02*
X-20690271Y11736421D01*
X-20690271Y11736421D02*
X-20785509Y11593564D01*
X-20785509Y11593564D02*
X-20880747Y11498326D01*
X-20880747Y11498326D02*
X-20975985Y11450707D01*
X-11822781Y-13177424D02*
X-11013258Y-13177424D01*
X-11013258Y-13177424D02*
X-10918020Y-13129805D01*
X-10918020Y-13129805D02*
X-10870400Y-13082186D01*
X-10870400Y-13082186D02*
X-10822781Y-12986948D01*
X-10822781Y-12986948D02*
X-10822781Y-12796472D01*
X-10822781Y-12796472D02*
X-10870400Y-12701234D01*
X-10870400Y-12701234D02*
X-10918020Y-12653615D01*
X-10918020Y-12653615D02*
X-11013258Y-12605996D01*
X-11013258Y-12605996D02*
X-11822781Y-12605996D01*
X-11727543Y-12177424D02*
X-11775162Y-12129805D01*
X-11775162Y-12129805D02*
X-11822781Y-12034567D01*
X-11822781Y-12034567D02*
X-11822781Y-11796472D01*
X-11822781Y-11796472D02*
X-11775162Y-11701234D01*
X-11775162Y-11701234D02*
X-11727543Y-11653615D01*
X-11727543Y-11653615D02*
X-11632305Y-11605996D01*
X-11632305Y-11605996D02*
X-11537067Y-11605996D01*
X-11537067Y-11605996D02*
X-11394210Y-11653615D01*
X-11394210Y-11653615D02*
X-10822781Y-12225043D01*
X-10822781Y-12225043D02*
X-10822781Y-11605996D01*
X9398095Y-11997339D02*
X9398095Y-12806862D01*
X9398095Y-12806862D02*
X9445714Y-12902100D01*
X9445714Y-12902100D02*
X9493333Y-12949720D01*
X9493333Y-12949720D02*
X9588571Y-12997339D01*
X9588571Y-12997339D02*
X9779047Y-12997339D01*
X9779047Y-12997339D02*
X9874285Y-12949720D01*
X9874285Y-12949720D02*
X9921904Y-12902100D01*
X9921904Y-12902100D02*
X9969523Y-12806862D01*
X9969523Y-12806862D02*
X9969523Y-11997339D01*
X10350476Y-11997339D02*
X10969523Y-11997339D01*
X10969523Y-11997339D02*
X10636190Y-12378291D01*
X10636190Y-12378291D02*
X10779047Y-12378291D01*
X10779047Y-12378291D02*
X10874285Y-12425910D01*
X10874285Y-12425910D02*
X10921904Y-12473529D01*
X10921904Y-12473529D02*
X10969523Y-12568767D01*
X10969523Y-12568767D02*
X10969523Y-12806862D01*
X10969523Y-12806862D02*
X10921904Y-12902100D01*
X10921904Y-12902100D02*
X10874285Y-12949720D01*
X10874285Y-12949720D02*
X10779047Y-12997339D01*
X10779047Y-12997339D02*
X10493333Y-12997339D01*
X10493333Y-12997339D02*
X10398095Y-12949720D01*
X10398095Y-12949720D02*
X10350476Y-12902100D01*
X16941895Y19358961D02*
X16941895Y18549438D01*
X16941895Y18549438D02*
X16989514Y18454200D01*
X16989514Y18454200D02*
X17037133Y18406580D01*
X17037133Y18406580D02*
X17132371Y18358961D01*
X17132371Y18358961D02*
X17322847Y18358961D01*
X17322847Y18358961D02*
X17418085Y18406580D01*
X17418085Y18406580D02*
X17465704Y18454200D01*
X17465704Y18454200D02*
X17513323Y18549438D01*
X17513323Y18549438D02*
X17513323Y19358961D01*
X18465704Y19358961D02*
X17989514Y19358961D01*
X17989514Y19358961D02*
X17941895Y18882771D01*
X17941895Y18882771D02*
X17989514Y18930390D01*
X17989514Y18930390D02*
X18084752Y18978009D01*
X18084752Y18978009D02*
X18322847Y18978009D01*
X18322847Y18978009D02*
X18418085Y18930390D01*
X18418085Y18930390D02*
X18465704Y18882771D01*
X18465704Y18882771D02*
X18513323Y18787533D01*
X18513323Y18787533D02*
X18513323Y18549438D01*
X18513323Y18549438D02*
X18465704Y18454200D01*
X18465704Y18454200D02*
X18418085Y18406580D01*
X18418085Y18406580D02*
X18322847Y18358961D01*
X18322847Y18358961D02*
X18084752Y18358961D01*
X18084752Y18358961D02*
X17989514Y18406580D01*
X17989514Y18406580D02*
X17941895Y18454200D01*
X-1396905Y20273361D02*
X-1396905Y19463838D01*
X-1396905Y19463838D02*
X-1349286Y19368600D01*
X-1349286Y19368600D02*
X-1301667Y19320980D01*
X-1301667Y19320980D02*
X-1206429Y19273361D01*
X-1206429Y19273361D02*
X-1015953Y19273361D01*
X-1015953Y19273361D02*
X-920715Y19320980D01*
X-920715Y19320980D02*
X-873096Y19368600D01*
X-873096Y19368600D02*
X-825477Y19463838D01*
X-825477Y19463838D02*
X-825477Y20273361D01*
X79285Y20273361D02*
X-111191Y20273361D01*
X-111191Y20273361D02*
X-206429Y20225742D01*
X-206429Y20225742D02*
X-254048Y20178123D01*
X-254048Y20178123D02*
X-349286Y20035266D01*
X-349286Y20035266D02*
X-396905Y19844790D01*
X-396905Y19844790D02*
X-396905Y19463838D01*
X-396905Y19463838D02*
X-349286Y19368600D01*
X-349286Y19368600D02*
X-301667Y19320980D01*
X-301667Y19320980D02*
X-206429Y19273361D01*
X-206429Y19273361D02*
X-15953Y19273361D01*
X-15953Y19273361D02*
X79285Y19320980D01*
X79285Y19320980D02*
X126904Y19368600D01*
X126904Y19368600D02*
X174523Y19463838D01*
X174523Y19463838D02*
X174523Y19701933D01*
X174523Y19701933D02*
X126904Y19797171D01*
X126904Y19797171D02*
X79285Y19844790D01*
X79285Y19844790D02*
X-15953Y19892409D01*
X-15953Y19892409D02*
X-206429Y19892409D01*
X-206429Y19892409D02*
X-301667Y19844790D01*
X-301667Y19844790D02*
X-349286Y19797171D01*
X-349286Y19797171D02*
X-396905Y19701933D01*
X2654395Y20311461D02*
X2654395Y19501938D01*
X2654395Y19501938D02*
X2702014Y19406700D01*
X2702014Y19406700D02*
X2749633Y19359080D01*
X2749633Y19359080D02*
X2844871Y19311461D01*
X2844871Y19311461D02*
X3035347Y19311461D01*
X3035347Y19311461D02*
X3130585Y19359080D01*
X3130585Y19359080D02*
X3178204Y19406700D01*
X3178204Y19406700D02*
X3225823Y19501938D01*
X3225823Y19501938D02*
X3225823Y20311461D01*
X3606776Y20311461D02*
X4273442Y20311461D01*
X4273442Y20311461D02*
X3844871Y19311461D01*
X-13737815Y26441241D02*
X-13737815Y27441241D01*
X-13737815Y27441241D02*
X-13499720Y27441241D01*
X-13499720Y27441241D02*
X-13356863Y27393622D01*
X-13356863Y27393622D02*
X-13261625Y27298384D01*
X-13261625Y27298384D02*
X-13214006Y27203146D01*
X-13214006Y27203146D02*
X-13166387Y27012670D01*
X-13166387Y27012670D02*
X-13166387Y26869813D01*
X-13166387Y26869813D02*
X-13214006Y26679337D01*
X-13214006Y26679337D02*
X-13261625Y26584099D01*
X-13261625Y26584099D02*
X-13356863Y26488860D01*
X-13356863Y26488860D02*
X-13499720Y26441241D01*
X-13499720Y26441241D02*
X-13737815Y26441241D01*
X-12309244Y27441241D02*
X-12499720Y27441241D01*
X-12499720Y27441241D02*
X-12594958Y27393622D01*
X-12594958Y27393622D02*
X-12642577Y27346003D01*
X-12642577Y27346003D02*
X-12737815Y27203146D01*
X-12737815Y27203146D02*
X-12785434Y27012670D01*
X-12785434Y27012670D02*
X-12785434Y26631718D01*
X-12785434Y26631718D02*
X-12737815Y26536480D01*
X-12737815Y26536480D02*
X-12690196Y26488860D01*
X-12690196Y26488860D02*
X-12594958Y26441241D01*
X-12594958Y26441241D02*
X-12404482Y26441241D01*
X-12404482Y26441241D02*
X-12309244Y26488860D01*
X-12309244Y26488860D02*
X-12261625Y26536480D01*
X-12261625Y26536480D02*
X-12214006Y26631718D01*
X-12214006Y26631718D02*
X-12214006Y26869813D01*
X-12214006Y26869813D02*
X-12261625Y26965051D01*
X-12261625Y26965051D02*
X-12309244Y27012670D01*
X-12309244Y27012670D02*
X-12404482Y27060289D01*
X-12404482Y27060289D02*
X-12594958Y27060289D01*
X-12594958Y27060289D02*
X-12690196Y27012670D01*
X-12690196Y27012670D02*
X-12737815Y26965051D01*
X-12737815Y26965051D02*
X-12785434Y26869813D01*
X-4960858Y6149181D02*
X-5294191Y6625372D01*
X-5532286Y6149181D02*
X-5532286Y7149181D01*
X-5532286Y7149181D02*
X-5151334Y7149181D01*
X-5151334Y7149181D02*
X-5056096Y7101562D01*
X-5056096Y7101562D02*
X-5008477Y7053943D01*
X-5008477Y7053943D02*
X-4960858Y6958705D01*
X-4960858Y6958705D02*
X-4960858Y6815848D01*
X-4960858Y6815848D02*
X-5008477Y6720610D01*
X-5008477Y6720610D02*
X-5056096Y6672991D01*
X-5056096Y6672991D02*
X-5151334Y6625372D01*
X-5151334Y6625372D02*
X-5532286Y6625372D01*
X-4579905Y7053943D02*
X-4532286Y7101562D01*
X-4532286Y7101562D02*
X-4437048Y7149181D01*
X-4437048Y7149181D02*
X-4198953Y7149181D01*
X-4198953Y7149181D02*
X-4103715Y7101562D01*
X-4103715Y7101562D02*
X-4056096Y7053943D01*
X-4056096Y7053943D02*
X-4008477Y6958705D01*
X-4008477Y6958705D02*
X-4008477Y6863467D01*
X-4008477Y6863467D02*
X-4056096Y6720610D01*
X-4056096Y6720610D02*
X-4627524Y6149181D01*
X-4627524Y6149181D02*
X-4008477Y6149181D01*
X-3532286Y6149181D02*
X-3341810Y6149181D01*
X-3341810Y6149181D02*
X-3246572Y6196800D01*
X-3246572Y6196800D02*
X-3198953Y6244420D01*
X-3198953Y6244420D02*
X-3103715Y6387277D01*
X-3103715Y6387277D02*
X-3056096Y6577753D01*
X-3056096Y6577753D02*
X-3056096Y6958705D01*
X-3056096Y6958705D02*
X-3103715Y7053943D01*
X-3103715Y7053943D02*
X-3151334Y7101562D01*
X-3151334Y7101562D02*
X-3246572Y7149181D01*
X-3246572Y7149181D02*
X-3437048Y7149181D01*
X-3437048Y7149181D02*
X-3532286Y7101562D01*
X-3532286Y7101562D02*
X-3579905Y7053943D01*
X-3579905Y7053943D02*
X-3627524Y6958705D01*
X-3627524Y6958705D02*
X-3627524Y6720610D01*
X-3627524Y6720610D02*
X-3579905Y6625372D01*
X-3579905Y6625372D02*
X-3532286Y6577753D01*
X-3532286Y6577753D02*
X-3437048Y6530134D01*
X-3437048Y6530134D02*
X-3246572Y6530134D01*
X-3246572Y6530134D02*
X-3151334Y6577753D01*
X-3151334Y6577753D02*
X-3103715Y6625372D01*
X-3103715Y6625372D02*
X-3056096Y6720610D01*
X7666819Y-896857D02*
X7190628Y-1230190D01*
X7666819Y-1468285D02*
X6666819Y-1468285D01*
X6666819Y-1468285D02*
X6666819Y-1087333D01*
X6666819Y-1087333D02*
X6714438Y-992095D01*
X6714438Y-992095D02*
X6762057Y-944476D01*
X6762057Y-944476D02*
X6857295Y-896857D01*
X6857295Y-896857D02*
X7000152Y-896857D01*
X7000152Y-896857D02*
X7095390Y-944476D01*
X7095390Y-944476D02*
X7143009Y-992095D01*
X7143009Y-992095D02*
X7190628Y-1087333D01*
X7190628Y-1087333D02*
X7190628Y-1468285D01*
X6666819Y-563523D02*
X6666819Y55524D01*
X6666819Y55524D02*
X7047771Y-277809D01*
X7047771Y-277809D02*
X7047771Y-134952D01*
X7047771Y-134952D02*
X7095390Y-39714D01*
X7095390Y-39714D02*
X7143009Y7905D01*
X7143009Y7905D02*
X7238247Y55524D01*
X7238247Y55524D02*
X7476342Y55524D01*
X7476342Y55524D02*
X7571580Y7905D01*
X7571580Y7905D02*
X7619200Y-39714D01*
X7619200Y-39714D02*
X7666819Y-134952D01*
X7666819Y-134952D02*
X7666819Y-420666D01*
X7666819Y-420666D02*
X7619200Y-515904D01*
X7619200Y-515904D02*
X7571580Y-563523D01*
X6666819Y674572D02*
X6666819Y769810D01*
X6666819Y769810D02*
X6714438Y865048D01*
X6714438Y865048D02*
X6762057Y912667D01*
X6762057Y912667D02*
X6857295Y960286D01*
X6857295Y960286D02*
X7047771Y1007905D01*
X7047771Y1007905D02*
X7285866Y1007905D01*
X7285866Y1007905D02*
X7476342Y960286D01*
X7476342Y960286D02*
X7571580Y912667D01*
X7571580Y912667D02*
X7619200Y865048D01*
X7619200Y865048D02*
X7666819Y769810D01*
X7666819Y769810D02*
X7666819Y674572D01*
X7666819Y674572D02*
X7619200Y579334D01*
X7619200Y579334D02*
X7571580Y531715D01*
X7571580Y531715D02*
X7476342Y484096D01*
X7476342Y484096D02*
X7285866Y436477D01*
X7285866Y436477D02*
X7047771Y436477D01*
X7047771Y436477D02*
X6857295Y484096D01*
X6857295Y484096D02*
X6762057Y531715D01*
X6762057Y531715D02*
X6714438Y579334D01*
X6714438Y579334D02*
X6666819Y674572D01*
X3421142Y6498420D02*
X3373523Y6450800D01*
X3373523Y6450800D02*
X3230666Y6403181D01*
X3230666Y6403181D02*
X3135428Y6403181D01*
X3135428Y6403181D02*
X2992571Y6450800D01*
X2992571Y6450800D02*
X2897333Y6546039D01*
X2897333Y6546039D02*
X2849714Y6641277D01*
X2849714Y6641277D02*
X2802095Y6831753D01*
X2802095Y6831753D02*
X2802095Y6974610D01*
X2802095Y6974610D02*
X2849714Y7165086D01*
X2849714Y7165086D02*
X2897333Y7260324D01*
X2897333Y7260324D02*
X2992571Y7355562D01*
X2992571Y7355562D02*
X3135428Y7403181D01*
X3135428Y7403181D02*
X3230666Y7403181D01*
X3230666Y7403181D02*
X3373523Y7355562D01*
X3373523Y7355562D02*
X3421142Y7307943D01*
X4373523Y6403181D02*
X3802095Y6403181D01*
X4087809Y6403181D02*
X4087809Y7403181D01*
X4087809Y7403181D02*
X3992571Y7260324D01*
X3992571Y7260324D02*
X3897333Y7165086D01*
X3897333Y7165086D02*
X3802095Y7117467D01*
X4706857Y7403181D02*
X5325904Y7403181D01*
X5325904Y7403181D02*
X4992571Y7022229D01*
X4992571Y7022229D02*
X5135428Y7022229D01*
X5135428Y7022229D02*
X5230666Y6974610D01*
X5230666Y6974610D02*
X5278285Y6926991D01*
X5278285Y6926991D02*
X5325904Y6831753D01*
X5325904Y6831753D02*
X5325904Y6593658D01*
X5325904Y6593658D02*
X5278285Y6498420D01*
X5278285Y6498420D02*
X5230666Y6450800D01*
X5230666Y6450800D02*
X5135428Y6403181D01*
X5135428Y6403181D02*
X4849714Y6403181D01*
X4849714Y6403181D02*
X4754476Y6450800D01*
X4754476Y6450800D02*
X4706857Y6498420D01*
X-629858Y-16775580D02*
X-677477Y-16823200D01*
X-677477Y-16823200D02*
X-820334Y-16870819D01*
X-820334Y-16870819D02*
X-915572Y-16870819D01*
X-915572Y-16870819D02*
X-1058429Y-16823200D01*
X-1058429Y-16823200D02*
X-1153667Y-16727961D01*
X-1153667Y-16727961D02*
X-1201286Y-16632723D01*
X-1201286Y-16632723D02*
X-1248905Y-16442247D01*
X-1248905Y-16442247D02*
X-1248905Y-16299390D01*
X-1248905Y-16299390D02*
X-1201286Y-16108914D01*
X-1201286Y-16108914D02*
X-1153667Y-16013676D01*
X-1153667Y-16013676D02*
X-1058429Y-15918438D01*
X-1058429Y-15918438D02*
X-915572Y-15870819D01*
X-915572Y-15870819D02*
X-820334Y-15870819D01*
X-820334Y-15870819D02*
X-677477Y-15918438D01*
X-677477Y-15918438D02*
X-629858Y-15966057D01*
X-296524Y-15870819D02*
X322523Y-15870819D01*
X322523Y-15870819D02*
X-10810Y-16251771D01*
X-10810Y-16251771D02*
X132047Y-16251771D01*
X132047Y-16251771D02*
X227285Y-16299390D01*
X227285Y-16299390D02*
X274904Y-16347009D01*
X274904Y-16347009D02*
X322523Y-16442247D01*
X322523Y-16442247D02*
X322523Y-16680342D01*
X322523Y-16680342D02*
X274904Y-16775580D01*
X274904Y-16775580D02*
X227285Y-16823200D01*
X227285Y-16823200D02*
X132047Y-16870819D01*
X132047Y-16870819D02*
X-153667Y-16870819D01*
X-153667Y-16870819D02*
X-248905Y-16823200D01*
X-248905Y-16823200D02*
X-296524Y-16775580D01*
X1274904Y-16870819D02*
X703476Y-16870819D01*
X989190Y-16870819D02*
X989190Y-15870819D01*
X989190Y-15870819D02*
X893952Y-16013676D01*
X893952Y-16013676D02*
X798714Y-16108914D01*
X798714Y-16108914D02*
X703476Y-16156533D01*
X5492761Y10117943D02*
X5397523Y10165562D01*
X5397523Y10165562D02*
X5302285Y10260800D01*
X5302285Y10260800D02*
X5159428Y10403658D01*
X5159428Y10403658D02*
X5064190Y10451277D01*
X5064190Y10451277D02*
X4968952Y10451277D01*
X5016571Y10213181D02*
X4921333Y10260800D01*
X4921333Y10260800D02*
X4826095Y10356039D01*
X4826095Y10356039D02*
X4778476Y10546515D01*
X4778476Y10546515D02*
X4778476Y10879848D01*
X4778476Y10879848D02*
X4826095Y11070324D01*
X4826095Y11070324D02*
X4921333Y11165562D01*
X4921333Y11165562D02*
X5016571Y11213181D01*
X5016571Y11213181D02*
X5207047Y11213181D01*
X5207047Y11213181D02*
X5302285Y11165562D01*
X5302285Y11165562D02*
X5397523Y11070324D01*
X5397523Y11070324D02*
X5445142Y10879848D01*
X5445142Y10879848D02*
X5445142Y10546515D01*
X5445142Y10546515D02*
X5397523Y10356039D01*
X5397523Y10356039D02*
X5302285Y10260800D01*
X5302285Y10260800D02*
X5207047Y10213181D01*
X5207047Y10213181D02*
X5016571Y10213181D01*
X5778476Y11213181D02*
X6445142Y11213181D01*
X6445142Y11213181D02*
X6016571Y10213181D01*
X2151142Y-14235580D02*
X2103523Y-14283200D01*
X2103523Y-14283200D02*
X1960666Y-14330819D01*
X1960666Y-14330819D02*
X1865428Y-14330819D01*
X1865428Y-14330819D02*
X1722571Y-14283200D01*
X1722571Y-14283200D02*
X1627333Y-14187961D01*
X1627333Y-14187961D02*
X1579714Y-14092723D01*
X1579714Y-14092723D02*
X1532095Y-13902247D01*
X1532095Y-13902247D02*
X1532095Y-13759390D01*
X1532095Y-13759390D02*
X1579714Y-13568914D01*
X1579714Y-13568914D02*
X1627333Y-13473676D01*
X1627333Y-13473676D02*
X1722571Y-13378438D01*
X1722571Y-13378438D02*
X1865428Y-13330819D01*
X1865428Y-13330819D02*
X1960666Y-13330819D01*
X1960666Y-13330819D02*
X2103523Y-13378438D01*
X2103523Y-13378438D02*
X2151142Y-13426057D01*
X3103523Y-14330819D02*
X2532095Y-14330819D01*
X2817809Y-14330819D02*
X2817809Y-13330819D01*
X2817809Y-13330819D02*
X2722571Y-13473676D01*
X2722571Y-13473676D02*
X2627333Y-13568914D01*
X2627333Y-13568914D02*
X2532095Y-13616533D01*
X4008285Y-13330819D02*
X3532095Y-13330819D01*
X3532095Y-13330819D02*
X3484476Y-13807009D01*
X3484476Y-13807009D02*
X3532095Y-13759390D01*
X3532095Y-13759390D02*
X3627333Y-13711771D01*
X3627333Y-13711771D02*
X3865428Y-13711771D01*
X3865428Y-13711771D02*
X3960666Y-13759390D01*
X3960666Y-13759390D02*
X4008285Y-13807009D01*
X4008285Y-13807009D02*
X4055904Y-13902247D01*
X4055904Y-13902247D02*
X4055904Y-14140342D01*
X4055904Y-14140342D02*
X4008285Y-14235580D01*
X4008285Y-14235580D02*
X3960666Y-14283200D01*
X3960666Y-14283200D02*
X3865428Y-14330819D01*
X3865428Y-14330819D02*
X3627333Y-14330819D01*
X3627333Y-14330819D02*
X3532095Y-14283200D01*
X3532095Y-14283200D02*
X3484476Y-14235580D01*
X-5683239Y7577943D02*
X-5778477Y7625562D01*
X-5778477Y7625562D02*
X-5873715Y7720800D01*
X-5873715Y7720800D02*
X-6016572Y7863658D01*
X-6016572Y7863658D02*
X-6111810Y7911277D01*
X-6111810Y7911277D02*
X-6207048Y7911277D01*
X-6159429Y7673181D02*
X-6254667Y7720800D01*
X-6254667Y7720800D02*
X-6349905Y7816039D01*
X-6349905Y7816039D02*
X-6397524Y8006515D01*
X-6397524Y8006515D02*
X-6397524Y8339848D01*
X-6397524Y8339848D02*
X-6349905Y8530324D01*
X-6349905Y8530324D02*
X-6254667Y8625562D01*
X-6254667Y8625562D02*
X-6159429Y8673181D01*
X-6159429Y8673181D02*
X-5968953Y8673181D01*
X-5968953Y8673181D02*
X-5873715Y8625562D01*
X-5873715Y8625562D02*
X-5778477Y8530324D01*
X-5778477Y8530324D02*
X-5730858Y8339848D01*
X-5730858Y8339848D02*
X-5730858Y8006515D01*
X-5730858Y8006515D02*
X-5778477Y7816039D01*
X-5778477Y7816039D02*
X-5873715Y7720800D01*
X-5873715Y7720800D02*
X-5968953Y7673181D01*
X-5968953Y7673181D02*
X-6159429Y7673181D01*
X-4873715Y8673181D02*
X-5064191Y8673181D01*
X-5064191Y8673181D02*
X-5159429Y8625562D01*
X-5159429Y8625562D02*
X-5207048Y8577943D01*
X-5207048Y8577943D02*
X-5302286Y8435086D01*
X-5302286Y8435086D02*
X-5349905Y8244610D01*
X-5349905Y8244610D02*
X-5349905Y7863658D01*
X-5349905Y7863658D02*
X-5302286Y7768420D01*
X-5302286Y7768420D02*
X-5254667Y7720800D01*
X-5254667Y7720800D02*
X-5159429Y7673181D01*
X-5159429Y7673181D02*
X-4968953Y7673181D01*
X-4968953Y7673181D02*
X-4873715Y7720800D01*
X-4873715Y7720800D02*
X-4826096Y7768420D01*
X-4826096Y7768420D02*
X-4778477Y7863658D01*
X-4778477Y7863658D02*
X-4778477Y8101753D01*
X-4778477Y8101753D02*
X-4826096Y8196991D01*
X-4826096Y8196991D02*
X-4873715Y8244610D01*
X-4873715Y8244610D02*
X-4968953Y8292229D01*
X-4968953Y8292229D02*
X-5159429Y8292229D01*
X-5159429Y8292229D02*
X-5254667Y8244610D01*
X-5254667Y8244610D02*
X-5302286Y8196991D01*
X-5302286Y8196991D02*
X-5349905Y8101753D01*
D11*
%TO.C,C1*%
X-6557600Y12056164D02*
X-6557600Y12271836D01*
X-5837600Y12056164D02*
X-5837600Y12271836D01*
%TO.C,C2*%
X-17030020Y18136984D02*
X-17030020Y18352656D01*
X-16310020Y18136984D02*
X-16310020Y18352656D01*
%TO.C,C3*%
X-12350636Y16176580D02*
X-12134964Y16176580D01*
X-12350636Y15456580D02*
X-12134964Y15456580D01*
%TO.C,C4*%
X-16687120Y15393556D02*
X-16687120Y15177884D01*
X-15967120Y15393556D02*
X-15967120Y15177884D01*
%TO.C,C5*%
X-17964740Y15403716D02*
X-17964740Y15188044D01*
X-17244740Y15403716D02*
X-17244740Y15188044D01*
%TO.C,C6*%
X-11785548Y23330580D02*
X-13208052Y23330580D01*
X-11785548Y21510580D02*
X-13208052Y21510580D01*
%TO.C,C7*%
X12298000Y10822252D02*
X12298000Y9399748D01*
X14118000Y10822252D02*
X14118000Y9399748D01*
%TO.C,C8*%
X-6769980Y-15893320D02*
X-6488820Y-15893320D01*
X-6769980Y-16913320D02*
X-6488820Y-16913320D01*
%TO.C,C9*%
X-6672252Y-17560620D02*
X-6149748Y-17560620D01*
X-6672252Y-19030620D02*
X-6149748Y-19030620D01*
%TO.C,C10*%
X-13638200Y3939212D02*
X-13638200Y3416708D01*
X-12168200Y3939212D02*
X-12168200Y3416708D01*
%TO.C,C11*%
X6704420Y-11682000D02*
X6985580Y-11682000D01*
X6704420Y-12702000D02*
X6985580Y-12702000D01*
%TO.C,C12*%
X-10647352Y-15617520D02*
X-10124848Y-15617520D01*
X-10647352Y-17087520D02*
X-10124848Y-17087520D01*
%TO.C,C14*%
X13714000Y-12813420D02*
X13714000Y-13094580D01*
X14734000Y-12813420D02*
X14734000Y-13094580D01*
%TO.C,C16*%
X9798164Y-19891420D02*
X10013836Y-19891420D01*
X9798164Y-20611420D02*
X10013836Y-20611420D01*
%TO.C,C17*%
X24013700Y-14867500D02*
X24013700Y-14586340D01*
X25033700Y-14867500D02*
X25033700Y-14586340D01*
%TO.C,C18*%
X17349800Y-16942168D02*
X17349800Y-17464672D01*
X18819800Y-16942168D02*
X18819800Y-17464672D01*
%TO.C,C19*%
X11741036Y20494580D02*
X11525364Y20494580D01*
X11741036Y19774580D02*
X11525364Y19774580D01*
%TO.C,C20*%
X9495200Y19038744D02*
X9495200Y19254416D01*
X10215200Y19038744D02*
X10215200Y19254416D01*
%TO.C,C21*%
X6072200Y18537328D02*
X6072200Y19059832D01*
X7542200Y18537328D02*
X7542200Y19059832D01*
%TO.C,C22*%
X1907948Y15027580D02*
X2430452Y15027580D01*
X1907948Y13557580D02*
X2430452Y13557580D01*
%TO.C,C23*%
X-8151800Y20061328D02*
X-8151800Y20583832D01*
X-6681800Y20061328D02*
X-6681800Y20583832D01*
%TO.C,C24*%
X-2903548Y15027580D02*
X-3426052Y15027580D01*
X-2903548Y13557580D02*
X-3426052Y13557580D01*
%TO.C,C25*%
X14838000Y10822252D02*
X14838000Y9399748D01*
X16658000Y10822252D02*
X16658000Y9399748D01*
%TO.C,C26*%
X16637580Y7114000D02*
X16356420Y7114000D01*
X16637580Y6094000D02*
X16356420Y6094000D01*
%TO.C,C27*%
X26725200Y5097832D02*
X26725200Y3675328D01*
X28545200Y5097832D02*
X28545200Y3675328D01*
%TO.C,C28*%
X23113948Y6058580D02*
X24536452Y6058580D01*
X23113948Y4238580D02*
X24536452Y4238580D01*
%TO.C,C29*%
X22553200Y-6676000D02*
X22553200Y-6394840D01*
X23573200Y-6676000D02*
X23573200Y-6394840D01*
%TO.C,C30*%
X5599820Y-18979420D02*
X5880980Y-18979420D01*
X5599820Y-19999420D02*
X5880980Y-19999420D01*
%TO.C,D2*%
X11342000Y-11708000D02*
X11342000Y-14258000D01*
X13042000Y-11708000D02*
X11342000Y-11708000D01*
X13042000Y-11708000D02*
X13042000Y-14258000D01*
%TO.C,D3*%
X-8101000Y26497080D02*
X-8101000Y24212080D01*
X-8101000Y24212080D02*
X-6631000Y24212080D01*
X-6631000Y24212080D02*
X-6631000Y26497080D01*
%TO.C,D4*%
X6406000Y26976580D02*
X6406000Y24291580D01*
X6406000Y24291580D02*
X8326000Y24291580D01*
X8326000Y24291580D02*
X8326000Y26976580D01*
%TO.C,D5*%
X-13600800Y16856580D02*
X-13600800Y19406580D01*
X-13600800Y16856580D02*
X-11900800Y16856580D01*
X-11900800Y16856580D02*
X-11900800Y19406580D01*
%TO.C,D7*%
X673200Y22566580D02*
X673200Y21766580D01*
X1973200Y22566580D02*
X673200Y22566580D01*
X1973200Y21766580D02*
X673200Y21766580D01*
%TO.C,D8*%
X-1566800Y22566580D02*
X-266800Y22566580D01*
X-1566800Y21766580D02*
X-266800Y21766580D01*
X-266800Y21766580D02*
X-266800Y22566580D01*
%TO.C,D9*%
X-18306800Y22158580D02*
X-18306800Y22818580D01*
X-18306800Y20498580D02*
X-18306800Y21158580D01*
X-18306800Y20498580D02*
X-16276800Y20498580D01*
X-16896800Y22818580D02*
X-18306800Y22818580D01*
%TO.C,D11*%
X5728600Y-21853220D02*
X5728600Y-23323220D01*
X5728600Y-23323220D02*
X8013600Y-23323220D01*
X8013600Y-21853220D02*
X5728600Y-21853220D01*
%TO.C,J1*%
X-6256680Y23774040D02*
X-6256680Y28174040D01*
X-5806680Y28624040D02*
X-6256680Y28174040D01*
X-5806680Y23324040D02*
X-6256680Y23774040D01*
X-4606680Y28624040D02*
X-5806680Y28624040D01*
X-4606680Y23324040D02*
X-5806680Y23324040D01*
X6043320Y28624040D02*
X4393320Y28624040D01*
X6043320Y23324040D02*
X4393320Y23324040D01*
X6043320Y23324040D02*
X6043320Y28624040D01*
D10*
X3505123Y23474040D02*
G75*
G02*
X3281517Y23474040I-111803J0D01*
G01*
X3281517Y23474040D02*
G75*
G02*
X3505123Y23474040I111803J0D01*
G01*
D11*
%TO.C,Q1*%
X19540000Y11166000D02*
X17380000Y11166000D01*
X19540000Y11166000D02*
X19540000Y10236000D01*
X19540000Y8006000D02*
X18080000Y8006000D01*
X19540000Y8006000D02*
X19540000Y8936000D01*
%TO.C,Q2*%
X4630000Y-7868000D02*
X4630000Y-8798000D01*
X4630000Y-7868000D02*
X6090000Y-7868000D01*
X4630000Y-11028000D02*
X4630000Y-10098000D01*
X4630000Y-11028000D02*
X6790000Y-11028000D01*
%TO.C,Q3*%
X8638000Y-7818000D02*
X8638000Y-8748000D01*
X8638000Y-7818000D02*
X10098000Y-7818000D01*
X8638000Y-10978000D02*
X8638000Y-10048000D01*
X8638000Y-10978000D02*
X10798000Y-10978000D01*
%TO.C,Q4*%
X20204400Y-15725020D02*
X20204400Y-16655020D01*
X20204400Y-15725020D02*
X21664400Y-15725020D01*
X20204400Y-18885020D02*
X20204400Y-17955020D01*
X20204400Y-18885020D02*
X22364400Y-18885020D01*
%TO.C,Q5*%
X-10774800Y13786580D02*
X-10774800Y15246580D01*
X-10774800Y13786580D02*
X-9844800Y13786580D01*
X-7614800Y13786580D02*
X-8544800Y13786580D01*
X-7614800Y13786580D02*
X-7614800Y15946580D01*
%TO.C,R1*%
X-20786360Y5909281D02*
X-20786360Y5601999D01*
X-20026360Y5909281D02*
X-20026360Y5601999D01*
%TO.C,R2*%
X-12368800Y13884939D02*
X-12368800Y14192221D01*
X-11608800Y13884939D02*
X-11608800Y14192221D01*
%TO.C,R3*%
X-6720100Y16201122D02*
X-6720100Y16675638D01*
X-5675100Y16201122D02*
X-5675100Y16675638D01*
%TO.C,R4*%
X-13561761Y7603760D02*
X-13254479Y7603760D01*
X-13561761Y6843760D02*
X-13254479Y6843760D01*
%TO.C,R5*%
X-15305300Y18119322D02*
X-15305300Y18593838D01*
X-14260300Y18119322D02*
X-14260300Y18593838D01*
%TO.C,R6*%
X-15460240Y3354302D02*
X-15460240Y3828818D01*
X-14415240Y3354302D02*
X-14415240Y3828818D01*
%TO.C,R7*%
X-12560838Y10413260D02*
X-12086322Y10413260D01*
X-12560838Y9368260D02*
X-12086322Y9368260D01*
%TO.C,R8*%
X1731742Y-10399500D02*
X2206258Y-10399500D01*
X1731742Y-11444500D02*
X2206258Y-11444500D01*
%TO.C,R9*%
X16384000Y3400359D02*
X16384000Y3707641D01*
X17144000Y3400359D02*
X17144000Y3707641D01*
%TO.C,R10*%
X11786359Y-22106620D02*
X12093641Y-22106620D01*
X11786359Y-22866620D02*
X12093641Y-22866620D01*
%TO.C,R11*%
X12040841Y-20989020D02*
X11733559Y-20989020D01*
X12040841Y-21749020D02*
X11733559Y-21749020D01*
%TO.C,R12*%
X12399742Y-23386520D02*
X12874258Y-23386520D01*
X12399742Y-24431520D02*
X12874258Y-24431520D01*
%TO.C,R13*%
X24325000Y-6082156D02*
X24325000Y-10436284D01*
X27745000Y-6082156D02*
X27745000Y-10436284D01*
%TO.C,R14*%
X14405342Y-21557720D02*
X14879858Y-21557720D01*
X14405342Y-22602720D02*
X14879858Y-22602720D01*
%TO.C,R15*%
X-14815080Y14619202D02*
X-14815080Y15093718D01*
X-13770080Y14619202D02*
X-13770080Y15093718D01*
%TO.C,R16*%
X-17808478Y6067320D02*
X-17333962Y6067320D01*
X-17808478Y5022320D02*
X-17333962Y5022320D01*
%TO.C,R17*%
X16079200Y-17206661D02*
X16079200Y-16899379D01*
X16839200Y-17206661D02*
X16839200Y-16899379D01*
%TO.C,R18*%
X-12982641Y8782320D02*
X-12675359Y8782320D01*
X-12982641Y8022320D02*
X-12675359Y8022320D01*
%TO.C,R19*%
X8967200Y14390939D02*
X8967200Y14698221D01*
X9727200Y14390939D02*
X9727200Y14698221D01*
%TO.C,R20*%
X16407641Y5460000D02*
X16100359Y5460000D01*
X16407641Y4700000D02*
X16100359Y4700000D01*
%TO.C,R21*%
X6222241Y-24227520D02*
X5914959Y-24227520D01*
X6222241Y-24987520D02*
X5914959Y-24987520D01*
%TO.C,R22*%
X18238441Y-19312620D02*
X17931159Y-19312620D01*
X18238441Y-20072620D02*
X17931159Y-20072620D01*
%TO.C,R23*%
X16079200Y-19441861D02*
X16079200Y-19134579D01*
X16839200Y-19441861D02*
X16839200Y-19134579D01*
%TO.C,R24*%
X-9681480Y24925779D02*
X-9681480Y25233061D01*
X-8921480Y24925779D02*
X-8921480Y25233061D01*
%TO.C,R25*%
X10463559Y27372580D02*
X10770841Y27372580D01*
X10463559Y26612580D02*
X10770841Y26612580D01*
%TO.C,R26*%
X9701559Y-22157420D02*
X10008841Y-22157420D01*
X9701559Y-22917420D02*
X10008841Y-22917420D01*
%TO.C,R27*%
X8063259Y-24240220D02*
X8370541Y-24240220D01*
X8063259Y-25000220D02*
X8370541Y-25000220D01*
%TO.C,R28*%
X10463559Y25848580D02*
X10770841Y25848580D01*
X10463559Y25088580D02*
X10770841Y25088580D01*
%TO.C,TH1*%
X6424400Y-26757862D02*
X6424400Y-27232378D01*
X7469400Y-26757862D02*
X7469400Y-27232378D01*
%TO.C,U1*%
X-19691880Y7468340D02*
X-19691880Y7943340D01*
X-19216880Y11688340D02*
X-19691880Y11688340D01*
X-19216880Y7468340D02*
X-19691880Y7468340D01*
X-15946880Y11688340D02*
X-15471880Y11688340D01*
X-15946880Y7468340D02*
X-15471880Y7468340D01*
X-15471880Y11688340D02*
X-15471880Y11213340D01*
X-15471880Y7468340D02*
X-15471880Y7943340D01*
D10*
%TO.C,U2*%
X-9976700Y-8209720D02*
X-9976700Y-12709720D01*
X-4426700Y-7084720D02*
X-4426700Y-12709720D01*
D11*
%TO.C,U3*%
X6221200Y-18043420D02*
X6221200Y-17568420D01*
X6696200Y-13823420D02*
X6221200Y-13823420D01*
X6696200Y-18043420D02*
X6221200Y-18043420D01*
X9966200Y-13823420D02*
X10441200Y-13823420D01*
X9966200Y-18043420D02*
X10441200Y-18043420D01*
X10441200Y-13823420D02*
X10441200Y-14298420D01*
X10441200Y-18043420D02*
X10441200Y-17568420D01*
%TO.C,U5*%
X11055200Y18934580D02*
X11780200Y18934580D01*
X11055200Y18209580D02*
X11055200Y18934580D01*
X11055200Y14439580D02*
X11055200Y13714580D01*
X11055200Y13714580D02*
X11780200Y13714580D01*
X16275200Y18209580D02*
X16275200Y18934580D01*
X16275200Y14439580D02*
X16275200Y13714580D01*
X16275200Y13714580D02*
X15550200Y13714580D01*
%TO.C,U6*%
X-4536800Y20232580D02*
X-3396800Y20232580D01*
X-3396800Y20462580D02*
X-3396800Y20232580D01*
X-3396800Y20462580D02*
X-676800Y20462580D01*
X-3396800Y15742580D02*
X-3396800Y15972580D01*
X-676800Y20462580D02*
X-676800Y19152580D01*
X-676800Y17052580D02*
X-676800Y15742580D01*
X-676800Y15742580D02*
X-3396800Y15742580D01*
%TO.C,U7*%
X835700Y20232580D02*
X1975700Y20232580D01*
X1975700Y20462580D02*
X1975700Y20232580D01*
X1975700Y20462580D02*
X4695700Y20462580D01*
X1975700Y15742580D02*
X1975700Y15972580D01*
X4695700Y20462580D02*
X4695700Y19152580D01*
X4695700Y17052580D02*
X4695700Y15742580D01*
X4695700Y15742580D02*
X1975700Y15742580D01*
%TO.C,D6*%
X-10296800Y25960580D02*
X-14146800Y25960580D01*
X-10296800Y23960580D02*
X-14146800Y23960580D01*
X-10296800Y23960580D02*
X-10296800Y25960580D01*
%TO.C,R29*%
X-2642359Y8762000D02*
X-2949641Y8762000D01*
X-2642359Y8002000D02*
X-2949641Y8002000D01*
%TO.C,R30*%
X8002000Y-407641D02*
X8002000Y-100359D01*
X8762000Y-407641D02*
X8762000Y-100359D01*
%TO.C,C13*%
X1396420Y8892000D02*
X1677580Y8892000D01*
X1396420Y7872000D02*
X1677580Y7872000D01*
%TO.C,C31*%
X153580Y-14476000D02*
X-127580Y-14476000D01*
X153580Y-15496000D02*
X-127580Y-15496000D01*
%TO.C,Q7*%
X1602500Y12670000D02*
X952500Y12670000D01*
X1602500Y12670000D02*
X2252500Y12670000D01*
X1602500Y9550000D02*
X952500Y9550000D01*
X1602500Y9550000D02*
X2252500Y9550000D01*
X3005000Y9270000D02*
X2525000Y9270000D01*
X2765000Y9600000D01*
X3005000Y9270000D01*
G36*
X3005000Y9270000D02*
G01*
X2525000Y9270000D01*
X2765000Y9600000D01*
X3005000Y9270000D01*
G37*
%TO.C,C15*%
X2934580Y-11936000D02*
X2653420Y-11936000D01*
X2934580Y-12956000D02*
X2653420Y-12956000D01*
%TO.C,Q6*%
X-2461500Y12670000D02*
X-3111500Y12670000D01*
X-2461500Y12670000D02*
X-1811500Y12670000D01*
X-2461500Y9550000D02*
X-3111500Y9550000D01*
X-2461500Y9550000D02*
X-1811500Y9550000D01*
X-1059000Y9270000D02*
X-1539000Y9270000D01*
X-1299000Y9600000D01*
X-1059000Y9270000D01*
G36*
X-1059000Y9270000D02*
G01*
X-1539000Y9270000D01*
X-1299000Y9600000D01*
X-1059000Y9270000D01*
G37*
%TD*%
M02*
