%TF.GenerationSoftware,KiCad,Pcbnew,(5.1.9)-1*%
%TF.CreationDate,2022-06-19T12:24:27+03:00*%
%TF.ProjectId,jantteri-hit-detector,6a616e74-7465-4726-992d-6869742d6465,rev?*%
%TF.SameCoordinates,Original*%
%TF.FileFunction,Legend,Top*%
%TF.FilePolarity,Positive*%
%FSLAX46Y46*%
G04 Gerber Fmt 4.6, Leading zero omitted, Abs format (unit mm)*
G04 Created by KiCad (PCBNEW (5.1.9)-1) date 2022-06-19 12:24:27*
%MOMM*%
%LPD*%
G01*
G04 APERTURE LIST*
%ADD10C,0.120000*%
%ADD11C,0.150000*%
G04 APERTURE END LIST*
D10*
%TO.C,C1*%
X98150000Y-47956948D02*
X98150000Y-49379452D01*
X99970000Y-47956948D02*
X99970000Y-49379452D01*
%TO.C,C2*%
X92454820Y-46429200D02*
X92735980Y-46429200D01*
X92454820Y-47449200D02*
X92735980Y-47449200D01*
%TO.C,C3*%
X96088780Y-47449200D02*
X95807620Y-47449200D01*
X96088780Y-46429200D02*
X95807620Y-46429200D01*
%TO.C,C4*%
X94740000Y-49325620D02*
X94740000Y-49606780D01*
X95760000Y-49325620D02*
X95760000Y-49606780D01*
%TO.C,C5*%
X97436400Y-49351620D02*
X97436400Y-49632780D01*
X96416400Y-49351620D02*
X96416400Y-49632780D01*
%TO.C,C6*%
X93063600Y-49300820D02*
X93063600Y-49581980D01*
X94083600Y-49300820D02*
X94083600Y-49581980D01*
%TO.C,C7*%
X91285600Y-49300820D02*
X91285600Y-49581980D01*
X92305600Y-49300820D02*
X92305600Y-49581980D01*
%TO.C,C8*%
X94098164Y-45978400D02*
X94313836Y-45978400D01*
X94098164Y-45258400D02*
X94313836Y-45258400D01*
%TO.C,C9*%
X94735764Y-40584800D02*
X94951436Y-40584800D01*
X94735764Y-41304800D02*
X94951436Y-41304800D01*
%TO.C,C12*%
X104925400Y-40145580D02*
X104925400Y-39864420D01*
X105945400Y-40145580D02*
X105945400Y-39864420D01*
%TO.C,C13*%
X107532900Y-40132580D02*
X107532900Y-39851420D01*
X106512900Y-40132580D02*
X106512900Y-39851420D01*
%TO.C,C14*%
X140108400Y-40132580D02*
X140108400Y-39851420D01*
X139088400Y-40132580D02*
X139088400Y-39851420D01*
%TO.C,C15*%
X140739400Y-40132580D02*
X140739400Y-39851420D01*
X141759400Y-40132580D02*
X141759400Y-39851420D01*
%TO.C,C16*%
X72442800Y-40157980D02*
X72442800Y-39876820D01*
X71422800Y-40157980D02*
X71422800Y-39876820D01*
%TO.C,C17*%
X69848000Y-40157980D02*
X69848000Y-39876820D01*
X70868000Y-40157980D02*
X70868000Y-39876820D01*
%TO.C,C18*%
X130005148Y-50014200D02*
X130527652Y-50014200D01*
X130005148Y-51484200D02*
X130527652Y-51484200D01*
%TO.C,C19*%
X117629000Y-46916748D02*
X117629000Y-47439252D01*
X119099000Y-46916748D02*
X119099000Y-47439252D01*
%TO.C,D1*%
X94017100Y-51233400D02*
X91732100Y-51233400D01*
X94017100Y-52703400D02*
X94017100Y-51233400D01*
X91732100Y-52703400D02*
X94017100Y-52703400D01*
%TO.C,FB1*%
X129846000Y-47647922D02*
X129846000Y-46848678D01*
X128726000Y-47647922D02*
X128726000Y-46848678D01*
%TO.C,J1*%
X134558400Y-46142000D02*
X134558400Y-46942000D01*
X135358400Y-46142000D02*
X134558400Y-46142000D01*
X140118400Y-49662000D02*
X140118400Y-49262000D01*
X140218400Y-49262000D02*
X140218400Y-49662000D01*
X140018400Y-49262000D02*
X140218400Y-49262000D01*
X140018400Y-49662000D02*
X140018400Y-49262000D01*
X138618400Y-49662000D02*
X138618400Y-49262000D01*
X138718400Y-49262000D02*
X138718400Y-49662000D01*
X138518400Y-49262000D02*
X138718400Y-49262000D01*
X138518400Y-49662000D02*
X138518400Y-49262000D01*
X137118400Y-49662000D02*
X137118400Y-49262000D01*
X137218400Y-49262000D02*
X137218400Y-49662000D01*
X137018400Y-49262000D02*
X137218400Y-49262000D01*
X137018400Y-49662000D02*
X137018400Y-49262000D01*
X142478400Y-48252000D02*
X142078400Y-48252000D01*
X142478400Y-47252000D02*
X142078400Y-47252000D01*
X134758400Y-48252000D02*
X135158400Y-48252000D01*
X134758400Y-47252000D02*
X135158400Y-47252000D01*
X142078400Y-46742000D02*
X135158400Y-46742000D01*
X142078400Y-49662000D02*
X142078400Y-46742000D01*
X135158400Y-49662000D02*
X142078400Y-49662000D01*
X135158400Y-46742000D02*
X135158400Y-49662000D01*
X136068400Y-46242000D02*
X135768400Y-46242000D01*
X135768400Y-46142000D02*
X135768400Y-46342000D01*
X136068400Y-46142000D02*
X135768400Y-46142000D01*
X136068400Y-46342000D02*
X136068400Y-46142000D01*
X142478400Y-46342000D02*
X134758400Y-46342000D01*
X142478400Y-50062000D02*
X142478400Y-46342000D01*
X134758400Y-50062000D02*
X142478400Y-50062000D01*
X134758400Y-46342000D02*
X134758400Y-50062000D01*
%TO.C,J2*%
X67157600Y-47498000D02*
X67157600Y-46863000D01*
X67157600Y-46863000D02*
X67792600Y-46863000D01*
%TO.C,R1*%
X91921600Y-44195241D02*
X91921600Y-43887959D01*
X91161600Y-44195241D02*
X91161600Y-43887959D01*
%TO.C,R2*%
X96574041Y-52348400D02*
X96266759Y-52348400D01*
X96574041Y-51588400D02*
X96266759Y-51588400D01*
%TO.C,U1*%
X88903200Y-49134000D02*
X90193200Y-49134000D01*
X88903200Y-49584000D02*
X88903200Y-49134000D01*
X88453200Y-49584000D02*
X88903200Y-49584000D01*
X81683200Y-49584000D02*
X81683200Y-49134000D01*
X82133200Y-49584000D02*
X81683200Y-49584000D01*
X88903200Y-42364000D02*
X88903200Y-42814000D01*
X88453200Y-42364000D02*
X88903200Y-42364000D01*
X81683200Y-42364000D02*
X81683200Y-42814000D01*
X82133200Y-42364000D02*
X81683200Y-42364000D01*
%TO.C,U3*%
X102214500Y-41889500D02*
X102214500Y-41889500D01*
X102714500Y-41889500D02*
X102214500Y-41889500D01*
X102214500Y-43589500D02*
X102214500Y-43589500D01*
X102214500Y-44089500D02*
X102214500Y-43589500D01*
X102714500Y-44089500D02*
X102214500Y-44089500D01*
X103914500Y-44089500D02*
X103914500Y-44089500D01*
X104414500Y-44089500D02*
X103914500Y-44089500D01*
X104414500Y-43589500D02*
X104414500Y-44089500D01*
X104414500Y-42389500D02*
X104414500Y-42389500D01*
X104414500Y-41889500D02*
X104414500Y-42389500D01*
X103914500Y-41889500D02*
X104414500Y-41889500D01*
%TO.C,U4*%
X138903000Y-41889500D02*
X139403000Y-41889500D01*
X139403000Y-41889500D02*
X139403000Y-42389500D01*
X139403000Y-42389500D02*
X139403000Y-42389500D01*
X139403000Y-43589500D02*
X139403000Y-44089500D01*
X139403000Y-44089500D02*
X138903000Y-44089500D01*
X138903000Y-44089500D02*
X138903000Y-44089500D01*
X137703000Y-44089500D02*
X137203000Y-44089500D01*
X137203000Y-44089500D02*
X137203000Y-43589500D01*
X137203000Y-43589500D02*
X137203000Y-43589500D01*
X137703000Y-41889500D02*
X137203000Y-41889500D01*
X137203000Y-41889500D02*
X137203000Y-41889500D01*
%TO.C,U5*%
X67162500Y-41889500D02*
X67162500Y-41889500D01*
X67662500Y-41889500D02*
X67162500Y-41889500D01*
X67162500Y-43589500D02*
X67162500Y-43589500D01*
X67162500Y-44089500D02*
X67162500Y-43589500D01*
X67662500Y-44089500D02*
X67162500Y-44089500D01*
X68862500Y-44089500D02*
X68862500Y-44089500D01*
X69362500Y-44089500D02*
X68862500Y-44089500D01*
X69362500Y-43589500D02*
X69362500Y-44089500D01*
X69362500Y-42389500D02*
X69362500Y-42389500D01*
X69362500Y-41889500D02*
X69362500Y-42389500D01*
X68862500Y-41889500D02*
X69362500Y-41889500D01*
%TO.C,U6*%
X120897600Y-51598400D02*
X120897600Y-45588400D01*
X127717600Y-49348400D02*
X127717600Y-45588400D01*
X120897600Y-45588400D02*
X122157600Y-45588400D01*
X127717600Y-45588400D02*
X126457600Y-45588400D01*
%TO.C,Y1*%
X92335600Y-44931600D02*
X96335600Y-44931600D01*
X92335600Y-41631600D02*
X92335600Y-44931600D01*
%TO.C,TP1*%
X131865600Y-39116000D02*
G75*
G03*
X131865600Y-39116000I-700000J0D01*
G01*
%TO.C,TP2*%
X126480800Y-39166800D02*
G75*
G03*
X126480800Y-39166800I-700000J0D01*
G01*
%TO.C,TP3*%
X129224000Y-39116000D02*
G75*
G03*
X129224000Y-39116000I-700000J0D01*
G01*
%TO.C,TP4*%
X85332800Y-39319200D02*
G75*
G03*
X85332800Y-39319200I-700000J0D01*
G01*
%TO.C,TP5*%
X120283200Y-42113200D02*
G75*
G03*
X120283200Y-42113200I-700000J0D01*
G01*
%TO.C,TP6*%
X68314800Y-39928800D02*
G75*
G03*
X68314800Y-39928800I-700000J0D01*
G01*
%TO.C,TP7*%
X83250000Y-39319200D02*
G75*
G03*
X83250000Y-39319200I-700000J0D01*
G01*
%TO.C,TP8*%
X142584400Y-43891200D02*
G75*
G03*
X142584400Y-43891200I-700000J0D01*
G01*
%TO.C,TP9*%
X77712800Y-44297600D02*
G75*
G03*
X77712800Y-44297600I-700000J0D01*
G01*
%TO.C,TP10*%
X81167200Y-39319200D02*
G75*
G03*
X81167200Y-39319200I-700000J0D01*
G01*
%TO.C,TP11*%
X132830800Y-43891200D02*
G75*
G03*
X132830800Y-43891200I-700000J0D01*
G01*
%TO.C,TP12*%
X77916000Y-46329600D02*
G75*
G03*
X77916000Y-46329600I-700000J0D01*
G01*
%TO.C,Q1*%
X130855600Y-48020000D02*
X131785600Y-48020000D01*
X134015600Y-48020000D02*
X133085600Y-48020000D01*
X134015600Y-48020000D02*
X134015600Y-45860000D01*
X130855600Y-48020000D02*
X130855600Y-46560000D01*
%TO.C,C1*%
D11*
X101267142Y-48834866D02*
X101314761Y-48882485D01*
X101362380Y-49025342D01*
X101362380Y-49120580D01*
X101314761Y-49263438D01*
X101219523Y-49358676D01*
X101124285Y-49406295D01*
X100933809Y-49453914D01*
X100790952Y-49453914D01*
X100600476Y-49406295D01*
X100505238Y-49358676D01*
X100410000Y-49263438D01*
X100362380Y-49120580D01*
X100362380Y-49025342D01*
X100410000Y-48882485D01*
X100457619Y-48834866D01*
X101362380Y-47882485D02*
X101362380Y-48453914D01*
X101362380Y-48168200D02*
X100362380Y-48168200D01*
X100505238Y-48263438D01*
X100600476Y-48358676D01*
X100648095Y-48453914D01*
%TO.C,C8*%
X96048533Y-46026342D02*
X96000914Y-46073961D01*
X95858057Y-46121580D01*
X95762819Y-46121580D01*
X95619961Y-46073961D01*
X95524723Y-45978723D01*
X95477104Y-45883485D01*
X95429485Y-45693009D01*
X95429485Y-45550152D01*
X95477104Y-45359676D01*
X95524723Y-45264438D01*
X95619961Y-45169200D01*
X95762819Y-45121580D01*
X95858057Y-45121580D01*
X96000914Y-45169200D01*
X96048533Y-45216819D01*
X96619961Y-45550152D02*
X96524723Y-45502533D01*
X96477104Y-45454914D01*
X96429485Y-45359676D01*
X96429485Y-45312057D01*
X96477104Y-45216819D01*
X96524723Y-45169200D01*
X96619961Y-45121580D01*
X96810438Y-45121580D01*
X96905676Y-45169200D01*
X96953295Y-45216819D01*
X97000914Y-45312057D01*
X97000914Y-45359676D01*
X96953295Y-45454914D01*
X96905676Y-45502533D01*
X96810438Y-45550152D01*
X96619961Y-45550152D01*
X96524723Y-45597771D01*
X96477104Y-45645390D01*
X96429485Y-45740628D01*
X96429485Y-45931104D01*
X96477104Y-46026342D01*
X96524723Y-46073961D01*
X96619961Y-46121580D01*
X96810438Y-46121580D01*
X96905676Y-46073961D01*
X96953295Y-46026342D01*
X97000914Y-45931104D01*
X97000914Y-45740628D01*
X96953295Y-45645390D01*
X96905676Y-45597771D01*
X96810438Y-45550152D01*
%TO.C,C9*%
X94829333Y-40031942D02*
X94781714Y-40079561D01*
X94638857Y-40127180D01*
X94543619Y-40127180D01*
X94400761Y-40079561D01*
X94305523Y-39984323D01*
X94257904Y-39889085D01*
X94210285Y-39698609D01*
X94210285Y-39555752D01*
X94257904Y-39365276D01*
X94305523Y-39270038D01*
X94400761Y-39174800D01*
X94543619Y-39127180D01*
X94638857Y-39127180D01*
X94781714Y-39174800D01*
X94829333Y-39222419D01*
X95305523Y-40127180D02*
X95496000Y-40127180D01*
X95591238Y-40079561D01*
X95638857Y-40031942D01*
X95734095Y-39889085D01*
X95781714Y-39698609D01*
X95781714Y-39317657D01*
X95734095Y-39222419D01*
X95686476Y-39174800D01*
X95591238Y-39127180D01*
X95400761Y-39127180D01*
X95305523Y-39174800D01*
X95257904Y-39222419D01*
X95210285Y-39317657D01*
X95210285Y-39555752D01*
X95257904Y-39650990D01*
X95305523Y-39698609D01*
X95400761Y-39746228D01*
X95591238Y-39746228D01*
X95686476Y-39698609D01*
X95734095Y-39650990D01*
X95781714Y-39555752D01*
%TO.C,C12*%
X104332042Y-40584357D02*
X104379661Y-40631976D01*
X104427280Y-40774833D01*
X104427280Y-40870071D01*
X104379661Y-41012928D01*
X104284423Y-41108166D01*
X104189185Y-41155785D01*
X103998709Y-41203404D01*
X103855852Y-41203404D01*
X103665376Y-41155785D01*
X103570138Y-41108166D01*
X103474900Y-41012928D01*
X103427280Y-40870071D01*
X103427280Y-40774833D01*
X103474900Y-40631976D01*
X103522519Y-40584357D01*
X104427280Y-39631976D02*
X104427280Y-40203404D01*
X104427280Y-39917690D02*
X103427280Y-39917690D01*
X103570138Y-40012928D01*
X103665376Y-40108166D01*
X103712995Y-40203404D01*
X103522519Y-39251023D02*
X103474900Y-39203404D01*
X103427280Y-39108166D01*
X103427280Y-38870071D01*
X103474900Y-38774833D01*
X103522519Y-38727214D01*
X103617757Y-38679595D01*
X103712995Y-38679595D01*
X103855852Y-38727214D01*
X104427280Y-39298642D01*
X104427280Y-38679595D01*
%TO.C,C13*%
X109094542Y-40647857D02*
X109142161Y-40695476D01*
X109189780Y-40838333D01*
X109189780Y-40933571D01*
X109142161Y-41076428D01*
X109046923Y-41171666D01*
X108951685Y-41219285D01*
X108761209Y-41266904D01*
X108618352Y-41266904D01*
X108427876Y-41219285D01*
X108332638Y-41171666D01*
X108237400Y-41076428D01*
X108189780Y-40933571D01*
X108189780Y-40838333D01*
X108237400Y-40695476D01*
X108285019Y-40647857D01*
X109189780Y-39695476D02*
X109189780Y-40266904D01*
X109189780Y-39981190D02*
X108189780Y-39981190D01*
X108332638Y-40076428D01*
X108427876Y-40171666D01*
X108475495Y-40266904D01*
X108189780Y-39362142D02*
X108189780Y-38743095D01*
X108570733Y-39076428D01*
X108570733Y-38933571D01*
X108618352Y-38838333D01*
X108665971Y-38790714D01*
X108761209Y-38743095D01*
X108999304Y-38743095D01*
X109094542Y-38790714D01*
X109142161Y-38838333D01*
X109189780Y-38933571D01*
X109189780Y-39219285D01*
X109142161Y-39314523D01*
X109094542Y-39362142D01*
%TO.C,C14*%
X138583942Y-40927257D02*
X138631561Y-40974876D01*
X138679180Y-41117733D01*
X138679180Y-41212971D01*
X138631561Y-41355828D01*
X138536323Y-41451066D01*
X138441085Y-41498685D01*
X138250609Y-41546304D01*
X138107752Y-41546304D01*
X137917276Y-41498685D01*
X137822038Y-41451066D01*
X137726800Y-41355828D01*
X137679180Y-41212971D01*
X137679180Y-41117733D01*
X137726800Y-40974876D01*
X137774419Y-40927257D01*
X138679180Y-39974876D02*
X138679180Y-40546304D01*
X138679180Y-40260590D02*
X137679180Y-40260590D01*
X137822038Y-40355828D01*
X137917276Y-40451066D01*
X137964895Y-40546304D01*
X138012514Y-39117733D02*
X138679180Y-39117733D01*
X137631561Y-39355828D02*
X138345847Y-39593923D01*
X138345847Y-38974876D01*
%TO.C,C15*%
X143067042Y-40457357D02*
X143114661Y-40504976D01*
X143162280Y-40647833D01*
X143162280Y-40743071D01*
X143114661Y-40885928D01*
X143019423Y-40981166D01*
X142924185Y-41028785D01*
X142733709Y-41076404D01*
X142590852Y-41076404D01*
X142400376Y-41028785D01*
X142305138Y-40981166D01*
X142209900Y-40885928D01*
X142162280Y-40743071D01*
X142162280Y-40647833D01*
X142209900Y-40504976D01*
X142257519Y-40457357D01*
X143162280Y-39504976D02*
X143162280Y-40076404D01*
X143162280Y-39790690D02*
X142162280Y-39790690D01*
X142305138Y-39885928D01*
X142400376Y-39981166D01*
X142447995Y-40076404D01*
X142162280Y-38600214D02*
X142162280Y-39076404D01*
X142638471Y-39124023D01*
X142590852Y-39076404D01*
X142543233Y-38981166D01*
X142543233Y-38743071D01*
X142590852Y-38647833D01*
X142638471Y-38600214D01*
X142733709Y-38552595D01*
X142971804Y-38552595D01*
X143067042Y-38600214D01*
X143114661Y-38647833D01*
X143162280Y-38743071D01*
X143162280Y-38981166D01*
X143114661Y-39076404D01*
X143067042Y-39124023D01*
%TO.C,C16*%
X73915542Y-40571657D02*
X73963161Y-40619276D01*
X74010780Y-40762133D01*
X74010780Y-40857371D01*
X73963161Y-41000228D01*
X73867923Y-41095466D01*
X73772685Y-41143085D01*
X73582209Y-41190704D01*
X73439352Y-41190704D01*
X73248876Y-41143085D01*
X73153638Y-41095466D01*
X73058400Y-41000228D01*
X73010780Y-40857371D01*
X73010780Y-40762133D01*
X73058400Y-40619276D01*
X73106019Y-40571657D01*
X74010780Y-39619276D02*
X74010780Y-40190704D01*
X74010780Y-39904990D02*
X73010780Y-39904990D01*
X73153638Y-40000228D01*
X73248876Y-40095466D01*
X73296495Y-40190704D01*
X73010780Y-38762133D02*
X73010780Y-38952609D01*
X73058400Y-39047847D01*
X73106019Y-39095466D01*
X73248876Y-39190704D01*
X73439352Y-39238323D01*
X73820304Y-39238323D01*
X73915542Y-39190704D01*
X73963161Y-39143085D01*
X74010780Y-39047847D01*
X74010780Y-38857371D01*
X73963161Y-38762133D01*
X73915542Y-38714514D01*
X73820304Y-38666895D01*
X73582209Y-38666895D01*
X73486971Y-38714514D01*
X73439352Y-38762133D01*
X73391733Y-38857371D01*
X73391733Y-39047847D01*
X73439352Y-39143085D01*
X73486971Y-39190704D01*
X73582209Y-39238323D01*
%TO.C,C17*%
X69445142Y-40825657D02*
X69492761Y-40873276D01*
X69540380Y-41016133D01*
X69540380Y-41111371D01*
X69492761Y-41254228D01*
X69397523Y-41349466D01*
X69302285Y-41397085D01*
X69111809Y-41444704D01*
X68968952Y-41444704D01*
X68778476Y-41397085D01*
X68683238Y-41349466D01*
X68588000Y-41254228D01*
X68540380Y-41111371D01*
X68540380Y-41016133D01*
X68588000Y-40873276D01*
X68635619Y-40825657D01*
X69540380Y-39873276D02*
X69540380Y-40444704D01*
X69540380Y-40158990D02*
X68540380Y-40158990D01*
X68683238Y-40254228D01*
X68778476Y-40349466D01*
X68826095Y-40444704D01*
X68540380Y-39539942D02*
X68540380Y-38873276D01*
X69540380Y-39301847D01*
%TO.C,C18*%
X133300742Y-51392057D02*
X133348361Y-51439676D01*
X133395980Y-51582533D01*
X133395980Y-51677771D01*
X133348361Y-51820628D01*
X133253123Y-51915866D01*
X133157885Y-51963485D01*
X132967409Y-52011104D01*
X132824552Y-52011104D01*
X132634076Y-51963485D01*
X132538838Y-51915866D01*
X132443600Y-51820628D01*
X132395980Y-51677771D01*
X132395980Y-51582533D01*
X132443600Y-51439676D01*
X132491219Y-51392057D01*
X133395980Y-50439676D02*
X133395980Y-51011104D01*
X133395980Y-50725390D02*
X132395980Y-50725390D01*
X132538838Y-50820628D01*
X132634076Y-50915866D01*
X132681695Y-51011104D01*
X132824552Y-49868247D02*
X132776933Y-49963485D01*
X132729314Y-50011104D01*
X132634076Y-50058723D01*
X132586457Y-50058723D01*
X132491219Y-50011104D01*
X132443600Y-49963485D01*
X132395980Y-49868247D01*
X132395980Y-49677771D01*
X132443600Y-49582533D01*
X132491219Y-49534914D01*
X132586457Y-49487295D01*
X132634076Y-49487295D01*
X132729314Y-49534914D01*
X132776933Y-49582533D01*
X132824552Y-49677771D01*
X132824552Y-49868247D01*
X132872171Y-49963485D01*
X132919790Y-50011104D01*
X133015028Y-50058723D01*
X133205504Y-50058723D01*
X133300742Y-50011104D01*
X133348361Y-49963485D01*
X133395980Y-49868247D01*
X133395980Y-49677771D01*
X133348361Y-49582533D01*
X133300742Y-49534914D01*
X133205504Y-49487295D01*
X133015028Y-49487295D01*
X132919790Y-49534914D01*
X132872171Y-49582533D01*
X132824552Y-49677771D01*
%TO.C,C19*%
X116892342Y-48039257D02*
X116939961Y-48086876D01*
X116987580Y-48229733D01*
X116987580Y-48324971D01*
X116939961Y-48467828D01*
X116844723Y-48563066D01*
X116749485Y-48610685D01*
X116559009Y-48658304D01*
X116416152Y-48658304D01*
X116225676Y-48610685D01*
X116130438Y-48563066D01*
X116035200Y-48467828D01*
X115987580Y-48324971D01*
X115987580Y-48229733D01*
X116035200Y-48086876D01*
X116082819Y-48039257D01*
X116987580Y-47086876D02*
X116987580Y-47658304D01*
X116987580Y-47372590D02*
X115987580Y-47372590D01*
X116130438Y-47467828D01*
X116225676Y-47563066D01*
X116273295Y-47658304D01*
X116987580Y-46610685D02*
X116987580Y-46420209D01*
X116939961Y-46324971D01*
X116892342Y-46277352D01*
X116749485Y-46182114D01*
X116559009Y-46134495D01*
X116178057Y-46134495D01*
X116082819Y-46182114D01*
X116035200Y-46229733D01*
X115987580Y-46324971D01*
X115987580Y-46515447D01*
X116035200Y-46610685D01*
X116082819Y-46658304D01*
X116178057Y-46705923D01*
X116416152Y-46705923D01*
X116511390Y-46658304D01*
X116559009Y-46610685D01*
X116606628Y-46515447D01*
X116606628Y-46324971D01*
X116559009Y-46229733D01*
X116511390Y-46182114D01*
X116416152Y-46134495D01*
%TO.C,D1*%
X89203204Y-52319180D02*
X89203204Y-51319180D01*
X89441300Y-51319180D01*
X89584157Y-51366800D01*
X89679395Y-51462038D01*
X89727014Y-51557276D01*
X89774633Y-51747752D01*
X89774633Y-51890609D01*
X89727014Y-52081085D01*
X89679395Y-52176323D01*
X89584157Y-52271561D01*
X89441300Y-52319180D01*
X89203204Y-52319180D01*
X90727014Y-52319180D02*
X90155585Y-52319180D01*
X90441300Y-52319180D02*
X90441300Y-51319180D01*
X90346061Y-51462038D01*
X90250823Y-51557276D01*
X90155585Y-51604895D01*
%TO.C,FB1*%
X128503466Y-44632571D02*
X128170133Y-44632571D01*
X128170133Y-45156380D02*
X128170133Y-44156380D01*
X128646323Y-44156380D01*
X129360609Y-44632571D02*
X129503466Y-44680190D01*
X129551085Y-44727809D01*
X129598704Y-44823047D01*
X129598704Y-44965904D01*
X129551085Y-45061142D01*
X129503466Y-45108761D01*
X129408228Y-45156380D01*
X129027276Y-45156380D01*
X129027276Y-44156380D01*
X129360609Y-44156380D01*
X129455847Y-44204000D01*
X129503466Y-44251619D01*
X129551085Y-44346857D01*
X129551085Y-44442095D01*
X129503466Y-44537333D01*
X129455847Y-44584952D01*
X129360609Y-44632571D01*
X129027276Y-44632571D01*
X130551085Y-45156380D02*
X129979657Y-45156380D01*
X130265371Y-45156380D02*
X130265371Y-44156380D01*
X130170133Y-44299238D01*
X130074895Y-44394476D01*
X129979657Y-44442095D01*
%TO.C,J1*%
X136877466Y-44613580D02*
X136877466Y-45327866D01*
X136829847Y-45470723D01*
X136734609Y-45565961D01*
X136591752Y-45613580D01*
X136496514Y-45613580D01*
X137877466Y-45613580D02*
X137306038Y-45613580D01*
X137591752Y-45613580D02*
X137591752Y-44613580D01*
X137496514Y-44756438D01*
X137401276Y-44851676D01*
X137306038Y-44899295D01*
%TO.C,J2*%
X73112380Y-49202933D02*
X73826666Y-49202933D01*
X73969523Y-49250552D01*
X74064761Y-49345790D01*
X74112380Y-49488647D01*
X74112380Y-49583885D01*
X73207619Y-48774361D02*
X73160000Y-48726742D01*
X73112380Y-48631504D01*
X73112380Y-48393409D01*
X73160000Y-48298171D01*
X73207619Y-48250552D01*
X73302857Y-48202933D01*
X73398095Y-48202933D01*
X73540952Y-48250552D01*
X74112380Y-48821980D01*
X74112380Y-48202933D01*
%TO.C,R1*%
X91943180Y-42279866D02*
X91466990Y-42613200D01*
X91943180Y-42851295D02*
X90943180Y-42851295D01*
X90943180Y-42470342D01*
X90990800Y-42375104D01*
X91038419Y-42327485D01*
X91133657Y-42279866D01*
X91276514Y-42279866D01*
X91371752Y-42327485D01*
X91419371Y-42375104D01*
X91466990Y-42470342D01*
X91466990Y-42851295D01*
X91943180Y-41327485D02*
X91943180Y-41898914D01*
X91943180Y-41613200D02*
X90943180Y-41613200D01*
X91086038Y-41708438D01*
X91181276Y-41803676D01*
X91228895Y-41898914D01*
%TO.C,R2*%
X98791733Y-52522380D02*
X98458400Y-52046190D01*
X98220304Y-52522380D02*
X98220304Y-51522380D01*
X98601257Y-51522380D01*
X98696495Y-51570000D01*
X98744114Y-51617619D01*
X98791733Y-51712857D01*
X98791733Y-51855714D01*
X98744114Y-51950952D01*
X98696495Y-51998571D01*
X98601257Y-52046190D01*
X98220304Y-52046190D01*
X99172685Y-51617619D02*
X99220304Y-51570000D01*
X99315542Y-51522380D01*
X99553638Y-51522380D01*
X99648876Y-51570000D01*
X99696495Y-51617619D01*
X99744114Y-51712857D01*
X99744114Y-51808095D01*
X99696495Y-51950952D01*
X99125066Y-52522380D01*
X99744114Y-52522380D01*
%TO.C,U1*%
X84531295Y-51276380D02*
X84531295Y-52085904D01*
X84578914Y-52181142D01*
X84626533Y-52228761D01*
X84721771Y-52276380D01*
X84912247Y-52276380D01*
X85007485Y-52228761D01*
X85055104Y-52181142D01*
X85102723Y-52085904D01*
X85102723Y-51276380D01*
X86102723Y-52276380D02*
X85531295Y-52276380D01*
X85817009Y-52276380D02*
X85817009Y-51276380D01*
X85721771Y-51419238D01*
X85626533Y-51514476D01*
X85531295Y-51562095D01*
%TO.C,U3*%
X104838595Y-41870380D02*
X104838595Y-42679904D01*
X104886214Y-42775142D01*
X104933833Y-42822761D01*
X105029071Y-42870380D01*
X105219547Y-42870380D01*
X105314785Y-42822761D01*
X105362404Y-42775142D01*
X105410023Y-42679904D01*
X105410023Y-41870380D01*
X105790976Y-41870380D02*
X106410023Y-41870380D01*
X106076690Y-42251333D01*
X106219547Y-42251333D01*
X106314785Y-42298952D01*
X106362404Y-42346571D01*
X106410023Y-42441809D01*
X106410023Y-42679904D01*
X106362404Y-42775142D01*
X106314785Y-42822761D01*
X106219547Y-42870380D01*
X105933833Y-42870380D01*
X105838595Y-42822761D01*
X105790976Y-42775142D01*
%TO.C,U4*%
X138480895Y-44664380D02*
X138480895Y-45473904D01*
X138528514Y-45569142D01*
X138576133Y-45616761D01*
X138671371Y-45664380D01*
X138861847Y-45664380D01*
X138957085Y-45616761D01*
X139004704Y-45569142D01*
X139052323Y-45473904D01*
X139052323Y-44664380D01*
X139957085Y-44997714D02*
X139957085Y-45664380D01*
X139718990Y-44616761D02*
X139480895Y-45331047D01*
X140099942Y-45331047D01*
%TO.C,U5*%
X69951695Y-41870380D02*
X69951695Y-42679904D01*
X69999314Y-42775142D01*
X70046933Y-42822761D01*
X70142171Y-42870380D01*
X70332647Y-42870380D01*
X70427885Y-42822761D01*
X70475504Y-42775142D01*
X70523123Y-42679904D01*
X70523123Y-41870380D01*
X71475504Y-41870380D02*
X70999314Y-41870380D01*
X70951695Y-42346571D01*
X70999314Y-42298952D01*
X71094552Y-42251333D01*
X71332647Y-42251333D01*
X71427885Y-42298952D01*
X71475504Y-42346571D01*
X71523123Y-42441809D01*
X71523123Y-42679904D01*
X71475504Y-42775142D01*
X71427885Y-42822761D01*
X71332647Y-42870380D01*
X71094552Y-42870380D01*
X70999314Y-42822761D01*
X70951695Y-42775142D01*
%TO.C,U6*%
X119391180Y-50901504D02*
X120200704Y-50901504D01*
X120295942Y-50853885D01*
X120343561Y-50806266D01*
X120391180Y-50711028D01*
X120391180Y-50520552D01*
X120343561Y-50425314D01*
X120295942Y-50377695D01*
X120200704Y-50330076D01*
X119391180Y-50330076D01*
X119391180Y-49425314D02*
X119391180Y-49615790D01*
X119438800Y-49711028D01*
X119486419Y-49758647D01*
X119629276Y-49853885D01*
X119819752Y-49901504D01*
X120200704Y-49901504D01*
X120295942Y-49853885D01*
X120343561Y-49806266D01*
X120391180Y-49711028D01*
X120391180Y-49520552D01*
X120343561Y-49425314D01*
X120295942Y-49377695D01*
X120200704Y-49330076D01*
X119962609Y-49330076D01*
X119867371Y-49377695D01*
X119819752Y-49425314D01*
X119772133Y-49520552D01*
X119772133Y-49711028D01*
X119819752Y-49806266D01*
X119867371Y-49853885D01*
X119962609Y-49901504D01*
%TO.C,Y1*%
X91725809Y-40717790D02*
X91725809Y-41193980D01*
X91392476Y-40193980D02*
X91725809Y-40717790D01*
X92059142Y-40193980D01*
X92916285Y-41193980D02*
X92344857Y-41193980D01*
X92630571Y-41193980D02*
X92630571Y-40193980D01*
X92535333Y-40336838D01*
X92440095Y-40432076D01*
X92344857Y-40479695D01*
%TO.C,TP1*%
X130208495Y-40549580D02*
X130779923Y-40549580D01*
X130494209Y-41549580D02*
X130494209Y-40549580D01*
X131113257Y-41549580D02*
X131113257Y-40549580D01*
X131494209Y-40549580D01*
X131589447Y-40597200D01*
X131637066Y-40644819D01*
X131684685Y-40740057D01*
X131684685Y-40882914D01*
X131637066Y-40978152D01*
X131589447Y-41025771D01*
X131494209Y-41073390D01*
X131113257Y-41073390D01*
X132637066Y-41549580D02*
X132065638Y-41549580D01*
X132351352Y-41549580D02*
X132351352Y-40549580D01*
X132256114Y-40692438D01*
X132160876Y-40787676D01*
X132065638Y-40835295D01*
%TO.C,TP2*%
X124620495Y-40803580D02*
X125191923Y-40803580D01*
X124906209Y-41803580D02*
X124906209Y-40803580D01*
X125525257Y-41803580D02*
X125525257Y-40803580D01*
X125906209Y-40803580D01*
X126001447Y-40851200D01*
X126049066Y-40898819D01*
X126096685Y-40994057D01*
X126096685Y-41136914D01*
X126049066Y-41232152D01*
X126001447Y-41279771D01*
X125906209Y-41327390D01*
X125525257Y-41327390D01*
X126477638Y-40898819D02*
X126525257Y-40851200D01*
X126620495Y-40803580D01*
X126858590Y-40803580D01*
X126953828Y-40851200D01*
X127001447Y-40898819D01*
X127049066Y-40994057D01*
X127049066Y-41089295D01*
X127001447Y-41232152D01*
X126430019Y-41803580D01*
X127049066Y-41803580D01*
%TO.C,TP3*%
X127312895Y-40701980D02*
X127884323Y-40701980D01*
X127598609Y-41701980D02*
X127598609Y-40701980D01*
X128217657Y-41701980D02*
X128217657Y-40701980D01*
X128598609Y-40701980D01*
X128693847Y-40749600D01*
X128741466Y-40797219D01*
X128789085Y-40892457D01*
X128789085Y-41035314D01*
X128741466Y-41130552D01*
X128693847Y-41178171D01*
X128598609Y-41225790D01*
X128217657Y-41225790D01*
X129122419Y-40701980D02*
X129741466Y-40701980D01*
X129408133Y-41082933D01*
X129550990Y-41082933D01*
X129646228Y-41130552D01*
X129693847Y-41178171D01*
X129741466Y-41273409D01*
X129741466Y-41511504D01*
X129693847Y-41606742D01*
X129646228Y-41654361D01*
X129550990Y-41701980D01*
X129265276Y-41701980D01*
X129170038Y-41654361D01*
X129122419Y-41606742D01*
%TO.C,TP4*%
X86469695Y-38466780D02*
X87041123Y-38466780D01*
X86755409Y-39466780D02*
X86755409Y-38466780D01*
X87374457Y-39466780D02*
X87374457Y-38466780D01*
X87755409Y-38466780D01*
X87850647Y-38514400D01*
X87898266Y-38562019D01*
X87945885Y-38657257D01*
X87945885Y-38800114D01*
X87898266Y-38895352D01*
X87850647Y-38942971D01*
X87755409Y-38990590D01*
X87374457Y-38990590D01*
X88803028Y-38800114D02*
X88803028Y-39466780D01*
X88564933Y-38419161D02*
X88326838Y-39133447D01*
X88945885Y-39133447D01*
%TO.C,TP5*%
X118321295Y-40117580D02*
X118892723Y-40117580D01*
X118607009Y-41117580D02*
X118607009Y-40117580D01*
X119226057Y-41117580D02*
X119226057Y-40117580D01*
X119607009Y-40117580D01*
X119702247Y-40165200D01*
X119749866Y-40212819D01*
X119797485Y-40308057D01*
X119797485Y-40450914D01*
X119749866Y-40546152D01*
X119702247Y-40593771D01*
X119607009Y-40641390D01*
X119226057Y-40641390D01*
X120702247Y-40117580D02*
X120226057Y-40117580D01*
X120178438Y-40593771D01*
X120226057Y-40546152D01*
X120321295Y-40498533D01*
X120559390Y-40498533D01*
X120654628Y-40546152D01*
X120702247Y-40593771D01*
X120749866Y-40689009D01*
X120749866Y-40927104D01*
X120702247Y-41022342D01*
X120654628Y-41069961D01*
X120559390Y-41117580D01*
X120321295Y-41117580D01*
X120226057Y-41069961D01*
X120178438Y-41022342D01*
%TO.C,TP6*%
X66048095Y-38212780D02*
X66619523Y-38212780D01*
X66333809Y-39212780D02*
X66333809Y-38212780D01*
X66952857Y-39212780D02*
X66952857Y-38212780D01*
X67333809Y-38212780D01*
X67429047Y-38260400D01*
X67476666Y-38308019D01*
X67524285Y-38403257D01*
X67524285Y-38546114D01*
X67476666Y-38641352D01*
X67429047Y-38688971D01*
X67333809Y-38736590D01*
X66952857Y-38736590D01*
X68381428Y-38212780D02*
X68190952Y-38212780D01*
X68095714Y-38260400D01*
X68048095Y-38308019D01*
X67952857Y-38450876D01*
X67905238Y-38641352D01*
X67905238Y-39022304D01*
X67952857Y-39117542D01*
X68000476Y-39165161D01*
X68095714Y-39212780D01*
X68286190Y-39212780D01*
X68381428Y-39165161D01*
X68429047Y-39117542D01*
X68476666Y-39022304D01*
X68476666Y-38784209D01*
X68429047Y-38688971D01*
X68381428Y-38641352D01*
X68286190Y-38593733D01*
X68095714Y-38593733D01*
X68000476Y-38641352D01*
X67952857Y-38688971D01*
X67905238Y-38784209D01*
%TO.C,TP7*%
X79256095Y-40752780D02*
X79827523Y-40752780D01*
X79541809Y-41752780D02*
X79541809Y-40752780D01*
X80160857Y-41752780D02*
X80160857Y-40752780D01*
X80541809Y-40752780D01*
X80637047Y-40800400D01*
X80684666Y-40848019D01*
X80732285Y-40943257D01*
X80732285Y-41086114D01*
X80684666Y-41181352D01*
X80637047Y-41228971D01*
X80541809Y-41276590D01*
X80160857Y-41276590D01*
X81065619Y-40752780D02*
X81732285Y-40752780D01*
X81303714Y-41752780D01*
%TO.C,TP8*%
X140571695Y-44715180D02*
X141143123Y-44715180D01*
X140857409Y-45715180D02*
X140857409Y-44715180D01*
X141476457Y-45715180D02*
X141476457Y-44715180D01*
X141857409Y-44715180D01*
X141952647Y-44762800D01*
X142000266Y-44810419D01*
X142047885Y-44905657D01*
X142047885Y-45048514D01*
X142000266Y-45143752D01*
X141952647Y-45191371D01*
X141857409Y-45238990D01*
X141476457Y-45238990D01*
X142619314Y-45143752D02*
X142524076Y-45096133D01*
X142476457Y-45048514D01*
X142428838Y-44953276D01*
X142428838Y-44905657D01*
X142476457Y-44810419D01*
X142524076Y-44762800D01*
X142619314Y-44715180D01*
X142809790Y-44715180D01*
X142905028Y-44762800D01*
X142952647Y-44810419D01*
X143000266Y-44905657D01*
X143000266Y-44953276D01*
X142952647Y-45048514D01*
X142905028Y-45096133D01*
X142809790Y-45143752D01*
X142619314Y-45143752D01*
X142524076Y-45191371D01*
X142476457Y-45238990D01*
X142428838Y-45334228D01*
X142428838Y-45524704D01*
X142476457Y-45619942D01*
X142524076Y-45667561D01*
X142619314Y-45715180D01*
X142809790Y-45715180D01*
X142905028Y-45667561D01*
X142952647Y-45619942D01*
X143000266Y-45524704D01*
X143000266Y-45334228D01*
X142952647Y-45238990D01*
X142905028Y-45191371D01*
X142809790Y-45143752D01*
%TO.C,TP9*%
X75801695Y-41514780D02*
X76373123Y-41514780D01*
X76087409Y-42514780D02*
X76087409Y-41514780D01*
X76706457Y-42514780D02*
X76706457Y-41514780D01*
X77087409Y-41514780D01*
X77182647Y-41562400D01*
X77230266Y-41610019D01*
X77277885Y-41705257D01*
X77277885Y-41848114D01*
X77230266Y-41943352D01*
X77182647Y-41990971D01*
X77087409Y-42038590D01*
X76706457Y-42038590D01*
X77754076Y-42514780D02*
X77944552Y-42514780D01*
X78039790Y-42467161D01*
X78087409Y-42419542D01*
X78182647Y-42276685D01*
X78230266Y-42086209D01*
X78230266Y-41705257D01*
X78182647Y-41610019D01*
X78135028Y-41562400D01*
X78039790Y-41514780D01*
X77849314Y-41514780D01*
X77754076Y-41562400D01*
X77706457Y-41610019D01*
X77658838Y-41705257D01*
X77658838Y-41943352D01*
X77706457Y-42038590D01*
X77754076Y-42086209D01*
X77849314Y-42133828D01*
X78039790Y-42133828D01*
X78135028Y-42086209D01*
X78182647Y-42038590D01*
X78230266Y-41943352D01*
%TO.C,TP10*%
X75935104Y-38365180D02*
X76506533Y-38365180D01*
X76220819Y-39365180D02*
X76220819Y-38365180D01*
X76839866Y-39365180D02*
X76839866Y-38365180D01*
X77220819Y-38365180D01*
X77316057Y-38412800D01*
X77363676Y-38460419D01*
X77411295Y-38555657D01*
X77411295Y-38698514D01*
X77363676Y-38793752D01*
X77316057Y-38841371D01*
X77220819Y-38888990D01*
X76839866Y-38888990D01*
X78363676Y-39365180D02*
X77792247Y-39365180D01*
X78077961Y-39365180D02*
X78077961Y-38365180D01*
X77982723Y-38508038D01*
X77887485Y-38603276D01*
X77792247Y-38650895D01*
X78982723Y-38365180D02*
X79077961Y-38365180D01*
X79173200Y-38412800D01*
X79220819Y-38460419D01*
X79268438Y-38555657D01*
X79316057Y-38746133D01*
X79316057Y-38984228D01*
X79268438Y-39174704D01*
X79220819Y-39269942D01*
X79173200Y-39317561D01*
X79077961Y-39365180D01*
X78982723Y-39365180D01*
X78887485Y-39317561D01*
X78839866Y-39269942D01*
X78792247Y-39174704D01*
X78744628Y-38984228D01*
X78744628Y-38746133D01*
X78792247Y-38555657D01*
X78839866Y-38460419D01*
X78887485Y-38412800D01*
X78982723Y-38365180D01*
%TO.C,TP11*%
X130545104Y-42022780D02*
X131116533Y-42022780D01*
X130830819Y-43022780D02*
X130830819Y-42022780D01*
X131449866Y-43022780D02*
X131449866Y-42022780D01*
X131830819Y-42022780D01*
X131926057Y-42070400D01*
X131973676Y-42118019D01*
X132021295Y-42213257D01*
X132021295Y-42356114D01*
X131973676Y-42451352D01*
X131926057Y-42498971D01*
X131830819Y-42546590D01*
X131449866Y-42546590D01*
X132973676Y-43022780D02*
X132402247Y-43022780D01*
X132687961Y-43022780D02*
X132687961Y-42022780D01*
X132592723Y-42165638D01*
X132497485Y-42260876D01*
X132402247Y-42308495D01*
X133926057Y-43022780D02*
X133354628Y-43022780D01*
X133640342Y-43022780D02*
X133640342Y-42022780D01*
X133545104Y-42165638D01*
X133449866Y-42260876D01*
X133354628Y-42308495D01*
%TO.C,TP12*%
X78497180Y-47966095D02*
X78497180Y-47394666D01*
X79497180Y-47680380D02*
X78497180Y-47680380D01*
X79497180Y-47061333D02*
X78497180Y-47061333D01*
X78497180Y-46680380D01*
X78544800Y-46585142D01*
X78592419Y-46537523D01*
X78687657Y-46489904D01*
X78830514Y-46489904D01*
X78925752Y-46537523D01*
X78973371Y-46585142D01*
X79020990Y-46680380D01*
X79020990Y-47061333D01*
X79497180Y-45537523D02*
X79497180Y-46108952D01*
X79497180Y-45823238D02*
X78497180Y-45823238D01*
X78640038Y-45918476D01*
X78735276Y-46013714D01*
X78782895Y-46108952D01*
X78592419Y-45156571D02*
X78544800Y-45108952D01*
X78497180Y-45013714D01*
X78497180Y-44775619D01*
X78544800Y-44680380D01*
X78592419Y-44632761D01*
X78687657Y-44585142D01*
X78782895Y-44585142D01*
X78925752Y-44632761D01*
X79497180Y-45204190D01*
X79497180Y-44585142D01*
%TO.C,Q1*%
X135472419Y-44951638D02*
X135424800Y-45046876D01*
X135329561Y-45142114D01*
X135186704Y-45284971D01*
X135139085Y-45380209D01*
X135139085Y-45475447D01*
X135377180Y-45427828D02*
X135329561Y-45523066D01*
X135234323Y-45618304D01*
X135043847Y-45665923D01*
X134710514Y-45665923D01*
X134520038Y-45618304D01*
X134424800Y-45523066D01*
X134377180Y-45427828D01*
X134377180Y-45237352D01*
X134424800Y-45142114D01*
X134520038Y-45046876D01*
X134710514Y-44999257D01*
X135043847Y-44999257D01*
X135234323Y-45046876D01*
X135329561Y-45142114D01*
X135377180Y-45237352D01*
X135377180Y-45427828D01*
X135377180Y-44046876D02*
X135377180Y-44618304D01*
X135377180Y-44332590D02*
X134377180Y-44332590D01*
X134520038Y-44427828D01*
X134615276Y-44523066D01*
X134662895Y-44618304D01*
%TD*%
M02*
