%TF.GenerationSoftware,KiCad,Pcbnew,(5.1.9)-1*%
%TF.CreationDate,2021-09-30T20:50:23+03:00*%
%TF.ProjectId,jantteri-hit-detector,6a616e74-7465-4726-992d-6869742d6465,rev?*%
%TF.SameCoordinates,Original*%
%TF.FileFunction,Legend,Bot*%
%TF.FilePolarity,Positive*%
%FSLAX46Y46*%
G04 Gerber Fmt 4.6, Leading zero omitted, Abs format (unit mm)*
G04 Created by KiCad (PCBNEW (5.1.9)-1) date 2021-09-30 20:50:23*
%MOMM*%
%LPD*%
G01*
G04 APERTURE LIST*
%ADD10C,0.120000*%
%ADD11C,0.150000*%
G04 APERTURE END LIST*
D10*
X146030854Y-31115000D02*
G75*
G03*
X146030854Y-31115000I-1885854J0D01*
G01*
X115868354Y-31115000D02*
G75*
G03*
X115868354Y-31115000I-1885854J0D01*
G01*
X85705854Y-31115000D02*
G75*
G03*
X85705854Y-31115000I-1885854J0D01*
G01*
%TO.C,J1*%
X60874000Y-32123000D02*
X61674000Y-32123000D01*
X60874000Y-32923000D02*
X60874000Y-32123000D01*
X64394000Y-40683000D02*
X63994000Y-40683000D01*
X63994000Y-40783000D02*
X64394000Y-40783000D01*
X63994000Y-40583000D02*
X63994000Y-40783000D01*
X64394000Y-40583000D02*
X63994000Y-40583000D01*
X64394000Y-39183000D02*
X63994000Y-39183000D01*
X63994000Y-39283000D02*
X64394000Y-39283000D01*
X63994000Y-39083000D02*
X63994000Y-39283000D01*
X64394000Y-39083000D02*
X63994000Y-39083000D01*
X64394000Y-37683000D02*
X63994000Y-37683000D01*
X63994000Y-37783000D02*
X64394000Y-37783000D01*
X63994000Y-37583000D02*
X63994000Y-37783000D01*
X64394000Y-37583000D02*
X63994000Y-37583000D01*
X64394000Y-36183000D02*
X63994000Y-36183000D01*
X63994000Y-36283000D02*
X64394000Y-36283000D01*
X63994000Y-36083000D02*
X63994000Y-36283000D01*
X64394000Y-36083000D02*
X63994000Y-36083000D01*
X64394000Y-34683000D02*
X63994000Y-34683000D01*
X63994000Y-34783000D02*
X64394000Y-34783000D01*
X63994000Y-34583000D02*
X63994000Y-34783000D01*
X64394000Y-34583000D02*
X63994000Y-34583000D01*
X62984000Y-43043000D02*
X62984000Y-42643000D01*
X61984000Y-43043000D02*
X61984000Y-42643000D01*
X62984000Y-32323000D02*
X62984000Y-32723000D01*
X61984000Y-32323000D02*
X61984000Y-32723000D01*
X61474000Y-42643000D02*
X61474000Y-32723000D01*
X64394000Y-42643000D02*
X61474000Y-42643000D01*
X64394000Y-32723000D02*
X64394000Y-42643000D01*
X61474000Y-32723000D02*
X64394000Y-32723000D01*
X60974000Y-33633000D02*
X60974000Y-33333000D01*
X60874000Y-33333000D02*
X61074000Y-33333000D01*
X60874000Y-33633000D02*
X60874000Y-33333000D01*
X61074000Y-33633000D02*
X60874000Y-33633000D01*
X61074000Y-43043000D02*
X61074000Y-32323000D01*
X64794000Y-43043000D02*
X61074000Y-43043000D01*
X64794000Y-32323000D02*
X64794000Y-43043000D01*
X61074000Y-32323000D02*
X64794000Y-32323000D01*
D11*
X59436380Y-37349666D02*
X60150666Y-37349666D01*
X60293523Y-37302047D01*
X60388761Y-37206809D01*
X60436380Y-37063952D01*
X60436380Y-36968714D01*
X60436380Y-38349666D02*
X60436380Y-37778238D01*
X60436380Y-38063952D02*
X59436380Y-38063952D01*
X59579238Y-37968714D01*
X59674476Y-37873476D01*
X59722095Y-37778238D01*
%TD*%
M02*
