M48
; DRILL file {KiCad (5.1.9)-1} date 09/30/21 20:50:16
; FORMAT={-:-/ absolute / metric / decimal}
; #@! TF.CreationDate,2021-09-30T20:50:16+03:00
; #@! TF.GenerationSoftware,Kicad,Pcbnew,(5.1.9)-1
; #@! TF.FileFunction,Plated,1,2,PTH
FMAT,2
METRIC
T1C0.400
T2C0.650
T3C0.730
%
G90
G05
T1
X65.913Y-38.354
X67.437Y-28.829
X67.437Y-51.181
X68.707Y-39.878
X71.374Y-28.829
X71.882Y-51.181
X74.93Y-28.829
X76.327Y-51.181
X77.978Y-40.259
X78.613Y-28.956
X78.613Y-35.179
X80.518Y-51.181
X81.153Y-33.782
X81.978Y-34.861
X83.058Y-33.02
X83.947Y-38.227
X84.709Y-35.359
X85.09Y-29.337
X85.28Y-33.909
X85.344Y-42.799
X85.504Y-36.084
X85.852Y-30.861
X86.27Y-34.634
X86.333Y-36.809
X87.249Y-40.767
X87.63Y-46.99
X87.884Y-51.562
X88.519Y-26.543
X90.424Y-45.339
X91.948Y-26.543
X93.408Y-30.543
X94.869Y-41.656
X95.25Y-26.543
X96.901Y-43.053
X97.028Y-41.021
X97.79Y-32.258
X100.33Y-26.543
X104.394Y-26.543
X106.426Y-32.295
X108.585Y-26.543
X108.712Y-48.006
X110.998Y-30.861
X111.633Y-37.592
X112.078Y-31.559
X113.221Y-33.02
X113.411Y-46.609
X113.538Y-43.18
X114.681Y-29.337
X114.808Y-33.909
X115.062Y-52.578
X116.078Y-35.359
X116.141Y-29.527
X116.141Y-32.295
X116.459Y-30.845
X116.813Y-34.634
X117.729Y-26.416
X118.364Y-52.578
X118.491Y-36.068
X118.745Y-43.18
X118.745Y-46.609
X119.38Y-28.194
X119.507Y-36.83
X119.761Y-26.416
X119.888Y-33.909
X120.941Y-34.634
X121.666Y-26.416
X121.793Y-52.578
X122.809Y-33.02
X123.952Y-36.195
X124.46Y-43.905
X124.841Y-52.578
X128.143Y-39.243
X128.27Y-37.846
X128.276Y-36.738
X128.319Y-35.705
X128.524Y-26.543
X130.81Y-26.543
X132.461Y-36.957
X132.842Y-26.543
X133.229Y-37.682
X133.858Y-50.038
X134.112Y-35.687
X134.493Y-45.339
X134.747Y-26.543
X134.874Y-39.751
X136.144Y-41.783
X136.652Y-26.543
X137.16Y-35.814
X139.319Y-39.751
X141.605Y-28.448
X141.986Y-36.957
X142.901Y-37.682
X143.32Y-33.02
X145.415Y-43.905
X145.606Y-33.883
X146.304Y-31.051
X146.368Y-30.099
X146.494Y-34.671
X151.765Y-50.419
X152.908Y-29.972
X152.908Y-39.497
X159.639Y-30.099
X160.02Y-50.673
X160.401Y-39.497
T2
X138.557Y-46.609
X138.557Y-47.879
X139.827Y-46.609
X139.827Y-47.879
X141.097Y-46.609
X141.097Y-47.879
X142.367Y-46.609
X142.367Y-47.879
X143.637Y-46.609
X143.637Y-47.879
T3
X62.484Y-33.933
X62.484Y-35.433
X62.484Y-36.933
X62.484Y-38.433
X62.484Y-39.933
X62.484Y-41.433
X81.153Y-37.791
X81.153Y-39.291
X81.153Y-40.791
X81.153Y-42.291
X125.857Y-47.244
X127.357Y-47.244
X128.857Y-47.244
X130.357Y-47.244
T0
M30
