G04 #@! TF.GenerationSoftware,KiCad,Pcbnew,(5.1.9)-1*
G04 #@! TF.CreationDate,2021-02-09T21:25:51+02:00*
G04 #@! TF.ProjectId,jantteri-secondary,6a616e74-7465-4726-992d-7365636f6e64,rev?*
G04 #@! TF.SameCoordinates,Original*
G04 #@! TF.FileFunction,Copper,L1,Top*
G04 #@! TF.FilePolarity,Positive*
%FSLAX46Y46*%
G04 Gerber Fmt 4.6, Leading zero omitted, Abs format (unit mm)*
G04 Created by KiCad (PCBNEW (5.1.9)-1) date 2021-02-09 21:25:51*
%MOMM*%
%LPD*%
G01*
G04 APERTURE LIST*
G04 #@! TA.AperFunction,ComponentPad*
%ADD10O,1.070000X1.800000*%
G04 #@! TD*
G04 #@! TA.AperFunction,ComponentPad*
%ADD11R,1.070000X1.800000*%
G04 #@! TD*
G04 #@! TA.AperFunction,SMDPad,CuDef*
%ADD12R,0.900000X0.800000*%
G04 #@! TD*
G04 #@! TA.AperFunction,SMDPad,CuDef*
%ADD13R,1.060000X0.650000*%
G04 #@! TD*
G04 #@! TA.AperFunction,SMDPad,CuDef*
%ADD14R,0.650000X1.060000*%
G04 #@! TD*
G04 #@! TA.AperFunction,ComponentPad*
%ADD15O,1.030000X1.730000*%
G04 #@! TD*
G04 #@! TA.AperFunction,ComponentPad*
%ADD16O,1.730000X1.030000*%
G04 #@! TD*
G04 #@! TA.AperFunction,ViaPad*
%ADD17C,0.800000*%
G04 #@! TD*
G04 #@! TA.AperFunction,Conductor*
%ADD18C,0.500000*%
G04 #@! TD*
G04 #@! TA.AperFunction,Conductor*
%ADD19C,1.000000*%
G04 #@! TD*
G04 #@! TA.AperFunction,Conductor*
%ADD20C,0.250000*%
G04 #@! TD*
G04 #@! TA.AperFunction,Conductor*
%ADD21C,0.254000*%
G04 #@! TD*
G04 #@! TA.AperFunction,Conductor*
%ADD22C,0.100000*%
G04 #@! TD*
G04 APERTURE END LIST*
D10*
X111506000Y-67564000D03*
X110236000Y-67564000D03*
X108966000Y-67564000D03*
D11*
X107696000Y-67564000D03*
G04 #@! TA.AperFunction,SMDPad,CuDef*
G36*
G01*
X60282000Y-74198000D02*
X60622000Y-74198000D01*
G75*
G02*
X60762000Y-74338000I0J-140000D01*
G01*
X60762000Y-74618000D01*
G75*
G02*
X60622000Y-74758000I-140000J0D01*
G01*
X60282000Y-74758000D01*
G75*
G02*
X60142000Y-74618000I0J140000D01*
G01*
X60142000Y-74338000D01*
G75*
G02*
X60282000Y-74198000I140000J0D01*
G01*
G37*
G04 #@! TD.AperFunction*
G04 #@! TA.AperFunction,SMDPad,CuDef*
G36*
G01*
X60282000Y-75158000D02*
X60622000Y-75158000D01*
G75*
G02*
X60762000Y-75298000I0J-140000D01*
G01*
X60762000Y-75578000D01*
G75*
G02*
X60622000Y-75718000I-140000J0D01*
G01*
X60282000Y-75718000D01*
G75*
G02*
X60142000Y-75578000I0J140000D01*
G01*
X60142000Y-75298000D01*
G75*
G02*
X60282000Y-75158000I140000J0D01*
G01*
G37*
G04 #@! TD.AperFunction*
G04 #@! TA.AperFunction,SMDPad,CuDef*
G36*
G01*
X52320000Y-71075000D02*
X51820000Y-71075000D01*
G75*
G02*
X51595000Y-70850000I0J225000D01*
G01*
X51595000Y-70400000D01*
G75*
G02*
X51820000Y-70175000I225000J0D01*
G01*
X52320000Y-70175000D01*
G75*
G02*
X52545000Y-70400000I0J-225000D01*
G01*
X52545000Y-70850000D01*
G75*
G02*
X52320000Y-71075000I-225000J0D01*
G01*
G37*
G04 #@! TD.AperFunction*
G04 #@! TA.AperFunction,SMDPad,CuDef*
G36*
G01*
X52320000Y-69525000D02*
X51820000Y-69525000D01*
G75*
G02*
X51595000Y-69300000I0J225000D01*
G01*
X51595000Y-68850000D01*
G75*
G02*
X51820000Y-68625000I225000J0D01*
G01*
X52320000Y-68625000D01*
G75*
G02*
X52545000Y-68850000I0J-225000D01*
G01*
X52545000Y-69300000D01*
G75*
G02*
X52320000Y-69525000I-225000J0D01*
G01*
G37*
G04 #@! TD.AperFunction*
G04 #@! TA.AperFunction,SMDPad,CuDef*
G36*
G01*
X63696000Y-71632000D02*
X63696000Y-72132000D01*
G75*
G02*
X63471000Y-72357000I-225000J0D01*
G01*
X63021000Y-72357000D01*
G75*
G02*
X62796000Y-72132000I0J225000D01*
G01*
X62796000Y-71632000D01*
G75*
G02*
X63021000Y-71407000I225000J0D01*
G01*
X63471000Y-71407000D01*
G75*
G02*
X63696000Y-71632000I0J-225000D01*
G01*
G37*
G04 #@! TD.AperFunction*
G04 #@! TA.AperFunction,SMDPad,CuDef*
G36*
G01*
X62146000Y-71632000D02*
X62146000Y-72132000D01*
G75*
G02*
X61921000Y-72357000I-225000J0D01*
G01*
X61471000Y-72357000D01*
G75*
G02*
X61246000Y-72132000I0J225000D01*
G01*
X61246000Y-71632000D01*
G75*
G02*
X61471000Y-71407000I225000J0D01*
G01*
X61921000Y-71407000D01*
G75*
G02*
X62146000Y-71632000I0J-225000D01*
G01*
G37*
G04 #@! TD.AperFunction*
G04 #@! TA.AperFunction,SMDPad,CuDef*
G36*
G01*
X65022000Y-78570000D02*
X65022000Y-78910000D01*
G75*
G02*
X64882000Y-79050000I-140000J0D01*
G01*
X64602000Y-79050000D01*
G75*
G02*
X64462000Y-78910000I0J140000D01*
G01*
X64462000Y-78570000D01*
G75*
G02*
X64602000Y-78430000I140000J0D01*
G01*
X64882000Y-78430000D01*
G75*
G02*
X65022000Y-78570000I0J-140000D01*
G01*
G37*
G04 #@! TD.AperFunction*
G04 #@! TA.AperFunction,SMDPad,CuDef*
G36*
G01*
X64062000Y-78570000D02*
X64062000Y-78910000D01*
G75*
G02*
X63922000Y-79050000I-140000J0D01*
G01*
X63642000Y-79050000D01*
G75*
G02*
X63502000Y-78910000I0J140000D01*
G01*
X63502000Y-78570000D01*
G75*
G02*
X63642000Y-78430000I140000J0D01*
G01*
X63922000Y-78430000D01*
G75*
G02*
X64062000Y-78570000I0J-140000D01*
G01*
G37*
G04 #@! TD.AperFunction*
G04 #@! TA.AperFunction,SMDPad,CuDef*
G36*
G01*
X64512000Y-69564000D02*
X64012000Y-69564000D01*
G75*
G02*
X63787000Y-69339000I0J225000D01*
G01*
X63787000Y-68889000D01*
G75*
G02*
X64012000Y-68664000I225000J0D01*
G01*
X64512000Y-68664000D01*
G75*
G02*
X64737000Y-68889000I0J-225000D01*
G01*
X64737000Y-69339000D01*
G75*
G02*
X64512000Y-69564000I-225000J0D01*
G01*
G37*
G04 #@! TD.AperFunction*
G04 #@! TA.AperFunction,SMDPad,CuDef*
G36*
G01*
X64512000Y-68014000D02*
X64012000Y-68014000D01*
G75*
G02*
X63787000Y-67789000I0J225000D01*
G01*
X63787000Y-67339000D01*
G75*
G02*
X64012000Y-67114000I225000J0D01*
G01*
X64512000Y-67114000D01*
G75*
G02*
X64737000Y-67339000I0J-225000D01*
G01*
X64737000Y-67789000D01*
G75*
G02*
X64512000Y-68014000I-225000J0D01*
G01*
G37*
G04 #@! TD.AperFunction*
G04 #@! TA.AperFunction,SMDPad,CuDef*
G36*
G01*
X109851000Y-78034000D02*
X109351000Y-78034000D01*
G75*
G02*
X109126000Y-77809000I0J225000D01*
G01*
X109126000Y-77359000D01*
G75*
G02*
X109351000Y-77134000I225000J0D01*
G01*
X109851000Y-77134000D01*
G75*
G02*
X110076000Y-77359000I0J-225000D01*
G01*
X110076000Y-77809000D01*
G75*
G02*
X109851000Y-78034000I-225000J0D01*
G01*
G37*
G04 #@! TD.AperFunction*
G04 #@! TA.AperFunction,SMDPad,CuDef*
G36*
G01*
X109851000Y-79584000D02*
X109351000Y-79584000D01*
G75*
G02*
X109126000Y-79359000I0J225000D01*
G01*
X109126000Y-78909000D01*
G75*
G02*
X109351000Y-78684000I225000J0D01*
G01*
X109851000Y-78684000D01*
G75*
G02*
X110076000Y-78909000I0J-225000D01*
G01*
X110076000Y-79359000D01*
G75*
G02*
X109851000Y-79584000I-225000J0D01*
G01*
G37*
G04 #@! TD.AperFunction*
G04 #@! TA.AperFunction,SMDPad,CuDef*
G36*
G01*
X84031000Y-74749000D02*
X84371000Y-74749000D01*
G75*
G02*
X84511000Y-74889000I0J-140000D01*
G01*
X84511000Y-75169000D01*
G75*
G02*
X84371000Y-75309000I-140000J0D01*
G01*
X84031000Y-75309000D01*
G75*
G02*
X83891000Y-75169000I0J140000D01*
G01*
X83891000Y-74889000D01*
G75*
G02*
X84031000Y-74749000I140000J0D01*
G01*
G37*
G04 #@! TD.AperFunction*
G04 #@! TA.AperFunction,SMDPad,CuDef*
G36*
G01*
X84031000Y-73789000D02*
X84371000Y-73789000D01*
G75*
G02*
X84511000Y-73929000I0J-140000D01*
G01*
X84511000Y-74209000D01*
G75*
G02*
X84371000Y-74349000I-140000J0D01*
G01*
X84031000Y-74349000D01*
G75*
G02*
X83891000Y-74209000I0J140000D01*
G01*
X83891000Y-73929000D01*
G75*
G02*
X84031000Y-73789000I140000J0D01*
G01*
G37*
G04 #@! TD.AperFunction*
G04 #@! TA.AperFunction,SMDPad,CuDef*
G36*
G01*
X77386000Y-70616000D02*
X77386000Y-71116000D01*
G75*
G02*
X77161000Y-71341000I-225000J0D01*
G01*
X76711000Y-71341000D01*
G75*
G02*
X76486000Y-71116000I0J225000D01*
G01*
X76486000Y-70616000D01*
G75*
G02*
X76711000Y-70391000I225000J0D01*
G01*
X77161000Y-70391000D01*
G75*
G02*
X77386000Y-70616000I0J-225000D01*
G01*
G37*
G04 #@! TD.AperFunction*
G04 #@! TA.AperFunction,SMDPad,CuDef*
G36*
G01*
X78936000Y-70616000D02*
X78936000Y-71116000D01*
G75*
G02*
X78711000Y-71341000I-225000J0D01*
G01*
X78261000Y-71341000D01*
G75*
G02*
X78036000Y-71116000I0J225000D01*
G01*
X78036000Y-70616000D01*
G75*
G02*
X78261000Y-70391000I225000J0D01*
G01*
X78711000Y-70391000D01*
G75*
G02*
X78936000Y-70616000I0J-225000D01*
G01*
G37*
G04 #@! TD.AperFunction*
G04 #@! TA.AperFunction,SMDPad,CuDef*
G36*
G01*
X89617000Y-76712000D02*
X89617000Y-77212000D01*
G75*
G02*
X89392000Y-77437000I-225000J0D01*
G01*
X88942000Y-77437000D01*
G75*
G02*
X88717000Y-77212000I0J225000D01*
G01*
X88717000Y-76712000D01*
G75*
G02*
X88942000Y-76487000I225000J0D01*
G01*
X89392000Y-76487000D01*
G75*
G02*
X89617000Y-76712000I0J-225000D01*
G01*
G37*
G04 #@! TD.AperFunction*
G04 #@! TA.AperFunction,SMDPad,CuDef*
G36*
G01*
X88067000Y-76712000D02*
X88067000Y-77212000D01*
G75*
G02*
X87842000Y-77437000I-225000J0D01*
G01*
X87392000Y-77437000D01*
G75*
G02*
X87167000Y-77212000I0J225000D01*
G01*
X87167000Y-76712000D01*
G75*
G02*
X87392000Y-76487000I225000J0D01*
G01*
X87842000Y-76487000D01*
G75*
G02*
X88067000Y-76712000I0J-225000D01*
G01*
G37*
G04 #@! TD.AperFunction*
G04 #@! TA.AperFunction,SMDPad,CuDef*
G36*
G01*
X92032000Y-80436000D02*
X92372000Y-80436000D01*
G75*
G02*
X92512000Y-80576000I0J-140000D01*
G01*
X92512000Y-80856000D01*
G75*
G02*
X92372000Y-80996000I-140000J0D01*
G01*
X92032000Y-80996000D01*
G75*
G02*
X91892000Y-80856000I0J140000D01*
G01*
X91892000Y-80576000D01*
G75*
G02*
X92032000Y-80436000I140000J0D01*
G01*
G37*
G04 #@! TD.AperFunction*
G04 #@! TA.AperFunction,SMDPad,CuDef*
G36*
G01*
X92032000Y-79476000D02*
X92372000Y-79476000D01*
G75*
G02*
X92512000Y-79616000I0J-140000D01*
G01*
X92512000Y-79896000D01*
G75*
G02*
X92372000Y-80036000I-140000J0D01*
G01*
X92032000Y-80036000D01*
G75*
G02*
X91892000Y-79896000I0J140000D01*
G01*
X91892000Y-79616000D01*
G75*
G02*
X92032000Y-79476000I140000J0D01*
G01*
G37*
G04 #@! TD.AperFunction*
G04 #@! TA.AperFunction,SMDPad,CuDef*
G36*
G01*
X91003000Y-67814000D02*
X91003000Y-67314000D01*
G75*
G02*
X91228000Y-67089000I225000J0D01*
G01*
X91678000Y-67089000D01*
G75*
G02*
X91903000Y-67314000I0J-225000D01*
G01*
X91903000Y-67814000D01*
G75*
G02*
X91678000Y-68039000I-225000J0D01*
G01*
X91228000Y-68039000D01*
G75*
G02*
X91003000Y-67814000I0J225000D01*
G01*
G37*
G04 #@! TD.AperFunction*
G04 #@! TA.AperFunction,SMDPad,CuDef*
G36*
G01*
X89453000Y-67814000D02*
X89453000Y-67314000D01*
G75*
G02*
X89678000Y-67089000I225000J0D01*
G01*
X90128000Y-67089000D01*
G75*
G02*
X90353000Y-67314000I0J-225000D01*
G01*
X90353000Y-67814000D01*
G75*
G02*
X90128000Y-68039000I-225000J0D01*
G01*
X89678000Y-68039000D01*
G75*
G02*
X89453000Y-67814000I0J225000D01*
G01*
G37*
G04 #@! TD.AperFunction*
G04 #@! TA.AperFunction,SMDPad,CuDef*
G36*
G01*
X102446000Y-72336000D02*
X102786000Y-72336000D01*
G75*
G02*
X102926000Y-72476000I0J-140000D01*
G01*
X102926000Y-72756000D01*
G75*
G02*
X102786000Y-72896000I-140000J0D01*
G01*
X102446000Y-72896000D01*
G75*
G02*
X102306000Y-72756000I0J140000D01*
G01*
X102306000Y-72476000D01*
G75*
G02*
X102446000Y-72336000I140000J0D01*
G01*
G37*
G04 #@! TD.AperFunction*
G04 #@! TA.AperFunction,SMDPad,CuDef*
G36*
G01*
X102446000Y-71376000D02*
X102786000Y-71376000D01*
G75*
G02*
X102926000Y-71516000I0J-140000D01*
G01*
X102926000Y-71796000D01*
G75*
G02*
X102786000Y-71936000I-140000J0D01*
G01*
X102446000Y-71936000D01*
G75*
G02*
X102306000Y-71796000I0J140000D01*
G01*
X102306000Y-71516000D01*
G75*
G02*
X102446000Y-71376000I140000J0D01*
G01*
G37*
G04 #@! TD.AperFunction*
G04 #@! TA.AperFunction,SMDPad,CuDef*
G36*
G01*
X96778000Y-72728000D02*
X97278000Y-72728000D01*
G75*
G02*
X97503000Y-72953000I0J-225000D01*
G01*
X97503000Y-73403000D01*
G75*
G02*
X97278000Y-73628000I-225000J0D01*
G01*
X96778000Y-73628000D01*
G75*
G02*
X96553000Y-73403000I0J225000D01*
G01*
X96553000Y-72953000D01*
G75*
G02*
X96778000Y-72728000I225000J0D01*
G01*
G37*
G04 #@! TD.AperFunction*
G04 #@! TA.AperFunction,SMDPad,CuDef*
G36*
G01*
X96778000Y-71178000D02*
X97278000Y-71178000D01*
G75*
G02*
X97503000Y-71403000I0J-225000D01*
G01*
X97503000Y-71853000D01*
G75*
G02*
X97278000Y-72078000I-225000J0D01*
G01*
X96778000Y-72078000D01*
G75*
G02*
X96553000Y-71853000I0J225000D01*
G01*
X96553000Y-71403000D01*
G75*
G02*
X96778000Y-71178000I225000J0D01*
G01*
G37*
G04 #@! TD.AperFunction*
G04 #@! TA.AperFunction,SMDPad,CuDef*
G36*
G01*
X105533000Y-75888000D02*
X105033000Y-75888000D01*
G75*
G02*
X104808000Y-75663000I0J225000D01*
G01*
X104808000Y-75213000D01*
G75*
G02*
X105033000Y-74988000I225000J0D01*
G01*
X105533000Y-74988000D01*
G75*
G02*
X105758000Y-75213000I0J-225000D01*
G01*
X105758000Y-75663000D01*
G75*
G02*
X105533000Y-75888000I-225000J0D01*
G01*
G37*
G04 #@! TD.AperFunction*
G04 #@! TA.AperFunction,SMDPad,CuDef*
G36*
G01*
X105533000Y-77438000D02*
X105033000Y-77438000D01*
G75*
G02*
X104808000Y-77213000I0J225000D01*
G01*
X104808000Y-76763000D01*
G75*
G02*
X105033000Y-76538000I225000J0D01*
G01*
X105533000Y-76538000D01*
G75*
G02*
X105758000Y-76763000I0J-225000D01*
G01*
X105758000Y-77213000D01*
G75*
G02*
X105533000Y-77438000I-225000J0D01*
G01*
G37*
G04 #@! TD.AperFunction*
G04 #@! TA.AperFunction,SMDPad,CuDef*
G36*
G01*
X107948000Y-79840000D02*
X107948000Y-80180000D01*
G75*
G02*
X107808000Y-80320000I-140000J0D01*
G01*
X107528000Y-80320000D01*
G75*
G02*
X107388000Y-80180000I0J140000D01*
G01*
X107388000Y-79840000D01*
G75*
G02*
X107528000Y-79700000I140000J0D01*
G01*
X107808000Y-79700000D01*
G75*
G02*
X107948000Y-79840000I0J-140000D01*
G01*
G37*
G04 #@! TD.AperFunction*
G04 #@! TA.AperFunction,SMDPad,CuDef*
G36*
G01*
X106988000Y-79840000D02*
X106988000Y-80180000D01*
G75*
G02*
X106848000Y-80320000I-140000J0D01*
G01*
X106568000Y-80320000D01*
G75*
G02*
X106428000Y-80180000I0J140000D01*
G01*
X106428000Y-79840000D01*
G75*
G02*
X106568000Y-79700000I140000J0D01*
G01*
X106848000Y-79700000D01*
G75*
G02*
X106988000Y-79840000I0J-140000D01*
G01*
G37*
G04 #@! TD.AperFunction*
G04 #@! TA.AperFunction,SMDPad,CuDef*
G36*
G01*
X119630000Y-69551000D02*
X119130000Y-69551000D01*
G75*
G02*
X118905000Y-69326000I0J225000D01*
G01*
X118905000Y-68876000D01*
G75*
G02*
X119130000Y-68651000I225000J0D01*
G01*
X119630000Y-68651000D01*
G75*
G02*
X119855000Y-68876000I0J-225000D01*
G01*
X119855000Y-69326000D01*
G75*
G02*
X119630000Y-69551000I-225000J0D01*
G01*
G37*
G04 #@! TD.AperFunction*
G04 #@! TA.AperFunction,SMDPad,CuDef*
G36*
G01*
X119630000Y-68001000D02*
X119130000Y-68001000D01*
G75*
G02*
X118905000Y-67776000I0J225000D01*
G01*
X118905000Y-67326000D01*
G75*
G02*
X119130000Y-67101000I225000J0D01*
G01*
X119630000Y-67101000D01*
G75*
G02*
X119855000Y-67326000I0J-225000D01*
G01*
X119855000Y-67776000D01*
G75*
G02*
X119630000Y-68001000I-225000J0D01*
G01*
G37*
G04 #@! TD.AperFunction*
X54864000Y-67564000D03*
D10*
X56134000Y-67564000D03*
X57404000Y-67564000D03*
X58674000Y-67564000D03*
D11*
X133858000Y-67564000D03*
D10*
X135128000Y-67564000D03*
X136398000Y-67564000D03*
X137668000Y-67564000D03*
X85090000Y-67564000D03*
X83820000Y-67564000D03*
X82550000Y-67564000D03*
D11*
X81280000Y-67564000D03*
D12*
X134382000Y-71821000D03*
X134382000Y-73721000D03*
X136382000Y-72771000D03*
X136382000Y-80137000D03*
X134382000Y-81087000D03*
X134382000Y-79187000D03*
X134382000Y-75504000D03*
X134382000Y-77404000D03*
X136382000Y-76454000D03*
G04 #@! TA.AperFunction,SMDPad,CuDef*
G36*
G01*
X53065000Y-76308000D02*
X53615000Y-76308000D01*
G75*
G02*
X53815000Y-76508000I0J-200000D01*
G01*
X53815000Y-76908000D01*
G75*
G02*
X53615000Y-77108000I-200000J0D01*
G01*
X53065000Y-77108000D01*
G75*
G02*
X52865000Y-76908000I0J200000D01*
G01*
X52865000Y-76508000D01*
G75*
G02*
X53065000Y-76308000I200000J0D01*
G01*
G37*
G04 #@! TD.AperFunction*
G04 #@! TA.AperFunction,SMDPad,CuDef*
G36*
G01*
X53065000Y-77958000D02*
X53615000Y-77958000D01*
G75*
G02*
X53815000Y-78158000I0J-200000D01*
G01*
X53815000Y-78558000D01*
G75*
G02*
X53615000Y-78758000I-200000J0D01*
G01*
X53065000Y-78758000D01*
G75*
G02*
X52865000Y-78558000I0J200000D01*
G01*
X52865000Y-78158000D01*
G75*
G02*
X53065000Y-77958000I200000J0D01*
G01*
G37*
G04 #@! TD.AperFunction*
G04 #@! TA.AperFunction,SMDPad,CuDef*
G36*
G01*
X67077000Y-78187000D02*
X66527000Y-78187000D01*
G75*
G02*
X66327000Y-77987000I0J200000D01*
G01*
X66327000Y-77587000D01*
G75*
G02*
X66527000Y-77387000I200000J0D01*
G01*
X67077000Y-77387000D01*
G75*
G02*
X67277000Y-77587000I0J-200000D01*
G01*
X67277000Y-77987000D01*
G75*
G02*
X67077000Y-78187000I-200000J0D01*
G01*
G37*
G04 #@! TD.AperFunction*
G04 #@! TA.AperFunction,SMDPad,CuDef*
G36*
G01*
X67077000Y-76537000D02*
X66527000Y-76537000D01*
G75*
G02*
X66327000Y-76337000I0J200000D01*
G01*
X66327000Y-75937000D01*
G75*
G02*
X66527000Y-75737000I200000J0D01*
G01*
X67077000Y-75737000D01*
G75*
G02*
X67277000Y-75937000I0J-200000D01*
G01*
X67277000Y-76337000D01*
G75*
G02*
X67077000Y-76537000I-200000J0D01*
G01*
G37*
G04 #@! TD.AperFunction*
G04 #@! TA.AperFunction,SMDPad,CuDef*
G36*
G01*
X110349000Y-81465000D02*
X110349000Y-81095000D01*
G75*
G02*
X110484000Y-80960000I135000J0D01*
G01*
X110754000Y-80960000D01*
G75*
G02*
X110889000Y-81095000I0J-135000D01*
G01*
X110889000Y-81465000D01*
G75*
G02*
X110754000Y-81600000I-135000J0D01*
G01*
X110484000Y-81600000D01*
G75*
G02*
X110349000Y-81465000I0J135000D01*
G01*
G37*
G04 #@! TD.AperFunction*
G04 #@! TA.AperFunction,SMDPad,CuDef*
G36*
G01*
X109329000Y-81465000D02*
X109329000Y-81095000D01*
G75*
G02*
X109464000Y-80960000I135000J0D01*
G01*
X109734000Y-80960000D01*
G75*
G02*
X109869000Y-81095000I0J-135000D01*
G01*
X109869000Y-81465000D01*
G75*
G02*
X109734000Y-81600000I-135000J0D01*
G01*
X109464000Y-81600000D01*
G75*
G02*
X109329000Y-81465000I0J135000D01*
G01*
G37*
G04 #@! TD.AperFunction*
G04 #@! TA.AperFunction,SMDPad,CuDef*
G36*
G01*
X112764000Y-81592000D02*
X112764000Y-81222000D01*
G75*
G02*
X112899000Y-81087000I135000J0D01*
G01*
X113169000Y-81087000D01*
G75*
G02*
X113304000Y-81222000I0J-135000D01*
G01*
X113304000Y-81592000D01*
G75*
G02*
X113169000Y-81727000I-135000J0D01*
G01*
X112899000Y-81727000D01*
G75*
G02*
X112764000Y-81592000I0J135000D01*
G01*
G37*
G04 #@! TD.AperFunction*
G04 #@! TA.AperFunction,SMDPad,CuDef*
G36*
G01*
X111744000Y-81592000D02*
X111744000Y-81222000D01*
G75*
G02*
X111879000Y-81087000I135000J0D01*
G01*
X112149000Y-81087000D01*
G75*
G02*
X112284000Y-81222000I0J-135000D01*
G01*
X112284000Y-81592000D01*
G75*
G02*
X112149000Y-81727000I-135000J0D01*
G01*
X111879000Y-81727000D01*
G75*
G02*
X111744000Y-81592000I0J135000D01*
G01*
G37*
G04 #@! TD.AperFunction*
G04 #@! TA.AperFunction,SMDPad,CuDef*
G36*
G01*
X117461000Y-80830000D02*
X117461000Y-80460000D01*
G75*
G02*
X117596000Y-80325000I135000J0D01*
G01*
X117866000Y-80325000D01*
G75*
G02*
X118001000Y-80460000I0J-135000D01*
G01*
X118001000Y-80830000D01*
G75*
G02*
X117866000Y-80965000I-135000J0D01*
G01*
X117596000Y-80965000D01*
G75*
G02*
X117461000Y-80830000I0J135000D01*
G01*
G37*
G04 #@! TD.AperFunction*
G04 #@! TA.AperFunction,SMDPad,CuDef*
G36*
G01*
X116441000Y-80830000D02*
X116441000Y-80460000D01*
G75*
G02*
X116576000Y-80325000I135000J0D01*
G01*
X116846000Y-80325000D01*
G75*
G02*
X116981000Y-80460000I0J-135000D01*
G01*
X116981000Y-80830000D01*
G75*
G02*
X116846000Y-80965000I-135000J0D01*
G01*
X116576000Y-80965000D01*
G75*
G02*
X116441000Y-80830000I0J135000D01*
G01*
G37*
G04 #@! TD.AperFunction*
G04 #@! TA.AperFunction,SMDPad,CuDef*
G36*
G01*
X118001000Y-79317000D02*
X118001000Y-79687000D01*
G75*
G02*
X117866000Y-79822000I-135000J0D01*
G01*
X117596000Y-79822000D01*
G75*
G02*
X117461000Y-79687000I0J135000D01*
G01*
X117461000Y-79317000D01*
G75*
G02*
X117596000Y-79182000I135000J0D01*
G01*
X117866000Y-79182000D01*
G75*
G02*
X118001000Y-79317000I0J-135000D01*
G01*
G37*
G04 #@! TD.AperFunction*
G04 #@! TA.AperFunction,SMDPad,CuDef*
G36*
G01*
X116981000Y-79317000D02*
X116981000Y-79687000D01*
G75*
G02*
X116846000Y-79822000I-135000J0D01*
G01*
X116576000Y-79822000D01*
G75*
G02*
X116441000Y-79687000I0J135000D01*
G01*
X116441000Y-79317000D01*
G75*
G02*
X116576000Y-79182000I135000J0D01*
G01*
X116846000Y-79182000D01*
G75*
G02*
X116981000Y-79317000I0J-135000D01*
G01*
G37*
G04 #@! TD.AperFunction*
G04 #@! TA.AperFunction,SMDPad,CuDef*
G36*
G01*
X116441000Y-78544000D02*
X116441000Y-78174000D01*
G75*
G02*
X116576000Y-78039000I135000J0D01*
G01*
X116846000Y-78039000D01*
G75*
G02*
X116981000Y-78174000I0J-135000D01*
G01*
X116981000Y-78544000D01*
G75*
G02*
X116846000Y-78679000I-135000J0D01*
G01*
X116576000Y-78679000D01*
G75*
G02*
X116441000Y-78544000I0J135000D01*
G01*
G37*
G04 #@! TD.AperFunction*
G04 #@! TA.AperFunction,SMDPad,CuDef*
G36*
G01*
X117461000Y-78544000D02*
X117461000Y-78174000D01*
G75*
G02*
X117596000Y-78039000I135000J0D01*
G01*
X117866000Y-78039000D01*
G75*
G02*
X118001000Y-78174000I0J-135000D01*
G01*
X118001000Y-78544000D01*
G75*
G02*
X117866000Y-78679000I-135000J0D01*
G01*
X117596000Y-78679000D01*
G75*
G02*
X117461000Y-78544000I0J135000D01*
G01*
G37*
G04 #@! TD.AperFunction*
G04 #@! TA.AperFunction,SMDPad,CuDef*
G36*
G01*
X116981000Y-77031000D02*
X116981000Y-77401000D01*
G75*
G02*
X116846000Y-77536000I-135000J0D01*
G01*
X116576000Y-77536000D01*
G75*
G02*
X116441000Y-77401000I0J135000D01*
G01*
X116441000Y-77031000D01*
G75*
G02*
X116576000Y-76896000I135000J0D01*
G01*
X116846000Y-76896000D01*
G75*
G02*
X116981000Y-77031000I0J-135000D01*
G01*
G37*
G04 #@! TD.AperFunction*
G04 #@! TA.AperFunction,SMDPad,CuDef*
G36*
G01*
X118001000Y-77031000D02*
X118001000Y-77401000D01*
G75*
G02*
X117866000Y-77536000I-135000J0D01*
G01*
X117596000Y-77536000D01*
G75*
G02*
X117461000Y-77401000I0J135000D01*
G01*
X117461000Y-77031000D01*
G75*
G02*
X117596000Y-76896000I135000J0D01*
G01*
X117866000Y-76896000D01*
G75*
G02*
X118001000Y-77031000I0J-135000D01*
G01*
G37*
G04 #@! TD.AperFunction*
G04 #@! TA.AperFunction,SMDPad,CuDef*
G36*
G01*
X78212000Y-78761000D02*
X78212000Y-78211000D01*
G75*
G02*
X78412000Y-78011000I200000J0D01*
G01*
X78812000Y-78011000D01*
G75*
G02*
X79012000Y-78211000I0J-200000D01*
G01*
X79012000Y-78761000D01*
G75*
G02*
X78812000Y-78961000I-200000J0D01*
G01*
X78412000Y-78961000D01*
G75*
G02*
X78212000Y-78761000I0J200000D01*
G01*
G37*
G04 #@! TD.AperFunction*
G04 #@! TA.AperFunction,SMDPad,CuDef*
G36*
G01*
X76562000Y-78761000D02*
X76562000Y-78211000D01*
G75*
G02*
X76762000Y-78011000I200000J0D01*
G01*
X77162000Y-78011000D01*
G75*
G02*
X77362000Y-78211000I0J-200000D01*
G01*
X77362000Y-78761000D01*
G75*
G02*
X77162000Y-78961000I-200000J0D01*
G01*
X76762000Y-78961000D01*
G75*
G02*
X76562000Y-78761000I0J200000D01*
G01*
G37*
G04 #@! TD.AperFunction*
G04 #@! TA.AperFunction,SMDPad,CuDef*
G36*
G01*
X91777000Y-76687000D02*
X91777000Y-77237000D01*
G75*
G02*
X91577000Y-77437000I-200000J0D01*
G01*
X91177000Y-77437000D01*
G75*
G02*
X90977000Y-77237000I0J200000D01*
G01*
X90977000Y-76687000D01*
G75*
G02*
X91177000Y-76487000I200000J0D01*
G01*
X91577000Y-76487000D01*
G75*
G02*
X91777000Y-76687000I0J-200000D01*
G01*
G37*
G04 #@! TD.AperFunction*
G04 #@! TA.AperFunction,SMDPad,CuDef*
G36*
G01*
X93427000Y-76687000D02*
X93427000Y-77237000D01*
G75*
G02*
X93227000Y-77437000I-200000J0D01*
G01*
X92827000Y-77437000D01*
G75*
G02*
X92627000Y-77237000I0J200000D01*
G01*
X92627000Y-76687000D01*
G75*
G02*
X92827000Y-76487000I200000J0D01*
G01*
X93227000Y-76487000D01*
G75*
G02*
X93427000Y-76687000I0J-200000D01*
G01*
G37*
G04 #@! TD.AperFunction*
G04 #@! TA.AperFunction,SMDPad,CuDef*
G36*
G01*
X101555000Y-75417000D02*
X101555000Y-75967000D01*
G75*
G02*
X101355000Y-76167000I-200000J0D01*
G01*
X100955000Y-76167000D01*
G75*
G02*
X100755000Y-75967000I0J200000D01*
G01*
X100755000Y-75417000D01*
G75*
G02*
X100955000Y-75217000I200000J0D01*
G01*
X101355000Y-75217000D01*
G75*
G02*
X101555000Y-75417000I0J-200000D01*
G01*
G37*
G04 #@! TD.AperFunction*
G04 #@! TA.AperFunction,SMDPad,CuDef*
G36*
G01*
X99905000Y-75417000D02*
X99905000Y-75967000D01*
G75*
G02*
X99705000Y-76167000I-200000J0D01*
G01*
X99305000Y-76167000D01*
G75*
G02*
X99105000Y-75967000I0J200000D01*
G01*
X99105000Y-75417000D01*
G75*
G02*
X99305000Y-75217000I200000J0D01*
G01*
X99705000Y-75217000D01*
G75*
G02*
X99905000Y-75417000I0J-200000D01*
G01*
G37*
G04 #@! TD.AperFunction*
G04 #@! TA.AperFunction,SMDPad,CuDef*
G36*
G01*
X106913000Y-78212000D02*
X107463000Y-78212000D01*
G75*
G02*
X107663000Y-78412000I0J-200000D01*
G01*
X107663000Y-78812000D01*
G75*
G02*
X107463000Y-79012000I-200000J0D01*
G01*
X106913000Y-79012000D01*
G75*
G02*
X106713000Y-78812000I0J200000D01*
G01*
X106713000Y-78412000D01*
G75*
G02*
X106913000Y-78212000I200000J0D01*
G01*
G37*
G04 #@! TD.AperFunction*
G04 #@! TA.AperFunction,SMDPad,CuDef*
G36*
G01*
X106913000Y-76562000D02*
X107463000Y-76562000D01*
G75*
G02*
X107663000Y-76762000I0J-200000D01*
G01*
X107663000Y-77162000D01*
G75*
G02*
X107463000Y-77362000I-200000J0D01*
G01*
X106913000Y-77362000D01*
G75*
G02*
X106713000Y-77162000I0J200000D01*
G01*
X106713000Y-76762000D01*
G75*
G02*
X106913000Y-76562000I200000J0D01*
G01*
G37*
G04 #@! TD.AperFunction*
D13*
X55372000Y-72522000D03*
X55372000Y-74422000D03*
X53172000Y-74422000D03*
X53172000Y-73472000D03*
X53172000Y-72522000D03*
G04 #@! TA.AperFunction,SMDPad,CuDef*
G36*
G01*
X73808000Y-71605000D02*
X73808000Y-71905000D01*
G75*
G02*
X73658000Y-72055000I-150000J0D01*
G01*
X72008000Y-72055000D01*
G75*
G02*
X71858000Y-71905000I0J150000D01*
G01*
X71858000Y-71605000D01*
G75*
G02*
X72008000Y-71455000I150000J0D01*
G01*
X73658000Y-71455000D01*
G75*
G02*
X73808000Y-71605000I0J-150000D01*
G01*
G37*
G04 #@! TD.AperFunction*
G04 #@! TA.AperFunction,SMDPad,CuDef*
G36*
G01*
X73808000Y-70335000D02*
X73808000Y-70635000D01*
G75*
G02*
X73658000Y-70785000I-150000J0D01*
G01*
X72008000Y-70785000D01*
G75*
G02*
X71858000Y-70635000I0J150000D01*
G01*
X71858000Y-70335000D01*
G75*
G02*
X72008000Y-70185000I150000J0D01*
G01*
X73658000Y-70185000D01*
G75*
G02*
X73808000Y-70335000I0J-150000D01*
G01*
G37*
G04 #@! TD.AperFunction*
G04 #@! TA.AperFunction,SMDPad,CuDef*
G36*
G01*
X73808000Y-69065000D02*
X73808000Y-69365000D01*
G75*
G02*
X73658000Y-69515000I-150000J0D01*
G01*
X72008000Y-69515000D01*
G75*
G02*
X71858000Y-69365000I0J150000D01*
G01*
X71858000Y-69065000D01*
G75*
G02*
X72008000Y-68915000I150000J0D01*
G01*
X73658000Y-68915000D01*
G75*
G02*
X73808000Y-69065000I0J-150000D01*
G01*
G37*
G04 #@! TD.AperFunction*
G04 #@! TA.AperFunction,SMDPad,CuDef*
G36*
G01*
X73808000Y-67795000D02*
X73808000Y-68095000D01*
G75*
G02*
X73658000Y-68245000I-150000J0D01*
G01*
X72008000Y-68245000D01*
G75*
G02*
X71858000Y-68095000I0J150000D01*
G01*
X71858000Y-67795000D01*
G75*
G02*
X72008000Y-67645000I150000J0D01*
G01*
X73658000Y-67645000D01*
G75*
G02*
X73808000Y-67795000I0J-150000D01*
G01*
G37*
G04 #@! TD.AperFunction*
G04 #@! TA.AperFunction,SMDPad,CuDef*
G36*
G01*
X68858000Y-67795000D02*
X68858000Y-68095000D01*
G75*
G02*
X68708000Y-68245000I-150000J0D01*
G01*
X67058000Y-68245000D01*
G75*
G02*
X66908000Y-68095000I0J150000D01*
G01*
X66908000Y-67795000D01*
G75*
G02*
X67058000Y-67645000I150000J0D01*
G01*
X68708000Y-67645000D01*
G75*
G02*
X68858000Y-67795000I0J-150000D01*
G01*
G37*
G04 #@! TD.AperFunction*
G04 #@! TA.AperFunction,SMDPad,CuDef*
G36*
G01*
X68858000Y-69065000D02*
X68858000Y-69365000D01*
G75*
G02*
X68708000Y-69515000I-150000J0D01*
G01*
X67058000Y-69515000D01*
G75*
G02*
X66908000Y-69365000I0J150000D01*
G01*
X66908000Y-69065000D01*
G75*
G02*
X67058000Y-68915000I150000J0D01*
G01*
X68708000Y-68915000D01*
G75*
G02*
X68858000Y-69065000I0J-150000D01*
G01*
G37*
G04 #@! TD.AperFunction*
G04 #@! TA.AperFunction,SMDPad,CuDef*
G36*
G01*
X68858000Y-70335000D02*
X68858000Y-70635000D01*
G75*
G02*
X68708000Y-70785000I-150000J0D01*
G01*
X67058000Y-70785000D01*
G75*
G02*
X66908000Y-70635000I0J150000D01*
G01*
X66908000Y-70335000D01*
G75*
G02*
X67058000Y-70185000I150000J0D01*
G01*
X68708000Y-70185000D01*
G75*
G02*
X68858000Y-70335000I0J-150000D01*
G01*
G37*
G04 #@! TD.AperFunction*
G04 #@! TA.AperFunction,SMDPad,CuDef*
G36*
G01*
X68858000Y-71605000D02*
X68858000Y-71905000D01*
G75*
G02*
X68708000Y-72055000I-150000J0D01*
G01*
X67058000Y-72055000D01*
G75*
G02*
X66908000Y-71905000I0J150000D01*
G01*
X66908000Y-71605000D01*
G75*
G02*
X67058000Y-71455000I150000J0D01*
G01*
X68708000Y-71455000D01*
G75*
G02*
X68858000Y-71605000I0J-150000D01*
G01*
G37*
G04 #@! TD.AperFunction*
D14*
X112334000Y-79967000D03*
X113284000Y-79967000D03*
X114234000Y-79967000D03*
X114234000Y-77767000D03*
X112334000Y-77767000D03*
D13*
X76624000Y-73218000D03*
X76624000Y-74168000D03*
X76624000Y-75118000D03*
X78824000Y-75118000D03*
X78824000Y-73218000D03*
G04 #@! TA.AperFunction,SMDPad,CuDef*
G36*
G01*
X89178000Y-73383000D02*
X89178000Y-73683000D01*
G75*
G02*
X89028000Y-73833000I-150000J0D01*
G01*
X87378000Y-73833000D01*
G75*
G02*
X87228000Y-73683000I0J150000D01*
G01*
X87228000Y-73383000D01*
G75*
G02*
X87378000Y-73233000I150000J0D01*
G01*
X89028000Y-73233000D01*
G75*
G02*
X89178000Y-73383000I0J-150000D01*
G01*
G37*
G04 #@! TD.AperFunction*
G04 #@! TA.AperFunction,SMDPad,CuDef*
G36*
G01*
X89178000Y-72113000D02*
X89178000Y-72413000D01*
G75*
G02*
X89028000Y-72563000I-150000J0D01*
G01*
X87378000Y-72563000D01*
G75*
G02*
X87228000Y-72413000I0J150000D01*
G01*
X87228000Y-72113000D01*
G75*
G02*
X87378000Y-71963000I150000J0D01*
G01*
X89028000Y-71963000D01*
G75*
G02*
X89178000Y-72113000I0J-150000D01*
G01*
G37*
G04 #@! TD.AperFunction*
G04 #@! TA.AperFunction,SMDPad,CuDef*
G36*
G01*
X89178000Y-70843000D02*
X89178000Y-71143000D01*
G75*
G02*
X89028000Y-71293000I-150000J0D01*
G01*
X87378000Y-71293000D01*
G75*
G02*
X87228000Y-71143000I0J150000D01*
G01*
X87228000Y-70843000D01*
G75*
G02*
X87378000Y-70693000I150000J0D01*
G01*
X89028000Y-70693000D01*
G75*
G02*
X89178000Y-70843000I0J-150000D01*
G01*
G37*
G04 #@! TD.AperFunction*
G04 #@! TA.AperFunction,SMDPad,CuDef*
G36*
G01*
X89178000Y-69573000D02*
X89178000Y-69873000D01*
G75*
G02*
X89028000Y-70023000I-150000J0D01*
G01*
X87378000Y-70023000D01*
G75*
G02*
X87228000Y-69873000I0J150000D01*
G01*
X87228000Y-69573000D01*
G75*
G02*
X87378000Y-69423000I150000J0D01*
G01*
X89028000Y-69423000D01*
G75*
G02*
X89178000Y-69573000I0J-150000D01*
G01*
G37*
G04 #@! TD.AperFunction*
G04 #@! TA.AperFunction,SMDPad,CuDef*
G36*
G01*
X94128000Y-69573000D02*
X94128000Y-69873000D01*
G75*
G02*
X93978000Y-70023000I-150000J0D01*
G01*
X92328000Y-70023000D01*
G75*
G02*
X92178000Y-69873000I0J150000D01*
G01*
X92178000Y-69573000D01*
G75*
G02*
X92328000Y-69423000I150000J0D01*
G01*
X93978000Y-69423000D01*
G75*
G02*
X94128000Y-69573000I0J-150000D01*
G01*
G37*
G04 #@! TD.AperFunction*
G04 #@! TA.AperFunction,SMDPad,CuDef*
G36*
G01*
X94128000Y-70843000D02*
X94128000Y-71143000D01*
G75*
G02*
X93978000Y-71293000I-150000J0D01*
G01*
X92328000Y-71293000D01*
G75*
G02*
X92178000Y-71143000I0J150000D01*
G01*
X92178000Y-70843000D01*
G75*
G02*
X92328000Y-70693000I150000J0D01*
G01*
X93978000Y-70693000D01*
G75*
G02*
X94128000Y-70843000I0J-150000D01*
G01*
G37*
G04 #@! TD.AperFunction*
G04 #@! TA.AperFunction,SMDPad,CuDef*
G36*
G01*
X94128000Y-72113000D02*
X94128000Y-72413000D01*
G75*
G02*
X93978000Y-72563000I-150000J0D01*
G01*
X92328000Y-72563000D01*
G75*
G02*
X92178000Y-72413000I0J150000D01*
G01*
X92178000Y-72113000D01*
G75*
G02*
X92328000Y-71963000I150000J0D01*
G01*
X93978000Y-71963000D01*
G75*
G02*
X94128000Y-72113000I0J-150000D01*
G01*
G37*
G04 #@! TD.AperFunction*
G04 #@! TA.AperFunction,SMDPad,CuDef*
G36*
G01*
X94128000Y-73383000D02*
X94128000Y-73683000D01*
G75*
G02*
X93978000Y-73833000I-150000J0D01*
G01*
X92328000Y-73833000D01*
G75*
G02*
X92178000Y-73683000I0J150000D01*
G01*
X92178000Y-73383000D01*
G75*
G02*
X92328000Y-73233000I150000J0D01*
G01*
X93978000Y-73233000D01*
G75*
G02*
X94128000Y-73383000I0J-150000D01*
G01*
G37*
G04 #@! TD.AperFunction*
D14*
X98872000Y-71290000D03*
X100772000Y-71290000D03*
X100772000Y-73490000D03*
X99822000Y-73490000D03*
X98872000Y-73490000D03*
G04 #@! TA.AperFunction,SMDPad,CuDef*
G36*
G01*
X113390000Y-71651000D02*
X113390000Y-71351000D01*
G75*
G02*
X113540000Y-71201000I150000J0D01*
G01*
X115190000Y-71201000D01*
G75*
G02*
X115340000Y-71351000I0J-150000D01*
G01*
X115340000Y-71651000D01*
G75*
G02*
X115190000Y-71801000I-150000J0D01*
G01*
X113540000Y-71801000D01*
G75*
G02*
X113390000Y-71651000I0J150000D01*
G01*
G37*
G04 #@! TD.AperFunction*
G04 #@! TA.AperFunction,SMDPad,CuDef*
G36*
G01*
X113390000Y-72921000D02*
X113390000Y-72621000D01*
G75*
G02*
X113540000Y-72471000I150000J0D01*
G01*
X115190000Y-72471000D01*
G75*
G02*
X115340000Y-72621000I0J-150000D01*
G01*
X115340000Y-72921000D01*
G75*
G02*
X115190000Y-73071000I-150000J0D01*
G01*
X113540000Y-73071000D01*
G75*
G02*
X113390000Y-72921000I0J150000D01*
G01*
G37*
G04 #@! TD.AperFunction*
G04 #@! TA.AperFunction,SMDPad,CuDef*
G36*
G01*
X113390000Y-74191000D02*
X113390000Y-73891000D01*
G75*
G02*
X113540000Y-73741000I150000J0D01*
G01*
X115190000Y-73741000D01*
G75*
G02*
X115340000Y-73891000I0J-150000D01*
G01*
X115340000Y-74191000D01*
G75*
G02*
X115190000Y-74341000I-150000J0D01*
G01*
X113540000Y-74341000D01*
G75*
G02*
X113390000Y-74191000I0J150000D01*
G01*
G37*
G04 #@! TD.AperFunction*
G04 #@! TA.AperFunction,SMDPad,CuDef*
G36*
G01*
X113390000Y-75461000D02*
X113390000Y-75161000D01*
G75*
G02*
X113540000Y-75011000I150000J0D01*
G01*
X115190000Y-75011000D01*
G75*
G02*
X115340000Y-75161000I0J-150000D01*
G01*
X115340000Y-75461000D01*
G75*
G02*
X115190000Y-75611000I-150000J0D01*
G01*
X113540000Y-75611000D01*
G75*
G02*
X113390000Y-75461000I0J150000D01*
G01*
G37*
G04 #@! TD.AperFunction*
G04 #@! TA.AperFunction,SMDPad,CuDef*
G36*
G01*
X118340000Y-75461000D02*
X118340000Y-75161000D01*
G75*
G02*
X118490000Y-75011000I150000J0D01*
G01*
X120140000Y-75011000D01*
G75*
G02*
X120290000Y-75161000I0J-150000D01*
G01*
X120290000Y-75461000D01*
G75*
G02*
X120140000Y-75611000I-150000J0D01*
G01*
X118490000Y-75611000D01*
G75*
G02*
X118340000Y-75461000I0J150000D01*
G01*
G37*
G04 #@! TD.AperFunction*
G04 #@! TA.AperFunction,SMDPad,CuDef*
G36*
G01*
X118340000Y-74191000D02*
X118340000Y-73891000D01*
G75*
G02*
X118490000Y-73741000I150000J0D01*
G01*
X120140000Y-73741000D01*
G75*
G02*
X120290000Y-73891000I0J-150000D01*
G01*
X120290000Y-74191000D01*
G75*
G02*
X120140000Y-74341000I-150000J0D01*
G01*
X118490000Y-74341000D01*
G75*
G02*
X118340000Y-74191000I0J150000D01*
G01*
G37*
G04 #@! TD.AperFunction*
G04 #@! TA.AperFunction,SMDPad,CuDef*
G36*
G01*
X118340000Y-72921000D02*
X118340000Y-72621000D01*
G75*
G02*
X118490000Y-72471000I150000J0D01*
G01*
X120140000Y-72471000D01*
G75*
G02*
X120290000Y-72621000I0J-150000D01*
G01*
X120290000Y-72921000D01*
G75*
G02*
X120140000Y-73071000I-150000J0D01*
G01*
X118490000Y-73071000D01*
G75*
G02*
X118340000Y-72921000I0J150000D01*
G01*
G37*
G04 #@! TD.AperFunction*
G04 #@! TA.AperFunction,SMDPad,CuDef*
G36*
G01*
X118340000Y-71651000D02*
X118340000Y-71351000D01*
G75*
G02*
X118490000Y-71201000I150000J0D01*
G01*
X120140000Y-71201000D01*
G75*
G02*
X120290000Y-71351000I0J-150000D01*
G01*
X120290000Y-71651000D01*
G75*
G02*
X120140000Y-71801000I-150000J0D01*
G01*
X118490000Y-71801000D01*
G75*
G02*
X118340000Y-71651000I0J150000D01*
G01*
G37*
G04 #@! TD.AperFunction*
G04 #@! TA.AperFunction,SMDPad,CuDef*
G36*
G01*
X58145000Y-75355000D02*
X58695000Y-75355000D01*
G75*
G02*
X58895000Y-75555000I0J-200000D01*
G01*
X58895000Y-75955000D01*
G75*
G02*
X58695000Y-76155000I-200000J0D01*
G01*
X58145000Y-76155000D01*
G75*
G02*
X57945000Y-75955000I0J200000D01*
G01*
X57945000Y-75555000D01*
G75*
G02*
X58145000Y-75355000I200000J0D01*
G01*
G37*
G04 #@! TD.AperFunction*
G04 #@! TA.AperFunction,SMDPad,CuDef*
G36*
G01*
X58145000Y-73705000D02*
X58695000Y-73705000D01*
G75*
G02*
X58895000Y-73905000I0J-200000D01*
G01*
X58895000Y-74305000D01*
G75*
G02*
X58695000Y-74505000I-200000J0D01*
G01*
X58145000Y-74505000D01*
G75*
G02*
X57945000Y-74305000I0J200000D01*
G01*
X57945000Y-73905000D01*
G75*
G02*
X58145000Y-73705000I200000J0D01*
G01*
G37*
G04 #@! TD.AperFunction*
G04 #@! TA.AperFunction,SMDPad,CuDef*
G36*
G01*
X81386000Y-72943000D02*
X81936000Y-72943000D01*
G75*
G02*
X82136000Y-73143000I0J-200000D01*
G01*
X82136000Y-73543000D01*
G75*
G02*
X81936000Y-73743000I-200000J0D01*
G01*
X81386000Y-73743000D01*
G75*
G02*
X81186000Y-73543000I0J200000D01*
G01*
X81186000Y-73143000D01*
G75*
G02*
X81386000Y-72943000I200000J0D01*
G01*
G37*
G04 #@! TD.AperFunction*
G04 #@! TA.AperFunction,SMDPad,CuDef*
G36*
G01*
X81386000Y-74593000D02*
X81936000Y-74593000D01*
G75*
G02*
X82136000Y-74793000I0J-200000D01*
G01*
X82136000Y-75193000D01*
G75*
G02*
X81936000Y-75393000I-200000J0D01*
G01*
X81386000Y-75393000D01*
G75*
G02*
X81186000Y-75193000I0J200000D01*
G01*
X81186000Y-74793000D01*
G75*
G02*
X81386000Y-74593000I200000J0D01*
G01*
G37*
G04 #@! TD.AperFunction*
G04 #@! TA.AperFunction,SMDPad,CuDef*
G36*
G01*
X104373000Y-72457500D02*
X104923000Y-72457500D01*
G75*
G02*
X105123000Y-72657500I0J-200000D01*
G01*
X105123000Y-73057500D01*
G75*
G02*
X104923000Y-73257500I-200000J0D01*
G01*
X104373000Y-73257500D01*
G75*
G02*
X104173000Y-73057500I0J200000D01*
G01*
X104173000Y-72657500D01*
G75*
G02*
X104373000Y-72457500I200000J0D01*
G01*
G37*
G04 #@! TD.AperFunction*
G04 #@! TA.AperFunction,SMDPad,CuDef*
G36*
G01*
X104373000Y-70807500D02*
X104923000Y-70807500D01*
G75*
G02*
X105123000Y-71007500I0J-200000D01*
G01*
X105123000Y-71407500D01*
G75*
G02*
X104923000Y-71607500I-200000J0D01*
G01*
X104373000Y-71607500D01*
G75*
G02*
X104173000Y-71407500I0J200000D01*
G01*
X104173000Y-71007500D01*
G75*
G02*
X104373000Y-70807500I200000J0D01*
G01*
G37*
G04 #@! TD.AperFunction*
G04 #@! TA.AperFunction,SMDPad,CuDef*
G36*
G01*
X138324000Y-73996000D02*
X137774000Y-73996000D01*
G75*
G02*
X137574000Y-73796000I0J200000D01*
G01*
X137574000Y-73396000D01*
G75*
G02*
X137774000Y-73196000I200000J0D01*
G01*
X138324000Y-73196000D01*
G75*
G02*
X138524000Y-73396000I0J-200000D01*
G01*
X138524000Y-73796000D01*
G75*
G02*
X138324000Y-73996000I-200000J0D01*
G01*
G37*
G04 #@! TD.AperFunction*
G04 #@! TA.AperFunction,SMDPad,CuDef*
G36*
G01*
X138324000Y-72346000D02*
X137774000Y-72346000D01*
G75*
G02*
X137574000Y-72146000I0J200000D01*
G01*
X137574000Y-71746000D01*
G75*
G02*
X137774000Y-71546000I200000J0D01*
G01*
X138324000Y-71546000D01*
G75*
G02*
X138524000Y-71746000I0J-200000D01*
G01*
X138524000Y-72146000D01*
G75*
G02*
X138324000Y-72346000I-200000J0D01*
G01*
G37*
G04 #@! TD.AperFunction*
G04 #@! TA.AperFunction,SMDPad,CuDef*
G36*
G01*
X137774000Y-80435000D02*
X138324000Y-80435000D01*
G75*
G02*
X138524000Y-80635000I0J-200000D01*
G01*
X138524000Y-81035000D01*
G75*
G02*
X138324000Y-81235000I-200000J0D01*
G01*
X137774000Y-81235000D01*
G75*
G02*
X137574000Y-81035000I0J200000D01*
G01*
X137574000Y-80635000D01*
G75*
G02*
X137774000Y-80435000I200000J0D01*
G01*
G37*
G04 #@! TD.AperFunction*
G04 #@! TA.AperFunction,SMDPad,CuDef*
G36*
G01*
X137774000Y-78785000D02*
X138324000Y-78785000D01*
G75*
G02*
X138524000Y-78985000I0J-200000D01*
G01*
X138524000Y-79385000D01*
G75*
G02*
X138324000Y-79585000I-200000J0D01*
G01*
X137774000Y-79585000D01*
G75*
G02*
X137574000Y-79385000I0J200000D01*
G01*
X137574000Y-78985000D01*
G75*
G02*
X137774000Y-78785000I200000J0D01*
G01*
G37*
G04 #@! TD.AperFunction*
G04 #@! TA.AperFunction,SMDPad,CuDef*
G36*
G01*
X137774000Y-75102000D02*
X138324000Y-75102000D01*
G75*
G02*
X138524000Y-75302000I0J-200000D01*
G01*
X138524000Y-75702000D01*
G75*
G02*
X138324000Y-75902000I-200000J0D01*
G01*
X137774000Y-75902000D01*
G75*
G02*
X137574000Y-75702000I0J200000D01*
G01*
X137574000Y-75302000D01*
G75*
G02*
X137774000Y-75102000I200000J0D01*
G01*
G37*
G04 #@! TD.AperFunction*
G04 #@! TA.AperFunction,SMDPad,CuDef*
G36*
G01*
X137774000Y-76752000D02*
X138324000Y-76752000D01*
G75*
G02*
X138524000Y-76952000I0J-200000D01*
G01*
X138524000Y-77352000D01*
G75*
G02*
X138324000Y-77552000I-200000J0D01*
G01*
X137774000Y-77552000D01*
G75*
G02*
X137574000Y-77352000I0J200000D01*
G01*
X137574000Y-76952000D01*
G75*
G02*
X137774000Y-76752000I200000J0D01*
G01*
G37*
G04 #@! TD.AperFunction*
G04 #@! TA.AperFunction,SMDPad,CuDef*
G36*
G01*
X63177000Y-76212000D02*
X62807000Y-76212000D01*
G75*
G02*
X62672000Y-76077000I0J135000D01*
G01*
X62672000Y-75807000D01*
G75*
G02*
X62807000Y-75672000I135000J0D01*
G01*
X63177000Y-75672000D01*
G75*
G02*
X63312000Y-75807000I0J-135000D01*
G01*
X63312000Y-76077000D01*
G75*
G02*
X63177000Y-76212000I-135000J0D01*
G01*
G37*
G04 #@! TD.AperFunction*
G04 #@! TA.AperFunction,SMDPad,CuDef*
G36*
G01*
X63177000Y-77232000D02*
X62807000Y-77232000D01*
G75*
G02*
X62672000Y-77097000I0J135000D01*
G01*
X62672000Y-76827000D01*
G75*
G02*
X62807000Y-76692000I135000J0D01*
G01*
X63177000Y-76692000D01*
G75*
G02*
X63312000Y-76827000I0J-135000D01*
G01*
X63312000Y-77097000D01*
G75*
G02*
X63177000Y-77232000I-135000J0D01*
G01*
G37*
G04 #@! TD.AperFunction*
G04 #@! TA.AperFunction,SMDPad,CuDef*
G36*
G01*
X69832000Y-73591000D02*
X69832000Y-73221000D01*
G75*
G02*
X69967000Y-73086000I135000J0D01*
G01*
X70237000Y-73086000D01*
G75*
G02*
X70372000Y-73221000I0J-135000D01*
G01*
X70372000Y-73591000D01*
G75*
G02*
X70237000Y-73726000I-135000J0D01*
G01*
X69967000Y-73726000D01*
G75*
G02*
X69832000Y-73591000I0J135000D01*
G01*
G37*
G04 #@! TD.AperFunction*
G04 #@! TA.AperFunction,SMDPad,CuDef*
G36*
G01*
X70852000Y-73591000D02*
X70852000Y-73221000D01*
G75*
G02*
X70987000Y-73086000I135000J0D01*
G01*
X71257000Y-73086000D01*
G75*
G02*
X71392000Y-73221000I0J-135000D01*
G01*
X71392000Y-73591000D01*
G75*
G02*
X71257000Y-73726000I-135000J0D01*
G01*
X70987000Y-73726000D01*
G75*
G02*
X70852000Y-73591000I0J135000D01*
G01*
G37*
G04 #@! TD.AperFunction*
G04 #@! TA.AperFunction,SMDPad,CuDef*
G36*
G01*
X89593000Y-80026000D02*
X89223000Y-80026000D01*
G75*
G02*
X89088000Y-79891000I0J135000D01*
G01*
X89088000Y-79621000D01*
G75*
G02*
X89223000Y-79486000I135000J0D01*
G01*
X89593000Y-79486000D01*
G75*
G02*
X89728000Y-79621000I0J-135000D01*
G01*
X89728000Y-79891000D01*
G75*
G02*
X89593000Y-80026000I-135000J0D01*
G01*
G37*
G04 #@! TD.AperFunction*
G04 #@! TA.AperFunction,SMDPad,CuDef*
G36*
G01*
X89593000Y-81046000D02*
X89223000Y-81046000D01*
G75*
G02*
X89088000Y-80911000I0J135000D01*
G01*
X89088000Y-80641000D01*
G75*
G02*
X89223000Y-80506000I135000J0D01*
G01*
X89593000Y-80506000D01*
G75*
G02*
X89728000Y-80641000I0J-135000D01*
G01*
X89728000Y-80911000D01*
G75*
G02*
X89593000Y-81046000I-135000J0D01*
G01*
G37*
G04 #@! TD.AperFunction*
G04 #@! TA.AperFunction,SMDPad,CuDef*
G36*
G01*
X88376000Y-75369000D02*
X88376000Y-74999000D01*
G75*
G02*
X88511000Y-74864000I135000J0D01*
G01*
X88781000Y-74864000D01*
G75*
G02*
X88916000Y-74999000I0J-135000D01*
G01*
X88916000Y-75369000D01*
G75*
G02*
X88781000Y-75504000I-135000J0D01*
G01*
X88511000Y-75504000D01*
G75*
G02*
X88376000Y-75369000I0J135000D01*
G01*
G37*
G04 #@! TD.AperFunction*
G04 #@! TA.AperFunction,SMDPad,CuDef*
G36*
G01*
X89396000Y-75369000D02*
X89396000Y-74999000D01*
G75*
G02*
X89531000Y-74864000I135000J0D01*
G01*
X89801000Y-74864000D01*
G75*
G02*
X89936000Y-74999000I0J-135000D01*
G01*
X89936000Y-75369000D01*
G75*
G02*
X89801000Y-75504000I-135000J0D01*
G01*
X89531000Y-75504000D01*
G75*
G02*
X89396000Y-75369000I0J135000D01*
G01*
G37*
G04 #@! TD.AperFunction*
G04 #@! TA.AperFunction,SMDPad,CuDef*
G36*
G01*
X105468000Y-78881000D02*
X105098000Y-78881000D01*
G75*
G02*
X104963000Y-78746000I0J135000D01*
G01*
X104963000Y-78476000D01*
G75*
G02*
X105098000Y-78341000I135000J0D01*
G01*
X105468000Y-78341000D01*
G75*
G02*
X105603000Y-78476000I0J-135000D01*
G01*
X105603000Y-78746000D01*
G75*
G02*
X105468000Y-78881000I-135000J0D01*
G01*
G37*
G04 #@! TD.AperFunction*
G04 #@! TA.AperFunction,SMDPad,CuDef*
G36*
G01*
X105468000Y-79901000D02*
X105098000Y-79901000D01*
G75*
G02*
X104963000Y-79766000I0J135000D01*
G01*
X104963000Y-79496000D01*
G75*
G02*
X105098000Y-79361000I135000J0D01*
G01*
X105468000Y-79361000D01*
G75*
G02*
X105603000Y-79496000I0J-135000D01*
G01*
X105603000Y-79766000D01*
G75*
G02*
X105468000Y-79901000I-135000J0D01*
G01*
G37*
G04 #@! TD.AperFunction*
G04 #@! TA.AperFunction,SMDPad,CuDef*
G36*
G01*
X111234000Y-71813000D02*
X111234000Y-71443000D01*
G75*
G02*
X111369000Y-71308000I135000J0D01*
G01*
X111639000Y-71308000D01*
G75*
G02*
X111774000Y-71443000I0J-135000D01*
G01*
X111774000Y-71813000D01*
G75*
G02*
X111639000Y-71948000I-135000J0D01*
G01*
X111369000Y-71948000D01*
G75*
G02*
X111234000Y-71813000I0J135000D01*
G01*
G37*
G04 #@! TD.AperFunction*
G04 #@! TA.AperFunction,SMDPad,CuDef*
G36*
G01*
X112254000Y-71813000D02*
X112254000Y-71443000D01*
G75*
G02*
X112389000Y-71308000I135000J0D01*
G01*
X112659000Y-71308000D01*
G75*
G02*
X112794000Y-71443000I0J-135000D01*
G01*
X112794000Y-71813000D01*
G75*
G02*
X112659000Y-71948000I-135000J0D01*
G01*
X112389000Y-71948000D01*
G75*
G02*
X112254000Y-71813000I0J135000D01*
G01*
G37*
G04 #@! TD.AperFunction*
G04 #@! TA.AperFunction,ComponentPad*
G36*
G01*
X59062000Y-79013999D02*
X59062000Y-80244001D01*
G75*
G02*
X58812001Y-80494000I-249999J0D01*
G01*
X58281999Y-80494000D01*
G75*
G02*
X58032000Y-80244001I0J249999D01*
G01*
X58032000Y-79013999D01*
G75*
G02*
X58281999Y-78764000I249999J0D01*
G01*
X58812001Y-78764000D01*
G75*
G02*
X59062000Y-79013999I0J-249999D01*
G01*
G37*
G04 #@! TD.AperFunction*
D15*
X57047000Y-79629000D03*
G04 #@! TA.AperFunction,ComponentPad*
G36*
G01*
X84589000Y-78505999D02*
X84589000Y-79736001D01*
G75*
G02*
X84339001Y-79986000I-249999J0D01*
G01*
X83808999Y-79986000D01*
G75*
G02*
X83559000Y-79736001I0J249999D01*
G01*
X83559000Y-78505999D01*
G75*
G02*
X83808999Y-78256000I249999J0D01*
G01*
X84339001Y-78256000D01*
G75*
G02*
X84589000Y-78505999I0J-249999D01*
G01*
G37*
G04 #@! TD.AperFunction*
X82574000Y-79121000D03*
X101068000Y-78994000D03*
G04 #@! TA.AperFunction,ComponentPad*
G36*
G01*
X99053000Y-79609001D02*
X99053000Y-78378999D01*
G75*
G02*
X99302999Y-78129000I249999J0D01*
G01*
X99833001Y-78129000D01*
G75*
G02*
X100083000Y-78378999I0J-249999D01*
G01*
X100083000Y-79609001D01*
G75*
G02*
X99833001Y-79859000I-249999J0D01*
G01*
X99302999Y-79859000D01*
G75*
G02*
X99053000Y-79609001I0J249999D01*
G01*
G37*
G04 #@! TD.AperFunction*
G04 #@! TA.AperFunction,ComponentPad*
G36*
G01*
X124313001Y-80779000D02*
X123082999Y-80779000D01*
G75*
G02*
X122833000Y-80529001I0J249999D01*
G01*
X122833000Y-79998999D01*
G75*
G02*
X123082999Y-79749000I249999J0D01*
G01*
X124313001Y-79749000D01*
G75*
G02*
X124563000Y-79998999I0J-249999D01*
G01*
X124563000Y-80529001D01*
G75*
G02*
X124313001Y-80779000I-249999J0D01*
G01*
G37*
G04 #@! TD.AperFunction*
D16*
X123698000Y-78764000D03*
X123698000Y-77264000D03*
X123698000Y-75764000D03*
X123698000Y-74264000D03*
X123698000Y-72764000D03*
X123698000Y-71264000D03*
X123698000Y-69764000D03*
X123698000Y-68264000D03*
X123698000Y-66764000D03*
D17*
X108077000Y-73152000D03*
X110109000Y-75311000D03*
X121285000Y-70612000D03*
X132842000Y-72263000D03*
X132842000Y-75819000D03*
X132059000Y-78764000D03*
X54356000Y-73406000D03*
X57404000Y-69342000D03*
X65786000Y-68072000D03*
X73660000Y-75438000D03*
X77724000Y-74168000D03*
X79248000Y-67056000D03*
X93472000Y-68326000D03*
X116332000Y-68072000D03*
X100076000Y-74676000D03*
X108458000Y-75438000D03*
X115443000Y-78740000D03*
X113284000Y-78740000D03*
X108910989Y-64825011D03*
X82621989Y-64825011D03*
X56205989Y-64825011D03*
X81263988Y-65675012D03*
X107679988Y-65675012D03*
X69342000Y-75184000D03*
X120777000Y-69303000D03*
X93218000Y-75184000D03*
X90424000Y-69850000D03*
X70104000Y-68072000D03*
X117602000Y-74891000D03*
X71120000Y-70104000D03*
X91440000Y-71882000D03*
X111252000Y-72898000D03*
X117729000Y-76200000D03*
D18*
X60452000Y-74478000D02*
X60452000Y-74422000D01*
X60452000Y-74422000D02*
X60047500Y-74017500D01*
X59793500Y-74017500D02*
X59793500Y-72540500D01*
X60047500Y-74017500D02*
X59793500Y-74017500D01*
X59793500Y-74017500D02*
X58420000Y-74017500D01*
X60452000Y-71882000D02*
X61696000Y-71882000D01*
X59793500Y-72540500D02*
X60452000Y-71882000D01*
X55372000Y-74422000D02*
X56388000Y-74422000D01*
X56792500Y-74017500D02*
X58420000Y-74017500D01*
X56388000Y-74422000D02*
X56792500Y-74017500D01*
X53172000Y-76540000D02*
X53340000Y-76708000D01*
X60047500Y-75842500D02*
X60452000Y-75438000D01*
X58420000Y-75842500D02*
X60047500Y-75842500D01*
X53189500Y-75842500D02*
X53172000Y-75860000D01*
X58420000Y-75842500D02*
X53189500Y-75842500D01*
X53172000Y-75860000D02*
X53172000Y-76540000D01*
X53172000Y-74422000D02*
X53172000Y-75860000D01*
X119315000Y-71501000D02*
X119315000Y-71439000D01*
X98534000Y-71628000D02*
X98872000Y-71290000D01*
X97028000Y-71628000D02*
X98534000Y-71628000D01*
X88203000Y-74741000D02*
X88646000Y-75184000D01*
X88203000Y-73533000D02*
X88203000Y-74741000D01*
X87228000Y-73533000D02*
X88203000Y-73533000D01*
X86614000Y-72919000D02*
X87228000Y-73533000D01*
X87376000Y-67564000D02*
X86614000Y-68326000D01*
X89903000Y-67564000D02*
X87376000Y-67564000D01*
X78824000Y-71204000D02*
X78486000Y-70866000D01*
X86530000Y-71966000D02*
X86614000Y-71882000D01*
X86614000Y-71882000D02*
X86614000Y-72919000D01*
X86614000Y-68326000D02*
X86614000Y-71882000D01*
X78824000Y-71966000D02*
X86530000Y-71966000D01*
X78824000Y-73218000D02*
X78824000Y-71966000D01*
X78824000Y-71966000D02*
X78824000Y-71204000D01*
X97028000Y-71628000D02*
X97028000Y-68834000D01*
X89903000Y-67069000D02*
X89903000Y-67564000D01*
X94832990Y-66638990D02*
X90333010Y-66638990D01*
X90333010Y-66638990D02*
X89903000Y-67069000D01*
X97028000Y-68834000D02*
X94832990Y-66638990D01*
X68451000Y-71755000D02*
X70102000Y-73406000D01*
X67883000Y-71755000D02*
X68451000Y-71755000D01*
X64262000Y-69114000D02*
X64262000Y-69596000D01*
X66421000Y-71755000D02*
X67883000Y-71755000D01*
X64262000Y-69596000D02*
X66421000Y-71755000D01*
X55372000Y-72522000D02*
X55372000Y-71628000D01*
X54369000Y-70625000D02*
X52070000Y-70625000D01*
X55372000Y-71628000D02*
X54369000Y-70625000D01*
X57018000Y-72522000D02*
X55372000Y-72522000D01*
X60426000Y-69114000D02*
X57018000Y-72522000D01*
X100004510Y-70157490D02*
X98872000Y-71290000D01*
X119315000Y-71501000D02*
X117971490Y-70157490D01*
X61950000Y-68446390D02*
X61950000Y-69114000D01*
X63732400Y-66663990D02*
X61950000Y-68446390D01*
X78486000Y-70866000D02*
X74283990Y-66663990D01*
X61950000Y-69114000D02*
X60426000Y-69114000D01*
X74283990Y-66663990D02*
X63732400Y-66663990D01*
X64262000Y-69114000D02*
X61950000Y-69114000D01*
X116711000Y-80965000D02*
X117280000Y-81534000D01*
X116711000Y-80645000D02*
X116711000Y-80965000D01*
X110967000Y-79134000D02*
X112334000Y-77767000D01*
X109601000Y-79134000D02*
X110967000Y-79134000D01*
X109601000Y-81278000D02*
X109599000Y-81280000D01*
X109601000Y-79134000D02*
X109601000Y-81278000D01*
X112334000Y-77767000D02*
X112334000Y-77536000D01*
X112334000Y-77536000D02*
X110109000Y-75311000D01*
X108023510Y-73098510D02*
X108077000Y-73152000D01*
X108023510Y-70157490D02*
X108023510Y-73098510D01*
X108023510Y-70157490D02*
X100004510Y-70157490D01*
X119380000Y-71436000D02*
X119315000Y-71501000D01*
X119380000Y-69101000D02*
X119380000Y-71436000D01*
X111432490Y-71556490D02*
X111504000Y-71628000D01*
X111432490Y-70157490D02*
X111432490Y-71556490D01*
X117971490Y-70157490D02*
X111432490Y-70157490D01*
X111432490Y-70157490D02*
X108023510Y-70157490D01*
X120759330Y-78764000D02*
X117989330Y-81534000D01*
X117989330Y-81534000D02*
X117280000Y-81534000D01*
X120396000Y-71501000D02*
X121285000Y-70612000D01*
X119315000Y-71501000D02*
X120396000Y-71501000D01*
X134300000Y-73721000D02*
X132842000Y-72263000D01*
X134382000Y-73721000D02*
X134300000Y-73721000D01*
X132842000Y-75864000D02*
X134382000Y-77404000D01*
X132842000Y-75819000D02*
X132842000Y-75864000D01*
D19*
X132059000Y-78764000D02*
X132059000Y-78764000D01*
X132059000Y-78764000D02*
X134382000Y-81087000D01*
D18*
X123698000Y-78764000D02*
X120759330Y-78764000D01*
D19*
X123698000Y-78764000D02*
X132059000Y-78764000D01*
D18*
X54290000Y-73472000D02*
X54356000Y-73406000D01*
X53172000Y-73472000D02*
X54290000Y-73472000D01*
X76624000Y-74168000D02*
X77724000Y-74168000D01*
X99822000Y-74422000D02*
X100076000Y-74676000D01*
X99822000Y-73490000D02*
X99822000Y-74422000D01*
X97816000Y-72390000D02*
X97028000Y-73178000D01*
X99822000Y-72460000D02*
X99752000Y-72390000D01*
X99752000Y-72390000D02*
X97816000Y-72390000D01*
X99822000Y-73490000D02*
X99822000Y-72460000D01*
D20*
X113034000Y-81407000D02*
X113034000Y-81022000D01*
X113284000Y-80772000D02*
X113284000Y-79967000D01*
X113034000Y-81022000D02*
X113284000Y-80772000D01*
D18*
X62992000Y-75942000D02*
X62992000Y-74422000D01*
X63246000Y-74168000D02*
X63246000Y-71882000D01*
X62992000Y-74422000D02*
X63246000Y-74168000D01*
X66607000Y-75942000D02*
X66802000Y-76137000D01*
X62992000Y-75942000D02*
X66607000Y-75942000D01*
X65849000Y-78740000D02*
X66802000Y-77787000D01*
X64742000Y-78740000D02*
X65849000Y-78740000D01*
X67883000Y-69215000D02*
X72833000Y-69215000D01*
X73808000Y-69215000D02*
X72833000Y-69215000D01*
X74258010Y-69665010D02*
X73808000Y-69215000D01*
X74258010Y-72273953D02*
X74258010Y-69665010D01*
X68744963Y-77787000D02*
X74258010Y-72273953D01*
X66802000Y-77787000D02*
X68744963Y-77787000D01*
X92142000Y-80776000D02*
X92202000Y-80716000D01*
X89408000Y-80776000D02*
X92142000Y-80776000D01*
X62992000Y-77950000D02*
X63782000Y-78740000D01*
X62992000Y-76962000D02*
X62992000Y-77950000D01*
X75643999Y-73482999D02*
X75643999Y-78562253D01*
X75908998Y-73218000D02*
X75643999Y-73482999D01*
X76624000Y-73218000D02*
X75908998Y-73218000D01*
X63754000Y-78768000D02*
X63782000Y-78740000D01*
X63754000Y-80010000D02*
X63754000Y-78768000D01*
X74196252Y-80010000D02*
X75643999Y-78562253D01*
X63754000Y-80010000D02*
X74196252Y-80010000D01*
X105662000Y-80010000D02*
X105283000Y-79631000D01*
X106708000Y-80010000D02*
X105662000Y-80010000D01*
X52191999Y-72786999D02*
X52191999Y-78604253D01*
X52456998Y-72522000D02*
X52191999Y-72786999D01*
X53172000Y-72522000D02*
X52456998Y-72522000D01*
X116711000Y-79119000D02*
X116711000Y-78359000D01*
X116711000Y-79502000D02*
X116711000Y-79119000D01*
X114234000Y-79967000D02*
X114234000Y-78928000D01*
X114234000Y-78928000D02*
X114234000Y-77767000D01*
X113472000Y-78928000D02*
X113284000Y-78740000D01*
X114234000Y-78928000D02*
X113472000Y-78928000D01*
X84074000Y-79986000D02*
X84074000Y-79121000D01*
X82861990Y-81198010D02*
X84074000Y-79986000D01*
X78279756Y-81198010D02*
X82861990Y-81198010D01*
X75643999Y-78562253D02*
X78279756Y-81198010D01*
X84864000Y-80776000D02*
X84074000Y-79986000D01*
X89408000Y-80776000D02*
X84864000Y-80776000D01*
X61313000Y-79629000D02*
X62992000Y-77950000D01*
X58547000Y-79629000D02*
X61313000Y-79629000D01*
X58547000Y-80494000D02*
X58547000Y-79629000D01*
X58096990Y-80944010D02*
X58547000Y-80494000D01*
X54531756Y-80944010D02*
X58096990Y-80944010D01*
X52191999Y-78604253D02*
X54531756Y-80944010D01*
X98872000Y-73848000D02*
X98872000Y-73490000D01*
X98171000Y-74549000D02*
X98872000Y-73848000D01*
X98171000Y-77597000D02*
X98171000Y-74549000D01*
X99568000Y-78994000D02*
X98171000Y-77597000D01*
X104350990Y-80563010D02*
X105283000Y-79631000D01*
X99639000Y-80716000D02*
X99639000Y-79065000D01*
X92202000Y-80716000D02*
X99639000Y-80716000D01*
X99639000Y-79065000D02*
X99568000Y-78994000D01*
X104198000Y-80716000D02*
X104350990Y-80563010D01*
X99639000Y-80716000D02*
X104198000Y-80716000D01*
X116441000Y-79502000D02*
X115570000Y-80373000D01*
X116711000Y-79502000D02*
X116441000Y-79502000D01*
X114640000Y-80373000D02*
X114234000Y-79967000D01*
X115570000Y-80373000D02*
X114640000Y-80373000D01*
X76962000Y-78486000D02*
X76962000Y-76962000D01*
X76962000Y-76962000D02*
X76624000Y-76624000D01*
X84165000Y-74993000D02*
X84201000Y-75029000D01*
X81661000Y-74993000D02*
X84165000Y-74993000D01*
X76633999Y-75893001D02*
X76624000Y-75903000D01*
X80760999Y-75893001D02*
X76633999Y-75893001D01*
X81661000Y-74993000D02*
X80760999Y-75893001D01*
X76624000Y-75903000D02*
X76624000Y-75118000D01*
X76624000Y-76624000D02*
X76624000Y-75903000D01*
X87617000Y-76962000D02*
X87617000Y-76949000D01*
X79886000Y-75118000D02*
X81661000Y-73343000D01*
X78824000Y-75118000D02*
X79886000Y-75118000D01*
X83475000Y-73343000D02*
X84201000Y-74069000D01*
X81661000Y-73343000D02*
X83475000Y-73343000D01*
X84724000Y-74069000D02*
X84201000Y-74069000D01*
X87617000Y-76962000D02*
X84724000Y-74069000D01*
X89167000Y-76962000D02*
X91377000Y-76962000D01*
X89408000Y-77203000D02*
X89167000Y-76962000D01*
X89408000Y-79756000D02*
X89408000Y-77203000D01*
X88203000Y-70993000D02*
X93153000Y-70993000D01*
X92202000Y-79756000D02*
X92202000Y-79248000D01*
X93027000Y-78423000D02*
X93027000Y-76962000D01*
X92202000Y-79248000D02*
X93027000Y-78423000D01*
X94128000Y-70993000D02*
X95504000Y-72369000D01*
X93153000Y-70993000D02*
X94128000Y-70993000D01*
X95504000Y-74485000D02*
X93027000Y-76962000D01*
X95504000Y-72369000D02*
X95504000Y-74485000D01*
X101155000Y-73873000D02*
X100772000Y-73490000D01*
X101155000Y-75692000D02*
X101155000Y-73873000D01*
X102412000Y-72616000D02*
X101155000Y-73873000D01*
X102616000Y-72616000D02*
X102412000Y-72616000D01*
X104319000Y-72616000D02*
X104648000Y-72945000D01*
X102616000Y-72616000D02*
X104319000Y-72616000D01*
X100772000Y-71290000D02*
X102532000Y-71290000D01*
X102702000Y-71120000D02*
X102532000Y-71290000D01*
X104648000Y-71120000D02*
X102702000Y-71120000D01*
X102616000Y-71206000D02*
X102702000Y-71120000D01*
X102616000Y-71656000D02*
X102616000Y-71206000D01*
X104648000Y-71207500D02*
X105878500Y-71207500D01*
X105878500Y-74842500D02*
X105283000Y-75438000D01*
X105878500Y-71207500D02*
X105878500Y-74842500D01*
X107187000Y-78611000D02*
X107188000Y-78612000D01*
X105283000Y-78611000D02*
X107187000Y-78611000D01*
X105283000Y-78611000D02*
X105283000Y-76988000D01*
X114365000Y-74041000D02*
X119315000Y-74041000D01*
X107668000Y-80010000D02*
X107823000Y-80010000D01*
X108113010Y-79719990D02*
X108113010Y-77887010D01*
X108113010Y-77887010D02*
X107188000Y-76962000D01*
X107823000Y-80010000D02*
X108113010Y-79719990D01*
X107188000Y-75438000D02*
X107188000Y-76962000D01*
X108458000Y-74168000D02*
X107188000Y-75438000D01*
X114238000Y-74168000D02*
X108458000Y-74168000D01*
X114365000Y-74041000D02*
X114238000Y-74168000D01*
X137922000Y-67818000D02*
X137668000Y-67564000D01*
X139674020Y-69570020D02*
X137668000Y-67564000D01*
X139674020Y-77559980D02*
X139674020Y-69570020D01*
X138049000Y-79185000D02*
X139674020Y-77559980D01*
X135128000Y-67564000D02*
X135128000Y-66164000D01*
X133489029Y-64825011D02*
X108910989Y-64825011D01*
X108910989Y-64825011D02*
X82621989Y-64825011D01*
X82621989Y-64825011D02*
X56205989Y-64825011D01*
X133789011Y-64825011D02*
X133489029Y-64825011D01*
X135128000Y-66164000D02*
X133789011Y-64825011D01*
X135989996Y-68914010D02*
X135128000Y-68052014D01*
X136411264Y-68914010D02*
X135989996Y-68914010D01*
X138974010Y-71476756D02*
X136411264Y-68914010D01*
X138974010Y-74576990D02*
X138974010Y-71476756D01*
X135128000Y-68052014D02*
X135128000Y-67564000D01*
X138049000Y-75502000D02*
X138974010Y-74576990D01*
X54864000Y-66164000D02*
X54864000Y-67564000D01*
X133649050Y-65675012D02*
X107679988Y-65675012D01*
X55352988Y-65675012D02*
X54864000Y-66164000D01*
X133858000Y-65883962D02*
X133649050Y-65675012D01*
X133858000Y-67564000D02*
X133858000Y-65883962D01*
X81263988Y-65675012D02*
X55352988Y-65675012D01*
X107679988Y-65675012D02*
X81263988Y-65675012D01*
X133858000Y-68230000D02*
X133858000Y-67564000D01*
X137574000Y-71946000D02*
X133858000Y-68230000D01*
X138049000Y-71946000D02*
X137574000Y-71946000D01*
X55776000Y-78358000D02*
X57047000Y-79629000D01*
X53340000Y-78358000D02*
X55776000Y-78358000D01*
X72833000Y-71755000D02*
X72773000Y-71755000D01*
X67883000Y-70485000D02*
X69977000Y-70485000D01*
X71247000Y-71755000D02*
X72833000Y-71755000D01*
X69977000Y-70485000D02*
X71247000Y-71755000D01*
X71122000Y-73406000D02*
X72136000Y-73406000D01*
X72833000Y-72709000D02*
X72136000Y-73406000D01*
X72833000Y-71755000D02*
X72833000Y-72709000D01*
X71122000Y-73969685D02*
X71122000Y-73406000D01*
X69907685Y-75184000D02*
X71122000Y-73969685D01*
X69342000Y-75184000D02*
X69907685Y-75184000D01*
X123170315Y-66764000D02*
X123698000Y-66764000D01*
X123316000Y-66764000D02*
X123698000Y-66764000D01*
X120777000Y-69303000D02*
X123316000Y-66764000D01*
X88203000Y-72263000D02*
X90297000Y-72263000D01*
X91567000Y-73533000D02*
X93153000Y-73533000D01*
X90297000Y-72263000D02*
X91567000Y-73533000D01*
X89916000Y-75184000D02*
X91567000Y-73533000D01*
X89666000Y-75184000D02*
X89916000Y-75184000D01*
X93218000Y-73598000D02*
X93153000Y-73533000D01*
X93218000Y-75184000D02*
X93218000Y-73598000D01*
X114365000Y-71501000D02*
X115697000Y-71501000D01*
X116967000Y-72771000D02*
X119315000Y-72771000D01*
X115697000Y-71501000D02*
X116967000Y-72771000D01*
X123483270Y-69764000D02*
X123698000Y-69764000D01*
X119315000Y-72771000D02*
X120476270Y-72771000D01*
X114238000Y-71628000D02*
X114365000Y-71501000D01*
X112524000Y-71628000D02*
X114238000Y-71628000D01*
X120476270Y-72771000D02*
X123483270Y-69764000D01*
X133825000Y-71264000D02*
X134382000Y-71821000D01*
X124477000Y-71264000D02*
X123698000Y-71264000D01*
X123698000Y-71264000D02*
X133825000Y-71264000D01*
X134382000Y-75504000D02*
X131642000Y-72764000D01*
X131642000Y-72764000D02*
X123698000Y-72764000D01*
X129459000Y-74264000D02*
X134382000Y-79187000D01*
X123698000Y-74264000D02*
X129459000Y-74264000D01*
X81939000Y-78486000D02*
X82574000Y-79121000D01*
X78612000Y-78486000D02*
X81939000Y-78486000D01*
X101068000Y-77255000D02*
X101068000Y-78994000D01*
X99505000Y-75692000D02*
X101068000Y-77255000D01*
X137207000Y-73596000D02*
X136382000Y-72771000D01*
X138049000Y-73596000D02*
X137207000Y-73596000D01*
X137080000Y-80835000D02*
X136382000Y-80137000D01*
X138049000Y-80835000D02*
X137080000Y-80835000D01*
X137080000Y-77152000D02*
X136382000Y-76454000D01*
X138049000Y-77152000D02*
X137080000Y-77152000D01*
X112014000Y-80287000D02*
X112334000Y-79967000D01*
X112014000Y-81407000D02*
X112014000Y-80287000D01*
X111887000Y-81280000D02*
X112014000Y-81407000D01*
X110619000Y-81280000D02*
X111887000Y-81280000D01*
X88330000Y-69850000D02*
X88203000Y-69723000D01*
X90424000Y-69850000D02*
X88330000Y-69850000D01*
X68010000Y-68072000D02*
X67883000Y-67945000D01*
X70104000Y-68072000D02*
X68010000Y-68072000D01*
X117731000Y-79502000D02*
X117731000Y-80645000D01*
X118001000Y-79502000D02*
X117731000Y-79502000D01*
X119315000Y-78188000D02*
X118001000Y-79502000D01*
X119315000Y-75311000D02*
X119315000Y-78188000D01*
X118022000Y-75311000D02*
X117602000Y-74891000D01*
X119315000Y-75311000D02*
X118022000Y-75311000D01*
X71501000Y-70485000D02*
X71120000Y-70104000D01*
X72833000Y-70485000D02*
X71501000Y-70485000D01*
X92772000Y-71882000D02*
X93153000Y-72263000D01*
X91440000Y-71882000D02*
X92772000Y-71882000D01*
X114238000Y-72898000D02*
X114365000Y-72771000D01*
X111252000Y-72898000D02*
X114238000Y-72898000D01*
X117731000Y-77216000D02*
X117731000Y-78359000D01*
X117731000Y-76202000D02*
X117729000Y-76200000D01*
X117731000Y-77216000D02*
X117731000Y-76202000D01*
D21*
X140945000Y-82569940D02*
X140945001Y-82569950D01*
X140945000Y-83414000D01*
X51206000Y-83414000D01*
X51206000Y-70027219D01*
X51240506Y-70055537D01*
X51300945Y-70087843D01*
X51258426Y-70167389D01*
X51223837Y-70281416D01*
X51212157Y-70400000D01*
X51212157Y-70850000D01*
X51223837Y-70968584D01*
X51258426Y-71082611D01*
X51314597Y-71187699D01*
X51390190Y-71279810D01*
X51482301Y-71355403D01*
X51587389Y-71411574D01*
X51701416Y-71446163D01*
X51820000Y-71457843D01*
X52320000Y-71457843D01*
X52438584Y-71446163D01*
X52552611Y-71411574D01*
X52657699Y-71355403D01*
X52749810Y-71279810D01*
X52769350Y-71256000D01*
X54107632Y-71256000D01*
X54695126Y-71843495D01*
X54629304Y-71878678D01*
X54571289Y-71926289D01*
X54523678Y-71984304D01*
X54488299Y-72050492D01*
X54466513Y-72122311D01*
X54459157Y-72197000D01*
X54459157Y-72847000D01*
X54466513Y-72921689D01*
X54488299Y-72993508D01*
X54523678Y-73059696D01*
X54571289Y-73117711D01*
X54629304Y-73165322D01*
X54695492Y-73200701D01*
X54767311Y-73222487D01*
X54842000Y-73229843D01*
X55902000Y-73229843D01*
X55976689Y-73222487D01*
X56048508Y-73200701D01*
X56114696Y-73165322D01*
X56129711Y-73153000D01*
X56987010Y-73153000D01*
X57018000Y-73156052D01*
X57048990Y-73153000D01*
X57048998Y-73153000D01*
X57141698Y-73143870D01*
X57260642Y-73107789D01*
X57370261Y-73049196D01*
X57466343Y-72970343D01*
X57486105Y-72946263D01*
X60687369Y-69745000D01*
X61919002Y-69745000D01*
X61950000Y-69748053D01*
X61980998Y-69745000D01*
X63562650Y-69745000D01*
X63582190Y-69768810D01*
X63674301Y-69844403D01*
X63681286Y-69848137D01*
X63734804Y-69948261D01*
X63813658Y-70044343D01*
X63837733Y-70064101D01*
X65952899Y-72179268D01*
X65972657Y-72203343D01*
X65996732Y-72223101D01*
X65996734Y-72223103D01*
X66045349Y-72263000D01*
X66068739Y-72282196D01*
X66178358Y-72340789D01*
X66297302Y-72376870D01*
X66390002Y-72386000D01*
X66390011Y-72386000D01*
X66420999Y-72389052D01*
X66451987Y-72386000D01*
X66832981Y-72386000D01*
X66854090Y-72397283D01*
X66954047Y-72427605D01*
X67058000Y-72437843D01*
X68241475Y-72437843D01*
X69455114Y-73651483D01*
X69459107Y-73692026D01*
X69488575Y-73789170D01*
X69536429Y-73878698D01*
X69600830Y-73957170D01*
X69679302Y-74021571D01*
X69768830Y-74069425D01*
X69865974Y-74098893D01*
X69967000Y-74108843D01*
X70090473Y-74108843D01*
X69708751Y-74490565D01*
X69569809Y-74433013D01*
X69418922Y-74403000D01*
X69265078Y-74403000D01*
X69114191Y-74433013D01*
X68972058Y-74491887D01*
X68844141Y-74577358D01*
X68735358Y-74686141D01*
X68649887Y-74814058D01*
X68591013Y-74956191D01*
X68561000Y-75107078D01*
X68561000Y-75260922D01*
X68591013Y-75411809D01*
X68649887Y-75553942D01*
X68735358Y-75681859D01*
X68844141Y-75790642D01*
X68972058Y-75876113D01*
X69114191Y-75934987D01*
X69265078Y-75965000D01*
X69418922Y-75965000D01*
X69569809Y-75934987D01*
X69711942Y-75876113D01*
X69803405Y-75815000D01*
X69824595Y-75815000D01*
X68483595Y-77156000D01*
X67466141Y-77156000D01*
X67400810Y-77102384D01*
X67300044Y-77048523D01*
X67190707Y-77015356D01*
X67077000Y-77004157D01*
X66527000Y-77004157D01*
X66413293Y-77015356D01*
X66303956Y-77048523D01*
X66203190Y-77102384D01*
X66114868Y-77174868D01*
X66042384Y-77263190D01*
X65988523Y-77363956D01*
X65955356Y-77473293D01*
X65944157Y-77587000D01*
X65944157Y-77752474D01*
X65587632Y-78109000D01*
X65123324Y-78109000D01*
X65082083Y-78086956D01*
X64984002Y-78057203D01*
X64882000Y-78047157D01*
X64602000Y-78047157D01*
X64499998Y-78057203D01*
X64401917Y-78086956D01*
X64311524Y-78135272D01*
X64262000Y-78175915D01*
X64212476Y-78135272D01*
X64122083Y-78086956D01*
X64024002Y-78057203D01*
X63988029Y-78053660D01*
X63623000Y-77688632D01*
X63623000Y-77355833D01*
X63655425Y-77295170D01*
X63684893Y-77198026D01*
X63694843Y-77097000D01*
X63694843Y-76827000D01*
X63684893Y-76725974D01*
X63655425Y-76628830D01*
X63625583Y-76573000D01*
X65995448Y-76573000D01*
X66042384Y-76660810D01*
X66114868Y-76749132D01*
X66203190Y-76821616D01*
X66303956Y-76875477D01*
X66413293Y-76908644D01*
X66527000Y-76919843D01*
X67077000Y-76919843D01*
X67190707Y-76908644D01*
X67300044Y-76875477D01*
X67400810Y-76821616D01*
X67489132Y-76749132D01*
X67561616Y-76660810D01*
X67615477Y-76560044D01*
X67648644Y-76450707D01*
X67659843Y-76337000D01*
X67659843Y-75937000D01*
X67648644Y-75823293D01*
X67615477Y-75713956D01*
X67561616Y-75613190D01*
X67489132Y-75524868D01*
X67400810Y-75452384D01*
X67300044Y-75398523D01*
X67190707Y-75365356D01*
X67077000Y-75354157D01*
X66842871Y-75354157D01*
X66730698Y-75320130D01*
X66637998Y-75311000D01*
X66637990Y-75311000D01*
X66607000Y-75307948D01*
X66576010Y-75311000D01*
X63623000Y-75311000D01*
X63623000Y-74683368D01*
X63670265Y-74636103D01*
X63694343Y-74616343D01*
X63773196Y-74520261D01*
X63831789Y-74410642D01*
X63867870Y-74291698D01*
X63877000Y-74198998D01*
X63877000Y-74198989D01*
X63880052Y-74168001D01*
X63877000Y-74137013D01*
X63877000Y-72581350D01*
X63900810Y-72561810D01*
X63976403Y-72469699D01*
X64032574Y-72364611D01*
X64067163Y-72250584D01*
X64078843Y-72132000D01*
X64078843Y-71632000D01*
X64067163Y-71513416D01*
X64032574Y-71399389D01*
X63976403Y-71294301D01*
X63900810Y-71202190D01*
X63808699Y-71126597D01*
X63703611Y-71070426D01*
X63589584Y-71035837D01*
X63471000Y-71024157D01*
X63021000Y-71024157D01*
X62902416Y-71035837D01*
X62788389Y-71070426D01*
X62683301Y-71126597D01*
X62591190Y-71202190D01*
X62515597Y-71294301D01*
X62471000Y-71377736D01*
X62426403Y-71294301D01*
X62350810Y-71202190D01*
X62258699Y-71126597D01*
X62153611Y-71070426D01*
X62039584Y-71035837D01*
X61921000Y-71024157D01*
X61471000Y-71024157D01*
X61352416Y-71035837D01*
X61238389Y-71070426D01*
X61133301Y-71126597D01*
X61041190Y-71202190D01*
X61001133Y-71251000D01*
X60482998Y-71251000D01*
X60452000Y-71247947D01*
X60328302Y-71260130D01*
X60209358Y-71296211D01*
X60099739Y-71354804D01*
X60027977Y-71413698D01*
X60003657Y-71433657D01*
X59983899Y-71457732D01*
X59369233Y-72072399D01*
X59345158Y-72092157D01*
X59325400Y-72116232D01*
X59325397Y-72116235D01*
X59266304Y-72188240D01*
X59207711Y-72297859D01*
X59171630Y-72416803D01*
X59159448Y-72540500D01*
X59162501Y-72571500D01*
X59162500Y-73386500D01*
X58955418Y-73386500D01*
X58918044Y-73366523D01*
X58808707Y-73333356D01*
X58695000Y-73322157D01*
X58145000Y-73322157D01*
X58031293Y-73333356D01*
X57921956Y-73366523D01*
X57884582Y-73386500D01*
X56823487Y-73386500D01*
X56792499Y-73383448D01*
X56761511Y-73386500D01*
X56761502Y-73386500D01*
X56668802Y-73395630D01*
X56549858Y-73431711D01*
X56440239Y-73490304D01*
X56344157Y-73569157D01*
X56324395Y-73593237D01*
X56128020Y-73789612D01*
X56114696Y-73778678D01*
X56048508Y-73743299D01*
X55976689Y-73721513D01*
X55902000Y-73714157D01*
X54842000Y-73714157D01*
X54767311Y-73721513D01*
X54695492Y-73743299D01*
X54629304Y-73778678D01*
X54571289Y-73826289D01*
X54523678Y-73884304D01*
X54488299Y-73950492D01*
X54466513Y-74022311D01*
X54459157Y-74097000D01*
X54459157Y-74747000D01*
X54466513Y-74821689D01*
X54488299Y-74893508D01*
X54523678Y-74959696D01*
X54571289Y-75017711D01*
X54629304Y-75065322D01*
X54695492Y-75100701D01*
X54767311Y-75122487D01*
X54842000Y-75129843D01*
X55902000Y-75129843D01*
X55976689Y-75122487D01*
X56048508Y-75100701D01*
X56114696Y-75065322D01*
X56129711Y-75053000D01*
X56357010Y-75053000D01*
X56388000Y-75056052D01*
X56418990Y-75053000D01*
X56418998Y-75053000D01*
X56511698Y-75043870D01*
X56630642Y-75007789D01*
X56740261Y-74949196D01*
X56836343Y-74870343D01*
X56856105Y-74846263D01*
X57053868Y-74648500D01*
X57676543Y-74648500D01*
X57732868Y-74717132D01*
X57821190Y-74789616D01*
X57921956Y-74843477D01*
X58031293Y-74876644D01*
X58145000Y-74887843D01*
X58695000Y-74887843D01*
X58808707Y-74876644D01*
X58918044Y-74843477D01*
X59018810Y-74789616D01*
X59107132Y-74717132D01*
X59163457Y-74648500D01*
X59762161Y-74648500D01*
X59769203Y-74720002D01*
X59798956Y-74818083D01*
X59847272Y-74908476D01*
X59887915Y-74958000D01*
X59847272Y-75007524D01*
X59798956Y-75097917D01*
X59769203Y-75195998D01*
X59767676Y-75211500D01*
X59163457Y-75211500D01*
X59107132Y-75142868D01*
X59018810Y-75070384D01*
X58918044Y-75016523D01*
X58808707Y-74983356D01*
X58695000Y-74972157D01*
X58145000Y-74972157D01*
X58031293Y-74983356D01*
X57921956Y-75016523D01*
X57821190Y-75070384D01*
X57732868Y-75142868D01*
X57676543Y-75211500D01*
X53803000Y-75211500D01*
X53803000Y-75114506D01*
X53848508Y-75100701D01*
X53914696Y-75065322D01*
X53972711Y-75017711D01*
X54020322Y-74959696D01*
X54055701Y-74893508D01*
X54077487Y-74821689D01*
X54084843Y-74747000D01*
X54084843Y-74304272D01*
X54153185Y-74248185D01*
X54232537Y-74151494D01*
X54291502Y-74041180D01*
X54327812Y-73921482D01*
X54340072Y-73797000D01*
X54337000Y-73757750D01*
X54178250Y-73599000D01*
X53299000Y-73599000D01*
X53299000Y-73619000D01*
X53045000Y-73619000D01*
X53045000Y-73599000D01*
X53025000Y-73599000D01*
X53025000Y-73345000D01*
X53045000Y-73345000D01*
X53045000Y-73325000D01*
X53299000Y-73325000D01*
X53299000Y-73345000D01*
X54178250Y-73345000D01*
X54337000Y-73186250D01*
X54340072Y-73147000D01*
X54327812Y-73022518D01*
X54291502Y-72902820D01*
X54232537Y-72792506D01*
X54153185Y-72695815D01*
X54084843Y-72639728D01*
X54084843Y-72197000D01*
X54077487Y-72122311D01*
X54055701Y-72050492D01*
X54020322Y-71984304D01*
X53972711Y-71926289D01*
X53914696Y-71878678D01*
X53848508Y-71843299D01*
X53776689Y-71821513D01*
X53702000Y-71814157D01*
X52642000Y-71814157D01*
X52567311Y-71821513D01*
X52495492Y-71843299D01*
X52429304Y-71878678D01*
X52412692Y-71892311D01*
X52333300Y-71900130D01*
X52214356Y-71936211D01*
X52104737Y-71994804D01*
X52008655Y-72073657D01*
X51988895Y-72097735D01*
X51767736Y-72318894D01*
X51743656Y-72338656D01*
X51664803Y-72434739D01*
X51606210Y-72544358D01*
X51570129Y-72663302D01*
X51560999Y-72756002D01*
X51560999Y-72756009D01*
X51557947Y-72786999D01*
X51560999Y-72817989D01*
X51561000Y-78573253D01*
X51557947Y-78604253D01*
X51570129Y-78727950D01*
X51606210Y-78846894D01*
X51664803Y-78956513D01*
X51723896Y-79028518D01*
X51723899Y-79028521D01*
X51743657Y-79052596D01*
X51767732Y-79072354D01*
X54063655Y-81368278D01*
X54083413Y-81392353D01*
X54107488Y-81412111D01*
X54107490Y-81412113D01*
X54176870Y-81469052D01*
X54179495Y-81471206D01*
X54289114Y-81529799D01*
X54408058Y-81565880D01*
X54500758Y-81575010D01*
X54500767Y-81575010D01*
X54531755Y-81578062D01*
X54562743Y-81575010D01*
X58066000Y-81575010D01*
X58096990Y-81578062D01*
X58127980Y-81575010D01*
X58127988Y-81575010D01*
X58220688Y-81565880D01*
X58339632Y-81529799D01*
X58449251Y-81471206D01*
X58545333Y-81392353D01*
X58565095Y-81368273D01*
X58971269Y-80962100D01*
X58995343Y-80942343D01*
X59017562Y-80915270D01*
X59074196Y-80846261D01*
X59095365Y-80806656D01*
X59163589Y-80770190D01*
X59259488Y-80691488D01*
X59338190Y-80595589D01*
X59396671Y-80486179D01*
X59432683Y-80367462D01*
X59443267Y-80260000D01*
X61282010Y-80260000D01*
X61313000Y-80263052D01*
X61343990Y-80260000D01*
X61343998Y-80260000D01*
X61436698Y-80250870D01*
X61555642Y-80214789D01*
X61665261Y-80156196D01*
X61761343Y-80077343D01*
X61781105Y-80053263D01*
X62992000Y-78842369D01*
X63123001Y-78973370D01*
X63123000Y-79979001D01*
X63119947Y-80010000D01*
X63132130Y-80133698D01*
X63168211Y-80252642D01*
X63226804Y-80362261D01*
X63292926Y-80442830D01*
X63305657Y-80458343D01*
X63401739Y-80537196D01*
X63511358Y-80595789D01*
X63630302Y-80631870D01*
X63754000Y-80644053D01*
X63784998Y-80641000D01*
X74165262Y-80641000D01*
X74196252Y-80644052D01*
X74227242Y-80641000D01*
X74227250Y-80641000D01*
X74319950Y-80631870D01*
X74438894Y-80595789D01*
X74548513Y-80537196D01*
X74644595Y-80458343D01*
X74664357Y-80434263D01*
X75643999Y-79454621D01*
X77811655Y-81622278D01*
X77831413Y-81646353D01*
X77855488Y-81666111D01*
X77855490Y-81666113D01*
X77901978Y-81704265D01*
X77927495Y-81725206D01*
X78037114Y-81783799D01*
X78156058Y-81819880D01*
X78248758Y-81829010D01*
X78248767Y-81829010D01*
X78279755Y-81832062D01*
X78310743Y-81829010D01*
X82831000Y-81829010D01*
X82861990Y-81832062D01*
X82892980Y-81829010D01*
X82892988Y-81829010D01*
X82985688Y-81819880D01*
X83104632Y-81783799D01*
X83214251Y-81725206D01*
X83310333Y-81646353D01*
X83330095Y-81622273D01*
X84074000Y-80878369D01*
X84395899Y-81200268D01*
X84415657Y-81224343D01*
X84439732Y-81244101D01*
X84439734Y-81244103D01*
X84467476Y-81266870D01*
X84511739Y-81303196D01*
X84621358Y-81361789D01*
X84740302Y-81397870D01*
X84833002Y-81407000D01*
X84833009Y-81407000D01*
X84864000Y-81410052D01*
X84894990Y-81407000D01*
X89082768Y-81407000D01*
X89121974Y-81418893D01*
X89223000Y-81428843D01*
X89593000Y-81428843D01*
X89694026Y-81418893D01*
X89733232Y-81407000D01*
X92111010Y-81407000D01*
X92142000Y-81410052D01*
X92172990Y-81407000D01*
X92172998Y-81407000D01*
X92265698Y-81397870D01*
X92328422Y-81378843D01*
X92372000Y-81378843D01*
X92474002Y-81368797D01*
X92545856Y-81347000D01*
X99608002Y-81347000D01*
X99639000Y-81350053D01*
X99669998Y-81347000D01*
X104167010Y-81347000D01*
X104198000Y-81350052D01*
X104228990Y-81347000D01*
X104228998Y-81347000D01*
X104321698Y-81337870D01*
X104440642Y-81301789D01*
X104550261Y-81243196D01*
X104646343Y-81164343D01*
X104666105Y-81140263D01*
X105287458Y-80518910D01*
X105309739Y-80537196D01*
X105419358Y-80595789D01*
X105538302Y-80631870D01*
X105631002Y-80641000D01*
X105631009Y-80641000D01*
X105662000Y-80644052D01*
X105692990Y-80641000D01*
X106326676Y-80641000D01*
X106367917Y-80663044D01*
X106465998Y-80692797D01*
X106568000Y-80702843D01*
X106848000Y-80702843D01*
X106950002Y-80692797D01*
X107048083Y-80663044D01*
X107138476Y-80614728D01*
X107188000Y-80574085D01*
X107237524Y-80614728D01*
X107327917Y-80663044D01*
X107425998Y-80692797D01*
X107528000Y-80702843D01*
X107808000Y-80702843D01*
X107910002Y-80692797D01*
X108008083Y-80663044D01*
X108098476Y-80614728D01*
X108177706Y-80549706D01*
X108214196Y-80505243D01*
X108271343Y-80458343D01*
X108291105Y-80434263D01*
X108537274Y-80188094D01*
X108561353Y-80168333D01*
X108640206Y-80072251D01*
X108698799Y-79962632D01*
X108734880Y-79843688D01*
X108744010Y-79750988D01*
X108744010Y-79750979D01*
X108747062Y-79719991D01*
X108744010Y-79689003D01*
X108744010Y-79367660D01*
X108754837Y-79477584D01*
X108789426Y-79591611D01*
X108845597Y-79696699D01*
X108921190Y-79788810D01*
X108970000Y-79828867D01*
X108970001Y-80948172D01*
X108956107Y-80993974D01*
X108946157Y-81095000D01*
X108946157Y-81465000D01*
X108956107Y-81566026D01*
X108985575Y-81663170D01*
X109033429Y-81752698D01*
X109097830Y-81831170D01*
X109176302Y-81895571D01*
X109265830Y-81943425D01*
X109362974Y-81972893D01*
X109464000Y-81982843D01*
X109734000Y-81982843D01*
X109835026Y-81972893D01*
X109932170Y-81943425D01*
X110021698Y-81895571D01*
X110100170Y-81831170D01*
X110109000Y-81820411D01*
X110117830Y-81831170D01*
X110196302Y-81895571D01*
X110285830Y-81943425D01*
X110382974Y-81972893D01*
X110484000Y-81982843D01*
X110754000Y-81982843D01*
X110855026Y-81972893D01*
X110952170Y-81943425D01*
X111012833Y-81911000D01*
X111474118Y-81911000D01*
X111512830Y-81958170D01*
X111591302Y-82022571D01*
X111680830Y-82070425D01*
X111777974Y-82099893D01*
X111879000Y-82109843D01*
X112149000Y-82109843D01*
X112249179Y-82099976D01*
X112307276Y-82172578D01*
X112402980Y-82253118D01*
X112512558Y-82313441D01*
X112631798Y-82351226D01*
X112748250Y-82362000D01*
X112907000Y-82203250D01*
X112907000Y-81534000D01*
X113161000Y-81534000D01*
X113161000Y-82203250D01*
X113319750Y-82362000D01*
X113436202Y-82351226D01*
X113555442Y-82313441D01*
X113665020Y-82253118D01*
X113760724Y-82172578D01*
X113838876Y-82074914D01*
X113896473Y-81963879D01*
X113931301Y-81843742D01*
X113942023Y-81719119D01*
X113939000Y-81692750D01*
X113780250Y-81534000D01*
X113161000Y-81534000D01*
X112907000Y-81534000D01*
X112887000Y-81534000D01*
X112887000Y-81280000D01*
X112907000Y-81280000D01*
X112907000Y-81260000D01*
X113161000Y-81260000D01*
X113161000Y-81280000D01*
X113780250Y-81280000D01*
X113939000Y-81121250D01*
X113942023Y-81094881D01*
X113937428Y-81041470D01*
X113963494Y-81027537D01*
X114060185Y-80948185D01*
X114116272Y-80879843D01*
X114262939Y-80879843D01*
X114287739Y-80900196D01*
X114397358Y-80958789D01*
X114516302Y-80994870D01*
X114609002Y-81004000D01*
X114609009Y-81004000D01*
X114640000Y-81007052D01*
X114670990Y-81004000D01*
X115539010Y-81004000D01*
X115570000Y-81007052D01*
X115600990Y-81004000D01*
X115600998Y-81004000D01*
X115693698Y-80994870D01*
X115812642Y-80958789D01*
X115922261Y-80900196D01*
X116018343Y-80821343D01*
X116038105Y-80797263D01*
X116058157Y-80777211D01*
X116058157Y-80830000D01*
X116068107Y-80931026D01*
X116077307Y-80961355D01*
X116076948Y-80965000D01*
X116080000Y-80995990D01*
X116080000Y-80995998D01*
X116089130Y-81088698D01*
X116125211Y-81207642D01*
X116183804Y-81317261D01*
X116262658Y-81413343D01*
X116286732Y-81433101D01*
X116811899Y-81958268D01*
X116831657Y-81982343D01*
X116855732Y-82002101D01*
X116855734Y-82002103D01*
X116927739Y-82061196D01*
X117037358Y-82119789D01*
X117156302Y-82155870D01*
X117280000Y-82168053D01*
X117310998Y-82165000D01*
X117958340Y-82165000D01*
X117989330Y-82168052D01*
X118020320Y-82165000D01*
X118020328Y-82165000D01*
X118113028Y-82155870D01*
X118231972Y-82119789D01*
X118341591Y-82061196D01*
X118437673Y-81982343D01*
X118457435Y-81958263D01*
X119636698Y-80779000D01*
X122194928Y-80779000D01*
X122207188Y-80903482D01*
X122243498Y-81023180D01*
X122302463Y-81133494D01*
X122381815Y-81230185D01*
X122478506Y-81309537D01*
X122588820Y-81368502D01*
X122708518Y-81404812D01*
X122833000Y-81417072D01*
X123412250Y-81414000D01*
X123571000Y-81255250D01*
X123571000Y-80391000D01*
X123825000Y-80391000D01*
X123825000Y-81255250D01*
X123983750Y-81414000D01*
X124563000Y-81417072D01*
X124687482Y-81404812D01*
X124807180Y-81368502D01*
X124917494Y-81309537D01*
X125014185Y-81230185D01*
X125093537Y-81133494D01*
X125152502Y-81023180D01*
X125188812Y-80903482D01*
X125201072Y-80779000D01*
X125198000Y-80549750D01*
X125039250Y-80391000D01*
X123825000Y-80391000D01*
X123571000Y-80391000D01*
X122356750Y-80391000D01*
X122198000Y-80549750D01*
X122194928Y-80779000D01*
X119636698Y-80779000D01*
X121020699Y-79395000D01*
X122302199Y-79395000D01*
X122243498Y-79504820D01*
X122207188Y-79624518D01*
X122194928Y-79749000D01*
X122198000Y-79978250D01*
X122356750Y-80137000D01*
X123571000Y-80137000D01*
X123571000Y-80117000D01*
X123825000Y-80117000D01*
X123825000Y-80137000D01*
X125039250Y-80137000D01*
X125198000Y-79978250D01*
X125201072Y-79749000D01*
X125190829Y-79645000D01*
X131694079Y-79645000D01*
X133550586Y-81501508D01*
X133556513Y-81561689D01*
X133578299Y-81633508D01*
X133613678Y-81699696D01*
X133661289Y-81757711D01*
X133719304Y-81805322D01*
X133785492Y-81840701D01*
X133857311Y-81862487D01*
X133932000Y-81869843D01*
X133977685Y-81869843D01*
X134043225Y-81904874D01*
X134209294Y-81955251D01*
X134381999Y-81972262D01*
X134554705Y-81955251D01*
X134720774Y-81904874D01*
X134786314Y-81869843D01*
X134832000Y-81869843D01*
X134906689Y-81862487D01*
X134978508Y-81840701D01*
X135044696Y-81805322D01*
X135102711Y-81757711D01*
X135150322Y-81699696D01*
X135185701Y-81633508D01*
X135207487Y-81561689D01*
X135214843Y-81487000D01*
X135214843Y-81376428D01*
X135250251Y-81259705D01*
X135267262Y-81086999D01*
X135250251Y-80914294D01*
X135214843Y-80797571D01*
X135214843Y-80687000D01*
X135207487Y-80612311D01*
X135185701Y-80540492D01*
X135150322Y-80474304D01*
X135102711Y-80416289D01*
X135044696Y-80368678D01*
X134978508Y-80333299D01*
X134906689Y-80311513D01*
X134846508Y-80305586D01*
X134510765Y-79969843D01*
X134832000Y-79969843D01*
X134906689Y-79962487D01*
X134978508Y-79940701D01*
X135044696Y-79905322D01*
X135102711Y-79857711D01*
X135150322Y-79799696D01*
X135183834Y-79737000D01*
X135549157Y-79737000D01*
X135549157Y-80537000D01*
X135556513Y-80611689D01*
X135578299Y-80683508D01*
X135613678Y-80749696D01*
X135661289Y-80807711D01*
X135719304Y-80855322D01*
X135785492Y-80890701D01*
X135857311Y-80912487D01*
X135932000Y-80919843D01*
X136272475Y-80919843D01*
X136611899Y-81259268D01*
X136631657Y-81283343D01*
X136655732Y-81303101D01*
X136655734Y-81303103D01*
X136712943Y-81350053D01*
X136727739Y-81362196D01*
X136837358Y-81420789D01*
X136956302Y-81456870D01*
X137049002Y-81466000D01*
X137049011Y-81466000D01*
X137079999Y-81469052D01*
X137110987Y-81466000D01*
X137384859Y-81466000D01*
X137450190Y-81519616D01*
X137550956Y-81573477D01*
X137660293Y-81606644D01*
X137774000Y-81617843D01*
X138324000Y-81617843D01*
X138437707Y-81606644D01*
X138547044Y-81573477D01*
X138647810Y-81519616D01*
X138736132Y-81447132D01*
X138808616Y-81358810D01*
X138862477Y-81258044D01*
X138895644Y-81148707D01*
X138906843Y-81035000D01*
X138906843Y-80635000D01*
X138895644Y-80521293D01*
X138862477Y-80411956D01*
X138808616Y-80311190D01*
X138736132Y-80222868D01*
X138647810Y-80150384D01*
X138547044Y-80096523D01*
X138437707Y-80063356D01*
X138324000Y-80052157D01*
X137774000Y-80052157D01*
X137660293Y-80063356D01*
X137550956Y-80096523D01*
X137450190Y-80150384D01*
X137384859Y-80204000D01*
X137341369Y-80204000D01*
X137214843Y-80077474D01*
X137214843Y-79737000D01*
X137207487Y-79662311D01*
X137185701Y-79590492D01*
X137150322Y-79524304D01*
X137102711Y-79466289D01*
X137044696Y-79418678D01*
X136978508Y-79383299D01*
X136906689Y-79361513D01*
X136832000Y-79354157D01*
X135932000Y-79354157D01*
X135857311Y-79361513D01*
X135785492Y-79383299D01*
X135719304Y-79418678D01*
X135661289Y-79466289D01*
X135613678Y-79524304D01*
X135578299Y-79590492D01*
X135556513Y-79662311D01*
X135549157Y-79737000D01*
X135183834Y-79737000D01*
X135185701Y-79733508D01*
X135207487Y-79661689D01*
X135214843Y-79587000D01*
X135214843Y-78787000D01*
X135207487Y-78712311D01*
X135185701Y-78640492D01*
X135150322Y-78574304D01*
X135102711Y-78516289D01*
X135044696Y-78468678D01*
X134978508Y-78433299D01*
X134906689Y-78411513D01*
X134832000Y-78404157D01*
X134491526Y-78404157D01*
X134274212Y-78186843D01*
X134832000Y-78186843D01*
X134906689Y-78179487D01*
X134978508Y-78157701D01*
X135044696Y-78122322D01*
X135102711Y-78074711D01*
X135150322Y-78016696D01*
X135185701Y-77950508D01*
X135207487Y-77878689D01*
X135214843Y-77804000D01*
X135214843Y-77004000D01*
X135207487Y-76929311D01*
X135185701Y-76857492D01*
X135150322Y-76791304D01*
X135102711Y-76733289D01*
X135044696Y-76685678D01*
X134978508Y-76650299D01*
X134906689Y-76628513D01*
X134832000Y-76621157D01*
X134491526Y-76621157D01*
X134157212Y-76286843D01*
X134832000Y-76286843D01*
X134906689Y-76279487D01*
X134978508Y-76257701D01*
X135044696Y-76222322D01*
X135102711Y-76174711D01*
X135150322Y-76116696D01*
X135185701Y-76050508D01*
X135207487Y-75978689D01*
X135214843Y-75904000D01*
X135214843Y-75104000D01*
X135207487Y-75029311D01*
X135185701Y-74957492D01*
X135150322Y-74891304D01*
X135102711Y-74833289D01*
X135044696Y-74785678D01*
X134978508Y-74750299D01*
X134906689Y-74728513D01*
X134832000Y-74721157D01*
X134491526Y-74721157D01*
X134274212Y-74503843D01*
X134832000Y-74503843D01*
X134906689Y-74496487D01*
X134978508Y-74474701D01*
X135044696Y-74439322D01*
X135102711Y-74391711D01*
X135150322Y-74333696D01*
X135185701Y-74267508D01*
X135207487Y-74195689D01*
X135214843Y-74121000D01*
X135214843Y-73321000D01*
X135207487Y-73246311D01*
X135185701Y-73174492D01*
X135150322Y-73108304D01*
X135102711Y-73050289D01*
X135044696Y-73002678D01*
X134978508Y-72967299D01*
X134906689Y-72945513D01*
X134832000Y-72938157D01*
X134409526Y-72938157D01*
X134075212Y-72603843D01*
X134832000Y-72603843D01*
X134906689Y-72596487D01*
X134978508Y-72574701D01*
X135044696Y-72539322D01*
X135102711Y-72491711D01*
X135150322Y-72433696D01*
X135185701Y-72367508D01*
X135207487Y-72295689D01*
X135214843Y-72221000D01*
X135214843Y-71421000D01*
X135207487Y-71346311D01*
X135185701Y-71274492D01*
X135150322Y-71208304D01*
X135102711Y-71150289D01*
X135044696Y-71102678D01*
X134978508Y-71067299D01*
X134906689Y-71045513D01*
X134832000Y-71038157D01*
X134491525Y-71038157D01*
X134293105Y-70839737D01*
X134273343Y-70815657D01*
X134177261Y-70736804D01*
X134067642Y-70678211D01*
X133948698Y-70642130D01*
X133855998Y-70633000D01*
X133855990Y-70633000D01*
X133825000Y-70629948D01*
X133794010Y-70633000D01*
X124689256Y-70633000D01*
X124684633Y-70627367D01*
X124548199Y-70515399D01*
X124545582Y-70514000D01*
X124548199Y-70512601D01*
X124684633Y-70400633D01*
X124796601Y-70264199D01*
X124879801Y-70108543D01*
X124931035Y-69939647D01*
X124948335Y-69764000D01*
X124931035Y-69588353D01*
X124879801Y-69419457D01*
X124796601Y-69263801D01*
X124684633Y-69127367D01*
X124548199Y-69015399D01*
X124545582Y-69014000D01*
X124548199Y-69012601D01*
X124684633Y-68900633D01*
X124796601Y-68764199D01*
X124879801Y-68608543D01*
X124931035Y-68439647D01*
X124948335Y-68264000D01*
X124931035Y-68088353D01*
X124879801Y-67919457D01*
X124796601Y-67763801D01*
X124684633Y-67627367D01*
X124548199Y-67515399D01*
X124545582Y-67514000D01*
X124548199Y-67512601D01*
X124684633Y-67400633D01*
X124796601Y-67264199D01*
X124879801Y-67108543D01*
X124931035Y-66939647D01*
X124948335Y-66764000D01*
X124931035Y-66588353D01*
X124879801Y-66419457D01*
X124819163Y-66306012D01*
X133190624Y-66306012D01*
X133176492Y-66310299D01*
X133110304Y-66345678D01*
X133052289Y-66393289D01*
X133004678Y-66451304D01*
X132969299Y-66517492D01*
X132947513Y-66589311D01*
X132940157Y-66664000D01*
X132940157Y-68464000D01*
X132947513Y-68538689D01*
X132969299Y-68610508D01*
X133004678Y-68676696D01*
X133052289Y-68734711D01*
X133110304Y-68782322D01*
X133176492Y-68817701D01*
X133248311Y-68839487D01*
X133323000Y-68846843D01*
X133582475Y-68846843D01*
X136723788Y-71988157D01*
X135932000Y-71988157D01*
X135857311Y-71995513D01*
X135785492Y-72017299D01*
X135719304Y-72052678D01*
X135661289Y-72100289D01*
X135613678Y-72158304D01*
X135578299Y-72224492D01*
X135556513Y-72296311D01*
X135549157Y-72371000D01*
X135549157Y-73171000D01*
X135556513Y-73245689D01*
X135578299Y-73317508D01*
X135613678Y-73383696D01*
X135661289Y-73441711D01*
X135719304Y-73489322D01*
X135785492Y-73524701D01*
X135857311Y-73546487D01*
X135932000Y-73553843D01*
X136272475Y-73553843D01*
X136738899Y-74020268D01*
X136758657Y-74044343D01*
X136782732Y-74064101D01*
X136782734Y-74064103D01*
X136838660Y-74110000D01*
X136854739Y-74123196D01*
X136964358Y-74181789D01*
X137083302Y-74217870D01*
X137176002Y-74227000D01*
X137176011Y-74227000D01*
X137206999Y-74230052D01*
X137237987Y-74227000D01*
X137384859Y-74227000D01*
X137450190Y-74280616D01*
X137550956Y-74334477D01*
X137660293Y-74367644D01*
X137774000Y-74378843D01*
X138279788Y-74378843D01*
X137939475Y-74719157D01*
X137774000Y-74719157D01*
X137660293Y-74730356D01*
X137550956Y-74763523D01*
X137450190Y-74817384D01*
X137361868Y-74889868D01*
X137289384Y-74978190D01*
X137235523Y-75078956D01*
X137202356Y-75188293D01*
X137191157Y-75302000D01*
X137191157Y-75702000D01*
X137202356Y-75815707D01*
X137235523Y-75925044D01*
X137289384Y-76025810D01*
X137361868Y-76114132D01*
X137450190Y-76186616D01*
X137550956Y-76240477D01*
X137660293Y-76273644D01*
X137774000Y-76284843D01*
X138324000Y-76284843D01*
X138437707Y-76273644D01*
X138547044Y-76240477D01*
X138647810Y-76186616D01*
X138736132Y-76114132D01*
X138808616Y-76025810D01*
X138862477Y-75925044D01*
X138895644Y-75815707D01*
X138906843Y-75702000D01*
X138906843Y-75536525D01*
X139043020Y-75400348D01*
X139043020Y-77298611D01*
X138897798Y-77443833D01*
X138906843Y-77352000D01*
X138906843Y-76952000D01*
X138895644Y-76838293D01*
X138862477Y-76728956D01*
X138808616Y-76628190D01*
X138736132Y-76539868D01*
X138647810Y-76467384D01*
X138547044Y-76413523D01*
X138437707Y-76380356D01*
X138324000Y-76369157D01*
X137774000Y-76369157D01*
X137660293Y-76380356D01*
X137550956Y-76413523D01*
X137450190Y-76467384D01*
X137384859Y-76521000D01*
X137341369Y-76521000D01*
X137214843Y-76394474D01*
X137214843Y-76054000D01*
X137207487Y-75979311D01*
X137185701Y-75907492D01*
X137150322Y-75841304D01*
X137102711Y-75783289D01*
X137044696Y-75735678D01*
X136978508Y-75700299D01*
X136906689Y-75678513D01*
X136832000Y-75671157D01*
X135932000Y-75671157D01*
X135857311Y-75678513D01*
X135785492Y-75700299D01*
X135719304Y-75735678D01*
X135661289Y-75783289D01*
X135613678Y-75841304D01*
X135578299Y-75907492D01*
X135556513Y-75979311D01*
X135549157Y-76054000D01*
X135549157Y-76854000D01*
X135556513Y-76928689D01*
X135578299Y-77000508D01*
X135613678Y-77066696D01*
X135661289Y-77124711D01*
X135719304Y-77172322D01*
X135785492Y-77207701D01*
X135857311Y-77229487D01*
X135932000Y-77236843D01*
X136272475Y-77236843D01*
X136611899Y-77576268D01*
X136631657Y-77600343D01*
X136655732Y-77620101D01*
X136655734Y-77620103D01*
X136719608Y-77672523D01*
X136727739Y-77679196D01*
X136837358Y-77737789D01*
X136956302Y-77773870D01*
X137049002Y-77783000D01*
X137049011Y-77783000D01*
X137079999Y-77786052D01*
X137110987Y-77783000D01*
X137384859Y-77783000D01*
X137450190Y-77836616D01*
X137550956Y-77890477D01*
X137660293Y-77923644D01*
X137774000Y-77934843D01*
X138324000Y-77934843D01*
X138415833Y-77925798D01*
X137939475Y-78402157D01*
X137774000Y-78402157D01*
X137660293Y-78413356D01*
X137550956Y-78446523D01*
X137450190Y-78500384D01*
X137361868Y-78572868D01*
X137289384Y-78661190D01*
X137235523Y-78761956D01*
X137202356Y-78871293D01*
X137191157Y-78985000D01*
X137191157Y-79385000D01*
X137202356Y-79498707D01*
X137235523Y-79608044D01*
X137289384Y-79708810D01*
X137361868Y-79797132D01*
X137450190Y-79869616D01*
X137550956Y-79923477D01*
X137660293Y-79956644D01*
X137774000Y-79967843D01*
X138324000Y-79967843D01*
X138437707Y-79956644D01*
X138547044Y-79923477D01*
X138647810Y-79869616D01*
X138736132Y-79797132D01*
X138808616Y-79708810D01*
X138862477Y-79608044D01*
X138895644Y-79498707D01*
X138906843Y-79385000D01*
X138906843Y-79219525D01*
X140098289Y-78028080D01*
X140122363Y-78008323D01*
X140143146Y-77983000D01*
X140201215Y-77912242D01*
X140201216Y-77912241D01*
X140259809Y-77802622D01*
X140295890Y-77683678D01*
X140305020Y-77590978D01*
X140305020Y-77590969D01*
X140308072Y-77559981D01*
X140305020Y-77528993D01*
X140305020Y-69601010D01*
X140308072Y-69570020D01*
X140305020Y-69539029D01*
X140305020Y-69539022D01*
X140295890Y-69446322D01*
X140259809Y-69327378D01*
X140201216Y-69217759D01*
X140169656Y-69179303D01*
X140142123Y-69145754D01*
X140142121Y-69145752D01*
X140122363Y-69121677D01*
X140098288Y-69101919D01*
X138584000Y-67587632D01*
X138584000Y-67154002D01*
X138570746Y-67019433D01*
X138518368Y-66846766D01*
X138433311Y-66687635D01*
X138318844Y-66548156D01*
X138179364Y-66433689D01*
X138020233Y-66348632D01*
X137847566Y-66296254D01*
X137668000Y-66278568D01*
X137488433Y-66296254D01*
X137315766Y-66348632D01*
X137243180Y-66387430D01*
X137135513Y-66281883D01*
X136942421Y-66155623D01*
X136705383Y-66070100D01*
X136525000Y-66195756D01*
X136525000Y-67437000D01*
X136545000Y-67437000D01*
X136545000Y-67691000D01*
X136525000Y-67691000D01*
X136525000Y-67711000D01*
X136271000Y-67711000D01*
X136271000Y-67691000D01*
X136251000Y-67691000D01*
X136251000Y-67437000D01*
X136271000Y-67437000D01*
X136271000Y-66195756D01*
X136090617Y-66070100D01*
X135853579Y-66155623D01*
X135759000Y-66217467D01*
X135759000Y-66194987D01*
X135762052Y-66163999D01*
X135759000Y-66133011D01*
X135759000Y-66133002D01*
X135749870Y-66040302D01*
X135713789Y-65921358D01*
X135655196Y-65811739D01*
X135576343Y-65715657D01*
X135552263Y-65695895D01*
X134257116Y-64400748D01*
X134237354Y-64376668D01*
X134141272Y-64297815D01*
X134031653Y-64239222D01*
X133912709Y-64203141D01*
X133820009Y-64194011D01*
X133820001Y-64194011D01*
X133789011Y-64190959D01*
X133758021Y-64194011D01*
X109372394Y-64194011D01*
X109280931Y-64132898D01*
X109138798Y-64074024D01*
X108987911Y-64044011D01*
X108834067Y-64044011D01*
X108683180Y-64074024D01*
X108541047Y-64132898D01*
X108449584Y-64194011D01*
X83083394Y-64194011D01*
X82991931Y-64132898D01*
X82849798Y-64074024D01*
X82698911Y-64044011D01*
X82545067Y-64044011D01*
X82394180Y-64074024D01*
X82252047Y-64132898D01*
X82160584Y-64194011D01*
X56667394Y-64194011D01*
X56575931Y-64132898D01*
X56433798Y-64074024D01*
X56282911Y-64044011D01*
X56129067Y-64044011D01*
X55978180Y-64074024D01*
X55836047Y-64132898D01*
X55708130Y-64218369D01*
X55599347Y-64327152D01*
X55513876Y-64455069D01*
X55455002Y-64597202D01*
X55424989Y-64748089D01*
X55424989Y-64901933D01*
X55453250Y-65044012D01*
X55383975Y-65044012D01*
X55352987Y-65040960D01*
X55321999Y-65044012D01*
X55321990Y-65044012D01*
X55229290Y-65053142D01*
X55110346Y-65089223D01*
X55000727Y-65147816D01*
X54904645Y-65226669D01*
X54884883Y-65250749D01*
X54439737Y-65695895D01*
X54415657Y-65715657D01*
X54336804Y-65811740D01*
X54278211Y-65921359D01*
X54242130Y-66040303D01*
X54233000Y-66133003D01*
X54233000Y-66133010D01*
X54229948Y-66164000D01*
X54233000Y-66194991D01*
X54233000Y-66294978D01*
X54182492Y-66310299D01*
X54116304Y-66345678D01*
X54058289Y-66393289D01*
X54010678Y-66451304D01*
X53975299Y-66517492D01*
X53953513Y-66589311D01*
X53946157Y-66664000D01*
X53946157Y-68464000D01*
X53953513Y-68538689D01*
X53975299Y-68610508D01*
X54010678Y-68676696D01*
X54058289Y-68734711D01*
X54116304Y-68782322D01*
X54182492Y-68817701D01*
X54254311Y-68839487D01*
X54329000Y-68846843D01*
X55399000Y-68846843D01*
X55473689Y-68839487D01*
X55545508Y-68817701D01*
X55611696Y-68782322D01*
X55669711Y-68734711D01*
X55678403Y-68724119D01*
X55781767Y-68779368D01*
X55954434Y-68831746D01*
X56134000Y-68849432D01*
X56313567Y-68831746D01*
X56486234Y-68779368D01*
X56558820Y-68740570D01*
X56666487Y-68846117D01*
X56859579Y-68972377D01*
X57096617Y-69057900D01*
X57277000Y-68932244D01*
X57277000Y-67691000D01*
X57257000Y-67691000D01*
X57257000Y-67437000D01*
X57277000Y-67437000D01*
X57277000Y-67417000D01*
X57531000Y-67417000D01*
X57531000Y-67437000D01*
X57551000Y-67437000D01*
X57551000Y-67691000D01*
X57531000Y-67691000D01*
X57531000Y-68932244D01*
X57711383Y-69057900D01*
X57948421Y-68972377D01*
X58141513Y-68846117D01*
X58249181Y-68740570D01*
X58321767Y-68779368D01*
X58494434Y-68831746D01*
X58674000Y-68849432D01*
X58853567Y-68831746D01*
X59026234Y-68779368D01*
X59185365Y-68694311D01*
X59324844Y-68579844D01*
X59439311Y-68440365D01*
X59524368Y-68281234D01*
X59576746Y-68108567D01*
X59590000Y-67973998D01*
X59590000Y-67154002D01*
X59576746Y-67019433D01*
X59524368Y-66846766D01*
X59439311Y-66687635D01*
X59324844Y-66548156D01*
X59185364Y-66433689D01*
X59026233Y-66348632D01*
X58885734Y-66306012D01*
X63198009Y-66306012D01*
X61525737Y-67978285D01*
X61501657Y-67998047D01*
X61422804Y-68094130D01*
X61364211Y-68203749D01*
X61328130Y-68322693D01*
X61319000Y-68415393D01*
X61319000Y-68415400D01*
X61315948Y-68446390D01*
X61319000Y-68477380D01*
X61319000Y-68483000D01*
X60456990Y-68483000D01*
X60426000Y-68479948D01*
X60395009Y-68483000D01*
X60395002Y-68483000D01*
X60302302Y-68492130D01*
X60183358Y-68528211D01*
X60073739Y-68586804D01*
X60010051Y-68639072D01*
X59977657Y-68665657D01*
X59957899Y-68689732D01*
X56756632Y-71891000D01*
X56129711Y-71891000D01*
X56114696Y-71878678D01*
X56048508Y-71843299D01*
X56003000Y-71829494D01*
X56003000Y-71658987D01*
X56006052Y-71627999D01*
X56003000Y-71597011D01*
X56003000Y-71597002D01*
X55993870Y-71504302D01*
X55957789Y-71385358D01*
X55899196Y-71275739D01*
X55878893Y-71251000D01*
X55840103Y-71203734D01*
X55840101Y-71203732D01*
X55820343Y-71179657D01*
X55796268Y-71159899D01*
X54837105Y-70200737D01*
X54817343Y-70176657D01*
X54721261Y-70097804D01*
X54611642Y-70039211D01*
X54492698Y-70003130D01*
X54399998Y-69994000D01*
X54399990Y-69994000D01*
X54369000Y-69990948D01*
X54338010Y-69994000D01*
X52974477Y-69994000D01*
X52996185Y-69976185D01*
X53075537Y-69879494D01*
X53134502Y-69769180D01*
X53170812Y-69649482D01*
X53183072Y-69525000D01*
X53180000Y-69360750D01*
X53021250Y-69202000D01*
X52197000Y-69202000D01*
X52197000Y-69222000D01*
X51943000Y-69222000D01*
X51943000Y-69202000D01*
X51923000Y-69202000D01*
X51923000Y-68948000D01*
X51943000Y-68948000D01*
X51943000Y-68148750D01*
X52197000Y-68148750D01*
X52197000Y-68948000D01*
X53021250Y-68948000D01*
X53180000Y-68789250D01*
X53183072Y-68625000D01*
X53170812Y-68500518D01*
X53134502Y-68380820D01*
X53075537Y-68270506D01*
X52996185Y-68173815D01*
X52899494Y-68094463D01*
X52789180Y-68035498D01*
X52669482Y-67999188D01*
X52545000Y-67986928D01*
X52355750Y-67990000D01*
X52197000Y-68148750D01*
X51943000Y-68148750D01*
X51784250Y-67990000D01*
X51595000Y-67986928D01*
X51470518Y-67999188D01*
X51350820Y-68035498D01*
X51240506Y-68094463D01*
X51206000Y-68122781D01*
X51206000Y-63906000D01*
X140945001Y-63906000D01*
X140945000Y-82569940D01*
G04 #@! TA.AperFunction,Conductor*
D22*
G36*
X140945000Y-82569940D02*
G01*
X140945001Y-82569950D01*
X140945000Y-83414000D01*
X51206000Y-83414000D01*
X51206000Y-70027219D01*
X51240506Y-70055537D01*
X51300945Y-70087843D01*
X51258426Y-70167389D01*
X51223837Y-70281416D01*
X51212157Y-70400000D01*
X51212157Y-70850000D01*
X51223837Y-70968584D01*
X51258426Y-71082611D01*
X51314597Y-71187699D01*
X51390190Y-71279810D01*
X51482301Y-71355403D01*
X51587389Y-71411574D01*
X51701416Y-71446163D01*
X51820000Y-71457843D01*
X52320000Y-71457843D01*
X52438584Y-71446163D01*
X52552611Y-71411574D01*
X52657699Y-71355403D01*
X52749810Y-71279810D01*
X52769350Y-71256000D01*
X54107632Y-71256000D01*
X54695126Y-71843495D01*
X54629304Y-71878678D01*
X54571289Y-71926289D01*
X54523678Y-71984304D01*
X54488299Y-72050492D01*
X54466513Y-72122311D01*
X54459157Y-72197000D01*
X54459157Y-72847000D01*
X54466513Y-72921689D01*
X54488299Y-72993508D01*
X54523678Y-73059696D01*
X54571289Y-73117711D01*
X54629304Y-73165322D01*
X54695492Y-73200701D01*
X54767311Y-73222487D01*
X54842000Y-73229843D01*
X55902000Y-73229843D01*
X55976689Y-73222487D01*
X56048508Y-73200701D01*
X56114696Y-73165322D01*
X56129711Y-73153000D01*
X56987010Y-73153000D01*
X57018000Y-73156052D01*
X57048990Y-73153000D01*
X57048998Y-73153000D01*
X57141698Y-73143870D01*
X57260642Y-73107789D01*
X57370261Y-73049196D01*
X57466343Y-72970343D01*
X57486105Y-72946263D01*
X60687369Y-69745000D01*
X61919002Y-69745000D01*
X61950000Y-69748053D01*
X61980998Y-69745000D01*
X63562650Y-69745000D01*
X63582190Y-69768810D01*
X63674301Y-69844403D01*
X63681286Y-69848137D01*
X63734804Y-69948261D01*
X63813658Y-70044343D01*
X63837733Y-70064101D01*
X65952899Y-72179268D01*
X65972657Y-72203343D01*
X65996732Y-72223101D01*
X65996734Y-72223103D01*
X66045349Y-72263000D01*
X66068739Y-72282196D01*
X66178358Y-72340789D01*
X66297302Y-72376870D01*
X66390002Y-72386000D01*
X66390011Y-72386000D01*
X66420999Y-72389052D01*
X66451987Y-72386000D01*
X66832981Y-72386000D01*
X66854090Y-72397283D01*
X66954047Y-72427605D01*
X67058000Y-72437843D01*
X68241475Y-72437843D01*
X69455114Y-73651483D01*
X69459107Y-73692026D01*
X69488575Y-73789170D01*
X69536429Y-73878698D01*
X69600830Y-73957170D01*
X69679302Y-74021571D01*
X69768830Y-74069425D01*
X69865974Y-74098893D01*
X69967000Y-74108843D01*
X70090473Y-74108843D01*
X69708751Y-74490565D01*
X69569809Y-74433013D01*
X69418922Y-74403000D01*
X69265078Y-74403000D01*
X69114191Y-74433013D01*
X68972058Y-74491887D01*
X68844141Y-74577358D01*
X68735358Y-74686141D01*
X68649887Y-74814058D01*
X68591013Y-74956191D01*
X68561000Y-75107078D01*
X68561000Y-75260922D01*
X68591013Y-75411809D01*
X68649887Y-75553942D01*
X68735358Y-75681859D01*
X68844141Y-75790642D01*
X68972058Y-75876113D01*
X69114191Y-75934987D01*
X69265078Y-75965000D01*
X69418922Y-75965000D01*
X69569809Y-75934987D01*
X69711942Y-75876113D01*
X69803405Y-75815000D01*
X69824595Y-75815000D01*
X68483595Y-77156000D01*
X67466141Y-77156000D01*
X67400810Y-77102384D01*
X67300044Y-77048523D01*
X67190707Y-77015356D01*
X67077000Y-77004157D01*
X66527000Y-77004157D01*
X66413293Y-77015356D01*
X66303956Y-77048523D01*
X66203190Y-77102384D01*
X66114868Y-77174868D01*
X66042384Y-77263190D01*
X65988523Y-77363956D01*
X65955356Y-77473293D01*
X65944157Y-77587000D01*
X65944157Y-77752474D01*
X65587632Y-78109000D01*
X65123324Y-78109000D01*
X65082083Y-78086956D01*
X64984002Y-78057203D01*
X64882000Y-78047157D01*
X64602000Y-78047157D01*
X64499998Y-78057203D01*
X64401917Y-78086956D01*
X64311524Y-78135272D01*
X64262000Y-78175915D01*
X64212476Y-78135272D01*
X64122083Y-78086956D01*
X64024002Y-78057203D01*
X63988029Y-78053660D01*
X63623000Y-77688632D01*
X63623000Y-77355833D01*
X63655425Y-77295170D01*
X63684893Y-77198026D01*
X63694843Y-77097000D01*
X63694843Y-76827000D01*
X63684893Y-76725974D01*
X63655425Y-76628830D01*
X63625583Y-76573000D01*
X65995448Y-76573000D01*
X66042384Y-76660810D01*
X66114868Y-76749132D01*
X66203190Y-76821616D01*
X66303956Y-76875477D01*
X66413293Y-76908644D01*
X66527000Y-76919843D01*
X67077000Y-76919843D01*
X67190707Y-76908644D01*
X67300044Y-76875477D01*
X67400810Y-76821616D01*
X67489132Y-76749132D01*
X67561616Y-76660810D01*
X67615477Y-76560044D01*
X67648644Y-76450707D01*
X67659843Y-76337000D01*
X67659843Y-75937000D01*
X67648644Y-75823293D01*
X67615477Y-75713956D01*
X67561616Y-75613190D01*
X67489132Y-75524868D01*
X67400810Y-75452384D01*
X67300044Y-75398523D01*
X67190707Y-75365356D01*
X67077000Y-75354157D01*
X66842871Y-75354157D01*
X66730698Y-75320130D01*
X66637998Y-75311000D01*
X66637990Y-75311000D01*
X66607000Y-75307948D01*
X66576010Y-75311000D01*
X63623000Y-75311000D01*
X63623000Y-74683368D01*
X63670265Y-74636103D01*
X63694343Y-74616343D01*
X63773196Y-74520261D01*
X63831789Y-74410642D01*
X63867870Y-74291698D01*
X63877000Y-74198998D01*
X63877000Y-74198989D01*
X63880052Y-74168001D01*
X63877000Y-74137013D01*
X63877000Y-72581350D01*
X63900810Y-72561810D01*
X63976403Y-72469699D01*
X64032574Y-72364611D01*
X64067163Y-72250584D01*
X64078843Y-72132000D01*
X64078843Y-71632000D01*
X64067163Y-71513416D01*
X64032574Y-71399389D01*
X63976403Y-71294301D01*
X63900810Y-71202190D01*
X63808699Y-71126597D01*
X63703611Y-71070426D01*
X63589584Y-71035837D01*
X63471000Y-71024157D01*
X63021000Y-71024157D01*
X62902416Y-71035837D01*
X62788389Y-71070426D01*
X62683301Y-71126597D01*
X62591190Y-71202190D01*
X62515597Y-71294301D01*
X62471000Y-71377736D01*
X62426403Y-71294301D01*
X62350810Y-71202190D01*
X62258699Y-71126597D01*
X62153611Y-71070426D01*
X62039584Y-71035837D01*
X61921000Y-71024157D01*
X61471000Y-71024157D01*
X61352416Y-71035837D01*
X61238389Y-71070426D01*
X61133301Y-71126597D01*
X61041190Y-71202190D01*
X61001133Y-71251000D01*
X60482998Y-71251000D01*
X60452000Y-71247947D01*
X60328302Y-71260130D01*
X60209358Y-71296211D01*
X60099739Y-71354804D01*
X60027977Y-71413698D01*
X60003657Y-71433657D01*
X59983899Y-71457732D01*
X59369233Y-72072399D01*
X59345158Y-72092157D01*
X59325400Y-72116232D01*
X59325397Y-72116235D01*
X59266304Y-72188240D01*
X59207711Y-72297859D01*
X59171630Y-72416803D01*
X59159448Y-72540500D01*
X59162501Y-72571500D01*
X59162500Y-73386500D01*
X58955418Y-73386500D01*
X58918044Y-73366523D01*
X58808707Y-73333356D01*
X58695000Y-73322157D01*
X58145000Y-73322157D01*
X58031293Y-73333356D01*
X57921956Y-73366523D01*
X57884582Y-73386500D01*
X56823487Y-73386500D01*
X56792499Y-73383448D01*
X56761511Y-73386500D01*
X56761502Y-73386500D01*
X56668802Y-73395630D01*
X56549858Y-73431711D01*
X56440239Y-73490304D01*
X56344157Y-73569157D01*
X56324395Y-73593237D01*
X56128020Y-73789612D01*
X56114696Y-73778678D01*
X56048508Y-73743299D01*
X55976689Y-73721513D01*
X55902000Y-73714157D01*
X54842000Y-73714157D01*
X54767311Y-73721513D01*
X54695492Y-73743299D01*
X54629304Y-73778678D01*
X54571289Y-73826289D01*
X54523678Y-73884304D01*
X54488299Y-73950492D01*
X54466513Y-74022311D01*
X54459157Y-74097000D01*
X54459157Y-74747000D01*
X54466513Y-74821689D01*
X54488299Y-74893508D01*
X54523678Y-74959696D01*
X54571289Y-75017711D01*
X54629304Y-75065322D01*
X54695492Y-75100701D01*
X54767311Y-75122487D01*
X54842000Y-75129843D01*
X55902000Y-75129843D01*
X55976689Y-75122487D01*
X56048508Y-75100701D01*
X56114696Y-75065322D01*
X56129711Y-75053000D01*
X56357010Y-75053000D01*
X56388000Y-75056052D01*
X56418990Y-75053000D01*
X56418998Y-75053000D01*
X56511698Y-75043870D01*
X56630642Y-75007789D01*
X56740261Y-74949196D01*
X56836343Y-74870343D01*
X56856105Y-74846263D01*
X57053868Y-74648500D01*
X57676543Y-74648500D01*
X57732868Y-74717132D01*
X57821190Y-74789616D01*
X57921956Y-74843477D01*
X58031293Y-74876644D01*
X58145000Y-74887843D01*
X58695000Y-74887843D01*
X58808707Y-74876644D01*
X58918044Y-74843477D01*
X59018810Y-74789616D01*
X59107132Y-74717132D01*
X59163457Y-74648500D01*
X59762161Y-74648500D01*
X59769203Y-74720002D01*
X59798956Y-74818083D01*
X59847272Y-74908476D01*
X59887915Y-74958000D01*
X59847272Y-75007524D01*
X59798956Y-75097917D01*
X59769203Y-75195998D01*
X59767676Y-75211500D01*
X59163457Y-75211500D01*
X59107132Y-75142868D01*
X59018810Y-75070384D01*
X58918044Y-75016523D01*
X58808707Y-74983356D01*
X58695000Y-74972157D01*
X58145000Y-74972157D01*
X58031293Y-74983356D01*
X57921956Y-75016523D01*
X57821190Y-75070384D01*
X57732868Y-75142868D01*
X57676543Y-75211500D01*
X53803000Y-75211500D01*
X53803000Y-75114506D01*
X53848508Y-75100701D01*
X53914696Y-75065322D01*
X53972711Y-75017711D01*
X54020322Y-74959696D01*
X54055701Y-74893508D01*
X54077487Y-74821689D01*
X54084843Y-74747000D01*
X54084843Y-74304272D01*
X54153185Y-74248185D01*
X54232537Y-74151494D01*
X54291502Y-74041180D01*
X54327812Y-73921482D01*
X54340072Y-73797000D01*
X54337000Y-73757750D01*
X54178250Y-73599000D01*
X53299000Y-73599000D01*
X53299000Y-73619000D01*
X53045000Y-73619000D01*
X53045000Y-73599000D01*
X53025000Y-73599000D01*
X53025000Y-73345000D01*
X53045000Y-73345000D01*
X53045000Y-73325000D01*
X53299000Y-73325000D01*
X53299000Y-73345000D01*
X54178250Y-73345000D01*
X54337000Y-73186250D01*
X54340072Y-73147000D01*
X54327812Y-73022518D01*
X54291502Y-72902820D01*
X54232537Y-72792506D01*
X54153185Y-72695815D01*
X54084843Y-72639728D01*
X54084843Y-72197000D01*
X54077487Y-72122311D01*
X54055701Y-72050492D01*
X54020322Y-71984304D01*
X53972711Y-71926289D01*
X53914696Y-71878678D01*
X53848508Y-71843299D01*
X53776689Y-71821513D01*
X53702000Y-71814157D01*
X52642000Y-71814157D01*
X52567311Y-71821513D01*
X52495492Y-71843299D01*
X52429304Y-71878678D01*
X52412692Y-71892311D01*
X52333300Y-71900130D01*
X52214356Y-71936211D01*
X52104737Y-71994804D01*
X52008655Y-72073657D01*
X51988895Y-72097735D01*
X51767736Y-72318894D01*
X51743656Y-72338656D01*
X51664803Y-72434739D01*
X51606210Y-72544358D01*
X51570129Y-72663302D01*
X51560999Y-72756002D01*
X51560999Y-72756009D01*
X51557947Y-72786999D01*
X51560999Y-72817989D01*
X51561000Y-78573253D01*
X51557947Y-78604253D01*
X51570129Y-78727950D01*
X51606210Y-78846894D01*
X51664803Y-78956513D01*
X51723896Y-79028518D01*
X51723899Y-79028521D01*
X51743657Y-79052596D01*
X51767732Y-79072354D01*
X54063655Y-81368278D01*
X54083413Y-81392353D01*
X54107488Y-81412111D01*
X54107490Y-81412113D01*
X54176870Y-81469052D01*
X54179495Y-81471206D01*
X54289114Y-81529799D01*
X54408058Y-81565880D01*
X54500758Y-81575010D01*
X54500767Y-81575010D01*
X54531755Y-81578062D01*
X54562743Y-81575010D01*
X58066000Y-81575010D01*
X58096990Y-81578062D01*
X58127980Y-81575010D01*
X58127988Y-81575010D01*
X58220688Y-81565880D01*
X58339632Y-81529799D01*
X58449251Y-81471206D01*
X58545333Y-81392353D01*
X58565095Y-81368273D01*
X58971269Y-80962100D01*
X58995343Y-80942343D01*
X59017562Y-80915270D01*
X59074196Y-80846261D01*
X59095365Y-80806656D01*
X59163589Y-80770190D01*
X59259488Y-80691488D01*
X59338190Y-80595589D01*
X59396671Y-80486179D01*
X59432683Y-80367462D01*
X59443267Y-80260000D01*
X61282010Y-80260000D01*
X61313000Y-80263052D01*
X61343990Y-80260000D01*
X61343998Y-80260000D01*
X61436698Y-80250870D01*
X61555642Y-80214789D01*
X61665261Y-80156196D01*
X61761343Y-80077343D01*
X61781105Y-80053263D01*
X62992000Y-78842369D01*
X63123001Y-78973370D01*
X63123000Y-79979001D01*
X63119947Y-80010000D01*
X63132130Y-80133698D01*
X63168211Y-80252642D01*
X63226804Y-80362261D01*
X63292926Y-80442830D01*
X63305657Y-80458343D01*
X63401739Y-80537196D01*
X63511358Y-80595789D01*
X63630302Y-80631870D01*
X63754000Y-80644053D01*
X63784998Y-80641000D01*
X74165262Y-80641000D01*
X74196252Y-80644052D01*
X74227242Y-80641000D01*
X74227250Y-80641000D01*
X74319950Y-80631870D01*
X74438894Y-80595789D01*
X74548513Y-80537196D01*
X74644595Y-80458343D01*
X74664357Y-80434263D01*
X75643999Y-79454621D01*
X77811655Y-81622278D01*
X77831413Y-81646353D01*
X77855488Y-81666111D01*
X77855490Y-81666113D01*
X77901978Y-81704265D01*
X77927495Y-81725206D01*
X78037114Y-81783799D01*
X78156058Y-81819880D01*
X78248758Y-81829010D01*
X78248767Y-81829010D01*
X78279755Y-81832062D01*
X78310743Y-81829010D01*
X82831000Y-81829010D01*
X82861990Y-81832062D01*
X82892980Y-81829010D01*
X82892988Y-81829010D01*
X82985688Y-81819880D01*
X83104632Y-81783799D01*
X83214251Y-81725206D01*
X83310333Y-81646353D01*
X83330095Y-81622273D01*
X84074000Y-80878369D01*
X84395899Y-81200268D01*
X84415657Y-81224343D01*
X84439732Y-81244101D01*
X84439734Y-81244103D01*
X84467476Y-81266870D01*
X84511739Y-81303196D01*
X84621358Y-81361789D01*
X84740302Y-81397870D01*
X84833002Y-81407000D01*
X84833009Y-81407000D01*
X84864000Y-81410052D01*
X84894990Y-81407000D01*
X89082768Y-81407000D01*
X89121974Y-81418893D01*
X89223000Y-81428843D01*
X89593000Y-81428843D01*
X89694026Y-81418893D01*
X89733232Y-81407000D01*
X92111010Y-81407000D01*
X92142000Y-81410052D01*
X92172990Y-81407000D01*
X92172998Y-81407000D01*
X92265698Y-81397870D01*
X92328422Y-81378843D01*
X92372000Y-81378843D01*
X92474002Y-81368797D01*
X92545856Y-81347000D01*
X99608002Y-81347000D01*
X99639000Y-81350053D01*
X99669998Y-81347000D01*
X104167010Y-81347000D01*
X104198000Y-81350052D01*
X104228990Y-81347000D01*
X104228998Y-81347000D01*
X104321698Y-81337870D01*
X104440642Y-81301789D01*
X104550261Y-81243196D01*
X104646343Y-81164343D01*
X104666105Y-81140263D01*
X105287458Y-80518910D01*
X105309739Y-80537196D01*
X105419358Y-80595789D01*
X105538302Y-80631870D01*
X105631002Y-80641000D01*
X105631009Y-80641000D01*
X105662000Y-80644052D01*
X105692990Y-80641000D01*
X106326676Y-80641000D01*
X106367917Y-80663044D01*
X106465998Y-80692797D01*
X106568000Y-80702843D01*
X106848000Y-80702843D01*
X106950002Y-80692797D01*
X107048083Y-80663044D01*
X107138476Y-80614728D01*
X107188000Y-80574085D01*
X107237524Y-80614728D01*
X107327917Y-80663044D01*
X107425998Y-80692797D01*
X107528000Y-80702843D01*
X107808000Y-80702843D01*
X107910002Y-80692797D01*
X108008083Y-80663044D01*
X108098476Y-80614728D01*
X108177706Y-80549706D01*
X108214196Y-80505243D01*
X108271343Y-80458343D01*
X108291105Y-80434263D01*
X108537274Y-80188094D01*
X108561353Y-80168333D01*
X108640206Y-80072251D01*
X108698799Y-79962632D01*
X108734880Y-79843688D01*
X108744010Y-79750988D01*
X108744010Y-79750979D01*
X108747062Y-79719991D01*
X108744010Y-79689003D01*
X108744010Y-79367660D01*
X108754837Y-79477584D01*
X108789426Y-79591611D01*
X108845597Y-79696699D01*
X108921190Y-79788810D01*
X108970000Y-79828867D01*
X108970001Y-80948172D01*
X108956107Y-80993974D01*
X108946157Y-81095000D01*
X108946157Y-81465000D01*
X108956107Y-81566026D01*
X108985575Y-81663170D01*
X109033429Y-81752698D01*
X109097830Y-81831170D01*
X109176302Y-81895571D01*
X109265830Y-81943425D01*
X109362974Y-81972893D01*
X109464000Y-81982843D01*
X109734000Y-81982843D01*
X109835026Y-81972893D01*
X109932170Y-81943425D01*
X110021698Y-81895571D01*
X110100170Y-81831170D01*
X110109000Y-81820411D01*
X110117830Y-81831170D01*
X110196302Y-81895571D01*
X110285830Y-81943425D01*
X110382974Y-81972893D01*
X110484000Y-81982843D01*
X110754000Y-81982843D01*
X110855026Y-81972893D01*
X110952170Y-81943425D01*
X111012833Y-81911000D01*
X111474118Y-81911000D01*
X111512830Y-81958170D01*
X111591302Y-82022571D01*
X111680830Y-82070425D01*
X111777974Y-82099893D01*
X111879000Y-82109843D01*
X112149000Y-82109843D01*
X112249179Y-82099976D01*
X112307276Y-82172578D01*
X112402980Y-82253118D01*
X112512558Y-82313441D01*
X112631798Y-82351226D01*
X112748250Y-82362000D01*
X112907000Y-82203250D01*
X112907000Y-81534000D01*
X113161000Y-81534000D01*
X113161000Y-82203250D01*
X113319750Y-82362000D01*
X113436202Y-82351226D01*
X113555442Y-82313441D01*
X113665020Y-82253118D01*
X113760724Y-82172578D01*
X113838876Y-82074914D01*
X113896473Y-81963879D01*
X113931301Y-81843742D01*
X113942023Y-81719119D01*
X113939000Y-81692750D01*
X113780250Y-81534000D01*
X113161000Y-81534000D01*
X112907000Y-81534000D01*
X112887000Y-81534000D01*
X112887000Y-81280000D01*
X112907000Y-81280000D01*
X112907000Y-81260000D01*
X113161000Y-81260000D01*
X113161000Y-81280000D01*
X113780250Y-81280000D01*
X113939000Y-81121250D01*
X113942023Y-81094881D01*
X113937428Y-81041470D01*
X113963494Y-81027537D01*
X114060185Y-80948185D01*
X114116272Y-80879843D01*
X114262939Y-80879843D01*
X114287739Y-80900196D01*
X114397358Y-80958789D01*
X114516302Y-80994870D01*
X114609002Y-81004000D01*
X114609009Y-81004000D01*
X114640000Y-81007052D01*
X114670990Y-81004000D01*
X115539010Y-81004000D01*
X115570000Y-81007052D01*
X115600990Y-81004000D01*
X115600998Y-81004000D01*
X115693698Y-80994870D01*
X115812642Y-80958789D01*
X115922261Y-80900196D01*
X116018343Y-80821343D01*
X116038105Y-80797263D01*
X116058157Y-80777211D01*
X116058157Y-80830000D01*
X116068107Y-80931026D01*
X116077307Y-80961355D01*
X116076948Y-80965000D01*
X116080000Y-80995990D01*
X116080000Y-80995998D01*
X116089130Y-81088698D01*
X116125211Y-81207642D01*
X116183804Y-81317261D01*
X116262658Y-81413343D01*
X116286732Y-81433101D01*
X116811899Y-81958268D01*
X116831657Y-81982343D01*
X116855732Y-82002101D01*
X116855734Y-82002103D01*
X116927739Y-82061196D01*
X117037358Y-82119789D01*
X117156302Y-82155870D01*
X117280000Y-82168053D01*
X117310998Y-82165000D01*
X117958340Y-82165000D01*
X117989330Y-82168052D01*
X118020320Y-82165000D01*
X118020328Y-82165000D01*
X118113028Y-82155870D01*
X118231972Y-82119789D01*
X118341591Y-82061196D01*
X118437673Y-81982343D01*
X118457435Y-81958263D01*
X119636698Y-80779000D01*
X122194928Y-80779000D01*
X122207188Y-80903482D01*
X122243498Y-81023180D01*
X122302463Y-81133494D01*
X122381815Y-81230185D01*
X122478506Y-81309537D01*
X122588820Y-81368502D01*
X122708518Y-81404812D01*
X122833000Y-81417072D01*
X123412250Y-81414000D01*
X123571000Y-81255250D01*
X123571000Y-80391000D01*
X123825000Y-80391000D01*
X123825000Y-81255250D01*
X123983750Y-81414000D01*
X124563000Y-81417072D01*
X124687482Y-81404812D01*
X124807180Y-81368502D01*
X124917494Y-81309537D01*
X125014185Y-81230185D01*
X125093537Y-81133494D01*
X125152502Y-81023180D01*
X125188812Y-80903482D01*
X125201072Y-80779000D01*
X125198000Y-80549750D01*
X125039250Y-80391000D01*
X123825000Y-80391000D01*
X123571000Y-80391000D01*
X122356750Y-80391000D01*
X122198000Y-80549750D01*
X122194928Y-80779000D01*
X119636698Y-80779000D01*
X121020699Y-79395000D01*
X122302199Y-79395000D01*
X122243498Y-79504820D01*
X122207188Y-79624518D01*
X122194928Y-79749000D01*
X122198000Y-79978250D01*
X122356750Y-80137000D01*
X123571000Y-80137000D01*
X123571000Y-80117000D01*
X123825000Y-80117000D01*
X123825000Y-80137000D01*
X125039250Y-80137000D01*
X125198000Y-79978250D01*
X125201072Y-79749000D01*
X125190829Y-79645000D01*
X131694079Y-79645000D01*
X133550586Y-81501508D01*
X133556513Y-81561689D01*
X133578299Y-81633508D01*
X133613678Y-81699696D01*
X133661289Y-81757711D01*
X133719304Y-81805322D01*
X133785492Y-81840701D01*
X133857311Y-81862487D01*
X133932000Y-81869843D01*
X133977685Y-81869843D01*
X134043225Y-81904874D01*
X134209294Y-81955251D01*
X134381999Y-81972262D01*
X134554705Y-81955251D01*
X134720774Y-81904874D01*
X134786314Y-81869843D01*
X134832000Y-81869843D01*
X134906689Y-81862487D01*
X134978508Y-81840701D01*
X135044696Y-81805322D01*
X135102711Y-81757711D01*
X135150322Y-81699696D01*
X135185701Y-81633508D01*
X135207487Y-81561689D01*
X135214843Y-81487000D01*
X135214843Y-81376428D01*
X135250251Y-81259705D01*
X135267262Y-81086999D01*
X135250251Y-80914294D01*
X135214843Y-80797571D01*
X135214843Y-80687000D01*
X135207487Y-80612311D01*
X135185701Y-80540492D01*
X135150322Y-80474304D01*
X135102711Y-80416289D01*
X135044696Y-80368678D01*
X134978508Y-80333299D01*
X134906689Y-80311513D01*
X134846508Y-80305586D01*
X134510765Y-79969843D01*
X134832000Y-79969843D01*
X134906689Y-79962487D01*
X134978508Y-79940701D01*
X135044696Y-79905322D01*
X135102711Y-79857711D01*
X135150322Y-79799696D01*
X135183834Y-79737000D01*
X135549157Y-79737000D01*
X135549157Y-80537000D01*
X135556513Y-80611689D01*
X135578299Y-80683508D01*
X135613678Y-80749696D01*
X135661289Y-80807711D01*
X135719304Y-80855322D01*
X135785492Y-80890701D01*
X135857311Y-80912487D01*
X135932000Y-80919843D01*
X136272475Y-80919843D01*
X136611899Y-81259268D01*
X136631657Y-81283343D01*
X136655732Y-81303101D01*
X136655734Y-81303103D01*
X136712943Y-81350053D01*
X136727739Y-81362196D01*
X136837358Y-81420789D01*
X136956302Y-81456870D01*
X137049002Y-81466000D01*
X137049011Y-81466000D01*
X137079999Y-81469052D01*
X137110987Y-81466000D01*
X137384859Y-81466000D01*
X137450190Y-81519616D01*
X137550956Y-81573477D01*
X137660293Y-81606644D01*
X137774000Y-81617843D01*
X138324000Y-81617843D01*
X138437707Y-81606644D01*
X138547044Y-81573477D01*
X138647810Y-81519616D01*
X138736132Y-81447132D01*
X138808616Y-81358810D01*
X138862477Y-81258044D01*
X138895644Y-81148707D01*
X138906843Y-81035000D01*
X138906843Y-80635000D01*
X138895644Y-80521293D01*
X138862477Y-80411956D01*
X138808616Y-80311190D01*
X138736132Y-80222868D01*
X138647810Y-80150384D01*
X138547044Y-80096523D01*
X138437707Y-80063356D01*
X138324000Y-80052157D01*
X137774000Y-80052157D01*
X137660293Y-80063356D01*
X137550956Y-80096523D01*
X137450190Y-80150384D01*
X137384859Y-80204000D01*
X137341369Y-80204000D01*
X137214843Y-80077474D01*
X137214843Y-79737000D01*
X137207487Y-79662311D01*
X137185701Y-79590492D01*
X137150322Y-79524304D01*
X137102711Y-79466289D01*
X137044696Y-79418678D01*
X136978508Y-79383299D01*
X136906689Y-79361513D01*
X136832000Y-79354157D01*
X135932000Y-79354157D01*
X135857311Y-79361513D01*
X135785492Y-79383299D01*
X135719304Y-79418678D01*
X135661289Y-79466289D01*
X135613678Y-79524304D01*
X135578299Y-79590492D01*
X135556513Y-79662311D01*
X135549157Y-79737000D01*
X135183834Y-79737000D01*
X135185701Y-79733508D01*
X135207487Y-79661689D01*
X135214843Y-79587000D01*
X135214843Y-78787000D01*
X135207487Y-78712311D01*
X135185701Y-78640492D01*
X135150322Y-78574304D01*
X135102711Y-78516289D01*
X135044696Y-78468678D01*
X134978508Y-78433299D01*
X134906689Y-78411513D01*
X134832000Y-78404157D01*
X134491526Y-78404157D01*
X134274212Y-78186843D01*
X134832000Y-78186843D01*
X134906689Y-78179487D01*
X134978508Y-78157701D01*
X135044696Y-78122322D01*
X135102711Y-78074711D01*
X135150322Y-78016696D01*
X135185701Y-77950508D01*
X135207487Y-77878689D01*
X135214843Y-77804000D01*
X135214843Y-77004000D01*
X135207487Y-76929311D01*
X135185701Y-76857492D01*
X135150322Y-76791304D01*
X135102711Y-76733289D01*
X135044696Y-76685678D01*
X134978508Y-76650299D01*
X134906689Y-76628513D01*
X134832000Y-76621157D01*
X134491526Y-76621157D01*
X134157212Y-76286843D01*
X134832000Y-76286843D01*
X134906689Y-76279487D01*
X134978508Y-76257701D01*
X135044696Y-76222322D01*
X135102711Y-76174711D01*
X135150322Y-76116696D01*
X135185701Y-76050508D01*
X135207487Y-75978689D01*
X135214843Y-75904000D01*
X135214843Y-75104000D01*
X135207487Y-75029311D01*
X135185701Y-74957492D01*
X135150322Y-74891304D01*
X135102711Y-74833289D01*
X135044696Y-74785678D01*
X134978508Y-74750299D01*
X134906689Y-74728513D01*
X134832000Y-74721157D01*
X134491526Y-74721157D01*
X134274212Y-74503843D01*
X134832000Y-74503843D01*
X134906689Y-74496487D01*
X134978508Y-74474701D01*
X135044696Y-74439322D01*
X135102711Y-74391711D01*
X135150322Y-74333696D01*
X135185701Y-74267508D01*
X135207487Y-74195689D01*
X135214843Y-74121000D01*
X135214843Y-73321000D01*
X135207487Y-73246311D01*
X135185701Y-73174492D01*
X135150322Y-73108304D01*
X135102711Y-73050289D01*
X135044696Y-73002678D01*
X134978508Y-72967299D01*
X134906689Y-72945513D01*
X134832000Y-72938157D01*
X134409526Y-72938157D01*
X134075212Y-72603843D01*
X134832000Y-72603843D01*
X134906689Y-72596487D01*
X134978508Y-72574701D01*
X135044696Y-72539322D01*
X135102711Y-72491711D01*
X135150322Y-72433696D01*
X135185701Y-72367508D01*
X135207487Y-72295689D01*
X135214843Y-72221000D01*
X135214843Y-71421000D01*
X135207487Y-71346311D01*
X135185701Y-71274492D01*
X135150322Y-71208304D01*
X135102711Y-71150289D01*
X135044696Y-71102678D01*
X134978508Y-71067299D01*
X134906689Y-71045513D01*
X134832000Y-71038157D01*
X134491525Y-71038157D01*
X134293105Y-70839737D01*
X134273343Y-70815657D01*
X134177261Y-70736804D01*
X134067642Y-70678211D01*
X133948698Y-70642130D01*
X133855998Y-70633000D01*
X133855990Y-70633000D01*
X133825000Y-70629948D01*
X133794010Y-70633000D01*
X124689256Y-70633000D01*
X124684633Y-70627367D01*
X124548199Y-70515399D01*
X124545582Y-70514000D01*
X124548199Y-70512601D01*
X124684633Y-70400633D01*
X124796601Y-70264199D01*
X124879801Y-70108543D01*
X124931035Y-69939647D01*
X124948335Y-69764000D01*
X124931035Y-69588353D01*
X124879801Y-69419457D01*
X124796601Y-69263801D01*
X124684633Y-69127367D01*
X124548199Y-69015399D01*
X124545582Y-69014000D01*
X124548199Y-69012601D01*
X124684633Y-68900633D01*
X124796601Y-68764199D01*
X124879801Y-68608543D01*
X124931035Y-68439647D01*
X124948335Y-68264000D01*
X124931035Y-68088353D01*
X124879801Y-67919457D01*
X124796601Y-67763801D01*
X124684633Y-67627367D01*
X124548199Y-67515399D01*
X124545582Y-67514000D01*
X124548199Y-67512601D01*
X124684633Y-67400633D01*
X124796601Y-67264199D01*
X124879801Y-67108543D01*
X124931035Y-66939647D01*
X124948335Y-66764000D01*
X124931035Y-66588353D01*
X124879801Y-66419457D01*
X124819163Y-66306012D01*
X133190624Y-66306012D01*
X133176492Y-66310299D01*
X133110304Y-66345678D01*
X133052289Y-66393289D01*
X133004678Y-66451304D01*
X132969299Y-66517492D01*
X132947513Y-66589311D01*
X132940157Y-66664000D01*
X132940157Y-68464000D01*
X132947513Y-68538689D01*
X132969299Y-68610508D01*
X133004678Y-68676696D01*
X133052289Y-68734711D01*
X133110304Y-68782322D01*
X133176492Y-68817701D01*
X133248311Y-68839487D01*
X133323000Y-68846843D01*
X133582475Y-68846843D01*
X136723788Y-71988157D01*
X135932000Y-71988157D01*
X135857311Y-71995513D01*
X135785492Y-72017299D01*
X135719304Y-72052678D01*
X135661289Y-72100289D01*
X135613678Y-72158304D01*
X135578299Y-72224492D01*
X135556513Y-72296311D01*
X135549157Y-72371000D01*
X135549157Y-73171000D01*
X135556513Y-73245689D01*
X135578299Y-73317508D01*
X135613678Y-73383696D01*
X135661289Y-73441711D01*
X135719304Y-73489322D01*
X135785492Y-73524701D01*
X135857311Y-73546487D01*
X135932000Y-73553843D01*
X136272475Y-73553843D01*
X136738899Y-74020268D01*
X136758657Y-74044343D01*
X136782732Y-74064101D01*
X136782734Y-74064103D01*
X136838660Y-74110000D01*
X136854739Y-74123196D01*
X136964358Y-74181789D01*
X137083302Y-74217870D01*
X137176002Y-74227000D01*
X137176011Y-74227000D01*
X137206999Y-74230052D01*
X137237987Y-74227000D01*
X137384859Y-74227000D01*
X137450190Y-74280616D01*
X137550956Y-74334477D01*
X137660293Y-74367644D01*
X137774000Y-74378843D01*
X138279788Y-74378843D01*
X137939475Y-74719157D01*
X137774000Y-74719157D01*
X137660293Y-74730356D01*
X137550956Y-74763523D01*
X137450190Y-74817384D01*
X137361868Y-74889868D01*
X137289384Y-74978190D01*
X137235523Y-75078956D01*
X137202356Y-75188293D01*
X137191157Y-75302000D01*
X137191157Y-75702000D01*
X137202356Y-75815707D01*
X137235523Y-75925044D01*
X137289384Y-76025810D01*
X137361868Y-76114132D01*
X137450190Y-76186616D01*
X137550956Y-76240477D01*
X137660293Y-76273644D01*
X137774000Y-76284843D01*
X138324000Y-76284843D01*
X138437707Y-76273644D01*
X138547044Y-76240477D01*
X138647810Y-76186616D01*
X138736132Y-76114132D01*
X138808616Y-76025810D01*
X138862477Y-75925044D01*
X138895644Y-75815707D01*
X138906843Y-75702000D01*
X138906843Y-75536525D01*
X139043020Y-75400348D01*
X139043020Y-77298611D01*
X138897798Y-77443833D01*
X138906843Y-77352000D01*
X138906843Y-76952000D01*
X138895644Y-76838293D01*
X138862477Y-76728956D01*
X138808616Y-76628190D01*
X138736132Y-76539868D01*
X138647810Y-76467384D01*
X138547044Y-76413523D01*
X138437707Y-76380356D01*
X138324000Y-76369157D01*
X137774000Y-76369157D01*
X137660293Y-76380356D01*
X137550956Y-76413523D01*
X137450190Y-76467384D01*
X137384859Y-76521000D01*
X137341369Y-76521000D01*
X137214843Y-76394474D01*
X137214843Y-76054000D01*
X137207487Y-75979311D01*
X137185701Y-75907492D01*
X137150322Y-75841304D01*
X137102711Y-75783289D01*
X137044696Y-75735678D01*
X136978508Y-75700299D01*
X136906689Y-75678513D01*
X136832000Y-75671157D01*
X135932000Y-75671157D01*
X135857311Y-75678513D01*
X135785492Y-75700299D01*
X135719304Y-75735678D01*
X135661289Y-75783289D01*
X135613678Y-75841304D01*
X135578299Y-75907492D01*
X135556513Y-75979311D01*
X135549157Y-76054000D01*
X135549157Y-76854000D01*
X135556513Y-76928689D01*
X135578299Y-77000508D01*
X135613678Y-77066696D01*
X135661289Y-77124711D01*
X135719304Y-77172322D01*
X135785492Y-77207701D01*
X135857311Y-77229487D01*
X135932000Y-77236843D01*
X136272475Y-77236843D01*
X136611899Y-77576268D01*
X136631657Y-77600343D01*
X136655732Y-77620101D01*
X136655734Y-77620103D01*
X136719608Y-77672523D01*
X136727739Y-77679196D01*
X136837358Y-77737789D01*
X136956302Y-77773870D01*
X137049002Y-77783000D01*
X137049011Y-77783000D01*
X137079999Y-77786052D01*
X137110987Y-77783000D01*
X137384859Y-77783000D01*
X137450190Y-77836616D01*
X137550956Y-77890477D01*
X137660293Y-77923644D01*
X137774000Y-77934843D01*
X138324000Y-77934843D01*
X138415833Y-77925798D01*
X137939475Y-78402157D01*
X137774000Y-78402157D01*
X137660293Y-78413356D01*
X137550956Y-78446523D01*
X137450190Y-78500384D01*
X137361868Y-78572868D01*
X137289384Y-78661190D01*
X137235523Y-78761956D01*
X137202356Y-78871293D01*
X137191157Y-78985000D01*
X137191157Y-79385000D01*
X137202356Y-79498707D01*
X137235523Y-79608044D01*
X137289384Y-79708810D01*
X137361868Y-79797132D01*
X137450190Y-79869616D01*
X137550956Y-79923477D01*
X137660293Y-79956644D01*
X137774000Y-79967843D01*
X138324000Y-79967843D01*
X138437707Y-79956644D01*
X138547044Y-79923477D01*
X138647810Y-79869616D01*
X138736132Y-79797132D01*
X138808616Y-79708810D01*
X138862477Y-79608044D01*
X138895644Y-79498707D01*
X138906843Y-79385000D01*
X138906843Y-79219525D01*
X140098289Y-78028080D01*
X140122363Y-78008323D01*
X140143146Y-77983000D01*
X140201215Y-77912242D01*
X140201216Y-77912241D01*
X140259809Y-77802622D01*
X140295890Y-77683678D01*
X140305020Y-77590978D01*
X140305020Y-77590969D01*
X140308072Y-77559981D01*
X140305020Y-77528993D01*
X140305020Y-69601010D01*
X140308072Y-69570020D01*
X140305020Y-69539029D01*
X140305020Y-69539022D01*
X140295890Y-69446322D01*
X140259809Y-69327378D01*
X140201216Y-69217759D01*
X140169656Y-69179303D01*
X140142123Y-69145754D01*
X140142121Y-69145752D01*
X140122363Y-69121677D01*
X140098288Y-69101919D01*
X138584000Y-67587632D01*
X138584000Y-67154002D01*
X138570746Y-67019433D01*
X138518368Y-66846766D01*
X138433311Y-66687635D01*
X138318844Y-66548156D01*
X138179364Y-66433689D01*
X138020233Y-66348632D01*
X137847566Y-66296254D01*
X137668000Y-66278568D01*
X137488433Y-66296254D01*
X137315766Y-66348632D01*
X137243180Y-66387430D01*
X137135513Y-66281883D01*
X136942421Y-66155623D01*
X136705383Y-66070100D01*
X136525000Y-66195756D01*
X136525000Y-67437000D01*
X136545000Y-67437000D01*
X136545000Y-67691000D01*
X136525000Y-67691000D01*
X136525000Y-67711000D01*
X136271000Y-67711000D01*
X136271000Y-67691000D01*
X136251000Y-67691000D01*
X136251000Y-67437000D01*
X136271000Y-67437000D01*
X136271000Y-66195756D01*
X136090617Y-66070100D01*
X135853579Y-66155623D01*
X135759000Y-66217467D01*
X135759000Y-66194987D01*
X135762052Y-66163999D01*
X135759000Y-66133011D01*
X135759000Y-66133002D01*
X135749870Y-66040302D01*
X135713789Y-65921358D01*
X135655196Y-65811739D01*
X135576343Y-65715657D01*
X135552263Y-65695895D01*
X134257116Y-64400748D01*
X134237354Y-64376668D01*
X134141272Y-64297815D01*
X134031653Y-64239222D01*
X133912709Y-64203141D01*
X133820009Y-64194011D01*
X133820001Y-64194011D01*
X133789011Y-64190959D01*
X133758021Y-64194011D01*
X109372394Y-64194011D01*
X109280931Y-64132898D01*
X109138798Y-64074024D01*
X108987911Y-64044011D01*
X108834067Y-64044011D01*
X108683180Y-64074024D01*
X108541047Y-64132898D01*
X108449584Y-64194011D01*
X83083394Y-64194011D01*
X82991931Y-64132898D01*
X82849798Y-64074024D01*
X82698911Y-64044011D01*
X82545067Y-64044011D01*
X82394180Y-64074024D01*
X82252047Y-64132898D01*
X82160584Y-64194011D01*
X56667394Y-64194011D01*
X56575931Y-64132898D01*
X56433798Y-64074024D01*
X56282911Y-64044011D01*
X56129067Y-64044011D01*
X55978180Y-64074024D01*
X55836047Y-64132898D01*
X55708130Y-64218369D01*
X55599347Y-64327152D01*
X55513876Y-64455069D01*
X55455002Y-64597202D01*
X55424989Y-64748089D01*
X55424989Y-64901933D01*
X55453250Y-65044012D01*
X55383975Y-65044012D01*
X55352987Y-65040960D01*
X55321999Y-65044012D01*
X55321990Y-65044012D01*
X55229290Y-65053142D01*
X55110346Y-65089223D01*
X55000727Y-65147816D01*
X54904645Y-65226669D01*
X54884883Y-65250749D01*
X54439737Y-65695895D01*
X54415657Y-65715657D01*
X54336804Y-65811740D01*
X54278211Y-65921359D01*
X54242130Y-66040303D01*
X54233000Y-66133003D01*
X54233000Y-66133010D01*
X54229948Y-66164000D01*
X54233000Y-66194991D01*
X54233000Y-66294978D01*
X54182492Y-66310299D01*
X54116304Y-66345678D01*
X54058289Y-66393289D01*
X54010678Y-66451304D01*
X53975299Y-66517492D01*
X53953513Y-66589311D01*
X53946157Y-66664000D01*
X53946157Y-68464000D01*
X53953513Y-68538689D01*
X53975299Y-68610508D01*
X54010678Y-68676696D01*
X54058289Y-68734711D01*
X54116304Y-68782322D01*
X54182492Y-68817701D01*
X54254311Y-68839487D01*
X54329000Y-68846843D01*
X55399000Y-68846843D01*
X55473689Y-68839487D01*
X55545508Y-68817701D01*
X55611696Y-68782322D01*
X55669711Y-68734711D01*
X55678403Y-68724119D01*
X55781767Y-68779368D01*
X55954434Y-68831746D01*
X56134000Y-68849432D01*
X56313567Y-68831746D01*
X56486234Y-68779368D01*
X56558820Y-68740570D01*
X56666487Y-68846117D01*
X56859579Y-68972377D01*
X57096617Y-69057900D01*
X57277000Y-68932244D01*
X57277000Y-67691000D01*
X57257000Y-67691000D01*
X57257000Y-67437000D01*
X57277000Y-67437000D01*
X57277000Y-67417000D01*
X57531000Y-67417000D01*
X57531000Y-67437000D01*
X57551000Y-67437000D01*
X57551000Y-67691000D01*
X57531000Y-67691000D01*
X57531000Y-68932244D01*
X57711383Y-69057900D01*
X57948421Y-68972377D01*
X58141513Y-68846117D01*
X58249181Y-68740570D01*
X58321767Y-68779368D01*
X58494434Y-68831746D01*
X58674000Y-68849432D01*
X58853567Y-68831746D01*
X59026234Y-68779368D01*
X59185365Y-68694311D01*
X59324844Y-68579844D01*
X59439311Y-68440365D01*
X59524368Y-68281234D01*
X59576746Y-68108567D01*
X59590000Y-67973998D01*
X59590000Y-67154002D01*
X59576746Y-67019433D01*
X59524368Y-66846766D01*
X59439311Y-66687635D01*
X59324844Y-66548156D01*
X59185364Y-66433689D01*
X59026233Y-66348632D01*
X58885734Y-66306012D01*
X63198009Y-66306012D01*
X61525737Y-67978285D01*
X61501657Y-67998047D01*
X61422804Y-68094130D01*
X61364211Y-68203749D01*
X61328130Y-68322693D01*
X61319000Y-68415393D01*
X61319000Y-68415400D01*
X61315948Y-68446390D01*
X61319000Y-68477380D01*
X61319000Y-68483000D01*
X60456990Y-68483000D01*
X60426000Y-68479948D01*
X60395009Y-68483000D01*
X60395002Y-68483000D01*
X60302302Y-68492130D01*
X60183358Y-68528211D01*
X60073739Y-68586804D01*
X60010051Y-68639072D01*
X59977657Y-68665657D01*
X59957899Y-68689732D01*
X56756632Y-71891000D01*
X56129711Y-71891000D01*
X56114696Y-71878678D01*
X56048508Y-71843299D01*
X56003000Y-71829494D01*
X56003000Y-71658987D01*
X56006052Y-71627999D01*
X56003000Y-71597011D01*
X56003000Y-71597002D01*
X55993870Y-71504302D01*
X55957789Y-71385358D01*
X55899196Y-71275739D01*
X55878893Y-71251000D01*
X55840103Y-71203734D01*
X55840101Y-71203732D01*
X55820343Y-71179657D01*
X55796268Y-71159899D01*
X54837105Y-70200737D01*
X54817343Y-70176657D01*
X54721261Y-70097804D01*
X54611642Y-70039211D01*
X54492698Y-70003130D01*
X54399998Y-69994000D01*
X54399990Y-69994000D01*
X54369000Y-69990948D01*
X54338010Y-69994000D01*
X52974477Y-69994000D01*
X52996185Y-69976185D01*
X53075537Y-69879494D01*
X53134502Y-69769180D01*
X53170812Y-69649482D01*
X53183072Y-69525000D01*
X53180000Y-69360750D01*
X53021250Y-69202000D01*
X52197000Y-69202000D01*
X52197000Y-69222000D01*
X51943000Y-69222000D01*
X51943000Y-69202000D01*
X51923000Y-69202000D01*
X51923000Y-68948000D01*
X51943000Y-68948000D01*
X51943000Y-68148750D01*
X52197000Y-68148750D01*
X52197000Y-68948000D01*
X53021250Y-68948000D01*
X53180000Y-68789250D01*
X53183072Y-68625000D01*
X53170812Y-68500518D01*
X53134502Y-68380820D01*
X53075537Y-68270506D01*
X52996185Y-68173815D01*
X52899494Y-68094463D01*
X52789180Y-68035498D01*
X52669482Y-67999188D01*
X52545000Y-67986928D01*
X52355750Y-67990000D01*
X52197000Y-68148750D01*
X51943000Y-68148750D01*
X51784250Y-67990000D01*
X51595000Y-67986928D01*
X51470518Y-67999188D01*
X51350820Y-68035498D01*
X51240506Y-68094463D01*
X51206000Y-68122781D01*
X51206000Y-63906000D01*
X140945001Y-63906000D01*
X140945000Y-82569940D01*
G37*
G04 #@! TD.AperFunction*
D21*
X113411000Y-79840000D02*
X113431000Y-79840000D01*
X113431000Y-80094000D01*
X113411000Y-80094000D01*
X113411000Y-80114000D01*
X113157000Y-80114000D01*
X113157000Y-80094000D01*
X113137000Y-80094000D01*
X113137000Y-79840000D01*
X113157000Y-79840000D01*
X113157000Y-79820000D01*
X113411000Y-79820000D01*
X113411000Y-79840000D01*
G04 #@! TA.AperFunction,Conductor*
D22*
G36*
X113411000Y-79840000D02*
G01*
X113431000Y-79840000D01*
X113431000Y-80094000D01*
X113411000Y-80094000D01*
X113411000Y-80114000D01*
X113157000Y-80114000D01*
X113157000Y-80094000D01*
X113137000Y-80094000D01*
X113137000Y-79840000D01*
X113157000Y-79840000D01*
X113157000Y-79820000D01*
X113411000Y-79820000D01*
X113411000Y-79840000D01*
G37*
G04 #@! TD.AperFunction*
D21*
X100064157Y-71820000D02*
X100071513Y-71894689D01*
X100093299Y-71966508D01*
X100128678Y-72032696D01*
X100176289Y-72090711D01*
X100234304Y-72138322D01*
X100300492Y-72173701D01*
X100372311Y-72195487D01*
X100447000Y-72202843D01*
X101097000Y-72202843D01*
X101171689Y-72195487D01*
X101243508Y-72173701D01*
X101309696Y-72138322D01*
X101367711Y-72090711D01*
X101415322Y-72032696D01*
X101450701Y-71966508D01*
X101464506Y-71921000D01*
X101940179Y-71921000D01*
X101962956Y-71996083D01*
X102011272Y-72086476D01*
X102031919Y-72111635D01*
X101963657Y-72167657D01*
X101943895Y-72191737D01*
X101403154Y-72732478D01*
X101367711Y-72689289D01*
X101309696Y-72641678D01*
X101243508Y-72606299D01*
X101171689Y-72584513D01*
X101097000Y-72577157D01*
X100654272Y-72577157D01*
X100598185Y-72508815D01*
X100501494Y-72429463D01*
X100391180Y-72370498D01*
X100271482Y-72334188D01*
X100147000Y-72321928D01*
X100107750Y-72325000D01*
X99949000Y-72483750D01*
X99949000Y-73363000D01*
X99969000Y-73363000D01*
X99969000Y-73617000D01*
X99949000Y-73617000D01*
X99949000Y-74496250D01*
X100107750Y-74655000D01*
X100147000Y-74658072D01*
X100271482Y-74645812D01*
X100391180Y-74609502D01*
X100501494Y-74550537D01*
X100524001Y-74532066D01*
X100524000Y-75027858D01*
X100470384Y-75093190D01*
X100416523Y-75193956D01*
X100383356Y-75303293D01*
X100372157Y-75417000D01*
X100372157Y-75666789D01*
X100287843Y-75582475D01*
X100287843Y-75417000D01*
X100276644Y-75303293D01*
X100243477Y-75193956D01*
X100189616Y-75093190D01*
X100117132Y-75004868D01*
X100028810Y-74932384D01*
X99928044Y-74878523D01*
X99818707Y-74845356D01*
X99705000Y-74834157D01*
X99305000Y-74834157D01*
X99191293Y-74845356D01*
X99081956Y-74878523D01*
X98981190Y-74932384D01*
X98892868Y-75004868D01*
X98820384Y-75093190D01*
X98802000Y-75127584D01*
X98802000Y-74810368D01*
X99098196Y-74514173D01*
X99142506Y-74550537D01*
X99252820Y-74609502D01*
X99372518Y-74645812D01*
X99497000Y-74658072D01*
X99536250Y-74655000D01*
X99695000Y-74496250D01*
X99695000Y-73617000D01*
X99675000Y-73617000D01*
X99675000Y-73363000D01*
X99695000Y-73363000D01*
X99695000Y-72483750D01*
X99536250Y-72325000D01*
X99497000Y-72321928D01*
X99372518Y-72334188D01*
X99252820Y-72370498D01*
X99142506Y-72429463D01*
X99045815Y-72508815D01*
X98989728Y-72577157D01*
X98547000Y-72577157D01*
X98472311Y-72584513D01*
X98400492Y-72606299D01*
X98334304Y-72641678D01*
X98276289Y-72689289D01*
X98228678Y-72747304D01*
X98193299Y-72813492D01*
X98171513Y-72885311D01*
X98164157Y-72960000D01*
X98164157Y-73663474D01*
X98134675Y-73692957D01*
X98141072Y-73628000D01*
X98138000Y-73463750D01*
X97979250Y-73305000D01*
X97155000Y-73305000D01*
X97155000Y-74104250D01*
X97313750Y-74263000D01*
X97503000Y-74266072D01*
X97612510Y-74255287D01*
X97585211Y-74306359D01*
X97549130Y-74425303D01*
X97536948Y-74549000D01*
X97540001Y-74580000D01*
X97540000Y-77566010D01*
X97536948Y-77597000D01*
X97540000Y-77627990D01*
X97540000Y-77627997D01*
X97549130Y-77720697D01*
X97585211Y-77839641D01*
X97643804Y-77949260D01*
X97722657Y-78045343D01*
X97746737Y-78065105D01*
X98670157Y-78988526D01*
X98670157Y-79609001D01*
X98682317Y-79732462D01*
X98718329Y-79851179D01*
X98776810Y-79960589D01*
X98855512Y-80056488D01*
X98890254Y-80085000D01*
X92858406Y-80085000D01*
X92884797Y-79998002D01*
X92894843Y-79896000D01*
X92894843Y-79616000D01*
X92884797Y-79513998D01*
X92871664Y-79470704D01*
X93451269Y-78891100D01*
X93475343Y-78871343D01*
X93502236Y-78838575D01*
X93554196Y-78775261D01*
X93612789Y-78665642D01*
X93619961Y-78641998D01*
X93648870Y-78546698D01*
X93658000Y-78453998D01*
X93658000Y-78453989D01*
X93661052Y-78423001D01*
X93658000Y-78392013D01*
X93658000Y-77626141D01*
X93711616Y-77560810D01*
X93765477Y-77460044D01*
X93798644Y-77350707D01*
X93809843Y-77237000D01*
X93809843Y-77071525D01*
X95928268Y-74953101D01*
X95952343Y-74933343D01*
X95987094Y-74891000D01*
X96031196Y-74837261D01*
X96089789Y-74727642D01*
X96125870Y-74608698D01*
X96126260Y-74604735D01*
X96135000Y-74515998D01*
X96135000Y-74515991D01*
X96138052Y-74485000D01*
X96135000Y-74454010D01*
X96135000Y-74106419D01*
X96198506Y-74158537D01*
X96308820Y-74217502D01*
X96428518Y-74253812D01*
X96553000Y-74266072D01*
X96742250Y-74263000D01*
X96901000Y-74104250D01*
X96901000Y-73305000D01*
X96881000Y-73305000D01*
X96881000Y-73051000D01*
X96901000Y-73051000D01*
X96901000Y-73031000D01*
X97155000Y-73031000D01*
X97155000Y-73051000D01*
X97979250Y-73051000D01*
X98138000Y-72892250D01*
X98141072Y-72728000D01*
X98128812Y-72603518D01*
X98092502Y-72483820D01*
X98033537Y-72373506D01*
X97954185Y-72276815D01*
X97932477Y-72259000D01*
X98503010Y-72259000D01*
X98534000Y-72262052D01*
X98564990Y-72259000D01*
X98564998Y-72259000D01*
X98657698Y-72249870D01*
X98776642Y-72213789D01*
X98797120Y-72202843D01*
X99197000Y-72202843D01*
X99271689Y-72195487D01*
X99343508Y-72173701D01*
X99409696Y-72138322D01*
X99467711Y-72090711D01*
X99515322Y-72032696D01*
X99550701Y-71966508D01*
X99572487Y-71894689D01*
X99579843Y-71820000D01*
X99579843Y-71474525D01*
X100064157Y-70990212D01*
X100064157Y-71820000D01*
G04 #@! TA.AperFunction,Conductor*
D22*
G36*
X100064157Y-71820000D02*
G01*
X100071513Y-71894689D01*
X100093299Y-71966508D01*
X100128678Y-72032696D01*
X100176289Y-72090711D01*
X100234304Y-72138322D01*
X100300492Y-72173701D01*
X100372311Y-72195487D01*
X100447000Y-72202843D01*
X101097000Y-72202843D01*
X101171689Y-72195487D01*
X101243508Y-72173701D01*
X101309696Y-72138322D01*
X101367711Y-72090711D01*
X101415322Y-72032696D01*
X101450701Y-71966508D01*
X101464506Y-71921000D01*
X101940179Y-71921000D01*
X101962956Y-71996083D01*
X102011272Y-72086476D01*
X102031919Y-72111635D01*
X101963657Y-72167657D01*
X101943895Y-72191737D01*
X101403154Y-72732478D01*
X101367711Y-72689289D01*
X101309696Y-72641678D01*
X101243508Y-72606299D01*
X101171689Y-72584513D01*
X101097000Y-72577157D01*
X100654272Y-72577157D01*
X100598185Y-72508815D01*
X100501494Y-72429463D01*
X100391180Y-72370498D01*
X100271482Y-72334188D01*
X100147000Y-72321928D01*
X100107750Y-72325000D01*
X99949000Y-72483750D01*
X99949000Y-73363000D01*
X99969000Y-73363000D01*
X99969000Y-73617000D01*
X99949000Y-73617000D01*
X99949000Y-74496250D01*
X100107750Y-74655000D01*
X100147000Y-74658072D01*
X100271482Y-74645812D01*
X100391180Y-74609502D01*
X100501494Y-74550537D01*
X100524001Y-74532066D01*
X100524000Y-75027858D01*
X100470384Y-75093190D01*
X100416523Y-75193956D01*
X100383356Y-75303293D01*
X100372157Y-75417000D01*
X100372157Y-75666789D01*
X100287843Y-75582475D01*
X100287843Y-75417000D01*
X100276644Y-75303293D01*
X100243477Y-75193956D01*
X100189616Y-75093190D01*
X100117132Y-75004868D01*
X100028810Y-74932384D01*
X99928044Y-74878523D01*
X99818707Y-74845356D01*
X99705000Y-74834157D01*
X99305000Y-74834157D01*
X99191293Y-74845356D01*
X99081956Y-74878523D01*
X98981190Y-74932384D01*
X98892868Y-75004868D01*
X98820384Y-75093190D01*
X98802000Y-75127584D01*
X98802000Y-74810368D01*
X99098196Y-74514173D01*
X99142506Y-74550537D01*
X99252820Y-74609502D01*
X99372518Y-74645812D01*
X99497000Y-74658072D01*
X99536250Y-74655000D01*
X99695000Y-74496250D01*
X99695000Y-73617000D01*
X99675000Y-73617000D01*
X99675000Y-73363000D01*
X99695000Y-73363000D01*
X99695000Y-72483750D01*
X99536250Y-72325000D01*
X99497000Y-72321928D01*
X99372518Y-72334188D01*
X99252820Y-72370498D01*
X99142506Y-72429463D01*
X99045815Y-72508815D01*
X98989728Y-72577157D01*
X98547000Y-72577157D01*
X98472311Y-72584513D01*
X98400492Y-72606299D01*
X98334304Y-72641678D01*
X98276289Y-72689289D01*
X98228678Y-72747304D01*
X98193299Y-72813492D01*
X98171513Y-72885311D01*
X98164157Y-72960000D01*
X98164157Y-73663474D01*
X98134675Y-73692957D01*
X98141072Y-73628000D01*
X98138000Y-73463750D01*
X97979250Y-73305000D01*
X97155000Y-73305000D01*
X97155000Y-74104250D01*
X97313750Y-74263000D01*
X97503000Y-74266072D01*
X97612510Y-74255287D01*
X97585211Y-74306359D01*
X97549130Y-74425303D01*
X97536948Y-74549000D01*
X97540001Y-74580000D01*
X97540000Y-77566010D01*
X97536948Y-77597000D01*
X97540000Y-77627990D01*
X97540000Y-77627997D01*
X97549130Y-77720697D01*
X97585211Y-77839641D01*
X97643804Y-77949260D01*
X97722657Y-78045343D01*
X97746737Y-78065105D01*
X98670157Y-78988526D01*
X98670157Y-79609001D01*
X98682317Y-79732462D01*
X98718329Y-79851179D01*
X98776810Y-79960589D01*
X98855512Y-80056488D01*
X98890254Y-80085000D01*
X92858406Y-80085000D01*
X92884797Y-79998002D01*
X92894843Y-79896000D01*
X92894843Y-79616000D01*
X92884797Y-79513998D01*
X92871664Y-79470704D01*
X93451269Y-78891100D01*
X93475343Y-78871343D01*
X93502236Y-78838575D01*
X93554196Y-78775261D01*
X93612789Y-78665642D01*
X93619961Y-78641998D01*
X93648870Y-78546698D01*
X93658000Y-78453998D01*
X93658000Y-78453989D01*
X93661052Y-78423001D01*
X93658000Y-78392013D01*
X93658000Y-77626141D01*
X93711616Y-77560810D01*
X93765477Y-77460044D01*
X93798644Y-77350707D01*
X93809843Y-77237000D01*
X93809843Y-77071525D01*
X95928268Y-74953101D01*
X95952343Y-74933343D01*
X95987094Y-74891000D01*
X96031196Y-74837261D01*
X96089789Y-74727642D01*
X96125870Y-74608698D01*
X96126260Y-74604735D01*
X96135000Y-74515998D01*
X96135000Y-74515991D01*
X96138052Y-74485000D01*
X96135000Y-74454010D01*
X96135000Y-74106419D01*
X96198506Y-74158537D01*
X96308820Y-74217502D01*
X96428518Y-74253812D01*
X96553000Y-74266072D01*
X96742250Y-74263000D01*
X96901000Y-74104250D01*
X96901000Y-73305000D01*
X96881000Y-73305000D01*
X96881000Y-73051000D01*
X96901000Y-73051000D01*
X96901000Y-73031000D01*
X97155000Y-73031000D01*
X97155000Y-73051000D01*
X97979250Y-73051000D01*
X98138000Y-72892250D01*
X98141072Y-72728000D01*
X98128812Y-72603518D01*
X98092502Y-72483820D01*
X98033537Y-72373506D01*
X97954185Y-72276815D01*
X97932477Y-72259000D01*
X98503010Y-72259000D01*
X98534000Y-72262052D01*
X98564990Y-72259000D01*
X98564998Y-72259000D01*
X98657698Y-72249870D01*
X98776642Y-72213789D01*
X98797120Y-72202843D01*
X99197000Y-72202843D01*
X99271689Y-72195487D01*
X99343508Y-72173701D01*
X99409696Y-72138322D01*
X99467711Y-72090711D01*
X99515322Y-72032696D01*
X99550701Y-71966508D01*
X99572487Y-71894689D01*
X99579843Y-71820000D01*
X99579843Y-71474525D01*
X100064157Y-70990212D01*
X100064157Y-71820000D01*
G37*
G04 #@! TD.AperFunction*
D21*
X116821000Y-74814078D02*
X116821000Y-74967922D01*
X116851013Y-75118809D01*
X116909887Y-75260942D01*
X116995358Y-75388859D01*
X117104141Y-75497642D01*
X117232058Y-75583113D01*
X117240957Y-75586799D01*
X117231141Y-75593358D01*
X117122358Y-75702141D01*
X117036887Y-75830058D01*
X116978013Y-75972191D01*
X116948000Y-76123078D01*
X116948000Y-76276922D01*
X116953446Y-76304304D01*
X116838000Y-76419750D01*
X116838000Y-77089000D01*
X116858000Y-77089000D01*
X116858000Y-77343000D01*
X116838000Y-77343000D01*
X116838000Y-77363000D01*
X116584000Y-77363000D01*
X116584000Y-77343000D01*
X115964750Y-77343000D01*
X115806000Y-77501750D01*
X115802977Y-77528119D01*
X115813699Y-77652742D01*
X115848527Y-77772879D01*
X115906124Y-77883914D01*
X115984276Y-77981578D01*
X116073145Y-78056366D01*
X116068107Y-78072974D01*
X116058157Y-78174000D01*
X116058157Y-78544000D01*
X116068107Y-78645026D01*
X116080000Y-78684232D01*
X116080000Y-78981976D01*
X116016977Y-79033698D01*
X115992657Y-79053657D01*
X115972899Y-79077732D01*
X115308632Y-79742000D01*
X114941843Y-79742000D01*
X114941843Y-79437000D01*
X114934487Y-79362311D01*
X114912701Y-79290492D01*
X114877322Y-79224304D01*
X114865000Y-79209289D01*
X114865000Y-78958997D01*
X114868053Y-78928000D01*
X114865000Y-78897002D01*
X114865000Y-78524711D01*
X114877322Y-78509696D01*
X114912701Y-78443508D01*
X114934487Y-78371689D01*
X114941843Y-78297000D01*
X114941843Y-77237000D01*
X114934487Y-77162311D01*
X114912701Y-77090492D01*
X114877322Y-77024304D01*
X114829711Y-76966289D01*
X114771696Y-76918678D01*
X114744014Y-76903881D01*
X115802977Y-76903881D01*
X115806000Y-76930250D01*
X115964750Y-77089000D01*
X116584000Y-77089000D01*
X116584000Y-76419750D01*
X116425250Y-76261000D01*
X116308798Y-76271774D01*
X116189558Y-76309559D01*
X116079980Y-76369882D01*
X115984276Y-76450422D01*
X115906124Y-76548086D01*
X115848527Y-76659121D01*
X115813699Y-76779258D01*
X115802977Y-76903881D01*
X114744014Y-76903881D01*
X114705508Y-76883299D01*
X114633689Y-76861513D01*
X114559000Y-76854157D01*
X113909000Y-76854157D01*
X113834311Y-76861513D01*
X113762492Y-76883299D01*
X113696304Y-76918678D01*
X113638289Y-76966289D01*
X113590678Y-77024304D01*
X113555299Y-77090492D01*
X113533513Y-77162311D01*
X113526157Y-77237000D01*
X113526157Y-77994956D01*
X113511809Y-77989013D01*
X113360922Y-77959000D01*
X113207078Y-77959000D01*
X113056191Y-77989013D01*
X113041843Y-77994956D01*
X113041843Y-77237000D01*
X113034487Y-77162311D01*
X113012701Y-77090492D01*
X112977322Y-77024304D01*
X112929711Y-76966289D01*
X112871696Y-76918678D01*
X112805508Y-76883299D01*
X112733689Y-76861513D01*
X112659000Y-76854157D01*
X112544526Y-76854157D01*
X111301369Y-75611000D01*
X112751928Y-75611000D01*
X112764188Y-75735482D01*
X112800498Y-75855180D01*
X112859463Y-75965494D01*
X112938815Y-76062185D01*
X113035506Y-76141537D01*
X113145820Y-76200502D01*
X113265518Y-76236812D01*
X113390000Y-76249072D01*
X114079250Y-76246000D01*
X114238000Y-76087250D01*
X114238000Y-75438000D01*
X114492000Y-75438000D01*
X114492000Y-76087250D01*
X114650750Y-76246000D01*
X115340000Y-76249072D01*
X115464482Y-76236812D01*
X115584180Y-76200502D01*
X115694494Y-76141537D01*
X115791185Y-76062185D01*
X115870537Y-75965494D01*
X115929502Y-75855180D01*
X115965812Y-75735482D01*
X115978072Y-75611000D01*
X115975000Y-75596750D01*
X115816250Y-75438000D01*
X114492000Y-75438000D01*
X114238000Y-75438000D01*
X112913750Y-75438000D01*
X112755000Y-75596750D01*
X112751928Y-75611000D01*
X111301369Y-75611000D01*
X110881447Y-75191079D01*
X110859987Y-75083191D01*
X110801113Y-74941058D01*
X110715642Y-74813141D01*
X110701501Y-74799000D01*
X112790736Y-74799000D01*
X112764188Y-74886518D01*
X112751928Y-75011000D01*
X112755000Y-75025250D01*
X112913750Y-75184000D01*
X114238000Y-75184000D01*
X114238000Y-75164000D01*
X114492000Y-75164000D01*
X114492000Y-75184000D01*
X115816250Y-75184000D01*
X115975000Y-75025250D01*
X115978072Y-75011000D01*
X115965812Y-74886518D01*
X115929502Y-74766820D01*
X115878819Y-74672000D01*
X116849261Y-74672000D01*
X116821000Y-74814078D01*
G04 #@! TA.AperFunction,Conductor*
D22*
G36*
X116821000Y-74814078D02*
G01*
X116821000Y-74967922D01*
X116851013Y-75118809D01*
X116909887Y-75260942D01*
X116995358Y-75388859D01*
X117104141Y-75497642D01*
X117232058Y-75583113D01*
X117240957Y-75586799D01*
X117231141Y-75593358D01*
X117122358Y-75702141D01*
X117036887Y-75830058D01*
X116978013Y-75972191D01*
X116948000Y-76123078D01*
X116948000Y-76276922D01*
X116953446Y-76304304D01*
X116838000Y-76419750D01*
X116838000Y-77089000D01*
X116858000Y-77089000D01*
X116858000Y-77343000D01*
X116838000Y-77343000D01*
X116838000Y-77363000D01*
X116584000Y-77363000D01*
X116584000Y-77343000D01*
X115964750Y-77343000D01*
X115806000Y-77501750D01*
X115802977Y-77528119D01*
X115813699Y-77652742D01*
X115848527Y-77772879D01*
X115906124Y-77883914D01*
X115984276Y-77981578D01*
X116073145Y-78056366D01*
X116068107Y-78072974D01*
X116058157Y-78174000D01*
X116058157Y-78544000D01*
X116068107Y-78645026D01*
X116080000Y-78684232D01*
X116080000Y-78981976D01*
X116016977Y-79033698D01*
X115992657Y-79053657D01*
X115972899Y-79077732D01*
X115308632Y-79742000D01*
X114941843Y-79742000D01*
X114941843Y-79437000D01*
X114934487Y-79362311D01*
X114912701Y-79290492D01*
X114877322Y-79224304D01*
X114865000Y-79209289D01*
X114865000Y-78958997D01*
X114868053Y-78928000D01*
X114865000Y-78897002D01*
X114865000Y-78524711D01*
X114877322Y-78509696D01*
X114912701Y-78443508D01*
X114934487Y-78371689D01*
X114941843Y-78297000D01*
X114941843Y-77237000D01*
X114934487Y-77162311D01*
X114912701Y-77090492D01*
X114877322Y-77024304D01*
X114829711Y-76966289D01*
X114771696Y-76918678D01*
X114744014Y-76903881D01*
X115802977Y-76903881D01*
X115806000Y-76930250D01*
X115964750Y-77089000D01*
X116584000Y-77089000D01*
X116584000Y-76419750D01*
X116425250Y-76261000D01*
X116308798Y-76271774D01*
X116189558Y-76309559D01*
X116079980Y-76369882D01*
X115984276Y-76450422D01*
X115906124Y-76548086D01*
X115848527Y-76659121D01*
X115813699Y-76779258D01*
X115802977Y-76903881D01*
X114744014Y-76903881D01*
X114705508Y-76883299D01*
X114633689Y-76861513D01*
X114559000Y-76854157D01*
X113909000Y-76854157D01*
X113834311Y-76861513D01*
X113762492Y-76883299D01*
X113696304Y-76918678D01*
X113638289Y-76966289D01*
X113590678Y-77024304D01*
X113555299Y-77090492D01*
X113533513Y-77162311D01*
X113526157Y-77237000D01*
X113526157Y-77994956D01*
X113511809Y-77989013D01*
X113360922Y-77959000D01*
X113207078Y-77959000D01*
X113056191Y-77989013D01*
X113041843Y-77994956D01*
X113041843Y-77237000D01*
X113034487Y-77162311D01*
X113012701Y-77090492D01*
X112977322Y-77024304D01*
X112929711Y-76966289D01*
X112871696Y-76918678D01*
X112805508Y-76883299D01*
X112733689Y-76861513D01*
X112659000Y-76854157D01*
X112544526Y-76854157D01*
X111301369Y-75611000D01*
X112751928Y-75611000D01*
X112764188Y-75735482D01*
X112800498Y-75855180D01*
X112859463Y-75965494D01*
X112938815Y-76062185D01*
X113035506Y-76141537D01*
X113145820Y-76200502D01*
X113265518Y-76236812D01*
X113390000Y-76249072D01*
X114079250Y-76246000D01*
X114238000Y-76087250D01*
X114238000Y-75438000D01*
X114492000Y-75438000D01*
X114492000Y-76087250D01*
X114650750Y-76246000D01*
X115340000Y-76249072D01*
X115464482Y-76236812D01*
X115584180Y-76200502D01*
X115694494Y-76141537D01*
X115791185Y-76062185D01*
X115870537Y-75965494D01*
X115929502Y-75855180D01*
X115965812Y-75735482D01*
X115978072Y-75611000D01*
X115975000Y-75596750D01*
X115816250Y-75438000D01*
X114492000Y-75438000D01*
X114238000Y-75438000D01*
X112913750Y-75438000D01*
X112755000Y-75596750D01*
X112751928Y-75611000D01*
X111301369Y-75611000D01*
X110881447Y-75191079D01*
X110859987Y-75083191D01*
X110801113Y-74941058D01*
X110715642Y-74813141D01*
X110701501Y-74799000D01*
X112790736Y-74799000D01*
X112764188Y-74886518D01*
X112751928Y-75011000D01*
X112755000Y-75025250D01*
X112913750Y-75184000D01*
X114238000Y-75184000D01*
X114238000Y-75164000D01*
X114492000Y-75164000D01*
X114492000Y-75184000D01*
X115816250Y-75184000D01*
X115975000Y-75025250D01*
X115978072Y-75011000D01*
X115965812Y-74886518D01*
X115929502Y-74766820D01*
X115878819Y-74672000D01*
X116849261Y-74672000D01*
X116821000Y-74814078D01*
G37*
G04 #@! TD.AperFunction*
D21*
X71268498Y-67400820D02*
X71232188Y-67520518D01*
X71219928Y-67645000D01*
X71223000Y-67659250D01*
X71381750Y-67818000D01*
X72706000Y-67818000D01*
X72706000Y-67798000D01*
X72960000Y-67798000D01*
X72960000Y-67818000D01*
X74284250Y-67818000D01*
X74414941Y-67687309D01*
X76481047Y-69753416D01*
X76361518Y-69765188D01*
X76241820Y-69801498D01*
X76131506Y-69860463D01*
X76034815Y-69939815D01*
X75955463Y-70036506D01*
X75896498Y-70146820D01*
X75860188Y-70266518D01*
X75847928Y-70391000D01*
X75851000Y-70580250D01*
X76009750Y-70739000D01*
X76809000Y-70739000D01*
X76809000Y-70719000D01*
X77063000Y-70719000D01*
X77063000Y-70739000D01*
X77083000Y-70739000D01*
X77083000Y-70993000D01*
X77063000Y-70993000D01*
X77063000Y-71817250D01*
X77221750Y-71976000D01*
X77386000Y-71979072D01*
X77510482Y-71966812D01*
X77630180Y-71930502D01*
X77740494Y-71871537D01*
X77837185Y-71792185D01*
X77916537Y-71695494D01*
X77948843Y-71635055D01*
X78028389Y-71677574D01*
X78142416Y-71712163D01*
X78193000Y-71717145D01*
X78193000Y-71935002D01*
X78189947Y-71966000D01*
X78193001Y-71997008D01*
X78193001Y-72525494D01*
X78147492Y-72539299D01*
X78081304Y-72574678D01*
X78023289Y-72622289D01*
X77975678Y-72680304D01*
X77940299Y-72746492D01*
X77918513Y-72818311D01*
X77911157Y-72893000D01*
X77911157Y-73543000D01*
X77918513Y-73617689D01*
X77940299Y-73689508D01*
X77975678Y-73755696D01*
X78023289Y-73813711D01*
X78081304Y-73861322D01*
X78147492Y-73896701D01*
X78219311Y-73918487D01*
X78294000Y-73925843D01*
X79354000Y-73925843D01*
X79428689Y-73918487D01*
X79500508Y-73896701D01*
X79566696Y-73861322D01*
X79624711Y-73813711D01*
X79672322Y-73755696D01*
X79707701Y-73689508D01*
X79729487Y-73617689D01*
X79736843Y-73543000D01*
X79736843Y-72893000D01*
X79729487Y-72818311D01*
X79707701Y-72746492D01*
X79672322Y-72680304D01*
X79624711Y-72622289D01*
X79593896Y-72597000D01*
X81187756Y-72597000D01*
X81162956Y-72604523D01*
X81062190Y-72658384D01*
X80973868Y-72730868D01*
X80901384Y-72819190D01*
X80847523Y-72919956D01*
X80814356Y-73029293D01*
X80803157Y-73143000D01*
X80803157Y-73308474D01*
X79624632Y-74487000D01*
X79581711Y-74487000D01*
X79566696Y-74474678D01*
X79500508Y-74439299D01*
X79428689Y-74417513D01*
X79354000Y-74410157D01*
X78294000Y-74410157D01*
X78219311Y-74417513D01*
X78147492Y-74439299D01*
X78081304Y-74474678D01*
X78023289Y-74522289D01*
X77975678Y-74580304D01*
X77940299Y-74646492D01*
X77918513Y-74718311D01*
X77911157Y-74793000D01*
X77911157Y-75262001D01*
X77536843Y-75262001D01*
X77536843Y-75000272D01*
X77605185Y-74944185D01*
X77684537Y-74847494D01*
X77743502Y-74737180D01*
X77779812Y-74617482D01*
X77792072Y-74493000D01*
X77789000Y-74453750D01*
X77630250Y-74295000D01*
X76751000Y-74295000D01*
X76751000Y-74315000D01*
X76497000Y-74315000D01*
X76497000Y-74295000D01*
X76477000Y-74295000D01*
X76477000Y-74041000D01*
X76497000Y-74041000D01*
X76497000Y-74021000D01*
X76751000Y-74021000D01*
X76751000Y-74041000D01*
X77630250Y-74041000D01*
X77789000Y-73882250D01*
X77792072Y-73843000D01*
X77779812Y-73718518D01*
X77743502Y-73598820D01*
X77684537Y-73488506D01*
X77605185Y-73391815D01*
X77536843Y-73335728D01*
X77536843Y-72893000D01*
X77529487Y-72818311D01*
X77507701Y-72746492D01*
X77472322Y-72680304D01*
X77424711Y-72622289D01*
X77366696Y-72574678D01*
X77300508Y-72539299D01*
X77228689Y-72517513D01*
X77154000Y-72510157D01*
X76094000Y-72510157D01*
X76019311Y-72517513D01*
X75947492Y-72539299D01*
X75881304Y-72574678D01*
X75864692Y-72588311D01*
X75785300Y-72596130D01*
X75666356Y-72632211D01*
X75556737Y-72690804D01*
X75460655Y-72769657D01*
X75440893Y-72793737D01*
X75219736Y-73014894D01*
X75195656Y-73034656D01*
X75116803Y-73130739D01*
X75058210Y-73240358D01*
X75022129Y-73359302D01*
X75012999Y-73452002D01*
X75012999Y-73452009D01*
X75009947Y-73482999D01*
X75012999Y-73513989D01*
X75013000Y-78300884D01*
X73934884Y-79379000D01*
X65108358Y-79379000D01*
X65123324Y-79371000D01*
X65818010Y-79371000D01*
X65849000Y-79374052D01*
X65879990Y-79371000D01*
X65879998Y-79371000D01*
X65972698Y-79361870D01*
X66091642Y-79325789D01*
X66201261Y-79267196D01*
X66297343Y-79188343D01*
X66317105Y-79164263D01*
X66911526Y-78569843D01*
X67077000Y-78569843D01*
X67190707Y-78558644D01*
X67300044Y-78525477D01*
X67400810Y-78471616D01*
X67466141Y-78418000D01*
X68713973Y-78418000D01*
X68744963Y-78421052D01*
X68775953Y-78418000D01*
X68775961Y-78418000D01*
X68868661Y-78408870D01*
X68987605Y-78372789D01*
X69097224Y-78314196D01*
X69193306Y-78235343D01*
X69213068Y-78211263D01*
X74682279Y-72742053D01*
X74706353Y-72722296D01*
X74733442Y-72689289D01*
X74785206Y-72626214D01*
X74843799Y-72516595D01*
X74879880Y-72397651D01*
X74880959Y-72386697D01*
X74889010Y-72304951D01*
X74889010Y-72304944D01*
X74892062Y-72273953D01*
X74889010Y-72242963D01*
X74889010Y-71341000D01*
X75847928Y-71341000D01*
X75860188Y-71465482D01*
X75896498Y-71585180D01*
X75955463Y-71695494D01*
X76034815Y-71792185D01*
X76131506Y-71871537D01*
X76241820Y-71930502D01*
X76361518Y-71966812D01*
X76486000Y-71979072D01*
X76650250Y-71976000D01*
X76809000Y-71817250D01*
X76809000Y-70993000D01*
X76009750Y-70993000D01*
X75851000Y-71151750D01*
X75847928Y-71341000D01*
X74889010Y-71341000D01*
X74889010Y-69695997D01*
X74892062Y-69665009D01*
X74889010Y-69634021D01*
X74889010Y-69634012D01*
X74879880Y-69541312D01*
X74843799Y-69422368D01*
X74785206Y-69312749D01*
X74755841Y-69276968D01*
X74726113Y-69240744D01*
X74726111Y-69240742D01*
X74706353Y-69216667D01*
X74682278Y-69196909D01*
X74276105Y-68790737D01*
X74256343Y-68766657D01*
X74214829Y-68732587D01*
X74259185Y-68696185D01*
X74338537Y-68599494D01*
X74397502Y-68489180D01*
X74433812Y-68369482D01*
X74446072Y-68245000D01*
X74443000Y-68230750D01*
X74284250Y-68072000D01*
X72960000Y-68072000D01*
X72960000Y-68092000D01*
X72706000Y-68092000D01*
X72706000Y-68072000D01*
X71381750Y-68072000D01*
X71223000Y-68230750D01*
X71219928Y-68245000D01*
X71232188Y-68369482D01*
X71268498Y-68489180D01*
X71319181Y-68584000D01*
X70696501Y-68584000D01*
X70710642Y-68569859D01*
X70796113Y-68441942D01*
X70854987Y-68299809D01*
X70885000Y-68148922D01*
X70885000Y-67995078D01*
X70854987Y-67844191D01*
X70796113Y-67702058D01*
X70710642Y-67574141D01*
X70601859Y-67465358D01*
X70473942Y-67379887D01*
X70331809Y-67321013D01*
X70200981Y-67294990D01*
X71325066Y-67294990D01*
X71268498Y-67400820D01*
G04 #@! TA.AperFunction,Conductor*
D22*
G36*
X71268498Y-67400820D02*
G01*
X71232188Y-67520518D01*
X71219928Y-67645000D01*
X71223000Y-67659250D01*
X71381750Y-67818000D01*
X72706000Y-67818000D01*
X72706000Y-67798000D01*
X72960000Y-67798000D01*
X72960000Y-67818000D01*
X74284250Y-67818000D01*
X74414941Y-67687309D01*
X76481047Y-69753416D01*
X76361518Y-69765188D01*
X76241820Y-69801498D01*
X76131506Y-69860463D01*
X76034815Y-69939815D01*
X75955463Y-70036506D01*
X75896498Y-70146820D01*
X75860188Y-70266518D01*
X75847928Y-70391000D01*
X75851000Y-70580250D01*
X76009750Y-70739000D01*
X76809000Y-70739000D01*
X76809000Y-70719000D01*
X77063000Y-70719000D01*
X77063000Y-70739000D01*
X77083000Y-70739000D01*
X77083000Y-70993000D01*
X77063000Y-70993000D01*
X77063000Y-71817250D01*
X77221750Y-71976000D01*
X77386000Y-71979072D01*
X77510482Y-71966812D01*
X77630180Y-71930502D01*
X77740494Y-71871537D01*
X77837185Y-71792185D01*
X77916537Y-71695494D01*
X77948843Y-71635055D01*
X78028389Y-71677574D01*
X78142416Y-71712163D01*
X78193000Y-71717145D01*
X78193000Y-71935002D01*
X78189947Y-71966000D01*
X78193001Y-71997008D01*
X78193001Y-72525494D01*
X78147492Y-72539299D01*
X78081304Y-72574678D01*
X78023289Y-72622289D01*
X77975678Y-72680304D01*
X77940299Y-72746492D01*
X77918513Y-72818311D01*
X77911157Y-72893000D01*
X77911157Y-73543000D01*
X77918513Y-73617689D01*
X77940299Y-73689508D01*
X77975678Y-73755696D01*
X78023289Y-73813711D01*
X78081304Y-73861322D01*
X78147492Y-73896701D01*
X78219311Y-73918487D01*
X78294000Y-73925843D01*
X79354000Y-73925843D01*
X79428689Y-73918487D01*
X79500508Y-73896701D01*
X79566696Y-73861322D01*
X79624711Y-73813711D01*
X79672322Y-73755696D01*
X79707701Y-73689508D01*
X79729487Y-73617689D01*
X79736843Y-73543000D01*
X79736843Y-72893000D01*
X79729487Y-72818311D01*
X79707701Y-72746492D01*
X79672322Y-72680304D01*
X79624711Y-72622289D01*
X79593896Y-72597000D01*
X81187756Y-72597000D01*
X81162956Y-72604523D01*
X81062190Y-72658384D01*
X80973868Y-72730868D01*
X80901384Y-72819190D01*
X80847523Y-72919956D01*
X80814356Y-73029293D01*
X80803157Y-73143000D01*
X80803157Y-73308474D01*
X79624632Y-74487000D01*
X79581711Y-74487000D01*
X79566696Y-74474678D01*
X79500508Y-74439299D01*
X79428689Y-74417513D01*
X79354000Y-74410157D01*
X78294000Y-74410157D01*
X78219311Y-74417513D01*
X78147492Y-74439299D01*
X78081304Y-74474678D01*
X78023289Y-74522289D01*
X77975678Y-74580304D01*
X77940299Y-74646492D01*
X77918513Y-74718311D01*
X77911157Y-74793000D01*
X77911157Y-75262001D01*
X77536843Y-75262001D01*
X77536843Y-75000272D01*
X77605185Y-74944185D01*
X77684537Y-74847494D01*
X77743502Y-74737180D01*
X77779812Y-74617482D01*
X77792072Y-74493000D01*
X77789000Y-74453750D01*
X77630250Y-74295000D01*
X76751000Y-74295000D01*
X76751000Y-74315000D01*
X76497000Y-74315000D01*
X76497000Y-74295000D01*
X76477000Y-74295000D01*
X76477000Y-74041000D01*
X76497000Y-74041000D01*
X76497000Y-74021000D01*
X76751000Y-74021000D01*
X76751000Y-74041000D01*
X77630250Y-74041000D01*
X77789000Y-73882250D01*
X77792072Y-73843000D01*
X77779812Y-73718518D01*
X77743502Y-73598820D01*
X77684537Y-73488506D01*
X77605185Y-73391815D01*
X77536843Y-73335728D01*
X77536843Y-72893000D01*
X77529487Y-72818311D01*
X77507701Y-72746492D01*
X77472322Y-72680304D01*
X77424711Y-72622289D01*
X77366696Y-72574678D01*
X77300508Y-72539299D01*
X77228689Y-72517513D01*
X77154000Y-72510157D01*
X76094000Y-72510157D01*
X76019311Y-72517513D01*
X75947492Y-72539299D01*
X75881304Y-72574678D01*
X75864692Y-72588311D01*
X75785300Y-72596130D01*
X75666356Y-72632211D01*
X75556737Y-72690804D01*
X75460655Y-72769657D01*
X75440893Y-72793737D01*
X75219736Y-73014894D01*
X75195656Y-73034656D01*
X75116803Y-73130739D01*
X75058210Y-73240358D01*
X75022129Y-73359302D01*
X75012999Y-73452002D01*
X75012999Y-73452009D01*
X75009947Y-73482999D01*
X75012999Y-73513989D01*
X75013000Y-78300884D01*
X73934884Y-79379000D01*
X65108358Y-79379000D01*
X65123324Y-79371000D01*
X65818010Y-79371000D01*
X65849000Y-79374052D01*
X65879990Y-79371000D01*
X65879998Y-79371000D01*
X65972698Y-79361870D01*
X66091642Y-79325789D01*
X66201261Y-79267196D01*
X66297343Y-79188343D01*
X66317105Y-79164263D01*
X66911526Y-78569843D01*
X67077000Y-78569843D01*
X67190707Y-78558644D01*
X67300044Y-78525477D01*
X67400810Y-78471616D01*
X67466141Y-78418000D01*
X68713973Y-78418000D01*
X68744963Y-78421052D01*
X68775953Y-78418000D01*
X68775961Y-78418000D01*
X68868661Y-78408870D01*
X68987605Y-78372789D01*
X69097224Y-78314196D01*
X69193306Y-78235343D01*
X69213068Y-78211263D01*
X74682279Y-72742053D01*
X74706353Y-72722296D01*
X74733442Y-72689289D01*
X74785206Y-72626214D01*
X74843799Y-72516595D01*
X74879880Y-72397651D01*
X74880959Y-72386697D01*
X74889010Y-72304951D01*
X74889010Y-72304944D01*
X74892062Y-72273953D01*
X74889010Y-72242963D01*
X74889010Y-71341000D01*
X75847928Y-71341000D01*
X75860188Y-71465482D01*
X75896498Y-71585180D01*
X75955463Y-71695494D01*
X76034815Y-71792185D01*
X76131506Y-71871537D01*
X76241820Y-71930502D01*
X76361518Y-71966812D01*
X76486000Y-71979072D01*
X76650250Y-71976000D01*
X76809000Y-71817250D01*
X76809000Y-70993000D01*
X76009750Y-70993000D01*
X75851000Y-71151750D01*
X75847928Y-71341000D01*
X74889010Y-71341000D01*
X74889010Y-69695997D01*
X74892062Y-69665009D01*
X74889010Y-69634021D01*
X74889010Y-69634012D01*
X74879880Y-69541312D01*
X74843799Y-69422368D01*
X74785206Y-69312749D01*
X74755841Y-69276968D01*
X74726113Y-69240744D01*
X74726111Y-69240742D01*
X74706353Y-69216667D01*
X74682278Y-69196909D01*
X74276105Y-68790737D01*
X74256343Y-68766657D01*
X74214829Y-68732587D01*
X74259185Y-68696185D01*
X74338537Y-68599494D01*
X74397502Y-68489180D01*
X74433812Y-68369482D01*
X74446072Y-68245000D01*
X74443000Y-68230750D01*
X74284250Y-68072000D01*
X72960000Y-68072000D01*
X72960000Y-68092000D01*
X72706000Y-68092000D01*
X72706000Y-68072000D01*
X71381750Y-68072000D01*
X71223000Y-68230750D01*
X71219928Y-68245000D01*
X71232188Y-68369482D01*
X71268498Y-68489180D01*
X71319181Y-68584000D01*
X70696501Y-68584000D01*
X70710642Y-68569859D01*
X70796113Y-68441942D01*
X70854987Y-68299809D01*
X70885000Y-68148922D01*
X70885000Y-67995078D01*
X70854987Y-67844191D01*
X70796113Y-67702058D01*
X70710642Y-67574141D01*
X70601859Y-67465358D01*
X70473942Y-67379887D01*
X70331809Y-67321013D01*
X70200981Y-67294990D01*
X71325066Y-67294990D01*
X71268498Y-67400820D01*
G37*
G04 #@! TD.AperFunction*
D21*
X109502358Y-74813141D02*
X109416887Y-74941058D01*
X109358013Y-75083191D01*
X109328000Y-75234078D01*
X109328000Y-75387922D01*
X109358013Y-75538809D01*
X109416887Y-75680942D01*
X109502358Y-75808859D01*
X109611141Y-75917642D01*
X109739058Y-76003113D01*
X109881191Y-76061987D01*
X109989079Y-76083447D01*
X111557131Y-77651500D01*
X110705632Y-78503000D01*
X110505477Y-78503000D01*
X110527185Y-78485185D01*
X110606537Y-78388494D01*
X110665502Y-78278180D01*
X110701812Y-78158482D01*
X110714072Y-78034000D01*
X110711000Y-77869750D01*
X110552250Y-77711000D01*
X109728000Y-77711000D01*
X109728000Y-77731000D01*
X109474000Y-77731000D01*
X109474000Y-77711000D01*
X109454000Y-77711000D01*
X109454000Y-77457000D01*
X109474000Y-77457000D01*
X109474000Y-76657750D01*
X109728000Y-76657750D01*
X109728000Y-77457000D01*
X110552250Y-77457000D01*
X110711000Y-77298250D01*
X110714072Y-77134000D01*
X110701812Y-77009518D01*
X110665502Y-76889820D01*
X110606537Y-76779506D01*
X110527185Y-76682815D01*
X110430494Y-76603463D01*
X110320180Y-76544498D01*
X110200482Y-76508188D01*
X110076000Y-76495928D01*
X109886750Y-76499000D01*
X109728000Y-76657750D01*
X109474000Y-76657750D01*
X109315250Y-76499000D01*
X109126000Y-76495928D01*
X109001518Y-76508188D01*
X108881820Y-76544498D01*
X108771506Y-76603463D01*
X108674815Y-76682815D01*
X108595463Y-76779506D01*
X108536498Y-76889820D01*
X108500188Y-77009518D01*
X108487928Y-77134000D01*
X108491000Y-77298250D01*
X108649748Y-77456998D01*
X108576397Y-77456998D01*
X108561353Y-77438667D01*
X108537278Y-77418909D01*
X108045843Y-76927475D01*
X108045843Y-76762000D01*
X108034644Y-76648293D01*
X108001477Y-76538956D01*
X107947616Y-76438190D01*
X107875132Y-76349868D01*
X107819000Y-76303802D01*
X107819000Y-75699368D01*
X108719369Y-74799000D01*
X109516499Y-74799000D01*
X109502358Y-74813141D01*
G04 #@! TA.AperFunction,Conductor*
D22*
G36*
X109502358Y-74813141D02*
G01*
X109416887Y-74941058D01*
X109358013Y-75083191D01*
X109328000Y-75234078D01*
X109328000Y-75387922D01*
X109358013Y-75538809D01*
X109416887Y-75680942D01*
X109502358Y-75808859D01*
X109611141Y-75917642D01*
X109739058Y-76003113D01*
X109881191Y-76061987D01*
X109989079Y-76083447D01*
X111557131Y-77651500D01*
X110705632Y-78503000D01*
X110505477Y-78503000D01*
X110527185Y-78485185D01*
X110606537Y-78388494D01*
X110665502Y-78278180D01*
X110701812Y-78158482D01*
X110714072Y-78034000D01*
X110711000Y-77869750D01*
X110552250Y-77711000D01*
X109728000Y-77711000D01*
X109728000Y-77731000D01*
X109474000Y-77731000D01*
X109474000Y-77711000D01*
X109454000Y-77711000D01*
X109454000Y-77457000D01*
X109474000Y-77457000D01*
X109474000Y-76657750D01*
X109728000Y-76657750D01*
X109728000Y-77457000D01*
X110552250Y-77457000D01*
X110711000Y-77298250D01*
X110714072Y-77134000D01*
X110701812Y-77009518D01*
X110665502Y-76889820D01*
X110606537Y-76779506D01*
X110527185Y-76682815D01*
X110430494Y-76603463D01*
X110320180Y-76544498D01*
X110200482Y-76508188D01*
X110076000Y-76495928D01*
X109886750Y-76499000D01*
X109728000Y-76657750D01*
X109474000Y-76657750D01*
X109315250Y-76499000D01*
X109126000Y-76495928D01*
X109001518Y-76508188D01*
X108881820Y-76544498D01*
X108771506Y-76603463D01*
X108674815Y-76682815D01*
X108595463Y-76779506D01*
X108536498Y-76889820D01*
X108500188Y-77009518D01*
X108487928Y-77134000D01*
X108491000Y-77298250D01*
X108649748Y-77456998D01*
X108576397Y-77456998D01*
X108561353Y-77438667D01*
X108537278Y-77418909D01*
X108045843Y-76927475D01*
X108045843Y-76762000D01*
X108034644Y-76648293D01*
X108001477Y-76538956D01*
X107947616Y-76438190D01*
X107875132Y-76349868D01*
X107819000Y-76303802D01*
X107819000Y-75699368D01*
X108719369Y-74799000D01*
X109516499Y-74799000D01*
X109502358Y-74813141D01*
G37*
G04 #@! TD.AperFunction*
D21*
X96397001Y-69095370D02*
X96397000Y-70933133D01*
X96348190Y-70973190D01*
X96272597Y-71065301D01*
X96216426Y-71170389D01*
X96181837Y-71284416D01*
X96170157Y-71403000D01*
X96170157Y-71853000D01*
X96181837Y-71971584D01*
X96216426Y-72085611D01*
X96258945Y-72165157D01*
X96198506Y-72197463D01*
X96126943Y-72256193D01*
X96125870Y-72245302D01*
X96089789Y-72126358D01*
X96031196Y-72016739D01*
X96002644Y-71981948D01*
X95972103Y-71944734D01*
X95972101Y-71944732D01*
X95952343Y-71920657D01*
X95928269Y-71900900D01*
X94596105Y-70568737D01*
X94576343Y-70544657D01*
X94534829Y-70510587D01*
X94579185Y-70474185D01*
X94658537Y-70377494D01*
X94717502Y-70267180D01*
X94753812Y-70147482D01*
X94766072Y-70023000D01*
X94763000Y-70008750D01*
X94604250Y-69850000D01*
X93280000Y-69850000D01*
X93280000Y-69870000D01*
X93026000Y-69870000D01*
X93026000Y-69850000D01*
X91701750Y-69850000D01*
X91543000Y-70008750D01*
X91539928Y-70023000D01*
X91552188Y-70147482D01*
X91588498Y-70267180D01*
X91639181Y-70362000D01*
X91016501Y-70362000D01*
X91030642Y-70347859D01*
X91116113Y-70219942D01*
X91174987Y-70077809D01*
X91205000Y-69926922D01*
X91205000Y-69773078D01*
X91174987Y-69622191D01*
X91116113Y-69480058D01*
X91077989Y-69423000D01*
X91539928Y-69423000D01*
X91543000Y-69437250D01*
X91701750Y-69596000D01*
X93026000Y-69596000D01*
X93026000Y-68946750D01*
X93280000Y-68946750D01*
X93280000Y-69596000D01*
X94604250Y-69596000D01*
X94763000Y-69437250D01*
X94766072Y-69423000D01*
X94753812Y-69298518D01*
X94717502Y-69178820D01*
X94658537Y-69068506D01*
X94579185Y-68971815D01*
X94482494Y-68892463D01*
X94372180Y-68833498D01*
X94252482Y-68797188D01*
X94128000Y-68784928D01*
X93438750Y-68788000D01*
X93280000Y-68946750D01*
X93026000Y-68946750D01*
X92867250Y-68788000D01*
X92178000Y-68784928D01*
X92053518Y-68797188D01*
X91933820Y-68833498D01*
X91823506Y-68892463D01*
X91726815Y-68971815D01*
X91647463Y-69068506D01*
X91588498Y-69178820D01*
X91552188Y-69298518D01*
X91539928Y-69423000D01*
X91077989Y-69423000D01*
X91030642Y-69352141D01*
X90921859Y-69243358D01*
X90793942Y-69157887D01*
X90651809Y-69099013D01*
X90500922Y-69069000D01*
X90347078Y-69069000D01*
X90196191Y-69099013D01*
X90054058Y-69157887D01*
X89962595Y-69219000D01*
X89423470Y-69219000D01*
X89404777Y-69196223D01*
X89324032Y-69129957D01*
X89231910Y-69080717D01*
X89131953Y-69050395D01*
X89028000Y-69040157D01*
X87378000Y-69040157D01*
X87274047Y-69050395D01*
X87245000Y-69059206D01*
X87245000Y-68587368D01*
X87637369Y-68195000D01*
X89208133Y-68195000D01*
X89248190Y-68243810D01*
X89340301Y-68319403D01*
X89445389Y-68375574D01*
X89559416Y-68410163D01*
X89678000Y-68421843D01*
X90128000Y-68421843D01*
X90246584Y-68410163D01*
X90360611Y-68375574D01*
X90440157Y-68333055D01*
X90472463Y-68393494D01*
X90551815Y-68490185D01*
X90648506Y-68569537D01*
X90758820Y-68628502D01*
X90878518Y-68664812D01*
X91003000Y-68677072D01*
X91167250Y-68674000D01*
X91326000Y-68515250D01*
X91326000Y-67691000D01*
X91580000Y-67691000D01*
X91580000Y-68515250D01*
X91738750Y-68674000D01*
X91903000Y-68677072D01*
X92027482Y-68664812D01*
X92147180Y-68628502D01*
X92257494Y-68569537D01*
X92354185Y-68490185D01*
X92433537Y-68393494D01*
X92492502Y-68283180D01*
X92528812Y-68163482D01*
X92541072Y-68039000D01*
X92538000Y-67849750D01*
X92379250Y-67691000D01*
X91580000Y-67691000D01*
X91326000Y-67691000D01*
X91306000Y-67691000D01*
X91306000Y-67437000D01*
X91326000Y-67437000D01*
X91326000Y-67417000D01*
X91580000Y-67417000D01*
X91580000Y-67437000D01*
X92379250Y-67437000D01*
X92538000Y-67278250D01*
X92538134Y-67269990D01*
X94571622Y-67269990D01*
X96397001Y-69095370D01*
G04 #@! TA.AperFunction,Conductor*
D22*
G36*
X96397001Y-69095370D02*
G01*
X96397000Y-70933133D01*
X96348190Y-70973190D01*
X96272597Y-71065301D01*
X96216426Y-71170389D01*
X96181837Y-71284416D01*
X96170157Y-71403000D01*
X96170157Y-71853000D01*
X96181837Y-71971584D01*
X96216426Y-72085611D01*
X96258945Y-72165157D01*
X96198506Y-72197463D01*
X96126943Y-72256193D01*
X96125870Y-72245302D01*
X96089789Y-72126358D01*
X96031196Y-72016739D01*
X96002644Y-71981948D01*
X95972103Y-71944734D01*
X95972101Y-71944732D01*
X95952343Y-71920657D01*
X95928269Y-71900900D01*
X94596105Y-70568737D01*
X94576343Y-70544657D01*
X94534829Y-70510587D01*
X94579185Y-70474185D01*
X94658537Y-70377494D01*
X94717502Y-70267180D01*
X94753812Y-70147482D01*
X94766072Y-70023000D01*
X94763000Y-70008750D01*
X94604250Y-69850000D01*
X93280000Y-69850000D01*
X93280000Y-69870000D01*
X93026000Y-69870000D01*
X93026000Y-69850000D01*
X91701750Y-69850000D01*
X91543000Y-70008750D01*
X91539928Y-70023000D01*
X91552188Y-70147482D01*
X91588498Y-70267180D01*
X91639181Y-70362000D01*
X91016501Y-70362000D01*
X91030642Y-70347859D01*
X91116113Y-70219942D01*
X91174987Y-70077809D01*
X91205000Y-69926922D01*
X91205000Y-69773078D01*
X91174987Y-69622191D01*
X91116113Y-69480058D01*
X91077989Y-69423000D01*
X91539928Y-69423000D01*
X91543000Y-69437250D01*
X91701750Y-69596000D01*
X93026000Y-69596000D01*
X93026000Y-68946750D01*
X93280000Y-68946750D01*
X93280000Y-69596000D01*
X94604250Y-69596000D01*
X94763000Y-69437250D01*
X94766072Y-69423000D01*
X94753812Y-69298518D01*
X94717502Y-69178820D01*
X94658537Y-69068506D01*
X94579185Y-68971815D01*
X94482494Y-68892463D01*
X94372180Y-68833498D01*
X94252482Y-68797188D01*
X94128000Y-68784928D01*
X93438750Y-68788000D01*
X93280000Y-68946750D01*
X93026000Y-68946750D01*
X92867250Y-68788000D01*
X92178000Y-68784928D01*
X92053518Y-68797188D01*
X91933820Y-68833498D01*
X91823506Y-68892463D01*
X91726815Y-68971815D01*
X91647463Y-69068506D01*
X91588498Y-69178820D01*
X91552188Y-69298518D01*
X91539928Y-69423000D01*
X91077989Y-69423000D01*
X91030642Y-69352141D01*
X90921859Y-69243358D01*
X90793942Y-69157887D01*
X90651809Y-69099013D01*
X90500922Y-69069000D01*
X90347078Y-69069000D01*
X90196191Y-69099013D01*
X90054058Y-69157887D01*
X89962595Y-69219000D01*
X89423470Y-69219000D01*
X89404777Y-69196223D01*
X89324032Y-69129957D01*
X89231910Y-69080717D01*
X89131953Y-69050395D01*
X89028000Y-69040157D01*
X87378000Y-69040157D01*
X87274047Y-69050395D01*
X87245000Y-69059206D01*
X87245000Y-68587368D01*
X87637369Y-68195000D01*
X89208133Y-68195000D01*
X89248190Y-68243810D01*
X89340301Y-68319403D01*
X89445389Y-68375574D01*
X89559416Y-68410163D01*
X89678000Y-68421843D01*
X90128000Y-68421843D01*
X90246584Y-68410163D01*
X90360611Y-68375574D01*
X90440157Y-68333055D01*
X90472463Y-68393494D01*
X90551815Y-68490185D01*
X90648506Y-68569537D01*
X90758820Y-68628502D01*
X90878518Y-68664812D01*
X91003000Y-68677072D01*
X91167250Y-68674000D01*
X91326000Y-68515250D01*
X91326000Y-67691000D01*
X91580000Y-67691000D01*
X91580000Y-68515250D01*
X91738750Y-68674000D01*
X91903000Y-68677072D01*
X92027482Y-68664812D01*
X92147180Y-68628502D01*
X92257494Y-68569537D01*
X92354185Y-68490185D01*
X92433537Y-68393494D01*
X92492502Y-68283180D01*
X92528812Y-68163482D01*
X92541072Y-68039000D01*
X92538000Y-67849750D01*
X92379250Y-67691000D01*
X91580000Y-67691000D01*
X91326000Y-67691000D01*
X91306000Y-67691000D01*
X91306000Y-67437000D01*
X91326000Y-67437000D01*
X91326000Y-67417000D01*
X91580000Y-67417000D01*
X91580000Y-67437000D01*
X92379250Y-67437000D01*
X92538000Y-67278250D01*
X92538134Y-67269990D01*
X94571622Y-67269990D01*
X96397001Y-69095370D01*
G37*
G04 #@! TD.AperFunction*
D21*
X80598492Y-66310299D02*
X80532304Y-66345678D01*
X80474289Y-66393289D01*
X80426678Y-66451304D01*
X80391299Y-66517492D01*
X80369513Y-66589311D01*
X80362157Y-66664000D01*
X80362157Y-68464000D01*
X80369513Y-68538689D01*
X80391299Y-68610508D01*
X80426678Y-68676696D01*
X80474289Y-68734711D01*
X80532304Y-68782322D01*
X80598492Y-68817701D01*
X80670311Y-68839487D01*
X80745000Y-68846843D01*
X81815000Y-68846843D01*
X81889689Y-68839487D01*
X81961508Y-68817701D01*
X82027696Y-68782322D01*
X82085711Y-68734711D01*
X82094403Y-68724119D01*
X82197767Y-68779368D01*
X82370434Y-68831746D01*
X82550000Y-68849432D01*
X82729567Y-68831746D01*
X82902234Y-68779368D01*
X82974820Y-68740570D01*
X83082487Y-68846117D01*
X83275579Y-68972377D01*
X83512617Y-69057900D01*
X83693000Y-68932244D01*
X83693000Y-67691000D01*
X83673000Y-67691000D01*
X83673000Y-67437000D01*
X83693000Y-67437000D01*
X83693000Y-67417000D01*
X83947000Y-67417000D01*
X83947000Y-67437000D01*
X83967000Y-67437000D01*
X83967000Y-67691000D01*
X83947000Y-67691000D01*
X83947000Y-68932244D01*
X84127383Y-69057900D01*
X84364421Y-68972377D01*
X84557513Y-68846117D01*
X84665181Y-68740570D01*
X84737767Y-68779368D01*
X84910434Y-68831746D01*
X85090000Y-68849432D01*
X85269567Y-68831746D01*
X85442234Y-68779368D01*
X85601365Y-68694311D01*
X85740844Y-68579844D01*
X85855311Y-68440365D01*
X85940368Y-68281234D01*
X85992746Y-68108567D01*
X86006000Y-67973998D01*
X86006000Y-67154002D01*
X85992746Y-67019433D01*
X85940368Y-66846766D01*
X85855311Y-66687635D01*
X85740844Y-66548156D01*
X85601364Y-66433689D01*
X85442233Y-66348632D01*
X85301734Y-66306012D01*
X89773619Y-66306012D01*
X89478737Y-66600895D01*
X89454657Y-66620657D01*
X89375804Y-66716740D01*
X89317211Y-66826359D01*
X89316731Y-66827940D01*
X89248190Y-66884190D01*
X89208133Y-66933000D01*
X87406990Y-66933000D01*
X87376000Y-66929948D01*
X87345009Y-66933000D01*
X87345002Y-66933000D01*
X87252302Y-66942130D01*
X87133358Y-66978211D01*
X87023739Y-67036804D01*
X86962170Y-67087333D01*
X86927657Y-67115657D01*
X86907899Y-67139732D01*
X86189737Y-67857895D01*
X86165657Y-67877657D01*
X86086804Y-67973740D01*
X86028211Y-68083359D01*
X85992130Y-68202303D01*
X85983000Y-68295003D01*
X85983000Y-68295010D01*
X85979948Y-68326000D01*
X85983000Y-68356990D01*
X85983001Y-71335000D01*
X79455000Y-71335000D01*
X79455000Y-71234987D01*
X79458052Y-71203999D01*
X79455000Y-71173011D01*
X79455000Y-71173002D01*
X79445870Y-71080302D01*
X79409789Y-70961358D01*
X79351196Y-70851739D01*
X79318843Y-70812317D01*
X79318843Y-70616000D01*
X79307163Y-70497416D01*
X79272574Y-70383389D01*
X79216403Y-70278301D01*
X79140810Y-70186190D01*
X79048699Y-70110597D01*
X78943611Y-70054426D01*
X78829584Y-70019837D01*
X78711000Y-70008157D01*
X78520526Y-70008157D01*
X74818380Y-66306012D01*
X80612624Y-66306012D01*
X80598492Y-66310299D01*
G04 #@! TA.AperFunction,Conductor*
D22*
G36*
X80598492Y-66310299D02*
G01*
X80532304Y-66345678D01*
X80474289Y-66393289D01*
X80426678Y-66451304D01*
X80391299Y-66517492D01*
X80369513Y-66589311D01*
X80362157Y-66664000D01*
X80362157Y-68464000D01*
X80369513Y-68538689D01*
X80391299Y-68610508D01*
X80426678Y-68676696D01*
X80474289Y-68734711D01*
X80532304Y-68782322D01*
X80598492Y-68817701D01*
X80670311Y-68839487D01*
X80745000Y-68846843D01*
X81815000Y-68846843D01*
X81889689Y-68839487D01*
X81961508Y-68817701D01*
X82027696Y-68782322D01*
X82085711Y-68734711D01*
X82094403Y-68724119D01*
X82197767Y-68779368D01*
X82370434Y-68831746D01*
X82550000Y-68849432D01*
X82729567Y-68831746D01*
X82902234Y-68779368D01*
X82974820Y-68740570D01*
X83082487Y-68846117D01*
X83275579Y-68972377D01*
X83512617Y-69057900D01*
X83693000Y-68932244D01*
X83693000Y-67691000D01*
X83673000Y-67691000D01*
X83673000Y-67437000D01*
X83693000Y-67437000D01*
X83693000Y-67417000D01*
X83947000Y-67417000D01*
X83947000Y-67437000D01*
X83967000Y-67437000D01*
X83967000Y-67691000D01*
X83947000Y-67691000D01*
X83947000Y-68932244D01*
X84127383Y-69057900D01*
X84364421Y-68972377D01*
X84557513Y-68846117D01*
X84665181Y-68740570D01*
X84737767Y-68779368D01*
X84910434Y-68831746D01*
X85090000Y-68849432D01*
X85269567Y-68831746D01*
X85442234Y-68779368D01*
X85601365Y-68694311D01*
X85740844Y-68579844D01*
X85855311Y-68440365D01*
X85940368Y-68281234D01*
X85992746Y-68108567D01*
X86006000Y-67973998D01*
X86006000Y-67154002D01*
X85992746Y-67019433D01*
X85940368Y-66846766D01*
X85855311Y-66687635D01*
X85740844Y-66548156D01*
X85601364Y-66433689D01*
X85442233Y-66348632D01*
X85301734Y-66306012D01*
X89773619Y-66306012D01*
X89478737Y-66600895D01*
X89454657Y-66620657D01*
X89375804Y-66716740D01*
X89317211Y-66826359D01*
X89316731Y-66827940D01*
X89248190Y-66884190D01*
X89208133Y-66933000D01*
X87406990Y-66933000D01*
X87376000Y-66929948D01*
X87345009Y-66933000D01*
X87345002Y-66933000D01*
X87252302Y-66942130D01*
X87133358Y-66978211D01*
X87023739Y-67036804D01*
X86962170Y-67087333D01*
X86927657Y-67115657D01*
X86907899Y-67139732D01*
X86189737Y-67857895D01*
X86165657Y-67877657D01*
X86086804Y-67973740D01*
X86028211Y-68083359D01*
X85992130Y-68202303D01*
X85983000Y-68295003D01*
X85983000Y-68295010D01*
X85979948Y-68326000D01*
X85983000Y-68356990D01*
X85983001Y-71335000D01*
X79455000Y-71335000D01*
X79455000Y-71234987D01*
X79458052Y-71203999D01*
X79455000Y-71173011D01*
X79455000Y-71173002D01*
X79445870Y-71080302D01*
X79409789Y-70961358D01*
X79351196Y-70851739D01*
X79318843Y-70812317D01*
X79318843Y-70616000D01*
X79307163Y-70497416D01*
X79272574Y-70383389D01*
X79216403Y-70278301D01*
X79140810Y-70186190D01*
X79048699Y-70110597D01*
X78943611Y-70054426D01*
X78829584Y-70019837D01*
X78711000Y-70008157D01*
X78520526Y-70008157D01*
X74818380Y-66306012D01*
X80612624Y-66306012D01*
X80598492Y-66310299D01*
G37*
G04 #@! TD.AperFunction*
D21*
X66854090Y-67302717D02*
X66761968Y-67351957D01*
X66681223Y-67418223D01*
X66614957Y-67498968D01*
X66565717Y-67591090D01*
X66535395Y-67691047D01*
X66525157Y-67795000D01*
X66525157Y-68095000D01*
X66535395Y-68198953D01*
X66565717Y-68298910D01*
X66614957Y-68391032D01*
X66681223Y-68471777D01*
X66761968Y-68538043D01*
X66840464Y-68580000D01*
X66761968Y-68621957D01*
X66681223Y-68688223D01*
X66614957Y-68768968D01*
X66565717Y-68861090D01*
X66535395Y-68961047D01*
X66525157Y-69065000D01*
X66525157Y-69365000D01*
X66535395Y-69468953D01*
X66565717Y-69568910D01*
X66614957Y-69661032D01*
X66681223Y-69741777D01*
X66761968Y-69808043D01*
X66840464Y-69850000D01*
X66761968Y-69891957D01*
X66681223Y-69958223D01*
X66614957Y-70038968D01*
X66565717Y-70131090D01*
X66535395Y-70231047D01*
X66525157Y-70335000D01*
X66525157Y-70635000D01*
X66535395Y-70738953D01*
X66565717Y-70838910D01*
X66614957Y-70931032D01*
X66681223Y-71011777D01*
X66761968Y-71078043D01*
X66840464Y-71120000D01*
X66832981Y-71124000D01*
X66682369Y-71124000D01*
X65086702Y-69528334D01*
X65108163Y-69457584D01*
X65119843Y-69339000D01*
X65119843Y-68889000D01*
X65108163Y-68770416D01*
X65073574Y-68656389D01*
X65031055Y-68576843D01*
X65091494Y-68544537D01*
X65188185Y-68465185D01*
X65267537Y-68368494D01*
X65326502Y-68258180D01*
X65362812Y-68138482D01*
X65375072Y-68014000D01*
X65372000Y-67849750D01*
X65213250Y-67691000D01*
X64389000Y-67691000D01*
X64389000Y-67711000D01*
X64135000Y-67711000D01*
X64135000Y-67691000D01*
X64115000Y-67691000D01*
X64115000Y-67437000D01*
X64135000Y-67437000D01*
X64135000Y-67417000D01*
X64389000Y-67417000D01*
X64389000Y-67437000D01*
X65213250Y-67437000D01*
X65355260Y-67294990D01*
X66879562Y-67294990D01*
X66854090Y-67302717D01*
G04 #@! TA.AperFunction,Conductor*
D22*
G36*
X66854090Y-67302717D02*
G01*
X66761968Y-67351957D01*
X66681223Y-67418223D01*
X66614957Y-67498968D01*
X66565717Y-67591090D01*
X66535395Y-67691047D01*
X66525157Y-67795000D01*
X66525157Y-68095000D01*
X66535395Y-68198953D01*
X66565717Y-68298910D01*
X66614957Y-68391032D01*
X66681223Y-68471777D01*
X66761968Y-68538043D01*
X66840464Y-68580000D01*
X66761968Y-68621957D01*
X66681223Y-68688223D01*
X66614957Y-68768968D01*
X66565717Y-68861090D01*
X66535395Y-68961047D01*
X66525157Y-69065000D01*
X66525157Y-69365000D01*
X66535395Y-69468953D01*
X66565717Y-69568910D01*
X66614957Y-69661032D01*
X66681223Y-69741777D01*
X66761968Y-69808043D01*
X66840464Y-69850000D01*
X66761968Y-69891957D01*
X66681223Y-69958223D01*
X66614957Y-70038968D01*
X66565717Y-70131090D01*
X66535395Y-70231047D01*
X66525157Y-70335000D01*
X66525157Y-70635000D01*
X66535395Y-70738953D01*
X66565717Y-70838910D01*
X66614957Y-70931032D01*
X66681223Y-71011777D01*
X66761968Y-71078043D01*
X66840464Y-71120000D01*
X66832981Y-71124000D01*
X66682369Y-71124000D01*
X65086702Y-69528334D01*
X65108163Y-69457584D01*
X65119843Y-69339000D01*
X65119843Y-68889000D01*
X65108163Y-68770416D01*
X65073574Y-68656389D01*
X65031055Y-68576843D01*
X65091494Y-68544537D01*
X65188185Y-68465185D01*
X65267537Y-68368494D01*
X65326502Y-68258180D01*
X65362812Y-68138482D01*
X65375072Y-68014000D01*
X65372000Y-67849750D01*
X65213250Y-67691000D01*
X64389000Y-67691000D01*
X64389000Y-67711000D01*
X64135000Y-67711000D01*
X64135000Y-67691000D01*
X64115000Y-67691000D01*
X64115000Y-67437000D01*
X64135000Y-67437000D01*
X64135000Y-67417000D01*
X64389000Y-67417000D01*
X64389000Y-67437000D01*
X65213250Y-67437000D01*
X65355260Y-67294990D01*
X66879562Y-67294990D01*
X66854090Y-67302717D01*
G37*
G04 #@! TD.AperFunction*
D21*
X107014492Y-66310299D02*
X106948304Y-66345678D01*
X106890289Y-66393289D01*
X106842678Y-66451304D01*
X106807299Y-66517492D01*
X106785513Y-66589311D01*
X106778157Y-66664000D01*
X106778157Y-68464000D01*
X106785513Y-68538689D01*
X106807299Y-68610508D01*
X106842678Y-68676696D01*
X106890289Y-68734711D01*
X106948304Y-68782322D01*
X107014492Y-68817701D01*
X107086311Y-68839487D01*
X107161000Y-68846843D01*
X108231000Y-68846843D01*
X108305689Y-68839487D01*
X108377508Y-68817701D01*
X108443696Y-68782322D01*
X108501711Y-68734711D01*
X108510403Y-68724119D01*
X108613767Y-68779368D01*
X108786434Y-68831746D01*
X108966000Y-68849432D01*
X109145567Y-68831746D01*
X109318234Y-68779368D01*
X109390820Y-68740570D01*
X109498487Y-68846117D01*
X109691579Y-68972377D01*
X109928617Y-69057900D01*
X110109000Y-68932244D01*
X110109000Y-67691000D01*
X110089000Y-67691000D01*
X110089000Y-67437000D01*
X110109000Y-67437000D01*
X110109000Y-67417000D01*
X110363000Y-67417000D01*
X110363000Y-67437000D01*
X110383000Y-67437000D01*
X110383000Y-67691000D01*
X110363000Y-67691000D01*
X110363000Y-68932244D01*
X110543383Y-69057900D01*
X110780421Y-68972377D01*
X110973513Y-68846117D01*
X111081181Y-68740570D01*
X111153767Y-68779368D01*
X111326434Y-68831746D01*
X111506000Y-68849432D01*
X111685567Y-68831746D01*
X111858234Y-68779368D01*
X112017365Y-68694311D01*
X112156844Y-68579844D01*
X112271311Y-68440365D01*
X112356368Y-68281234D01*
X112408746Y-68108567D01*
X112422000Y-67973998D01*
X112422000Y-67154002D01*
X112416780Y-67101000D01*
X118266928Y-67101000D01*
X118270000Y-67265250D01*
X118428750Y-67424000D01*
X119253000Y-67424000D01*
X119253000Y-66624750D01*
X119507000Y-66624750D01*
X119507000Y-67424000D01*
X120331250Y-67424000D01*
X120490000Y-67265250D01*
X120493072Y-67101000D01*
X120480812Y-66976518D01*
X120444502Y-66856820D01*
X120385537Y-66746506D01*
X120306185Y-66649815D01*
X120209494Y-66570463D01*
X120099180Y-66511498D01*
X119979482Y-66475188D01*
X119855000Y-66462928D01*
X119665750Y-66466000D01*
X119507000Y-66624750D01*
X119253000Y-66624750D01*
X119094250Y-66466000D01*
X118905000Y-66462928D01*
X118780518Y-66475188D01*
X118660820Y-66511498D01*
X118550506Y-66570463D01*
X118453815Y-66649815D01*
X118374463Y-66746506D01*
X118315498Y-66856820D01*
X118279188Y-66976518D01*
X118266928Y-67101000D01*
X112416780Y-67101000D01*
X112408746Y-67019433D01*
X112356368Y-66846766D01*
X112271311Y-66687635D01*
X112156844Y-66548156D01*
X112017364Y-66433689D01*
X111858233Y-66348632D01*
X111717734Y-66306012D01*
X122576837Y-66306012D01*
X122516199Y-66419457D01*
X122464965Y-66588353D01*
X122450291Y-66737340D01*
X120657079Y-68530553D01*
X120549191Y-68552013D01*
X120407058Y-68610887D01*
X120279141Y-68696358D01*
X120224282Y-68751217D01*
X120191574Y-68643389D01*
X120149055Y-68563843D01*
X120209494Y-68531537D01*
X120306185Y-68452185D01*
X120385537Y-68355494D01*
X120444502Y-68245180D01*
X120480812Y-68125482D01*
X120493072Y-68001000D01*
X120490000Y-67836750D01*
X120331250Y-67678000D01*
X119507000Y-67678000D01*
X119507000Y-67698000D01*
X119253000Y-67698000D01*
X119253000Y-67678000D01*
X118428750Y-67678000D01*
X118270000Y-67836750D01*
X118266928Y-68001000D01*
X118279188Y-68125482D01*
X118315498Y-68245180D01*
X118374463Y-68355494D01*
X118453815Y-68452185D01*
X118550506Y-68531537D01*
X118610945Y-68563843D01*
X118568426Y-68643389D01*
X118533837Y-68757416D01*
X118522157Y-68876000D01*
X118522157Y-69326000D01*
X118533837Y-69444584D01*
X118568426Y-69558611D01*
X118624597Y-69663699D01*
X118700190Y-69755810D01*
X118749000Y-69795867D01*
X118749000Y-70042632D01*
X118439595Y-69733227D01*
X118419833Y-69709147D01*
X118323751Y-69630294D01*
X118214132Y-69571701D01*
X118095188Y-69535620D01*
X118002488Y-69526490D01*
X118002480Y-69526490D01*
X117971490Y-69523438D01*
X117940500Y-69526490D01*
X111463488Y-69526490D01*
X111432490Y-69523437D01*
X111401492Y-69526490D01*
X108054508Y-69526490D01*
X108023510Y-69523437D01*
X107992512Y-69526490D01*
X100035500Y-69526490D01*
X100004509Y-69523438D01*
X99973519Y-69526490D01*
X99973512Y-69526490D01*
X99880812Y-69535620D01*
X99761868Y-69571701D01*
X99652249Y-69630294D01*
X99595705Y-69676699D01*
X99556167Y-69709147D01*
X99536409Y-69733222D01*
X98892475Y-70377157D01*
X98547000Y-70377157D01*
X98472311Y-70384513D01*
X98400492Y-70406299D01*
X98334304Y-70441678D01*
X98276289Y-70489289D01*
X98228678Y-70547304D01*
X98193299Y-70613492D01*
X98171513Y-70685311D01*
X98164157Y-70760000D01*
X98164157Y-70997000D01*
X97727350Y-70997000D01*
X97707810Y-70973190D01*
X97659000Y-70933133D01*
X97659000Y-68864990D01*
X97662052Y-68834000D01*
X97659000Y-68803009D01*
X97659000Y-68803002D01*
X97649870Y-68710302D01*
X97613789Y-68591358D01*
X97555196Y-68481739D01*
X97547020Y-68471777D01*
X97496103Y-68409734D01*
X97496101Y-68409732D01*
X97476343Y-68385657D01*
X97452268Y-68365899D01*
X95392380Y-66306012D01*
X107028624Y-66306012D01*
X107014492Y-66310299D01*
G04 #@! TA.AperFunction,Conductor*
D22*
G36*
X107014492Y-66310299D02*
G01*
X106948304Y-66345678D01*
X106890289Y-66393289D01*
X106842678Y-66451304D01*
X106807299Y-66517492D01*
X106785513Y-66589311D01*
X106778157Y-66664000D01*
X106778157Y-68464000D01*
X106785513Y-68538689D01*
X106807299Y-68610508D01*
X106842678Y-68676696D01*
X106890289Y-68734711D01*
X106948304Y-68782322D01*
X107014492Y-68817701D01*
X107086311Y-68839487D01*
X107161000Y-68846843D01*
X108231000Y-68846843D01*
X108305689Y-68839487D01*
X108377508Y-68817701D01*
X108443696Y-68782322D01*
X108501711Y-68734711D01*
X108510403Y-68724119D01*
X108613767Y-68779368D01*
X108786434Y-68831746D01*
X108966000Y-68849432D01*
X109145567Y-68831746D01*
X109318234Y-68779368D01*
X109390820Y-68740570D01*
X109498487Y-68846117D01*
X109691579Y-68972377D01*
X109928617Y-69057900D01*
X110109000Y-68932244D01*
X110109000Y-67691000D01*
X110089000Y-67691000D01*
X110089000Y-67437000D01*
X110109000Y-67437000D01*
X110109000Y-67417000D01*
X110363000Y-67417000D01*
X110363000Y-67437000D01*
X110383000Y-67437000D01*
X110383000Y-67691000D01*
X110363000Y-67691000D01*
X110363000Y-68932244D01*
X110543383Y-69057900D01*
X110780421Y-68972377D01*
X110973513Y-68846117D01*
X111081181Y-68740570D01*
X111153767Y-68779368D01*
X111326434Y-68831746D01*
X111506000Y-68849432D01*
X111685567Y-68831746D01*
X111858234Y-68779368D01*
X112017365Y-68694311D01*
X112156844Y-68579844D01*
X112271311Y-68440365D01*
X112356368Y-68281234D01*
X112408746Y-68108567D01*
X112422000Y-67973998D01*
X112422000Y-67154002D01*
X112416780Y-67101000D01*
X118266928Y-67101000D01*
X118270000Y-67265250D01*
X118428750Y-67424000D01*
X119253000Y-67424000D01*
X119253000Y-66624750D01*
X119507000Y-66624750D01*
X119507000Y-67424000D01*
X120331250Y-67424000D01*
X120490000Y-67265250D01*
X120493072Y-67101000D01*
X120480812Y-66976518D01*
X120444502Y-66856820D01*
X120385537Y-66746506D01*
X120306185Y-66649815D01*
X120209494Y-66570463D01*
X120099180Y-66511498D01*
X119979482Y-66475188D01*
X119855000Y-66462928D01*
X119665750Y-66466000D01*
X119507000Y-66624750D01*
X119253000Y-66624750D01*
X119094250Y-66466000D01*
X118905000Y-66462928D01*
X118780518Y-66475188D01*
X118660820Y-66511498D01*
X118550506Y-66570463D01*
X118453815Y-66649815D01*
X118374463Y-66746506D01*
X118315498Y-66856820D01*
X118279188Y-66976518D01*
X118266928Y-67101000D01*
X112416780Y-67101000D01*
X112408746Y-67019433D01*
X112356368Y-66846766D01*
X112271311Y-66687635D01*
X112156844Y-66548156D01*
X112017364Y-66433689D01*
X111858233Y-66348632D01*
X111717734Y-66306012D01*
X122576837Y-66306012D01*
X122516199Y-66419457D01*
X122464965Y-66588353D01*
X122450291Y-66737340D01*
X120657079Y-68530553D01*
X120549191Y-68552013D01*
X120407058Y-68610887D01*
X120279141Y-68696358D01*
X120224282Y-68751217D01*
X120191574Y-68643389D01*
X120149055Y-68563843D01*
X120209494Y-68531537D01*
X120306185Y-68452185D01*
X120385537Y-68355494D01*
X120444502Y-68245180D01*
X120480812Y-68125482D01*
X120493072Y-68001000D01*
X120490000Y-67836750D01*
X120331250Y-67678000D01*
X119507000Y-67678000D01*
X119507000Y-67698000D01*
X119253000Y-67698000D01*
X119253000Y-67678000D01*
X118428750Y-67678000D01*
X118270000Y-67836750D01*
X118266928Y-68001000D01*
X118279188Y-68125482D01*
X118315498Y-68245180D01*
X118374463Y-68355494D01*
X118453815Y-68452185D01*
X118550506Y-68531537D01*
X118610945Y-68563843D01*
X118568426Y-68643389D01*
X118533837Y-68757416D01*
X118522157Y-68876000D01*
X118522157Y-69326000D01*
X118533837Y-69444584D01*
X118568426Y-69558611D01*
X118624597Y-69663699D01*
X118700190Y-69755810D01*
X118749000Y-69795867D01*
X118749000Y-70042632D01*
X118439595Y-69733227D01*
X118419833Y-69709147D01*
X118323751Y-69630294D01*
X118214132Y-69571701D01*
X118095188Y-69535620D01*
X118002488Y-69526490D01*
X118002480Y-69526490D01*
X117971490Y-69523438D01*
X117940500Y-69526490D01*
X111463488Y-69526490D01*
X111432490Y-69523437D01*
X111401492Y-69526490D01*
X108054508Y-69526490D01*
X108023510Y-69523437D01*
X107992512Y-69526490D01*
X100035500Y-69526490D01*
X100004509Y-69523438D01*
X99973519Y-69526490D01*
X99973512Y-69526490D01*
X99880812Y-69535620D01*
X99761868Y-69571701D01*
X99652249Y-69630294D01*
X99595705Y-69676699D01*
X99556167Y-69709147D01*
X99536409Y-69733222D01*
X98892475Y-70377157D01*
X98547000Y-70377157D01*
X98472311Y-70384513D01*
X98400492Y-70406299D01*
X98334304Y-70441678D01*
X98276289Y-70489289D01*
X98228678Y-70547304D01*
X98193299Y-70613492D01*
X98171513Y-70685311D01*
X98164157Y-70760000D01*
X98164157Y-70997000D01*
X97727350Y-70997000D01*
X97707810Y-70973190D01*
X97659000Y-70933133D01*
X97659000Y-68864990D01*
X97662052Y-68834000D01*
X97659000Y-68803009D01*
X97659000Y-68803002D01*
X97649870Y-68710302D01*
X97613789Y-68591358D01*
X97555196Y-68481739D01*
X97547020Y-68471777D01*
X97496103Y-68409734D01*
X97496101Y-68409732D01*
X97476343Y-68385657D01*
X97452268Y-68365899D01*
X95392380Y-66306012D01*
X107028624Y-66306012D01*
X107014492Y-66310299D01*
G37*
G04 #@! TD.AperFunction*
M02*
