M48
; DRILL file {KiCad (5.1.9)-1} date 02/09/21 21:25:45
; FORMAT={-:-/ absolute / inch / decimal}
; #@! TF.CreationDate,2021-02-09T21:25:45+02:00
; #@! TF.GenerationSoftware,Kicad,Pcbnew,(5.1.9)-1
; #@! TF.FileFunction,Plated,1,2,PTH
FMAT,2
INCH
T1C0.0157
T2C0.0287
T3C0.0354
%
G90
G05
T1
X2.14Y-2.89
X2.2128Y-2.5522
X2.26Y-2.73
X2.59Y-2.68
X2.73Y-2.96
X2.76Y-2.68
X2.8Y-2.76
X2.9Y-2.97
X3.06Y-2.92
X3.12Y-2.64
X3.1994Y-2.5856
X3.2528Y-2.5522
X3.56Y-2.75
X3.6Y-2.83
X3.67Y-2.96
X3.68Y-2.69
X3.94Y-2.94
X4.2394Y-2.5856
X4.255Y-2.88
X4.27Y-2.97
X4.2878Y-2.5522
X4.335Y-2.965
X4.38Y-2.87
X4.46Y-3.1
X4.545Y-3.1
X4.58Y-2.68
X4.63Y-2.9485
X4.635Y-3.0
X4.755Y-2.7285
X4.775Y-2.78
X5.1992Y-3.1009
X5.23Y-2.845
X5.23Y-2.985
T2
X2.2459Y-3.135
X2.305Y-3.135
X3.2509Y-3.115
X3.31Y-3.115
X3.92Y-3.11
X3.9791Y-3.11
X4.87Y-2.6285
X4.87Y-2.6876
X4.87Y-2.7466
X4.87Y-2.8057
X4.87Y-2.8647
X4.87Y-2.9238
X4.87Y-2.9828
X4.87Y-3.0419
X4.87Y-3.1009
X4.87Y-3.16
T3
X2.16Y-2.66
X2.21Y-2.66
X2.26Y-2.66
X2.31Y-2.66
X3.2Y-2.66
X3.25Y-2.66
X3.3Y-2.66
X3.35Y-2.66
X4.24Y-2.66
X4.29Y-2.66
X4.34Y-2.66
X4.39Y-2.66
X5.27Y-2.66
X5.32Y-2.66
X5.37Y-2.66
X5.42Y-2.66
T0
M30
