G04 #@! TF.GenerationSoftware,KiCad,Pcbnew,(5.1.9)-1*
G04 #@! TF.CreationDate,2021-02-09T21:25:51+02:00*
G04 #@! TF.ProjectId,jantteri-secondary,6a616e74-7465-4726-992d-7365636f6e64,rev?*
G04 #@! TF.SameCoordinates,Original*
G04 #@! TF.FileFunction,Copper,L2,Bot*
G04 #@! TF.FilePolarity,Positive*
%FSLAX46Y46*%
G04 Gerber Fmt 4.6, Leading zero omitted, Abs format (unit mm)*
G04 Created by KiCad (PCBNEW (5.1.9)-1) date 2021-02-09 21:25:51*
%MOMM*%
%LPD*%
G01*
G04 APERTURE LIST*
G04 #@! TA.AperFunction,ComponentPad*
%ADD10O,1.070000X1.800000*%
G04 #@! TD*
G04 #@! TA.AperFunction,ComponentPad*
%ADD11R,1.070000X1.800000*%
G04 #@! TD*
G04 #@! TA.AperFunction,ComponentPad*
%ADD12O,1.030000X1.730000*%
G04 #@! TD*
G04 #@! TA.AperFunction,ComponentPad*
%ADD13O,1.730000X1.030000*%
G04 #@! TD*
G04 #@! TA.AperFunction,ViaPad*
%ADD14C,0.800000*%
G04 #@! TD*
G04 #@! TA.AperFunction,Conductor*
%ADD15C,0.500000*%
G04 #@! TD*
G04 #@! TA.AperFunction,Conductor*
%ADD16C,1.000000*%
G04 #@! TD*
G04 #@! TA.AperFunction,Conductor*
%ADD17C,0.254000*%
G04 #@! TD*
G04 #@! TA.AperFunction,Conductor*
%ADD18C,0.100000*%
G04 #@! TD*
G04 APERTURE END LIST*
D10*
X111506000Y-67564000D03*
X110236000Y-67564000D03*
X108966000Y-67564000D03*
D11*
X107696000Y-67564000D03*
X54864000Y-67564000D03*
D10*
X56134000Y-67564000D03*
X57404000Y-67564000D03*
X58674000Y-67564000D03*
D11*
X133858000Y-67564000D03*
D10*
X135128000Y-67564000D03*
X136398000Y-67564000D03*
X137668000Y-67564000D03*
X85090000Y-67564000D03*
X83820000Y-67564000D03*
X82550000Y-67564000D03*
D11*
X81280000Y-67564000D03*
G04 #@! TA.AperFunction,ComponentPad*
G36*
G01*
X59062000Y-79013999D02*
X59062000Y-80244001D01*
G75*
G02*
X58812001Y-80494000I-249999J0D01*
G01*
X58281999Y-80494000D01*
G75*
G02*
X58032000Y-80244001I0J249999D01*
G01*
X58032000Y-79013999D01*
G75*
G02*
X58281999Y-78764000I249999J0D01*
G01*
X58812001Y-78764000D01*
G75*
G02*
X59062000Y-79013999I0J-249999D01*
G01*
G37*
G04 #@! TD.AperFunction*
D12*
X57047000Y-79629000D03*
G04 #@! TA.AperFunction,ComponentPad*
G36*
G01*
X84589000Y-78505999D02*
X84589000Y-79736001D01*
G75*
G02*
X84339001Y-79986000I-249999J0D01*
G01*
X83808999Y-79986000D01*
G75*
G02*
X83559000Y-79736001I0J249999D01*
G01*
X83559000Y-78505999D01*
G75*
G02*
X83808999Y-78256000I249999J0D01*
G01*
X84339001Y-78256000D01*
G75*
G02*
X84589000Y-78505999I0J-249999D01*
G01*
G37*
G04 #@! TD.AperFunction*
X82574000Y-79121000D03*
X101068000Y-78994000D03*
G04 #@! TA.AperFunction,ComponentPad*
G36*
G01*
X99053000Y-79609001D02*
X99053000Y-78378999D01*
G75*
G02*
X99302999Y-78129000I249999J0D01*
G01*
X99833001Y-78129000D01*
G75*
G02*
X100083000Y-78378999I0J-249999D01*
G01*
X100083000Y-79609001D01*
G75*
G02*
X99833001Y-79859000I-249999J0D01*
G01*
X99302999Y-79859000D01*
G75*
G02*
X99053000Y-79609001I0J249999D01*
G01*
G37*
G04 #@! TD.AperFunction*
G04 #@! TA.AperFunction,ComponentPad*
G36*
G01*
X124313001Y-80779000D02*
X123082999Y-80779000D01*
G75*
G02*
X122833000Y-80529001I0J249999D01*
G01*
X122833000Y-79998999D01*
G75*
G02*
X123082999Y-79749000I249999J0D01*
G01*
X124313001Y-79749000D01*
G75*
G02*
X124563000Y-79998999I0J-249999D01*
G01*
X124563000Y-80529001D01*
G75*
G02*
X124313001Y-80779000I-249999J0D01*
G01*
G37*
G04 #@! TD.AperFunction*
D13*
X123698000Y-78764000D03*
X123698000Y-77264000D03*
X123698000Y-75764000D03*
X123698000Y-74264000D03*
X123698000Y-72764000D03*
X123698000Y-71264000D03*
X123698000Y-69764000D03*
X123698000Y-68264000D03*
X123698000Y-66764000D03*
D14*
X108077000Y-73152000D03*
X110109000Y-75311000D03*
X121285000Y-70612000D03*
X132842000Y-72263000D03*
X132842000Y-75819000D03*
X132059000Y-78764000D03*
X54356000Y-73406000D03*
X57404000Y-69342000D03*
X65786000Y-68072000D03*
X73660000Y-75438000D03*
X77724000Y-74168000D03*
X79248000Y-67056000D03*
X93472000Y-68326000D03*
X116332000Y-68072000D03*
X100076000Y-74676000D03*
X108458000Y-75438000D03*
X115443000Y-78740000D03*
X113284000Y-78740000D03*
X108910989Y-64825011D03*
X82621989Y-64825011D03*
X56205989Y-64825011D03*
X81263988Y-65675012D03*
X107679988Y-65675012D03*
X69342000Y-75184000D03*
X120777000Y-69303000D03*
X93218000Y-75184000D03*
X90424000Y-69850000D03*
X70104000Y-68072000D03*
X117602000Y-74891000D03*
X71120000Y-70104000D03*
X91440000Y-71882000D03*
X111252000Y-72898000D03*
X117729000Y-76200000D03*
D15*
X108077000Y-73279000D02*
X110109000Y-75311000D01*
X108077000Y-73152000D02*
X108077000Y-73279000D01*
X121285000Y-70612000D02*
X121285000Y-77716000D01*
D16*
X132059000Y-76602000D02*
X132842000Y-75819000D01*
X132059000Y-78764000D02*
X132059000Y-76602000D01*
X132842000Y-72263000D02*
X132842000Y-75819000D01*
D15*
X121285000Y-77716000D02*
X122333000Y-78764000D01*
X122333000Y-78764000D02*
X123698000Y-78764000D01*
X110236000Y-67564000D02*
X110236000Y-68052014D01*
X94060010Y-68914010D02*
X93472000Y-68326000D01*
X109374004Y-68914010D02*
X94060010Y-68914010D01*
X110236000Y-68052014D02*
X109374004Y-68914010D01*
X57404000Y-67564000D02*
X57404000Y-69342000D01*
X113284000Y-78740000D02*
X111460990Y-80563010D01*
X100272010Y-80563010D02*
X99568000Y-79859000D01*
X99568000Y-79859000D02*
X99568000Y-78994000D01*
X111460990Y-80563010D02*
X100272010Y-80563010D01*
X62262990Y-63975010D02*
X58674000Y-67564000D01*
X137668000Y-66164000D02*
X135479010Y-63975010D01*
X137668000Y-67564000D02*
X137668000Y-66164000D01*
X85090000Y-64008000D02*
X85122990Y-63975010D01*
X85090000Y-67564000D02*
X85090000Y-64008000D01*
X85122990Y-63975010D02*
X62262990Y-63975010D01*
X111506000Y-64008000D02*
X111538990Y-63975010D01*
X111506000Y-67564000D02*
X111506000Y-64008000D01*
X111538990Y-63975010D02*
X85122990Y-63975010D01*
X135479010Y-63975010D02*
X111538990Y-63975010D01*
X108966000Y-64880022D02*
X108910989Y-64825011D01*
X108966000Y-67564000D02*
X108966000Y-64880022D01*
X82550000Y-64897000D02*
X82621989Y-64825011D01*
X82550000Y-67564000D02*
X82550000Y-64897000D01*
X56134000Y-64897000D02*
X56205989Y-64825011D01*
X56134000Y-67564000D02*
X56134000Y-64897000D01*
X107696000Y-65691024D02*
X107679988Y-65675012D01*
X107696000Y-67564000D02*
X107696000Y-65691024D01*
X81280000Y-65691024D02*
X81263988Y-65675012D01*
X81280000Y-67564000D02*
X81280000Y-65691024D01*
X71628000Y-77470000D02*
X69342000Y-75184000D01*
X71836990Y-77678990D02*
X71628000Y-77470000D01*
X116159990Y-77678990D02*
X71836990Y-77678990D01*
X116231010Y-77750011D02*
X118426954Y-77750011D01*
X116159990Y-77678990D02*
X116231010Y-77750011D01*
X119953010Y-70126990D02*
X120777000Y-69303000D01*
X119953010Y-76223955D02*
X119953010Y-70126990D01*
X118426954Y-77750011D02*
X119953010Y-76223955D01*
X123509000Y-68453000D02*
X123698000Y-68264000D01*
X119253000Y-75934002D02*
X119253000Y-68453000D01*
X118137001Y-77050001D02*
X119253000Y-75934002D01*
X116520963Y-77050001D02*
X118137001Y-77050001D01*
X116305962Y-76835000D02*
X116520963Y-77050001D01*
X94869000Y-76835000D02*
X116305962Y-76835000D01*
X93218000Y-75184000D02*
X94869000Y-76835000D01*
X119253000Y-68453000D02*
X123509000Y-68453000D01*
X111760000Y-69850000D02*
X90424000Y-69850000D01*
X90424000Y-69850000D02*
X80264000Y-69850000D01*
X78486000Y-68072000D02*
X70104000Y-68072000D01*
X80264000Y-69850000D02*
X78486000Y-68072000D01*
X117602000Y-74891000D02*
X117602000Y-70993000D01*
X116459000Y-69850000D02*
X111760000Y-69850000D01*
X117602000Y-70993000D02*
X116459000Y-69850000D01*
X72898000Y-71882000D02*
X91440000Y-71882000D01*
X71120000Y-70104000D02*
X72898000Y-71882000D01*
X110236000Y-71882000D02*
X111252000Y-72898000D01*
X91440000Y-71882000D02*
X110236000Y-71882000D01*
X111887000Y-73533000D02*
X111252000Y-72898000D01*
X111887000Y-75438000D02*
X111887000Y-73533000D01*
X112583990Y-76134990D02*
X111887000Y-75438000D01*
X116595915Y-76134990D02*
X112583990Y-76134990D01*
X116660925Y-76200000D02*
X116595915Y-76134990D01*
X117729000Y-76200000D02*
X116660925Y-76200000D01*
D17*
X59003804Y-66341828D02*
X58853566Y-66296254D01*
X58674000Y-66278568D01*
X58494433Y-66296254D01*
X58321766Y-66348632D01*
X58249180Y-66387430D01*
X58141513Y-66281883D01*
X57948421Y-66155623D01*
X57711383Y-66070100D01*
X57531000Y-66195756D01*
X57531000Y-67437000D01*
X57551000Y-67437000D01*
X57551000Y-67691000D01*
X57531000Y-67691000D01*
X57531000Y-68932244D01*
X57711383Y-69057900D01*
X57948421Y-68972377D01*
X58141513Y-68846117D01*
X58249181Y-68740570D01*
X58321767Y-68779368D01*
X58494434Y-68831746D01*
X58674000Y-68849432D01*
X58853567Y-68831746D01*
X59026234Y-68779368D01*
X59185365Y-68694311D01*
X59324844Y-68579844D01*
X59439311Y-68440365D01*
X59524368Y-68281234D01*
X59576746Y-68108567D01*
X59590000Y-67973998D01*
X59590000Y-67540368D01*
X62524359Y-64606010D01*
X81869250Y-64606010D01*
X81840989Y-64748089D01*
X81840989Y-64901933D01*
X81871002Y-65052820D01*
X81919001Y-65168698D01*
X81919001Y-65249545D01*
X81870630Y-65177153D01*
X81761847Y-65068370D01*
X81633930Y-64982899D01*
X81491797Y-64924025D01*
X81340910Y-64894012D01*
X81187066Y-64894012D01*
X81036179Y-64924025D01*
X80894046Y-64982899D01*
X80766129Y-65068370D01*
X80657346Y-65177153D01*
X80571875Y-65305070D01*
X80513001Y-65447203D01*
X80482988Y-65598090D01*
X80482988Y-65751934D01*
X80513001Y-65902821D01*
X80571875Y-66044954D01*
X80649001Y-66160381D01*
X80649001Y-66294977D01*
X80598492Y-66310299D01*
X80532304Y-66345678D01*
X80474289Y-66393289D01*
X80426678Y-66451304D01*
X80391299Y-66517492D01*
X80369513Y-66589311D01*
X80362157Y-66664000D01*
X80362157Y-68464000D01*
X80369513Y-68538689D01*
X80391299Y-68610508D01*
X80426678Y-68676696D01*
X80474289Y-68734711D01*
X80532304Y-68782322D01*
X80598492Y-68817701D01*
X80670311Y-68839487D01*
X80745000Y-68846843D01*
X81815000Y-68846843D01*
X81889689Y-68839487D01*
X81961508Y-68817701D01*
X82027696Y-68782322D01*
X82085711Y-68734711D01*
X82094403Y-68724119D01*
X82197767Y-68779368D01*
X82370434Y-68831746D01*
X82550000Y-68849432D01*
X82729567Y-68831746D01*
X82902234Y-68779368D01*
X82974820Y-68740570D01*
X83082487Y-68846117D01*
X83275579Y-68972377D01*
X83512617Y-69057900D01*
X83693000Y-68932244D01*
X83693000Y-67691000D01*
X83673000Y-67691000D01*
X83673000Y-67437000D01*
X83693000Y-67437000D01*
X83693000Y-66195756D01*
X83512617Y-66070100D01*
X83275579Y-66155623D01*
X83181000Y-66217467D01*
X83181000Y-65370501D01*
X83228631Y-65322870D01*
X83314102Y-65194953D01*
X83372976Y-65052820D01*
X83402989Y-64901933D01*
X83402989Y-64748089D01*
X83374728Y-64606010D01*
X84459001Y-64606010D01*
X84459000Y-66217467D01*
X84364421Y-66155623D01*
X84127383Y-66070100D01*
X83947000Y-66195756D01*
X83947000Y-67437000D01*
X83967000Y-67437000D01*
X83967000Y-67691000D01*
X83947000Y-67691000D01*
X83947000Y-68932244D01*
X84127383Y-69057900D01*
X84364421Y-68972377D01*
X84557513Y-68846117D01*
X84665181Y-68740570D01*
X84737767Y-68779368D01*
X84910434Y-68831746D01*
X85090000Y-68849432D01*
X85269567Y-68831746D01*
X85442234Y-68779368D01*
X85601365Y-68694311D01*
X85740844Y-68579844D01*
X85855311Y-68440365D01*
X85940368Y-68281234D01*
X85992746Y-68108567D01*
X86006000Y-67973998D01*
X86006000Y-67154002D01*
X85992746Y-67019433D01*
X85940368Y-66846766D01*
X85855311Y-66687635D01*
X85740844Y-66548156D01*
X85721000Y-66531871D01*
X85721000Y-64606010D01*
X108158250Y-64606010D01*
X108129989Y-64748089D01*
X108129989Y-64901933D01*
X108160002Y-65052820D01*
X108162079Y-65057834D01*
X108049930Y-64982899D01*
X107907797Y-64924025D01*
X107756910Y-64894012D01*
X107603066Y-64894012D01*
X107452179Y-64924025D01*
X107310046Y-64982899D01*
X107182129Y-65068370D01*
X107073346Y-65177153D01*
X106987875Y-65305070D01*
X106929001Y-65447203D01*
X106898988Y-65598090D01*
X106898988Y-65751934D01*
X106929001Y-65902821D01*
X106987875Y-66044954D01*
X107065001Y-66160381D01*
X107065001Y-66294977D01*
X107014492Y-66310299D01*
X106948304Y-66345678D01*
X106890289Y-66393289D01*
X106842678Y-66451304D01*
X106807299Y-66517492D01*
X106785513Y-66589311D01*
X106778157Y-66664000D01*
X106778157Y-68464000D01*
X106785513Y-68538689D01*
X106807299Y-68610508D01*
X106842678Y-68676696D01*
X106890289Y-68734711D01*
X106948304Y-68782322D01*
X107014492Y-68817701D01*
X107086311Y-68839487D01*
X107161000Y-68846843D01*
X108231000Y-68846843D01*
X108305689Y-68839487D01*
X108377508Y-68817701D01*
X108443696Y-68782322D01*
X108501711Y-68734711D01*
X108510403Y-68724119D01*
X108613767Y-68779368D01*
X108786434Y-68831746D01*
X108966000Y-68849432D01*
X109145567Y-68831746D01*
X109318234Y-68779368D01*
X109390820Y-68740570D01*
X109498487Y-68846117D01*
X109691579Y-68972377D01*
X109928617Y-69057900D01*
X110109000Y-68932244D01*
X110109000Y-67691000D01*
X110089000Y-67691000D01*
X110089000Y-67437000D01*
X110109000Y-67437000D01*
X110109000Y-66195756D01*
X109928617Y-66070100D01*
X109691579Y-66155623D01*
X109597000Y-66217467D01*
X109597000Y-65204085D01*
X109603102Y-65194953D01*
X109661976Y-65052820D01*
X109691989Y-64901933D01*
X109691989Y-64748089D01*
X109663728Y-64606010D01*
X110875001Y-64606010D01*
X110875000Y-66217467D01*
X110780421Y-66155623D01*
X110543383Y-66070100D01*
X110363000Y-66195756D01*
X110363000Y-67437000D01*
X110383000Y-67437000D01*
X110383000Y-67691000D01*
X110363000Y-67691000D01*
X110363000Y-68932244D01*
X110543383Y-69057900D01*
X110780421Y-68972377D01*
X110973513Y-68846117D01*
X111081181Y-68740570D01*
X111153767Y-68779368D01*
X111326434Y-68831746D01*
X111506000Y-68849432D01*
X111685567Y-68831746D01*
X111858234Y-68779368D01*
X112017365Y-68694311D01*
X112156844Y-68579844D01*
X112271311Y-68440365D01*
X112356368Y-68281234D01*
X112408746Y-68108567D01*
X112422000Y-67973998D01*
X112422000Y-67154002D01*
X112408746Y-67019433D01*
X112356368Y-66846766D01*
X112271311Y-66687635D01*
X112156844Y-66548156D01*
X112137000Y-66531871D01*
X112137000Y-64606010D01*
X135217642Y-64606010D01*
X136691442Y-66079811D01*
X136525000Y-66195756D01*
X136525000Y-67437000D01*
X136545000Y-67437000D01*
X136545000Y-67691000D01*
X136525000Y-67691000D01*
X136525000Y-68932244D01*
X136705383Y-69057900D01*
X136942421Y-68972377D01*
X137135513Y-68846117D01*
X137243181Y-68740570D01*
X137315767Y-68779368D01*
X137488434Y-68831746D01*
X137668000Y-68849432D01*
X137847567Y-68831746D01*
X138020234Y-68779368D01*
X138179365Y-68694311D01*
X138318844Y-68579844D01*
X138433311Y-68440365D01*
X138518368Y-68281234D01*
X138570746Y-68108567D01*
X138584000Y-67973998D01*
X138584000Y-67154002D01*
X138570746Y-67019433D01*
X138518368Y-66846766D01*
X138433311Y-66687635D01*
X138318844Y-66548156D01*
X138299000Y-66531871D01*
X138299000Y-66194987D01*
X138302052Y-66163999D01*
X138299000Y-66133011D01*
X138299000Y-66133002D01*
X138289870Y-66040302D01*
X138253789Y-65921358D01*
X138195196Y-65811739D01*
X138116343Y-65715657D01*
X138092268Y-65695899D01*
X136302368Y-63906000D01*
X140945001Y-63906000D01*
X140945000Y-82569940D01*
X140945001Y-82569950D01*
X140945000Y-83414000D01*
X51206000Y-83414000D01*
X51206000Y-79234987D01*
X56151000Y-79234987D01*
X56151000Y-80023012D01*
X56163965Y-80154646D01*
X56215199Y-80323542D01*
X56298399Y-80479198D01*
X56410367Y-80615633D01*
X56546801Y-80727601D01*
X56702457Y-80810801D01*
X56871353Y-80862035D01*
X57047000Y-80879335D01*
X57222646Y-80862035D01*
X57391542Y-80810801D01*
X57547198Y-80727601D01*
X57683633Y-80615633D01*
X57733830Y-80554467D01*
X57755810Y-80595589D01*
X57834512Y-80691488D01*
X57930411Y-80770190D01*
X58039821Y-80828671D01*
X58158538Y-80864683D01*
X58281999Y-80876843D01*
X58812001Y-80876843D01*
X58935462Y-80864683D01*
X59054179Y-80828671D01*
X59163589Y-80770190D01*
X59259488Y-80691488D01*
X59338190Y-80595589D01*
X59396671Y-80486179D01*
X59432683Y-80367462D01*
X59444843Y-80244001D01*
X59444843Y-79013999D01*
X59432683Y-78890538D01*
X59396671Y-78771821D01*
X59338190Y-78662411D01*
X59259488Y-78566512D01*
X59163589Y-78487810D01*
X59054179Y-78429329D01*
X58935462Y-78393317D01*
X58812001Y-78381157D01*
X58281999Y-78381157D01*
X58158538Y-78393317D01*
X58039821Y-78429329D01*
X57930411Y-78487810D01*
X57834512Y-78566512D01*
X57755810Y-78662411D01*
X57733830Y-78703533D01*
X57683633Y-78642367D01*
X57547199Y-78530399D01*
X57391543Y-78447199D01*
X57222647Y-78395965D01*
X57047000Y-78378665D01*
X56871354Y-78395965D01*
X56702458Y-78447199D01*
X56546802Y-78530399D01*
X56410368Y-78642367D01*
X56298400Y-78778801D01*
X56215200Y-78934457D01*
X56163965Y-79103353D01*
X56151000Y-79234987D01*
X51206000Y-79234987D01*
X51206000Y-75107078D01*
X68561000Y-75107078D01*
X68561000Y-75260922D01*
X68591013Y-75411809D01*
X68649887Y-75553942D01*
X68735358Y-75681859D01*
X68844141Y-75790642D01*
X68972058Y-75876113D01*
X69114191Y-75934987D01*
X69222079Y-75956447D01*
X71203734Y-77938103D01*
X71203741Y-77938108D01*
X71368881Y-78103248D01*
X71388647Y-78127333D01*
X71484729Y-78206186D01*
X71594348Y-78264779D01*
X71713292Y-78300860D01*
X71805992Y-78309990D01*
X71806001Y-78309990D01*
X71836989Y-78313042D01*
X71867977Y-78309990D01*
X81804453Y-78309990D01*
X81742200Y-78426457D01*
X81690965Y-78595353D01*
X81678000Y-78726987D01*
X81678000Y-79515012D01*
X81690965Y-79646646D01*
X81742199Y-79815542D01*
X81825399Y-79971198D01*
X81937367Y-80107633D01*
X82073801Y-80219601D01*
X82229457Y-80302801D01*
X82398353Y-80354035D01*
X82574000Y-80371335D01*
X82749646Y-80354035D01*
X82918542Y-80302801D01*
X83074198Y-80219601D01*
X83210633Y-80107633D01*
X83260830Y-80046467D01*
X83282810Y-80087589D01*
X83361512Y-80183488D01*
X83457411Y-80262190D01*
X83566821Y-80320671D01*
X83685538Y-80356683D01*
X83808999Y-80368843D01*
X84339001Y-80368843D01*
X84462462Y-80356683D01*
X84581179Y-80320671D01*
X84690589Y-80262190D01*
X84786488Y-80183488D01*
X84865190Y-80087589D01*
X84923671Y-79978179D01*
X84959683Y-79859462D01*
X84971843Y-79736001D01*
X84971843Y-78505999D01*
X84959683Y-78382538D01*
X84937676Y-78309990D01*
X98676954Y-78309990D01*
X98670157Y-78378999D01*
X98670157Y-79609001D01*
X98682317Y-79732462D01*
X98718329Y-79851179D01*
X98776810Y-79960589D01*
X98855512Y-80056488D01*
X98951411Y-80135190D01*
X99019636Y-80171657D01*
X99040804Y-80211260D01*
X99119657Y-80307343D01*
X99143737Y-80327105D01*
X99803905Y-80987273D01*
X99823667Y-81011353D01*
X99919749Y-81090206D01*
X100029368Y-81148799D01*
X100148312Y-81184880D01*
X100241012Y-81194010D01*
X100241021Y-81194010D01*
X100272009Y-81197062D01*
X100302997Y-81194010D01*
X111430000Y-81194010D01*
X111460990Y-81197062D01*
X111491980Y-81194010D01*
X111491988Y-81194010D01*
X111584688Y-81184880D01*
X111703632Y-81148799D01*
X111813251Y-81090206D01*
X111909333Y-81011353D01*
X111929095Y-80987273D01*
X112137368Y-80779000D01*
X122194928Y-80779000D01*
X122207188Y-80903482D01*
X122243498Y-81023180D01*
X122302463Y-81133494D01*
X122381815Y-81230185D01*
X122478506Y-81309537D01*
X122588820Y-81368502D01*
X122708518Y-81404812D01*
X122833000Y-81417072D01*
X123412250Y-81414000D01*
X123571000Y-81255250D01*
X123571000Y-80391000D01*
X123825000Y-80391000D01*
X123825000Y-81255250D01*
X123983750Y-81414000D01*
X124563000Y-81417072D01*
X124687482Y-81404812D01*
X124807180Y-81368502D01*
X124917494Y-81309537D01*
X125014185Y-81230185D01*
X125093537Y-81133494D01*
X125152502Y-81023180D01*
X125188812Y-80903482D01*
X125201072Y-80779000D01*
X125198000Y-80549750D01*
X125039250Y-80391000D01*
X123825000Y-80391000D01*
X123571000Y-80391000D01*
X122356750Y-80391000D01*
X122198000Y-80549750D01*
X122194928Y-80779000D01*
X112137368Y-80779000D01*
X113403921Y-79512447D01*
X113511809Y-79490987D01*
X113653942Y-79432113D01*
X113781859Y-79346642D01*
X113890642Y-79237859D01*
X113976113Y-79109942D01*
X114034987Y-78967809D01*
X114065000Y-78816922D01*
X114065000Y-78663078D01*
X114034987Y-78512191D01*
X113976113Y-78370058D01*
X113935977Y-78309990D01*
X115940081Y-78309990D01*
X115988368Y-78335800D01*
X116067971Y-78359947D01*
X116107308Y-78371880D01*
X116107309Y-78371880D01*
X116107312Y-78371881D01*
X116200012Y-78381011D01*
X116200017Y-78381011D01*
X116231005Y-78384063D01*
X116261996Y-78381011D01*
X118395964Y-78381011D01*
X118426954Y-78384063D01*
X118457944Y-78381011D01*
X118457952Y-78381011D01*
X118550652Y-78371881D01*
X118669596Y-78335800D01*
X118779215Y-78277207D01*
X118875297Y-78198354D01*
X118895059Y-78174274D01*
X120377279Y-76692055D01*
X120401353Y-76672298D01*
X120458149Y-76603093D01*
X120480206Y-76576216D01*
X120538799Y-76466597D01*
X120545358Y-76444975D01*
X120574880Y-76347653D01*
X120584010Y-76254953D01*
X120584010Y-76254944D01*
X120587062Y-76223956D01*
X120584010Y-76192968D01*
X120584010Y-70960511D01*
X120592887Y-70981942D01*
X120654000Y-71073405D01*
X120654001Y-77685000D01*
X120650948Y-77716000D01*
X120663130Y-77839697D01*
X120699211Y-77958641D01*
X120757804Y-78068260D01*
X120816897Y-78140265D01*
X120816900Y-78140268D01*
X120836658Y-78164343D01*
X120860733Y-78184101D01*
X121864899Y-79188268D01*
X121884657Y-79212343D01*
X121908732Y-79232101D01*
X121908734Y-79232103D01*
X121958824Y-79273211D01*
X121980739Y-79291196D01*
X122090358Y-79349789D01*
X122209302Y-79385870D01*
X122302002Y-79395000D01*
X122302009Y-79395000D01*
X122302189Y-79395018D01*
X122243498Y-79504820D01*
X122207188Y-79624518D01*
X122194928Y-79749000D01*
X122198000Y-79978250D01*
X122356750Y-80137000D01*
X123571000Y-80137000D01*
X123571000Y-80117000D01*
X123825000Y-80117000D01*
X123825000Y-80137000D01*
X125039250Y-80137000D01*
X125198000Y-79978250D01*
X125201072Y-79749000D01*
X125188812Y-79624518D01*
X125152502Y-79504820D01*
X125093537Y-79394506D01*
X125014185Y-79297815D01*
X124917494Y-79218463D01*
X124842480Y-79178366D01*
X124879801Y-79108543D01*
X124931035Y-78939647D01*
X124948335Y-78764000D01*
X124931035Y-78588353D01*
X124879801Y-78419457D01*
X124796601Y-78263801D01*
X124684633Y-78127367D01*
X124548199Y-78015399D01*
X124545582Y-78014000D01*
X124548199Y-78012601D01*
X124684633Y-77900633D01*
X124796601Y-77764199D01*
X124879801Y-77608543D01*
X124931035Y-77439647D01*
X124948335Y-77264000D01*
X124931035Y-77088353D01*
X124879801Y-76919457D01*
X124796601Y-76763801D01*
X124684633Y-76627367D01*
X124653724Y-76602000D01*
X131173738Y-76602000D01*
X131178001Y-76645280D01*
X131178000Y-78807272D01*
X131190748Y-78936705D01*
X131241125Y-79102774D01*
X131322932Y-79255824D01*
X131433025Y-79389975D01*
X131567175Y-79500068D01*
X131720225Y-79581875D01*
X131886294Y-79632252D01*
X132059000Y-79649262D01*
X132231705Y-79632252D01*
X132397774Y-79581875D01*
X132550824Y-79500068D01*
X132684975Y-79389975D01*
X132795068Y-79255825D01*
X132876875Y-79102775D01*
X132927252Y-78936706D01*
X132940000Y-78807273D01*
X132940000Y-76966921D01*
X133434360Y-76472562D01*
X133467975Y-76444975D01*
X133539133Y-76358268D01*
X133578068Y-76310826D01*
X133635167Y-76204000D01*
X133659875Y-76157775D01*
X133710252Y-75991706D01*
X133723000Y-75862273D01*
X133723000Y-75862271D01*
X133727262Y-75819001D01*
X133723000Y-75775731D01*
X133723000Y-72219727D01*
X133710252Y-72090294D01*
X133659875Y-71924225D01*
X133578068Y-71771175D01*
X133467975Y-71637025D01*
X133333824Y-71526932D01*
X133180774Y-71445125D01*
X133014705Y-71394748D01*
X132842000Y-71377738D01*
X132669294Y-71394748D01*
X132503225Y-71445125D01*
X132350175Y-71526932D01*
X132216025Y-71637025D01*
X132105932Y-71771176D01*
X132024125Y-71924226D01*
X131973748Y-72090295D01*
X131961000Y-72219728D01*
X131961001Y-75454077D01*
X131466640Y-75948439D01*
X131433026Y-75976025D01*
X131391085Y-76027131D01*
X131322932Y-76110175D01*
X131241125Y-76263226D01*
X131206421Y-76377631D01*
X131191200Y-76427809D01*
X131190749Y-76429295D01*
X131173738Y-76602000D01*
X124653724Y-76602000D01*
X124548199Y-76515399D01*
X124545582Y-76514000D01*
X124548199Y-76512601D01*
X124684633Y-76400633D01*
X124796601Y-76264199D01*
X124879801Y-76108543D01*
X124931035Y-75939647D01*
X124948335Y-75764000D01*
X124931035Y-75588353D01*
X124879801Y-75419457D01*
X124796601Y-75263801D01*
X124684633Y-75127367D01*
X124548199Y-75015399D01*
X124545582Y-75014000D01*
X124548199Y-75012601D01*
X124684633Y-74900633D01*
X124796601Y-74764199D01*
X124879801Y-74608543D01*
X124931035Y-74439647D01*
X124948335Y-74264000D01*
X124931035Y-74088353D01*
X124879801Y-73919457D01*
X124796601Y-73763801D01*
X124684633Y-73627367D01*
X124548199Y-73515399D01*
X124545582Y-73514000D01*
X124548199Y-73512601D01*
X124684633Y-73400633D01*
X124796601Y-73264199D01*
X124879801Y-73108543D01*
X124931035Y-72939647D01*
X124948335Y-72764000D01*
X124931035Y-72588353D01*
X124879801Y-72419457D01*
X124796601Y-72263801D01*
X124684633Y-72127367D01*
X124548199Y-72015399D01*
X124545582Y-72014000D01*
X124548199Y-72012601D01*
X124684633Y-71900633D01*
X124796601Y-71764199D01*
X124879801Y-71608543D01*
X124931035Y-71439647D01*
X124948335Y-71264000D01*
X124931035Y-71088353D01*
X124879801Y-70919457D01*
X124796601Y-70763801D01*
X124684633Y-70627367D01*
X124548199Y-70515399D01*
X124545582Y-70514000D01*
X124548199Y-70512601D01*
X124684633Y-70400633D01*
X124796601Y-70264199D01*
X124879801Y-70108543D01*
X124931035Y-69939647D01*
X124948335Y-69764000D01*
X124931035Y-69588353D01*
X124879801Y-69419457D01*
X124796601Y-69263801D01*
X124684633Y-69127367D01*
X124548199Y-69015399D01*
X124545582Y-69014000D01*
X124548199Y-69012601D01*
X124684633Y-68900633D01*
X124796601Y-68764199D01*
X124879801Y-68608543D01*
X124931035Y-68439647D01*
X124948335Y-68264000D01*
X124931035Y-68088353D01*
X124879801Y-67919457D01*
X124796601Y-67763801D01*
X124684633Y-67627367D01*
X124548199Y-67515399D01*
X124545582Y-67514000D01*
X124548199Y-67512601D01*
X124684633Y-67400633D01*
X124796601Y-67264199D01*
X124879801Y-67108543D01*
X124931035Y-66939647D01*
X124948335Y-66764000D01*
X124938486Y-66664000D01*
X132940157Y-66664000D01*
X132940157Y-68464000D01*
X132947513Y-68538689D01*
X132969299Y-68610508D01*
X133004678Y-68676696D01*
X133052289Y-68734711D01*
X133110304Y-68782322D01*
X133176492Y-68817701D01*
X133248311Y-68839487D01*
X133323000Y-68846843D01*
X134393000Y-68846843D01*
X134467689Y-68839487D01*
X134539508Y-68817701D01*
X134605696Y-68782322D01*
X134663711Y-68734711D01*
X134672403Y-68724119D01*
X134775767Y-68779368D01*
X134948434Y-68831746D01*
X135128000Y-68849432D01*
X135307567Y-68831746D01*
X135480234Y-68779368D01*
X135552820Y-68740570D01*
X135660487Y-68846117D01*
X135853579Y-68972377D01*
X136090617Y-69057900D01*
X136271000Y-68932244D01*
X136271000Y-67691000D01*
X136251000Y-67691000D01*
X136251000Y-67437000D01*
X136271000Y-67437000D01*
X136271000Y-66195756D01*
X136090617Y-66070100D01*
X135853579Y-66155623D01*
X135660487Y-66281883D01*
X135552819Y-66387430D01*
X135480233Y-66348632D01*
X135307566Y-66296254D01*
X135128000Y-66278568D01*
X134948433Y-66296254D01*
X134775766Y-66348632D01*
X134672403Y-66403880D01*
X134663711Y-66393289D01*
X134605696Y-66345678D01*
X134539508Y-66310299D01*
X134467689Y-66288513D01*
X134393000Y-66281157D01*
X133323000Y-66281157D01*
X133248311Y-66288513D01*
X133176492Y-66310299D01*
X133110304Y-66345678D01*
X133052289Y-66393289D01*
X133004678Y-66451304D01*
X132969299Y-66517492D01*
X132947513Y-66589311D01*
X132940157Y-66664000D01*
X124938486Y-66664000D01*
X124931035Y-66588353D01*
X124879801Y-66419457D01*
X124796601Y-66263801D01*
X124684633Y-66127367D01*
X124548199Y-66015399D01*
X124392543Y-65932199D01*
X124223647Y-65880965D01*
X124092013Y-65868000D01*
X123303987Y-65868000D01*
X123172353Y-65880965D01*
X123003457Y-65932199D01*
X122847801Y-66015399D01*
X122711367Y-66127367D01*
X122599399Y-66263801D01*
X122516199Y-66419457D01*
X122464965Y-66588353D01*
X122447665Y-66764000D01*
X122464965Y-66939647D01*
X122516199Y-67108543D01*
X122599399Y-67264199D01*
X122711367Y-67400633D01*
X122847801Y-67512601D01*
X122850418Y-67514000D01*
X122847801Y-67515399D01*
X122711367Y-67627367D01*
X122599399Y-67763801D01*
X122568291Y-67822000D01*
X119283998Y-67822000D01*
X119253000Y-67818947D01*
X119222002Y-67822000D01*
X119129302Y-67831130D01*
X119010358Y-67867211D01*
X118900739Y-67925804D01*
X118804657Y-68004657D01*
X118725804Y-68100739D01*
X118667211Y-68210358D01*
X118631130Y-68329302D01*
X118618947Y-68453000D01*
X118622001Y-68484008D01*
X118622000Y-75672633D01*
X118433843Y-75860790D01*
X118421113Y-75830058D01*
X118335642Y-75702141D01*
X118226859Y-75593358D01*
X118098942Y-75507887D01*
X118090043Y-75504201D01*
X118099859Y-75497642D01*
X118208642Y-75388859D01*
X118294113Y-75260942D01*
X118352987Y-75118809D01*
X118383000Y-74967922D01*
X118383000Y-74814078D01*
X118352987Y-74663191D01*
X118294113Y-74521058D01*
X118233000Y-74429595D01*
X118233000Y-71023987D01*
X118236052Y-70992999D01*
X118233000Y-70962011D01*
X118233000Y-70962002D01*
X118223870Y-70869302D01*
X118187789Y-70750358D01*
X118129196Y-70640739D01*
X118080171Y-70581002D01*
X118070103Y-70568734D01*
X118070101Y-70568732D01*
X118050343Y-70544657D01*
X118026268Y-70524899D01*
X116927105Y-69425737D01*
X116907343Y-69401657D01*
X116811261Y-69322804D01*
X116701642Y-69264211D01*
X116582698Y-69228130D01*
X116489998Y-69219000D01*
X116489990Y-69219000D01*
X116459000Y-69215948D01*
X116428010Y-69219000D01*
X90885405Y-69219000D01*
X90793942Y-69157887D01*
X90651809Y-69099013D01*
X90500922Y-69069000D01*
X90347078Y-69069000D01*
X90196191Y-69099013D01*
X90054058Y-69157887D01*
X89962595Y-69219000D01*
X80525369Y-69219000D01*
X78954105Y-67647737D01*
X78934343Y-67623657D01*
X78838261Y-67544804D01*
X78728642Y-67486211D01*
X78609698Y-67450130D01*
X78516998Y-67441000D01*
X78516990Y-67441000D01*
X78486000Y-67437948D01*
X78455010Y-67441000D01*
X70565405Y-67441000D01*
X70473942Y-67379887D01*
X70331809Y-67321013D01*
X70180922Y-67291000D01*
X70027078Y-67291000D01*
X69876191Y-67321013D01*
X69734058Y-67379887D01*
X69606141Y-67465358D01*
X69497358Y-67574141D01*
X69411887Y-67702058D01*
X69353013Y-67844191D01*
X69323000Y-67995078D01*
X69323000Y-68148922D01*
X69353013Y-68299809D01*
X69411887Y-68441942D01*
X69497358Y-68569859D01*
X69606141Y-68678642D01*
X69734058Y-68764113D01*
X69876191Y-68822987D01*
X70027078Y-68853000D01*
X70180922Y-68853000D01*
X70331809Y-68822987D01*
X70473942Y-68764113D01*
X70565405Y-68703000D01*
X78224632Y-68703000D01*
X79795899Y-70274268D01*
X79815657Y-70298343D01*
X79911739Y-70377196D01*
X80021358Y-70435789D01*
X80140302Y-70471870D01*
X80233002Y-70481000D01*
X80233009Y-70481000D01*
X80264000Y-70484052D01*
X80294990Y-70481000D01*
X89962595Y-70481000D01*
X90054058Y-70542113D01*
X90196191Y-70600987D01*
X90347078Y-70631000D01*
X90500922Y-70631000D01*
X90651809Y-70600987D01*
X90793942Y-70542113D01*
X90885405Y-70481000D01*
X116197632Y-70481000D01*
X116971001Y-71254370D01*
X116971000Y-74429595D01*
X116909887Y-74521058D01*
X116851013Y-74663191D01*
X116821000Y-74814078D01*
X116821000Y-74967922D01*
X116851013Y-75118809D01*
X116909887Y-75260942D01*
X116995358Y-75388859D01*
X117104141Y-75497642D01*
X117210936Y-75569000D01*
X116875598Y-75569000D01*
X116838557Y-75549201D01*
X116719613Y-75513120D01*
X116626913Y-75503990D01*
X116626905Y-75503990D01*
X116595915Y-75500938D01*
X116564925Y-75503990D01*
X112845359Y-75503990D01*
X112518000Y-75176632D01*
X112518000Y-73563998D01*
X112521053Y-73533000D01*
X112508870Y-73409302D01*
X112472789Y-73290358D01*
X112414196Y-73180739D01*
X112355103Y-73108734D01*
X112355101Y-73108732D01*
X112335343Y-73084657D01*
X112311268Y-73064899D01*
X112024447Y-72778078D01*
X112002987Y-72670191D01*
X111944113Y-72528058D01*
X111858642Y-72400141D01*
X111749859Y-72291358D01*
X111621942Y-72205887D01*
X111479809Y-72147013D01*
X111371922Y-72125553D01*
X110704105Y-71457737D01*
X110684343Y-71433657D01*
X110588261Y-71354804D01*
X110478642Y-71296211D01*
X110359698Y-71260130D01*
X110266998Y-71251000D01*
X110266990Y-71251000D01*
X110236000Y-71247948D01*
X110205010Y-71251000D01*
X91901405Y-71251000D01*
X91809942Y-71189887D01*
X91667809Y-71131013D01*
X91516922Y-71101000D01*
X91363078Y-71101000D01*
X91212191Y-71131013D01*
X91070058Y-71189887D01*
X90978595Y-71251000D01*
X73159369Y-71251000D01*
X71892447Y-69984079D01*
X71870987Y-69876191D01*
X71812113Y-69734058D01*
X71726642Y-69606141D01*
X71617859Y-69497358D01*
X71489942Y-69411887D01*
X71347809Y-69353013D01*
X71196922Y-69323000D01*
X71043078Y-69323000D01*
X70892191Y-69353013D01*
X70750058Y-69411887D01*
X70622141Y-69497358D01*
X70513358Y-69606141D01*
X70427887Y-69734058D01*
X70369013Y-69876191D01*
X70339000Y-70027078D01*
X70339000Y-70180922D01*
X70369013Y-70331809D01*
X70427887Y-70473942D01*
X70513358Y-70601859D01*
X70622141Y-70710642D01*
X70750058Y-70796113D01*
X70892191Y-70854987D01*
X71000079Y-70876447D01*
X72429899Y-72306268D01*
X72449657Y-72330343D01*
X72473732Y-72350101D01*
X72473734Y-72350103D01*
X72535768Y-72401013D01*
X72545739Y-72409196D01*
X72655358Y-72467789D01*
X72774302Y-72503870D01*
X72867002Y-72513000D01*
X72867009Y-72513000D01*
X72898000Y-72516052D01*
X72928990Y-72513000D01*
X90978595Y-72513000D01*
X91070058Y-72574113D01*
X91212191Y-72632987D01*
X91363078Y-72663000D01*
X91516922Y-72663000D01*
X91667809Y-72632987D01*
X91809942Y-72574113D01*
X91901405Y-72513000D01*
X107627568Y-72513000D01*
X107579141Y-72545358D01*
X107470358Y-72654141D01*
X107384887Y-72782058D01*
X107326013Y-72924191D01*
X107296000Y-73075078D01*
X107296000Y-73228922D01*
X107326013Y-73379809D01*
X107384887Y-73521942D01*
X107470358Y-73649859D01*
X107579141Y-73758642D01*
X107707058Y-73844113D01*
X107779930Y-73874298D01*
X109336553Y-75430922D01*
X109358013Y-75538809D01*
X109416887Y-75680942D01*
X109502358Y-75808859D01*
X109611141Y-75917642D01*
X109739058Y-76003113D01*
X109881191Y-76061987D01*
X110032078Y-76092000D01*
X110185922Y-76092000D01*
X110336809Y-76061987D01*
X110478942Y-76003113D01*
X110606859Y-75917642D01*
X110715642Y-75808859D01*
X110801113Y-75680942D01*
X110859987Y-75538809D01*
X110890000Y-75387922D01*
X110890000Y-75234078D01*
X110859987Y-75083191D01*
X110801113Y-74941058D01*
X110715642Y-74813141D01*
X110606859Y-74704358D01*
X110478942Y-74618887D01*
X110336809Y-74560013D01*
X110228922Y-74538553D01*
X108858000Y-73167632D01*
X108858000Y-73075078D01*
X108827987Y-72924191D01*
X108769113Y-72782058D01*
X108683642Y-72654141D01*
X108574859Y-72545358D01*
X108526432Y-72513000D01*
X109974632Y-72513000D01*
X110479553Y-73017922D01*
X110501013Y-73125809D01*
X110559887Y-73267942D01*
X110645358Y-73395859D01*
X110754141Y-73504642D01*
X110882058Y-73590113D01*
X111024191Y-73648987D01*
X111132078Y-73670447D01*
X111256001Y-73794370D01*
X111256000Y-75407009D01*
X111252948Y-75438000D01*
X111256000Y-75468990D01*
X111256000Y-75468997D01*
X111265130Y-75561697D01*
X111301211Y-75680641D01*
X111359804Y-75790260D01*
X111438657Y-75886343D01*
X111462737Y-75906105D01*
X111760632Y-76204000D01*
X95130369Y-76204000D01*
X93990447Y-75064079D01*
X93968987Y-74956191D01*
X93910113Y-74814058D01*
X93824642Y-74686141D01*
X93715859Y-74577358D01*
X93587942Y-74491887D01*
X93445809Y-74433013D01*
X93294922Y-74403000D01*
X93141078Y-74403000D01*
X92990191Y-74433013D01*
X92848058Y-74491887D01*
X92720141Y-74577358D01*
X92611358Y-74686141D01*
X92525887Y-74814058D01*
X92467013Y-74956191D01*
X92437000Y-75107078D01*
X92437000Y-75260922D01*
X92467013Y-75411809D01*
X92525887Y-75553942D01*
X92611358Y-75681859D01*
X92720141Y-75790642D01*
X92848058Y-75876113D01*
X92990191Y-75934987D01*
X93098079Y-75956447D01*
X94189621Y-77047990D01*
X72098358Y-77047990D01*
X72096108Y-77045741D01*
X72096103Y-77045734D01*
X70114447Y-75064079D01*
X70092987Y-74956191D01*
X70034113Y-74814058D01*
X69948642Y-74686141D01*
X69839859Y-74577358D01*
X69711942Y-74491887D01*
X69569809Y-74433013D01*
X69418922Y-74403000D01*
X69265078Y-74403000D01*
X69114191Y-74433013D01*
X68972058Y-74491887D01*
X68844141Y-74577358D01*
X68735358Y-74686141D01*
X68649887Y-74814058D01*
X68591013Y-74956191D01*
X68561000Y-75107078D01*
X51206000Y-75107078D01*
X51206000Y-66664000D01*
X53946157Y-66664000D01*
X53946157Y-68464000D01*
X53953513Y-68538689D01*
X53975299Y-68610508D01*
X54010678Y-68676696D01*
X54058289Y-68734711D01*
X54116304Y-68782322D01*
X54182492Y-68817701D01*
X54254311Y-68839487D01*
X54329000Y-68846843D01*
X55399000Y-68846843D01*
X55473689Y-68839487D01*
X55545508Y-68817701D01*
X55611696Y-68782322D01*
X55669711Y-68734711D01*
X55678403Y-68724119D01*
X55781767Y-68779368D01*
X55954434Y-68831746D01*
X56134000Y-68849432D01*
X56313567Y-68831746D01*
X56486234Y-68779368D01*
X56558820Y-68740570D01*
X56666487Y-68846117D01*
X56859579Y-68972377D01*
X57096617Y-69057900D01*
X57277000Y-68932244D01*
X57277000Y-67691000D01*
X57257000Y-67691000D01*
X57257000Y-67437000D01*
X57277000Y-67437000D01*
X57277000Y-66195756D01*
X57096617Y-66070100D01*
X56859579Y-66155623D01*
X56765000Y-66217467D01*
X56765000Y-65370501D01*
X56812631Y-65322870D01*
X56898102Y-65194953D01*
X56956976Y-65052820D01*
X56986989Y-64901933D01*
X56986989Y-64748089D01*
X56956976Y-64597202D01*
X56898102Y-64455069D01*
X56812631Y-64327152D01*
X56703848Y-64218369D01*
X56575931Y-64132898D01*
X56433798Y-64074024D01*
X56282911Y-64044011D01*
X56129067Y-64044011D01*
X55978180Y-64074024D01*
X55836047Y-64132898D01*
X55708130Y-64218369D01*
X55599347Y-64327152D01*
X55513876Y-64455069D01*
X55455002Y-64597202D01*
X55424989Y-64748089D01*
X55424989Y-64901933D01*
X55455002Y-65052820D01*
X55503001Y-65168698D01*
X55503000Y-66297405D01*
X55473689Y-66288513D01*
X55399000Y-66281157D01*
X54329000Y-66281157D01*
X54254311Y-66288513D01*
X54182492Y-66310299D01*
X54116304Y-66345678D01*
X54058289Y-66393289D01*
X54010678Y-66451304D01*
X53975299Y-66517492D01*
X53953513Y-66589311D01*
X53946157Y-66664000D01*
X51206000Y-66664000D01*
X51206000Y-63906000D01*
X61439631Y-63906000D01*
X59003804Y-66341828D01*
G04 #@! TA.AperFunction,Conductor*
D18*
G36*
X59003804Y-66341828D02*
G01*
X58853566Y-66296254D01*
X58674000Y-66278568D01*
X58494433Y-66296254D01*
X58321766Y-66348632D01*
X58249180Y-66387430D01*
X58141513Y-66281883D01*
X57948421Y-66155623D01*
X57711383Y-66070100D01*
X57531000Y-66195756D01*
X57531000Y-67437000D01*
X57551000Y-67437000D01*
X57551000Y-67691000D01*
X57531000Y-67691000D01*
X57531000Y-68932244D01*
X57711383Y-69057900D01*
X57948421Y-68972377D01*
X58141513Y-68846117D01*
X58249181Y-68740570D01*
X58321767Y-68779368D01*
X58494434Y-68831746D01*
X58674000Y-68849432D01*
X58853567Y-68831746D01*
X59026234Y-68779368D01*
X59185365Y-68694311D01*
X59324844Y-68579844D01*
X59439311Y-68440365D01*
X59524368Y-68281234D01*
X59576746Y-68108567D01*
X59590000Y-67973998D01*
X59590000Y-67540368D01*
X62524359Y-64606010D01*
X81869250Y-64606010D01*
X81840989Y-64748089D01*
X81840989Y-64901933D01*
X81871002Y-65052820D01*
X81919001Y-65168698D01*
X81919001Y-65249545D01*
X81870630Y-65177153D01*
X81761847Y-65068370D01*
X81633930Y-64982899D01*
X81491797Y-64924025D01*
X81340910Y-64894012D01*
X81187066Y-64894012D01*
X81036179Y-64924025D01*
X80894046Y-64982899D01*
X80766129Y-65068370D01*
X80657346Y-65177153D01*
X80571875Y-65305070D01*
X80513001Y-65447203D01*
X80482988Y-65598090D01*
X80482988Y-65751934D01*
X80513001Y-65902821D01*
X80571875Y-66044954D01*
X80649001Y-66160381D01*
X80649001Y-66294977D01*
X80598492Y-66310299D01*
X80532304Y-66345678D01*
X80474289Y-66393289D01*
X80426678Y-66451304D01*
X80391299Y-66517492D01*
X80369513Y-66589311D01*
X80362157Y-66664000D01*
X80362157Y-68464000D01*
X80369513Y-68538689D01*
X80391299Y-68610508D01*
X80426678Y-68676696D01*
X80474289Y-68734711D01*
X80532304Y-68782322D01*
X80598492Y-68817701D01*
X80670311Y-68839487D01*
X80745000Y-68846843D01*
X81815000Y-68846843D01*
X81889689Y-68839487D01*
X81961508Y-68817701D01*
X82027696Y-68782322D01*
X82085711Y-68734711D01*
X82094403Y-68724119D01*
X82197767Y-68779368D01*
X82370434Y-68831746D01*
X82550000Y-68849432D01*
X82729567Y-68831746D01*
X82902234Y-68779368D01*
X82974820Y-68740570D01*
X83082487Y-68846117D01*
X83275579Y-68972377D01*
X83512617Y-69057900D01*
X83693000Y-68932244D01*
X83693000Y-67691000D01*
X83673000Y-67691000D01*
X83673000Y-67437000D01*
X83693000Y-67437000D01*
X83693000Y-66195756D01*
X83512617Y-66070100D01*
X83275579Y-66155623D01*
X83181000Y-66217467D01*
X83181000Y-65370501D01*
X83228631Y-65322870D01*
X83314102Y-65194953D01*
X83372976Y-65052820D01*
X83402989Y-64901933D01*
X83402989Y-64748089D01*
X83374728Y-64606010D01*
X84459001Y-64606010D01*
X84459000Y-66217467D01*
X84364421Y-66155623D01*
X84127383Y-66070100D01*
X83947000Y-66195756D01*
X83947000Y-67437000D01*
X83967000Y-67437000D01*
X83967000Y-67691000D01*
X83947000Y-67691000D01*
X83947000Y-68932244D01*
X84127383Y-69057900D01*
X84364421Y-68972377D01*
X84557513Y-68846117D01*
X84665181Y-68740570D01*
X84737767Y-68779368D01*
X84910434Y-68831746D01*
X85090000Y-68849432D01*
X85269567Y-68831746D01*
X85442234Y-68779368D01*
X85601365Y-68694311D01*
X85740844Y-68579844D01*
X85855311Y-68440365D01*
X85940368Y-68281234D01*
X85992746Y-68108567D01*
X86006000Y-67973998D01*
X86006000Y-67154002D01*
X85992746Y-67019433D01*
X85940368Y-66846766D01*
X85855311Y-66687635D01*
X85740844Y-66548156D01*
X85721000Y-66531871D01*
X85721000Y-64606010D01*
X108158250Y-64606010D01*
X108129989Y-64748089D01*
X108129989Y-64901933D01*
X108160002Y-65052820D01*
X108162079Y-65057834D01*
X108049930Y-64982899D01*
X107907797Y-64924025D01*
X107756910Y-64894012D01*
X107603066Y-64894012D01*
X107452179Y-64924025D01*
X107310046Y-64982899D01*
X107182129Y-65068370D01*
X107073346Y-65177153D01*
X106987875Y-65305070D01*
X106929001Y-65447203D01*
X106898988Y-65598090D01*
X106898988Y-65751934D01*
X106929001Y-65902821D01*
X106987875Y-66044954D01*
X107065001Y-66160381D01*
X107065001Y-66294977D01*
X107014492Y-66310299D01*
X106948304Y-66345678D01*
X106890289Y-66393289D01*
X106842678Y-66451304D01*
X106807299Y-66517492D01*
X106785513Y-66589311D01*
X106778157Y-66664000D01*
X106778157Y-68464000D01*
X106785513Y-68538689D01*
X106807299Y-68610508D01*
X106842678Y-68676696D01*
X106890289Y-68734711D01*
X106948304Y-68782322D01*
X107014492Y-68817701D01*
X107086311Y-68839487D01*
X107161000Y-68846843D01*
X108231000Y-68846843D01*
X108305689Y-68839487D01*
X108377508Y-68817701D01*
X108443696Y-68782322D01*
X108501711Y-68734711D01*
X108510403Y-68724119D01*
X108613767Y-68779368D01*
X108786434Y-68831746D01*
X108966000Y-68849432D01*
X109145567Y-68831746D01*
X109318234Y-68779368D01*
X109390820Y-68740570D01*
X109498487Y-68846117D01*
X109691579Y-68972377D01*
X109928617Y-69057900D01*
X110109000Y-68932244D01*
X110109000Y-67691000D01*
X110089000Y-67691000D01*
X110089000Y-67437000D01*
X110109000Y-67437000D01*
X110109000Y-66195756D01*
X109928617Y-66070100D01*
X109691579Y-66155623D01*
X109597000Y-66217467D01*
X109597000Y-65204085D01*
X109603102Y-65194953D01*
X109661976Y-65052820D01*
X109691989Y-64901933D01*
X109691989Y-64748089D01*
X109663728Y-64606010D01*
X110875001Y-64606010D01*
X110875000Y-66217467D01*
X110780421Y-66155623D01*
X110543383Y-66070100D01*
X110363000Y-66195756D01*
X110363000Y-67437000D01*
X110383000Y-67437000D01*
X110383000Y-67691000D01*
X110363000Y-67691000D01*
X110363000Y-68932244D01*
X110543383Y-69057900D01*
X110780421Y-68972377D01*
X110973513Y-68846117D01*
X111081181Y-68740570D01*
X111153767Y-68779368D01*
X111326434Y-68831746D01*
X111506000Y-68849432D01*
X111685567Y-68831746D01*
X111858234Y-68779368D01*
X112017365Y-68694311D01*
X112156844Y-68579844D01*
X112271311Y-68440365D01*
X112356368Y-68281234D01*
X112408746Y-68108567D01*
X112422000Y-67973998D01*
X112422000Y-67154002D01*
X112408746Y-67019433D01*
X112356368Y-66846766D01*
X112271311Y-66687635D01*
X112156844Y-66548156D01*
X112137000Y-66531871D01*
X112137000Y-64606010D01*
X135217642Y-64606010D01*
X136691442Y-66079811D01*
X136525000Y-66195756D01*
X136525000Y-67437000D01*
X136545000Y-67437000D01*
X136545000Y-67691000D01*
X136525000Y-67691000D01*
X136525000Y-68932244D01*
X136705383Y-69057900D01*
X136942421Y-68972377D01*
X137135513Y-68846117D01*
X137243181Y-68740570D01*
X137315767Y-68779368D01*
X137488434Y-68831746D01*
X137668000Y-68849432D01*
X137847567Y-68831746D01*
X138020234Y-68779368D01*
X138179365Y-68694311D01*
X138318844Y-68579844D01*
X138433311Y-68440365D01*
X138518368Y-68281234D01*
X138570746Y-68108567D01*
X138584000Y-67973998D01*
X138584000Y-67154002D01*
X138570746Y-67019433D01*
X138518368Y-66846766D01*
X138433311Y-66687635D01*
X138318844Y-66548156D01*
X138299000Y-66531871D01*
X138299000Y-66194987D01*
X138302052Y-66163999D01*
X138299000Y-66133011D01*
X138299000Y-66133002D01*
X138289870Y-66040302D01*
X138253789Y-65921358D01*
X138195196Y-65811739D01*
X138116343Y-65715657D01*
X138092268Y-65695899D01*
X136302368Y-63906000D01*
X140945001Y-63906000D01*
X140945000Y-82569940D01*
X140945001Y-82569950D01*
X140945000Y-83414000D01*
X51206000Y-83414000D01*
X51206000Y-79234987D01*
X56151000Y-79234987D01*
X56151000Y-80023012D01*
X56163965Y-80154646D01*
X56215199Y-80323542D01*
X56298399Y-80479198D01*
X56410367Y-80615633D01*
X56546801Y-80727601D01*
X56702457Y-80810801D01*
X56871353Y-80862035D01*
X57047000Y-80879335D01*
X57222646Y-80862035D01*
X57391542Y-80810801D01*
X57547198Y-80727601D01*
X57683633Y-80615633D01*
X57733830Y-80554467D01*
X57755810Y-80595589D01*
X57834512Y-80691488D01*
X57930411Y-80770190D01*
X58039821Y-80828671D01*
X58158538Y-80864683D01*
X58281999Y-80876843D01*
X58812001Y-80876843D01*
X58935462Y-80864683D01*
X59054179Y-80828671D01*
X59163589Y-80770190D01*
X59259488Y-80691488D01*
X59338190Y-80595589D01*
X59396671Y-80486179D01*
X59432683Y-80367462D01*
X59444843Y-80244001D01*
X59444843Y-79013999D01*
X59432683Y-78890538D01*
X59396671Y-78771821D01*
X59338190Y-78662411D01*
X59259488Y-78566512D01*
X59163589Y-78487810D01*
X59054179Y-78429329D01*
X58935462Y-78393317D01*
X58812001Y-78381157D01*
X58281999Y-78381157D01*
X58158538Y-78393317D01*
X58039821Y-78429329D01*
X57930411Y-78487810D01*
X57834512Y-78566512D01*
X57755810Y-78662411D01*
X57733830Y-78703533D01*
X57683633Y-78642367D01*
X57547199Y-78530399D01*
X57391543Y-78447199D01*
X57222647Y-78395965D01*
X57047000Y-78378665D01*
X56871354Y-78395965D01*
X56702458Y-78447199D01*
X56546802Y-78530399D01*
X56410368Y-78642367D01*
X56298400Y-78778801D01*
X56215200Y-78934457D01*
X56163965Y-79103353D01*
X56151000Y-79234987D01*
X51206000Y-79234987D01*
X51206000Y-75107078D01*
X68561000Y-75107078D01*
X68561000Y-75260922D01*
X68591013Y-75411809D01*
X68649887Y-75553942D01*
X68735358Y-75681859D01*
X68844141Y-75790642D01*
X68972058Y-75876113D01*
X69114191Y-75934987D01*
X69222079Y-75956447D01*
X71203734Y-77938103D01*
X71203741Y-77938108D01*
X71368881Y-78103248D01*
X71388647Y-78127333D01*
X71484729Y-78206186D01*
X71594348Y-78264779D01*
X71713292Y-78300860D01*
X71805992Y-78309990D01*
X71806001Y-78309990D01*
X71836989Y-78313042D01*
X71867977Y-78309990D01*
X81804453Y-78309990D01*
X81742200Y-78426457D01*
X81690965Y-78595353D01*
X81678000Y-78726987D01*
X81678000Y-79515012D01*
X81690965Y-79646646D01*
X81742199Y-79815542D01*
X81825399Y-79971198D01*
X81937367Y-80107633D01*
X82073801Y-80219601D01*
X82229457Y-80302801D01*
X82398353Y-80354035D01*
X82574000Y-80371335D01*
X82749646Y-80354035D01*
X82918542Y-80302801D01*
X83074198Y-80219601D01*
X83210633Y-80107633D01*
X83260830Y-80046467D01*
X83282810Y-80087589D01*
X83361512Y-80183488D01*
X83457411Y-80262190D01*
X83566821Y-80320671D01*
X83685538Y-80356683D01*
X83808999Y-80368843D01*
X84339001Y-80368843D01*
X84462462Y-80356683D01*
X84581179Y-80320671D01*
X84690589Y-80262190D01*
X84786488Y-80183488D01*
X84865190Y-80087589D01*
X84923671Y-79978179D01*
X84959683Y-79859462D01*
X84971843Y-79736001D01*
X84971843Y-78505999D01*
X84959683Y-78382538D01*
X84937676Y-78309990D01*
X98676954Y-78309990D01*
X98670157Y-78378999D01*
X98670157Y-79609001D01*
X98682317Y-79732462D01*
X98718329Y-79851179D01*
X98776810Y-79960589D01*
X98855512Y-80056488D01*
X98951411Y-80135190D01*
X99019636Y-80171657D01*
X99040804Y-80211260D01*
X99119657Y-80307343D01*
X99143737Y-80327105D01*
X99803905Y-80987273D01*
X99823667Y-81011353D01*
X99919749Y-81090206D01*
X100029368Y-81148799D01*
X100148312Y-81184880D01*
X100241012Y-81194010D01*
X100241021Y-81194010D01*
X100272009Y-81197062D01*
X100302997Y-81194010D01*
X111430000Y-81194010D01*
X111460990Y-81197062D01*
X111491980Y-81194010D01*
X111491988Y-81194010D01*
X111584688Y-81184880D01*
X111703632Y-81148799D01*
X111813251Y-81090206D01*
X111909333Y-81011353D01*
X111929095Y-80987273D01*
X112137368Y-80779000D01*
X122194928Y-80779000D01*
X122207188Y-80903482D01*
X122243498Y-81023180D01*
X122302463Y-81133494D01*
X122381815Y-81230185D01*
X122478506Y-81309537D01*
X122588820Y-81368502D01*
X122708518Y-81404812D01*
X122833000Y-81417072D01*
X123412250Y-81414000D01*
X123571000Y-81255250D01*
X123571000Y-80391000D01*
X123825000Y-80391000D01*
X123825000Y-81255250D01*
X123983750Y-81414000D01*
X124563000Y-81417072D01*
X124687482Y-81404812D01*
X124807180Y-81368502D01*
X124917494Y-81309537D01*
X125014185Y-81230185D01*
X125093537Y-81133494D01*
X125152502Y-81023180D01*
X125188812Y-80903482D01*
X125201072Y-80779000D01*
X125198000Y-80549750D01*
X125039250Y-80391000D01*
X123825000Y-80391000D01*
X123571000Y-80391000D01*
X122356750Y-80391000D01*
X122198000Y-80549750D01*
X122194928Y-80779000D01*
X112137368Y-80779000D01*
X113403921Y-79512447D01*
X113511809Y-79490987D01*
X113653942Y-79432113D01*
X113781859Y-79346642D01*
X113890642Y-79237859D01*
X113976113Y-79109942D01*
X114034987Y-78967809D01*
X114065000Y-78816922D01*
X114065000Y-78663078D01*
X114034987Y-78512191D01*
X113976113Y-78370058D01*
X113935977Y-78309990D01*
X115940081Y-78309990D01*
X115988368Y-78335800D01*
X116067971Y-78359947D01*
X116107308Y-78371880D01*
X116107309Y-78371880D01*
X116107312Y-78371881D01*
X116200012Y-78381011D01*
X116200017Y-78381011D01*
X116231005Y-78384063D01*
X116261996Y-78381011D01*
X118395964Y-78381011D01*
X118426954Y-78384063D01*
X118457944Y-78381011D01*
X118457952Y-78381011D01*
X118550652Y-78371881D01*
X118669596Y-78335800D01*
X118779215Y-78277207D01*
X118875297Y-78198354D01*
X118895059Y-78174274D01*
X120377279Y-76692055D01*
X120401353Y-76672298D01*
X120458149Y-76603093D01*
X120480206Y-76576216D01*
X120538799Y-76466597D01*
X120545358Y-76444975D01*
X120574880Y-76347653D01*
X120584010Y-76254953D01*
X120584010Y-76254944D01*
X120587062Y-76223956D01*
X120584010Y-76192968D01*
X120584010Y-70960511D01*
X120592887Y-70981942D01*
X120654000Y-71073405D01*
X120654001Y-77685000D01*
X120650948Y-77716000D01*
X120663130Y-77839697D01*
X120699211Y-77958641D01*
X120757804Y-78068260D01*
X120816897Y-78140265D01*
X120816900Y-78140268D01*
X120836658Y-78164343D01*
X120860733Y-78184101D01*
X121864899Y-79188268D01*
X121884657Y-79212343D01*
X121908732Y-79232101D01*
X121908734Y-79232103D01*
X121958824Y-79273211D01*
X121980739Y-79291196D01*
X122090358Y-79349789D01*
X122209302Y-79385870D01*
X122302002Y-79395000D01*
X122302009Y-79395000D01*
X122302189Y-79395018D01*
X122243498Y-79504820D01*
X122207188Y-79624518D01*
X122194928Y-79749000D01*
X122198000Y-79978250D01*
X122356750Y-80137000D01*
X123571000Y-80137000D01*
X123571000Y-80117000D01*
X123825000Y-80117000D01*
X123825000Y-80137000D01*
X125039250Y-80137000D01*
X125198000Y-79978250D01*
X125201072Y-79749000D01*
X125188812Y-79624518D01*
X125152502Y-79504820D01*
X125093537Y-79394506D01*
X125014185Y-79297815D01*
X124917494Y-79218463D01*
X124842480Y-79178366D01*
X124879801Y-79108543D01*
X124931035Y-78939647D01*
X124948335Y-78764000D01*
X124931035Y-78588353D01*
X124879801Y-78419457D01*
X124796601Y-78263801D01*
X124684633Y-78127367D01*
X124548199Y-78015399D01*
X124545582Y-78014000D01*
X124548199Y-78012601D01*
X124684633Y-77900633D01*
X124796601Y-77764199D01*
X124879801Y-77608543D01*
X124931035Y-77439647D01*
X124948335Y-77264000D01*
X124931035Y-77088353D01*
X124879801Y-76919457D01*
X124796601Y-76763801D01*
X124684633Y-76627367D01*
X124653724Y-76602000D01*
X131173738Y-76602000D01*
X131178001Y-76645280D01*
X131178000Y-78807272D01*
X131190748Y-78936705D01*
X131241125Y-79102774D01*
X131322932Y-79255824D01*
X131433025Y-79389975D01*
X131567175Y-79500068D01*
X131720225Y-79581875D01*
X131886294Y-79632252D01*
X132059000Y-79649262D01*
X132231705Y-79632252D01*
X132397774Y-79581875D01*
X132550824Y-79500068D01*
X132684975Y-79389975D01*
X132795068Y-79255825D01*
X132876875Y-79102775D01*
X132927252Y-78936706D01*
X132940000Y-78807273D01*
X132940000Y-76966921D01*
X133434360Y-76472562D01*
X133467975Y-76444975D01*
X133539133Y-76358268D01*
X133578068Y-76310826D01*
X133635167Y-76204000D01*
X133659875Y-76157775D01*
X133710252Y-75991706D01*
X133723000Y-75862273D01*
X133723000Y-75862271D01*
X133727262Y-75819001D01*
X133723000Y-75775731D01*
X133723000Y-72219727D01*
X133710252Y-72090294D01*
X133659875Y-71924225D01*
X133578068Y-71771175D01*
X133467975Y-71637025D01*
X133333824Y-71526932D01*
X133180774Y-71445125D01*
X133014705Y-71394748D01*
X132842000Y-71377738D01*
X132669294Y-71394748D01*
X132503225Y-71445125D01*
X132350175Y-71526932D01*
X132216025Y-71637025D01*
X132105932Y-71771176D01*
X132024125Y-71924226D01*
X131973748Y-72090295D01*
X131961000Y-72219728D01*
X131961001Y-75454077D01*
X131466640Y-75948439D01*
X131433026Y-75976025D01*
X131391085Y-76027131D01*
X131322932Y-76110175D01*
X131241125Y-76263226D01*
X131206421Y-76377631D01*
X131191200Y-76427809D01*
X131190749Y-76429295D01*
X131173738Y-76602000D01*
X124653724Y-76602000D01*
X124548199Y-76515399D01*
X124545582Y-76514000D01*
X124548199Y-76512601D01*
X124684633Y-76400633D01*
X124796601Y-76264199D01*
X124879801Y-76108543D01*
X124931035Y-75939647D01*
X124948335Y-75764000D01*
X124931035Y-75588353D01*
X124879801Y-75419457D01*
X124796601Y-75263801D01*
X124684633Y-75127367D01*
X124548199Y-75015399D01*
X124545582Y-75014000D01*
X124548199Y-75012601D01*
X124684633Y-74900633D01*
X124796601Y-74764199D01*
X124879801Y-74608543D01*
X124931035Y-74439647D01*
X124948335Y-74264000D01*
X124931035Y-74088353D01*
X124879801Y-73919457D01*
X124796601Y-73763801D01*
X124684633Y-73627367D01*
X124548199Y-73515399D01*
X124545582Y-73514000D01*
X124548199Y-73512601D01*
X124684633Y-73400633D01*
X124796601Y-73264199D01*
X124879801Y-73108543D01*
X124931035Y-72939647D01*
X124948335Y-72764000D01*
X124931035Y-72588353D01*
X124879801Y-72419457D01*
X124796601Y-72263801D01*
X124684633Y-72127367D01*
X124548199Y-72015399D01*
X124545582Y-72014000D01*
X124548199Y-72012601D01*
X124684633Y-71900633D01*
X124796601Y-71764199D01*
X124879801Y-71608543D01*
X124931035Y-71439647D01*
X124948335Y-71264000D01*
X124931035Y-71088353D01*
X124879801Y-70919457D01*
X124796601Y-70763801D01*
X124684633Y-70627367D01*
X124548199Y-70515399D01*
X124545582Y-70514000D01*
X124548199Y-70512601D01*
X124684633Y-70400633D01*
X124796601Y-70264199D01*
X124879801Y-70108543D01*
X124931035Y-69939647D01*
X124948335Y-69764000D01*
X124931035Y-69588353D01*
X124879801Y-69419457D01*
X124796601Y-69263801D01*
X124684633Y-69127367D01*
X124548199Y-69015399D01*
X124545582Y-69014000D01*
X124548199Y-69012601D01*
X124684633Y-68900633D01*
X124796601Y-68764199D01*
X124879801Y-68608543D01*
X124931035Y-68439647D01*
X124948335Y-68264000D01*
X124931035Y-68088353D01*
X124879801Y-67919457D01*
X124796601Y-67763801D01*
X124684633Y-67627367D01*
X124548199Y-67515399D01*
X124545582Y-67514000D01*
X124548199Y-67512601D01*
X124684633Y-67400633D01*
X124796601Y-67264199D01*
X124879801Y-67108543D01*
X124931035Y-66939647D01*
X124948335Y-66764000D01*
X124938486Y-66664000D01*
X132940157Y-66664000D01*
X132940157Y-68464000D01*
X132947513Y-68538689D01*
X132969299Y-68610508D01*
X133004678Y-68676696D01*
X133052289Y-68734711D01*
X133110304Y-68782322D01*
X133176492Y-68817701D01*
X133248311Y-68839487D01*
X133323000Y-68846843D01*
X134393000Y-68846843D01*
X134467689Y-68839487D01*
X134539508Y-68817701D01*
X134605696Y-68782322D01*
X134663711Y-68734711D01*
X134672403Y-68724119D01*
X134775767Y-68779368D01*
X134948434Y-68831746D01*
X135128000Y-68849432D01*
X135307567Y-68831746D01*
X135480234Y-68779368D01*
X135552820Y-68740570D01*
X135660487Y-68846117D01*
X135853579Y-68972377D01*
X136090617Y-69057900D01*
X136271000Y-68932244D01*
X136271000Y-67691000D01*
X136251000Y-67691000D01*
X136251000Y-67437000D01*
X136271000Y-67437000D01*
X136271000Y-66195756D01*
X136090617Y-66070100D01*
X135853579Y-66155623D01*
X135660487Y-66281883D01*
X135552819Y-66387430D01*
X135480233Y-66348632D01*
X135307566Y-66296254D01*
X135128000Y-66278568D01*
X134948433Y-66296254D01*
X134775766Y-66348632D01*
X134672403Y-66403880D01*
X134663711Y-66393289D01*
X134605696Y-66345678D01*
X134539508Y-66310299D01*
X134467689Y-66288513D01*
X134393000Y-66281157D01*
X133323000Y-66281157D01*
X133248311Y-66288513D01*
X133176492Y-66310299D01*
X133110304Y-66345678D01*
X133052289Y-66393289D01*
X133004678Y-66451304D01*
X132969299Y-66517492D01*
X132947513Y-66589311D01*
X132940157Y-66664000D01*
X124938486Y-66664000D01*
X124931035Y-66588353D01*
X124879801Y-66419457D01*
X124796601Y-66263801D01*
X124684633Y-66127367D01*
X124548199Y-66015399D01*
X124392543Y-65932199D01*
X124223647Y-65880965D01*
X124092013Y-65868000D01*
X123303987Y-65868000D01*
X123172353Y-65880965D01*
X123003457Y-65932199D01*
X122847801Y-66015399D01*
X122711367Y-66127367D01*
X122599399Y-66263801D01*
X122516199Y-66419457D01*
X122464965Y-66588353D01*
X122447665Y-66764000D01*
X122464965Y-66939647D01*
X122516199Y-67108543D01*
X122599399Y-67264199D01*
X122711367Y-67400633D01*
X122847801Y-67512601D01*
X122850418Y-67514000D01*
X122847801Y-67515399D01*
X122711367Y-67627367D01*
X122599399Y-67763801D01*
X122568291Y-67822000D01*
X119283998Y-67822000D01*
X119253000Y-67818947D01*
X119222002Y-67822000D01*
X119129302Y-67831130D01*
X119010358Y-67867211D01*
X118900739Y-67925804D01*
X118804657Y-68004657D01*
X118725804Y-68100739D01*
X118667211Y-68210358D01*
X118631130Y-68329302D01*
X118618947Y-68453000D01*
X118622001Y-68484008D01*
X118622000Y-75672633D01*
X118433843Y-75860790D01*
X118421113Y-75830058D01*
X118335642Y-75702141D01*
X118226859Y-75593358D01*
X118098942Y-75507887D01*
X118090043Y-75504201D01*
X118099859Y-75497642D01*
X118208642Y-75388859D01*
X118294113Y-75260942D01*
X118352987Y-75118809D01*
X118383000Y-74967922D01*
X118383000Y-74814078D01*
X118352987Y-74663191D01*
X118294113Y-74521058D01*
X118233000Y-74429595D01*
X118233000Y-71023987D01*
X118236052Y-70992999D01*
X118233000Y-70962011D01*
X118233000Y-70962002D01*
X118223870Y-70869302D01*
X118187789Y-70750358D01*
X118129196Y-70640739D01*
X118080171Y-70581002D01*
X118070103Y-70568734D01*
X118070101Y-70568732D01*
X118050343Y-70544657D01*
X118026268Y-70524899D01*
X116927105Y-69425737D01*
X116907343Y-69401657D01*
X116811261Y-69322804D01*
X116701642Y-69264211D01*
X116582698Y-69228130D01*
X116489998Y-69219000D01*
X116489990Y-69219000D01*
X116459000Y-69215948D01*
X116428010Y-69219000D01*
X90885405Y-69219000D01*
X90793942Y-69157887D01*
X90651809Y-69099013D01*
X90500922Y-69069000D01*
X90347078Y-69069000D01*
X90196191Y-69099013D01*
X90054058Y-69157887D01*
X89962595Y-69219000D01*
X80525369Y-69219000D01*
X78954105Y-67647737D01*
X78934343Y-67623657D01*
X78838261Y-67544804D01*
X78728642Y-67486211D01*
X78609698Y-67450130D01*
X78516998Y-67441000D01*
X78516990Y-67441000D01*
X78486000Y-67437948D01*
X78455010Y-67441000D01*
X70565405Y-67441000D01*
X70473942Y-67379887D01*
X70331809Y-67321013D01*
X70180922Y-67291000D01*
X70027078Y-67291000D01*
X69876191Y-67321013D01*
X69734058Y-67379887D01*
X69606141Y-67465358D01*
X69497358Y-67574141D01*
X69411887Y-67702058D01*
X69353013Y-67844191D01*
X69323000Y-67995078D01*
X69323000Y-68148922D01*
X69353013Y-68299809D01*
X69411887Y-68441942D01*
X69497358Y-68569859D01*
X69606141Y-68678642D01*
X69734058Y-68764113D01*
X69876191Y-68822987D01*
X70027078Y-68853000D01*
X70180922Y-68853000D01*
X70331809Y-68822987D01*
X70473942Y-68764113D01*
X70565405Y-68703000D01*
X78224632Y-68703000D01*
X79795899Y-70274268D01*
X79815657Y-70298343D01*
X79911739Y-70377196D01*
X80021358Y-70435789D01*
X80140302Y-70471870D01*
X80233002Y-70481000D01*
X80233009Y-70481000D01*
X80264000Y-70484052D01*
X80294990Y-70481000D01*
X89962595Y-70481000D01*
X90054058Y-70542113D01*
X90196191Y-70600987D01*
X90347078Y-70631000D01*
X90500922Y-70631000D01*
X90651809Y-70600987D01*
X90793942Y-70542113D01*
X90885405Y-70481000D01*
X116197632Y-70481000D01*
X116971001Y-71254370D01*
X116971000Y-74429595D01*
X116909887Y-74521058D01*
X116851013Y-74663191D01*
X116821000Y-74814078D01*
X116821000Y-74967922D01*
X116851013Y-75118809D01*
X116909887Y-75260942D01*
X116995358Y-75388859D01*
X117104141Y-75497642D01*
X117210936Y-75569000D01*
X116875598Y-75569000D01*
X116838557Y-75549201D01*
X116719613Y-75513120D01*
X116626913Y-75503990D01*
X116626905Y-75503990D01*
X116595915Y-75500938D01*
X116564925Y-75503990D01*
X112845359Y-75503990D01*
X112518000Y-75176632D01*
X112518000Y-73563998D01*
X112521053Y-73533000D01*
X112508870Y-73409302D01*
X112472789Y-73290358D01*
X112414196Y-73180739D01*
X112355103Y-73108734D01*
X112355101Y-73108732D01*
X112335343Y-73084657D01*
X112311268Y-73064899D01*
X112024447Y-72778078D01*
X112002987Y-72670191D01*
X111944113Y-72528058D01*
X111858642Y-72400141D01*
X111749859Y-72291358D01*
X111621942Y-72205887D01*
X111479809Y-72147013D01*
X111371922Y-72125553D01*
X110704105Y-71457737D01*
X110684343Y-71433657D01*
X110588261Y-71354804D01*
X110478642Y-71296211D01*
X110359698Y-71260130D01*
X110266998Y-71251000D01*
X110266990Y-71251000D01*
X110236000Y-71247948D01*
X110205010Y-71251000D01*
X91901405Y-71251000D01*
X91809942Y-71189887D01*
X91667809Y-71131013D01*
X91516922Y-71101000D01*
X91363078Y-71101000D01*
X91212191Y-71131013D01*
X91070058Y-71189887D01*
X90978595Y-71251000D01*
X73159369Y-71251000D01*
X71892447Y-69984079D01*
X71870987Y-69876191D01*
X71812113Y-69734058D01*
X71726642Y-69606141D01*
X71617859Y-69497358D01*
X71489942Y-69411887D01*
X71347809Y-69353013D01*
X71196922Y-69323000D01*
X71043078Y-69323000D01*
X70892191Y-69353013D01*
X70750058Y-69411887D01*
X70622141Y-69497358D01*
X70513358Y-69606141D01*
X70427887Y-69734058D01*
X70369013Y-69876191D01*
X70339000Y-70027078D01*
X70339000Y-70180922D01*
X70369013Y-70331809D01*
X70427887Y-70473942D01*
X70513358Y-70601859D01*
X70622141Y-70710642D01*
X70750058Y-70796113D01*
X70892191Y-70854987D01*
X71000079Y-70876447D01*
X72429899Y-72306268D01*
X72449657Y-72330343D01*
X72473732Y-72350101D01*
X72473734Y-72350103D01*
X72535768Y-72401013D01*
X72545739Y-72409196D01*
X72655358Y-72467789D01*
X72774302Y-72503870D01*
X72867002Y-72513000D01*
X72867009Y-72513000D01*
X72898000Y-72516052D01*
X72928990Y-72513000D01*
X90978595Y-72513000D01*
X91070058Y-72574113D01*
X91212191Y-72632987D01*
X91363078Y-72663000D01*
X91516922Y-72663000D01*
X91667809Y-72632987D01*
X91809942Y-72574113D01*
X91901405Y-72513000D01*
X107627568Y-72513000D01*
X107579141Y-72545358D01*
X107470358Y-72654141D01*
X107384887Y-72782058D01*
X107326013Y-72924191D01*
X107296000Y-73075078D01*
X107296000Y-73228922D01*
X107326013Y-73379809D01*
X107384887Y-73521942D01*
X107470358Y-73649859D01*
X107579141Y-73758642D01*
X107707058Y-73844113D01*
X107779930Y-73874298D01*
X109336553Y-75430922D01*
X109358013Y-75538809D01*
X109416887Y-75680942D01*
X109502358Y-75808859D01*
X109611141Y-75917642D01*
X109739058Y-76003113D01*
X109881191Y-76061987D01*
X110032078Y-76092000D01*
X110185922Y-76092000D01*
X110336809Y-76061987D01*
X110478942Y-76003113D01*
X110606859Y-75917642D01*
X110715642Y-75808859D01*
X110801113Y-75680942D01*
X110859987Y-75538809D01*
X110890000Y-75387922D01*
X110890000Y-75234078D01*
X110859987Y-75083191D01*
X110801113Y-74941058D01*
X110715642Y-74813141D01*
X110606859Y-74704358D01*
X110478942Y-74618887D01*
X110336809Y-74560013D01*
X110228922Y-74538553D01*
X108858000Y-73167632D01*
X108858000Y-73075078D01*
X108827987Y-72924191D01*
X108769113Y-72782058D01*
X108683642Y-72654141D01*
X108574859Y-72545358D01*
X108526432Y-72513000D01*
X109974632Y-72513000D01*
X110479553Y-73017922D01*
X110501013Y-73125809D01*
X110559887Y-73267942D01*
X110645358Y-73395859D01*
X110754141Y-73504642D01*
X110882058Y-73590113D01*
X111024191Y-73648987D01*
X111132078Y-73670447D01*
X111256001Y-73794370D01*
X111256000Y-75407009D01*
X111252948Y-75438000D01*
X111256000Y-75468990D01*
X111256000Y-75468997D01*
X111265130Y-75561697D01*
X111301211Y-75680641D01*
X111359804Y-75790260D01*
X111438657Y-75886343D01*
X111462737Y-75906105D01*
X111760632Y-76204000D01*
X95130369Y-76204000D01*
X93990447Y-75064079D01*
X93968987Y-74956191D01*
X93910113Y-74814058D01*
X93824642Y-74686141D01*
X93715859Y-74577358D01*
X93587942Y-74491887D01*
X93445809Y-74433013D01*
X93294922Y-74403000D01*
X93141078Y-74403000D01*
X92990191Y-74433013D01*
X92848058Y-74491887D01*
X92720141Y-74577358D01*
X92611358Y-74686141D01*
X92525887Y-74814058D01*
X92467013Y-74956191D01*
X92437000Y-75107078D01*
X92437000Y-75260922D01*
X92467013Y-75411809D01*
X92525887Y-75553942D01*
X92611358Y-75681859D01*
X92720141Y-75790642D01*
X92848058Y-75876113D01*
X92990191Y-75934987D01*
X93098079Y-75956447D01*
X94189621Y-77047990D01*
X72098358Y-77047990D01*
X72096108Y-77045741D01*
X72096103Y-77045734D01*
X70114447Y-75064079D01*
X70092987Y-74956191D01*
X70034113Y-74814058D01*
X69948642Y-74686141D01*
X69839859Y-74577358D01*
X69711942Y-74491887D01*
X69569809Y-74433013D01*
X69418922Y-74403000D01*
X69265078Y-74403000D01*
X69114191Y-74433013D01*
X68972058Y-74491887D01*
X68844141Y-74577358D01*
X68735358Y-74686141D01*
X68649887Y-74814058D01*
X68591013Y-74956191D01*
X68561000Y-75107078D01*
X51206000Y-75107078D01*
X51206000Y-66664000D01*
X53946157Y-66664000D01*
X53946157Y-68464000D01*
X53953513Y-68538689D01*
X53975299Y-68610508D01*
X54010678Y-68676696D01*
X54058289Y-68734711D01*
X54116304Y-68782322D01*
X54182492Y-68817701D01*
X54254311Y-68839487D01*
X54329000Y-68846843D01*
X55399000Y-68846843D01*
X55473689Y-68839487D01*
X55545508Y-68817701D01*
X55611696Y-68782322D01*
X55669711Y-68734711D01*
X55678403Y-68724119D01*
X55781767Y-68779368D01*
X55954434Y-68831746D01*
X56134000Y-68849432D01*
X56313567Y-68831746D01*
X56486234Y-68779368D01*
X56558820Y-68740570D01*
X56666487Y-68846117D01*
X56859579Y-68972377D01*
X57096617Y-69057900D01*
X57277000Y-68932244D01*
X57277000Y-67691000D01*
X57257000Y-67691000D01*
X57257000Y-67437000D01*
X57277000Y-67437000D01*
X57277000Y-66195756D01*
X57096617Y-66070100D01*
X56859579Y-66155623D01*
X56765000Y-66217467D01*
X56765000Y-65370501D01*
X56812631Y-65322870D01*
X56898102Y-65194953D01*
X56956976Y-65052820D01*
X56986989Y-64901933D01*
X56986989Y-64748089D01*
X56956976Y-64597202D01*
X56898102Y-64455069D01*
X56812631Y-64327152D01*
X56703848Y-64218369D01*
X56575931Y-64132898D01*
X56433798Y-64074024D01*
X56282911Y-64044011D01*
X56129067Y-64044011D01*
X55978180Y-64074024D01*
X55836047Y-64132898D01*
X55708130Y-64218369D01*
X55599347Y-64327152D01*
X55513876Y-64455069D01*
X55455002Y-64597202D01*
X55424989Y-64748089D01*
X55424989Y-64901933D01*
X55455002Y-65052820D01*
X55503001Y-65168698D01*
X55503000Y-66297405D01*
X55473689Y-66288513D01*
X55399000Y-66281157D01*
X54329000Y-66281157D01*
X54254311Y-66288513D01*
X54182492Y-66310299D01*
X54116304Y-66345678D01*
X54058289Y-66393289D01*
X54010678Y-66451304D01*
X53975299Y-66517492D01*
X53953513Y-66589311D01*
X53946157Y-66664000D01*
X51206000Y-66664000D01*
X51206000Y-63906000D01*
X61439631Y-63906000D01*
X59003804Y-66341828D01*
G37*
G04 #@! TD.AperFunction*
M02*
