%TF.GenerationSoftware,KiCad,Pcbnew,8.0.1*%
%TF.CreationDate,2024-05-30T20:48:41+03:00*%
%TF.ProjectId,jantteri-hit-detector,6a616e74-7465-4726-992d-6869742d6465,rev?*%
%TF.SameCoordinates,Original*%
%TF.FileFunction,Copper,L2,Bot*%
%TF.FilePolarity,Positive*%
%FSLAX46Y46*%
G04 Gerber Fmt 4.6, Leading zero omitted, Abs format (unit mm)*
G04 Created by KiCad (PCBNEW 8.0.1) date 2024-05-30 20:48:41*
%MOMM*%
%LPD*%
G01*
G04 APERTURE LIST*
G04 Aperture macros list*
%AMRoundRect*
0 Rectangle with rounded corners*
0 $1 Rounding radius*
0 $2 $3 $4 $5 $6 $7 $8 $9 X,Y pos of 4 corners*
0 Add a 4 corners polygon primitive as box body*
4,1,4,$2,$3,$4,$5,$6,$7,$8,$9,$2,$3,0*
0 Add four circle primitives for the rounded corners*
1,1,$1+$1,$2,$3*
1,1,$1+$1,$4,$5*
1,1,$1+$1,$6,$7*
1,1,$1+$1,$8,$9*
0 Add four rect primitives between the rounded corners*
20,1,$1+$1,$2,$3,$4,$5,0*
20,1,$1+$1,$4,$5,$6,$7,0*
20,1,$1+$1,$6,$7,$8,$9,0*
20,1,$1+$1,$8,$9,$2,$3,0*%
G04 Aperture macros list end*
%TA.AperFunction,ComponentPad*%
%ADD10RoundRect,0.249999X-0.265001X-0.615001X0.265001X-0.615001X0.265001X0.615001X-0.265001X0.615001X0*%
%TD*%
%TA.AperFunction,ComponentPad*%
%ADD11O,1.030000X1.730000*%
%TD*%
%TA.AperFunction,ViaPad*%
%ADD12C,0.800000*%
%TD*%
%TA.AperFunction,Conductor*%
%ADD13C,0.524000*%
%TD*%
%TA.AperFunction,Conductor*%
%ADD14C,0.250000*%
%TD*%
G04 APERTURE END LIST*
D10*
%TO.P,J1,1,Pin_1*%
%TO.N,HIT_TX*%
X105736000Y-48768000D03*
D11*
%TO.P,J1,2,Pin_2*%
%TO.N,HIT_RX*%
X107236000Y-48768000D03*
%TO.P,J1,3,Pin_3*%
%TO.N,VCC*%
X108736000Y-48768000D03*
%TO.P,J1,4,Pin_4*%
%TO.N,GND*%
X110236000Y-48768000D03*
%TD*%
D12*
%TO.N,+3V3*%
X136652000Y-39573200D03*
X133146800Y-41656000D03*
X72948800Y-41808400D03*
X97840800Y-41808400D03*
%TO.N,GND*%
X85801200Y-48615600D03*
X76403200Y-43180000D03*
X140411200Y-43738800D03*
X94284800Y-47701200D03*
X105816400Y-43738800D03*
X141122400Y-51206400D03*
X109778800Y-42519600D03*
X65481200Y-51403301D03*
X94386400Y-49530000D03*
X77622400Y-43180000D03*
X102311200Y-49072800D03*
X102311200Y-50241200D03*
X76911200Y-49072800D03*
X72694800Y-50952400D03*
X137566400Y-38709600D03*
X74168000Y-43535600D03*
X109728000Y-43688000D03*
X72223800Y-43369661D03*
%TO.N,VCC*%
X133604000Y-50038000D03*
%TO.N,HIT_TX*%
X83644077Y-46919898D03*
%TO.N,HIT_RX*%
X82854800Y-47644898D03*
%TO.N,/STM32G030C8T6/NRST*%
X64363600Y-51511200D03*
X83769200Y-48463200D03*
%TO.N,KX_SCLK*%
X100787200Y-38862000D03*
X135636000Y-38862000D03*
X65735200Y-38862000D03*
X89966800Y-38862000D03*
%TO.N,KX_MOSI*%
X89357200Y-40690800D03*
X99300200Y-40690800D03*
X64058800Y-40690800D03*
X134010400Y-40690800D03*
%TO.N,KX_MISO*%
X86055200Y-39776400D03*
X134823200Y-39776400D03*
X100025200Y-39776400D03*
X64973200Y-39776400D03*
%TO.N,KX1_INT1*%
X101752400Y-41415800D03*
X87934800Y-43180000D03*
%TO.N,KX1_INT2*%
X105816400Y-42014500D03*
X86868000Y-43854200D03*
%TO.N,KX2_INT1*%
X86004400Y-45313600D03*
X119634000Y-43281600D03*
X136601200Y-41300400D03*
%TO.N,KX1_CS*%
X100787200Y-42722800D03*
X84504986Y-44374614D03*
%TO.N,KX2_INT2*%
X84582000Y-46278801D03*
X140411200Y-42014500D03*
X141986000Y-42113200D03*
%TO.N,KX2_CS*%
X83616800Y-45669200D03*
X135788400Y-42722800D03*
X133756400Y-43738800D03*
%TO.N,KX3_CS*%
X73406000Y-45364400D03*
X65125600Y-42773600D03*
%TO.N,KX3_INT1*%
X66649600Y-41452800D03*
X74168000Y-50393600D03*
%TO.N,KX3_INT2*%
X70815200Y-42014500D03*
X75064998Y-51403301D03*
X75793600Y-44246800D03*
%TD*%
D13*
%TO.N,+3V3*%
X133146800Y-41656000D02*
X134569200Y-41656000D01*
X97840800Y-41808400D02*
X72948800Y-41808400D01*
X134569200Y-41656000D02*
X136652000Y-39573200D01*
%TO.N,GND*%
X94386400Y-49530000D02*
X94386400Y-47802800D01*
D14*
X72223800Y-43369661D02*
X74002061Y-43369661D01*
D13*
X94386400Y-47802800D02*
X94284800Y-47701200D01*
D14*
X74002061Y-43369661D02*
X74168000Y-43535600D01*
D13*
%TO.N,VCC*%
X108736000Y-50570000D02*
X109982000Y-51816000D01*
X109982000Y-51816000D02*
X131826000Y-51816000D01*
X131826000Y-51816000D02*
X133604000Y-50038000D01*
X108736000Y-48768000D02*
X108736000Y-50570000D01*
D14*
%TO.N,HIT_TX*%
X83644077Y-46919898D02*
X83727980Y-47003801D01*
X91734202Y-51619990D02*
X102884010Y-51619990D01*
X102884010Y-51619990D02*
X105736000Y-48768000D01*
X87118013Y-47003801D02*
X91734202Y-51619990D01*
X83727980Y-47003801D02*
X87118013Y-47003801D01*
%TO.N,HIT_RX*%
X91547802Y-52070000D02*
X104284000Y-52070000D01*
X82854800Y-47644898D02*
X87122700Y-47644898D01*
X107236000Y-49118000D02*
X107236000Y-48768000D01*
X104284000Y-52070000D02*
X107236000Y-49118000D01*
X87122700Y-47644898D02*
X91547802Y-52070000D01*
%TO.N,/STM32G030C8T6/NRST*%
X83152900Y-52178300D02*
X83769200Y-51562000D01*
X83769200Y-51562000D02*
X83769200Y-48463200D01*
X65030700Y-52178300D02*
X83152900Y-52178300D01*
X64363600Y-51511200D02*
X65030700Y-52178300D01*
%TO.N,KX_SCLK*%
X89966800Y-38862000D02*
X100787200Y-38862000D01*
X100787200Y-38862000D02*
X135636000Y-38862000D01*
X65735200Y-38862000D02*
X89966800Y-38862000D01*
%TO.N,KX_MOSI*%
X64058800Y-40690800D02*
X89357200Y-40690800D01*
X89357200Y-40690800D02*
X134010400Y-40690800D01*
%TO.N,KX_MISO*%
X86055200Y-39776400D02*
X100025200Y-39776400D01*
X100025200Y-39776400D02*
X134823200Y-39776400D01*
X64973200Y-39776400D02*
X86055200Y-39776400D01*
%TO.N,KX1_INT1*%
X101715400Y-41452800D02*
X101752400Y-41415800D01*
X97593002Y-43129200D02*
X99269402Y-41452800D01*
X99269402Y-41452800D02*
X101715400Y-41452800D01*
X87985600Y-43129200D02*
X97593002Y-43129200D01*
%TO.N,KX1_INT2*%
X99581801Y-41997799D02*
X101261397Y-41997799D01*
X101678097Y-42414499D02*
X105416401Y-42414499D01*
X105416401Y-42414499D02*
X105816400Y-42014500D01*
X101261397Y-41997799D02*
X101678097Y-42414499D01*
X86918801Y-43905001D02*
X97674599Y-43905001D01*
X97674599Y-43905001D02*
X99581801Y-41997799D01*
X86868000Y-43854200D02*
X86918801Y-43905001D01*
%TO.N,KX2_INT1*%
X120167400Y-43815000D02*
X121310400Y-42672000D01*
X121310400Y-42672000D02*
X134766198Y-42672000D01*
X136137798Y-41300400D02*
X136601200Y-41300400D01*
X119634000Y-43281600D02*
X120167400Y-43815000D01*
X134766198Y-42672000D02*
X136137798Y-41300400D01*
X86004400Y-45313600D02*
X118668800Y-45313600D01*
X118668800Y-45313600D02*
X120167400Y-43815000D01*
%TO.N,KX1_CS*%
X86315412Y-44374614D02*
X86519999Y-44579201D01*
X84504986Y-44374614D02*
X86315412Y-44374614D01*
X86519999Y-44579201D02*
X98930799Y-44579201D01*
X98930799Y-44579201D02*
X100787200Y-42722800D01*
%TO.N,KX2_INT2*%
X140509900Y-42113200D02*
X140411200Y-42014500D01*
X141986000Y-42113200D02*
X140509900Y-42113200D01*
X85260189Y-46278801D02*
X85514188Y-46532800D01*
X134264400Y-46532800D02*
X138782700Y-42014500D01*
X85514188Y-46532800D02*
X134264400Y-46532800D01*
X138782700Y-42014500D02*
X140411200Y-42014500D01*
X84582000Y-46278801D02*
X85260189Y-46278801D01*
%TO.N,KX2_CS*%
X132747590Y-45763610D02*
X134264400Y-44246800D01*
X83616800Y-45669200D02*
X83732200Y-45553800D01*
X85656399Y-46038601D02*
X87057399Y-46038601D01*
X133756400Y-43738800D02*
X134264400Y-44246800D01*
X87057399Y-46038601D02*
X87332390Y-45763610D01*
X87332390Y-45763610D02*
X132747590Y-45763610D01*
X85171598Y-45553800D02*
X85656399Y-46038601D01*
X83732200Y-45553800D02*
X85171598Y-45553800D01*
X134264400Y-44246800D02*
X135788400Y-42722800D01*
%TO.N,KX3_CS*%
X66896672Y-44544672D02*
X71522700Y-44544672D01*
X71522700Y-44544672D02*
X72586272Y-44544672D01*
X72586272Y-44544672D02*
X73406000Y-45364400D01*
X65125600Y-42773600D02*
X66896672Y-44544672D01*
%TO.N,KX3_INT1*%
X74168000Y-50393600D02*
X74168000Y-45053398D01*
X74168000Y-45053398D02*
X73209265Y-44094663D01*
X69291462Y-44094662D02*
X66649600Y-41452800D01*
X73209265Y-44094663D02*
X69291462Y-44094662D01*
%TO.N,KX3_INT2*%
X75133200Y-44246800D02*
X75064998Y-44178598D01*
X71334101Y-42533401D02*
X74740601Y-42533401D01*
X75064998Y-45137857D02*
X75064998Y-51403301D01*
X74740601Y-42533401D02*
X75064998Y-42857798D01*
X75793600Y-44246800D02*
X75133200Y-44246800D01*
X75064998Y-44178598D02*
X75064998Y-45137857D01*
X70815200Y-42014500D02*
X71334101Y-42533401D01*
X75064998Y-42857798D02*
X75064998Y-44178598D01*
%TD*%
%TA.AperFunction,Conductor*%
%TO.N,GND*%
G36*
X143236121Y-38018502D02*
G01*
X143282614Y-38072158D01*
X143294000Y-38124500D01*
X143294000Y-52871000D01*
X143273998Y-52939121D01*
X143220342Y-52985614D01*
X143168000Y-52997000D01*
X63524500Y-52997000D01*
X63456379Y-52976998D01*
X63409886Y-52923342D01*
X63398500Y-52871000D01*
X63398500Y-49516169D01*
X64449650Y-49516169D01*
X64477141Y-49689736D01*
X64485059Y-49739725D01*
X64541643Y-49913874D01*
X64555000Y-49954981D01*
X64657755Y-50156650D01*
X64790793Y-50339761D01*
X64790795Y-50339763D01*
X64790797Y-50339766D01*
X64950833Y-50499802D01*
X64950836Y-50499804D01*
X64950839Y-50499807D01*
X65133950Y-50632845D01*
X65335619Y-50735600D01*
X65550879Y-50805542D01*
X65774431Y-50840950D01*
X65774434Y-50840950D01*
X66000766Y-50840950D01*
X66000769Y-50840950D01*
X66224321Y-50805542D01*
X66439581Y-50735600D01*
X66641250Y-50632845D01*
X66775080Y-50535611D01*
X66790118Y-50530245D01*
X66790666Y-50528988D01*
X66813282Y-50507855D01*
X66824361Y-50499807D01*
X66984407Y-50339761D01*
X67117445Y-50156650D01*
X67220200Y-49954981D01*
X67290142Y-49739721D01*
X67325550Y-49516169D01*
X69529650Y-49516169D01*
X69557141Y-49689736D01*
X69565059Y-49739725D01*
X69621643Y-49913874D01*
X69635000Y-49954981D01*
X69737755Y-50156650D01*
X69870793Y-50339761D01*
X69870795Y-50339763D01*
X69870797Y-50339766D01*
X70030832Y-50499801D01*
X70030835Y-50499803D01*
X70030839Y-50499807D01*
X70041914Y-50507853D01*
X70054673Y-50524400D01*
X70066446Y-50526961D01*
X70080119Y-50535611D01*
X70213950Y-50632845D01*
X70415619Y-50735600D01*
X70630879Y-50805542D01*
X70854431Y-50840950D01*
X70854434Y-50840950D01*
X71080766Y-50840950D01*
X71080769Y-50840950D01*
X71304321Y-50805542D01*
X71519581Y-50735600D01*
X71721250Y-50632845D01*
X71904361Y-50499807D01*
X72064407Y-50339761D01*
X72197445Y-50156650D01*
X72300200Y-49954981D01*
X72370142Y-49739721D01*
X72405550Y-49516169D01*
X72405550Y-49289831D01*
X72370142Y-49066279D01*
X72300200Y-48851019D01*
X72197445Y-48649350D01*
X72064407Y-48466239D01*
X72064404Y-48466236D01*
X72064402Y-48466233D01*
X71904366Y-48306197D01*
X71904363Y-48306195D01*
X71904361Y-48306193D01*
X71751426Y-48195079D01*
X71721253Y-48173157D01*
X71721252Y-48173156D01*
X71721250Y-48173155D01*
X71519581Y-48070400D01*
X71519578Y-48070399D01*
X71519576Y-48070398D01*
X71304325Y-48000459D01*
X71304323Y-48000458D01*
X71304321Y-48000458D01*
X71080769Y-47965050D01*
X70854431Y-47965050D01*
X70630879Y-48000458D01*
X70630877Y-48000458D01*
X70630874Y-48000459D01*
X70415623Y-48070398D01*
X70415617Y-48070401D01*
X70213946Y-48173157D01*
X70030836Y-48306195D01*
X70030833Y-48306197D01*
X69870797Y-48466233D01*
X69870795Y-48466236D01*
X69737757Y-48649346D01*
X69635001Y-48851017D01*
X69634998Y-48851023D01*
X69565059Y-49066274D01*
X69565058Y-49066277D01*
X69565058Y-49066279D01*
X69529650Y-49289831D01*
X69529650Y-49516169D01*
X67325550Y-49516169D01*
X67325550Y-49289831D01*
X67290142Y-49066279D01*
X67220200Y-48851019D01*
X67117445Y-48649350D01*
X66984407Y-48466239D01*
X66984404Y-48466236D01*
X66984402Y-48466233D01*
X66824366Y-48306197D01*
X66824363Y-48306195D01*
X66824361Y-48306193D01*
X66671426Y-48195079D01*
X66641253Y-48173157D01*
X66641252Y-48173156D01*
X66641250Y-48173155D01*
X66439581Y-48070400D01*
X66439578Y-48070399D01*
X66439576Y-48070398D01*
X66224325Y-48000459D01*
X66224323Y-48000458D01*
X66224321Y-48000458D01*
X66000769Y-47965050D01*
X65774431Y-47965050D01*
X65550879Y-48000458D01*
X65550877Y-48000458D01*
X65550874Y-48000459D01*
X65335623Y-48070398D01*
X65335617Y-48070401D01*
X65133946Y-48173157D01*
X64950836Y-48306195D01*
X64950833Y-48306197D01*
X64790797Y-48466233D01*
X64790795Y-48466236D01*
X64657757Y-48649346D01*
X64555001Y-48851017D01*
X64554998Y-48851023D01*
X64485059Y-49066274D01*
X64485058Y-49066277D01*
X64485058Y-49066279D01*
X64449650Y-49289831D01*
X64449650Y-49516169D01*
X63398500Y-49516169D01*
X63398500Y-41260187D01*
X63418502Y-41192066D01*
X63472158Y-41145573D01*
X63542432Y-41135469D01*
X63607012Y-41164963D01*
X63607941Y-41165776D01*
X63684271Y-41233399D01*
X63684273Y-41233400D01*
X63684274Y-41233401D01*
X63735311Y-41260187D01*
X63825007Y-41307263D01*
X63979329Y-41345300D01*
X63979330Y-41345300D01*
X64138270Y-41345300D01*
X64138271Y-41345300D01*
X64292593Y-41307263D01*
X64433329Y-41233399D01*
X64552298Y-41128001D01*
X64554559Y-41124724D01*
X64556831Y-41122883D01*
X64557351Y-41122297D01*
X64557448Y-41122383D01*
X64609717Y-41080025D01*
X64658256Y-41070300D01*
X65912133Y-41070300D01*
X65980254Y-41090302D01*
X66026747Y-41143958D01*
X66036851Y-41214232D01*
X66029945Y-41240978D01*
X66026186Y-41250889D01*
X66009449Y-41295020D01*
X65990293Y-41452796D01*
X65990293Y-41452803D01*
X66009449Y-41610579D01*
X66048558Y-41713698D01*
X66065813Y-41759195D01*
X66156102Y-41890001D01*
X66275071Y-41995399D01*
X66275072Y-41995399D01*
X66275074Y-41995401D01*
X66325987Y-42022122D01*
X66415807Y-42069263D01*
X66570129Y-42107300D01*
X66570130Y-42107300D01*
X66715216Y-42107300D01*
X66783337Y-42127302D01*
X66804311Y-42144205D01*
X68610183Y-43950077D01*
X68644209Y-44012389D01*
X68639144Y-44083204D01*
X68596597Y-44140040D01*
X68530077Y-44164851D01*
X68521088Y-44165172D01*
X67106056Y-44165172D01*
X67037935Y-44145170D01*
X67016961Y-44128267D01*
X65815012Y-42926318D01*
X65780986Y-42864006D01*
X65779026Y-42822035D01*
X65784907Y-42773602D01*
X65784907Y-42773597D01*
X65765750Y-42615820D01*
X65743480Y-42557101D01*
X65709387Y-42467205D01*
X65619098Y-42336399D01*
X65500129Y-42231001D01*
X65500128Y-42231000D01*
X65500125Y-42230998D01*
X65359397Y-42157139D01*
X65359395Y-42157138D01*
X65359393Y-42157137D01*
X65359391Y-42157136D01*
X65359390Y-42157136D01*
X65205072Y-42119100D01*
X65205071Y-42119100D01*
X65046129Y-42119100D01*
X65046127Y-42119100D01*
X64891809Y-42157136D01*
X64891802Y-42157139D01*
X64751074Y-42230998D01*
X64751069Y-42231002D01*
X64632101Y-42336400D01*
X64541815Y-42467201D01*
X64541812Y-42467207D01*
X64485449Y-42615820D01*
X64466293Y-42773596D01*
X64466293Y-42773603D01*
X64485449Y-42931379D01*
X64541812Y-43079992D01*
X64541815Y-43079998D01*
X64547617Y-43088404D01*
X64632102Y-43210801D01*
X64751071Y-43316199D01*
X64751072Y-43316199D01*
X64751074Y-43316201D01*
X64825800Y-43355420D01*
X64891807Y-43390063D01*
X65046129Y-43428100D01*
X65046130Y-43428100D01*
X65191216Y-43428100D01*
X65259337Y-43448102D01*
X65280311Y-43465005D01*
X66470091Y-44654785D01*
X66504117Y-44717097D01*
X66499052Y-44787912D01*
X66456505Y-44844748D01*
X66389985Y-44869559D01*
X66342060Y-44863713D01*
X66224325Y-44825459D01*
X66224323Y-44825458D01*
X66224321Y-44825458D01*
X66000769Y-44790050D01*
X65774431Y-44790050D01*
X65550879Y-44825458D01*
X65550877Y-44825458D01*
X65550874Y-44825459D01*
X65335623Y-44895398D01*
X65335617Y-44895401D01*
X65133946Y-44998157D01*
X64950836Y-45131195D01*
X64950833Y-45131197D01*
X64790797Y-45291233D01*
X64790795Y-45291236D01*
X64657757Y-45474346D01*
X64555001Y-45676017D01*
X64554998Y-45676023D01*
X64485059Y-45891274D01*
X64485058Y-45891277D01*
X64485058Y-45891279D01*
X64449650Y-46114831D01*
X64449650Y-46341169D01*
X64472067Y-46482698D01*
X64485059Y-46564725D01*
X64550398Y-46765819D01*
X64555000Y-46779981D01*
X64657755Y-46981650D01*
X64657757Y-46981653D01*
X64690649Y-47026924D01*
X64790793Y-47164761D01*
X64790795Y-47164763D01*
X64790797Y-47164766D01*
X64950833Y-47324802D01*
X64950836Y-47324804D01*
X64950839Y-47324807D01*
X65133950Y-47457845D01*
X65335619Y-47560600D01*
X65550879Y-47630542D01*
X65774431Y-47665950D01*
X65774434Y-47665950D01*
X66000766Y-47665950D01*
X66000769Y-47665950D01*
X66224321Y-47630542D01*
X66439581Y-47560600D01*
X66641250Y-47457845D01*
X66824361Y-47324807D01*
X66984407Y-47164761D01*
X67117445Y-46981650D01*
X67220200Y-46779981D01*
X67290142Y-46564721D01*
X67325550Y-46341169D01*
X67325550Y-46301460D01*
X67681800Y-46301460D01*
X67689699Y-46341169D01*
X67710460Y-46445542D01*
X67766680Y-46581269D01*
X67821215Y-46662887D01*
X67848298Y-46703419D01*
X67848303Y-46703425D01*
X67952174Y-46807296D01*
X67952180Y-46807301D01*
X68074331Y-46888920D01*
X68210058Y-46945140D01*
X68334121Y-46969817D01*
X68354139Y-46973799D01*
X68354142Y-46973799D01*
X68354145Y-46973800D01*
X68354146Y-46973800D01*
X68501054Y-46973800D01*
X68501055Y-46973800D01*
X68645142Y-46945140D01*
X68780869Y-46888920D01*
X68903020Y-46807301D01*
X69006901Y-46703420D01*
X69088520Y-46581269D01*
X69144740Y-46445542D01*
X69173400Y-46301455D01*
X69173400Y-46154545D01*
X69173152Y-46153300D01*
X69165981Y-46117248D01*
X69144740Y-46010458D01*
X69088520Y-45874731D01*
X69006901Y-45752580D01*
X69006896Y-45752574D01*
X68903025Y-45648703D01*
X68903019Y-45648698D01*
X68862487Y-45621615D01*
X68780869Y-45567080D01*
X68645142Y-45510860D01*
X68603974Y-45502671D01*
X68501060Y-45482200D01*
X68501055Y-45482200D01*
X68354145Y-45482200D01*
X68354139Y-45482200D01*
X68230641Y-45506765D01*
X68210058Y-45510860D01*
X68210055Y-45510860D01*
X68210052Y-45510862D01*
X68074331Y-45567080D01*
X67952180Y-45648698D01*
X67952174Y-45648703D01*
X67848303Y-45752574D01*
X67848298Y-45752580D01*
X67766680Y-45874731D01*
X67710462Y-46010452D01*
X67710460Y-46010459D01*
X67681800Y-46154539D01*
X67681800Y-46301460D01*
X67325550Y-46301460D01*
X67325550Y-46114831D01*
X67290142Y-45891279D01*
X67220200Y-45676019D01*
X67117445Y-45474350D01*
X66984407Y-45291239D01*
X66984404Y-45291236D01*
X66984402Y-45291233D01*
X66832437Y-45139268D01*
X66798411Y-45076956D01*
X66803476Y-45006141D01*
X66846023Y-44949305D01*
X66912543Y-44924494D01*
X66921532Y-44924173D01*
X66954352Y-44924173D01*
X66954368Y-44924172D01*
X69933669Y-44924172D01*
X70001790Y-44944174D01*
X70048283Y-44997830D01*
X70058387Y-45068104D01*
X70028893Y-45132684D01*
X70022764Y-45139267D01*
X69870797Y-45291233D01*
X69870795Y-45291236D01*
X69737757Y-45474346D01*
X69635001Y-45676017D01*
X69634998Y-45676023D01*
X69565059Y-45891274D01*
X69565058Y-45891277D01*
X69565058Y-45891279D01*
X69529650Y-46114831D01*
X69529650Y-46341169D01*
X69552067Y-46482698D01*
X69565059Y-46564725D01*
X69630398Y-46765819D01*
X69635000Y-46779981D01*
X69737755Y-46981650D01*
X69737757Y-46981653D01*
X69770649Y-47026924D01*
X69870793Y-47164761D01*
X69870795Y-47164763D01*
X69870797Y-47164766D01*
X70030833Y-47324802D01*
X70030836Y-47324804D01*
X70030839Y-47324807D01*
X70213950Y-47457845D01*
X70415619Y-47560600D01*
X70630879Y-47630542D01*
X70854431Y-47665950D01*
X70854434Y-47665950D01*
X71080766Y-47665950D01*
X71080769Y-47665950D01*
X71304321Y-47630542D01*
X71519581Y-47560600D01*
X71721250Y-47457845D01*
X71904361Y-47324807D01*
X72064407Y-47164761D01*
X72197445Y-46981650D01*
X72300200Y-46779981D01*
X72370142Y-46564721D01*
X72405550Y-46341169D01*
X72405550Y-46114831D01*
X72370142Y-45891279D01*
X72300200Y-45676019D01*
X72197445Y-45474350D01*
X72064407Y-45291239D01*
X72064404Y-45291236D01*
X72064402Y-45291233D01*
X71912436Y-45139267D01*
X71878410Y-45076955D01*
X71883475Y-45006140D01*
X71926022Y-44949304D01*
X71992542Y-44924493D01*
X72001531Y-44924172D01*
X72376888Y-44924172D01*
X72445009Y-44944174D01*
X72465983Y-44961077D01*
X72716587Y-45211681D01*
X72750613Y-45273993D01*
X72752574Y-45315961D01*
X72746729Y-45364108D01*
X72746693Y-45364402D01*
X72746693Y-45364403D01*
X72765849Y-45522179D01*
X72813833Y-45648698D01*
X72822213Y-45670795D01*
X72912502Y-45801601D01*
X73031471Y-45906999D01*
X73031472Y-45906999D01*
X73031474Y-45907001D01*
X73090929Y-45938205D01*
X73172207Y-45980863D01*
X73326529Y-46018900D01*
X73326530Y-46018900D01*
X73485470Y-46018900D01*
X73485471Y-46018900D01*
X73632347Y-45982698D01*
X73703274Y-45985817D01*
X73761257Y-46026786D01*
X73787885Y-46092600D01*
X73788500Y-46105037D01*
X73788500Y-49798696D01*
X73768498Y-49866817D01*
X73746054Y-49893008D01*
X73674503Y-49956397D01*
X73674500Y-49956400D01*
X73584215Y-50087201D01*
X73584212Y-50087207D01*
X73527849Y-50235820D01*
X73508693Y-50393596D01*
X73508693Y-50393603D01*
X73527849Y-50551379D01*
X73558746Y-50632845D01*
X73584213Y-50699995D01*
X73674502Y-50830801D01*
X73793471Y-50936199D01*
X73793472Y-50936199D01*
X73793474Y-50936201D01*
X73850444Y-50966101D01*
X73934207Y-51010063D01*
X74088529Y-51048100D01*
X74088530Y-51048100D01*
X74247470Y-51048100D01*
X74247471Y-51048100D01*
X74247472Y-51048099D01*
X74247477Y-51048099D01*
X74292632Y-51036969D01*
X74363560Y-51040086D01*
X74421543Y-51081056D01*
X74448172Y-51146869D01*
X74440599Y-51203986D01*
X74424848Y-51245517D01*
X74424848Y-51245519D01*
X74405691Y-51403297D01*
X74405691Y-51403304D01*
X74424847Y-51561080D01*
X74440217Y-51601606D01*
X74448931Y-51624582D01*
X74450273Y-51628119D01*
X74455727Y-51698906D01*
X74422045Y-51761404D01*
X74359921Y-51795771D01*
X74332461Y-51798800D01*
X70236125Y-51798800D01*
X70168004Y-51778798D01*
X70121511Y-51725142D01*
X70111407Y-51654868D01*
X70119716Y-51624582D01*
X70160740Y-51525542D01*
X70189400Y-51381455D01*
X70189400Y-51234545D01*
X70160740Y-51090458D01*
X70104520Y-50954731D01*
X70022901Y-50832580D01*
X70022896Y-50832574D01*
X69916966Y-50726644D01*
X69915100Y-50723226D01*
X69897849Y-50714553D01*
X69876066Y-50699998D01*
X69796869Y-50647080D01*
X69661142Y-50590860D01*
X69619974Y-50582671D01*
X69517060Y-50562200D01*
X69517055Y-50562200D01*
X69370145Y-50562200D01*
X69370139Y-50562200D01*
X69246641Y-50586765D01*
X69226058Y-50590860D01*
X69226055Y-50590860D01*
X69226052Y-50590862D01*
X69090331Y-50647080D01*
X68968180Y-50728698D01*
X68968174Y-50728703D01*
X68864303Y-50832574D01*
X68864298Y-50832580D01*
X68782680Y-50954731D01*
X68733278Y-51073999D01*
X68726460Y-51090458D01*
X68725177Y-51096908D01*
X68697800Y-51234539D01*
X68697800Y-51381460D01*
X68705613Y-51420737D01*
X68726460Y-51525542D01*
X68762256Y-51611962D01*
X68767484Y-51624582D01*
X68775073Y-51695171D01*
X68743294Y-51758658D01*
X68682236Y-51794886D01*
X68651075Y-51798800D01*
X68204125Y-51798800D01*
X68136004Y-51778798D01*
X68089511Y-51725142D01*
X68079407Y-51654868D01*
X68087716Y-51624582D01*
X68128740Y-51525542D01*
X68157400Y-51381455D01*
X68157400Y-51234545D01*
X68128740Y-51090458D01*
X68072520Y-50954731D01*
X67990901Y-50832580D01*
X67990896Y-50832574D01*
X67887025Y-50728703D01*
X67887019Y-50728698D01*
X67844057Y-50699992D01*
X67764869Y-50647080D01*
X67629142Y-50590860D01*
X67587974Y-50582671D01*
X67485060Y-50562200D01*
X67485055Y-50562200D01*
X67338145Y-50562200D01*
X67338139Y-50562200D01*
X67214641Y-50586765D01*
X67194058Y-50590860D01*
X67194055Y-50590860D01*
X67194052Y-50590862D01*
X67058330Y-50647080D01*
X66957350Y-50714553D01*
X66945639Y-50718219D01*
X66938234Y-50726644D01*
X66832298Y-50832580D01*
X66750680Y-50954731D01*
X66701278Y-51073999D01*
X66694460Y-51090458D01*
X66693177Y-51096908D01*
X66665800Y-51234539D01*
X66665800Y-51381460D01*
X66673613Y-51420737D01*
X66694460Y-51525542D01*
X66730256Y-51611962D01*
X66735484Y-51624582D01*
X66743073Y-51695171D01*
X66711294Y-51758658D01*
X66650236Y-51794886D01*
X66619075Y-51798800D01*
X65240084Y-51798800D01*
X65171963Y-51778798D01*
X65150989Y-51761895D01*
X65053012Y-51663918D01*
X65018986Y-51601606D01*
X65017026Y-51559635D01*
X65022907Y-51511202D01*
X65022907Y-51511197D01*
X65003750Y-51353420D01*
X64982208Y-51296620D01*
X64947387Y-51204805D01*
X64857098Y-51073999D01*
X64738129Y-50968601D01*
X64738128Y-50968600D01*
X64738125Y-50968598D01*
X64597397Y-50894739D01*
X64597395Y-50894738D01*
X64597393Y-50894737D01*
X64597391Y-50894736D01*
X64597390Y-50894736D01*
X64443072Y-50856700D01*
X64443071Y-50856700D01*
X64284129Y-50856700D01*
X64284127Y-50856700D01*
X64129809Y-50894736D01*
X64129802Y-50894739D01*
X63989074Y-50968598D01*
X63989069Y-50968602D01*
X63870101Y-51074000D01*
X63779815Y-51204801D01*
X63779812Y-51204807D01*
X63723449Y-51353420D01*
X63704293Y-51511196D01*
X63704293Y-51511203D01*
X63723449Y-51668979D01*
X63765099Y-51778798D01*
X63779813Y-51817595D01*
X63870102Y-51948401D01*
X63989071Y-52053799D01*
X63989072Y-52053799D01*
X63989074Y-52053801D01*
X64063800Y-52093020D01*
X64129807Y-52127663D01*
X64284129Y-52165700D01*
X64284130Y-52165700D01*
X64429216Y-52165700D01*
X64497337Y-52185702D01*
X64518311Y-52202605D01*
X64722613Y-52406907D01*
X64722634Y-52406930D01*
X64797674Y-52481970D01*
X64797679Y-52481974D01*
X64797681Y-52481976D01*
X64797682Y-52481977D01*
X64797684Y-52481978D01*
X64884214Y-52531936D01*
X64884218Y-52531938D01*
X64904609Y-52537401D01*
X64904614Y-52537404D01*
X64904615Y-52537403D01*
X64980738Y-52557801D01*
X65088380Y-52557801D01*
X65088396Y-52557800D01*
X83095204Y-52557800D01*
X83095220Y-52557801D01*
X83102938Y-52557801D01*
X83202861Y-52557801D01*
X83202862Y-52557801D01*
X83278980Y-52537404D01*
X83278982Y-52537404D01*
X83286448Y-52535402D01*
X83299382Y-52531938D01*
X83385919Y-52481976D01*
X83456576Y-52411319D01*
X83466943Y-52400952D01*
X83466950Y-52400942D01*
X83991842Y-51876050D01*
X83991852Y-51876043D01*
X84072870Y-51795025D01*
X84072876Y-51795019D01*
X84122838Y-51708482D01*
X84133422Y-51668982D01*
X84148701Y-51611962D01*
X84148701Y-51512038D01*
X84148701Y-51504321D01*
X84148700Y-51504303D01*
X84148700Y-49058102D01*
X84168702Y-48989981D01*
X84191142Y-48963793D01*
X84262698Y-48900401D01*
X84352987Y-48769595D01*
X84409349Y-48620982D01*
X84409349Y-48620981D01*
X84409350Y-48620979D01*
X84428507Y-48463203D01*
X84428507Y-48463196D01*
X84409350Y-48305420D01*
X84378433Y-48223901D01*
X84367501Y-48195077D01*
X84362048Y-48124292D01*
X84395730Y-48061794D01*
X84457854Y-48027427D01*
X84485314Y-48024398D01*
X86913316Y-48024398D01*
X86981437Y-48044400D01*
X87002411Y-48061303D01*
X91239715Y-52298607D01*
X91239736Y-52298630D01*
X91314776Y-52373670D01*
X91314780Y-52373673D01*
X91314783Y-52373676D01*
X91314786Y-52373677D01*
X91314789Y-52373680D01*
X91379982Y-52411319D01*
X91379983Y-52411319D01*
X91401320Y-52423638D01*
X91497840Y-52449500D01*
X91597764Y-52449500D01*
X104226304Y-52449500D01*
X104226320Y-52449501D01*
X104234038Y-52449501D01*
X104333961Y-52449501D01*
X104333962Y-52449501D01*
X104410080Y-52429104D01*
X104410082Y-52429104D01*
X104417548Y-52427102D01*
X104430482Y-52423638D01*
X104517019Y-52373676D01*
X104587676Y-52303019D01*
X104598043Y-52292652D01*
X104598050Y-52292642D01*
X106981623Y-49909069D01*
X107043933Y-49875045D01*
X107095296Y-49874587D01*
X107160211Y-49887500D01*
X107160216Y-49887500D01*
X107311789Y-49887500D01*
X107460455Y-49857928D01*
X107600495Y-49799922D01*
X107726527Y-49715709D01*
X107833709Y-49608527D01*
X107881235Y-49537399D01*
X107935712Y-49491872D01*
X108006155Y-49483024D01*
X108070199Y-49513666D01*
X108090764Y-49537399D01*
X108138291Y-49608527D01*
X108182596Y-49652832D01*
X108216620Y-49715142D01*
X108219500Y-49741926D01*
X108219500Y-50637999D01*
X108254698Y-50769362D01*
X108254699Y-50769364D01*
X108254700Y-50769366D01*
X108322694Y-50887135D01*
X108322702Y-50887145D01*
X108426036Y-50990479D01*
X108426050Y-50990491D01*
X109564286Y-52128727D01*
X109564307Y-52128750D01*
X109664854Y-52229297D01*
X109664859Y-52229301D01*
X109664861Y-52229303D01*
X109782638Y-52297302D01*
X109914001Y-52332500D01*
X109914002Y-52332500D01*
X109914003Y-52332500D01*
X131893997Y-52332500D01*
X131893998Y-52332500D01*
X131893999Y-52332500D01*
X132025362Y-52297302D01*
X132143139Y-52229303D01*
X132239303Y-52133139D01*
X132249670Y-52122772D01*
X132249677Y-52122762D01*
X133653949Y-50718491D01*
X133712886Y-50685249D01*
X133837793Y-50654463D01*
X133978529Y-50580599D01*
X134097498Y-50475201D01*
X134187787Y-50344395D01*
X134244149Y-50195782D01*
X134244149Y-50195781D01*
X134244150Y-50195779D01*
X134263307Y-50038003D01*
X134263307Y-50037996D01*
X134244150Y-49880220D01*
X134202658Y-49770817D01*
X134187787Y-49731605D01*
X134097498Y-49600799D01*
X133978529Y-49495401D01*
X133978528Y-49495400D01*
X133978525Y-49495398D01*
X133837797Y-49421539D01*
X133837795Y-49421538D01*
X133837793Y-49421537D01*
X133837791Y-49421536D01*
X133837790Y-49421536D01*
X133683472Y-49383500D01*
X133683471Y-49383500D01*
X133524529Y-49383500D01*
X133524527Y-49383500D01*
X133370209Y-49421536D01*
X133370202Y-49421539D01*
X133229474Y-49495398D01*
X133229469Y-49495402D01*
X133110501Y-49600800D01*
X133020215Y-49731601D01*
X133020212Y-49731607D01*
X132963851Y-49880216D01*
X132959764Y-49913874D01*
X132931695Y-49979087D01*
X132923778Y-49987779D01*
X131648962Y-51262596D01*
X131586652Y-51296620D01*
X131559869Y-51299500D01*
X110248131Y-51299500D01*
X110180010Y-51279498D01*
X110159036Y-51262595D01*
X109289405Y-50392964D01*
X109255379Y-50330652D01*
X109252500Y-50303869D01*
X109252500Y-49885431D01*
X109272502Y-49817310D01*
X109326158Y-49770817D01*
X109396432Y-49760713D01*
X109461012Y-49790207D01*
X109467595Y-49796336D01*
X109583872Y-49912613D01*
X109583879Y-49912618D01*
X109751427Y-50024570D01*
X109937596Y-50101684D01*
X109937603Y-50101686D01*
X109982000Y-50110517D01*
X109982000Y-49030189D01*
X110011884Y-49060073D01*
X110095115Y-49108126D01*
X110187947Y-49133000D01*
X110284053Y-49133000D01*
X110376885Y-49108126D01*
X110460116Y-49060073D01*
X110490000Y-49030189D01*
X110490000Y-50110517D01*
X110534396Y-50101686D01*
X110534403Y-50101684D01*
X110720572Y-50024570D01*
X110888120Y-49912618D01*
X110888127Y-49912613D01*
X111030613Y-49770127D01*
X111030618Y-49770120D01*
X111142570Y-49602572D01*
X111219684Y-49416403D01*
X111219686Y-49416398D01*
X111258999Y-49218759D01*
X111259000Y-49218755D01*
X111259000Y-49022000D01*
X110498189Y-49022000D01*
X110528073Y-48992116D01*
X110576126Y-48908885D01*
X110601000Y-48816053D01*
X110601000Y-48719947D01*
X110576126Y-48627115D01*
X110528073Y-48543884D01*
X110498189Y-48514000D01*
X111259000Y-48514000D01*
X111259000Y-48317244D01*
X111258999Y-48317240D01*
X111219686Y-48119601D01*
X111219684Y-48119596D01*
X111142570Y-47933427D01*
X111030618Y-47765879D01*
X111030613Y-47765872D01*
X110888127Y-47623386D01*
X110888120Y-47623381D01*
X110720572Y-47511429D01*
X110534397Y-47434313D01*
X110490000Y-47425481D01*
X110490000Y-48505811D01*
X110460116Y-48475927D01*
X110376885Y-48427874D01*
X110284053Y-48403000D01*
X110187947Y-48403000D01*
X110095115Y-48427874D01*
X110011884Y-48475927D01*
X109982000Y-48505811D01*
X109982000Y-47425481D01*
X109937602Y-47434313D01*
X109751427Y-47511429D01*
X109583879Y-47623381D01*
X109583877Y-47623382D01*
X109441384Y-47765874D01*
X109418824Y-47799637D01*
X109364346Y-47845164D01*
X109293903Y-47854010D01*
X109231403Y-47824106D01*
X109231312Y-47824218D01*
X109230859Y-47823846D01*
X109229859Y-47823368D01*
X109227171Y-47820819D01*
X109226526Y-47820290D01*
X109184707Y-47792347D01*
X109100495Y-47736078D01*
X109012185Y-47699499D01*
X108960458Y-47678073D01*
X108960455Y-47678072D01*
X108811792Y-47648500D01*
X108811789Y-47648500D01*
X108660211Y-47648500D01*
X108660207Y-47648500D01*
X108511544Y-47678072D01*
X108511541Y-47678073D01*
X108371505Y-47736078D01*
X108245473Y-47820290D01*
X108245467Y-47820295D01*
X108138293Y-47927469D01*
X108090765Y-47998600D01*
X108036287Y-48044127D01*
X107965844Y-48052974D01*
X107901800Y-48022333D01*
X107881235Y-47998600D01*
X107833706Y-47927469D01*
X107726532Y-47820295D01*
X107726526Y-47820290D01*
X107684707Y-47792347D01*
X107600495Y-47736078D01*
X107512185Y-47699499D01*
X107460458Y-47678073D01*
X107460455Y-47678072D01*
X107311792Y-47648500D01*
X107311789Y-47648500D01*
X107160211Y-47648500D01*
X107160207Y-47648500D01*
X107011544Y-47678072D01*
X107011541Y-47678073D01*
X106871505Y-47736078D01*
X106745473Y-47820290D01*
X106640506Y-47925257D01*
X106578194Y-47959282D01*
X106507378Y-47954216D01*
X106450543Y-47911670D01*
X106361404Y-47792595D01*
X106245271Y-47705658D01*
X106109338Y-47654958D01*
X106049268Y-47648500D01*
X106049256Y-47648500D01*
X105422744Y-47648500D01*
X105422731Y-47648500D01*
X105362661Y-47654958D01*
X105226728Y-47705658D01*
X105110595Y-47792595D01*
X105023658Y-47908728D01*
X104972958Y-48044661D01*
X104966500Y-48104731D01*
X104966500Y-48948615D01*
X104946498Y-49016736D01*
X104929595Y-49037710D01*
X102763721Y-51203585D01*
X102701409Y-51237610D01*
X102674626Y-51240490D01*
X91943586Y-51240490D01*
X91875465Y-51220488D01*
X91854491Y-51203585D01*
X87778301Y-47127395D01*
X87744275Y-47065083D01*
X87749340Y-46994268D01*
X87791887Y-46937432D01*
X87858407Y-46912621D01*
X87867396Y-46912300D01*
X134206704Y-46912300D01*
X134206720Y-46912301D01*
X134214438Y-46912301D01*
X134314361Y-46912301D01*
X134314362Y-46912301D01*
X134390480Y-46891904D01*
X134390482Y-46891904D01*
X134397948Y-46889902D01*
X134410882Y-46886438D01*
X134497419Y-46836476D01*
X134568076Y-46765819D01*
X134578443Y-46755452D01*
X134578450Y-46755442D01*
X138902989Y-42430905D01*
X138965301Y-42396879D01*
X138992084Y-42394000D01*
X139811744Y-42394000D01*
X139879865Y-42414002D01*
X139915440Y-42448424D01*
X139917701Y-42451699D01*
X139917702Y-42451701D01*
X139917703Y-42451702D01*
X139937039Y-42468832D01*
X140036671Y-42557099D01*
X140036672Y-42557099D01*
X140036674Y-42557101D01*
X140051759Y-42565018D01*
X140177407Y-42630963D01*
X140331729Y-42669000D01*
X140331730Y-42669000D01*
X140490670Y-42669000D01*
X140490671Y-42669000D01*
X140644993Y-42630963D01*
X140785729Y-42557099D01*
X140785735Y-42557094D01*
X140822653Y-42524388D01*
X140886906Y-42494187D01*
X140906206Y-42492700D01*
X141386544Y-42492700D01*
X141454665Y-42512702D01*
X141490240Y-42547124D01*
X141492502Y-42550401D01*
X141611471Y-42655799D01*
X141611472Y-42655799D01*
X141611474Y-42655801D01*
X141674734Y-42689002D01*
X141752207Y-42729663D01*
X141906529Y-42767700D01*
X141906530Y-42767700D01*
X142065470Y-42767700D01*
X142065471Y-42767700D01*
X142219793Y-42729663D01*
X142360529Y-42655799D01*
X142479498Y-42550401D01*
X142569787Y-42419595D01*
X142626149Y-42270982D01*
X142626149Y-42270981D01*
X142626150Y-42270979D01*
X142645307Y-42113203D01*
X142645307Y-42113196D01*
X142626150Y-41955420D01*
X142611526Y-41916860D01*
X142569787Y-41806805D01*
X142479498Y-41675999D01*
X142360529Y-41570601D01*
X142360528Y-41570600D01*
X142360525Y-41570598D01*
X142219797Y-41496739D01*
X142219795Y-41496738D01*
X142219793Y-41496737D01*
X142219791Y-41496736D01*
X142219790Y-41496736D01*
X142065472Y-41458700D01*
X142065471Y-41458700D01*
X141906529Y-41458700D01*
X141906527Y-41458700D01*
X141752209Y-41496736D01*
X141752202Y-41496739D01*
X141611474Y-41570598D01*
X141611469Y-41570602D01*
X141492503Y-41675997D01*
X141492502Y-41675998D01*
X141490241Y-41679275D01*
X141487968Y-41681116D01*
X141487449Y-41681703D01*
X141487351Y-41681616D01*
X141435083Y-41723975D01*
X141386544Y-41733700D01*
X141078784Y-41733700D01*
X141010663Y-41713698D01*
X140975088Y-41679276D01*
X140904699Y-41577300D01*
X140897138Y-41570601D01*
X140785729Y-41471901D01*
X140785728Y-41471900D01*
X140785725Y-41471898D01*
X140644997Y-41398039D01*
X140644995Y-41398038D01*
X140644993Y-41398037D01*
X140644991Y-41398036D01*
X140644990Y-41398036D01*
X140490672Y-41360000D01*
X140490671Y-41360000D01*
X140331729Y-41360000D01*
X140331727Y-41360000D01*
X140177409Y-41398036D01*
X140177402Y-41398039D01*
X140036674Y-41471898D01*
X140036669Y-41471902D01*
X139917703Y-41577297D01*
X139917702Y-41577298D01*
X139915441Y-41580575D01*
X139913168Y-41582416D01*
X139912649Y-41583003D01*
X139912551Y-41582916D01*
X139860283Y-41625275D01*
X139811744Y-41635000D01*
X138840396Y-41635000D01*
X138840380Y-41634999D01*
X138832662Y-41634999D01*
X138732738Y-41634999D01*
X138732734Y-41634999D01*
X138644289Y-41658699D01*
X138644287Y-41658700D01*
X138636218Y-41660862D01*
X138636217Y-41660862D01*
X138636215Y-41660863D01*
X138636214Y-41660863D01*
X138549684Y-41710821D01*
X138549679Y-41710825D01*
X138526805Y-41733700D01*
X138479024Y-41781481D01*
X138479022Y-41781483D01*
X136310429Y-43950077D01*
X134144111Y-46116395D01*
X134081799Y-46150421D01*
X134055016Y-46153300D01*
X133198783Y-46153300D01*
X133130662Y-46133298D01*
X133084169Y-46079642D01*
X133074065Y-46009368D01*
X133103559Y-45944788D01*
X133109688Y-45938205D01*
X133815894Y-45232000D01*
X134568075Y-44479819D01*
X134568076Y-44479818D01*
X135633688Y-43414204D01*
X135696000Y-43380180D01*
X135722783Y-43377300D01*
X135867870Y-43377300D01*
X135867871Y-43377300D01*
X136022193Y-43339263D01*
X136162929Y-43265399D01*
X136281898Y-43160001D01*
X136372187Y-43029195D01*
X136428549Y-42880582D01*
X136428549Y-42880581D01*
X136428550Y-42880579D01*
X136447707Y-42722803D01*
X136447707Y-42722796D01*
X136428550Y-42565020D01*
X136410205Y-42516649D01*
X136372187Y-42416405D01*
X136281898Y-42285599D01*
X136162929Y-42180201D01*
X136162928Y-42180200D01*
X136073058Y-42133033D01*
X136022036Y-42083665D01*
X136005804Y-42014549D01*
X136029516Y-41947629D01*
X136042513Y-41932377D01*
X136098958Y-41875932D01*
X136161268Y-41841908D01*
X136232083Y-41846973D01*
X136246606Y-41853462D01*
X136252810Y-41856718D01*
X136367407Y-41916863D01*
X136521729Y-41954900D01*
X136521730Y-41954900D01*
X136680670Y-41954900D01*
X136680671Y-41954900D01*
X136834993Y-41916863D01*
X136975729Y-41842999D01*
X137094698Y-41737601D01*
X137184987Y-41606795D01*
X137241349Y-41458182D01*
X137241349Y-41458181D01*
X137241350Y-41458179D01*
X137260507Y-41300403D01*
X137260507Y-41300396D01*
X137241350Y-41142620D01*
X137215071Y-41073329D01*
X137184987Y-40994005D01*
X137094698Y-40863199D01*
X136975729Y-40757801D01*
X136975728Y-40757800D01*
X136975725Y-40757798D01*
X136834997Y-40683939D01*
X136834995Y-40683938D01*
X136834993Y-40683937D01*
X136834991Y-40683936D01*
X136834990Y-40683936D01*
X136680672Y-40645900D01*
X136680671Y-40645900D01*
X136613932Y-40645900D01*
X136545811Y-40625898D01*
X136499318Y-40572242D01*
X136489214Y-40501968D01*
X136518708Y-40437388D01*
X136524836Y-40430805D01*
X136612376Y-40343265D01*
X136701950Y-40253690D01*
X136760889Y-40220449D01*
X136885793Y-40189663D01*
X137026529Y-40115799D01*
X137145498Y-40010401D01*
X137235787Y-39879595D01*
X137292149Y-39730982D01*
X137292149Y-39730981D01*
X137292150Y-39730979D01*
X137311307Y-39573203D01*
X137311307Y-39573196D01*
X137292150Y-39415420D01*
X137263243Y-39339200D01*
X137235787Y-39266805D01*
X137145498Y-39135999D01*
X137026529Y-39030601D01*
X137026528Y-39030600D01*
X137026525Y-39030598D01*
X136885797Y-38956739D01*
X136885795Y-38956738D01*
X136885793Y-38956737D01*
X136885791Y-38956736D01*
X136885790Y-38956736D01*
X136731472Y-38918700D01*
X136731471Y-38918700D01*
X136572529Y-38918700D01*
X136572525Y-38918700D01*
X136448138Y-38949359D01*
X136377210Y-38946240D01*
X136319228Y-38905270D01*
X136292904Y-38842207D01*
X136276150Y-38704220D01*
X136262538Y-38668331D01*
X136219787Y-38555605D01*
X136129498Y-38424799D01*
X136010529Y-38319401D01*
X136010528Y-38319400D01*
X136010525Y-38319398D01*
X135869797Y-38245539D01*
X135869796Y-38245538D01*
X135869793Y-38245537D01*
X135869789Y-38245536D01*
X135862663Y-38242833D01*
X135863663Y-38240194D01*
X135813722Y-38211117D01*
X135781420Y-38147895D01*
X135788426Y-38077245D01*
X135832516Y-38021598D01*
X135899692Y-37998622D01*
X135905229Y-37998500D01*
X143168000Y-37998500D01*
X143236121Y-38018502D01*
G37*
%TD.AperFunction*%
%TA.AperFunction,Conductor*%
G36*
X87712611Y-42344902D02*
G01*
X87759104Y-42398558D01*
X87769208Y-42468832D01*
X87739714Y-42533412D01*
X87703045Y-42562467D01*
X87560274Y-42637398D01*
X87560269Y-42637402D01*
X87469094Y-42718177D01*
X87445593Y-42738998D01*
X87441301Y-42742800D01*
X87351015Y-42873601D01*
X87351012Y-42873607D01*
X87294649Y-43022220D01*
X87280498Y-43138770D01*
X87252431Y-43203983D01*
X87193562Y-43243669D01*
X87122583Y-43245229D01*
X87109103Y-43239945D01*
X87108916Y-43240439D01*
X87101790Y-43237736D01*
X86947472Y-43199700D01*
X86947471Y-43199700D01*
X86788529Y-43199700D01*
X86788527Y-43199700D01*
X86634209Y-43237736D01*
X86634202Y-43237739D01*
X86493474Y-43311598D01*
X86493469Y-43311602D01*
X86374501Y-43417000D01*
X86284215Y-43547801D01*
X86284212Y-43547807D01*
X86227849Y-43696420D01*
X86208693Y-43854197D01*
X86208693Y-43861822D01*
X86207348Y-43861822D01*
X86197011Y-43923968D01*
X86149348Y-43976586D01*
X86083578Y-43995114D01*
X85104442Y-43995114D01*
X85036321Y-43975112D01*
X85000745Y-43940689D01*
X84998484Y-43937413D01*
X84879515Y-43832015D01*
X84879514Y-43832014D01*
X84879511Y-43832012D01*
X84738783Y-43758153D01*
X84738781Y-43758152D01*
X84738779Y-43758151D01*
X84738777Y-43758150D01*
X84738776Y-43758150D01*
X84584458Y-43720114D01*
X84584457Y-43720114D01*
X84425515Y-43720114D01*
X84425513Y-43720114D01*
X84271195Y-43758150D01*
X84271188Y-43758153D01*
X84130460Y-43832012D01*
X84130455Y-43832016D01*
X84011487Y-43937414D01*
X83921201Y-44068215D01*
X83921198Y-44068221D01*
X83864835Y-44216834D01*
X83845679Y-44374610D01*
X83845679Y-44374617D01*
X83864835Y-44532393D01*
X83872726Y-44553198D01*
X83921199Y-44681009D01*
X84011488Y-44811815D01*
X84108822Y-44898046D01*
X84135839Y-44921981D01*
X84173564Y-44982125D01*
X84172784Y-45053118D01*
X84133746Y-45112419D01*
X84068845Y-45141200D01*
X83998686Y-45130324D01*
X83993730Y-45127861D01*
X83850591Y-45052736D01*
X83696272Y-45014700D01*
X83696271Y-45014700D01*
X83537329Y-45014700D01*
X83537327Y-45014700D01*
X83383009Y-45052736D01*
X83383002Y-45052739D01*
X83242274Y-45126598D01*
X83242269Y-45126602D01*
X83123301Y-45232000D01*
X83033015Y-45362801D01*
X83033012Y-45362807D01*
X82976649Y-45511420D01*
X82957493Y-45669196D01*
X82957493Y-45669203D01*
X82976649Y-45826979D01*
X83033012Y-45975592D01*
X83033015Y-45975598D01*
X83123300Y-46106399D01*
X83123301Y-46106400D01*
X83123302Y-46106401D01*
X83242271Y-46211799D01*
X83242273Y-46211800D01*
X83242859Y-46212319D01*
X83280584Y-46272463D01*
X83279804Y-46343455D01*
X83242859Y-46400943D01*
X83150578Y-46482698D01*
X83060292Y-46613499D01*
X83060289Y-46613505D01*
X83003927Y-46762118D01*
X82989664Y-46879586D01*
X82961597Y-46944799D01*
X82902729Y-46984485D01*
X82864583Y-46990398D01*
X82775327Y-46990398D01*
X82621009Y-47028434D01*
X82621002Y-47028437D01*
X82480274Y-47102296D01*
X82480269Y-47102300D01*
X82361301Y-47207698D01*
X82271015Y-47338499D01*
X82271012Y-47338505D01*
X82214649Y-47487118D01*
X82195493Y-47644894D01*
X82195493Y-47644901D01*
X82214649Y-47802677D01*
X82255986Y-47911670D01*
X82271013Y-47951293D01*
X82361302Y-48082099D01*
X82480271Y-48187497D01*
X82480272Y-48187497D01*
X82480274Y-48187499D01*
X82491794Y-48193545D01*
X82621007Y-48261361D01*
X82775329Y-48299398D01*
X82775330Y-48299398D01*
X82934270Y-48299398D01*
X82934271Y-48299398D01*
X82958573Y-48293408D01*
X83029501Y-48296525D01*
X83087484Y-48337494D01*
X83114114Y-48403307D01*
X83113810Y-48430932D01*
X83109893Y-48463194D01*
X83109893Y-48463203D01*
X83129049Y-48620979D01*
X83185412Y-48769592D01*
X83185415Y-48769598D01*
X83275700Y-48900399D01*
X83275701Y-48900400D01*
X83275702Y-48900401D01*
X83347255Y-48963792D01*
X83384979Y-49023934D01*
X83389700Y-49058102D01*
X83389700Y-51352616D01*
X83369698Y-51420737D01*
X83352795Y-51441711D01*
X83032611Y-51761895D01*
X82970299Y-51795921D01*
X82943516Y-51798800D01*
X75797535Y-51798800D01*
X75729414Y-51778798D01*
X75682921Y-51725142D01*
X75672817Y-51654868D01*
X75679723Y-51628119D01*
X75681065Y-51624582D01*
X75705147Y-51561083D01*
X75705147Y-51561082D01*
X75705148Y-51561080D01*
X75724305Y-51403304D01*
X75724305Y-51403297D01*
X75705148Y-51245521D01*
X75689243Y-51203585D01*
X75648785Y-51096906D01*
X75588842Y-51010063D01*
X75558497Y-50966101D01*
X75558494Y-50966098D01*
X75486944Y-50902709D01*
X75449219Y-50842564D01*
X75444498Y-50808397D01*
X75444498Y-44995669D01*
X75464500Y-44927548D01*
X75518156Y-44881055D01*
X75588430Y-44870951D01*
X75600644Y-44873328D01*
X75714129Y-44901300D01*
X75714130Y-44901300D01*
X75873070Y-44901300D01*
X75873071Y-44901300D01*
X76027393Y-44863263D01*
X76168129Y-44789399D01*
X76287098Y-44684001D01*
X76377387Y-44553195D01*
X76433749Y-44404582D01*
X76433749Y-44404581D01*
X76433750Y-44404579D01*
X76452907Y-44246803D01*
X76452907Y-44246796D01*
X76433750Y-44089020D01*
X76414269Y-44037654D01*
X76377387Y-43940405D01*
X76287098Y-43809599D01*
X76168129Y-43704201D01*
X76168128Y-43704200D01*
X76168125Y-43704198D01*
X76027397Y-43630339D01*
X76027395Y-43630338D01*
X76027393Y-43630337D01*
X76027391Y-43630336D01*
X76027390Y-43630336D01*
X75873072Y-43592300D01*
X75873071Y-43592300D01*
X75714129Y-43592300D01*
X75714125Y-43592300D01*
X75600651Y-43620269D01*
X75529723Y-43617150D01*
X75471741Y-43576180D01*
X75445113Y-43510366D01*
X75444498Y-43497930D01*
X75444498Y-42917923D01*
X75444499Y-42917910D01*
X75444499Y-42807837D01*
X75444499Y-42807836D01*
X75418637Y-42711317D01*
X75394205Y-42669000D01*
X75372244Y-42630962D01*
X75372243Y-42630961D01*
X75368674Y-42624779D01*
X75368669Y-42624773D01*
X75293628Y-42549732D01*
X75293605Y-42549711D01*
X75283889Y-42539995D01*
X75249863Y-42477683D01*
X75254928Y-42406868D01*
X75297475Y-42350032D01*
X75363995Y-42325221D01*
X75372984Y-42324900D01*
X87644490Y-42324900D01*
X87712611Y-42344902D01*
G37*
%TD.AperFunction*%
%TA.AperFunction,Conductor*%
G36*
X132583852Y-41090302D02*
G01*
X132630345Y-41143958D01*
X132640449Y-41214232D01*
X132619427Y-41267876D01*
X132563015Y-41349601D01*
X132563012Y-41349607D01*
X132506649Y-41498220D01*
X132487493Y-41655996D01*
X132487493Y-41656003D01*
X132506649Y-41813779D01*
X132545744Y-41916860D01*
X132560170Y-41954900D01*
X132563012Y-41962392D01*
X132563015Y-41962398D01*
X132654491Y-42094924D01*
X132676727Y-42162349D01*
X132658980Y-42231092D01*
X132606885Y-42279327D01*
X132550795Y-42292500D01*
X121368096Y-42292500D01*
X121368080Y-42292499D01*
X121360362Y-42292499D01*
X121260438Y-42292499D01*
X121228266Y-42301119D01*
X121184316Y-42312895D01*
X121184315Y-42312896D01*
X121163918Y-42318362D01*
X121163917Y-42318362D01*
X121163915Y-42318363D01*
X121163914Y-42318363D01*
X121077384Y-42368321D01*
X121077379Y-42368325D01*
X121051705Y-42394000D01*
X121006724Y-42438981D01*
X121006722Y-42438983D01*
X120706707Y-42738998D01*
X120425076Y-43020629D01*
X120362764Y-43054654D01*
X120291948Y-43049589D01*
X120235113Y-43007042D01*
X120218169Y-42976214D01*
X120217787Y-42975205D01*
X120127498Y-42844399D01*
X120008529Y-42739001D01*
X120008528Y-42739000D01*
X120008525Y-42738998D01*
X119867797Y-42665139D01*
X119867795Y-42665138D01*
X119867793Y-42665137D01*
X119867791Y-42665136D01*
X119867790Y-42665136D01*
X119713472Y-42627100D01*
X119713471Y-42627100D01*
X119554529Y-42627100D01*
X119554527Y-42627100D01*
X119400209Y-42665136D01*
X119400202Y-42665139D01*
X119259474Y-42738998D01*
X119259469Y-42739002D01*
X119140501Y-42844400D01*
X119050215Y-42975201D01*
X119050212Y-42975207D01*
X118993849Y-43123820D01*
X118974693Y-43281596D01*
X118974693Y-43281603D01*
X118993849Y-43439379D01*
X119050212Y-43587992D01*
X119050215Y-43587998D01*
X119064371Y-43608506D01*
X119140502Y-43718801D01*
X119259471Y-43824199D01*
X119345274Y-43869231D01*
X119396294Y-43918597D01*
X119412527Y-43987713D01*
X119388816Y-44054633D01*
X119375812Y-44069892D01*
X118548509Y-44897196D01*
X118486199Y-44931220D01*
X118459416Y-44934100D01*
X99416783Y-44934100D01*
X99348662Y-44914098D01*
X99302169Y-44860442D01*
X99292065Y-44790168D01*
X99321559Y-44725588D01*
X99327688Y-44719005D01*
X100632488Y-43414205D01*
X100694800Y-43380179D01*
X100721583Y-43377300D01*
X100866670Y-43377300D01*
X100866671Y-43377300D01*
X101020993Y-43339263D01*
X101161729Y-43265399D01*
X101280698Y-43160001D01*
X101370987Y-43029195D01*
X101427349Y-42880582D01*
X101427350Y-42880569D01*
X101429038Y-42873727D01*
X101464759Y-42812372D01*
X101527981Y-42780068D01*
X101583989Y-42782170D01*
X101628135Y-42794000D01*
X101735777Y-42794000D01*
X101735793Y-42793999D01*
X105358705Y-42793999D01*
X105358721Y-42794000D01*
X105366439Y-42794000D01*
X105466363Y-42794000D01*
X105545622Y-42772762D01*
X105545623Y-42772762D01*
X105551941Y-42771068D01*
X105562883Y-42768137D01*
X105649420Y-42718175D01*
X105654800Y-42712795D01*
X105661691Y-42705905D01*
X105724003Y-42671879D01*
X105750786Y-42669000D01*
X105895870Y-42669000D01*
X105895871Y-42669000D01*
X106050193Y-42630963D01*
X106190929Y-42557099D01*
X106309898Y-42451701D01*
X106400187Y-42320895D01*
X106456549Y-42172282D01*
X106456549Y-42172281D01*
X106456550Y-42172279D01*
X106475707Y-42014503D01*
X106475707Y-42014496D01*
X106456550Y-41856720D01*
X106437618Y-41806801D01*
X106400187Y-41708105D01*
X106309898Y-41577299D01*
X106190929Y-41471901D01*
X106190928Y-41471900D01*
X106190925Y-41471898D01*
X106050197Y-41398039D01*
X106050195Y-41398038D01*
X106050193Y-41398037D01*
X106050191Y-41398036D01*
X106050190Y-41398036D01*
X105895872Y-41360000D01*
X105895871Y-41360000D01*
X105736929Y-41360000D01*
X105736927Y-41360000D01*
X105582609Y-41398036D01*
X105582602Y-41398039D01*
X105441874Y-41471898D01*
X105441869Y-41471902D01*
X105322901Y-41577300D01*
X105232615Y-41708101D01*
X105232612Y-41708107D01*
X105176250Y-41856720D01*
X105168058Y-41924187D01*
X105139991Y-41989400D01*
X105081122Y-42029086D01*
X105042977Y-42034999D01*
X102360347Y-42034999D01*
X102292226Y-42014997D01*
X102245733Y-41961341D01*
X102235629Y-41891067D01*
X102256651Y-41837423D01*
X102295263Y-41781483D01*
X102336187Y-41722195D01*
X102392549Y-41573582D01*
X102392549Y-41573581D01*
X102392550Y-41573579D01*
X102411707Y-41415803D01*
X102411707Y-41415796D01*
X102392549Y-41258018D01*
X102392549Y-41258016D01*
X102386088Y-41240979D01*
X102380634Y-41170193D01*
X102414317Y-41107695D01*
X102476442Y-41073328D01*
X102503900Y-41070300D01*
X132515731Y-41070300D01*
X132583852Y-41090302D01*
G37*
%TD.AperFunction*%
%TA.AperFunction,Conductor*%
G36*
X72530833Y-41090302D02*
G01*
X72577326Y-41143958D01*
X72587430Y-41214232D01*
X72557936Y-41278812D01*
X72546270Y-41290607D01*
X72507280Y-41325149D01*
X72455300Y-41371200D01*
X72365015Y-41502001D01*
X72365012Y-41502007D01*
X72308649Y-41650620D01*
X72289493Y-41808396D01*
X72289493Y-41808403D01*
X72308650Y-41966181D01*
X72315112Y-41983219D01*
X72320567Y-42054006D01*
X72286886Y-42116504D01*
X72224762Y-42150872D01*
X72197301Y-42153901D01*
X71599805Y-42153901D01*
X71531684Y-42133899D01*
X71485191Y-42080243D01*
X71476183Y-42022122D01*
X71474507Y-42022122D01*
X71474507Y-42014497D01*
X71455350Y-41856720D01*
X71436418Y-41806801D01*
X71398987Y-41708105D01*
X71308698Y-41577299D01*
X71189729Y-41471901D01*
X71189728Y-41471900D01*
X71189725Y-41471898D01*
X71048997Y-41398039D01*
X71048995Y-41398038D01*
X71048993Y-41398037D01*
X71048991Y-41398036D01*
X71048990Y-41398036D01*
X70894672Y-41360000D01*
X70894671Y-41360000D01*
X70735729Y-41360000D01*
X70735727Y-41360000D01*
X70581409Y-41398036D01*
X70581402Y-41398039D01*
X70440674Y-41471898D01*
X70440669Y-41471902D01*
X70321701Y-41577300D01*
X70231415Y-41708101D01*
X70231412Y-41708107D01*
X70175049Y-41856720D01*
X70155893Y-42014496D01*
X70155893Y-42014503D01*
X70175049Y-42172279D01*
X70212482Y-42270979D01*
X70231413Y-42320895D01*
X70321702Y-42451701D01*
X70440671Y-42557099D01*
X70440672Y-42557099D01*
X70440674Y-42557101D01*
X70455759Y-42565018D01*
X70581407Y-42630963D01*
X70735729Y-42669000D01*
X70735730Y-42669000D01*
X70880816Y-42669000D01*
X70948937Y-42689002D01*
X70969911Y-42705905D01*
X71026014Y-42762008D01*
X71026035Y-42762031D01*
X71101075Y-42837071D01*
X71101080Y-42837075D01*
X71101082Y-42837077D01*
X71101083Y-42837078D01*
X71101085Y-42837079D01*
X71187615Y-42887037D01*
X71187619Y-42887039D01*
X71208010Y-42892502D01*
X71208015Y-42892505D01*
X71208016Y-42892504D01*
X71284139Y-42912902D01*
X71391781Y-42912902D01*
X71391797Y-42912901D01*
X74531217Y-42912901D01*
X74599338Y-42932903D01*
X74620312Y-42949806D01*
X74648593Y-42978087D01*
X74682619Y-43040399D01*
X74685498Y-43067182D01*
X74685498Y-44120901D01*
X74685497Y-44120919D01*
X74685497Y-44238710D01*
X74685498Y-44238723D01*
X74685498Y-44730010D01*
X74665496Y-44798131D01*
X74611840Y-44844624D01*
X74541566Y-44854728D01*
X74476986Y-44825234D01*
X74470403Y-44819105D01*
X74396630Y-44745332D01*
X74396607Y-44745311D01*
X73520129Y-43868833D01*
X73520117Y-43868819D01*
X73442290Y-43790992D01*
X73442280Y-43790984D01*
X73355745Y-43741024D01*
X73345548Y-43738292D01*
X73335349Y-43735559D01*
X73259230Y-43715162D01*
X73259227Y-43715162D01*
X73159303Y-43715162D01*
X73159299Y-43715162D01*
X69500846Y-43715162D01*
X69432725Y-43695160D01*
X69411751Y-43678257D01*
X67339012Y-41605518D01*
X67304986Y-41543206D01*
X67303026Y-41501235D01*
X67308907Y-41452802D01*
X67308907Y-41452797D01*
X67289750Y-41295020D01*
X67275716Y-41258016D01*
X67269255Y-41240979D01*
X67263801Y-41170194D01*
X67297483Y-41107696D01*
X67359607Y-41073329D01*
X67387067Y-41070300D01*
X72462712Y-41070300D01*
X72530833Y-41090302D01*
G37*
%TD.AperFunction*%
%TD*%
M02*
