%TF.GenerationSoftware,KiCad,Pcbnew,(5.1.9)-1*%
%TF.CreationDate,2023-03-23T17:51:48+02:00*%
%TF.ProjectId,jantteri-testrack-interface,6a616e74-7465-4726-992d-746573747261,rev?*%
%TF.SameCoordinates,Original*%
%TF.FileFunction,Legend,Top*%
%TF.FilePolarity,Positive*%
%FSLAX46Y46*%
G04 Gerber Fmt 4.6, Leading zero omitted, Abs format (unit mm)*
G04 Created by KiCad (PCBNEW (5.1.9)-1) date 2023-03-23 17:51:48*
%MOMM*%
%LPD*%
G01*
G04 APERTURE LIST*
%ADD10C,0.150000*%
%ADD11C,0.120000*%
G04 APERTURE END LIST*
D10*
X200451980Y-107961085D02*
X200451980Y-108532514D01*
X200451980Y-108246800D02*
X199451980Y-108246800D01*
X199594838Y-108342038D01*
X199690076Y-108437276D01*
X199737695Y-108532514D01*
X200451980Y-107532514D02*
X199451980Y-107532514D01*
X200451980Y-106961085D02*
X199880552Y-107389657D01*
X199451980Y-106961085D02*
X200023409Y-107532514D01*
X125979180Y-109383485D02*
X125979180Y-109954914D01*
X125979180Y-109669200D02*
X124979180Y-109669200D01*
X125122038Y-109764438D01*
X125217276Y-109859676D01*
X125264895Y-109954914D01*
X125979180Y-108954914D02*
X124979180Y-108954914D01*
X125979180Y-108383485D02*
X125407752Y-108812057D01*
X124979180Y-108383485D02*
X125550609Y-108954914D01*
X151125180Y-109078685D02*
X151125180Y-109650114D01*
X151125180Y-109364400D02*
X150125180Y-109364400D01*
X150268038Y-109459638D01*
X150363276Y-109554876D01*
X150410895Y-109650114D01*
X151125180Y-108650114D02*
X150125180Y-108650114D01*
X151125180Y-108078685D02*
X150553752Y-108507257D01*
X150125180Y-108078685D02*
X150696609Y-108650114D01*
X101290380Y-109739085D02*
X101290380Y-110310514D01*
X101290380Y-110024800D02*
X100290380Y-110024800D01*
X100433238Y-110120038D01*
X100528476Y-110215276D01*
X100576095Y-110310514D01*
X101290380Y-109310514D02*
X100290380Y-109310514D01*
X101290380Y-108739085D02*
X100718952Y-109167657D01*
X100290380Y-108739085D02*
X100861809Y-109310514D01*
X175712380Y-109027885D02*
X175712380Y-109599314D01*
X175712380Y-109313600D02*
X174712380Y-109313600D01*
X174855238Y-109408838D01*
X174950476Y-109504076D01*
X174998095Y-109599314D01*
X175712380Y-108599314D02*
X174712380Y-108599314D01*
X175712380Y-108027885D02*
X175140952Y-108456457D01*
X174712380Y-108027885D02*
X175283809Y-108599314D01*
X96743923Y-116631980D02*
X96172495Y-116631980D01*
X96458209Y-116631980D02*
X96458209Y-115631980D01*
X96362971Y-115774838D01*
X96267733Y-115870076D01*
X96172495Y-115917695D01*
X97362971Y-115631980D02*
X97458209Y-115631980D01*
X97553447Y-115679600D01*
X97601066Y-115727219D01*
X97648685Y-115822457D01*
X97696304Y-116012933D01*
X97696304Y-116251028D01*
X97648685Y-116441504D01*
X97601066Y-116536742D01*
X97553447Y-116584361D01*
X97458209Y-116631980D01*
X97362971Y-116631980D01*
X97267733Y-116584361D01*
X97220114Y-116536742D01*
X97172495Y-116441504D01*
X97124876Y-116251028D01*
X97124876Y-116012933D01*
X97172495Y-115822457D01*
X97220114Y-115727219D01*
X97267733Y-115679600D01*
X97362971Y-115631980D01*
X98124876Y-116631980D02*
X98124876Y-115631980D01*
X98696304Y-116631980D02*
X98267733Y-116060552D01*
X98696304Y-115631980D02*
X98124876Y-116203409D01*
X171369123Y-116073180D02*
X170797695Y-116073180D01*
X171083409Y-116073180D02*
X171083409Y-115073180D01*
X170988171Y-115216038D01*
X170892933Y-115311276D01*
X170797695Y-115358895D01*
X171988171Y-115073180D02*
X172083409Y-115073180D01*
X172178647Y-115120800D01*
X172226266Y-115168419D01*
X172273885Y-115263657D01*
X172321504Y-115454133D01*
X172321504Y-115692228D01*
X172273885Y-115882704D01*
X172226266Y-115977942D01*
X172178647Y-116025561D01*
X172083409Y-116073180D01*
X171988171Y-116073180D01*
X171892933Y-116025561D01*
X171845314Y-115977942D01*
X171797695Y-115882704D01*
X171750076Y-115692228D01*
X171750076Y-115454133D01*
X171797695Y-115263657D01*
X171845314Y-115168419D01*
X171892933Y-115120800D01*
X171988171Y-115073180D01*
X172750076Y-116073180D02*
X172750076Y-115073180D01*
X173321504Y-116073180D02*
X172892933Y-115501752D01*
X173321504Y-115073180D02*
X172750076Y-115644609D01*
X146781923Y-116022380D02*
X146210495Y-116022380D01*
X146496209Y-116022380D02*
X146496209Y-115022380D01*
X146400971Y-115165238D01*
X146305733Y-115260476D01*
X146210495Y-115308095D01*
X147400971Y-115022380D02*
X147496209Y-115022380D01*
X147591447Y-115070000D01*
X147639066Y-115117619D01*
X147686685Y-115212857D01*
X147734304Y-115403333D01*
X147734304Y-115641428D01*
X147686685Y-115831904D01*
X147639066Y-115927142D01*
X147591447Y-115974761D01*
X147496209Y-116022380D01*
X147400971Y-116022380D01*
X147305733Y-115974761D01*
X147258114Y-115927142D01*
X147210495Y-115831904D01*
X147162876Y-115641428D01*
X147162876Y-115403333D01*
X147210495Y-115212857D01*
X147258114Y-115117619D01*
X147305733Y-115070000D01*
X147400971Y-115022380D01*
X148162876Y-116022380D02*
X148162876Y-115022380D01*
X148734304Y-116022380D02*
X148305733Y-115450952D01*
X148734304Y-115022380D02*
X148162876Y-115593809D01*
X121635923Y-116428780D02*
X121064495Y-116428780D01*
X121350209Y-116428780D02*
X121350209Y-115428780D01*
X121254971Y-115571638D01*
X121159733Y-115666876D01*
X121064495Y-115714495D01*
X122254971Y-115428780D02*
X122350209Y-115428780D01*
X122445447Y-115476400D01*
X122493066Y-115524019D01*
X122540685Y-115619257D01*
X122588304Y-115809733D01*
X122588304Y-116047828D01*
X122540685Y-116238304D01*
X122493066Y-116333542D01*
X122445447Y-116381161D01*
X122350209Y-116428780D01*
X122254971Y-116428780D01*
X122159733Y-116381161D01*
X122112114Y-116333542D01*
X122064495Y-116238304D01*
X122016876Y-116047828D01*
X122016876Y-115809733D01*
X122064495Y-115619257D01*
X122112114Y-115524019D01*
X122159733Y-115476400D01*
X122254971Y-115428780D01*
X123016876Y-116428780D02*
X123016876Y-115428780D01*
X123588304Y-116428780D02*
X123159733Y-115857352D01*
X123588304Y-115428780D02*
X123016876Y-116000209D01*
X191739923Y-116123980D02*
X191168495Y-116123980D01*
X191454209Y-116123980D02*
X191454209Y-115123980D01*
X191358971Y-115266838D01*
X191263733Y-115362076D01*
X191168495Y-115409695D01*
X192358971Y-115123980D02*
X192454209Y-115123980D01*
X192549447Y-115171600D01*
X192597066Y-115219219D01*
X192644685Y-115314457D01*
X192692304Y-115504933D01*
X192692304Y-115743028D01*
X192644685Y-115933504D01*
X192597066Y-116028742D01*
X192549447Y-116076361D01*
X192454209Y-116123980D01*
X192358971Y-116123980D01*
X192263733Y-116076361D01*
X192216114Y-116028742D01*
X192168495Y-115933504D01*
X192120876Y-115743028D01*
X192120876Y-115504933D01*
X192168495Y-115314457D01*
X192216114Y-115219219D01*
X192263733Y-115171600D01*
X192358971Y-115123980D01*
X193120876Y-116123980D02*
X193120876Y-115123980D01*
X193692304Y-116123980D02*
X193263733Y-115552552D01*
X193692304Y-115123980D02*
X193120876Y-115695409D01*
X178623980Y-90157276D02*
X178623980Y-90633466D01*
X179100171Y-90681085D01*
X179052552Y-90633466D01*
X179004933Y-90538228D01*
X179004933Y-90300133D01*
X179052552Y-90204895D01*
X179100171Y-90157276D01*
X179195409Y-90109657D01*
X179433504Y-90109657D01*
X179528742Y-90157276D01*
X179576361Y-90204895D01*
X179623980Y-90300133D01*
X179623980Y-90538228D01*
X179576361Y-90633466D01*
X179528742Y-90681085D01*
X178623980Y-89823942D02*
X179623980Y-89490609D01*
X178623980Y-89157276D01*
X104100380Y-91071676D02*
X104100380Y-91547866D01*
X104576571Y-91595485D01*
X104528952Y-91547866D01*
X104481333Y-91452628D01*
X104481333Y-91214533D01*
X104528952Y-91119295D01*
X104576571Y-91071676D01*
X104671809Y-91024057D01*
X104909904Y-91024057D01*
X105005142Y-91071676D01*
X105052761Y-91119295D01*
X105100380Y-91214533D01*
X105100380Y-91452628D01*
X105052761Y-91547866D01*
X105005142Y-91595485D01*
X104100380Y-90738342D02*
X105100380Y-90405009D01*
X104100380Y-90071676D01*
X128941580Y-91071676D02*
X128941580Y-91547866D01*
X129417771Y-91595485D01*
X129370152Y-91547866D01*
X129322533Y-91452628D01*
X129322533Y-91214533D01*
X129370152Y-91119295D01*
X129417771Y-91071676D01*
X129513009Y-91024057D01*
X129751104Y-91024057D01*
X129846342Y-91071676D01*
X129893961Y-91119295D01*
X129941580Y-91214533D01*
X129941580Y-91452628D01*
X129893961Y-91547866D01*
X129846342Y-91595485D01*
X128941580Y-90738342D02*
X129941580Y-90405009D01*
X128941580Y-90071676D01*
X154290780Y-90411276D02*
X154290780Y-90887466D01*
X154766971Y-90935085D01*
X154719352Y-90887466D01*
X154671733Y-90792228D01*
X154671733Y-90554133D01*
X154719352Y-90458895D01*
X154766971Y-90411276D01*
X154862209Y-90363657D01*
X155100304Y-90363657D01*
X155195542Y-90411276D01*
X155243161Y-90458895D01*
X155290780Y-90554133D01*
X155290780Y-90792228D01*
X155243161Y-90887466D01*
X155195542Y-90935085D01*
X154290780Y-90077942D02*
X155290780Y-89744609D01*
X154290780Y-89411276D01*
X79563980Y-90868476D02*
X79563980Y-91344666D01*
X80040171Y-91392285D01*
X79992552Y-91344666D01*
X79944933Y-91249428D01*
X79944933Y-91011333D01*
X79992552Y-90916095D01*
X80040171Y-90868476D01*
X80135409Y-90820857D01*
X80373504Y-90820857D01*
X80468742Y-90868476D01*
X80516361Y-90916095D01*
X80563980Y-91011333D01*
X80563980Y-91249428D01*
X80516361Y-91344666D01*
X80468742Y-91392285D01*
X79563980Y-90535142D02*
X80563980Y-90201809D01*
X79563980Y-89868476D01*
X80513180Y-101406247D02*
X80513180Y-101977676D01*
X80513180Y-101691961D02*
X79513180Y-101691961D01*
X79656038Y-101787200D01*
X79751276Y-101882438D01*
X79798895Y-101977676D01*
X79608419Y-101025295D02*
X79560800Y-100977676D01*
X79513180Y-100882438D01*
X79513180Y-100644342D01*
X79560800Y-100549104D01*
X79608419Y-100501485D01*
X79703657Y-100453866D01*
X79798895Y-100453866D01*
X79941752Y-100501485D01*
X80513180Y-101072914D01*
X80513180Y-100453866D01*
X79513180Y-100168152D02*
X80513180Y-99834819D01*
X79513180Y-99501485D01*
X155087580Y-101050647D02*
X155087580Y-101622076D01*
X155087580Y-101336361D02*
X154087580Y-101336361D01*
X154230438Y-101431600D01*
X154325676Y-101526838D01*
X154373295Y-101622076D01*
X154182819Y-100669695D02*
X154135200Y-100622076D01*
X154087580Y-100526838D01*
X154087580Y-100288742D01*
X154135200Y-100193504D01*
X154182819Y-100145885D01*
X154278057Y-100098266D01*
X154373295Y-100098266D01*
X154516152Y-100145885D01*
X155087580Y-100717314D01*
X155087580Y-100098266D01*
X154087580Y-99812552D02*
X155087580Y-99479219D01*
X154087580Y-99145885D01*
X130093980Y-102269847D02*
X130093980Y-102841276D01*
X130093980Y-102555561D02*
X129093980Y-102555561D01*
X129236838Y-102650800D01*
X129332076Y-102746038D01*
X129379695Y-102841276D01*
X129189219Y-101888895D02*
X129141600Y-101841276D01*
X129093980Y-101746038D01*
X129093980Y-101507942D01*
X129141600Y-101412704D01*
X129189219Y-101365085D01*
X129284457Y-101317466D01*
X129379695Y-101317466D01*
X129522552Y-101365085D01*
X130093980Y-101936514D01*
X130093980Y-101317466D01*
X129093980Y-101031752D02*
X130093980Y-100698419D01*
X129093980Y-100365085D01*
X105049580Y-103285847D02*
X105049580Y-103857276D01*
X105049580Y-103571561D02*
X104049580Y-103571561D01*
X104192438Y-103666800D01*
X104287676Y-103762038D01*
X104335295Y-103857276D01*
X104144819Y-102904895D02*
X104097200Y-102857276D01*
X104049580Y-102762038D01*
X104049580Y-102523942D01*
X104097200Y-102428704D01*
X104144819Y-102381085D01*
X104240057Y-102333466D01*
X104335295Y-102333466D01*
X104478152Y-102381085D01*
X105049580Y-102952514D01*
X105049580Y-102333466D01*
X104049580Y-102047752D02*
X105049580Y-101714419D01*
X104049580Y-101381085D01*
X179623980Y-101914247D02*
X179623980Y-102485676D01*
X179623980Y-102199961D02*
X178623980Y-102199961D01*
X178766838Y-102295200D01*
X178862076Y-102390438D01*
X178909695Y-102485676D01*
X178719219Y-101533295D02*
X178671600Y-101485676D01*
X178623980Y-101390438D01*
X178623980Y-101152342D01*
X178671600Y-101057104D01*
X178719219Y-101009485D01*
X178814457Y-100961866D01*
X178909695Y-100961866D01*
X179052552Y-101009485D01*
X179623980Y-101580914D01*
X179623980Y-100961866D01*
X178623980Y-100676152D02*
X179623980Y-100342819D01*
X178623980Y-100009485D01*
D11*
%TO.C,D1*%
X102155600Y-95070000D02*
X99215600Y-95070000D01*
X99215600Y-95070000D02*
X99215600Y-100510000D01*
X99215600Y-100510000D02*
X102155600Y-100510000D01*
X102155600Y-100510000D02*
X102155600Y-95070000D01*
X100685600Y-94050000D02*
X100685600Y-95070000D01*
X100685600Y-101530000D02*
X100685600Y-100510000D01*
X102155600Y-95970000D02*
X99215600Y-95970000D01*
X102155600Y-96090000D02*
X99215600Y-96090000D01*
X102155600Y-95850000D02*
X99215600Y-95850000D01*
%TO.C,D2*%
X126590400Y-95037200D02*
X123650400Y-95037200D01*
X126590400Y-95277200D02*
X123650400Y-95277200D01*
X126590400Y-95157200D02*
X123650400Y-95157200D01*
X125120400Y-100717200D02*
X125120400Y-99697200D01*
X125120400Y-93237200D02*
X125120400Y-94257200D01*
X126590400Y-99697200D02*
X126590400Y-94257200D01*
X123650400Y-99697200D02*
X126590400Y-99697200D01*
X123650400Y-94257200D02*
X123650400Y-99697200D01*
X126590400Y-94257200D02*
X123650400Y-94257200D01*
%TO.C,D3*%
X152092000Y-95088000D02*
X149152000Y-95088000D01*
X152092000Y-95328000D02*
X149152000Y-95328000D01*
X152092000Y-95208000D02*
X149152000Y-95208000D01*
X150622000Y-100768000D02*
X150622000Y-99748000D01*
X150622000Y-93288000D02*
X150622000Y-94308000D01*
X152092000Y-99748000D02*
X152092000Y-94308000D01*
X149152000Y-99748000D02*
X152092000Y-99748000D01*
X149152000Y-94308000D02*
X149152000Y-99748000D01*
X152092000Y-94308000D02*
X149152000Y-94308000D01*
%TO.C,D4*%
X201469600Y-93360800D02*
X198529600Y-93360800D01*
X201469600Y-93600800D02*
X198529600Y-93600800D01*
X201469600Y-93480800D02*
X198529600Y-93480800D01*
X199999600Y-99040800D02*
X199999600Y-98020800D01*
X199999600Y-91560800D02*
X199999600Y-92580800D01*
X201469600Y-98020800D02*
X201469600Y-92580800D01*
X198529600Y-98020800D02*
X201469600Y-98020800D01*
X198529600Y-92580800D02*
X198529600Y-98020800D01*
X201469600Y-92580800D02*
X198529600Y-92580800D01*
%TO.C,D5*%
X176628400Y-93596800D02*
X173688400Y-93596800D01*
X173688400Y-93596800D02*
X173688400Y-99036800D01*
X173688400Y-99036800D02*
X176628400Y-99036800D01*
X176628400Y-99036800D02*
X176628400Y-93596800D01*
X175158400Y-92576800D02*
X175158400Y-93596800D01*
X175158400Y-100056800D02*
X175158400Y-99036800D01*
X176628400Y-94496800D02*
X173688400Y-94496800D01*
X176628400Y-94616800D02*
X173688400Y-94616800D01*
X176628400Y-94376800D02*
X173688400Y-94376800D01*
%TO.C,J1*%
X124247600Y-75396400D02*
X124247600Y-72796400D01*
X124247600Y-75396400D02*
X142147600Y-75396400D01*
X142147600Y-75396400D02*
X142147600Y-70196400D01*
X126847600Y-70196400D02*
X142147600Y-70196400D01*
X126847600Y-72796400D02*
X126847600Y-70196400D01*
X124247600Y-72796400D02*
X126847600Y-72796400D01*
X124247600Y-70196400D02*
X125577600Y-70196400D01*
X124247600Y-71526400D02*
X124247600Y-70196400D01*
%TO.C,J2*%
X116221200Y-80721200D02*
X116221200Y-79391200D01*
X116221200Y-79391200D02*
X117551200Y-79391200D01*
X118821200Y-79391200D02*
X151901200Y-79391200D01*
X151901200Y-82051200D02*
X151901200Y-79391200D01*
X118821200Y-82051200D02*
X151901200Y-82051200D01*
X118821200Y-82051200D02*
X118821200Y-79391200D01*
%TO.C,J3*%
X85284000Y-71932800D02*
X85284000Y-70602800D01*
X85284000Y-70602800D02*
X86614000Y-70602800D01*
X85284000Y-73202800D02*
X87884000Y-73202800D01*
X87884000Y-73202800D02*
X87884000Y-70602800D01*
X87884000Y-70602800D02*
X103184000Y-70602800D01*
X103184000Y-75802800D02*
X103184000Y-70602800D01*
X85284000Y-75802800D02*
X103184000Y-75802800D01*
X85284000Y-75802800D02*
X85284000Y-73202800D01*
%TO.C,J5*%
X79959200Y-82152800D02*
X79959200Y-79492800D01*
X79959200Y-82152800D02*
X113039200Y-82152800D01*
X113039200Y-82152800D02*
X113039200Y-79492800D01*
X79959200Y-79492800D02*
X113039200Y-79492800D01*
X77359200Y-79492800D02*
X78689200Y-79492800D01*
X77359200Y-80822800D02*
X77359200Y-79492800D01*
%TO.C,JP1*%
X99888800Y-88613200D02*
X99888800Y-85813200D01*
X99888800Y-85813200D02*
X101888800Y-85813200D01*
X101888800Y-85813200D02*
X101888800Y-88613200D01*
X101888800Y-88613200D02*
X99888800Y-88613200D01*
%TO.C,JP2*%
X126222000Y-88816400D02*
X124222000Y-88816400D01*
X126222000Y-86016400D02*
X126222000Y-88816400D01*
X124222000Y-86016400D02*
X126222000Y-86016400D01*
X124222000Y-88816400D02*
X124222000Y-86016400D01*
%TO.C,JP3*%
X149672800Y-88308400D02*
X149672800Y-85508400D01*
X149672800Y-85508400D02*
X151672800Y-85508400D01*
X151672800Y-85508400D02*
X151672800Y-88308400D01*
X151672800Y-88308400D02*
X149672800Y-88308400D01*
%TO.C,JP4*%
X176463200Y-88471200D02*
X174463200Y-88471200D01*
X176463200Y-85671200D02*
X176463200Y-88471200D01*
X174463200Y-85671200D02*
X176463200Y-85671200D01*
X174463200Y-88471200D02*
X174463200Y-85671200D01*
%TO.C,JP5*%
X198999600Y-88176800D02*
X198999600Y-85376800D01*
X198999600Y-85376800D02*
X200999600Y-85376800D01*
X200999600Y-85376800D02*
X200999600Y-88176800D01*
X200999600Y-88176800D02*
X198999600Y-88176800D01*
%TO.C,Q1*%
X94783122Y-113242878D02*
G75*
G03*
X99221600Y-111404400I1838478J1838478D01*
G01*
X94783122Y-109565922D02*
G75*
G02*
X99221600Y-111404400I1838478J-1838478D01*
G01*
X94771600Y-109604400D02*
X94771600Y-113204400D01*
%TO.C,Q2*%
X117530000Y-109807600D02*
X117530000Y-113407600D01*
X117541522Y-109769122D02*
G75*
G02*
X121980000Y-111607600I1838478J-1838478D01*
G01*
X117541522Y-113446078D02*
G75*
G03*
X121980000Y-111607600I1838478J1838478D01*
G01*
%TO.C,Q3*%
X142777600Y-109401200D02*
X142777600Y-113001200D01*
X142789122Y-109362722D02*
G75*
G02*
X147227600Y-111201200I1838478J-1838478D01*
G01*
X142789122Y-113039678D02*
G75*
G03*
X147227600Y-111201200I1838478J1838478D01*
G01*
%TO.C,Q4*%
X188966322Y-112734878D02*
G75*
G03*
X193404800Y-110896400I1838478J1838478D01*
G01*
X188966322Y-109057922D02*
G75*
G02*
X193404800Y-110896400I1838478J-1838478D01*
G01*
X188954800Y-109096400D02*
X188954800Y-112696400D01*
%TO.C,Q5*%
X167161600Y-109553600D02*
X167161600Y-113153600D01*
X167173122Y-109515122D02*
G75*
G02*
X171611600Y-111353600I1838478J-1838478D01*
G01*
X167173122Y-113192078D02*
G75*
G03*
X171611600Y-111353600I1838478J1838478D01*
G01*
%TO.C,R1*%
X78792400Y-104057200D02*
X79122400Y-104057200D01*
X78792400Y-97517200D02*
X78792400Y-104057200D01*
X79122400Y-97517200D02*
X78792400Y-97517200D01*
X81532400Y-104057200D02*
X81202400Y-104057200D01*
X81532400Y-97517200D02*
X81532400Y-104057200D01*
X81202400Y-97517200D02*
X81532400Y-97517200D01*
%TO.C,R2*%
X79173200Y-93846400D02*
X78843200Y-93846400D01*
X78843200Y-93846400D02*
X78843200Y-87306400D01*
X78843200Y-87306400D02*
X79173200Y-87306400D01*
X81253200Y-93846400D02*
X81583200Y-93846400D01*
X81583200Y-93846400D02*
X81583200Y-87306400D01*
X81583200Y-87306400D02*
X81253200Y-87306400D01*
%TO.C,R3*%
X105688000Y-98330000D02*
X106018000Y-98330000D01*
X106018000Y-98330000D02*
X106018000Y-104870000D01*
X106018000Y-104870000D02*
X105688000Y-104870000D01*
X103608000Y-98330000D02*
X103278000Y-98330000D01*
X103278000Y-98330000D02*
X103278000Y-104870000D01*
X103278000Y-104870000D02*
X103608000Y-104870000D01*
%TO.C,R4*%
X105967200Y-87458800D02*
X105637200Y-87458800D01*
X105967200Y-93998800D02*
X105967200Y-87458800D01*
X105637200Y-93998800D02*
X105967200Y-93998800D01*
X103227200Y-87458800D02*
X103557200Y-87458800D01*
X103227200Y-93998800D02*
X103227200Y-87458800D01*
X103557200Y-93998800D02*
X103227200Y-93998800D01*
%TO.C,R5*%
X128170000Y-104819200D02*
X128500000Y-104819200D01*
X128170000Y-98279200D02*
X128170000Y-104819200D01*
X128500000Y-98279200D02*
X128170000Y-98279200D01*
X130910000Y-104819200D02*
X130580000Y-104819200D01*
X130910000Y-98279200D02*
X130910000Y-104819200D01*
X130580000Y-98279200D02*
X130910000Y-98279200D01*
%TO.C,R6*%
X128398400Y-94456000D02*
X128068400Y-94456000D01*
X128068400Y-94456000D02*
X128068400Y-87916000D01*
X128068400Y-87916000D02*
X128398400Y-87916000D01*
X130478400Y-94456000D02*
X130808400Y-94456000D01*
X130808400Y-94456000D02*
X130808400Y-87916000D01*
X130808400Y-87916000D02*
X130478400Y-87916000D01*
%TO.C,R10*%
X102868400Y-106000800D02*
X102538400Y-106000800D01*
X102868400Y-112540800D02*
X102868400Y-106000800D01*
X102538400Y-112540800D02*
X102868400Y-112540800D01*
X100128400Y-106000800D02*
X100458400Y-106000800D01*
X100128400Y-112540800D02*
X100128400Y-106000800D01*
X100458400Y-112540800D02*
X100128400Y-112540800D01*
%TO.C,R11*%
X126846000Y-105797600D02*
X126516000Y-105797600D01*
X126846000Y-112337600D02*
X126846000Y-105797600D01*
X126516000Y-112337600D02*
X126846000Y-112337600D01*
X124106000Y-105797600D02*
X124436000Y-105797600D01*
X124106000Y-112337600D02*
X124106000Y-105797600D01*
X124436000Y-112337600D02*
X124106000Y-112337600D01*
%TO.C,R12*%
X149683600Y-112032800D02*
X149353600Y-112032800D01*
X149353600Y-112032800D02*
X149353600Y-105492800D01*
X149353600Y-105492800D02*
X149683600Y-105492800D01*
X151763600Y-112032800D02*
X152093600Y-112032800D01*
X152093600Y-112032800D02*
X152093600Y-105492800D01*
X152093600Y-105492800D02*
X151763600Y-105492800D01*
%TO.C,R13*%
X101314000Y-117448000D02*
X101314000Y-117118000D01*
X94774000Y-117448000D02*
X101314000Y-117448000D01*
X94774000Y-117118000D02*
X94774000Y-117448000D01*
X101314000Y-114708000D02*
X101314000Y-115038000D01*
X94774000Y-114708000D02*
X101314000Y-114708000D01*
X94774000Y-115038000D02*
X94774000Y-114708000D01*
%TO.C,R14*%
X119056400Y-114936400D02*
X119056400Y-114606400D01*
X119056400Y-114606400D02*
X125596400Y-114606400D01*
X125596400Y-114606400D02*
X125596400Y-114936400D01*
X119056400Y-117016400D02*
X119056400Y-117346400D01*
X119056400Y-117346400D02*
X125596400Y-117346400D01*
X125596400Y-117346400D02*
X125596400Y-117016400D01*
%TO.C,R15*%
X150742400Y-116940000D02*
X150742400Y-116610000D01*
X144202400Y-116940000D02*
X150742400Y-116940000D01*
X144202400Y-116610000D02*
X144202400Y-116940000D01*
X150742400Y-114200000D02*
X150742400Y-114530000D01*
X144202400Y-114200000D02*
X150742400Y-114200000D01*
X144202400Y-114530000D02*
X144202400Y-114200000D01*
%TO.C,R16*%
X177700000Y-104616000D02*
X178030000Y-104616000D01*
X177700000Y-98076000D02*
X177700000Y-104616000D01*
X178030000Y-98076000D02*
X177700000Y-98076000D01*
X180440000Y-104616000D02*
X180110000Y-104616000D01*
X180440000Y-98076000D02*
X180440000Y-104616000D01*
X180110000Y-98076000D02*
X180440000Y-98076000D01*
%TO.C,R17*%
X180592400Y-87103200D02*
X180262400Y-87103200D01*
X180592400Y-93643200D02*
X180592400Y-87103200D01*
X180262400Y-93643200D02*
X180592400Y-93643200D01*
X177852400Y-87103200D02*
X178182400Y-87103200D01*
X177852400Y-93643200D02*
X177852400Y-87103200D01*
X178182400Y-93643200D02*
X177852400Y-93643200D01*
%TO.C,R18*%
X153265200Y-103752400D02*
X153595200Y-103752400D01*
X153265200Y-97212400D02*
X153265200Y-103752400D01*
X153595200Y-97212400D02*
X153265200Y-97212400D01*
X156005200Y-103752400D02*
X155675200Y-103752400D01*
X156005200Y-97212400D02*
X156005200Y-103752400D01*
X155675200Y-97212400D02*
X156005200Y-97212400D01*
%TO.C,R19*%
X153646000Y-93643200D02*
X153316000Y-93643200D01*
X153316000Y-93643200D02*
X153316000Y-87103200D01*
X153316000Y-87103200D02*
X153646000Y-87103200D01*
X155726000Y-93643200D02*
X156056000Y-93643200D01*
X156056000Y-93643200D02*
X156056000Y-87103200D01*
X156056000Y-87103200D02*
X155726000Y-87103200D01*
%TO.C,R22*%
X198908800Y-111016800D02*
X198578800Y-111016800D01*
X198578800Y-111016800D02*
X198578800Y-104476800D01*
X198578800Y-104476800D02*
X198908800Y-104476800D01*
X200988800Y-111016800D02*
X201318800Y-111016800D01*
X201318800Y-111016800D02*
X201318800Y-104476800D01*
X201318800Y-104476800D02*
X200988800Y-104476800D01*
%TO.C,R23*%
X174118400Y-112032800D02*
X173788400Y-112032800D01*
X173788400Y-112032800D02*
X173788400Y-105492800D01*
X173788400Y-105492800D02*
X174118400Y-105492800D01*
X176198400Y-112032800D02*
X176528400Y-112032800D01*
X176528400Y-112032800D02*
X176528400Y-105492800D01*
X176528400Y-105492800D02*
X176198400Y-105492800D01*
%TO.C,R24*%
X196462400Y-116940000D02*
X196462400Y-116610000D01*
X189922400Y-116940000D02*
X196462400Y-116940000D01*
X189922400Y-116610000D02*
X189922400Y-116940000D01*
X196462400Y-114200000D02*
X196462400Y-114530000D01*
X189922400Y-114200000D02*
X196462400Y-114200000D01*
X189922400Y-114530000D02*
X189922400Y-114200000D01*
%TO.C,R25*%
X175228000Y-117143200D02*
X175228000Y-116813200D01*
X168688000Y-117143200D02*
X175228000Y-117143200D01*
X168688000Y-116813200D02*
X168688000Y-117143200D01*
X175228000Y-114403200D02*
X175228000Y-114733200D01*
X168688000Y-114403200D02*
X175228000Y-114403200D01*
X168688000Y-114733200D02*
X168688000Y-114403200D01*
%TO.C,U1*%
X81991200Y-108458000D02*
X81991200Y-107188000D01*
X83261200Y-108458000D02*
X81991200Y-108458000D01*
X98501200Y-107188000D02*
X98501200Y-108458000D01*
X98501200Y-85598000D02*
X98501200Y-86868000D01*
X81991200Y-85598000D02*
X83261200Y-85598000D01*
X83261200Y-85598000D02*
X98501200Y-85598000D01*
X81991200Y-107188000D02*
X81991200Y-85598000D01*
X98501200Y-108458000D02*
X83261200Y-108458000D01*
X98501200Y-86868000D02*
X98501200Y-107188000D01*
%TO.C,U2*%
X123037600Y-87071200D02*
X123037600Y-107391200D01*
X123037600Y-108661200D02*
X107797600Y-108661200D01*
X106527600Y-107391200D02*
X106527600Y-85801200D01*
X107797600Y-85801200D02*
X123037600Y-85801200D01*
X106527600Y-85801200D02*
X107797600Y-85801200D01*
X123037600Y-85801200D02*
X123037600Y-87071200D01*
X123037600Y-107391200D02*
X123037600Y-108661200D01*
X107797600Y-108661200D02*
X106527600Y-108661200D01*
X106527600Y-108661200D02*
X106527600Y-107391200D01*
%TO.C,U3*%
X148285200Y-86512400D02*
X148285200Y-106832400D01*
X148285200Y-108102400D02*
X133045200Y-108102400D01*
X131775200Y-106832400D02*
X131775200Y-85242400D01*
X133045200Y-85242400D02*
X148285200Y-85242400D01*
X131775200Y-85242400D02*
X133045200Y-85242400D01*
X148285200Y-85242400D02*
X148285200Y-86512400D01*
X148285200Y-106832400D02*
X148285200Y-108102400D01*
X133045200Y-108102400D02*
X131775200Y-108102400D01*
X131775200Y-108102400D02*
X131775200Y-106832400D01*
%TO.C,U4*%
X181000400Y-107696000D02*
X181000400Y-106426000D01*
X182270400Y-107696000D02*
X181000400Y-107696000D01*
X197510400Y-106426000D02*
X197510400Y-107696000D01*
X197510400Y-84836000D02*
X197510400Y-86106000D01*
X181000400Y-84836000D02*
X182270400Y-84836000D01*
X182270400Y-84836000D02*
X197510400Y-84836000D01*
X181000400Y-106426000D02*
X181000400Y-84836000D01*
X197510400Y-107696000D02*
X182270400Y-107696000D01*
X197510400Y-86106000D02*
X197510400Y-106426000D01*
%TO.C,U5*%
X156413200Y-108407200D02*
X156413200Y-107137200D01*
X157683200Y-108407200D02*
X156413200Y-108407200D01*
X172923200Y-107137200D02*
X172923200Y-108407200D01*
X172923200Y-85547200D02*
X172923200Y-86817200D01*
X156413200Y-85547200D02*
X157683200Y-85547200D01*
X157683200Y-85547200D02*
X172923200Y-85547200D01*
X156413200Y-107137200D02*
X156413200Y-85547200D01*
X172923200Y-108407200D02*
X157683200Y-108407200D01*
X172923200Y-86817200D02*
X172923200Y-107137200D01*
%TO.C,J4*%
X189230000Y-74930000D02*
X179070000Y-74930000D01*
X189230000Y-69850000D02*
X189230000Y-73660000D01*
X179070000Y-69850000D02*
X189230000Y-69850000D01*
X187960000Y-72390000D02*
G75*
G03*
X187960000Y-72390000I-1270000J0D01*
G01*
X182880000Y-72390000D02*
G75*
G03*
X182880000Y-72390000I-1270000J0D01*
G01*
X179070000Y-68580000D02*
X179070000Y-77470000D01*
X189230000Y-68580000D02*
X179070000Y-68580000D01*
X189230000Y-81280000D02*
X189230000Y-68580000D01*
X179070000Y-81280000D02*
X189230000Y-81280000D01*
X179070000Y-77470000D02*
X179070000Y-81280000D01*
%TO.C,J6*%
X190855600Y-77470000D02*
X190855600Y-81280000D01*
X190855600Y-81280000D02*
X201015600Y-81280000D01*
X201015600Y-81280000D02*
X201015600Y-68580000D01*
X201015600Y-68580000D02*
X190855600Y-68580000D01*
X190855600Y-68580000D02*
X190855600Y-77470000D01*
X194665600Y-72390000D02*
G75*
G03*
X194665600Y-72390000I-1270000J0D01*
G01*
X199745600Y-72390000D02*
G75*
G03*
X199745600Y-72390000I-1270000J0D01*
G01*
X190855600Y-69850000D02*
X201015600Y-69850000D01*
X201015600Y-69850000D02*
X201015600Y-73660000D01*
X201015600Y-74930000D02*
X190855600Y-74930000D01*
%TO.C,J7*%
X82600800Y-111201200D02*
X92760800Y-111201200D01*
X82600800Y-109931200D02*
X82600800Y-117551200D01*
X82600800Y-117551200D02*
X92760800Y-117551200D01*
X92760800Y-117551200D02*
X92760800Y-109931200D01*
X92760800Y-109931200D02*
X82600800Y-109931200D01*
%TO.C,J8*%
X116840000Y-109728000D02*
X106680000Y-109728000D01*
X116840000Y-117348000D02*
X116840000Y-109728000D01*
X106680000Y-117348000D02*
X116840000Y-117348000D01*
X106680000Y-109728000D02*
X106680000Y-117348000D01*
X106680000Y-110998000D02*
X116840000Y-110998000D01*
%TO.C,J9*%
X142087600Y-109321600D02*
X131927600Y-109321600D01*
X142087600Y-116941600D02*
X142087600Y-109321600D01*
X131927600Y-116941600D02*
X142087600Y-116941600D01*
X131927600Y-109321600D02*
X131927600Y-116941600D01*
X131927600Y-110591600D02*
X142087600Y-110591600D01*
%TO.C,J10*%
X187960000Y-109524800D02*
X177800000Y-109524800D01*
X187960000Y-117144800D02*
X187960000Y-109524800D01*
X177800000Y-117144800D02*
X187960000Y-117144800D01*
X177800000Y-109524800D02*
X177800000Y-117144800D01*
X177800000Y-110794800D02*
X187960000Y-110794800D01*
%TO.C,J11*%
X156565600Y-110693200D02*
X166725600Y-110693200D01*
X156565600Y-109423200D02*
X156565600Y-117043200D01*
X156565600Y-117043200D02*
X166725600Y-117043200D01*
X166725600Y-117043200D02*
X166725600Y-109423200D01*
X166725600Y-109423200D02*
X156565600Y-109423200D01*
%TO.C,J12*%
X167335200Y-74777600D02*
X177495200Y-74777600D01*
X167335200Y-73507600D02*
X167335200Y-81127600D01*
X167335200Y-81127600D02*
X177495200Y-81127600D01*
X177495200Y-81127600D02*
X177495200Y-73507600D01*
X177495200Y-73507600D02*
X167335200Y-73507600D01*
%TO.C,J13*%
X154990800Y-81127600D02*
X165150800Y-81127600D01*
X154990800Y-73507600D02*
X154990800Y-81127600D01*
X165150800Y-73507600D02*
X154990800Y-73507600D01*
X165150800Y-81127600D02*
X165150800Y-73507600D01*
X165150800Y-79857600D02*
X154990800Y-79857600D01*
%TO.C,Q6*%
X82743522Y-102727278D02*
G75*
G03*
X87182000Y-100888800I1838478J1838478D01*
G01*
X82743522Y-99050322D02*
G75*
G02*
X87182000Y-100888800I1838478J-1838478D01*
G01*
X82732000Y-99088800D02*
X82732000Y-102688800D01*
%TO.C,Q7*%
X107229122Y-102778078D02*
G75*
G03*
X111667600Y-100939600I1838478J1838478D01*
G01*
X107229122Y-99101122D02*
G75*
G02*
X111667600Y-100939600I1838478J-1838478D01*
G01*
X107217600Y-99139600D02*
X107217600Y-102739600D01*
%TO.C,Q8*%
X132465200Y-98834800D02*
X132465200Y-102434800D01*
X132476722Y-98796322D02*
G75*
G02*
X136915200Y-100634800I1838478J-1838478D01*
G01*
X132476722Y-102473278D02*
G75*
G03*
X136915200Y-100634800I1838478J1838478D01*
G01*
%TO.C,Q9*%
X181690400Y-98174400D02*
X181690400Y-101774400D01*
X181701922Y-98135922D02*
G75*
G02*
X186140400Y-99974400I1838478J-1838478D01*
G01*
X181701922Y-101812878D02*
G75*
G03*
X186140400Y-99974400I1838478J1838478D01*
G01*
%TO.C,Q10*%
X157103200Y-98733200D02*
X157103200Y-102333200D01*
X157114722Y-98694722D02*
G75*
G02*
X161553200Y-100533200I1838478J-1838478D01*
G01*
X157114722Y-102371678D02*
G75*
G03*
X161553200Y-100533200I1838478J1838478D01*
G01*
%TO.C,REF\u002A\u002A*%
D10*
X113373066Y-70572780D02*
X113039733Y-70096590D01*
X112801638Y-70572780D02*
X112801638Y-69572780D01*
X113182590Y-69572780D01*
X113277828Y-69620400D01*
X113325447Y-69668019D01*
X113373066Y-69763257D01*
X113373066Y-69906114D01*
X113325447Y-70001352D01*
X113277828Y-70048971D01*
X113182590Y-70096590D01*
X112801638Y-70096590D01*
X113801638Y-70048971D02*
X114134971Y-70048971D01*
X114277828Y-70572780D02*
X113801638Y-70572780D01*
X113801638Y-69572780D01*
X114277828Y-69572780D01*
X115039733Y-70048971D02*
X114706400Y-70048971D01*
X114706400Y-70572780D02*
X114706400Y-69572780D01*
X115182590Y-69572780D01*
X115706400Y-69572780D02*
X115706400Y-69810876D01*
X115468304Y-69715638D02*
X115706400Y-69810876D01*
X115944495Y-69715638D01*
X115563542Y-70001352D02*
X115706400Y-69810876D01*
X115849257Y-70001352D01*
X116468304Y-69572780D02*
X116468304Y-69810876D01*
X116230209Y-69715638D02*
X116468304Y-69810876D01*
X116706400Y-69715638D01*
X116325447Y-70001352D02*
X116468304Y-69810876D01*
X116611161Y-70001352D01*
X148831466Y-70572780D02*
X148498133Y-70096590D01*
X148260038Y-70572780D02*
X148260038Y-69572780D01*
X148640990Y-69572780D01*
X148736228Y-69620400D01*
X148783847Y-69668019D01*
X148831466Y-69763257D01*
X148831466Y-69906114D01*
X148783847Y-70001352D01*
X148736228Y-70048971D01*
X148640990Y-70096590D01*
X148260038Y-70096590D01*
X149260038Y-70048971D02*
X149593371Y-70048971D01*
X149736228Y-70572780D02*
X149260038Y-70572780D01*
X149260038Y-69572780D01*
X149736228Y-69572780D01*
X150498133Y-70048971D02*
X150164800Y-70048971D01*
X150164800Y-70572780D02*
X150164800Y-69572780D01*
X150640990Y-69572780D01*
X151164800Y-69572780D02*
X151164800Y-69810876D01*
X150926704Y-69715638D02*
X151164800Y-69810876D01*
X151402895Y-69715638D01*
X151021942Y-70001352D02*
X151164800Y-69810876D01*
X151307657Y-70001352D01*
X151926704Y-69572780D02*
X151926704Y-69810876D01*
X151688609Y-69715638D02*
X151926704Y-69810876D01*
X152164800Y-69715638D01*
X151783847Y-70001352D02*
X151926704Y-69810876D01*
X152069561Y-70001352D01*
X200495066Y-112330380D02*
X200161733Y-111854190D01*
X199923638Y-112330380D02*
X199923638Y-111330380D01*
X200304590Y-111330380D01*
X200399828Y-111378000D01*
X200447447Y-111425619D01*
X200495066Y-111520857D01*
X200495066Y-111663714D01*
X200447447Y-111758952D01*
X200399828Y-111806571D01*
X200304590Y-111854190D01*
X199923638Y-111854190D01*
X200923638Y-111806571D02*
X201256971Y-111806571D01*
X201399828Y-112330380D02*
X200923638Y-112330380D01*
X200923638Y-111330380D01*
X201399828Y-111330380D01*
X202161733Y-111806571D02*
X201828400Y-111806571D01*
X201828400Y-112330380D02*
X201828400Y-111330380D01*
X202304590Y-111330380D01*
X202828400Y-111330380D02*
X202828400Y-111568476D01*
X202590304Y-111473238D02*
X202828400Y-111568476D01*
X203066495Y-111473238D01*
X202685542Y-111758952D02*
X202828400Y-111568476D01*
X202971257Y-111758952D01*
X203590304Y-111330380D02*
X203590304Y-111568476D01*
X203352209Y-111473238D02*
X203590304Y-111568476D01*
X203828400Y-111473238D01*
X203447447Y-111758952D02*
X203590304Y-111568476D01*
X203733161Y-111758952D01*
X77508266Y-112330380D02*
X77174933Y-111854190D01*
X76936838Y-112330380D02*
X76936838Y-111330380D01*
X77317790Y-111330380D01*
X77413028Y-111378000D01*
X77460647Y-111425619D01*
X77508266Y-111520857D01*
X77508266Y-111663714D01*
X77460647Y-111758952D01*
X77413028Y-111806571D01*
X77317790Y-111854190D01*
X76936838Y-111854190D01*
X77936838Y-111806571D02*
X78270171Y-111806571D01*
X78413028Y-112330380D02*
X77936838Y-112330380D01*
X77936838Y-111330380D01*
X78413028Y-111330380D01*
X79174933Y-111806571D02*
X78841600Y-111806571D01*
X78841600Y-112330380D02*
X78841600Y-111330380D01*
X79317790Y-111330380D01*
X79841600Y-111330380D02*
X79841600Y-111568476D01*
X79603504Y-111473238D02*
X79841600Y-111568476D01*
X80079695Y-111473238D01*
X79698742Y-111758952D02*
X79841600Y-111568476D01*
X79984457Y-111758952D01*
X80603504Y-111330380D02*
X80603504Y-111568476D01*
X80365409Y-111473238D02*
X80603504Y-111568476D01*
X80841600Y-111473238D01*
X80460647Y-111758952D02*
X80603504Y-111568476D01*
X80746361Y-111758952D01*
X77508266Y-70572780D02*
X77174933Y-70096590D01*
X76936838Y-70572780D02*
X76936838Y-69572780D01*
X77317790Y-69572780D01*
X77413028Y-69620400D01*
X77460647Y-69668019D01*
X77508266Y-69763257D01*
X77508266Y-69906114D01*
X77460647Y-70001352D01*
X77413028Y-70048971D01*
X77317790Y-70096590D01*
X76936838Y-70096590D01*
X77936838Y-70048971D02*
X78270171Y-70048971D01*
X78413028Y-70572780D02*
X77936838Y-70572780D01*
X77936838Y-69572780D01*
X78413028Y-69572780D01*
X79174933Y-70048971D02*
X78841600Y-70048971D01*
X78841600Y-70572780D02*
X78841600Y-69572780D01*
X79317790Y-69572780D01*
X79841600Y-69572780D02*
X79841600Y-69810876D01*
X79603504Y-69715638D02*
X79841600Y-69810876D01*
X80079695Y-69715638D01*
X79698742Y-70001352D02*
X79841600Y-69810876D01*
X79984457Y-70001352D01*
X80603504Y-69572780D02*
X80603504Y-69810876D01*
X80365409Y-69715638D02*
X80603504Y-69810876D01*
X80841600Y-69715638D01*
X80460647Y-70001352D02*
X80603504Y-69810876D01*
X80746361Y-70001352D01*
%TO.C,D1*%
X103607980Y-98528095D02*
X102607980Y-98528095D01*
X102607980Y-98290000D01*
X102655600Y-98147142D01*
X102750838Y-98051904D01*
X102846076Y-98004285D01*
X103036552Y-97956666D01*
X103179409Y-97956666D01*
X103369885Y-98004285D01*
X103465123Y-98051904D01*
X103560361Y-98147142D01*
X103607980Y-98290000D01*
X103607980Y-98528095D01*
X103607980Y-97004285D02*
X103607980Y-97575714D01*
X103607980Y-97290000D02*
X102607980Y-97290000D01*
X102750838Y-97385238D01*
X102846076Y-97480476D01*
X102893695Y-97575714D01*
X103237980Y-92971904D02*
X102237980Y-92971904D01*
X103237980Y-92400476D02*
X102666552Y-92829047D01*
X102237980Y-92400476D02*
X102809409Y-92971904D01*
%TO.C,D2*%
X128042780Y-97715295D02*
X127042780Y-97715295D01*
X127042780Y-97477200D01*
X127090400Y-97334342D01*
X127185638Y-97239104D01*
X127280876Y-97191485D01*
X127471352Y-97143866D01*
X127614209Y-97143866D01*
X127804685Y-97191485D01*
X127899923Y-97239104D01*
X127995161Y-97334342D01*
X128042780Y-97477200D01*
X128042780Y-97715295D01*
X127138019Y-96762914D02*
X127090400Y-96715295D01*
X127042780Y-96620057D01*
X127042780Y-96381961D01*
X127090400Y-96286723D01*
X127138019Y-96239104D01*
X127233257Y-96191485D01*
X127328495Y-96191485D01*
X127471352Y-96239104D01*
X128042780Y-96810533D01*
X128042780Y-96191485D01*
X127672780Y-92159104D02*
X126672780Y-92159104D01*
X127672780Y-91587676D02*
X127101352Y-92016247D01*
X126672780Y-91587676D02*
X127244209Y-92159104D01*
%TO.C,D3*%
X153544380Y-97766095D02*
X152544380Y-97766095D01*
X152544380Y-97528000D01*
X152592000Y-97385142D01*
X152687238Y-97289904D01*
X152782476Y-97242285D01*
X152972952Y-97194666D01*
X153115809Y-97194666D01*
X153306285Y-97242285D01*
X153401523Y-97289904D01*
X153496761Y-97385142D01*
X153544380Y-97528000D01*
X153544380Y-97766095D01*
X152544380Y-96861333D02*
X152544380Y-96242285D01*
X152925333Y-96575619D01*
X152925333Y-96432761D01*
X152972952Y-96337523D01*
X153020571Y-96289904D01*
X153115809Y-96242285D01*
X153353904Y-96242285D01*
X153449142Y-96289904D01*
X153496761Y-96337523D01*
X153544380Y-96432761D01*
X153544380Y-96718476D01*
X153496761Y-96813714D01*
X153449142Y-96861333D01*
X153174380Y-92209904D02*
X152174380Y-92209904D01*
X153174380Y-91638476D02*
X152602952Y-92067047D01*
X152174380Y-91638476D02*
X152745809Y-92209904D01*
%TO.C,D4*%
X202921980Y-96038895D02*
X201921980Y-96038895D01*
X201921980Y-95800800D01*
X201969600Y-95657942D01*
X202064838Y-95562704D01*
X202160076Y-95515085D01*
X202350552Y-95467466D01*
X202493409Y-95467466D01*
X202683885Y-95515085D01*
X202779123Y-95562704D01*
X202874361Y-95657942D01*
X202921980Y-95800800D01*
X202921980Y-96038895D01*
X202255314Y-94610323D02*
X202921980Y-94610323D01*
X201874361Y-94848419D02*
X202588647Y-95086514D01*
X202588647Y-94467466D01*
X202551980Y-90482704D02*
X201551980Y-90482704D01*
X202551980Y-89911276D02*
X201980552Y-90339847D01*
X201551980Y-89911276D02*
X202123409Y-90482704D01*
%TO.C,D5*%
X175001180Y-96902495D02*
X174001180Y-96902495D01*
X174001180Y-96664400D01*
X174048800Y-96521542D01*
X174144038Y-96426304D01*
X174239276Y-96378685D01*
X174429752Y-96331066D01*
X174572609Y-96331066D01*
X174763085Y-96378685D01*
X174858323Y-96426304D01*
X174953561Y-96521542D01*
X175001180Y-96664400D01*
X175001180Y-96902495D01*
X174001180Y-95426304D02*
X174001180Y-95902495D01*
X174477371Y-95950114D01*
X174429752Y-95902495D01*
X174382133Y-95807257D01*
X174382133Y-95569161D01*
X174429752Y-95473923D01*
X174477371Y-95426304D01*
X174572609Y-95378685D01*
X174810704Y-95378685D01*
X174905942Y-95426304D01*
X174953561Y-95473923D01*
X175001180Y-95569161D01*
X175001180Y-95807257D01*
X174953561Y-95902495D01*
X174905942Y-95950114D01*
X177710780Y-91498704D02*
X176710780Y-91498704D01*
X177710780Y-90927276D02*
X177139352Y-91355847D01*
X176710780Y-90927276D02*
X177282209Y-91498704D01*
%TO.C,J1*%
X122259980Y-73129733D02*
X122974266Y-73129733D01*
X123117123Y-73177352D01*
X123212361Y-73272590D01*
X123259980Y-73415447D01*
X123259980Y-73510685D01*
X123259980Y-72129733D02*
X123259980Y-72701161D01*
X123259980Y-72415447D02*
X122259980Y-72415447D01*
X122402838Y-72510685D01*
X122498076Y-72605923D01*
X122545695Y-72701161D01*
%TO.C,J2*%
X114233580Y-81054533D02*
X114947866Y-81054533D01*
X115090723Y-81102152D01*
X115185961Y-81197390D01*
X115233580Y-81340247D01*
X115233580Y-81435485D01*
X114328819Y-80625961D02*
X114281200Y-80578342D01*
X114233580Y-80483104D01*
X114233580Y-80245009D01*
X114281200Y-80149771D01*
X114328819Y-80102152D01*
X114424057Y-80054533D01*
X114519295Y-80054533D01*
X114662152Y-80102152D01*
X115233580Y-80673580D01*
X115233580Y-80054533D01*
%TO.C,J3*%
X83296380Y-73536133D02*
X84010666Y-73536133D01*
X84153523Y-73583752D01*
X84248761Y-73678990D01*
X84296380Y-73821847D01*
X84296380Y-73917085D01*
X83296380Y-73155180D02*
X83296380Y-72536133D01*
X83677333Y-72869466D01*
X83677333Y-72726609D01*
X83724952Y-72631371D01*
X83772571Y-72583752D01*
X83867809Y-72536133D01*
X84105904Y-72536133D01*
X84201142Y-72583752D01*
X84248761Y-72631371D01*
X84296380Y-72726609D01*
X84296380Y-73012323D01*
X84248761Y-73107561D01*
X84201142Y-73155180D01*
%TO.C,J5*%
X75371580Y-81156133D02*
X76085866Y-81156133D01*
X76228723Y-81203752D01*
X76323961Y-81298990D01*
X76371580Y-81441847D01*
X76371580Y-81537085D01*
X75371580Y-80203752D02*
X75371580Y-80679942D01*
X75847771Y-80727561D01*
X75800152Y-80679942D01*
X75752533Y-80584704D01*
X75752533Y-80346609D01*
X75800152Y-80251371D01*
X75847771Y-80203752D01*
X75943009Y-80156133D01*
X76181104Y-80156133D01*
X76276342Y-80203752D01*
X76323961Y-80251371D01*
X76371580Y-80346609D01*
X76371580Y-80584704D01*
X76323961Y-80679942D01*
X76276342Y-80727561D01*
%TO.C,JP1*%
X98541180Y-88046533D02*
X99255466Y-88046533D01*
X99398323Y-88094152D01*
X99493561Y-88189390D01*
X99541180Y-88332247D01*
X99541180Y-88427485D01*
X99541180Y-87570342D02*
X98541180Y-87570342D01*
X98541180Y-87189390D01*
X98588800Y-87094152D01*
X98636419Y-87046533D01*
X98731657Y-86998914D01*
X98874514Y-86998914D01*
X98969752Y-87046533D01*
X99017371Y-87094152D01*
X99064990Y-87189390D01*
X99064990Y-87570342D01*
X99541180Y-86046533D02*
X99541180Y-86617961D01*
X99541180Y-86332247D02*
X98541180Y-86332247D01*
X98684038Y-86427485D01*
X98779276Y-86522723D01*
X98826895Y-86617961D01*
%TO.C,JP2*%
X122874380Y-88249733D02*
X123588666Y-88249733D01*
X123731523Y-88297352D01*
X123826761Y-88392590D01*
X123874380Y-88535447D01*
X123874380Y-88630685D01*
X123874380Y-87773542D02*
X122874380Y-87773542D01*
X122874380Y-87392590D01*
X122922000Y-87297352D01*
X122969619Y-87249733D01*
X123064857Y-87202114D01*
X123207714Y-87202114D01*
X123302952Y-87249733D01*
X123350571Y-87297352D01*
X123398190Y-87392590D01*
X123398190Y-87773542D01*
X122969619Y-86821161D02*
X122922000Y-86773542D01*
X122874380Y-86678304D01*
X122874380Y-86440209D01*
X122922000Y-86344971D01*
X122969619Y-86297352D01*
X123064857Y-86249733D01*
X123160095Y-86249733D01*
X123302952Y-86297352D01*
X123874380Y-86868780D01*
X123874380Y-86249733D01*
%TO.C,JP3*%
X148325180Y-87741733D02*
X149039466Y-87741733D01*
X149182323Y-87789352D01*
X149277561Y-87884590D01*
X149325180Y-88027447D01*
X149325180Y-88122685D01*
X149325180Y-87265542D02*
X148325180Y-87265542D01*
X148325180Y-86884590D01*
X148372800Y-86789352D01*
X148420419Y-86741733D01*
X148515657Y-86694114D01*
X148658514Y-86694114D01*
X148753752Y-86741733D01*
X148801371Y-86789352D01*
X148848990Y-86884590D01*
X148848990Y-87265542D01*
X148325180Y-86360780D02*
X148325180Y-85741733D01*
X148706133Y-86075066D01*
X148706133Y-85932209D01*
X148753752Y-85836971D01*
X148801371Y-85789352D01*
X148896609Y-85741733D01*
X149134704Y-85741733D01*
X149229942Y-85789352D01*
X149277561Y-85836971D01*
X149325180Y-85932209D01*
X149325180Y-86217923D01*
X149277561Y-86313161D01*
X149229942Y-86360780D01*
%TO.C,JP4*%
X173115580Y-87904533D02*
X173829866Y-87904533D01*
X173972723Y-87952152D01*
X174067961Y-88047390D01*
X174115580Y-88190247D01*
X174115580Y-88285485D01*
X174115580Y-87428342D02*
X173115580Y-87428342D01*
X173115580Y-87047390D01*
X173163200Y-86952152D01*
X173210819Y-86904533D01*
X173306057Y-86856914D01*
X173448914Y-86856914D01*
X173544152Y-86904533D01*
X173591771Y-86952152D01*
X173639390Y-87047390D01*
X173639390Y-87428342D01*
X173448914Y-85999771D02*
X174115580Y-85999771D01*
X173067961Y-86237866D02*
X173782247Y-86475961D01*
X173782247Y-85856914D01*
%TO.C,JP5*%
X197651980Y-87610133D02*
X198366266Y-87610133D01*
X198509123Y-87657752D01*
X198604361Y-87752990D01*
X198651980Y-87895847D01*
X198651980Y-87991085D01*
X198651980Y-87133942D02*
X197651980Y-87133942D01*
X197651980Y-86752990D01*
X197699600Y-86657752D01*
X197747219Y-86610133D01*
X197842457Y-86562514D01*
X197985314Y-86562514D01*
X198080552Y-86610133D01*
X198128171Y-86657752D01*
X198175790Y-86752990D01*
X198175790Y-87133942D01*
X197651980Y-85657752D02*
X197651980Y-86133942D01*
X198128171Y-86181561D01*
X198080552Y-86133942D01*
X198032933Y-86038704D01*
X198032933Y-85800609D01*
X198080552Y-85705371D01*
X198128171Y-85657752D01*
X198223409Y-85610133D01*
X198461504Y-85610133D01*
X198556742Y-85657752D01*
X198604361Y-85705371D01*
X198651980Y-85800609D01*
X198651980Y-86038704D01*
X198604361Y-86133942D01*
X198556742Y-86181561D01*
%TO.C,Q1*%
X100729219Y-111499638D02*
X100681600Y-111594876D01*
X100586361Y-111690114D01*
X100443504Y-111832971D01*
X100395885Y-111928209D01*
X100395885Y-112023447D01*
X100633980Y-111975828D02*
X100586361Y-112071066D01*
X100491123Y-112166304D01*
X100300647Y-112213923D01*
X99967314Y-112213923D01*
X99776838Y-112166304D01*
X99681600Y-112071066D01*
X99633980Y-111975828D01*
X99633980Y-111785352D01*
X99681600Y-111690114D01*
X99776838Y-111594876D01*
X99967314Y-111547257D01*
X100300647Y-111547257D01*
X100491123Y-111594876D01*
X100586361Y-111690114D01*
X100633980Y-111785352D01*
X100633980Y-111975828D01*
X100633980Y-110594876D02*
X100633980Y-111166304D01*
X100633980Y-110880590D02*
X99633980Y-110880590D01*
X99776838Y-110975828D01*
X99872076Y-111071066D01*
X99919695Y-111166304D01*
%TO.C,Q2*%
X123487619Y-111702838D02*
X123440000Y-111798076D01*
X123344761Y-111893314D01*
X123201904Y-112036171D01*
X123154285Y-112131409D01*
X123154285Y-112226647D01*
X123392380Y-112179028D02*
X123344761Y-112274266D01*
X123249523Y-112369504D01*
X123059047Y-112417123D01*
X122725714Y-112417123D01*
X122535238Y-112369504D01*
X122440000Y-112274266D01*
X122392380Y-112179028D01*
X122392380Y-111988552D01*
X122440000Y-111893314D01*
X122535238Y-111798076D01*
X122725714Y-111750457D01*
X123059047Y-111750457D01*
X123249523Y-111798076D01*
X123344761Y-111893314D01*
X123392380Y-111988552D01*
X123392380Y-112179028D01*
X122487619Y-111369504D02*
X122440000Y-111321885D01*
X122392380Y-111226647D01*
X122392380Y-110988552D01*
X122440000Y-110893314D01*
X122487619Y-110845695D01*
X122582857Y-110798076D01*
X122678095Y-110798076D01*
X122820952Y-110845695D01*
X123392380Y-111417123D01*
X123392380Y-110798076D01*
%TO.C,Q3*%
X148735219Y-111296438D02*
X148687600Y-111391676D01*
X148592361Y-111486914D01*
X148449504Y-111629771D01*
X148401885Y-111725009D01*
X148401885Y-111820247D01*
X148639980Y-111772628D02*
X148592361Y-111867866D01*
X148497123Y-111963104D01*
X148306647Y-112010723D01*
X147973314Y-112010723D01*
X147782838Y-111963104D01*
X147687600Y-111867866D01*
X147639980Y-111772628D01*
X147639980Y-111582152D01*
X147687600Y-111486914D01*
X147782838Y-111391676D01*
X147973314Y-111344057D01*
X148306647Y-111344057D01*
X148497123Y-111391676D01*
X148592361Y-111486914D01*
X148639980Y-111582152D01*
X148639980Y-111772628D01*
X147639980Y-111010723D02*
X147639980Y-110391676D01*
X148020933Y-110725009D01*
X148020933Y-110582152D01*
X148068552Y-110486914D01*
X148116171Y-110439295D01*
X148211409Y-110391676D01*
X148449504Y-110391676D01*
X148544742Y-110439295D01*
X148592361Y-110486914D01*
X148639980Y-110582152D01*
X148639980Y-110867866D01*
X148592361Y-110963104D01*
X148544742Y-111010723D01*
%TO.C,Q4*%
X194912419Y-110991638D02*
X194864800Y-111086876D01*
X194769561Y-111182114D01*
X194626704Y-111324971D01*
X194579085Y-111420209D01*
X194579085Y-111515447D01*
X194817180Y-111467828D02*
X194769561Y-111563066D01*
X194674323Y-111658304D01*
X194483847Y-111705923D01*
X194150514Y-111705923D01*
X193960038Y-111658304D01*
X193864800Y-111563066D01*
X193817180Y-111467828D01*
X193817180Y-111277352D01*
X193864800Y-111182114D01*
X193960038Y-111086876D01*
X194150514Y-111039257D01*
X194483847Y-111039257D01*
X194674323Y-111086876D01*
X194769561Y-111182114D01*
X194817180Y-111277352D01*
X194817180Y-111467828D01*
X194150514Y-110182114D02*
X194817180Y-110182114D01*
X193769561Y-110420209D02*
X194483847Y-110658304D01*
X194483847Y-110039257D01*
%TO.C,Q5*%
X173119219Y-111448838D02*
X173071600Y-111544076D01*
X172976361Y-111639314D01*
X172833504Y-111782171D01*
X172785885Y-111877409D01*
X172785885Y-111972647D01*
X173023980Y-111925028D02*
X172976361Y-112020266D01*
X172881123Y-112115504D01*
X172690647Y-112163123D01*
X172357314Y-112163123D01*
X172166838Y-112115504D01*
X172071600Y-112020266D01*
X172023980Y-111925028D01*
X172023980Y-111734552D01*
X172071600Y-111639314D01*
X172166838Y-111544076D01*
X172357314Y-111496457D01*
X172690647Y-111496457D01*
X172881123Y-111544076D01*
X172976361Y-111639314D01*
X173023980Y-111734552D01*
X173023980Y-111925028D01*
X172023980Y-110591695D02*
X172023980Y-111067885D01*
X172500171Y-111115504D01*
X172452552Y-111067885D01*
X172404933Y-110972647D01*
X172404933Y-110734552D01*
X172452552Y-110639314D01*
X172500171Y-110591695D01*
X172595409Y-110544076D01*
X172833504Y-110544076D01*
X172928742Y-110591695D01*
X172976361Y-110639314D01*
X173023980Y-110734552D01*
X173023980Y-110972647D01*
X172976361Y-111067885D01*
X172928742Y-111115504D01*
%TO.C,R1*%
X82984780Y-100953866D02*
X82508590Y-101287200D01*
X82984780Y-101525295D02*
X81984780Y-101525295D01*
X81984780Y-101144342D01*
X82032400Y-101049104D01*
X82080019Y-101001485D01*
X82175257Y-100953866D01*
X82318114Y-100953866D01*
X82413352Y-101001485D01*
X82460971Y-101049104D01*
X82508590Y-101144342D01*
X82508590Y-101525295D01*
X82984780Y-100001485D02*
X82984780Y-100572914D01*
X82984780Y-100287200D02*
X81984780Y-100287200D01*
X82127638Y-100382438D01*
X82222876Y-100477676D01*
X82270495Y-100572914D01*
%TO.C,R2*%
X78295580Y-90743066D02*
X77819390Y-91076400D01*
X78295580Y-91314495D02*
X77295580Y-91314495D01*
X77295580Y-90933542D01*
X77343200Y-90838304D01*
X77390819Y-90790685D01*
X77486057Y-90743066D01*
X77628914Y-90743066D01*
X77724152Y-90790685D01*
X77771771Y-90838304D01*
X77819390Y-90933542D01*
X77819390Y-91314495D01*
X77390819Y-90362114D02*
X77343200Y-90314495D01*
X77295580Y-90219257D01*
X77295580Y-89981161D01*
X77343200Y-89885923D01*
X77390819Y-89838304D01*
X77486057Y-89790685D01*
X77581295Y-89790685D01*
X77724152Y-89838304D01*
X78295580Y-90409733D01*
X78295580Y-89790685D01*
%TO.C,R3*%
X107470380Y-101766666D02*
X106994190Y-102100000D01*
X107470380Y-102338095D02*
X106470380Y-102338095D01*
X106470380Y-101957142D01*
X106518000Y-101861904D01*
X106565619Y-101814285D01*
X106660857Y-101766666D01*
X106803714Y-101766666D01*
X106898952Y-101814285D01*
X106946571Y-101861904D01*
X106994190Y-101957142D01*
X106994190Y-102338095D01*
X106470380Y-101433333D02*
X106470380Y-100814285D01*
X106851333Y-101147619D01*
X106851333Y-101004761D01*
X106898952Y-100909523D01*
X106946571Y-100861904D01*
X107041809Y-100814285D01*
X107279904Y-100814285D01*
X107375142Y-100861904D01*
X107422761Y-100909523D01*
X107470380Y-101004761D01*
X107470380Y-101290476D01*
X107422761Y-101385714D01*
X107375142Y-101433333D01*
%TO.C,R4*%
X102679580Y-90895466D02*
X102203390Y-91228800D01*
X102679580Y-91466895D02*
X101679580Y-91466895D01*
X101679580Y-91085942D01*
X101727200Y-90990704D01*
X101774819Y-90943085D01*
X101870057Y-90895466D01*
X102012914Y-90895466D01*
X102108152Y-90943085D01*
X102155771Y-90990704D01*
X102203390Y-91085942D01*
X102203390Y-91466895D01*
X102012914Y-90038323D02*
X102679580Y-90038323D01*
X101631961Y-90276419D02*
X102346247Y-90514514D01*
X102346247Y-89895466D01*
%TO.C,R5*%
X132362380Y-101715866D02*
X131886190Y-102049200D01*
X132362380Y-102287295D02*
X131362380Y-102287295D01*
X131362380Y-101906342D01*
X131410000Y-101811104D01*
X131457619Y-101763485D01*
X131552857Y-101715866D01*
X131695714Y-101715866D01*
X131790952Y-101763485D01*
X131838571Y-101811104D01*
X131886190Y-101906342D01*
X131886190Y-102287295D01*
X131362380Y-100811104D02*
X131362380Y-101287295D01*
X131838571Y-101334914D01*
X131790952Y-101287295D01*
X131743333Y-101192057D01*
X131743333Y-100953961D01*
X131790952Y-100858723D01*
X131838571Y-100811104D01*
X131933809Y-100763485D01*
X132171904Y-100763485D01*
X132267142Y-100811104D01*
X132314761Y-100858723D01*
X132362380Y-100953961D01*
X132362380Y-101192057D01*
X132314761Y-101287295D01*
X132267142Y-101334914D01*
%TO.C,R6*%
X127520780Y-91352666D02*
X127044590Y-91686000D01*
X127520780Y-91924095D02*
X126520780Y-91924095D01*
X126520780Y-91543142D01*
X126568400Y-91447904D01*
X126616019Y-91400285D01*
X126711257Y-91352666D01*
X126854114Y-91352666D01*
X126949352Y-91400285D01*
X126996971Y-91447904D01*
X127044590Y-91543142D01*
X127044590Y-91924095D01*
X126520780Y-90495523D02*
X126520780Y-90686000D01*
X126568400Y-90781238D01*
X126616019Y-90828857D01*
X126758876Y-90924095D01*
X126949352Y-90971714D01*
X127330304Y-90971714D01*
X127425542Y-90924095D01*
X127473161Y-90876476D01*
X127520780Y-90781238D01*
X127520780Y-90590761D01*
X127473161Y-90495523D01*
X127425542Y-90447904D01*
X127330304Y-90400285D01*
X127092209Y-90400285D01*
X126996971Y-90447904D01*
X126949352Y-90495523D01*
X126901733Y-90590761D01*
X126901733Y-90781238D01*
X126949352Y-90876476D01*
X126996971Y-90924095D01*
X127092209Y-90971714D01*
%TO.C,R10*%
X99580780Y-109913657D02*
X99104590Y-110246990D01*
X99580780Y-110485085D02*
X98580780Y-110485085D01*
X98580780Y-110104133D01*
X98628400Y-110008895D01*
X98676019Y-109961276D01*
X98771257Y-109913657D01*
X98914114Y-109913657D01*
X99009352Y-109961276D01*
X99056971Y-110008895D01*
X99104590Y-110104133D01*
X99104590Y-110485085D01*
X99580780Y-108961276D02*
X99580780Y-109532704D01*
X99580780Y-109246990D02*
X98580780Y-109246990D01*
X98723638Y-109342228D01*
X98818876Y-109437466D01*
X98866495Y-109532704D01*
X98580780Y-108342228D02*
X98580780Y-108246990D01*
X98628400Y-108151752D01*
X98676019Y-108104133D01*
X98771257Y-108056514D01*
X98961733Y-108008895D01*
X99199828Y-108008895D01*
X99390304Y-108056514D01*
X99485542Y-108104133D01*
X99533161Y-108151752D01*
X99580780Y-108246990D01*
X99580780Y-108342228D01*
X99533161Y-108437466D01*
X99485542Y-108485085D01*
X99390304Y-108532704D01*
X99199828Y-108580323D01*
X98961733Y-108580323D01*
X98771257Y-108532704D01*
X98676019Y-108485085D01*
X98628400Y-108437466D01*
X98580780Y-108342228D01*
%TO.C,R11*%
X123558380Y-109710457D02*
X123082190Y-110043790D01*
X123558380Y-110281885D02*
X122558380Y-110281885D01*
X122558380Y-109900933D01*
X122606000Y-109805695D01*
X122653619Y-109758076D01*
X122748857Y-109710457D01*
X122891714Y-109710457D01*
X122986952Y-109758076D01*
X123034571Y-109805695D01*
X123082190Y-109900933D01*
X123082190Y-110281885D01*
X123558380Y-108758076D02*
X123558380Y-109329504D01*
X123558380Y-109043790D02*
X122558380Y-109043790D01*
X122701238Y-109139028D01*
X122796476Y-109234266D01*
X122844095Y-109329504D01*
X123558380Y-107805695D02*
X123558380Y-108377123D01*
X123558380Y-108091409D02*
X122558380Y-108091409D01*
X122701238Y-108186647D01*
X122796476Y-108281885D01*
X122844095Y-108377123D01*
%TO.C,R12*%
X148805980Y-109405657D02*
X148329790Y-109738990D01*
X148805980Y-109977085D02*
X147805980Y-109977085D01*
X147805980Y-109596133D01*
X147853600Y-109500895D01*
X147901219Y-109453276D01*
X147996457Y-109405657D01*
X148139314Y-109405657D01*
X148234552Y-109453276D01*
X148282171Y-109500895D01*
X148329790Y-109596133D01*
X148329790Y-109977085D01*
X148805980Y-108453276D02*
X148805980Y-109024704D01*
X148805980Y-108738990D02*
X147805980Y-108738990D01*
X147948838Y-108834228D01*
X148044076Y-108929466D01*
X148091695Y-109024704D01*
X147901219Y-108072323D02*
X147853600Y-108024704D01*
X147805980Y-107929466D01*
X147805980Y-107691371D01*
X147853600Y-107596133D01*
X147901219Y-107548514D01*
X147996457Y-107500895D01*
X148091695Y-107500895D01*
X148234552Y-107548514D01*
X148805980Y-108119942D01*
X148805980Y-107500895D01*
%TO.C,R13*%
X97401142Y-114160380D02*
X97067809Y-113684190D01*
X96829714Y-114160380D02*
X96829714Y-113160380D01*
X97210666Y-113160380D01*
X97305904Y-113208000D01*
X97353523Y-113255619D01*
X97401142Y-113350857D01*
X97401142Y-113493714D01*
X97353523Y-113588952D01*
X97305904Y-113636571D01*
X97210666Y-113684190D01*
X96829714Y-113684190D01*
X98353523Y-114160380D02*
X97782095Y-114160380D01*
X98067809Y-114160380D02*
X98067809Y-113160380D01*
X97972571Y-113303238D01*
X97877333Y-113398476D01*
X97782095Y-113446095D01*
X98686857Y-113160380D02*
X99305904Y-113160380D01*
X98972571Y-113541333D01*
X99115428Y-113541333D01*
X99210666Y-113588952D01*
X99258285Y-113636571D01*
X99305904Y-113731809D01*
X99305904Y-113969904D01*
X99258285Y-114065142D01*
X99210666Y-114112761D01*
X99115428Y-114160380D01*
X98829714Y-114160380D01*
X98734476Y-114112761D01*
X98686857Y-114065142D01*
%TO.C,R14*%
X121683542Y-114058780D02*
X121350209Y-113582590D01*
X121112114Y-114058780D02*
X121112114Y-113058780D01*
X121493066Y-113058780D01*
X121588304Y-113106400D01*
X121635923Y-113154019D01*
X121683542Y-113249257D01*
X121683542Y-113392114D01*
X121635923Y-113487352D01*
X121588304Y-113534971D01*
X121493066Y-113582590D01*
X121112114Y-113582590D01*
X122635923Y-114058780D02*
X122064495Y-114058780D01*
X122350209Y-114058780D02*
X122350209Y-113058780D01*
X122254971Y-113201638D01*
X122159733Y-113296876D01*
X122064495Y-113344495D01*
X123493066Y-113392114D02*
X123493066Y-114058780D01*
X123254971Y-113011161D02*
X123016876Y-113725447D01*
X123635923Y-113725447D01*
%TO.C,R15*%
X146829542Y-113652380D02*
X146496209Y-113176190D01*
X146258114Y-113652380D02*
X146258114Y-112652380D01*
X146639066Y-112652380D01*
X146734304Y-112700000D01*
X146781923Y-112747619D01*
X146829542Y-112842857D01*
X146829542Y-112985714D01*
X146781923Y-113080952D01*
X146734304Y-113128571D01*
X146639066Y-113176190D01*
X146258114Y-113176190D01*
X147781923Y-113652380D02*
X147210495Y-113652380D01*
X147496209Y-113652380D02*
X147496209Y-112652380D01*
X147400971Y-112795238D01*
X147305733Y-112890476D01*
X147210495Y-112938095D01*
X148686685Y-112652380D02*
X148210495Y-112652380D01*
X148162876Y-113128571D01*
X148210495Y-113080952D01*
X148305733Y-113033333D01*
X148543828Y-113033333D01*
X148639066Y-113080952D01*
X148686685Y-113128571D01*
X148734304Y-113223809D01*
X148734304Y-113461904D01*
X148686685Y-113557142D01*
X148639066Y-113604761D01*
X148543828Y-113652380D01*
X148305733Y-113652380D01*
X148210495Y-113604761D01*
X148162876Y-113557142D01*
%TO.C,R16*%
X179217580Y-108796057D02*
X178741390Y-109129390D01*
X179217580Y-109367485D02*
X178217580Y-109367485D01*
X178217580Y-108986533D01*
X178265200Y-108891295D01*
X178312819Y-108843676D01*
X178408057Y-108796057D01*
X178550914Y-108796057D01*
X178646152Y-108843676D01*
X178693771Y-108891295D01*
X178741390Y-108986533D01*
X178741390Y-109367485D01*
X179217580Y-107843676D02*
X179217580Y-108415104D01*
X179217580Y-108129390D02*
X178217580Y-108129390D01*
X178360438Y-108224628D01*
X178455676Y-108319866D01*
X178503295Y-108415104D01*
X178217580Y-106986533D02*
X178217580Y-107177009D01*
X178265200Y-107272247D01*
X178312819Y-107319866D01*
X178455676Y-107415104D01*
X178646152Y-107462723D01*
X179027104Y-107462723D01*
X179122342Y-107415104D01*
X179169961Y-107367485D01*
X179217580Y-107272247D01*
X179217580Y-107081771D01*
X179169961Y-106986533D01*
X179122342Y-106938914D01*
X179027104Y-106891295D01*
X178789009Y-106891295D01*
X178693771Y-106938914D01*
X178646152Y-106986533D01*
X178598533Y-107081771D01*
X178598533Y-107272247D01*
X178646152Y-107367485D01*
X178693771Y-107415104D01*
X178789009Y-107462723D01*
%TO.C,R17*%
X179877980Y-84208857D02*
X179401790Y-84542190D01*
X179877980Y-84780285D02*
X178877980Y-84780285D01*
X178877980Y-84399333D01*
X178925600Y-84304095D01*
X178973219Y-84256476D01*
X179068457Y-84208857D01*
X179211314Y-84208857D01*
X179306552Y-84256476D01*
X179354171Y-84304095D01*
X179401790Y-84399333D01*
X179401790Y-84780285D01*
X179877980Y-83256476D02*
X179877980Y-83827904D01*
X179877980Y-83542190D02*
X178877980Y-83542190D01*
X179020838Y-83637428D01*
X179116076Y-83732666D01*
X179163695Y-83827904D01*
X178877980Y-82923142D02*
X178877980Y-82256476D01*
X179877980Y-82685047D01*
%TO.C,R18*%
X157457580Y-101125257D02*
X156981390Y-101458590D01*
X157457580Y-101696685D02*
X156457580Y-101696685D01*
X156457580Y-101315733D01*
X156505200Y-101220495D01*
X156552819Y-101172876D01*
X156648057Y-101125257D01*
X156790914Y-101125257D01*
X156886152Y-101172876D01*
X156933771Y-101220495D01*
X156981390Y-101315733D01*
X156981390Y-101696685D01*
X157457580Y-100172876D02*
X157457580Y-100744304D01*
X157457580Y-100458590D02*
X156457580Y-100458590D01*
X156600438Y-100553828D01*
X156695676Y-100649066D01*
X156743295Y-100744304D01*
X156886152Y-99601447D02*
X156838533Y-99696685D01*
X156790914Y-99744304D01*
X156695676Y-99791923D01*
X156648057Y-99791923D01*
X156552819Y-99744304D01*
X156505200Y-99696685D01*
X156457580Y-99601447D01*
X156457580Y-99410971D01*
X156505200Y-99315733D01*
X156552819Y-99268114D01*
X156648057Y-99220495D01*
X156695676Y-99220495D01*
X156790914Y-99268114D01*
X156838533Y-99315733D01*
X156886152Y-99410971D01*
X156886152Y-99601447D01*
X156933771Y-99696685D01*
X156981390Y-99744304D01*
X157076628Y-99791923D01*
X157267104Y-99791923D01*
X157362342Y-99744304D01*
X157409961Y-99696685D01*
X157457580Y-99601447D01*
X157457580Y-99410971D01*
X157409961Y-99315733D01*
X157362342Y-99268114D01*
X157267104Y-99220495D01*
X157076628Y-99220495D01*
X156981390Y-99268114D01*
X156933771Y-99315733D01*
X156886152Y-99410971D01*
%TO.C,R19*%
X152768380Y-91016057D02*
X152292190Y-91349390D01*
X152768380Y-91587485D02*
X151768380Y-91587485D01*
X151768380Y-91206533D01*
X151816000Y-91111295D01*
X151863619Y-91063676D01*
X151958857Y-91016057D01*
X152101714Y-91016057D01*
X152196952Y-91063676D01*
X152244571Y-91111295D01*
X152292190Y-91206533D01*
X152292190Y-91587485D01*
X152768380Y-90063676D02*
X152768380Y-90635104D01*
X152768380Y-90349390D02*
X151768380Y-90349390D01*
X151911238Y-90444628D01*
X152006476Y-90539866D01*
X152054095Y-90635104D01*
X152768380Y-89587485D02*
X152768380Y-89397009D01*
X152720761Y-89301771D01*
X152673142Y-89254152D01*
X152530285Y-89158914D01*
X152339809Y-89111295D01*
X151958857Y-89111295D01*
X151863619Y-89158914D01*
X151816000Y-89206533D01*
X151768380Y-89301771D01*
X151768380Y-89492247D01*
X151816000Y-89587485D01*
X151863619Y-89635104D01*
X151958857Y-89682723D01*
X152196952Y-89682723D01*
X152292190Y-89635104D01*
X152339809Y-89587485D01*
X152387428Y-89492247D01*
X152387428Y-89301771D01*
X152339809Y-89206533D01*
X152292190Y-89158914D01*
X152196952Y-89111295D01*
%TO.C,R22*%
X198031180Y-108389657D02*
X197554990Y-108722990D01*
X198031180Y-108961085D02*
X197031180Y-108961085D01*
X197031180Y-108580133D01*
X197078800Y-108484895D01*
X197126419Y-108437276D01*
X197221657Y-108389657D01*
X197364514Y-108389657D01*
X197459752Y-108437276D01*
X197507371Y-108484895D01*
X197554990Y-108580133D01*
X197554990Y-108961085D01*
X197126419Y-108008704D02*
X197078800Y-107961085D01*
X197031180Y-107865847D01*
X197031180Y-107627752D01*
X197078800Y-107532514D01*
X197126419Y-107484895D01*
X197221657Y-107437276D01*
X197316895Y-107437276D01*
X197459752Y-107484895D01*
X198031180Y-108056323D01*
X198031180Y-107437276D01*
X197126419Y-107056323D02*
X197078800Y-107008704D01*
X197031180Y-106913466D01*
X197031180Y-106675371D01*
X197078800Y-106580133D01*
X197126419Y-106532514D01*
X197221657Y-106484895D01*
X197316895Y-106484895D01*
X197459752Y-106532514D01*
X198031180Y-107103942D01*
X198031180Y-106484895D01*
%TO.C,R23*%
X173240780Y-109405657D02*
X172764590Y-109738990D01*
X173240780Y-109977085D02*
X172240780Y-109977085D01*
X172240780Y-109596133D01*
X172288400Y-109500895D01*
X172336019Y-109453276D01*
X172431257Y-109405657D01*
X172574114Y-109405657D01*
X172669352Y-109453276D01*
X172716971Y-109500895D01*
X172764590Y-109596133D01*
X172764590Y-109977085D01*
X172336019Y-109024704D02*
X172288400Y-108977085D01*
X172240780Y-108881847D01*
X172240780Y-108643752D01*
X172288400Y-108548514D01*
X172336019Y-108500895D01*
X172431257Y-108453276D01*
X172526495Y-108453276D01*
X172669352Y-108500895D01*
X173240780Y-109072323D01*
X173240780Y-108453276D01*
X172240780Y-108119942D02*
X172240780Y-107500895D01*
X172621733Y-107834228D01*
X172621733Y-107691371D01*
X172669352Y-107596133D01*
X172716971Y-107548514D01*
X172812209Y-107500895D01*
X173050304Y-107500895D01*
X173145542Y-107548514D01*
X173193161Y-107596133D01*
X173240780Y-107691371D01*
X173240780Y-107977085D01*
X173193161Y-108072323D01*
X173145542Y-108119942D01*
%TO.C,R24*%
X192549542Y-113652380D02*
X192216209Y-113176190D01*
X191978114Y-113652380D02*
X191978114Y-112652380D01*
X192359066Y-112652380D01*
X192454304Y-112700000D01*
X192501923Y-112747619D01*
X192549542Y-112842857D01*
X192549542Y-112985714D01*
X192501923Y-113080952D01*
X192454304Y-113128571D01*
X192359066Y-113176190D01*
X191978114Y-113176190D01*
X192930495Y-112747619D02*
X192978114Y-112700000D01*
X193073352Y-112652380D01*
X193311447Y-112652380D01*
X193406685Y-112700000D01*
X193454304Y-112747619D01*
X193501923Y-112842857D01*
X193501923Y-112938095D01*
X193454304Y-113080952D01*
X192882876Y-113652380D01*
X193501923Y-113652380D01*
X194359066Y-112985714D02*
X194359066Y-113652380D01*
X194120971Y-112604761D02*
X193882876Y-113319047D01*
X194501923Y-113319047D01*
%TO.C,R25*%
X171315142Y-113855580D02*
X170981809Y-113379390D01*
X170743714Y-113855580D02*
X170743714Y-112855580D01*
X171124666Y-112855580D01*
X171219904Y-112903200D01*
X171267523Y-112950819D01*
X171315142Y-113046057D01*
X171315142Y-113188914D01*
X171267523Y-113284152D01*
X171219904Y-113331771D01*
X171124666Y-113379390D01*
X170743714Y-113379390D01*
X171696095Y-112950819D02*
X171743714Y-112903200D01*
X171838952Y-112855580D01*
X172077047Y-112855580D01*
X172172285Y-112903200D01*
X172219904Y-112950819D01*
X172267523Y-113046057D01*
X172267523Y-113141295D01*
X172219904Y-113284152D01*
X171648476Y-113855580D01*
X172267523Y-113855580D01*
X173172285Y-112855580D02*
X172696095Y-112855580D01*
X172648476Y-113331771D01*
X172696095Y-113284152D01*
X172791333Y-113236533D01*
X173029428Y-113236533D01*
X173124666Y-113284152D01*
X173172285Y-113331771D01*
X173219904Y-113427009D01*
X173219904Y-113665104D01*
X173172285Y-113760342D01*
X173124666Y-113807961D01*
X173029428Y-113855580D01*
X172791333Y-113855580D01*
X172696095Y-113807961D01*
X172648476Y-113760342D01*
%TO.C,U1*%
X88849295Y-95710380D02*
X88849295Y-96519904D01*
X88896914Y-96615142D01*
X88944533Y-96662761D01*
X89039771Y-96710380D01*
X89230247Y-96710380D01*
X89325485Y-96662761D01*
X89373104Y-96615142D01*
X89420723Y-96519904D01*
X89420723Y-95710380D01*
X90420723Y-96710380D02*
X89849295Y-96710380D01*
X90135009Y-96710380D02*
X90135009Y-95710380D01*
X90039771Y-95853238D01*
X89944533Y-95948476D01*
X89849295Y-95996095D01*
%TO.C,U2*%
X113385695Y-95913580D02*
X113385695Y-96723104D01*
X113433314Y-96818342D01*
X113480933Y-96865961D01*
X113576171Y-96913580D01*
X113766647Y-96913580D01*
X113861885Y-96865961D01*
X113909504Y-96818342D01*
X113957123Y-96723104D01*
X113957123Y-95913580D01*
X114385695Y-96008819D02*
X114433314Y-95961200D01*
X114528552Y-95913580D01*
X114766647Y-95913580D01*
X114861885Y-95961200D01*
X114909504Y-96008819D01*
X114957123Y-96104057D01*
X114957123Y-96199295D01*
X114909504Y-96342152D01*
X114338076Y-96913580D01*
X114957123Y-96913580D01*
%TO.C,U3*%
X138633295Y-95354780D02*
X138633295Y-96164304D01*
X138680914Y-96259542D01*
X138728533Y-96307161D01*
X138823771Y-96354780D01*
X139014247Y-96354780D01*
X139109485Y-96307161D01*
X139157104Y-96259542D01*
X139204723Y-96164304D01*
X139204723Y-95354780D01*
X139585676Y-95354780D02*
X140204723Y-95354780D01*
X139871390Y-95735733D01*
X140014247Y-95735733D01*
X140109485Y-95783352D01*
X140157104Y-95830971D01*
X140204723Y-95926209D01*
X140204723Y-96164304D01*
X140157104Y-96259542D01*
X140109485Y-96307161D01*
X140014247Y-96354780D01*
X139728533Y-96354780D01*
X139633295Y-96307161D01*
X139585676Y-96259542D01*
%TO.C,U4*%
X187858495Y-94948380D02*
X187858495Y-95757904D01*
X187906114Y-95853142D01*
X187953733Y-95900761D01*
X188048971Y-95948380D01*
X188239447Y-95948380D01*
X188334685Y-95900761D01*
X188382304Y-95853142D01*
X188429923Y-95757904D01*
X188429923Y-94948380D01*
X189334685Y-95281714D02*
X189334685Y-95948380D01*
X189096590Y-94900761D02*
X188858495Y-95615047D01*
X189477542Y-95615047D01*
%TO.C,U5*%
X163271295Y-95659580D02*
X163271295Y-96469104D01*
X163318914Y-96564342D01*
X163366533Y-96611961D01*
X163461771Y-96659580D01*
X163652247Y-96659580D01*
X163747485Y-96611961D01*
X163795104Y-96564342D01*
X163842723Y-96469104D01*
X163842723Y-95659580D01*
X164795104Y-95659580D02*
X164318914Y-95659580D01*
X164271295Y-96135771D01*
X164318914Y-96088152D01*
X164414152Y-96040533D01*
X164652247Y-96040533D01*
X164747485Y-96088152D01*
X164795104Y-96135771D01*
X164842723Y-96231009D01*
X164842723Y-96469104D01*
X164795104Y-96564342D01*
X164747485Y-96611961D01*
X164652247Y-96659580D01*
X164414152Y-96659580D01*
X164318914Y-96611961D01*
X164271295Y-96564342D01*
%TO.C,J4*%
X181276666Y-79462380D02*
X181276666Y-80176666D01*
X181229047Y-80319523D01*
X181133809Y-80414761D01*
X180990952Y-80462380D01*
X180895714Y-80462380D01*
X182181428Y-79795714D02*
X182181428Y-80462380D01*
X181943333Y-79414761D02*
X181705238Y-80129047D01*
X182324285Y-80129047D01*
%TO.C,J6*%
X193062266Y-79462380D02*
X193062266Y-80176666D01*
X193014647Y-80319523D01*
X192919409Y-80414761D01*
X192776552Y-80462380D01*
X192681314Y-80462380D01*
X193967028Y-79462380D02*
X193776552Y-79462380D01*
X193681314Y-79510000D01*
X193633695Y-79557619D01*
X193538457Y-79700476D01*
X193490838Y-79890952D01*
X193490838Y-80271904D01*
X193538457Y-80367142D01*
X193586076Y-80414761D01*
X193681314Y-80462380D01*
X193871790Y-80462380D01*
X193967028Y-80414761D01*
X194014647Y-80367142D01*
X194062266Y-80271904D01*
X194062266Y-80033809D01*
X194014647Y-79938571D01*
X193967028Y-79890952D01*
X193871790Y-79843333D01*
X193681314Y-79843333D01*
X193586076Y-79890952D01*
X193538457Y-79938571D01*
X193490838Y-80033809D01*
%TO.C,J7*%
X87347466Y-118273580D02*
X87347466Y-118987866D01*
X87299847Y-119130723D01*
X87204609Y-119225961D01*
X87061752Y-119273580D01*
X86966514Y-119273580D01*
X87728419Y-118273580D02*
X88395085Y-118273580D01*
X87966514Y-119273580D01*
%TO.C,J8*%
X111426666Y-118070380D02*
X111426666Y-118784666D01*
X111379047Y-118927523D01*
X111283809Y-119022761D01*
X111140952Y-119070380D01*
X111045714Y-119070380D01*
X112045714Y-118498952D02*
X111950476Y-118451333D01*
X111902857Y-118403714D01*
X111855238Y-118308476D01*
X111855238Y-118260857D01*
X111902857Y-118165619D01*
X111950476Y-118118000D01*
X112045714Y-118070380D01*
X112236190Y-118070380D01*
X112331428Y-118118000D01*
X112379047Y-118165619D01*
X112426666Y-118260857D01*
X112426666Y-118308476D01*
X112379047Y-118403714D01*
X112331428Y-118451333D01*
X112236190Y-118498952D01*
X112045714Y-118498952D01*
X111950476Y-118546571D01*
X111902857Y-118594190D01*
X111855238Y-118689428D01*
X111855238Y-118879904D01*
X111902857Y-118975142D01*
X111950476Y-119022761D01*
X112045714Y-119070380D01*
X112236190Y-119070380D01*
X112331428Y-119022761D01*
X112379047Y-118975142D01*
X112426666Y-118879904D01*
X112426666Y-118689428D01*
X112379047Y-118594190D01*
X112331428Y-118546571D01*
X112236190Y-118498952D01*
%TO.C,J9*%
X136674266Y-117663980D02*
X136674266Y-118378266D01*
X136626647Y-118521123D01*
X136531409Y-118616361D01*
X136388552Y-118663980D01*
X136293314Y-118663980D01*
X137198076Y-118663980D02*
X137388552Y-118663980D01*
X137483790Y-118616361D01*
X137531409Y-118568742D01*
X137626647Y-118425885D01*
X137674266Y-118235409D01*
X137674266Y-117854457D01*
X137626647Y-117759219D01*
X137579028Y-117711600D01*
X137483790Y-117663980D01*
X137293314Y-117663980D01*
X137198076Y-117711600D01*
X137150457Y-117759219D01*
X137102838Y-117854457D01*
X137102838Y-118092552D01*
X137150457Y-118187790D01*
X137198076Y-118235409D01*
X137293314Y-118283028D01*
X137483790Y-118283028D01*
X137579028Y-118235409D01*
X137626647Y-118187790D01*
X137674266Y-118092552D01*
%TO.C,J10*%
X182070476Y-117867180D02*
X182070476Y-118581466D01*
X182022857Y-118724323D01*
X181927619Y-118819561D01*
X181784761Y-118867180D01*
X181689523Y-118867180D01*
X183070476Y-118867180D02*
X182499047Y-118867180D01*
X182784761Y-118867180D02*
X182784761Y-117867180D01*
X182689523Y-118010038D01*
X182594285Y-118105276D01*
X182499047Y-118152895D01*
X183689523Y-117867180D02*
X183784761Y-117867180D01*
X183880000Y-117914800D01*
X183927619Y-117962419D01*
X183975238Y-118057657D01*
X184022857Y-118248133D01*
X184022857Y-118486228D01*
X183975238Y-118676704D01*
X183927619Y-118771942D01*
X183880000Y-118819561D01*
X183784761Y-118867180D01*
X183689523Y-118867180D01*
X183594285Y-118819561D01*
X183546666Y-118771942D01*
X183499047Y-118676704D01*
X183451428Y-118486228D01*
X183451428Y-118248133D01*
X183499047Y-118057657D01*
X183546666Y-117962419D01*
X183594285Y-117914800D01*
X183689523Y-117867180D01*
%TO.C,J11*%
X160836076Y-117765580D02*
X160836076Y-118479866D01*
X160788457Y-118622723D01*
X160693219Y-118717961D01*
X160550361Y-118765580D01*
X160455123Y-118765580D01*
X161836076Y-118765580D02*
X161264647Y-118765580D01*
X161550361Y-118765580D02*
X161550361Y-117765580D01*
X161455123Y-117908438D01*
X161359885Y-118003676D01*
X161264647Y-118051295D01*
X162788457Y-118765580D02*
X162217028Y-118765580D01*
X162502742Y-118765580D02*
X162502742Y-117765580D01*
X162407504Y-117908438D01*
X162312266Y-118003676D01*
X162217028Y-118051295D01*
%TO.C,J12*%
X171605676Y-81849980D02*
X171605676Y-82564266D01*
X171558057Y-82707123D01*
X171462819Y-82802361D01*
X171319961Y-82849980D01*
X171224723Y-82849980D01*
X172605676Y-82849980D02*
X172034247Y-82849980D01*
X172319961Y-82849980D02*
X172319961Y-81849980D01*
X172224723Y-81992838D01*
X172129485Y-82088076D01*
X172034247Y-82135695D01*
X172986628Y-81945219D02*
X173034247Y-81897600D01*
X173129485Y-81849980D01*
X173367580Y-81849980D01*
X173462819Y-81897600D01*
X173510438Y-81945219D01*
X173558057Y-82040457D01*
X173558057Y-82135695D01*
X173510438Y-82278552D01*
X172939009Y-82849980D01*
X173558057Y-82849980D01*
%TO.C,J13*%
X159261276Y-71689980D02*
X159261276Y-72404266D01*
X159213657Y-72547123D01*
X159118419Y-72642361D01*
X158975561Y-72689980D01*
X158880323Y-72689980D01*
X160261276Y-72689980D02*
X159689847Y-72689980D01*
X159975561Y-72689980D02*
X159975561Y-71689980D01*
X159880323Y-71832838D01*
X159785085Y-71928076D01*
X159689847Y-71975695D01*
X160594609Y-71689980D02*
X161213657Y-71689980D01*
X160880323Y-72070933D01*
X161023180Y-72070933D01*
X161118419Y-72118552D01*
X161166038Y-72166171D01*
X161213657Y-72261409D01*
X161213657Y-72499504D01*
X161166038Y-72594742D01*
X161118419Y-72642361D01*
X161023180Y-72689980D01*
X160737466Y-72689980D01*
X160642228Y-72642361D01*
X160594609Y-72594742D01*
%TO.C,Q6*%
X88689619Y-100984038D02*
X88642000Y-101079276D01*
X88546761Y-101174514D01*
X88403904Y-101317371D01*
X88356285Y-101412609D01*
X88356285Y-101507847D01*
X88594380Y-101460228D02*
X88546761Y-101555466D01*
X88451523Y-101650704D01*
X88261047Y-101698323D01*
X87927714Y-101698323D01*
X87737238Y-101650704D01*
X87642000Y-101555466D01*
X87594380Y-101460228D01*
X87594380Y-101269752D01*
X87642000Y-101174514D01*
X87737238Y-101079276D01*
X87927714Y-101031657D01*
X88261047Y-101031657D01*
X88451523Y-101079276D01*
X88546761Y-101174514D01*
X88594380Y-101269752D01*
X88594380Y-101460228D01*
X87594380Y-100174514D02*
X87594380Y-100364990D01*
X87642000Y-100460228D01*
X87689619Y-100507847D01*
X87832476Y-100603085D01*
X88022952Y-100650704D01*
X88403904Y-100650704D01*
X88499142Y-100603085D01*
X88546761Y-100555466D01*
X88594380Y-100460228D01*
X88594380Y-100269752D01*
X88546761Y-100174514D01*
X88499142Y-100126895D01*
X88403904Y-100079276D01*
X88165809Y-100079276D01*
X88070571Y-100126895D01*
X88022952Y-100174514D01*
X87975333Y-100269752D01*
X87975333Y-100460228D01*
X88022952Y-100555466D01*
X88070571Y-100603085D01*
X88165809Y-100650704D01*
%TO.C,Q7*%
X113175219Y-101034838D02*
X113127600Y-101130076D01*
X113032361Y-101225314D01*
X112889504Y-101368171D01*
X112841885Y-101463409D01*
X112841885Y-101558647D01*
X113079980Y-101511028D02*
X113032361Y-101606266D01*
X112937123Y-101701504D01*
X112746647Y-101749123D01*
X112413314Y-101749123D01*
X112222838Y-101701504D01*
X112127600Y-101606266D01*
X112079980Y-101511028D01*
X112079980Y-101320552D01*
X112127600Y-101225314D01*
X112222838Y-101130076D01*
X112413314Y-101082457D01*
X112746647Y-101082457D01*
X112937123Y-101130076D01*
X113032361Y-101225314D01*
X113079980Y-101320552D01*
X113079980Y-101511028D01*
X112079980Y-100749123D02*
X112079980Y-100082457D01*
X113079980Y-100511028D01*
%TO.C,Q8*%
X138422819Y-100730038D02*
X138375200Y-100825276D01*
X138279961Y-100920514D01*
X138137104Y-101063371D01*
X138089485Y-101158609D01*
X138089485Y-101253847D01*
X138327580Y-101206228D02*
X138279961Y-101301466D01*
X138184723Y-101396704D01*
X137994247Y-101444323D01*
X137660914Y-101444323D01*
X137470438Y-101396704D01*
X137375200Y-101301466D01*
X137327580Y-101206228D01*
X137327580Y-101015752D01*
X137375200Y-100920514D01*
X137470438Y-100825276D01*
X137660914Y-100777657D01*
X137994247Y-100777657D01*
X138184723Y-100825276D01*
X138279961Y-100920514D01*
X138327580Y-101015752D01*
X138327580Y-101206228D01*
X137756152Y-100206228D02*
X137708533Y-100301466D01*
X137660914Y-100349085D01*
X137565676Y-100396704D01*
X137518057Y-100396704D01*
X137422819Y-100349085D01*
X137375200Y-100301466D01*
X137327580Y-100206228D01*
X137327580Y-100015752D01*
X137375200Y-99920514D01*
X137422819Y-99872895D01*
X137518057Y-99825276D01*
X137565676Y-99825276D01*
X137660914Y-99872895D01*
X137708533Y-99920514D01*
X137756152Y-100015752D01*
X137756152Y-100206228D01*
X137803771Y-100301466D01*
X137851390Y-100349085D01*
X137946628Y-100396704D01*
X138137104Y-100396704D01*
X138232342Y-100349085D01*
X138279961Y-100301466D01*
X138327580Y-100206228D01*
X138327580Y-100015752D01*
X138279961Y-99920514D01*
X138232342Y-99872895D01*
X138137104Y-99825276D01*
X137946628Y-99825276D01*
X137851390Y-99872895D01*
X137803771Y-99920514D01*
X137756152Y-100015752D01*
%TO.C,Q9*%
X187648019Y-100069638D02*
X187600400Y-100164876D01*
X187505161Y-100260114D01*
X187362304Y-100402971D01*
X187314685Y-100498209D01*
X187314685Y-100593447D01*
X187552780Y-100545828D02*
X187505161Y-100641066D01*
X187409923Y-100736304D01*
X187219447Y-100783923D01*
X186886114Y-100783923D01*
X186695638Y-100736304D01*
X186600400Y-100641066D01*
X186552780Y-100545828D01*
X186552780Y-100355352D01*
X186600400Y-100260114D01*
X186695638Y-100164876D01*
X186886114Y-100117257D01*
X187219447Y-100117257D01*
X187409923Y-100164876D01*
X187505161Y-100260114D01*
X187552780Y-100355352D01*
X187552780Y-100545828D01*
X187552780Y-99641066D02*
X187552780Y-99450590D01*
X187505161Y-99355352D01*
X187457542Y-99307733D01*
X187314685Y-99212495D01*
X187124209Y-99164876D01*
X186743257Y-99164876D01*
X186648019Y-99212495D01*
X186600400Y-99260114D01*
X186552780Y-99355352D01*
X186552780Y-99545828D01*
X186600400Y-99641066D01*
X186648019Y-99688685D01*
X186743257Y-99736304D01*
X186981352Y-99736304D01*
X187076590Y-99688685D01*
X187124209Y-99641066D01*
X187171828Y-99545828D01*
X187171828Y-99355352D01*
X187124209Y-99260114D01*
X187076590Y-99212495D01*
X186981352Y-99164876D01*
%TO.C,Q10*%
X163060819Y-101104628D02*
X163013200Y-101199866D01*
X162917961Y-101295104D01*
X162775104Y-101437961D01*
X162727485Y-101533200D01*
X162727485Y-101628438D01*
X162965580Y-101580819D02*
X162917961Y-101676057D01*
X162822723Y-101771295D01*
X162632247Y-101818914D01*
X162298914Y-101818914D01*
X162108438Y-101771295D01*
X162013200Y-101676057D01*
X161965580Y-101580819D01*
X161965580Y-101390342D01*
X162013200Y-101295104D01*
X162108438Y-101199866D01*
X162298914Y-101152247D01*
X162632247Y-101152247D01*
X162822723Y-101199866D01*
X162917961Y-101295104D01*
X162965580Y-101390342D01*
X162965580Y-101580819D01*
X162965580Y-100199866D02*
X162965580Y-100771295D01*
X162965580Y-100485580D02*
X161965580Y-100485580D01*
X162108438Y-100580819D01*
X162203676Y-100676057D01*
X162251295Y-100771295D01*
X161965580Y-99580819D02*
X161965580Y-99485580D01*
X162013200Y-99390342D01*
X162060819Y-99342723D01*
X162156057Y-99295104D01*
X162346533Y-99247485D01*
X162584628Y-99247485D01*
X162775104Y-99295104D01*
X162870342Y-99342723D01*
X162917961Y-99390342D01*
X162965580Y-99485580D01*
X162965580Y-99580819D01*
X162917961Y-99676057D01*
X162870342Y-99723676D01*
X162775104Y-99771295D01*
X162584628Y-99818914D01*
X162346533Y-99818914D01*
X162156057Y-99771295D01*
X162060819Y-99723676D01*
X162013200Y-99676057D01*
X161965580Y-99580819D01*
%TD*%
M02*
