M48
; DRILL file {KiCad (5.1.9)-1} date 03/23/23 17:51:44
; FORMAT={-:-/ absolute / metric / decimal}
; #@! TF.CreationDate,2023-03-23T17:51:44+02:00
; #@! TF.GenerationSoftware,Kicad,Pcbnew,(5.1.9)-1
; #@! TF.FileFunction,Plated,1,2,PTH
FMAT,2
METRIC
T1C0.400
T2C0.750
T3C0.762
T4C0.800
T5C1.000
T6C1.100
T7C1.500
T8C1.520
T9C1.750
%
G90
G05
T1
X77.216Y-77.47
X78.232Y-110.693
X81.89Y-71.526
X84.023Y-117.856
X89.306Y-89.814
X92.253Y-100.787
X96.52Y-96.723
X108.61Y-72.644
X113.284Y-89.002
X116.789Y-100.787
X120.396Y-71.984
X121.209Y-94.64
X136.703Y-89.814
X141.935Y-101.448
X144.983Y-94.234
X146.202Y-72.288
X152.756Y-77.064
X153.924Y-71.882
X164.541Y-89.967
X165.811Y-102.108
X170.129Y-96.622
X187.096Y-88.748
X191.618Y-101.854
X195.428Y-95.402
X198.882Y-118.872
X203.302Y-111.912
T2
X84.582Y-99.619
X84.582Y-100.889
X84.582Y-102.159
X96.622Y-110.134
X96.622Y-111.404
X96.622Y-112.674
X109.068Y-99.67
X109.068Y-100.94
X109.068Y-102.21
X119.38Y-110.338
X119.38Y-111.608
X119.38Y-112.878
X134.315Y-99.365
X134.315Y-100.635
X134.315Y-101.905
X144.628Y-109.931
X144.628Y-111.201
X144.628Y-112.471
X158.953Y-99.263
X158.953Y-100.533
X158.953Y-101.803
X169.012Y-110.084
X169.012Y-111.354
X169.012Y-112.624
X183.54Y-98.704
X183.54Y-99.974
X183.54Y-101.244
X190.805Y-109.626
X190.805Y-110.896
X190.805Y-112.166
T3
X97.231Y-88.138
X97.231Y-105.918
X121.768Y-88.341
X121.768Y-106.121
X147.015Y-87.782
X147.015Y-105.562
X171.653Y-88.087
X171.653Y-105.867
X196.24Y-87.376
X196.24Y-105.156
T4
X80.162Y-96.977
X80.162Y-104.597
X80.213Y-86.766
X80.213Y-94.386
X94.234Y-116.078
X101.498Y-105.461
X101.498Y-113.081
X101.854Y-116.078
X104.597Y-86.919
X104.597Y-94.539
X104.648Y-97.79
X104.648Y-105.41
X118.516Y-115.976
X125.476Y-105.258
X125.476Y-112.878
X126.136Y-115.976
X129.438Y-87.376
X129.438Y-94.996
X129.54Y-97.739
X129.54Y-105.359
X143.662Y-115.57
X150.724Y-104.953
X150.724Y-112.573
X151.282Y-115.57
X154.635Y-96.672
X154.635Y-104.292
X154.686Y-86.563
X154.686Y-94.183
X168.148Y-115.773
X175.158Y-104.953
X175.158Y-112.573
X175.768Y-115.773
X179.07Y-97.536
X179.07Y-105.156
X179.222Y-86.563
X179.222Y-94.183
X189.382Y-115.57
X197.002Y-115.57
X199.949Y-103.937
X199.949Y-111.557
T5
X78.689Y-80.823
X81.229Y-80.823
X83.769Y-80.823
X86.309Y-80.823
X86.614Y-71.933
X86.614Y-74.473
X88.849Y-80.823
X89.154Y-71.933
X89.154Y-74.473
X91.389Y-80.823
X91.694Y-71.933
X91.694Y-74.473
X93.929Y-80.823
X94.234Y-71.933
X94.234Y-74.473
X96.469Y-80.823
X96.774Y-71.933
X96.774Y-74.473
X99.009Y-80.823
X99.314Y-71.933
X99.314Y-74.473
X101.549Y-80.823
X101.854Y-71.933
X101.854Y-74.473
X104.089Y-80.823
X106.629Y-80.823
X109.169Y-80.823
X111.709Y-80.823
X117.551Y-80.721
X120.091Y-80.721
X122.631Y-80.721
X125.171Y-80.721
X125.578Y-71.526
X125.578Y-74.066
X127.711Y-80.721
X128.118Y-71.526
X128.118Y-74.066
X130.251Y-80.721
X130.658Y-71.526
X130.658Y-74.066
X132.791Y-80.721
X133.198Y-71.526
X133.198Y-74.066
X135.331Y-80.721
X135.738Y-71.526
X135.738Y-74.066
X137.871Y-80.721
X138.278Y-71.526
X138.278Y-74.066
X140.411Y-80.721
X140.818Y-71.526
X140.818Y-74.066
X142.951Y-80.721
X145.491Y-80.721
X148.031Y-80.721
X150.571Y-80.721
T6
X100.686Y-92.71
X100.686Y-102.87
X125.12Y-91.897
X125.12Y-102.057
X150.622Y-91.948
X150.622Y-102.108
X175.158Y-91.237
X175.158Y-101.397
X200.0Y-90.221
X200.0Y-100.381
T7
X181.61Y-77.47
X186.69Y-77.47
X193.396Y-77.47
X198.476Y-77.47
T8
X85.141Y-113.741
X90.221Y-113.741
X109.22Y-113.538
X114.3Y-113.538
X134.468Y-113.132
X139.548Y-113.132
X157.531Y-77.318
X159.106Y-113.233
X162.611Y-77.318
X164.186Y-113.233
X169.875Y-77.318
X174.955Y-77.318
X180.34Y-113.335
X185.42Y-113.335
T9
X84.531Y-95.758
X84.531Y-105.918
X109.068Y-95.961
X109.068Y-106.121
X134.315Y-95.402
X134.315Y-105.562
X158.953Y-95.707
X158.953Y-105.867
X183.54Y-94.996
X183.54Y-105.156
T0
M30
