%TF.GenerationSoftware,KiCad,Pcbnew,(5.1.9)-1*%
%TF.CreationDate,2023-03-23T17:51:48+02:00*%
%TF.ProjectId,jantteri-testrack-interface,6a616e74-7465-4726-992d-746573747261,rev?*%
%TF.SameCoordinates,Original*%
%TF.FileFunction,Soldermask,Top*%
%TF.FilePolarity,Negative*%
%FSLAX46Y46*%
G04 Gerber Fmt 4.6, Leading zero omitted, Abs format (unit mm)*
G04 Created by KiCad (PCBNEW (5.1.9)-1) date 2023-03-23 17:51:48*
%MOMM*%
%LPD*%
G01*
G04 APERTURE LIST*
%ADD10C,3.200000*%
%ADD11O,2.200000X2.200000*%
%ADD12R,2.200000X2.200000*%
%ADD13O,1.700000X1.700000*%
%ADD14R,1.700000X1.700000*%
%ADD15R,1.500000X1.000000*%
%ADD16R,1.500000X1.050000*%
%ADD17O,1.500000X1.050000*%
%ADD18C,1.600000*%
%ADD19O,1.600000X1.600000*%
%ADD20C,1.524000*%
%ADD21C,3.000000*%
%ADD22C,2.500000*%
%ADD23R,3.000000X3.000000*%
G04 APERTURE END LIST*
D10*
%TO.C,REF\u002A\u002A*%
X114706400Y-74320400D03*
%TD*%
%TO.C,REF\u002A\u002A*%
X150164800Y-74320400D03*
%TD*%
%TO.C,REF\u002A\u002A*%
X201828400Y-116078000D03*
%TD*%
%TO.C,REF\u002A\u002A*%
X78841600Y-116078000D03*
%TD*%
%TO.C,REF\u002A\u002A*%
X78841600Y-74320400D03*
%TD*%
D11*
%TO.C,D1*%
X100685600Y-102870000D03*
D12*
X100685600Y-92710000D03*
%TD*%
%TO.C,D2*%
X125120400Y-91897200D03*
D11*
X125120400Y-102057200D03*
%TD*%
D12*
%TO.C,D3*%
X150622000Y-91948000D03*
D11*
X150622000Y-102108000D03*
%TD*%
D12*
%TO.C,D4*%
X199999600Y-90220800D03*
D11*
X199999600Y-100380800D03*
%TD*%
%TO.C,D5*%
X175158400Y-101396800D03*
D12*
X175158400Y-91236800D03*
%TD*%
D13*
%TO.C,J1*%
X140817600Y-74066400D03*
X140817600Y-71526400D03*
X138277600Y-74066400D03*
X138277600Y-71526400D03*
X135737600Y-74066400D03*
X135737600Y-71526400D03*
X133197600Y-74066400D03*
X133197600Y-71526400D03*
X130657600Y-74066400D03*
X130657600Y-71526400D03*
X128117600Y-74066400D03*
X128117600Y-71526400D03*
X125577600Y-74066400D03*
D14*
X125577600Y-71526400D03*
%TD*%
%TO.C,J2*%
X117551200Y-80721200D03*
D13*
X120091200Y-80721200D03*
X122631200Y-80721200D03*
X125171200Y-80721200D03*
X127711200Y-80721200D03*
X130251200Y-80721200D03*
X132791200Y-80721200D03*
X135331200Y-80721200D03*
X137871200Y-80721200D03*
X140411200Y-80721200D03*
X142951200Y-80721200D03*
X145491200Y-80721200D03*
X148031200Y-80721200D03*
X150571200Y-80721200D03*
%TD*%
D14*
%TO.C,J3*%
X86614000Y-71932800D03*
D13*
X86614000Y-74472800D03*
X89154000Y-71932800D03*
X89154000Y-74472800D03*
X91694000Y-71932800D03*
X91694000Y-74472800D03*
X94234000Y-71932800D03*
X94234000Y-74472800D03*
X96774000Y-71932800D03*
X96774000Y-74472800D03*
X99314000Y-71932800D03*
X99314000Y-74472800D03*
X101854000Y-71932800D03*
X101854000Y-74472800D03*
%TD*%
%TO.C,J5*%
X111709200Y-80822800D03*
X109169200Y-80822800D03*
X106629200Y-80822800D03*
X104089200Y-80822800D03*
X101549200Y-80822800D03*
X99009200Y-80822800D03*
X96469200Y-80822800D03*
X93929200Y-80822800D03*
X91389200Y-80822800D03*
X88849200Y-80822800D03*
X86309200Y-80822800D03*
X83769200Y-80822800D03*
X81229200Y-80822800D03*
D14*
X78689200Y-80822800D03*
%TD*%
D15*
%TO.C,JP1*%
X100888800Y-87863200D03*
X100888800Y-86563200D03*
%TD*%
%TO.C,JP2*%
X125222000Y-86766400D03*
X125222000Y-88066400D03*
%TD*%
%TO.C,JP3*%
X150672800Y-87558400D03*
X150672800Y-86258400D03*
%TD*%
%TO.C,JP4*%
X175463200Y-86421200D03*
X175463200Y-87721200D03*
%TD*%
%TO.C,JP5*%
X199999600Y-87426800D03*
X199999600Y-86126800D03*
%TD*%
D16*
%TO.C,Q1*%
X96621600Y-110134400D03*
D17*
X96621600Y-112674400D03*
X96621600Y-111404400D03*
%TD*%
%TO.C,Q2*%
X119380000Y-111607600D03*
X119380000Y-112877600D03*
D16*
X119380000Y-110337600D03*
%TD*%
D17*
%TO.C,Q3*%
X144627600Y-111201200D03*
X144627600Y-112471200D03*
D16*
X144627600Y-109931200D03*
%TD*%
%TO.C,Q4*%
X190804800Y-109626400D03*
D17*
X190804800Y-112166400D03*
X190804800Y-110896400D03*
%TD*%
%TO.C,Q5*%
X169011600Y-111353600D03*
X169011600Y-112623600D03*
D16*
X169011600Y-110083600D03*
%TD*%
D18*
%TO.C,R1*%
X80162400Y-96977200D03*
D19*
X80162400Y-104597200D03*
%TD*%
%TO.C,R2*%
X80213200Y-86766400D03*
D18*
X80213200Y-94386400D03*
%TD*%
D19*
%TO.C,R3*%
X104648000Y-105410000D03*
D18*
X104648000Y-97790000D03*
%TD*%
%TO.C,R4*%
X104597200Y-94538800D03*
D19*
X104597200Y-86918800D03*
%TD*%
D18*
%TO.C,R5*%
X129540000Y-97739200D03*
D19*
X129540000Y-105359200D03*
%TD*%
%TO.C,R6*%
X129438400Y-87376000D03*
D18*
X129438400Y-94996000D03*
%TD*%
%TO.C,R10*%
X101498400Y-113080800D03*
D19*
X101498400Y-105460800D03*
%TD*%
D18*
%TO.C,R11*%
X125476000Y-112877600D03*
D19*
X125476000Y-105257600D03*
%TD*%
%TO.C,R12*%
X150723600Y-104952800D03*
D18*
X150723600Y-112572800D03*
%TD*%
%TO.C,R13*%
X94234000Y-116078000D03*
D19*
X101854000Y-116078000D03*
%TD*%
%TO.C,R14*%
X126136400Y-115976400D03*
D18*
X118516400Y-115976400D03*
%TD*%
%TO.C,R15*%
X143662400Y-115570000D03*
D19*
X151282400Y-115570000D03*
%TD*%
D18*
%TO.C,R16*%
X179070000Y-97536000D03*
D19*
X179070000Y-105156000D03*
%TD*%
D18*
%TO.C,R17*%
X179222400Y-94183200D03*
D19*
X179222400Y-86563200D03*
%TD*%
D18*
%TO.C,R18*%
X154635200Y-96672400D03*
D19*
X154635200Y-104292400D03*
%TD*%
%TO.C,R19*%
X154686000Y-86563200D03*
D18*
X154686000Y-94183200D03*
%TD*%
D19*
%TO.C,R22*%
X199948800Y-103936800D03*
D18*
X199948800Y-111556800D03*
%TD*%
D19*
%TO.C,R23*%
X175158400Y-104952800D03*
D18*
X175158400Y-112572800D03*
%TD*%
%TO.C,R24*%
X189382400Y-115570000D03*
D19*
X197002400Y-115570000D03*
%TD*%
D18*
%TO.C,R25*%
X168148000Y-115773200D03*
D19*
X175768000Y-115773200D03*
%TD*%
D20*
%TO.C,U1*%
X97231200Y-105918000D03*
X97231200Y-88138000D03*
D21*
X84531200Y-95758000D03*
X84531200Y-105918000D03*
%TD*%
%TO.C,U2*%
X109067600Y-106121200D03*
X109067600Y-95961200D03*
D20*
X121767600Y-88341200D03*
X121767600Y-106121200D03*
%TD*%
D21*
%TO.C,U3*%
X134315200Y-105562400D03*
X134315200Y-95402400D03*
D20*
X147015200Y-87782400D03*
X147015200Y-105562400D03*
%TD*%
%TO.C,U4*%
X196240400Y-105156000D03*
X196240400Y-87376000D03*
D21*
X183540400Y-94996000D03*
X183540400Y-105156000D03*
%TD*%
D20*
%TO.C,U5*%
X171653200Y-105867200D03*
X171653200Y-88087200D03*
D21*
X158953200Y-95707200D03*
X158953200Y-105867200D03*
%TD*%
D22*
%TO.C,J4*%
X181610000Y-77470000D03*
X186690000Y-77470000D03*
%TD*%
%TO.C,J6*%
X198475600Y-77470000D03*
X193395600Y-77470000D03*
%TD*%
D21*
%TO.C,J7*%
X85140800Y-113741200D03*
D23*
X90220800Y-113741200D03*
%TD*%
%TO.C,J8*%
X114300000Y-113538000D03*
D21*
X109220000Y-113538000D03*
%TD*%
D23*
%TO.C,J9*%
X139547600Y-113131600D03*
D21*
X134467600Y-113131600D03*
%TD*%
D23*
%TO.C,J10*%
X185420000Y-113334800D03*
D21*
X180340000Y-113334800D03*
%TD*%
%TO.C,J11*%
X159105600Y-113233200D03*
D23*
X164185600Y-113233200D03*
%TD*%
D21*
%TO.C,J12*%
X169875200Y-77317600D03*
D23*
X174955200Y-77317600D03*
%TD*%
%TO.C,J13*%
X157530800Y-77317600D03*
D21*
X162610800Y-77317600D03*
%TD*%
D16*
%TO.C,Q6*%
X84582000Y-99618800D03*
D17*
X84582000Y-102158800D03*
X84582000Y-100888800D03*
%TD*%
D16*
%TO.C,Q7*%
X109067600Y-99669600D03*
D17*
X109067600Y-102209600D03*
X109067600Y-100939600D03*
%TD*%
%TO.C,Q8*%
X134315200Y-100634800D03*
X134315200Y-101904800D03*
D16*
X134315200Y-99364800D03*
%TD*%
D17*
%TO.C,Q9*%
X183540400Y-99974400D03*
X183540400Y-101244400D03*
D16*
X183540400Y-98704400D03*
%TD*%
D17*
%TO.C,Q10*%
X158953200Y-100533200D03*
X158953200Y-101803200D03*
D16*
X158953200Y-99263200D03*
%TD*%
M02*
