%TF.GenerationSoftware,KiCad,Pcbnew,8.0.1*%
%TF.CreationDate,2024-09-05T21:06:45+03:00*%
%TF.ProjectId,eth-uart-breakout,6574682d-7561-4727-942d-627265616b6f,rev?*%
%TF.SameCoordinates,Original*%
%TF.FileFunction,Legend,Bot*%
%TF.FilePolarity,Positive*%
%FSLAX46Y46*%
G04 Gerber Fmt 4.6, Leading zero omitted, Abs format (unit mm)*
G04 Created by KiCad (PCBNEW 8.0.1) date 2024-09-05 21:06:45*
%MOMM*%
%LPD*%
G01*
G04 APERTURE LIST*
%ADD10C,0.100000*%
%ADD11C,0.300000*%
%ADD12C,0.150000*%
%ADD13C,0.120000*%
G04 APERTURE END LIST*
D10*
X98946687Y-82930419D02*
X99280020Y-82454228D01*
X99518115Y-82930419D02*
X99518115Y-81930419D01*
X99518115Y-81930419D02*
X99137163Y-81930419D01*
X99137163Y-81930419D02*
X99041925Y-81978038D01*
X99041925Y-81978038D02*
X98994306Y-82025657D01*
X98994306Y-82025657D02*
X98946687Y-82120895D01*
X98946687Y-82120895D02*
X98946687Y-82263752D01*
X98946687Y-82263752D02*
X98994306Y-82358990D01*
X98994306Y-82358990D02*
X99041925Y-82406609D01*
X99041925Y-82406609D02*
X99137163Y-82454228D01*
X99137163Y-82454228D02*
X99518115Y-82454228D01*
X98613353Y-81930419D02*
X97946687Y-82930419D01*
X97946687Y-81930419D02*
X98613353Y-82930419D01*
X97565734Y-82930419D02*
X97565734Y-81930419D01*
X97565734Y-81930419D02*
X97327639Y-81930419D01*
X97327639Y-81930419D02*
X97184782Y-81978038D01*
X97184782Y-81978038D02*
X97089544Y-82073276D01*
X97089544Y-82073276D02*
X97041925Y-82168514D01*
X97041925Y-82168514D02*
X96994306Y-82358990D01*
X96994306Y-82358990D02*
X96994306Y-82501847D01*
X96994306Y-82501847D02*
X97041925Y-82692323D01*
X97041925Y-82692323D02*
X97089544Y-82787561D01*
X97089544Y-82787561D02*
X97184782Y-82882800D01*
X97184782Y-82882800D02*
X97327639Y-82930419D01*
X97327639Y-82930419D02*
X97565734Y-82930419D01*
X96613353Y-82025657D02*
X96565734Y-81978038D01*
X96565734Y-81978038D02*
X96470496Y-81930419D01*
X96470496Y-81930419D02*
X96232401Y-81930419D01*
X96232401Y-81930419D02*
X96137163Y-81978038D01*
X96137163Y-81978038D02*
X96089544Y-82025657D01*
X96089544Y-82025657D02*
X96041925Y-82120895D01*
X96041925Y-82120895D02*
X96041925Y-82216133D01*
X96041925Y-82216133D02*
X96089544Y-82358990D01*
X96089544Y-82358990D02*
X96660972Y-82930419D01*
X96660972Y-82930419D02*
X96041925Y-82930419D01*
X103137687Y-82930419D02*
X103471020Y-82454228D01*
X103709115Y-82930419D02*
X103709115Y-81930419D01*
X103709115Y-81930419D02*
X103328163Y-81930419D01*
X103328163Y-81930419D02*
X103232925Y-81978038D01*
X103232925Y-81978038D02*
X103185306Y-82025657D01*
X103185306Y-82025657D02*
X103137687Y-82120895D01*
X103137687Y-82120895D02*
X103137687Y-82263752D01*
X103137687Y-82263752D02*
X103185306Y-82358990D01*
X103185306Y-82358990D02*
X103232925Y-82406609D01*
X103232925Y-82406609D02*
X103328163Y-82454228D01*
X103328163Y-82454228D02*
X103709115Y-82454228D01*
X102804353Y-81930419D02*
X102137687Y-82930419D01*
X102137687Y-81930419D02*
X102804353Y-82930419D01*
X101756734Y-82930419D02*
X101756734Y-81930419D01*
X101756734Y-81930419D02*
X101518639Y-81930419D01*
X101518639Y-81930419D02*
X101375782Y-81978038D01*
X101375782Y-81978038D02*
X101280544Y-82073276D01*
X101280544Y-82073276D02*
X101232925Y-82168514D01*
X101232925Y-82168514D02*
X101185306Y-82358990D01*
X101185306Y-82358990D02*
X101185306Y-82501847D01*
X101185306Y-82501847D02*
X101232925Y-82692323D01*
X101232925Y-82692323D02*
X101280544Y-82787561D01*
X101280544Y-82787561D02*
X101375782Y-82882800D01*
X101375782Y-82882800D02*
X101518639Y-82930419D01*
X101518639Y-82930419D02*
X101756734Y-82930419D01*
X100232925Y-82930419D02*
X100804353Y-82930419D01*
X100518639Y-82930419D02*
X100518639Y-81930419D01*
X100518639Y-81930419D02*
X100613877Y-82073276D01*
X100613877Y-82073276D02*
X100709115Y-82168514D01*
X100709115Y-82168514D02*
X100804353Y-82216133D01*
X103851972Y-79517419D02*
X103280544Y-79517419D01*
X103566258Y-80517419D02*
X103566258Y-79517419D01*
X103042448Y-79517419D02*
X102375782Y-80517419D01*
X102375782Y-79517419D02*
X103042448Y-80517419D01*
X101994829Y-80517419D02*
X101994829Y-79517419D01*
X101994829Y-79517419D02*
X101756734Y-79517419D01*
X101756734Y-79517419D02*
X101613877Y-79565038D01*
X101613877Y-79565038D02*
X101518639Y-79660276D01*
X101518639Y-79660276D02*
X101471020Y-79755514D01*
X101471020Y-79755514D02*
X101423401Y-79945990D01*
X101423401Y-79945990D02*
X101423401Y-80088847D01*
X101423401Y-80088847D02*
X101471020Y-80279323D01*
X101471020Y-80279323D02*
X101518639Y-80374561D01*
X101518639Y-80374561D02*
X101613877Y-80469800D01*
X101613877Y-80469800D02*
X101756734Y-80517419D01*
X101756734Y-80517419D02*
X101994829Y-80517419D01*
X100471020Y-80517419D02*
X101042448Y-80517419D01*
X100756734Y-80517419D02*
X100756734Y-79517419D01*
X100756734Y-79517419D02*
X100851972Y-79660276D01*
X100851972Y-79660276D02*
X100947210Y-79755514D01*
X100947210Y-79755514D02*
X101042448Y-79803133D01*
X99787972Y-79517419D02*
X99216544Y-79517419D01*
X99502258Y-80517419D02*
X99502258Y-79517419D01*
X98978448Y-79517419D02*
X98311782Y-80517419D01*
X98311782Y-79517419D02*
X98978448Y-80517419D01*
X97930829Y-80517419D02*
X97930829Y-79517419D01*
X97930829Y-79517419D02*
X97692734Y-79517419D01*
X97692734Y-79517419D02*
X97549877Y-79565038D01*
X97549877Y-79565038D02*
X97454639Y-79660276D01*
X97454639Y-79660276D02*
X97407020Y-79755514D01*
X97407020Y-79755514D02*
X97359401Y-79945990D01*
X97359401Y-79945990D02*
X97359401Y-80088847D01*
X97359401Y-80088847D02*
X97407020Y-80279323D01*
X97407020Y-80279323D02*
X97454639Y-80374561D01*
X97454639Y-80374561D02*
X97549877Y-80469800D01*
X97549877Y-80469800D02*
X97692734Y-80517419D01*
X97692734Y-80517419D02*
X97930829Y-80517419D01*
X96978448Y-79612657D02*
X96930829Y-79565038D01*
X96930829Y-79565038D02*
X96835591Y-79517419D01*
X96835591Y-79517419D02*
X96597496Y-79517419D01*
X96597496Y-79517419D02*
X96502258Y-79565038D01*
X96502258Y-79565038D02*
X96454639Y-79612657D01*
X96454639Y-79612657D02*
X96407020Y-79707895D01*
X96407020Y-79707895D02*
X96407020Y-79803133D01*
X96407020Y-79803133D02*
X96454639Y-79945990D01*
X96454639Y-79945990D02*
X97026067Y-80517419D01*
X97026067Y-80517419D02*
X96407020Y-80517419D01*
X103439306Y-74485038D02*
X103534544Y-74437419D01*
X103534544Y-74437419D02*
X103677401Y-74437419D01*
X103677401Y-74437419D02*
X103820258Y-74485038D01*
X103820258Y-74485038D02*
X103915496Y-74580276D01*
X103915496Y-74580276D02*
X103963115Y-74675514D01*
X103963115Y-74675514D02*
X104010734Y-74865990D01*
X104010734Y-74865990D02*
X104010734Y-75008847D01*
X104010734Y-75008847D02*
X103963115Y-75199323D01*
X103963115Y-75199323D02*
X103915496Y-75294561D01*
X103915496Y-75294561D02*
X103820258Y-75389800D01*
X103820258Y-75389800D02*
X103677401Y-75437419D01*
X103677401Y-75437419D02*
X103582163Y-75437419D01*
X103582163Y-75437419D02*
X103439306Y-75389800D01*
X103439306Y-75389800D02*
X103391687Y-75342180D01*
X103391687Y-75342180D02*
X103391687Y-75008847D01*
X103391687Y-75008847D02*
X103582163Y-75008847D01*
X102963115Y-75437419D02*
X102963115Y-74437419D01*
X102963115Y-74437419D02*
X102391687Y-75437419D01*
X102391687Y-75437419D02*
X102391687Y-74437419D01*
X101915496Y-75437419D02*
X101915496Y-74437419D01*
X101915496Y-74437419D02*
X101677401Y-74437419D01*
X101677401Y-74437419D02*
X101534544Y-74485038D01*
X101534544Y-74485038D02*
X101439306Y-74580276D01*
X101439306Y-74580276D02*
X101391687Y-74675514D01*
X101391687Y-74675514D02*
X101344068Y-74865990D01*
X101344068Y-74865990D02*
X101344068Y-75008847D01*
X101344068Y-75008847D02*
X101391687Y-75199323D01*
X101391687Y-75199323D02*
X101439306Y-75294561D01*
X101439306Y-75294561D02*
X101534544Y-75389800D01*
X101534544Y-75389800D02*
X101677401Y-75437419D01*
X101677401Y-75437419D02*
X101915496Y-75437419D01*
D11*
X75859774Y-71960828D02*
X75002632Y-71960828D01*
X75431203Y-73460828D02*
X75431203Y-71960828D01*
X74645489Y-71960828D02*
X73645489Y-73460828D01*
X73645489Y-71960828D02*
X74645489Y-73460828D01*
X73074061Y-72889400D02*
X71931204Y-72889400D01*
X71431203Y-71960828D02*
X70574061Y-71960828D01*
X71002632Y-73460828D02*
X71002632Y-71960828D01*
X70216918Y-71960828D02*
X69216918Y-73460828D01*
X69216918Y-71960828D02*
X70216918Y-73460828D01*
X66645490Y-73460828D02*
X67145490Y-72746542D01*
X67502633Y-73460828D02*
X67502633Y-71960828D01*
X67502633Y-71960828D02*
X66931204Y-71960828D01*
X66931204Y-71960828D02*
X66788347Y-72032257D01*
X66788347Y-72032257D02*
X66716918Y-72103685D01*
X66716918Y-72103685D02*
X66645490Y-72246542D01*
X66645490Y-72246542D02*
X66645490Y-72460828D01*
X66645490Y-72460828D02*
X66716918Y-72603685D01*
X66716918Y-72603685D02*
X66788347Y-72675114D01*
X66788347Y-72675114D02*
X66931204Y-72746542D01*
X66931204Y-72746542D02*
X67502633Y-72746542D01*
X66145490Y-71960828D02*
X65145490Y-73460828D01*
X65145490Y-71960828D02*
X66145490Y-73460828D01*
X64574062Y-72889400D02*
X63431205Y-72889400D01*
X61859776Y-73460828D02*
X62359776Y-72746542D01*
X62716919Y-73460828D02*
X62716919Y-71960828D01*
X62716919Y-71960828D02*
X62145490Y-71960828D01*
X62145490Y-71960828D02*
X62002633Y-72032257D01*
X62002633Y-72032257D02*
X61931204Y-72103685D01*
X61931204Y-72103685D02*
X61859776Y-72246542D01*
X61859776Y-72246542D02*
X61859776Y-72460828D01*
X61859776Y-72460828D02*
X61931204Y-72603685D01*
X61931204Y-72603685D02*
X62002633Y-72675114D01*
X62002633Y-72675114D02*
X62145490Y-72746542D01*
X62145490Y-72746542D02*
X62716919Y-72746542D01*
X61359776Y-71960828D02*
X60359776Y-73460828D01*
X60359776Y-71960828D02*
X61359776Y-73460828D01*
X74788346Y-76635828D02*
X75288346Y-75921542D01*
X75645489Y-76635828D02*
X75645489Y-75135828D01*
X75645489Y-75135828D02*
X75074060Y-75135828D01*
X75074060Y-75135828D02*
X74931203Y-75207257D01*
X74931203Y-75207257D02*
X74859774Y-75278685D01*
X74859774Y-75278685D02*
X74788346Y-75421542D01*
X74788346Y-75421542D02*
X74788346Y-75635828D01*
X74788346Y-75635828D02*
X74859774Y-75778685D01*
X74859774Y-75778685D02*
X74931203Y-75850114D01*
X74931203Y-75850114D02*
X75074060Y-75921542D01*
X75074060Y-75921542D02*
X75645489Y-75921542D01*
X74288346Y-75135828D02*
X73288346Y-76635828D01*
X73288346Y-75135828D02*
X74288346Y-76635828D01*
X72716918Y-76064400D02*
X71574061Y-76064400D01*
X71074060Y-75135828D02*
X70216918Y-75135828D01*
X70645489Y-76635828D02*
X70645489Y-75135828D01*
X69859775Y-75135828D02*
X68859775Y-76635828D01*
X68859775Y-75135828D02*
X69859775Y-76635828D01*
X67359775Y-75135828D02*
X66502633Y-75135828D01*
X66931204Y-76635828D02*
X66931204Y-75135828D01*
X66145490Y-75135828D02*
X65145490Y-76635828D01*
X65145490Y-75135828D02*
X66145490Y-76635828D01*
X64574062Y-76064400D02*
X63431205Y-76064400D01*
X61859776Y-76635828D02*
X62359776Y-75921542D01*
X62716919Y-76635828D02*
X62716919Y-75135828D01*
X62716919Y-75135828D02*
X62145490Y-75135828D01*
X62145490Y-75135828D02*
X62002633Y-75207257D01*
X62002633Y-75207257D02*
X61931204Y-75278685D01*
X61931204Y-75278685D02*
X61859776Y-75421542D01*
X61859776Y-75421542D02*
X61859776Y-75635828D01*
X61859776Y-75635828D02*
X61931204Y-75778685D01*
X61931204Y-75778685D02*
X62002633Y-75850114D01*
X62002633Y-75850114D02*
X62145490Y-75921542D01*
X62145490Y-75921542D02*
X62716919Y-75921542D01*
X61359776Y-75135828D02*
X60359776Y-76635828D01*
X60359776Y-75135828D02*
X61359776Y-76635828D01*
D10*
X103486925Y-69357419D02*
X103963115Y-69357419D01*
X103963115Y-69357419D02*
X104010734Y-69833609D01*
X104010734Y-69833609D02*
X103963115Y-69785990D01*
X103963115Y-69785990D02*
X103867877Y-69738371D01*
X103867877Y-69738371D02*
X103629782Y-69738371D01*
X103629782Y-69738371D02*
X103534544Y-69785990D01*
X103534544Y-69785990D02*
X103486925Y-69833609D01*
X103486925Y-69833609D02*
X103439306Y-69928847D01*
X103439306Y-69928847D02*
X103439306Y-70166942D01*
X103439306Y-70166942D02*
X103486925Y-70262180D01*
X103486925Y-70262180D02*
X103534544Y-70309800D01*
X103534544Y-70309800D02*
X103629782Y-70357419D01*
X103629782Y-70357419D02*
X103867877Y-70357419D01*
X103867877Y-70357419D02*
X103963115Y-70309800D01*
X103963115Y-70309800D02*
X104010734Y-70262180D01*
X103153591Y-69357419D02*
X102820258Y-70357419D01*
X102820258Y-70357419D02*
X102486925Y-69357419D01*
D12*
X93464819Y-74731666D02*
X94179104Y-74731666D01*
X94179104Y-74731666D02*
X94321961Y-74684047D01*
X94321961Y-74684047D02*
X94417200Y-74588809D01*
X94417200Y-74588809D02*
X94464819Y-74445952D01*
X94464819Y-74445952D02*
X94464819Y-74350714D01*
X94464819Y-75207857D02*
X93464819Y-75207857D01*
X93464819Y-75207857D02*
X93464819Y-75588809D01*
X93464819Y-75588809D02*
X93512438Y-75684047D01*
X93512438Y-75684047D02*
X93560057Y-75731666D01*
X93560057Y-75731666D02*
X93655295Y-75779285D01*
X93655295Y-75779285D02*
X93798152Y-75779285D01*
X93798152Y-75779285D02*
X93893390Y-75731666D01*
X93893390Y-75731666D02*
X93941009Y-75684047D01*
X93941009Y-75684047D02*
X93988628Y-75588809D01*
X93988628Y-75588809D02*
X93988628Y-75207857D01*
X93464819Y-76112619D02*
X93464819Y-76779285D01*
X93464819Y-76779285D02*
X94464819Y-76350714D01*
X83319819Y-71556666D02*
X84034104Y-71556666D01*
X84034104Y-71556666D02*
X84176961Y-71509047D01*
X84176961Y-71509047D02*
X84272200Y-71413809D01*
X84272200Y-71413809D02*
X84319819Y-71270952D01*
X84319819Y-71270952D02*
X84319819Y-71175714D01*
X84319819Y-72032857D02*
X83319819Y-72032857D01*
X83319819Y-72032857D02*
X83319819Y-72413809D01*
X83319819Y-72413809D02*
X83367438Y-72509047D01*
X83367438Y-72509047D02*
X83415057Y-72556666D01*
X83415057Y-72556666D02*
X83510295Y-72604285D01*
X83510295Y-72604285D02*
X83653152Y-72604285D01*
X83653152Y-72604285D02*
X83748390Y-72556666D01*
X83748390Y-72556666D02*
X83796009Y-72509047D01*
X83796009Y-72509047D02*
X83843628Y-72413809D01*
X83843628Y-72413809D02*
X83843628Y-72032857D01*
X84319819Y-73556666D02*
X84319819Y-72985238D01*
X84319819Y-73270952D02*
X83319819Y-73270952D01*
X83319819Y-73270952D02*
X83462676Y-73175714D01*
X83462676Y-73175714D02*
X83557914Y-73080476D01*
X83557914Y-73080476D02*
X83605533Y-72985238D01*
X98514819Y-74731666D02*
X99229104Y-74731666D01*
X99229104Y-74731666D02*
X99371961Y-74684047D01*
X99371961Y-74684047D02*
X99467200Y-74588809D01*
X99467200Y-74588809D02*
X99514819Y-74445952D01*
X99514819Y-74445952D02*
X99514819Y-74350714D01*
X99514819Y-75207857D02*
X98514819Y-75207857D01*
X98514819Y-75207857D02*
X98514819Y-75588809D01*
X98514819Y-75588809D02*
X98562438Y-75684047D01*
X98562438Y-75684047D02*
X98610057Y-75731666D01*
X98610057Y-75731666D02*
X98705295Y-75779285D01*
X98705295Y-75779285D02*
X98848152Y-75779285D01*
X98848152Y-75779285D02*
X98943390Y-75731666D01*
X98943390Y-75731666D02*
X98991009Y-75684047D01*
X98991009Y-75684047D02*
X99038628Y-75588809D01*
X99038628Y-75588809D02*
X99038628Y-75207857D01*
X98943390Y-76350714D02*
X98895771Y-76255476D01*
X98895771Y-76255476D02*
X98848152Y-76207857D01*
X98848152Y-76207857D02*
X98752914Y-76160238D01*
X98752914Y-76160238D02*
X98705295Y-76160238D01*
X98705295Y-76160238D02*
X98610057Y-76207857D01*
X98610057Y-76207857D02*
X98562438Y-76255476D01*
X98562438Y-76255476D02*
X98514819Y-76350714D01*
X98514819Y-76350714D02*
X98514819Y-76541190D01*
X98514819Y-76541190D02*
X98562438Y-76636428D01*
X98562438Y-76636428D02*
X98610057Y-76684047D01*
X98610057Y-76684047D02*
X98705295Y-76731666D01*
X98705295Y-76731666D02*
X98752914Y-76731666D01*
X98752914Y-76731666D02*
X98848152Y-76684047D01*
X98848152Y-76684047D02*
X98895771Y-76636428D01*
X98895771Y-76636428D02*
X98943390Y-76541190D01*
X98943390Y-76541190D02*
X98943390Y-76350714D01*
X98943390Y-76350714D02*
X98991009Y-76255476D01*
X98991009Y-76255476D02*
X99038628Y-76207857D01*
X99038628Y-76207857D02*
X99133866Y-76160238D01*
X99133866Y-76160238D02*
X99324342Y-76160238D01*
X99324342Y-76160238D02*
X99419580Y-76207857D01*
X99419580Y-76207857D02*
X99467200Y-76255476D01*
X99467200Y-76255476D02*
X99514819Y-76350714D01*
X99514819Y-76350714D02*
X99514819Y-76541190D01*
X99514819Y-76541190D02*
X99467200Y-76636428D01*
X99467200Y-76636428D02*
X99419580Y-76684047D01*
X99419580Y-76684047D02*
X99324342Y-76731666D01*
X99324342Y-76731666D02*
X99133866Y-76731666D01*
X99133866Y-76731666D02*
X99038628Y-76684047D01*
X99038628Y-76684047D02*
X98991009Y-76636428D01*
X98991009Y-76636428D02*
X98943390Y-76541190D01*
X77559819Y-74731666D02*
X78274104Y-74731666D01*
X78274104Y-74731666D02*
X78416961Y-74684047D01*
X78416961Y-74684047D02*
X78512200Y-74588809D01*
X78512200Y-74588809D02*
X78559819Y-74445952D01*
X78559819Y-74445952D02*
X78559819Y-74350714D01*
X78559819Y-75207857D02*
X77559819Y-75207857D01*
X77559819Y-75207857D02*
X77559819Y-75588809D01*
X77559819Y-75588809D02*
X77607438Y-75684047D01*
X77607438Y-75684047D02*
X77655057Y-75731666D01*
X77655057Y-75731666D02*
X77750295Y-75779285D01*
X77750295Y-75779285D02*
X77893152Y-75779285D01*
X77893152Y-75779285D02*
X77988390Y-75731666D01*
X77988390Y-75731666D02*
X78036009Y-75684047D01*
X78036009Y-75684047D02*
X78083628Y-75588809D01*
X78083628Y-75588809D02*
X78083628Y-75207857D01*
X77559819Y-76636428D02*
X77559819Y-76445952D01*
X77559819Y-76445952D02*
X77607438Y-76350714D01*
X77607438Y-76350714D02*
X77655057Y-76303095D01*
X77655057Y-76303095D02*
X77797914Y-76207857D01*
X77797914Y-76207857D02*
X77988390Y-76160238D01*
X77988390Y-76160238D02*
X78369342Y-76160238D01*
X78369342Y-76160238D02*
X78464580Y-76207857D01*
X78464580Y-76207857D02*
X78512200Y-76255476D01*
X78512200Y-76255476D02*
X78559819Y-76350714D01*
X78559819Y-76350714D02*
X78559819Y-76541190D01*
X78559819Y-76541190D02*
X78512200Y-76636428D01*
X78512200Y-76636428D02*
X78464580Y-76684047D01*
X78464580Y-76684047D02*
X78369342Y-76731666D01*
X78369342Y-76731666D02*
X78131247Y-76731666D01*
X78131247Y-76731666D02*
X78036009Y-76684047D01*
X78036009Y-76684047D02*
X77988390Y-76636428D01*
X77988390Y-76636428D02*
X77940771Y-76541190D01*
X77940771Y-76541190D02*
X77940771Y-76350714D01*
X77940771Y-76350714D02*
X77988390Y-76255476D01*
X77988390Y-76255476D02*
X78036009Y-76207857D01*
X78036009Y-76207857D02*
X78131247Y-76160238D01*
X83244819Y-74731666D02*
X83959104Y-74731666D01*
X83959104Y-74731666D02*
X84101961Y-74684047D01*
X84101961Y-74684047D02*
X84197200Y-74588809D01*
X84197200Y-74588809D02*
X84244819Y-74445952D01*
X84244819Y-74445952D02*
X84244819Y-74350714D01*
X84244819Y-75207857D02*
X83244819Y-75207857D01*
X83244819Y-75207857D02*
X83244819Y-75588809D01*
X83244819Y-75588809D02*
X83292438Y-75684047D01*
X83292438Y-75684047D02*
X83340057Y-75731666D01*
X83340057Y-75731666D02*
X83435295Y-75779285D01*
X83435295Y-75779285D02*
X83578152Y-75779285D01*
X83578152Y-75779285D02*
X83673390Y-75731666D01*
X83673390Y-75731666D02*
X83721009Y-75684047D01*
X83721009Y-75684047D02*
X83768628Y-75588809D01*
X83768628Y-75588809D02*
X83768628Y-75207857D01*
X83244819Y-76684047D02*
X83244819Y-76207857D01*
X83244819Y-76207857D02*
X83721009Y-76160238D01*
X83721009Y-76160238D02*
X83673390Y-76207857D01*
X83673390Y-76207857D02*
X83625771Y-76303095D01*
X83625771Y-76303095D02*
X83625771Y-76541190D01*
X83625771Y-76541190D02*
X83673390Y-76636428D01*
X83673390Y-76636428D02*
X83721009Y-76684047D01*
X83721009Y-76684047D02*
X83816247Y-76731666D01*
X83816247Y-76731666D02*
X84054342Y-76731666D01*
X84054342Y-76731666D02*
X84149580Y-76684047D01*
X84149580Y-76684047D02*
X84197200Y-76636428D01*
X84197200Y-76636428D02*
X84244819Y-76541190D01*
X84244819Y-76541190D02*
X84244819Y-76303095D01*
X84244819Y-76303095D02*
X84197200Y-76207857D01*
X84197200Y-76207857D02*
X84149580Y-76160238D01*
X98514819Y-71556666D02*
X99229104Y-71556666D01*
X99229104Y-71556666D02*
X99371961Y-71509047D01*
X99371961Y-71509047D02*
X99467200Y-71413809D01*
X99467200Y-71413809D02*
X99514819Y-71270952D01*
X99514819Y-71270952D02*
X99514819Y-71175714D01*
X99514819Y-72032857D02*
X98514819Y-72032857D01*
X98514819Y-72032857D02*
X98514819Y-72413809D01*
X98514819Y-72413809D02*
X98562438Y-72509047D01*
X98562438Y-72509047D02*
X98610057Y-72556666D01*
X98610057Y-72556666D02*
X98705295Y-72604285D01*
X98705295Y-72604285D02*
X98848152Y-72604285D01*
X98848152Y-72604285D02*
X98943390Y-72556666D01*
X98943390Y-72556666D02*
X98991009Y-72509047D01*
X98991009Y-72509047D02*
X99038628Y-72413809D01*
X99038628Y-72413809D02*
X99038628Y-72032857D01*
X98514819Y-72937619D02*
X98514819Y-73556666D01*
X98514819Y-73556666D02*
X98895771Y-73223333D01*
X98895771Y-73223333D02*
X98895771Y-73366190D01*
X98895771Y-73366190D02*
X98943390Y-73461428D01*
X98943390Y-73461428D02*
X98991009Y-73509047D01*
X98991009Y-73509047D02*
X99086247Y-73556666D01*
X99086247Y-73556666D02*
X99324342Y-73556666D01*
X99324342Y-73556666D02*
X99419580Y-73509047D01*
X99419580Y-73509047D02*
X99467200Y-73461428D01*
X99467200Y-73461428D02*
X99514819Y-73366190D01*
X99514819Y-73366190D02*
X99514819Y-73080476D01*
X99514819Y-73080476D02*
X99467200Y-72985238D01*
X99467200Y-72985238D02*
X99419580Y-72937619D01*
X77559819Y-71556666D02*
X78274104Y-71556666D01*
X78274104Y-71556666D02*
X78416961Y-71509047D01*
X78416961Y-71509047D02*
X78512200Y-71413809D01*
X78512200Y-71413809D02*
X78559819Y-71270952D01*
X78559819Y-71270952D02*
X78559819Y-71175714D01*
X78559819Y-72032857D02*
X77559819Y-72032857D01*
X77559819Y-72032857D02*
X77559819Y-72413809D01*
X77559819Y-72413809D02*
X77607438Y-72509047D01*
X77607438Y-72509047D02*
X77655057Y-72556666D01*
X77655057Y-72556666D02*
X77750295Y-72604285D01*
X77750295Y-72604285D02*
X77893152Y-72604285D01*
X77893152Y-72604285D02*
X77988390Y-72556666D01*
X77988390Y-72556666D02*
X78036009Y-72509047D01*
X78036009Y-72509047D02*
X78083628Y-72413809D01*
X78083628Y-72413809D02*
X78083628Y-72032857D01*
X77655057Y-72985238D02*
X77607438Y-73032857D01*
X77607438Y-73032857D02*
X77559819Y-73128095D01*
X77559819Y-73128095D02*
X77559819Y-73366190D01*
X77559819Y-73366190D02*
X77607438Y-73461428D01*
X77607438Y-73461428D02*
X77655057Y-73509047D01*
X77655057Y-73509047D02*
X77750295Y-73556666D01*
X77750295Y-73556666D02*
X77845533Y-73556666D01*
X77845533Y-73556666D02*
X77988390Y-73509047D01*
X77988390Y-73509047D02*
X78559819Y-72937619D01*
X78559819Y-72937619D02*
X78559819Y-73556666D01*
X93434819Y-71556666D02*
X94149104Y-71556666D01*
X94149104Y-71556666D02*
X94291961Y-71509047D01*
X94291961Y-71509047D02*
X94387200Y-71413809D01*
X94387200Y-71413809D02*
X94434819Y-71270952D01*
X94434819Y-71270952D02*
X94434819Y-71175714D01*
X94434819Y-72032857D02*
X93434819Y-72032857D01*
X93434819Y-72032857D02*
X93434819Y-72413809D01*
X93434819Y-72413809D02*
X93482438Y-72509047D01*
X93482438Y-72509047D02*
X93530057Y-72556666D01*
X93530057Y-72556666D02*
X93625295Y-72604285D01*
X93625295Y-72604285D02*
X93768152Y-72604285D01*
X93768152Y-72604285D02*
X93863390Y-72556666D01*
X93863390Y-72556666D02*
X93911009Y-72509047D01*
X93911009Y-72509047D02*
X93958628Y-72413809D01*
X93958628Y-72413809D02*
X93958628Y-72032857D01*
X93768152Y-73461428D02*
X94434819Y-73461428D01*
X93387200Y-73223333D02*
X94101485Y-72985238D01*
X94101485Y-72985238D02*
X94101485Y-73604285D01*
D13*
%TO.C,JP7*%
X90055000Y-74565000D02*
X92855000Y-74565000D01*
X90055000Y-76565000D02*
X90055000Y-74565000D01*
X92855000Y-74565000D02*
X92855000Y-76565000D01*
X92855000Y-76565000D02*
X90055000Y-76565000D01*
%TO.C,JP1*%
X85005000Y-71390000D02*
X87805000Y-71390000D01*
X85005000Y-73390000D02*
X85005000Y-71390000D01*
X87805000Y-71390000D02*
X87805000Y-73390000D01*
X87805000Y-73390000D02*
X85005000Y-73390000D01*
%TO.C,JP8*%
X95105000Y-74565000D02*
X97905000Y-74565000D01*
X95105000Y-76565000D02*
X95105000Y-74565000D01*
X97905000Y-74565000D02*
X97905000Y-76565000D01*
X97905000Y-76565000D02*
X95105000Y-76565000D01*
%TO.C,JP6*%
X79245000Y-74565000D02*
X82045000Y-74565000D01*
X79245000Y-76565000D02*
X79245000Y-74565000D01*
X82045000Y-74565000D02*
X82045000Y-76565000D01*
X82045000Y-76565000D02*
X79245000Y-76565000D01*
%TO.C,JP5*%
X84945000Y-74565000D02*
X87745000Y-74565000D01*
X84945000Y-76565000D02*
X84945000Y-74565000D01*
X87745000Y-74565000D02*
X87745000Y-76565000D01*
X87745000Y-76565000D02*
X84945000Y-76565000D01*
%TO.C,JP3*%
X95105000Y-71390000D02*
X97905000Y-71390000D01*
X95105000Y-73390000D02*
X95105000Y-71390000D01*
X97905000Y-71390000D02*
X97905000Y-73390000D01*
X97905000Y-73390000D02*
X95105000Y-73390000D01*
%TO.C,JP2*%
X79260000Y-71390000D02*
X82060000Y-71390000D01*
X79260000Y-73390000D02*
X79260000Y-71390000D01*
X82060000Y-71390000D02*
X82060000Y-73390000D01*
X82060000Y-73390000D02*
X79260000Y-73390000D01*
%TO.C,JP4*%
X90055000Y-71390000D02*
X92855000Y-71390000D01*
X90055000Y-73390000D02*
X90055000Y-71390000D01*
X92855000Y-71390000D02*
X92855000Y-73390000D01*
X92855000Y-73390000D02*
X90055000Y-73390000D01*
%TD*%
M02*
