%TF.GenerationSoftware,KiCad,Pcbnew,8.0.1*%
%TF.CreationDate,2024-09-05T21:11:39+03:00*%
%TF.ProjectId,eth-uart-breakout,6574682d-7561-4727-942d-627265616b6f,rev?*%
%TF.SameCoordinates,Original*%
%TF.FileFunction,Copper,L2,Bot*%
%TF.FilePolarity,Positive*%
%FSLAX46Y46*%
G04 Gerber Fmt 4.6, Leading zero omitted, Abs format (unit mm)*
G04 Created by KiCad (PCBNEW 8.0.1) date 2024-09-05 21:11:39*
%MOMM*%
%LPD*%
G01*
G04 APERTURE LIST*
G04 Aperture macros list*
%AMRoundRect*
0 Rectangle with rounded corners*
0 $1 Rounding radius*
0 $2 $3 $4 $5 $6 $7 $8 $9 X,Y pos of 4 corners*
0 Add a 4 corners polygon primitive as box body*
4,1,4,$2,$3,$4,$5,$6,$7,$8,$9,$2,$3,0*
0 Add four circle primitives for the rounded corners*
1,1,$1+$1,$2,$3*
1,1,$1+$1,$4,$5*
1,1,$1+$1,$6,$7*
1,1,$1+$1,$8,$9*
0 Add four rect primitives between the rounded corners*
20,1,$1+$1,$2,$3,$4,$5,0*
20,1,$1+$1,$4,$5,$6,$7,0*
20,1,$1+$1,$6,$7,$8,$9,0*
20,1,$1+$1,$8,$9,$2,$3,0*%
G04 Aperture macros list end*
%TA.AperFunction,EtchedComponent*%
%ADD10C,0.000000*%
%TD*%
%TA.AperFunction,ComponentPad*%
%ADD11RoundRect,0.250000X0.265000X0.615000X-0.265000X0.615000X-0.265000X-0.615000X0.265000X-0.615000X0*%
%TD*%
%TA.AperFunction,ComponentPad*%
%ADD12O,1.030000X1.730000*%
%TD*%
%TA.AperFunction,ComponentPad*%
%ADD13R,3.000000X3.000000*%
%TD*%
%TA.AperFunction,ComponentPad*%
%ADD14C,3.000000*%
%TD*%
%TA.AperFunction,ComponentPad*%
%ADD15C,1.524000*%
%TD*%
%TA.AperFunction,SMDPad,CuDef*%
%ADD16R,1.000000X1.500000*%
%TD*%
%TA.AperFunction,ViaPad*%
%ADD17C,0.600000*%
%TD*%
%TA.AperFunction,Conductor*%
%ADD18C,0.200000*%
%TD*%
G04 APERTURE END LIST*
D10*
%TA.AperFunction,EtchedComponent*%
%TO.C,JP1*%
G36*
X86655000Y-72690000D02*
G01*
X86155000Y-72690000D01*
X86155000Y-72090000D01*
X86655000Y-72090000D01*
X86655000Y-72690000D01*
G37*
%TD.AperFunction*%
%TA.AperFunction,EtchedComponent*%
%TO.C,JP3*%
G36*
X96755000Y-72690000D02*
G01*
X96255000Y-72690000D01*
X96255000Y-72090000D01*
X96755000Y-72090000D01*
X96755000Y-72690000D01*
G37*
%TD.AperFunction*%
%TA.AperFunction,EtchedComponent*%
%TO.C,JP2*%
G36*
X80910000Y-72690000D02*
G01*
X80410000Y-72690000D01*
X80410000Y-72090000D01*
X80910000Y-72090000D01*
X80910000Y-72690000D01*
G37*
%TD.AperFunction*%
%TA.AperFunction,EtchedComponent*%
%TO.C,JP4*%
G36*
X91705000Y-72690000D02*
G01*
X91205000Y-72690000D01*
X91205000Y-72090000D01*
X91705000Y-72090000D01*
X91705000Y-72690000D01*
G37*
%TD.AperFunction*%
%TD*%
D11*
%TO.P,J2,1,Pin_1*%
%TO.N,/jst_conn1/TX*%
X106680000Y-60960000D03*
D12*
%TO.P,J2,2,Pin_2*%
%TO.N,/jst_conn1/RX*%
X105180000Y-60960000D03*
%TO.P,J2,3,Pin_3*%
%TO.N,/jst_conn1/VCC*%
X103680000Y-60960000D03*
%TO.P,J2,4,Pin_4*%
%TO.N,GND*%
X102180000Y-60960000D03*
%TD*%
D13*
%TO.P,J4,1,Pin_1*%
%TO.N,+5V*%
X68580000Y-60960000D03*
D14*
%TO.P,J4,2,Pin_2*%
%TO.N,/jst_conn/VCC*%
X73660000Y-60960000D03*
%TD*%
D13*
%TO.P,J3,1,Pin_1*%
%TO.N,+5V*%
X58420000Y-60960000D03*
D14*
%TO.P,J3,2,Pin_2*%
%TO.N,GND*%
X63500000Y-60960000D03*
%TD*%
D15*
%TO.P,U1,1,5V*%
%TO.N,+5V*%
X107950000Y-69850000D03*
%TO.P,U1,2,5V*%
X105410000Y-69850000D03*
%TO.P,U1,3,3V3*%
%TO.N,unconnected-(U1-3V3-Pad3)*%
X107950000Y-72390000D03*
%TO.P,U1,4,3V3*%
%TO.N,unconnected-(U1-3V3-Pad4)*%
X105410000Y-72390000D03*
%TO.P,U1,5,GND*%
%TO.N,GND*%
X107950000Y-74930000D03*
%TO.P,U1,6,GND*%
X105410000Y-74930000D03*
%TO.P,U1,7,RST1*%
%TO.N,unconnected-(U1-RST1-Pad7)*%
X107950000Y-77470000D03*
%TO.P,U1,8,RESET*%
%TO.N,unconnected-(U1-RESET-Pad8)*%
X105410000Y-77470000D03*
%TO.P,U1,9,TXD1*%
%TO.N,Net-(JP1-A)*%
X107950000Y-80010000D03*
%TO.P,U1,10,TXD2*%
%TO.N,Net-(JP3-A)*%
X105410000Y-80010000D03*
%TO.P,U1,11,RXD1*%
%TO.N,Net-(JP2-A)*%
X107950000Y-82550000D03*
%TO.P,U1,12,RXD2*%
%TO.N,Net-(JP4-A)*%
X105410000Y-82550000D03*
%TO.P,U1,13,CFG0*%
%TO.N,unconnected-(U1-CFG0-Pad13)*%
X107950000Y-85090000D03*
%TO.P,U1,14,RUN*%
%TO.N,unconnected-(U1-RUN-Pad14)*%
X105410000Y-85090000D03*
%TO.P,U1,15,DIR1*%
%TO.N,unconnected-(U1-DIR1-Pad15)*%
X107950000Y-87630000D03*
%TO.P,U1,16,DIR2*%
%TO.N,unconnected-(U1-DIR2-Pad16)*%
X105410000Y-87630000D03*
%TO.P,U1,17,NC*%
%TO.N,unconnected-(U1-NC-Pad17)*%
X61100000Y-69365000D03*
%TO.P,U1,18,NC*%
%TO.N,unconnected-(U1-NC-Pad18)*%
X61100000Y-88115000D03*
%TD*%
D13*
%TO.P,J5,1,Pin_1*%
%TO.N,+5V*%
X78740000Y-60960000D03*
D14*
%TO.P,J5,2,Pin_2*%
%TO.N,/jst_conn1/VCC*%
X83820000Y-60960000D03*
%TD*%
D11*
%TO.P,J1,1,Pin_1*%
%TO.N,/jst_conn/TX*%
X95940000Y-60960000D03*
D12*
%TO.P,J1,2,Pin_2*%
%TO.N,/jst_conn/RX*%
X94440000Y-60960000D03*
%TO.P,J1,3,Pin_3*%
%TO.N,/jst_conn/VCC*%
X92940000Y-60960000D03*
%TO.P,J1,4,Pin_4*%
%TO.N,GND*%
X91440000Y-60960000D03*
%TD*%
D16*
%TO.P,JP7,1,A*%
%TO.N,Net-(JP3-A)*%
X92105000Y-75565000D03*
%TO.P,JP7,2,B*%
%TO.N,/jst_conn1/RX*%
X90805000Y-75565000D03*
%TD*%
%TO.P,JP1,1,A*%
%TO.N,Net-(JP1-A)*%
X85755000Y-72390000D03*
%TO.P,JP1,2,B*%
%TO.N,/jst_conn/TX*%
X87055000Y-72390000D03*
%TD*%
%TO.P,JP8,1,A*%
%TO.N,Net-(JP4-A)*%
X95855000Y-75565000D03*
%TO.P,JP8,2,B*%
%TO.N,/jst_conn1/TX*%
X97155000Y-75565000D03*
%TD*%
%TO.P,JP6,1,A*%
%TO.N,Net-(JP1-A)*%
X81295000Y-75565000D03*
%TO.P,JP6,2,B*%
%TO.N,/jst_conn/RX*%
X79995000Y-75565000D03*
%TD*%
%TO.P,JP5,1,A*%
%TO.N,Net-(JP2-A)*%
X85695000Y-75565000D03*
%TO.P,JP5,2,B*%
%TO.N,/jst_conn/TX*%
X86995000Y-75565000D03*
%TD*%
%TO.P,JP3,1,A*%
%TO.N,Net-(JP3-A)*%
X95855000Y-72390000D03*
%TO.P,JP3,2,B*%
%TO.N,/jst_conn1/TX*%
X97155000Y-72390000D03*
%TD*%
%TO.P,JP2,1,A*%
%TO.N,Net-(JP2-A)*%
X81310000Y-72390000D03*
%TO.P,JP2,2,B*%
%TO.N,/jst_conn/RX*%
X80010000Y-72390000D03*
%TD*%
%TO.P,JP4,1,A*%
%TO.N,Net-(JP4-A)*%
X92105000Y-72390000D03*
%TO.P,JP4,2,B*%
%TO.N,/jst_conn1/RX*%
X90805000Y-72390000D03*
%TD*%
D17*
%TO.N,/jst_conn/TX*%
X88900000Y-73660000D03*
X88265000Y-75565000D03*
%TO.N,GND*%
X100330000Y-81280000D03*
X75565000Y-70485000D03*
X99060000Y-59690000D03*
X88900000Y-76200000D03*
X53975000Y-89535000D03*
X89535000Y-78740000D03*
X96520000Y-59055000D03*
X102235000Y-72390000D03*
X102235000Y-79375000D03*
X83185000Y-70485000D03*
X83820000Y-71755000D03*
X81915000Y-84455000D03*
X59690000Y-80645000D03*
X78105000Y-81280000D03*
X68580000Y-76200000D03*
X99060000Y-75565000D03*
X100330000Y-87630000D03*
X83185000Y-74930000D03*
X54610000Y-74295000D03*
X88265000Y-60960000D03*
X76200000Y-88265000D03*
X108585000Y-64135000D03*
X94615000Y-59055000D03*
X93345000Y-78740000D03*
X53975000Y-67945000D03*
X93980000Y-74930000D03*
X90805000Y-87630000D03*
X92710000Y-81915000D03*
X89535000Y-73025000D03*
X105410000Y-59055000D03*
X107315000Y-59055000D03*
X53975000Y-83820000D03*
X99060000Y-73025000D03*
X93980000Y-72390000D03*
X95885000Y-81915000D03*
X67945000Y-88900000D03*
X53975000Y-60325000D03*
X99060000Y-78740000D03*
%TO.N,/jst_conn1/TX*%
X98425000Y-73660000D03*
X98425000Y-74930000D03*
%TO.N,Net-(JP1-A)*%
X83063235Y-73781765D03*
X84455000Y-72390000D03*
%TO.N,Net-(JP3-A)*%
X93540735Y-74099265D03*
X94615000Y-73025000D03*
%TD*%
D18*
%TO.N,/jst_conn/TX*%
X95940000Y-60960000D02*
X95940000Y-64205000D01*
X88900000Y-73660000D02*
X87630000Y-72390000D01*
X95940000Y-64205000D02*
X87755000Y-72390000D01*
X87630000Y-72390000D02*
X87055000Y-72390000D01*
X87755000Y-72390000D02*
X87055000Y-72390000D01*
X86995000Y-75565000D02*
X88265000Y-75565000D01*
%TO.N,/jst_conn/RX*%
X80010000Y-72390000D02*
X80010000Y-71440000D01*
X82870000Y-68580000D02*
X90805000Y-68580000D01*
X79995000Y-75565000D02*
X79995000Y-72405000D01*
X79995000Y-72405000D02*
X80010000Y-72390000D01*
X90805000Y-68580000D02*
X94440000Y-64945000D01*
X94440000Y-64945000D02*
X94440000Y-60960000D01*
X80010000Y-71440000D02*
X82870000Y-68580000D01*
%TO.N,/jst_conn1/RX*%
X90805000Y-71440000D02*
X97475000Y-64770000D01*
X90805000Y-72390000D02*
X90805000Y-71440000D01*
X90805000Y-75565000D02*
X90805000Y-72390000D01*
X105180000Y-62460000D02*
X105180000Y-60960000D01*
X97475000Y-64770000D02*
X102870000Y-64770000D01*
X102870000Y-64770000D02*
X105180000Y-62460000D01*
%TO.N,/jst_conn1/TX*%
X97155000Y-67945000D02*
X99695000Y-65405000D01*
X103100000Y-65405000D02*
X106680000Y-61825000D01*
X97790000Y-75565000D02*
X98425000Y-74930000D01*
X97155000Y-75565000D02*
X97790000Y-75565000D01*
X97155000Y-72390000D02*
X97155000Y-67945000D01*
X106680000Y-61825000D02*
X106680000Y-60960000D01*
X99695000Y-65405000D02*
X103100000Y-65405000D01*
X98425000Y-73660000D02*
X97155000Y-72390000D01*
%TO.N,Net-(JP1-A)*%
X106888000Y-82977000D02*
X106888000Y-81072000D01*
X85755000Y-73340000D02*
X86710000Y-74295000D01*
X81295000Y-75565000D02*
X83063235Y-73796765D01*
X83063235Y-73796765D02*
X83063235Y-73781765D01*
X95677000Y-83612000D02*
X106253000Y-83612000D01*
X106888000Y-81072000D02*
X107950000Y-80010000D01*
X84455000Y-72390000D02*
X85755000Y-72390000D01*
X86710000Y-74295000D02*
X88265000Y-74295000D01*
X106253000Y-83612000D02*
X106888000Y-82977000D01*
X85755000Y-72390000D02*
X85755000Y-73340000D01*
X89535000Y-75565000D02*
X89535000Y-77470000D01*
X88265000Y-74295000D02*
X89535000Y-75565000D01*
X89535000Y-77470000D02*
X95677000Y-83612000D01*
%TO.N,Net-(JP2-A)*%
X85695000Y-75565000D02*
X85695000Y-76515000D01*
X81310000Y-72390000D02*
X82520000Y-72390000D01*
X106488000Y-84012000D02*
X107950000Y-82550000D01*
X82520000Y-72390000D02*
X85695000Y-75565000D01*
X85695000Y-76515000D02*
X93192000Y-84012000D01*
X93192000Y-84012000D02*
X106488000Y-84012000D01*
%TO.N,Net-(JP3-A)*%
X93540735Y-74129265D02*
X93540735Y-74099265D01*
X94615000Y-73025000D02*
X95220000Y-73025000D01*
X99695000Y-74295000D02*
X105410000Y-80010000D01*
X95855000Y-73340000D02*
X96810000Y-74295000D01*
X95220000Y-73025000D02*
X95855000Y-72390000D01*
X95855000Y-72390000D02*
X95855000Y-73340000D01*
X96810000Y-74295000D02*
X99695000Y-74295000D01*
X92105000Y-75565000D02*
X93540735Y-74129265D01*
%TO.N,Net-(JP4-A)*%
X95855000Y-79980000D02*
X98425000Y-82550000D01*
X98425000Y-82550000D02*
X105410000Y-82550000D01*
X92680000Y-72390000D02*
X95855000Y-75565000D01*
X95855000Y-75565000D02*
X95855000Y-79980000D01*
X92105000Y-72390000D02*
X92680000Y-72390000D01*
%TD*%
%TA.AperFunction,Conductor*%
%TO.N,GND*%
G36*
X88878599Y-76210467D02*
G01*
X88923814Y-76263735D01*
X88934500Y-76314094D01*
X88934500Y-77383330D01*
X88934499Y-77383348D01*
X88934499Y-77549054D01*
X88934498Y-77549054D01*
X88934499Y-77549057D01*
X88975423Y-77701785D01*
X88975424Y-77701787D01*
X88975423Y-77701787D01*
X88990053Y-77727125D01*
X88990055Y-77727127D01*
X89054479Y-77838714D01*
X89054481Y-77838717D01*
X89173349Y-77957585D01*
X89173355Y-77957590D01*
X94415583Y-83199819D01*
X94449068Y-83261142D01*
X94444084Y-83330834D01*
X94402212Y-83386767D01*
X94336748Y-83411184D01*
X94327902Y-83411500D01*
X93492097Y-83411500D01*
X93425058Y-83391815D01*
X93404416Y-83375181D01*
X87056415Y-77027180D01*
X87022930Y-76965857D01*
X87027914Y-76896165D01*
X87069786Y-76840232D01*
X87135250Y-76815815D01*
X87144096Y-76815499D01*
X87542871Y-76815499D01*
X87542872Y-76815499D01*
X87602483Y-76809091D01*
X87737331Y-76758796D01*
X87852546Y-76672546D01*
X87938796Y-76557331D01*
X87984961Y-76433553D01*
X88026831Y-76377621D01*
X88092295Y-76353203D01*
X88115024Y-76353666D01*
X88179993Y-76360987D01*
X88264997Y-76370565D01*
X88265000Y-76370565D01*
X88265004Y-76370565D01*
X88444249Y-76350369D01*
X88444252Y-76350368D01*
X88444255Y-76350368D01*
X88614522Y-76290789D01*
X88633116Y-76279106D01*
X88724110Y-76221930D01*
X88744528Y-76209100D01*
X88811764Y-76190100D01*
X88878599Y-76210467D01*
G37*
%TD.AperFunction*%
%TA.AperFunction,Conductor*%
G36*
X94171239Y-74734110D02*
G01*
X94190821Y-74750056D01*
X94818181Y-75377416D01*
X94851666Y-75438739D01*
X94854500Y-75465097D01*
X94854500Y-76362870D01*
X94854501Y-76362876D01*
X94860908Y-76422483D01*
X94911202Y-76557328D01*
X94911206Y-76557335D01*
X94997452Y-76672544D01*
X94997455Y-76672547D01*
X95112664Y-76758793D01*
X95112669Y-76758796D01*
X95173833Y-76781608D01*
X95229766Y-76823478D01*
X95254184Y-76888942D01*
X95254500Y-76897790D01*
X95254500Y-79893330D01*
X95254499Y-79893348D01*
X95254499Y-80059054D01*
X95254498Y-80059054D01*
X95295423Y-80211786D01*
X95305977Y-80230064D01*
X95305978Y-80230069D01*
X95305979Y-80230069D01*
X95374475Y-80348709D01*
X95374481Y-80348717D01*
X95493349Y-80467585D01*
X95493355Y-80467590D01*
X97825584Y-82799819D01*
X97859069Y-82861142D01*
X97854085Y-82930834D01*
X97812213Y-82986767D01*
X97746749Y-83011184D01*
X97737903Y-83011500D01*
X95977098Y-83011500D01*
X95910059Y-82991815D01*
X95889417Y-82975181D01*
X90171819Y-77257583D01*
X90138334Y-77196260D01*
X90135500Y-77169902D01*
X90135500Y-76939499D01*
X90155185Y-76872460D01*
X90207989Y-76826705D01*
X90259495Y-76815499D01*
X91352872Y-76815499D01*
X91412483Y-76809091D01*
X91412485Y-76809090D01*
X91412487Y-76809090D01*
X91420031Y-76807308D01*
X91420377Y-76808775D01*
X91481342Y-76804408D01*
X91496378Y-76808822D01*
X91497513Y-76809089D01*
X91497517Y-76809091D01*
X91557127Y-76815500D01*
X92652872Y-76815499D01*
X92712483Y-76809091D01*
X92847331Y-76758796D01*
X92962546Y-76672546D01*
X93048796Y-76557331D01*
X93099091Y-76422483D01*
X93105500Y-76362873D01*
X93105499Y-75465095D01*
X93125183Y-75398057D01*
X93141813Y-75377420D01*
X93593079Y-74926154D01*
X93654400Y-74892671D01*
X93666856Y-74890619D01*
X93719990Y-74884633D01*
X93890257Y-74825054D01*
X93890259Y-74825052D01*
X93890261Y-74825052D01*
X94037168Y-74732744D01*
X94104404Y-74713743D01*
X94171239Y-74734110D01*
G37*
%TD.AperFunction*%
%TA.AperFunction,Conductor*%
G36*
X99461942Y-74915185D02*
G01*
X99482584Y-74931819D01*
X104149084Y-79598320D01*
X104182569Y-79659643D01*
X104181178Y-79718093D01*
X104161932Y-79789924D01*
X104161929Y-79789938D01*
X104142677Y-80009997D01*
X104142677Y-80010002D01*
X104160330Y-80211786D01*
X104161930Y-80230068D01*
X104191991Y-80342259D01*
X104219104Y-80443445D01*
X104219105Y-80443447D01*
X104219106Y-80443450D01*
X104230363Y-80467590D01*
X104312466Y-80643662D01*
X104312468Y-80643666D01*
X104439170Y-80824615D01*
X104439175Y-80824621D01*
X104595378Y-80980824D01*
X104595384Y-80980829D01*
X104776333Y-81107531D01*
X104776335Y-81107532D01*
X104776338Y-81107534D01*
X104869674Y-81151057D01*
X104905189Y-81167618D01*
X104957628Y-81213790D01*
X104976780Y-81280984D01*
X104956564Y-81347865D01*
X104905189Y-81392382D01*
X104776340Y-81452465D01*
X104776338Y-81452466D01*
X104595377Y-81579175D01*
X104439175Y-81735377D01*
X104326271Y-81896623D01*
X104271694Y-81940248D01*
X104224696Y-81949500D01*
X98725097Y-81949500D01*
X98658058Y-81929815D01*
X98637416Y-81913181D01*
X96491819Y-79767584D01*
X96458334Y-79706261D01*
X96455500Y-79679903D01*
X96455500Y-76937243D01*
X96475185Y-76870204D01*
X96527989Y-76824449D01*
X96592756Y-76813954D01*
X96607127Y-76815500D01*
X97702872Y-76815499D01*
X97762483Y-76809091D01*
X97897331Y-76758796D01*
X98012546Y-76672546D01*
X98098796Y-76557331D01*
X98149091Y-76422483D01*
X98155500Y-76362873D01*
X98155499Y-76100097D01*
X98175183Y-76033059D01*
X98191809Y-76012426D01*
X98270520Y-75933716D01*
X98270521Y-75933713D01*
X98443535Y-75760698D01*
X98504856Y-75727215D01*
X98517311Y-75725163D01*
X98604255Y-75715368D01*
X98774522Y-75655789D01*
X98927262Y-75559816D01*
X99054816Y-75432262D01*
X99150789Y-75279522D01*
X99210368Y-75109255D01*
X99210369Y-75109250D01*
X99222046Y-75005616D01*
X99249113Y-74941202D01*
X99306708Y-74901647D01*
X99345266Y-74895500D01*
X99394903Y-74895500D01*
X99461942Y-74915185D01*
G37*
%TD.AperFunction*%
%TA.AperFunction,Conductor*%
G36*
X107569000Y-74980160D02*
G01*
X107594964Y-75077061D01*
X107645124Y-75163940D01*
X107716060Y-75234876D01*
X107802939Y-75285036D01*
X107899840Y-75311000D01*
X107922553Y-75311000D01*
X107251810Y-75981740D01*
X107316589Y-76027098D01*
X107445781Y-76087342D01*
X107498220Y-76133514D01*
X107517372Y-76200708D01*
X107497156Y-76267589D01*
X107445781Y-76312106D01*
X107316340Y-76372465D01*
X107316338Y-76372466D01*
X107135377Y-76499175D01*
X106979175Y-76655377D01*
X106852466Y-76836338D01*
X106852465Y-76836340D01*
X106792382Y-76965189D01*
X106746209Y-77017628D01*
X106679016Y-77036780D01*
X106612135Y-77016564D01*
X106567618Y-76965189D01*
X106524750Y-76873259D01*
X106507534Y-76836339D01*
X106444180Y-76745859D01*
X106380827Y-76655381D01*
X106380823Y-76655377D01*
X106224620Y-76499174D01*
X106224616Y-76499171D01*
X106224615Y-76499170D01*
X106043666Y-76372468D01*
X106043662Y-76372466D01*
X105914218Y-76312105D01*
X105861779Y-76265932D01*
X105842627Y-76198739D01*
X105862843Y-76131858D01*
X105914219Y-76087340D01*
X106043416Y-76027095D01*
X106043417Y-76027094D01*
X106108188Y-75981741D01*
X105437448Y-75311000D01*
X105460160Y-75311000D01*
X105557061Y-75285036D01*
X105643940Y-75234876D01*
X105714876Y-75163940D01*
X105765036Y-75077061D01*
X105791000Y-74980160D01*
X105791000Y-74957447D01*
X106461741Y-75628188D01*
X106507094Y-75563417D01*
X106507100Y-75563407D01*
X106567618Y-75433627D01*
X106613790Y-75381187D01*
X106680983Y-75362035D01*
X106747865Y-75382251D01*
X106792382Y-75433627D01*
X106852898Y-75563405D01*
X106852901Y-75563411D01*
X106898258Y-75628187D01*
X106898259Y-75628188D01*
X107569000Y-74957447D01*
X107569000Y-74980160D01*
G37*
%TD.AperFunction*%
%TA.AperFunction,Conductor*%
G36*
X106747865Y-72843435D02*
G01*
X106792382Y-72894811D01*
X106852464Y-73023658D01*
X106852468Y-73023666D01*
X106979170Y-73204615D01*
X106979175Y-73204621D01*
X107135378Y-73360824D01*
X107135384Y-73360829D01*
X107316333Y-73487531D01*
X107316335Y-73487532D01*
X107316338Y-73487534D01*
X107415080Y-73533578D01*
X107445781Y-73547894D01*
X107498220Y-73594066D01*
X107517372Y-73661260D01*
X107497156Y-73728141D01*
X107445781Y-73772658D01*
X107316590Y-73832901D01*
X107251811Y-73878258D01*
X107922553Y-74549000D01*
X107899840Y-74549000D01*
X107802939Y-74574964D01*
X107716060Y-74625124D01*
X107645124Y-74696060D01*
X107594964Y-74782939D01*
X107569000Y-74879840D01*
X107569000Y-74902553D01*
X106898258Y-74231811D01*
X106852901Y-74296590D01*
X106792382Y-74426373D01*
X106746209Y-74478812D01*
X106679016Y-74497964D01*
X106612135Y-74477748D01*
X106567618Y-74426373D01*
X106507096Y-74296586D01*
X106461741Y-74231811D01*
X106461740Y-74231810D01*
X105791000Y-74902551D01*
X105791000Y-74879840D01*
X105765036Y-74782939D01*
X105714876Y-74696060D01*
X105643940Y-74625124D01*
X105557061Y-74574964D01*
X105460160Y-74549000D01*
X105437448Y-74549000D01*
X106108188Y-73878259D01*
X106108187Y-73878258D01*
X106043411Y-73832901D01*
X106043405Y-73832898D01*
X105914219Y-73772658D01*
X105861779Y-73726486D01*
X105842627Y-73659293D01*
X105862843Y-73592411D01*
X105914219Y-73547894D01*
X105926700Y-73542074D01*
X106043662Y-73487534D01*
X106224620Y-73360826D01*
X106380826Y-73204620D01*
X106507534Y-73023662D01*
X106567618Y-72894811D01*
X106613790Y-72842371D01*
X106680983Y-72823219D01*
X106747865Y-72843435D01*
G37*
%TD.AperFunction*%
%TA.AperFunction,Conductor*%
G36*
X89746575Y-71350173D02*
G01*
X89802508Y-71392045D01*
X89826925Y-71457509D01*
X89819424Y-71509687D01*
X89810908Y-71532519D01*
X89806300Y-71575381D01*
X89804501Y-71592123D01*
X89804500Y-71592135D01*
X89804500Y-73164482D01*
X89784815Y-73231521D01*
X89732011Y-73277276D01*
X89662853Y-73287220D01*
X89599297Y-73258195D01*
X89575508Y-73230456D01*
X89529816Y-73157738D01*
X89402262Y-73030184D01*
X89391876Y-73023658D01*
X89249521Y-72934210D01*
X89079249Y-72874630D01*
X88992330Y-72864837D01*
X88927916Y-72837770D01*
X88918533Y-72829298D01*
X88629415Y-72540180D01*
X88595930Y-72478857D01*
X88600914Y-72409165D01*
X88629411Y-72364823D01*
X89615561Y-71378672D01*
X89676883Y-71345189D01*
X89746575Y-71350173D01*
G37*
%TD.AperFunction*%
%TA.AperFunction,Conductor*%
G36*
X98647942Y-65390185D02*
G01*
X98693697Y-65442989D01*
X98703641Y-65512147D01*
X98674616Y-65575703D01*
X98668584Y-65582181D01*
X96786286Y-67464478D01*
X96674481Y-67576282D01*
X96674479Y-67576285D01*
X96624361Y-67663094D01*
X96624359Y-67663096D01*
X96595425Y-67713209D01*
X96595424Y-67713210D01*
X96595423Y-67713215D01*
X96554499Y-67865943D01*
X96554499Y-67865945D01*
X96554499Y-68034046D01*
X96554500Y-68034059D01*
X96554500Y-71017756D01*
X96534815Y-71084795D01*
X96482011Y-71130550D01*
X96417247Y-71141045D01*
X96402873Y-71139500D01*
X96402864Y-71139500D01*
X95307129Y-71139500D01*
X95307123Y-71139501D01*
X95247516Y-71145908D01*
X95112671Y-71196202D01*
X95112664Y-71196206D01*
X94997455Y-71282452D01*
X94997452Y-71282455D01*
X94911206Y-71397664D01*
X94911202Y-71397671D01*
X94860908Y-71532517D01*
X94856300Y-71575381D01*
X94854501Y-71592123D01*
X94854500Y-71592135D01*
X94854500Y-72107663D01*
X94834815Y-72174702D01*
X94782011Y-72220457D01*
X94716618Y-72230883D01*
X94615005Y-72219435D01*
X94614996Y-72219435D01*
X94435750Y-72239630D01*
X94435745Y-72239631D01*
X94265476Y-72299211D01*
X94112737Y-72395184D01*
X93985184Y-72522737D01*
X93943190Y-72589571D01*
X93890855Y-72635862D01*
X93821801Y-72646510D01*
X93757953Y-72618135D01*
X93750515Y-72611280D01*
X93167590Y-72028355D01*
X93167588Y-72028352D01*
X93141818Y-72002582D01*
X93108333Y-71941259D01*
X93105499Y-71914901D01*
X93105499Y-71592129D01*
X93105498Y-71592123D01*
X93105497Y-71592116D01*
X93099091Y-71532517D01*
X93056815Y-71419170D01*
X93048797Y-71397671D01*
X93048793Y-71397664D01*
X92962547Y-71282455D01*
X92962544Y-71282452D01*
X92847335Y-71196206D01*
X92847328Y-71196202D01*
X92712482Y-71145908D01*
X92712483Y-71145908D01*
X92652883Y-71139501D01*
X92652881Y-71139500D01*
X92652873Y-71139500D01*
X92652865Y-71139500D01*
X92254096Y-71139500D01*
X92187057Y-71119815D01*
X92141302Y-71067011D01*
X92131358Y-70997853D01*
X92160383Y-70934297D01*
X92166415Y-70927819D01*
X94849138Y-68245097D01*
X97687416Y-65406819D01*
X97748739Y-65373334D01*
X97775097Y-65370500D01*
X98580903Y-65370500D01*
X98647942Y-65390185D01*
G37*
%TD.AperFunction*%
%TA.AperFunction,Conductor*%
G36*
X89882942Y-69200185D02*
G01*
X89928697Y-69252989D01*
X89938641Y-69322147D01*
X89909616Y-69385703D01*
X89903584Y-69392181D01*
X88046148Y-71249615D01*
X87984825Y-71283100D01*
X87915133Y-71278116D01*
X87884156Y-71261201D01*
X87797331Y-71196204D01*
X87797328Y-71196202D01*
X87662482Y-71145908D01*
X87662483Y-71145908D01*
X87602883Y-71139501D01*
X87602881Y-71139500D01*
X87602873Y-71139500D01*
X87602864Y-71139500D01*
X86507129Y-71139500D01*
X86507123Y-71139501D01*
X86447520Y-71145908D01*
X86439974Y-71147692D01*
X86439628Y-71146230D01*
X86378622Y-71150584D01*
X86363600Y-71146172D01*
X86362482Y-71145908D01*
X86302883Y-71139501D01*
X86302881Y-71139500D01*
X86302873Y-71139500D01*
X86302864Y-71139500D01*
X85207129Y-71139500D01*
X85207123Y-71139501D01*
X85147516Y-71145908D01*
X85012671Y-71196202D01*
X85012664Y-71196206D01*
X84897455Y-71282452D01*
X84897452Y-71282455D01*
X84811206Y-71397664D01*
X84811202Y-71397671D01*
X84763828Y-71524688D01*
X84721956Y-71580622D01*
X84656492Y-71605039D01*
X84633763Y-71604575D01*
X84455004Y-71584435D01*
X84454996Y-71584435D01*
X84275750Y-71604630D01*
X84275745Y-71604631D01*
X84105476Y-71664211D01*
X83952737Y-71760184D01*
X83825184Y-71887737D01*
X83729211Y-72040476D01*
X83669631Y-72210745D01*
X83669630Y-72210750D01*
X83649890Y-72385956D01*
X83622824Y-72450370D01*
X83565229Y-72489926D01*
X83495392Y-72492063D01*
X83438989Y-72459754D01*
X83007590Y-72028355D01*
X83007588Y-72028352D01*
X82888717Y-71909481D01*
X82888716Y-71909480D01*
X82777766Y-71845423D01*
X82777766Y-71845422D01*
X82777761Y-71845421D01*
X82768696Y-71840187D01*
X82751786Y-71830423D01*
X82713603Y-71820192D01*
X82599057Y-71789499D01*
X82440943Y-71789499D01*
X82434499Y-71789499D01*
X82367460Y-71769814D01*
X82321705Y-71717010D01*
X82310499Y-71665499D01*
X82310499Y-71592129D01*
X82310498Y-71592123D01*
X82310497Y-71592116D01*
X82304091Y-71532517D01*
X82261815Y-71419170D01*
X82253797Y-71397671D01*
X82253793Y-71397664D01*
X82167547Y-71282455D01*
X82167544Y-71282452D01*
X82052335Y-71196206D01*
X82052328Y-71196202D01*
X81917482Y-71145908D01*
X81917483Y-71145908D01*
X81857883Y-71139501D01*
X81857881Y-71139500D01*
X81857873Y-71139500D01*
X81857865Y-71139500D01*
X81459096Y-71139500D01*
X81392057Y-71119815D01*
X81346302Y-71067011D01*
X81336358Y-70997853D01*
X81365383Y-70934297D01*
X81371415Y-70927819D01*
X81666912Y-70632323D01*
X83082417Y-69216819D01*
X83143740Y-69183334D01*
X83170098Y-69180500D01*
X89815903Y-69180500D01*
X89882942Y-69200185D01*
G37*
%TD.AperFunction*%
%TA.AperFunction,Conductor*%
G36*
X110722539Y-57040185D02*
G01*
X110768294Y-57092989D01*
X110779500Y-57144500D01*
X110779500Y-95180500D01*
X110759815Y-95247539D01*
X110707011Y-95293294D01*
X110655500Y-95304500D01*
X51904500Y-95304500D01*
X51837461Y-95284815D01*
X51791706Y-95232011D01*
X51780500Y-95180500D01*
X51780500Y-88115002D01*
X59832677Y-88115002D01*
X59851929Y-88335062D01*
X59851930Y-88335070D01*
X59909104Y-88548445D01*
X59909105Y-88548447D01*
X59909106Y-88548450D01*
X59992613Y-88727533D01*
X60002466Y-88748662D01*
X60002468Y-88748666D01*
X60129170Y-88929615D01*
X60129175Y-88929621D01*
X60285378Y-89085824D01*
X60285384Y-89085829D01*
X60466333Y-89212531D01*
X60466335Y-89212532D01*
X60466338Y-89212534D01*
X60666550Y-89305894D01*
X60879932Y-89363070D01*
X61037123Y-89376822D01*
X61099998Y-89382323D01*
X61100000Y-89382323D01*
X61100002Y-89382323D01*
X61155017Y-89377509D01*
X61320068Y-89363070D01*
X61533450Y-89305894D01*
X61733662Y-89212534D01*
X61914620Y-89085826D01*
X62070826Y-88929620D01*
X62197534Y-88748662D01*
X62290894Y-88548450D01*
X62348070Y-88335068D01*
X62367323Y-88115000D01*
X62364561Y-88083435D01*
X62348070Y-87894937D01*
X62348070Y-87894932D01*
X62290894Y-87681550D01*
X62197534Y-87481339D01*
X62070826Y-87300380D01*
X61914620Y-87144174D01*
X61914616Y-87144171D01*
X61914615Y-87144170D01*
X61733666Y-87017468D01*
X61733662Y-87017466D01*
X61688355Y-86996339D01*
X61533450Y-86924106D01*
X61533447Y-86924105D01*
X61533445Y-86924104D01*
X61320070Y-86866930D01*
X61320062Y-86866929D01*
X61100002Y-86847677D01*
X61099998Y-86847677D01*
X60879937Y-86866929D01*
X60879929Y-86866930D01*
X60666554Y-86924104D01*
X60666548Y-86924107D01*
X60466340Y-87017465D01*
X60466338Y-87017466D01*
X60285377Y-87144175D01*
X60129175Y-87300377D01*
X60002466Y-87481338D01*
X60002465Y-87481340D01*
X59909107Y-87681548D01*
X59909104Y-87681554D01*
X59851930Y-87894929D01*
X59851929Y-87894937D01*
X59832677Y-88114997D01*
X59832677Y-88115002D01*
X51780500Y-88115002D01*
X51780500Y-76362870D01*
X78994500Y-76362870D01*
X78994501Y-76362876D01*
X79000908Y-76422483D01*
X79051202Y-76557328D01*
X79051206Y-76557335D01*
X79137452Y-76672544D01*
X79137455Y-76672547D01*
X79252664Y-76758793D01*
X79252671Y-76758797D01*
X79387517Y-76809091D01*
X79387516Y-76809091D01*
X79394444Y-76809835D01*
X79447127Y-76815500D01*
X80542872Y-76815499D01*
X80602483Y-76809091D01*
X80602485Y-76809090D01*
X80602487Y-76809090D01*
X80610031Y-76807308D01*
X80610377Y-76808775D01*
X80671342Y-76804408D01*
X80686378Y-76808822D01*
X80687513Y-76809089D01*
X80687517Y-76809091D01*
X80747127Y-76815500D01*
X81842872Y-76815499D01*
X81902483Y-76809091D01*
X82037331Y-76758796D01*
X82152546Y-76672546D01*
X82238796Y-76557331D01*
X82289091Y-76422483D01*
X82295500Y-76362873D01*
X82295499Y-75465095D01*
X82315183Y-75398057D01*
X82331813Y-75377420D01*
X83098674Y-74610559D01*
X83159995Y-74577076D01*
X83172451Y-74575024D01*
X83242490Y-74567133D01*
X83412757Y-74507554D01*
X83412759Y-74507552D01*
X83412761Y-74507552D01*
X83559668Y-74415244D01*
X83626904Y-74396243D01*
X83693739Y-74416610D01*
X83713321Y-74432556D01*
X84658181Y-75377416D01*
X84691666Y-75438739D01*
X84694500Y-75465097D01*
X84694500Y-76362870D01*
X84694501Y-76362876D01*
X84700908Y-76422483D01*
X84751202Y-76557328D01*
X84751206Y-76557335D01*
X84837452Y-76672544D01*
X84837455Y-76672547D01*
X84952664Y-76758793D01*
X84952671Y-76758797D01*
X85087517Y-76809091D01*
X85087516Y-76809091D01*
X85114311Y-76811972D01*
X85178862Y-76838710D01*
X85208442Y-76873259D01*
X85214477Y-76883712D01*
X85214481Y-76883717D01*
X85333349Y-77002585D01*
X85333355Y-77002590D01*
X92707139Y-84376374D01*
X92707149Y-84376385D01*
X92711479Y-84380715D01*
X92711480Y-84380716D01*
X92823284Y-84492520D01*
X92852186Y-84509206D01*
X92910095Y-84542639D01*
X92910097Y-84542641D01*
X92948151Y-84564611D01*
X92960215Y-84571577D01*
X93112943Y-84612500D01*
X93271057Y-84612500D01*
X104069309Y-84612500D01*
X104136348Y-84632185D01*
X104182103Y-84684989D01*
X104192047Y-84754147D01*
X104189084Y-84768594D01*
X104161930Y-84869930D01*
X104161929Y-84869937D01*
X104142677Y-85089997D01*
X104142677Y-85090002D01*
X104161929Y-85310062D01*
X104161930Y-85310070D01*
X104219104Y-85523445D01*
X104219105Y-85523447D01*
X104219106Y-85523450D01*
X104252382Y-85594811D01*
X104312466Y-85723662D01*
X104312468Y-85723666D01*
X104439170Y-85904615D01*
X104439175Y-85904621D01*
X104595378Y-86060824D01*
X104595384Y-86060829D01*
X104776333Y-86187531D01*
X104776335Y-86187532D01*
X104776338Y-86187534D01*
X104895748Y-86243215D01*
X104905189Y-86247618D01*
X104957628Y-86293790D01*
X104976780Y-86360984D01*
X104956564Y-86427865D01*
X104905189Y-86472382D01*
X104776340Y-86532465D01*
X104776338Y-86532466D01*
X104595377Y-86659175D01*
X104439175Y-86815377D01*
X104312466Y-86996338D01*
X104312465Y-86996340D01*
X104219107Y-87196548D01*
X104219104Y-87196554D01*
X104161930Y-87409929D01*
X104161929Y-87409937D01*
X104142677Y-87629997D01*
X104142677Y-87630002D01*
X104161929Y-87850062D01*
X104161930Y-87850070D01*
X104219104Y-88063445D01*
X104219105Y-88063447D01*
X104219106Y-88063450D01*
X104243143Y-88114997D01*
X104312466Y-88263662D01*
X104312468Y-88263666D01*
X104439170Y-88444615D01*
X104439175Y-88444621D01*
X104595378Y-88600824D01*
X104595384Y-88600829D01*
X104776333Y-88727531D01*
X104776335Y-88727532D01*
X104776338Y-88727534D01*
X104976550Y-88820894D01*
X105189932Y-88878070D01*
X105347123Y-88891822D01*
X105409998Y-88897323D01*
X105410000Y-88897323D01*
X105410002Y-88897323D01*
X105465017Y-88892509D01*
X105630068Y-88878070D01*
X105843450Y-88820894D01*
X106043662Y-88727534D01*
X106224620Y-88600826D01*
X106380826Y-88444620D01*
X106507534Y-88263662D01*
X106567618Y-88134811D01*
X106613790Y-88082371D01*
X106680983Y-88063219D01*
X106747865Y-88083435D01*
X106792382Y-88134811D01*
X106852464Y-88263658D01*
X106852468Y-88263666D01*
X106979170Y-88444615D01*
X106979175Y-88444621D01*
X107135378Y-88600824D01*
X107135384Y-88600829D01*
X107316333Y-88727531D01*
X107316335Y-88727532D01*
X107316338Y-88727534D01*
X107516550Y-88820894D01*
X107729932Y-88878070D01*
X107887123Y-88891822D01*
X107949998Y-88897323D01*
X107950000Y-88897323D01*
X107950002Y-88897323D01*
X108005017Y-88892509D01*
X108170068Y-88878070D01*
X108383450Y-88820894D01*
X108583662Y-88727534D01*
X108764620Y-88600826D01*
X108920826Y-88444620D01*
X109047534Y-88263662D01*
X109140894Y-88063450D01*
X109198070Y-87850068D01*
X109217323Y-87630000D01*
X109198070Y-87409932D01*
X109140894Y-87196550D01*
X109047534Y-86996339D01*
X108984180Y-86905859D01*
X108920827Y-86815381D01*
X108920823Y-86815377D01*
X108764620Y-86659174D01*
X108764616Y-86659171D01*
X108764615Y-86659170D01*
X108583666Y-86532468D01*
X108583658Y-86532464D01*
X108454811Y-86472382D01*
X108402371Y-86426210D01*
X108383219Y-86359017D01*
X108403435Y-86292135D01*
X108454811Y-86247618D01*
X108460802Y-86244824D01*
X108583662Y-86187534D01*
X108764620Y-86060826D01*
X108920826Y-85904620D01*
X109047534Y-85723662D01*
X109140894Y-85523450D01*
X109198070Y-85310068D01*
X109217323Y-85090000D01*
X109198070Y-84869932D01*
X109140894Y-84656550D01*
X109047534Y-84456339D01*
X108920826Y-84275380D01*
X108764620Y-84119174D01*
X108764616Y-84119171D01*
X108764615Y-84119170D01*
X108583666Y-83992468D01*
X108583658Y-83992464D01*
X108454811Y-83932382D01*
X108402371Y-83886210D01*
X108383219Y-83819017D01*
X108403435Y-83752135D01*
X108454811Y-83707618D01*
X108460802Y-83704824D01*
X108583662Y-83647534D01*
X108764620Y-83520826D01*
X108920826Y-83364620D01*
X109047534Y-83183662D01*
X109140894Y-82983450D01*
X109198070Y-82770068D01*
X109217323Y-82550000D01*
X109198070Y-82329932D01*
X109140894Y-82116550D01*
X109047534Y-81916339D01*
X108920826Y-81735380D01*
X108764620Y-81579174D01*
X108764616Y-81579171D01*
X108764615Y-81579170D01*
X108583666Y-81452468D01*
X108583658Y-81452464D01*
X108454811Y-81392382D01*
X108402371Y-81346210D01*
X108383219Y-81279017D01*
X108403435Y-81212135D01*
X108454811Y-81167618D01*
X108460802Y-81164824D01*
X108583662Y-81107534D01*
X108764620Y-80980826D01*
X108920826Y-80824620D01*
X109047534Y-80643662D01*
X109140894Y-80443450D01*
X109198070Y-80230068D01*
X109217323Y-80010000D01*
X109198070Y-79789932D01*
X109140894Y-79576550D01*
X109047534Y-79376339D01*
X108920826Y-79195380D01*
X108764620Y-79039174D01*
X108764616Y-79039171D01*
X108764615Y-79039170D01*
X108583666Y-78912468D01*
X108583658Y-78912464D01*
X108454811Y-78852382D01*
X108402371Y-78806210D01*
X108383219Y-78739017D01*
X108403435Y-78672135D01*
X108454811Y-78627618D01*
X108460802Y-78624824D01*
X108583662Y-78567534D01*
X108764620Y-78440826D01*
X108920826Y-78284620D01*
X109047534Y-78103662D01*
X109140894Y-77903450D01*
X109198070Y-77690068D01*
X109217323Y-77470000D01*
X109198070Y-77249932D01*
X109140894Y-77036550D01*
X109047534Y-76836339D01*
X108984180Y-76745859D01*
X108920827Y-76655381D01*
X108920823Y-76655377D01*
X108764620Y-76499174D01*
X108764616Y-76499171D01*
X108764615Y-76499170D01*
X108583666Y-76372468D01*
X108583662Y-76372466D01*
X108454218Y-76312105D01*
X108401779Y-76265932D01*
X108382627Y-76198739D01*
X108402843Y-76131858D01*
X108454219Y-76087340D01*
X108583416Y-76027095D01*
X108583417Y-76027094D01*
X108648188Y-75981741D01*
X107977448Y-75311000D01*
X108000160Y-75311000D01*
X108097061Y-75285036D01*
X108183940Y-75234876D01*
X108254876Y-75163940D01*
X108305036Y-75077061D01*
X108331000Y-74980160D01*
X108331000Y-74957447D01*
X109001741Y-75628188D01*
X109047094Y-75563417D01*
X109047100Y-75563407D01*
X109140419Y-75363284D01*
X109140424Y-75363270D01*
X109197573Y-75149986D01*
X109197575Y-75149976D01*
X109216821Y-74930000D01*
X109216821Y-74929999D01*
X109197575Y-74710023D01*
X109197573Y-74710013D01*
X109140424Y-74496729D01*
X109140420Y-74496720D01*
X109047096Y-74296586D01*
X109001741Y-74231811D01*
X109001740Y-74231810D01*
X108331000Y-74902551D01*
X108331000Y-74879840D01*
X108305036Y-74782939D01*
X108254876Y-74696060D01*
X108183940Y-74625124D01*
X108097061Y-74574964D01*
X108000160Y-74549000D01*
X107977448Y-74549000D01*
X108648188Y-73878259D01*
X108648187Y-73878258D01*
X108583411Y-73832901D01*
X108583405Y-73832898D01*
X108454219Y-73772658D01*
X108401779Y-73726486D01*
X108382627Y-73659293D01*
X108402843Y-73592411D01*
X108454219Y-73547894D01*
X108466700Y-73542074D01*
X108583662Y-73487534D01*
X108764620Y-73360826D01*
X108920826Y-73204620D01*
X109047534Y-73023662D01*
X109140894Y-72823450D01*
X109198070Y-72610068D01*
X109215646Y-72409165D01*
X109217323Y-72390002D01*
X109217323Y-72389997D01*
X109204168Y-72239631D01*
X109198070Y-72169932D01*
X109140894Y-71956550D01*
X109047534Y-71756339D01*
X108970769Y-71646707D01*
X108920827Y-71575381D01*
X108855133Y-71509687D01*
X108764620Y-71419174D01*
X108764616Y-71419171D01*
X108764615Y-71419170D01*
X108583666Y-71292468D01*
X108583658Y-71292464D01*
X108454811Y-71232382D01*
X108402371Y-71186210D01*
X108383219Y-71119017D01*
X108403435Y-71052135D01*
X108454811Y-71007618D01*
X108482074Y-70994905D01*
X108583662Y-70947534D01*
X108764620Y-70820826D01*
X108920826Y-70664620D01*
X109047534Y-70483662D01*
X109140894Y-70283450D01*
X109198070Y-70070068D01*
X109217323Y-69850000D01*
X109198070Y-69629932D01*
X109140894Y-69416550D01*
X109047534Y-69216339D01*
X108920826Y-69035380D01*
X108764620Y-68879174D01*
X108764616Y-68879171D01*
X108764615Y-68879170D01*
X108583666Y-68752468D01*
X108583662Y-68752466D01*
X108538355Y-68731339D01*
X108383450Y-68659106D01*
X108383447Y-68659105D01*
X108383445Y-68659104D01*
X108170070Y-68601930D01*
X108170062Y-68601929D01*
X107950002Y-68582677D01*
X107949998Y-68582677D01*
X107729937Y-68601929D01*
X107729929Y-68601930D01*
X107516554Y-68659104D01*
X107516548Y-68659107D01*
X107316340Y-68752465D01*
X107316338Y-68752466D01*
X107135377Y-68879175D01*
X106979175Y-69035377D01*
X106852466Y-69216338D01*
X106852465Y-69216340D01*
X106792382Y-69345189D01*
X106746209Y-69397628D01*
X106679016Y-69416780D01*
X106612135Y-69396564D01*
X106567618Y-69345189D01*
X106524624Y-69252989D01*
X106507534Y-69216339D01*
X106380826Y-69035380D01*
X106224620Y-68879174D01*
X106224616Y-68879171D01*
X106224615Y-68879170D01*
X106043666Y-68752468D01*
X106043662Y-68752466D01*
X105998355Y-68731339D01*
X105843450Y-68659106D01*
X105843447Y-68659105D01*
X105843445Y-68659104D01*
X105630070Y-68601930D01*
X105630062Y-68601929D01*
X105410002Y-68582677D01*
X105409998Y-68582677D01*
X105189937Y-68601929D01*
X105189929Y-68601930D01*
X104976554Y-68659104D01*
X104976548Y-68659107D01*
X104776340Y-68752465D01*
X104776338Y-68752466D01*
X104595377Y-68879175D01*
X104439175Y-69035377D01*
X104312466Y-69216338D01*
X104312465Y-69216340D01*
X104219107Y-69416548D01*
X104219104Y-69416554D01*
X104161930Y-69629929D01*
X104161929Y-69629937D01*
X104142677Y-69849997D01*
X104142677Y-69850002D01*
X104161929Y-70070062D01*
X104161930Y-70070070D01*
X104219104Y-70283445D01*
X104219105Y-70283447D01*
X104219106Y-70283450D01*
X104302613Y-70462533D01*
X104312466Y-70483662D01*
X104312468Y-70483666D01*
X104439170Y-70664615D01*
X104439175Y-70664621D01*
X104595378Y-70820824D01*
X104595384Y-70820829D01*
X104776333Y-70947531D01*
X104776335Y-70947532D01*
X104776338Y-70947534D01*
X104877926Y-70994905D01*
X104905189Y-71007618D01*
X104957628Y-71053790D01*
X104976780Y-71120984D01*
X104956564Y-71187865D01*
X104905189Y-71232382D01*
X104776340Y-71292465D01*
X104776338Y-71292466D01*
X104595377Y-71419175D01*
X104439175Y-71575377D01*
X104312466Y-71756338D01*
X104312465Y-71756340D01*
X104219107Y-71956548D01*
X104219104Y-71956554D01*
X104161930Y-72169929D01*
X104161929Y-72169937D01*
X104142677Y-72389997D01*
X104142677Y-72390002D01*
X104161929Y-72610062D01*
X104161930Y-72610070D01*
X104219104Y-72823445D01*
X104219105Y-72823447D01*
X104219106Y-72823450D01*
X104312464Y-73023658D01*
X104312466Y-73023662D01*
X104312468Y-73023666D01*
X104439170Y-73204615D01*
X104439175Y-73204621D01*
X104595378Y-73360824D01*
X104595384Y-73360829D01*
X104776333Y-73487531D01*
X104776335Y-73487532D01*
X104776338Y-73487534D01*
X104875080Y-73533578D01*
X104905781Y-73547894D01*
X104958220Y-73594066D01*
X104977372Y-73661260D01*
X104957156Y-73728141D01*
X104905781Y-73772658D01*
X104776590Y-73832901D01*
X104711811Y-73878258D01*
X105382553Y-74549000D01*
X105359840Y-74549000D01*
X105262939Y-74574964D01*
X105176060Y-74625124D01*
X105105124Y-74696060D01*
X105054964Y-74782939D01*
X105029000Y-74879840D01*
X105029000Y-74902553D01*
X104358258Y-74231811D01*
X104312901Y-74296590D01*
X104219579Y-74496720D01*
X104219575Y-74496729D01*
X104162426Y-74710013D01*
X104162424Y-74710023D01*
X104143179Y-74929999D01*
X104143179Y-74930000D01*
X104162424Y-75149976D01*
X104162426Y-75149986D01*
X104219575Y-75363270D01*
X104219580Y-75363284D01*
X104312898Y-75563405D01*
X104312901Y-75563411D01*
X104358258Y-75628187D01*
X104358259Y-75628188D01*
X105029000Y-74957447D01*
X105029000Y-74980160D01*
X105054964Y-75077061D01*
X105105124Y-75163940D01*
X105176060Y-75234876D01*
X105262939Y-75285036D01*
X105359840Y-75311000D01*
X105382553Y-75311000D01*
X104711810Y-75981740D01*
X104776589Y-76027098D01*
X104905781Y-76087342D01*
X104958220Y-76133514D01*
X104977372Y-76200708D01*
X104957156Y-76267589D01*
X104905781Y-76312106D01*
X104776340Y-76372465D01*
X104776338Y-76372466D01*
X104595377Y-76499175D01*
X104439175Y-76655377D01*
X104312466Y-76836338D01*
X104312465Y-76836340D01*
X104219107Y-77036548D01*
X104219104Y-77036554D01*
X104161930Y-77249929D01*
X104161929Y-77249937D01*
X104142677Y-77469997D01*
X104142677Y-77470002D01*
X104153582Y-77594649D01*
X104139815Y-77663149D01*
X104091200Y-77713332D01*
X104023171Y-77729265D01*
X103957328Y-77705890D01*
X103942373Y-77693137D01*
X100182590Y-73933355D01*
X100182588Y-73933352D01*
X100063717Y-73814481D01*
X100063716Y-73814480D01*
X99953400Y-73750789D01*
X99953398Y-73750788D01*
X99926785Y-73735423D01*
X99926784Y-73735422D01*
X99926783Y-73735422D01*
X99858758Y-73717195D01*
X99774057Y-73694499D01*
X99615943Y-73694499D01*
X99608347Y-73694499D01*
X99608331Y-73694500D01*
X99345266Y-73694500D01*
X99278227Y-73674815D01*
X99232472Y-73622011D01*
X99222046Y-73584384D01*
X99210369Y-73480749D01*
X99210368Y-73480745D01*
X99184217Y-73406010D01*
X99150789Y-73310478D01*
X99054816Y-73157738D01*
X98927262Y-73030184D01*
X98916876Y-73023658D01*
X98774521Y-72934210D01*
X98604249Y-72874630D01*
X98517330Y-72864837D01*
X98452916Y-72837770D01*
X98443533Y-72829298D01*
X98191818Y-72577583D01*
X98158333Y-72516260D01*
X98155499Y-72489902D01*
X98155499Y-71592129D01*
X98155498Y-71592123D01*
X98155497Y-71592116D01*
X98149091Y-71532517D01*
X98106815Y-71419170D01*
X98098797Y-71397671D01*
X98098793Y-71397664D01*
X98012547Y-71282455D01*
X98012544Y-71282452D01*
X97897335Y-71196206D01*
X97897328Y-71196202D01*
X97836167Y-71173391D01*
X97780233Y-71131520D01*
X97755816Y-71066056D01*
X97755500Y-71057209D01*
X97755500Y-68245097D01*
X97775185Y-68178058D01*
X97791819Y-68157416D01*
X99907416Y-66041819D01*
X99968739Y-66008334D01*
X99995097Y-66005500D01*
X103013331Y-66005500D01*
X103013347Y-66005501D01*
X103020943Y-66005501D01*
X103179054Y-66005501D01*
X103179057Y-66005501D01*
X103331785Y-65964577D01*
X103381904Y-65935639D01*
X103468716Y-65885520D01*
X103580520Y-65773716D01*
X103580520Y-65773714D01*
X103590728Y-65763507D01*
X103590729Y-65763504D01*
X107001381Y-62352853D01*
X107062702Y-62319370D01*
X107076458Y-62317178D01*
X107097797Y-62314999D01*
X107264334Y-62259814D01*
X107413656Y-62167712D01*
X107537712Y-62043656D01*
X107629814Y-61894334D01*
X107684999Y-61727797D01*
X107695500Y-61625009D01*
X107695499Y-60294992D01*
X107684999Y-60192203D01*
X107629814Y-60025666D01*
X107537712Y-59876344D01*
X107413656Y-59752288D01*
X107264334Y-59660186D01*
X107097797Y-59605001D01*
X107097795Y-59605000D01*
X106995010Y-59594500D01*
X106364998Y-59594500D01*
X106364980Y-59594501D01*
X106262203Y-59605000D01*
X106262200Y-59605001D01*
X106095668Y-59660185D01*
X106095663Y-59660187D01*
X106014789Y-59710071D01*
X105946344Y-59752288D01*
X105946342Y-59752289D01*
X105946337Y-59752293D01*
X105929317Y-59769312D01*
X105867993Y-59802794D01*
X105798301Y-59797807D01*
X105772749Y-59784729D01*
X105661026Y-59710078D01*
X105661013Y-59710071D01*
X105476215Y-59633526D01*
X105476203Y-59633523D01*
X105280022Y-59594500D01*
X105280018Y-59594500D01*
X105079982Y-59594500D01*
X105079977Y-59594500D01*
X104883796Y-59633523D01*
X104883784Y-59633526D01*
X104698986Y-59710071D01*
X104698973Y-59710078D01*
X104532656Y-59821208D01*
X104532652Y-59821211D01*
X104517681Y-59836183D01*
X104456358Y-59869668D01*
X104386666Y-59864684D01*
X104342319Y-59836183D01*
X104327347Y-59821211D01*
X104327343Y-59821208D01*
X104161026Y-59710078D01*
X104161013Y-59710071D01*
X103976215Y-59633526D01*
X103976203Y-59633523D01*
X103780022Y-59594500D01*
X103780018Y-59594500D01*
X103579982Y-59594500D01*
X103579977Y-59594500D01*
X103383796Y-59633523D01*
X103383784Y-59633526D01*
X103198986Y-59710071D01*
X103198973Y-59710078D01*
X103032656Y-59821208D01*
X103032652Y-59821211D01*
X103017327Y-59836537D01*
X102956004Y-59870022D01*
X102886312Y-59865038D01*
X102841965Y-59836537D01*
X102827028Y-59821600D01*
X102827024Y-59821597D01*
X102660789Y-59710522D01*
X102660780Y-59710517D01*
X102476065Y-59634006D01*
X102476057Y-59634004D01*
X102430000Y-59624842D01*
X102430000Y-60693811D01*
X102404116Y-60667927D01*
X102320885Y-60619874D01*
X102228053Y-60595000D01*
X102131947Y-60595000D01*
X102039115Y-60619874D01*
X101955884Y-60667927D01*
X101930000Y-60693811D01*
X101930000Y-59624843D01*
X101929999Y-59624842D01*
X101883942Y-59634004D01*
X101883934Y-59634006D01*
X101699219Y-59710517D01*
X101699210Y-59710522D01*
X101532975Y-59821597D01*
X101532971Y-59821600D01*
X101391600Y-59962971D01*
X101391597Y-59962975D01*
X101280522Y-60129210D01*
X101280517Y-60129219D01*
X101204006Y-60313934D01*
X101204004Y-60313942D01*
X101165000Y-60510026D01*
X101165000Y-60710000D01*
X101913811Y-60710000D01*
X101887927Y-60735884D01*
X101839874Y-60819115D01*
X101815000Y-60911947D01*
X101815000Y-61008053D01*
X101839874Y-61100885D01*
X101887927Y-61184116D01*
X101913811Y-61210000D01*
X101165000Y-61210000D01*
X101165000Y-61409973D01*
X101204004Y-61606057D01*
X101204006Y-61606065D01*
X101280517Y-61790780D01*
X101280522Y-61790789D01*
X101391597Y-61957024D01*
X101391600Y-61957028D01*
X101532971Y-62098399D01*
X101532975Y-62098402D01*
X101699210Y-62209477D01*
X101699223Y-62209484D01*
X101883929Y-62285991D01*
X101883936Y-62285993D01*
X101930000Y-62295155D01*
X101930000Y-61226189D01*
X101955884Y-61252073D01*
X102039115Y-61300126D01*
X102131947Y-61325000D01*
X102228053Y-61325000D01*
X102320885Y-61300126D01*
X102404116Y-61252073D01*
X102430000Y-61226189D01*
X102430000Y-62295154D01*
X102476063Y-62285993D01*
X102476070Y-62285991D01*
X102660776Y-62209484D01*
X102660789Y-62209477D01*
X102827023Y-62098403D01*
X102841962Y-62083464D01*
X102903285Y-62049977D01*
X102972977Y-62054960D01*
X103017329Y-62083464D01*
X103032653Y-62098789D01*
X103032656Y-62098791D01*
X103198973Y-62209921D01*
X103198986Y-62209928D01*
X103382625Y-62285993D01*
X103383789Y-62286475D01*
X103560682Y-62321661D01*
X103579977Y-62325499D01*
X103579981Y-62325500D01*
X103579982Y-62325500D01*
X103780019Y-62325500D01*
X103780020Y-62325499D01*
X103976211Y-62286475D01*
X104135359Y-62220554D01*
X104161013Y-62209928D01*
X104161013Y-62209927D01*
X104161020Y-62209925D01*
X104327344Y-62098791D01*
X104342318Y-62083816D01*
X104403639Y-62050331D01*
X104473331Y-62055314D01*
X104517685Y-62083820D01*
X104524640Y-62090775D01*
X104558120Y-62152101D01*
X104553131Y-62221792D01*
X104524633Y-62266131D01*
X102657584Y-64133181D01*
X102596261Y-64166666D01*
X102569903Y-64169500D01*
X97395940Y-64169500D01*
X97355019Y-64180464D01*
X97355019Y-64180465D01*
X97317751Y-64190451D01*
X97243214Y-64210423D01*
X97243209Y-64210426D01*
X97106290Y-64289475D01*
X97106282Y-64289481D01*
X90324481Y-71071282D01*
X90324477Y-71071287D01*
X90318442Y-71081741D01*
X90267874Y-71129956D01*
X90224309Y-71143028D01*
X90222674Y-71143204D01*
X90197518Y-71145908D01*
X90174687Y-71154424D01*
X90104995Y-71159407D01*
X90043672Y-71125921D01*
X90010188Y-71064597D01*
X90015174Y-70994905D01*
X90043672Y-70950562D01*
X96308713Y-64685521D01*
X96308716Y-64685520D01*
X96420520Y-64573716D01*
X96470639Y-64486904D01*
X96499577Y-64436785D01*
X96540501Y-64284057D01*
X96540501Y-64125943D01*
X96540501Y-64118348D01*
X96540500Y-64118330D01*
X96540500Y-62319049D01*
X96560185Y-62252010D01*
X96599403Y-62213510D01*
X96673656Y-62167712D01*
X96797712Y-62043656D01*
X96889814Y-61894334D01*
X96944999Y-61727797D01*
X96955500Y-61625009D01*
X96955499Y-60294992D01*
X96944999Y-60192203D01*
X96889814Y-60025666D01*
X96797712Y-59876344D01*
X96673656Y-59752288D01*
X96524334Y-59660186D01*
X96357797Y-59605001D01*
X96357795Y-59605000D01*
X96255010Y-59594500D01*
X95624998Y-59594500D01*
X95624980Y-59594501D01*
X95522203Y-59605000D01*
X95522200Y-59605001D01*
X95355668Y-59660185D01*
X95355663Y-59660187D01*
X95274789Y-59710071D01*
X95206344Y-59752288D01*
X95206342Y-59752289D01*
X95206337Y-59752293D01*
X95189317Y-59769312D01*
X95127993Y-59802794D01*
X95058301Y-59797807D01*
X95032749Y-59784729D01*
X94921026Y-59710078D01*
X94921013Y-59710071D01*
X94736215Y-59633526D01*
X94736203Y-59633523D01*
X94540022Y-59594500D01*
X94540018Y-59594500D01*
X94339982Y-59594500D01*
X94339977Y-59594500D01*
X94143796Y-59633523D01*
X94143784Y-59633526D01*
X93958986Y-59710071D01*
X93958973Y-59710078D01*
X93792656Y-59821208D01*
X93792652Y-59821211D01*
X93777681Y-59836183D01*
X93716358Y-59869668D01*
X93646666Y-59864684D01*
X93602319Y-59836183D01*
X93587347Y-59821211D01*
X93587343Y-59821208D01*
X93421026Y-59710078D01*
X93421013Y-59710071D01*
X93236215Y-59633526D01*
X93236203Y-59633523D01*
X93040022Y-59594500D01*
X93040018Y-59594500D01*
X92839982Y-59594500D01*
X92839977Y-59594500D01*
X92643796Y-59633523D01*
X92643784Y-59633526D01*
X92458986Y-59710071D01*
X92458973Y-59710078D01*
X92292656Y-59821208D01*
X92292652Y-59821211D01*
X92277327Y-59836537D01*
X92216004Y-59870022D01*
X92146312Y-59865038D01*
X92101965Y-59836537D01*
X92087028Y-59821600D01*
X92087024Y-59821597D01*
X91920789Y-59710522D01*
X91920780Y-59710517D01*
X91736065Y-59634006D01*
X91736057Y-59634004D01*
X91690000Y-59624842D01*
X91690000Y-60693811D01*
X91664116Y-60667927D01*
X91580885Y-60619874D01*
X91488053Y-60595000D01*
X91391947Y-60595000D01*
X91299115Y-60619874D01*
X91215884Y-60667927D01*
X91190000Y-60693811D01*
X91190000Y-59624843D01*
X91189999Y-59624842D01*
X91143942Y-59634004D01*
X91143934Y-59634006D01*
X90959219Y-59710517D01*
X90959210Y-59710522D01*
X90792975Y-59821597D01*
X90792971Y-59821600D01*
X90651600Y-59962971D01*
X90651597Y-59962975D01*
X90540522Y-60129210D01*
X90540517Y-60129219D01*
X90464006Y-60313934D01*
X90464004Y-60313942D01*
X90425000Y-60510026D01*
X90425000Y-60710000D01*
X91173811Y-60710000D01*
X91147927Y-60735884D01*
X91099874Y-60819115D01*
X91075000Y-60911947D01*
X91075000Y-61008053D01*
X91099874Y-61100885D01*
X91147927Y-61184116D01*
X91173811Y-61210000D01*
X90425000Y-61210000D01*
X90425000Y-61409973D01*
X90464004Y-61606057D01*
X90464006Y-61606065D01*
X90540517Y-61790780D01*
X90540522Y-61790789D01*
X90651597Y-61957024D01*
X90651600Y-61957028D01*
X90792971Y-62098399D01*
X90792975Y-62098402D01*
X90959210Y-62209477D01*
X90959223Y-62209484D01*
X91143929Y-62285991D01*
X91143936Y-62285993D01*
X91190000Y-62295155D01*
X91190000Y-61226189D01*
X91215884Y-61252073D01*
X91299115Y-61300126D01*
X91391947Y-61325000D01*
X91488053Y-61325000D01*
X91580885Y-61300126D01*
X91664116Y-61252073D01*
X91690000Y-61226189D01*
X91690000Y-62295154D01*
X91736063Y-62285993D01*
X91736070Y-62285991D01*
X91920776Y-62209484D01*
X91920789Y-62209477D01*
X92087023Y-62098403D01*
X92101962Y-62083464D01*
X92163285Y-62049977D01*
X92232977Y-62054960D01*
X92277329Y-62083464D01*
X92292653Y-62098789D01*
X92292656Y-62098791D01*
X92458973Y-62209921D01*
X92458986Y-62209928D01*
X92642625Y-62285993D01*
X92643789Y-62286475D01*
X92820682Y-62321661D01*
X92839977Y-62325499D01*
X92839981Y-62325500D01*
X92839982Y-62325500D01*
X93040019Y-62325500D01*
X93040020Y-62325499D01*
X93236211Y-62286475D01*
X93395359Y-62220554D01*
X93421013Y-62209928D01*
X93421013Y-62209927D01*
X93421020Y-62209925D01*
X93587344Y-62098791D01*
X93602318Y-62083816D01*
X93663639Y-62050331D01*
X93733331Y-62055314D01*
X93777681Y-62083816D01*
X93792656Y-62098791D01*
X93792660Y-62098794D01*
X93794156Y-62100021D01*
X93794732Y-62100867D01*
X93796966Y-62103101D01*
X93796542Y-62103524D01*
X93833496Y-62157763D01*
X93839500Y-62195882D01*
X93839500Y-64644903D01*
X93819815Y-64711942D01*
X93803181Y-64732584D01*
X90592584Y-67943181D01*
X90531261Y-67976666D01*
X90504903Y-67979500D01*
X82956670Y-67979500D01*
X82956654Y-67979499D01*
X82949058Y-67979499D01*
X82790943Y-67979499D01*
X82638215Y-68020423D01*
X82638213Y-68020423D01*
X82638213Y-68020424D01*
X82501281Y-68099482D01*
X79529481Y-71071282D01*
X79529477Y-71071287D01*
X79523442Y-71081741D01*
X79472874Y-71129956D01*
X79429309Y-71143028D01*
X79427976Y-71143172D01*
X79402516Y-71145908D01*
X79267671Y-71196202D01*
X79267664Y-71196206D01*
X79152455Y-71282452D01*
X79152452Y-71282455D01*
X79066206Y-71397664D01*
X79066202Y-71397671D01*
X79015908Y-71532517D01*
X79011300Y-71575381D01*
X79009501Y-71592123D01*
X79009500Y-71592135D01*
X79009500Y-73187870D01*
X79009501Y-73187876D01*
X79015908Y-73247483D01*
X79066202Y-73382328D01*
X79066206Y-73382335D01*
X79152452Y-73497544D01*
X79152455Y-73497547D01*
X79267666Y-73583794D01*
X79267667Y-73583794D01*
X79267669Y-73583796D01*
X79313833Y-73601013D01*
X79369765Y-73642882D01*
X79394184Y-73708346D01*
X79394500Y-73717195D01*
X79394500Y-74232209D01*
X79374815Y-74299248D01*
X79322011Y-74345003D01*
X79313833Y-74348391D01*
X79252671Y-74371202D01*
X79252664Y-74371206D01*
X79137455Y-74457452D01*
X79137452Y-74457455D01*
X79051206Y-74572664D01*
X79051202Y-74572671D01*
X79000908Y-74707517D01*
X78994501Y-74767116D01*
X78994500Y-74767135D01*
X78994500Y-76362870D01*
X51780500Y-76362870D01*
X51780500Y-69365002D01*
X59832677Y-69365002D01*
X59851929Y-69585062D01*
X59851930Y-69585070D01*
X59909104Y-69798445D01*
X59909105Y-69798447D01*
X59909106Y-69798450D01*
X59933143Y-69849997D01*
X60002466Y-69998662D01*
X60002468Y-69998666D01*
X60129170Y-70179615D01*
X60129175Y-70179621D01*
X60285378Y-70335824D01*
X60285384Y-70335829D01*
X60466333Y-70462531D01*
X60466335Y-70462532D01*
X60466338Y-70462534D01*
X60666550Y-70555894D01*
X60879932Y-70613070D01*
X61037123Y-70626822D01*
X61099998Y-70632323D01*
X61100000Y-70632323D01*
X61100002Y-70632323D01*
X61155017Y-70627509D01*
X61320068Y-70613070D01*
X61533450Y-70555894D01*
X61733662Y-70462534D01*
X61914620Y-70335826D01*
X62070826Y-70179620D01*
X62197534Y-69998662D01*
X62290894Y-69798450D01*
X62348070Y-69585068D01*
X62362813Y-69416548D01*
X62367323Y-69365002D01*
X62367323Y-69364997D01*
X62360103Y-69282474D01*
X62348070Y-69144932D01*
X62290894Y-68931550D01*
X62197534Y-68731339D01*
X62134180Y-68640859D01*
X62070827Y-68550381D01*
X62070823Y-68550377D01*
X61914620Y-68394174D01*
X61914616Y-68394171D01*
X61914615Y-68394170D01*
X61733666Y-68267468D01*
X61733662Y-68267466D01*
X61685691Y-68245097D01*
X61533450Y-68174106D01*
X61533447Y-68174105D01*
X61533445Y-68174104D01*
X61320070Y-68116930D01*
X61320062Y-68116929D01*
X61100002Y-68097677D01*
X61099998Y-68097677D01*
X60879937Y-68116929D01*
X60879929Y-68116930D01*
X60666554Y-68174104D01*
X60666548Y-68174107D01*
X60466340Y-68267465D01*
X60466338Y-68267466D01*
X60285377Y-68394175D01*
X60129175Y-68550377D01*
X60002466Y-68731338D01*
X60002465Y-68731340D01*
X59909107Y-68931548D01*
X59909104Y-68931554D01*
X59851930Y-69144929D01*
X59851929Y-69144937D01*
X59832677Y-69364997D01*
X59832677Y-69365002D01*
X51780500Y-69365002D01*
X51780500Y-62507870D01*
X56419500Y-62507870D01*
X56419501Y-62507876D01*
X56425908Y-62567483D01*
X56476202Y-62702328D01*
X56476206Y-62702335D01*
X56562452Y-62817544D01*
X56562455Y-62817547D01*
X56677664Y-62903793D01*
X56677671Y-62903797D01*
X56812517Y-62954091D01*
X56812516Y-62954091D01*
X56819444Y-62954835D01*
X56872127Y-62960500D01*
X59967872Y-62960499D01*
X60027483Y-62954091D01*
X60162331Y-62903796D01*
X60277546Y-62817546D01*
X60363796Y-62702331D01*
X60414091Y-62567483D01*
X60420500Y-62507873D01*
X60420500Y-60960001D01*
X61494891Y-60960001D01*
X61515300Y-61245362D01*
X61576109Y-61524895D01*
X61676091Y-61792958D01*
X61813191Y-62044038D01*
X61813196Y-62044046D01*
X61919882Y-62186561D01*
X61919883Y-62186562D01*
X62814767Y-61291677D01*
X62826497Y-61319995D01*
X62909670Y-61444472D01*
X63015528Y-61550330D01*
X63140005Y-61633503D01*
X63168320Y-61645231D01*
X62273436Y-62540115D01*
X62415960Y-62646807D01*
X62415961Y-62646808D01*
X62667042Y-62783908D01*
X62667041Y-62783908D01*
X62935104Y-62883890D01*
X63214637Y-62944699D01*
X63499999Y-62965109D01*
X63500001Y-62965109D01*
X63785362Y-62944699D01*
X64064895Y-62883890D01*
X64332958Y-62783908D01*
X64584047Y-62646803D01*
X64726561Y-62540116D01*
X64726562Y-62540115D01*
X64694317Y-62507870D01*
X66579500Y-62507870D01*
X66579501Y-62507876D01*
X66585908Y-62567483D01*
X66636202Y-62702328D01*
X66636206Y-62702335D01*
X66722452Y-62817544D01*
X66722455Y-62817547D01*
X66837664Y-62903793D01*
X66837671Y-62903797D01*
X66972517Y-62954091D01*
X66972516Y-62954091D01*
X66979444Y-62954835D01*
X67032127Y-62960500D01*
X70127872Y-62960499D01*
X70187483Y-62954091D01*
X70322331Y-62903796D01*
X70437546Y-62817546D01*
X70523796Y-62702331D01*
X70574091Y-62567483D01*
X70580500Y-62507873D01*
X70580500Y-60960001D01*
X71654390Y-60960001D01*
X71674804Y-61245433D01*
X71735628Y-61525037D01*
X71735630Y-61525043D01*
X71735631Y-61525046D01*
X71835557Y-61792958D01*
X71835635Y-61793166D01*
X71972770Y-62044309D01*
X71972775Y-62044317D01*
X72144254Y-62273387D01*
X72144270Y-62273405D01*
X72346594Y-62475729D01*
X72346612Y-62475745D01*
X72575682Y-62647224D01*
X72575690Y-62647229D01*
X72826833Y-62784364D01*
X72826832Y-62784364D01*
X72826836Y-62784365D01*
X72826839Y-62784367D01*
X73094954Y-62884369D01*
X73094960Y-62884370D01*
X73094962Y-62884371D01*
X73374566Y-62945195D01*
X73374568Y-62945195D01*
X73374572Y-62945196D01*
X73628220Y-62963337D01*
X73659999Y-62965610D01*
X73660000Y-62965610D01*
X73660001Y-62965610D01*
X73688595Y-62963564D01*
X73945428Y-62945196D01*
X74135742Y-62903796D01*
X74225037Y-62884371D01*
X74225037Y-62884370D01*
X74225046Y-62884369D01*
X74493161Y-62784367D01*
X74744315Y-62647226D01*
X74930473Y-62507870D01*
X76739500Y-62507870D01*
X76739501Y-62507876D01*
X76745908Y-62567483D01*
X76796202Y-62702328D01*
X76796206Y-62702335D01*
X76882452Y-62817544D01*
X76882455Y-62817547D01*
X76997664Y-62903793D01*
X76997671Y-62903797D01*
X77132517Y-62954091D01*
X77132516Y-62954091D01*
X77139444Y-62954835D01*
X77192127Y-62960500D01*
X80287872Y-62960499D01*
X80347483Y-62954091D01*
X80482331Y-62903796D01*
X80597546Y-62817546D01*
X80683796Y-62702331D01*
X80734091Y-62567483D01*
X80740500Y-62507873D01*
X80740500Y-60960001D01*
X81814390Y-60960001D01*
X81834804Y-61245433D01*
X81895628Y-61525037D01*
X81895630Y-61525043D01*
X81895631Y-61525046D01*
X81995557Y-61792958D01*
X81995635Y-61793166D01*
X82132770Y-62044309D01*
X82132775Y-62044317D01*
X82304254Y-62273387D01*
X82304270Y-62273405D01*
X82506594Y-62475729D01*
X82506612Y-62475745D01*
X82735682Y-62647224D01*
X82735690Y-62647229D01*
X82986833Y-62784364D01*
X82986832Y-62784364D01*
X82986836Y-62784365D01*
X82986839Y-62784367D01*
X83254954Y-62884369D01*
X83254960Y-62884370D01*
X83254962Y-62884371D01*
X83534566Y-62945195D01*
X83534568Y-62945195D01*
X83534572Y-62945196D01*
X83788220Y-62963337D01*
X83819999Y-62965610D01*
X83820000Y-62965610D01*
X83820001Y-62965610D01*
X83848595Y-62963564D01*
X84105428Y-62945196D01*
X84295742Y-62903796D01*
X84385037Y-62884371D01*
X84385037Y-62884370D01*
X84385046Y-62884369D01*
X84653161Y-62784367D01*
X84904315Y-62647226D01*
X85133395Y-62475739D01*
X85335739Y-62273395D01*
X85507226Y-62044315D01*
X85644367Y-61793161D01*
X85744369Y-61525046D01*
X85793297Y-61300126D01*
X85805195Y-61245433D01*
X85805195Y-61245432D01*
X85805196Y-61245428D01*
X85825610Y-60960000D01*
X85805196Y-60674572D01*
X85803750Y-60667927D01*
X85744371Y-60394962D01*
X85744370Y-60394960D01*
X85744369Y-60394954D01*
X85644367Y-60126839D01*
X85589123Y-60025668D01*
X85507229Y-59875690D01*
X85507224Y-59875682D01*
X85335745Y-59646612D01*
X85335729Y-59646594D01*
X85133405Y-59444270D01*
X85133387Y-59444254D01*
X84904317Y-59272775D01*
X84904309Y-59272770D01*
X84653166Y-59135635D01*
X84653167Y-59135635D01*
X84545915Y-59095632D01*
X84385046Y-59035631D01*
X84385043Y-59035630D01*
X84385037Y-59035628D01*
X84105433Y-58974804D01*
X83820001Y-58954390D01*
X83819999Y-58954390D01*
X83534566Y-58974804D01*
X83254962Y-59035628D01*
X82986833Y-59135635D01*
X82735690Y-59272770D01*
X82735682Y-59272775D01*
X82506612Y-59444254D01*
X82506594Y-59444270D01*
X82304270Y-59646594D01*
X82304254Y-59646612D01*
X82132775Y-59875682D01*
X82132770Y-59875690D01*
X81995635Y-60126833D01*
X81895628Y-60394962D01*
X81834804Y-60674566D01*
X81814390Y-60959998D01*
X81814390Y-60960001D01*
X80740500Y-60960001D01*
X80740499Y-59412128D01*
X80734091Y-59352517D01*
X80704506Y-59273196D01*
X80683797Y-59217671D01*
X80683793Y-59217664D01*
X80597547Y-59102455D01*
X80597544Y-59102452D01*
X80482335Y-59016206D01*
X80482328Y-59016202D01*
X80347482Y-58965908D01*
X80347483Y-58965908D01*
X80287883Y-58959501D01*
X80287881Y-58959500D01*
X80287873Y-58959500D01*
X80287864Y-58959500D01*
X77192129Y-58959500D01*
X77192123Y-58959501D01*
X77132516Y-58965908D01*
X76997671Y-59016202D01*
X76997664Y-59016206D01*
X76882455Y-59102452D01*
X76882452Y-59102455D01*
X76796206Y-59217664D01*
X76796202Y-59217671D01*
X76745908Y-59352517D01*
X76739501Y-59412116D01*
X76739501Y-59412123D01*
X76739500Y-59412135D01*
X76739500Y-62507870D01*
X74930473Y-62507870D01*
X74973395Y-62475739D01*
X75175739Y-62273395D01*
X75347226Y-62044315D01*
X75484367Y-61793161D01*
X75584369Y-61525046D01*
X75633297Y-61300126D01*
X75645195Y-61245433D01*
X75645195Y-61245432D01*
X75645196Y-61245428D01*
X75665610Y-60960000D01*
X75645196Y-60674572D01*
X75643750Y-60667927D01*
X75584371Y-60394962D01*
X75584370Y-60394960D01*
X75584369Y-60394954D01*
X75484367Y-60126839D01*
X75429123Y-60025668D01*
X75347229Y-59875690D01*
X75347224Y-59875682D01*
X75175745Y-59646612D01*
X75175729Y-59646594D01*
X74973405Y-59444270D01*
X74973387Y-59444254D01*
X74744317Y-59272775D01*
X74744309Y-59272770D01*
X74493166Y-59135635D01*
X74493167Y-59135635D01*
X74385915Y-59095632D01*
X74225046Y-59035631D01*
X74225043Y-59035630D01*
X74225037Y-59035628D01*
X73945433Y-58974804D01*
X73660001Y-58954390D01*
X73659999Y-58954390D01*
X73374566Y-58974804D01*
X73094962Y-59035628D01*
X72826833Y-59135635D01*
X72575690Y-59272770D01*
X72575682Y-59272775D01*
X72346612Y-59444254D01*
X72346594Y-59444270D01*
X72144270Y-59646594D01*
X72144254Y-59646612D01*
X71972775Y-59875682D01*
X71972770Y-59875690D01*
X71835635Y-60126833D01*
X71735628Y-60394962D01*
X71674804Y-60674566D01*
X71654390Y-60959998D01*
X71654390Y-60960001D01*
X70580500Y-60960001D01*
X70580499Y-59412128D01*
X70574091Y-59352517D01*
X70544506Y-59273196D01*
X70523797Y-59217671D01*
X70523793Y-59217664D01*
X70437547Y-59102455D01*
X70437544Y-59102452D01*
X70322335Y-59016206D01*
X70322328Y-59016202D01*
X70187482Y-58965908D01*
X70187483Y-58965908D01*
X70127883Y-58959501D01*
X70127881Y-58959500D01*
X70127873Y-58959500D01*
X70127864Y-58959500D01*
X67032129Y-58959500D01*
X67032123Y-58959501D01*
X66972516Y-58965908D01*
X66837671Y-59016202D01*
X66837664Y-59016206D01*
X66722455Y-59102452D01*
X66722452Y-59102455D01*
X66636206Y-59217664D01*
X66636202Y-59217671D01*
X66585908Y-59352517D01*
X66579501Y-59412116D01*
X66579501Y-59412123D01*
X66579500Y-59412135D01*
X66579500Y-62507870D01*
X64694317Y-62507870D01*
X63831679Y-61645231D01*
X63859995Y-61633503D01*
X63984472Y-61550330D01*
X64090330Y-61444472D01*
X64173503Y-61319995D01*
X64185231Y-61291678D01*
X65080115Y-62186562D01*
X65080116Y-62186561D01*
X65186803Y-62044047D01*
X65323908Y-61792958D01*
X65423890Y-61524895D01*
X65484699Y-61245362D01*
X65505109Y-60960001D01*
X65505109Y-60959998D01*
X65484699Y-60674637D01*
X65423890Y-60395104D01*
X65323908Y-60127041D01*
X65186808Y-59875961D01*
X65186807Y-59875960D01*
X65080115Y-59733436D01*
X64185231Y-60628320D01*
X64173503Y-60600005D01*
X64090330Y-60475528D01*
X63984472Y-60369670D01*
X63859995Y-60286497D01*
X63831678Y-60274767D01*
X64726562Y-59379883D01*
X64726561Y-59379882D01*
X64584046Y-59273196D01*
X64584038Y-59273191D01*
X64332957Y-59136091D01*
X64332958Y-59136091D01*
X64064895Y-59036109D01*
X63785362Y-58975300D01*
X63500001Y-58954891D01*
X63499999Y-58954891D01*
X63214637Y-58975300D01*
X62935104Y-59036109D01*
X62667041Y-59136091D01*
X62415961Y-59273191D01*
X62415953Y-59273196D01*
X62273437Y-59379882D01*
X62273436Y-59379883D01*
X63168321Y-60274767D01*
X63140005Y-60286497D01*
X63015528Y-60369670D01*
X62909670Y-60475528D01*
X62826497Y-60600005D01*
X62814768Y-60628321D01*
X61919883Y-59733436D01*
X61919882Y-59733437D01*
X61813196Y-59875953D01*
X61813191Y-59875961D01*
X61676091Y-60127041D01*
X61576109Y-60395104D01*
X61515300Y-60674637D01*
X61494891Y-60959998D01*
X61494891Y-60960001D01*
X60420500Y-60960001D01*
X60420499Y-59412128D01*
X60414091Y-59352517D01*
X60384506Y-59273196D01*
X60363797Y-59217671D01*
X60363793Y-59217664D01*
X60277547Y-59102455D01*
X60277544Y-59102452D01*
X60162335Y-59016206D01*
X60162328Y-59016202D01*
X60027482Y-58965908D01*
X60027483Y-58965908D01*
X59967883Y-58959501D01*
X59967881Y-58959500D01*
X59967873Y-58959500D01*
X59967864Y-58959500D01*
X56872129Y-58959500D01*
X56872123Y-58959501D01*
X56812516Y-58965908D01*
X56677671Y-59016202D01*
X56677664Y-59016206D01*
X56562455Y-59102452D01*
X56562452Y-59102455D01*
X56476206Y-59217664D01*
X56476202Y-59217671D01*
X56425908Y-59352517D01*
X56419501Y-59412116D01*
X56419501Y-59412123D01*
X56419500Y-59412135D01*
X56419500Y-62507870D01*
X51780500Y-62507870D01*
X51780500Y-57144500D01*
X51800185Y-57077461D01*
X51852989Y-57031706D01*
X51904500Y-57020500D01*
X110655500Y-57020500D01*
X110722539Y-57040185D01*
G37*
%TD.AperFunction*%
%TD*%
M02*
