%TF.GenerationSoftware,KiCad,Pcbnew,8.0.1*%
%TF.CreationDate,2024-09-05T21:11:39+03:00*%
%TF.ProjectId,eth-uart-breakout,6574682d-7561-4727-942d-627265616b6f,rev?*%
%TF.SameCoordinates,Original*%
%TF.FileFunction,Copper,L1,Top*%
%TF.FilePolarity,Positive*%
%FSLAX46Y46*%
G04 Gerber Fmt 4.6, Leading zero omitted, Abs format (unit mm)*
G04 Created by KiCad (PCBNEW 8.0.1) date 2024-09-05 21:11:39*
%MOMM*%
%LPD*%
G01*
G04 APERTURE LIST*
G04 Aperture macros list*
%AMRoundRect*
0 Rectangle with rounded corners*
0 $1 Rounding radius*
0 $2 $3 $4 $5 $6 $7 $8 $9 X,Y pos of 4 corners*
0 Add a 4 corners polygon primitive as box body*
4,1,4,$2,$3,$4,$5,$6,$7,$8,$9,$2,$3,0*
0 Add four circle primitives for the rounded corners*
1,1,$1+$1,$2,$3*
1,1,$1+$1,$4,$5*
1,1,$1+$1,$6,$7*
1,1,$1+$1,$8,$9*
0 Add four rect primitives between the rounded corners*
20,1,$1+$1,$2,$3,$4,$5,0*
20,1,$1+$1,$4,$5,$6,$7,0*
20,1,$1+$1,$6,$7,$8,$9,0*
20,1,$1+$1,$8,$9,$2,$3,0*%
G04 Aperture macros list end*
%TA.AperFunction,ComponentPad*%
%ADD10RoundRect,0.250000X0.265000X0.615000X-0.265000X0.615000X-0.265000X-0.615000X0.265000X-0.615000X0*%
%TD*%
%TA.AperFunction,ComponentPad*%
%ADD11O,1.030000X1.730000*%
%TD*%
%TA.AperFunction,ComponentPad*%
%ADD12R,3.000000X3.000000*%
%TD*%
%TA.AperFunction,ComponentPad*%
%ADD13C,3.000000*%
%TD*%
%TA.AperFunction,ComponentPad*%
%ADD14C,1.524000*%
%TD*%
%TA.AperFunction,ViaPad*%
%ADD15C,0.600000*%
%TD*%
%TA.AperFunction,Conductor*%
%ADD16C,0.200000*%
%TD*%
%TA.AperFunction,Conductor*%
%ADD17C,1.000000*%
%TD*%
G04 APERTURE END LIST*
D10*
%TO.P,J2,1,Pin_1*%
%TO.N,/jst_conn1/TX*%
X106680000Y-60960000D03*
D11*
%TO.P,J2,2,Pin_2*%
%TO.N,/jst_conn1/RX*%
X105180000Y-60960000D03*
%TO.P,J2,3,Pin_3*%
%TO.N,/jst_conn1/VCC*%
X103680000Y-60960000D03*
%TO.P,J2,4,Pin_4*%
%TO.N,GND*%
X102180000Y-60960000D03*
%TD*%
D12*
%TO.P,J4,1,Pin_1*%
%TO.N,+5V*%
X68580000Y-60960000D03*
D13*
%TO.P,J4,2,Pin_2*%
%TO.N,/jst_conn/VCC*%
X73660000Y-60960000D03*
%TD*%
D12*
%TO.P,J3,1,Pin_1*%
%TO.N,+5V*%
X58420000Y-60960000D03*
D13*
%TO.P,J3,2,Pin_2*%
%TO.N,GND*%
X63500000Y-60960000D03*
%TD*%
D14*
%TO.P,U1,1,5V*%
%TO.N,+5V*%
X107950000Y-69850000D03*
%TO.P,U1,2,5V*%
X105410000Y-69850000D03*
%TO.P,U1,3,3V3*%
%TO.N,unconnected-(U1-3V3-Pad3)*%
X107950000Y-72390000D03*
%TO.P,U1,4,3V3*%
%TO.N,unconnected-(U1-3V3-Pad4)*%
X105410000Y-72390000D03*
%TO.P,U1,5,GND*%
%TO.N,GND*%
X107950000Y-74930000D03*
%TO.P,U1,6,GND*%
X105410000Y-74930000D03*
%TO.P,U1,7,RST1*%
%TO.N,unconnected-(U1-RST1-Pad7)*%
X107950000Y-77470000D03*
%TO.P,U1,8,RESET*%
%TO.N,unconnected-(U1-RESET-Pad8)*%
X105410000Y-77470000D03*
%TO.P,U1,9,TXD1*%
%TO.N,Net-(JP1-A)*%
X107950000Y-80010000D03*
%TO.P,U1,10,TXD2*%
%TO.N,Net-(JP3-A)*%
X105410000Y-80010000D03*
%TO.P,U1,11,RXD1*%
%TO.N,Net-(JP2-A)*%
X107950000Y-82550000D03*
%TO.P,U1,12,RXD2*%
%TO.N,Net-(JP4-A)*%
X105410000Y-82550000D03*
%TO.P,U1,13,CFG0*%
%TO.N,unconnected-(U1-CFG0-Pad13)*%
X107950000Y-85090000D03*
%TO.P,U1,14,RUN*%
%TO.N,unconnected-(U1-RUN-Pad14)*%
X105410000Y-85090000D03*
%TO.P,U1,15,DIR1*%
%TO.N,unconnected-(U1-DIR1-Pad15)*%
X107950000Y-87630000D03*
%TO.P,U1,16,DIR2*%
%TO.N,unconnected-(U1-DIR2-Pad16)*%
X105410000Y-87630000D03*
%TO.P,U1,17,NC*%
%TO.N,unconnected-(U1-NC-Pad17)*%
X61100000Y-69365000D03*
%TO.P,U1,18,NC*%
%TO.N,unconnected-(U1-NC-Pad18)*%
X61100000Y-88115000D03*
%TD*%
D12*
%TO.P,J5,1,Pin_1*%
%TO.N,+5V*%
X78740000Y-60960000D03*
D13*
%TO.P,J5,2,Pin_2*%
%TO.N,/jst_conn1/VCC*%
X83820000Y-60960000D03*
%TD*%
D10*
%TO.P,J1,1,Pin_1*%
%TO.N,/jst_conn/TX*%
X95940000Y-60960000D03*
D11*
%TO.P,J1,2,Pin_2*%
%TO.N,/jst_conn/RX*%
X94440000Y-60960000D03*
%TO.P,J1,3,Pin_3*%
%TO.N,/jst_conn/VCC*%
X92940000Y-60960000D03*
%TO.P,J1,4,Pin_4*%
%TO.N,GND*%
X91440000Y-60960000D03*
%TD*%
D15*
%TO.N,/jst_conn/TX*%
X88900000Y-73660000D03*
X88265000Y-75565000D03*
%TO.N,GND*%
X100330000Y-81280000D03*
X75565000Y-70485000D03*
X99060000Y-59690000D03*
X88900000Y-76200000D03*
X53975000Y-89535000D03*
X89535000Y-78740000D03*
X96520000Y-59055000D03*
X102235000Y-72390000D03*
X102235000Y-79375000D03*
X83185000Y-70485000D03*
X83820000Y-71755000D03*
X81915000Y-84455000D03*
X59690000Y-80645000D03*
X78105000Y-81280000D03*
X68580000Y-76200000D03*
X99060000Y-75565000D03*
X100330000Y-87630000D03*
X83185000Y-74930000D03*
X54610000Y-74295000D03*
X88265000Y-60960000D03*
X76200000Y-88265000D03*
X108585000Y-64135000D03*
X94615000Y-59055000D03*
X93345000Y-78740000D03*
X53975000Y-67945000D03*
X93980000Y-74930000D03*
X90805000Y-87630000D03*
X92710000Y-81915000D03*
X89535000Y-73025000D03*
X105410000Y-59055000D03*
X107315000Y-59055000D03*
X53975000Y-83820000D03*
X99060000Y-73025000D03*
X93980000Y-72390000D03*
X95885000Y-81915000D03*
X67945000Y-88900000D03*
X53975000Y-60325000D03*
X99060000Y-78740000D03*
%TO.N,/jst_conn1/TX*%
X98425000Y-73660000D03*
X98425000Y-74930000D03*
%TO.N,Net-(JP1-A)*%
X83063235Y-73781765D03*
X84455000Y-72390000D03*
%TO.N,Net-(JP3-A)*%
X93540735Y-74099265D03*
X94615000Y-73025000D03*
%TD*%
D16*
%TO.N,/jst_conn/TX*%
X88265000Y-75565000D02*
X88900000Y-74930000D01*
X88900000Y-74930000D02*
X88900000Y-73660000D01*
D17*
%TO.N,/jst_conn/VCC*%
X92940000Y-59795000D02*
X92940000Y-60960000D01*
X90930000Y-57785000D02*
X92940000Y-59795000D01*
X76835000Y-57785000D02*
X90930000Y-57785000D01*
X73660000Y-60960000D02*
X76835000Y-57785000D01*
%TO.N,/jst_conn1/VCC*%
X103680000Y-64595000D02*
X103680000Y-60960000D01*
X88265000Y-65405000D02*
X102870000Y-65405000D01*
X102870000Y-65405000D02*
X103680000Y-64595000D01*
X83820000Y-60960000D02*
X88265000Y-65405000D01*
D16*
%TO.N,/jst_conn1/TX*%
X98425000Y-74295000D02*
X98425000Y-73660000D01*
X98425000Y-74930000D02*
X98425000Y-74295000D01*
D17*
%TO.N,+5V*%
X81915000Y-66040000D02*
X81915000Y-64135000D01*
X81915000Y-64135000D02*
X78740000Y-60960000D01*
X71755000Y-64135000D02*
X75565000Y-64135000D01*
X85725000Y-69850000D02*
X81915000Y-66040000D01*
X68580000Y-60960000D02*
X71755000Y-64135000D01*
X58420000Y-60960000D02*
X60960000Y-58420000D01*
X60960000Y-58420000D02*
X66040000Y-58420000D01*
X105410000Y-69850000D02*
X85725000Y-69850000D01*
X66040000Y-58420000D02*
X68580000Y-60960000D01*
X75565000Y-64135000D02*
X78740000Y-60960000D01*
X105410000Y-69850000D02*
X107950000Y-69850000D01*
D16*
%TO.N,Net-(JP1-A)*%
X83063235Y-73781765D02*
X84455000Y-72390000D01*
%TO.N,Net-(JP3-A)*%
X93540735Y-74099265D02*
X94615000Y-73025000D01*
%TD*%
%TA.AperFunction,Conductor*%
%TO.N,GND*%
G36*
X75952256Y-57040185D02*
G01*
X75998011Y-57092989D01*
X76007955Y-57162147D01*
X75978930Y-57225703D01*
X75972898Y-57232181D01*
X74227259Y-58977819D01*
X74165936Y-59011304D01*
X74113220Y-59011304D01*
X73945435Y-58974805D01*
X73945428Y-58974804D01*
X73660001Y-58954390D01*
X73659999Y-58954390D01*
X73374566Y-58974804D01*
X73094962Y-59035628D01*
X72826833Y-59135635D01*
X72575690Y-59272770D01*
X72575682Y-59272775D01*
X72346612Y-59444254D01*
X72346594Y-59444270D01*
X72144270Y-59646594D01*
X72144254Y-59646612D01*
X71972775Y-59875682D01*
X71972770Y-59875690D01*
X71835635Y-60126833D01*
X71735628Y-60394962D01*
X71674804Y-60674566D01*
X71654390Y-60959998D01*
X71654390Y-60960001D01*
X71674804Y-61245433D01*
X71735628Y-61525037D01*
X71735630Y-61525043D01*
X71735631Y-61525046D01*
X71835557Y-61792958D01*
X71835635Y-61793166D01*
X71972770Y-62044309D01*
X71972775Y-62044317D01*
X72144254Y-62273387D01*
X72144270Y-62273405D01*
X72346594Y-62475729D01*
X72346612Y-62475745D01*
X72575682Y-62647224D01*
X72575690Y-62647229D01*
X72826833Y-62784364D01*
X72826832Y-62784364D01*
X72826836Y-62784365D01*
X72826839Y-62784367D01*
X73094954Y-62884369D01*
X73108000Y-62887207D01*
X73117776Y-62889334D01*
X73179099Y-62922819D01*
X73212583Y-62984142D01*
X73207599Y-63053834D01*
X73165727Y-63109767D01*
X73100263Y-63134184D01*
X73091417Y-63134500D01*
X72220782Y-63134500D01*
X72153743Y-63114815D01*
X72133101Y-63098181D01*
X70616818Y-61581898D01*
X70583333Y-61520575D01*
X70580499Y-61494217D01*
X70580499Y-59412129D01*
X70580498Y-59412123D01*
X70580497Y-59412116D01*
X70574091Y-59352517D01*
X70562370Y-59321092D01*
X70523797Y-59217671D01*
X70523793Y-59217664D01*
X70437547Y-59102455D01*
X70437544Y-59102452D01*
X70322335Y-59016206D01*
X70322328Y-59016202D01*
X70187482Y-58965908D01*
X70187483Y-58965908D01*
X70127883Y-58959501D01*
X70127881Y-58959500D01*
X70127873Y-58959500D01*
X70127865Y-58959500D01*
X68045783Y-58959500D01*
X67978744Y-58939815D01*
X67958102Y-58923181D01*
X66824209Y-57789289D01*
X66824206Y-57789285D01*
X66824206Y-57789286D01*
X66817139Y-57782219D01*
X66817139Y-57782218D01*
X66677782Y-57642861D01*
X66677781Y-57642860D01*
X66677780Y-57642859D01*
X66513916Y-57533369D01*
X66513911Y-57533366D01*
X66441315Y-57503296D01*
X66385165Y-57480038D01*
X66331836Y-57457949D01*
X66331832Y-57457948D01*
X66331828Y-57457946D01*
X66235188Y-57438724D01*
X66138544Y-57419500D01*
X66138541Y-57419500D01*
X61058540Y-57419500D01*
X60861459Y-57419500D01*
X60861456Y-57419500D01*
X60668171Y-57457946D01*
X60668167Y-57457948D01*
X60668165Y-57457948D01*
X60668164Y-57457949D01*
X60592745Y-57489188D01*
X60592743Y-57489189D01*
X60486085Y-57533368D01*
X60486085Y-57533369D01*
X60486084Y-57533369D01*
X60322222Y-57642857D01*
X60322214Y-57642863D01*
X59041897Y-58923181D01*
X58980574Y-58956666D01*
X58954216Y-58959500D01*
X56872129Y-58959500D01*
X56872123Y-58959501D01*
X56812516Y-58965908D01*
X56677671Y-59016202D01*
X56677664Y-59016206D01*
X56562455Y-59102452D01*
X56562452Y-59102455D01*
X56476206Y-59217664D01*
X56476202Y-59217671D01*
X56425908Y-59352517D01*
X56419501Y-59412116D01*
X56419501Y-59412123D01*
X56419500Y-59412135D01*
X56419500Y-62507870D01*
X56419501Y-62507876D01*
X56425908Y-62567483D01*
X56476202Y-62702328D01*
X56476206Y-62702335D01*
X56562452Y-62817544D01*
X56562455Y-62817547D01*
X56677664Y-62903793D01*
X56677671Y-62903797D01*
X56812517Y-62954091D01*
X56812516Y-62954091D01*
X56819444Y-62954835D01*
X56872127Y-62960500D01*
X59967872Y-62960499D01*
X60027483Y-62954091D01*
X60162331Y-62903796D01*
X60277546Y-62817546D01*
X60363796Y-62702331D01*
X60414091Y-62567483D01*
X60420500Y-62507873D01*
X60420499Y-60425782D01*
X60440184Y-60358744D01*
X60456818Y-60338102D01*
X61338102Y-59456819D01*
X61399425Y-59423334D01*
X61425783Y-59420500D01*
X61911710Y-59420500D01*
X61978749Y-59440185D01*
X62024504Y-59492989D01*
X62034448Y-59562147D01*
X62005423Y-59625703D01*
X61999391Y-59632181D01*
X61984649Y-59646922D01*
X61984639Y-59646934D01*
X61813192Y-59875960D01*
X61813191Y-59875961D01*
X61676091Y-60127041D01*
X61576109Y-60395104D01*
X61515300Y-60674637D01*
X61494891Y-60959998D01*
X61494891Y-60960001D01*
X61515300Y-61245362D01*
X61576109Y-61524895D01*
X61676091Y-61792958D01*
X61813191Y-62044038D01*
X61813196Y-62044046D01*
X61919882Y-62186561D01*
X61919883Y-62186562D01*
X62814767Y-61291677D01*
X62826497Y-61319995D01*
X62909670Y-61444472D01*
X63015528Y-61550330D01*
X63140005Y-61633503D01*
X63168320Y-61645231D01*
X62273436Y-62540115D01*
X62415960Y-62646807D01*
X62415961Y-62646808D01*
X62667042Y-62783908D01*
X62667041Y-62783908D01*
X62935104Y-62883890D01*
X63214637Y-62944699D01*
X63499999Y-62965109D01*
X63500001Y-62965109D01*
X63785362Y-62944699D01*
X64064895Y-62883890D01*
X64332958Y-62783908D01*
X64584047Y-62646803D01*
X64726561Y-62540116D01*
X64726562Y-62540115D01*
X63831679Y-61645231D01*
X63859995Y-61633503D01*
X63984472Y-61550330D01*
X64090330Y-61444472D01*
X64173503Y-61319995D01*
X64185231Y-61291678D01*
X65080115Y-62186562D01*
X65080116Y-62186561D01*
X65186803Y-62044047D01*
X65323908Y-61792958D01*
X65423890Y-61524895D01*
X65484699Y-61245362D01*
X65505109Y-60960001D01*
X65505109Y-60959998D01*
X65484699Y-60674637D01*
X65423890Y-60395104D01*
X65323908Y-60127041D01*
X65186808Y-59875961D01*
X65186807Y-59875960D01*
X65015360Y-59646934D01*
X65015350Y-59646922D01*
X65000609Y-59632181D01*
X64967124Y-59570858D01*
X64972108Y-59501166D01*
X65013980Y-59445233D01*
X65079444Y-59420816D01*
X65088290Y-59420500D01*
X65574218Y-59420500D01*
X65641257Y-59440185D01*
X65661899Y-59456819D01*
X66543181Y-60338101D01*
X66576666Y-60399424D01*
X66579500Y-60425782D01*
X66579500Y-62507870D01*
X66579501Y-62507876D01*
X66585908Y-62567483D01*
X66636202Y-62702328D01*
X66636206Y-62702335D01*
X66722452Y-62817544D01*
X66722455Y-62817547D01*
X66837664Y-62903793D01*
X66837671Y-62903797D01*
X66972517Y-62954091D01*
X66972516Y-62954091D01*
X66979444Y-62954835D01*
X67032127Y-62960500D01*
X69114217Y-62960499D01*
X69181256Y-62980184D01*
X69201898Y-62996818D01*
X70974735Y-64769655D01*
X70974764Y-64769686D01*
X71117217Y-64912139D01*
X71281080Y-65021628D01*
X71281086Y-65021632D01*
X71281088Y-65021633D01*
X71281092Y-65021635D01*
X71334479Y-65043747D01*
X71395236Y-65068914D01*
X71463164Y-65097051D01*
X71559812Y-65116275D01*
X71608135Y-65125887D01*
X71656458Y-65135500D01*
X71656459Y-65135500D01*
X75663542Y-65135500D01*
X75682870Y-65131655D01*
X75760188Y-65116275D01*
X75856836Y-65097051D01*
X75924764Y-65068914D01*
X76038914Y-65021632D01*
X76202782Y-64912139D01*
X76342139Y-64772782D01*
X76342140Y-64772779D01*
X76349206Y-64765714D01*
X76349209Y-64765710D01*
X78118101Y-62996818D01*
X78179424Y-62963333D01*
X78205782Y-62960499D01*
X79274217Y-62960499D01*
X79341256Y-62980184D01*
X79361898Y-62996818D01*
X80878181Y-64513101D01*
X80911666Y-64574424D01*
X80914500Y-64600782D01*
X80914500Y-66138541D01*
X80914500Y-66138543D01*
X80914499Y-66138543D01*
X80952947Y-66331829D01*
X80952950Y-66331839D01*
X81028364Y-66513907D01*
X81028371Y-66513920D01*
X81137859Y-66677780D01*
X81137860Y-66677781D01*
X81137861Y-66677782D01*
X81277218Y-66817139D01*
X81277219Y-66817139D01*
X81284286Y-66824206D01*
X81284285Y-66824206D01*
X81284289Y-66824209D01*
X85087215Y-70627137D01*
X85087219Y-70627140D01*
X85251079Y-70736628D01*
X85251085Y-70736631D01*
X85251086Y-70736632D01*
X85433165Y-70812052D01*
X85594389Y-70844121D01*
X85626457Y-70850499D01*
X85626458Y-70850500D01*
X85626459Y-70850500D01*
X85626460Y-70850500D01*
X85823541Y-70850500D01*
X104598662Y-70850500D01*
X104665701Y-70870185D01*
X104669767Y-70872912D01*
X104776338Y-70947534D01*
X104899972Y-71005185D01*
X104905189Y-71007618D01*
X104957628Y-71053790D01*
X104976780Y-71120984D01*
X104956564Y-71187865D01*
X104905189Y-71232382D01*
X104776340Y-71292465D01*
X104776338Y-71292466D01*
X104595377Y-71419175D01*
X104439175Y-71575377D01*
X104312466Y-71756338D01*
X104312465Y-71756340D01*
X104219107Y-71956548D01*
X104219104Y-71956554D01*
X104161930Y-72169929D01*
X104161929Y-72169937D01*
X104142677Y-72389997D01*
X104142677Y-72390002D01*
X104161929Y-72610062D01*
X104161930Y-72610070D01*
X104219104Y-72823445D01*
X104219105Y-72823447D01*
X104219106Y-72823450D01*
X104278613Y-72951063D01*
X104312466Y-73023662D01*
X104312468Y-73023666D01*
X104439170Y-73204615D01*
X104439175Y-73204621D01*
X104595378Y-73360824D01*
X104595384Y-73360829D01*
X104776333Y-73487531D01*
X104776335Y-73487532D01*
X104776338Y-73487534D01*
X104905781Y-73547894D01*
X104958220Y-73594066D01*
X104977372Y-73661260D01*
X104957156Y-73728141D01*
X104905781Y-73772658D01*
X104776590Y-73832901D01*
X104711811Y-73878258D01*
X105382553Y-74549000D01*
X105359840Y-74549000D01*
X105262939Y-74574964D01*
X105176060Y-74625124D01*
X105105124Y-74696060D01*
X105054964Y-74782939D01*
X105029000Y-74879840D01*
X105029000Y-74902553D01*
X104358258Y-74231811D01*
X104312901Y-74296590D01*
X104219579Y-74496720D01*
X104219575Y-74496729D01*
X104162426Y-74710013D01*
X104162424Y-74710023D01*
X104143179Y-74929999D01*
X104143179Y-74930000D01*
X104162424Y-75149976D01*
X104162426Y-75149986D01*
X104219575Y-75363270D01*
X104219580Y-75363284D01*
X104312898Y-75563405D01*
X104312901Y-75563411D01*
X104358258Y-75628187D01*
X104358259Y-75628188D01*
X105029000Y-74957447D01*
X105029000Y-74980160D01*
X105054964Y-75077061D01*
X105105124Y-75163940D01*
X105176060Y-75234876D01*
X105262939Y-75285036D01*
X105359840Y-75311000D01*
X105382553Y-75311000D01*
X104711810Y-75981740D01*
X104776589Y-76027098D01*
X104905781Y-76087342D01*
X104958220Y-76133514D01*
X104977372Y-76200708D01*
X104957156Y-76267589D01*
X104905781Y-76312106D01*
X104776340Y-76372465D01*
X104776338Y-76372466D01*
X104595377Y-76499175D01*
X104439175Y-76655377D01*
X104312466Y-76836338D01*
X104312465Y-76836340D01*
X104219107Y-77036548D01*
X104219104Y-77036554D01*
X104161930Y-77249929D01*
X104161929Y-77249937D01*
X104142677Y-77469997D01*
X104142677Y-77470002D01*
X104161929Y-77690062D01*
X104161930Y-77690070D01*
X104219104Y-77903445D01*
X104219105Y-77903447D01*
X104219106Y-77903450D01*
X104252382Y-77974811D01*
X104312466Y-78103662D01*
X104312468Y-78103666D01*
X104439170Y-78284615D01*
X104439175Y-78284621D01*
X104595378Y-78440824D01*
X104595384Y-78440829D01*
X104776333Y-78567531D01*
X104776335Y-78567532D01*
X104776338Y-78567534D01*
X104895748Y-78623215D01*
X104905189Y-78627618D01*
X104957628Y-78673790D01*
X104976780Y-78740984D01*
X104956564Y-78807865D01*
X104905189Y-78852382D01*
X104776340Y-78912465D01*
X104776338Y-78912466D01*
X104595377Y-79039175D01*
X104439175Y-79195377D01*
X104312466Y-79376338D01*
X104312465Y-79376340D01*
X104219107Y-79576548D01*
X104219104Y-79576554D01*
X104161930Y-79789929D01*
X104161929Y-79789937D01*
X104142677Y-80009997D01*
X104142677Y-80010002D01*
X104161929Y-80230062D01*
X104161930Y-80230070D01*
X104219104Y-80443445D01*
X104219105Y-80443447D01*
X104219106Y-80443450D01*
X104252382Y-80514811D01*
X104312466Y-80643662D01*
X104312468Y-80643666D01*
X104439170Y-80824615D01*
X104439175Y-80824621D01*
X104595378Y-80980824D01*
X104595384Y-80980829D01*
X104776333Y-81107531D01*
X104776335Y-81107532D01*
X104776338Y-81107534D01*
X104895748Y-81163215D01*
X104905189Y-81167618D01*
X104957628Y-81213790D01*
X104976780Y-81280984D01*
X104956564Y-81347865D01*
X104905189Y-81392382D01*
X104776340Y-81452465D01*
X104776338Y-81452466D01*
X104595377Y-81579175D01*
X104439175Y-81735377D01*
X104312466Y-81916338D01*
X104312465Y-81916340D01*
X104219107Y-82116548D01*
X104219104Y-82116554D01*
X104161930Y-82329929D01*
X104161929Y-82329937D01*
X104142677Y-82549997D01*
X104142677Y-82550002D01*
X104161929Y-82770062D01*
X104161930Y-82770070D01*
X104219104Y-82983445D01*
X104219105Y-82983447D01*
X104219106Y-82983450D01*
X104252382Y-83054811D01*
X104312466Y-83183662D01*
X104312468Y-83183666D01*
X104439170Y-83364615D01*
X104439175Y-83364621D01*
X104595378Y-83520824D01*
X104595384Y-83520829D01*
X104776333Y-83647531D01*
X104776335Y-83647532D01*
X104776338Y-83647534D01*
X104895748Y-83703215D01*
X104905189Y-83707618D01*
X104957628Y-83753790D01*
X104976780Y-83820984D01*
X104956564Y-83887865D01*
X104905189Y-83932382D01*
X104776340Y-83992465D01*
X104776338Y-83992466D01*
X104595377Y-84119175D01*
X104439175Y-84275377D01*
X104312466Y-84456338D01*
X104312465Y-84456340D01*
X104219107Y-84656548D01*
X104219104Y-84656554D01*
X104161930Y-84869929D01*
X104161929Y-84869937D01*
X104142677Y-85089997D01*
X104142677Y-85090002D01*
X104161929Y-85310062D01*
X104161930Y-85310070D01*
X104219104Y-85523445D01*
X104219105Y-85523447D01*
X104219106Y-85523450D01*
X104252382Y-85594811D01*
X104312466Y-85723662D01*
X104312468Y-85723666D01*
X104439170Y-85904615D01*
X104439175Y-85904621D01*
X104595378Y-86060824D01*
X104595384Y-86060829D01*
X104776333Y-86187531D01*
X104776335Y-86187532D01*
X104776338Y-86187534D01*
X104895748Y-86243215D01*
X104905189Y-86247618D01*
X104957628Y-86293790D01*
X104976780Y-86360984D01*
X104956564Y-86427865D01*
X104905189Y-86472382D01*
X104776340Y-86532465D01*
X104776338Y-86532466D01*
X104595377Y-86659175D01*
X104439175Y-86815377D01*
X104312466Y-86996338D01*
X104312465Y-86996340D01*
X104219107Y-87196548D01*
X104219104Y-87196554D01*
X104161930Y-87409929D01*
X104161929Y-87409937D01*
X104142677Y-87629997D01*
X104142677Y-87630002D01*
X104161929Y-87850062D01*
X104161930Y-87850070D01*
X104219104Y-88063445D01*
X104219105Y-88063447D01*
X104219106Y-88063450D01*
X104243143Y-88114997D01*
X104312466Y-88263662D01*
X104312468Y-88263666D01*
X104439170Y-88444615D01*
X104439175Y-88444621D01*
X104595378Y-88600824D01*
X104595384Y-88600829D01*
X104776333Y-88727531D01*
X104776335Y-88727532D01*
X104776338Y-88727534D01*
X104976550Y-88820894D01*
X105189932Y-88878070D01*
X105347123Y-88891822D01*
X105409998Y-88897323D01*
X105410000Y-88897323D01*
X105410002Y-88897323D01*
X105465017Y-88892509D01*
X105630068Y-88878070D01*
X105843450Y-88820894D01*
X106043662Y-88727534D01*
X106224620Y-88600826D01*
X106380826Y-88444620D01*
X106507534Y-88263662D01*
X106567618Y-88134811D01*
X106613790Y-88082371D01*
X106680983Y-88063219D01*
X106747865Y-88083435D01*
X106792382Y-88134811D01*
X106852464Y-88263658D01*
X106852468Y-88263666D01*
X106979170Y-88444615D01*
X106979175Y-88444621D01*
X107135378Y-88600824D01*
X107135384Y-88600829D01*
X107316333Y-88727531D01*
X107316335Y-88727532D01*
X107316338Y-88727534D01*
X107516550Y-88820894D01*
X107729932Y-88878070D01*
X107887123Y-88891822D01*
X107949998Y-88897323D01*
X107950000Y-88897323D01*
X107950002Y-88897323D01*
X108005017Y-88892509D01*
X108170068Y-88878070D01*
X108383450Y-88820894D01*
X108583662Y-88727534D01*
X108764620Y-88600826D01*
X108920826Y-88444620D01*
X109047534Y-88263662D01*
X109140894Y-88063450D01*
X109198070Y-87850068D01*
X109217323Y-87630000D01*
X109198070Y-87409932D01*
X109140894Y-87196550D01*
X109047534Y-86996339D01*
X108984180Y-86905859D01*
X108920827Y-86815381D01*
X108920823Y-86815377D01*
X108764620Y-86659174D01*
X108764616Y-86659171D01*
X108764615Y-86659170D01*
X108583666Y-86532468D01*
X108583658Y-86532464D01*
X108454811Y-86472382D01*
X108402371Y-86426210D01*
X108383219Y-86359017D01*
X108403435Y-86292135D01*
X108454811Y-86247618D01*
X108460802Y-86244824D01*
X108583662Y-86187534D01*
X108764620Y-86060826D01*
X108920826Y-85904620D01*
X109047534Y-85723662D01*
X109140894Y-85523450D01*
X109198070Y-85310068D01*
X109217323Y-85090000D01*
X109198070Y-84869932D01*
X109140894Y-84656550D01*
X109047534Y-84456339D01*
X108920826Y-84275380D01*
X108764620Y-84119174D01*
X108764616Y-84119171D01*
X108764615Y-84119170D01*
X108583666Y-83992468D01*
X108583658Y-83992464D01*
X108454811Y-83932382D01*
X108402371Y-83886210D01*
X108383219Y-83819017D01*
X108403435Y-83752135D01*
X108454811Y-83707618D01*
X108460802Y-83704824D01*
X108583662Y-83647534D01*
X108764620Y-83520826D01*
X108920826Y-83364620D01*
X109047534Y-83183662D01*
X109140894Y-82983450D01*
X109198070Y-82770068D01*
X109217323Y-82550000D01*
X109198070Y-82329932D01*
X109140894Y-82116550D01*
X109047534Y-81916339D01*
X108920826Y-81735380D01*
X108764620Y-81579174D01*
X108764616Y-81579171D01*
X108764615Y-81579170D01*
X108583666Y-81452468D01*
X108583658Y-81452464D01*
X108454811Y-81392382D01*
X108402371Y-81346210D01*
X108383219Y-81279017D01*
X108403435Y-81212135D01*
X108454811Y-81167618D01*
X108460802Y-81164824D01*
X108583662Y-81107534D01*
X108764620Y-80980826D01*
X108920826Y-80824620D01*
X109047534Y-80643662D01*
X109140894Y-80443450D01*
X109198070Y-80230068D01*
X109217323Y-80010000D01*
X109198070Y-79789932D01*
X109140894Y-79576550D01*
X109047534Y-79376339D01*
X108920826Y-79195380D01*
X108764620Y-79039174D01*
X108764616Y-79039171D01*
X108764615Y-79039170D01*
X108583666Y-78912468D01*
X108583658Y-78912464D01*
X108454811Y-78852382D01*
X108402371Y-78806210D01*
X108383219Y-78739017D01*
X108403435Y-78672135D01*
X108454811Y-78627618D01*
X108460802Y-78624824D01*
X108583662Y-78567534D01*
X108764620Y-78440826D01*
X108920826Y-78284620D01*
X109047534Y-78103662D01*
X109140894Y-77903450D01*
X109198070Y-77690068D01*
X109217323Y-77470000D01*
X109198070Y-77249932D01*
X109140894Y-77036550D01*
X109047534Y-76836339D01*
X108920826Y-76655380D01*
X108764620Y-76499174D01*
X108764616Y-76499171D01*
X108764615Y-76499170D01*
X108583666Y-76372468D01*
X108583662Y-76372466D01*
X108454218Y-76312105D01*
X108401779Y-76265932D01*
X108382627Y-76198739D01*
X108402843Y-76131858D01*
X108454219Y-76087340D01*
X108583416Y-76027095D01*
X108583417Y-76027094D01*
X108648188Y-75981741D01*
X107977448Y-75311000D01*
X108000160Y-75311000D01*
X108097061Y-75285036D01*
X108183940Y-75234876D01*
X108254876Y-75163940D01*
X108305036Y-75077061D01*
X108331000Y-74980160D01*
X108331000Y-74957447D01*
X109001741Y-75628188D01*
X109047094Y-75563417D01*
X109047100Y-75563407D01*
X109140419Y-75363284D01*
X109140424Y-75363270D01*
X109197573Y-75149986D01*
X109197575Y-75149976D01*
X109216821Y-74930000D01*
X109216821Y-74929999D01*
X109197575Y-74710023D01*
X109197573Y-74710013D01*
X109140424Y-74496729D01*
X109140420Y-74496720D01*
X109047096Y-74296586D01*
X109001741Y-74231811D01*
X109001740Y-74231810D01*
X108331000Y-74902551D01*
X108331000Y-74879840D01*
X108305036Y-74782939D01*
X108254876Y-74696060D01*
X108183940Y-74625124D01*
X108097061Y-74574964D01*
X108000160Y-74549000D01*
X107977448Y-74549000D01*
X108648188Y-73878259D01*
X108648187Y-73878258D01*
X108583411Y-73832901D01*
X108583405Y-73832898D01*
X108454219Y-73772658D01*
X108401779Y-73726486D01*
X108382627Y-73659293D01*
X108402843Y-73592411D01*
X108454219Y-73547894D01*
X108583662Y-73487534D01*
X108764620Y-73360826D01*
X108920826Y-73204620D01*
X109047534Y-73023662D01*
X109140894Y-72823450D01*
X109198070Y-72610068D01*
X109212509Y-72445017D01*
X109217323Y-72390002D01*
X109217323Y-72389997D01*
X109204168Y-72239631D01*
X109198070Y-72169932D01*
X109140894Y-71956550D01*
X109047534Y-71756339D01*
X108983026Y-71664211D01*
X108920827Y-71575381D01*
X108920823Y-71575377D01*
X108764620Y-71419174D01*
X108764616Y-71419171D01*
X108764615Y-71419170D01*
X108583666Y-71292468D01*
X108583658Y-71292464D01*
X108454811Y-71232382D01*
X108402371Y-71186210D01*
X108383219Y-71119017D01*
X108403435Y-71052135D01*
X108454811Y-71007618D01*
X108460802Y-71004824D01*
X108583662Y-70947534D01*
X108764620Y-70820826D01*
X108920826Y-70664620D01*
X109047534Y-70483662D01*
X109140894Y-70283450D01*
X109198070Y-70070068D01*
X109217323Y-69850000D01*
X109198070Y-69629932D01*
X109140894Y-69416550D01*
X109047534Y-69216339D01*
X108920826Y-69035380D01*
X108764620Y-68879174D01*
X108764616Y-68879171D01*
X108764615Y-68879170D01*
X108583666Y-68752468D01*
X108583662Y-68752466D01*
X108538355Y-68731339D01*
X108383450Y-68659106D01*
X108383447Y-68659105D01*
X108383445Y-68659104D01*
X108170070Y-68601930D01*
X108170062Y-68601929D01*
X107950002Y-68582677D01*
X107949998Y-68582677D01*
X107729937Y-68601929D01*
X107729929Y-68601930D01*
X107516554Y-68659104D01*
X107516548Y-68659107D01*
X107316340Y-68752465D01*
X107316338Y-68752466D01*
X107246691Y-68801233D01*
X107209784Y-68827075D01*
X107143580Y-68849402D01*
X107138663Y-68849500D01*
X106221338Y-68849500D01*
X106154299Y-68829815D01*
X106150232Y-68827087D01*
X106043662Y-68752466D01*
X105843450Y-68659106D01*
X105843447Y-68659105D01*
X105843445Y-68659104D01*
X105630070Y-68601930D01*
X105630062Y-68601929D01*
X105410002Y-68582677D01*
X105409998Y-68582677D01*
X105189937Y-68601929D01*
X105189929Y-68601930D01*
X104976554Y-68659104D01*
X104976548Y-68659107D01*
X104776340Y-68752465D01*
X104776338Y-68752466D01*
X104706691Y-68801233D01*
X104669784Y-68827075D01*
X104603580Y-68849402D01*
X104598663Y-68849500D01*
X86190783Y-68849500D01*
X86123744Y-68829815D01*
X86103102Y-68813181D01*
X82951819Y-65661898D01*
X82918334Y-65600575D01*
X82915500Y-65574217D01*
X82915500Y-64036456D01*
X82877052Y-63843170D01*
X82877051Y-63843169D01*
X82877051Y-63843165D01*
X82877049Y-63843160D01*
X82801635Y-63661092D01*
X82801628Y-63661079D01*
X82692139Y-63497218D01*
X82692136Y-63497214D01*
X82549686Y-63354764D01*
X82549655Y-63354735D01*
X80776818Y-61581898D01*
X80743333Y-61520575D01*
X80740499Y-61494217D01*
X80740499Y-59412129D01*
X80740498Y-59412123D01*
X80740497Y-59412116D01*
X80734091Y-59352517D01*
X80722370Y-59321092D01*
X80683797Y-59217671D01*
X80683793Y-59217664D01*
X80597547Y-59102455D01*
X80597544Y-59102452D01*
X80475231Y-59010888D01*
X80476752Y-59008855D01*
X80436823Y-58968925D01*
X80421972Y-58900652D01*
X80446390Y-58835188D01*
X80502324Y-58793318D01*
X80545656Y-58785500D01*
X83251417Y-58785500D01*
X83318456Y-58805185D01*
X83364211Y-58857989D01*
X83374155Y-58927147D01*
X83345130Y-58990703D01*
X83286352Y-59028477D01*
X83277776Y-59030666D01*
X83254961Y-59035629D01*
X83254957Y-59035630D01*
X83254954Y-59035631D01*
X83061983Y-59107605D01*
X82986833Y-59135635D01*
X82735690Y-59272770D01*
X82735682Y-59272775D01*
X82506612Y-59444254D01*
X82506594Y-59444270D01*
X82304270Y-59646594D01*
X82304254Y-59646612D01*
X82132775Y-59875682D01*
X82132770Y-59875690D01*
X81995635Y-60126833D01*
X81895628Y-60394962D01*
X81834804Y-60674566D01*
X81814390Y-60959998D01*
X81814390Y-60960001D01*
X81834804Y-61245433D01*
X81895628Y-61525037D01*
X81895630Y-61525043D01*
X81895631Y-61525046D01*
X81995557Y-61792958D01*
X81995635Y-61793166D01*
X82132770Y-62044309D01*
X82132775Y-62044317D01*
X82304254Y-62273387D01*
X82304270Y-62273405D01*
X82506594Y-62475729D01*
X82506612Y-62475745D01*
X82735682Y-62647224D01*
X82735690Y-62647229D01*
X82986833Y-62784364D01*
X82986832Y-62784364D01*
X82986836Y-62784365D01*
X82986839Y-62784367D01*
X83254954Y-62884369D01*
X83254960Y-62884370D01*
X83254962Y-62884371D01*
X83534566Y-62945195D01*
X83534568Y-62945195D01*
X83534572Y-62945196D01*
X83788163Y-62963333D01*
X83819999Y-62965610D01*
X83820000Y-62965610D01*
X83820001Y-62965610D01*
X83851837Y-62963333D01*
X84105428Y-62945196D01*
X84273222Y-62908694D01*
X84342910Y-62913678D01*
X84387258Y-62942178D01*
X87487860Y-66042781D01*
X87487861Y-66042782D01*
X87627218Y-66182139D01*
X87791086Y-66291632D01*
X87888148Y-66331836D01*
X87973164Y-66367051D01*
X88069812Y-66386275D01*
X88118135Y-66395887D01*
X88166458Y-66405500D01*
X88166459Y-66405500D01*
X102968542Y-66405500D01*
X102987870Y-66401655D01*
X103065188Y-66386275D01*
X103161836Y-66367051D01*
X103246852Y-66331836D01*
X103343914Y-66291632D01*
X103507782Y-66182139D01*
X103647139Y-66042782D01*
X103647140Y-66042779D01*
X103654206Y-66035714D01*
X103654209Y-66035710D01*
X104317778Y-65372141D01*
X104317782Y-65372139D01*
X104457139Y-65232782D01*
X104566632Y-65068914D01*
X104642051Y-64886835D01*
X104666144Y-64765714D01*
X104680500Y-64693543D01*
X104680500Y-62387849D01*
X104700185Y-62320810D01*
X104752989Y-62275055D01*
X104822147Y-62265111D01*
X104851952Y-62273288D01*
X104882623Y-62285992D01*
X104883789Y-62286475D01*
X105027185Y-62314998D01*
X105079977Y-62325499D01*
X105079981Y-62325500D01*
X105079982Y-62325500D01*
X105280019Y-62325500D01*
X105280020Y-62325499D01*
X105476211Y-62286475D01*
X105661020Y-62209925D01*
X105772751Y-62135268D01*
X105839427Y-62114391D01*
X105906807Y-62132875D01*
X105929322Y-62150690D01*
X105946344Y-62167712D01*
X106095666Y-62259814D01*
X106262203Y-62314999D01*
X106364991Y-62325500D01*
X106995008Y-62325499D01*
X106995016Y-62325498D01*
X106995019Y-62325498D01*
X107051302Y-62319748D01*
X107097797Y-62314999D01*
X107264334Y-62259814D01*
X107413656Y-62167712D01*
X107537712Y-62043656D01*
X107629814Y-61894334D01*
X107684999Y-61727797D01*
X107695500Y-61625009D01*
X107695499Y-60294992D01*
X107684999Y-60192203D01*
X107629814Y-60025666D01*
X107537712Y-59876344D01*
X107413656Y-59752288D01*
X107264334Y-59660186D01*
X107097797Y-59605001D01*
X107097795Y-59605000D01*
X106995010Y-59594500D01*
X106364998Y-59594500D01*
X106364980Y-59594501D01*
X106262203Y-59605000D01*
X106262200Y-59605001D01*
X106095668Y-59660185D01*
X106095663Y-59660187D01*
X106014789Y-59710071D01*
X105946344Y-59752288D01*
X105946342Y-59752289D01*
X105946337Y-59752293D01*
X105929317Y-59769312D01*
X105867993Y-59802794D01*
X105798301Y-59797807D01*
X105772749Y-59784729D01*
X105661026Y-59710078D01*
X105661013Y-59710071D01*
X105476215Y-59633526D01*
X105476203Y-59633523D01*
X105280022Y-59594500D01*
X105280018Y-59594500D01*
X105079982Y-59594500D01*
X105079977Y-59594500D01*
X104883796Y-59633523D01*
X104883784Y-59633526D01*
X104698986Y-59710071D01*
X104698973Y-59710078D01*
X104532656Y-59821208D01*
X104532652Y-59821211D01*
X104517681Y-59836183D01*
X104456358Y-59869668D01*
X104386666Y-59864684D01*
X104342319Y-59836183D01*
X104327347Y-59821211D01*
X104327343Y-59821208D01*
X104161026Y-59710078D01*
X104161013Y-59710071D01*
X103976215Y-59633526D01*
X103976203Y-59633523D01*
X103780022Y-59594500D01*
X103780018Y-59594500D01*
X103579982Y-59594500D01*
X103579977Y-59594500D01*
X103383796Y-59633523D01*
X103383784Y-59633526D01*
X103198986Y-59710071D01*
X103198973Y-59710078D01*
X103032656Y-59821208D01*
X103032652Y-59821211D01*
X103017327Y-59836537D01*
X102956004Y-59870022D01*
X102886312Y-59865038D01*
X102841965Y-59836537D01*
X102827028Y-59821600D01*
X102827024Y-59821597D01*
X102660789Y-59710522D01*
X102660780Y-59710517D01*
X102476065Y-59634006D01*
X102476057Y-59634004D01*
X102430000Y-59624842D01*
X102430000Y-60693811D01*
X102404116Y-60667927D01*
X102320885Y-60619874D01*
X102228053Y-60595000D01*
X102131947Y-60595000D01*
X102039115Y-60619874D01*
X101955884Y-60667927D01*
X101930000Y-60693811D01*
X101930000Y-59624843D01*
X101929999Y-59624842D01*
X101883942Y-59634004D01*
X101883934Y-59634006D01*
X101699219Y-59710517D01*
X101699210Y-59710522D01*
X101532975Y-59821597D01*
X101532971Y-59821600D01*
X101391600Y-59962971D01*
X101391597Y-59962975D01*
X101280522Y-60129210D01*
X101280517Y-60129219D01*
X101204006Y-60313934D01*
X101204004Y-60313942D01*
X101165000Y-60510026D01*
X101165000Y-60710000D01*
X101913811Y-60710000D01*
X101887927Y-60735884D01*
X101839874Y-60819115D01*
X101815000Y-60911947D01*
X101815000Y-61008053D01*
X101839874Y-61100885D01*
X101887927Y-61184116D01*
X101913811Y-61210000D01*
X101165000Y-61210000D01*
X101165000Y-61409973D01*
X101204004Y-61606057D01*
X101204006Y-61606065D01*
X101280517Y-61790780D01*
X101280522Y-61790789D01*
X101391597Y-61957024D01*
X101391600Y-61957028D01*
X101532971Y-62098399D01*
X101532975Y-62098402D01*
X101699210Y-62209477D01*
X101699223Y-62209484D01*
X101883929Y-62285991D01*
X101883936Y-62285993D01*
X101930000Y-62295155D01*
X101930000Y-61226189D01*
X101955884Y-61252073D01*
X102039115Y-61300126D01*
X102131947Y-61325000D01*
X102228053Y-61325000D01*
X102320885Y-61300126D01*
X102404116Y-61252073D01*
X102430000Y-61226189D01*
X102430000Y-62295154D01*
X102476063Y-62285993D01*
X102476066Y-62285992D01*
X102508045Y-62272746D01*
X102577514Y-62265276D01*
X102639994Y-62296549D01*
X102675648Y-62356637D01*
X102679500Y-62387306D01*
X102679500Y-64129218D01*
X102659815Y-64196257D01*
X102643181Y-64216899D01*
X102491899Y-64368181D01*
X102430576Y-64401666D01*
X102404218Y-64404500D01*
X88730783Y-64404500D01*
X88663744Y-64384815D01*
X88643102Y-64368181D01*
X87229012Y-62954091D01*
X85802178Y-61527258D01*
X85768694Y-61465936D01*
X85768694Y-61413223D01*
X85805196Y-61245428D01*
X85825610Y-60960000D01*
X85805196Y-60674572D01*
X85803750Y-60667927D01*
X85744371Y-60394962D01*
X85744370Y-60394960D01*
X85744369Y-60394954D01*
X85644367Y-60126839D01*
X85589123Y-60025668D01*
X85507229Y-59875690D01*
X85507224Y-59875682D01*
X85335745Y-59646612D01*
X85335729Y-59646594D01*
X85133405Y-59444270D01*
X85133387Y-59444254D01*
X84904317Y-59272775D01*
X84904309Y-59272770D01*
X84653166Y-59135635D01*
X84653167Y-59135635D01*
X84600958Y-59116162D01*
X84385046Y-59035631D01*
X84385039Y-59035629D01*
X84385038Y-59035629D01*
X84362224Y-59030666D01*
X84300901Y-58997181D01*
X84267417Y-58935858D01*
X84272401Y-58866166D01*
X84314273Y-58810233D01*
X84379737Y-58785816D01*
X84388583Y-58785500D01*
X90464218Y-58785500D01*
X90531257Y-58805185D01*
X90551899Y-58821819D01*
X91168381Y-59438301D01*
X91201866Y-59499624D01*
X91196882Y-59569316D01*
X91155010Y-59625249D01*
X91128153Y-59640543D01*
X90959220Y-59710517D01*
X90959210Y-59710522D01*
X90792975Y-59821597D01*
X90792971Y-59821600D01*
X90651600Y-59962971D01*
X90651597Y-59962975D01*
X90540522Y-60129210D01*
X90540517Y-60129219D01*
X90464006Y-60313934D01*
X90464004Y-60313942D01*
X90425000Y-60510026D01*
X90425000Y-60710000D01*
X91173811Y-60710000D01*
X91147927Y-60735884D01*
X91099874Y-60819115D01*
X91075000Y-60911947D01*
X91075000Y-61008053D01*
X91099874Y-61100885D01*
X91147927Y-61184116D01*
X91173811Y-61210000D01*
X90425000Y-61210000D01*
X90425000Y-61409973D01*
X90464004Y-61606057D01*
X90464006Y-61606065D01*
X90540517Y-61790780D01*
X90540522Y-61790789D01*
X90651597Y-61957024D01*
X90651600Y-61957028D01*
X90792971Y-62098399D01*
X90792975Y-62098402D01*
X90959210Y-62209477D01*
X90959223Y-62209484D01*
X91143929Y-62285991D01*
X91143936Y-62285993D01*
X91190000Y-62295155D01*
X91190000Y-61226189D01*
X91215884Y-61252073D01*
X91299115Y-61300126D01*
X91391947Y-61325000D01*
X91488053Y-61325000D01*
X91580885Y-61300126D01*
X91664116Y-61252073D01*
X91690000Y-61226189D01*
X91690000Y-62295154D01*
X91736063Y-62285993D01*
X91736070Y-62285991D01*
X91920776Y-62209484D01*
X91920789Y-62209477D01*
X92087023Y-62098403D01*
X92101962Y-62083464D01*
X92163285Y-62049977D01*
X92232977Y-62054960D01*
X92277329Y-62083464D01*
X92292653Y-62098789D01*
X92292656Y-62098791D01*
X92458973Y-62209921D01*
X92458986Y-62209928D01*
X92642623Y-62285992D01*
X92643789Y-62286475D01*
X92787185Y-62314998D01*
X92839977Y-62325499D01*
X92839981Y-62325500D01*
X92839982Y-62325500D01*
X93040019Y-62325500D01*
X93040020Y-62325499D01*
X93236211Y-62286475D01*
X93421020Y-62209925D01*
X93587344Y-62098791D01*
X93602318Y-62083816D01*
X93663639Y-62050331D01*
X93733331Y-62055314D01*
X93777681Y-62083816D01*
X93792264Y-62098399D01*
X93792657Y-62098792D01*
X93958973Y-62209921D01*
X93958986Y-62209928D01*
X94142623Y-62285992D01*
X94143789Y-62286475D01*
X94287185Y-62314998D01*
X94339977Y-62325499D01*
X94339981Y-62325500D01*
X94339982Y-62325500D01*
X94540019Y-62325500D01*
X94540020Y-62325499D01*
X94736211Y-62286475D01*
X94921020Y-62209925D01*
X95032751Y-62135268D01*
X95099427Y-62114391D01*
X95166807Y-62132875D01*
X95189322Y-62150690D01*
X95206344Y-62167712D01*
X95355666Y-62259814D01*
X95522203Y-62314999D01*
X95624991Y-62325500D01*
X96255008Y-62325499D01*
X96255016Y-62325498D01*
X96255019Y-62325498D01*
X96311302Y-62319748D01*
X96357797Y-62314999D01*
X96524334Y-62259814D01*
X96673656Y-62167712D01*
X96797712Y-62043656D01*
X96889814Y-61894334D01*
X96944999Y-61727797D01*
X96955500Y-61625009D01*
X96955499Y-60294992D01*
X96944999Y-60192203D01*
X96889814Y-60025666D01*
X96797712Y-59876344D01*
X96673656Y-59752288D01*
X96524334Y-59660186D01*
X96357797Y-59605001D01*
X96357795Y-59605000D01*
X96255010Y-59594500D01*
X95624998Y-59594500D01*
X95624980Y-59594501D01*
X95522203Y-59605000D01*
X95522200Y-59605001D01*
X95355668Y-59660185D01*
X95355663Y-59660187D01*
X95274789Y-59710071D01*
X95206344Y-59752288D01*
X95206342Y-59752289D01*
X95206337Y-59752293D01*
X95189317Y-59769312D01*
X95127993Y-59802794D01*
X95058301Y-59797807D01*
X95032749Y-59784729D01*
X94921026Y-59710078D01*
X94921013Y-59710071D01*
X94736215Y-59633526D01*
X94736203Y-59633523D01*
X94540022Y-59594500D01*
X94540018Y-59594500D01*
X94339982Y-59594500D01*
X94339977Y-59594500D01*
X94143796Y-59633523D01*
X94143793Y-59633524D01*
X94143792Y-59633524D01*
X94143789Y-59633525D01*
X94084001Y-59658290D01*
X94014531Y-59665758D01*
X93952052Y-59634482D01*
X93916400Y-59574393D01*
X93914932Y-59567919D01*
X93905493Y-59520471D01*
X93902051Y-59503165D01*
X93877656Y-59444270D01*
X93826635Y-59321092D01*
X93826628Y-59321079D01*
X93717140Y-59157219D01*
X93662373Y-59102452D01*
X93577782Y-59017861D01*
X93577781Y-59017860D01*
X91792100Y-57232180D01*
X91758616Y-57170858D01*
X91763600Y-57101166D01*
X91805472Y-57045233D01*
X91870936Y-57020816D01*
X91879782Y-57020500D01*
X110655500Y-57020500D01*
X110722539Y-57040185D01*
X110768294Y-57092989D01*
X110779500Y-57144500D01*
X110779500Y-95180500D01*
X110759815Y-95247539D01*
X110707011Y-95293294D01*
X110655500Y-95304500D01*
X51904500Y-95304500D01*
X51837461Y-95284815D01*
X51791706Y-95232011D01*
X51780500Y-95180500D01*
X51780500Y-88115002D01*
X59832677Y-88115002D01*
X59851929Y-88335062D01*
X59851930Y-88335070D01*
X59909104Y-88548445D01*
X59909105Y-88548447D01*
X59909106Y-88548450D01*
X59992613Y-88727533D01*
X60002466Y-88748662D01*
X60002468Y-88748666D01*
X60129170Y-88929615D01*
X60129175Y-88929621D01*
X60285378Y-89085824D01*
X60285384Y-89085829D01*
X60466333Y-89212531D01*
X60466335Y-89212532D01*
X60466338Y-89212534D01*
X60666550Y-89305894D01*
X60879932Y-89363070D01*
X61037123Y-89376822D01*
X61099998Y-89382323D01*
X61100000Y-89382323D01*
X61100002Y-89382323D01*
X61155017Y-89377509D01*
X61320068Y-89363070D01*
X61533450Y-89305894D01*
X61733662Y-89212534D01*
X61914620Y-89085826D01*
X62070826Y-88929620D01*
X62197534Y-88748662D01*
X62290894Y-88548450D01*
X62348070Y-88335068D01*
X62367323Y-88115000D01*
X62364561Y-88083435D01*
X62348070Y-87894937D01*
X62348070Y-87894932D01*
X62290894Y-87681550D01*
X62197534Y-87481339D01*
X62070826Y-87300380D01*
X61914620Y-87144174D01*
X61914616Y-87144171D01*
X61914615Y-87144170D01*
X61733666Y-87017468D01*
X61733662Y-87017466D01*
X61688355Y-86996339D01*
X61533450Y-86924106D01*
X61533447Y-86924105D01*
X61533445Y-86924104D01*
X61320070Y-86866930D01*
X61320062Y-86866929D01*
X61100002Y-86847677D01*
X61099998Y-86847677D01*
X60879937Y-86866929D01*
X60879929Y-86866930D01*
X60666554Y-86924104D01*
X60666548Y-86924107D01*
X60466340Y-87017465D01*
X60466338Y-87017466D01*
X60285377Y-87144175D01*
X60129175Y-87300377D01*
X60002466Y-87481338D01*
X60002465Y-87481340D01*
X59909107Y-87681548D01*
X59909104Y-87681554D01*
X59851930Y-87894929D01*
X59851929Y-87894937D01*
X59832677Y-88114997D01*
X59832677Y-88115002D01*
X51780500Y-88115002D01*
X51780500Y-75565003D01*
X87459435Y-75565003D01*
X87479630Y-75744249D01*
X87479631Y-75744254D01*
X87539211Y-75914523D01*
X87609945Y-76027094D01*
X87635184Y-76067262D01*
X87762738Y-76194816D01*
X87775249Y-76202677D01*
X87896884Y-76279106D01*
X87915478Y-76290789D01*
X88085745Y-76350368D01*
X88085750Y-76350369D01*
X88264996Y-76370565D01*
X88265000Y-76370565D01*
X88265004Y-76370565D01*
X88444249Y-76350369D01*
X88444252Y-76350368D01*
X88444255Y-76350368D01*
X88614522Y-76290789D01*
X88767262Y-76194816D01*
X88894816Y-76067262D01*
X88990789Y-75914522D01*
X89050368Y-75744255D01*
X89060161Y-75657329D01*
X89087226Y-75592919D01*
X89095688Y-75583545D01*
X89380520Y-75298716D01*
X89459577Y-75161784D01*
X89500501Y-75009057D01*
X89500501Y-74930003D01*
X97619435Y-74930003D01*
X97639630Y-75109249D01*
X97639631Y-75109254D01*
X97699211Y-75279523D01*
X97795184Y-75432262D01*
X97922738Y-75559816D01*
X98075478Y-75655789D01*
X98245745Y-75715368D01*
X98245750Y-75715369D01*
X98424996Y-75735565D01*
X98425000Y-75735565D01*
X98425004Y-75735565D01*
X98604249Y-75715369D01*
X98604252Y-75715368D01*
X98604255Y-75715368D01*
X98774522Y-75655789D01*
X98927262Y-75559816D01*
X99054816Y-75432262D01*
X99150789Y-75279522D01*
X99210368Y-75109255D01*
X99210369Y-75109249D01*
X99230565Y-74930003D01*
X99230565Y-74929996D01*
X99210369Y-74750750D01*
X99210368Y-74750745D01*
X99191233Y-74696060D01*
X99150789Y-74580478D01*
X99147324Y-74574964D01*
X99086239Y-74477748D01*
X99054816Y-74427738D01*
X99054814Y-74427736D01*
X99054813Y-74427734D01*
X99052550Y-74424896D01*
X99051659Y-74422715D01*
X99051111Y-74421842D01*
X99051264Y-74421745D01*
X99026144Y-74360209D01*
X99025500Y-74347587D01*
X99025500Y-74242412D01*
X99045185Y-74175373D01*
X99052555Y-74165097D01*
X99054810Y-74162267D01*
X99054816Y-74162262D01*
X99150789Y-74009522D01*
X99210368Y-73839255D01*
X99211084Y-73832901D01*
X99230565Y-73660003D01*
X99230565Y-73659996D01*
X99210369Y-73480750D01*
X99210368Y-73480745D01*
X99172833Y-73373476D01*
X99150789Y-73310478D01*
X99131325Y-73279502D01*
X99094378Y-73220700D01*
X99054816Y-73157738D01*
X98927262Y-73030184D01*
X98774523Y-72934211D01*
X98604254Y-72874631D01*
X98604249Y-72874630D01*
X98425004Y-72854435D01*
X98424996Y-72854435D01*
X98245750Y-72874630D01*
X98245745Y-72874631D01*
X98075476Y-72934211D01*
X97922737Y-73030184D01*
X97795184Y-73157737D01*
X97699211Y-73310476D01*
X97639631Y-73480745D01*
X97639630Y-73480750D01*
X97619435Y-73659996D01*
X97619435Y-73660003D01*
X97639630Y-73839249D01*
X97639631Y-73839254D01*
X97699211Y-74009523D01*
X97755598Y-74099261D01*
X97775720Y-74131286D01*
X97795185Y-74162263D01*
X97797445Y-74165097D01*
X97798334Y-74167275D01*
X97798889Y-74168158D01*
X97798734Y-74168255D01*
X97823855Y-74229783D01*
X97824500Y-74242412D01*
X97824500Y-74347587D01*
X97804815Y-74414626D01*
X97797450Y-74424896D01*
X97795186Y-74427734D01*
X97699211Y-74580476D01*
X97639631Y-74750745D01*
X97639630Y-74750750D01*
X97619435Y-74929996D01*
X97619435Y-74930003D01*
X89500501Y-74930003D01*
X89500501Y-74850942D01*
X89500501Y-74843347D01*
X89500500Y-74843329D01*
X89500500Y-74242412D01*
X89520185Y-74175373D01*
X89527555Y-74165097D01*
X89529810Y-74162267D01*
X89529816Y-74162262D01*
X89569398Y-74099268D01*
X92735170Y-74099268D01*
X92755365Y-74278514D01*
X92755366Y-74278519D01*
X92814946Y-74448788D01*
X92877914Y-74549000D01*
X92910919Y-74601527D01*
X93038473Y-74729081D01*
X93191213Y-74825054D01*
X93265197Y-74850942D01*
X93361480Y-74884633D01*
X93361485Y-74884634D01*
X93540731Y-74904830D01*
X93540735Y-74904830D01*
X93540739Y-74904830D01*
X93719984Y-74884634D01*
X93719987Y-74884633D01*
X93719990Y-74884633D01*
X93890257Y-74825054D01*
X94042997Y-74729081D01*
X94170551Y-74601527D01*
X94266524Y-74448787D01*
X94326103Y-74278520D01*
X94335896Y-74191594D01*
X94362961Y-74127183D01*
X94371425Y-74117808D01*
X94633535Y-73855698D01*
X94694856Y-73822215D01*
X94707311Y-73820163D01*
X94794255Y-73810368D01*
X94964522Y-73750789D01*
X95117262Y-73654816D01*
X95244816Y-73527262D01*
X95340789Y-73374522D01*
X95400368Y-73204255D01*
X95402288Y-73187215D01*
X95420565Y-73025003D01*
X95420565Y-73024996D01*
X95400369Y-72845750D01*
X95400368Y-72845745D01*
X95340788Y-72675476D01*
X95299685Y-72610062D01*
X95244816Y-72522738D01*
X95117262Y-72395184D01*
X94964523Y-72299211D01*
X94794254Y-72239631D01*
X94794249Y-72239630D01*
X94615004Y-72219435D01*
X94614996Y-72219435D01*
X94435750Y-72239630D01*
X94435745Y-72239631D01*
X94265476Y-72299211D01*
X94112737Y-72395184D01*
X93985184Y-72522737D01*
X93889210Y-72675478D01*
X93829630Y-72845750D01*
X93819837Y-72932668D01*
X93792770Y-72997082D01*
X93784298Y-73006465D01*
X93522200Y-73268563D01*
X93460877Y-73302048D01*
X93448403Y-73304102D01*
X93361485Y-73313895D01*
X93191213Y-73373475D01*
X93038472Y-73469449D01*
X92910919Y-73597002D01*
X92814946Y-73749741D01*
X92755366Y-73920010D01*
X92755365Y-73920015D01*
X92735170Y-74099261D01*
X92735170Y-74099268D01*
X89569398Y-74099268D01*
X89625789Y-74009522D01*
X89685368Y-73839255D01*
X89686084Y-73832901D01*
X89705565Y-73660003D01*
X89705565Y-73659996D01*
X89685369Y-73480750D01*
X89685368Y-73480745D01*
X89647833Y-73373476D01*
X89625789Y-73310478D01*
X89606325Y-73279502D01*
X89569378Y-73220700D01*
X89529816Y-73157738D01*
X89402262Y-73030184D01*
X89249523Y-72934211D01*
X89079254Y-72874631D01*
X89079249Y-72874630D01*
X88900004Y-72854435D01*
X88899996Y-72854435D01*
X88720750Y-72874630D01*
X88720745Y-72874631D01*
X88550476Y-72934211D01*
X88397737Y-73030184D01*
X88270184Y-73157737D01*
X88174211Y-73310476D01*
X88114631Y-73480745D01*
X88114630Y-73480750D01*
X88094435Y-73659996D01*
X88094435Y-73660003D01*
X88114630Y-73839249D01*
X88114631Y-73839254D01*
X88174211Y-74009523D01*
X88230598Y-74099261D01*
X88250720Y-74131286D01*
X88270185Y-74162263D01*
X88272445Y-74165097D01*
X88273334Y-74167275D01*
X88273889Y-74168158D01*
X88273734Y-74168255D01*
X88298855Y-74229783D01*
X88299500Y-74242412D01*
X88299500Y-74629902D01*
X88279815Y-74696941D01*
X88263183Y-74717580D01*
X88251684Y-74729080D01*
X88246463Y-74734301D01*
X88185138Y-74767784D01*
X88172668Y-74769837D01*
X88085750Y-74779630D01*
X87915478Y-74839210D01*
X87762737Y-74935184D01*
X87635184Y-75062737D01*
X87539211Y-75215476D01*
X87479631Y-75385745D01*
X87479630Y-75385750D01*
X87459435Y-75564996D01*
X87459435Y-75565003D01*
X51780500Y-75565003D01*
X51780500Y-73781768D01*
X82257670Y-73781768D01*
X82277865Y-73961014D01*
X82277866Y-73961019D01*
X82337446Y-74131288D01*
X82429955Y-74278514D01*
X82433419Y-74284027D01*
X82560973Y-74411581D01*
X82620186Y-74448787D01*
X82698450Y-74497964D01*
X82713713Y-74507554D01*
X82832159Y-74549000D01*
X82883980Y-74567133D01*
X82883985Y-74567134D01*
X83063231Y-74587330D01*
X83063235Y-74587330D01*
X83063239Y-74587330D01*
X83242484Y-74567134D01*
X83242487Y-74567133D01*
X83242490Y-74567133D01*
X83412757Y-74507554D01*
X83565497Y-74411581D01*
X83693051Y-74284027D01*
X83789024Y-74131287D01*
X83848603Y-73961020D01*
X83858396Y-73874094D01*
X83885461Y-73809683D01*
X83893925Y-73800308D01*
X84473535Y-73220698D01*
X84534856Y-73187215D01*
X84547311Y-73185163D01*
X84634255Y-73175368D01*
X84804522Y-73115789D01*
X84957262Y-73019816D01*
X85084816Y-72892262D01*
X85180789Y-72739522D01*
X85240368Y-72569255D01*
X85245609Y-72522738D01*
X85260565Y-72390003D01*
X85260565Y-72389996D01*
X85240369Y-72210750D01*
X85240368Y-72210745D01*
X85180788Y-72040476D01*
X85084815Y-71887737D01*
X84957262Y-71760184D01*
X84804523Y-71664211D01*
X84634254Y-71604631D01*
X84634249Y-71604630D01*
X84455004Y-71584435D01*
X84454996Y-71584435D01*
X84275750Y-71604630D01*
X84275745Y-71604631D01*
X84105476Y-71664211D01*
X83952737Y-71760184D01*
X83825184Y-71887737D01*
X83729210Y-72040478D01*
X83669630Y-72210750D01*
X83659837Y-72297668D01*
X83632770Y-72362082D01*
X83624298Y-72371465D01*
X83044700Y-72951063D01*
X82983377Y-72984548D01*
X82970903Y-72986602D01*
X82883985Y-72996395D01*
X82713713Y-73055975D01*
X82560972Y-73151949D01*
X82433419Y-73279502D01*
X82337446Y-73432241D01*
X82277866Y-73602510D01*
X82277865Y-73602515D01*
X82257670Y-73781761D01*
X82257670Y-73781768D01*
X51780500Y-73781768D01*
X51780500Y-69365002D01*
X59832677Y-69365002D01*
X59851929Y-69585062D01*
X59851930Y-69585070D01*
X59909104Y-69798445D01*
X59909105Y-69798447D01*
X59909106Y-69798450D01*
X59933143Y-69849997D01*
X60002466Y-69998662D01*
X60002468Y-69998666D01*
X60129170Y-70179615D01*
X60129175Y-70179621D01*
X60285378Y-70335824D01*
X60285384Y-70335829D01*
X60466333Y-70462531D01*
X60466335Y-70462532D01*
X60466338Y-70462534D01*
X60666550Y-70555894D01*
X60879932Y-70613070D01*
X61037123Y-70626822D01*
X61099998Y-70632323D01*
X61100000Y-70632323D01*
X61100002Y-70632323D01*
X61159243Y-70627140D01*
X61320068Y-70613070D01*
X61533450Y-70555894D01*
X61733662Y-70462534D01*
X61914620Y-70335826D01*
X62070826Y-70179620D01*
X62197534Y-69998662D01*
X62290894Y-69798450D01*
X62348070Y-69585068D01*
X62367323Y-69365000D01*
X62348070Y-69144932D01*
X62290894Y-68931550D01*
X62197534Y-68731339D01*
X62134180Y-68640859D01*
X62070827Y-68550381D01*
X62070823Y-68550377D01*
X61914620Y-68394174D01*
X61914616Y-68394171D01*
X61914615Y-68394170D01*
X61733666Y-68267468D01*
X61733662Y-68267466D01*
X61733660Y-68267465D01*
X61533450Y-68174106D01*
X61533447Y-68174105D01*
X61533445Y-68174104D01*
X61320070Y-68116930D01*
X61320062Y-68116929D01*
X61100002Y-68097677D01*
X61099998Y-68097677D01*
X60879937Y-68116929D01*
X60879929Y-68116930D01*
X60666554Y-68174104D01*
X60666548Y-68174107D01*
X60466340Y-68267465D01*
X60466338Y-68267466D01*
X60285377Y-68394175D01*
X60129175Y-68550377D01*
X60002466Y-68731338D01*
X60002465Y-68731340D01*
X59909107Y-68931548D01*
X59909104Y-68931554D01*
X59851930Y-69144929D01*
X59851929Y-69144937D01*
X59832677Y-69364997D01*
X59832677Y-69365002D01*
X51780500Y-69365002D01*
X51780500Y-57144500D01*
X51800185Y-57077461D01*
X51852989Y-57031706D01*
X51904500Y-57020500D01*
X75885217Y-57020500D01*
X75952256Y-57040185D01*
G37*
%TD.AperFunction*%
%TA.AperFunction,Conductor*%
G36*
X107569000Y-74980160D02*
G01*
X107594964Y-75077061D01*
X107645124Y-75163940D01*
X107716060Y-75234876D01*
X107802939Y-75285036D01*
X107899840Y-75311000D01*
X107922553Y-75311000D01*
X107251810Y-75981740D01*
X107316589Y-76027098D01*
X107445781Y-76087342D01*
X107498220Y-76133514D01*
X107517372Y-76200708D01*
X107497156Y-76267589D01*
X107445781Y-76312106D01*
X107316340Y-76372465D01*
X107316338Y-76372466D01*
X107135377Y-76499175D01*
X106979175Y-76655377D01*
X106852466Y-76836338D01*
X106852465Y-76836340D01*
X106792382Y-76965189D01*
X106746209Y-77017628D01*
X106679016Y-77036780D01*
X106612135Y-77016564D01*
X106567618Y-76965189D01*
X106507534Y-76836340D01*
X106507533Y-76836338D01*
X106380827Y-76655381D01*
X106380823Y-76655377D01*
X106224620Y-76499174D01*
X106224616Y-76499171D01*
X106224615Y-76499170D01*
X106043666Y-76372468D01*
X106043662Y-76372466D01*
X105914218Y-76312105D01*
X105861779Y-76265932D01*
X105842627Y-76198739D01*
X105862843Y-76131858D01*
X105914219Y-76087340D01*
X106043416Y-76027095D01*
X106043417Y-76027094D01*
X106108188Y-75981741D01*
X105437448Y-75311000D01*
X105460160Y-75311000D01*
X105557061Y-75285036D01*
X105643940Y-75234876D01*
X105714876Y-75163940D01*
X105765036Y-75077061D01*
X105791000Y-74980160D01*
X105791000Y-74957447D01*
X106461741Y-75628188D01*
X106507094Y-75563417D01*
X106507100Y-75563407D01*
X106567618Y-75433627D01*
X106613790Y-75381187D01*
X106680983Y-75362035D01*
X106747865Y-75382251D01*
X106792382Y-75433627D01*
X106852898Y-75563405D01*
X106852901Y-75563411D01*
X106898258Y-75628187D01*
X106898259Y-75628188D01*
X107569000Y-74957447D01*
X107569000Y-74980160D01*
G37*
%TD.AperFunction*%
%TA.AperFunction,Conductor*%
G36*
X106747865Y-72843435D02*
G01*
X106792382Y-72894811D01*
X106852464Y-73023658D01*
X106852468Y-73023666D01*
X106979170Y-73204615D01*
X106979175Y-73204621D01*
X107135378Y-73360824D01*
X107135384Y-73360829D01*
X107316333Y-73487531D01*
X107316335Y-73487532D01*
X107316338Y-73487534D01*
X107445781Y-73547894D01*
X107498220Y-73594066D01*
X107517372Y-73661260D01*
X107497156Y-73728141D01*
X107445781Y-73772658D01*
X107316590Y-73832901D01*
X107251811Y-73878258D01*
X107922553Y-74549000D01*
X107899840Y-74549000D01*
X107802939Y-74574964D01*
X107716060Y-74625124D01*
X107645124Y-74696060D01*
X107594964Y-74782939D01*
X107569000Y-74879840D01*
X107569000Y-74902553D01*
X106898258Y-74231811D01*
X106852901Y-74296590D01*
X106792382Y-74426373D01*
X106746209Y-74478812D01*
X106679016Y-74497964D01*
X106612135Y-74477748D01*
X106567618Y-74426373D01*
X106507096Y-74296586D01*
X106461741Y-74231811D01*
X106461740Y-74231810D01*
X105791000Y-74902551D01*
X105791000Y-74879840D01*
X105765036Y-74782939D01*
X105714876Y-74696060D01*
X105643940Y-74625124D01*
X105557061Y-74574964D01*
X105460160Y-74549000D01*
X105437448Y-74549000D01*
X106108188Y-73878259D01*
X106108187Y-73878258D01*
X106043411Y-73832901D01*
X106043405Y-73832898D01*
X105914219Y-73772658D01*
X105861779Y-73726486D01*
X105842627Y-73659293D01*
X105862843Y-73592411D01*
X105914219Y-73547894D01*
X106043662Y-73487534D01*
X106224620Y-73360826D01*
X106380826Y-73204620D01*
X106507534Y-73023662D01*
X106567618Y-72894811D01*
X106613790Y-72842371D01*
X106680983Y-72823219D01*
X106747865Y-72843435D01*
G37*
%TD.AperFunction*%
%TD*%
M02*
