%TF.GenerationSoftware,KiCad,Pcbnew,(5.1.9)-1*%
%TF.CreationDate,2024-04-03T16:53:24+03:00*%
%TF.ProjectId,jantteri_left,6a616e74-7465-4726-995f-6c6566742e6b,rev?*%
%TF.SameCoordinates,Original*%
%TF.FileFunction,Paste,Bot*%
%TF.FilePolarity,Positive*%
%FSLAX46Y46*%
G04 Gerber Fmt 4.6, Leading zero omitted, Abs format (unit mm)*
G04 Created by KiCad (PCBNEW (5.1.9)-1) date 2024-04-03 16:53:24*
%MOMM*%
%LPD*%
G01*
G04 APERTURE LIST*
%ADD10R,0.900000X1.200000*%
%ADD11R,2.400000X0.740000*%
%ADD12R,2.900000X5.400000*%
%ADD13R,1.100000X4.600000*%
%ADD14R,5.250000X4.550000*%
G04 APERTURE END LIST*
%TO.C,C15*%
G36*
G01*
X184075999Y-84544393D02*
X184075999Y-86544393D01*
G75*
G02*
X183825999Y-86794393I-250000J0D01*
G01*
X179925999Y-86794393D01*
G75*
G02*
X179675999Y-86544393I0J250000D01*
G01*
X179675999Y-84544393D01*
G75*
G02*
X179925999Y-84294393I250000J0D01*
G01*
X183825999Y-84294393D01*
G75*
G02*
X184075999Y-84544393I0J-250000D01*
G01*
G37*
G36*
G01*
X175675999Y-84544393D02*
X175675999Y-86544393D01*
G75*
G02*
X175425999Y-86794393I-250000J0D01*
G01*
X171525999Y-86794393D01*
G75*
G02*
X171275999Y-86544393I0J250000D01*
G01*
X171275999Y-84544393D01*
G75*
G02*
X171525999Y-84294393I250000J0D01*
G01*
X175425999Y-84294393D01*
G75*
G02*
X175675999Y-84544393I0J-250000D01*
G01*
G37*
%TD*%
%TO.C,C16*%
G36*
G01*
X153300999Y-80042393D02*
X151250999Y-80042393D01*
G75*
G02*
X151000999Y-79792393I0J250000D01*
G01*
X151000999Y-78217393D01*
G75*
G02*
X151250999Y-77967393I250000J0D01*
G01*
X153300999Y-77967393D01*
G75*
G02*
X153550999Y-78217393I0J-250000D01*
G01*
X153550999Y-79792393D01*
G75*
G02*
X153300999Y-80042393I-250000J0D01*
G01*
G37*
G36*
G01*
X153300999Y-73817393D02*
X151250999Y-73817393D01*
G75*
G02*
X151000999Y-73567393I0J250000D01*
G01*
X151000999Y-71992393D01*
G75*
G02*
X151250999Y-71742393I250000J0D01*
G01*
X153300999Y-71742393D01*
G75*
G02*
X153550999Y-71992393I0J-250000D01*
G01*
X153550999Y-73567393D01*
G75*
G02*
X153300999Y-73817393I-250000J0D01*
G01*
G37*
%TD*%
D10*
%TO.C,D2*%
X155703999Y-96085393D03*
X152403999Y-96085393D03*
%TD*%
D11*
%TO.C,J1*%
X182583999Y-72209393D03*
X186483999Y-72209393D03*
X182583999Y-70939393D03*
X186483999Y-70939393D03*
X182583999Y-69669393D03*
X186483999Y-69669393D03*
X182583999Y-68399393D03*
X186483999Y-68399393D03*
X182583999Y-67129393D03*
X186483999Y-67129393D03*
X182583999Y-65859393D03*
X186483999Y-65859393D03*
X182583999Y-64589393D03*
X186483999Y-64589393D03*
X182583999Y-63319393D03*
X186483999Y-63319393D03*
%TD*%
D12*
%TO.C,L1*%
X146185999Y-87703393D03*
X156085999Y-87703393D03*
%TD*%
D13*
%TO.C,U3*%
X167740999Y-93986393D03*
X166040999Y-93986393D03*
X164340999Y-93986393D03*
X162640999Y-93986393D03*
X160940999Y-93986393D03*
D14*
X161565999Y-82411393D03*
X167115999Y-87261393D03*
X167115999Y-82411393D03*
X161565999Y-87261393D03*
%TD*%
M02*
