%TF.GenerationSoftware,KiCad,Pcbnew,(5.1.9)-1*%
%TF.CreationDate,2024-04-03T16:53:24+03:00*%
%TF.ProjectId,jantteri_left,6a616e74-7465-4726-995f-6c6566742e6b,rev?*%
%TF.SameCoordinates,Original*%
%TF.FileFunction,Copper,L2,Bot*%
%TF.FilePolarity,Positive*%
%FSLAX46Y46*%
G04 Gerber Fmt 4.6, Leading zero omitted, Abs format (unit mm)*
G04 Created by KiCad (PCBNEW (5.1.9)-1) date 2024-04-03 16:53:24*
%MOMM*%
%LPD*%
G01*
G04 APERTURE LIST*
%TA.AperFunction,ComponentPad*%
%ADD10O,1.030000X1.730000*%
%TD*%
%TA.AperFunction,ConnectorPad*%
%ADD11C,0.787400*%
%TD*%
%TA.AperFunction,SMDPad,CuDef*%
%ADD12R,0.900000X1.200000*%
%TD*%
%TA.AperFunction,SMDPad,CuDef*%
%ADD13R,2.400000X0.740000*%
%TD*%
%TA.AperFunction,SMDPad,CuDef*%
%ADD14R,2.900000X5.400000*%
%TD*%
%TA.AperFunction,ComponentPad*%
%ADD15O,4.000000X4.000000*%
%TD*%
%TA.AperFunction,ComponentPad*%
%ADD16C,1.800000*%
%TD*%
%TA.AperFunction,ComponentPad*%
%ADD17R,1.800000X1.800000*%
%TD*%
%TA.AperFunction,SMDPad,CuDef*%
%ADD18R,1.100000X4.600000*%
%TD*%
%TA.AperFunction,SMDPad,CuDef*%
%ADD19R,10.800000X9.400000*%
%TD*%
%TA.AperFunction,ViaPad*%
%ADD20C,0.800000*%
%TD*%
%TA.AperFunction,Conductor*%
%ADD21C,0.250000*%
%TD*%
%TA.AperFunction,Conductor*%
%ADD22C,0.800000*%
%TD*%
%TA.AperFunction,Conductor*%
%ADD23C,0.254000*%
%TD*%
%TA.AperFunction,Conductor*%
%ADD24C,0.100000*%
%TD*%
G04 APERTURE END LIST*
%TO.P,J5,1*%
%TO.N,/STM32L151C8T6A/PA2*%
%TA.AperFunction,ComponentPad*%
G36*
G01*
X138058999Y-75277392D02*
X138058999Y-76507394D01*
G75*
G02*
X137809000Y-76757393I-249999J0D01*
G01*
X137278998Y-76757393D01*
G75*
G02*
X137028999Y-76507394I0J249999D01*
G01*
X137028999Y-75277392D01*
G75*
G02*
X137278998Y-75027393I249999J0D01*
G01*
X137809000Y-75027393D01*
G75*
G02*
X138058999Y-75277392I0J-249999D01*
G01*
G37*
%TD.AperFunction*%
D10*
%TO.P,J5,2*%
%TO.N,/STM32L151C8T6A/PA3*%
X136043999Y-75892393D03*
%TO.P,J5,3*%
%TO.N,+5V*%
X134543999Y-75892393D03*
%TO.P,J5,4*%
%TO.N,PERIPHERAL_GND*%
X133043999Y-75892393D03*
%TD*%
%TO.P,J4,4*%
%TO.N,PERIPHERAL_GND*%
X133043999Y-70812393D03*
%TO.P,J4,3*%
%TO.N,+5V*%
X134543999Y-70812393D03*
%TO.P,J4,2*%
%TO.N,/STM32L151C8T6A/PB11*%
X136043999Y-70812393D03*
%TO.P,J4,1*%
%TO.N,/STM32L151C8T6A/PB10*%
%TA.AperFunction,ComponentPad*%
G36*
G01*
X138058999Y-70197392D02*
X138058999Y-71427394D01*
G75*
G02*
X137809000Y-71677393I-249999J0D01*
G01*
X137278998Y-71677393D01*
G75*
G02*
X137028999Y-71427394I0J249999D01*
G01*
X137028999Y-70197392D01*
G75*
G02*
X137278998Y-69947393I249999J0D01*
G01*
X137809000Y-69947393D01*
G75*
G02*
X138058999Y-70197392I0J-249999D01*
G01*
G37*
%TD.AperFunction*%
%TD*%
D11*
%TO.P,J3,1*%
%TO.N,+3V3*%
X141988999Y-62557393D03*
%TO.P,J3,2*%
%TO.N,/STM32L151C8T6A/SWDIO*%
X143258999Y-62557393D03*
%TO.P,J3,3*%
%TO.N,/STM32L151C8T6A/NRST*%
X141988999Y-61287393D03*
%TO.P,J3,4*%
%TO.N,/STM32L151C8T6A/SWCLK*%
X143258999Y-61287393D03*
%TO.P,J3,5*%
%TO.N,GND*%
X141988999Y-60017393D03*
%TO.P,J3,6*%
%TO.N,/STM32L151C8T6A/SWO*%
X143258999Y-60017393D03*
%TD*%
%TO.P,C15,1*%
%TO.N,V_SYSTEM_IN*%
%TA.AperFunction,SMDPad,CuDef*%
G36*
G01*
X184075999Y-84544393D02*
X184075999Y-86544393D01*
G75*
G02*
X183825999Y-86794393I-250000J0D01*
G01*
X179925999Y-86794393D01*
G75*
G02*
X179675999Y-86544393I0J250000D01*
G01*
X179675999Y-84544393D01*
G75*
G02*
X179925999Y-84294393I250000J0D01*
G01*
X183825999Y-84294393D01*
G75*
G02*
X184075999Y-84544393I0J-250000D01*
G01*
G37*
%TD.AperFunction*%
%TO.P,C15,2*%
%TO.N,GND*%
%TA.AperFunction,SMDPad,CuDef*%
G36*
G01*
X175675999Y-84544393D02*
X175675999Y-86544393D01*
G75*
G02*
X175425999Y-86794393I-250000J0D01*
G01*
X171525999Y-86794393D01*
G75*
G02*
X171275999Y-86544393I0J250000D01*
G01*
X171275999Y-84544393D01*
G75*
G02*
X171525999Y-84294393I250000J0D01*
G01*
X175425999Y-84294393D01*
G75*
G02*
X175675999Y-84544393I0J-250000D01*
G01*
G37*
%TD.AperFunction*%
%TD*%
%TO.P,C16,1*%
%TO.N,/Sheet65FF0824/5V*%
%TA.AperFunction,SMDPad,CuDef*%
G36*
G01*
X153300999Y-80042393D02*
X151250999Y-80042393D01*
G75*
G02*
X151000999Y-79792393I0J250000D01*
G01*
X151000999Y-78217393D01*
G75*
G02*
X151250999Y-77967393I250000J0D01*
G01*
X153300999Y-77967393D01*
G75*
G02*
X153550999Y-78217393I0J-250000D01*
G01*
X153550999Y-79792393D01*
G75*
G02*
X153300999Y-80042393I-250000J0D01*
G01*
G37*
%TD.AperFunction*%
%TO.P,C16,2*%
%TO.N,GND*%
%TA.AperFunction,SMDPad,CuDef*%
G36*
G01*
X153300999Y-73817393D02*
X151250999Y-73817393D01*
G75*
G02*
X151000999Y-73567393I0J250000D01*
G01*
X151000999Y-71992393D01*
G75*
G02*
X151250999Y-71742393I250000J0D01*
G01*
X153300999Y-71742393D01*
G75*
G02*
X153550999Y-71992393I0J-250000D01*
G01*
X153550999Y-73567393D01*
G75*
G02*
X153300999Y-73817393I-250000J0D01*
G01*
G37*
%TD.AperFunction*%
%TD*%
D12*
%TO.P,D2,1*%
%TO.N,Net-(D2-Pad1)*%
X155703999Y-96085393D03*
%TO.P,D2,2*%
%TO.N,GND*%
X152403999Y-96085393D03*
%TD*%
D13*
%TO.P,J1,1*%
%TO.N,GND*%
X182583999Y-72209393D03*
%TO.P,J1,2*%
%TO.N,V_SYSTEM_IN*%
X186483999Y-72209393D03*
%TO.P,J1,3*%
%TO.N,GND*%
X182583999Y-70939393D03*
%TO.P,J1,4*%
%TO.N,V_SYSTEM_IN*%
X186483999Y-70939393D03*
%TO.P,J1,5*%
%TO.N,SCL_IN*%
X182583999Y-69669393D03*
%TO.P,J1,6*%
%TO.N,Net-(J1-Pad6)*%
X186483999Y-69669393D03*
%TO.P,J1,7*%
%TO.N,SDA_IN*%
X182583999Y-68399393D03*
%TO.P,J1,8*%
%TO.N,Net-(J1-Pad8)*%
X186483999Y-68399393D03*
%TO.P,J1,9*%
%TO.N,MOTOR_B_OUT*%
X182583999Y-67129393D03*
%TO.P,J1,10*%
%TO.N,STAT1_IN*%
X186483999Y-67129393D03*
%TO.P,J1,11*%
%TO.N,MOTOR_A_OUT*%
X182583999Y-65859393D03*
%TO.P,J1,12*%
%TO.N,STAT2_IN*%
X186483999Y-65859393D03*
%TO.P,J1,13*%
%TO.N,DRV_n_FAULT_OUT*%
X182583999Y-64589393D03*
%TO.P,J1,14*%
%TO.N,TXD_IN*%
X186483999Y-64589393D03*
%TO.P,J1,15*%
%TO.N,DRV_SLEEP_OUT*%
X182583999Y-63319393D03*
%TO.P,J1,16*%
%TO.N,RXD_IN*%
X186483999Y-63319393D03*
%TD*%
%TO.P,J2,1*%
%TO.N,GND*%
%TA.AperFunction,ComponentPad*%
G36*
G01*
X136534999Y-65244392D02*
X136534999Y-66474394D01*
G75*
G02*
X136285000Y-66724393I-249999J0D01*
G01*
X135754998Y-66724393D01*
G75*
G02*
X135504999Y-66474394I0J249999D01*
G01*
X135504999Y-65244392D01*
G75*
G02*
X135754998Y-64994393I249999J0D01*
G01*
X136285000Y-64994393D01*
G75*
G02*
X136534999Y-65244392I0J-249999D01*
G01*
G37*
%TD.AperFunction*%
D10*
%TO.P,J2,2*%
%TO.N,LED*%
X134519999Y-65859393D03*
%TO.P,J2,3*%
%TO.N,+5V*%
X133019999Y-65859393D03*
%TD*%
D14*
%TO.P,L1,1*%
%TO.N,Net-(D2-Pad1)*%
X146185999Y-87703393D03*
%TO.P,L1,2*%
%TO.N,/Sheet65FF0824/5V*%
X156085999Y-87703393D03*
%TD*%
D15*
%TO.P,RV1,*%
%TO.N,*%
X165266399Y-68443193D03*
X155766399Y-68443193D03*
D16*
%TO.P,RV1,3*%
%TO.N,+3V3*%
X163016399Y-75943193D03*
%TO.P,RV1,2*%
%TO.N,Net-(R5-Pad2)*%
X160516399Y-75943193D03*
D17*
%TO.P,RV1,1*%
%TO.N,GND*%
X158016399Y-75943193D03*
%TD*%
D18*
%TO.P,U3,1*%
%TO.N,V_SYSTEM_IN*%
X167740999Y-93986393D03*
%TO.P,U3,2*%
%TO.N,Net-(D2-Pad1)*%
X166040999Y-93986393D03*
%TO.P,U3,3*%
%TO.N,GND*%
X164340999Y-93986393D03*
%TO.P,U3,4*%
%TO.N,/Sheet65FF0824/5V*%
X162640999Y-93986393D03*
%TO.P,U3,5*%
%TO.N,GND*%
X160940999Y-93986393D03*
D19*
%TO.P,U3,3*%
X164340999Y-84836393D03*
%TD*%
D20*
%TO.N,/STM32L151C8T6A/BOOT0*%
X161743188Y-55870029D03*
X166499999Y-60017393D03*
%TO.N,/STM32L151C8T6A/BOOT1*%
X159895999Y-46555393D03*
X151259999Y-46555393D03*
%TO.N,/STM32L151C8T6A/NRST*%
X163197999Y-53159393D03*
%TO.N,/STM32L151C8T6A/PA0*%
X160784999Y-55572393D03*
X156720999Y-61033393D03*
%TO.N,/STM32L151C8T6A/PA2*%
X164975999Y-47317393D03*
X148719999Y-46428393D03*
%TO.N,/STM32L151C8T6A/PA3*%
X163197999Y-47825393D03*
X147576999Y-49476393D03*
%TO.N,/STM32L151C8T6A/PB10*%
X158498999Y-47444393D03*
X140591999Y-47608393D03*
%TO.N,/STM32L151C8T6A/SWDIO*%
X149989999Y-65351393D03*
%TO.N,/STM32L151C8T6A/SWCLK*%
X157863999Y-59128393D03*
%TO.N,/STM32L151C8T6A/SWO*%
X156466999Y-59128393D03*
%TO.N,GND*%
X161546999Y-52434393D03*
X172722999Y-57096393D03*
X156339999Y-57604393D03*
X161292999Y-45031393D03*
X171071999Y-44777393D03*
X153926999Y-75765393D03*
X151259999Y-75765393D03*
X168277999Y-40332393D03*
%TO.N,+3V3*%
X163578999Y-65478393D03*
X155450999Y-61795393D03*
%TO.N,GND*%
X173484999Y-52778393D03*
X144909999Y-55699393D03*
X164975999Y-48714393D03*
X171325999Y-49095393D03*
X177802999Y-51381393D03*
X179834999Y-53413393D03*
X165737999Y-57096393D03*
X143893999Y-88211393D03*
X162689999Y-63954393D03*
X165356999Y-60906393D03*
X166372999Y-58747393D03*
X171833999Y-63319393D03*
X177802999Y-65605393D03*
X182374999Y-77035393D03*
X184660999Y-74241393D03*
X188089999Y-74622393D03*
X189613999Y-59509393D03*
X183771999Y-48841393D03*
X173230999Y-41094393D03*
X160022999Y-38046393D03*
X157609999Y-42364393D03*
X147449999Y-41729393D03*
X143004999Y-45031393D03*
X141861999Y-51508393D03*
X132082999Y-61668393D03*
X130558999Y-68272393D03*
X130939999Y-77416393D03*
X133606999Y-82750393D03*
X139448999Y-87068393D03*
X148846999Y-94053393D03*
X152529999Y-88084393D03*
X158117999Y-93799393D03*
X170309999Y-95958393D03*
X173230999Y-89989393D03*
X173738999Y-78686393D03*
X168912999Y-78178393D03*
X158371999Y-71574393D03*
X162308999Y-67510393D03*
X169420999Y-65097393D03*
X150624999Y-54683393D03*
X150878999Y-63700393D03*
X144274999Y-67764393D03*
X139702999Y-76273393D03*
X151386999Y-81607393D03*
X156847999Y-79956393D03*
X145290999Y-79956393D03*
X148084999Y-83512393D03*
X148465999Y-87068393D03*
X179199999Y-82242393D03*
X178818999Y-85417393D03*
X185549999Y-86179393D03*
X182120999Y-90497393D03*
X175643999Y-92529393D03*
X173738999Y-96085393D03*
X177675999Y-71320393D03*
X175516999Y-71320393D03*
X182755999Y-61795393D03*
X174881999Y-57223393D03*
X179072999Y-46555393D03*
X140210999Y-67256393D03*
X138686999Y-73352393D03*
X147957999Y-73098393D03*
X148084999Y-76527393D03*
X143893999Y-82623393D03*
X145925999Y-91513393D03*
X141734999Y-91132393D03*
X168785999Y-90624393D03*
%TO.N,V_SYSTEM_IN*%
X189994999Y-61541393D03*
%TO.N,/Sheet65FF0824/5V*%
X154647999Y-82328393D03*
X154012999Y-82963393D03*
X153377999Y-83598393D03*
X152742999Y-84233393D03*
%TO.N,/Sheet66006220/SW_B*%
X142369999Y-80083393D03*
X148465999Y-66875393D03*
X149481999Y-51127393D03*
X145163999Y-50365393D03*
%TO.N,SCL_IN*%
X165864999Y-72045393D03*
X173357999Y-70431393D03*
%TO.N,SDA_IN*%
X169616152Y-69229546D03*
X174627999Y-68944393D03*
%TO.N,MOTOR_B_OUT*%
X168531999Y-69288393D03*
%TO.N,STAT1_IN*%
X165737999Y-73606393D03*
X180088999Y-73606393D03*
X188470999Y-67256393D03*
%TO.N,MOTOR_A_OUT*%
X153672999Y-51388393D03*
%TO.N,STAT2_IN*%
X164975999Y-72844393D03*
X179707999Y-71574393D03*
X188470999Y-65859393D03*
%TO.N,DRV_n_FAULT_OUT*%
X151894999Y-51381393D03*
%TO.N,TXD_IN*%
X158748346Y-52434393D03*
X177621107Y-61994501D03*
X181454494Y-59546393D03*
%TO.N,DRV_SLEEP_OUT*%
X158617360Y-51443007D03*
X178310999Y-63065393D03*
X180469999Y-63192393D03*
%TO.N,RXD_IN*%
X159895999Y-52397393D03*
X176913999Y-61287393D03*
X180596999Y-60271393D03*
%TO.N,LED*%
X154688999Y-52143393D03*
%TO.N,PERIPHERAL_EN*%
X162562999Y-55154393D03*
X141226999Y-80083393D03*
X141226999Y-77670393D03*
X151894999Y-64843393D03*
%TO.N,VIN_MEAS*%
X168404999Y-47317393D03*
X187835999Y-58620393D03*
%TO.N,FLASH_DO*%
X175516999Y-54048393D03*
X159641999Y-53921393D03*
%TO.N,FLASH_CS*%
X172976999Y-55572393D03*
X158625999Y-54888393D03*
%TO.N,/STM32L151C8T6A/PB11*%
X156974999Y-48333393D03*
X139702999Y-48714393D03*
%TD*%
D21*
%TO.N,/STM32L151C8T6A/BOOT0*%
X161743188Y-55870029D02*
X161743188Y-55952584D01*
X162352635Y-55870029D02*
X166499999Y-60017393D01*
X161743188Y-55870029D02*
X162352635Y-55870029D01*
%TO.N,/STM32L151C8T6A/BOOT1*%
X159895999Y-46555393D02*
X151259999Y-46555393D01*
%TO.N,/STM32L151C8T6A/NRST*%
X141111548Y-62164844D02*
X141988999Y-61287393D01*
X139207924Y-62164844D02*
X141111548Y-62164844D01*
X138051999Y-61008919D02*
X139207924Y-62164844D01*
X142623999Y-53159393D02*
X138051999Y-57731393D01*
X138051999Y-57731393D02*
X138051999Y-61008919D01*
X163197999Y-53159393D02*
X142623999Y-53159393D01*
%TO.N,/STM32L151C8T6A/PA0*%
X160784999Y-61160393D02*
X160784999Y-55572393D01*
X156847999Y-61160393D02*
X156720999Y-61033393D01*
X160784999Y-61160393D02*
X156847999Y-61160393D01*
%TO.N,/STM32L151C8T6A/PA2*%
X149318000Y-45830392D02*
X148719999Y-46428393D01*
X163488998Y-45830392D02*
X149318000Y-45830392D01*
X164975999Y-47317393D02*
X163488998Y-45830392D01*
%TO.N,/STM32L151C8T6A/PA3*%
X147594046Y-49459346D02*
X147576999Y-49476393D01*
X161564046Y-49459346D02*
X147594046Y-49459346D01*
X163197999Y-47825393D02*
X161564046Y-49459346D01*
%TO.N,/STM32L151C8T6A/PB10*%
X140755999Y-47444393D02*
X140591999Y-47608393D01*
X158498999Y-47444393D02*
X140755999Y-47444393D01*
%TO.N,/STM32L151C8T6A/SWDIO*%
X145889976Y-65339844D02*
X144136450Y-65339844D01*
X143444300Y-62742694D02*
X143258999Y-62557393D01*
X143444300Y-64647694D02*
X143444300Y-62742694D01*
X144136450Y-65339844D02*
X143444300Y-64647694D01*
X145901525Y-65351393D02*
X145889976Y-65339844D01*
X149989999Y-65351393D02*
X145901525Y-65351393D01*
%TO.N,/STM32L151C8T6A/SWCLK*%
X157138998Y-59853394D02*
X157863999Y-59128393D01*
X156817121Y-60175271D02*
X157138998Y-59853394D01*
X147879549Y-60175271D02*
X156817121Y-60175271D01*
X145889976Y-62164844D02*
X147879549Y-60175271D01*
X144136450Y-62164844D02*
X145889976Y-62164844D01*
X143258999Y-61287393D02*
X144136450Y-62164844D01*
%TO.N,/STM32L151C8T6A/SWO*%
X143584045Y-60017393D02*
X143258999Y-60017393D01*
X144473045Y-59128393D02*
X143584045Y-60017393D01*
X156466999Y-59128393D02*
X144473045Y-59128393D01*
D22*
%TO.N,+3V3*%
X163578999Y-65478393D02*
X158498999Y-65478393D01*
X155450999Y-62430393D02*
X155450999Y-61795393D01*
X158498999Y-65478393D02*
X155450999Y-62430393D01*
%TO.N,Net-(D2-Pad1)*%
X166040999Y-93986393D02*
X166040999Y-97179393D01*
X166040999Y-97179393D02*
X165102999Y-98117393D01*
X157735999Y-98117393D02*
X155703999Y-96085393D01*
X165102999Y-98117393D02*
X157735999Y-98117393D01*
X147321999Y-87703393D02*
X155703999Y-96085393D01*
X146185999Y-87703393D02*
X147321999Y-87703393D01*
%TO.N,GND*%
X164340999Y-93986393D02*
X164340999Y-84836393D01*
D21*
%TO.N,+3V3*%
X143119474Y-66076394D02*
X141803698Y-64760618D01*
X150338000Y-66076394D02*
X143119474Y-66076394D01*
X141803698Y-64760618D02*
X141803698Y-62742694D01*
X150715000Y-64950390D02*
X150715000Y-65699394D01*
X151546998Y-64118392D02*
X150715000Y-64950390D01*
X153693685Y-64118392D02*
X151546998Y-64118392D01*
X141803698Y-62742694D02*
X141988999Y-62557393D01*
X150715000Y-65699394D02*
X150338000Y-66076394D01*
X155450999Y-62361078D02*
X153693685Y-64118392D01*
X155450999Y-61795393D02*
X155450999Y-62361078D01*
D22*
%TO.N,V_SYSTEM_IN*%
X167740999Y-93986393D02*
X176218999Y-93986393D01*
X181875999Y-88329393D02*
X181875999Y-85544393D01*
X176218999Y-93986393D02*
X181875999Y-88329393D01*
X186483999Y-72209393D02*
X186483999Y-70939393D01*
X186483999Y-80936393D02*
X181875999Y-85544393D01*
X186483999Y-72209393D02*
X186483999Y-80936393D01*
D21*
X189994999Y-61541393D02*
X190629999Y-62176393D01*
X190629999Y-62176393D02*
X190629999Y-70431393D01*
X190121999Y-70939393D02*
X186483999Y-70939393D01*
X190629999Y-70431393D02*
X190121999Y-70939393D01*
D22*
%TO.N,/Sheet65FF0824/5V*%
X156466999Y-90624393D02*
X156085999Y-90243393D01*
X156085999Y-90243393D02*
X156085999Y-87703393D01*
X162181999Y-90624393D02*
X156466999Y-90624393D01*
X162640999Y-91083393D02*
X162181999Y-90624393D01*
X162640999Y-93986393D02*
X162640999Y-91083393D01*
X152275999Y-79004893D02*
X152721499Y-79004893D01*
X156085999Y-82369393D02*
X156085999Y-87703393D01*
X155323999Y-81652393D02*
X154647999Y-82328393D01*
X155323999Y-81607393D02*
X155323999Y-81652393D01*
X152721499Y-79004893D02*
X155323999Y-81607393D01*
X155323999Y-81607393D02*
X156085999Y-82369393D01*
X154647999Y-82328393D02*
X154012999Y-82963393D01*
X154012999Y-82963393D02*
X153377999Y-83598393D01*
X153377999Y-83598393D02*
X152742999Y-84233393D01*
D21*
%TO.N,/Sheet66006220/SW_B*%
X142369999Y-72971393D02*
X148465999Y-66875393D01*
X142369999Y-80083393D02*
X142369999Y-72971393D01*
X145925999Y-51127393D02*
X145163999Y-50365393D01*
X149481999Y-51127393D02*
X145925999Y-51127393D01*
%TO.N,SCL_IN*%
X165864999Y-72045393D02*
X167933999Y-72045393D01*
X167933999Y-72045393D02*
X170309999Y-69669393D01*
X173357999Y-70431393D02*
X173357999Y-69669393D01*
X173357999Y-69669393D02*
X182583999Y-69669393D01*
X170309999Y-69669393D02*
X173357999Y-69669393D01*
%TO.N,SDA_IN*%
X169616152Y-69229546D02*
X170446305Y-68399393D01*
X174627999Y-68944393D02*
X174627999Y-68399393D01*
X174627999Y-68399393D02*
X182583999Y-68399393D01*
X170446305Y-68399393D02*
X174627999Y-68399393D01*
%TO.N,MOTOR_B_OUT*%
X170690999Y-67129393D02*
X182583999Y-67129393D01*
X168531999Y-69288393D02*
X170690999Y-67129393D01*
%TO.N,STAT1_IN*%
X175816332Y-73601880D02*
X179195486Y-73601880D01*
X175811819Y-73606393D02*
X175816332Y-73601880D01*
X165737999Y-73606393D02*
X175811819Y-73606393D01*
X179464435Y-73606393D02*
X180088999Y-73606393D01*
X179459922Y-73601880D02*
X179464435Y-73606393D01*
X179195486Y-73601880D02*
X179459922Y-73601880D01*
X186610999Y-67256393D02*
X186483999Y-67129393D01*
X188470999Y-67256393D02*
X186610999Y-67256393D01*
%TO.N,MOTOR_A_OUT*%
X174810203Y-50359365D02*
X154702027Y-50359365D01*
X179199999Y-64208393D02*
X179199999Y-54749161D01*
X179199999Y-54749161D02*
X174810203Y-50359365D01*
X180850999Y-65859393D02*
X179199999Y-64208393D01*
X154702027Y-50359365D02*
X153672999Y-51388393D01*
X182583999Y-65859393D02*
X180850999Y-65859393D01*
%TO.N,STAT2_IN*%
X164975999Y-72844393D02*
X179580999Y-72844393D01*
X179580999Y-71701393D02*
X179707999Y-71574393D01*
X179580999Y-72844393D02*
X179580999Y-71701393D01*
X188470999Y-65859393D02*
X186483999Y-65859393D01*
%TO.N,DRV_n_FAULT_OUT*%
X153367036Y-49909356D02*
X151894999Y-51381393D01*
X174996604Y-49909356D02*
X153367036Y-49909356D01*
X179707999Y-54620751D02*
X174996604Y-49909356D01*
X180596999Y-64589393D02*
X179707999Y-63700393D01*
X179707999Y-63700393D02*
X179707999Y-54620751D01*
X182583999Y-64589393D02*
X180596999Y-64589393D01*
%TO.N,TXD_IN*%
X174437401Y-51259383D02*
X177929999Y-54751981D01*
X159923356Y-51259383D02*
X174437401Y-51259383D01*
X158748346Y-52434393D02*
X159923356Y-51259383D01*
X177929999Y-54751981D02*
X177929999Y-60779393D01*
X177929999Y-61685609D02*
X177621107Y-61994501D01*
X177929999Y-60779393D02*
X177929999Y-61685609D01*
X187933999Y-64589393D02*
X186483999Y-64589393D01*
X188009000Y-64514392D02*
X187933999Y-64589393D01*
X188009000Y-62689392D02*
X188009000Y-64514392D01*
X184866001Y-59546393D02*
X188009000Y-62689392D01*
X181454494Y-59546393D02*
X184866001Y-59546393D01*
%TO.N,DRV_SLEEP_OUT*%
X174623802Y-50809374D02*
X178564999Y-54750571D01*
X159250995Y-50809373D02*
X174623802Y-50809374D01*
X158617360Y-51443007D02*
X159250995Y-50809373D01*
X178564999Y-54750571D02*
X178564999Y-60779393D01*
X178564999Y-62811393D02*
X178310999Y-63065393D01*
X178564999Y-60779393D02*
X178564999Y-62811393D01*
X182456999Y-63192393D02*
X182583999Y-63319393D01*
X180469999Y-63192393D02*
X182456999Y-63192393D01*
%TO.N,RXD_IN*%
X174251000Y-51709392D02*
X177294999Y-54753391D01*
X160584000Y-51709392D02*
X174251000Y-51709392D01*
X159895999Y-52397393D02*
X160584000Y-51709392D01*
X177294999Y-54753391D02*
X177294999Y-60779393D01*
X177294999Y-60906393D02*
X176913999Y-61287393D01*
X177294999Y-60779393D02*
X177294999Y-60906393D01*
X180596999Y-60271393D02*
X184533999Y-60271393D01*
X186483999Y-62221393D02*
X186483999Y-63319393D01*
X184533999Y-60271393D02*
X186483999Y-62221393D01*
%TO.N,LED*%
X134519999Y-60626983D02*
X134519999Y-65859393D01*
X143003589Y-52143393D02*
X134519999Y-60626983D01*
X154688999Y-52143393D02*
X143003589Y-52143393D01*
%TO.N,PERIPHERAL_EN*%
X162562999Y-55154393D02*
X165356999Y-57948393D01*
X165356999Y-57948393D02*
X166851744Y-57948393D01*
X141226999Y-80083393D02*
X141226999Y-77670393D01*
X167225000Y-60365394D02*
X167225000Y-58321650D01*
X166349182Y-61241212D02*
X167225000Y-60365394D01*
X166349182Y-63733528D02*
X166349182Y-61241212D01*
X167225000Y-58321650D02*
X167075371Y-58172021D01*
X163879307Y-66203403D02*
X166349182Y-63733528D01*
X158198691Y-66203403D02*
X163879307Y-66203403D01*
X156838681Y-64843393D02*
X158198691Y-66203403D01*
X151894999Y-64843393D02*
X156838681Y-64843393D01*
X166851744Y-57948393D02*
X167075371Y-58172021D01*
%TO.N,VIN_MEAS*%
X168404999Y-47317393D02*
X176151999Y-47317393D01*
X180596999Y-51762393D02*
X180596999Y-57731393D01*
X176151999Y-47317393D02*
X180596999Y-51762393D01*
X180596999Y-57731393D02*
X180596999Y-57858393D01*
X181358999Y-58620393D02*
X187835999Y-58620393D01*
X180596999Y-57858393D02*
X181358999Y-58620393D01*
%TO.N,FLASH_DO*%
X175389999Y-53921393D02*
X175516999Y-54048393D01*
X159641999Y-53921393D02*
X175389999Y-53921393D01*
%TO.N,FLASH_CS*%
X172549634Y-55145028D02*
X172976999Y-55572393D01*
X158625999Y-54888393D02*
X159887009Y-54888393D01*
X159887009Y-54888393D02*
X160346009Y-54429393D01*
X171833999Y-54429393D02*
X172549634Y-55145028D01*
X160346009Y-54429393D02*
X171833999Y-54429393D01*
%TO.N,/STM32L151C8T6A/PB11*%
X140083999Y-48333393D02*
X139702999Y-48714393D01*
X156974999Y-48333393D02*
X140083999Y-48333393D01*
%TD*%
D23*
%TO.N,GND*%
X162288585Y-37122812D02*
X164474911Y-37321914D01*
X166642024Y-37673041D01*
X168779352Y-38174479D01*
X170876513Y-38823796D01*
X172923259Y-39617815D01*
X174909626Y-40552671D01*
X176825946Y-41623815D01*
X178662882Y-42826027D01*
X180411486Y-44153453D01*
X182063221Y-45599610D01*
X183610070Y-47157480D01*
X185047532Y-48822994D01*
X185270340Y-49108175D01*
X184182649Y-49736154D01*
X184181383Y-49737061D01*
X184150788Y-49755011D01*
X184134355Y-49766951D01*
X184116779Y-49777098D01*
X184111729Y-49780766D01*
X183483377Y-50244026D01*
X183453264Y-50271140D01*
X183422786Y-50297822D01*
X183418545Y-50302401D01*
X182892142Y-50878886D01*
X182867855Y-50911351D01*
X182843154Y-50943426D01*
X182839887Y-50948736D01*
X182839884Y-50948741D01*
X182839884Y-50948742D01*
X182435480Y-51616493D01*
X182417974Y-51653030D01*
X182399961Y-51689318D01*
X182397788Y-51695163D01*
X182397785Y-51695169D01*
X182397783Y-51695175D01*
X182130783Y-52428751D01*
X182120712Y-52467976D01*
X182110085Y-52507088D01*
X182109087Y-52513249D01*
X181989657Y-53284724D01*
X181987394Y-53325203D01*
X181984570Y-53365589D01*
X181984787Y-53371826D01*
X182017477Y-54151804D01*
X182023121Y-54191962D01*
X182028194Y-54232118D01*
X182029618Y-54238195D01*
X182213185Y-54996969D01*
X182226525Y-55035278D01*
X182239298Y-55073672D01*
X182241872Y-55079347D01*
X182241875Y-55079356D01*
X182241880Y-55079364D01*
X182569327Y-55788024D01*
X182589833Y-55822976D01*
X182609840Y-55858194D01*
X182613472Y-55863269D01*
X183072334Y-56494839D01*
X183099228Y-56525130D01*
X183125705Y-56555804D01*
X183130255Y-56560076D01*
X183703050Y-57090491D01*
X183735355Y-57115012D01*
X183767247Y-57139928D01*
X183772534Y-57143232D01*
X183772539Y-57143236D01*
X183772544Y-57143238D01*
X184437452Y-57552292D01*
X184473881Y-57570060D01*
X184510027Y-57588318D01*
X184515861Y-57590535D01*
X185247563Y-57862653D01*
X185286741Y-57873004D01*
X185325755Y-57883897D01*
X185331908Y-57884938D01*
X186102529Y-58009751D01*
X186142974Y-58012296D01*
X186183357Y-58015403D01*
X186189596Y-58015229D01*
X186969783Y-57987985D01*
X187009978Y-57982622D01*
X187050170Y-57977829D01*
X187056256Y-57976447D01*
X187816294Y-57798181D01*
X187854638Y-57785127D01*
X187893177Y-57772605D01*
X187898879Y-57770067D01*
X188609816Y-57447572D01*
X188609843Y-57447556D01*
X188629648Y-57438583D01*
X189707780Y-56816124D01*
X190306298Y-58392016D01*
X190940703Y-60493714D01*
X191426961Y-62634569D01*
X191762690Y-64804099D01*
X191946266Y-66991794D01*
X191976789Y-69186944D01*
X191854110Y-71378892D01*
X191578830Y-73556923D01*
X191152287Y-75710455D01*
X190576562Y-77828981D01*
X189854450Y-79902211D01*
X188989486Y-81919993D01*
X187985870Y-83872535D01*
X186848500Y-85750306D01*
X185582910Y-87544168D01*
X184195279Y-89245367D01*
X182692345Y-90845640D01*
X181081455Y-92337164D01*
X179370437Y-93712692D01*
X177567639Y-94965511D01*
X175681841Y-96089521D01*
X173722219Y-97079252D01*
X171698350Y-97929867D01*
X169620057Y-98637239D01*
X167497485Y-99197912D01*
X165340993Y-99609153D01*
X163161046Y-99868966D01*
X160968280Y-99976080D01*
X158773412Y-99929974D01*
X156587088Y-99730873D01*
X154419977Y-99379747D01*
X152282639Y-98878305D01*
X150185485Y-98228991D01*
X148138739Y-97434972D01*
X146546048Y-96685393D01*
X151315927Y-96685393D01*
X151328187Y-96809875D01*
X151364497Y-96929573D01*
X151423462Y-97039887D01*
X151502814Y-97136578D01*
X151599505Y-97215930D01*
X151709819Y-97274895D01*
X151829517Y-97311205D01*
X151953999Y-97323465D01*
X152118249Y-97320393D01*
X152276999Y-97161643D01*
X152276999Y-96212393D01*
X152530999Y-96212393D01*
X152530999Y-97161643D01*
X152689749Y-97320393D01*
X152853999Y-97323465D01*
X152978481Y-97311205D01*
X153098179Y-97274895D01*
X153208493Y-97215930D01*
X153305184Y-97136578D01*
X153384536Y-97039887D01*
X153443501Y-96929573D01*
X153479811Y-96809875D01*
X153492071Y-96685393D01*
X153488999Y-96371143D01*
X153330249Y-96212393D01*
X152530999Y-96212393D01*
X152276999Y-96212393D01*
X151477749Y-96212393D01*
X151318999Y-96371143D01*
X151315927Y-96685393D01*
X146546048Y-96685393D01*
X146152372Y-96500115D01*
X144336994Y-95485393D01*
X151315927Y-95485393D01*
X151318999Y-95799643D01*
X151477749Y-95958393D01*
X152276999Y-95958393D01*
X152276999Y-95009143D01*
X152530999Y-95009143D01*
X152530999Y-95958393D01*
X153330249Y-95958393D01*
X153488999Y-95799643D01*
X153492071Y-95485393D01*
X153479811Y-95360911D01*
X153443501Y-95241213D01*
X153384536Y-95130899D01*
X153305184Y-95034208D01*
X153208493Y-94954856D01*
X153098179Y-94895891D01*
X152978481Y-94859581D01*
X152853999Y-94847321D01*
X152689749Y-94850393D01*
X152530999Y-95009143D01*
X152276999Y-95009143D01*
X152118249Y-94850393D01*
X151953999Y-94847321D01*
X151829517Y-94859581D01*
X151709819Y-94895891D01*
X151599505Y-94954856D01*
X151502814Y-95034208D01*
X151423462Y-95130899D01*
X151364497Y-95241213D01*
X151328187Y-95360911D01*
X151315927Y-95485393D01*
X144336994Y-95485393D01*
X144236052Y-95428971D01*
X142399116Y-94226760D01*
X140650512Y-92899334D01*
X138998776Y-91453177D01*
X137451928Y-89895308D01*
X136017531Y-88233344D01*
X134702559Y-86475367D01*
X133513420Y-84629947D01*
X132455904Y-82706063D01*
X131535170Y-80713104D01*
X130755699Y-78660770D01*
X130121295Y-76559072D01*
X129880758Y-75500054D01*
X132181999Y-75500054D01*
X132181999Y-76284731D01*
X132194472Y-76411373D01*
X132243762Y-76573861D01*
X132323805Y-76723610D01*
X132431524Y-76854868D01*
X132562781Y-76962587D01*
X132712530Y-77042630D01*
X132875018Y-77091920D01*
X133043999Y-77108563D01*
X133212979Y-77091920D01*
X133375467Y-77042630D01*
X133525216Y-76962587D01*
X133656474Y-76854868D01*
X133764193Y-76723611D01*
X133793999Y-76667848D01*
X133823805Y-76723610D01*
X133931524Y-76854868D01*
X134062781Y-76962587D01*
X134212530Y-77042630D01*
X134375018Y-77091920D01*
X134543999Y-77108563D01*
X134712979Y-77091920D01*
X134875467Y-77042630D01*
X135025216Y-76962587D01*
X135156474Y-76854868D01*
X135264193Y-76723611D01*
X135293999Y-76667848D01*
X135323805Y-76723610D01*
X135431524Y-76854868D01*
X135562781Y-76962587D01*
X135712530Y-77042630D01*
X135875018Y-77091920D01*
X136043999Y-77108563D01*
X136212979Y-77091920D01*
X136375467Y-77042630D01*
X136525216Y-76962587D01*
X136656474Y-76854868D01*
X136736828Y-76756956D01*
X136781216Y-76840001D01*
X136855669Y-76930723D01*
X136946391Y-77005176D01*
X137049894Y-77060499D01*
X137162202Y-77094568D01*
X137278998Y-77106071D01*
X137809000Y-77106071D01*
X137925796Y-77094568D01*
X138038104Y-77060499D01*
X138141607Y-77005176D01*
X138232329Y-76930723D01*
X138306782Y-76840001D01*
X138362105Y-76736498D01*
X138396174Y-76624190D01*
X138407677Y-76507394D01*
X138407677Y-75277392D01*
X138396174Y-75160596D01*
X138362105Y-75048288D01*
X138306782Y-74944785D01*
X138232329Y-74854063D01*
X138141607Y-74779610D01*
X138038104Y-74724287D01*
X137925796Y-74690218D01*
X137809000Y-74678715D01*
X137278998Y-74678715D01*
X137162202Y-74690218D01*
X137049894Y-74724287D01*
X136946391Y-74779610D01*
X136855669Y-74854063D01*
X136781216Y-74944785D01*
X136736828Y-75027830D01*
X136656474Y-74929918D01*
X136525217Y-74822199D01*
X136375468Y-74742156D01*
X136212980Y-74692866D01*
X136043999Y-74676223D01*
X135875019Y-74692866D01*
X135712531Y-74742156D01*
X135562782Y-74822199D01*
X135431525Y-74929918D01*
X135323806Y-75061175D01*
X135294000Y-75116939D01*
X135264193Y-75061175D01*
X135156474Y-74929918D01*
X135025217Y-74822199D01*
X134875468Y-74742156D01*
X134712980Y-74692866D01*
X134543999Y-74676223D01*
X134375019Y-74692866D01*
X134212531Y-74742156D01*
X134062782Y-74822199D01*
X133931525Y-74929918D01*
X133823806Y-75061175D01*
X133794000Y-75116939D01*
X133764193Y-75061175D01*
X133656474Y-74929918D01*
X133525217Y-74822199D01*
X133375468Y-74742156D01*
X133212980Y-74692866D01*
X133043999Y-74676223D01*
X132875019Y-74692866D01*
X132712531Y-74742156D01*
X132562782Y-74822199D01*
X132431525Y-74929918D01*
X132323806Y-75061175D01*
X132243763Y-75210924D01*
X132194472Y-75373412D01*
X132181999Y-75500054D01*
X129880758Y-75500054D01*
X129635037Y-74418217D01*
X129299307Y-72248684D01*
X129145862Y-70420054D01*
X132181999Y-70420054D01*
X132181999Y-71204731D01*
X132194472Y-71331373D01*
X132243762Y-71493861D01*
X132323805Y-71643610D01*
X132431524Y-71774868D01*
X132562781Y-71882587D01*
X132712530Y-71962630D01*
X132875018Y-72011920D01*
X133043999Y-72028563D01*
X133212979Y-72011920D01*
X133375467Y-71962630D01*
X133525216Y-71882587D01*
X133656474Y-71774868D01*
X133764193Y-71643611D01*
X133793999Y-71587848D01*
X133823805Y-71643610D01*
X133931524Y-71774868D01*
X134062781Y-71882587D01*
X134212530Y-71962630D01*
X134375018Y-72011920D01*
X134543999Y-72028563D01*
X134712979Y-72011920D01*
X134875467Y-71962630D01*
X135025216Y-71882587D01*
X135156474Y-71774868D01*
X135264193Y-71643611D01*
X135293999Y-71587848D01*
X135323805Y-71643610D01*
X135431524Y-71774868D01*
X135562781Y-71882587D01*
X135712530Y-71962630D01*
X135875018Y-72011920D01*
X136043999Y-72028563D01*
X136212979Y-72011920D01*
X136375467Y-71962630D01*
X136525216Y-71882587D01*
X136656474Y-71774868D01*
X136736828Y-71676956D01*
X136781216Y-71760001D01*
X136855669Y-71850723D01*
X136946391Y-71925176D01*
X137049894Y-71980499D01*
X137162202Y-72014568D01*
X137278998Y-72026071D01*
X137809000Y-72026071D01*
X137925796Y-72014568D01*
X138038104Y-71980499D01*
X138141607Y-71925176D01*
X138232329Y-71850723D01*
X138306782Y-71760001D01*
X138362105Y-71656498D01*
X138396174Y-71544190D01*
X138407677Y-71427394D01*
X138407677Y-70197392D01*
X138396174Y-70080596D01*
X138362105Y-69968288D01*
X138306782Y-69864785D01*
X138232329Y-69774063D01*
X138141607Y-69699610D01*
X138038104Y-69644287D01*
X137925796Y-69610218D01*
X137809000Y-69598715D01*
X137278998Y-69598715D01*
X137162202Y-69610218D01*
X137049894Y-69644287D01*
X136946391Y-69699610D01*
X136855669Y-69774063D01*
X136781216Y-69864785D01*
X136736828Y-69947830D01*
X136656474Y-69849918D01*
X136525217Y-69742199D01*
X136375468Y-69662156D01*
X136212980Y-69612866D01*
X136043999Y-69596223D01*
X135875019Y-69612866D01*
X135712531Y-69662156D01*
X135562782Y-69742199D01*
X135431525Y-69849918D01*
X135323806Y-69981175D01*
X135294000Y-70036939D01*
X135264193Y-69981175D01*
X135156474Y-69849918D01*
X135025217Y-69742199D01*
X134875468Y-69662156D01*
X134712980Y-69612866D01*
X134543999Y-69596223D01*
X134375019Y-69612866D01*
X134212531Y-69662156D01*
X134062782Y-69742199D01*
X133931525Y-69849918D01*
X133823806Y-69981175D01*
X133794000Y-70036939D01*
X133764193Y-69981175D01*
X133656474Y-69849918D01*
X133525217Y-69742199D01*
X133375468Y-69662156D01*
X133212980Y-69612866D01*
X133043999Y-69596223D01*
X132875019Y-69612866D01*
X132712531Y-69662156D01*
X132562782Y-69742199D01*
X132431525Y-69849918D01*
X132323806Y-69981175D01*
X132243763Y-70130924D01*
X132194472Y-70293412D01*
X132181999Y-70420054D01*
X129145862Y-70420054D01*
X129115732Y-70060992D01*
X129085209Y-67865843D01*
X129207888Y-65673894D01*
X129483168Y-63495863D01*
X129909713Y-61342320D01*
X130485436Y-59223805D01*
X131209090Y-57146147D01*
X131344658Y-56810604D01*
X132432349Y-57438583D01*
X132433771Y-57439227D01*
X132464606Y-57456745D01*
X132483166Y-57465009D01*
X132500744Y-57475157D01*
X132506445Y-57477696D01*
X133221816Y-57790233D01*
X133260359Y-57802757D01*
X133298699Y-57815808D01*
X133304785Y-57817192D01*
X134067237Y-57984827D01*
X134107458Y-57989623D01*
X134147623Y-57994982D01*
X134153862Y-57995157D01*
X134934354Y-58011507D01*
X134974769Y-58008397D01*
X135015183Y-58005854D01*
X135021337Y-58004814D01*
X135790140Y-57869253D01*
X135829180Y-57858353D01*
X135868331Y-57848009D01*
X135874162Y-57845794D01*
X135874166Y-57845793D01*
X135874169Y-57845791D01*
X136601996Y-57563486D01*
X136638215Y-57545191D01*
X136674572Y-57527458D01*
X136679865Y-57524152D01*
X137338999Y-57105852D01*
X137370949Y-57080890D01*
X137403195Y-57056414D01*
X137407745Y-57052142D01*
X137818250Y-56661223D01*
X134202642Y-60276832D01*
X134184630Y-60291614D01*
X134125647Y-60363485D01*
X134081819Y-60445484D01*
X134060460Y-60515895D01*
X134054829Y-60534456D01*
X134045716Y-60626983D01*
X134047999Y-60650163D01*
X134048000Y-64784272D01*
X134038782Y-64789199D01*
X133907525Y-64896918D01*
X133799806Y-65028175D01*
X133770000Y-65083939D01*
X133740193Y-65028175D01*
X133632474Y-64896918D01*
X133501217Y-64789199D01*
X133351468Y-64709156D01*
X133188980Y-64659866D01*
X133019999Y-64643223D01*
X132851019Y-64659866D01*
X132688531Y-64709156D01*
X132538782Y-64789199D01*
X132407525Y-64896918D01*
X132299806Y-65028175D01*
X132219763Y-65177924D01*
X132170472Y-65340412D01*
X132157999Y-65467054D01*
X132157999Y-66251731D01*
X132170472Y-66378373D01*
X132219762Y-66540861D01*
X132299805Y-66690610D01*
X132407524Y-66821868D01*
X132538781Y-66929587D01*
X132688530Y-67009630D01*
X132851018Y-67058920D01*
X133019999Y-67075563D01*
X133188979Y-67058920D01*
X133351467Y-67009630D01*
X133501216Y-66929587D01*
X133632474Y-66821868D01*
X133740193Y-66690611D01*
X133769999Y-66634848D01*
X133799805Y-66690610D01*
X133907524Y-66821868D01*
X134038781Y-66929587D01*
X134188530Y-67009630D01*
X134351018Y-67058920D01*
X134519999Y-67075563D01*
X134688979Y-67058920D01*
X134851467Y-67009630D01*
X134918337Y-66973887D01*
X134974462Y-67078887D01*
X135053814Y-67175578D01*
X135150505Y-67254930D01*
X135260819Y-67313895D01*
X135380517Y-67350205D01*
X135504999Y-67362465D01*
X135734249Y-67359393D01*
X135892999Y-67200643D01*
X135892999Y-65986393D01*
X136146999Y-65986393D01*
X136146999Y-67200643D01*
X136305749Y-67359393D01*
X136534999Y-67362465D01*
X136659481Y-67350205D01*
X136779179Y-67313895D01*
X136889493Y-67254930D01*
X136986184Y-67175578D01*
X137065536Y-67078887D01*
X137124501Y-66968573D01*
X137160811Y-66848875D01*
X137173071Y-66724393D01*
X137169999Y-66145143D01*
X137011249Y-65986393D01*
X136146999Y-65986393D01*
X135892999Y-65986393D01*
X135872999Y-65986393D01*
X135872999Y-65732393D01*
X135892999Y-65732393D01*
X135892999Y-64518143D01*
X136146999Y-64518143D01*
X136146999Y-65732393D01*
X137011249Y-65732393D01*
X137169999Y-65573643D01*
X137173071Y-64994393D01*
X137160811Y-64869911D01*
X137124501Y-64750213D01*
X137065536Y-64639899D01*
X136986184Y-64543208D01*
X136889493Y-64463856D01*
X136779179Y-64404891D01*
X136659481Y-64368581D01*
X136534999Y-64356321D01*
X136305749Y-64359393D01*
X136146999Y-64518143D01*
X135892999Y-64518143D01*
X135734249Y-64359393D01*
X135504999Y-64356321D01*
X135380517Y-64368581D01*
X135260819Y-64404891D01*
X135150505Y-64463856D01*
X135053814Y-64543208D01*
X134991999Y-64618530D01*
X134991999Y-60822491D01*
X137579999Y-58234491D01*
X137580000Y-60985729D01*
X137577716Y-61008919D01*
X137586829Y-61101446D01*
X137613820Y-61190419D01*
X137657647Y-61272416D01*
X137662144Y-61277896D01*
X137716631Y-61344288D01*
X137734638Y-61359066D01*
X138857777Y-62482206D01*
X138872555Y-62500213D01*
X138924177Y-62542578D01*
X138944426Y-62559196D01*
X139026423Y-62603024D01*
X139114482Y-62629737D01*
X139105844Y-62635508D01*
X138892114Y-62849238D01*
X138724187Y-63100558D01*
X138608517Y-63379810D01*
X138549549Y-63676263D01*
X138549549Y-63978523D01*
X138608517Y-64274976D01*
X138724187Y-64554228D01*
X138892114Y-64805548D01*
X139105844Y-65019278D01*
X139357164Y-65187205D01*
X139636416Y-65302875D01*
X139932869Y-65361843D01*
X140235129Y-65361843D01*
X140531582Y-65302875D01*
X140810834Y-65187205D01*
X141062154Y-65019278D01*
X141275884Y-64805548D01*
X141331698Y-64722017D01*
X141331698Y-64737438D01*
X141329415Y-64760618D01*
X141331698Y-64783797D01*
X141338528Y-64853145D01*
X141365518Y-64942117D01*
X141409346Y-65024116D01*
X141468329Y-65095987D01*
X141486341Y-65110769D01*
X142769323Y-66393751D01*
X142784105Y-66411763D01*
X142855976Y-66470746D01*
X142937974Y-66514574D01*
X143004593Y-66534783D01*
X143026946Y-66541564D01*
X143119473Y-66550677D01*
X143142653Y-66548394D01*
X147792900Y-66548394D01*
X147747706Y-66657501D01*
X147718999Y-66801820D01*
X147718999Y-66948966D01*
X147719981Y-66953902D01*
X142052638Y-72621246D01*
X142034631Y-72636024D01*
X142019854Y-72654030D01*
X141975647Y-72707896D01*
X141931820Y-72789893D01*
X141904829Y-72878866D01*
X141895716Y-72971393D01*
X141898000Y-72994583D01*
X141897999Y-77338328D01*
X141888981Y-77316556D01*
X141807231Y-77194209D01*
X141703183Y-77090161D01*
X141580836Y-77008411D01*
X141444891Y-76952100D01*
X141300572Y-76923393D01*
X141153426Y-76923393D01*
X141009107Y-76952100D01*
X140873162Y-77008411D01*
X140750815Y-77090161D01*
X140646767Y-77194209D01*
X140565017Y-77316556D01*
X140508706Y-77452501D01*
X140479999Y-77596820D01*
X140479999Y-77743966D01*
X140508706Y-77888285D01*
X140565017Y-78024230D01*
X140646767Y-78146577D01*
X140750815Y-78250625D01*
X140755000Y-78253421D01*
X140754999Y-79500365D01*
X140750815Y-79503161D01*
X140646767Y-79607209D01*
X140565017Y-79729556D01*
X140508706Y-79865501D01*
X140479999Y-80009820D01*
X140479999Y-80156966D01*
X140508706Y-80301285D01*
X140565017Y-80437230D01*
X140646767Y-80559577D01*
X140750815Y-80663625D01*
X140873162Y-80745375D01*
X141009107Y-80801686D01*
X141153426Y-80830393D01*
X141300572Y-80830393D01*
X141444891Y-80801686D01*
X141580836Y-80745375D01*
X141703183Y-80663625D01*
X141798499Y-80568309D01*
X141893815Y-80663625D01*
X142016162Y-80745375D01*
X142152107Y-80801686D01*
X142296426Y-80830393D01*
X142443572Y-80830393D01*
X142587891Y-80801686D01*
X142723836Y-80745375D01*
X142846183Y-80663625D01*
X142950231Y-80559577D01*
X143031981Y-80437230D01*
X143088292Y-80301285D01*
X143116999Y-80156966D01*
X143116999Y-80009820D01*
X143088292Y-79865501D01*
X143031981Y-79729556D01*
X142950231Y-79607209D01*
X142846183Y-79503161D01*
X142841999Y-79500365D01*
X142841999Y-78217393D01*
X150652321Y-78217393D01*
X150652321Y-79792393D01*
X150663824Y-79909189D01*
X150697893Y-80021497D01*
X150753216Y-80125001D01*
X150827670Y-80215722D01*
X150918391Y-80290176D01*
X151021895Y-80345499D01*
X151134203Y-80379568D01*
X151250999Y-80391071D01*
X153051261Y-80391071D01*
X154290082Y-81629893D01*
X154171814Y-81748161D01*
X154171815Y-81748161D01*
X154145742Y-81774234D01*
X154145736Y-81774239D01*
X153536815Y-82383161D01*
X153510742Y-82409234D01*
X153510736Y-82409239D01*
X152901815Y-83018161D01*
X152875742Y-83044234D01*
X152875736Y-83044239D01*
X152266815Y-83653161D01*
X152162767Y-83757209D01*
X152142277Y-83787874D01*
X152118887Y-83816375D01*
X152101506Y-83848892D01*
X152081017Y-83879556D01*
X152066905Y-83913626D01*
X152049522Y-83946146D01*
X152038819Y-83981431D01*
X152024706Y-84015501D01*
X152017511Y-84051673D01*
X152006808Y-84086956D01*
X152003195Y-84123646D01*
X151995999Y-84159820D01*
X151995999Y-84196708D01*
X151992386Y-84233393D01*
X151995999Y-84270078D01*
X151995999Y-84306966D01*
X152003195Y-84343140D01*
X152006808Y-84379830D01*
X152017511Y-84415113D01*
X152024706Y-84451285D01*
X152038819Y-84485355D01*
X152049522Y-84520640D01*
X152066905Y-84553160D01*
X152081017Y-84587230D01*
X152101506Y-84617894D01*
X152118887Y-84650411D01*
X152142278Y-84678914D01*
X152162767Y-84709577D01*
X152188841Y-84735651D01*
X152212235Y-84764157D01*
X152240741Y-84787551D01*
X152266815Y-84813625D01*
X152297478Y-84834114D01*
X152325981Y-84857505D01*
X152358498Y-84874886D01*
X152389162Y-84895375D01*
X152423232Y-84909487D01*
X152455752Y-84926870D01*
X152491037Y-84937573D01*
X152525107Y-84951686D01*
X152561279Y-84958881D01*
X152596562Y-84969584D01*
X152633252Y-84973197D01*
X152669426Y-84980393D01*
X152706314Y-84980393D01*
X152742999Y-84984006D01*
X152779684Y-84980393D01*
X152816572Y-84980393D01*
X152852746Y-84973197D01*
X152889436Y-84969584D01*
X152924719Y-84958881D01*
X152960891Y-84951686D01*
X152994961Y-84937573D01*
X153030246Y-84926870D01*
X153062766Y-84909487D01*
X153096836Y-84895375D01*
X153127500Y-84874886D01*
X153160017Y-84857505D01*
X153188518Y-84834115D01*
X153219183Y-84813625D01*
X153323231Y-84709577D01*
X153932153Y-84100656D01*
X153932158Y-84100650D01*
X153958231Y-84074577D01*
X154567153Y-83465656D01*
X154567158Y-83465650D01*
X154593231Y-83439577D01*
X155202153Y-82830656D01*
X155202158Y-82830650D01*
X155338999Y-82693809D01*
X155338999Y-84654715D01*
X154635999Y-84654715D01*
X154567975Y-84661415D01*
X154502566Y-84681257D01*
X154442284Y-84713478D01*
X154389446Y-84756840D01*
X154346084Y-84809678D01*
X154313863Y-84869960D01*
X154294021Y-84935369D01*
X154287321Y-85003393D01*
X154287321Y-90403393D01*
X154294021Y-90471417D01*
X154313863Y-90536826D01*
X154346084Y-90597108D01*
X154389446Y-90649946D01*
X154442284Y-90693308D01*
X154502566Y-90725529D01*
X154567975Y-90745371D01*
X154635999Y-90752071D01*
X155537109Y-90752071D01*
X155555235Y-90774157D01*
X155583743Y-90797553D01*
X155912842Y-91126653D01*
X155936235Y-91155157D01*
X156049980Y-91248506D01*
X156179751Y-91317870D01*
X156320561Y-91360584D01*
X156430306Y-91371393D01*
X156430313Y-91371393D01*
X156466998Y-91375006D01*
X156503684Y-91371393D01*
X159839352Y-91371393D01*
X159801497Y-91442213D01*
X159765187Y-91561911D01*
X159752927Y-91686393D01*
X159755999Y-93700643D01*
X159914749Y-93859393D01*
X160813999Y-93859393D01*
X160813999Y-93839393D01*
X161067999Y-93839393D01*
X161067999Y-93859393D01*
X161087999Y-93859393D01*
X161087999Y-94113393D01*
X161067999Y-94113393D01*
X161067999Y-96762643D01*
X161226749Y-96921393D01*
X161490999Y-96924465D01*
X161615481Y-96912205D01*
X161735179Y-96875895D01*
X161845493Y-96816930D01*
X161942184Y-96737578D01*
X162021536Y-96640887D01*
X162027963Y-96628862D01*
X162090999Y-96635071D01*
X163190999Y-96635071D01*
X163254035Y-96628862D01*
X163260462Y-96640887D01*
X163339814Y-96737578D01*
X163436505Y-96816930D01*
X163546819Y-96875895D01*
X163666517Y-96912205D01*
X163790999Y-96924465D01*
X164055249Y-96921393D01*
X164213999Y-96762643D01*
X164213999Y-94113393D01*
X164193999Y-94113393D01*
X164193999Y-93859393D01*
X164213999Y-93859393D01*
X164213999Y-91210143D01*
X164055249Y-91051393D01*
X163790999Y-91048321D01*
X163666517Y-91060581D01*
X163546819Y-91096891D01*
X163436505Y-91155856D01*
X163387999Y-91195664D01*
X163387999Y-91120078D01*
X163391612Y-91083392D01*
X163387999Y-91046707D01*
X163387999Y-91046700D01*
X163377190Y-90936955D01*
X163334476Y-90796145D01*
X163265112Y-90666374D01*
X163171763Y-90552629D01*
X163143254Y-90529232D01*
X162786177Y-90172155D01*
X164055249Y-90171393D01*
X164213999Y-90012643D01*
X164213999Y-84963393D01*
X164467999Y-84963393D01*
X164467999Y-90012643D01*
X164626749Y-90171393D01*
X169740999Y-90174465D01*
X169865481Y-90162205D01*
X169985179Y-90125895D01*
X170095493Y-90066930D01*
X170192184Y-89987578D01*
X170271536Y-89890887D01*
X170330501Y-89780573D01*
X170366811Y-89660875D01*
X170379071Y-89536393D01*
X170377163Y-86794393D01*
X170637927Y-86794393D01*
X170650187Y-86918875D01*
X170686497Y-87038573D01*
X170745462Y-87148887D01*
X170824814Y-87245578D01*
X170921505Y-87324930D01*
X171031819Y-87383895D01*
X171151517Y-87420205D01*
X171275999Y-87432465D01*
X173190249Y-87429393D01*
X173348999Y-87270643D01*
X173348999Y-85671393D01*
X173602999Y-85671393D01*
X173602999Y-87270643D01*
X173761749Y-87429393D01*
X175675999Y-87432465D01*
X175800481Y-87420205D01*
X175920179Y-87383895D01*
X176030493Y-87324930D01*
X176127184Y-87245578D01*
X176206536Y-87148887D01*
X176265501Y-87038573D01*
X176301811Y-86918875D01*
X176314071Y-86794393D01*
X176310999Y-85830143D01*
X176152249Y-85671393D01*
X173602999Y-85671393D01*
X173348999Y-85671393D01*
X170799749Y-85671393D01*
X170640999Y-85830143D01*
X170637927Y-86794393D01*
X170377163Y-86794393D01*
X170375999Y-85122143D01*
X170217249Y-84963393D01*
X164467999Y-84963393D01*
X164213999Y-84963393D01*
X158464749Y-84963393D01*
X158305999Y-85122143D01*
X158302927Y-89536393D01*
X158315187Y-89660875D01*
X158351497Y-89780573D01*
X158403249Y-89877393D01*
X157884677Y-89877393D01*
X157884677Y-85003393D01*
X157877977Y-84935369D01*
X157858135Y-84869960D01*
X157825914Y-84809678D01*
X157782552Y-84756840D01*
X157729714Y-84713478D01*
X157669432Y-84681257D01*
X157604023Y-84661415D01*
X157535999Y-84654715D01*
X156832999Y-84654715D01*
X156832999Y-82406078D01*
X156836612Y-82369393D01*
X156832999Y-82332707D01*
X156832999Y-82332700D01*
X156822190Y-82222955D01*
X156779476Y-82082145D01*
X156710112Y-81952374D01*
X156616763Y-81838629D01*
X156588261Y-81815238D01*
X155878159Y-81105137D01*
X155854763Y-81076629D01*
X155826261Y-81053238D01*
X154909416Y-80136393D01*
X158302927Y-80136393D01*
X158305999Y-84550643D01*
X158464749Y-84709393D01*
X164213999Y-84709393D01*
X164213999Y-79660143D01*
X164467999Y-79660143D01*
X164467999Y-84709393D01*
X170217249Y-84709393D01*
X170375999Y-84550643D01*
X170376177Y-84294393D01*
X170637927Y-84294393D01*
X170640999Y-85258643D01*
X170799749Y-85417393D01*
X173348999Y-85417393D01*
X173348999Y-83818143D01*
X173602999Y-83818143D01*
X173602999Y-85417393D01*
X176152249Y-85417393D01*
X176310999Y-85258643D01*
X176314071Y-84294393D01*
X176301811Y-84169911D01*
X176265501Y-84050213D01*
X176206536Y-83939899D01*
X176127184Y-83843208D01*
X176030493Y-83763856D01*
X175920179Y-83704891D01*
X175800481Y-83668581D01*
X175675999Y-83656321D01*
X173761749Y-83659393D01*
X173602999Y-83818143D01*
X173348999Y-83818143D01*
X173190249Y-83659393D01*
X171275999Y-83656321D01*
X171151517Y-83668581D01*
X171031819Y-83704891D01*
X170921505Y-83763856D01*
X170824814Y-83843208D01*
X170745462Y-83939899D01*
X170686497Y-84050213D01*
X170650187Y-84169911D01*
X170637927Y-84294393D01*
X170376177Y-84294393D01*
X170379071Y-80136393D01*
X170366811Y-80011911D01*
X170330501Y-79892213D01*
X170271536Y-79781899D01*
X170192184Y-79685208D01*
X170095493Y-79605856D01*
X169985179Y-79546891D01*
X169865481Y-79510581D01*
X169740999Y-79498321D01*
X164626749Y-79501393D01*
X164467999Y-79660143D01*
X164213999Y-79660143D01*
X164055249Y-79501393D01*
X158940999Y-79498321D01*
X158816517Y-79510581D01*
X158696819Y-79546891D01*
X158586505Y-79605856D01*
X158489814Y-79685208D01*
X158410462Y-79781899D01*
X158351497Y-79892213D01*
X158315187Y-80011911D01*
X158302927Y-80136393D01*
X154909416Y-80136393D01*
X153899677Y-79126655D01*
X153899677Y-78217393D01*
X153888174Y-78100597D01*
X153854105Y-77988289D01*
X153798782Y-77884785D01*
X153724328Y-77794064D01*
X153633607Y-77719610D01*
X153530103Y-77664287D01*
X153417795Y-77630218D01*
X153300999Y-77618715D01*
X151250999Y-77618715D01*
X151134203Y-77630218D01*
X151021895Y-77664287D01*
X150918391Y-77719610D01*
X150827670Y-77794064D01*
X150753216Y-77884785D01*
X150697893Y-77988289D01*
X150663824Y-78100597D01*
X150652321Y-78217393D01*
X142841999Y-78217393D01*
X142841999Y-75333592D01*
X143073472Y-75333592D01*
X143073472Y-75719192D01*
X143148698Y-76097382D01*
X143296261Y-76453629D01*
X143510488Y-76774244D01*
X143783148Y-77046904D01*
X144103763Y-77261131D01*
X144460010Y-77408694D01*
X144838200Y-77483920D01*
X145223800Y-77483920D01*
X145601990Y-77408694D01*
X145958237Y-77261131D01*
X146278852Y-77046904D01*
X146482563Y-76843193D01*
X156478327Y-76843193D01*
X156490587Y-76967675D01*
X156526897Y-77087373D01*
X156585862Y-77197687D01*
X156665214Y-77294378D01*
X156761905Y-77373730D01*
X156872219Y-77432695D01*
X156991917Y-77469005D01*
X157116399Y-77481265D01*
X157730649Y-77478193D01*
X157889399Y-77319443D01*
X157889399Y-76070193D01*
X156640149Y-76070193D01*
X156481399Y-76228943D01*
X156478327Y-76843193D01*
X146482563Y-76843193D01*
X146551512Y-76774244D01*
X146765739Y-76453629D01*
X146913302Y-76097382D01*
X146988528Y-75719192D01*
X146988528Y-75333592D01*
X146930765Y-75043193D01*
X156478327Y-75043193D01*
X156481399Y-75657443D01*
X156640149Y-75816193D01*
X157889399Y-75816193D01*
X157889399Y-74566943D01*
X158143399Y-74566943D01*
X158143399Y-75816193D01*
X158163399Y-75816193D01*
X158163399Y-76070193D01*
X158143399Y-76070193D01*
X158143399Y-77319443D01*
X158302149Y-77478193D01*
X158916399Y-77481265D01*
X159040881Y-77469005D01*
X159160579Y-77432695D01*
X159270893Y-77373730D01*
X159367584Y-77294378D01*
X159446936Y-77197687D01*
X159505901Y-77087373D01*
X159542211Y-76967675D01*
X159554471Y-76843193D01*
X159553976Y-76744294D01*
X159721483Y-76911801D01*
X159925723Y-77048270D01*
X160152662Y-77142272D01*
X160393580Y-77190193D01*
X160639218Y-77190193D01*
X160880136Y-77142272D01*
X161107075Y-77048270D01*
X161311315Y-76911801D01*
X161485007Y-76738109D01*
X161621476Y-76533869D01*
X161715478Y-76306930D01*
X161763399Y-76066012D01*
X161763399Y-75820374D01*
X161769399Y-75820374D01*
X161769399Y-76066012D01*
X161817320Y-76306930D01*
X161911322Y-76533869D01*
X162047791Y-76738109D01*
X162221483Y-76911801D01*
X162425723Y-77048270D01*
X162652662Y-77142272D01*
X162893580Y-77190193D01*
X163139218Y-77190193D01*
X163380136Y-77142272D01*
X163607075Y-77048270D01*
X163811315Y-76911801D01*
X163985007Y-76738109D01*
X164121476Y-76533869D01*
X164215478Y-76306930D01*
X164263399Y-76066012D01*
X164263399Y-75820374D01*
X164215478Y-75579456D01*
X164121476Y-75352517D01*
X163985007Y-75148277D01*
X163811315Y-74974585D01*
X163607075Y-74838116D01*
X163380136Y-74744114D01*
X163139218Y-74696193D01*
X162893580Y-74696193D01*
X162652662Y-74744114D01*
X162425723Y-74838116D01*
X162221483Y-74974585D01*
X162047791Y-75148277D01*
X161911322Y-75352517D01*
X161817320Y-75579456D01*
X161769399Y-75820374D01*
X161763399Y-75820374D01*
X161715478Y-75579456D01*
X161621476Y-75352517D01*
X161485007Y-75148277D01*
X161311315Y-74974585D01*
X161107075Y-74838116D01*
X160880136Y-74744114D01*
X160639218Y-74696193D01*
X160393580Y-74696193D01*
X160152662Y-74744114D01*
X159925723Y-74838116D01*
X159721483Y-74974585D01*
X159553976Y-75142092D01*
X159554471Y-75043193D01*
X159542211Y-74918711D01*
X159505901Y-74799013D01*
X159446936Y-74688699D01*
X159367584Y-74592008D01*
X159270893Y-74512656D01*
X159160579Y-74453691D01*
X159040881Y-74417381D01*
X158916399Y-74405121D01*
X158302149Y-74408193D01*
X158143399Y-74566943D01*
X157889399Y-74566943D01*
X157730649Y-74408193D01*
X157116399Y-74405121D01*
X156991917Y-74417381D01*
X156872219Y-74453691D01*
X156761905Y-74512656D01*
X156665214Y-74592008D01*
X156585862Y-74688699D01*
X156526897Y-74799013D01*
X156490587Y-74918711D01*
X156478327Y-75043193D01*
X146930765Y-75043193D01*
X146913302Y-74955402D01*
X146765739Y-74599155D01*
X146551512Y-74278540D01*
X146278852Y-74005880D01*
X145996760Y-73817393D01*
X150362927Y-73817393D01*
X150375187Y-73941875D01*
X150411497Y-74061573D01*
X150470462Y-74171887D01*
X150549814Y-74268578D01*
X150646505Y-74347930D01*
X150756819Y-74406895D01*
X150876517Y-74443205D01*
X151000999Y-74455465D01*
X151990249Y-74452393D01*
X152148999Y-74293643D01*
X152148999Y-72906893D01*
X152402999Y-72906893D01*
X152402999Y-74293643D01*
X152561749Y-74452393D01*
X153550999Y-74455465D01*
X153675481Y-74443205D01*
X153795179Y-74406895D01*
X153905493Y-74347930D01*
X154002184Y-74268578D01*
X154081536Y-74171887D01*
X154140501Y-74061573D01*
X154176811Y-73941875D01*
X154189071Y-73817393D01*
X154185999Y-73065643D01*
X154027249Y-72906893D01*
X152402999Y-72906893D01*
X152148999Y-72906893D01*
X150524749Y-72906893D01*
X150365999Y-73065643D01*
X150362927Y-73817393D01*
X145996760Y-73817393D01*
X145958237Y-73791653D01*
X145601990Y-73644090D01*
X145223800Y-73568864D01*
X144838200Y-73568864D01*
X144460010Y-73644090D01*
X144103763Y-73791653D01*
X143783148Y-74005880D01*
X143510488Y-74278540D01*
X143296261Y-74599155D01*
X143148698Y-74955402D01*
X143073472Y-75333592D01*
X142841999Y-75333592D01*
X142841999Y-73166901D01*
X144266507Y-71742393D01*
X150362927Y-71742393D01*
X150365999Y-72494143D01*
X150524749Y-72652893D01*
X152148999Y-72652893D01*
X152148999Y-71266143D01*
X152402999Y-71266143D01*
X152402999Y-72652893D01*
X154027249Y-72652893D01*
X154185999Y-72494143D01*
X154189071Y-71742393D01*
X154176811Y-71617911D01*
X154140501Y-71498213D01*
X154081536Y-71387899D01*
X154002184Y-71291208D01*
X153905493Y-71211856D01*
X153795179Y-71152891D01*
X153675481Y-71116581D01*
X153550999Y-71104321D01*
X152561749Y-71107393D01*
X152402999Y-71266143D01*
X152148999Y-71266143D01*
X151990249Y-71107393D01*
X151000999Y-71104321D01*
X150876517Y-71116581D01*
X150756819Y-71152891D01*
X150646505Y-71211856D01*
X150549814Y-71291208D01*
X150470462Y-71387899D01*
X150411497Y-71498213D01*
X150375187Y-71617911D01*
X150362927Y-71742393D01*
X144266507Y-71742393D01*
X147796866Y-68212034D01*
X153419399Y-68212034D01*
X153419399Y-68674352D01*
X153509593Y-69127788D01*
X153686515Y-69554914D01*
X153943365Y-69939318D01*
X154270274Y-70266227D01*
X154654678Y-70523077D01*
X155081804Y-70699999D01*
X155535240Y-70790193D01*
X155997558Y-70790193D01*
X156450994Y-70699999D01*
X156878120Y-70523077D01*
X157262524Y-70266227D01*
X157589433Y-69939318D01*
X157846283Y-69554914D01*
X158023205Y-69127788D01*
X158113399Y-68674352D01*
X158113399Y-68212034D01*
X158023205Y-67758598D01*
X157846283Y-67331472D01*
X157589433Y-66947068D01*
X157262524Y-66620159D01*
X156878120Y-66363309D01*
X156450994Y-66186387D01*
X155997558Y-66096193D01*
X155535240Y-66096193D01*
X155081804Y-66186387D01*
X154654678Y-66363309D01*
X154270274Y-66620159D01*
X153943365Y-66947068D01*
X153686515Y-67331472D01*
X153509593Y-67758598D01*
X153419399Y-68212034D01*
X147796866Y-68212034D01*
X148387490Y-67621411D01*
X148392426Y-67622393D01*
X148539572Y-67622393D01*
X148683891Y-67593686D01*
X148819836Y-67537375D01*
X148942183Y-67455625D01*
X149046231Y-67351577D01*
X149127981Y-67229230D01*
X149184292Y-67093285D01*
X149212999Y-66948966D01*
X149212999Y-66801820D01*
X149184292Y-66657501D01*
X149139098Y-66548394D01*
X150314820Y-66548394D01*
X150338000Y-66550677D01*
X150361180Y-66548394D01*
X150430528Y-66541564D01*
X150519500Y-66514574D01*
X150601498Y-66470746D01*
X150673369Y-66411763D01*
X150688151Y-66393751D01*
X151032362Y-66049541D01*
X151050369Y-66034763D01*
X151109352Y-65962892D01*
X151153180Y-65880894D01*
X151180170Y-65791922D01*
X151183409Y-65759031D01*
X151189283Y-65699394D01*
X151187000Y-65676214D01*
X151187000Y-65145898D01*
X151204504Y-65128394D01*
X151233017Y-65197230D01*
X151314767Y-65319577D01*
X151418815Y-65423625D01*
X151541162Y-65505375D01*
X151677107Y-65561686D01*
X151821426Y-65590393D01*
X151968572Y-65590393D01*
X152112891Y-65561686D01*
X152248836Y-65505375D01*
X152371183Y-65423625D01*
X152475231Y-65319577D01*
X152478027Y-65315393D01*
X156643173Y-65315393D01*
X157848544Y-66520765D01*
X157863322Y-66538772D01*
X157881327Y-66553548D01*
X157935193Y-66597755D01*
X158017191Y-66641583D01*
X158106163Y-66668573D01*
X158198691Y-66677686D01*
X158221871Y-66675403D01*
X163715030Y-66675403D01*
X163443365Y-66947068D01*
X163186515Y-67331472D01*
X163009593Y-67758598D01*
X162919399Y-68212034D01*
X162919399Y-68674352D01*
X163009593Y-69127788D01*
X163186515Y-69554914D01*
X163443365Y-69939318D01*
X163770274Y-70266227D01*
X164154678Y-70523077D01*
X164581804Y-70699999D01*
X165035240Y-70790193D01*
X165497558Y-70790193D01*
X165950994Y-70699999D01*
X166378120Y-70523077D01*
X166762524Y-70266227D01*
X167089433Y-69939318D01*
X167346283Y-69554914D01*
X167523205Y-69127788D01*
X167613399Y-68674352D01*
X167613399Y-68212034D01*
X167523205Y-67758598D01*
X167346283Y-67331472D01*
X167089433Y-66947068D01*
X166762524Y-66620159D01*
X166378120Y-66363309D01*
X165950994Y-66186387D01*
X165497558Y-66096193D01*
X165035240Y-66096193D01*
X164581804Y-66186387D01*
X164551122Y-66199096D01*
X166666544Y-64083675D01*
X166684551Y-64068897D01*
X166743534Y-63997026D01*
X166787362Y-63915028D01*
X166814352Y-63826056D01*
X166821182Y-63756708D01*
X166821182Y-63756707D01*
X166823465Y-63733528D01*
X166821182Y-63710348D01*
X166821182Y-63411548D01*
X167033146Y-63623512D01*
X167353761Y-63837739D01*
X167710008Y-63985302D01*
X168088198Y-64060528D01*
X168473798Y-64060528D01*
X168851988Y-63985302D01*
X169208235Y-63837739D01*
X169528850Y-63623512D01*
X169801510Y-63350852D01*
X170015737Y-63030237D01*
X170163300Y-62673990D01*
X170238526Y-62295800D01*
X170238526Y-61910200D01*
X170163300Y-61532010D01*
X170015737Y-61175763D01*
X169801510Y-60855148D01*
X169528850Y-60582488D01*
X169208235Y-60368261D01*
X168851988Y-60220698D01*
X168473798Y-60145472D01*
X168088198Y-60145472D01*
X167710008Y-60220698D01*
X167697000Y-60226086D01*
X167697000Y-58344827D01*
X167699283Y-58321649D01*
X167696813Y-58296573D01*
X167690170Y-58229122D01*
X167663180Y-58140150D01*
X167619352Y-58058152D01*
X167560369Y-57986281D01*
X167542352Y-57971495D01*
X167392734Y-57821876D01*
X167392730Y-57821873D01*
X167201897Y-57631038D01*
X167187113Y-57613024D01*
X167115242Y-57554041D01*
X167033244Y-57510213D01*
X166944272Y-57483223D01*
X166874924Y-57476393D01*
X166874922Y-57476393D01*
X166851745Y-57474110D01*
X166828565Y-57476393D01*
X165552508Y-57476393D01*
X163309017Y-55232903D01*
X163309999Y-55227966D01*
X163309999Y-55080820D01*
X163281292Y-54936501D01*
X163266750Y-54901393D01*
X171638491Y-54901393D01*
X172230981Y-55493884D01*
X172229999Y-55498820D01*
X172229999Y-55645966D01*
X172258706Y-55790285D01*
X172315017Y-55926230D01*
X172396767Y-56048577D01*
X172500815Y-56152625D01*
X172623162Y-56234375D01*
X172759107Y-56290686D01*
X172903426Y-56319393D01*
X173050572Y-56319393D01*
X173194891Y-56290686D01*
X173330836Y-56234375D01*
X173453183Y-56152625D01*
X173557231Y-56048577D01*
X173638981Y-55926230D01*
X173695292Y-55790285D01*
X173723999Y-55645966D01*
X173723999Y-55498820D01*
X173695292Y-55354501D01*
X173638981Y-55218556D01*
X173557231Y-55096209D01*
X173453183Y-54992161D01*
X173330836Y-54910411D01*
X173194891Y-54854100D01*
X173050572Y-54825393D01*
X172903426Y-54825393D01*
X172898490Y-54826375D01*
X172465507Y-54393393D01*
X174851357Y-54393393D01*
X174855017Y-54402230D01*
X174936767Y-54524577D01*
X175040815Y-54628625D01*
X175163162Y-54710375D01*
X175299107Y-54766686D01*
X175443426Y-54795393D01*
X175590572Y-54795393D01*
X175734891Y-54766686D01*
X175870836Y-54710375D01*
X175993183Y-54628625D01*
X176097231Y-54524577D01*
X176178981Y-54402230D01*
X176207494Y-54333395D01*
X176822999Y-54948900D01*
X176823000Y-60543859D01*
X176696107Y-60569100D01*
X176560162Y-60625411D01*
X176437815Y-60707161D01*
X176333767Y-60811209D01*
X176252017Y-60933556D01*
X176195706Y-61069501D01*
X176166999Y-61213820D01*
X176166999Y-61360966D01*
X176195706Y-61505285D01*
X176252017Y-61641230D01*
X176333767Y-61763577D01*
X176437815Y-61867625D01*
X176560162Y-61949375D01*
X176696107Y-62005686D01*
X176840426Y-62034393D01*
X176874107Y-62034393D01*
X176874107Y-62068074D01*
X176902814Y-62212393D01*
X176959125Y-62348338D01*
X177040875Y-62470685D01*
X177144923Y-62574733D01*
X177267270Y-62656483D01*
X177403215Y-62712794D01*
X177547534Y-62741501D01*
X177636613Y-62741501D01*
X177592706Y-62847501D01*
X177563999Y-62991820D01*
X177563999Y-63138966D01*
X177592706Y-63283285D01*
X177649017Y-63419230D01*
X177730767Y-63541577D01*
X177834815Y-63645625D01*
X177957162Y-63727375D01*
X178093107Y-63783686D01*
X178237426Y-63812393D01*
X178384572Y-63812393D01*
X178528891Y-63783686D01*
X178664836Y-63727375D01*
X178727999Y-63685171D01*
X178727999Y-64185213D01*
X178725716Y-64208393D01*
X178727999Y-64231572D01*
X178734829Y-64300920D01*
X178761819Y-64389892D01*
X178805647Y-64471891D01*
X178864630Y-64543762D01*
X178882642Y-64558544D01*
X180500852Y-66176755D01*
X180515630Y-66194762D01*
X180557828Y-66229393D01*
X180587501Y-66253745D01*
X180669499Y-66297573D01*
X180758471Y-66324563D01*
X180850999Y-66333676D01*
X180874179Y-66331393D01*
X181052328Y-66331393D01*
X181061863Y-66362826D01*
X181094084Y-66423108D01*
X181137446Y-66475946D01*
X181159924Y-66494393D01*
X181137446Y-66512840D01*
X181094084Y-66565678D01*
X181061863Y-66625960D01*
X181052328Y-66657393D01*
X170714178Y-66657393D01*
X170690998Y-66655110D01*
X170601182Y-66663956D01*
X170598471Y-66664223D01*
X170509499Y-66691213D01*
X170427501Y-66735041D01*
X170355630Y-66794024D01*
X170340852Y-66812031D01*
X168610509Y-68542375D01*
X168605572Y-68541393D01*
X168458426Y-68541393D01*
X168314107Y-68570100D01*
X168178162Y-68626411D01*
X168055815Y-68708161D01*
X167951767Y-68812209D01*
X167870017Y-68934556D01*
X167813706Y-69070501D01*
X167784999Y-69214820D01*
X167784999Y-69361966D01*
X167813706Y-69506285D01*
X167870017Y-69642230D01*
X167951767Y-69764577D01*
X168055815Y-69868625D01*
X168178162Y-69950375D01*
X168314107Y-70006686D01*
X168458426Y-70035393D01*
X168605572Y-70035393D01*
X168749891Y-70006686D01*
X168885836Y-69950375D01*
X169008183Y-69868625D01*
X169103499Y-69773309D01*
X169139968Y-69809778D01*
X169262315Y-69891528D01*
X169374066Y-69937818D01*
X167738491Y-71573393D01*
X166448027Y-71573393D01*
X166445231Y-71569209D01*
X166341183Y-71465161D01*
X166218836Y-71383411D01*
X166082891Y-71327100D01*
X165938572Y-71298393D01*
X165791426Y-71298393D01*
X165647107Y-71327100D01*
X165511162Y-71383411D01*
X165388815Y-71465161D01*
X165284767Y-71569209D01*
X165203017Y-71691556D01*
X165146706Y-71827501D01*
X165117999Y-71971820D01*
X165117999Y-72111004D01*
X165049572Y-72097393D01*
X164902426Y-72097393D01*
X164758107Y-72126100D01*
X164622162Y-72182411D01*
X164499815Y-72264161D01*
X164395767Y-72368209D01*
X164314017Y-72490556D01*
X164257706Y-72626501D01*
X164228999Y-72770820D01*
X164228999Y-72917966D01*
X164257706Y-73062285D01*
X164314017Y-73198230D01*
X164395767Y-73320577D01*
X164499815Y-73424625D01*
X164622162Y-73506375D01*
X164758107Y-73562686D01*
X164902426Y-73591393D01*
X164990999Y-73591393D01*
X164990999Y-73679966D01*
X165019706Y-73824285D01*
X165076017Y-73960230D01*
X165157767Y-74082577D01*
X165261815Y-74186625D01*
X165384162Y-74268375D01*
X165520107Y-74324686D01*
X165664426Y-74353393D01*
X165811572Y-74353393D01*
X165955891Y-74324686D01*
X166091836Y-74268375D01*
X166214183Y-74186625D01*
X166318231Y-74082577D01*
X166321027Y-74078393D01*
X174710634Y-74078393D01*
X174510486Y-74278541D01*
X174296259Y-74599156D01*
X174148696Y-74955403D01*
X174073470Y-75333593D01*
X174073470Y-75719193D01*
X174148696Y-76097383D01*
X174296259Y-76453630D01*
X174510486Y-76774245D01*
X174783146Y-77046905D01*
X175103761Y-77261132D01*
X175460008Y-77408695D01*
X175838198Y-77483921D01*
X176223798Y-77483921D01*
X176601988Y-77408695D01*
X176958235Y-77261132D01*
X177278850Y-77046905D01*
X177551510Y-76774245D01*
X177765737Y-76453630D01*
X177913300Y-76097383D01*
X177988526Y-75719193D01*
X177988526Y-75333593D01*
X177913300Y-74955403D01*
X177765737Y-74599156D01*
X177551510Y-74278541D01*
X177346849Y-74073880D01*
X179395433Y-74073880D01*
X179441255Y-74078393D01*
X179441257Y-74078393D01*
X179464434Y-74080676D01*
X179487612Y-74078393D01*
X179505971Y-74078393D01*
X179508767Y-74082577D01*
X179612815Y-74186625D01*
X179735162Y-74268375D01*
X179871107Y-74324686D01*
X180015426Y-74353393D01*
X180162572Y-74353393D01*
X180306891Y-74324686D01*
X180442836Y-74268375D01*
X180565183Y-74186625D01*
X180669231Y-74082577D01*
X180750981Y-73960230D01*
X180807292Y-73824285D01*
X180835999Y-73679966D01*
X180835999Y-73532820D01*
X180807292Y-73388501D01*
X180750981Y-73252556D01*
X180669231Y-73130209D01*
X180565183Y-73026161D01*
X180442836Y-72944411D01*
X180306891Y-72888100D01*
X180162572Y-72859393D01*
X180053805Y-72859393D01*
X180055282Y-72844393D01*
X180052999Y-72821213D01*
X180052999Y-72579393D01*
X180745927Y-72579393D01*
X180758187Y-72703875D01*
X180794497Y-72823573D01*
X180853462Y-72933887D01*
X180932814Y-73030578D01*
X181029505Y-73109930D01*
X181139819Y-73168895D01*
X181259517Y-73205205D01*
X181383999Y-73217465D01*
X182298249Y-73214393D01*
X182456999Y-73055643D01*
X182456999Y-72336393D01*
X182710999Y-72336393D01*
X182710999Y-73055643D01*
X182869749Y-73214393D01*
X183783999Y-73217465D01*
X183908481Y-73205205D01*
X184028179Y-73168895D01*
X184138493Y-73109930D01*
X184235184Y-73030578D01*
X184314536Y-72933887D01*
X184373501Y-72823573D01*
X184409811Y-72703875D01*
X184422071Y-72579393D01*
X184418999Y-72495143D01*
X184260249Y-72336393D01*
X182710999Y-72336393D01*
X182456999Y-72336393D01*
X180907749Y-72336393D01*
X180748999Y-72495143D01*
X180745927Y-72579393D01*
X180052999Y-72579393D01*
X180052999Y-72240035D01*
X180061836Y-72236375D01*
X180184183Y-72154625D01*
X180288231Y-72050577D01*
X180369981Y-71928230D01*
X180426292Y-71792285D01*
X180454999Y-71647966D01*
X180454999Y-71500820D01*
X180426292Y-71356501D01*
X180406779Y-71309393D01*
X180745927Y-71309393D01*
X180758187Y-71433875D01*
X180794497Y-71553573D01*
X180805626Y-71574393D01*
X180794497Y-71595213D01*
X180758187Y-71714911D01*
X180745927Y-71839393D01*
X180748999Y-71923643D01*
X180907749Y-72082393D01*
X182456999Y-72082393D01*
X182456999Y-71066393D01*
X182710999Y-71066393D01*
X182710999Y-72082393D01*
X184260249Y-72082393D01*
X184418999Y-71923643D01*
X184422071Y-71839393D01*
X184409811Y-71714911D01*
X184373501Y-71595213D01*
X184362372Y-71574393D01*
X184373501Y-71553573D01*
X184409811Y-71433875D01*
X184422071Y-71309393D01*
X184418999Y-71225143D01*
X184260249Y-71066393D01*
X182710999Y-71066393D01*
X182456999Y-71066393D01*
X180907749Y-71066393D01*
X180748999Y-71225143D01*
X180745927Y-71309393D01*
X180406779Y-71309393D01*
X180369981Y-71220556D01*
X180288231Y-71098209D01*
X180184183Y-70994161D01*
X180061836Y-70912411D01*
X179925891Y-70856100D01*
X179781572Y-70827393D01*
X179634426Y-70827393D01*
X179490107Y-70856100D01*
X179354162Y-70912411D01*
X179231815Y-70994161D01*
X179127767Y-71098209D01*
X179046017Y-71220556D01*
X178989706Y-71356501D01*
X178960999Y-71500820D01*
X178960999Y-71647966D01*
X178989706Y-71792285D01*
X179046017Y-71928230D01*
X179109000Y-72022490D01*
X179108999Y-72372393D01*
X168276236Y-72372393D01*
X168284150Y-72362750D01*
X170505507Y-70141393D01*
X172669575Y-70141393D01*
X172639706Y-70213501D01*
X172610999Y-70357820D01*
X172610999Y-70504966D01*
X172639706Y-70649285D01*
X172696017Y-70785230D01*
X172777767Y-70907577D01*
X172881815Y-71011625D01*
X173004162Y-71093375D01*
X173140107Y-71149686D01*
X173284426Y-71178393D01*
X173431572Y-71178393D01*
X173575891Y-71149686D01*
X173711836Y-71093375D01*
X173834183Y-71011625D01*
X173938231Y-70907577D01*
X174019981Y-70785230D01*
X174076292Y-70649285D01*
X174104999Y-70504966D01*
X174104999Y-70357820D01*
X174076292Y-70213501D01*
X174046423Y-70141393D01*
X180913787Y-70141393D01*
X180853462Y-70214899D01*
X180794497Y-70325213D01*
X180758187Y-70444911D01*
X180745927Y-70569393D01*
X180748999Y-70653643D01*
X180907749Y-70812393D01*
X182456999Y-70812393D01*
X182456999Y-70792393D01*
X182710999Y-70792393D01*
X182710999Y-70812393D01*
X184260249Y-70812393D01*
X184418999Y-70653643D01*
X184422071Y-70569393D01*
X184409811Y-70444911D01*
X184373501Y-70325213D01*
X184314536Y-70214899D01*
X184235184Y-70118208D01*
X184138493Y-70038856D01*
X184132677Y-70035747D01*
X184132677Y-69299393D01*
X184125977Y-69231369D01*
X184106135Y-69165960D01*
X184073914Y-69105678D01*
X184030552Y-69052840D01*
X184008074Y-69034393D01*
X184030552Y-69015946D01*
X184073914Y-68963108D01*
X184106135Y-68902826D01*
X184125977Y-68837417D01*
X184132677Y-68769393D01*
X184132677Y-68029393D01*
X184125977Y-67961369D01*
X184106135Y-67895960D01*
X184073914Y-67835678D01*
X184030552Y-67782840D01*
X184008074Y-67764393D01*
X184030552Y-67745946D01*
X184073914Y-67693108D01*
X184106135Y-67632826D01*
X184125977Y-67567417D01*
X184132677Y-67499393D01*
X184132677Y-66759393D01*
X184125977Y-66691369D01*
X184106135Y-66625960D01*
X184073914Y-66565678D01*
X184030552Y-66512840D01*
X184008074Y-66494393D01*
X184030552Y-66475946D01*
X184073914Y-66423108D01*
X184106135Y-66362826D01*
X184125977Y-66297417D01*
X184132677Y-66229393D01*
X184132677Y-65489393D01*
X184125977Y-65421369D01*
X184106135Y-65355960D01*
X184073914Y-65295678D01*
X184030552Y-65242840D01*
X184008074Y-65224393D01*
X184030552Y-65205946D01*
X184073914Y-65153108D01*
X184106135Y-65092826D01*
X184125977Y-65027417D01*
X184132677Y-64959393D01*
X184132677Y-64219393D01*
X184125977Y-64151369D01*
X184106135Y-64085960D01*
X184073914Y-64025678D01*
X184030552Y-63972840D01*
X184008074Y-63954393D01*
X184030552Y-63935946D01*
X184073914Y-63883108D01*
X184106135Y-63822826D01*
X184125977Y-63757417D01*
X184132677Y-63689393D01*
X184132677Y-62949393D01*
X184125977Y-62881369D01*
X184106135Y-62815960D01*
X184073914Y-62755678D01*
X184030552Y-62702840D01*
X183977714Y-62659478D01*
X183917432Y-62627257D01*
X183852023Y-62607415D01*
X183783999Y-62600715D01*
X181383999Y-62600715D01*
X181315975Y-62607415D01*
X181250566Y-62627257D01*
X181190284Y-62659478D01*
X181137446Y-62702840D01*
X181123041Y-62720393D01*
X181053027Y-62720393D01*
X181050231Y-62716209D01*
X180946183Y-62612161D01*
X180823836Y-62530411D01*
X180687891Y-62474100D01*
X180543572Y-62445393D01*
X180396426Y-62445393D01*
X180252107Y-62474100D01*
X180179999Y-62503969D01*
X180179999Y-60891171D01*
X180243162Y-60933375D01*
X180379107Y-60989686D01*
X180523426Y-61018393D01*
X180670572Y-61018393D01*
X180814891Y-60989686D01*
X180950836Y-60933375D01*
X181073183Y-60851625D01*
X181177231Y-60747577D01*
X181180027Y-60743393D01*
X184338491Y-60743393D01*
X186011999Y-62416901D01*
X186011999Y-62600715D01*
X185283999Y-62600715D01*
X185215975Y-62607415D01*
X185150566Y-62627257D01*
X185090284Y-62659478D01*
X185037446Y-62702840D01*
X184994084Y-62755678D01*
X184961863Y-62815960D01*
X184942021Y-62881369D01*
X184935321Y-62949393D01*
X184935321Y-63689393D01*
X184942021Y-63757417D01*
X184961863Y-63822826D01*
X184994084Y-63883108D01*
X185037446Y-63935946D01*
X185059924Y-63954393D01*
X185037446Y-63972840D01*
X184994084Y-64025678D01*
X184961863Y-64085960D01*
X184942021Y-64151369D01*
X184935321Y-64219393D01*
X184935321Y-64959393D01*
X184942021Y-65027417D01*
X184961863Y-65092826D01*
X184994084Y-65153108D01*
X185037446Y-65205946D01*
X185059924Y-65224393D01*
X185037446Y-65242840D01*
X184994084Y-65295678D01*
X184961863Y-65355960D01*
X184942021Y-65421369D01*
X184935321Y-65489393D01*
X184935321Y-66229393D01*
X184942021Y-66297417D01*
X184961863Y-66362826D01*
X184994084Y-66423108D01*
X185037446Y-66475946D01*
X185059924Y-66494393D01*
X185037446Y-66512840D01*
X184994084Y-66565678D01*
X184961863Y-66625960D01*
X184942021Y-66691369D01*
X184935321Y-66759393D01*
X184935321Y-67499393D01*
X184942021Y-67567417D01*
X184961863Y-67632826D01*
X184994084Y-67693108D01*
X185037446Y-67745946D01*
X185059924Y-67764393D01*
X185037446Y-67782840D01*
X184994084Y-67835678D01*
X184961863Y-67895960D01*
X184942021Y-67961369D01*
X184935321Y-68029393D01*
X184935321Y-68769393D01*
X184942021Y-68837417D01*
X184961863Y-68902826D01*
X184994084Y-68963108D01*
X185037446Y-69015946D01*
X185059924Y-69034393D01*
X185037446Y-69052840D01*
X184994084Y-69105678D01*
X184961863Y-69165960D01*
X184942021Y-69231369D01*
X184935321Y-69299393D01*
X184935321Y-70039393D01*
X184942021Y-70107417D01*
X184961863Y-70172826D01*
X184994084Y-70233108D01*
X185037446Y-70285946D01*
X185059924Y-70304393D01*
X185037446Y-70322840D01*
X184994084Y-70375678D01*
X184961863Y-70435960D01*
X184942021Y-70501369D01*
X184935321Y-70569393D01*
X184935321Y-71309393D01*
X184942021Y-71377417D01*
X184961863Y-71442826D01*
X184994084Y-71503108D01*
X185037446Y-71555946D01*
X185059924Y-71574393D01*
X185037446Y-71592840D01*
X184994084Y-71645678D01*
X184961863Y-71705960D01*
X184942021Y-71771369D01*
X184935321Y-71839393D01*
X184935321Y-72579393D01*
X184942021Y-72647417D01*
X184961863Y-72712826D01*
X184994084Y-72773108D01*
X185037446Y-72825946D01*
X185090284Y-72869308D01*
X185150566Y-72901529D01*
X185215975Y-72921371D01*
X185283999Y-72928071D01*
X185736999Y-72928071D01*
X185737000Y-80626975D01*
X182418261Y-83945715D01*
X179925999Y-83945715D01*
X179809203Y-83957218D01*
X179696895Y-83991287D01*
X179593391Y-84046610D01*
X179502670Y-84121064D01*
X179428216Y-84211785D01*
X179372893Y-84315289D01*
X179338824Y-84427597D01*
X179327321Y-84544393D01*
X179327321Y-86544393D01*
X179338824Y-86661189D01*
X179372893Y-86773497D01*
X179428216Y-86877001D01*
X179502670Y-86967722D01*
X179593391Y-87042176D01*
X179696895Y-87097499D01*
X179809203Y-87131568D01*
X179925999Y-87143071D01*
X181128999Y-87143071D01*
X181128999Y-88019976D01*
X175909583Y-93239393D01*
X168639677Y-93239393D01*
X168639677Y-91686393D01*
X168632977Y-91618369D01*
X168613135Y-91552960D01*
X168580914Y-91492678D01*
X168537552Y-91439840D01*
X168484714Y-91396478D01*
X168424432Y-91364257D01*
X168359023Y-91344415D01*
X168290999Y-91337715D01*
X167190999Y-91337715D01*
X167122975Y-91344415D01*
X167057566Y-91364257D01*
X166997284Y-91396478D01*
X166944446Y-91439840D01*
X166901084Y-91492678D01*
X166890999Y-91511546D01*
X166880914Y-91492678D01*
X166837552Y-91439840D01*
X166784714Y-91396478D01*
X166724432Y-91364257D01*
X166659023Y-91344415D01*
X166590999Y-91337715D01*
X165490999Y-91337715D01*
X165427963Y-91343924D01*
X165421536Y-91331899D01*
X165342184Y-91235208D01*
X165245493Y-91155856D01*
X165135179Y-91096891D01*
X165015481Y-91060581D01*
X164890999Y-91048321D01*
X164626749Y-91051393D01*
X164467999Y-91210143D01*
X164467999Y-93859393D01*
X164487999Y-93859393D01*
X164487999Y-94113393D01*
X164467999Y-94113393D01*
X164467999Y-96762643D01*
X164626749Y-96921393D01*
X164890999Y-96924465D01*
X165015481Y-96912205D01*
X165135179Y-96875895D01*
X165245493Y-96816930D01*
X165294000Y-96777122D01*
X165294000Y-96869975D01*
X164793583Y-97370393D01*
X158045416Y-97370393D01*
X156961416Y-96286393D01*
X159752927Y-96286393D01*
X159765187Y-96410875D01*
X159801497Y-96530573D01*
X159860462Y-96640887D01*
X159939814Y-96737578D01*
X160036505Y-96816930D01*
X160146819Y-96875895D01*
X160266517Y-96912205D01*
X160390999Y-96924465D01*
X160655249Y-96921393D01*
X160813999Y-96762643D01*
X160813999Y-94113393D01*
X159914749Y-94113393D01*
X159755999Y-94272143D01*
X159752927Y-96286393D01*
X156961416Y-96286393D01*
X156502677Y-95827655D01*
X156502677Y-95485393D01*
X156495977Y-95417369D01*
X156476135Y-95351960D01*
X156443914Y-95291678D01*
X156400552Y-95238840D01*
X156347714Y-95195478D01*
X156287432Y-95163257D01*
X156222023Y-95143415D01*
X156153999Y-95136715D01*
X155811738Y-95136715D01*
X147984677Y-87309655D01*
X147984677Y-85003393D01*
X147977977Y-84935369D01*
X147958135Y-84869960D01*
X147925914Y-84809678D01*
X147882552Y-84756840D01*
X147829714Y-84713478D01*
X147769432Y-84681257D01*
X147704023Y-84661415D01*
X147635999Y-84654715D01*
X144735999Y-84654715D01*
X144667975Y-84661415D01*
X144602566Y-84681257D01*
X144542284Y-84713478D01*
X144489446Y-84756840D01*
X144446084Y-84809678D01*
X144413863Y-84869960D01*
X144394021Y-84935369D01*
X144387321Y-85003393D01*
X144387321Y-90403393D01*
X144394021Y-90471417D01*
X144413863Y-90536826D01*
X144446084Y-90597108D01*
X144489446Y-90649946D01*
X144542284Y-90693308D01*
X144602566Y-90725529D01*
X144667975Y-90745371D01*
X144735999Y-90752071D01*
X147635999Y-90752071D01*
X147704023Y-90745371D01*
X147769432Y-90725529D01*
X147829714Y-90693308D01*
X147882552Y-90649946D01*
X147925914Y-90597108D01*
X147958135Y-90536826D01*
X147977977Y-90471417D01*
X147984677Y-90403393D01*
X147984677Y-89422487D01*
X154905321Y-96343132D01*
X154905321Y-96685393D01*
X154912021Y-96753417D01*
X154931863Y-96818826D01*
X154964084Y-96879108D01*
X155007446Y-96931946D01*
X155060284Y-96975308D01*
X155120566Y-97007529D01*
X155185975Y-97027371D01*
X155253999Y-97034071D01*
X155596261Y-97034071D01*
X157181843Y-98619654D01*
X157205235Y-98648157D01*
X157318980Y-98741506D01*
X157448751Y-98810870D01*
X157589561Y-98853584D01*
X157699306Y-98864393D01*
X157699313Y-98864393D01*
X157735999Y-98868006D01*
X157772684Y-98864393D01*
X165066314Y-98864393D01*
X165102999Y-98868006D01*
X165139684Y-98864393D01*
X165139692Y-98864393D01*
X165249437Y-98853584D01*
X165390247Y-98810870D01*
X165520018Y-98741506D01*
X165633763Y-98648157D01*
X165657159Y-98619649D01*
X166543265Y-97733545D01*
X166571763Y-97710157D01*
X166602459Y-97672755D01*
X166626064Y-97643992D01*
X166665112Y-97596412D01*
X166734476Y-97466641D01*
X166777190Y-97325831D01*
X166787999Y-97216086D01*
X166787999Y-97216079D01*
X166791612Y-97179394D01*
X166787999Y-97142708D01*
X166787999Y-96573612D01*
X166837552Y-96532946D01*
X166880914Y-96480108D01*
X166890999Y-96461240D01*
X166901084Y-96480108D01*
X166944446Y-96532946D01*
X166997284Y-96576308D01*
X167057566Y-96608529D01*
X167122975Y-96628371D01*
X167190999Y-96635071D01*
X168290999Y-96635071D01*
X168359023Y-96628371D01*
X168424432Y-96608529D01*
X168484714Y-96576308D01*
X168537552Y-96532946D01*
X168580914Y-96480108D01*
X168613135Y-96419826D01*
X168632977Y-96354417D01*
X168639677Y-96286393D01*
X168639677Y-94733393D01*
X176182314Y-94733393D01*
X176218999Y-94737006D01*
X176255684Y-94733393D01*
X176255692Y-94733393D01*
X176365437Y-94722584D01*
X176506247Y-94679870D01*
X176636018Y-94610506D01*
X176749763Y-94517157D01*
X176773160Y-94488648D01*
X182378261Y-88883548D01*
X182406763Y-88860157D01*
X182500112Y-88746412D01*
X182569476Y-88616641D01*
X182612190Y-88475831D01*
X182622999Y-88366086D01*
X182622999Y-88366079D01*
X182626612Y-88329394D01*
X182622999Y-88292708D01*
X182622999Y-87143071D01*
X183825999Y-87143071D01*
X183942795Y-87131568D01*
X184055103Y-87097499D01*
X184158607Y-87042176D01*
X184249328Y-86967722D01*
X184323782Y-86877001D01*
X184379105Y-86773497D01*
X184413174Y-86661189D01*
X184424677Y-86544393D01*
X184424677Y-84544393D01*
X184413174Y-84427597D01*
X184379105Y-84315289D01*
X184323782Y-84211785D01*
X184297296Y-84179512D01*
X186986260Y-81490549D01*
X187014763Y-81467157D01*
X187108112Y-81353412D01*
X187177476Y-81223641D01*
X187220190Y-81082831D01*
X187230999Y-80973086D01*
X187230999Y-80973079D01*
X187234612Y-80936394D01*
X187230999Y-80899708D01*
X187230999Y-72928071D01*
X187683999Y-72928071D01*
X187752023Y-72921371D01*
X187817432Y-72901529D01*
X187877714Y-72869308D01*
X187930552Y-72825946D01*
X187973914Y-72773108D01*
X188006135Y-72712826D01*
X188025977Y-72647417D01*
X188032677Y-72579393D01*
X188032677Y-71839393D01*
X188025977Y-71771369D01*
X188006135Y-71705960D01*
X187973914Y-71645678D01*
X187930552Y-71592840D01*
X187908074Y-71574393D01*
X187930552Y-71555946D01*
X187973914Y-71503108D01*
X188006135Y-71442826D01*
X188015670Y-71411393D01*
X190098819Y-71411393D01*
X190121999Y-71413676D01*
X190145179Y-71411393D01*
X190214527Y-71404563D01*
X190303499Y-71377573D01*
X190385497Y-71333745D01*
X190457368Y-71274762D01*
X190472150Y-71256750D01*
X190947361Y-70781540D01*
X190965368Y-70766762D01*
X191024351Y-70694891D01*
X191068179Y-70612893D01*
X191095169Y-70523921D01*
X191101999Y-70454573D01*
X191101999Y-70454572D01*
X191104282Y-70431394D01*
X191101999Y-70408216D01*
X191101999Y-62199573D01*
X191104282Y-62176393D01*
X191095169Y-62083865D01*
X191068179Y-61994893D01*
X191024351Y-61912895D01*
X191002931Y-61886795D01*
X190965368Y-61841024D01*
X190947361Y-61826246D01*
X190741017Y-61619902D01*
X190741999Y-61614966D01*
X190741999Y-61467820D01*
X190713292Y-61323501D01*
X190656981Y-61187556D01*
X190575231Y-61065209D01*
X190471183Y-60961161D01*
X190348836Y-60879411D01*
X190212891Y-60823100D01*
X190068572Y-60794393D01*
X189921426Y-60794393D01*
X189777107Y-60823100D01*
X189641162Y-60879411D01*
X189518815Y-60961161D01*
X189414767Y-61065209D01*
X189333017Y-61187556D01*
X189276706Y-61323501D01*
X189247999Y-61467820D01*
X189247999Y-61614966D01*
X189276706Y-61759285D01*
X189333017Y-61895230D01*
X189414767Y-62017577D01*
X189518815Y-62121625D01*
X189641162Y-62203375D01*
X189777107Y-62259686D01*
X189921426Y-62288393D01*
X190068572Y-62288393D01*
X190073508Y-62287411D01*
X190157999Y-62371902D01*
X190158000Y-70235883D01*
X189926491Y-70467393D01*
X188015670Y-70467393D01*
X188006135Y-70435960D01*
X187973914Y-70375678D01*
X187930552Y-70322840D01*
X187908074Y-70304393D01*
X187930552Y-70285946D01*
X187973914Y-70233108D01*
X188006135Y-70172826D01*
X188025977Y-70107417D01*
X188032677Y-70039393D01*
X188032677Y-69299393D01*
X188025977Y-69231369D01*
X188006135Y-69165960D01*
X187973914Y-69105678D01*
X187930552Y-69052840D01*
X187908074Y-69034393D01*
X187930552Y-69015946D01*
X187973914Y-68963108D01*
X188006135Y-68902826D01*
X188025977Y-68837417D01*
X188032677Y-68769393D01*
X188032677Y-68029393D01*
X188025977Y-67961369D01*
X188006135Y-67895960D01*
X187973914Y-67835678D01*
X187930552Y-67782840D01*
X187908074Y-67764393D01*
X187916043Y-67757853D01*
X187994815Y-67836625D01*
X188117162Y-67918375D01*
X188253107Y-67974686D01*
X188397426Y-68003393D01*
X188544572Y-68003393D01*
X188688891Y-67974686D01*
X188824836Y-67918375D01*
X188947183Y-67836625D01*
X189051231Y-67732577D01*
X189132981Y-67610230D01*
X189189292Y-67474285D01*
X189217999Y-67329966D01*
X189217999Y-67182820D01*
X189189292Y-67038501D01*
X189132981Y-66902556D01*
X189051231Y-66780209D01*
X188947183Y-66676161D01*
X188824836Y-66594411D01*
X188736675Y-66557893D01*
X188824836Y-66521375D01*
X188947183Y-66439625D01*
X189051231Y-66335577D01*
X189132981Y-66213230D01*
X189189292Y-66077285D01*
X189217999Y-65932966D01*
X189217999Y-65785820D01*
X189189292Y-65641501D01*
X189132981Y-65505556D01*
X189051231Y-65383209D01*
X188947183Y-65279161D01*
X188824836Y-65197411D01*
X188688891Y-65141100D01*
X188544572Y-65112393D01*
X188397426Y-65112393D01*
X188253107Y-65141100D01*
X188117162Y-65197411D01*
X187994815Y-65279161D01*
X187975441Y-65298535D01*
X187973914Y-65295678D01*
X187930552Y-65242840D01*
X187908074Y-65224393D01*
X187930552Y-65205946D01*
X187973914Y-65153108D01*
X188006135Y-65092826D01*
X188017472Y-65055455D01*
X188026527Y-65054563D01*
X188115499Y-65027573D01*
X188197497Y-64983745D01*
X188269368Y-64924762D01*
X188284152Y-64906748D01*
X188326353Y-64864547D01*
X188344369Y-64849761D01*
X188403352Y-64777890D01*
X188447180Y-64695892D01*
X188474170Y-64606920D01*
X188481000Y-64537572D01*
X188481000Y-64537570D01*
X188483283Y-64514393D01*
X188481000Y-64491215D01*
X188481000Y-62712572D01*
X188483283Y-62689392D01*
X188474170Y-62596864D01*
X188447180Y-62507891D01*
X188403352Y-62425894D01*
X188361308Y-62374663D01*
X188344369Y-62354023D01*
X188326362Y-62339245D01*
X185216152Y-59229036D01*
X185201370Y-59211024D01*
X185129499Y-59152041D01*
X185047501Y-59108213D01*
X184995351Y-59092393D01*
X187252971Y-59092393D01*
X187255767Y-59096577D01*
X187359815Y-59200625D01*
X187482162Y-59282375D01*
X187618107Y-59338686D01*
X187762426Y-59367393D01*
X187909572Y-59367393D01*
X188053891Y-59338686D01*
X188189836Y-59282375D01*
X188312183Y-59200625D01*
X188416231Y-59096577D01*
X188497981Y-58974230D01*
X188554292Y-58838285D01*
X188582999Y-58693966D01*
X188582999Y-58546820D01*
X188554292Y-58402501D01*
X188497981Y-58266556D01*
X188416231Y-58144209D01*
X188312183Y-58040161D01*
X188189836Y-57958411D01*
X188053891Y-57902100D01*
X187909572Y-57873393D01*
X187762426Y-57873393D01*
X187618107Y-57902100D01*
X187482162Y-57958411D01*
X187359815Y-58040161D01*
X187255767Y-58144209D01*
X187252971Y-58148393D01*
X181554508Y-58148393D01*
X181068999Y-57662885D01*
X181068999Y-51785570D01*
X181071282Y-51762392D01*
X181068999Y-51739213D01*
X181062169Y-51669865D01*
X181035179Y-51580893D01*
X180991351Y-51498895D01*
X180932368Y-51427024D01*
X180914356Y-51412242D01*
X176502150Y-47000036D01*
X176487368Y-46982024D01*
X176415497Y-46923041D01*
X176333499Y-46879213D01*
X176244527Y-46852223D01*
X176175179Y-46845393D01*
X176151999Y-46843110D01*
X176128819Y-46845393D01*
X168988027Y-46845393D01*
X168985231Y-46841209D01*
X168881183Y-46737161D01*
X168758836Y-46655411D01*
X168622891Y-46599100D01*
X168478572Y-46570393D01*
X168331426Y-46570393D01*
X168187107Y-46599100D01*
X168051162Y-46655411D01*
X167928815Y-46737161D01*
X167824767Y-46841209D01*
X167743017Y-46963556D01*
X167686706Y-47099501D01*
X167657999Y-47243820D01*
X167657999Y-47390966D01*
X167686706Y-47535285D01*
X167743017Y-47671230D01*
X167824767Y-47793577D01*
X167928815Y-47897625D01*
X168051162Y-47979375D01*
X168187107Y-48035686D01*
X168331426Y-48064393D01*
X168478572Y-48064393D01*
X168622891Y-48035686D01*
X168758836Y-47979375D01*
X168881183Y-47897625D01*
X168985231Y-47793577D01*
X168988027Y-47789393D01*
X175956491Y-47789393D01*
X180124999Y-51957901D01*
X180124999Y-54399626D01*
X180102351Y-54357253D01*
X180066691Y-54313801D01*
X180043368Y-54285382D01*
X180025361Y-54270604D01*
X175346755Y-49591999D01*
X175331973Y-49573987D01*
X175260102Y-49515004D01*
X175178104Y-49471176D01*
X175089132Y-49444186D01*
X175019784Y-49437356D01*
X174996604Y-49435073D01*
X174973424Y-49437356D01*
X162253544Y-49437356D01*
X163119490Y-48571411D01*
X163124426Y-48572393D01*
X163271572Y-48572393D01*
X163415891Y-48543686D01*
X163551836Y-48487375D01*
X163674183Y-48405625D01*
X163778231Y-48301577D01*
X163859981Y-48179230D01*
X163916292Y-48043285D01*
X163944999Y-47898966D01*
X163944999Y-47751820D01*
X163916292Y-47607501D01*
X163859981Y-47471556D01*
X163778231Y-47349209D01*
X163674183Y-47245161D01*
X163551836Y-47163411D01*
X163415891Y-47107100D01*
X163271572Y-47078393D01*
X163124426Y-47078393D01*
X162980107Y-47107100D01*
X162844162Y-47163411D01*
X162721815Y-47245161D01*
X162617767Y-47349209D01*
X162536017Y-47471556D01*
X162479706Y-47607501D01*
X162450999Y-47751820D01*
X162450999Y-47898966D01*
X162451981Y-47903902D01*
X161368538Y-48987346D01*
X157340852Y-48987346D01*
X157451183Y-48913625D01*
X157555231Y-48809577D01*
X157636981Y-48687230D01*
X157693292Y-48551285D01*
X157721999Y-48406966D01*
X157721999Y-48259820D01*
X157693292Y-48115501D01*
X157636981Y-47979556D01*
X157594777Y-47916393D01*
X157915971Y-47916393D01*
X157918767Y-47920577D01*
X158022815Y-48024625D01*
X158145162Y-48106375D01*
X158281107Y-48162686D01*
X158425426Y-48191393D01*
X158572572Y-48191393D01*
X158716891Y-48162686D01*
X158852836Y-48106375D01*
X158975183Y-48024625D01*
X159079231Y-47920577D01*
X159160981Y-47798230D01*
X159217292Y-47662285D01*
X159245999Y-47517966D01*
X159245999Y-47370820D01*
X159217292Y-47226501D01*
X159160981Y-47090556D01*
X159118777Y-47027393D01*
X159312971Y-47027393D01*
X159315767Y-47031577D01*
X159419815Y-47135625D01*
X159542162Y-47217375D01*
X159678107Y-47273686D01*
X159822426Y-47302393D01*
X159969572Y-47302393D01*
X160113891Y-47273686D01*
X160249836Y-47217375D01*
X160372183Y-47135625D01*
X160476231Y-47031577D01*
X160557981Y-46909230D01*
X160614292Y-46773285D01*
X160642999Y-46628966D01*
X160642999Y-46481820D01*
X160614292Y-46337501D01*
X160599749Y-46302392D01*
X163293490Y-46302392D01*
X164229981Y-47238884D01*
X164228999Y-47243820D01*
X164228999Y-47390966D01*
X164257706Y-47535285D01*
X164314017Y-47671230D01*
X164395767Y-47793577D01*
X164499815Y-47897625D01*
X164622162Y-47979375D01*
X164758107Y-48035686D01*
X164902426Y-48064393D01*
X165049572Y-48064393D01*
X165193891Y-48035686D01*
X165329836Y-47979375D01*
X165452183Y-47897625D01*
X165556231Y-47793577D01*
X165637981Y-47671230D01*
X165694292Y-47535285D01*
X165722999Y-47390966D01*
X165722999Y-47243820D01*
X165694292Y-47099501D01*
X165637981Y-46963556D01*
X165556231Y-46841209D01*
X165452183Y-46737161D01*
X165329836Y-46655411D01*
X165193891Y-46599100D01*
X165049572Y-46570393D01*
X164902426Y-46570393D01*
X164897490Y-46571375D01*
X163839149Y-45513035D01*
X163824367Y-45495023D01*
X163752496Y-45436040D01*
X163670498Y-45392212D01*
X163581526Y-45365222D01*
X163512178Y-45358392D01*
X163488998Y-45356109D01*
X163465818Y-45358392D01*
X149341179Y-45358392D01*
X149317999Y-45356109D01*
X149225472Y-45365222D01*
X149136500Y-45392212D01*
X149054502Y-45436040D01*
X148982631Y-45495023D01*
X148967853Y-45513030D01*
X148798508Y-45682375D01*
X148793572Y-45681393D01*
X148646426Y-45681393D01*
X148502107Y-45710100D01*
X148366162Y-45766411D01*
X148243815Y-45848161D01*
X148139767Y-45952209D01*
X148058017Y-46074556D01*
X148001706Y-46210501D01*
X147972999Y-46354820D01*
X147972999Y-46501966D01*
X148001706Y-46646285D01*
X148058017Y-46782230D01*
X148139767Y-46904577D01*
X148207583Y-46972393D01*
X140984721Y-46972393D01*
X140945836Y-46946411D01*
X140809891Y-46890100D01*
X140665572Y-46861393D01*
X140518426Y-46861393D01*
X140374107Y-46890100D01*
X140238162Y-46946411D01*
X140115815Y-47028161D01*
X140011767Y-47132209D01*
X139930017Y-47254556D01*
X139873706Y-47390501D01*
X139844999Y-47534820D01*
X139844999Y-47681966D01*
X139873706Y-47826285D01*
X139902301Y-47895319D01*
X139820501Y-47939041D01*
X139784124Y-47968895D01*
X139776572Y-47967393D01*
X139629426Y-47967393D01*
X139485107Y-47996100D01*
X139349162Y-48052411D01*
X139226815Y-48134161D01*
X139122767Y-48238209D01*
X139041017Y-48360556D01*
X138984706Y-48496501D01*
X138955999Y-48640820D01*
X138955999Y-48787966D01*
X138984706Y-48932285D01*
X139041017Y-49068230D01*
X139122767Y-49190577D01*
X139226815Y-49294625D01*
X139349162Y-49376375D01*
X139485107Y-49432686D01*
X139629426Y-49461393D01*
X139776572Y-49461393D01*
X139920891Y-49432686D01*
X140056836Y-49376375D01*
X140179183Y-49294625D01*
X140283231Y-49190577D01*
X140364981Y-49068230D01*
X140421292Y-48932285D01*
X140446533Y-48805393D01*
X147244933Y-48805393D01*
X147223162Y-48814411D01*
X147100815Y-48896161D01*
X146996767Y-49000209D01*
X146915017Y-49122556D01*
X146858706Y-49258501D01*
X146829999Y-49402820D01*
X146829999Y-49549966D01*
X146858706Y-49694285D01*
X146915017Y-49830230D01*
X146996767Y-49952577D01*
X147100815Y-50056625D01*
X147223162Y-50138375D01*
X147359107Y-50194686D01*
X147503426Y-50223393D01*
X147650572Y-50223393D01*
X147794891Y-50194686D01*
X147930836Y-50138375D01*
X148053183Y-50056625D01*
X148157231Y-49952577D01*
X148171417Y-49931346D01*
X152677537Y-49931346D01*
X151973509Y-50635375D01*
X151968572Y-50634393D01*
X151821426Y-50634393D01*
X151677107Y-50663100D01*
X151541162Y-50719411D01*
X151418815Y-50801161D01*
X151314767Y-50905209D01*
X151233017Y-51027556D01*
X151176706Y-51163501D01*
X151147999Y-51307820D01*
X151147999Y-51454966D01*
X151176706Y-51599285D01*
X151206575Y-51671393D01*
X149994415Y-51671393D01*
X150062231Y-51603577D01*
X150143981Y-51481230D01*
X150200292Y-51345285D01*
X150228999Y-51200966D01*
X150228999Y-51053820D01*
X150200292Y-50909501D01*
X150143981Y-50773556D01*
X150062231Y-50651209D01*
X149958183Y-50547161D01*
X149835836Y-50465411D01*
X149699891Y-50409100D01*
X149555572Y-50380393D01*
X149408426Y-50380393D01*
X149264107Y-50409100D01*
X149128162Y-50465411D01*
X149005815Y-50547161D01*
X148901767Y-50651209D01*
X148898971Y-50655393D01*
X146121508Y-50655393D01*
X145910017Y-50443903D01*
X145910999Y-50438966D01*
X145910999Y-50291820D01*
X145882292Y-50147501D01*
X145825981Y-50011556D01*
X145744231Y-49889209D01*
X145640183Y-49785161D01*
X145517836Y-49703411D01*
X145381891Y-49647100D01*
X145237572Y-49618393D01*
X145090426Y-49618393D01*
X144946107Y-49647100D01*
X144810162Y-49703411D01*
X144687815Y-49785161D01*
X144583767Y-49889209D01*
X144502017Y-50011556D01*
X144445706Y-50147501D01*
X144416999Y-50291820D01*
X144416999Y-50438966D01*
X144445706Y-50583285D01*
X144502017Y-50719230D01*
X144583767Y-50841577D01*
X144687815Y-50945625D01*
X144810162Y-51027375D01*
X144946107Y-51083686D01*
X145090426Y-51112393D01*
X145237572Y-51112393D01*
X145242509Y-51111411D01*
X145575852Y-51444755D01*
X145590630Y-51462762D01*
X145634658Y-51498895D01*
X145662501Y-51521745D01*
X145744499Y-51565573D01*
X145833471Y-51592563D01*
X145925999Y-51601676D01*
X145949179Y-51599393D01*
X148898971Y-51599393D01*
X148901767Y-51603577D01*
X148969583Y-51671393D01*
X143026768Y-51671393D01*
X143003588Y-51669110D01*
X142911061Y-51678223D01*
X142822089Y-51705213D01*
X142740091Y-51749041D01*
X142668220Y-51808024D01*
X142653442Y-51826031D01*
X138024799Y-56454674D01*
X138026450Y-56452815D01*
X138030084Y-56447741D01*
X138480083Y-55809826D01*
X138500114Y-55774565D01*
X138520595Y-55739656D01*
X138523174Y-55733972D01*
X138840698Y-55020801D01*
X138853500Y-54982318D01*
X138866809Y-54944098D01*
X138868235Y-54938022D01*
X139041190Y-54176759D01*
X139046276Y-54136500D01*
X139051905Y-54096446D01*
X139052124Y-54090208D01*
X139073922Y-53309850D01*
X139071096Y-53269435D01*
X139068834Y-53228983D01*
X139067836Y-53222822D01*
X138937646Y-52453092D01*
X138927017Y-52413972D01*
X138916948Y-52374755D01*
X138914773Y-52368905D01*
X138637554Y-51639121D01*
X138619547Y-51602846D01*
X138602035Y-51566296D01*
X138598765Y-51560980D01*
X138185075Y-50898940D01*
X138160371Y-50866860D01*
X138136088Y-50834401D01*
X138131852Y-50829827D01*
X138131847Y-50829821D01*
X138131842Y-50829816D01*
X137597447Y-50260743D01*
X137566964Y-50234057D01*
X137536856Y-50206948D01*
X137531807Y-50203279D01*
X136897049Y-49748837D01*
X136897046Y-49748835D01*
X136879348Y-49736153D01*
X135801219Y-49113695D01*
X136866720Y-47807419D01*
X138369654Y-46207147D01*
X139980544Y-44715622D01*
X141691562Y-43340094D01*
X143494354Y-42087280D01*
X145380158Y-40963265D01*
X147339780Y-39973534D01*
X149363653Y-39122918D01*
X151441941Y-38415548D01*
X153564517Y-37854873D01*
X155721004Y-37443634D01*
X157900953Y-37183820D01*
X160093720Y-37076706D01*
X162288585Y-37122812D01*
%TA.AperFunction,Conductor*%
D24*
G36*
X162288585Y-37122812D02*
G01*
X164474911Y-37321914D01*
X166642024Y-37673041D01*
X168779352Y-38174479D01*
X170876513Y-38823796D01*
X172923259Y-39617815D01*
X174909626Y-40552671D01*
X176825946Y-41623815D01*
X178662882Y-42826027D01*
X180411486Y-44153453D01*
X182063221Y-45599610D01*
X183610070Y-47157480D01*
X185047532Y-48822994D01*
X185270340Y-49108175D01*
X184182649Y-49736154D01*
X184181383Y-49737061D01*
X184150788Y-49755011D01*
X184134355Y-49766951D01*
X184116779Y-49777098D01*
X184111729Y-49780766D01*
X183483377Y-50244026D01*
X183453264Y-50271140D01*
X183422786Y-50297822D01*
X183418545Y-50302401D01*
X182892142Y-50878886D01*
X182867855Y-50911351D01*
X182843154Y-50943426D01*
X182839887Y-50948736D01*
X182839884Y-50948741D01*
X182839884Y-50948742D01*
X182435480Y-51616493D01*
X182417974Y-51653030D01*
X182399961Y-51689318D01*
X182397788Y-51695163D01*
X182397785Y-51695169D01*
X182397783Y-51695175D01*
X182130783Y-52428751D01*
X182120712Y-52467976D01*
X182110085Y-52507088D01*
X182109087Y-52513249D01*
X181989657Y-53284724D01*
X181987394Y-53325203D01*
X181984570Y-53365589D01*
X181984787Y-53371826D01*
X182017477Y-54151804D01*
X182023121Y-54191962D01*
X182028194Y-54232118D01*
X182029618Y-54238195D01*
X182213185Y-54996969D01*
X182226525Y-55035278D01*
X182239298Y-55073672D01*
X182241872Y-55079347D01*
X182241875Y-55079356D01*
X182241880Y-55079364D01*
X182569327Y-55788024D01*
X182589833Y-55822976D01*
X182609840Y-55858194D01*
X182613472Y-55863269D01*
X183072334Y-56494839D01*
X183099228Y-56525130D01*
X183125705Y-56555804D01*
X183130255Y-56560076D01*
X183703050Y-57090491D01*
X183735355Y-57115012D01*
X183767247Y-57139928D01*
X183772534Y-57143232D01*
X183772539Y-57143236D01*
X183772544Y-57143238D01*
X184437452Y-57552292D01*
X184473881Y-57570060D01*
X184510027Y-57588318D01*
X184515861Y-57590535D01*
X185247563Y-57862653D01*
X185286741Y-57873004D01*
X185325755Y-57883897D01*
X185331908Y-57884938D01*
X186102529Y-58009751D01*
X186142974Y-58012296D01*
X186183357Y-58015403D01*
X186189596Y-58015229D01*
X186969783Y-57987985D01*
X187009978Y-57982622D01*
X187050170Y-57977829D01*
X187056256Y-57976447D01*
X187816294Y-57798181D01*
X187854638Y-57785127D01*
X187893177Y-57772605D01*
X187898879Y-57770067D01*
X188609816Y-57447572D01*
X188609843Y-57447556D01*
X188629648Y-57438583D01*
X189707780Y-56816124D01*
X190306298Y-58392016D01*
X190940703Y-60493714D01*
X191426961Y-62634569D01*
X191762690Y-64804099D01*
X191946266Y-66991794D01*
X191976789Y-69186944D01*
X191854110Y-71378892D01*
X191578830Y-73556923D01*
X191152287Y-75710455D01*
X190576562Y-77828981D01*
X189854450Y-79902211D01*
X188989486Y-81919993D01*
X187985870Y-83872535D01*
X186848500Y-85750306D01*
X185582910Y-87544168D01*
X184195279Y-89245367D01*
X182692345Y-90845640D01*
X181081455Y-92337164D01*
X179370437Y-93712692D01*
X177567639Y-94965511D01*
X175681841Y-96089521D01*
X173722219Y-97079252D01*
X171698350Y-97929867D01*
X169620057Y-98637239D01*
X167497485Y-99197912D01*
X165340993Y-99609153D01*
X163161046Y-99868966D01*
X160968280Y-99976080D01*
X158773412Y-99929974D01*
X156587088Y-99730873D01*
X154419977Y-99379747D01*
X152282639Y-98878305D01*
X150185485Y-98228991D01*
X148138739Y-97434972D01*
X146546048Y-96685393D01*
X151315927Y-96685393D01*
X151328187Y-96809875D01*
X151364497Y-96929573D01*
X151423462Y-97039887D01*
X151502814Y-97136578D01*
X151599505Y-97215930D01*
X151709819Y-97274895D01*
X151829517Y-97311205D01*
X151953999Y-97323465D01*
X152118249Y-97320393D01*
X152276999Y-97161643D01*
X152276999Y-96212393D01*
X152530999Y-96212393D01*
X152530999Y-97161643D01*
X152689749Y-97320393D01*
X152853999Y-97323465D01*
X152978481Y-97311205D01*
X153098179Y-97274895D01*
X153208493Y-97215930D01*
X153305184Y-97136578D01*
X153384536Y-97039887D01*
X153443501Y-96929573D01*
X153479811Y-96809875D01*
X153492071Y-96685393D01*
X153488999Y-96371143D01*
X153330249Y-96212393D01*
X152530999Y-96212393D01*
X152276999Y-96212393D01*
X151477749Y-96212393D01*
X151318999Y-96371143D01*
X151315927Y-96685393D01*
X146546048Y-96685393D01*
X146152372Y-96500115D01*
X144336994Y-95485393D01*
X151315927Y-95485393D01*
X151318999Y-95799643D01*
X151477749Y-95958393D01*
X152276999Y-95958393D01*
X152276999Y-95009143D01*
X152530999Y-95009143D01*
X152530999Y-95958393D01*
X153330249Y-95958393D01*
X153488999Y-95799643D01*
X153492071Y-95485393D01*
X153479811Y-95360911D01*
X153443501Y-95241213D01*
X153384536Y-95130899D01*
X153305184Y-95034208D01*
X153208493Y-94954856D01*
X153098179Y-94895891D01*
X152978481Y-94859581D01*
X152853999Y-94847321D01*
X152689749Y-94850393D01*
X152530999Y-95009143D01*
X152276999Y-95009143D01*
X152118249Y-94850393D01*
X151953999Y-94847321D01*
X151829517Y-94859581D01*
X151709819Y-94895891D01*
X151599505Y-94954856D01*
X151502814Y-95034208D01*
X151423462Y-95130899D01*
X151364497Y-95241213D01*
X151328187Y-95360911D01*
X151315927Y-95485393D01*
X144336994Y-95485393D01*
X144236052Y-95428971D01*
X142399116Y-94226760D01*
X140650512Y-92899334D01*
X138998776Y-91453177D01*
X137451928Y-89895308D01*
X136017531Y-88233344D01*
X134702559Y-86475367D01*
X133513420Y-84629947D01*
X132455904Y-82706063D01*
X131535170Y-80713104D01*
X130755699Y-78660770D01*
X130121295Y-76559072D01*
X129880758Y-75500054D01*
X132181999Y-75500054D01*
X132181999Y-76284731D01*
X132194472Y-76411373D01*
X132243762Y-76573861D01*
X132323805Y-76723610D01*
X132431524Y-76854868D01*
X132562781Y-76962587D01*
X132712530Y-77042630D01*
X132875018Y-77091920D01*
X133043999Y-77108563D01*
X133212979Y-77091920D01*
X133375467Y-77042630D01*
X133525216Y-76962587D01*
X133656474Y-76854868D01*
X133764193Y-76723611D01*
X133793999Y-76667848D01*
X133823805Y-76723610D01*
X133931524Y-76854868D01*
X134062781Y-76962587D01*
X134212530Y-77042630D01*
X134375018Y-77091920D01*
X134543999Y-77108563D01*
X134712979Y-77091920D01*
X134875467Y-77042630D01*
X135025216Y-76962587D01*
X135156474Y-76854868D01*
X135264193Y-76723611D01*
X135293999Y-76667848D01*
X135323805Y-76723610D01*
X135431524Y-76854868D01*
X135562781Y-76962587D01*
X135712530Y-77042630D01*
X135875018Y-77091920D01*
X136043999Y-77108563D01*
X136212979Y-77091920D01*
X136375467Y-77042630D01*
X136525216Y-76962587D01*
X136656474Y-76854868D01*
X136736828Y-76756956D01*
X136781216Y-76840001D01*
X136855669Y-76930723D01*
X136946391Y-77005176D01*
X137049894Y-77060499D01*
X137162202Y-77094568D01*
X137278998Y-77106071D01*
X137809000Y-77106071D01*
X137925796Y-77094568D01*
X138038104Y-77060499D01*
X138141607Y-77005176D01*
X138232329Y-76930723D01*
X138306782Y-76840001D01*
X138362105Y-76736498D01*
X138396174Y-76624190D01*
X138407677Y-76507394D01*
X138407677Y-75277392D01*
X138396174Y-75160596D01*
X138362105Y-75048288D01*
X138306782Y-74944785D01*
X138232329Y-74854063D01*
X138141607Y-74779610D01*
X138038104Y-74724287D01*
X137925796Y-74690218D01*
X137809000Y-74678715D01*
X137278998Y-74678715D01*
X137162202Y-74690218D01*
X137049894Y-74724287D01*
X136946391Y-74779610D01*
X136855669Y-74854063D01*
X136781216Y-74944785D01*
X136736828Y-75027830D01*
X136656474Y-74929918D01*
X136525217Y-74822199D01*
X136375468Y-74742156D01*
X136212980Y-74692866D01*
X136043999Y-74676223D01*
X135875019Y-74692866D01*
X135712531Y-74742156D01*
X135562782Y-74822199D01*
X135431525Y-74929918D01*
X135323806Y-75061175D01*
X135294000Y-75116939D01*
X135264193Y-75061175D01*
X135156474Y-74929918D01*
X135025217Y-74822199D01*
X134875468Y-74742156D01*
X134712980Y-74692866D01*
X134543999Y-74676223D01*
X134375019Y-74692866D01*
X134212531Y-74742156D01*
X134062782Y-74822199D01*
X133931525Y-74929918D01*
X133823806Y-75061175D01*
X133794000Y-75116939D01*
X133764193Y-75061175D01*
X133656474Y-74929918D01*
X133525217Y-74822199D01*
X133375468Y-74742156D01*
X133212980Y-74692866D01*
X133043999Y-74676223D01*
X132875019Y-74692866D01*
X132712531Y-74742156D01*
X132562782Y-74822199D01*
X132431525Y-74929918D01*
X132323806Y-75061175D01*
X132243763Y-75210924D01*
X132194472Y-75373412D01*
X132181999Y-75500054D01*
X129880758Y-75500054D01*
X129635037Y-74418217D01*
X129299307Y-72248684D01*
X129145862Y-70420054D01*
X132181999Y-70420054D01*
X132181999Y-71204731D01*
X132194472Y-71331373D01*
X132243762Y-71493861D01*
X132323805Y-71643610D01*
X132431524Y-71774868D01*
X132562781Y-71882587D01*
X132712530Y-71962630D01*
X132875018Y-72011920D01*
X133043999Y-72028563D01*
X133212979Y-72011920D01*
X133375467Y-71962630D01*
X133525216Y-71882587D01*
X133656474Y-71774868D01*
X133764193Y-71643611D01*
X133793999Y-71587848D01*
X133823805Y-71643610D01*
X133931524Y-71774868D01*
X134062781Y-71882587D01*
X134212530Y-71962630D01*
X134375018Y-72011920D01*
X134543999Y-72028563D01*
X134712979Y-72011920D01*
X134875467Y-71962630D01*
X135025216Y-71882587D01*
X135156474Y-71774868D01*
X135264193Y-71643611D01*
X135293999Y-71587848D01*
X135323805Y-71643610D01*
X135431524Y-71774868D01*
X135562781Y-71882587D01*
X135712530Y-71962630D01*
X135875018Y-72011920D01*
X136043999Y-72028563D01*
X136212979Y-72011920D01*
X136375467Y-71962630D01*
X136525216Y-71882587D01*
X136656474Y-71774868D01*
X136736828Y-71676956D01*
X136781216Y-71760001D01*
X136855669Y-71850723D01*
X136946391Y-71925176D01*
X137049894Y-71980499D01*
X137162202Y-72014568D01*
X137278998Y-72026071D01*
X137809000Y-72026071D01*
X137925796Y-72014568D01*
X138038104Y-71980499D01*
X138141607Y-71925176D01*
X138232329Y-71850723D01*
X138306782Y-71760001D01*
X138362105Y-71656498D01*
X138396174Y-71544190D01*
X138407677Y-71427394D01*
X138407677Y-70197392D01*
X138396174Y-70080596D01*
X138362105Y-69968288D01*
X138306782Y-69864785D01*
X138232329Y-69774063D01*
X138141607Y-69699610D01*
X138038104Y-69644287D01*
X137925796Y-69610218D01*
X137809000Y-69598715D01*
X137278998Y-69598715D01*
X137162202Y-69610218D01*
X137049894Y-69644287D01*
X136946391Y-69699610D01*
X136855669Y-69774063D01*
X136781216Y-69864785D01*
X136736828Y-69947830D01*
X136656474Y-69849918D01*
X136525217Y-69742199D01*
X136375468Y-69662156D01*
X136212980Y-69612866D01*
X136043999Y-69596223D01*
X135875019Y-69612866D01*
X135712531Y-69662156D01*
X135562782Y-69742199D01*
X135431525Y-69849918D01*
X135323806Y-69981175D01*
X135294000Y-70036939D01*
X135264193Y-69981175D01*
X135156474Y-69849918D01*
X135025217Y-69742199D01*
X134875468Y-69662156D01*
X134712980Y-69612866D01*
X134543999Y-69596223D01*
X134375019Y-69612866D01*
X134212531Y-69662156D01*
X134062782Y-69742199D01*
X133931525Y-69849918D01*
X133823806Y-69981175D01*
X133794000Y-70036939D01*
X133764193Y-69981175D01*
X133656474Y-69849918D01*
X133525217Y-69742199D01*
X133375468Y-69662156D01*
X133212980Y-69612866D01*
X133043999Y-69596223D01*
X132875019Y-69612866D01*
X132712531Y-69662156D01*
X132562782Y-69742199D01*
X132431525Y-69849918D01*
X132323806Y-69981175D01*
X132243763Y-70130924D01*
X132194472Y-70293412D01*
X132181999Y-70420054D01*
X129145862Y-70420054D01*
X129115732Y-70060992D01*
X129085209Y-67865843D01*
X129207888Y-65673894D01*
X129483168Y-63495863D01*
X129909713Y-61342320D01*
X130485436Y-59223805D01*
X131209090Y-57146147D01*
X131344658Y-56810604D01*
X132432349Y-57438583D01*
X132433771Y-57439227D01*
X132464606Y-57456745D01*
X132483166Y-57465009D01*
X132500744Y-57475157D01*
X132506445Y-57477696D01*
X133221816Y-57790233D01*
X133260359Y-57802757D01*
X133298699Y-57815808D01*
X133304785Y-57817192D01*
X134067237Y-57984827D01*
X134107458Y-57989623D01*
X134147623Y-57994982D01*
X134153862Y-57995157D01*
X134934354Y-58011507D01*
X134974769Y-58008397D01*
X135015183Y-58005854D01*
X135021337Y-58004814D01*
X135790140Y-57869253D01*
X135829180Y-57858353D01*
X135868331Y-57848009D01*
X135874162Y-57845794D01*
X135874166Y-57845793D01*
X135874169Y-57845791D01*
X136601996Y-57563486D01*
X136638215Y-57545191D01*
X136674572Y-57527458D01*
X136679865Y-57524152D01*
X137338999Y-57105852D01*
X137370949Y-57080890D01*
X137403195Y-57056414D01*
X137407745Y-57052142D01*
X137818250Y-56661223D01*
X134202642Y-60276832D01*
X134184630Y-60291614D01*
X134125647Y-60363485D01*
X134081819Y-60445484D01*
X134060460Y-60515895D01*
X134054829Y-60534456D01*
X134045716Y-60626983D01*
X134047999Y-60650163D01*
X134048000Y-64784272D01*
X134038782Y-64789199D01*
X133907525Y-64896918D01*
X133799806Y-65028175D01*
X133770000Y-65083939D01*
X133740193Y-65028175D01*
X133632474Y-64896918D01*
X133501217Y-64789199D01*
X133351468Y-64709156D01*
X133188980Y-64659866D01*
X133019999Y-64643223D01*
X132851019Y-64659866D01*
X132688531Y-64709156D01*
X132538782Y-64789199D01*
X132407525Y-64896918D01*
X132299806Y-65028175D01*
X132219763Y-65177924D01*
X132170472Y-65340412D01*
X132157999Y-65467054D01*
X132157999Y-66251731D01*
X132170472Y-66378373D01*
X132219762Y-66540861D01*
X132299805Y-66690610D01*
X132407524Y-66821868D01*
X132538781Y-66929587D01*
X132688530Y-67009630D01*
X132851018Y-67058920D01*
X133019999Y-67075563D01*
X133188979Y-67058920D01*
X133351467Y-67009630D01*
X133501216Y-66929587D01*
X133632474Y-66821868D01*
X133740193Y-66690611D01*
X133769999Y-66634848D01*
X133799805Y-66690610D01*
X133907524Y-66821868D01*
X134038781Y-66929587D01*
X134188530Y-67009630D01*
X134351018Y-67058920D01*
X134519999Y-67075563D01*
X134688979Y-67058920D01*
X134851467Y-67009630D01*
X134918337Y-66973887D01*
X134974462Y-67078887D01*
X135053814Y-67175578D01*
X135150505Y-67254930D01*
X135260819Y-67313895D01*
X135380517Y-67350205D01*
X135504999Y-67362465D01*
X135734249Y-67359393D01*
X135892999Y-67200643D01*
X135892999Y-65986393D01*
X136146999Y-65986393D01*
X136146999Y-67200643D01*
X136305749Y-67359393D01*
X136534999Y-67362465D01*
X136659481Y-67350205D01*
X136779179Y-67313895D01*
X136889493Y-67254930D01*
X136986184Y-67175578D01*
X137065536Y-67078887D01*
X137124501Y-66968573D01*
X137160811Y-66848875D01*
X137173071Y-66724393D01*
X137169999Y-66145143D01*
X137011249Y-65986393D01*
X136146999Y-65986393D01*
X135892999Y-65986393D01*
X135872999Y-65986393D01*
X135872999Y-65732393D01*
X135892999Y-65732393D01*
X135892999Y-64518143D01*
X136146999Y-64518143D01*
X136146999Y-65732393D01*
X137011249Y-65732393D01*
X137169999Y-65573643D01*
X137173071Y-64994393D01*
X137160811Y-64869911D01*
X137124501Y-64750213D01*
X137065536Y-64639899D01*
X136986184Y-64543208D01*
X136889493Y-64463856D01*
X136779179Y-64404891D01*
X136659481Y-64368581D01*
X136534999Y-64356321D01*
X136305749Y-64359393D01*
X136146999Y-64518143D01*
X135892999Y-64518143D01*
X135734249Y-64359393D01*
X135504999Y-64356321D01*
X135380517Y-64368581D01*
X135260819Y-64404891D01*
X135150505Y-64463856D01*
X135053814Y-64543208D01*
X134991999Y-64618530D01*
X134991999Y-60822491D01*
X137579999Y-58234491D01*
X137580000Y-60985729D01*
X137577716Y-61008919D01*
X137586829Y-61101446D01*
X137613820Y-61190419D01*
X137657647Y-61272416D01*
X137662144Y-61277896D01*
X137716631Y-61344288D01*
X137734638Y-61359066D01*
X138857777Y-62482206D01*
X138872555Y-62500213D01*
X138924177Y-62542578D01*
X138944426Y-62559196D01*
X139026423Y-62603024D01*
X139114482Y-62629737D01*
X139105844Y-62635508D01*
X138892114Y-62849238D01*
X138724187Y-63100558D01*
X138608517Y-63379810D01*
X138549549Y-63676263D01*
X138549549Y-63978523D01*
X138608517Y-64274976D01*
X138724187Y-64554228D01*
X138892114Y-64805548D01*
X139105844Y-65019278D01*
X139357164Y-65187205D01*
X139636416Y-65302875D01*
X139932869Y-65361843D01*
X140235129Y-65361843D01*
X140531582Y-65302875D01*
X140810834Y-65187205D01*
X141062154Y-65019278D01*
X141275884Y-64805548D01*
X141331698Y-64722017D01*
X141331698Y-64737438D01*
X141329415Y-64760618D01*
X141331698Y-64783797D01*
X141338528Y-64853145D01*
X141365518Y-64942117D01*
X141409346Y-65024116D01*
X141468329Y-65095987D01*
X141486341Y-65110769D01*
X142769323Y-66393751D01*
X142784105Y-66411763D01*
X142855976Y-66470746D01*
X142937974Y-66514574D01*
X143004593Y-66534783D01*
X143026946Y-66541564D01*
X143119473Y-66550677D01*
X143142653Y-66548394D01*
X147792900Y-66548394D01*
X147747706Y-66657501D01*
X147718999Y-66801820D01*
X147718999Y-66948966D01*
X147719981Y-66953902D01*
X142052638Y-72621246D01*
X142034631Y-72636024D01*
X142019854Y-72654030D01*
X141975647Y-72707896D01*
X141931820Y-72789893D01*
X141904829Y-72878866D01*
X141895716Y-72971393D01*
X141898000Y-72994583D01*
X141897999Y-77338328D01*
X141888981Y-77316556D01*
X141807231Y-77194209D01*
X141703183Y-77090161D01*
X141580836Y-77008411D01*
X141444891Y-76952100D01*
X141300572Y-76923393D01*
X141153426Y-76923393D01*
X141009107Y-76952100D01*
X140873162Y-77008411D01*
X140750815Y-77090161D01*
X140646767Y-77194209D01*
X140565017Y-77316556D01*
X140508706Y-77452501D01*
X140479999Y-77596820D01*
X140479999Y-77743966D01*
X140508706Y-77888285D01*
X140565017Y-78024230D01*
X140646767Y-78146577D01*
X140750815Y-78250625D01*
X140755000Y-78253421D01*
X140754999Y-79500365D01*
X140750815Y-79503161D01*
X140646767Y-79607209D01*
X140565017Y-79729556D01*
X140508706Y-79865501D01*
X140479999Y-80009820D01*
X140479999Y-80156966D01*
X140508706Y-80301285D01*
X140565017Y-80437230D01*
X140646767Y-80559577D01*
X140750815Y-80663625D01*
X140873162Y-80745375D01*
X141009107Y-80801686D01*
X141153426Y-80830393D01*
X141300572Y-80830393D01*
X141444891Y-80801686D01*
X141580836Y-80745375D01*
X141703183Y-80663625D01*
X141798499Y-80568309D01*
X141893815Y-80663625D01*
X142016162Y-80745375D01*
X142152107Y-80801686D01*
X142296426Y-80830393D01*
X142443572Y-80830393D01*
X142587891Y-80801686D01*
X142723836Y-80745375D01*
X142846183Y-80663625D01*
X142950231Y-80559577D01*
X143031981Y-80437230D01*
X143088292Y-80301285D01*
X143116999Y-80156966D01*
X143116999Y-80009820D01*
X143088292Y-79865501D01*
X143031981Y-79729556D01*
X142950231Y-79607209D01*
X142846183Y-79503161D01*
X142841999Y-79500365D01*
X142841999Y-78217393D01*
X150652321Y-78217393D01*
X150652321Y-79792393D01*
X150663824Y-79909189D01*
X150697893Y-80021497D01*
X150753216Y-80125001D01*
X150827670Y-80215722D01*
X150918391Y-80290176D01*
X151021895Y-80345499D01*
X151134203Y-80379568D01*
X151250999Y-80391071D01*
X153051261Y-80391071D01*
X154290082Y-81629893D01*
X154171814Y-81748161D01*
X154171815Y-81748161D01*
X154145742Y-81774234D01*
X154145736Y-81774239D01*
X153536815Y-82383161D01*
X153510742Y-82409234D01*
X153510736Y-82409239D01*
X152901815Y-83018161D01*
X152875742Y-83044234D01*
X152875736Y-83044239D01*
X152266815Y-83653161D01*
X152162767Y-83757209D01*
X152142277Y-83787874D01*
X152118887Y-83816375D01*
X152101506Y-83848892D01*
X152081017Y-83879556D01*
X152066905Y-83913626D01*
X152049522Y-83946146D01*
X152038819Y-83981431D01*
X152024706Y-84015501D01*
X152017511Y-84051673D01*
X152006808Y-84086956D01*
X152003195Y-84123646D01*
X151995999Y-84159820D01*
X151995999Y-84196708D01*
X151992386Y-84233393D01*
X151995999Y-84270078D01*
X151995999Y-84306966D01*
X152003195Y-84343140D01*
X152006808Y-84379830D01*
X152017511Y-84415113D01*
X152024706Y-84451285D01*
X152038819Y-84485355D01*
X152049522Y-84520640D01*
X152066905Y-84553160D01*
X152081017Y-84587230D01*
X152101506Y-84617894D01*
X152118887Y-84650411D01*
X152142278Y-84678914D01*
X152162767Y-84709577D01*
X152188841Y-84735651D01*
X152212235Y-84764157D01*
X152240741Y-84787551D01*
X152266815Y-84813625D01*
X152297478Y-84834114D01*
X152325981Y-84857505D01*
X152358498Y-84874886D01*
X152389162Y-84895375D01*
X152423232Y-84909487D01*
X152455752Y-84926870D01*
X152491037Y-84937573D01*
X152525107Y-84951686D01*
X152561279Y-84958881D01*
X152596562Y-84969584D01*
X152633252Y-84973197D01*
X152669426Y-84980393D01*
X152706314Y-84980393D01*
X152742999Y-84984006D01*
X152779684Y-84980393D01*
X152816572Y-84980393D01*
X152852746Y-84973197D01*
X152889436Y-84969584D01*
X152924719Y-84958881D01*
X152960891Y-84951686D01*
X152994961Y-84937573D01*
X153030246Y-84926870D01*
X153062766Y-84909487D01*
X153096836Y-84895375D01*
X153127500Y-84874886D01*
X153160017Y-84857505D01*
X153188518Y-84834115D01*
X153219183Y-84813625D01*
X153323231Y-84709577D01*
X153932153Y-84100656D01*
X153932158Y-84100650D01*
X153958231Y-84074577D01*
X154567153Y-83465656D01*
X154567158Y-83465650D01*
X154593231Y-83439577D01*
X155202153Y-82830656D01*
X155202158Y-82830650D01*
X155338999Y-82693809D01*
X155338999Y-84654715D01*
X154635999Y-84654715D01*
X154567975Y-84661415D01*
X154502566Y-84681257D01*
X154442284Y-84713478D01*
X154389446Y-84756840D01*
X154346084Y-84809678D01*
X154313863Y-84869960D01*
X154294021Y-84935369D01*
X154287321Y-85003393D01*
X154287321Y-90403393D01*
X154294021Y-90471417D01*
X154313863Y-90536826D01*
X154346084Y-90597108D01*
X154389446Y-90649946D01*
X154442284Y-90693308D01*
X154502566Y-90725529D01*
X154567975Y-90745371D01*
X154635999Y-90752071D01*
X155537109Y-90752071D01*
X155555235Y-90774157D01*
X155583743Y-90797553D01*
X155912842Y-91126653D01*
X155936235Y-91155157D01*
X156049980Y-91248506D01*
X156179751Y-91317870D01*
X156320561Y-91360584D01*
X156430306Y-91371393D01*
X156430313Y-91371393D01*
X156466998Y-91375006D01*
X156503684Y-91371393D01*
X159839352Y-91371393D01*
X159801497Y-91442213D01*
X159765187Y-91561911D01*
X159752927Y-91686393D01*
X159755999Y-93700643D01*
X159914749Y-93859393D01*
X160813999Y-93859393D01*
X160813999Y-93839393D01*
X161067999Y-93839393D01*
X161067999Y-93859393D01*
X161087999Y-93859393D01*
X161087999Y-94113393D01*
X161067999Y-94113393D01*
X161067999Y-96762643D01*
X161226749Y-96921393D01*
X161490999Y-96924465D01*
X161615481Y-96912205D01*
X161735179Y-96875895D01*
X161845493Y-96816930D01*
X161942184Y-96737578D01*
X162021536Y-96640887D01*
X162027963Y-96628862D01*
X162090999Y-96635071D01*
X163190999Y-96635071D01*
X163254035Y-96628862D01*
X163260462Y-96640887D01*
X163339814Y-96737578D01*
X163436505Y-96816930D01*
X163546819Y-96875895D01*
X163666517Y-96912205D01*
X163790999Y-96924465D01*
X164055249Y-96921393D01*
X164213999Y-96762643D01*
X164213999Y-94113393D01*
X164193999Y-94113393D01*
X164193999Y-93859393D01*
X164213999Y-93859393D01*
X164213999Y-91210143D01*
X164055249Y-91051393D01*
X163790999Y-91048321D01*
X163666517Y-91060581D01*
X163546819Y-91096891D01*
X163436505Y-91155856D01*
X163387999Y-91195664D01*
X163387999Y-91120078D01*
X163391612Y-91083392D01*
X163387999Y-91046707D01*
X163387999Y-91046700D01*
X163377190Y-90936955D01*
X163334476Y-90796145D01*
X163265112Y-90666374D01*
X163171763Y-90552629D01*
X163143254Y-90529232D01*
X162786177Y-90172155D01*
X164055249Y-90171393D01*
X164213999Y-90012643D01*
X164213999Y-84963393D01*
X164467999Y-84963393D01*
X164467999Y-90012643D01*
X164626749Y-90171393D01*
X169740999Y-90174465D01*
X169865481Y-90162205D01*
X169985179Y-90125895D01*
X170095493Y-90066930D01*
X170192184Y-89987578D01*
X170271536Y-89890887D01*
X170330501Y-89780573D01*
X170366811Y-89660875D01*
X170379071Y-89536393D01*
X170377163Y-86794393D01*
X170637927Y-86794393D01*
X170650187Y-86918875D01*
X170686497Y-87038573D01*
X170745462Y-87148887D01*
X170824814Y-87245578D01*
X170921505Y-87324930D01*
X171031819Y-87383895D01*
X171151517Y-87420205D01*
X171275999Y-87432465D01*
X173190249Y-87429393D01*
X173348999Y-87270643D01*
X173348999Y-85671393D01*
X173602999Y-85671393D01*
X173602999Y-87270643D01*
X173761749Y-87429393D01*
X175675999Y-87432465D01*
X175800481Y-87420205D01*
X175920179Y-87383895D01*
X176030493Y-87324930D01*
X176127184Y-87245578D01*
X176206536Y-87148887D01*
X176265501Y-87038573D01*
X176301811Y-86918875D01*
X176314071Y-86794393D01*
X176310999Y-85830143D01*
X176152249Y-85671393D01*
X173602999Y-85671393D01*
X173348999Y-85671393D01*
X170799749Y-85671393D01*
X170640999Y-85830143D01*
X170637927Y-86794393D01*
X170377163Y-86794393D01*
X170375999Y-85122143D01*
X170217249Y-84963393D01*
X164467999Y-84963393D01*
X164213999Y-84963393D01*
X158464749Y-84963393D01*
X158305999Y-85122143D01*
X158302927Y-89536393D01*
X158315187Y-89660875D01*
X158351497Y-89780573D01*
X158403249Y-89877393D01*
X157884677Y-89877393D01*
X157884677Y-85003393D01*
X157877977Y-84935369D01*
X157858135Y-84869960D01*
X157825914Y-84809678D01*
X157782552Y-84756840D01*
X157729714Y-84713478D01*
X157669432Y-84681257D01*
X157604023Y-84661415D01*
X157535999Y-84654715D01*
X156832999Y-84654715D01*
X156832999Y-82406078D01*
X156836612Y-82369393D01*
X156832999Y-82332707D01*
X156832999Y-82332700D01*
X156822190Y-82222955D01*
X156779476Y-82082145D01*
X156710112Y-81952374D01*
X156616763Y-81838629D01*
X156588261Y-81815238D01*
X155878159Y-81105137D01*
X155854763Y-81076629D01*
X155826261Y-81053238D01*
X154909416Y-80136393D01*
X158302927Y-80136393D01*
X158305999Y-84550643D01*
X158464749Y-84709393D01*
X164213999Y-84709393D01*
X164213999Y-79660143D01*
X164467999Y-79660143D01*
X164467999Y-84709393D01*
X170217249Y-84709393D01*
X170375999Y-84550643D01*
X170376177Y-84294393D01*
X170637927Y-84294393D01*
X170640999Y-85258643D01*
X170799749Y-85417393D01*
X173348999Y-85417393D01*
X173348999Y-83818143D01*
X173602999Y-83818143D01*
X173602999Y-85417393D01*
X176152249Y-85417393D01*
X176310999Y-85258643D01*
X176314071Y-84294393D01*
X176301811Y-84169911D01*
X176265501Y-84050213D01*
X176206536Y-83939899D01*
X176127184Y-83843208D01*
X176030493Y-83763856D01*
X175920179Y-83704891D01*
X175800481Y-83668581D01*
X175675999Y-83656321D01*
X173761749Y-83659393D01*
X173602999Y-83818143D01*
X173348999Y-83818143D01*
X173190249Y-83659393D01*
X171275999Y-83656321D01*
X171151517Y-83668581D01*
X171031819Y-83704891D01*
X170921505Y-83763856D01*
X170824814Y-83843208D01*
X170745462Y-83939899D01*
X170686497Y-84050213D01*
X170650187Y-84169911D01*
X170637927Y-84294393D01*
X170376177Y-84294393D01*
X170379071Y-80136393D01*
X170366811Y-80011911D01*
X170330501Y-79892213D01*
X170271536Y-79781899D01*
X170192184Y-79685208D01*
X170095493Y-79605856D01*
X169985179Y-79546891D01*
X169865481Y-79510581D01*
X169740999Y-79498321D01*
X164626749Y-79501393D01*
X164467999Y-79660143D01*
X164213999Y-79660143D01*
X164055249Y-79501393D01*
X158940999Y-79498321D01*
X158816517Y-79510581D01*
X158696819Y-79546891D01*
X158586505Y-79605856D01*
X158489814Y-79685208D01*
X158410462Y-79781899D01*
X158351497Y-79892213D01*
X158315187Y-80011911D01*
X158302927Y-80136393D01*
X154909416Y-80136393D01*
X153899677Y-79126655D01*
X153899677Y-78217393D01*
X153888174Y-78100597D01*
X153854105Y-77988289D01*
X153798782Y-77884785D01*
X153724328Y-77794064D01*
X153633607Y-77719610D01*
X153530103Y-77664287D01*
X153417795Y-77630218D01*
X153300999Y-77618715D01*
X151250999Y-77618715D01*
X151134203Y-77630218D01*
X151021895Y-77664287D01*
X150918391Y-77719610D01*
X150827670Y-77794064D01*
X150753216Y-77884785D01*
X150697893Y-77988289D01*
X150663824Y-78100597D01*
X150652321Y-78217393D01*
X142841999Y-78217393D01*
X142841999Y-75333592D01*
X143073472Y-75333592D01*
X143073472Y-75719192D01*
X143148698Y-76097382D01*
X143296261Y-76453629D01*
X143510488Y-76774244D01*
X143783148Y-77046904D01*
X144103763Y-77261131D01*
X144460010Y-77408694D01*
X144838200Y-77483920D01*
X145223800Y-77483920D01*
X145601990Y-77408694D01*
X145958237Y-77261131D01*
X146278852Y-77046904D01*
X146482563Y-76843193D01*
X156478327Y-76843193D01*
X156490587Y-76967675D01*
X156526897Y-77087373D01*
X156585862Y-77197687D01*
X156665214Y-77294378D01*
X156761905Y-77373730D01*
X156872219Y-77432695D01*
X156991917Y-77469005D01*
X157116399Y-77481265D01*
X157730649Y-77478193D01*
X157889399Y-77319443D01*
X157889399Y-76070193D01*
X156640149Y-76070193D01*
X156481399Y-76228943D01*
X156478327Y-76843193D01*
X146482563Y-76843193D01*
X146551512Y-76774244D01*
X146765739Y-76453629D01*
X146913302Y-76097382D01*
X146988528Y-75719192D01*
X146988528Y-75333592D01*
X146930765Y-75043193D01*
X156478327Y-75043193D01*
X156481399Y-75657443D01*
X156640149Y-75816193D01*
X157889399Y-75816193D01*
X157889399Y-74566943D01*
X158143399Y-74566943D01*
X158143399Y-75816193D01*
X158163399Y-75816193D01*
X158163399Y-76070193D01*
X158143399Y-76070193D01*
X158143399Y-77319443D01*
X158302149Y-77478193D01*
X158916399Y-77481265D01*
X159040881Y-77469005D01*
X159160579Y-77432695D01*
X159270893Y-77373730D01*
X159367584Y-77294378D01*
X159446936Y-77197687D01*
X159505901Y-77087373D01*
X159542211Y-76967675D01*
X159554471Y-76843193D01*
X159553976Y-76744294D01*
X159721483Y-76911801D01*
X159925723Y-77048270D01*
X160152662Y-77142272D01*
X160393580Y-77190193D01*
X160639218Y-77190193D01*
X160880136Y-77142272D01*
X161107075Y-77048270D01*
X161311315Y-76911801D01*
X161485007Y-76738109D01*
X161621476Y-76533869D01*
X161715478Y-76306930D01*
X161763399Y-76066012D01*
X161763399Y-75820374D01*
X161769399Y-75820374D01*
X161769399Y-76066012D01*
X161817320Y-76306930D01*
X161911322Y-76533869D01*
X162047791Y-76738109D01*
X162221483Y-76911801D01*
X162425723Y-77048270D01*
X162652662Y-77142272D01*
X162893580Y-77190193D01*
X163139218Y-77190193D01*
X163380136Y-77142272D01*
X163607075Y-77048270D01*
X163811315Y-76911801D01*
X163985007Y-76738109D01*
X164121476Y-76533869D01*
X164215478Y-76306930D01*
X164263399Y-76066012D01*
X164263399Y-75820374D01*
X164215478Y-75579456D01*
X164121476Y-75352517D01*
X163985007Y-75148277D01*
X163811315Y-74974585D01*
X163607075Y-74838116D01*
X163380136Y-74744114D01*
X163139218Y-74696193D01*
X162893580Y-74696193D01*
X162652662Y-74744114D01*
X162425723Y-74838116D01*
X162221483Y-74974585D01*
X162047791Y-75148277D01*
X161911322Y-75352517D01*
X161817320Y-75579456D01*
X161769399Y-75820374D01*
X161763399Y-75820374D01*
X161715478Y-75579456D01*
X161621476Y-75352517D01*
X161485007Y-75148277D01*
X161311315Y-74974585D01*
X161107075Y-74838116D01*
X160880136Y-74744114D01*
X160639218Y-74696193D01*
X160393580Y-74696193D01*
X160152662Y-74744114D01*
X159925723Y-74838116D01*
X159721483Y-74974585D01*
X159553976Y-75142092D01*
X159554471Y-75043193D01*
X159542211Y-74918711D01*
X159505901Y-74799013D01*
X159446936Y-74688699D01*
X159367584Y-74592008D01*
X159270893Y-74512656D01*
X159160579Y-74453691D01*
X159040881Y-74417381D01*
X158916399Y-74405121D01*
X158302149Y-74408193D01*
X158143399Y-74566943D01*
X157889399Y-74566943D01*
X157730649Y-74408193D01*
X157116399Y-74405121D01*
X156991917Y-74417381D01*
X156872219Y-74453691D01*
X156761905Y-74512656D01*
X156665214Y-74592008D01*
X156585862Y-74688699D01*
X156526897Y-74799013D01*
X156490587Y-74918711D01*
X156478327Y-75043193D01*
X146930765Y-75043193D01*
X146913302Y-74955402D01*
X146765739Y-74599155D01*
X146551512Y-74278540D01*
X146278852Y-74005880D01*
X145996760Y-73817393D01*
X150362927Y-73817393D01*
X150375187Y-73941875D01*
X150411497Y-74061573D01*
X150470462Y-74171887D01*
X150549814Y-74268578D01*
X150646505Y-74347930D01*
X150756819Y-74406895D01*
X150876517Y-74443205D01*
X151000999Y-74455465D01*
X151990249Y-74452393D01*
X152148999Y-74293643D01*
X152148999Y-72906893D01*
X152402999Y-72906893D01*
X152402999Y-74293643D01*
X152561749Y-74452393D01*
X153550999Y-74455465D01*
X153675481Y-74443205D01*
X153795179Y-74406895D01*
X153905493Y-74347930D01*
X154002184Y-74268578D01*
X154081536Y-74171887D01*
X154140501Y-74061573D01*
X154176811Y-73941875D01*
X154189071Y-73817393D01*
X154185999Y-73065643D01*
X154027249Y-72906893D01*
X152402999Y-72906893D01*
X152148999Y-72906893D01*
X150524749Y-72906893D01*
X150365999Y-73065643D01*
X150362927Y-73817393D01*
X145996760Y-73817393D01*
X145958237Y-73791653D01*
X145601990Y-73644090D01*
X145223800Y-73568864D01*
X144838200Y-73568864D01*
X144460010Y-73644090D01*
X144103763Y-73791653D01*
X143783148Y-74005880D01*
X143510488Y-74278540D01*
X143296261Y-74599155D01*
X143148698Y-74955402D01*
X143073472Y-75333592D01*
X142841999Y-75333592D01*
X142841999Y-73166901D01*
X144266507Y-71742393D01*
X150362927Y-71742393D01*
X150365999Y-72494143D01*
X150524749Y-72652893D01*
X152148999Y-72652893D01*
X152148999Y-71266143D01*
X152402999Y-71266143D01*
X152402999Y-72652893D01*
X154027249Y-72652893D01*
X154185999Y-72494143D01*
X154189071Y-71742393D01*
X154176811Y-71617911D01*
X154140501Y-71498213D01*
X154081536Y-71387899D01*
X154002184Y-71291208D01*
X153905493Y-71211856D01*
X153795179Y-71152891D01*
X153675481Y-71116581D01*
X153550999Y-71104321D01*
X152561749Y-71107393D01*
X152402999Y-71266143D01*
X152148999Y-71266143D01*
X151990249Y-71107393D01*
X151000999Y-71104321D01*
X150876517Y-71116581D01*
X150756819Y-71152891D01*
X150646505Y-71211856D01*
X150549814Y-71291208D01*
X150470462Y-71387899D01*
X150411497Y-71498213D01*
X150375187Y-71617911D01*
X150362927Y-71742393D01*
X144266507Y-71742393D01*
X147796866Y-68212034D01*
X153419399Y-68212034D01*
X153419399Y-68674352D01*
X153509593Y-69127788D01*
X153686515Y-69554914D01*
X153943365Y-69939318D01*
X154270274Y-70266227D01*
X154654678Y-70523077D01*
X155081804Y-70699999D01*
X155535240Y-70790193D01*
X155997558Y-70790193D01*
X156450994Y-70699999D01*
X156878120Y-70523077D01*
X157262524Y-70266227D01*
X157589433Y-69939318D01*
X157846283Y-69554914D01*
X158023205Y-69127788D01*
X158113399Y-68674352D01*
X158113399Y-68212034D01*
X158023205Y-67758598D01*
X157846283Y-67331472D01*
X157589433Y-66947068D01*
X157262524Y-66620159D01*
X156878120Y-66363309D01*
X156450994Y-66186387D01*
X155997558Y-66096193D01*
X155535240Y-66096193D01*
X155081804Y-66186387D01*
X154654678Y-66363309D01*
X154270274Y-66620159D01*
X153943365Y-66947068D01*
X153686515Y-67331472D01*
X153509593Y-67758598D01*
X153419399Y-68212034D01*
X147796866Y-68212034D01*
X148387490Y-67621411D01*
X148392426Y-67622393D01*
X148539572Y-67622393D01*
X148683891Y-67593686D01*
X148819836Y-67537375D01*
X148942183Y-67455625D01*
X149046231Y-67351577D01*
X149127981Y-67229230D01*
X149184292Y-67093285D01*
X149212999Y-66948966D01*
X149212999Y-66801820D01*
X149184292Y-66657501D01*
X149139098Y-66548394D01*
X150314820Y-66548394D01*
X150338000Y-66550677D01*
X150361180Y-66548394D01*
X150430528Y-66541564D01*
X150519500Y-66514574D01*
X150601498Y-66470746D01*
X150673369Y-66411763D01*
X150688151Y-66393751D01*
X151032362Y-66049541D01*
X151050369Y-66034763D01*
X151109352Y-65962892D01*
X151153180Y-65880894D01*
X151180170Y-65791922D01*
X151183409Y-65759031D01*
X151189283Y-65699394D01*
X151187000Y-65676214D01*
X151187000Y-65145898D01*
X151204504Y-65128394D01*
X151233017Y-65197230D01*
X151314767Y-65319577D01*
X151418815Y-65423625D01*
X151541162Y-65505375D01*
X151677107Y-65561686D01*
X151821426Y-65590393D01*
X151968572Y-65590393D01*
X152112891Y-65561686D01*
X152248836Y-65505375D01*
X152371183Y-65423625D01*
X152475231Y-65319577D01*
X152478027Y-65315393D01*
X156643173Y-65315393D01*
X157848544Y-66520765D01*
X157863322Y-66538772D01*
X157881327Y-66553548D01*
X157935193Y-66597755D01*
X158017191Y-66641583D01*
X158106163Y-66668573D01*
X158198691Y-66677686D01*
X158221871Y-66675403D01*
X163715030Y-66675403D01*
X163443365Y-66947068D01*
X163186515Y-67331472D01*
X163009593Y-67758598D01*
X162919399Y-68212034D01*
X162919399Y-68674352D01*
X163009593Y-69127788D01*
X163186515Y-69554914D01*
X163443365Y-69939318D01*
X163770274Y-70266227D01*
X164154678Y-70523077D01*
X164581804Y-70699999D01*
X165035240Y-70790193D01*
X165497558Y-70790193D01*
X165950994Y-70699999D01*
X166378120Y-70523077D01*
X166762524Y-70266227D01*
X167089433Y-69939318D01*
X167346283Y-69554914D01*
X167523205Y-69127788D01*
X167613399Y-68674352D01*
X167613399Y-68212034D01*
X167523205Y-67758598D01*
X167346283Y-67331472D01*
X167089433Y-66947068D01*
X166762524Y-66620159D01*
X166378120Y-66363309D01*
X165950994Y-66186387D01*
X165497558Y-66096193D01*
X165035240Y-66096193D01*
X164581804Y-66186387D01*
X164551122Y-66199096D01*
X166666544Y-64083675D01*
X166684551Y-64068897D01*
X166743534Y-63997026D01*
X166787362Y-63915028D01*
X166814352Y-63826056D01*
X166821182Y-63756708D01*
X166821182Y-63756707D01*
X166823465Y-63733528D01*
X166821182Y-63710348D01*
X166821182Y-63411548D01*
X167033146Y-63623512D01*
X167353761Y-63837739D01*
X167710008Y-63985302D01*
X168088198Y-64060528D01*
X168473798Y-64060528D01*
X168851988Y-63985302D01*
X169208235Y-63837739D01*
X169528850Y-63623512D01*
X169801510Y-63350852D01*
X170015737Y-63030237D01*
X170163300Y-62673990D01*
X170238526Y-62295800D01*
X170238526Y-61910200D01*
X170163300Y-61532010D01*
X170015737Y-61175763D01*
X169801510Y-60855148D01*
X169528850Y-60582488D01*
X169208235Y-60368261D01*
X168851988Y-60220698D01*
X168473798Y-60145472D01*
X168088198Y-60145472D01*
X167710008Y-60220698D01*
X167697000Y-60226086D01*
X167697000Y-58344827D01*
X167699283Y-58321649D01*
X167696813Y-58296573D01*
X167690170Y-58229122D01*
X167663180Y-58140150D01*
X167619352Y-58058152D01*
X167560369Y-57986281D01*
X167542352Y-57971495D01*
X167392734Y-57821876D01*
X167392730Y-57821873D01*
X167201897Y-57631038D01*
X167187113Y-57613024D01*
X167115242Y-57554041D01*
X167033244Y-57510213D01*
X166944272Y-57483223D01*
X166874924Y-57476393D01*
X166874922Y-57476393D01*
X166851745Y-57474110D01*
X166828565Y-57476393D01*
X165552508Y-57476393D01*
X163309017Y-55232903D01*
X163309999Y-55227966D01*
X163309999Y-55080820D01*
X163281292Y-54936501D01*
X163266750Y-54901393D01*
X171638491Y-54901393D01*
X172230981Y-55493884D01*
X172229999Y-55498820D01*
X172229999Y-55645966D01*
X172258706Y-55790285D01*
X172315017Y-55926230D01*
X172396767Y-56048577D01*
X172500815Y-56152625D01*
X172623162Y-56234375D01*
X172759107Y-56290686D01*
X172903426Y-56319393D01*
X173050572Y-56319393D01*
X173194891Y-56290686D01*
X173330836Y-56234375D01*
X173453183Y-56152625D01*
X173557231Y-56048577D01*
X173638981Y-55926230D01*
X173695292Y-55790285D01*
X173723999Y-55645966D01*
X173723999Y-55498820D01*
X173695292Y-55354501D01*
X173638981Y-55218556D01*
X173557231Y-55096209D01*
X173453183Y-54992161D01*
X173330836Y-54910411D01*
X173194891Y-54854100D01*
X173050572Y-54825393D01*
X172903426Y-54825393D01*
X172898490Y-54826375D01*
X172465507Y-54393393D01*
X174851357Y-54393393D01*
X174855017Y-54402230D01*
X174936767Y-54524577D01*
X175040815Y-54628625D01*
X175163162Y-54710375D01*
X175299107Y-54766686D01*
X175443426Y-54795393D01*
X175590572Y-54795393D01*
X175734891Y-54766686D01*
X175870836Y-54710375D01*
X175993183Y-54628625D01*
X176097231Y-54524577D01*
X176178981Y-54402230D01*
X176207494Y-54333395D01*
X176822999Y-54948900D01*
X176823000Y-60543859D01*
X176696107Y-60569100D01*
X176560162Y-60625411D01*
X176437815Y-60707161D01*
X176333767Y-60811209D01*
X176252017Y-60933556D01*
X176195706Y-61069501D01*
X176166999Y-61213820D01*
X176166999Y-61360966D01*
X176195706Y-61505285D01*
X176252017Y-61641230D01*
X176333767Y-61763577D01*
X176437815Y-61867625D01*
X176560162Y-61949375D01*
X176696107Y-62005686D01*
X176840426Y-62034393D01*
X176874107Y-62034393D01*
X176874107Y-62068074D01*
X176902814Y-62212393D01*
X176959125Y-62348338D01*
X177040875Y-62470685D01*
X177144923Y-62574733D01*
X177267270Y-62656483D01*
X177403215Y-62712794D01*
X177547534Y-62741501D01*
X177636613Y-62741501D01*
X177592706Y-62847501D01*
X177563999Y-62991820D01*
X177563999Y-63138966D01*
X177592706Y-63283285D01*
X177649017Y-63419230D01*
X177730767Y-63541577D01*
X177834815Y-63645625D01*
X177957162Y-63727375D01*
X178093107Y-63783686D01*
X178237426Y-63812393D01*
X178384572Y-63812393D01*
X178528891Y-63783686D01*
X178664836Y-63727375D01*
X178727999Y-63685171D01*
X178727999Y-64185213D01*
X178725716Y-64208393D01*
X178727999Y-64231572D01*
X178734829Y-64300920D01*
X178761819Y-64389892D01*
X178805647Y-64471891D01*
X178864630Y-64543762D01*
X178882642Y-64558544D01*
X180500852Y-66176755D01*
X180515630Y-66194762D01*
X180557828Y-66229393D01*
X180587501Y-66253745D01*
X180669499Y-66297573D01*
X180758471Y-66324563D01*
X180850999Y-66333676D01*
X180874179Y-66331393D01*
X181052328Y-66331393D01*
X181061863Y-66362826D01*
X181094084Y-66423108D01*
X181137446Y-66475946D01*
X181159924Y-66494393D01*
X181137446Y-66512840D01*
X181094084Y-66565678D01*
X181061863Y-66625960D01*
X181052328Y-66657393D01*
X170714178Y-66657393D01*
X170690998Y-66655110D01*
X170601182Y-66663956D01*
X170598471Y-66664223D01*
X170509499Y-66691213D01*
X170427501Y-66735041D01*
X170355630Y-66794024D01*
X170340852Y-66812031D01*
X168610509Y-68542375D01*
X168605572Y-68541393D01*
X168458426Y-68541393D01*
X168314107Y-68570100D01*
X168178162Y-68626411D01*
X168055815Y-68708161D01*
X167951767Y-68812209D01*
X167870017Y-68934556D01*
X167813706Y-69070501D01*
X167784999Y-69214820D01*
X167784999Y-69361966D01*
X167813706Y-69506285D01*
X167870017Y-69642230D01*
X167951767Y-69764577D01*
X168055815Y-69868625D01*
X168178162Y-69950375D01*
X168314107Y-70006686D01*
X168458426Y-70035393D01*
X168605572Y-70035393D01*
X168749891Y-70006686D01*
X168885836Y-69950375D01*
X169008183Y-69868625D01*
X169103499Y-69773309D01*
X169139968Y-69809778D01*
X169262315Y-69891528D01*
X169374066Y-69937818D01*
X167738491Y-71573393D01*
X166448027Y-71573393D01*
X166445231Y-71569209D01*
X166341183Y-71465161D01*
X166218836Y-71383411D01*
X166082891Y-71327100D01*
X165938572Y-71298393D01*
X165791426Y-71298393D01*
X165647107Y-71327100D01*
X165511162Y-71383411D01*
X165388815Y-71465161D01*
X165284767Y-71569209D01*
X165203017Y-71691556D01*
X165146706Y-71827501D01*
X165117999Y-71971820D01*
X165117999Y-72111004D01*
X165049572Y-72097393D01*
X164902426Y-72097393D01*
X164758107Y-72126100D01*
X164622162Y-72182411D01*
X164499815Y-72264161D01*
X164395767Y-72368209D01*
X164314017Y-72490556D01*
X164257706Y-72626501D01*
X164228999Y-72770820D01*
X164228999Y-72917966D01*
X164257706Y-73062285D01*
X164314017Y-73198230D01*
X164395767Y-73320577D01*
X164499815Y-73424625D01*
X164622162Y-73506375D01*
X164758107Y-73562686D01*
X164902426Y-73591393D01*
X164990999Y-73591393D01*
X164990999Y-73679966D01*
X165019706Y-73824285D01*
X165076017Y-73960230D01*
X165157767Y-74082577D01*
X165261815Y-74186625D01*
X165384162Y-74268375D01*
X165520107Y-74324686D01*
X165664426Y-74353393D01*
X165811572Y-74353393D01*
X165955891Y-74324686D01*
X166091836Y-74268375D01*
X166214183Y-74186625D01*
X166318231Y-74082577D01*
X166321027Y-74078393D01*
X174710634Y-74078393D01*
X174510486Y-74278541D01*
X174296259Y-74599156D01*
X174148696Y-74955403D01*
X174073470Y-75333593D01*
X174073470Y-75719193D01*
X174148696Y-76097383D01*
X174296259Y-76453630D01*
X174510486Y-76774245D01*
X174783146Y-77046905D01*
X175103761Y-77261132D01*
X175460008Y-77408695D01*
X175838198Y-77483921D01*
X176223798Y-77483921D01*
X176601988Y-77408695D01*
X176958235Y-77261132D01*
X177278850Y-77046905D01*
X177551510Y-76774245D01*
X177765737Y-76453630D01*
X177913300Y-76097383D01*
X177988526Y-75719193D01*
X177988526Y-75333593D01*
X177913300Y-74955403D01*
X177765737Y-74599156D01*
X177551510Y-74278541D01*
X177346849Y-74073880D01*
X179395433Y-74073880D01*
X179441255Y-74078393D01*
X179441257Y-74078393D01*
X179464434Y-74080676D01*
X179487612Y-74078393D01*
X179505971Y-74078393D01*
X179508767Y-74082577D01*
X179612815Y-74186625D01*
X179735162Y-74268375D01*
X179871107Y-74324686D01*
X180015426Y-74353393D01*
X180162572Y-74353393D01*
X180306891Y-74324686D01*
X180442836Y-74268375D01*
X180565183Y-74186625D01*
X180669231Y-74082577D01*
X180750981Y-73960230D01*
X180807292Y-73824285D01*
X180835999Y-73679966D01*
X180835999Y-73532820D01*
X180807292Y-73388501D01*
X180750981Y-73252556D01*
X180669231Y-73130209D01*
X180565183Y-73026161D01*
X180442836Y-72944411D01*
X180306891Y-72888100D01*
X180162572Y-72859393D01*
X180053805Y-72859393D01*
X180055282Y-72844393D01*
X180052999Y-72821213D01*
X180052999Y-72579393D01*
X180745927Y-72579393D01*
X180758187Y-72703875D01*
X180794497Y-72823573D01*
X180853462Y-72933887D01*
X180932814Y-73030578D01*
X181029505Y-73109930D01*
X181139819Y-73168895D01*
X181259517Y-73205205D01*
X181383999Y-73217465D01*
X182298249Y-73214393D01*
X182456999Y-73055643D01*
X182456999Y-72336393D01*
X182710999Y-72336393D01*
X182710999Y-73055643D01*
X182869749Y-73214393D01*
X183783999Y-73217465D01*
X183908481Y-73205205D01*
X184028179Y-73168895D01*
X184138493Y-73109930D01*
X184235184Y-73030578D01*
X184314536Y-72933887D01*
X184373501Y-72823573D01*
X184409811Y-72703875D01*
X184422071Y-72579393D01*
X184418999Y-72495143D01*
X184260249Y-72336393D01*
X182710999Y-72336393D01*
X182456999Y-72336393D01*
X180907749Y-72336393D01*
X180748999Y-72495143D01*
X180745927Y-72579393D01*
X180052999Y-72579393D01*
X180052999Y-72240035D01*
X180061836Y-72236375D01*
X180184183Y-72154625D01*
X180288231Y-72050577D01*
X180369981Y-71928230D01*
X180426292Y-71792285D01*
X180454999Y-71647966D01*
X180454999Y-71500820D01*
X180426292Y-71356501D01*
X180406779Y-71309393D01*
X180745927Y-71309393D01*
X180758187Y-71433875D01*
X180794497Y-71553573D01*
X180805626Y-71574393D01*
X180794497Y-71595213D01*
X180758187Y-71714911D01*
X180745927Y-71839393D01*
X180748999Y-71923643D01*
X180907749Y-72082393D01*
X182456999Y-72082393D01*
X182456999Y-71066393D01*
X182710999Y-71066393D01*
X182710999Y-72082393D01*
X184260249Y-72082393D01*
X184418999Y-71923643D01*
X184422071Y-71839393D01*
X184409811Y-71714911D01*
X184373501Y-71595213D01*
X184362372Y-71574393D01*
X184373501Y-71553573D01*
X184409811Y-71433875D01*
X184422071Y-71309393D01*
X184418999Y-71225143D01*
X184260249Y-71066393D01*
X182710999Y-71066393D01*
X182456999Y-71066393D01*
X180907749Y-71066393D01*
X180748999Y-71225143D01*
X180745927Y-71309393D01*
X180406779Y-71309393D01*
X180369981Y-71220556D01*
X180288231Y-71098209D01*
X180184183Y-70994161D01*
X180061836Y-70912411D01*
X179925891Y-70856100D01*
X179781572Y-70827393D01*
X179634426Y-70827393D01*
X179490107Y-70856100D01*
X179354162Y-70912411D01*
X179231815Y-70994161D01*
X179127767Y-71098209D01*
X179046017Y-71220556D01*
X178989706Y-71356501D01*
X178960999Y-71500820D01*
X178960999Y-71647966D01*
X178989706Y-71792285D01*
X179046017Y-71928230D01*
X179109000Y-72022490D01*
X179108999Y-72372393D01*
X168276236Y-72372393D01*
X168284150Y-72362750D01*
X170505507Y-70141393D01*
X172669575Y-70141393D01*
X172639706Y-70213501D01*
X172610999Y-70357820D01*
X172610999Y-70504966D01*
X172639706Y-70649285D01*
X172696017Y-70785230D01*
X172777767Y-70907577D01*
X172881815Y-71011625D01*
X173004162Y-71093375D01*
X173140107Y-71149686D01*
X173284426Y-71178393D01*
X173431572Y-71178393D01*
X173575891Y-71149686D01*
X173711836Y-71093375D01*
X173834183Y-71011625D01*
X173938231Y-70907577D01*
X174019981Y-70785230D01*
X174076292Y-70649285D01*
X174104999Y-70504966D01*
X174104999Y-70357820D01*
X174076292Y-70213501D01*
X174046423Y-70141393D01*
X180913787Y-70141393D01*
X180853462Y-70214899D01*
X180794497Y-70325213D01*
X180758187Y-70444911D01*
X180745927Y-70569393D01*
X180748999Y-70653643D01*
X180907749Y-70812393D01*
X182456999Y-70812393D01*
X182456999Y-70792393D01*
X182710999Y-70792393D01*
X182710999Y-70812393D01*
X184260249Y-70812393D01*
X184418999Y-70653643D01*
X184422071Y-70569393D01*
X184409811Y-70444911D01*
X184373501Y-70325213D01*
X184314536Y-70214899D01*
X184235184Y-70118208D01*
X184138493Y-70038856D01*
X184132677Y-70035747D01*
X184132677Y-69299393D01*
X184125977Y-69231369D01*
X184106135Y-69165960D01*
X184073914Y-69105678D01*
X184030552Y-69052840D01*
X184008074Y-69034393D01*
X184030552Y-69015946D01*
X184073914Y-68963108D01*
X184106135Y-68902826D01*
X184125977Y-68837417D01*
X184132677Y-68769393D01*
X184132677Y-68029393D01*
X184125977Y-67961369D01*
X184106135Y-67895960D01*
X184073914Y-67835678D01*
X184030552Y-67782840D01*
X184008074Y-67764393D01*
X184030552Y-67745946D01*
X184073914Y-67693108D01*
X184106135Y-67632826D01*
X184125977Y-67567417D01*
X184132677Y-67499393D01*
X184132677Y-66759393D01*
X184125977Y-66691369D01*
X184106135Y-66625960D01*
X184073914Y-66565678D01*
X184030552Y-66512840D01*
X184008074Y-66494393D01*
X184030552Y-66475946D01*
X184073914Y-66423108D01*
X184106135Y-66362826D01*
X184125977Y-66297417D01*
X184132677Y-66229393D01*
X184132677Y-65489393D01*
X184125977Y-65421369D01*
X184106135Y-65355960D01*
X184073914Y-65295678D01*
X184030552Y-65242840D01*
X184008074Y-65224393D01*
X184030552Y-65205946D01*
X184073914Y-65153108D01*
X184106135Y-65092826D01*
X184125977Y-65027417D01*
X184132677Y-64959393D01*
X184132677Y-64219393D01*
X184125977Y-64151369D01*
X184106135Y-64085960D01*
X184073914Y-64025678D01*
X184030552Y-63972840D01*
X184008074Y-63954393D01*
X184030552Y-63935946D01*
X184073914Y-63883108D01*
X184106135Y-63822826D01*
X184125977Y-63757417D01*
X184132677Y-63689393D01*
X184132677Y-62949393D01*
X184125977Y-62881369D01*
X184106135Y-62815960D01*
X184073914Y-62755678D01*
X184030552Y-62702840D01*
X183977714Y-62659478D01*
X183917432Y-62627257D01*
X183852023Y-62607415D01*
X183783999Y-62600715D01*
X181383999Y-62600715D01*
X181315975Y-62607415D01*
X181250566Y-62627257D01*
X181190284Y-62659478D01*
X181137446Y-62702840D01*
X181123041Y-62720393D01*
X181053027Y-62720393D01*
X181050231Y-62716209D01*
X180946183Y-62612161D01*
X180823836Y-62530411D01*
X180687891Y-62474100D01*
X180543572Y-62445393D01*
X180396426Y-62445393D01*
X180252107Y-62474100D01*
X180179999Y-62503969D01*
X180179999Y-60891171D01*
X180243162Y-60933375D01*
X180379107Y-60989686D01*
X180523426Y-61018393D01*
X180670572Y-61018393D01*
X180814891Y-60989686D01*
X180950836Y-60933375D01*
X181073183Y-60851625D01*
X181177231Y-60747577D01*
X181180027Y-60743393D01*
X184338491Y-60743393D01*
X186011999Y-62416901D01*
X186011999Y-62600715D01*
X185283999Y-62600715D01*
X185215975Y-62607415D01*
X185150566Y-62627257D01*
X185090284Y-62659478D01*
X185037446Y-62702840D01*
X184994084Y-62755678D01*
X184961863Y-62815960D01*
X184942021Y-62881369D01*
X184935321Y-62949393D01*
X184935321Y-63689393D01*
X184942021Y-63757417D01*
X184961863Y-63822826D01*
X184994084Y-63883108D01*
X185037446Y-63935946D01*
X185059924Y-63954393D01*
X185037446Y-63972840D01*
X184994084Y-64025678D01*
X184961863Y-64085960D01*
X184942021Y-64151369D01*
X184935321Y-64219393D01*
X184935321Y-64959393D01*
X184942021Y-65027417D01*
X184961863Y-65092826D01*
X184994084Y-65153108D01*
X185037446Y-65205946D01*
X185059924Y-65224393D01*
X185037446Y-65242840D01*
X184994084Y-65295678D01*
X184961863Y-65355960D01*
X184942021Y-65421369D01*
X184935321Y-65489393D01*
X184935321Y-66229393D01*
X184942021Y-66297417D01*
X184961863Y-66362826D01*
X184994084Y-66423108D01*
X185037446Y-66475946D01*
X185059924Y-66494393D01*
X185037446Y-66512840D01*
X184994084Y-66565678D01*
X184961863Y-66625960D01*
X184942021Y-66691369D01*
X184935321Y-66759393D01*
X184935321Y-67499393D01*
X184942021Y-67567417D01*
X184961863Y-67632826D01*
X184994084Y-67693108D01*
X185037446Y-67745946D01*
X185059924Y-67764393D01*
X185037446Y-67782840D01*
X184994084Y-67835678D01*
X184961863Y-67895960D01*
X184942021Y-67961369D01*
X184935321Y-68029393D01*
X184935321Y-68769393D01*
X184942021Y-68837417D01*
X184961863Y-68902826D01*
X184994084Y-68963108D01*
X185037446Y-69015946D01*
X185059924Y-69034393D01*
X185037446Y-69052840D01*
X184994084Y-69105678D01*
X184961863Y-69165960D01*
X184942021Y-69231369D01*
X184935321Y-69299393D01*
X184935321Y-70039393D01*
X184942021Y-70107417D01*
X184961863Y-70172826D01*
X184994084Y-70233108D01*
X185037446Y-70285946D01*
X185059924Y-70304393D01*
X185037446Y-70322840D01*
X184994084Y-70375678D01*
X184961863Y-70435960D01*
X184942021Y-70501369D01*
X184935321Y-70569393D01*
X184935321Y-71309393D01*
X184942021Y-71377417D01*
X184961863Y-71442826D01*
X184994084Y-71503108D01*
X185037446Y-71555946D01*
X185059924Y-71574393D01*
X185037446Y-71592840D01*
X184994084Y-71645678D01*
X184961863Y-71705960D01*
X184942021Y-71771369D01*
X184935321Y-71839393D01*
X184935321Y-72579393D01*
X184942021Y-72647417D01*
X184961863Y-72712826D01*
X184994084Y-72773108D01*
X185037446Y-72825946D01*
X185090284Y-72869308D01*
X185150566Y-72901529D01*
X185215975Y-72921371D01*
X185283999Y-72928071D01*
X185736999Y-72928071D01*
X185737000Y-80626975D01*
X182418261Y-83945715D01*
X179925999Y-83945715D01*
X179809203Y-83957218D01*
X179696895Y-83991287D01*
X179593391Y-84046610D01*
X179502670Y-84121064D01*
X179428216Y-84211785D01*
X179372893Y-84315289D01*
X179338824Y-84427597D01*
X179327321Y-84544393D01*
X179327321Y-86544393D01*
X179338824Y-86661189D01*
X179372893Y-86773497D01*
X179428216Y-86877001D01*
X179502670Y-86967722D01*
X179593391Y-87042176D01*
X179696895Y-87097499D01*
X179809203Y-87131568D01*
X179925999Y-87143071D01*
X181128999Y-87143071D01*
X181128999Y-88019976D01*
X175909583Y-93239393D01*
X168639677Y-93239393D01*
X168639677Y-91686393D01*
X168632977Y-91618369D01*
X168613135Y-91552960D01*
X168580914Y-91492678D01*
X168537552Y-91439840D01*
X168484714Y-91396478D01*
X168424432Y-91364257D01*
X168359023Y-91344415D01*
X168290999Y-91337715D01*
X167190999Y-91337715D01*
X167122975Y-91344415D01*
X167057566Y-91364257D01*
X166997284Y-91396478D01*
X166944446Y-91439840D01*
X166901084Y-91492678D01*
X166890999Y-91511546D01*
X166880914Y-91492678D01*
X166837552Y-91439840D01*
X166784714Y-91396478D01*
X166724432Y-91364257D01*
X166659023Y-91344415D01*
X166590999Y-91337715D01*
X165490999Y-91337715D01*
X165427963Y-91343924D01*
X165421536Y-91331899D01*
X165342184Y-91235208D01*
X165245493Y-91155856D01*
X165135179Y-91096891D01*
X165015481Y-91060581D01*
X164890999Y-91048321D01*
X164626749Y-91051393D01*
X164467999Y-91210143D01*
X164467999Y-93859393D01*
X164487999Y-93859393D01*
X164487999Y-94113393D01*
X164467999Y-94113393D01*
X164467999Y-96762643D01*
X164626749Y-96921393D01*
X164890999Y-96924465D01*
X165015481Y-96912205D01*
X165135179Y-96875895D01*
X165245493Y-96816930D01*
X165294000Y-96777122D01*
X165294000Y-96869975D01*
X164793583Y-97370393D01*
X158045416Y-97370393D01*
X156961416Y-96286393D01*
X159752927Y-96286393D01*
X159765187Y-96410875D01*
X159801497Y-96530573D01*
X159860462Y-96640887D01*
X159939814Y-96737578D01*
X160036505Y-96816930D01*
X160146819Y-96875895D01*
X160266517Y-96912205D01*
X160390999Y-96924465D01*
X160655249Y-96921393D01*
X160813999Y-96762643D01*
X160813999Y-94113393D01*
X159914749Y-94113393D01*
X159755999Y-94272143D01*
X159752927Y-96286393D01*
X156961416Y-96286393D01*
X156502677Y-95827655D01*
X156502677Y-95485393D01*
X156495977Y-95417369D01*
X156476135Y-95351960D01*
X156443914Y-95291678D01*
X156400552Y-95238840D01*
X156347714Y-95195478D01*
X156287432Y-95163257D01*
X156222023Y-95143415D01*
X156153999Y-95136715D01*
X155811738Y-95136715D01*
X147984677Y-87309655D01*
X147984677Y-85003393D01*
X147977977Y-84935369D01*
X147958135Y-84869960D01*
X147925914Y-84809678D01*
X147882552Y-84756840D01*
X147829714Y-84713478D01*
X147769432Y-84681257D01*
X147704023Y-84661415D01*
X147635999Y-84654715D01*
X144735999Y-84654715D01*
X144667975Y-84661415D01*
X144602566Y-84681257D01*
X144542284Y-84713478D01*
X144489446Y-84756840D01*
X144446084Y-84809678D01*
X144413863Y-84869960D01*
X144394021Y-84935369D01*
X144387321Y-85003393D01*
X144387321Y-90403393D01*
X144394021Y-90471417D01*
X144413863Y-90536826D01*
X144446084Y-90597108D01*
X144489446Y-90649946D01*
X144542284Y-90693308D01*
X144602566Y-90725529D01*
X144667975Y-90745371D01*
X144735999Y-90752071D01*
X147635999Y-90752071D01*
X147704023Y-90745371D01*
X147769432Y-90725529D01*
X147829714Y-90693308D01*
X147882552Y-90649946D01*
X147925914Y-90597108D01*
X147958135Y-90536826D01*
X147977977Y-90471417D01*
X147984677Y-90403393D01*
X147984677Y-89422487D01*
X154905321Y-96343132D01*
X154905321Y-96685393D01*
X154912021Y-96753417D01*
X154931863Y-96818826D01*
X154964084Y-96879108D01*
X155007446Y-96931946D01*
X155060284Y-96975308D01*
X155120566Y-97007529D01*
X155185975Y-97027371D01*
X155253999Y-97034071D01*
X155596261Y-97034071D01*
X157181843Y-98619654D01*
X157205235Y-98648157D01*
X157318980Y-98741506D01*
X157448751Y-98810870D01*
X157589561Y-98853584D01*
X157699306Y-98864393D01*
X157699313Y-98864393D01*
X157735999Y-98868006D01*
X157772684Y-98864393D01*
X165066314Y-98864393D01*
X165102999Y-98868006D01*
X165139684Y-98864393D01*
X165139692Y-98864393D01*
X165249437Y-98853584D01*
X165390247Y-98810870D01*
X165520018Y-98741506D01*
X165633763Y-98648157D01*
X165657159Y-98619649D01*
X166543265Y-97733545D01*
X166571763Y-97710157D01*
X166602459Y-97672755D01*
X166626064Y-97643992D01*
X166665112Y-97596412D01*
X166734476Y-97466641D01*
X166777190Y-97325831D01*
X166787999Y-97216086D01*
X166787999Y-97216079D01*
X166791612Y-97179394D01*
X166787999Y-97142708D01*
X166787999Y-96573612D01*
X166837552Y-96532946D01*
X166880914Y-96480108D01*
X166890999Y-96461240D01*
X166901084Y-96480108D01*
X166944446Y-96532946D01*
X166997284Y-96576308D01*
X167057566Y-96608529D01*
X167122975Y-96628371D01*
X167190999Y-96635071D01*
X168290999Y-96635071D01*
X168359023Y-96628371D01*
X168424432Y-96608529D01*
X168484714Y-96576308D01*
X168537552Y-96532946D01*
X168580914Y-96480108D01*
X168613135Y-96419826D01*
X168632977Y-96354417D01*
X168639677Y-96286393D01*
X168639677Y-94733393D01*
X176182314Y-94733393D01*
X176218999Y-94737006D01*
X176255684Y-94733393D01*
X176255692Y-94733393D01*
X176365437Y-94722584D01*
X176506247Y-94679870D01*
X176636018Y-94610506D01*
X176749763Y-94517157D01*
X176773160Y-94488648D01*
X182378261Y-88883548D01*
X182406763Y-88860157D01*
X182500112Y-88746412D01*
X182569476Y-88616641D01*
X182612190Y-88475831D01*
X182622999Y-88366086D01*
X182622999Y-88366079D01*
X182626612Y-88329394D01*
X182622999Y-88292708D01*
X182622999Y-87143071D01*
X183825999Y-87143071D01*
X183942795Y-87131568D01*
X184055103Y-87097499D01*
X184158607Y-87042176D01*
X184249328Y-86967722D01*
X184323782Y-86877001D01*
X184379105Y-86773497D01*
X184413174Y-86661189D01*
X184424677Y-86544393D01*
X184424677Y-84544393D01*
X184413174Y-84427597D01*
X184379105Y-84315289D01*
X184323782Y-84211785D01*
X184297296Y-84179512D01*
X186986260Y-81490549D01*
X187014763Y-81467157D01*
X187108112Y-81353412D01*
X187177476Y-81223641D01*
X187220190Y-81082831D01*
X187230999Y-80973086D01*
X187230999Y-80973079D01*
X187234612Y-80936394D01*
X187230999Y-80899708D01*
X187230999Y-72928071D01*
X187683999Y-72928071D01*
X187752023Y-72921371D01*
X187817432Y-72901529D01*
X187877714Y-72869308D01*
X187930552Y-72825946D01*
X187973914Y-72773108D01*
X188006135Y-72712826D01*
X188025977Y-72647417D01*
X188032677Y-72579393D01*
X188032677Y-71839393D01*
X188025977Y-71771369D01*
X188006135Y-71705960D01*
X187973914Y-71645678D01*
X187930552Y-71592840D01*
X187908074Y-71574393D01*
X187930552Y-71555946D01*
X187973914Y-71503108D01*
X188006135Y-71442826D01*
X188015670Y-71411393D01*
X190098819Y-71411393D01*
X190121999Y-71413676D01*
X190145179Y-71411393D01*
X190214527Y-71404563D01*
X190303499Y-71377573D01*
X190385497Y-71333745D01*
X190457368Y-71274762D01*
X190472150Y-71256750D01*
X190947361Y-70781540D01*
X190965368Y-70766762D01*
X191024351Y-70694891D01*
X191068179Y-70612893D01*
X191095169Y-70523921D01*
X191101999Y-70454573D01*
X191101999Y-70454572D01*
X191104282Y-70431394D01*
X191101999Y-70408216D01*
X191101999Y-62199573D01*
X191104282Y-62176393D01*
X191095169Y-62083865D01*
X191068179Y-61994893D01*
X191024351Y-61912895D01*
X191002931Y-61886795D01*
X190965368Y-61841024D01*
X190947361Y-61826246D01*
X190741017Y-61619902D01*
X190741999Y-61614966D01*
X190741999Y-61467820D01*
X190713292Y-61323501D01*
X190656981Y-61187556D01*
X190575231Y-61065209D01*
X190471183Y-60961161D01*
X190348836Y-60879411D01*
X190212891Y-60823100D01*
X190068572Y-60794393D01*
X189921426Y-60794393D01*
X189777107Y-60823100D01*
X189641162Y-60879411D01*
X189518815Y-60961161D01*
X189414767Y-61065209D01*
X189333017Y-61187556D01*
X189276706Y-61323501D01*
X189247999Y-61467820D01*
X189247999Y-61614966D01*
X189276706Y-61759285D01*
X189333017Y-61895230D01*
X189414767Y-62017577D01*
X189518815Y-62121625D01*
X189641162Y-62203375D01*
X189777107Y-62259686D01*
X189921426Y-62288393D01*
X190068572Y-62288393D01*
X190073508Y-62287411D01*
X190157999Y-62371902D01*
X190158000Y-70235883D01*
X189926491Y-70467393D01*
X188015670Y-70467393D01*
X188006135Y-70435960D01*
X187973914Y-70375678D01*
X187930552Y-70322840D01*
X187908074Y-70304393D01*
X187930552Y-70285946D01*
X187973914Y-70233108D01*
X188006135Y-70172826D01*
X188025977Y-70107417D01*
X188032677Y-70039393D01*
X188032677Y-69299393D01*
X188025977Y-69231369D01*
X188006135Y-69165960D01*
X187973914Y-69105678D01*
X187930552Y-69052840D01*
X187908074Y-69034393D01*
X187930552Y-69015946D01*
X187973914Y-68963108D01*
X188006135Y-68902826D01*
X188025977Y-68837417D01*
X188032677Y-68769393D01*
X188032677Y-68029393D01*
X188025977Y-67961369D01*
X188006135Y-67895960D01*
X187973914Y-67835678D01*
X187930552Y-67782840D01*
X187908074Y-67764393D01*
X187916043Y-67757853D01*
X187994815Y-67836625D01*
X188117162Y-67918375D01*
X188253107Y-67974686D01*
X188397426Y-68003393D01*
X188544572Y-68003393D01*
X188688891Y-67974686D01*
X188824836Y-67918375D01*
X188947183Y-67836625D01*
X189051231Y-67732577D01*
X189132981Y-67610230D01*
X189189292Y-67474285D01*
X189217999Y-67329966D01*
X189217999Y-67182820D01*
X189189292Y-67038501D01*
X189132981Y-66902556D01*
X189051231Y-66780209D01*
X188947183Y-66676161D01*
X188824836Y-66594411D01*
X188736675Y-66557893D01*
X188824836Y-66521375D01*
X188947183Y-66439625D01*
X189051231Y-66335577D01*
X189132981Y-66213230D01*
X189189292Y-66077285D01*
X189217999Y-65932966D01*
X189217999Y-65785820D01*
X189189292Y-65641501D01*
X189132981Y-65505556D01*
X189051231Y-65383209D01*
X188947183Y-65279161D01*
X188824836Y-65197411D01*
X188688891Y-65141100D01*
X188544572Y-65112393D01*
X188397426Y-65112393D01*
X188253107Y-65141100D01*
X188117162Y-65197411D01*
X187994815Y-65279161D01*
X187975441Y-65298535D01*
X187973914Y-65295678D01*
X187930552Y-65242840D01*
X187908074Y-65224393D01*
X187930552Y-65205946D01*
X187973914Y-65153108D01*
X188006135Y-65092826D01*
X188017472Y-65055455D01*
X188026527Y-65054563D01*
X188115499Y-65027573D01*
X188197497Y-64983745D01*
X188269368Y-64924762D01*
X188284152Y-64906748D01*
X188326353Y-64864547D01*
X188344369Y-64849761D01*
X188403352Y-64777890D01*
X188447180Y-64695892D01*
X188474170Y-64606920D01*
X188481000Y-64537572D01*
X188481000Y-64537570D01*
X188483283Y-64514393D01*
X188481000Y-64491215D01*
X188481000Y-62712572D01*
X188483283Y-62689392D01*
X188474170Y-62596864D01*
X188447180Y-62507891D01*
X188403352Y-62425894D01*
X188361308Y-62374663D01*
X188344369Y-62354023D01*
X188326362Y-62339245D01*
X185216152Y-59229036D01*
X185201370Y-59211024D01*
X185129499Y-59152041D01*
X185047501Y-59108213D01*
X184995351Y-59092393D01*
X187252971Y-59092393D01*
X187255767Y-59096577D01*
X187359815Y-59200625D01*
X187482162Y-59282375D01*
X187618107Y-59338686D01*
X187762426Y-59367393D01*
X187909572Y-59367393D01*
X188053891Y-59338686D01*
X188189836Y-59282375D01*
X188312183Y-59200625D01*
X188416231Y-59096577D01*
X188497981Y-58974230D01*
X188554292Y-58838285D01*
X188582999Y-58693966D01*
X188582999Y-58546820D01*
X188554292Y-58402501D01*
X188497981Y-58266556D01*
X188416231Y-58144209D01*
X188312183Y-58040161D01*
X188189836Y-57958411D01*
X188053891Y-57902100D01*
X187909572Y-57873393D01*
X187762426Y-57873393D01*
X187618107Y-57902100D01*
X187482162Y-57958411D01*
X187359815Y-58040161D01*
X187255767Y-58144209D01*
X187252971Y-58148393D01*
X181554508Y-58148393D01*
X181068999Y-57662885D01*
X181068999Y-51785570D01*
X181071282Y-51762392D01*
X181068999Y-51739213D01*
X181062169Y-51669865D01*
X181035179Y-51580893D01*
X180991351Y-51498895D01*
X180932368Y-51427024D01*
X180914356Y-51412242D01*
X176502150Y-47000036D01*
X176487368Y-46982024D01*
X176415497Y-46923041D01*
X176333499Y-46879213D01*
X176244527Y-46852223D01*
X176175179Y-46845393D01*
X176151999Y-46843110D01*
X176128819Y-46845393D01*
X168988027Y-46845393D01*
X168985231Y-46841209D01*
X168881183Y-46737161D01*
X168758836Y-46655411D01*
X168622891Y-46599100D01*
X168478572Y-46570393D01*
X168331426Y-46570393D01*
X168187107Y-46599100D01*
X168051162Y-46655411D01*
X167928815Y-46737161D01*
X167824767Y-46841209D01*
X167743017Y-46963556D01*
X167686706Y-47099501D01*
X167657999Y-47243820D01*
X167657999Y-47390966D01*
X167686706Y-47535285D01*
X167743017Y-47671230D01*
X167824767Y-47793577D01*
X167928815Y-47897625D01*
X168051162Y-47979375D01*
X168187107Y-48035686D01*
X168331426Y-48064393D01*
X168478572Y-48064393D01*
X168622891Y-48035686D01*
X168758836Y-47979375D01*
X168881183Y-47897625D01*
X168985231Y-47793577D01*
X168988027Y-47789393D01*
X175956491Y-47789393D01*
X180124999Y-51957901D01*
X180124999Y-54399626D01*
X180102351Y-54357253D01*
X180066691Y-54313801D01*
X180043368Y-54285382D01*
X180025361Y-54270604D01*
X175346755Y-49591999D01*
X175331973Y-49573987D01*
X175260102Y-49515004D01*
X175178104Y-49471176D01*
X175089132Y-49444186D01*
X175019784Y-49437356D01*
X174996604Y-49435073D01*
X174973424Y-49437356D01*
X162253544Y-49437356D01*
X163119490Y-48571411D01*
X163124426Y-48572393D01*
X163271572Y-48572393D01*
X163415891Y-48543686D01*
X163551836Y-48487375D01*
X163674183Y-48405625D01*
X163778231Y-48301577D01*
X163859981Y-48179230D01*
X163916292Y-48043285D01*
X163944999Y-47898966D01*
X163944999Y-47751820D01*
X163916292Y-47607501D01*
X163859981Y-47471556D01*
X163778231Y-47349209D01*
X163674183Y-47245161D01*
X163551836Y-47163411D01*
X163415891Y-47107100D01*
X163271572Y-47078393D01*
X163124426Y-47078393D01*
X162980107Y-47107100D01*
X162844162Y-47163411D01*
X162721815Y-47245161D01*
X162617767Y-47349209D01*
X162536017Y-47471556D01*
X162479706Y-47607501D01*
X162450999Y-47751820D01*
X162450999Y-47898966D01*
X162451981Y-47903902D01*
X161368538Y-48987346D01*
X157340852Y-48987346D01*
X157451183Y-48913625D01*
X157555231Y-48809577D01*
X157636981Y-48687230D01*
X157693292Y-48551285D01*
X157721999Y-48406966D01*
X157721999Y-48259820D01*
X157693292Y-48115501D01*
X157636981Y-47979556D01*
X157594777Y-47916393D01*
X157915971Y-47916393D01*
X157918767Y-47920577D01*
X158022815Y-48024625D01*
X158145162Y-48106375D01*
X158281107Y-48162686D01*
X158425426Y-48191393D01*
X158572572Y-48191393D01*
X158716891Y-48162686D01*
X158852836Y-48106375D01*
X158975183Y-48024625D01*
X159079231Y-47920577D01*
X159160981Y-47798230D01*
X159217292Y-47662285D01*
X159245999Y-47517966D01*
X159245999Y-47370820D01*
X159217292Y-47226501D01*
X159160981Y-47090556D01*
X159118777Y-47027393D01*
X159312971Y-47027393D01*
X159315767Y-47031577D01*
X159419815Y-47135625D01*
X159542162Y-47217375D01*
X159678107Y-47273686D01*
X159822426Y-47302393D01*
X159969572Y-47302393D01*
X160113891Y-47273686D01*
X160249836Y-47217375D01*
X160372183Y-47135625D01*
X160476231Y-47031577D01*
X160557981Y-46909230D01*
X160614292Y-46773285D01*
X160642999Y-46628966D01*
X160642999Y-46481820D01*
X160614292Y-46337501D01*
X160599749Y-46302392D01*
X163293490Y-46302392D01*
X164229981Y-47238884D01*
X164228999Y-47243820D01*
X164228999Y-47390966D01*
X164257706Y-47535285D01*
X164314017Y-47671230D01*
X164395767Y-47793577D01*
X164499815Y-47897625D01*
X164622162Y-47979375D01*
X164758107Y-48035686D01*
X164902426Y-48064393D01*
X165049572Y-48064393D01*
X165193891Y-48035686D01*
X165329836Y-47979375D01*
X165452183Y-47897625D01*
X165556231Y-47793577D01*
X165637981Y-47671230D01*
X165694292Y-47535285D01*
X165722999Y-47390966D01*
X165722999Y-47243820D01*
X165694292Y-47099501D01*
X165637981Y-46963556D01*
X165556231Y-46841209D01*
X165452183Y-46737161D01*
X165329836Y-46655411D01*
X165193891Y-46599100D01*
X165049572Y-46570393D01*
X164902426Y-46570393D01*
X164897490Y-46571375D01*
X163839149Y-45513035D01*
X163824367Y-45495023D01*
X163752496Y-45436040D01*
X163670498Y-45392212D01*
X163581526Y-45365222D01*
X163512178Y-45358392D01*
X163488998Y-45356109D01*
X163465818Y-45358392D01*
X149341179Y-45358392D01*
X149317999Y-45356109D01*
X149225472Y-45365222D01*
X149136500Y-45392212D01*
X149054502Y-45436040D01*
X148982631Y-45495023D01*
X148967853Y-45513030D01*
X148798508Y-45682375D01*
X148793572Y-45681393D01*
X148646426Y-45681393D01*
X148502107Y-45710100D01*
X148366162Y-45766411D01*
X148243815Y-45848161D01*
X148139767Y-45952209D01*
X148058017Y-46074556D01*
X148001706Y-46210501D01*
X147972999Y-46354820D01*
X147972999Y-46501966D01*
X148001706Y-46646285D01*
X148058017Y-46782230D01*
X148139767Y-46904577D01*
X148207583Y-46972393D01*
X140984721Y-46972393D01*
X140945836Y-46946411D01*
X140809891Y-46890100D01*
X140665572Y-46861393D01*
X140518426Y-46861393D01*
X140374107Y-46890100D01*
X140238162Y-46946411D01*
X140115815Y-47028161D01*
X140011767Y-47132209D01*
X139930017Y-47254556D01*
X139873706Y-47390501D01*
X139844999Y-47534820D01*
X139844999Y-47681966D01*
X139873706Y-47826285D01*
X139902301Y-47895319D01*
X139820501Y-47939041D01*
X139784124Y-47968895D01*
X139776572Y-47967393D01*
X139629426Y-47967393D01*
X139485107Y-47996100D01*
X139349162Y-48052411D01*
X139226815Y-48134161D01*
X139122767Y-48238209D01*
X139041017Y-48360556D01*
X138984706Y-48496501D01*
X138955999Y-48640820D01*
X138955999Y-48787966D01*
X138984706Y-48932285D01*
X139041017Y-49068230D01*
X139122767Y-49190577D01*
X139226815Y-49294625D01*
X139349162Y-49376375D01*
X139485107Y-49432686D01*
X139629426Y-49461393D01*
X139776572Y-49461393D01*
X139920891Y-49432686D01*
X140056836Y-49376375D01*
X140179183Y-49294625D01*
X140283231Y-49190577D01*
X140364981Y-49068230D01*
X140421292Y-48932285D01*
X140446533Y-48805393D01*
X147244933Y-48805393D01*
X147223162Y-48814411D01*
X147100815Y-48896161D01*
X146996767Y-49000209D01*
X146915017Y-49122556D01*
X146858706Y-49258501D01*
X146829999Y-49402820D01*
X146829999Y-49549966D01*
X146858706Y-49694285D01*
X146915017Y-49830230D01*
X146996767Y-49952577D01*
X147100815Y-50056625D01*
X147223162Y-50138375D01*
X147359107Y-50194686D01*
X147503426Y-50223393D01*
X147650572Y-50223393D01*
X147794891Y-50194686D01*
X147930836Y-50138375D01*
X148053183Y-50056625D01*
X148157231Y-49952577D01*
X148171417Y-49931346D01*
X152677537Y-49931346D01*
X151973509Y-50635375D01*
X151968572Y-50634393D01*
X151821426Y-50634393D01*
X151677107Y-50663100D01*
X151541162Y-50719411D01*
X151418815Y-50801161D01*
X151314767Y-50905209D01*
X151233017Y-51027556D01*
X151176706Y-51163501D01*
X151147999Y-51307820D01*
X151147999Y-51454966D01*
X151176706Y-51599285D01*
X151206575Y-51671393D01*
X149994415Y-51671393D01*
X150062231Y-51603577D01*
X150143981Y-51481230D01*
X150200292Y-51345285D01*
X150228999Y-51200966D01*
X150228999Y-51053820D01*
X150200292Y-50909501D01*
X150143981Y-50773556D01*
X150062231Y-50651209D01*
X149958183Y-50547161D01*
X149835836Y-50465411D01*
X149699891Y-50409100D01*
X149555572Y-50380393D01*
X149408426Y-50380393D01*
X149264107Y-50409100D01*
X149128162Y-50465411D01*
X149005815Y-50547161D01*
X148901767Y-50651209D01*
X148898971Y-50655393D01*
X146121508Y-50655393D01*
X145910017Y-50443903D01*
X145910999Y-50438966D01*
X145910999Y-50291820D01*
X145882292Y-50147501D01*
X145825981Y-50011556D01*
X145744231Y-49889209D01*
X145640183Y-49785161D01*
X145517836Y-49703411D01*
X145381891Y-49647100D01*
X145237572Y-49618393D01*
X145090426Y-49618393D01*
X144946107Y-49647100D01*
X144810162Y-49703411D01*
X144687815Y-49785161D01*
X144583767Y-49889209D01*
X144502017Y-50011556D01*
X144445706Y-50147501D01*
X144416999Y-50291820D01*
X144416999Y-50438966D01*
X144445706Y-50583285D01*
X144502017Y-50719230D01*
X144583767Y-50841577D01*
X144687815Y-50945625D01*
X144810162Y-51027375D01*
X144946107Y-51083686D01*
X145090426Y-51112393D01*
X145237572Y-51112393D01*
X145242509Y-51111411D01*
X145575852Y-51444755D01*
X145590630Y-51462762D01*
X145634658Y-51498895D01*
X145662501Y-51521745D01*
X145744499Y-51565573D01*
X145833471Y-51592563D01*
X145925999Y-51601676D01*
X145949179Y-51599393D01*
X148898971Y-51599393D01*
X148901767Y-51603577D01*
X148969583Y-51671393D01*
X143026768Y-51671393D01*
X143003588Y-51669110D01*
X142911061Y-51678223D01*
X142822089Y-51705213D01*
X142740091Y-51749041D01*
X142668220Y-51808024D01*
X142653442Y-51826031D01*
X138024799Y-56454674D01*
X138026450Y-56452815D01*
X138030084Y-56447741D01*
X138480083Y-55809826D01*
X138500114Y-55774565D01*
X138520595Y-55739656D01*
X138523174Y-55733972D01*
X138840698Y-55020801D01*
X138853500Y-54982318D01*
X138866809Y-54944098D01*
X138868235Y-54938022D01*
X139041190Y-54176759D01*
X139046276Y-54136500D01*
X139051905Y-54096446D01*
X139052124Y-54090208D01*
X139073922Y-53309850D01*
X139071096Y-53269435D01*
X139068834Y-53228983D01*
X139067836Y-53222822D01*
X138937646Y-52453092D01*
X138927017Y-52413972D01*
X138916948Y-52374755D01*
X138914773Y-52368905D01*
X138637554Y-51639121D01*
X138619547Y-51602846D01*
X138602035Y-51566296D01*
X138598765Y-51560980D01*
X138185075Y-50898940D01*
X138160371Y-50866860D01*
X138136088Y-50834401D01*
X138131852Y-50829827D01*
X138131847Y-50829821D01*
X138131842Y-50829816D01*
X137597447Y-50260743D01*
X137566964Y-50234057D01*
X137536856Y-50206948D01*
X137531807Y-50203279D01*
X136897049Y-49748837D01*
X136897046Y-49748835D01*
X136879348Y-49736153D01*
X135801219Y-49113695D01*
X136866720Y-47807419D01*
X138369654Y-46207147D01*
X139980544Y-44715622D01*
X141691562Y-43340094D01*
X143494354Y-42087280D01*
X145380158Y-40963265D01*
X147339780Y-39973534D01*
X149363653Y-39122918D01*
X151441941Y-38415548D01*
X153564517Y-37854873D01*
X155721004Y-37443634D01*
X157900953Y-37183820D01*
X160093720Y-37076706D01*
X162288585Y-37122812D01*
G37*
%TD.AperFunction*%
D23*
X165753981Y-59938883D02*
X165752999Y-59943820D01*
X165752999Y-60090966D01*
X165781706Y-60235285D01*
X165838017Y-60371230D01*
X165919767Y-60493577D01*
X166023815Y-60597625D01*
X166146162Y-60679375D01*
X166214998Y-60707888D01*
X166031821Y-60891065D01*
X166013814Y-60905843D01*
X165994340Y-60929572D01*
X165954830Y-60977715D01*
X165911003Y-61059712D01*
X165884012Y-61148685D01*
X165874899Y-61241212D01*
X165877183Y-61264402D01*
X165877182Y-63538019D01*
X164255610Y-65159591D01*
X164255091Y-65158619D01*
X164240981Y-65124556D01*
X164220499Y-65093902D01*
X164203112Y-65061374D01*
X164179714Y-65032863D01*
X164159231Y-65002209D01*
X164133160Y-64976138D01*
X164109763Y-64947629D01*
X164081254Y-64924232D01*
X164055183Y-64898161D01*
X164024529Y-64877678D01*
X163996018Y-64854280D01*
X163963490Y-64836893D01*
X163932836Y-64816411D01*
X163898773Y-64802301D01*
X163866247Y-64784916D01*
X163830959Y-64774211D01*
X163796891Y-64760100D01*
X163760722Y-64752905D01*
X163725437Y-64742202D01*
X163688743Y-64738588D01*
X163652572Y-64731393D01*
X158808416Y-64731393D01*
X156197999Y-62120977D01*
X156197999Y-61721820D01*
X156190804Y-61685649D01*
X156187190Y-61648955D01*
X156176487Y-61613670D01*
X156169292Y-61577501D01*
X156155181Y-61543433D01*
X156146715Y-61515525D01*
X156244815Y-61613625D01*
X156367162Y-61695375D01*
X156503107Y-61751686D01*
X156647426Y-61780393D01*
X156794572Y-61780393D01*
X156938891Y-61751686D01*
X157074836Y-61695375D01*
X157169095Y-61632393D01*
X160761819Y-61632393D01*
X160784999Y-61634676D01*
X160808179Y-61632393D01*
X160877527Y-61625563D01*
X160966499Y-61598573D01*
X161048497Y-61554745D01*
X161120368Y-61495762D01*
X161179351Y-61423891D01*
X161223179Y-61341893D01*
X161250169Y-61252921D01*
X161259282Y-61160393D01*
X161256999Y-61137213D01*
X161256999Y-56440256D01*
X161267004Y-56450261D01*
X161389351Y-56532011D01*
X161525296Y-56588322D01*
X161669615Y-56617029D01*
X161816761Y-56617029D01*
X161961080Y-56588322D01*
X162097025Y-56532011D01*
X162219372Y-56450261D01*
X162242366Y-56427268D01*
X165753981Y-59938883D01*
%TA.AperFunction,Conductor*%
D24*
G36*
X165753981Y-59938883D02*
G01*
X165752999Y-59943820D01*
X165752999Y-60090966D01*
X165781706Y-60235285D01*
X165838017Y-60371230D01*
X165919767Y-60493577D01*
X166023815Y-60597625D01*
X166146162Y-60679375D01*
X166214998Y-60707888D01*
X166031821Y-60891065D01*
X166013814Y-60905843D01*
X165994340Y-60929572D01*
X165954830Y-60977715D01*
X165911003Y-61059712D01*
X165884012Y-61148685D01*
X165874899Y-61241212D01*
X165877183Y-61264402D01*
X165877182Y-63538019D01*
X164255610Y-65159591D01*
X164255091Y-65158619D01*
X164240981Y-65124556D01*
X164220499Y-65093902D01*
X164203112Y-65061374D01*
X164179714Y-65032863D01*
X164159231Y-65002209D01*
X164133160Y-64976138D01*
X164109763Y-64947629D01*
X164081254Y-64924232D01*
X164055183Y-64898161D01*
X164024529Y-64877678D01*
X163996018Y-64854280D01*
X163963490Y-64836893D01*
X163932836Y-64816411D01*
X163898773Y-64802301D01*
X163866247Y-64784916D01*
X163830959Y-64774211D01*
X163796891Y-64760100D01*
X163760722Y-64752905D01*
X163725437Y-64742202D01*
X163688743Y-64738588D01*
X163652572Y-64731393D01*
X158808416Y-64731393D01*
X156197999Y-62120977D01*
X156197999Y-61721820D01*
X156190804Y-61685649D01*
X156187190Y-61648955D01*
X156176487Y-61613670D01*
X156169292Y-61577501D01*
X156155181Y-61543433D01*
X156146715Y-61515525D01*
X156244815Y-61613625D01*
X156367162Y-61695375D01*
X156503107Y-61751686D01*
X156647426Y-61780393D01*
X156794572Y-61780393D01*
X156938891Y-61751686D01*
X157074836Y-61695375D01*
X157169095Y-61632393D01*
X160761819Y-61632393D01*
X160784999Y-61634676D01*
X160808179Y-61632393D01*
X160877527Y-61625563D01*
X160966499Y-61598573D01*
X161048497Y-61554745D01*
X161120368Y-61495762D01*
X161179351Y-61423891D01*
X161223179Y-61341893D01*
X161250169Y-61252921D01*
X161259282Y-61160393D01*
X161256999Y-61137213D01*
X161256999Y-56440256D01*
X161267004Y-56450261D01*
X161389351Y-56532011D01*
X161525296Y-56588322D01*
X161669615Y-56617029D01*
X161816761Y-56617029D01*
X161961080Y-56588322D01*
X162097025Y-56532011D01*
X162219372Y-56450261D01*
X162242366Y-56427268D01*
X165753981Y-59938883D01*
G37*
%TD.AperFunction*%
D23*
X151260488Y-60855148D02*
X151046261Y-61175763D01*
X150898698Y-61532010D01*
X150823472Y-61910200D01*
X150823472Y-62295800D01*
X150898698Y-62673990D01*
X151046261Y-63030237D01*
X151260488Y-63350852D01*
X151533148Y-63623512D01*
X151566909Y-63646070D01*
X151546998Y-63644109D01*
X151454470Y-63653222D01*
X151365497Y-63680212D01*
X151343320Y-63692066D01*
X151283500Y-63724040D01*
X151211629Y-63783023D01*
X151196852Y-63801029D01*
X150397643Y-64600239D01*
X150379631Y-64615021D01*
X150324988Y-64681604D01*
X150207891Y-64633100D01*
X150063572Y-64604393D01*
X149916426Y-64604393D01*
X149772107Y-64633100D01*
X149636162Y-64689411D01*
X149513815Y-64771161D01*
X149409767Y-64875209D01*
X149406971Y-64879393D01*
X146282039Y-64879393D01*
X146355884Y-64805548D01*
X146523811Y-64554228D01*
X146639481Y-64274976D01*
X146698449Y-63978523D01*
X146698449Y-63676263D01*
X146639481Y-63379810D01*
X146523811Y-63100558D01*
X146355884Y-62849238D01*
X146142154Y-62635508D01*
X146083733Y-62596472D01*
X146153474Y-62559196D01*
X146225345Y-62500213D01*
X146240127Y-62482201D01*
X148075058Y-60647271D01*
X151468365Y-60647271D01*
X151260488Y-60855148D01*
%TA.AperFunction,Conductor*%
D24*
G36*
X151260488Y-60855148D02*
G01*
X151046261Y-61175763D01*
X150898698Y-61532010D01*
X150823472Y-61910200D01*
X150823472Y-62295800D01*
X150898698Y-62673990D01*
X151046261Y-63030237D01*
X151260488Y-63350852D01*
X151533148Y-63623512D01*
X151566909Y-63646070D01*
X151546998Y-63644109D01*
X151454470Y-63653222D01*
X151365497Y-63680212D01*
X151343320Y-63692066D01*
X151283500Y-63724040D01*
X151211629Y-63783023D01*
X151196852Y-63801029D01*
X150397643Y-64600239D01*
X150379631Y-64615021D01*
X150324988Y-64681604D01*
X150207891Y-64633100D01*
X150063572Y-64604393D01*
X149916426Y-64604393D01*
X149772107Y-64633100D01*
X149636162Y-64689411D01*
X149513815Y-64771161D01*
X149409767Y-64875209D01*
X149406971Y-64879393D01*
X146282039Y-64879393D01*
X146355884Y-64805548D01*
X146523811Y-64554228D01*
X146639481Y-64274976D01*
X146698449Y-63978523D01*
X146698449Y-63676263D01*
X146639481Y-63379810D01*
X146523811Y-63100558D01*
X146355884Y-62849238D01*
X146142154Y-62635508D01*
X146083733Y-62596472D01*
X146153474Y-62559196D01*
X146225345Y-62500213D01*
X146240127Y-62482201D01*
X148075058Y-60647271D01*
X151468365Y-60647271D01*
X151260488Y-60855148D01*
G37*
%TD.AperFunction*%
D23*
X158923706Y-53703501D02*
X158894999Y-53847820D01*
X158894999Y-53994966D01*
X158923706Y-54139285D01*
X158955645Y-54216390D01*
X158843891Y-54170100D01*
X158699572Y-54141393D01*
X158552426Y-54141393D01*
X158408107Y-54170100D01*
X158272162Y-54226411D01*
X158149815Y-54308161D01*
X158045767Y-54412209D01*
X157964017Y-54534556D01*
X157907706Y-54670501D01*
X157878999Y-54814820D01*
X157878999Y-54961966D01*
X157907706Y-55106285D01*
X157964017Y-55242230D01*
X158045767Y-55364577D01*
X158149815Y-55468625D01*
X158272162Y-55550375D01*
X158408107Y-55606686D01*
X158552426Y-55635393D01*
X158699572Y-55635393D01*
X158843891Y-55606686D01*
X158979836Y-55550375D01*
X159102183Y-55468625D01*
X159206231Y-55364577D01*
X159209027Y-55360393D01*
X159863829Y-55360393D01*
X159887009Y-55362676D01*
X159910189Y-55360393D01*
X159979537Y-55353563D01*
X160068509Y-55326573D01*
X160081051Y-55319869D01*
X160066706Y-55354501D01*
X160037999Y-55498820D01*
X160037999Y-55645966D01*
X160066706Y-55790285D01*
X160123017Y-55926230D01*
X160204767Y-56048577D01*
X160308815Y-56152625D01*
X160313000Y-56155421D01*
X160312999Y-60688393D01*
X157386641Y-60688393D01*
X157382981Y-60679556D01*
X157301231Y-60557209D01*
X157201961Y-60457939D01*
X157489143Y-60170758D01*
X157489148Y-60170752D01*
X157785489Y-59874411D01*
X157790426Y-59875393D01*
X157937572Y-59875393D01*
X158081891Y-59846686D01*
X158217836Y-59790375D01*
X158340183Y-59708625D01*
X158444231Y-59604577D01*
X158525981Y-59482230D01*
X158582292Y-59346285D01*
X158610999Y-59201966D01*
X158610999Y-59054820D01*
X158582292Y-58910501D01*
X158525981Y-58774556D01*
X158444231Y-58652209D01*
X158340183Y-58548161D01*
X158217836Y-58466411D01*
X158081891Y-58410100D01*
X157937572Y-58381393D01*
X157790426Y-58381393D01*
X157646107Y-58410100D01*
X157510162Y-58466411D01*
X157387815Y-58548161D01*
X157283767Y-58652209D01*
X157202017Y-58774556D01*
X157165499Y-58862717D01*
X157128981Y-58774556D01*
X157047231Y-58652209D01*
X156943183Y-58548161D01*
X156820836Y-58466411D01*
X156684891Y-58410100D01*
X156540572Y-58381393D01*
X156393426Y-58381393D01*
X156249107Y-58410100D01*
X156113162Y-58466411D01*
X155990815Y-58548161D01*
X155886767Y-58652209D01*
X155883971Y-58656393D01*
X144496225Y-58656393D01*
X144480389Y-58654833D01*
X144449930Y-58501703D01*
X144386436Y-58348414D01*
X144294256Y-58210458D01*
X144176934Y-58093136D01*
X144038978Y-58000956D01*
X143885689Y-57937462D01*
X143722958Y-57905093D01*
X143557040Y-57905093D01*
X143394309Y-57937462D01*
X143241020Y-58000956D01*
X143103064Y-58093136D01*
X142985742Y-58210458D01*
X142893562Y-58348414D01*
X142830068Y-58501703D01*
X142797699Y-58664434D01*
X142797699Y-58830352D01*
X142830068Y-58993083D01*
X142893562Y-59146372D01*
X142985742Y-59284328D01*
X143017225Y-59315811D01*
X142908146Y-59360993D01*
X142786830Y-59442054D01*
X142729589Y-59499295D01*
X142690916Y-59495081D01*
X142168604Y-60017393D01*
X142690916Y-60539705D01*
X142729589Y-60535491D01*
X142786830Y-60592732D01*
X142876119Y-60652393D01*
X142786830Y-60712054D01*
X142683660Y-60815224D01*
X142623999Y-60904513D01*
X142564338Y-60815224D01*
X142507097Y-60757983D01*
X142511311Y-60719310D01*
X141988999Y-60196998D01*
X141974857Y-60211141D01*
X141795252Y-60031536D01*
X141809394Y-60017393D01*
X141795252Y-60003251D01*
X141974857Y-59823646D01*
X141988999Y-59837788D01*
X142511311Y-59315476D01*
X142489231Y-59112817D01*
X142386650Y-59068601D01*
X142417930Y-58993083D01*
X142450299Y-58830352D01*
X142450299Y-58664434D01*
X142417930Y-58501703D01*
X142354436Y-58348414D01*
X142262256Y-58210458D01*
X142144934Y-58093136D01*
X142006978Y-58000956D01*
X141853689Y-57937462D01*
X141690958Y-57905093D01*
X141525040Y-57905093D01*
X141362309Y-57937462D01*
X141209020Y-58000956D01*
X141071064Y-58093136D01*
X140953742Y-58210458D01*
X140861562Y-58348414D01*
X140798068Y-58501703D01*
X140765699Y-58664434D01*
X140765699Y-58830352D01*
X140798068Y-58993083D01*
X140861562Y-59146372D01*
X140953742Y-59284328D01*
X141071064Y-59401650D01*
X141209020Y-59493830D01*
X141227668Y-59501554D01*
X141115429Y-59513783D01*
X141062154Y-59460508D01*
X140810834Y-59292581D01*
X140531582Y-59176911D01*
X140235129Y-59117943D01*
X139932869Y-59117943D01*
X139636416Y-59176911D01*
X139357164Y-59292581D01*
X139105844Y-59460508D01*
X138892114Y-59674238D01*
X138724187Y-59925558D01*
X138608517Y-60204810D01*
X138549549Y-60501263D01*
X138549549Y-60803523D01*
X138558348Y-60847760D01*
X138523999Y-60813411D01*
X138523999Y-57926901D01*
X142819507Y-53631393D01*
X158953575Y-53631393D01*
X158923706Y-53703501D01*
%TA.AperFunction,Conductor*%
D24*
G36*
X158923706Y-53703501D02*
G01*
X158894999Y-53847820D01*
X158894999Y-53994966D01*
X158923706Y-54139285D01*
X158955645Y-54216390D01*
X158843891Y-54170100D01*
X158699572Y-54141393D01*
X158552426Y-54141393D01*
X158408107Y-54170100D01*
X158272162Y-54226411D01*
X158149815Y-54308161D01*
X158045767Y-54412209D01*
X157964017Y-54534556D01*
X157907706Y-54670501D01*
X157878999Y-54814820D01*
X157878999Y-54961966D01*
X157907706Y-55106285D01*
X157964017Y-55242230D01*
X158045767Y-55364577D01*
X158149815Y-55468625D01*
X158272162Y-55550375D01*
X158408107Y-55606686D01*
X158552426Y-55635393D01*
X158699572Y-55635393D01*
X158843891Y-55606686D01*
X158979836Y-55550375D01*
X159102183Y-55468625D01*
X159206231Y-55364577D01*
X159209027Y-55360393D01*
X159863829Y-55360393D01*
X159887009Y-55362676D01*
X159910189Y-55360393D01*
X159979537Y-55353563D01*
X160068509Y-55326573D01*
X160081051Y-55319869D01*
X160066706Y-55354501D01*
X160037999Y-55498820D01*
X160037999Y-55645966D01*
X160066706Y-55790285D01*
X160123017Y-55926230D01*
X160204767Y-56048577D01*
X160308815Y-56152625D01*
X160313000Y-56155421D01*
X160312999Y-60688393D01*
X157386641Y-60688393D01*
X157382981Y-60679556D01*
X157301231Y-60557209D01*
X157201961Y-60457939D01*
X157489143Y-60170758D01*
X157489148Y-60170752D01*
X157785489Y-59874411D01*
X157790426Y-59875393D01*
X157937572Y-59875393D01*
X158081891Y-59846686D01*
X158217836Y-59790375D01*
X158340183Y-59708625D01*
X158444231Y-59604577D01*
X158525981Y-59482230D01*
X158582292Y-59346285D01*
X158610999Y-59201966D01*
X158610999Y-59054820D01*
X158582292Y-58910501D01*
X158525981Y-58774556D01*
X158444231Y-58652209D01*
X158340183Y-58548161D01*
X158217836Y-58466411D01*
X158081891Y-58410100D01*
X157937572Y-58381393D01*
X157790426Y-58381393D01*
X157646107Y-58410100D01*
X157510162Y-58466411D01*
X157387815Y-58548161D01*
X157283767Y-58652209D01*
X157202017Y-58774556D01*
X157165499Y-58862717D01*
X157128981Y-58774556D01*
X157047231Y-58652209D01*
X156943183Y-58548161D01*
X156820836Y-58466411D01*
X156684891Y-58410100D01*
X156540572Y-58381393D01*
X156393426Y-58381393D01*
X156249107Y-58410100D01*
X156113162Y-58466411D01*
X155990815Y-58548161D01*
X155886767Y-58652209D01*
X155883971Y-58656393D01*
X144496225Y-58656393D01*
X144480389Y-58654833D01*
X144449930Y-58501703D01*
X144386436Y-58348414D01*
X144294256Y-58210458D01*
X144176934Y-58093136D01*
X144038978Y-58000956D01*
X143885689Y-57937462D01*
X143722958Y-57905093D01*
X143557040Y-57905093D01*
X143394309Y-57937462D01*
X143241020Y-58000956D01*
X143103064Y-58093136D01*
X142985742Y-58210458D01*
X142893562Y-58348414D01*
X142830068Y-58501703D01*
X142797699Y-58664434D01*
X142797699Y-58830352D01*
X142830068Y-58993083D01*
X142893562Y-59146372D01*
X142985742Y-59284328D01*
X143017225Y-59315811D01*
X142908146Y-59360993D01*
X142786830Y-59442054D01*
X142729589Y-59499295D01*
X142690916Y-59495081D01*
X142168604Y-60017393D01*
X142690916Y-60539705D01*
X142729589Y-60535491D01*
X142786830Y-60592732D01*
X142876119Y-60652393D01*
X142786830Y-60712054D01*
X142683660Y-60815224D01*
X142623999Y-60904513D01*
X142564338Y-60815224D01*
X142507097Y-60757983D01*
X142511311Y-60719310D01*
X141988999Y-60196998D01*
X141974857Y-60211141D01*
X141795252Y-60031536D01*
X141809394Y-60017393D01*
X141795252Y-60003251D01*
X141974857Y-59823646D01*
X141988999Y-59837788D01*
X142511311Y-59315476D01*
X142489231Y-59112817D01*
X142386650Y-59068601D01*
X142417930Y-58993083D01*
X142450299Y-58830352D01*
X142450299Y-58664434D01*
X142417930Y-58501703D01*
X142354436Y-58348414D01*
X142262256Y-58210458D01*
X142144934Y-58093136D01*
X142006978Y-58000956D01*
X141853689Y-57937462D01*
X141690958Y-57905093D01*
X141525040Y-57905093D01*
X141362309Y-57937462D01*
X141209020Y-58000956D01*
X141071064Y-58093136D01*
X140953742Y-58210458D01*
X140861562Y-58348414D01*
X140798068Y-58501703D01*
X140765699Y-58664434D01*
X140765699Y-58830352D01*
X140798068Y-58993083D01*
X140861562Y-59146372D01*
X140953742Y-59284328D01*
X141071064Y-59401650D01*
X141209020Y-59493830D01*
X141227668Y-59501554D01*
X141115429Y-59513783D01*
X141062154Y-59460508D01*
X140810834Y-59292581D01*
X140531582Y-59176911D01*
X140235129Y-59117943D01*
X139932869Y-59117943D01*
X139636416Y-59176911D01*
X139357164Y-59292581D01*
X139105844Y-59460508D01*
X138892114Y-59674238D01*
X138724187Y-59925558D01*
X138608517Y-60204810D01*
X138549549Y-60501263D01*
X138549549Y-60803523D01*
X138558348Y-60847760D01*
X138523999Y-60813411D01*
X138523999Y-57926901D01*
X142819507Y-53631393D01*
X158953575Y-53631393D01*
X158923706Y-53703501D01*
G37*
%TD.AperFunction*%
D23*
X166725225Y-58489383D02*
X166753001Y-58517159D01*
X166753001Y-59313643D01*
X166717891Y-59299100D01*
X166573572Y-59270393D01*
X166426426Y-59270393D01*
X166421489Y-59271375D01*
X165570507Y-58420393D01*
X166656236Y-58420393D01*
X166725225Y-58489383D01*
%TA.AperFunction,Conductor*%
D24*
G36*
X166725225Y-58489383D02*
G01*
X166753001Y-58517159D01*
X166753001Y-59313643D01*
X166717891Y-59299100D01*
X166573572Y-59270393D01*
X166426426Y-59270393D01*
X166421489Y-59271375D01*
X165570507Y-58420393D01*
X166656236Y-58420393D01*
X166725225Y-58489383D01*
G37*
%TD.AperFunction*%
D23*
X175231998Y-53357898D02*
X175163162Y-53386411D01*
X175068903Y-53449393D01*
X163886423Y-53449393D01*
X163916292Y-53377285D01*
X163944999Y-53232966D01*
X163944999Y-53085820D01*
X163916292Y-52941501D01*
X163859981Y-52805556D01*
X163778231Y-52683209D01*
X163674183Y-52579161D01*
X163551836Y-52497411D01*
X163415891Y-52441100D01*
X163271572Y-52412393D01*
X163124426Y-52412393D01*
X162980107Y-52441100D01*
X162844162Y-52497411D01*
X162721815Y-52579161D01*
X162617767Y-52683209D01*
X162614971Y-52687393D01*
X160584423Y-52687393D01*
X160614292Y-52615285D01*
X160642999Y-52470966D01*
X160642999Y-52323820D01*
X160642017Y-52318883D01*
X160779508Y-52181392D01*
X174055492Y-52181392D01*
X175231998Y-53357898D01*
%TA.AperFunction,Conductor*%
D24*
G36*
X175231998Y-53357898D02*
G01*
X175163162Y-53386411D01*
X175068903Y-53449393D01*
X163886423Y-53449393D01*
X163916292Y-53377285D01*
X163944999Y-53232966D01*
X163944999Y-53085820D01*
X163916292Y-52941501D01*
X163859981Y-52805556D01*
X163778231Y-52683209D01*
X163674183Y-52579161D01*
X163551836Y-52497411D01*
X163415891Y-52441100D01*
X163271572Y-52412393D01*
X163124426Y-52412393D01*
X162980107Y-52441100D01*
X162844162Y-52497411D01*
X162721815Y-52579161D01*
X162617767Y-52683209D01*
X162614971Y-52687393D01*
X160584423Y-52687393D01*
X160614292Y-52615285D01*
X160642999Y-52470966D01*
X160642999Y-52323820D01*
X160642017Y-52318883D01*
X160779508Y-52181392D01*
X174055492Y-52181392D01*
X175231998Y-53357898D01*
G37*
%TD.AperFunction*%
%TD*%
M02*
