M48
; DRILL file {KiCad (5.1.9)-1} date 04/03/24 16:53:21
; FORMAT={-:-/ absolute / metric / decimal}
; #@! TF.CreationDate,2024-04-03T16:53:21+03:00
; #@! TF.GenerationSoftware,Kicad,Pcbnew,(5.1.9)-1
; #@! TF.FileFunction,Plated,1,2,PTH
FMAT,2
METRIC
T1C0.400
T2C0.730
T3C1.000
T4C2.000
%
G90
G05
T1
X130.559Y-68.272
X130.94Y-77.416
X132.083Y-61.668
X133.607Y-82.75
X138.687Y-73.352
X139.449Y-87.068
X139.703Y-48.714
X139.703Y-76.273
X140.211Y-67.256
X140.592Y-47.608
X141.227Y-77.67
X141.227Y-80.083
X141.735Y-91.132
X141.862Y-51.508
X142.37Y-80.083
X143.005Y-45.031
X143.894Y-82.623
X143.894Y-88.211
X144.275Y-67.764
X144.91Y-55.699
X145.164Y-50.365
X145.291Y-79.956
X145.926Y-91.513
X147.45Y-41.729
X147.577Y-49.476
X147.958Y-73.098
X148.085Y-76.527
X148.085Y-83.512
X148.466Y-66.875
X148.466Y-87.068
X148.72Y-46.428
X148.847Y-94.053
X149.482Y-51.127
X149.99Y-65.351
X150.625Y-54.683
X150.879Y-63.7
X151.26Y-46.555
X151.26Y-75.765
X151.387Y-81.607
X151.895Y-51.381
X151.895Y-64.843
X152.53Y-88.084
X152.743Y-84.233
X153.378Y-83.598
X153.673Y-51.388
X153.927Y-75.765
X154.013Y-82.963
X154.648Y-82.328
X154.689Y-52.143
X155.451Y-61.795
X156.34Y-57.604
X156.467Y-59.128
X156.721Y-61.033
X156.848Y-79.956
X156.975Y-48.333
X157.61Y-42.364
X157.864Y-59.128
X158.118Y-93.799
X158.372Y-71.574
X158.499Y-47.444
X158.617Y-51.443
X158.626Y-54.888
X158.748Y-52.434
X159.642Y-53.921
X159.896Y-46.555
X159.896Y-52.397
X160.023Y-38.046
X160.785Y-55.572
X161.293Y-45.031
X161.547Y-52.434
X161.743Y-55.87
X162.309Y-67.51
X162.563Y-55.154
X162.69Y-63.954
X163.198Y-47.825
X163.198Y-53.159
X163.579Y-65.478
X164.976Y-47.317
X164.976Y-48.714
X164.976Y-72.844
X165.357Y-60.906
X165.738Y-57.096
X165.738Y-73.606
X165.865Y-72.045
X166.373Y-58.747
X166.5Y-60.017
X168.278Y-40.332
X168.405Y-47.317
X168.532Y-69.288
X168.786Y-90.624
X168.913Y-78.178
X169.421Y-65.097
X169.616Y-69.23
X170.31Y-95.958
X171.072Y-44.777
X171.326Y-49.095
X171.834Y-63.319
X172.723Y-57.096
X172.977Y-55.572
X173.231Y-41.094
X173.231Y-89.989
X173.358Y-70.431
X173.485Y-52.778
X173.739Y-78.686
X173.739Y-96.085
X174.628Y-68.944
X174.882Y-57.223
X175.517Y-54.048
X175.517Y-71.32
X175.644Y-92.529
X176.914Y-61.287
X177.621Y-61.995
X177.676Y-71.32
X177.803Y-51.381
X177.803Y-65.605
X178.311Y-63.065
X178.819Y-85.417
X179.073Y-46.555
X179.2Y-82.242
X179.708Y-71.574
X179.835Y-53.413
X180.089Y-73.606
X180.47Y-63.192
X180.597Y-60.271
X181.454Y-59.546
X182.121Y-90.497
X182.375Y-77.035
X182.756Y-61.795
X183.772Y-48.841
X184.661Y-74.241
X185.55Y-86.179
X187.836Y-58.62
X188.09Y-74.622
X188.471Y-65.859
X188.471Y-67.256
X189.614Y-59.509
X189.995Y-61.541
T2
X133.02Y-65.859
X133.044Y-70.812
X133.044Y-75.892
X134.52Y-65.859
X134.544Y-70.812
X134.544Y-75.892
X136.02Y-65.859
X136.044Y-70.812
X136.044Y-75.892
X137.544Y-70.812
X137.544Y-75.892
T3
X158.016Y-75.943
X160.516Y-75.943
X163.016Y-75.943
T4
X155.766Y-68.443
X165.266Y-68.443
T0
M30
