%TF.GenerationSoftware,KiCad,Pcbnew,(5.1.9)-1*%
%TF.CreationDate,2024-04-03T16:53:24+03:00*%
%TF.ProjectId,jantteri_left,6a616e74-7465-4726-995f-6c6566742e6b,rev?*%
%TF.SameCoordinates,Original*%
%TF.FileFunction,Soldermask,Bot*%
%TF.FilePolarity,Negative*%
%FSLAX46Y46*%
G04 Gerber Fmt 4.6, Leading zero omitted, Abs format (unit mm)*
G04 Created by KiCad (PCBNEW (5.1.9)-1) date 2024-04-03 16:53:24*
%MOMM*%
%LPD*%
G01*
G04 APERTURE LIST*
%ADD10O,1.030000X1.730000*%
%ADD11C,2.374900*%
%ADD12C,0.990600*%
%ADD13C,0.787400*%
%ADD14R,0.900000X1.200000*%
%ADD15R,2.400000X0.740000*%
%ADD16R,2.900000X5.400000*%
%ADD17O,4.000000X4.000000*%
%ADD18C,1.800000*%
%ADD19R,1.800000X1.800000*%
%ADD20R,1.100000X4.600000*%
%ADD21R,10.800000X9.400000*%
G04 APERTURE END LIST*
%TO.C,J5*%
G36*
G01*
X138058999Y-75277392D02*
X138058999Y-76507394D01*
G75*
G02*
X137809000Y-76757393I-249999J0D01*
G01*
X137278998Y-76757393D01*
G75*
G02*
X137028999Y-76507394I0J249999D01*
G01*
X137028999Y-75277392D01*
G75*
G02*
X137278998Y-75027393I249999J0D01*
G01*
X137809000Y-75027393D01*
G75*
G02*
X138058999Y-75277392I0J-249999D01*
G01*
G37*
D10*
X136043999Y-75892393D03*
X134543999Y-75892393D03*
X133043999Y-75892393D03*
%TD*%
%TO.C,J4*%
X133043999Y-70812393D03*
X134543999Y-70812393D03*
X136043999Y-70812393D03*
G36*
G01*
X138058999Y-70197392D02*
X138058999Y-71427394D01*
G75*
G02*
X137809000Y-71677393I-249999J0D01*
G01*
X137278998Y-71677393D01*
G75*
G02*
X137028999Y-71427394I0J249999D01*
G01*
X137028999Y-70197392D01*
G75*
G02*
X137278998Y-69947393I249999J0D01*
G01*
X137809000Y-69947393D01*
G75*
G02*
X138058999Y-70197392I0J-249999D01*
G01*
G37*
%TD*%
D11*
%TO.C,J3*%
X140083999Y-63827393D03*
X145163999Y-63827393D03*
X145163999Y-60652393D03*
X140083999Y-60652393D03*
D12*
X143639999Y-58747393D03*
X141607999Y-58747393D03*
X142623999Y-63827393D03*
D13*
X141988999Y-62557393D03*
X143258999Y-62557393D03*
X141988999Y-61287393D03*
X143258999Y-61287393D03*
X141988999Y-60017393D03*
X143258999Y-60017393D03*
%TD*%
%TO.C,C15*%
G36*
G01*
X184075999Y-84544393D02*
X184075999Y-86544393D01*
G75*
G02*
X183825999Y-86794393I-250000J0D01*
G01*
X179925999Y-86794393D01*
G75*
G02*
X179675999Y-86544393I0J250000D01*
G01*
X179675999Y-84544393D01*
G75*
G02*
X179925999Y-84294393I250000J0D01*
G01*
X183825999Y-84294393D01*
G75*
G02*
X184075999Y-84544393I0J-250000D01*
G01*
G37*
G36*
G01*
X175675999Y-84544393D02*
X175675999Y-86544393D01*
G75*
G02*
X175425999Y-86794393I-250000J0D01*
G01*
X171525999Y-86794393D01*
G75*
G02*
X171275999Y-86544393I0J250000D01*
G01*
X171275999Y-84544393D01*
G75*
G02*
X171525999Y-84294393I250000J0D01*
G01*
X175425999Y-84294393D01*
G75*
G02*
X175675999Y-84544393I0J-250000D01*
G01*
G37*
%TD*%
%TO.C,C16*%
G36*
G01*
X153300999Y-80042393D02*
X151250999Y-80042393D01*
G75*
G02*
X151000999Y-79792393I0J250000D01*
G01*
X151000999Y-78217393D01*
G75*
G02*
X151250999Y-77967393I250000J0D01*
G01*
X153300999Y-77967393D01*
G75*
G02*
X153550999Y-78217393I0J-250000D01*
G01*
X153550999Y-79792393D01*
G75*
G02*
X153300999Y-80042393I-250000J0D01*
G01*
G37*
G36*
G01*
X153300999Y-73817393D02*
X151250999Y-73817393D01*
G75*
G02*
X151000999Y-73567393I0J250000D01*
G01*
X151000999Y-71992393D01*
G75*
G02*
X151250999Y-71742393I250000J0D01*
G01*
X153300999Y-71742393D01*
G75*
G02*
X153550999Y-71992393I0J-250000D01*
G01*
X153550999Y-73567393D01*
G75*
G02*
X153300999Y-73817393I-250000J0D01*
G01*
G37*
%TD*%
D14*
%TO.C,D2*%
X155703999Y-96085393D03*
X152403999Y-96085393D03*
%TD*%
D15*
%TO.C,J1*%
X182583999Y-72209393D03*
X186483999Y-72209393D03*
X182583999Y-70939393D03*
X186483999Y-70939393D03*
X182583999Y-69669393D03*
X186483999Y-69669393D03*
X182583999Y-68399393D03*
X186483999Y-68399393D03*
X182583999Y-67129393D03*
X186483999Y-67129393D03*
X182583999Y-65859393D03*
X186483999Y-65859393D03*
X182583999Y-64589393D03*
X186483999Y-64589393D03*
X182583999Y-63319393D03*
X186483999Y-63319393D03*
%TD*%
%TO.C,J2*%
G36*
G01*
X136534999Y-65244392D02*
X136534999Y-66474394D01*
G75*
G02*
X136285000Y-66724393I-249999J0D01*
G01*
X135754998Y-66724393D01*
G75*
G02*
X135504999Y-66474394I0J249999D01*
G01*
X135504999Y-65244392D01*
G75*
G02*
X135754998Y-64994393I249999J0D01*
G01*
X136285000Y-64994393D01*
G75*
G02*
X136534999Y-65244392I0J-249999D01*
G01*
G37*
D10*
X134519999Y-65859393D03*
X133019999Y-65859393D03*
%TD*%
D16*
%TO.C,L1*%
X146185999Y-87703393D03*
X156085999Y-87703393D03*
%TD*%
D17*
%TO.C,RV1*%
X165266399Y-68443193D03*
X155766399Y-68443193D03*
D18*
X163016399Y-75943193D03*
X160516399Y-75943193D03*
D19*
X158016399Y-75943193D03*
%TD*%
D20*
%TO.C,U3*%
X167740999Y-93986393D03*
X166040999Y-93986393D03*
X164340999Y-93986393D03*
X162640999Y-93986393D03*
X160940999Y-93986393D03*
D21*
X164340999Y-84836393D03*
%TD*%
M02*
