M48
; DRILL file {KiCad (5.1.10)-1} date 08/15/21 22:41:17
; FORMAT={-:-/ absolute / metric / decimal}
; #@! TF.CreationDate,2021-08-15T22:41:17+03:00
; #@! TF.GenerationSoftware,Kicad,Pcbnew,(5.1.10)-1
; #@! TF.FileFunction,Plated,1,2,PTH
FMAT,2
METRIC
T1C0.400
T2C0.650
T3C0.730
T4C0.762
T5C1.000
%
G90
G05
T1
X60.706Y-81.407
X60.96Y-87.757
X61.087Y-85.598
X61.976Y-46.101
X61.976Y-47.879
X61.976Y-49.53
X61.976Y-51.435
X61.976Y-53.467
X62.508Y-75.311
X63.119Y-85.598
X63.119Y-87.884
X63.373Y-63.119
X63.373Y-65.659
X64.008Y-84.074
X66.294Y-77.343
X66.294Y-78.486
X66.548Y-61.214
X66.548Y-75.438
X67.273Y-62.23
X67.437Y-50.038
X67.437Y-54.737
X67.908Y-69.596
X68.072Y-68.326
X68.199Y-76.708
X68.199Y-85.344
X68.492Y-80.137
X69.088Y-86.868
X69.215Y-78.613
X69.342Y-54.737
X70.104Y-50.038
X70.29Y-74.862
X70.612Y-82.423
X70.63Y-66.996
X71.167Y-72.022
X71.374Y-74.803
X71.755Y-50.165
X71.882Y-45.847
X72.009Y-85.09
X72.038Y-71.53
X72.898Y-82.423
X73.279Y-75.692
X74.027Y-74.916
X74.329Y-70.265
X74.422Y-66.167
X74.803Y-75.565
X75.057Y-73.914
X75.1Y-71.544
X75.311Y-59.817
X75.692Y-50.165
X76.29Y-68.291
X77.092Y-83.407
X77.386Y-69.258
X77.851Y-57.023
X77.978Y-73.66
X77.979Y-75.293
X78.685Y-74.367
X78.74Y-72.644
X78.822Y-77.506
X79.248Y-60.198
X79.37Y-84.46
X79.502Y-45.974
X80.01Y-59.182
X80.243Y-83.185
X80.518Y-65.151
X80.772Y-45.974
X81.153Y-63.881
X81.915Y-58.547
X81.915Y-59.944
X81.915Y-61.341
X82.042Y-45.974
X82.169Y-72.263
X82.169Y-73.406
X82.423Y-79.883
X82.677Y-75.692
X83.312Y-45.974
X83.439Y-84.455
X83.439Y-89.662
X84.074Y-47.752
X84.074Y-50.038
X84.074Y-52.197
T2
X78.105Y-85.598
X78.105Y-86.868
X78.105Y-88.138
X78.105Y-89.408
X78.105Y-90.678
X79.375Y-85.598
X79.375Y-86.868
X79.375Y-88.138
X79.375Y-89.408
X79.375Y-90.678
T3
X81.661Y-47.824
X81.661Y-49.324
X81.661Y-50.824
X81.661Y-52.324
T4
X61.214Y-56.515
X61.214Y-59.055
X61.214Y-61.595
X61.214Y-64.135
X61.214Y-66.675
X61.214Y-69.215
X61.214Y-71.755
X61.214Y-74.295
X61.214Y-76.835
X61.214Y-79.375
X84.074Y-56.515
X84.074Y-59.055
X84.074Y-61.595
X84.074Y-64.135
X84.074Y-66.675
X84.074Y-69.215
X84.074Y-71.755
X84.074Y-74.295
X84.074Y-76.835
X84.074Y-79.375
T5
X61.849Y-83.439
T0
M30
