G04 #@! TF.GenerationSoftware,KiCad,Pcbnew,(5.1.9)-1*
G04 #@! TF.CreationDate,2021-02-09T21:00:10+02:00*
G04 #@! TF.ProjectId,jantteri-main,6a616e74-7465-4726-992d-6d61696e2e6b,rev?*
G04 #@! TF.SameCoordinates,Original*
G04 #@! TF.FileFunction,Legend,Top*
G04 #@! TF.FilePolarity,Positive*
%FSLAX46Y46*%
G04 Gerber Fmt 4.6, Leading zero omitted, Abs format (unit mm)*
G04 Created by KiCad (PCBNEW (5.1.9)-1) date 2021-02-09 21:00:10*
%MOMM*%
%LPD*%
G01*
G04 APERTURE LIST*
%ADD10C,0.120000*%
%ADD11C,0.150000*%
G04 APERTURE END LIST*
D10*
X160619000Y-51835000D02*
X166629000Y-51835000D01*
X162869000Y-58655000D02*
X166629000Y-58655000D01*
X166629000Y-51835000D02*
X166629000Y-53095000D01*
X166629000Y-58655000D02*
X166629000Y-57395000D01*
X176500000Y-77947000D02*
X176500000Y-78897000D01*
X176500000Y-78897000D02*
X177450000Y-78897000D01*
X176500000Y-69627000D02*
X176500000Y-68677000D01*
X176500000Y-68677000D02*
X177450000Y-68677000D01*
X186720000Y-77947000D02*
X186720000Y-78897000D01*
X186720000Y-78897000D02*
X185770000Y-78897000D01*
X186720000Y-69627000D02*
X186720000Y-68677000D01*
X186720000Y-68677000D02*
X185770000Y-68677000D01*
X185770000Y-68677000D02*
X185770000Y-67337000D01*
X172591252Y-69490000D02*
X171168748Y-69490000D01*
X172591252Y-67670000D02*
X171168748Y-67670000D01*
X159739000Y-57477252D02*
X159739000Y-56954748D01*
X158269000Y-57477252D02*
X158269000Y-56954748D01*
X165127000Y-61333748D02*
X165127000Y-61856252D01*
X166597000Y-61333748D02*
X166597000Y-61856252D01*
X159739000Y-53347252D02*
X159739000Y-52824748D01*
X158269000Y-53347252D02*
X158269000Y-52824748D01*
X164311000Y-61333748D02*
X164311000Y-61856252D01*
X162841000Y-61333748D02*
X162841000Y-61856252D01*
X173963000Y-77274748D02*
X173963000Y-77797252D01*
X172493000Y-77274748D02*
X172493000Y-77797252D01*
X185600748Y-82523000D02*
X186123252Y-82523000D01*
X185600748Y-81053000D02*
X186123252Y-81053000D01*
X185822000Y-64115836D02*
X185822000Y-63900164D01*
X186542000Y-64115836D02*
X186542000Y-63900164D01*
X183407164Y-61828000D02*
X183622836Y-61828000D01*
X183407164Y-61108000D02*
X183622836Y-61108000D01*
X208206748Y-76608000D02*
X208729252Y-76608000D01*
X208206748Y-78078000D02*
X208729252Y-78078000D01*
X174378252Y-60425000D02*
X173855748Y-60425000D01*
X174378252Y-58955000D02*
X173855748Y-58955000D01*
X153643000Y-63492748D02*
X153643000Y-64015252D01*
X152173000Y-63492748D02*
X152173000Y-64015252D01*
X151230000Y-60459252D02*
X151230000Y-59936748D01*
X149760000Y-60459252D02*
X149760000Y-59936748D01*
X193829000Y-73622000D02*
X193829000Y-75907000D01*
X193829000Y-75907000D02*
X195299000Y-75907000D01*
X195299000Y-75907000D02*
X195299000Y-73622000D01*
X204410000Y-52518000D02*
X204410000Y-55178000D01*
X207010000Y-52518000D02*
X204410000Y-52518000D01*
X207010000Y-55178000D02*
X204410000Y-55178000D01*
X207010000Y-52518000D02*
X207010000Y-55178000D01*
X208280000Y-52518000D02*
X209610000Y-52518000D01*
X209610000Y-52518000D02*
X209610000Y-53848000D01*
X141926000Y-83880000D02*
X144586000Y-83880000D01*
X141926000Y-83820000D02*
X141926000Y-83880000D01*
X144586000Y-83820000D02*
X144586000Y-83880000D01*
X141926000Y-83820000D02*
X144586000Y-83820000D01*
X141926000Y-82550000D02*
X141926000Y-81220000D01*
X141926000Y-81220000D02*
X143256000Y-81220000D01*
X194184000Y-77369641D02*
X194184000Y-77062359D01*
X194944000Y-77369641D02*
X194944000Y-77062359D01*
X207745359Y-80771000D02*
X208052641Y-80771000D01*
X207745359Y-80011000D02*
X208052641Y-80011000D01*
X145515359Y-58294000D02*
X145822641Y-58294000D01*
X145515359Y-59054000D02*
X145822641Y-59054000D01*
X174471064Y-58139000D02*
X174016936Y-58139000D01*
X174471064Y-56669000D02*
X174016936Y-56669000D01*
D11*
X145986000Y-57909500D02*
X150486000Y-57909500D01*
X144861000Y-52359500D02*
X150486000Y-52359500D01*
D10*
X181865000Y-66262000D02*
X185165000Y-66262000D01*
X185165000Y-66262000D02*
X185165000Y-62262000D01*
X188835420Y-78992000D02*
X189116580Y-78992000D01*
X188835420Y-80012000D02*
X189116580Y-80012000D01*
X175627420Y-80774000D02*
X175908580Y-80774000D01*
X175627420Y-79754000D02*
X175908580Y-79754000D01*
X172098580Y-71376000D02*
X171817420Y-71376000D01*
X172098580Y-70356000D02*
X171817420Y-70356000D01*
X189228000Y-69709420D02*
X189228000Y-69990580D01*
X190248000Y-69709420D02*
X190248000Y-69990580D01*
X187962000Y-66153420D02*
X187962000Y-66434580D01*
X186942000Y-66153420D02*
X186942000Y-66434580D01*
X154430000Y-63613420D02*
X154430000Y-63894580D01*
X155450000Y-63613420D02*
X155450000Y-63894580D01*
X189584359Y-72389000D02*
X189891641Y-72389000D01*
X189584359Y-71629000D02*
X189891641Y-71629000D01*
X180468000Y-64923641D02*
X180468000Y-64616359D01*
X181228000Y-64923641D02*
X181228000Y-64616359D01*
X194123000Y-59169000D02*
X194123000Y-55639000D01*
X200593000Y-59169000D02*
X200593000Y-55639000D01*
X194188000Y-60494000D02*
X194188000Y-59169000D01*
X194123000Y-59169000D02*
X194188000Y-59169000D01*
X194123000Y-55639000D02*
X194188000Y-55639000D01*
X200528000Y-59169000D02*
X200593000Y-59169000D01*
X200528000Y-55639000D02*
X200593000Y-55639000D01*
X210144000Y-56864000D02*
X209344000Y-56864000D01*
X210144000Y-57664000D02*
X210144000Y-56864000D01*
X206624000Y-60924000D02*
X207024000Y-60924000D01*
X207024000Y-61024000D02*
X206624000Y-61024000D01*
X207024000Y-60824000D02*
X207024000Y-61024000D01*
X206624000Y-60824000D02*
X207024000Y-60824000D01*
X206624000Y-59424000D02*
X207024000Y-59424000D01*
X207024000Y-59524000D02*
X206624000Y-59524000D01*
X207024000Y-59324000D02*
X207024000Y-59524000D01*
X206624000Y-59324000D02*
X207024000Y-59324000D01*
X208034000Y-63284000D02*
X208034000Y-62884000D01*
X209034000Y-63284000D02*
X209034000Y-62884000D01*
X208034000Y-57064000D02*
X208034000Y-57464000D01*
X209034000Y-57064000D02*
X209034000Y-57464000D01*
X209544000Y-62884000D02*
X209544000Y-57464000D01*
X206624000Y-62884000D02*
X209544000Y-62884000D01*
X206624000Y-57464000D02*
X206624000Y-62884000D01*
X209544000Y-57464000D02*
X206624000Y-57464000D01*
X210044000Y-58374000D02*
X210044000Y-58074000D01*
X210144000Y-58074000D02*
X209944000Y-58074000D01*
X210144000Y-58374000D02*
X210144000Y-58074000D01*
X209944000Y-58374000D02*
X210144000Y-58374000D01*
X209944000Y-63284000D02*
X209944000Y-57064000D01*
X206224000Y-63284000D02*
X209944000Y-63284000D01*
X206224000Y-57064000D02*
X206224000Y-63284000D01*
X209944000Y-57064000D02*
X206224000Y-57064000D01*
X152495000Y-52365000D02*
X152495000Y-53165000D01*
X153295000Y-52365000D02*
X152495000Y-52365000D01*
X155055000Y-55885000D02*
X155055000Y-55485000D01*
X155155000Y-55485000D02*
X155155000Y-55885000D01*
X154955000Y-55485000D02*
X155155000Y-55485000D01*
X154955000Y-55885000D02*
X154955000Y-55485000D01*
X157415000Y-54475000D02*
X157015000Y-54475000D01*
X157415000Y-53475000D02*
X157015000Y-53475000D01*
X152695000Y-54475000D02*
X153095000Y-54475000D01*
X152695000Y-53475000D02*
X153095000Y-53475000D01*
X157015000Y-52965000D02*
X153095000Y-52965000D01*
X157015000Y-55885000D02*
X157015000Y-52965000D01*
X153095000Y-55885000D02*
X157015000Y-55885000D01*
X153095000Y-52965000D02*
X153095000Y-55885000D01*
X154005000Y-52465000D02*
X153705000Y-52465000D01*
X153705000Y-52365000D02*
X153705000Y-52565000D01*
X154005000Y-52365000D02*
X153705000Y-52365000D01*
X154005000Y-52565000D02*
X154005000Y-52365000D01*
X157415000Y-52565000D02*
X152695000Y-52565000D01*
X157415000Y-56285000D02*
X157415000Y-52565000D01*
X152695000Y-56285000D02*
X157415000Y-56285000D01*
X152695000Y-52565000D02*
X152695000Y-56285000D01*
X183982000Y-55766000D02*
X183982000Y-52046000D01*
X183982000Y-52046000D02*
X177762000Y-52046000D01*
X177762000Y-52046000D02*
X177762000Y-55766000D01*
X177762000Y-55766000D02*
X183982000Y-55766000D01*
X182672000Y-55766000D02*
X182672000Y-55966000D01*
X182672000Y-55966000D02*
X182972000Y-55966000D01*
X182972000Y-55966000D02*
X182972000Y-55766000D01*
X182672000Y-55866000D02*
X182972000Y-55866000D01*
X183582000Y-55366000D02*
X183582000Y-52446000D01*
X183582000Y-52446000D02*
X178162000Y-52446000D01*
X178162000Y-52446000D02*
X178162000Y-55366000D01*
X178162000Y-55366000D02*
X183582000Y-55366000D01*
X183982000Y-54856000D02*
X183582000Y-54856000D01*
X183982000Y-53856000D02*
X183582000Y-53856000D01*
X177762000Y-54856000D02*
X178162000Y-54856000D01*
X177762000Y-53856000D02*
X178162000Y-53856000D01*
X181722000Y-52446000D02*
X181722000Y-52846000D01*
X181722000Y-52846000D02*
X181522000Y-52846000D01*
X181522000Y-52846000D02*
X181522000Y-52446000D01*
X181622000Y-52446000D02*
X181622000Y-52846000D01*
X180222000Y-52446000D02*
X180222000Y-52846000D01*
X180222000Y-52846000D02*
X180022000Y-52846000D01*
X180022000Y-52846000D02*
X180022000Y-52446000D01*
X180122000Y-52446000D02*
X180122000Y-52846000D01*
X183382000Y-55966000D02*
X184182000Y-55966000D01*
X184182000Y-55966000D02*
X184182000Y-55166000D01*
X176362000Y-55766000D02*
X176362000Y-52046000D01*
X176362000Y-52046000D02*
X170142000Y-52046000D01*
X170142000Y-52046000D02*
X170142000Y-55766000D01*
X170142000Y-55766000D02*
X176362000Y-55766000D01*
X175052000Y-55766000D02*
X175052000Y-55966000D01*
X175052000Y-55966000D02*
X175352000Y-55966000D01*
X175352000Y-55966000D02*
X175352000Y-55766000D01*
X175052000Y-55866000D02*
X175352000Y-55866000D01*
X175962000Y-55366000D02*
X175962000Y-52446000D01*
X175962000Y-52446000D02*
X170542000Y-52446000D01*
X170542000Y-52446000D02*
X170542000Y-55366000D01*
X170542000Y-55366000D02*
X175962000Y-55366000D01*
X176362000Y-54856000D02*
X175962000Y-54856000D01*
X176362000Y-53856000D02*
X175962000Y-53856000D01*
X170142000Y-54856000D02*
X170542000Y-54856000D01*
X170142000Y-53856000D02*
X170542000Y-53856000D01*
X174102000Y-52446000D02*
X174102000Y-52846000D01*
X174102000Y-52846000D02*
X173902000Y-52846000D01*
X173902000Y-52846000D02*
X173902000Y-52446000D01*
X174002000Y-52446000D02*
X174002000Y-52846000D01*
X172602000Y-52446000D02*
X172602000Y-52846000D01*
X172602000Y-52846000D02*
X172402000Y-52846000D01*
X172402000Y-52846000D02*
X172402000Y-52446000D01*
X172502000Y-52446000D02*
X172502000Y-52846000D01*
X175762000Y-55966000D02*
X176562000Y-55966000D01*
X176562000Y-55966000D02*
X176562000Y-55166000D01*
X140322000Y-58252000D02*
X144042000Y-58252000D01*
X144042000Y-58252000D02*
X144042000Y-53532000D01*
X144042000Y-53532000D02*
X140322000Y-53532000D01*
X140322000Y-53532000D02*
X140322000Y-58252000D01*
X140322000Y-56942000D02*
X140122000Y-56942000D01*
X140122000Y-56942000D02*
X140122000Y-57242000D01*
X140122000Y-57242000D02*
X140322000Y-57242000D01*
X140222000Y-56942000D02*
X140222000Y-57242000D01*
X140722000Y-57852000D02*
X143642000Y-57852000D01*
X143642000Y-57852000D02*
X143642000Y-53932000D01*
X143642000Y-53932000D02*
X140722000Y-53932000D01*
X140722000Y-53932000D02*
X140722000Y-57852000D01*
X141232000Y-58252000D02*
X141232000Y-57852000D01*
X142232000Y-58252000D02*
X142232000Y-57852000D01*
X141232000Y-53532000D02*
X141232000Y-53932000D01*
X142232000Y-53532000D02*
X142232000Y-53932000D01*
X143642000Y-55992000D02*
X143242000Y-55992000D01*
X143242000Y-55992000D02*
X143242000Y-55792000D01*
X143242000Y-55792000D02*
X143642000Y-55792000D01*
X143642000Y-55892000D02*
X143242000Y-55892000D01*
X140122000Y-57652000D02*
X140122000Y-58452000D01*
X140122000Y-58452000D02*
X140922000Y-58452000D01*
X140322000Y-78826000D02*
X144042000Y-78826000D01*
X144042000Y-78826000D02*
X144042000Y-62106000D01*
X144042000Y-62106000D02*
X140322000Y-62106000D01*
X140322000Y-62106000D02*
X140322000Y-78826000D01*
X140322000Y-77516000D02*
X140122000Y-77516000D01*
X140122000Y-77516000D02*
X140122000Y-77816000D01*
X140122000Y-77816000D02*
X140322000Y-77816000D01*
X140222000Y-77516000D02*
X140222000Y-77816000D01*
X140722000Y-78426000D02*
X143642000Y-78426000D01*
X143642000Y-78426000D02*
X143642000Y-62506000D01*
X143642000Y-62506000D02*
X140722000Y-62506000D01*
X140722000Y-62506000D02*
X140722000Y-78426000D01*
X141232000Y-78826000D02*
X141232000Y-78426000D01*
X142232000Y-78826000D02*
X142232000Y-78426000D01*
X141232000Y-62106000D02*
X141232000Y-62506000D01*
X142232000Y-62106000D02*
X142232000Y-62506000D01*
X143642000Y-76566000D02*
X143242000Y-76566000D01*
X143242000Y-76566000D02*
X143242000Y-76366000D01*
X143242000Y-76366000D02*
X143642000Y-76366000D01*
X143642000Y-76466000D02*
X143242000Y-76466000D01*
X143642000Y-75066000D02*
X143242000Y-75066000D01*
X143242000Y-75066000D02*
X143242000Y-74866000D01*
X143242000Y-74866000D02*
X143642000Y-74866000D01*
X143642000Y-74966000D02*
X143242000Y-74966000D01*
X143642000Y-73566000D02*
X143242000Y-73566000D01*
X143242000Y-73566000D02*
X143242000Y-73366000D01*
X143242000Y-73366000D02*
X143642000Y-73366000D01*
X143642000Y-73466000D02*
X143242000Y-73466000D01*
X143642000Y-72066000D02*
X143242000Y-72066000D01*
X143242000Y-72066000D02*
X143242000Y-71866000D01*
X143242000Y-71866000D02*
X143642000Y-71866000D01*
X143642000Y-71966000D02*
X143242000Y-71966000D01*
X143642000Y-70566000D02*
X143242000Y-70566000D01*
X143242000Y-70566000D02*
X143242000Y-70366000D01*
X143242000Y-70366000D02*
X143642000Y-70366000D01*
X143642000Y-70466000D02*
X143242000Y-70466000D01*
X143642000Y-69066000D02*
X143242000Y-69066000D01*
X143242000Y-69066000D02*
X143242000Y-68866000D01*
X143242000Y-68866000D02*
X143642000Y-68866000D01*
X143642000Y-68966000D02*
X143242000Y-68966000D01*
X143642000Y-67566000D02*
X143242000Y-67566000D01*
X143242000Y-67566000D02*
X143242000Y-67366000D01*
X143242000Y-67366000D02*
X143642000Y-67366000D01*
X143642000Y-67466000D02*
X143242000Y-67466000D01*
X143642000Y-66066000D02*
X143242000Y-66066000D01*
X143242000Y-66066000D02*
X143242000Y-65866000D01*
X143242000Y-65866000D02*
X143642000Y-65866000D01*
X143642000Y-65966000D02*
X143242000Y-65966000D01*
X143642000Y-64566000D02*
X143242000Y-64566000D01*
X143242000Y-64566000D02*
X143242000Y-64366000D01*
X143242000Y-64366000D02*
X143642000Y-64366000D01*
X143642000Y-64466000D02*
X143242000Y-64466000D01*
X140122000Y-78226000D02*
X140122000Y-79026000D01*
X140122000Y-79026000D02*
X140922000Y-79026000D01*
X157532000Y-62883622D02*
X157532000Y-62084378D01*
X156412000Y-62883622D02*
X156412000Y-62084378D01*
X157536000Y-57914000D02*
X157536000Y-59374000D01*
X154376000Y-57914000D02*
X154376000Y-60074000D01*
X154376000Y-57914000D02*
X155306000Y-57914000D01*
X157536000Y-57914000D02*
X156606000Y-57914000D01*
D11*
X167068666Y-73722380D02*
X166735333Y-73246190D01*
X166497238Y-73722380D02*
X166497238Y-72722380D01*
X166878190Y-72722380D01*
X166973428Y-72770000D01*
X167021047Y-72817619D01*
X167068666Y-72912857D01*
X167068666Y-73055714D01*
X167021047Y-73150952D01*
X166973428Y-73198571D01*
X166878190Y-73246190D01*
X166497238Y-73246190D01*
X167497238Y-73198571D02*
X167830571Y-73198571D01*
X167973428Y-73722380D02*
X167497238Y-73722380D01*
X167497238Y-72722380D01*
X167973428Y-72722380D01*
X168735333Y-73198571D02*
X168402000Y-73198571D01*
X168402000Y-73722380D02*
X168402000Y-72722380D01*
X168878190Y-72722380D01*
X169402000Y-72722380D02*
X169402000Y-72960476D01*
X169163904Y-72865238D02*
X169402000Y-72960476D01*
X169640095Y-72865238D01*
X169259142Y-73150952D02*
X169402000Y-72960476D01*
X169544857Y-73150952D01*
X170163904Y-72722380D02*
X170163904Y-72960476D01*
X169925809Y-72865238D02*
X170163904Y-72960476D01*
X170402000Y-72865238D01*
X170021047Y-73150952D02*
X170163904Y-72960476D01*
X170306761Y-73150952D01*
X187388666Y-50862380D02*
X187055333Y-50386190D01*
X186817238Y-50862380D02*
X186817238Y-49862380D01*
X187198190Y-49862380D01*
X187293428Y-49910000D01*
X187341047Y-49957619D01*
X187388666Y-50052857D01*
X187388666Y-50195714D01*
X187341047Y-50290952D01*
X187293428Y-50338571D01*
X187198190Y-50386190D01*
X186817238Y-50386190D01*
X187817238Y-50338571D02*
X188150571Y-50338571D01*
X188293428Y-50862380D02*
X187817238Y-50862380D01*
X187817238Y-49862380D01*
X188293428Y-49862380D01*
X189055333Y-50338571D02*
X188722000Y-50338571D01*
X188722000Y-50862380D02*
X188722000Y-49862380D01*
X189198190Y-49862380D01*
X189722000Y-49862380D02*
X189722000Y-50100476D01*
X189483904Y-50005238D02*
X189722000Y-50100476D01*
X189960095Y-50005238D01*
X189579142Y-50290952D02*
X189722000Y-50100476D01*
X189864857Y-50290952D01*
X190483904Y-49862380D02*
X190483904Y-50100476D01*
X190245809Y-50005238D02*
X190483904Y-50100476D01*
X190722000Y-50005238D01*
X190341047Y-50290952D02*
X190483904Y-50100476D01*
X190626761Y-50290952D01*
X167386095Y-51268380D02*
X167386095Y-52077904D01*
X167433714Y-52173142D01*
X167481333Y-52220761D01*
X167576571Y-52268380D01*
X167767047Y-52268380D01*
X167862285Y-52220761D01*
X167909904Y-52173142D01*
X167957523Y-52077904D01*
X167957523Y-51268380D01*
X168957523Y-52268380D02*
X168386095Y-52268380D01*
X168671809Y-52268380D02*
X168671809Y-51268380D01*
X168576571Y-51411238D01*
X168481333Y-51506476D01*
X168386095Y-51554095D01*
X188682380Y-77977904D02*
X189491904Y-77977904D01*
X189587142Y-77930285D01*
X189634761Y-77882666D01*
X189682380Y-77787428D01*
X189682380Y-77596952D01*
X189634761Y-77501714D01*
X189587142Y-77454095D01*
X189491904Y-77406476D01*
X188682380Y-77406476D01*
X188777619Y-76977904D02*
X188730000Y-76930285D01*
X188682380Y-76835047D01*
X188682380Y-76596952D01*
X188730000Y-76501714D01*
X188777619Y-76454095D01*
X188872857Y-76406476D01*
X188968095Y-76406476D01*
X189110952Y-76454095D01*
X189682380Y-77025523D01*
X189682380Y-76406476D01*
X169267142Y-68746666D02*
X169314761Y-68794285D01*
X169362380Y-68937142D01*
X169362380Y-69032380D01*
X169314761Y-69175238D01*
X169219523Y-69270476D01*
X169124285Y-69318095D01*
X168933809Y-69365714D01*
X168790952Y-69365714D01*
X168600476Y-69318095D01*
X168505238Y-69270476D01*
X168410000Y-69175238D01*
X168362380Y-69032380D01*
X168362380Y-68937142D01*
X168410000Y-68794285D01*
X168457619Y-68746666D01*
X169362380Y-67794285D02*
X169362380Y-68365714D01*
X169362380Y-68080000D02*
X168362380Y-68080000D01*
X168505238Y-68175238D01*
X168600476Y-68270476D01*
X168648095Y-68365714D01*
X158583333Y-60809142D02*
X158535714Y-60856761D01*
X158392857Y-60904380D01*
X158297619Y-60904380D01*
X158154761Y-60856761D01*
X158059523Y-60761523D01*
X158011904Y-60666285D01*
X157964285Y-60475809D01*
X157964285Y-60332952D01*
X158011904Y-60142476D01*
X158059523Y-60047238D01*
X158154761Y-59952000D01*
X158297619Y-59904380D01*
X158392857Y-59904380D01*
X158535714Y-59952000D01*
X158583333Y-59999619D01*
X158964285Y-59999619D02*
X159011904Y-59952000D01*
X159107142Y-59904380D01*
X159345238Y-59904380D01*
X159440476Y-59952000D01*
X159488095Y-59999619D01*
X159535714Y-60094857D01*
X159535714Y-60190095D01*
X159488095Y-60332952D01*
X158916666Y-60904380D01*
X159535714Y-60904380D01*
X165695333Y-64492142D02*
X165647714Y-64539761D01*
X165504857Y-64587380D01*
X165409619Y-64587380D01*
X165266761Y-64539761D01*
X165171523Y-64444523D01*
X165123904Y-64349285D01*
X165076285Y-64158809D01*
X165076285Y-64015952D01*
X165123904Y-63825476D01*
X165171523Y-63730238D01*
X165266761Y-63635000D01*
X165409619Y-63587380D01*
X165504857Y-63587380D01*
X165647714Y-63635000D01*
X165695333Y-63682619D01*
X166600095Y-63587380D02*
X166123904Y-63587380D01*
X166076285Y-64063571D01*
X166123904Y-64015952D01*
X166219142Y-63968333D01*
X166457238Y-63968333D01*
X166552476Y-64015952D01*
X166600095Y-64063571D01*
X166647714Y-64158809D01*
X166647714Y-64396904D01*
X166600095Y-64492142D01*
X166552476Y-64539761D01*
X166457238Y-64587380D01*
X166219142Y-64587380D01*
X166123904Y-64539761D01*
X166076285Y-64492142D01*
X156805333Y-52173142D02*
X156757714Y-52220761D01*
X156614857Y-52268380D01*
X156519619Y-52268380D01*
X156376761Y-52220761D01*
X156281523Y-52125523D01*
X156233904Y-52030285D01*
X156186285Y-51839809D01*
X156186285Y-51696952D01*
X156233904Y-51506476D01*
X156281523Y-51411238D01*
X156376761Y-51316000D01*
X156519619Y-51268380D01*
X156614857Y-51268380D01*
X156757714Y-51316000D01*
X156805333Y-51363619D01*
X157138666Y-51268380D02*
X157805333Y-51268380D01*
X157376761Y-52268380D01*
X163409333Y-64492142D02*
X163361714Y-64539761D01*
X163218857Y-64587380D01*
X163123619Y-64587380D01*
X162980761Y-64539761D01*
X162885523Y-64444523D01*
X162837904Y-64349285D01*
X162790285Y-64158809D01*
X162790285Y-64015952D01*
X162837904Y-63825476D01*
X162885523Y-63730238D01*
X162980761Y-63635000D01*
X163123619Y-63587380D01*
X163218857Y-63587380D01*
X163361714Y-63635000D01*
X163409333Y-63682619D01*
X163980761Y-64015952D02*
X163885523Y-63968333D01*
X163837904Y-63920714D01*
X163790285Y-63825476D01*
X163790285Y-63777857D01*
X163837904Y-63682619D01*
X163885523Y-63635000D01*
X163980761Y-63587380D01*
X164171238Y-63587380D01*
X164266476Y-63635000D01*
X164314095Y-63682619D01*
X164361714Y-63777857D01*
X164361714Y-63825476D01*
X164314095Y-63920714D01*
X164266476Y-63968333D01*
X164171238Y-64015952D01*
X163980761Y-64015952D01*
X163885523Y-64063571D01*
X163837904Y-64111190D01*
X163790285Y-64206428D01*
X163790285Y-64396904D01*
X163837904Y-64492142D01*
X163885523Y-64539761D01*
X163980761Y-64587380D01*
X164171238Y-64587380D01*
X164266476Y-64539761D01*
X164314095Y-64492142D01*
X164361714Y-64396904D01*
X164361714Y-64206428D01*
X164314095Y-64111190D01*
X164266476Y-64063571D01*
X164171238Y-64015952D01*
X172569142Y-80496666D02*
X172616761Y-80544285D01*
X172664380Y-80687142D01*
X172664380Y-80782380D01*
X172616761Y-80925238D01*
X172521523Y-81020476D01*
X172426285Y-81068095D01*
X172235809Y-81115714D01*
X172092952Y-81115714D01*
X171902476Y-81068095D01*
X171807238Y-81020476D01*
X171712000Y-80925238D01*
X171664380Y-80782380D01*
X171664380Y-80687142D01*
X171712000Y-80544285D01*
X171759619Y-80496666D01*
X172664380Y-80020476D02*
X172664380Y-79830000D01*
X172616761Y-79734761D01*
X172569142Y-79687142D01*
X172426285Y-79591904D01*
X172235809Y-79544285D01*
X171854857Y-79544285D01*
X171759619Y-79591904D01*
X171712000Y-79639523D01*
X171664380Y-79734761D01*
X171664380Y-79925238D01*
X171712000Y-80020476D01*
X171759619Y-80068095D01*
X171854857Y-80115714D01*
X172092952Y-80115714D01*
X172188190Y-80068095D01*
X172235809Y-80020476D01*
X172283428Y-79925238D01*
X172283428Y-79734761D01*
X172235809Y-79639523D01*
X172188190Y-79591904D01*
X172092952Y-79544285D01*
X188759142Y-82303857D02*
X188806761Y-82351476D01*
X188854380Y-82494333D01*
X188854380Y-82589571D01*
X188806761Y-82732428D01*
X188711523Y-82827666D01*
X188616285Y-82875285D01*
X188425809Y-82922904D01*
X188282952Y-82922904D01*
X188092476Y-82875285D01*
X187997238Y-82827666D01*
X187902000Y-82732428D01*
X187854380Y-82589571D01*
X187854380Y-82494333D01*
X187902000Y-82351476D01*
X187949619Y-82303857D01*
X188854380Y-81351476D02*
X188854380Y-81922904D01*
X188854380Y-81637190D02*
X187854380Y-81637190D01*
X187997238Y-81732428D01*
X188092476Y-81827666D01*
X188140095Y-81922904D01*
X188854380Y-80399095D02*
X188854380Y-80970523D01*
X188854380Y-80684809D02*
X187854380Y-80684809D01*
X187997238Y-80780047D01*
X188092476Y-80875285D01*
X188140095Y-80970523D01*
X186793142Y-62110857D02*
X186840761Y-62158476D01*
X186888380Y-62301333D01*
X186888380Y-62396571D01*
X186840761Y-62539428D01*
X186745523Y-62634666D01*
X186650285Y-62682285D01*
X186459809Y-62729904D01*
X186316952Y-62729904D01*
X186126476Y-62682285D01*
X186031238Y-62634666D01*
X185936000Y-62539428D01*
X185888380Y-62396571D01*
X185888380Y-62301333D01*
X185936000Y-62158476D01*
X185983619Y-62110857D01*
X186888380Y-61158476D02*
X186888380Y-61729904D01*
X186888380Y-61444190D02*
X185888380Y-61444190D01*
X186031238Y-61539428D01*
X186126476Y-61634666D01*
X186174095Y-61729904D01*
X185888380Y-60825142D02*
X185888380Y-60206095D01*
X186269333Y-60539428D01*
X186269333Y-60396571D01*
X186316952Y-60301333D01*
X186364571Y-60253714D01*
X186459809Y-60206095D01*
X186697904Y-60206095D01*
X186793142Y-60253714D01*
X186840761Y-60301333D01*
X186888380Y-60396571D01*
X186888380Y-60682285D01*
X186840761Y-60777523D01*
X186793142Y-60825142D01*
X182872142Y-60665142D02*
X182824523Y-60712761D01*
X182681666Y-60760380D01*
X182586428Y-60760380D01*
X182443571Y-60712761D01*
X182348333Y-60617523D01*
X182300714Y-60522285D01*
X182253095Y-60331809D01*
X182253095Y-60188952D01*
X182300714Y-59998476D01*
X182348333Y-59903238D01*
X182443571Y-59808000D01*
X182586428Y-59760380D01*
X182681666Y-59760380D01*
X182824523Y-59808000D01*
X182872142Y-59855619D01*
X183824523Y-60760380D02*
X183253095Y-60760380D01*
X183538809Y-60760380D02*
X183538809Y-59760380D01*
X183443571Y-59903238D01*
X183348333Y-59998476D01*
X183253095Y-60046095D01*
X184681666Y-60093714D02*
X184681666Y-60760380D01*
X184443571Y-59712761D02*
X184205476Y-60427047D01*
X184824523Y-60427047D01*
X207825142Y-76020142D02*
X207777523Y-76067761D01*
X207634666Y-76115380D01*
X207539428Y-76115380D01*
X207396571Y-76067761D01*
X207301333Y-75972523D01*
X207253714Y-75877285D01*
X207206095Y-75686809D01*
X207206095Y-75543952D01*
X207253714Y-75353476D01*
X207301333Y-75258238D01*
X207396571Y-75163000D01*
X207539428Y-75115380D01*
X207634666Y-75115380D01*
X207777523Y-75163000D01*
X207825142Y-75210619D01*
X208777523Y-76115380D02*
X208206095Y-76115380D01*
X208491809Y-76115380D02*
X208491809Y-75115380D01*
X208396571Y-75258238D01*
X208301333Y-75353476D01*
X208206095Y-75401095D01*
X209682285Y-75115380D02*
X209206095Y-75115380D01*
X209158476Y-75591571D01*
X209206095Y-75543952D01*
X209301333Y-75496333D01*
X209539428Y-75496333D01*
X209634666Y-75543952D01*
X209682285Y-75591571D01*
X209729904Y-75686809D01*
X209729904Y-75924904D01*
X209682285Y-76020142D01*
X209634666Y-76067761D01*
X209539428Y-76115380D01*
X209301333Y-76115380D01*
X209206095Y-76067761D01*
X209158476Y-76020142D01*
X170045142Y-59285142D02*
X169997523Y-59332761D01*
X169854666Y-59380380D01*
X169759428Y-59380380D01*
X169616571Y-59332761D01*
X169521333Y-59237523D01*
X169473714Y-59142285D01*
X169426095Y-58951809D01*
X169426095Y-58808952D01*
X169473714Y-58618476D01*
X169521333Y-58523238D01*
X169616571Y-58428000D01*
X169759428Y-58380380D01*
X169854666Y-58380380D01*
X169997523Y-58428000D01*
X170045142Y-58475619D01*
X170997523Y-59380380D02*
X170426095Y-59380380D01*
X170711809Y-59380380D02*
X170711809Y-58380380D01*
X170616571Y-58523238D01*
X170521333Y-58618476D01*
X170426095Y-58666095D01*
X171854666Y-58380380D02*
X171664190Y-58380380D01*
X171568952Y-58428000D01*
X171521333Y-58475619D01*
X171426095Y-58618476D01*
X171378476Y-58808952D01*
X171378476Y-59189904D01*
X171426095Y-59285142D01*
X171473714Y-59332761D01*
X171568952Y-59380380D01*
X171759428Y-59380380D01*
X171854666Y-59332761D01*
X171902285Y-59285142D01*
X171949904Y-59189904D01*
X171949904Y-58951809D01*
X171902285Y-58856571D01*
X171854666Y-58808952D01*
X171759428Y-58761333D01*
X171568952Y-58761333D01*
X171473714Y-58808952D01*
X171426095Y-58856571D01*
X171378476Y-58951809D01*
X150741142Y-66717142D02*
X150693523Y-66764761D01*
X150550666Y-66812380D01*
X150455428Y-66812380D01*
X150312571Y-66764761D01*
X150217333Y-66669523D01*
X150169714Y-66574285D01*
X150122095Y-66383809D01*
X150122095Y-66240952D01*
X150169714Y-66050476D01*
X150217333Y-65955238D01*
X150312571Y-65860000D01*
X150455428Y-65812380D01*
X150550666Y-65812380D01*
X150693523Y-65860000D01*
X150741142Y-65907619D01*
X151693523Y-66812380D02*
X151122095Y-66812380D01*
X151407809Y-66812380D02*
X151407809Y-65812380D01*
X151312571Y-65955238D01*
X151217333Y-66050476D01*
X151122095Y-66098095D01*
X152264952Y-66240952D02*
X152169714Y-66193333D01*
X152122095Y-66145714D01*
X152074476Y-66050476D01*
X152074476Y-66002857D01*
X152122095Y-65907619D01*
X152169714Y-65860000D01*
X152264952Y-65812380D01*
X152455428Y-65812380D01*
X152550666Y-65860000D01*
X152598285Y-65907619D01*
X152645904Y-66002857D01*
X152645904Y-66050476D01*
X152598285Y-66145714D01*
X152550666Y-66193333D01*
X152455428Y-66240952D01*
X152264952Y-66240952D01*
X152169714Y-66288571D01*
X152122095Y-66336190D01*
X152074476Y-66431428D01*
X152074476Y-66621904D01*
X152122095Y-66717142D01*
X152169714Y-66764761D01*
X152264952Y-66812380D01*
X152455428Y-66812380D01*
X152550666Y-66764761D01*
X152598285Y-66717142D01*
X152645904Y-66621904D01*
X152645904Y-66431428D01*
X152598285Y-66336190D01*
X152550666Y-66288571D01*
X152455428Y-66240952D01*
X147439142Y-62333142D02*
X147391523Y-62380761D01*
X147248666Y-62428380D01*
X147153428Y-62428380D01*
X147010571Y-62380761D01*
X146915333Y-62285523D01*
X146867714Y-62190285D01*
X146820095Y-61999809D01*
X146820095Y-61856952D01*
X146867714Y-61666476D01*
X146915333Y-61571238D01*
X147010571Y-61476000D01*
X147153428Y-61428380D01*
X147248666Y-61428380D01*
X147391523Y-61476000D01*
X147439142Y-61523619D01*
X148391523Y-62428380D02*
X147820095Y-62428380D01*
X148105809Y-62428380D02*
X148105809Y-61428380D01*
X148010571Y-61571238D01*
X147915333Y-61666476D01*
X147820095Y-61714095D01*
X148867714Y-62428380D02*
X149058190Y-62428380D01*
X149153428Y-62380761D01*
X149201047Y-62333142D01*
X149296285Y-62190285D01*
X149343904Y-61999809D01*
X149343904Y-61618857D01*
X149296285Y-61523619D01*
X149248666Y-61476000D01*
X149153428Y-61428380D01*
X148962952Y-61428380D01*
X148867714Y-61476000D01*
X148820095Y-61523619D01*
X148772476Y-61618857D01*
X148772476Y-61856952D01*
X148820095Y-61952190D01*
X148867714Y-61999809D01*
X148962952Y-62047428D01*
X149153428Y-62047428D01*
X149248666Y-61999809D01*
X149296285Y-61952190D01*
X149343904Y-61856952D01*
X195270380Y-71858095D02*
X194270380Y-71858095D01*
X194270380Y-71620000D01*
X194318000Y-71477142D01*
X194413238Y-71381904D01*
X194508476Y-71334285D01*
X194698952Y-71286666D01*
X194841809Y-71286666D01*
X195032285Y-71334285D01*
X195127523Y-71381904D01*
X195222761Y-71477142D01*
X195270380Y-71620000D01*
X195270380Y-71858095D01*
X195270380Y-70334285D02*
X195270380Y-70905714D01*
X195270380Y-70620000D02*
X194270380Y-70620000D01*
X194413238Y-70715238D01*
X194508476Y-70810476D01*
X194556095Y-70905714D01*
X202652380Y-53927333D02*
X203366666Y-53927333D01*
X203509523Y-53974952D01*
X203604761Y-54070190D01*
X203652380Y-54213047D01*
X203652380Y-54308285D01*
X202985714Y-53022571D02*
X203652380Y-53022571D01*
X202604761Y-53260666D02*
X203319047Y-53498761D01*
X203319047Y-52879714D01*
X142446476Y-79672380D02*
X142446476Y-80386666D01*
X142398857Y-80529523D01*
X142303619Y-80624761D01*
X142160761Y-80672380D01*
X142065523Y-80672380D01*
X143446476Y-80672380D02*
X142875047Y-80672380D01*
X143160761Y-80672380D02*
X143160761Y-79672380D01*
X143065523Y-79815238D01*
X142970285Y-79910476D01*
X142875047Y-79958095D01*
X144065523Y-79672380D02*
X144160761Y-79672380D01*
X144256000Y-79720000D01*
X144303619Y-79767619D01*
X144351238Y-79862857D01*
X144398857Y-80053333D01*
X144398857Y-80291428D01*
X144351238Y-80481904D01*
X144303619Y-80577142D01*
X144256000Y-80624761D01*
X144160761Y-80672380D01*
X144065523Y-80672380D01*
X143970285Y-80624761D01*
X143922666Y-80577142D01*
X143875047Y-80481904D01*
X143827428Y-80291428D01*
X143827428Y-80053333D01*
X143875047Y-79862857D01*
X143922666Y-79767619D01*
X143970285Y-79720000D01*
X144065523Y-79672380D01*
X195016380Y-79160666D02*
X194540190Y-79494000D01*
X195016380Y-79732095D02*
X194016380Y-79732095D01*
X194016380Y-79351142D01*
X194064000Y-79255904D01*
X194111619Y-79208285D01*
X194206857Y-79160666D01*
X194349714Y-79160666D01*
X194444952Y-79208285D01*
X194492571Y-79255904D01*
X194540190Y-79351142D01*
X194540190Y-79732095D01*
X195016380Y-78208285D02*
X195016380Y-78779714D01*
X195016380Y-78494000D02*
X194016380Y-78494000D01*
X194159238Y-78589238D01*
X194254476Y-78684476D01*
X194302095Y-78779714D01*
X207732333Y-79673380D02*
X207399000Y-79197190D01*
X207160904Y-79673380D02*
X207160904Y-78673380D01*
X207541857Y-78673380D01*
X207637095Y-78721000D01*
X207684714Y-78768619D01*
X207732333Y-78863857D01*
X207732333Y-79006714D01*
X207684714Y-79101952D01*
X207637095Y-79149571D01*
X207541857Y-79197190D01*
X207160904Y-79197190D01*
X208589476Y-79006714D02*
X208589476Y-79673380D01*
X208351380Y-78625761D02*
X208113285Y-79340047D01*
X208732333Y-79340047D01*
X147407333Y-59253380D02*
X147074000Y-58777190D01*
X146835904Y-59253380D02*
X146835904Y-58253380D01*
X147216857Y-58253380D01*
X147312095Y-58301000D01*
X147359714Y-58348619D01*
X147407333Y-58443857D01*
X147407333Y-58586714D01*
X147359714Y-58681952D01*
X147312095Y-58729571D01*
X147216857Y-58777190D01*
X146835904Y-58777190D01*
X148312095Y-58253380D02*
X147835904Y-58253380D01*
X147788285Y-58729571D01*
X147835904Y-58681952D01*
X147931142Y-58634333D01*
X148169238Y-58634333D01*
X148264476Y-58681952D01*
X148312095Y-58729571D01*
X148359714Y-58824809D01*
X148359714Y-59062904D01*
X148312095Y-59158142D01*
X148264476Y-59205761D01*
X148169238Y-59253380D01*
X147931142Y-59253380D01*
X147835904Y-59205761D01*
X147788285Y-59158142D01*
X172156380Y-57570666D02*
X171680190Y-57904000D01*
X172156380Y-58142095D02*
X171156380Y-58142095D01*
X171156380Y-57761142D01*
X171204000Y-57665904D01*
X171251619Y-57618285D01*
X171346857Y-57570666D01*
X171489714Y-57570666D01*
X171584952Y-57618285D01*
X171632571Y-57665904D01*
X171680190Y-57761142D01*
X171680190Y-58142095D01*
X171156380Y-56713523D02*
X171156380Y-56904000D01*
X171204000Y-56999238D01*
X171251619Y-57046857D01*
X171394476Y-57142095D01*
X171584952Y-57189714D01*
X171965904Y-57189714D01*
X172061142Y-57142095D01*
X172108761Y-57094476D01*
X172156380Y-56999238D01*
X172156380Y-56808761D01*
X172108761Y-56713523D01*
X172061142Y-56665904D01*
X171965904Y-56618285D01*
X171727809Y-56618285D01*
X171632571Y-56665904D01*
X171584952Y-56713523D01*
X171537333Y-56808761D01*
X171537333Y-56999238D01*
X171584952Y-57094476D01*
X171632571Y-57142095D01*
X171727809Y-57189714D01*
X145288095Y-51268380D02*
X145288095Y-52077904D01*
X145335714Y-52173142D01*
X145383333Y-52220761D01*
X145478571Y-52268380D01*
X145669047Y-52268380D01*
X145764285Y-52220761D01*
X145811904Y-52173142D01*
X145859523Y-52077904D01*
X145859523Y-51268380D01*
X146811904Y-51268380D02*
X146335714Y-51268380D01*
X146288095Y-51744571D01*
X146335714Y-51696952D01*
X146430952Y-51649333D01*
X146669047Y-51649333D01*
X146764285Y-51696952D01*
X146811904Y-51744571D01*
X146859523Y-51839809D01*
X146859523Y-52077904D01*
X146811904Y-52173142D01*
X146764285Y-52220761D01*
X146669047Y-52268380D01*
X146430952Y-52268380D01*
X146335714Y-52220761D01*
X146288095Y-52173142D01*
X181586190Y-60928190D02*
X182062380Y-60928190D01*
X181062380Y-61261523D02*
X181586190Y-60928190D01*
X181062380Y-60594857D01*
X182062380Y-59737714D02*
X182062380Y-60309142D01*
X182062380Y-60023428D02*
X181062380Y-60023428D01*
X181205238Y-60118666D01*
X181300476Y-60213904D01*
X181348095Y-60309142D01*
X190079333Y-81383142D02*
X190031714Y-81430761D01*
X189888857Y-81478380D01*
X189793619Y-81478380D01*
X189650761Y-81430761D01*
X189555523Y-81335523D01*
X189507904Y-81240285D01*
X189460285Y-81049809D01*
X189460285Y-80906952D01*
X189507904Y-80716476D01*
X189555523Y-80621238D01*
X189650761Y-80526000D01*
X189793619Y-80478380D01*
X189888857Y-80478380D01*
X190031714Y-80526000D01*
X190079333Y-80573619D01*
X190412666Y-80478380D02*
X191031714Y-80478380D01*
X190698380Y-80859333D01*
X190841238Y-80859333D01*
X190936476Y-80906952D01*
X190984095Y-80954571D01*
X191031714Y-81049809D01*
X191031714Y-81287904D01*
X190984095Y-81383142D01*
X190936476Y-81430761D01*
X190841238Y-81478380D01*
X190555523Y-81478380D01*
X190460285Y-81430761D01*
X190412666Y-81383142D01*
X175601333Y-79191142D02*
X175553714Y-79238761D01*
X175410857Y-79286380D01*
X175315619Y-79286380D01*
X175172761Y-79238761D01*
X175077523Y-79143523D01*
X175029904Y-79048285D01*
X174982285Y-78857809D01*
X174982285Y-78714952D01*
X175029904Y-78524476D01*
X175077523Y-78429238D01*
X175172761Y-78334000D01*
X175315619Y-78286380D01*
X175410857Y-78286380D01*
X175553714Y-78334000D01*
X175601333Y-78381619D01*
X176458476Y-78619714D02*
X176458476Y-79286380D01*
X176220380Y-78238761D02*
X175982285Y-78953047D01*
X176601333Y-78953047D01*
X171791333Y-72653142D02*
X171743714Y-72700761D01*
X171600857Y-72748380D01*
X171505619Y-72748380D01*
X171362761Y-72700761D01*
X171267523Y-72605523D01*
X171219904Y-72510285D01*
X171172285Y-72319809D01*
X171172285Y-72176952D01*
X171219904Y-71986476D01*
X171267523Y-71891238D01*
X171362761Y-71796000D01*
X171505619Y-71748380D01*
X171600857Y-71748380D01*
X171743714Y-71796000D01*
X171791333Y-71843619D01*
X172648476Y-71748380D02*
X172458000Y-71748380D01*
X172362761Y-71796000D01*
X172315142Y-71843619D01*
X172219904Y-71986476D01*
X172172285Y-72176952D01*
X172172285Y-72557904D01*
X172219904Y-72653142D01*
X172267523Y-72700761D01*
X172362761Y-72748380D01*
X172553238Y-72748380D01*
X172648476Y-72700761D01*
X172696095Y-72653142D01*
X172743714Y-72557904D01*
X172743714Y-72319809D01*
X172696095Y-72224571D01*
X172648476Y-72176952D01*
X172553238Y-72129333D01*
X172362761Y-72129333D01*
X172267523Y-72176952D01*
X172219904Y-72224571D01*
X172172285Y-72319809D01*
X190857142Y-67444857D02*
X190904761Y-67492476D01*
X190952380Y-67635333D01*
X190952380Y-67730571D01*
X190904761Y-67873428D01*
X190809523Y-67968666D01*
X190714285Y-68016285D01*
X190523809Y-68063904D01*
X190380952Y-68063904D01*
X190190476Y-68016285D01*
X190095238Y-67968666D01*
X190000000Y-67873428D01*
X189952380Y-67730571D01*
X189952380Y-67635333D01*
X190000000Y-67492476D01*
X190047619Y-67444857D01*
X190952380Y-66492476D02*
X190952380Y-67063904D01*
X190952380Y-66778190D02*
X189952380Y-66778190D01*
X190095238Y-66873428D01*
X190190476Y-66968666D01*
X190238095Y-67063904D01*
X189952380Y-65873428D02*
X189952380Y-65778190D01*
X190000000Y-65682952D01*
X190047619Y-65635333D01*
X190142857Y-65587714D01*
X190333333Y-65540095D01*
X190571428Y-65540095D01*
X190761904Y-65587714D01*
X190857142Y-65635333D01*
X190904761Y-65682952D01*
X190952380Y-65778190D01*
X190952380Y-65873428D01*
X190904761Y-65968666D01*
X190857142Y-66016285D01*
X190761904Y-66063904D01*
X190571428Y-66111523D01*
X190333333Y-66111523D01*
X190142857Y-66063904D01*
X190047619Y-66016285D01*
X190000000Y-65968666D01*
X189952380Y-65873428D01*
X189239142Y-66936857D02*
X189286761Y-66984476D01*
X189334380Y-67127333D01*
X189334380Y-67222571D01*
X189286761Y-67365428D01*
X189191523Y-67460666D01*
X189096285Y-67508285D01*
X188905809Y-67555904D01*
X188762952Y-67555904D01*
X188572476Y-67508285D01*
X188477238Y-67460666D01*
X188382000Y-67365428D01*
X188334380Y-67222571D01*
X188334380Y-67127333D01*
X188382000Y-66984476D01*
X188429619Y-66936857D01*
X189334380Y-65984476D02*
X189334380Y-66555904D01*
X189334380Y-66270190D02*
X188334380Y-66270190D01*
X188477238Y-66365428D01*
X188572476Y-66460666D01*
X188620095Y-66555904D01*
X188429619Y-65603523D02*
X188382000Y-65555904D01*
X188334380Y-65460666D01*
X188334380Y-65222571D01*
X188382000Y-65127333D01*
X188429619Y-65079714D01*
X188524857Y-65032095D01*
X188620095Y-65032095D01*
X188762952Y-65079714D01*
X189334380Y-65651142D01*
X189334380Y-65032095D01*
X154297142Y-66905142D02*
X154249523Y-66952761D01*
X154106666Y-67000380D01*
X154011428Y-67000380D01*
X153868571Y-66952761D01*
X153773333Y-66857523D01*
X153725714Y-66762285D01*
X153678095Y-66571809D01*
X153678095Y-66428952D01*
X153725714Y-66238476D01*
X153773333Y-66143238D01*
X153868571Y-66048000D01*
X154011428Y-66000380D01*
X154106666Y-66000380D01*
X154249523Y-66048000D01*
X154297142Y-66095619D01*
X155249523Y-67000380D02*
X154678095Y-67000380D01*
X154963809Y-67000380D02*
X154963809Y-66000380D01*
X154868571Y-66143238D01*
X154773333Y-66238476D01*
X154678095Y-66286095D01*
X155582857Y-66000380D02*
X156249523Y-66000380D01*
X155820952Y-67000380D01*
X190587333Y-73604380D02*
X190254000Y-73128190D01*
X190015904Y-73604380D02*
X190015904Y-72604380D01*
X190396857Y-72604380D01*
X190492095Y-72652000D01*
X190539714Y-72699619D01*
X190587333Y-72794857D01*
X190587333Y-72937714D01*
X190539714Y-73032952D01*
X190492095Y-73080571D01*
X190396857Y-73128190D01*
X190015904Y-73128190D01*
X190968285Y-72699619D02*
X191015904Y-72652000D01*
X191111142Y-72604380D01*
X191349238Y-72604380D01*
X191444476Y-72652000D01*
X191492095Y-72699619D01*
X191539714Y-72794857D01*
X191539714Y-72890095D01*
X191492095Y-73032952D01*
X190920666Y-73604380D01*
X191539714Y-73604380D01*
X181300380Y-62650666D02*
X180824190Y-62984000D01*
X181300380Y-63222095D02*
X180300380Y-63222095D01*
X180300380Y-62841142D01*
X180348000Y-62745904D01*
X180395619Y-62698285D01*
X180490857Y-62650666D01*
X180633714Y-62650666D01*
X180728952Y-62698285D01*
X180776571Y-62745904D01*
X180824190Y-62841142D01*
X180824190Y-63222095D01*
X180300380Y-62317333D02*
X180300380Y-61698285D01*
X180681333Y-62031619D01*
X180681333Y-61888761D01*
X180728952Y-61793523D01*
X180776571Y-61745904D01*
X180871809Y-61698285D01*
X181109904Y-61698285D01*
X181205142Y-61745904D01*
X181252761Y-61793523D01*
X181300380Y-61888761D01*
X181300380Y-62174476D01*
X181252761Y-62269714D01*
X181205142Y-62317333D01*
X169262380Y-60364666D02*
X169262380Y-60840857D01*
X168262380Y-60840857D01*
X169262380Y-59507523D02*
X169262380Y-60078952D01*
X169262380Y-59793238D02*
X168262380Y-59793238D01*
X168405238Y-59888476D01*
X168500476Y-59983714D01*
X168548095Y-60078952D01*
X192575380Y-57737333D02*
X193289666Y-57737333D01*
X193432523Y-57784952D01*
X193527761Y-57880190D01*
X193575380Y-58023047D01*
X193575380Y-58118285D01*
X193575380Y-56737333D02*
X193575380Y-57308761D01*
X193575380Y-57023047D02*
X192575380Y-57023047D01*
X192718238Y-57118285D01*
X192813476Y-57213523D01*
X192861095Y-57308761D01*
X204430380Y-57737333D02*
X205144666Y-57737333D01*
X205287523Y-57784952D01*
X205382761Y-57880190D01*
X205430380Y-58023047D01*
X205430380Y-58118285D01*
X204525619Y-57308761D02*
X204478000Y-57261142D01*
X204430380Y-57165904D01*
X204430380Y-56927809D01*
X204478000Y-56832571D01*
X204525619Y-56784952D01*
X204620857Y-56737333D01*
X204716095Y-56737333D01*
X204858952Y-56784952D01*
X205430380Y-57356380D01*
X205430380Y-56737333D01*
X153844666Y-51268380D02*
X153844666Y-51982666D01*
X153797047Y-52125523D01*
X153701809Y-52220761D01*
X153558952Y-52268380D01*
X153463714Y-52268380D01*
X154225619Y-51268380D02*
X154844666Y-51268380D01*
X154511333Y-51649333D01*
X154654190Y-51649333D01*
X154749428Y-51696952D01*
X154797047Y-51744571D01*
X154844666Y-51839809D01*
X154844666Y-52077904D01*
X154797047Y-52173142D01*
X154749428Y-52220761D01*
X154654190Y-52268380D01*
X154368476Y-52268380D01*
X154273238Y-52220761D01*
X154225619Y-52173142D01*
X180538666Y-56308380D02*
X180538666Y-57022666D01*
X180491047Y-57165523D01*
X180395809Y-57260761D01*
X180252952Y-57308380D01*
X180157714Y-57308380D01*
X181491047Y-56308380D02*
X181014857Y-56308380D01*
X180967238Y-56784571D01*
X181014857Y-56736952D01*
X181110095Y-56689333D01*
X181348190Y-56689333D01*
X181443428Y-56736952D01*
X181491047Y-56784571D01*
X181538666Y-56879809D01*
X181538666Y-57117904D01*
X181491047Y-57213142D01*
X181443428Y-57260761D01*
X181348190Y-57308380D01*
X181110095Y-57308380D01*
X181014857Y-57260761D01*
X180967238Y-57213142D01*
X169592666Y-56348380D02*
X169592666Y-57062666D01*
X169545047Y-57205523D01*
X169449809Y-57300761D01*
X169306952Y-57348380D01*
X169211714Y-57348380D01*
X170497428Y-56348380D02*
X170306952Y-56348380D01*
X170211714Y-56396000D01*
X170164095Y-56443619D01*
X170068857Y-56586476D01*
X170021238Y-56776952D01*
X170021238Y-57157904D01*
X170068857Y-57253142D01*
X170116476Y-57300761D01*
X170211714Y-57348380D01*
X170402190Y-57348380D01*
X170497428Y-57300761D01*
X170545047Y-57253142D01*
X170592666Y-57157904D01*
X170592666Y-56919809D01*
X170545047Y-56824571D01*
X170497428Y-56776952D01*
X170402190Y-56729333D01*
X170211714Y-56729333D01*
X170116476Y-56776952D01*
X170068857Y-56824571D01*
X170021238Y-56919809D01*
X141144666Y-51776380D02*
X141144666Y-52490666D01*
X141097047Y-52633523D01*
X141001809Y-52728761D01*
X140858952Y-52776380D01*
X140763714Y-52776380D01*
X141525619Y-51776380D02*
X142192285Y-51776380D01*
X141763714Y-52776380D01*
X144740380Y-66881333D02*
X145454666Y-66881333D01*
X145597523Y-66928952D01*
X145692761Y-67024190D01*
X145740380Y-67167047D01*
X145740380Y-67262285D01*
X145168952Y-66262285D02*
X145121333Y-66357523D01*
X145073714Y-66405142D01*
X144978476Y-66452761D01*
X144930857Y-66452761D01*
X144835619Y-66405142D01*
X144788000Y-66357523D01*
X144740380Y-66262285D01*
X144740380Y-66071809D01*
X144788000Y-65976571D01*
X144835619Y-65928952D01*
X144930857Y-65881333D01*
X144978476Y-65881333D01*
X145073714Y-65928952D01*
X145121333Y-65976571D01*
X145168952Y-66071809D01*
X145168952Y-66262285D01*
X145216571Y-66357523D01*
X145264190Y-66405142D01*
X145359428Y-66452761D01*
X145549904Y-66452761D01*
X145645142Y-66405142D01*
X145692761Y-66357523D01*
X145740380Y-66262285D01*
X145740380Y-66071809D01*
X145692761Y-65976571D01*
X145645142Y-65928952D01*
X145549904Y-65881333D01*
X145359428Y-65881333D01*
X145264190Y-65928952D01*
X145216571Y-65976571D01*
X145168952Y-66071809D01*
X158678666Y-63174571D02*
X158345333Y-63174571D01*
X158345333Y-63698380D02*
X158345333Y-62698380D01*
X158821523Y-62698380D01*
X159535809Y-63174571D02*
X159678666Y-63222190D01*
X159726285Y-63269809D01*
X159773904Y-63365047D01*
X159773904Y-63507904D01*
X159726285Y-63603142D01*
X159678666Y-63650761D01*
X159583428Y-63698380D01*
X159202476Y-63698380D01*
X159202476Y-62698380D01*
X159535809Y-62698380D01*
X159631047Y-62746000D01*
X159678666Y-62793619D01*
X159726285Y-62888857D01*
X159726285Y-62984095D01*
X159678666Y-63079333D01*
X159631047Y-63126952D01*
X159535809Y-63174571D01*
X159202476Y-63174571D01*
X160726285Y-63698380D02*
X160154857Y-63698380D01*
X160440571Y-63698380D02*
X160440571Y-62698380D01*
X160345333Y-62841238D01*
X160250095Y-62936476D01*
X160154857Y-62984095D01*
X153709619Y-58769238D02*
X153662000Y-58864476D01*
X153566761Y-58959714D01*
X153423904Y-59102571D01*
X153376285Y-59197809D01*
X153376285Y-59293047D01*
X153614380Y-59245428D02*
X153566761Y-59340666D01*
X153471523Y-59435904D01*
X153281047Y-59483523D01*
X152947714Y-59483523D01*
X152757238Y-59435904D01*
X152662000Y-59340666D01*
X152614380Y-59245428D01*
X152614380Y-59054952D01*
X152662000Y-58959714D01*
X152757238Y-58864476D01*
X152947714Y-58816857D01*
X153281047Y-58816857D01*
X153471523Y-58864476D01*
X153566761Y-58959714D01*
X153614380Y-59054952D01*
X153614380Y-59245428D01*
X153614380Y-57864476D02*
X153614380Y-58435904D01*
X153614380Y-58150190D02*
X152614380Y-58150190D01*
X152757238Y-58245428D01*
X152852476Y-58340666D01*
X152900095Y-58435904D01*
M02*
