G04 #@! TF.GenerationSoftware,KiCad,Pcbnew,(5.1.9)-1*
G04 #@! TF.CreationDate,2021-02-09T21:00:10+02:00*
G04 #@! TF.ProjectId,jantteri-main,6a616e74-7465-4726-992d-6d61696e2e6b,rev?*
G04 #@! TF.SameCoordinates,Original*
G04 #@! TF.FileFunction,Legend,Bot*
G04 #@! TF.FilePolarity,Positive*
%FSLAX46Y46*%
G04 Gerber Fmt 4.6, Leading zero omitted, Abs format (unit mm)*
G04 Created by KiCad (PCBNEW (5.1.9)-1) date 2021-02-09 21:00:10*
%MOMM*%
%LPD*%
G01*
G04 APERTURE LIST*
%ADD10C,0.120000*%
%ADD11C,0.150000*%
G04 APERTURE END LIST*
D10*
X192449000Y-83431000D02*
X191669000Y-83431000D01*
X191669000Y-83431000D02*
X191669000Y-82431000D01*
X192449000Y-65191000D02*
X191669000Y-65191000D01*
X191669000Y-65191000D02*
X191669000Y-66191000D01*
X217414000Y-83431000D02*
X217414000Y-65191000D01*
X217414000Y-65191000D02*
X210994000Y-65191000D01*
X217414000Y-83431000D02*
X210994000Y-83431000D01*
X210994000Y-83431000D02*
X210994000Y-83811000D01*
X163040000Y-68100000D02*
X146840000Y-68100000D01*
X146840000Y-68100000D02*
X146840000Y-68500000D01*
X163040000Y-83900000D02*
X163040000Y-84300000D01*
X163040000Y-84300000D02*
X146840000Y-84300000D01*
X146840000Y-84300000D02*
X146840000Y-83900000D01*
X163040000Y-68100000D02*
X163040000Y-68450000D01*
X163040000Y-68450000D02*
X163940000Y-68450000D01*
D11*
X190499904Y-83526380D02*
X190499904Y-84335904D01*
X190452285Y-84431142D01*
X190404666Y-84478761D01*
X190309428Y-84526380D01*
X190118952Y-84526380D01*
X190023714Y-84478761D01*
X189976095Y-84431142D01*
X189928476Y-84335904D01*
X189928476Y-83526380D01*
X189547523Y-83526380D02*
X188928476Y-83526380D01*
X189261809Y-83907333D01*
X189118952Y-83907333D01*
X189023714Y-83954952D01*
X188976095Y-84002571D01*
X188928476Y-84097809D01*
X188928476Y-84335904D01*
X188976095Y-84431142D01*
X189023714Y-84478761D01*
X189118952Y-84526380D01*
X189404666Y-84526380D01*
X189499904Y-84478761D01*
X189547523Y-84431142D01*
X155701904Y-66452380D02*
X155701904Y-67261904D01*
X155654285Y-67357142D01*
X155606666Y-67404761D01*
X155511428Y-67452380D01*
X155320952Y-67452380D01*
X155225714Y-67404761D01*
X155178095Y-67357142D01*
X155130476Y-67261904D01*
X155130476Y-66452380D01*
X154225714Y-66785714D02*
X154225714Y-67452380D01*
X154463809Y-66404761D02*
X154701904Y-67119047D01*
X154082857Y-67119047D01*
M02*
