M48
; DRILL file {KiCad (5.1.9)-1} date 02/09/21 21:00:05
; FORMAT={-:-/ absolute / inch / decimal}
; #@! TF.CreationDate,2021-02-09T21:00:05+02:00
; #@! TF.GenerationSoftware,Kicad,Pcbnew,(5.1.9)-1
; #@! TF.FileFunction,Plated,1,2,PTH
FMAT,2
INCH
T1C0.0157
T2C0.0287
T3C0.0394
%
G90
G05
T1
X5.55Y-3.2
X5.57Y-2.07
X5.58Y-2.37
X5.65Y-3.13
X5.68Y-2.07
X5.69Y-2.79
X5.71Y-2.36
X5.71Y-2.49
X5.83Y-2.07
X5.86Y-2.31
X5.88Y-2.07
X5.88Y-2.88
X5.94Y-3.07
X5.95Y-3.28
X5.96Y-2.47
X5.99Y-2.07
X6.01Y-2.14
X6.07Y-2.04
X6.08Y-2.2
X6.08Y-2.8
X6.16Y-3.11
X6.18Y-3.21
X6.26Y-2.6117
X6.27Y-2.93
X6.33Y-3.19
X6.36Y-2.48
X6.48Y-2.08
X6.5Y-2.88
X6.54Y-2.73
X6.56Y-2.87
X6.59Y-3.25
X6.62Y-2.8646
X6.64Y-3.2785
X6.65Y-2.52
X6.65Y-2.5594
X6.65Y-2.5987
X6.66Y-2.39
X6.68Y-3.19
X6.81Y-2.41
X6.8385Y-2.4428
X6.84Y-3.16
X6.9209Y-2.47
X6.97Y-2.26
X6.98Y-2.14
X7.0077Y-3.0377
X7.02Y-2.46
X7.02Y-2.5
X7.02Y-2.55
X7.02Y-2.76
X7.02Y-2.84
X7.04Y-3.0
X7.11Y-3.03
X7.14Y-2.36
X7.15Y-2.75
X7.15Y-3.07
X7.16Y-2.84
X7.22Y-2.99
X7.2298Y-3.0402
X7.29Y-3.07
X7.32Y-3.2715
X7.44Y-2.95
X7.47Y-3.23
X7.58Y-2.05
X7.62Y-2.2
X7.71Y-2.69
X7.72Y-2.09
X7.73Y-2.76
X7.77Y-2.09
X7.77Y-2.43
X7.87Y-2.06
X7.99Y-2.95
X8.11Y-3.15
X8.26Y-3.15
X8.26Y-3.32
X8.38Y-2.8
X8.45Y-3.12
T2
X5.58Y-2.1709
X5.58Y-2.23
X5.58Y-2.5085
X5.58Y-2.5676
X5.58Y-2.6266
X5.58Y-2.6857
X5.58Y-2.7447
X5.58Y-2.8038
X5.58Y-2.8628
X5.58Y-2.9219
X5.58Y-2.9809
X5.58Y-3.04
X6.075Y-2.125
X6.1341Y-2.125
X6.7619Y-2.14
X6.8209Y-2.14
X6.88Y-2.14
X7.0619Y-2.14
X7.1209Y-2.14
X7.18Y-2.14
X8.21Y-2.31
X8.21Y-2.3691
X8.21Y-2.4281
T3
X5.64Y-3.25
X8.1Y-2.12
X8.2Y-2.12
T0
M30
