G04 #@! TF.GenerationSoftware,KiCad,Pcbnew,(5.1.9)-1*
G04 #@! TF.CreationDate,2021-02-09T21:00:10+02:00*
G04 #@! TF.ProjectId,jantteri-main,6a616e74-7465-4726-992d-6d61696e2e6b,rev?*
G04 #@! TF.SameCoordinates,Original*
G04 #@! TF.FileFunction,Copper,L2,Bot*
G04 #@! TF.FilePolarity,Positive*
%FSLAX46Y46*%
G04 Gerber Fmt 4.6, Leading zero omitted, Abs format (unit mm)*
G04 Created by KiCad (PCBNEW (5.1.9)-1) date 2021-02-09 21:00:10*
%MOMM*%
%LPD*%
G01*
G04 APERTURE LIST*
G04 #@! TA.AperFunction,SMDPad,CuDef*
%ADD10R,5.000000X5.000000*%
G04 #@! TD*
G04 #@! TA.AperFunction,SMDPad,CuDef*
%ADD11R,0.900000X2.000000*%
G04 #@! TD*
G04 #@! TA.AperFunction,SMDPad,CuDef*
%ADD12R,2.000000X0.900000*%
G04 #@! TD*
G04 #@! TA.AperFunction,ComponentPad*
%ADD13R,1.700000X1.700000*%
G04 #@! TD*
G04 #@! TA.AperFunction,ComponentPad*
%ADD14O,1.700000X1.700000*%
G04 #@! TD*
G04 #@! TA.AperFunction,SMDPad,CuDef*
%ADD15R,2.000000X1.000000*%
G04 #@! TD*
G04 #@! TA.AperFunction,ComponentPad*
%ADD16O,1.730000X1.030000*%
G04 #@! TD*
G04 #@! TA.AperFunction,ComponentPad*
%ADD17O,1.030000X1.730000*%
G04 #@! TD*
G04 #@! TA.AperFunction,ViaPad*
%ADD18C,0.800000*%
G04 #@! TD*
G04 #@! TA.AperFunction,Conductor*
%ADD19C,0.250000*%
G04 #@! TD*
G04 #@! TA.AperFunction,Conductor*
%ADD20C,1.000000*%
G04 #@! TD*
G04 #@! TA.AperFunction,Conductor*
%ADD21C,0.750000*%
G04 #@! TD*
G04 #@! TA.AperFunction,Conductor*
%ADD22C,0.500000*%
G04 #@! TD*
G04 #@! TA.AperFunction,Conductor*
%ADD23C,0.254000*%
G04 #@! TD*
G04 #@! TA.AperFunction,Conductor*
%ADD24C,0.100000*%
G04 #@! TD*
G04 APERTURE END LIST*
D10*
X202304000Y-75311000D03*
D11*
X209804000Y-82811000D03*
X208534000Y-82811000D03*
X207264000Y-82811000D03*
X205994000Y-82811000D03*
X204724000Y-82811000D03*
X203454000Y-82811000D03*
X202184000Y-82811000D03*
X200914000Y-82811000D03*
X199644000Y-82811000D03*
X198374000Y-82811000D03*
X197104000Y-82811000D03*
X195834000Y-82811000D03*
X194564000Y-82811000D03*
X193294000Y-82811000D03*
D12*
X192294000Y-80026000D03*
X192294000Y-78756000D03*
X192294000Y-77486000D03*
X192294000Y-76216000D03*
X192294000Y-74946000D03*
X192294000Y-73676000D03*
X192294000Y-72406000D03*
X192294000Y-71136000D03*
X192294000Y-69866000D03*
X192294000Y-68596000D03*
D11*
X193294000Y-65811000D03*
X194564000Y-65811000D03*
X195834000Y-65811000D03*
X197104000Y-65811000D03*
X198374000Y-65811000D03*
X199644000Y-65811000D03*
X200914000Y-65811000D03*
X202184000Y-65811000D03*
X203454000Y-65811000D03*
X204724000Y-65811000D03*
X205994000Y-65811000D03*
X207264000Y-65811000D03*
X208534000Y-65811000D03*
X209804000Y-65811000D03*
D13*
X208280000Y-53848000D03*
D14*
X205740000Y-53848000D03*
D13*
X143256000Y-82550000D03*
D15*
X162940000Y-69200000D03*
X162940000Y-71200000D03*
X162940000Y-73200000D03*
X162940000Y-75200000D03*
X162940000Y-77200000D03*
X162940000Y-79200000D03*
X162940000Y-81200000D03*
X162940000Y-83200000D03*
X146940000Y-83200000D03*
X146940000Y-81200000D03*
X146940000Y-79200000D03*
X146940000Y-77200000D03*
X146940000Y-75200000D03*
X146940000Y-73200000D03*
X146940000Y-71200000D03*
X146940000Y-69200000D03*
D16*
X208534000Y-61674000D03*
X208534000Y-60174000D03*
G04 #@! TA.AperFunction,ComponentPad*
G36*
G01*
X207918999Y-58159000D02*
X209149001Y-58159000D01*
G75*
G02*
X209399000Y-58408999I0J-249999D01*
G01*
X209399000Y-58939001D01*
G75*
G02*
X209149001Y-59189000I-249999J0D01*
G01*
X207918999Y-59189000D01*
G75*
G02*
X207669000Y-58939001I0J249999D01*
G01*
X207669000Y-58408999D01*
G75*
G02*
X207918999Y-58159000I249999J0D01*
G01*
G37*
G04 #@! TD.AperFunction*
D17*
X155805000Y-53975000D03*
G04 #@! TA.AperFunction,ComponentPad*
G36*
G01*
X153790000Y-54590001D02*
X153790000Y-53359999D01*
G75*
G02*
X154039999Y-53110000I249999J0D01*
G01*
X154570001Y-53110000D01*
G75*
G02*
X154820000Y-53359999I0J-249999D01*
G01*
X154820000Y-54590001D01*
G75*
G02*
X154570001Y-54840000I-249999J0D01*
G01*
X154039999Y-54840000D01*
G75*
G02*
X153790000Y-54590001I0J249999D01*
G01*
G37*
G04 #@! TD.AperFunction*
G04 #@! TA.AperFunction,ComponentPad*
G36*
G01*
X182887000Y-53740999D02*
X182887000Y-54971001D01*
G75*
G02*
X182637001Y-55221000I-249999J0D01*
G01*
X182106999Y-55221000D01*
G75*
G02*
X181857000Y-54971001I0J249999D01*
G01*
X181857000Y-53740999D01*
G75*
G02*
X182106999Y-53491000I249999J0D01*
G01*
X182637001Y-53491000D01*
G75*
G02*
X182887000Y-53740999I0J-249999D01*
G01*
G37*
G04 #@! TD.AperFunction*
X180872000Y-54356000D03*
X179372000Y-54356000D03*
G04 #@! TA.AperFunction,ComponentPad*
G36*
G01*
X175267000Y-53740999D02*
X175267000Y-54971001D01*
G75*
G02*
X175017001Y-55221000I-249999J0D01*
G01*
X174486999Y-55221000D01*
G75*
G02*
X174237000Y-54971001I0J249999D01*
G01*
X174237000Y-53740999D01*
G75*
G02*
X174486999Y-53491000I249999J0D01*
G01*
X175017001Y-53491000D01*
G75*
G02*
X175267000Y-53740999I0J-249999D01*
G01*
G37*
G04 #@! TD.AperFunction*
X173252000Y-54356000D03*
X171752000Y-54356000D03*
G04 #@! TA.AperFunction,ComponentPad*
G36*
G01*
X142347001Y-57157000D02*
X141116999Y-57157000D01*
G75*
G02*
X140867000Y-56907001I0J249999D01*
G01*
X140867000Y-56376999D01*
G75*
G02*
X141116999Y-56127000I249999J0D01*
G01*
X142347001Y-56127000D01*
G75*
G02*
X142597000Y-56376999I0J-249999D01*
G01*
X142597000Y-56907001D01*
G75*
G02*
X142347001Y-57157000I-249999J0D01*
G01*
G37*
G04 #@! TD.AperFunction*
D16*
X141732000Y-55142000D03*
G04 #@! TA.AperFunction,ComponentPad*
G36*
G01*
X142347001Y-77731000D02*
X141116999Y-77731000D01*
G75*
G02*
X140867000Y-77481001I0J249999D01*
G01*
X140867000Y-76950999D01*
G75*
G02*
X141116999Y-76701000I249999J0D01*
G01*
X142347001Y-76701000D01*
G75*
G02*
X142597000Y-76950999I0J-249999D01*
G01*
X142597000Y-77481001D01*
G75*
G02*
X142347001Y-77731000I-249999J0D01*
G01*
G37*
G04 #@! TD.AperFunction*
X141732000Y-75716000D03*
X141732000Y-74216000D03*
X141732000Y-72716000D03*
X141732000Y-71216000D03*
X141732000Y-69716000D03*
X141732000Y-68216000D03*
X141732000Y-66716000D03*
X141732000Y-65216000D03*
X141732000Y-63716000D03*
D18*
X202946000Y-74930000D03*
X169163990Y-60706010D03*
X175792000Y-62738000D03*
X205994000Y-80010000D03*
X149352000Y-52578000D03*
X148844000Y-58674000D03*
X183637347Y-77220653D03*
X193548000Y-55880000D03*
X185166000Y-77978000D03*
X196088000Y-53086000D03*
X188976000Y-74930000D03*
X197358000Y-53086000D03*
X181610000Y-69850000D03*
X199898000Y-52324000D03*
X173699000Y-62046051D03*
X172974000Y-61214000D03*
X178308000Y-62484000D03*
X168910000Y-64008000D03*
X178308000Y-63500000D03*
X168910000Y-65008003D03*
X178308000Y-64770000D03*
X168910000Y-66008006D03*
X178816000Y-76200000D03*
X166116000Y-69342000D03*
X144526000Y-70866000D03*
X145034000Y-59944000D03*
X180594000Y-76962000D03*
X148082000Y-52578000D03*
X178308000Y-70104000D03*
X166624000Y-72898000D03*
X168148000Y-72762000D03*
X165100000Y-73152000D03*
X149352000Y-73152000D03*
X167386000Y-82550000D03*
X168656000Y-83275000D03*
X195834000Y-68326000D03*
X196342000Y-70104000D03*
X144272000Y-52578000D03*
X181610000Y-77978000D03*
X152146000Y-52578000D03*
X183388000Y-75946000D03*
X209804000Y-80010000D03*
X185928000Y-83095000D03*
X159004000Y-66337029D03*
X173736000Y-80264000D03*
X189738000Y-82042000D03*
X177038000Y-57404000D03*
X178308000Y-72136000D03*
X181864000Y-72136000D03*
X177996500Y-77158500D03*
X156464000Y-78994000D03*
X156972000Y-81534000D03*
X154432000Y-71120000D03*
X151384000Y-62738000D03*
X161544000Y-62992000D03*
X209804000Y-84328000D03*
X212852000Y-71120000D03*
X214630000Y-79248000D03*
X192532000Y-52070000D03*
X197358000Y-61722000D03*
X164592000Y-52832000D03*
X141732000Y-60198000D03*
X141478000Y-52578000D03*
X143510000Y-79502000D03*
X140970000Y-81280000D03*
X151130000Y-83312000D03*
X169672000Y-81026000D03*
X181356000Y-59944000D03*
X177292000Y-54356000D03*
X159258000Y-74422000D03*
X160782000Y-81026000D03*
X150876000Y-77978000D03*
X145034000Y-63246000D03*
X154178000Y-51816000D03*
X154432000Y-55880000D03*
X152654000Y-54356000D03*
D19*
X171229032Y-62771052D02*
X169163990Y-60706010D01*
X175758948Y-62771052D02*
X171229032Y-62771052D01*
X175792000Y-62738000D02*
X175758948Y-62771052D01*
X207264000Y-82811000D02*
X207264000Y-81788000D01*
X207264000Y-81788000D02*
X205994000Y-80518000D01*
X205994000Y-80518000D02*
X205994000Y-80010000D01*
X149352000Y-58166000D02*
X149352000Y-52578000D01*
X148844000Y-58674000D02*
X149352000Y-58166000D01*
X184113001Y-76744999D02*
X184113001Y-67346999D01*
X183637347Y-77220653D02*
X184113001Y-76744999D01*
X184113001Y-67346999D02*
X184113001Y-65314999D01*
X184113001Y-65314999D02*
X193548000Y-55880000D01*
X185166000Y-77978000D02*
X185166000Y-68072000D01*
X185166000Y-68072000D02*
X185166000Y-65278000D01*
X185223002Y-65278000D02*
X196088000Y-54413002D01*
X185166000Y-65278000D02*
X185223002Y-65278000D01*
X196088000Y-54413002D02*
X196088000Y-53086000D01*
X188976000Y-74930000D02*
X188976000Y-66802000D01*
X188976000Y-66802000D02*
X188976000Y-66040000D01*
X188976000Y-66040000D02*
X188976000Y-62738000D01*
X197358000Y-54356000D02*
X197358000Y-53086000D01*
X188976000Y-62738000D02*
X197358000Y-54356000D01*
X181610000Y-69850000D02*
X181610000Y-67056000D01*
X181610000Y-67056000D02*
X190500000Y-58166000D01*
X190500000Y-58166000D02*
X192024000Y-56642000D01*
X192024000Y-56642000D02*
X192786000Y-55880000D01*
X192786000Y-55880000D02*
X192786000Y-55568998D01*
X192786000Y-55568998D02*
X192786000Y-53340000D01*
X193802000Y-52324000D02*
X199898000Y-52324000D01*
X192786000Y-53340000D02*
X193802000Y-52324000D01*
X205994000Y-61599000D02*
X207419000Y-60174000D01*
X207419000Y-60174000D02*
X208534000Y-60174000D01*
X205994000Y-65811000D02*
X205994000Y-61599000D01*
X207669000Y-58674000D02*
X208534000Y-58674000D01*
X204724000Y-61619000D02*
X207669000Y-58674000D01*
X204724000Y-65811000D02*
X204724000Y-61619000D01*
X193294000Y-65811000D02*
X193294000Y-65045998D01*
X193294000Y-65045998D02*
X194585998Y-63754000D01*
X194585998Y-63754000D02*
X200406000Y-63754000D01*
X205740000Y-58420000D02*
X205740000Y-53848000D01*
X200406000Y-63754000D02*
X205740000Y-58420000D01*
X182372000Y-54607410D02*
X182372000Y-54356000D01*
X174933359Y-62046051D02*
X182372000Y-54607410D01*
X173699000Y-62046051D02*
X174933359Y-62046051D01*
X180872000Y-55471000D02*
X180872000Y-54356000D01*
X175129000Y-61214000D02*
X180872000Y-55471000D01*
X172974000Y-61214000D02*
X175129000Y-61214000D01*
X175595002Y-64008000D02*
X168910000Y-64008000D01*
X177119002Y-62484000D02*
X175595002Y-64008000D01*
X178308000Y-62484000D02*
X177119002Y-62484000D01*
X176799997Y-65008003D02*
X168910000Y-65008003D01*
X178308000Y-63500000D02*
X176799997Y-65008003D01*
X177069994Y-66008006D02*
X168910000Y-66008006D01*
X178308000Y-64770000D02*
X177069994Y-66008006D01*
X172974000Y-76200000D02*
X166116000Y-69342000D01*
X178816000Y-76200000D02*
X172974000Y-76200000D01*
X142847000Y-74216000D02*
X141732000Y-74216000D01*
X144526000Y-72537000D02*
X142847000Y-74216000D01*
X144526000Y-70866000D02*
X144526000Y-72537000D01*
D20*
X143906000Y-83200000D02*
X143256000Y-82550000D01*
X146940000Y-83200000D02*
X143906000Y-83200000D01*
D19*
X180340000Y-75438000D02*
X180594000Y-75692000D01*
X180594000Y-75692000D02*
X180594000Y-76962000D01*
X180340000Y-75438000D02*
X174601551Y-75438000D01*
X149554798Y-65612027D02*
X146731972Y-62789200D01*
X164775580Y-65612029D02*
X149554798Y-65612027D01*
X174601551Y-75438000D02*
X164775580Y-65612029D01*
X146731972Y-61641972D02*
X145034000Y-59944000D01*
X146731972Y-62789200D02*
X146731972Y-61641972D01*
X148082000Y-58985002D02*
X148082000Y-62230000D01*
X165354000Y-64262000D02*
X171196000Y-70104000D01*
X171196000Y-70104000D02*
X178308000Y-70104000D01*
X148082000Y-58985002D02*
X148082000Y-52578000D01*
X150114000Y-64262000D02*
X148082000Y-62230000D01*
X165354000Y-64262000D02*
X150114000Y-64262000D01*
X164322000Y-75200000D02*
X162940000Y-75200000D01*
X166624000Y-72898000D02*
X164322000Y-75200000D01*
X166586000Y-71200000D02*
X162940000Y-71200000D01*
X168148000Y-72762000D02*
X166586000Y-71200000D01*
X162988000Y-73152000D02*
X162940000Y-73200000D01*
X165100000Y-73152000D02*
X162988000Y-73152000D01*
X146988000Y-73152000D02*
X146940000Y-73200000D01*
X149352000Y-73152000D02*
X146988000Y-73152000D01*
X164036000Y-79200000D02*
X162940000Y-79200000D01*
X167386000Y-82550000D02*
X164036000Y-79200000D01*
X163146685Y-77200000D02*
X162940000Y-77200000D01*
X168656000Y-82709315D02*
X163146685Y-77200000D01*
X168656000Y-83275000D02*
X168656000Y-82709315D01*
X195834000Y-68326000D02*
X195834000Y-65811000D01*
X197104000Y-69342000D02*
X196342000Y-70104000D01*
X197104000Y-65811000D02*
X197104000Y-69342000D01*
X181102000Y-74676000D02*
X181610000Y-75184000D01*
X181610000Y-75184000D02*
X181610000Y-77978000D01*
X144272000Y-52578000D02*
X145796000Y-54102000D01*
X181102000Y-74676000D02*
X174485570Y-74676000D01*
X149741199Y-65162019D02*
X147181982Y-62602800D01*
X164971590Y-65162020D02*
X149741199Y-65162019D01*
X174485570Y-74676000D02*
X164971590Y-65162020D01*
X147181982Y-62602800D02*
X147181982Y-57265982D01*
X147181982Y-57265982D02*
X146304000Y-56388000D01*
X146304000Y-54610000D02*
X145796000Y-54102000D01*
X146304000Y-56388000D02*
X146304000Y-54610000D01*
X181102000Y-73660000D02*
X183388000Y-75946000D01*
X147733999Y-51852999D02*
X147066000Y-52520998D01*
X151420999Y-51852999D02*
X147733999Y-51852999D01*
X152146000Y-52578000D02*
X151420999Y-51852999D01*
X147066000Y-56134000D02*
X147631990Y-56699990D01*
X147066000Y-52520998D02*
X147066000Y-56134000D01*
X147631991Y-62416401D02*
X149927600Y-64712010D01*
X147631990Y-56699990D02*
X147631991Y-62416401D01*
X174115590Y-73660000D02*
X181102000Y-73660000D01*
X165167600Y-64712010D02*
X174115590Y-73660000D01*
X149927600Y-64712010D02*
X165167600Y-64712010D01*
D21*
X208534000Y-84026002D02*
X208174001Y-84386001D01*
X208534000Y-82811000D02*
X208534000Y-84026002D01*
D19*
X186944000Y-84328000D02*
X186885999Y-84386001D01*
X208534000Y-82811000D02*
X208534000Y-81280000D01*
X208534000Y-81280000D02*
X209804000Y-80010000D01*
X185928000Y-84328000D02*
X185869999Y-84386001D01*
X185928000Y-83095000D02*
X185928000Y-84328000D01*
D21*
X185869999Y-84386001D02*
X174810001Y-84386001D01*
X186885999Y-84386001D02*
X185869999Y-84386001D01*
D22*
X174752000Y-84328000D02*
X174810001Y-84386001D01*
D21*
X141732000Y-75716000D02*
X143486000Y-75716000D01*
X144002000Y-75200000D02*
X146940000Y-75200000D01*
X143486000Y-75716000D02*
X144002000Y-75200000D01*
X156718000Y-67390998D02*
X157771969Y-66337029D01*
X157771969Y-66337029D02*
X159004000Y-66337029D01*
X156194000Y-75200000D02*
X156718000Y-74676000D01*
X146940000Y-75200000D02*
X156194000Y-75200000D01*
X173736000Y-84328000D02*
X173794001Y-84386001D01*
X173736000Y-80264000D02*
X173736000Y-84328000D01*
X174810001Y-84386001D02*
X173794001Y-84386001D01*
X189738000Y-84328000D02*
X189679999Y-84386001D01*
X189738000Y-82042000D02*
X189738000Y-84328000D01*
X189679999Y-84386001D02*
X186885999Y-84386001D01*
X208174001Y-84386001D02*
X189679999Y-84386001D01*
X156718000Y-73914000D02*
X159453999Y-76649999D01*
X159453999Y-76649999D02*
X159453999Y-84386001D01*
X173794001Y-84386001D02*
X159453999Y-84386001D01*
X156718000Y-74676000D02*
X156718000Y-73914000D01*
X156718000Y-73914000D02*
X156718000Y-67390998D01*
X173185000Y-57404000D02*
X177038000Y-57404000D01*
X171752000Y-55971000D02*
X173185000Y-57404000D01*
X171752000Y-54356000D02*
X171752000Y-55971000D01*
D23*
X210414001Y-63988049D02*
X210412036Y-64008000D01*
X210419875Y-64087590D01*
X210443090Y-64164121D01*
X210480790Y-64234653D01*
X210531526Y-64296474D01*
X210593347Y-64347210D01*
X210663879Y-64384910D01*
X210740410Y-64408125D01*
X210800059Y-64414000D01*
X210800060Y-64414000D01*
X210820000Y-64415964D01*
X210839941Y-64414000D01*
X217780000Y-64414000D01*
X217780001Y-84684000D01*
X208945146Y-84684000D01*
X209042306Y-84586840D01*
X209071159Y-84563161D01*
X209165632Y-84448045D01*
X209235832Y-84316710D01*
X209279060Y-84174204D01*
X209287820Y-84085262D01*
X209292733Y-84035380D01*
X209302322Y-84023696D01*
X209337701Y-83957508D01*
X209359487Y-83885689D01*
X209366843Y-83811000D01*
X209366843Y-81811000D01*
X209359487Y-81736311D01*
X209337701Y-81664492D01*
X209302322Y-81598304D01*
X209254711Y-81540289D01*
X209196696Y-81492678D01*
X209130508Y-81457299D01*
X209085842Y-81443750D01*
X209738592Y-80791000D01*
X209880922Y-80791000D01*
X210031809Y-80760987D01*
X210173942Y-80702113D01*
X210301859Y-80616642D01*
X210410642Y-80507859D01*
X210496113Y-80379942D01*
X210554987Y-80237809D01*
X210585000Y-80086922D01*
X210585000Y-79933078D01*
X210554987Y-79782191D01*
X210496113Y-79640058D01*
X210410642Y-79512141D01*
X210301859Y-79403358D01*
X210173942Y-79317887D01*
X210031809Y-79259013D01*
X209880922Y-79229000D01*
X209727078Y-79229000D01*
X209576191Y-79259013D01*
X209434058Y-79317887D01*
X209306141Y-79403358D01*
X209197358Y-79512141D01*
X209111887Y-79640058D01*
X209053013Y-79782191D01*
X209023000Y-79933078D01*
X209023000Y-80075408D01*
X208193780Y-80904629D01*
X208174474Y-80920473D01*
X208111242Y-80997521D01*
X208095780Y-81026448D01*
X208064255Y-81085426D01*
X208035322Y-81180808D01*
X208025553Y-81280000D01*
X208028001Y-81304856D01*
X208028001Y-81433672D01*
X208009311Y-81435513D01*
X207937492Y-81457299D01*
X207899000Y-81477874D01*
X207860508Y-81457299D01*
X207788689Y-81435513D01*
X207714000Y-81428157D01*
X207623142Y-81428157D01*
X207604220Y-81412628D01*
X206640219Y-80448628D01*
X206686113Y-80379942D01*
X206744987Y-80237809D01*
X206775000Y-80086922D01*
X206775000Y-79933078D01*
X206744987Y-79782191D01*
X206686113Y-79640058D01*
X206600642Y-79512141D01*
X206491859Y-79403358D01*
X206363942Y-79317887D01*
X206221809Y-79259013D01*
X206070922Y-79229000D01*
X205917078Y-79229000D01*
X205766191Y-79259013D01*
X205624058Y-79317887D01*
X205496141Y-79403358D01*
X205387358Y-79512141D01*
X205301887Y-79640058D01*
X205243013Y-79782191D01*
X205213000Y-79933078D01*
X205213000Y-80086922D01*
X205243013Y-80237809D01*
X205301887Y-80379942D01*
X205387358Y-80507859D01*
X205495172Y-80615673D01*
X205495322Y-80617192D01*
X205524255Y-80712574D01*
X205571241Y-80800479D01*
X205634473Y-80877527D01*
X205653785Y-80893376D01*
X206188566Y-81428157D01*
X205544000Y-81428157D01*
X205469311Y-81435513D01*
X205397492Y-81457299D01*
X205359000Y-81477874D01*
X205320508Y-81457299D01*
X205248689Y-81435513D01*
X205174000Y-81428157D01*
X204274000Y-81428157D01*
X204199311Y-81435513D01*
X204127492Y-81457299D01*
X204089000Y-81477874D01*
X204050508Y-81457299D01*
X203978689Y-81435513D01*
X203904000Y-81428157D01*
X203004000Y-81428157D01*
X202929311Y-81435513D01*
X202857492Y-81457299D01*
X202819000Y-81477874D01*
X202780508Y-81457299D01*
X202708689Y-81435513D01*
X202634000Y-81428157D01*
X201734000Y-81428157D01*
X201659311Y-81435513D01*
X201587492Y-81457299D01*
X201549000Y-81477874D01*
X201510508Y-81457299D01*
X201438689Y-81435513D01*
X201364000Y-81428157D01*
X200464000Y-81428157D01*
X200389311Y-81435513D01*
X200317492Y-81457299D01*
X200279000Y-81477874D01*
X200240508Y-81457299D01*
X200168689Y-81435513D01*
X200094000Y-81428157D01*
X199194000Y-81428157D01*
X199119311Y-81435513D01*
X199047492Y-81457299D01*
X199009000Y-81477874D01*
X198970508Y-81457299D01*
X198898689Y-81435513D01*
X198824000Y-81428157D01*
X197924000Y-81428157D01*
X197849311Y-81435513D01*
X197777492Y-81457299D01*
X197739000Y-81477874D01*
X197700508Y-81457299D01*
X197628689Y-81435513D01*
X197554000Y-81428157D01*
X196654000Y-81428157D01*
X196579311Y-81435513D01*
X196507492Y-81457299D01*
X196469000Y-81477874D01*
X196430508Y-81457299D01*
X196358689Y-81435513D01*
X196284000Y-81428157D01*
X195384000Y-81428157D01*
X195309311Y-81435513D01*
X195237492Y-81457299D01*
X195199000Y-81477874D01*
X195160508Y-81457299D01*
X195088689Y-81435513D01*
X195014000Y-81428157D01*
X194114000Y-81428157D01*
X194039311Y-81435513D01*
X193967492Y-81457299D01*
X193929000Y-81477874D01*
X193890508Y-81457299D01*
X193818689Y-81435513D01*
X193744000Y-81428157D01*
X192844000Y-81428157D01*
X192769311Y-81435513D01*
X192697492Y-81457299D01*
X192631304Y-81492678D01*
X192573289Y-81540289D01*
X192525678Y-81598304D01*
X192490299Y-81664492D01*
X192468513Y-81736311D01*
X192461157Y-81811000D01*
X192461157Y-83630001D01*
X190494000Y-83630001D01*
X190494000Y-82244607D01*
X190519000Y-82118922D01*
X190519000Y-81965078D01*
X190488987Y-81814191D01*
X190430113Y-81672058D01*
X190344642Y-81544141D01*
X190235859Y-81435358D01*
X190107942Y-81349887D01*
X189965809Y-81291013D01*
X189814922Y-81261000D01*
X189661078Y-81261000D01*
X189510191Y-81291013D01*
X189368058Y-81349887D01*
X189240141Y-81435358D01*
X189131358Y-81544141D01*
X189045887Y-81672058D01*
X188987013Y-81814191D01*
X188957000Y-81965078D01*
X188957000Y-82118922D01*
X188982000Y-82244607D01*
X188982001Y-83630001D01*
X186497500Y-83630001D01*
X186534642Y-83592859D01*
X186620113Y-83464942D01*
X186678987Y-83322809D01*
X186709000Y-83171922D01*
X186709000Y-83018078D01*
X186678987Y-82867191D01*
X186620113Y-82725058D01*
X186534642Y-82597141D01*
X186425859Y-82488358D01*
X186297942Y-82402887D01*
X186155809Y-82344013D01*
X186004922Y-82314000D01*
X185851078Y-82314000D01*
X185700191Y-82344013D01*
X185558058Y-82402887D01*
X185430141Y-82488358D01*
X185321358Y-82597141D01*
X185235887Y-82725058D01*
X185177013Y-82867191D01*
X185147000Y-83018078D01*
X185147000Y-83171922D01*
X185177013Y-83322809D01*
X185235887Y-83464942D01*
X185321358Y-83592859D01*
X185358500Y-83630001D01*
X174492000Y-83630001D01*
X174492000Y-80466607D01*
X174517000Y-80340922D01*
X174517000Y-80187078D01*
X174486987Y-80036191D01*
X174428113Y-79894058D01*
X174342642Y-79766141D01*
X174233859Y-79657358D01*
X174105942Y-79571887D01*
X173963809Y-79513013D01*
X173812922Y-79483000D01*
X173659078Y-79483000D01*
X173508191Y-79513013D01*
X173366058Y-79571887D01*
X173238141Y-79657358D01*
X173129358Y-79766141D01*
X173043887Y-79894058D01*
X172985013Y-80036191D01*
X172955000Y-80187078D01*
X172955000Y-80340922D01*
X172980000Y-80466607D01*
X172980001Y-83630001D01*
X169354302Y-83630001D01*
X169406987Y-83502809D01*
X169437000Y-83351922D01*
X169437000Y-83198078D01*
X169406987Y-83047191D01*
X169348113Y-82905058D01*
X169262642Y-82777141D01*
X169161130Y-82675629D01*
X169154678Y-82610122D01*
X169125745Y-82514740D01*
X169078759Y-82426836D01*
X169015527Y-82349788D01*
X168996220Y-82333943D01*
X164322843Y-77660567D01*
X164322843Y-77274889D01*
X166421000Y-77274889D01*
X166421000Y-77665111D01*
X166497129Y-78047836D01*
X166646461Y-78408355D01*
X166863257Y-78732814D01*
X167139186Y-79008743D01*
X167463645Y-79225539D01*
X167824164Y-79374871D01*
X168206889Y-79451000D01*
X168597111Y-79451000D01*
X168979836Y-79374871D01*
X169340355Y-79225539D01*
X169664814Y-79008743D01*
X169940743Y-78732814D01*
X170157539Y-78408355D01*
X170306871Y-78047836D01*
X170383000Y-77665111D01*
X170383000Y-77274889D01*
X170306871Y-76892164D01*
X170157539Y-76531645D01*
X169940743Y-76207186D01*
X169664814Y-75931257D01*
X169340355Y-75714461D01*
X168979836Y-75565129D01*
X168597111Y-75489000D01*
X168206889Y-75489000D01*
X167824164Y-75565129D01*
X167463645Y-75714461D01*
X167139186Y-75931257D01*
X166863257Y-76207186D01*
X166646461Y-76531645D01*
X166497129Y-76892164D01*
X166421000Y-77274889D01*
X164322843Y-77274889D01*
X164322843Y-76700000D01*
X164315487Y-76625311D01*
X164293701Y-76553492D01*
X164258322Y-76487304D01*
X164210711Y-76429289D01*
X164152696Y-76381678D01*
X164086508Y-76346299D01*
X164014689Y-76324513D01*
X163940000Y-76317157D01*
X161940000Y-76317157D01*
X161865311Y-76324513D01*
X161793492Y-76346299D01*
X161727304Y-76381678D01*
X161669289Y-76429289D01*
X161621678Y-76487304D01*
X161586299Y-76553492D01*
X161564513Y-76625311D01*
X161557157Y-76700000D01*
X161557157Y-77700000D01*
X161564513Y-77774689D01*
X161586299Y-77846508D01*
X161621678Y-77912696D01*
X161669289Y-77970711D01*
X161727304Y-78018322D01*
X161793492Y-78053701D01*
X161865311Y-78075487D01*
X161940000Y-78082843D01*
X163313937Y-78082843D01*
X163548251Y-78317157D01*
X161940000Y-78317157D01*
X161865311Y-78324513D01*
X161793492Y-78346299D01*
X161727304Y-78381678D01*
X161669289Y-78429289D01*
X161621678Y-78487304D01*
X161586299Y-78553492D01*
X161564513Y-78625311D01*
X161557157Y-78700000D01*
X161557157Y-79700000D01*
X161564513Y-79774689D01*
X161586299Y-79846508D01*
X161621678Y-79912696D01*
X161669289Y-79970711D01*
X161727304Y-80018322D01*
X161793492Y-80053701D01*
X161865311Y-80075487D01*
X161940000Y-80082843D01*
X163940000Y-80082843D01*
X164014689Y-80075487D01*
X164086508Y-80053701D01*
X164143595Y-80023187D01*
X166605000Y-82484592D01*
X166605000Y-82626922D01*
X166635013Y-82777809D01*
X166693887Y-82919942D01*
X166779358Y-83047859D01*
X166888141Y-83156642D01*
X167016058Y-83242113D01*
X167158191Y-83300987D01*
X167309078Y-83331000D01*
X167462922Y-83331000D01*
X167613809Y-83300987D01*
X167755942Y-83242113D01*
X167883147Y-83157117D01*
X167875000Y-83198078D01*
X167875000Y-83351922D01*
X167905013Y-83502809D01*
X167957698Y-83630001D01*
X160209999Y-83630001D01*
X160209999Y-80700000D01*
X161557157Y-80700000D01*
X161557157Y-81700000D01*
X161564513Y-81774689D01*
X161586299Y-81846508D01*
X161621678Y-81912696D01*
X161669289Y-81970711D01*
X161727304Y-82018322D01*
X161793492Y-82053701D01*
X161865311Y-82075487D01*
X161940000Y-82082843D01*
X163940000Y-82082843D01*
X164014689Y-82075487D01*
X164086508Y-82053701D01*
X164152696Y-82018322D01*
X164210711Y-81970711D01*
X164258322Y-81912696D01*
X164293701Y-81846508D01*
X164315487Y-81774689D01*
X164322843Y-81700000D01*
X164322843Y-80700000D01*
X164315487Y-80625311D01*
X164293701Y-80553492D01*
X164258322Y-80487304D01*
X164210711Y-80429289D01*
X164152696Y-80381678D01*
X164086508Y-80346299D01*
X164014689Y-80324513D01*
X163940000Y-80317157D01*
X161940000Y-80317157D01*
X161865311Y-80324513D01*
X161793492Y-80346299D01*
X161727304Y-80381678D01*
X161669289Y-80429289D01*
X161621678Y-80487304D01*
X161586299Y-80553492D01*
X161564513Y-80625311D01*
X161557157Y-80700000D01*
X160209999Y-80700000D01*
X160209999Y-76687128D01*
X160213656Y-76649999D01*
X160199059Y-76501797D01*
X160173589Y-76417832D01*
X160155831Y-76359291D01*
X160085631Y-76227956D01*
X159991158Y-76112840D01*
X159962312Y-76089167D01*
X157474000Y-73600856D01*
X157474000Y-67704142D01*
X158085114Y-67093029D01*
X158801393Y-67093029D01*
X158927078Y-67118029D01*
X159080922Y-67118029D01*
X159231809Y-67088016D01*
X159373942Y-67029142D01*
X159501859Y-66943671D01*
X159610642Y-66834888D01*
X159696113Y-66706971D01*
X159754987Y-66564838D01*
X159785000Y-66413951D01*
X159785000Y-66260107D01*
X159756739Y-66118028D01*
X164565989Y-66118029D01*
X174141959Y-75694000D01*
X173183592Y-75694000D01*
X166897000Y-69407409D01*
X166897000Y-69265078D01*
X166866987Y-69114191D01*
X166808113Y-68972058D01*
X166722642Y-68844141D01*
X166613859Y-68735358D01*
X166485942Y-68649887D01*
X166343809Y-68591013D01*
X166192922Y-68561000D01*
X166039078Y-68561000D01*
X165888191Y-68591013D01*
X165746058Y-68649887D01*
X165618141Y-68735358D01*
X165509358Y-68844141D01*
X165423887Y-68972058D01*
X165365013Y-69114191D01*
X165335000Y-69265078D01*
X165335000Y-69418922D01*
X165365013Y-69569809D01*
X165423887Y-69711942D01*
X165509358Y-69839859D01*
X165618141Y-69948642D01*
X165746058Y-70034113D01*
X165888191Y-70092987D01*
X166039078Y-70123000D01*
X166181409Y-70123000D01*
X166797952Y-70739543D01*
X166780575Y-70730255D01*
X166685193Y-70701322D01*
X166610854Y-70694000D01*
X166610846Y-70694000D01*
X166586000Y-70691553D01*
X166561154Y-70694000D01*
X164322252Y-70694000D01*
X164315487Y-70625311D01*
X164293701Y-70553492D01*
X164258322Y-70487304D01*
X164210711Y-70429289D01*
X164152696Y-70381678D01*
X164086508Y-70346299D01*
X164014689Y-70324513D01*
X163940000Y-70317157D01*
X161940000Y-70317157D01*
X161865311Y-70324513D01*
X161793492Y-70346299D01*
X161727304Y-70381678D01*
X161669289Y-70429289D01*
X161621678Y-70487304D01*
X161586299Y-70553492D01*
X161564513Y-70625311D01*
X161557157Y-70700000D01*
X161557157Y-71700000D01*
X161564513Y-71774689D01*
X161586299Y-71846508D01*
X161621678Y-71912696D01*
X161669289Y-71970711D01*
X161727304Y-72018322D01*
X161793492Y-72053701D01*
X161865311Y-72075487D01*
X161940000Y-72082843D01*
X163940000Y-72082843D01*
X164014689Y-72075487D01*
X164086508Y-72053701D01*
X164152696Y-72018322D01*
X164210711Y-71970711D01*
X164258322Y-71912696D01*
X164293701Y-71846508D01*
X164315487Y-71774689D01*
X164322252Y-71706000D01*
X166376409Y-71706000D01*
X166808883Y-72138475D01*
X166700922Y-72117000D01*
X166547078Y-72117000D01*
X166396191Y-72147013D01*
X166254058Y-72205887D01*
X166126141Y-72291358D01*
X166017358Y-72400141D01*
X165931887Y-72528058D01*
X165873013Y-72670191D01*
X165843000Y-72821078D01*
X165843000Y-72904909D01*
X165792113Y-72782058D01*
X165706642Y-72654141D01*
X165597859Y-72545358D01*
X165469942Y-72459887D01*
X165327809Y-72401013D01*
X165176922Y-72371000D01*
X165023078Y-72371000D01*
X164872191Y-72401013D01*
X164730058Y-72459887D01*
X164602141Y-72545358D01*
X164501499Y-72646000D01*
X164317525Y-72646000D01*
X164315487Y-72625311D01*
X164293701Y-72553492D01*
X164258322Y-72487304D01*
X164210711Y-72429289D01*
X164152696Y-72381678D01*
X164086508Y-72346299D01*
X164014689Y-72324513D01*
X163940000Y-72317157D01*
X161940000Y-72317157D01*
X161865311Y-72324513D01*
X161793492Y-72346299D01*
X161727304Y-72381678D01*
X161669289Y-72429289D01*
X161621678Y-72487304D01*
X161586299Y-72553492D01*
X161564513Y-72625311D01*
X161557157Y-72700000D01*
X161557157Y-73700000D01*
X161564513Y-73774689D01*
X161586299Y-73846508D01*
X161621678Y-73912696D01*
X161669289Y-73970711D01*
X161727304Y-74018322D01*
X161793492Y-74053701D01*
X161865311Y-74075487D01*
X161940000Y-74082843D01*
X163940000Y-74082843D01*
X164014689Y-74075487D01*
X164086508Y-74053701D01*
X164152696Y-74018322D01*
X164210711Y-73970711D01*
X164258322Y-73912696D01*
X164293701Y-73846508D01*
X164315487Y-73774689D01*
X164322843Y-73700000D01*
X164322843Y-73658000D01*
X164501499Y-73658000D01*
X164602141Y-73758642D01*
X164730058Y-73844113D01*
X164872191Y-73902987D01*
X164898240Y-73908168D01*
X164279495Y-74526914D01*
X164258322Y-74487304D01*
X164210711Y-74429289D01*
X164152696Y-74381678D01*
X164086508Y-74346299D01*
X164014689Y-74324513D01*
X163940000Y-74317157D01*
X161940000Y-74317157D01*
X161865311Y-74324513D01*
X161793492Y-74346299D01*
X161727304Y-74381678D01*
X161669289Y-74429289D01*
X161621678Y-74487304D01*
X161586299Y-74553492D01*
X161564513Y-74625311D01*
X161557157Y-74700000D01*
X161557157Y-75700000D01*
X161564513Y-75774689D01*
X161586299Y-75846508D01*
X161621678Y-75912696D01*
X161669289Y-75970711D01*
X161727304Y-76018322D01*
X161793492Y-76053701D01*
X161865311Y-76075487D01*
X161940000Y-76082843D01*
X163940000Y-76082843D01*
X164014689Y-76075487D01*
X164086508Y-76053701D01*
X164152696Y-76018322D01*
X164210711Y-75970711D01*
X164258322Y-75912696D01*
X164293701Y-75846508D01*
X164315487Y-75774689D01*
X164322011Y-75708446D01*
X164346846Y-75706000D01*
X164346854Y-75706000D01*
X164421193Y-75698678D01*
X164516575Y-75669745D01*
X164604479Y-75622759D01*
X164681527Y-75559527D01*
X164697376Y-75540215D01*
X166558592Y-73679000D01*
X166700922Y-73679000D01*
X166851809Y-73648987D01*
X166993942Y-73590113D01*
X167121859Y-73504642D01*
X167230642Y-73395859D01*
X167316113Y-73267942D01*
X167374987Y-73125809D01*
X167400408Y-72998006D01*
X167455887Y-73131942D01*
X167541358Y-73259859D01*
X167650141Y-73368642D01*
X167778058Y-73454113D01*
X167920191Y-73512987D01*
X168071078Y-73543000D01*
X168224922Y-73543000D01*
X168375809Y-73512987D01*
X168517942Y-73454113D01*
X168645859Y-73368642D01*
X168754642Y-73259859D01*
X168840113Y-73131942D01*
X168898987Y-72989809D01*
X168923746Y-72865337D01*
X172598628Y-76540220D01*
X172614473Y-76559527D01*
X172691521Y-76622759D01*
X172772419Y-76666000D01*
X172779425Y-76669745D01*
X172874807Y-76698678D01*
X172974000Y-76708448D01*
X172998854Y-76706000D01*
X178217499Y-76706000D01*
X178318141Y-76806642D01*
X178446058Y-76892113D01*
X178588191Y-76950987D01*
X178739078Y-76981000D01*
X178892922Y-76981000D01*
X179043809Y-76950987D01*
X179185942Y-76892113D01*
X179313859Y-76806642D01*
X179422642Y-76697859D01*
X179508113Y-76569942D01*
X179566987Y-76427809D01*
X179597000Y-76276922D01*
X179597000Y-76123078D01*
X179566987Y-75972191D01*
X179555310Y-75944000D01*
X180088000Y-75944000D01*
X180088001Y-76363498D01*
X179987358Y-76464141D01*
X179901887Y-76592058D01*
X179843013Y-76734191D01*
X179813000Y-76885078D01*
X179813000Y-77038922D01*
X179843013Y-77189809D01*
X179901887Y-77331942D01*
X179987358Y-77459859D01*
X180096141Y-77568642D01*
X180224058Y-77654113D01*
X180366191Y-77712987D01*
X180517078Y-77743000D01*
X180670922Y-77743000D01*
X180821809Y-77712987D01*
X180885321Y-77686679D01*
X180859013Y-77750191D01*
X180829000Y-77901078D01*
X180829000Y-78054922D01*
X180859013Y-78205809D01*
X180917887Y-78347942D01*
X181003358Y-78475859D01*
X181112141Y-78584642D01*
X181240058Y-78670113D01*
X181382191Y-78728987D01*
X181533078Y-78759000D01*
X181686922Y-78759000D01*
X181837809Y-78728987D01*
X181979942Y-78670113D01*
X182107859Y-78584642D01*
X182216642Y-78475859D01*
X182302113Y-78347942D01*
X182360987Y-78205809D01*
X182391000Y-78054922D01*
X182391000Y-77901078D01*
X182360987Y-77750191D01*
X182302113Y-77608058D01*
X182216642Y-77480141D01*
X182116000Y-77379499D01*
X182116000Y-75389592D01*
X182607000Y-75880592D01*
X182607000Y-76022922D01*
X182637013Y-76173809D01*
X182695887Y-76315942D01*
X182781358Y-76443859D01*
X182890141Y-76552642D01*
X183018058Y-76638113D01*
X183086879Y-76666620D01*
X183030705Y-76722794D01*
X182945234Y-76850711D01*
X182886360Y-76992844D01*
X182856347Y-77143731D01*
X182856347Y-77297575D01*
X182886360Y-77448462D01*
X182945234Y-77590595D01*
X183030705Y-77718512D01*
X183139488Y-77827295D01*
X183267405Y-77912766D01*
X183409538Y-77971640D01*
X183560425Y-78001653D01*
X183714269Y-78001653D01*
X183865156Y-77971640D01*
X184007289Y-77912766D01*
X184135206Y-77827295D01*
X184243989Y-77718512D01*
X184329460Y-77590595D01*
X184388334Y-77448462D01*
X184418347Y-77297575D01*
X184418347Y-77155245D01*
X184453221Y-77120371D01*
X184472528Y-77104526D01*
X184535760Y-77027478D01*
X184582746Y-76939574D01*
X184611679Y-76844192D01*
X184619001Y-76769853D01*
X184619001Y-76769846D01*
X184621448Y-76745000D01*
X184619001Y-76720154D01*
X184619001Y-65524590D01*
X184660001Y-65483590D01*
X184660000Y-68096853D01*
X184660001Y-68096863D01*
X184660000Y-77379499D01*
X184559358Y-77480141D01*
X184473887Y-77608058D01*
X184415013Y-77750191D01*
X184385000Y-77901078D01*
X184385000Y-78054922D01*
X184415013Y-78205809D01*
X184473887Y-78347942D01*
X184559358Y-78475859D01*
X184668141Y-78584642D01*
X184796058Y-78670113D01*
X184938191Y-78728987D01*
X185089078Y-78759000D01*
X185242922Y-78759000D01*
X185393809Y-78728987D01*
X185535942Y-78670113D01*
X185663859Y-78584642D01*
X185772642Y-78475859D01*
X185858113Y-78347942D01*
X185916987Y-78205809D01*
X185947000Y-78054922D01*
X185947000Y-77901078D01*
X185916987Y-77750191D01*
X185858113Y-77608058D01*
X185772642Y-77480141D01*
X185672000Y-77379499D01*
X185672000Y-65544593D01*
X188468543Y-62748050D01*
X188470001Y-62762856D01*
X188470000Y-66064853D01*
X188470001Y-66064863D01*
X188470000Y-66826853D01*
X188470001Y-66826863D01*
X188470000Y-74331499D01*
X188369358Y-74432141D01*
X188283887Y-74560058D01*
X188225013Y-74702191D01*
X188195000Y-74853078D01*
X188195000Y-75006922D01*
X188225013Y-75157809D01*
X188283887Y-75299942D01*
X188369358Y-75427859D01*
X188478141Y-75536642D01*
X188606058Y-75622113D01*
X188748191Y-75680987D01*
X188899078Y-75711000D01*
X189052922Y-75711000D01*
X189203809Y-75680987D01*
X189345942Y-75622113D01*
X189473859Y-75536642D01*
X189582642Y-75427859D01*
X189668113Y-75299942D01*
X189726987Y-75157809D01*
X189757000Y-75006922D01*
X189757000Y-74853078D01*
X189726987Y-74702191D01*
X189668113Y-74560058D01*
X189582642Y-74432141D01*
X189482000Y-74331499D01*
X189482000Y-68146000D01*
X190911157Y-68146000D01*
X190911157Y-69046000D01*
X190918513Y-69120689D01*
X190940299Y-69192508D01*
X190960874Y-69231000D01*
X190940299Y-69269492D01*
X190918513Y-69341311D01*
X190911157Y-69416000D01*
X190911157Y-70316000D01*
X190918513Y-70390689D01*
X190940299Y-70462508D01*
X190960874Y-70501000D01*
X190940299Y-70539492D01*
X190918513Y-70611311D01*
X190911157Y-70686000D01*
X190911157Y-71586000D01*
X190918513Y-71660689D01*
X190940299Y-71732508D01*
X190960874Y-71771000D01*
X190940299Y-71809492D01*
X190918513Y-71881311D01*
X190911157Y-71956000D01*
X190911157Y-72856000D01*
X190918513Y-72930689D01*
X190940299Y-73002508D01*
X190960874Y-73041000D01*
X190940299Y-73079492D01*
X190918513Y-73151311D01*
X190911157Y-73226000D01*
X190911157Y-74126000D01*
X190918513Y-74200689D01*
X190940299Y-74272508D01*
X190960874Y-74311000D01*
X190940299Y-74349492D01*
X190918513Y-74421311D01*
X190911157Y-74496000D01*
X190911157Y-75396000D01*
X190918513Y-75470689D01*
X190940299Y-75542508D01*
X190960874Y-75581000D01*
X190940299Y-75619492D01*
X190918513Y-75691311D01*
X190911157Y-75766000D01*
X190911157Y-76666000D01*
X190918513Y-76740689D01*
X190940299Y-76812508D01*
X190960874Y-76851000D01*
X190940299Y-76889492D01*
X190918513Y-76961311D01*
X190911157Y-77036000D01*
X190911157Y-77936000D01*
X190918513Y-78010689D01*
X190940299Y-78082508D01*
X190960874Y-78121000D01*
X190940299Y-78159492D01*
X190918513Y-78231311D01*
X190911157Y-78306000D01*
X190911157Y-79206000D01*
X190918513Y-79280689D01*
X190940299Y-79352508D01*
X190975678Y-79418696D01*
X191023289Y-79476711D01*
X191081304Y-79524322D01*
X191147492Y-79559701D01*
X191219311Y-79581487D01*
X191294000Y-79588843D01*
X193294000Y-79588843D01*
X193368689Y-79581487D01*
X193440508Y-79559701D01*
X193506696Y-79524322D01*
X193564711Y-79476711D01*
X193612322Y-79418696D01*
X193647701Y-79352508D01*
X193669487Y-79280689D01*
X193676843Y-79206000D01*
X193676843Y-78306000D01*
X193669487Y-78231311D01*
X193647701Y-78159492D01*
X193627126Y-78121000D01*
X193647701Y-78082508D01*
X193669487Y-78010689D01*
X193676843Y-77936000D01*
X193676843Y-77036000D01*
X193669487Y-76961311D01*
X193647701Y-76889492D01*
X193627126Y-76851000D01*
X193647701Y-76812508D01*
X193669487Y-76740689D01*
X193676843Y-76666000D01*
X193676843Y-75766000D01*
X193669487Y-75691311D01*
X193647701Y-75619492D01*
X193627126Y-75581000D01*
X193647701Y-75542508D01*
X193669487Y-75470689D01*
X193676843Y-75396000D01*
X193676843Y-74496000D01*
X193669487Y-74421311D01*
X193647701Y-74349492D01*
X193627126Y-74311000D01*
X193647701Y-74272508D01*
X193669487Y-74200689D01*
X193676843Y-74126000D01*
X193676843Y-73226000D01*
X193669487Y-73151311D01*
X193647701Y-73079492D01*
X193627126Y-73041000D01*
X193647701Y-73002508D01*
X193669487Y-72930689D01*
X193676843Y-72856000D01*
X193676843Y-71956000D01*
X193669487Y-71881311D01*
X193647701Y-71809492D01*
X193627126Y-71771000D01*
X193647701Y-71732508D01*
X193669487Y-71660689D01*
X193676843Y-71586000D01*
X193676843Y-70686000D01*
X193669487Y-70611311D01*
X193647701Y-70539492D01*
X193627126Y-70501000D01*
X193647701Y-70462508D01*
X193669487Y-70390689D01*
X193676843Y-70316000D01*
X193676843Y-69416000D01*
X193669487Y-69341311D01*
X193647701Y-69269492D01*
X193627126Y-69231000D01*
X193647701Y-69192508D01*
X193669487Y-69120689D01*
X193676843Y-69046000D01*
X193676843Y-68146000D01*
X193669487Y-68071311D01*
X193647701Y-67999492D01*
X193612322Y-67933304D01*
X193564711Y-67875289D01*
X193506696Y-67827678D01*
X193440508Y-67792299D01*
X193368689Y-67770513D01*
X193294000Y-67763157D01*
X191294000Y-67763157D01*
X191219311Y-67770513D01*
X191147492Y-67792299D01*
X191081304Y-67827678D01*
X191023289Y-67875289D01*
X190975678Y-67933304D01*
X190940299Y-67999492D01*
X190918513Y-68071311D01*
X190911157Y-68146000D01*
X189482000Y-68146000D01*
X189482000Y-64811000D01*
X192461157Y-64811000D01*
X192461157Y-66811000D01*
X192468513Y-66885689D01*
X192490299Y-66957508D01*
X192525678Y-67023696D01*
X192573289Y-67081711D01*
X192631304Y-67129322D01*
X192697492Y-67164701D01*
X192769311Y-67186487D01*
X192844000Y-67193843D01*
X193744000Y-67193843D01*
X193818689Y-67186487D01*
X193890508Y-67164701D01*
X193929000Y-67144126D01*
X193967492Y-67164701D01*
X194039311Y-67186487D01*
X194114000Y-67193843D01*
X195014000Y-67193843D01*
X195088689Y-67186487D01*
X195160508Y-67164701D01*
X195199000Y-67144126D01*
X195237492Y-67164701D01*
X195309311Y-67186487D01*
X195328000Y-67188328D01*
X195328000Y-67727499D01*
X195227358Y-67828141D01*
X195141887Y-67956058D01*
X195083013Y-68098191D01*
X195053000Y-68249078D01*
X195053000Y-68402922D01*
X195083013Y-68553809D01*
X195141887Y-68695942D01*
X195227358Y-68823859D01*
X195336141Y-68932642D01*
X195464058Y-69018113D01*
X195606191Y-69076987D01*
X195757078Y-69107000D01*
X195910922Y-69107000D01*
X196061809Y-69076987D01*
X196203942Y-69018113D01*
X196331859Y-68932642D01*
X196440642Y-68823859D01*
X196526113Y-68695942D01*
X196584987Y-68553809D01*
X196598001Y-68488384D01*
X196598001Y-69132407D01*
X196407408Y-69323000D01*
X196265078Y-69323000D01*
X196114191Y-69353013D01*
X195972058Y-69411887D01*
X195844141Y-69497358D01*
X195735358Y-69606141D01*
X195649887Y-69734058D01*
X195591013Y-69876191D01*
X195561000Y-70027078D01*
X195561000Y-70180922D01*
X195591013Y-70331809D01*
X195649887Y-70473942D01*
X195735358Y-70601859D01*
X195844141Y-70710642D01*
X195972058Y-70796113D01*
X196114191Y-70854987D01*
X196265078Y-70885000D01*
X196418922Y-70885000D01*
X196569809Y-70854987D01*
X196711942Y-70796113D01*
X196839859Y-70710642D01*
X196948642Y-70601859D01*
X197034113Y-70473942D01*
X197092987Y-70331809D01*
X197123000Y-70180922D01*
X197123000Y-70038592D01*
X197444220Y-69717372D01*
X197463527Y-69701527D01*
X197526759Y-69624479D01*
X197573745Y-69536575D01*
X197602678Y-69441193D01*
X197610000Y-69366854D01*
X197612448Y-69342000D01*
X197610000Y-69317146D01*
X197610000Y-67188328D01*
X197628689Y-67186487D01*
X197700508Y-67164701D01*
X197739000Y-67144126D01*
X197777492Y-67164701D01*
X197849311Y-67186487D01*
X197924000Y-67193843D01*
X198824000Y-67193843D01*
X198898689Y-67186487D01*
X198970508Y-67164701D01*
X199009000Y-67144126D01*
X199047492Y-67164701D01*
X199119311Y-67186487D01*
X199194000Y-67193843D01*
X200094000Y-67193843D01*
X200168689Y-67186487D01*
X200240508Y-67164701D01*
X200279000Y-67144126D01*
X200317492Y-67164701D01*
X200389311Y-67186487D01*
X200464000Y-67193843D01*
X201364000Y-67193843D01*
X201438689Y-67186487D01*
X201510508Y-67164701D01*
X201549000Y-67144126D01*
X201587492Y-67164701D01*
X201659311Y-67186487D01*
X201734000Y-67193843D01*
X202634000Y-67193843D01*
X202708689Y-67186487D01*
X202780508Y-67164701D01*
X202819000Y-67144126D01*
X202857492Y-67164701D01*
X202929311Y-67186487D01*
X203004000Y-67193843D01*
X203904000Y-67193843D01*
X203978689Y-67186487D01*
X204050508Y-67164701D01*
X204089000Y-67144126D01*
X204127492Y-67164701D01*
X204199311Y-67186487D01*
X204274000Y-67193843D01*
X205174000Y-67193843D01*
X205248689Y-67186487D01*
X205320508Y-67164701D01*
X205359000Y-67144126D01*
X205397492Y-67164701D01*
X205469311Y-67186487D01*
X205544000Y-67193843D01*
X206444000Y-67193843D01*
X206518689Y-67186487D01*
X206590508Y-67164701D01*
X206629000Y-67144126D01*
X206667492Y-67164701D01*
X206739311Y-67186487D01*
X206814000Y-67193843D01*
X207714000Y-67193843D01*
X207788689Y-67186487D01*
X207860508Y-67164701D01*
X207899000Y-67144126D01*
X207937492Y-67164701D01*
X208009311Y-67186487D01*
X208084000Y-67193843D01*
X208984000Y-67193843D01*
X209058689Y-67186487D01*
X209130508Y-67164701D01*
X209196696Y-67129322D01*
X209254711Y-67081711D01*
X209302322Y-67023696D01*
X209337701Y-66957508D01*
X209359487Y-66885689D01*
X209366843Y-66811000D01*
X209366843Y-64811000D01*
X209359487Y-64736311D01*
X209337701Y-64664492D01*
X209302322Y-64598304D01*
X209254711Y-64540289D01*
X209196696Y-64492678D01*
X209130508Y-64457299D01*
X209058689Y-64435513D01*
X208984000Y-64428157D01*
X208084000Y-64428157D01*
X208009311Y-64435513D01*
X207937492Y-64457299D01*
X207899000Y-64477874D01*
X207860508Y-64457299D01*
X207788689Y-64435513D01*
X207714000Y-64428157D01*
X206814000Y-64428157D01*
X206739311Y-64435513D01*
X206667492Y-64457299D01*
X206629000Y-64477874D01*
X206590508Y-64457299D01*
X206518689Y-64435513D01*
X206500000Y-64433672D01*
X206500000Y-61808591D01*
X207525096Y-60783496D01*
X207547367Y-60810633D01*
X207683801Y-60922601D01*
X207839457Y-61005801D01*
X208008353Y-61057035D01*
X208139987Y-61070000D01*
X208928013Y-61070000D01*
X209059647Y-61057035D01*
X209228543Y-61005801D01*
X209384199Y-60922601D01*
X209520633Y-60810633D01*
X209632601Y-60674199D01*
X209715801Y-60518543D01*
X209767035Y-60349647D01*
X209784335Y-60174000D01*
X209767035Y-59998353D01*
X209715801Y-59829457D01*
X209632601Y-59673801D01*
X209520633Y-59537367D01*
X209459467Y-59487170D01*
X209500589Y-59465190D01*
X209596488Y-59386488D01*
X209675190Y-59290589D01*
X209733671Y-59181179D01*
X209769683Y-59062462D01*
X209781843Y-58939001D01*
X209781843Y-58408999D01*
X209769683Y-58285538D01*
X209733671Y-58166821D01*
X209675190Y-58057411D01*
X209596488Y-57961512D01*
X209500589Y-57882810D01*
X209391179Y-57824329D01*
X209272462Y-57788317D01*
X209149001Y-57776157D01*
X207918999Y-57776157D01*
X207795538Y-57788317D01*
X207676821Y-57824329D01*
X207567411Y-57882810D01*
X207471512Y-57961512D01*
X207392810Y-58057411D01*
X207334329Y-58166821D01*
X207298317Y-58285538D01*
X207293559Y-58333849D01*
X204383781Y-61243628D01*
X204364474Y-61259473D01*
X204301242Y-61336521D01*
X204288963Y-61359493D01*
X204254255Y-61424426D01*
X204225322Y-61519808D01*
X204215553Y-61619000D01*
X204218001Y-61643856D01*
X204218000Y-64433672D01*
X204199311Y-64435513D01*
X204127492Y-64457299D01*
X204089000Y-64477874D01*
X204050508Y-64457299D01*
X203978689Y-64435513D01*
X203904000Y-64428157D01*
X203004000Y-64428157D01*
X202929311Y-64435513D01*
X202857492Y-64457299D01*
X202819000Y-64477874D01*
X202780508Y-64457299D01*
X202708689Y-64435513D01*
X202634000Y-64428157D01*
X201734000Y-64428157D01*
X201659311Y-64435513D01*
X201587492Y-64457299D01*
X201549000Y-64477874D01*
X201510508Y-64457299D01*
X201438689Y-64435513D01*
X201364000Y-64428157D01*
X200464000Y-64428157D01*
X200389311Y-64435513D01*
X200317492Y-64457299D01*
X200279000Y-64477874D01*
X200240508Y-64457299D01*
X200168689Y-64435513D01*
X200094000Y-64428157D01*
X199194000Y-64428157D01*
X199119311Y-64435513D01*
X199047492Y-64457299D01*
X199009000Y-64477874D01*
X198970508Y-64457299D01*
X198898689Y-64435513D01*
X198824000Y-64428157D01*
X197924000Y-64428157D01*
X197849311Y-64435513D01*
X197777492Y-64457299D01*
X197739000Y-64477874D01*
X197700508Y-64457299D01*
X197628689Y-64435513D01*
X197554000Y-64428157D01*
X196654000Y-64428157D01*
X196579311Y-64435513D01*
X196507492Y-64457299D01*
X196469000Y-64477874D01*
X196430508Y-64457299D01*
X196358689Y-64435513D01*
X196284000Y-64428157D01*
X195384000Y-64428157D01*
X195309311Y-64435513D01*
X195237492Y-64457299D01*
X195199000Y-64477874D01*
X195160508Y-64457299D01*
X195088689Y-64435513D01*
X195014000Y-64428157D01*
X194627433Y-64428157D01*
X194795590Y-64260000D01*
X200381154Y-64260000D01*
X200406000Y-64262447D01*
X200430846Y-64260000D01*
X200430854Y-64260000D01*
X200505193Y-64252678D01*
X200600575Y-64223745D01*
X200688479Y-64176759D01*
X200765527Y-64113527D01*
X200781376Y-64094215D01*
X206080220Y-58795372D01*
X206099527Y-58779527D01*
X206162759Y-58702479D01*
X206209745Y-58614575D01*
X206238678Y-58519193D01*
X206246000Y-58444854D01*
X206246000Y-58444847D01*
X206248447Y-58420001D01*
X206246000Y-58395155D01*
X206246000Y-54970832D01*
X206323097Y-54938898D01*
X206524717Y-54804180D01*
X206696180Y-54632717D01*
X206830898Y-54431097D01*
X206923693Y-54207069D01*
X206971000Y-53969243D01*
X206971000Y-53726757D01*
X206923693Y-53488931D01*
X206830898Y-53264903D01*
X206696180Y-53063283D01*
X206524717Y-52891820D01*
X206323097Y-52757102D01*
X206099069Y-52664307D01*
X205861243Y-52617000D01*
X205618757Y-52617000D01*
X205380931Y-52664307D01*
X205156903Y-52757102D01*
X204955283Y-52891820D01*
X204783820Y-53063283D01*
X204649102Y-53264903D01*
X204556307Y-53488931D01*
X204509000Y-53726757D01*
X204509000Y-53969243D01*
X204556307Y-54207069D01*
X204649102Y-54431097D01*
X204783820Y-54632717D01*
X204955283Y-54804180D01*
X205156903Y-54938898D01*
X205234001Y-54970833D01*
X205234000Y-58210408D01*
X200196409Y-63248000D01*
X194610843Y-63248000D01*
X194585997Y-63245553D01*
X194561151Y-63248000D01*
X194561144Y-63248000D01*
X194496692Y-63254348D01*
X194486804Y-63255322D01*
X194415169Y-63277052D01*
X194391423Y-63284255D01*
X194303519Y-63331241D01*
X194226471Y-63394473D01*
X194210627Y-63413779D01*
X193196250Y-64428157D01*
X192844000Y-64428157D01*
X192769311Y-64435513D01*
X192697492Y-64457299D01*
X192631304Y-64492678D01*
X192573289Y-64540289D01*
X192525678Y-64598304D01*
X192490299Y-64664492D01*
X192468513Y-64736311D01*
X192461157Y-64811000D01*
X189482000Y-64811000D01*
X189482000Y-62947591D01*
X197698220Y-54731372D01*
X197717527Y-54715527D01*
X197780759Y-54638479D01*
X197827745Y-54550575D01*
X197856678Y-54455193D01*
X197864000Y-54380854D01*
X197864000Y-54380847D01*
X197866447Y-54356001D01*
X197864000Y-54331155D01*
X197864000Y-53684501D01*
X197964642Y-53583859D01*
X198050113Y-53455942D01*
X198108987Y-53313809D01*
X198139000Y-53162922D01*
X198139000Y-53009078D01*
X198108987Y-52858191D01*
X198097310Y-52830000D01*
X199299499Y-52830000D01*
X199400141Y-52930642D01*
X199528058Y-53016113D01*
X199670191Y-53074987D01*
X199821078Y-53105000D01*
X199974922Y-53105000D01*
X200125809Y-53074987D01*
X200267942Y-53016113D01*
X200395859Y-52930642D01*
X200504642Y-52821859D01*
X200590113Y-52693942D01*
X200648987Y-52551809D01*
X200679000Y-52400922D01*
X200679000Y-52247078D01*
X200648987Y-52096191D01*
X200590113Y-51954058D01*
X200504642Y-51826141D01*
X200395859Y-51717358D01*
X200267942Y-51631887D01*
X200125809Y-51573013D01*
X199974922Y-51543000D01*
X199821078Y-51543000D01*
X199670191Y-51573013D01*
X199528058Y-51631887D01*
X199400141Y-51717358D01*
X199299499Y-51818000D01*
X193826846Y-51818000D01*
X193802000Y-51815553D01*
X193777154Y-51818000D01*
X193777146Y-51818000D01*
X193702807Y-51825322D01*
X193607425Y-51854255D01*
X193519521Y-51901241D01*
X193442473Y-51964473D01*
X193426628Y-51983780D01*
X192445780Y-52964629D01*
X192426474Y-52980473D01*
X192363242Y-53057521D01*
X192347781Y-53086447D01*
X192316255Y-53145426D01*
X192287322Y-53240808D01*
X192277553Y-53340000D01*
X192280001Y-53364856D01*
X192280000Y-55544144D01*
X192280000Y-55670408D01*
X191683783Y-56266626D01*
X191683778Y-56266630D01*
X190159783Y-57790626D01*
X190159778Y-57790630D01*
X181269781Y-66680628D01*
X181250474Y-66696473D01*
X181187242Y-66773521D01*
X181178965Y-66789006D01*
X181140255Y-66861426D01*
X181111322Y-66956808D01*
X181101553Y-67056000D01*
X181104001Y-67080856D01*
X181104000Y-69251499D01*
X181003358Y-69352141D01*
X180917887Y-69480058D01*
X180859013Y-69622191D01*
X180829000Y-69773078D01*
X180829000Y-69926922D01*
X180859013Y-70077809D01*
X180917887Y-70219942D01*
X181003358Y-70347859D01*
X181112141Y-70456642D01*
X181240058Y-70542113D01*
X181382191Y-70600987D01*
X181533078Y-70631000D01*
X181686922Y-70631000D01*
X181837809Y-70600987D01*
X181979942Y-70542113D01*
X182107859Y-70456642D01*
X182216642Y-70347859D01*
X182302113Y-70219942D01*
X182360987Y-70077809D01*
X182391000Y-69926922D01*
X182391000Y-69773078D01*
X182360987Y-69622191D01*
X182302113Y-69480058D01*
X182216642Y-69352141D01*
X182116000Y-69251499D01*
X182116000Y-67265591D01*
X183607002Y-65774589D01*
X183607001Y-67371852D01*
X183607002Y-67371862D01*
X183607001Y-75193261D01*
X183464922Y-75165000D01*
X183322592Y-75165000D01*
X181477376Y-73319785D01*
X181461527Y-73300473D01*
X181384479Y-73237241D01*
X181296575Y-73190255D01*
X181201193Y-73161322D01*
X181126854Y-73154000D01*
X181126846Y-73154000D01*
X181102000Y-73151553D01*
X181077154Y-73154000D01*
X174325182Y-73154000D01*
X171781182Y-70610000D01*
X177709499Y-70610000D01*
X177810141Y-70710642D01*
X177938058Y-70796113D01*
X178080191Y-70854987D01*
X178231078Y-70885000D01*
X178384922Y-70885000D01*
X178535809Y-70854987D01*
X178677942Y-70796113D01*
X178805859Y-70710642D01*
X178914642Y-70601859D01*
X179000113Y-70473942D01*
X179058987Y-70331809D01*
X179089000Y-70180922D01*
X179089000Y-70027078D01*
X179058987Y-69876191D01*
X179000113Y-69734058D01*
X178914642Y-69606141D01*
X178805859Y-69497358D01*
X178677942Y-69411887D01*
X178535809Y-69353013D01*
X178384922Y-69323000D01*
X178231078Y-69323000D01*
X178080191Y-69353013D01*
X177938058Y-69411887D01*
X177810141Y-69497358D01*
X177709499Y-69598000D01*
X171405592Y-69598000D01*
X168442574Y-66634983D01*
X168540058Y-66700119D01*
X168682191Y-66758993D01*
X168833078Y-66789006D01*
X168986922Y-66789006D01*
X169137809Y-66758993D01*
X169279942Y-66700119D01*
X169407859Y-66614648D01*
X169508501Y-66514006D01*
X177045148Y-66514006D01*
X177069994Y-66516453D01*
X177094840Y-66514006D01*
X177094848Y-66514006D01*
X177169187Y-66506684D01*
X177264569Y-66477751D01*
X177352473Y-66430765D01*
X177429521Y-66367533D01*
X177445370Y-66348221D01*
X178242592Y-65551000D01*
X178384922Y-65551000D01*
X178535809Y-65520987D01*
X178677942Y-65462113D01*
X178805859Y-65376642D01*
X178914642Y-65267859D01*
X179000113Y-65139942D01*
X179058987Y-64997809D01*
X179089000Y-64846922D01*
X179089000Y-64693078D01*
X179058987Y-64542191D01*
X179000113Y-64400058D01*
X178914642Y-64272141D01*
X178805859Y-64163358D01*
X178763418Y-64135000D01*
X178805859Y-64106642D01*
X178914642Y-63997859D01*
X179000113Y-63869942D01*
X179058987Y-63727809D01*
X179089000Y-63576922D01*
X179089000Y-63423078D01*
X179058987Y-63272191D01*
X179000113Y-63130058D01*
X178914642Y-63002141D01*
X178904501Y-62992000D01*
X178914642Y-62981859D01*
X179000113Y-62853942D01*
X179058987Y-62711809D01*
X179089000Y-62560922D01*
X179089000Y-62407078D01*
X179058987Y-62256191D01*
X179000113Y-62114058D01*
X178914642Y-61986141D01*
X178805859Y-61877358D01*
X178677942Y-61791887D01*
X178535809Y-61733013D01*
X178384922Y-61703000D01*
X178231078Y-61703000D01*
X178080191Y-61733013D01*
X177938058Y-61791887D01*
X177810141Y-61877358D01*
X177709499Y-61978000D01*
X177143847Y-61978000D01*
X177119001Y-61975553D01*
X177094155Y-61978000D01*
X177094148Y-61978000D01*
X177029696Y-61984348D01*
X177019808Y-61985322D01*
X177014234Y-61987013D01*
X176924427Y-62014255D01*
X176836523Y-62061241D01*
X176759475Y-62124473D01*
X176743630Y-62143780D01*
X176494434Y-62392976D01*
X176484113Y-62368058D01*
X176398642Y-62240141D01*
X176289859Y-62131358D01*
X176161942Y-62045887D01*
X176019809Y-61987013D01*
X175868922Y-61957000D01*
X175738001Y-61957000D01*
X182092579Y-55602423D01*
X182106999Y-55603843D01*
X182637001Y-55603843D01*
X182760462Y-55591683D01*
X182879179Y-55555671D01*
X182988589Y-55497190D01*
X183084488Y-55418488D01*
X183163190Y-55322589D01*
X183221671Y-55213179D01*
X183257683Y-55094462D01*
X183269843Y-54971001D01*
X183269843Y-54414889D01*
X186741000Y-54414889D01*
X186741000Y-54805111D01*
X186817129Y-55187836D01*
X186966461Y-55548355D01*
X187183257Y-55872814D01*
X187459186Y-56148743D01*
X187783645Y-56365539D01*
X188144164Y-56514871D01*
X188526889Y-56591000D01*
X188917111Y-56591000D01*
X189299836Y-56514871D01*
X189660355Y-56365539D01*
X189984814Y-56148743D01*
X190260743Y-55872814D01*
X190477539Y-55548355D01*
X190626871Y-55187836D01*
X190703000Y-54805111D01*
X190703000Y-54414889D01*
X190626871Y-54032164D01*
X190477539Y-53671645D01*
X190260743Y-53347186D01*
X189984814Y-53071257D01*
X189660355Y-52854461D01*
X189299836Y-52705129D01*
X188917111Y-52629000D01*
X188526889Y-52629000D01*
X188144164Y-52705129D01*
X187783645Y-52854461D01*
X187459186Y-53071257D01*
X187183257Y-53347186D01*
X186966461Y-53671645D01*
X186817129Y-54032164D01*
X186741000Y-54414889D01*
X183269843Y-54414889D01*
X183269843Y-53740999D01*
X183257683Y-53617538D01*
X183221671Y-53498821D01*
X183163190Y-53389411D01*
X183084488Y-53293512D01*
X182988589Y-53214810D01*
X182879179Y-53156329D01*
X182760462Y-53120317D01*
X182637001Y-53108157D01*
X182106999Y-53108157D01*
X181983538Y-53120317D01*
X181864821Y-53156329D01*
X181755411Y-53214810D01*
X181659512Y-53293512D01*
X181580810Y-53389411D01*
X181558830Y-53430533D01*
X181508633Y-53369367D01*
X181372199Y-53257399D01*
X181216543Y-53174199D01*
X181047647Y-53122965D01*
X180872000Y-53105665D01*
X180696354Y-53122965D01*
X180527458Y-53174199D01*
X180371802Y-53257399D01*
X180235368Y-53369367D01*
X180123400Y-53505801D01*
X180040200Y-53661457D01*
X179988965Y-53830353D01*
X179976000Y-53961987D01*
X179976000Y-54750012D01*
X179988965Y-54881646D01*
X180040199Y-55050542D01*
X180123399Y-55206198D01*
X180235367Y-55342633D01*
X180262504Y-55364904D01*
X174919409Y-60708000D01*
X173572501Y-60708000D01*
X173471859Y-60607358D01*
X173343942Y-60521887D01*
X173201809Y-60463013D01*
X173050922Y-60433000D01*
X172897078Y-60433000D01*
X172746191Y-60463013D01*
X172604058Y-60521887D01*
X172476141Y-60607358D01*
X172367358Y-60716141D01*
X172281887Y-60844058D01*
X172223013Y-60986191D01*
X172193000Y-61137078D01*
X172193000Y-61290922D01*
X172223013Y-61441809D01*
X172281887Y-61583942D01*
X172367358Y-61711859D01*
X172476141Y-61820642D01*
X172604058Y-61906113D01*
X172746191Y-61964987D01*
X172897078Y-61995000D01*
X172918000Y-61995000D01*
X172918000Y-62122973D01*
X172946261Y-62265052D01*
X171438624Y-62265052D01*
X169944990Y-60771419D01*
X169944990Y-60629088D01*
X169914977Y-60478201D01*
X169856103Y-60336068D01*
X169770632Y-60208151D01*
X169661849Y-60099368D01*
X169533932Y-60013897D01*
X169391799Y-59955023D01*
X169240912Y-59925010D01*
X169087068Y-59925010D01*
X168936181Y-59955023D01*
X168794048Y-60013897D01*
X168666131Y-60099368D01*
X168557348Y-60208151D01*
X168471877Y-60336068D01*
X168413003Y-60478201D01*
X168382990Y-60629088D01*
X168382990Y-60782932D01*
X168413003Y-60933819D01*
X168471877Y-61075952D01*
X168557348Y-61203869D01*
X168666131Y-61312652D01*
X168794048Y-61398123D01*
X168936181Y-61456997D01*
X169087068Y-61487010D01*
X169229399Y-61487010D01*
X170853660Y-63111272D01*
X170869505Y-63130579D01*
X170946553Y-63193811D01*
X171034457Y-63240797D01*
X171094285Y-63258945D01*
X171129838Y-63269730D01*
X171139726Y-63270704D01*
X171204178Y-63277052D01*
X171204185Y-63277052D01*
X171229031Y-63279499D01*
X171253877Y-63277052D01*
X175226551Y-63277052D01*
X175294141Y-63344642D01*
X175422058Y-63430113D01*
X175446976Y-63440435D01*
X175385411Y-63502000D01*
X169508501Y-63502000D01*
X169407859Y-63401358D01*
X169279942Y-63315887D01*
X169137809Y-63257013D01*
X168986922Y-63227000D01*
X168833078Y-63227000D01*
X168682191Y-63257013D01*
X168540058Y-63315887D01*
X168412141Y-63401358D01*
X168303358Y-63510141D01*
X168217887Y-63638058D01*
X168159013Y-63780191D01*
X168129000Y-63931078D01*
X168129000Y-64084922D01*
X168159013Y-64235809D01*
X168217887Y-64377942D01*
X168303358Y-64505859D01*
X168305501Y-64508002D01*
X168303358Y-64510144D01*
X168217887Y-64638061D01*
X168159013Y-64780194D01*
X168129000Y-64931081D01*
X168129000Y-65084925D01*
X168159013Y-65235812D01*
X168217887Y-65377945D01*
X168303358Y-65505862D01*
X168305501Y-65508005D01*
X168303358Y-65510147D01*
X168217887Y-65638064D01*
X168159013Y-65780197D01*
X168129000Y-65931084D01*
X168129000Y-66084928D01*
X168159013Y-66235815D01*
X168217887Y-66377948D01*
X168283023Y-66475432D01*
X165729376Y-63921785D01*
X165713527Y-63902473D01*
X165636479Y-63839241D01*
X165548575Y-63792255D01*
X165453193Y-63763322D01*
X165378854Y-63756000D01*
X165378846Y-63756000D01*
X165354000Y-63753553D01*
X165329154Y-63756000D01*
X150323592Y-63756000D01*
X148588000Y-62020409D01*
X148588000Y-59413310D01*
X148616191Y-59424987D01*
X148767078Y-59455000D01*
X148920922Y-59455000D01*
X149071809Y-59424987D01*
X149213942Y-59366113D01*
X149341859Y-59280642D01*
X149450642Y-59171859D01*
X149536113Y-59043942D01*
X149594987Y-58901809D01*
X149625000Y-58750922D01*
X149625000Y-58608592D01*
X149692222Y-58541370D01*
X149711527Y-58525527D01*
X149774759Y-58448479D01*
X149821745Y-58360575D01*
X149850678Y-58265193D01*
X149858000Y-58190854D01*
X149858000Y-58190847D01*
X149860447Y-58166001D01*
X149858000Y-58141155D01*
X149858000Y-53580988D01*
X154909000Y-53580988D01*
X154909000Y-54369013D01*
X154921965Y-54500647D01*
X154973200Y-54669543D01*
X155056400Y-54825199D01*
X155168368Y-54961633D01*
X155304802Y-55073601D01*
X155460458Y-55156801D01*
X155629354Y-55208035D01*
X155805000Y-55225335D01*
X155980647Y-55208035D01*
X156149543Y-55156801D01*
X156305199Y-55073601D01*
X156441633Y-54961633D01*
X156553601Y-54825199D01*
X156636801Y-54669543D01*
X156688035Y-54500647D01*
X156701000Y-54369013D01*
X156701000Y-53961987D01*
X170856000Y-53961987D01*
X170856000Y-54750012D01*
X170868965Y-54881646D01*
X170920199Y-55050542D01*
X170996001Y-55192356D01*
X170996001Y-55933861D01*
X170992343Y-55971000D01*
X171006940Y-56119201D01*
X171046600Y-56249942D01*
X171050169Y-56261708D01*
X171120369Y-56393043D01*
X171214842Y-56508159D01*
X171243689Y-56531833D01*
X172624167Y-57912311D01*
X172647841Y-57941159D01*
X172762957Y-58035632D01*
X172894292Y-58105832D01*
X172998762Y-58137522D01*
X173036798Y-58149060D01*
X173184999Y-58163657D01*
X173222128Y-58160000D01*
X176835393Y-58160000D01*
X176961078Y-58185000D01*
X177114922Y-58185000D01*
X177265809Y-58154987D01*
X177407942Y-58096113D01*
X177535859Y-58010642D01*
X177644642Y-57901859D01*
X177730113Y-57773942D01*
X177788987Y-57631809D01*
X177819000Y-57480922D01*
X177819000Y-57327078D01*
X177788987Y-57176191D01*
X177730113Y-57034058D01*
X177644642Y-56906141D01*
X177535859Y-56797358D01*
X177407942Y-56711887D01*
X177265809Y-56653013D01*
X177114922Y-56623000D01*
X176961078Y-56623000D01*
X176835393Y-56648000D01*
X173498145Y-56648000D01*
X172508000Y-55657856D01*
X172508000Y-55211804D01*
X172615367Y-55342633D01*
X172751801Y-55454601D01*
X172907457Y-55537801D01*
X173076353Y-55589035D01*
X173252000Y-55606335D01*
X173427646Y-55589035D01*
X173596542Y-55537801D01*
X173752198Y-55454601D01*
X173888633Y-55342633D01*
X174000601Y-55206199D01*
X174083801Y-55050543D01*
X174135035Y-54881647D01*
X174148000Y-54750013D01*
X174148000Y-53961987D01*
X174135035Y-53830353D01*
X174083801Y-53661457D01*
X174000601Y-53505801D01*
X173888633Y-53369367D01*
X173752199Y-53257399D01*
X173596543Y-53174199D01*
X173427647Y-53122965D01*
X173252000Y-53105665D01*
X173076354Y-53122965D01*
X172907458Y-53174199D01*
X172751802Y-53257399D01*
X172615368Y-53369367D01*
X172503400Y-53505801D01*
X172502001Y-53508419D01*
X172500601Y-53505801D01*
X172388633Y-53369367D01*
X172252199Y-53257399D01*
X172096543Y-53174199D01*
X171927647Y-53122965D01*
X171752000Y-53105665D01*
X171576354Y-53122965D01*
X171407458Y-53174199D01*
X171251802Y-53257399D01*
X171115368Y-53369367D01*
X171003400Y-53505801D01*
X170920200Y-53661457D01*
X170868965Y-53830353D01*
X170856000Y-53961987D01*
X156701000Y-53961987D01*
X156701000Y-53580987D01*
X156688035Y-53449353D01*
X156636801Y-53280457D01*
X156553601Y-53124801D01*
X156441633Y-52988367D01*
X156305198Y-52876399D01*
X156149542Y-52793199D01*
X155980646Y-52741965D01*
X155805000Y-52724665D01*
X155629353Y-52741965D01*
X155460457Y-52793199D01*
X155304801Y-52876399D01*
X155168367Y-52988367D01*
X155056399Y-53124802D01*
X154973199Y-53280458D01*
X154921965Y-53449354D01*
X154909000Y-53580988D01*
X149858000Y-53580988D01*
X149858000Y-53176501D01*
X149958642Y-53075859D01*
X150044113Y-52947942D01*
X150102987Y-52805809D01*
X150133000Y-52654922D01*
X150133000Y-52501078D01*
X150104739Y-52358999D01*
X151211408Y-52358999D01*
X151365000Y-52512591D01*
X151365000Y-52654922D01*
X151395013Y-52805809D01*
X151453887Y-52947942D01*
X151539358Y-53075859D01*
X151648141Y-53184642D01*
X151776058Y-53270113D01*
X151918191Y-53328987D01*
X152069078Y-53359000D01*
X152222922Y-53359000D01*
X152373809Y-53328987D01*
X152515942Y-53270113D01*
X152643859Y-53184642D01*
X152752642Y-53075859D01*
X152838113Y-52947942D01*
X152896987Y-52805809D01*
X152927000Y-52654922D01*
X152927000Y-52501078D01*
X152896987Y-52350191D01*
X152838113Y-52208058D01*
X152752642Y-52080141D01*
X152643859Y-51971358D01*
X152515942Y-51885887D01*
X152373809Y-51827013D01*
X152222922Y-51797000D01*
X152080591Y-51797000D01*
X151796375Y-51512784D01*
X151780526Y-51493472D01*
X151703478Y-51430240D01*
X151615574Y-51383254D01*
X151520192Y-51354321D01*
X151445853Y-51346999D01*
X151445845Y-51346999D01*
X151420999Y-51344552D01*
X151396153Y-51346999D01*
X147758844Y-51346999D01*
X147733998Y-51344552D01*
X147709152Y-51346999D01*
X147709145Y-51346999D01*
X147644693Y-51353347D01*
X147634805Y-51354321D01*
X147539424Y-51383254D01*
X147451520Y-51430240D01*
X147374472Y-51493472D01*
X147358627Y-51512779D01*
X146725785Y-52145622D01*
X146706473Y-52161471D01*
X146643241Y-52238519D01*
X146596255Y-52326424D01*
X146567322Y-52421806D01*
X146560000Y-52496145D01*
X146560000Y-52496152D01*
X146557553Y-52520998D01*
X146560000Y-52545844D01*
X146560000Y-54150409D01*
X146171374Y-53761783D01*
X146171370Y-53761778D01*
X145053000Y-52643409D01*
X145053000Y-52501078D01*
X145022987Y-52350191D01*
X144964113Y-52208058D01*
X144878642Y-52080141D01*
X144769859Y-51971358D01*
X144641942Y-51885887D01*
X144499809Y-51827013D01*
X144348922Y-51797000D01*
X144195078Y-51797000D01*
X144044191Y-51827013D01*
X143902058Y-51885887D01*
X143774141Y-51971358D01*
X143665358Y-52080141D01*
X143579887Y-52208058D01*
X143521013Y-52350191D01*
X143491000Y-52501078D01*
X143491000Y-52654922D01*
X143521013Y-52805809D01*
X143579887Y-52947942D01*
X143665358Y-53075859D01*
X143774141Y-53184642D01*
X143902058Y-53270113D01*
X144044191Y-53328987D01*
X144195078Y-53359000D01*
X144337409Y-53359000D01*
X145455778Y-54477370D01*
X145455783Y-54477374D01*
X145798001Y-54819593D01*
X145798000Y-56363153D01*
X145795553Y-56388000D01*
X145798000Y-56412846D01*
X145798000Y-56412853D01*
X145805322Y-56487192D01*
X145834255Y-56582574D01*
X145881241Y-56670479D01*
X145944473Y-56747527D01*
X145963785Y-56763376D01*
X146675983Y-57475575D01*
X146675982Y-60870391D01*
X145815000Y-60009409D01*
X145815000Y-59867078D01*
X145784987Y-59716191D01*
X145726113Y-59574058D01*
X145640642Y-59446141D01*
X145531859Y-59337358D01*
X145403942Y-59251887D01*
X145261809Y-59193013D01*
X145110922Y-59163000D01*
X144957078Y-59163000D01*
X144806191Y-59193013D01*
X144664058Y-59251887D01*
X144536141Y-59337358D01*
X144427358Y-59446141D01*
X144341887Y-59574058D01*
X144283013Y-59716191D01*
X144253000Y-59867078D01*
X144253000Y-60020922D01*
X144283013Y-60171809D01*
X144341887Y-60313942D01*
X144427358Y-60441859D01*
X144536141Y-60550642D01*
X144664058Y-60636113D01*
X144806191Y-60694987D01*
X144957078Y-60725000D01*
X145099409Y-60725000D01*
X146225973Y-61851565D01*
X146225972Y-62764353D01*
X146223525Y-62789200D01*
X146225972Y-62814046D01*
X146225972Y-62814053D01*
X146233294Y-62888392D01*
X146262227Y-62983774D01*
X146309213Y-63071679D01*
X146372445Y-63148727D01*
X146391757Y-63164576D01*
X149179429Y-65952250D01*
X149195271Y-65971553D01*
X149214572Y-65987393D01*
X149214576Y-65987397D01*
X149272319Y-66034785D01*
X149360223Y-66081772D01*
X149455605Y-66110705D01*
X149554798Y-66120475D01*
X149579662Y-66118026D01*
X156921826Y-66118027D01*
X156209689Y-66830165D01*
X156180842Y-66853839D01*
X156086369Y-66968955D01*
X156026100Y-67081711D01*
X156016169Y-67100290D01*
X155972940Y-67242797D01*
X155958343Y-67390998D01*
X155962001Y-67428137D01*
X155962000Y-73876871D01*
X155958343Y-73914000D01*
X155962000Y-73951128D01*
X155962000Y-74362855D01*
X155880856Y-74444000D01*
X148222784Y-74444000D01*
X148210711Y-74429289D01*
X148152696Y-74381678D01*
X148086508Y-74346299D01*
X148014689Y-74324513D01*
X147940000Y-74317157D01*
X145940000Y-74317157D01*
X145865311Y-74324513D01*
X145793492Y-74346299D01*
X145727304Y-74381678D01*
X145669289Y-74429289D01*
X145657216Y-74444000D01*
X144039128Y-74444000D01*
X144001999Y-74440343D01*
X143892186Y-74451159D01*
X143853798Y-74454940D01*
X143711292Y-74498168D01*
X143579957Y-74568368D01*
X143464841Y-74662841D01*
X143441166Y-74691689D01*
X143172856Y-74960000D01*
X142587805Y-74960000D01*
X142718633Y-74852633D01*
X142825565Y-74722336D01*
X142847000Y-74724447D01*
X142871846Y-74722000D01*
X142871854Y-74722000D01*
X142946193Y-74714678D01*
X143041575Y-74685745D01*
X143129479Y-74638759D01*
X143206527Y-74575527D01*
X143222376Y-74556215D01*
X144866220Y-72912372D01*
X144885527Y-72896527D01*
X144948759Y-72819479D01*
X144995745Y-72731575D01*
X145005322Y-72700000D01*
X145557157Y-72700000D01*
X145557157Y-73700000D01*
X145564513Y-73774689D01*
X145586299Y-73846508D01*
X145621678Y-73912696D01*
X145669289Y-73970711D01*
X145727304Y-74018322D01*
X145793492Y-74053701D01*
X145865311Y-74075487D01*
X145940000Y-74082843D01*
X147940000Y-74082843D01*
X148014689Y-74075487D01*
X148086508Y-74053701D01*
X148152696Y-74018322D01*
X148210711Y-73970711D01*
X148258322Y-73912696D01*
X148293701Y-73846508D01*
X148315487Y-73774689D01*
X148322843Y-73700000D01*
X148322843Y-73658000D01*
X148753499Y-73658000D01*
X148854141Y-73758642D01*
X148982058Y-73844113D01*
X149124191Y-73902987D01*
X149275078Y-73933000D01*
X149428922Y-73933000D01*
X149579809Y-73902987D01*
X149721942Y-73844113D01*
X149849859Y-73758642D01*
X149958642Y-73649859D01*
X150044113Y-73521942D01*
X150102987Y-73379809D01*
X150133000Y-73228922D01*
X150133000Y-73075078D01*
X150102987Y-72924191D01*
X150044113Y-72782058D01*
X149958642Y-72654141D01*
X149849859Y-72545358D01*
X149721942Y-72459887D01*
X149579809Y-72401013D01*
X149428922Y-72371000D01*
X149275078Y-72371000D01*
X149124191Y-72401013D01*
X148982058Y-72459887D01*
X148854141Y-72545358D01*
X148753499Y-72646000D01*
X148317525Y-72646000D01*
X148315487Y-72625311D01*
X148293701Y-72553492D01*
X148258322Y-72487304D01*
X148210711Y-72429289D01*
X148152696Y-72381678D01*
X148086508Y-72346299D01*
X148014689Y-72324513D01*
X147940000Y-72317157D01*
X145940000Y-72317157D01*
X145865311Y-72324513D01*
X145793492Y-72346299D01*
X145727304Y-72381678D01*
X145669289Y-72429289D01*
X145621678Y-72487304D01*
X145586299Y-72553492D01*
X145564513Y-72625311D01*
X145557157Y-72700000D01*
X145005322Y-72700000D01*
X145024678Y-72636193D01*
X145032000Y-72561854D01*
X145034448Y-72537000D01*
X145032000Y-72512146D01*
X145032000Y-71464501D01*
X145132642Y-71363859D01*
X145218113Y-71235942D01*
X145276987Y-71093809D01*
X145307000Y-70942922D01*
X145307000Y-70789078D01*
X145289282Y-70700000D01*
X145557157Y-70700000D01*
X145557157Y-71700000D01*
X145564513Y-71774689D01*
X145586299Y-71846508D01*
X145621678Y-71912696D01*
X145669289Y-71970711D01*
X145727304Y-72018322D01*
X145793492Y-72053701D01*
X145865311Y-72075487D01*
X145940000Y-72082843D01*
X147940000Y-72082843D01*
X148014689Y-72075487D01*
X148086508Y-72053701D01*
X148152696Y-72018322D01*
X148210711Y-71970711D01*
X148258322Y-71912696D01*
X148293701Y-71846508D01*
X148315487Y-71774689D01*
X148322843Y-71700000D01*
X148322843Y-70700000D01*
X148315487Y-70625311D01*
X148293701Y-70553492D01*
X148258322Y-70487304D01*
X148210711Y-70429289D01*
X148152696Y-70381678D01*
X148086508Y-70346299D01*
X148014689Y-70324513D01*
X147940000Y-70317157D01*
X145940000Y-70317157D01*
X145865311Y-70324513D01*
X145793492Y-70346299D01*
X145727304Y-70381678D01*
X145669289Y-70429289D01*
X145621678Y-70487304D01*
X145586299Y-70553492D01*
X145564513Y-70625311D01*
X145557157Y-70700000D01*
X145289282Y-70700000D01*
X145276987Y-70638191D01*
X145218113Y-70496058D01*
X145132642Y-70368141D01*
X145023859Y-70259358D01*
X144895942Y-70173887D01*
X144753809Y-70115013D01*
X144602922Y-70085000D01*
X144449078Y-70085000D01*
X144298191Y-70115013D01*
X144156058Y-70173887D01*
X144028141Y-70259358D01*
X143919358Y-70368141D01*
X143833887Y-70496058D01*
X143775013Y-70638191D01*
X143745000Y-70789078D01*
X143745000Y-70942922D01*
X143775013Y-71093809D01*
X143833887Y-71235942D01*
X143919358Y-71363859D01*
X144020000Y-71464501D01*
X144020001Y-72327407D01*
X142740904Y-73606505D01*
X142718633Y-73579367D01*
X142582199Y-73467399D01*
X142579582Y-73466000D01*
X142582199Y-73464601D01*
X142718633Y-73352633D01*
X142830601Y-73216199D01*
X142913801Y-73060543D01*
X142965035Y-72891647D01*
X142982335Y-72716000D01*
X142965035Y-72540353D01*
X142913801Y-72371457D01*
X142830601Y-72215801D01*
X142718633Y-72079367D01*
X142582199Y-71967399D01*
X142579582Y-71966000D01*
X142582199Y-71964601D01*
X142718633Y-71852633D01*
X142830601Y-71716199D01*
X142913801Y-71560543D01*
X142965035Y-71391647D01*
X142982335Y-71216000D01*
X142965035Y-71040353D01*
X142913801Y-70871457D01*
X142830601Y-70715801D01*
X142718633Y-70579367D01*
X142582199Y-70467399D01*
X142579582Y-70466000D01*
X142582199Y-70464601D01*
X142718633Y-70352633D01*
X142830601Y-70216199D01*
X142913801Y-70060543D01*
X142965035Y-69891647D01*
X142982335Y-69716000D01*
X142965035Y-69540353D01*
X142913801Y-69371457D01*
X142830601Y-69215801D01*
X142718633Y-69079367D01*
X142582199Y-68967399D01*
X142579582Y-68966000D01*
X142582199Y-68964601D01*
X142718633Y-68852633D01*
X142830601Y-68716199D01*
X142839259Y-68700000D01*
X145557157Y-68700000D01*
X145557157Y-69700000D01*
X145564513Y-69774689D01*
X145586299Y-69846508D01*
X145621678Y-69912696D01*
X145669289Y-69970711D01*
X145727304Y-70018322D01*
X145793492Y-70053701D01*
X145865311Y-70075487D01*
X145940000Y-70082843D01*
X147940000Y-70082843D01*
X148014689Y-70075487D01*
X148086508Y-70053701D01*
X148152696Y-70018322D01*
X148210711Y-69970711D01*
X148258322Y-69912696D01*
X148293701Y-69846508D01*
X148315487Y-69774689D01*
X148322843Y-69700000D01*
X148322843Y-68700000D01*
X148315487Y-68625311D01*
X148293701Y-68553492D01*
X148258322Y-68487304D01*
X148210711Y-68429289D01*
X148152696Y-68381678D01*
X148086508Y-68346299D01*
X148014689Y-68324513D01*
X147940000Y-68317157D01*
X145940000Y-68317157D01*
X145865311Y-68324513D01*
X145793492Y-68346299D01*
X145727304Y-68381678D01*
X145669289Y-68429289D01*
X145621678Y-68487304D01*
X145586299Y-68553492D01*
X145564513Y-68625311D01*
X145557157Y-68700000D01*
X142839259Y-68700000D01*
X142913801Y-68560543D01*
X142965035Y-68391647D01*
X142982335Y-68216000D01*
X142965035Y-68040353D01*
X142913801Y-67871457D01*
X142830601Y-67715801D01*
X142718633Y-67579367D01*
X142582199Y-67467399D01*
X142579582Y-67466000D01*
X142582199Y-67464601D01*
X142718633Y-67352633D01*
X142830601Y-67216199D01*
X142913801Y-67060543D01*
X142965035Y-66891647D01*
X142982335Y-66716000D01*
X142965035Y-66540353D01*
X142913801Y-66371457D01*
X142830601Y-66215801D01*
X142718633Y-66079367D01*
X142582199Y-65967399D01*
X142579582Y-65966000D01*
X142582199Y-65964601D01*
X142718633Y-65852633D01*
X142830601Y-65716199D01*
X142913801Y-65560543D01*
X142965035Y-65391647D01*
X142982335Y-65216000D01*
X142965035Y-65040353D01*
X142913801Y-64871457D01*
X142830601Y-64715801D01*
X142718633Y-64579367D01*
X142582199Y-64467399D01*
X142579582Y-64466000D01*
X142582199Y-64464601D01*
X142718633Y-64352633D01*
X142830601Y-64216199D01*
X142913801Y-64060543D01*
X142965035Y-63891647D01*
X142982335Y-63716000D01*
X142965035Y-63540353D01*
X142913801Y-63371457D01*
X142830601Y-63215801D01*
X142718633Y-63079367D01*
X142582199Y-62967399D01*
X142426543Y-62884199D01*
X142257647Y-62832965D01*
X142126013Y-62820000D01*
X141337987Y-62820000D01*
X141206353Y-62832965D01*
X141037457Y-62884199D01*
X140881801Y-62967399D01*
X140745367Y-63079367D01*
X140633399Y-63215801D01*
X140550199Y-63371457D01*
X140498965Y-63540353D01*
X140481665Y-63716000D01*
X140498965Y-63891647D01*
X140550199Y-64060543D01*
X140633399Y-64216199D01*
X140745367Y-64352633D01*
X140881801Y-64464601D01*
X140884418Y-64466000D01*
X140881801Y-64467399D01*
X140745367Y-64579367D01*
X140633399Y-64715801D01*
X140550199Y-64871457D01*
X140498965Y-65040353D01*
X140481665Y-65216000D01*
X140498965Y-65391647D01*
X140550199Y-65560543D01*
X140633399Y-65716199D01*
X140745367Y-65852633D01*
X140881801Y-65964601D01*
X140884418Y-65966000D01*
X140881801Y-65967399D01*
X140745367Y-66079367D01*
X140633399Y-66215801D01*
X140550199Y-66371457D01*
X140498965Y-66540353D01*
X140481665Y-66716000D01*
X140498965Y-66891647D01*
X140550199Y-67060543D01*
X140633399Y-67216199D01*
X140745367Y-67352633D01*
X140881801Y-67464601D01*
X140884418Y-67466000D01*
X140881801Y-67467399D01*
X140745367Y-67579367D01*
X140633399Y-67715801D01*
X140550199Y-67871457D01*
X140498965Y-68040353D01*
X140481665Y-68216000D01*
X140498965Y-68391647D01*
X140550199Y-68560543D01*
X140633399Y-68716199D01*
X140745367Y-68852633D01*
X140881801Y-68964601D01*
X140884418Y-68966000D01*
X140881801Y-68967399D01*
X140745367Y-69079367D01*
X140633399Y-69215801D01*
X140550199Y-69371457D01*
X140498965Y-69540353D01*
X140481665Y-69716000D01*
X140498965Y-69891647D01*
X140550199Y-70060543D01*
X140633399Y-70216199D01*
X140745367Y-70352633D01*
X140881801Y-70464601D01*
X140884418Y-70466000D01*
X140881801Y-70467399D01*
X140745367Y-70579367D01*
X140633399Y-70715801D01*
X140550199Y-70871457D01*
X140498965Y-71040353D01*
X140481665Y-71216000D01*
X140498965Y-71391647D01*
X140550199Y-71560543D01*
X140633399Y-71716199D01*
X140745367Y-71852633D01*
X140881801Y-71964601D01*
X140884418Y-71966000D01*
X140881801Y-71967399D01*
X140745367Y-72079367D01*
X140633399Y-72215801D01*
X140550199Y-72371457D01*
X140498965Y-72540353D01*
X140481665Y-72716000D01*
X140498965Y-72891647D01*
X140550199Y-73060543D01*
X140633399Y-73216199D01*
X140745367Y-73352633D01*
X140881801Y-73464601D01*
X140884418Y-73466000D01*
X140881801Y-73467399D01*
X140745367Y-73579367D01*
X140633399Y-73715801D01*
X140550199Y-73871457D01*
X140498965Y-74040353D01*
X140481665Y-74216000D01*
X140498965Y-74391647D01*
X140550199Y-74560543D01*
X140633399Y-74716199D01*
X140745367Y-74852633D01*
X140881801Y-74964601D01*
X140884418Y-74966000D01*
X140881801Y-74967399D01*
X140745367Y-75079367D01*
X140633399Y-75215801D01*
X140550199Y-75371457D01*
X140498965Y-75540353D01*
X140481665Y-75716000D01*
X140498965Y-75891647D01*
X140550199Y-76060543D01*
X140633399Y-76216199D01*
X140745367Y-76352633D01*
X140881801Y-76464601D01*
X141037457Y-76547801D01*
X141206353Y-76599035D01*
X141337987Y-76612000D01*
X142126013Y-76612000D01*
X142257647Y-76599035D01*
X142426543Y-76547801D01*
X142568356Y-76472000D01*
X143448871Y-76472000D01*
X143486000Y-76475657D01*
X143523129Y-76472000D01*
X143634202Y-76461060D01*
X143776708Y-76417832D01*
X143908043Y-76347632D01*
X144023159Y-76253159D01*
X144046837Y-76224307D01*
X144315145Y-75956000D01*
X145657216Y-75956000D01*
X145669289Y-75970711D01*
X145727304Y-76018322D01*
X145793492Y-76053701D01*
X145865311Y-76075487D01*
X145940000Y-76082843D01*
X147940000Y-76082843D01*
X148014689Y-76075487D01*
X148086508Y-76053701D01*
X148152696Y-76018322D01*
X148210711Y-75970711D01*
X148222784Y-75956000D01*
X156156871Y-75956000D01*
X156194000Y-75959657D01*
X156231129Y-75956000D01*
X156342202Y-75945060D01*
X156484708Y-75901832D01*
X156616043Y-75831632D01*
X156731159Y-75737159D01*
X156754837Y-75708307D01*
X157099000Y-75364145D01*
X158697999Y-76963144D01*
X158698000Y-84348862D01*
X158694342Y-84386001D01*
X158708939Y-84534203D01*
X158752167Y-84676709D01*
X158756064Y-84684000D01*
X140106000Y-84684000D01*
X140106000Y-81700000D01*
X142023157Y-81700000D01*
X142023157Y-83400000D01*
X142030513Y-83474689D01*
X142052299Y-83546508D01*
X142087678Y-83612696D01*
X142135289Y-83670711D01*
X142193304Y-83718322D01*
X142259492Y-83753701D01*
X142331311Y-83775487D01*
X142406000Y-83782843D01*
X143242921Y-83782843D01*
X143252438Y-83792360D01*
X143280025Y-83825975D01*
X143340981Y-83876000D01*
X143414174Y-83936068D01*
X143474800Y-83968473D01*
X143567225Y-84017875D01*
X143733294Y-84068252D01*
X143862727Y-84081000D01*
X143862730Y-84081000D01*
X143906000Y-84085262D01*
X143949270Y-84081000D01*
X145921287Y-84081000D01*
X145940000Y-84082843D01*
X147940000Y-84082843D01*
X148014689Y-84075487D01*
X148086508Y-84053701D01*
X148152696Y-84018322D01*
X148210711Y-83970711D01*
X148258322Y-83912696D01*
X148293701Y-83846508D01*
X148315487Y-83774689D01*
X148322843Y-83700000D01*
X148322843Y-82700000D01*
X148315487Y-82625311D01*
X148293701Y-82553492D01*
X148258322Y-82487304D01*
X148210711Y-82429289D01*
X148152696Y-82381678D01*
X148086508Y-82346299D01*
X148014689Y-82324513D01*
X147940000Y-82317157D01*
X145940000Y-82317157D01*
X145921287Y-82319000D01*
X144488843Y-82319000D01*
X144488843Y-81700000D01*
X144481487Y-81625311D01*
X144459701Y-81553492D01*
X144424322Y-81487304D01*
X144376711Y-81429289D01*
X144318696Y-81381678D01*
X144252508Y-81346299D01*
X144180689Y-81324513D01*
X144106000Y-81317157D01*
X142406000Y-81317157D01*
X142331311Y-81324513D01*
X142259492Y-81346299D01*
X142193304Y-81381678D01*
X142135289Y-81429289D01*
X142087678Y-81487304D01*
X142052299Y-81553492D01*
X142030513Y-81625311D01*
X142023157Y-81700000D01*
X140106000Y-81700000D01*
X140106000Y-78700000D01*
X145557157Y-78700000D01*
X145557157Y-79700000D01*
X145564513Y-79774689D01*
X145586299Y-79846508D01*
X145621678Y-79912696D01*
X145669289Y-79970711D01*
X145727304Y-80018322D01*
X145793492Y-80053701D01*
X145865311Y-80075487D01*
X145940000Y-80082843D01*
X147940000Y-80082843D01*
X148014689Y-80075487D01*
X148086508Y-80053701D01*
X148152696Y-80018322D01*
X148210711Y-79970711D01*
X148258322Y-79912696D01*
X148293701Y-79846508D01*
X148315487Y-79774689D01*
X148322843Y-79700000D01*
X148322843Y-78700000D01*
X148315487Y-78625311D01*
X148293701Y-78553492D01*
X148258322Y-78487304D01*
X148210711Y-78429289D01*
X148152696Y-78381678D01*
X148086508Y-78346299D01*
X148014689Y-78324513D01*
X147940000Y-78317157D01*
X145940000Y-78317157D01*
X145865311Y-78324513D01*
X145793492Y-78346299D01*
X145727304Y-78381678D01*
X145669289Y-78429289D01*
X145621678Y-78487304D01*
X145586299Y-78553492D01*
X145564513Y-78625311D01*
X145557157Y-78700000D01*
X140106000Y-78700000D01*
X140106000Y-76700000D01*
X145557157Y-76700000D01*
X145557157Y-77700000D01*
X145564513Y-77774689D01*
X145586299Y-77846508D01*
X145621678Y-77912696D01*
X145669289Y-77970711D01*
X145727304Y-78018322D01*
X145793492Y-78053701D01*
X145865311Y-78075487D01*
X145940000Y-78082843D01*
X147940000Y-78082843D01*
X148014689Y-78075487D01*
X148086508Y-78053701D01*
X148152696Y-78018322D01*
X148210711Y-77970711D01*
X148258322Y-77912696D01*
X148293701Y-77846508D01*
X148315487Y-77774689D01*
X148322843Y-77700000D01*
X148322843Y-76700000D01*
X148315487Y-76625311D01*
X148293701Y-76553492D01*
X148258322Y-76487304D01*
X148210711Y-76429289D01*
X148152696Y-76381678D01*
X148086508Y-76346299D01*
X148014689Y-76324513D01*
X147940000Y-76317157D01*
X145940000Y-76317157D01*
X145865311Y-76324513D01*
X145793492Y-76346299D01*
X145727304Y-76381678D01*
X145669289Y-76429289D01*
X145621678Y-76487304D01*
X145586299Y-76553492D01*
X145564513Y-76625311D01*
X145557157Y-76700000D01*
X140106000Y-76700000D01*
X140106000Y-55142000D01*
X140481665Y-55142000D01*
X140498965Y-55317647D01*
X140550199Y-55486543D01*
X140633399Y-55642199D01*
X140745367Y-55778633D01*
X140806533Y-55828830D01*
X140765411Y-55850810D01*
X140669512Y-55929512D01*
X140590810Y-56025411D01*
X140532329Y-56134821D01*
X140496317Y-56253538D01*
X140484157Y-56376999D01*
X140484157Y-56907001D01*
X140496317Y-57030462D01*
X140532329Y-57149179D01*
X140590810Y-57258589D01*
X140669512Y-57354488D01*
X140765411Y-57433190D01*
X140874821Y-57491671D01*
X140993538Y-57527683D01*
X141116999Y-57539843D01*
X142347001Y-57539843D01*
X142470462Y-57527683D01*
X142589179Y-57491671D01*
X142698589Y-57433190D01*
X142794488Y-57354488D01*
X142873190Y-57258589D01*
X142931671Y-57149179D01*
X142967683Y-57030462D01*
X142979843Y-56907001D01*
X142979843Y-56376999D01*
X142967683Y-56253538D01*
X142931671Y-56134821D01*
X142873190Y-56025411D01*
X142794488Y-55929512D01*
X142698589Y-55850810D01*
X142657467Y-55828830D01*
X142718633Y-55778633D01*
X142830601Y-55642199D01*
X142913801Y-55486543D01*
X142965035Y-55317647D01*
X142982335Y-55142000D01*
X142965035Y-54966353D01*
X142913801Y-54797457D01*
X142830601Y-54641801D01*
X142718633Y-54505367D01*
X142582199Y-54393399D01*
X142426543Y-54310199D01*
X142257647Y-54258965D01*
X142126013Y-54246000D01*
X141337987Y-54246000D01*
X141206353Y-54258965D01*
X141037457Y-54310199D01*
X140881801Y-54393399D01*
X140745367Y-54505367D01*
X140633399Y-54641801D01*
X140550199Y-54797457D01*
X140498965Y-54966353D01*
X140481665Y-55142000D01*
X140106000Y-55142000D01*
X140106000Y-51206000D01*
X210414000Y-51206000D01*
X210414001Y-63988049D01*
G04 #@! TA.AperFunction,Conductor*
D24*
G36*
X210414001Y-63988049D02*
G01*
X210412036Y-64008000D01*
X210419875Y-64087590D01*
X210443090Y-64164121D01*
X210480790Y-64234653D01*
X210531526Y-64296474D01*
X210593347Y-64347210D01*
X210663879Y-64384910D01*
X210740410Y-64408125D01*
X210800059Y-64414000D01*
X210800060Y-64414000D01*
X210820000Y-64415964D01*
X210839941Y-64414000D01*
X217780000Y-64414000D01*
X217780001Y-84684000D01*
X208945146Y-84684000D01*
X209042306Y-84586840D01*
X209071159Y-84563161D01*
X209165632Y-84448045D01*
X209235832Y-84316710D01*
X209279060Y-84174204D01*
X209287820Y-84085262D01*
X209292733Y-84035380D01*
X209302322Y-84023696D01*
X209337701Y-83957508D01*
X209359487Y-83885689D01*
X209366843Y-83811000D01*
X209366843Y-81811000D01*
X209359487Y-81736311D01*
X209337701Y-81664492D01*
X209302322Y-81598304D01*
X209254711Y-81540289D01*
X209196696Y-81492678D01*
X209130508Y-81457299D01*
X209085842Y-81443750D01*
X209738592Y-80791000D01*
X209880922Y-80791000D01*
X210031809Y-80760987D01*
X210173942Y-80702113D01*
X210301859Y-80616642D01*
X210410642Y-80507859D01*
X210496113Y-80379942D01*
X210554987Y-80237809D01*
X210585000Y-80086922D01*
X210585000Y-79933078D01*
X210554987Y-79782191D01*
X210496113Y-79640058D01*
X210410642Y-79512141D01*
X210301859Y-79403358D01*
X210173942Y-79317887D01*
X210031809Y-79259013D01*
X209880922Y-79229000D01*
X209727078Y-79229000D01*
X209576191Y-79259013D01*
X209434058Y-79317887D01*
X209306141Y-79403358D01*
X209197358Y-79512141D01*
X209111887Y-79640058D01*
X209053013Y-79782191D01*
X209023000Y-79933078D01*
X209023000Y-80075408D01*
X208193780Y-80904629D01*
X208174474Y-80920473D01*
X208111242Y-80997521D01*
X208095780Y-81026448D01*
X208064255Y-81085426D01*
X208035322Y-81180808D01*
X208025553Y-81280000D01*
X208028001Y-81304856D01*
X208028001Y-81433672D01*
X208009311Y-81435513D01*
X207937492Y-81457299D01*
X207899000Y-81477874D01*
X207860508Y-81457299D01*
X207788689Y-81435513D01*
X207714000Y-81428157D01*
X207623142Y-81428157D01*
X207604220Y-81412628D01*
X206640219Y-80448628D01*
X206686113Y-80379942D01*
X206744987Y-80237809D01*
X206775000Y-80086922D01*
X206775000Y-79933078D01*
X206744987Y-79782191D01*
X206686113Y-79640058D01*
X206600642Y-79512141D01*
X206491859Y-79403358D01*
X206363942Y-79317887D01*
X206221809Y-79259013D01*
X206070922Y-79229000D01*
X205917078Y-79229000D01*
X205766191Y-79259013D01*
X205624058Y-79317887D01*
X205496141Y-79403358D01*
X205387358Y-79512141D01*
X205301887Y-79640058D01*
X205243013Y-79782191D01*
X205213000Y-79933078D01*
X205213000Y-80086922D01*
X205243013Y-80237809D01*
X205301887Y-80379942D01*
X205387358Y-80507859D01*
X205495172Y-80615673D01*
X205495322Y-80617192D01*
X205524255Y-80712574D01*
X205571241Y-80800479D01*
X205634473Y-80877527D01*
X205653785Y-80893376D01*
X206188566Y-81428157D01*
X205544000Y-81428157D01*
X205469311Y-81435513D01*
X205397492Y-81457299D01*
X205359000Y-81477874D01*
X205320508Y-81457299D01*
X205248689Y-81435513D01*
X205174000Y-81428157D01*
X204274000Y-81428157D01*
X204199311Y-81435513D01*
X204127492Y-81457299D01*
X204089000Y-81477874D01*
X204050508Y-81457299D01*
X203978689Y-81435513D01*
X203904000Y-81428157D01*
X203004000Y-81428157D01*
X202929311Y-81435513D01*
X202857492Y-81457299D01*
X202819000Y-81477874D01*
X202780508Y-81457299D01*
X202708689Y-81435513D01*
X202634000Y-81428157D01*
X201734000Y-81428157D01*
X201659311Y-81435513D01*
X201587492Y-81457299D01*
X201549000Y-81477874D01*
X201510508Y-81457299D01*
X201438689Y-81435513D01*
X201364000Y-81428157D01*
X200464000Y-81428157D01*
X200389311Y-81435513D01*
X200317492Y-81457299D01*
X200279000Y-81477874D01*
X200240508Y-81457299D01*
X200168689Y-81435513D01*
X200094000Y-81428157D01*
X199194000Y-81428157D01*
X199119311Y-81435513D01*
X199047492Y-81457299D01*
X199009000Y-81477874D01*
X198970508Y-81457299D01*
X198898689Y-81435513D01*
X198824000Y-81428157D01*
X197924000Y-81428157D01*
X197849311Y-81435513D01*
X197777492Y-81457299D01*
X197739000Y-81477874D01*
X197700508Y-81457299D01*
X197628689Y-81435513D01*
X197554000Y-81428157D01*
X196654000Y-81428157D01*
X196579311Y-81435513D01*
X196507492Y-81457299D01*
X196469000Y-81477874D01*
X196430508Y-81457299D01*
X196358689Y-81435513D01*
X196284000Y-81428157D01*
X195384000Y-81428157D01*
X195309311Y-81435513D01*
X195237492Y-81457299D01*
X195199000Y-81477874D01*
X195160508Y-81457299D01*
X195088689Y-81435513D01*
X195014000Y-81428157D01*
X194114000Y-81428157D01*
X194039311Y-81435513D01*
X193967492Y-81457299D01*
X193929000Y-81477874D01*
X193890508Y-81457299D01*
X193818689Y-81435513D01*
X193744000Y-81428157D01*
X192844000Y-81428157D01*
X192769311Y-81435513D01*
X192697492Y-81457299D01*
X192631304Y-81492678D01*
X192573289Y-81540289D01*
X192525678Y-81598304D01*
X192490299Y-81664492D01*
X192468513Y-81736311D01*
X192461157Y-81811000D01*
X192461157Y-83630001D01*
X190494000Y-83630001D01*
X190494000Y-82244607D01*
X190519000Y-82118922D01*
X190519000Y-81965078D01*
X190488987Y-81814191D01*
X190430113Y-81672058D01*
X190344642Y-81544141D01*
X190235859Y-81435358D01*
X190107942Y-81349887D01*
X189965809Y-81291013D01*
X189814922Y-81261000D01*
X189661078Y-81261000D01*
X189510191Y-81291013D01*
X189368058Y-81349887D01*
X189240141Y-81435358D01*
X189131358Y-81544141D01*
X189045887Y-81672058D01*
X188987013Y-81814191D01*
X188957000Y-81965078D01*
X188957000Y-82118922D01*
X188982000Y-82244607D01*
X188982001Y-83630001D01*
X186497500Y-83630001D01*
X186534642Y-83592859D01*
X186620113Y-83464942D01*
X186678987Y-83322809D01*
X186709000Y-83171922D01*
X186709000Y-83018078D01*
X186678987Y-82867191D01*
X186620113Y-82725058D01*
X186534642Y-82597141D01*
X186425859Y-82488358D01*
X186297942Y-82402887D01*
X186155809Y-82344013D01*
X186004922Y-82314000D01*
X185851078Y-82314000D01*
X185700191Y-82344013D01*
X185558058Y-82402887D01*
X185430141Y-82488358D01*
X185321358Y-82597141D01*
X185235887Y-82725058D01*
X185177013Y-82867191D01*
X185147000Y-83018078D01*
X185147000Y-83171922D01*
X185177013Y-83322809D01*
X185235887Y-83464942D01*
X185321358Y-83592859D01*
X185358500Y-83630001D01*
X174492000Y-83630001D01*
X174492000Y-80466607D01*
X174517000Y-80340922D01*
X174517000Y-80187078D01*
X174486987Y-80036191D01*
X174428113Y-79894058D01*
X174342642Y-79766141D01*
X174233859Y-79657358D01*
X174105942Y-79571887D01*
X173963809Y-79513013D01*
X173812922Y-79483000D01*
X173659078Y-79483000D01*
X173508191Y-79513013D01*
X173366058Y-79571887D01*
X173238141Y-79657358D01*
X173129358Y-79766141D01*
X173043887Y-79894058D01*
X172985013Y-80036191D01*
X172955000Y-80187078D01*
X172955000Y-80340922D01*
X172980000Y-80466607D01*
X172980001Y-83630001D01*
X169354302Y-83630001D01*
X169406987Y-83502809D01*
X169437000Y-83351922D01*
X169437000Y-83198078D01*
X169406987Y-83047191D01*
X169348113Y-82905058D01*
X169262642Y-82777141D01*
X169161130Y-82675629D01*
X169154678Y-82610122D01*
X169125745Y-82514740D01*
X169078759Y-82426836D01*
X169015527Y-82349788D01*
X168996220Y-82333943D01*
X164322843Y-77660567D01*
X164322843Y-77274889D01*
X166421000Y-77274889D01*
X166421000Y-77665111D01*
X166497129Y-78047836D01*
X166646461Y-78408355D01*
X166863257Y-78732814D01*
X167139186Y-79008743D01*
X167463645Y-79225539D01*
X167824164Y-79374871D01*
X168206889Y-79451000D01*
X168597111Y-79451000D01*
X168979836Y-79374871D01*
X169340355Y-79225539D01*
X169664814Y-79008743D01*
X169940743Y-78732814D01*
X170157539Y-78408355D01*
X170306871Y-78047836D01*
X170383000Y-77665111D01*
X170383000Y-77274889D01*
X170306871Y-76892164D01*
X170157539Y-76531645D01*
X169940743Y-76207186D01*
X169664814Y-75931257D01*
X169340355Y-75714461D01*
X168979836Y-75565129D01*
X168597111Y-75489000D01*
X168206889Y-75489000D01*
X167824164Y-75565129D01*
X167463645Y-75714461D01*
X167139186Y-75931257D01*
X166863257Y-76207186D01*
X166646461Y-76531645D01*
X166497129Y-76892164D01*
X166421000Y-77274889D01*
X164322843Y-77274889D01*
X164322843Y-76700000D01*
X164315487Y-76625311D01*
X164293701Y-76553492D01*
X164258322Y-76487304D01*
X164210711Y-76429289D01*
X164152696Y-76381678D01*
X164086508Y-76346299D01*
X164014689Y-76324513D01*
X163940000Y-76317157D01*
X161940000Y-76317157D01*
X161865311Y-76324513D01*
X161793492Y-76346299D01*
X161727304Y-76381678D01*
X161669289Y-76429289D01*
X161621678Y-76487304D01*
X161586299Y-76553492D01*
X161564513Y-76625311D01*
X161557157Y-76700000D01*
X161557157Y-77700000D01*
X161564513Y-77774689D01*
X161586299Y-77846508D01*
X161621678Y-77912696D01*
X161669289Y-77970711D01*
X161727304Y-78018322D01*
X161793492Y-78053701D01*
X161865311Y-78075487D01*
X161940000Y-78082843D01*
X163313937Y-78082843D01*
X163548251Y-78317157D01*
X161940000Y-78317157D01*
X161865311Y-78324513D01*
X161793492Y-78346299D01*
X161727304Y-78381678D01*
X161669289Y-78429289D01*
X161621678Y-78487304D01*
X161586299Y-78553492D01*
X161564513Y-78625311D01*
X161557157Y-78700000D01*
X161557157Y-79700000D01*
X161564513Y-79774689D01*
X161586299Y-79846508D01*
X161621678Y-79912696D01*
X161669289Y-79970711D01*
X161727304Y-80018322D01*
X161793492Y-80053701D01*
X161865311Y-80075487D01*
X161940000Y-80082843D01*
X163940000Y-80082843D01*
X164014689Y-80075487D01*
X164086508Y-80053701D01*
X164143595Y-80023187D01*
X166605000Y-82484592D01*
X166605000Y-82626922D01*
X166635013Y-82777809D01*
X166693887Y-82919942D01*
X166779358Y-83047859D01*
X166888141Y-83156642D01*
X167016058Y-83242113D01*
X167158191Y-83300987D01*
X167309078Y-83331000D01*
X167462922Y-83331000D01*
X167613809Y-83300987D01*
X167755942Y-83242113D01*
X167883147Y-83157117D01*
X167875000Y-83198078D01*
X167875000Y-83351922D01*
X167905013Y-83502809D01*
X167957698Y-83630001D01*
X160209999Y-83630001D01*
X160209999Y-80700000D01*
X161557157Y-80700000D01*
X161557157Y-81700000D01*
X161564513Y-81774689D01*
X161586299Y-81846508D01*
X161621678Y-81912696D01*
X161669289Y-81970711D01*
X161727304Y-82018322D01*
X161793492Y-82053701D01*
X161865311Y-82075487D01*
X161940000Y-82082843D01*
X163940000Y-82082843D01*
X164014689Y-82075487D01*
X164086508Y-82053701D01*
X164152696Y-82018322D01*
X164210711Y-81970711D01*
X164258322Y-81912696D01*
X164293701Y-81846508D01*
X164315487Y-81774689D01*
X164322843Y-81700000D01*
X164322843Y-80700000D01*
X164315487Y-80625311D01*
X164293701Y-80553492D01*
X164258322Y-80487304D01*
X164210711Y-80429289D01*
X164152696Y-80381678D01*
X164086508Y-80346299D01*
X164014689Y-80324513D01*
X163940000Y-80317157D01*
X161940000Y-80317157D01*
X161865311Y-80324513D01*
X161793492Y-80346299D01*
X161727304Y-80381678D01*
X161669289Y-80429289D01*
X161621678Y-80487304D01*
X161586299Y-80553492D01*
X161564513Y-80625311D01*
X161557157Y-80700000D01*
X160209999Y-80700000D01*
X160209999Y-76687128D01*
X160213656Y-76649999D01*
X160199059Y-76501797D01*
X160173589Y-76417832D01*
X160155831Y-76359291D01*
X160085631Y-76227956D01*
X159991158Y-76112840D01*
X159962312Y-76089167D01*
X157474000Y-73600856D01*
X157474000Y-67704142D01*
X158085114Y-67093029D01*
X158801393Y-67093029D01*
X158927078Y-67118029D01*
X159080922Y-67118029D01*
X159231809Y-67088016D01*
X159373942Y-67029142D01*
X159501859Y-66943671D01*
X159610642Y-66834888D01*
X159696113Y-66706971D01*
X159754987Y-66564838D01*
X159785000Y-66413951D01*
X159785000Y-66260107D01*
X159756739Y-66118028D01*
X164565989Y-66118029D01*
X174141959Y-75694000D01*
X173183592Y-75694000D01*
X166897000Y-69407409D01*
X166897000Y-69265078D01*
X166866987Y-69114191D01*
X166808113Y-68972058D01*
X166722642Y-68844141D01*
X166613859Y-68735358D01*
X166485942Y-68649887D01*
X166343809Y-68591013D01*
X166192922Y-68561000D01*
X166039078Y-68561000D01*
X165888191Y-68591013D01*
X165746058Y-68649887D01*
X165618141Y-68735358D01*
X165509358Y-68844141D01*
X165423887Y-68972058D01*
X165365013Y-69114191D01*
X165335000Y-69265078D01*
X165335000Y-69418922D01*
X165365013Y-69569809D01*
X165423887Y-69711942D01*
X165509358Y-69839859D01*
X165618141Y-69948642D01*
X165746058Y-70034113D01*
X165888191Y-70092987D01*
X166039078Y-70123000D01*
X166181409Y-70123000D01*
X166797952Y-70739543D01*
X166780575Y-70730255D01*
X166685193Y-70701322D01*
X166610854Y-70694000D01*
X166610846Y-70694000D01*
X166586000Y-70691553D01*
X166561154Y-70694000D01*
X164322252Y-70694000D01*
X164315487Y-70625311D01*
X164293701Y-70553492D01*
X164258322Y-70487304D01*
X164210711Y-70429289D01*
X164152696Y-70381678D01*
X164086508Y-70346299D01*
X164014689Y-70324513D01*
X163940000Y-70317157D01*
X161940000Y-70317157D01*
X161865311Y-70324513D01*
X161793492Y-70346299D01*
X161727304Y-70381678D01*
X161669289Y-70429289D01*
X161621678Y-70487304D01*
X161586299Y-70553492D01*
X161564513Y-70625311D01*
X161557157Y-70700000D01*
X161557157Y-71700000D01*
X161564513Y-71774689D01*
X161586299Y-71846508D01*
X161621678Y-71912696D01*
X161669289Y-71970711D01*
X161727304Y-72018322D01*
X161793492Y-72053701D01*
X161865311Y-72075487D01*
X161940000Y-72082843D01*
X163940000Y-72082843D01*
X164014689Y-72075487D01*
X164086508Y-72053701D01*
X164152696Y-72018322D01*
X164210711Y-71970711D01*
X164258322Y-71912696D01*
X164293701Y-71846508D01*
X164315487Y-71774689D01*
X164322252Y-71706000D01*
X166376409Y-71706000D01*
X166808883Y-72138475D01*
X166700922Y-72117000D01*
X166547078Y-72117000D01*
X166396191Y-72147013D01*
X166254058Y-72205887D01*
X166126141Y-72291358D01*
X166017358Y-72400141D01*
X165931887Y-72528058D01*
X165873013Y-72670191D01*
X165843000Y-72821078D01*
X165843000Y-72904909D01*
X165792113Y-72782058D01*
X165706642Y-72654141D01*
X165597859Y-72545358D01*
X165469942Y-72459887D01*
X165327809Y-72401013D01*
X165176922Y-72371000D01*
X165023078Y-72371000D01*
X164872191Y-72401013D01*
X164730058Y-72459887D01*
X164602141Y-72545358D01*
X164501499Y-72646000D01*
X164317525Y-72646000D01*
X164315487Y-72625311D01*
X164293701Y-72553492D01*
X164258322Y-72487304D01*
X164210711Y-72429289D01*
X164152696Y-72381678D01*
X164086508Y-72346299D01*
X164014689Y-72324513D01*
X163940000Y-72317157D01*
X161940000Y-72317157D01*
X161865311Y-72324513D01*
X161793492Y-72346299D01*
X161727304Y-72381678D01*
X161669289Y-72429289D01*
X161621678Y-72487304D01*
X161586299Y-72553492D01*
X161564513Y-72625311D01*
X161557157Y-72700000D01*
X161557157Y-73700000D01*
X161564513Y-73774689D01*
X161586299Y-73846508D01*
X161621678Y-73912696D01*
X161669289Y-73970711D01*
X161727304Y-74018322D01*
X161793492Y-74053701D01*
X161865311Y-74075487D01*
X161940000Y-74082843D01*
X163940000Y-74082843D01*
X164014689Y-74075487D01*
X164086508Y-74053701D01*
X164152696Y-74018322D01*
X164210711Y-73970711D01*
X164258322Y-73912696D01*
X164293701Y-73846508D01*
X164315487Y-73774689D01*
X164322843Y-73700000D01*
X164322843Y-73658000D01*
X164501499Y-73658000D01*
X164602141Y-73758642D01*
X164730058Y-73844113D01*
X164872191Y-73902987D01*
X164898240Y-73908168D01*
X164279495Y-74526914D01*
X164258322Y-74487304D01*
X164210711Y-74429289D01*
X164152696Y-74381678D01*
X164086508Y-74346299D01*
X164014689Y-74324513D01*
X163940000Y-74317157D01*
X161940000Y-74317157D01*
X161865311Y-74324513D01*
X161793492Y-74346299D01*
X161727304Y-74381678D01*
X161669289Y-74429289D01*
X161621678Y-74487304D01*
X161586299Y-74553492D01*
X161564513Y-74625311D01*
X161557157Y-74700000D01*
X161557157Y-75700000D01*
X161564513Y-75774689D01*
X161586299Y-75846508D01*
X161621678Y-75912696D01*
X161669289Y-75970711D01*
X161727304Y-76018322D01*
X161793492Y-76053701D01*
X161865311Y-76075487D01*
X161940000Y-76082843D01*
X163940000Y-76082843D01*
X164014689Y-76075487D01*
X164086508Y-76053701D01*
X164152696Y-76018322D01*
X164210711Y-75970711D01*
X164258322Y-75912696D01*
X164293701Y-75846508D01*
X164315487Y-75774689D01*
X164322011Y-75708446D01*
X164346846Y-75706000D01*
X164346854Y-75706000D01*
X164421193Y-75698678D01*
X164516575Y-75669745D01*
X164604479Y-75622759D01*
X164681527Y-75559527D01*
X164697376Y-75540215D01*
X166558592Y-73679000D01*
X166700922Y-73679000D01*
X166851809Y-73648987D01*
X166993942Y-73590113D01*
X167121859Y-73504642D01*
X167230642Y-73395859D01*
X167316113Y-73267942D01*
X167374987Y-73125809D01*
X167400408Y-72998006D01*
X167455887Y-73131942D01*
X167541358Y-73259859D01*
X167650141Y-73368642D01*
X167778058Y-73454113D01*
X167920191Y-73512987D01*
X168071078Y-73543000D01*
X168224922Y-73543000D01*
X168375809Y-73512987D01*
X168517942Y-73454113D01*
X168645859Y-73368642D01*
X168754642Y-73259859D01*
X168840113Y-73131942D01*
X168898987Y-72989809D01*
X168923746Y-72865337D01*
X172598628Y-76540220D01*
X172614473Y-76559527D01*
X172691521Y-76622759D01*
X172772419Y-76666000D01*
X172779425Y-76669745D01*
X172874807Y-76698678D01*
X172974000Y-76708448D01*
X172998854Y-76706000D01*
X178217499Y-76706000D01*
X178318141Y-76806642D01*
X178446058Y-76892113D01*
X178588191Y-76950987D01*
X178739078Y-76981000D01*
X178892922Y-76981000D01*
X179043809Y-76950987D01*
X179185942Y-76892113D01*
X179313859Y-76806642D01*
X179422642Y-76697859D01*
X179508113Y-76569942D01*
X179566987Y-76427809D01*
X179597000Y-76276922D01*
X179597000Y-76123078D01*
X179566987Y-75972191D01*
X179555310Y-75944000D01*
X180088000Y-75944000D01*
X180088001Y-76363498D01*
X179987358Y-76464141D01*
X179901887Y-76592058D01*
X179843013Y-76734191D01*
X179813000Y-76885078D01*
X179813000Y-77038922D01*
X179843013Y-77189809D01*
X179901887Y-77331942D01*
X179987358Y-77459859D01*
X180096141Y-77568642D01*
X180224058Y-77654113D01*
X180366191Y-77712987D01*
X180517078Y-77743000D01*
X180670922Y-77743000D01*
X180821809Y-77712987D01*
X180885321Y-77686679D01*
X180859013Y-77750191D01*
X180829000Y-77901078D01*
X180829000Y-78054922D01*
X180859013Y-78205809D01*
X180917887Y-78347942D01*
X181003358Y-78475859D01*
X181112141Y-78584642D01*
X181240058Y-78670113D01*
X181382191Y-78728987D01*
X181533078Y-78759000D01*
X181686922Y-78759000D01*
X181837809Y-78728987D01*
X181979942Y-78670113D01*
X182107859Y-78584642D01*
X182216642Y-78475859D01*
X182302113Y-78347942D01*
X182360987Y-78205809D01*
X182391000Y-78054922D01*
X182391000Y-77901078D01*
X182360987Y-77750191D01*
X182302113Y-77608058D01*
X182216642Y-77480141D01*
X182116000Y-77379499D01*
X182116000Y-75389592D01*
X182607000Y-75880592D01*
X182607000Y-76022922D01*
X182637013Y-76173809D01*
X182695887Y-76315942D01*
X182781358Y-76443859D01*
X182890141Y-76552642D01*
X183018058Y-76638113D01*
X183086879Y-76666620D01*
X183030705Y-76722794D01*
X182945234Y-76850711D01*
X182886360Y-76992844D01*
X182856347Y-77143731D01*
X182856347Y-77297575D01*
X182886360Y-77448462D01*
X182945234Y-77590595D01*
X183030705Y-77718512D01*
X183139488Y-77827295D01*
X183267405Y-77912766D01*
X183409538Y-77971640D01*
X183560425Y-78001653D01*
X183714269Y-78001653D01*
X183865156Y-77971640D01*
X184007289Y-77912766D01*
X184135206Y-77827295D01*
X184243989Y-77718512D01*
X184329460Y-77590595D01*
X184388334Y-77448462D01*
X184418347Y-77297575D01*
X184418347Y-77155245D01*
X184453221Y-77120371D01*
X184472528Y-77104526D01*
X184535760Y-77027478D01*
X184582746Y-76939574D01*
X184611679Y-76844192D01*
X184619001Y-76769853D01*
X184619001Y-76769846D01*
X184621448Y-76745000D01*
X184619001Y-76720154D01*
X184619001Y-65524590D01*
X184660001Y-65483590D01*
X184660000Y-68096853D01*
X184660001Y-68096863D01*
X184660000Y-77379499D01*
X184559358Y-77480141D01*
X184473887Y-77608058D01*
X184415013Y-77750191D01*
X184385000Y-77901078D01*
X184385000Y-78054922D01*
X184415013Y-78205809D01*
X184473887Y-78347942D01*
X184559358Y-78475859D01*
X184668141Y-78584642D01*
X184796058Y-78670113D01*
X184938191Y-78728987D01*
X185089078Y-78759000D01*
X185242922Y-78759000D01*
X185393809Y-78728987D01*
X185535942Y-78670113D01*
X185663859Y-78584642D01*
X185772642Y-78475859D01*
X185858113Y-78347942D01*
X185916987Y-78205809D01*
X185947000Y-78054922D01*
X185947000Y-77901078D01*
X185916987Y-77750191D01*
X185858113Y-77608058D01*
X185772642Y-77480141D01*
X185672000Y-77379499D01*
X185672000Y-65544593D01*
X188468543Y-62748050D01*
X188470001Y-62762856D01*
X188470000Y-66064853D01*
X188470001Y-66064863D01*
X188470000Y-66826853D01*
X188470001Y-66826863D01*
X188470000Y-74331499D01*
X188369358Y-74432141D01*
X188283887Y-74560058D01*
X188225013Y-74702191D01*
X188195000Y-74853078D01*
X188195000Y-75006922D01*
X188225013Y-75157809D01*
X188283887Y-75299942D01*
X188369358Y-75427859D01*
X188478141Y-75536642D01*
X188606058Y-75622113D01*
X188748191Y-75680987D01*
X188899078Y-75711000D01*
X189052922Y-75711000D01*
X189203809Y-75680987D01*
X189345942Y-75622113D01*
X189473859Y-75536642D01*
X189582642Y-75427859D01*
X189668113Y-75299942D01*
X189726987Y-75157809D01*
X189757000Y-75006922D01*
X189757000Y-74853078D01*
X189726987Y-74702191D01*
X189668113Y-74560058D01*
X189582642Y-74432141D01*
X189482000Y-74331499D01*
X189482000Y-68146000D01*
X190911157Y-68146000D01*
X190911157Y-69046000D01*
X190918513Y-69120689D01*
X190940299Y-69192508D01*
X190960874Y-69231000D01*
X190940299Y-69269492D01*
X190918513Y-69341311D01*
X190911157Y-69416000D01*
X190911157Y-70316000D01*
X190918513Y-70390689D01*
X190940299Y-70462508D01*
X190960874Y-70501000D01*
X190940299Y-70539492D01*
X190918513Y-70611311D01*
X190911157Y-70686000D01*
X190911157Y-71586000D01*
X190918513Y-71660689D01*
X190940299Y-71732508D01*
X190960874Y-71771000D01*
X190940299Y-71809492D01*
X190918513Y-71881311D01*
X190911157Y-71956000D01*
X190911157Y-72856000D01*
X190918513Y-72930689D01*
X190940299Y-73002508D01*
X190960874Y-73041000D01*
X190940299Y-73079492D01*
X190918513Y-73151311D01*
X190911157Y-73226000D01*
X190911157Y-74126000D01*
X190918513Y-74200689D01*
X190940299Y-74272508D01*
X190960874Y-74311000D01*
X190940299Y-74349492D01*
X190918513Y-74421311D01*
X190911157Y-74496000D01*
X190911157Y-75396000D01*
X190918513Y-75470689D01*
X190940299Y-75542508D01*
X190960874Y-75581000D01*
X190940299Y-75619492D01*
X190918513Y-75691311D01*
X190911157Y-75766000D01*
X190911157Y-76666000D01*
X190918513Y-76740689D01*
X190940299Y-76812508D01*
X190960874Y-76851000D01*
X190940299Y-76889492D01*
X190918513Y-76961311D01*
X190911157Y-77036000D01*
X190911157Y-77936000D01*
X190918513Y-78010689D01*
X190940299Y-78082508D01*
X190960874Y-78121000D01*
X190940299Y-78159492D01*
X190918513Y-78231311D01*
X190911157Y-78306000D01*
X190911157Y-79206000D01*
X190918513Y-79280689D01*
X190940299Y-79352508D01*
X190975678Y-79418696D01*
X191023289Y-79476711D01*
X191081304Y-79524322D01*
X191147492Y-79559701D01*
X191219311Y-79581487D01*
X191294000Y-79588843D01*
X193294000Y-79588843D01*
X193368689Y-79581487D01*
X193440508Y-79559701D01*
X193506696Y-79524322D01*
X193564711Y-79476711D01*
X193612322Y-79418696D01*
X193647701Y-79352508D01*
X193669487Y-79280689D01*
X193676843Y-79206000D01*
X193676843Y-78306000D01*
X193669487Y-78231311D01*
X193647701Y-78159492D01*
X193627126Y-78121000D01*
X193647701Y-78082508D01*
X193669487Y-78010689D01*
X193676843Y-77936000D01*
X193676843Y-77036000D01*
X193669487Y-76961311D01*
X193647701Y-76889492D01*
X193627126Y-76851000D01*
X193647701Y-76812508D01*
X193669487Y-76740689D01*
X193676843Y-76666000D01*
X193676843Y-75766000D01*
X193669487Y-75691311D01*
X193647701Y-75619492D01*
X193627126Y-75581000D01*
X193647701Y-75542508D01*
X193669487Y-75470689D01*
X193676843Y-75396000D01*
X193676843Y-74496000D01*
X193669487Y-74421311D01*
X193647701Y-74349492D01*
X193627126Y-74311000D01*
X193647701Y-74272508D01*
X193669487Y-74200689D01*
X193676843Y-74126000D01*
X193676843Y-73226000D01*
X193669487Y-73151311D01*
X193647701Y-73079492D01*
X193627126Y-73041000D01*
X193647701Y-73002508D01*
X193669487Y-72930689D01*
X193676843Y-72856000D01*
X193676843Y-71956000D01*
X193669487Y-71881311D01*
X193647701Y-71809492D01*
X193627126Y-71771000D01*
X193647701Y-71732508D01*
X193669487Y-71660689D01*
X193676843Y-71586000D01*
X193676843Y-70686000D01*
X193669487Y-70611311D01*
X193647701Y-70539492D01*
X193627126Y-70501000D01*
X193647701Y-70462508D01*
X193669487Y-70390689D01*
X193676843Y-70316000D01*
X193676843Y-69416000D01*
X193669487Y-69341311D01*
X193647701Y-69269492D01*
X193627126Y-69231000D01*
X193647701Y-69192508D01*
X193669487Y-69120689D01*
X193676843Y-69046000D01*
X193676843Y-68146000D01*
X193669487Y-68071311D01*
X193647701Y-67999492D01*
X193612322Y-67933304D01*
X193564711Y-67875289D01*
X193506696Y-67827678D01*
X193440508Y-67792299D01*
X193368689Y-67770513D01*
X193294000Y-67763157D01*
X191294000Y-67763157D01*
X191219311Y-67770513D01*
X191147492Y-67792299D01*
X191081304Y-67827678D01*
X191023289Y-67875289D01*
X190975678Y-67933304D01*
X190940299Y-67999492D01*
X190918513Y-68071311D01*
X190911157Y-68146000D01*
X189482000Y-68146000D01*
X189482000Y-64811000D01*
X192461157Y-64811000D01*
X192461157Y-66811000D01*
X192468513Y-66885689D01*
X192490299Y-66957508D01*
X192525678Y-67023696D01*
X192573289Y-67081711D01*
X192631304Y-67129322D01*
X192697492Y-67164701D01*
X192769311Y-67186487D01*
X192844000Y-67193843D01*
X193744000Y-67193843D01*
X193818689Y-67186487D01*
X193890508Y-67164701D01*
X193929000Y-67144126D01*
X193967492Y-67164701D01*
X194039311Y-67186487D01*
X194114000Y-67193843D01*
X195014000Y-67193843D01*
X195088689Y-67186487D01*
X195160508Y-67164701D01*
X195199000Y-67144126D01*
X195237492Y-67164701D01*
X195309311Y-67186487D01*
X195328000Y-67188328D01*
X195328000Y-67727499D01*
X195227358Y-67828141D01*
X195141887Y-67956058D01*
X195083013Y-68098191D01*
X195053000Y-68249078D01*
X195053000Y-68402922D01*
X195083013Y-68553809D01*
X195141887Y-68695942D01*
X195227358Y-68823859D01*
X195336141Y-68932642D01*
X195464058Y-69018113D01*
X195606191Y-69076987D01*
X195757078Y-69107000D01*
X195910922Y-69107000D01*
X196061809Y-69076987D01*
X196203942Y-69018113D01*
X196331859Y-68932642D01*
X196440642Y-68823859D01*
X196526113Y-68695942D01*
X196584987Y-68553809D01*
X196598001Y-68488384D01*
X196598001Y-69132407D01*
X196407408Y-69323000D01*
X196265078Y-69323000D01*
X196114191Y-69353013D01*
X195972058Y-69411887D01*
X195844141Y-69497358D01*
X195735358Y-69606141D01*
X195649887Y-69734058D01*
X195591013Y-69876191D01*
X195561000Y-70027078D01*
X195561000Y-70180922D01*
X195591013Y-70331809D01*
X195649887Y-70473942D01*
X195735358Y-70601859D01*
X195844141Y-70710642D01*
X195972058Y-70796113D01*
X196114191Y-70854987D01*
X196265078Y-70885000D01*
X196418922Y-70885000D01*
X196569809Y-70854987D01*
X196711942Y-70796113D01*
X196839859Y-70710642D01*
X196948642Y-70601859D01*
X197034113Y-70473942D01*
X197092987Y-70331809D01*
X197123000Y-70180922D01*
X197123000Y-70038592D01*
X197444220Y-69717372D01*
X197463527Y-69701527D01*
X197526759Y-69624479D01*
X197573745Y-69536575D01*
X197602678Y-69441193D01*
X197610000Y-69366854D01*
X197612448Y-69342000D01*
X197610000Y-69317146D01*
X197610000Y-67188328D01*
X197628689Y-67186487D01*
X197700508Y-67164701D01*
X197739000Y-67144126D01*
X197777492Y-67164701D01*
X197849311Y-67186487D01*
X197924000Y-67193843D01*
X198824000Y-67193843D01*
X198898689Y-67186487D01*
X198970508Y-67164701D01*
X199009000Y-67144126D01*
X199047492Y-67164701D01*
X199119311Y-67186487D01*
X199194000Y-67193843D01*
X200094000Y-67193843D01*
X200168689Y-67186487D01*
X200240508Y-67164701D01*
X200279000Y-67144126D01*
X200317492Y-67164701D01*
X200389311Y-67186487D01*
X200464000Y-67193843D01*
X201364000Y-67193843D01*
X201438689Y-67186487D01*
X201510508Y-67164701D01*
X201549000Y-67144126D01*
X201587492Y-67164701D01*
X201659311Y-67186487D01*
X201734000Y-67193843D01*
X202634000Y-67193843D01*
X202708689Y-67186487D01*
X202780508Y-67164701D01*
X202819000Y-67144126D01*
X202857492Y-67164701D01*
X202929311Y-67186487D01*
X203004000Y-67193843D01*
X203904000Y-67193843D01*
X203978689Y-67186487D01*
X204050508Y-67164701D01*
X204089000Y-67144126D01*
X204127492Y-67164701D01*
X204199311Y-67186487D01*
X204274000Y-67193843D01*
X205174000Y-67193843D01*
X205248689Y-67186487D01*
X205320508Y-67164701D01*
X205359000Y-67144126D01*
X205397492Y-67164701D01*
X205469311Y-67186487D01*
X205544000Y-67193843D01*
X206444000Y-67193843D01*
X206518689Y-67186487D01*
X206590508Y-67164701D01*
X206629000Y-67144126D01*
X206667492Y-67164701D01*
X206739311Y-67186487D01*
X206814000Y-67193843D01*
X207714000Y-67193843D01*
X207788689Y-67186487D01*
X207860508Y-67164701D01*
X207899000Y-67144126D01*
X207937492Y-67164701D01*
X208009311Y-67186487D01*
X208084000Y-67193843D01*
X208984000Y-67193843D01*
X209058689Y-67186487D01*
X209130508Y-67164701D01*
X209196696Y-67129322D01*
X209254711Y-67081711D01*
X209302322Y-67023696D01*
X209337701Y-66957508D01*
X209359487Y-66885689D01*
X209366843Y-66811000D01*
X209366843Y-64811000D01*
X209359487Y-64736311D01*
X209337701Y-64664492D01*
X209302322Y-64598304D01*
X209254711Y-64540289D01*
X209196696Y-64492678D01*
X209130508Y-64457299D01*
X209058689Y-64435513D01*
X208984000Y-64428157D01*
X208084000Y-64428157D01*
X208009311Y-64435513D01*
X207937492Y-64457299D01*
X207899000Y-64477874D01*
X207860508Y-64457299D01*
X207788689Y-64435513D01*
X207714000Y-64428157D01*
X206814000Y-64428157D01*
X206739311Y-64435513D01*
X206667492Y-64457299D01*
X206629000Y-64477874D01*
X206590508Y-64457299D01*
X206518689Y-64435513D01*
X206500000Y-64433672D01*
X206500000Y-61808591D01*
X207525096Y-60783496D01*
X207547367Y-60810633D01*
X207683801Y-60922601D01*
X207839457Y-61005801D01*
X208008353Y-61057035D01*
X208139987Y-61070000D01*
X208928013Y-61070000D01*
X209059647Y-61057035D01*
X209228543Y-61005801D01*
X209384199Y-60922601D01*
X209520633Y-60810633D01*
X209632601Y-60674199D01*
X209715801Y-60518543D01*
X209767035Y-60349647D01*
X209784335Y-60174000D01*
X209767035Y-59998353D01*
X209715801Y-59829457D01*
X209632601Y-59673801D01*
X209520633Y-59537367D01*
X209459467Y-59487170D01*
X209500589Y-59465190D01*
X209596488Y-59386488D01*
X209675190Y-59290589D01*
X209733671Y-59181179D01*
X209769683Y-59062462D01*
X209781843Y-58939001D01*
X209781843Y-58408999D01*
X209769683Y-58285538D01*
X209733671Y-58166821D01*
X209675190Y-58057411D01*
X209596488Y-57961512D01*
X209500589Y-57882810D01*
X209391179Y-57824329D01*
X209272462Y-57788317D01*
X209149001Y-57776157D01*
X207918999Y-57776157D01*
X207795538Y-57788317D01*
X207676821Y-57824329D01*
X207567411Y-57882810D01*
X207471512Y-57961512D01*
X207392810Y-58057411D01*
X207334329Y-58166821D01*
X207298317Y-58285538D01*
X207293559Y-58333849D01*
X204383781Y-61243628D01*
X204364474Y-61259473D01*
X204301242Y-61336521D01*
X204288963Y-61359493D01*
X204254255Y-61424426D01*
X204225322Y-61519808D01*
X204215553Y-61619000D01*
X204218001Y-61643856D01*
X204218000Y-64433672D01*
X204199311Y-64435513D01*
X204127492Y-64457299D01*
X204089000Y-64477874D01*
X204050508Y-64457299D01*
X203978689Y-64435513D01*
X203904000Y-64428157D01*
X203004000Y-64428157D01*
X202929311Y-64435513D01*
X202857492Y-64457299D01*
X202819000Y-64477874D01*
X202780508Y-64457299D01*
X202708689Y-64435513D01*
X202634000Y-64428157D01*
X201734000Y-64428157D01*
X201659311Y-64435513D01*
X201587492Y-64457299D01*
X201549000Y-64477874D01*
X201510508Y-64457299D01*
X201438689Y-64435513D01*
X201364000Y-64428157D01*
X200464000Y-64428157D01*
X200389311Y-64435513D01*
X200317492Y-64457299D01*
X200279000Y-64477874D01*
X200240508Y-64457299D01*
X200168689Y-64435513D01*
X200094000Y-64428157D01*
X199194000Y-64428157D01*
X199119311Y-64435513D01*
X199047492Y-64457299D01*
X199009000Y-64477874D01*
X198970508Y-64457299D01*
X198898689Y-64435513D01*
X198824000Y-64428157D01*
X197924000Y-64428157D01*
X197849311Y-64435513D01*
X197777492Y-64457299D01*
X197739000Y-64477874D01*
X197700508Y-64457299D01*
X197628689Y-64435513D01*
X197554000Y-64428157D01*
X196654000Y-64428157D01*
X196579311Y-64435513D01*
X196507492Y-64457299D01*
X196469000Y-64477874D01*
X196430508Y-64457299D01*
X196358689Y-64435513D01*
X196284000Y-64428157D01*
X195384000Y-64428157D01*
X195309311Y-64435513D01*
X195237492Y-64457299D01*
X195199000Y-64477874D01*
X195160508Y-64457299D01*
X195088689Y-64435513D01*
X195014000Y-64428157D01*
X194627433Y-64428157D01*
X194795590Y-64260000D01*
X200381154Y-64260000D01*
X200406000Y-64262447D01*
X200430846Y-64260000D01*
X200430854Y-64260000D01*
X200505193Y-64252678D01*
X200600575Y-64223745D01*
X200688479Y-64176759D01*
X200765527Y-64113527D01*
X200781376Y-64094215D01*
X206080220Y-58795372D01*
X206099527Y-58779527D01*
X206162759Y-58702479D01*
X206209745Y-58614575D01*
X206238678Y-58519193D01*
X206246000Y-58444854D01*
X206246000Y-58444847D01*
X206248447Y-58420001D01*
X206246000Y-58395155D01*
X206246000Y-54970832D01*
X206323097Y-54938898D01*
X206524717Y-54804180D01*
X206696180Y-54632717D01*
X206830898Y-54431097D01*
X206923693Y-54207069D01*
X206971000Y-53969243D01*
X206971000Y-53726757D01*
X206923693Y-53488931D01*
X206830898Y-53264903D01*
X206696180Y-53063283D01*
X206524717Y-52891820D01*
X206323097Y-52757102D01*
X206099069Y-52664307D01*
X205861243Y-52617000D01*
X205618757Y-52617000D01*
X205380931Y-52664307D01*
X205156903Y-52757102D01*
X204955283Y-52891820D01*
X204783820Y-53063283D01*
X204649102Y-53264903D01*
X204556307Y-53488931D01*
X204509000Y-53726757D01*
X204509000Y-53969243D01*
X204556307Y-54207069D01*
X204649102Y-54431097D01*
X204783820Y-54632717D01*
X204955283Y-54804180D01*
X205156903Y-54938898D01*
X205234001Y-54970833D01*
X205234000Y-58210408D01*
X200196409Y-63248000D01*
X194610843Y-63248000D01*
X194585997Y-63245553D01*
X194561151Y-63248000D01*
X194561144Y-63248000D01*
X194496692Y-63254348D01*
X194486804Y-63255322D01*
X194415169Y-63277052D01*
X194391423Y-63284255D01*
X194303519Y-63331241D01*
X194226471Y-63394473D01*
X194210627Y-63413779D01*
X193196250Y-64428157D01*
X192844000Y-64428157D01*
X192769311Y-64435513D01*
X192697492Y-64457299D01*
X192631304Y-64492678D01*
X192573289Y-64540289D01*
X192525678Y-64598304D01*
X192490299Y-64664492D01*
X192468513Y-64736311D01*
X192461157Y-64811000D01*
X189482000Y-64811000D01*
X189482000Y-62947591D01*
X197698220Y-54731372D01*
X197717527Y-54715527D01*
X197780759Y-54638479D01*
X197827745Y-54550575D01*
X197856678Y-54455193D01*
X197864000Y-54380854D01*
X197864000Y-54380847D01*
X197866447Y-54356001D01*
X197864000Y-54331155D01*
X197864000Y-53684501D01*
X197964642Y-53583859D01*
X198050113Y-53455942D01*
X198108987Y-53313809D01*
X198139000Y-53162922D01*
X198139000Y-53009078D01*
X198108987Y-52858191D01*
X198097310Y-52830000D01*
X199299499Y-52830000D01*
X199400141Y-52930642D01*
X199528058Y-53016113D01*
X199670191Y-53074987D01*
X199821078Y-53105000D01*
X199974922Y-53105000D01*
X200125809Y-53074987D01*
X200267942Y-53016113D01*
X200395859Y-52930642D01*
X200504642Y-52821859D01*
X200590113Y-52693942D01*
X200648987Y-52551809D01*
X200679000Y-52400922D01*
X200679000Y-52247078D01*
X200648987Y-52096191D01*
X200590113Y-51954058D01*
X200504642Y-51826141D01*
X200395859Y-51717358D01*
X200267942Y-51631887D01*
X200125809Y-51573013D01*
X199974922Y-51543000D01*
X199821078Y-51543000D01*
X199670191Y-51573013D01*
X199528058Y-51631887D01*
X199400141Y-51717358D01*
X199299499Y-51818000D01*
X193826846Y-51818000D01*
X193802000Y-51815553D01*
X193777154Y-51818000D01*
X193777146Y-51818000D01*
X193702807Y-51825322D01*
X193607425Y-51854255D01*
X193519521Y-51901241D01*
X193442473Y-51964473D01*
X193426628Y-51983780D01*
X192445780Y-52964629D01*
X192426474Y-52980473D01*
X192363242Y-53057521D01*
X192347781Y-53086447D01*
X192316255Y-53145426D01*
X192287322Y-53240808D01*
X192277553Y-53340000D01*
X192280001Y-53364856D01*
X192280000Y-55544144D01*
X192280000Y-55670408D01*
X191683783Y-56266626D01*
X191683778Y-56266630D01*
X190159783Y-57790626D01*
X190159778Y-57790630D01*
X181269781Y-66680628D01*
X181250474Y-66696473D01*
X181187242Y-66773521D01*
X181178965Y-66789006D01*
X181140255Y-66861426D01*
X181111322Y-66956808D01*
X181101553Y-67056000D01*
X181104001Y-67080856D01*
X181104000Y-69251499D01*
X181003358Y-69352141D01*
X180917887Y-69480058D01*
X180859013Y-69622191D01*
X180829000Y-69773078D01*
X180829000Y-69926922D01*
X180859013Y-70077809D01*
X180917887Y-70219942D01*
X181003358Y-70347859D01*
X181112141Y-70456642D01*
X181240058Y-70542113D01*
X181382191Y-70600987D01*
X181533078Y-70631000D01*
X181686922Y-70631000D01*
X181837809Y-70600987D01*
X181979942Y-70542113D01*
X182107859Y-70456642D01*
X182216642Y-70347859D01*
X182302113Y-70219942D01*
X182360987Y-70077809D01*
X182391000Y-69926922D01*
X182391000Y-69773078D01*
X182360987Y-69622191D01*
X182302113Y-69480058D01*
X182216642Y-69352141D01*
X182116000Y-69251499D01*
X182116000Y-67265591D01*
X183607002Y-65774589D01*
X183607001Y-67371852D01*
X183607002Y-67371862D01*
X183607001Y-75193261D01*
X183464922Y-75165000D01*
X183322592Y-75165000D01*
X181477376Y-73319785D01*
X181461527Y-73300473D01*
X181384479Y-73237241D01*
X181296575Y-73190255D01*
X181201193Y-73161322D01*
X181126854Y-73154000D01*
X181126846Y-73154000D01*
X181102000Y-73151553D01*
X181077154Y-73154000D01*
X174325182Y-73154000D01*
X171781182Y-70610000D01*
X177709499Y-70610000D01*
X177810141Y-70710642D01*
X177938058Y-70796113D01*
X178080191Y-70854987D01*
X178231078Y-70885000D01*
X178384922Y-70885000D01*
X178535809Y-70854987D01*
X178677942Y-70796113D01*
X178805859Y-70710642D01*
X178914642Y-70601859D01*
X179000113Y-70473942D01*
X179058987Y-70331809D01*
X179089000Y-70180922D01*
X179089000Y-70027078D01*
X179058987Y-69876191D01*
X179000113Y-69734058D01*
X178914642Y-69606141D01*
X178805859Y-69497358D01*
X178677942Y-69411887D01*
X178535809Y-69353013D01*
X178384922Y-69323000D01*
X178231078Y-69323000D01*
X178080191Y-69353013D01*
X177938058Y-69411887D01*
X177810141Y-69497358D01*
X177709499Y-69598000D01*
X171405592Y-69598000D01*
X168442574Y-66634983D01*
X168540058Y-66700119D01*
X168682191Y-66758993D01*
X168833078Y-66789006D01*
X168986922Y-66789006D01*
X169137809Y-66758993D01*
X169279942Y-66700119D01*
X169407859Y-66614648D01*
X169508501Y-66514006D01*
X177045148Y-66514006D01*
X177069994Y-66516453D01*
X177094840Y-66514006D01*
X177094848Y-66514006D01*
X177169187Y-66506684D01*
X177264569Y-66477751D01*
X177352473Y-66430765D01*
X177429521Y-66367533D01*
X177445370Y-66348221D01*
X178242592Y-65551000D01*
X178384922Y-65551000D01*
X178535809Y-65520987D01*
X178677942Y-65462113D01*
X178805859Y-65376642D01*
X178914642Y-65267859D01*
X179000113Y-65139942D01*
X179058987Y-64997809D01*
X179089000Y-64846922D01*
X179089000Y-64693078D01*
X179058987Y-64542191D01*
X179000113Y-64400058D01*
X178914642Y-64272141D01*
X178805859Y-64163358D01*
X178763418Y-64135000D01*
X178805859Y-64106642D01*
X178914642Y-63997859D01*
X179000113Y-63869942D01*
X179058987Y-63727809D01*
X179089000Y-63576922D01*
X179089000Y-63423078D01*
X179058987Y-63272191D01*
X179000113Y-63130058D01*
X178914642Y-63002141D01*
X178904501Y-62992000D01*
X178914642Y-62981859D01*
X179000113Y-62853942D01*
X179058987Y-62711809D01*
X179089000Y-62560922D01*
X179089000Y-62407078D01*
X179058987Y-62256191D01*
X179000113Y-62114058D01*
X178914642Y-61986141D01*
X178805859Y-61877358D01*
X178677942Y-61791887D01*
X178535809Y-61733013D01*
X178384922Y-61703000D01*
X178231078Y-61703000D01*
X178080191Y-61733013D01*
X177938058Y-61791887D01*
X177810141Y-61877358D01*
X177709499Y-61978000D01*
X177143847Y-61978000D01*
X177119001Y-61975553D01*
X177094155Y-61978000D01*
X177094148Y-61978000D01*
X177029696Y-61984348D01*
X177019808Y-61985322D01*
X177014234Y-61987013D01*
X176924427Y-62014255D01*
X176836523Y-62061241D01*
X176759475Y-62124473D01*
X176743630Y-62143780D01*
X176494434Y-62392976D01*
X176484113Y-62368058D01*
X176398642Y-62240141D01*
X176289859Y-62131358D01*
X176161942Y-62045887D01*
X176019809Y-61987013D01*
X175868922Y-61957000D01*
X175738001Y-61957000D01*
X182092579Y-55602423D01*
X182106999Y-55603843D01*
X182637001Y-55603843D01*
X182760462Y-55591683D01*
X182879179Y-55555671D01*
X182988589Y-55497190D01*
X183084488Y-55418488D01*
X183163190Y-55322589D01*
X183221671Y-55213179D01*
X183257683Y-55094462D01*
X183269843Y-54971001D01*
X183269843Y-54414889D01*
X186741000Y-54414889D01*
X186741000Y-54805111D01*
X186817129Y-55187836D01*
X186966461Y-55548355D01*
X187183257Y-55872814D01*
X187459186Y-56148743D01*
X187783645Y-56365539D01*
X188144164Y-56514871D01*
X188526889Y-56591000D01*
X188917111Y-56591000D01*
X189299836Y-56514871D01*
X189660355Y-56365539D01*
X189984814Y-56148743D01*
X190260743Y-55872814D01*
X190477539Y-55548355D01*
X190626871Y-55187836D01*
X190703000Y-54805111D01*
X190703000Y-54414889D01*
X190626871Y-54032164D01*
X190477539Y-53671645D01*
X190260743Y-53347186D01*
X189984814Y-53071257D01*
X189660355Y-52854461D01*
X189299836Y-52705129D01*
X188917111Y-52629000D01*
X188526889Y-52629000D01*
X188144164Y-52705129D01*
X187783645Y-52854461D01*
X187459186Y-53071257D01*
X187183257Y-53347186D01*
X186966461Y-53671645D01*
X186817129Y-54032164D01*
X186741000Y-54414889D01*
X183269843Y-54414889D01*
X183269843Y-53740999D01*
X183257683Y-53617538D01*
X183221671Y-53498821D01*
X183163190Y-53389411D01*
X183084488Y-53293512D01*
X182988589Y-53214810D01*
X182879179Y-53156329D01*
X182760462Y-53120317D01*
X182637001Y-53108157D01*
X182106999Y-53108157D01*
X181983538Y-53120317D01*
X181864821Y-53156329D01*
X181755411Y-53214810D01*
X181659512Y-53293512D01*
X181580810Y-53389411D01*
X181558830Y-53430533D01*
X181508633Y-53369367D01*
X181372199Y-53257399D01*
X181216543Y-53174199D01*
X181047647Y-53122965D01*
X180872000Y-53105665D01*
X180696354Y-53122965D01*
X180527458Y-53174199D01*
X180371802Y-53257399D01*
X180235368Y-53369367D01*
X180123400Y-53505801D01*
X180040200Y-53661457D01*
X179988965Y-53830353D01*
X179976000Y-53961987D01*
X179976000Y-54750012D01*
X179988965Y-54881646D01*
X180040199Y-55050542D01*
X180123399Y-55206198D01*
X180235367Y-55342633D01*
X180262504Y-55364904D01*
X174919409Y-60708000D01*
X173572501Y-60708000D01*
X173471859Y-60607358D01*
X173343942Y-60521887D01*
X173201809Y-60463013D01*
X173050922Y-60433000D01*
X172897078Y-60433000D01*
X172746191Y-60463013D01*
X172604058Y-60521887D01*
X172476141Y-60607358D01*
X172367358Y-60716141D01*
X172281887Y-60844058D01*
X172223013Y-60986191D01*
X172193000Y-61137078D01*
X172193000Y-61290922D01*
X172223013Y-61441809D01*
X172281887Y-61583942D01*
X172367358Y-61711859D01*
X172476141Y-61820642D01*
X172604058Y-61906113D01*
X172746191Y-61964987D01*
X172897078Y-61995000D01*
X172918000Y-61995000D01*
X172918000Y-62122973D01*
X172946261Y-62265052D01*
X171438624Y-62265052D01*
X169944990Y-60771419D01*
X169944990Y-60629088D01*
X169914977Y-60478201D01*
X169856103Y-60336068D01*
X169770632Y-60208151D01*
X169661849Y-60099368D01*
X169533932Y-60013897D01*
X169391799Y-59955023D01*
X169240912Y-59925010D01*
X169087068Y-59925010D01*
X168936181Y-59955023D01*
X168794048Y-60013897D01*
X168666131Y-60099368D01*
X168557348Y-60208151D01*
X168471877Y-60336068D01*
X168413003Y-60478201D01*
X168382990Y-60629088D01*
X168382990Y-60782932D01*
X168413003Y-60933819D01*
X168471877Y-61075952D01*
X168557348Y-61203869D01*
X168666131Y-61312652D01*
X168794048Y-61398123D01*
X168936181Y-61456997D01*
X169087068Y-61487010D01*
X169229399Y-61487010D01*
X170853660Y-63111272D01*
X170869505Y-63130579D01*
X170946553Y-63193811D01*
X171034457Y-63240797D01*
X171094285Y-63258945D01*
X171129838Y-63269730D01*
X171139726Y-63270704D01*
X171204178Y-63277052D01*
X171204185Y-63277052D01*
X171229031Y-63279499D01*
X171253877Y-63277052D01*
X175226551Y-63277052D01*
X175294141Y-63344642D01*
X175422058Y-63430113D01*
X175446976Y-63440435D01*
X175385411Y-63502000D01*
X169508501Y-63502000D01*
X169407859Y-63401358D01*
X169279942Y-63315887D01*
X169137809Y-63257013D01*
X168986922Y-63227000D01*
X168833078Y-63227000D01*
X168682191Y-63257013D01*
X168540058Y-63315887D01*
X168412141Y-63401358D01*
X168303358Y-63510141D01*
X168217887Y-63638058D01*
X168159013Y-63780191D01*
X168129000Y-63931078D01*
X168129000Y-64084922D01*
X168159013Y-64235809D01*
X168217887Y-64377942D01*
X168303358Y-64505859D01*
X168305501Y-64508002D01*
X168303358Y-64510144D01*
X168217887Y-64638061D01*
X168159013Y-64780194D01*
X168129000Y-64931081D01*
X168129000Y-65084925D01*
X168159013Y-65235812D01*
X168217887Y-65377945D01*
X168303358Y-65505862D01*
X168305501Y-65508005D01*
X168303358Y-65510147D01*
X168217887Y-65638064D01*
X168159013Y-65780197D01*
X168129000Y-65931084D01*
X168129000Y-66084928D01*
X168159013Y-66235815D01*
X168217887Y-66377948D01*
X168283023Y-66475432D01*
X165729376Y-63921785D01*
X165713527Y-63902473D01*
X165636479Y-63839241D01*
X165548575Y-63792255D01*
X165453193Y-63763322D01*
X165378854Y-63756000D01*
X165378846Y-63756000D01*
X165354000Y-63753553D01*
X165329154Y-63756000D01*
X150323592Y-63756000D01*
X148588000Y-62020409D01*
X148588000Y-59413310D01*
X148616191Y-59424987D01*
X148767078Y-59455000D01*
X148920922Y-59455000D01*
X149071809Y-59424987D01*
X149213942Y-59366113D01*
X149341859Y-59280642D01*
X149450642Y-59171859D01*
X149536113Y-59043942D01*
X149594987Y-58901809D01*
X149625000Y-58750922D01*
X149625000Y-58608592D01*
X149692222Y-58541370D01*
X149711527Y-58525527D01*
X149774759Y-58448479D01*
X149821745Y-58360575D01*
X149850678Y-58265193D01*
X149858000Y-58190854D01*
X149858000Y-58190847D01*
X149860447Y-58166001D01*
X149858000Y-58141155D01*
X149858000Y-53580988D01*
X154909000Y-53580988D01*
X154909000Y-54369013D01*
X154921965Y-54500647D01*
X154973200Y-54669543D01*
X155056400Y-54825199D01*
X155168368Y-54961633D01*
X155304802Y-55073601D01*
X155460458Y-55156801D01*
X155629354Y-55208035D01*
X155805000Y-55225335D01*
X155980647Y-55208035D01*
X156149543Y-55156801D01*
X156305199Y-55073601D01*
X156441633Y-54961633D01*
X156553601Y-54825199D01*
X156636801Y-54669543D01*
X156688035Y-54500647D01*
X156701000Y-54369013D01*
X156701000Y-53961987D01*
X170856000Y-53961987D01*
X170856000Y-54750012D01*
X170868965Y-54881646D01*
X170920199Y-55050542D01*
X170996001Y-55192356D01*
X170996001Y-55933861D01*
X170992343Y-55971000D01*
X171006940Y-56119201D01*
X171046600Y-56249942D01*
X171050169Y-56261708D01*
X171120369Y-56393043D01*
X171214842Y-56508159D01*
X171243689Y-56531833D01*
X172624167Y-57912311D01*
X172647841Y-57941159D01*
X172762957Y-58035632D01*
X172894292Y-58105832D01*
X172998762Y-58137522D01*
X173036798Y-58149060D01*
X173184999Y-58163657D01*
X173222128Y-58160000D01*
X176835393Y-58160000D01*
X176961078Y-58185000D01*
X177114922Y-58185000D01*
X177265809Y-58154987D01*
X177407942Y-58096113D01*
X177535859Y-58010642D01*
X177644642Y-57901859D01*
X177730113Y-57773942D01*
X177788987Y-57631809D01*
X177819000Y-57480922D01*
X177819000Y-57327078D01*
X177788987Y-57176191D01*
X177730113Y-57034058D01*
X177644642Y-56906141D01*
X177535859Y-56797358D01*
X177407942Y-56711887D01*
X177265809Y-56653013D01*
X177114922Y-56623000D01*
X176961078Y-56623000D01*
X176835393Y-56648000D01*
X173498145Y-56648000D01*
X172508000Y-55657856D01*
X172508000Y-55211804D01*
X172615367Y-55342633D01*
X172751801Y-55454601D01*
X172907457Y-55537801D01*
X173076353Y-55589035D01*
X173252000Y-55606335D01*
X173427646Y-55589035D01*
X173596542Y-55537801D01*
X173752198Y-55454601D01*
X173888633Y-55342633D01*
X174000601Y-55206199D01*
X174083801Y-55050543D01*
X174135035Y-54881647D01*
X174148000Y-54750013D01*
X174148000Y-53961987D01*
X174135035Y-53830353D01*
X174083801Y-53661457D01*
X174000601Y-53505801D01*
X173888633Y-53369367D01*
X173752199Y-53257399D01*
X173596543Y-53174199D01*
X173427647Y-53122965D01*
X173252000Y-53105665D01*
X173076354Y-53122965D01*
X172907458Y-53174199D01*
X172751802Y-53257399D01*
X172615368Y-53369367D01*
X172503400Y-53505801D01*
X172502001Y-53508419D01*
X172500601Y-53505801D01*
X172388633Y-53369367D01*
X172252199Y-53257399D01*
X172096543Y-53174199D01*
X171927647Y-53122965D01*
X171752000Y-53105665D01*
X171576354Y-53122965D01*
X171407458Y-53174199D01*
X171251802Y-53257399D01*
X171115368Y-53369367D01*
X171003400Y-53505801D01*
X170920200Y-53661457D01*
X170868965Y-53830353D01*
X170856000Y-53961987D01*
X156701000Y-53961987D01*
X156701000Y-53580987D01*
X156688035Y-53449353D01*
X156636801Y-53280457D01*
X156553601Y-53124801D01*
X156441633Y-52988367D01*
X156305198Y-52876399D01*
X156149542Y-52793199D01*
X155980646Y-52741965D01*
X155805000Y-52724665D01*
X155629353Y-52741965D01*
X155460457Y-52793199D01*
X155304801Y-52876399D01*
X155168367Y-52988367D01*
X155056399Y-53124802D01*
X154973199Y-53280458D01*
X154921965Y-53449354D01*
X154909000Y-53580988D01*
X149858000Y-53580988D01*
X149858000Y-53176501D01*
X149958642Y-53075859D01*
X150044113Y-52947942D01*
X150102987Y-52805809D01*
X150133000Y-52654922D01*
X150133000Y-52501078D01*
X150104739Y-52358999D01*
X151211408Y-52358999D01*
X151365000Y-52512591D01*
X151365000Y-52654922D01*
X151395013Y-52805809D01*
X151453887Y-52947942D01*
X151539358Y-53075859D01*
X151648141Y-53184642D01*
X151776058Y-53270113D01*
X151918191Y-53328987D01*
X152069078Y-53359000D01*
X152222922Y-53359000D01*
X152373809Y-53328987D01*
X152515942Y-53270113D01*
X152643859Y-53184642D01*
X152752642Y-53075859D01*
X152838113Y-52947942D01*
X152896987Y-52805809D01*
X152927000Y-52654922D01*
X152927000Y-52501078D01*
X152896987Y-52350191D01*
X152838113Y-52208058D01*
X152752642Y-52080141D01*
X152643859Y-51971358D01*
X152515942Y-51885887D01*
X152373809Y-51827013D01*
X152222922Y-51797000D01*
X152080591Y-51797000D01*
X151796375Y-51512784D01*
X151780526Y-51493472D01*
X151703478Y-51430240D01*
X151615574Y-51383254D01*
X151520192Y-51354321D01*
X151445853Y-51346999D01*
X151445845Y-51346999D01*
X151420999Y-51344552D01*
X151396153Y-51346999D01*
X147758844Y-51346999D01*
X147733998Y-51344552D01*
X147709152Y-51346999D01*
X147709145Y-51346999D01*
X147644693Y-51353347D01*
X147634805Y-51354321D01*
X147539424Y-51383254D01*
X147451520Y-51430240D01*
X147374472Y-51493472D01*
X147358627Y-51512779D01*
X146725785Y-52145622D01*
X146706473Y-52161471D01*
X146643241Y-52238519D01*
X146596255Y-52326424D01*
X146567322Y-52421806D01*
X146560000Y-52496145D01*
X146560000Y-52496152D01*
X146557553Y-52520998D01*
X146560000Y-52545844D01*
X146560000Y-54150409D01*
X146171374Y-53761783D01*
X146171370Y-53761778D01*
X145053000Y-52643409D01*
X145053000Y-52501078D01*
X145022987Y-52350191D01*
X144964113Y-52208058D01*
X144878642Y-52080141D01*
X144769859Y-51971358D01*
X144641942Y-51885887D01*
X144499809Y-51827013D01*
X144348922Y-51797000D01*
X144195078Y-51797000D01*
X144044191Y-51827013D01*
X143902058Y-51885887D01*
X143774141Y-51971358D01*
X143665358Y-52080141D01*
X143579887Y-52208058D01*
X143521013Y-52350191D01*
X143491000Y-52501078D01*
X143491000Y-52654922D01*
X143521013Y-52805809D01*
X143579887Y-52947942D01*
X143665358Y-53075859D01*
X143774141Y-53184642D01*
X143902058Y-53270113D01*
X144044191Y-53328987D01*
X144195078Y-53359000D01*
X144337409Y-53359000D01*
X145455778Y-54477370D01*
X145455783Y-54477374D01*
X145798001Y-54819593D01*
X145798000Y-56363153D01*
X145795553Y-56388000D01*
X145798000Y-56412846D01*
X145798000Y-56412853D01*
X145805322Y-56487192D01*
X145834255Y-56582574D01*
X145881241Y-56670479D01*
X145944473Y-56747527D01*
X145963785Y-56763376D01*
X146675983Y-57475575D01*
X146675982Y-60870391D01*
X145815000Y-60009409D01*
X145815000Y-59867078D01*
X145784987Y-59716191D01*
X145726113Y-59574058D01*
X145640642Y-59446141D01*
X145531859Y-59337358D01*
X145403942Y-59251887D01*
X145261809Y-59193013D01*
X145110922Y-59163000D01*
X144957078Y-59163000D01*
X144806191Y-59193013D01*
X144664058Y-59251887D01*
X144536141Y-59337358D01*
X144427358Y-59446141D01*
X144341887Y-59574058D01*
X144283013Y-59716191D01*
X144253000Y-59867078D01*
X144253000Y-60020922D01*
X144283013Y-60171809D01*
X144341887Y-60313942D01*
X144427358Y-60441859D01*
X144536141Y-60550642D01*
X144664058Y-60636113D01*
X144806191Y-60694987D01*
X144957078Y-60725000D01*
X145099409Y-60725000D01*
X146225973Y-61851565D01*
X146225972Y-62764353D01*
X146223525Y-62789200D01*
X146225972Y-62814046D01*
X146225972Y-62814053D01*
X146233294Y-62888392D01*
X146262227Y-62983774D01*
X146309213Y-63071679D01*
X146372445Y-63148727D01*
X146391757Y-63164576D01*
X149179429Y-65952250D01*
X149195271Y-65971553D01*
X149214572Y-65987393D01*
X149214576Y-65987397D01*
X149272319Y-66034785D01*
X149360223Y-66081772D01*
X149455605Y-66110705D01*
X149554798Y-66120475D01*
X149579662Y-66118026D01*
X156921826Y-66118027D01*
X156209689Y-66830165D01*
X156180842Y-66853839D01*
X156086369Y-66968955D01*
X156026100Y-67081711D01*
X156016169Y-67100290D01*
X155972940Y-67242797D01*
X155958343Y-67390998D01*
X155962001Y-67428137D01*
X155962000Y-73876871D01*
X155958343Y-73914000D01*
X155962000Y-73951128D01*
X155962000Y-74362855D01*
X155880856Y-74444000D01*
X148222784Y-74444000D01*
X148210711Y-74429289D01*
X148152696Y-74381678D01*
X148086508Y-74346299D01*
X148014689Y-74324513D01*
X147940000Y-74317157D01*
X145940000Y-74317157D01*
X145865311Y-74324513D01*
X145793492Y-74346299D01*
X145727304Y-74381678D01*
X145669289Y-74429289D01*
X145657216Y-74444000D01*
X144039128Y-74444000D01*
X144001999Y-74440343D01*
X143892186Y-74451159D01*
X143853798Y-74454940D01*
X143711292Y-74498168D01*
X143579957Y-74568368D01*
X143464841Y-74662841D01*
X143441166Y-74691689D01*
X143172856Y-74960000D01*
X142587805Y-74960000D01*
X142718633Y-74852633D01*
X142825565Y-74722336D01*
X142847000Y-74724447D01*
X142871846Y-74722000D01*
X142871854Y-74722000D01*
X142946193Y-74714678D01*
X143041575Y-74685745D01*
X143129479Y-74638759D01*
X143206527Y-74575527D01*
X143222376Y-74556215D01*
X144866220Y-72912372D01*
X144885527Y-72896527D01*
X144948759Y-72819479D01*
X144995745Y-72731575D01*
X145005322Y-72700000D01*
X145557157Y-72700000D01*
X145557157Y-73700000D01*
X145564513Y-73774689D01*
X145586299Y-73846508D01*
X145621678Y-73912696D01*
X145669289Y-73970711D01*
X145727304Y-74018322D01*
X145793492Y-74053701D01*
X145865311Y-74075487D01*
X145940000Y-74082843D01*
X147940000Y-74082843D01*
X148014689Y-74075487D01*
X148086508Y-74053701D01*
X148152696Y-74018322D01*
X148210711Y-73970711D01*
X148258322Y-73912696D01*
X148293701Y-73846508D01*
X148315487Y-73774689D01*
X148322843Y-73700000D01*
X148322843Y-73658000D01*
X148753499Y-73658000D01*
X148854141Y-73758642D01*
X148982058Y-73844113D01*
X149124191Y-73902987D01*
X149275078Y-73933000D01*
X149428922Y-73933000D01*
X149579809Y-73902987D01*
X149721942Y-73844113D01*
X149849859Y-73758642D01*
X149958642Y-73649859D01*
X150044113Y-73521942D01*
X150102987Y-73379809D01*
X150133000Y-73228922D01*
X150133000Y-73075078D01*
X150102987Y-72924191D01*
X150044113Y-72782058D01*
X149958642Y-72654141D01*
X149849859Y-72545358D01*
X149721942Y-72459887D01*
X149579809Y-72401013D01*
X149428922Y-72371000D01*
X149275078Y-72371000D01*
X149124191Y-72401013D01*
X148982058Y-72459887D01*
X148854141Y-72545358D01*
X148753499Y-72646000D01*
X148317525Y-72646000D01*
X148315487Y-72625311D01*
X148293701Y-72553492D01*
X148258322Y-72487304D01*
X148210711Y-72429289D01*
X148152696Y-72381678D01*
X148086508Y-72346299D01*
X148014689Y-72324513D01*
X147940000Y-72317157D01*
X145940000Y-72317157D01*
X145865311Y-72324513D01*
X145793492Y-72346299D01*
X145727304Y-72381678D01*
X145669289Y-72429289D01*
X145621678Y-72487304D01*
X145586299Y-72553492D01*
X145564513Y-72625311D01*
X145557157Y-72700000D01*
X145005322Y-72700000D01*
X145024678Y-72636193D01*
X145032000Y-72561854D01*
X145034448Y-72537000D01*
X145032000Y-72512146D01*
X145032000Y-71464501D01*
X145132642Y-71363859D01*
X145218113Y-71235942D01*
X145276987Y-71093809D01*
X145307000Y-70942922D01*
X145307000Y-70789078D01*
X145289282Y-70700000D01*
X145557157Y-70700000D01*
X145557157Y-71700000D01*
X145564513Y-71774689D01*
X145586299Y-71846508D01*
X145621678Y-71912696D01*
X145669289Y-71970711D01*
X145727304Y-72018322D01*
X145793492Y-72053701D01*
X145865311Y-72075487D01*
X145940000Y-72082843D01*
X147940000Y-72082843D01*
X148014689Y-72075487D01*
X148086508Y-72053701D01*
X148152696Y-72018322D01*
X148210711Y-71970711D01*
X148258322Y-71912696D01*
X148293701Y-71846508D01*
X148315487Y-71774689D01*
X148322843Y-71700000D01*
X148322843Y-70700000D01*
X148315487Y-70625311D01*
X148293701Y-70553492D01*
X148258322Y-70487304D01*
X148210711Y-70429289D01*
X148152696Y-70381678D01*
X148086508Y-70346299D01*
X148014689Y-70324513D01*
X147940000Y-70317157D01*
X145940000Y-70317157D01*
X145865311Y-70324513D01*
X145793492Y-70346299D01*
X145727304Y-70381678D01*
X145669289Y-70429289D01*
X145621678Y-70487304D01*
X145586299Y-70553492D01*
X145564513Y-70625311D01*
X145557157Y-70700000D01*
X145289282Y-70700000D01*
X145276987Y-70638191D01*
X145218113Y-70496058D01*
X145132642Y-70368141D01*
X145023859Y-70259358D01*
X144895942Y-70173887D01*
X144753809Y-70115013D01*
X144602922Y-70085000D01*
X144449078Y-70085000D01*
X144298191Y-70115013D01*
X144156058Y-70173887D01*
X144028141Y-70259358D01*
X143919358Y-70368141D01*
X143833887Y-70496058D01*
X143775013Y-70638191D01*
X143745000Y-70789078D01*
X143745000Y-70942922D01*
X143775013Y-71093809D01*
X143833887Y-71235942D01*
X143919358Y-71363859D01*
X144020000Y-71464501D01*
X144020001Y-72327407D01*
X142740904Y-73606505D01*
X142718633Y-73579367D01*
X142582199Y-73467399D01*
X142579582Y-73466000D01*
X142582199Y-73464601D01*
X142718633Y-73352633D01*
X142830601Y-73216199D01*
X142913801Y-73060543D01*
X142965035Y-72891647D01*
X142982335Y-72716000D01*
X142965035Y-72540353D01*
X142913801Y-72371457D01*
X142830601Y-72215801D01*
X142718633Y-72079367D01*
X142582199Y-71967399D01*
X142579582Y-71966000D01*
X142582199Y-71964601D01*
X142718633Y-71852633D01*
X142830601Y-71716199D01*
X142913801Y-71560543D01*
X142965035Y-71391647D01*
X142982335Y-71216000D01*
X142965035Y-71040353D01*
X142913801Y-70871457D01*
X142830601Y-70715801D01*
X142718633Y-70579367D01*
X142582199Y-70467399D01*
X142579582Y-70466000D01*
X142582199Y-70464601D01*
X142718633Y-70352633D01*
X142830601Y-70216199D01*
X142913801Y-70060543D01*
X142965035Y-69891647D01*
X142982335Y-69716000D01*
X142965035Y-69540353D01*
X142913801Y-69371457D01*
X142830601Y-69215801D01*
X142718633Y-69079367D01*
X142582199Y-68967399D01*
X142579582Y-68966000D01*
X142582199Y-68964601D01*
X142718633Y-68852633D01*
X142830601Y-68716199D01*
X142839259Y-68700000D01*
X145557157Y-68700000D01*
X145557157Y-69700000D01*
X145564513Y-69774689D01*
X145586299Y-69846508D01*
X145621678Y-69912696D01*
X145669289Y-69970711D01*
X145727304Y-70018322D01*
X145793492Y-70053701D01*
X145865311Y-70075487D01*
X145940000Y-70082843D01*
X147940000Y-70082843D01*
X148014689Y-70075487D01*
X148086508Y-70053701D01*
X148152696Y-70018322D01*
X148210711Y-69970711D01*
X148258322Y-69912696D01*
X148293701Y-69846508D01*
X148315487Y-69774689D01*
X148322843Y-69700000D01*
X148322843Y-68700000D01*
X148315487Y-68625311D01*
X148293701Y-68553492D01*
X148258322Y-68487304D01*
X148210711Y-68429289D01*
X148152696Y-68381678D01*
X148086508Y-68346299D01*
X148014689Y-68324513D01*
X147940000Y-68317157D01*
X145940000Y-68317157D01*
X145865311Y-68324513D01*
X145793492Y-68346299D01*
X145727304Y-68381678D01*
X145669289Y-68429289D01*
X145621678Y-68487304D01*
X145586299Y-68553492D01*
X145564513Y-68625311D01*
X145557157Y-68700000D01*
X142839259Y-68700000D01*
X142913801Y-68560543D01*
X142965035Y-68391647D01*
X142982335Y-68216000D01*
X142965035Y-68040353D01*
X142913801Y-67871457D01*
X142830601Y-67715801D01*
X142718633Y-67579367D01*
X142582199Y-67467399D01*
X142579582Y-67466000D01*
X142582199Y-67464601D01*
X142718633Y-67352633D01*
X142830601Y-67216199D01*
X142913801Y-67060543D01*
X142965035Y-66891647D01*
X142982335Y-66716000D01*
X142965035Y-66540353D01*
X142913801Y-66371457D01*
X142830601Y-66215801D01*
X142718633Y-66079367D01*
X142582199Y-65967399D01*
X142579582Y-65966000D01*
X142582199Y-65964601D01*
X142718633Y-65852633D01*
X142830601Y-65716199D01*
X142913801Y-65560543D01*
X142965035Y-65391647D01*
X142982335Y-65216000D01*
X142965035Y-65040353D01*
X142913801Y-64871457D01*
X142830601Y-64715801D01*
X142718633Y-64579367D01*
X142582199Y-64467399D01*
X142579582Y-64466000D01*
X142582199Y-64464601D01*
X142718633Y-64352633D01*
X142830601Y-64216199D01*
X142913801Y-64060543D01*
X142965035Y-63891647D01*
X142982335Y-63716000D01*
X142965035Y-63540353D01*
X142913801Y-63371457D01*
X142830601Y-63215801D01*
X142718633Y-63079367D01*
X142582199Y-62967399D01*
X142426543Y-62884199D01*
X142257647Y-62832965D01*
X142126013Y-62820000D01*
X141337987Y-62820000D01*
X141206353Y-62832965D01*
X141037457Y-62884199D01*
X140881801Y-62967399D01*
X140745367Y-63079367D01*
X140633399Y-63215801D01*
X140550199Y-63371457D01*
X140498965Y-63540353D01*
X140481665Y-63716000D01*
X140498965Y-63891647D01*
X140550199Y-64060543D01*
X140633399Y-64216199D01*
X140745367Y-64352633D01*
X140881801Y-64464601D01*
X140884418Y-64466000D01*
X140881801Y-64467399D01*
X140745367Y-64579367D01*
X140633399Y-64715801D01*
X140550199Y-64871457D01*
X140498965Y-65040353D01*
X140481665Y-65216000D01*
X140498965Y-65391647D01*
X140550199Y-65560543D01*
X140633399Y-65716199D01*
X140745367Y-65852633D01*
X140881801Y-65964601D01*
X140884418Y-65966000D01*
X140881801Y-65967399D01*
X140745367Y-66079367D01*
X140633399Y-66215801D01*
X140550199Y-66371457D01*
X140498965Y-66540353D01*
X140481665Y-66716000D01*
X140498965Y-66891647D01*
X140550199Y-67060543D01*
X140633399Y-67216199D01*
X140745367Y-67352633D01*
X140881801Y-67464601D01*
X140884418Y-67466000D01*
X140881801Y-67467399D01*
X140745367Y-67579367D01*
X140633399Y-67715801D01*
X140550199Y-67871457D01*
X140498965Y-68040353D01*
X140481665Y-68216000D01*
X140498965Y-68391647D01*
X140550199Y-68560543D01*
X140633399Y-68716199D01*
X140745367Y-68852633D01*
X140881801Y-68964601D01*
X140884418Y-68966000D01*
X140881801Y-68967399D01*
X140745367Y-69079367D01*
X140633399Y-69215801D01*
X140550199Y-69371457D01*
X140498965Y-69540353D01*
X140481665Y-69716000D01*
X140498965Y-69891647D01*
X140550199Y-70060543D01*
X140633399Y-70216199D01*
X140745367Y-70352633D01*
X140881801Y-70464601D01*
X140884418Y-70466000D01*
X140881801Y-70467399D01*
X140745367Y-70579367D01*
X140633399Y-70715801D01*
X140550199Y-70871457D01*
X140498965Y-71040353D01*
X140481665Y-71216000D01*
X140498965Y-71391647D01*
X140550199Y-71560543D01*
X140633399Y-71716199D01*
X140745367Y-71852633D01*
X140881801Y-71964601D01*
X140884418Y-71966000D01*
X140881801Y-71967399D01*
X140745367Y-72079367D01*
X140633399Y-72215801D01*
X140550199Y-72371457D01*
X140498965Y-72540353D01*
X140481665Y-72716000D01*
X140498965Y-72891647D01*
X140550199Y-73060543D01*
X140633399Y-73216199D01*
X140745367Y-73352633D01*
X140881801Y-73464601D01*
X140884418Y-73466000D01*
X140881801Y-73467399D01*
X140745367Y-73579367D01*
X140633399Y-73715801D01*
X140550199Y-73871457D01*
X140498965Y-74040353D01*
X140481665Y-74216000D01*
X140498965Y-74391647D01*
X140550199Y-74560543D01*
X140633399Y-74716199D01*
X140745367Y-74852633D01*
X140881801Y-74964601D01*
X140884418Y-74966000D01*
X140881801Y-74967399D01*
X140745367Y-75079367D01*
X140633399Y-75215801D01*
X140550199Y-75371457D01*
X140498965Y-75540353D01*
X140481665Y-75716000D01*
X140498965Y-75891647D01*
X140550199Y-76060543D01*
X140633399Y-76216199D01*
X140745367Y-76352633D01*
X140881801Y-76464601D01*
X141037457Y-76547801D01*
X141206353Y-76599035D01*
X141337987Y-76612000D01*
X142126013Y-76612000D01*
X142257647Y-76599035D01*
X142426543Y-76547801D01*
X142568356Y-76472000D01*
X143448871Y-76472000D01*
X143486000Y-76475657D01*
X143523129Y-76472000D01*
X143634202Y-76461060D01*
X143776708Y-76417832D01*
X143908043Y-76347632D01*
X144023159Y-76253159D01*
X144046837Y-76224307D01*
X144315145Y-75956000D01*
X145657216Y-75956000D01*
X145669289Y-75970711D01*
X145727304Y-76018322D01*
X145793492Y-76053701D01*
X145865311Y-76075487D01*
X145940000Y-76082843D01*
X147940000Y-76082843D01*
X148014689Y-76075487D01*
X148086508Y-76053701D01*
X148152696Y-76018322D01*
X148210711Y-75970711D01*
X148222784Y-75956000D01*
X156156871Y-75956000D01*
X156194000Y-75959657D01*
X156231129Y-75956000D01*
X156342202Y-75945060D01*
X156484708Y-75901832D01*
X156616043Y-75831632D01*
X156731159Y-75737159D01*
X156754837Y-75708307D01*
X157099000Y-75364145D01*
X158697999Y-76963144D01*
X158698000Y-84348862D01*
X158694342Y-84386001D01*
X158708939Y-84534203D01*
X158752167Y-84676709D01*
X158756064Y-84684000D01*
X140106000Y-84684000D01*
X140106000Y-81700000D01*
X142023157Y-81700000D01*
X142023157Y-83400000D01*
X142030513Y-83474689D01*
X142052299Y-83546508D01*
X142087678Y-83612696D01*
X142135289Y-83670711D01*
X142193304Y-83718322D01*
X142259492Y-83753701D01*
X142331311Y-83775487D01*
X142406000Y-83782843D01*
X143242921Y-83782843D01*
X143252438Y-83792360D01*
X143280025Y-83825975D01*
X143340981Y-83876000D01*
X143414174Y-83936068D01*
X143474800Y-83968473D01*
X143567225Y-84017875D01*
X143733294Y-84068252D01*
X143862727Y-84081000D01*
X143862730Y-84081000D01*
X143906000Y-84085262D01*
X143949270Y-84081000D01*
X145921287Y-84081000D01*
X145940000Y-84082843D01*
X147940000Y-84082843D01*
X148014689Y-84075487D01*
X148086508Y-84053701D01*
X148152696Y-84018322D01*
X148210711Y-83970711D01*
X148258322Y-83912696D01*
X148293701Y-83846508D01*
X148315487Y-83774689D01*
X148322843Y-83700000D01*
X148322843Y-82700000D01*
X148315487Y-82625311D01*
X148293701Y-82553492D01*
X148258322Y-82487304D01*
X148210711Y-82429289D01*
X148152696Y-82381678D01*
X148086508Y-82346299D01*
X148014689Y-82324513D01*
X147940000Y-82317157D01*
X145940000Y-82317157D01*
X145921287Y-82319000D01*
X144488843Y-82319000D01*
X144488843Y-81700000D01*
X144481487Y-81625311D01*
X144459701Y-81553492D01*
X144424322Y-81487304D01*
X144376711Y-81429289D01*
X144318696Y-81381678D01*
X144252508Y-81346299D01*
X144180689Y-81324513D01*
X144106000Y-81317157D01*
X142406000Y-81317157D01*
X142331311Y-81324513D01*
X142259492Y-81346299D01*
X142193304Y-81381678D01*
X142135289Y-81429289D01*
X142087678Y-81487304D01*
X142052299Y-81553492D01*
X142030513Y-81625311D01*
X142023157Y-81700000D01*
X140106000Y-81700000D01*
X140106000Y-78700000D01*
X145557157Y-78700000D01*
X145557157Y-79700000D01*
X145564513Y-79774689D01*
X145586299Y-79846508D01*
X145621678Y-79912696D01*
X145669289Y-79970711D01*
X145727304Y-80018322D01*
X145793492Y-80053701D01*
X145865311Y-80075487D01*
X145940000Y-80082843D01*
X147940000Y-80082843D01*
X148014689Y-80075487D01*
X148086508Y-80053701D01*
X148152696Y-80018322D01*
X148210711Y-79970711D01*
X148258322Y-79912696D01*
X148293701Y-79846508D01*
X148315487Y-79774689D01*
X148322843Y-79700000D01*
X148322843Y-78700000D01*
X148315487Y-78625311D01*
X148293701Y-78553492D01*
X148258322Y-78487304D01*
X148210711Y-78429289D01*
X148152696Y-78381678D01*
X148086508Y-78346299D01*
X148014689Y-78324513D01*
X147940000Y-78317157D01*
X145940000Y-78317157D01*
X145865311Y-78324513D01*
X145793492Y-78346299D01*
X145727304Y-78381678D01*
X145669289Y-78429289D01*
X145621678Y-78487304D01*
X145586299Y-78553492D01*
X145564513Y-78625311D01*
X145557157Y-78700000D01*
X140106000Y-78700000D01*
X140106000Y-76700000D01*
X145557157Y-76700000D01*
X145557157Y-77700000D01*
X145564513Y-77774689D01*
X145586299Y-77846508D01*
X145621678Y-77912696D01*
X145669289Y-77970711D01*
X145727304Y-78018322D01*
X145793492Y-78053701D01*
X145865311Y-78075487D01*
X145940000Y-78082843D01*
X147940000Y-78082843D01*
X148014689Y-78075487D01*
X148086508Y-78053701D01*
X148152696Y-78018322D01*
X148210711Y-77970711D01*
X148258322Y-77912696D01*
X148293701Y-77846508D01*
X148315487Y-77774689D01*
X148322843Y-77700000D01*
X148322843Y-76700000D01*
X148315487Y-76625311D01*
X148293701Y-76553492D01*
X148258322Y-76487304D01*
X148210711Y-76429289D01*
X148152696Y-76381678D01*
X148086508Y-76346299D01*
X148014689Y-76324513D01*
X147940000Y-76317157D01*
X145940000Y-76317157D01*
X145865311Y-76324513D01*
X145793492Y-76346299D01*
X145727304Y-76381678D01*
X145669289Y-76429289D01*
X145621678Y-76487304D01*
X145586299Y-76553492D01*
X145564513Y-76625311D01*
X145557157Y-76700000D01*
X140106000Y-76700000D01*
X140106000Y-55142000D01*
X140481665Y-55142000D01*
X140498965Y-55317647D01*
X140550199Y-55486543D01*
X140633399Y-55642199D01*
X140745367Y-55778633D01*
X140806533Y-55828830D01*
X140765411Y-55850810D01*
X140669512Y-55929512D01*
X140590810Y-56025411D01*
X140532329Y-56134821D01*
X140496317Y-56253538D01*
X140484157Y-56376999D01*
X140484157Y-56907001D01*
X140496317Y-57030462D01*
X140532329Y-57149179D01*
X140590810Y-57258589D01*
X140669512Y-57354488D01*
X140765411Y-57433190D01*
X140874821Y-57491671D01*
X140993538Y-57527683D01*
X141116999Y-57539843D01*
X142347001Y-57539843D01*
X142470462Y-57527683D01*
X142589179Y-57491671D01*
X142698589Y-57433190D01*
X142794488Y-57354488D01*
X142873190Y-57258589D01*
X142931671Y-57149179D01*
X142967683Y-57030462D01*
X142979843Y-56907001D01*
X142979843Y-56376999D01*
X142967683Y-56253538D01*
X142931671Y-56134821D01*
X142873190Y-56025411D01*
X142794488Y-55929512D01*
X142698589Y-55850810D01*
X142657467Y-55828830D01*
X142718633Y-55778633D01*
X142830601Y-55642199D01*
X142913801Y-55486543D01*
X142965035Y-55317647D01*
X142982335Y-55142000D01*
X142965035Y-54966353D01*
X142913801Y-54797457D01*
X142830601Y-54641801D01*
X142718633Y-54505367D01*
X142582199Y-54393399D01*
X142426543Y-54310199D01*
X142257647Y-54258965D01*
X142126013Y-54246000D01*
X141337987Y-54246000D01*
X141206353Y-54258965D01*
X141037457Y-54310199D01*
X140881801Y-54393399D01*
X140745367Y-54505367D01*
X140633399Y-54641801D01*
X140550199Y-54797457D01*
X140498965Y-54966353D01*
X140481665Y-55142000D01*
X140106000Y-55142000D01*
X140106000Y-51206000D01*
X210414000Y-51206000D01*
X210414001Y-63988049D01*
G37*
G04 #@! TD.AperFunction*
M02*
