M48
; DRILL file {KiCad (5.1.9)-1} date 06/19/22 12:13:18
; FORMAT={-:-/ absolute / metric / decimal}
; #@! TF.CreationDate,2022-06-19T12:13:18+03:00
; #@! TF.GenerationSoftware,Kicad,Pcbnew,(5.1.9)-1
; #@! TF.FileFunction,Plated,1,2,PTH
FMAT,2
METRIC
T1C0.400
T2C0.730
T3C1.000
%
G90
G05
T1
X63.652Y-47.6
X63.754Y-43.84
X64.008Y-54.356
X64.101Y-49.081
X64.211Y-41.3
X64.22Y-51.604
X65.168Y-50.148
X65.329Y-42.012
X66.04Y-50.902
X67.259Y-48.362
X67.31Y-47.244
X67.564Y-44.044
X68.286Y-53.186
X68.94Y-45.521
X69.24Y-44.298
X69.85Y-47.092
X70.053Y-48.616
X71.425Y-45.822
X72.187Y-46.787
X72.339Y-44.552
X74.524Y-42.418
X74.625Y-50.241
X75.738Y-50.246
X76.048Y-43.79
X76.048Y-48.971
X76.098Y-46.787
X80.213Y-41.3
X80.518Y-50.444
X82.956Y-55.778
X83.058Y-50.648
X85.293Y-55.931
X87.782Y-41.453
X88.24Y-44.348
X92.151Y-56.236
X92.253Y-53.594
X92.507Y-44.247
X94.132Y-41.554
X94.132Y-44.298
X94.336Y-55.067
T2
X92.964Y-47.265
X92.964Y-48.765
X92.964Y-50.265
X92.964Y-51.765
T3
X57.455Y-55.829
T0
M30
