%TF.GenerationSoftware,KiCad,Pcbnew,(5.1.9)-1*%
%TF.CreationDate,2022-06-19T12:13:52+03:00*%
%TF.ProjectId,jantteri-lora,6a616e74-7465-4726-992d-6c6f72612e6b,rev?*%
%TF.SameCoordinates,Original*%
%TF.FileFunction,Paste,Top*%
%TF.FilePolarity,Positive*%
%FSLAX46Y46*%
G04 Gerber Fmt 4.6, Leading zero omitted, Abs format (unit mm)*
G04 Created by KiCad (PCBNEW (5.1.9)-1) date 2022-06-19 12:13:52*
%MOMM*%
%LPD*%
G01*
G04 APERTURE LIST*
%ADD10R,0.900000X0.800000*%
%ADD11R,2.000000X3.800000*%
%ADD12R,2.000000X1.500000*%
%ADD13R,1.400000X1.200000*%
G04 APERTURE END LIST*
%TO.C,C1*%
G36*
G01*
X89339400Y-49009600D02*
X90289400Y-49009600D01*
G75*
G02*
X90539400Y-49259600I0J-250000D01*
G01*
X90539400Y-49759600D01*
G75*
G02*
X90289400Y-50009600I-250000J0D01*
G01*
X89339400Y-50009600D01*
G75*
G02*
X89089400Y-49759600I0J250000D01*
G01*
X89089400Y-49259600D01*
G75*
G02*
X89339400Y-49009600I250000J0D01*
G01*
G37*
G36*
G01*
X89339400Y-50909600D02*
X90289400Y-50909600D01*
G75*
G02*
X90539400Y-51159600I0J-250000D01*
G01*
X90539400Y-51659600D01*
G75*
G02*
X90289400Y-51909600I-250000J0D01*
G01*
X89339400Y-51909600D01*
G75*
G02*
X89089400Y-51659600I0J250000D01*
G01*
X89089400Y-51159600D01*
G75*
G02*
X89339400Y-50909600I250000J0D01*
G01*
G37*
%TD*%
%TO.C,C2*%
G36*
G01*
X89339400Y-54821200D02*
X90289400Y-54821200D01*
G75*
G02*
X90539400Y-55071200I0J-250000D01*
G01*
X90539400Y-55571200D01*
G75*
G02*
X90289400Y-55821200I-250000J0D01*
G01*
X89339400Y-55821200D01*
G75*
G02*
X89089400Y-55571200I0J250000D01*
G01*
X89089400Y-55071200D01*
G75*
G02*
X89339400Y-54821200I250000J0D01*
G01*
G37*
G36*
G01*
X89339400Y-52921200D02*
X90289400Y-52921200D01*
G75*
G02*
X90539400Y-53171200I0J-250000D01*
G01*
X90539400Y-53671200D01*
G75*
G02*
X90289400Y-53921200I-250000J0D01*
G01*
X89339400Y-53921200D01*
G75*
G02*
X89089400Y-53671200I0J250000D01*
G01*
X89089400Y-53171200D01*
G75*
G02*
X89339400Y-52921200I250000J0D01*
G01*
G37*
%TD*%
%TO.C,C3*%
G36*
G01*
X63391200Y-46536800D02*
X63391200Y-47036800D01*
G75*
G02*
X63166200Y-47261800I-225000J0D01*
G01*
X62716200Y-47261800D01*
G75*
G02*
X62491200Y-47036800I0J225000D01*
G01*
X62491200Y-46536800D01*
G75*
G02*
X62716200Y-46311800I225000J0D01*
G01*
X63166200Y-46311800D01*
G75*
G02*
X63391200Y-46536800I0J-225000D01*
G01*
G37*
G36*
G01*
X61841200Y-46536800D02*
X61841200Y-47036800D01*
G75*
G02*
X61616200Y-47261800I-225000J0D01*
G01*
X61166200Y-47261800D01*
G75*
G02*
X60941200Y-47036800I0J225000D01*
G01*
X60941200Y-46536800D01*
G75*
G02*
X61166200Y-46311800I225000J0D01*
G01*
X61616200Y-46311800D01*
G75*
G02*
X61841200Y-46536800I0J-225000D01*
G01*
G37*
%TD*%
%TO.C,C4*%
G36*
G01*
X61867200Y-48111600D02*
X61867200Y-48611600D01*
G75*
G02*
X61642200Y-48836600I-225000J0D01*
G01*
X61192200Y-48836600D01*
G75*
G02*
X60967200Y-48611600I0J225000D01*
G01*
X60967200Y-48111600D01*
G75*
G02*
X61192200Y-47886600I225000J0D01*
G01*
X61642200Y-47886600D01*
G75*
G02*
X61867200Y-48111600I0J-225000D01*
G01*
G37*
G36*
G01*
X63417200Y-48111600D02*
X63417200Y-48611600D01*
G75*
G02*
X63192200Y-48836600I-225000J0D01*
G01*
X62742200Y-48836600D01*
G75*
G02*
X62517200Y-48611600I0J225000D01*
G01*
X62517200Y-48111600D01*
G75*
G02*
X62742200Y-47886600I225000J0D01*
G01*
X63192200Y-47886600D01*
G75*
G02*
X63417200Y-48111600I0J-225000D01*
G01*
G37*
%TD*%
%TO.C,C9*%
G36*
G01*
X78424801Y-53156600D02*
X77124799Y-53156600D01*
G75*
G02*
X76874800Y-52906601I0J249999D01*
G01*
X76874800Y-52256599D01*
G75*
G02*
X77124799Y-52006600I249999J0D01*
G01*
X78424801Y-52006600D01*
G75*
G02*
X78674800Y-52256599I0J-249999D01*
G01*
X78674800Y-52906601D01*
G75*
G02*
X78424801Y-53156600I-249999J0D01*
G01*
G37*
G36*
G01*
X78424801Y-50206600D02*
X77124799Y-50206600D01*
G75*
G02*
X76874800Y-49956601I0J249999D01*
G01*
X76874800Y-49306599D01*
G75*
G02*
X77124799Y-49056600I249999J0D01*
G01*
X78424801Y-49056600D01*
G75*
G02*
X78674800Y-49306599I0J-249999D01*
G01*
X78674800Y-49956601D01*
G75*
G02*
X78424801Y-50206600I-249999J0D01*
G01*
G37*
%TD*%
%TO.C,C10*%
G36*
G01*
X66896400Y-54106000D02*
X66896400Y-54606000D01*
G75*
G02*
X66671400Y-54831000I-225000J0D01*
G01*
X66221400Y-54831000D01*
G75*
G02*
X65996400Y-54606000I0J225000D01*
G01*
X65996400Y-54106000D01*
G75*
G02*
X66221400Y-53881000I225000J0D01*
G01*
X66671400Y-53881000D01*
G75*
G02*
X66896400Y-54106000I0J-225000D01*
G01*
G37*
G36*
G01*
X65346400Y-54106000D02*
X65346400Y-54606000D01*
G75*
G02*
X65121400Y-54831000I-225000J0D01*
G01*
X64671400Y-54831000D01*
G75*
G02*
X64446400Y-54606000I0J225000D01*
G01*
X64446400Y-54106000D01*
G75*
G02*
X64671400Y-53881000I225000J0D01*
G01*
X65121400Y-53881000D01*
G75*
G02*
X65346400Y-54106000I0J-225000D01*
G01*
G37*
%TD*%
%TO.C,C11*%
G36*
G01*
X75281600Y-56800200D02*
X74781600Y-56800200D01*
G75*
G02*
X74556600Y-56575200I0J225000D01*
G01*
X74556600Y-56125200D01*
G75*
G02*
X74781600Y-55900200I225000J0D01*
G01*
X75281600Y-55900200D01*
G75*
G02*
X75506600Y-56125200I0J-225000D01*
G01*
X75506600Y-56575200D01*
G75*
G02*
X75281600Y-56800200I-225000J0D01*
G01*
G37*
G36*
G01*
X75281600Y-55250200D02*
X74781600Y-55250200D01*
G75*
G02*
X74556600Y-55025200I0J225000D01*
G01*
X74556600Y-54575200D01*
G75*
G02*
X74781600Y-54350200I225000J0D01*
G01*
X75281600Y-54350200D01*
G75*
G02*
X75506600Y-54575200I0J-225000D01*
G01*
X75506600Y-55025200D01*
G75*
G02*
X75281600Y-55250200I-225000J0D01*
G01*
G37*
%TD*%
%TO.C,C12*%
G36*
G01*
X76907200Y-55237200D02*
X76407200Y-55237200D01*
G75*
G02*
X76182200Y-55012200I0J225000D01*
G01*
X76182200Y-54562200D01*
G75*
G02*
X76407200Y-54337200I225000J0D01*
G01*
X76907200Y-54337200D01*
G75*
G02*
X77132200Y-54562200I0J-225000D01*
G01*
X77132200Y-55012200D01*
G75*
G02*
X76907200Y-55237200I-225000J0D01*
G01*
G37*
G36*
G01*
X76907200Y-56787200D02*
X76407200Y-56787200D01*
G75*
G02*
X76182200Y-56562200I0J225000D01*
G01*
X76182200Y-56112200D01*
G75*
G02*
X76407200Y-55887200I225000J0D01*
G01*
X76907200Y-55887200D01*
G75*
G02*
X77132200Y-56112200I0J-225000D01*
G01*
X77132200Y-56562200D01*
G75*
G02*
X76907200Y-56787200I-225000J0D01*
G01*
G37*
%TD*%
%TO.C,C13*%
G36*
G01*
X78532800Y-55237200D02*
X78032800Y-55237200D01*
G75*
G02*
X77807800Y-55012200I0J225000D01*
G01*
X77807800Y-54562200D01*
G75*
G02*
X78032800Y-54337200I225000J0D01*
G01*
X78532800Y-54337200D01*
G75*
G02*
X78757800Y-54562200I0J-225000D01*
G01*
X78757800Y-55012200D01*
G75*
G02*
X78532800Y-55237200I-225000J0D01*
G01*
G37*
G36*
G01*
X78532800Y-56787200D02*
X78032800Y-56787200D01*
G75*
G02*
X77807800Y-56562200I0J225000D01*
G01*
X77807800Y-56112200D01*
G75*
G02*
X78032800Y-55887200I225000J0D01*
G01*
X78532800Y-55887200D01*
G75*
G02*
X78757800Y-56112200I0J-225000D01*
G01*
X78757800Y-56562200D01*
G75*
G02*
X78532800Y-56787200I-225000J0D01*
G01*
G37*
%TD*%
%TO.C,C14*%
G36*
G01*
X66922400Y-52480400D02*
X66922400Y-52980400D01*
G75*
G02*
X66697400Y-53205400I-225000J0D01*
G01*
X66247400Y-53205400D01*
G75*
G02*
X66022400Y-52980400I0J225000D01*
G01*
X66022400Y-52480400D01*
G75*
G02*
X66247400Y-52255400I225000J0D01*
G01*
X66697400Y-52255400D01*
G75*
G02*
X66922400Y-52480400I0J-225000D01*
G01*
G37*
G36*
G01*
X65372400Y-52480400D02*
X65372400Y-52980400D01*
G75*
G02*
X65147400Y-53205400I-225000J0D01*
G01*
X64697400Y-53205400D01*
G75*
G02*
X64472400Y-52980400I0J225000D01*
G01*
X64472400Y-52480400D01*
G75*
G02*
X64697400Y-52255400I225000J0D01*
G01*
X65147400Y-52255400D01*
G75*
G02*
X65372400Y-52480400I0J-225000D01*
G01*
G37*
%TD*%
%TO.C,C15*%
G36*
G01*
X65372400Y-55680800D02*
X65372400Y-56180800D01*
G75*
G02*
X65147400Y-56405800I-225000J0D01*
G01*
X64697400Y-56405800D01*
G75*
G02*
X64472400Y-56180800I0J225000D01*
G01*
X64472400Y-55680800D01*
G75*
G02*
X64697400Y-55455800I225000J0D01*
G01*
X65147400Y-55455800D01*
G75*
G02*
X65372400Y-55680800I0J-225000D01*
G01*
G37*
G36*
G01*
X66922400Y-55680800D02*
X66922400Y-56180800D01*
G75*
G02*
X66697400Y-56405800I-225000J0D01*
G01*
X66247400Y-56405800D01*
G75*
G02*
X66022400Y-56180800I0J225000D01*
G01*
X66022400Y-55680800D01*
G75*
G02*
X66247400Y-55455800I225000J0D01*
G01*
X66697400Y-55455800D01*
G75*
G02*
X66922400Y-55680800I0J-225000D01*
G01*
G37*
%TD*%
%TO.C,C16*%
G36*
G01*
X68242000Y-55347200D02*
X67902000Y-55347200D01*
G75*
G02*
X67762000Y-55207200I0J140000D01*
G01*
X67762000Y-54927200D01*
G75*
G02*
X67902000Y-54787200I140000J0D01*
G01*
X68242000Y-54787200D01*
G75*
G02*
X68382000Y-54927200I0J-140000D01*
G01*
X68382000Y-55207200D01*
G75*
G02*
X68242000Y-55347200I-140000J0D01*
G01*
G37*
G36*
G01*
X68242000Y-54387200D02*
X67902000Y-54387200D01*
G75*
G02*
X67762000Y-54247200I0J140000D01*
G01*
X67762000Y-53967200D01*
G75*
G02*
X67902000Y-53827200I140000J0D01*
G01*
X68242000Y-53827200D01*
G75*
G02*
X68382000Y-53967200I0J-140000D01*
G01*
X68382000Y-54247200D01*
G75*
G02*
X68242000Y-54387200I-140000J0D01*
G01*
G37*
%TD*%
%TO.C,C17*%
G36*
G01*
X73439200Y-54782000D02*
X73779200Y-54782000D01*
G75*
G02*
X73919200Y-54922000I0J-140000D01*
G01*
X73919200Y-55202000D01*
G75*
G02*
X73779200Y-55342000I-140000J0D01*
G01*
X73439200Y-55342000D01*
G75*
G02*
X73299200Y-55202000I0J140000D01*
G01*
X73299200Y-54922000D01*
G75*
G02*
X73439200Y-54782000I140000J0D01*
G01*
G37*
G36*
G01*
X73439200Y-53822000D02*
X73779200Y-53822000D01*
G75*
G02*
X73919200Y-53962000I0J-140000D01*
G01*
X73919200Y-54242000D01*
G75*
G02*
X73779200Y-54382000I-140000J0D01*
G01*
X73439200Y-54382000D01*
G75*
G02*
X73299200Y-54242000I0J140000D01*
G01*
X73299200Y-53962000D01*
G75*
G02*
X73439200Y-53822000I140000J0D01*
G01*
G37*
%TD*%
%TO.C,D1*%
G36*
G01*
X63299050Y-53879300D02*
X62786550Y-53879300D01*
G75*
G02*
X62567800Y-53660550I0J218750D01*
G01*
X62567800Y-53223050D01*
G75*
G02*
X62786550Y-53004300I218750J0D01*
G01*
X63299050Y-53004300D01*
G75*
G02*
X63517800Y-53223050I0J-218750D01*
G01*
X63517800Y-53660550D01*
G75*
G02*
X63299050Y-53879300I-218750J0D01*
G01*
G37*
G36*
G01*
X63299050Y-52304300D02*
X62786550Y-52304300D01*
G75*
G02*
X62567800Y-52085550I0J218750D01*
G01*
X62567800Y-51648050D01*
G75*
G02*
X62786550Y-51429300I218750J0D01*
G01*
X63299050Y-51429300D01*
G75*
G02*
X63517800Y-51648050I0J-218750D01*
G01*
X63517800Y-52085550D01*
G75*
G02*
X63299050Y-52304300I-218750J0D01*
G01*
G37*
%TD*%
%TO.C,FB1*%
G36*
G01*
X90195650Y-47829600D02*
X89433150Y-47829600D01*
G75*
G02*
X89214400Y-47610850I0J218750D01*
G01*
X89214400Y-47173350D01*
G75*
G02*
X89433150Y-46954600I218750J0D01*
G01*
X90195650Y-46954600D01*
G75*
G02*
X90414400Y-47173350I0J-218750D01*
G01*
X90414400Y-47610850D01*
G75*
G02*
X90195650Y-47829600I-218750J0D01*
G01*
G37*
G36*
G01*
X90195650Y-45704600D02*
X89433150Y-45704600D01*
G75*
G02*
X89214400Y-45485850I0J218750D01*
G01*
X89214400Y-45048350D01*
G75*
G02*
X89433150Y-44829600I218750J0D01*
G01*
X90195650Y-44829600D01*
G75*
G02*
X90414400Y-45048350I0J-218750D01*
G01*
X90414400Y-45485850D01*
G75*
G02*
X90195650Y-45704600I-218750J0D01*
G01*
G37*
%TD*%
D10*
%TO.C,Q1*%
X89814400Y-41432400D03*
X89814400Y-43332400D03*
X91814400Y-42382400D03*
%TD*%
%TO.C,R1*%
G36*
G01*
X63227800Y-56154000D02*
X62857800Y-56154000D01*
G75*
G02*
X62722800Y-56019000I0J135000D01*
G01*
X62722800Y-55749000D01*
G75*
G02*
X62857800Y-55614000I135000J0D01*
G01*
X63227800Y-55614000D01*
G75*
G02*
X63362800Y-55749000I0J-135000D01*
G01*
X63362800Y-56019000D01*
G75*
G02*
X63227800Y-56154000I-135000J0D01*
G01*
G37*
G36*
G01*
X63227800Y-55134000D02*
X62857800Y-55134000D01*
G75*
G02*
X62722800Y-54999000I0J135000D01*
G01*
X62722800Y-54729000D01*
G75*
G02*
X62857800Y-54594000I135000J0D01*
G01*
X63227800Y-54594000D01*
G75*
G02*
X63362800Y-54729000I0J-135000D01*
G01*
X63362800Y-54999000D01*
G75*
G02*
X63227800Y-55134000I-135000J0D01*
G01*
G37*
%TD*%
%TO.C,R2*%
G36*
G01*
X73424200Y-52816000D02*
X73794200Y-52816000D01*
G75*
G02*
X73929200Y-52951000I0J-135000D01*
G01*
X73929200Y-53221000D01*
G75*
G02*
X73794200Y-53356000I-135000J0D01*
G01*
X73424200Y-53356000D01*
G75*
G02*
X73289200Y-53221000I0J135000D01*
G01*
X73289200Y-52951000D01*
G75*
G02*
X73424200Y-52816000I135000J0D01*
G01*
G37*
G36*
G01*
X73424200Y-51796000D02*
X73794200Y-51796000D01*
G75*
G02*
X73929200Y-51931000I0J-135000D01*
G01*
X73929200Y-52201000D01*
G75*
G02*
X73794200Y-52336000I-135000J0D01*
G01*
X73424200Y-52336000D01*
G75*
G02*
X73289200Y-52201000I0J135000D01*
G01*
X73289200Y-51931000D01*
G75*
G02*
X73424200Y-51796000I135000J0D01*
G01*
G37*
%TD*%
D11*
%TO.C,U2*%
X80923600Y-53441600D03*
D12*
X87223600Y-53441600D03*
X87223600Y-51141600D03*
X87223600Y-55741600D03*
%TD*%
%TO.C,U6*%
G36*
G01*
X67171000Y-51480500D02*
X67021000Y-51480500D01*
G75*
G02*
X66946000Y-51405500I0J75000D01*
G01*
X66946000Y-50080500D01*
G75*
G02*
X67021000Y-50005500I75000J0D01*
G01*
X67171000Y-50005500D01*
G75*
G02*
X67246000Y-50080500I0J-75000D01*
G01*
X67246000Y-51405500D01*
G75*
G02*
X67171000Y-51480500I-75000J0D01*
G01*
G37*
G36*
G01*
X67671000Y-51480500D02*
X67521000Y-51480500D01*
G75*
G02*
X67446000Y-51405500I0J75000D01*
G01*
X67446000Y-50080500D01*
G75*
G02*
X67521000Y-50005500I75000J0D01*
G01*
X67671000Y-50005500D01*
G75*
G02*
X67746000Y-50080500I0J-75000D01*
G01*
X67746000Y-51405500D01*
G75*
G02*
X67671000Y-51480500I-75000J0D01*
G01*
G37*
G36*
G01*
X68171000Y-51480500D02*
X68021000Y-51480500D01*
G75*
G02*
X67946000Y-51405500I0J75000D01*
G01*
X67946000Y-50080500D01*
G75*
G02*
X68021000Y-50005500I75000J0D01*
G01*
X68171000Y-50005500D01*
G75*
G02*
X68246000Y-50080500I0J-75000D01*
G01*
X68246000Y-51405500D01*
G75*
G02*
X68171000Y-51480500I-75000J0D01*
G01*
G37*
G36*
G01*
X68671000Y-51480500D02*
X68521000Y-51480500D01*
G75*
G02*
X68446000Y-51405500I0J75000D01*
G01*
X68446000Y-50080500D01*
G75*
G02*
X68521000Y-50005500I75000J0D01*
G01*
X68671000Y-50005500D01*
G75*
G02*
X68746000Y-50080500I0J-75000D01*
G01*
X68746000Y-51405500D01*
G75*
G02*
X68671000Y-51480500I-75000J0D01*
G01*
G37*
G36*
G01*
X69171000Y-51480500D02*
X69021000Y-51480500D01*
G75*
G02*
X68946000Y-51405500I0J75000D01*
G01*
X68946000Y-50080500D01*
G75*
G02*
X69021000Y-50005500I75000J0D01*
G01*
X69171000Y-50005500D01*
G75*
G02*
X69246000Y-50080500I0J-75000D01*
G01*
X69246000Y-51405500D01*
G75*
G02*
X69171000Y-51480500I-75000J0D01*
G01*
G37*
G36*
G01*
X69671000Y-51480500D02*
X69521000Y-51480500D01*
G75*
G02*
X69446000Y-51405500I0J75000D01*
G01*
X69446000Y-50080500D01*
G75*
G02*
X69521000Y-50005500I75000J0D01*
G01*
X69671000Y-50005500D01*
G75*
G02*
X69746000Y-50080500I0J-75000D01*
G01*
X69746000Y-51405500D01*
G75*
G02*
X69671000Y-51480500I-75000J0D01*
G01*
G37*
G36*
G01*
X70171000Y-51480500D02*
X70021000Y-51480500D01*
G75*
G02*
X69946000Y-51405500I0J75000D01*
G01*
X69946000Y-50080500D01*
G75*
G02*
X70021000Y-50005500I75000J0D01*
G01*
X70171000Y-50005500D01*
G75*
G02*
X70246000Y-50080500I0J-75000D01*
G01*
X70246000Y-51405500D01*
G75*
G02*
X70171000Y-51480500I-75000J0D01*
G01*
G37*
G36*
G01*
X70671000Y-51480500D02*
X70521000Y-51480500D01*
G75*
G02*
X70446000Y-51405500I0J75000D01*
G01*
X70446000Y-50080500D01*
G75*
G02*
X70521000Y-50005500I75000J0D01*
G01*
X70671000Y-50005500D01*
G75*
G02*
X70746000Y-50080500I0J-75000D01*
G01*
X70746000Y-51405500D01*
G75*
G02*
X70671000Y-51480500I-75000J0D01*
G01*
G37*
G36*
G01*
X71171000Y-51480500D02*
X71021000Y-51480500D01*
G75*
G02*
X70946000Y-51405500I0J75000D01*
G01*
X70946000Y-50080500D01*
G75*
G02*
X71021000Y-50005500I75000J0D01*
G01*
X71171000Y-50005500D01*
G75*
G02*
X71246000Y-50080500I0J-75000D01*
G01*
X71246000Y-51405500D01*
G75*
G02*
X71171000Y-51480500I-75000J0D01*
G01*
G37*
G36*
G01*
X71671000Y-51480500D02*
X71521000Y-51480500D01*
G75*
G02*
X71446000Y-51405500I0J75000D01*
G01*
X71446000Y-50080500D01*
G75*
G02*
X71521000Y-50005500I75000J0D01*
G01*
X71671000Y-50005500D01*
G75*
G02*
X71746000Y-50080500I0J-75000D01*
G01*
X71746000Y-51405500D01*
G75*
G02*
X71671000Y-51480500I-75000J0D01*
G01*
G37*
G36*
G01*
X72171000Y-51480500D02*
X72021000Y-51480500D01*
G75*
G02*
X71946000Y-51405500I0J75000D01*
G01*
X71946000Y-50080500D01*
G75*
G02*
X72021000Y-50005500I75000J0D01*
G01*
X72171000Y-50005500D01*
G75*
G02*
X72246000Y-50080500I0J-75000D01*
G01*
X72246000Y-51405500D01*
G75*
G02*
X72171000Y-51480500I-75000J0D01*
G01*
G37*
G36*
G01*
X72671000Y-51480500D02*
X72521000Y-51480500D01*
G75*
G02*
X72446000Y-51405500I0J75000D01*
G01*
X72446000Y-50080500D01*
G75*
G02*
X72521000Y-50005500I75000J0D01*
G01*
X72671000Y-50005500D01*
G75*
G02*
X72746000Y-50080500I0J-75000D01*
G01*
X72746000Y-51405500D01*
G75*
G02*
X72671000Y-51480500I-75000J0D01*
G01*
G37*
G36*
G01*
X74671000Y-49480500D02*
X73346000Y-49480500D01*
G75*
G02*
X73271000Y-49405500I0J75000D01*
G01*
X73271000Y-49255500D01*
G75*
G02*
X73346000Y-49180500I75000J0D01*
G01*
X74671000Y-49180500D01*
G75*
G02*
X74746000Y-49255500I0J-75000D01*
G01*
X74746000Y-49405500D01*
G75*
G02*
X74671000Y-49480500I-75000J0D01*
G01*
G37*
G36*
G01*
X74671000Y-48980500D02*
X73346000Y-48980500D01*
G75*
G02*
X73271000Y-48905500I0J75000D01*
G01*
X73271000Y-48755500D01*
G75*
G02*
X73346000Y-48680500I75000J0D01*
G01*
X74671000Y-48680500D01*
G75*
G02*
X74746000Y-48755500I0J-75000D01*
G01*
X74746000Y-48905500D01*
G75*
G02*
X74671000Y-48980500I-75000J0D01*
G01*
G37*
G36*
G01*
X74671000Y-48480500D02*
X73346000Y-48480500D01*
G75*
G02*
X73271000Y-48405500I0J75000D01*
G01*
X73271000Y-48255500D01*
G75*
G02*
X73346000Y-48180500I75000J0D01*
G01*
X74671000Y-48180500D01*
G75*
G02*
X74746000Y-48255500I0J-75000D01*
G01*
X74746000Y-48405500D01*
G75*
G02*
X74671000Y-48480500I-75000J0D01*
G01*
G37*
G36*
G01*
X74671000Y-47980500D02*
X73346000Y-47980500D01*
G75*
G02*
X73271000Y-47905500I0J75000D01*
G01*
X73271000Y-47755500D01*
G75*
G02*
X73346000Y-47680500I75000J0D01*
G01*
X74671000Y-47680500D01*
G75*
G02*
X74746000Y-47755500I0J-75000D01*
G01*
X74746000Y-47905500D01*
G75*
G02*
X74671000Y-47980500I-75000J0D01*
G01*
G37*
G36*
G01*
X74671000Y-47480500D02*
X73346000Y-47480500D01*
G75*
G02*
X73271000Y-47405500I0J75000D01*
G01*
X73271000Y-47255500D01*
G75*
G02*
X73346000Y-47180500I75000J0D01*
G01*
X74671000Y-47180500D01*
G75*
G02*
X74746000Y-47255500I0J-75000D01*
G01*
X74746000Y-47405500D01*
G75*
G02*
X74671000Y-47480500I-75000J0D01*
G01*
G37*
G36*
G01*
X74671000Y-46980500D02*
X73346000Y-46980500D01*
G75*
G02*
X73271000Y-46905500I0J75000D01*
G01*
X73271000Y-46755500D01*
G75*
G02*
X73346000Y-46680500I75000J0D01*
G01*
X74671000Y-46680500D01*
G75*
G02*
X74746000Y-46755500I0J-75000D01*
G01*
X74746000Y-46905500D01*
G75*
G02*
X74671000Y-46980500I-75000J0D01*
G01*
G37*
G36*
G01*
X74671000Y-46480500D02*
X73346000Y-46480500D01*
G75*
G02*
X73271000Y-46405500I0J75000D01*
G01*
X73271000Y-46255500D01*
G75*
G02*
X73346000Y-46180500I75000J0D01*
G01*
X74671000Y-46180500D01*
G75*
G02*
X74746000Y-46255500I0J-75000D01*
G01*
X74746000Y-46405500D01*
G75*
G02*
X74671000Y-46480500I-75000J0D01*
G01*
G37*
G36*
G01*
X74671000Y-45980500D02*
X73346000Y-45980500D01*
G75*
G02*
X73271000Y-45905500I0J75000D01*
G01*
X73271000Y-45755500D01*
G75*
G02*
X73346000Y-45680500I75000J0D01*
G01*
X74671000Y-45680500D01*
G75*
G02*
X74746000Y-45755500I0J-75000D01*
G01*
X74746000Y-45905500D01*
G75*
G02*
X74671000Y-45980500I-75000J0D01*
G01*
G37*
G36*
G01*
X74671000Y-45480500D02*
X73346000Y-45480500D01*
G75*
G02*
X73271000Y-45405500I0J75000D01*
G01*
X73271000Y-45255500D01*
G75*
G02*
X73346000Y-45180500I75000J0D01*
G01*
X74671000Y-45180500D01*
G75*
G02*
X74746000Y-45255500I0J-75000D01*
G01*
X74746000Y-45405500D01*
G75*
G02*
X74671000Y-45480500I-75000J0D01*
G01*
G37*
G36*
G01*
X74671000Y-44980500D02*
X73346000Y-44980500D01*
G75*
G02*
X73271000Y-44905500I0J75000D01*
G01*
X73271000Y-44755500D01*
G75*
G02*
X73346000Y-44680500I75000J0D01*
G01*
X74671000Y-44680500D01*
G75*
G02*
X74746000Y-44755500I0J-75000D01*
G01*
X74746000Y-44905500D01*
G75*
G02*
X74671000Y-44980500I-75000J0D01*
G01*
G37*
G36*
G01*
X74671000Y-44480500D02*
X73346000Y-44480500D01*
G75*
G02*
X73271000Y-44405500I0J75000D01*
G01*
X73271000Y-44255500D01*
G75*
G02*
X73346000Y-44180500I75000J0D01*
G01*
X74671000Y-44180500D01*
G75*
G02*
X74746000Y-44255500I0J-75000D01*
G01*
X74746000Y-44405500D01*
G75*
G02*
X74671000Y-44480500I-75000J0D01*
G01*
G37*
G36*
G01*
X74671000Y-43980500D02*
X73346000Y-43980500D01*
G75*
G02*
X73271000Y-43905500I0J75000D01*
G01*
X73271000Y-43755500D01*
G75*
G02*
X73346000Y-43680500I75000J0D01*
G01*
X74671000Y-43680500D01*
G75*
G02*
X74746000Y-43755500I0J-75000D01*
G01*
X74746000Y-43905500D01*
G75*
G02*
X74671000Y-43980500I-75000J0D01*
G01*
G37*
G36*
G01*
X72671000Y-43155500D02*
X72521000Y-43155500D01*
G75*
G02*
X72446000Y-43080500I0J75000D01*
G01*
X72446000Y-41755500D01*
G75*
G02*
X72521000Y-41680500I75000J0D01*
G01*
X72671000Y-41680500D01*
G75*
G02*
X72746000Y-41755500I0J-75000D01*
G01*
X72746000Y-43080500D01*
G75*
G02*
X72671000Y-43155500I-75000J0D01*
G01*
G37*
G36*
G01*
X72171000Y-43155500D02*
X72021000Y-43155500D01*
G75*
G02*
X71946000Y-43080500I0J75000D01*
G01*
X71946000Y-41755500D01*
G75*
G02*
X72021000Y-41680500I75000J0D01*
G01*
X72171000Y-41680500D01*
G75*
G02*
X72246000Y-41755500I0J-75000D01*
G01*
X72246000Y-43080500D01*
G75*
G02*
X72171000Y-43155500I-75000J0D01*
G01*
G37*
G36*
G01*
X71671000Y-43155500D02*
X71521000Y-43155500D01*
G75*
G02*
X71446000Y-43080500I0J75000D01*
G01*
X71446000Y-41755500D01*
G75*
G02*
X71521000Y-41680500I75000J0D01*
G01*
X71671000Y-41680500D01*
G75*
G02*
X71746000Y-41755500I0J-75000D01*
G01*
X71746000Y-43080500D01*
G75*
G02*
X71671000Y-43155500I-75000J0D01*
G01*
G37*
G36*
G01*
X71171000Y-43155500D02*
X71021000Y-43155500D01*
G75*
G02*
X70946000Y-43080500I0J75000D01*
G01*
X70946000Y-41755500D01*
G75*
G02*
X71021000Y-41680500I75000J0D01*
G01*
X71171000Y-41680500D01*
G75*
G02*
X71246000Y-41755500I0J-75000D01*
G01*
X71246000Y-43080500D01*
G75*
G02*
X71171000Y-43155500I-75000J0D01*
G01*
G37*
G36*
G01*
X70671000Y-43155500D02*
X70521000Y-43155500D01*
G75*
G02*
X70446000Y-43080500I0J75000D01*
G01*
X70446000Y-41755500D01*
G75*
G02*
X70521000Y-41680500I75000J0D01*
G01*
X70671000Y-41680500D01*
G75*
G02*
X70746000Y-41755500I0J-75000D01*
G01*
X70746000Y-43080500D01*
G75*
G02*
X70671000Y-43155500I-75000J0D01*
G01*
G37*
G36*
G01*
X70171000Y-43155500D02*
X70021000Y-43155500D01*
G75*
G02*
X69946000Y-43080500I0J75000D01*
G01*
X69946000Y-41755500D01*
G75*
G02*
X70021000Y-41680500I75000J0D01*
G01*
X70171000Y-41680500D01*
G75*
G02*
X70246000Y-41755500I0J-75000D01*
G01*
X70246000Y-43080500D01*
G75*
G02*
X70171000Y-43155500I-75000J0D01*
G01*
G37*
G36*
G01*
X69671000Y-43155500D02*
X69521000Y-43155500D01*
G75*
G02*
X69446000Y-43080500I0J75000D01*
G01*
X69446000Y-41755500D01*
G75*
G02*
X69521000Y-41680500I75000J0D01*
G01*
X69671000Y-41680500D01*
G75*
G02*
X69746000Y-41755500I0J-75000D01*
G01*
X69746000Y-43080500D01*
G75*
G02*
X69671000Y-43155500I-75000J0D01*
G01*
G37*
G36*
G01*
X69171000Y-43155500D02*
X69021000Y-43155500D01*
G75*
G02*
X68946000Y-43080500I0J75000D01*
G01*
X68946000Y-41755500D01*
G75*
G02*
X69021000Y-41680500I75000J0D01*
G01*
X69171000Y-41680500D01*
G75*
G02*
X69246000Y-41755500I0J-75000D01*
G01*
X69246000Y-43080500D01*
G75*
G02*
X69171000Y-43155500I-75000J0D01*
G01*
G37*
G36*
G01*
X68671000Y-43155500D02*
X68521000Y-43155500D01*
G75*
G02*
X68446000Y-43080500I0J75000D01*
G01*
X68446000Y-41755500D01*
G75*
G02*
X68521000Y-41680500I75000J0D01*
G01*
X68671000Y-41680500D01*
G75*
G02*
X68746000Y-41755500I0J-75000D01*
G01*
X68746000Y-43080500D01*
G75*
G02*
X68671000Y-43155500I-75000J0D01*
G01*
G37*
G36*
G01*
X68171000Y-43155500D02*
X68021000Y-43155500D01*
G75*
G02*
X67946000Y-43080500I0J75000D01*
G01*
X67946000Y-41755500D01*
G75*
G02*
X68021000Y-41680500I75000J0D01*
G01*
X68171000Y-41680500D01*
G75*
G02*
X68246000Y-41755500I0J-75000D01*
G01*
X68246000Y-43080500D01*
G75*
G02*
X68171000Y-43155500I-75000J0D01*
G01*
G37*
G36*
G01*
X67671000Y-43155500D02*
X67521000Y-43155500D01*
G75*
G02*
X67446000Y-43080500I0J75000D01*
G01*
X67446000Y-41755500D01*
G75*
G02*
X67521000Y-41680500I75000J0D01*
G01*
X67671000Y-41680500D01*
G75*
G02*
X67746000Y-41755500I0J-75000D01*
G01*
X67746000Y-43080500D01*
G75*
G02*
X67671000Y-43155500I-75000J0D01*
G01*
G37*
G36*
G01*
X67171000Y-43155500D02*
X67021000Y-43155500D01*
G75*
G02*
X66946000Y-43080500I0J75000D01*
G01*
X66946000Y-41755500D01*
G75*
G02*
X67021000Y-41680500I75000J0D01*
G01*
X67171000Y-41680500D01*
G75*
G02*
X67246000Y-41755500I0J-75000D01*
G01*
X67246000Y-43080500D01*
G75*
G02*
X67171000Y-43155500I-75000J0D01*
G01*
G37*
G36*
G01*
X66346000Y-43980500D02*
X65021000Y-43980500D01*
G75*
G02*
X64946000Y-43905500I0J75000D01*
G01*
X64946000Y-43755500D01*
G75*
G02*
X65021000Y-43680500I75000J0D01*
G01*
X66346000Y-43680500D01*
G75*
G02*
X66421000Y-43755500I0J-75000D01*
G01*
X66421000Y-43905500D01*
G75*
G02*
X66346000Y-43980500I-75000J0D01*
G01*
G37*
G36*
G01*
X66346000Y-44480500D02*
X65021000Y-44480500D01*
G75*
G02*
X64946000Y-44405500I0J75000D01*
G01*
X64946000Y-44255500D01*
G75*
G02*
X65021000Y-44180500I75000J0D01*
G01*
X66346000Y-44180500D01*
G75*
G02*
X66421000Y-44255500I0J-75000D01*
G01*
X66421000Y-44405500D01*
G75*
G02*
X66346000Y-44480500I-75000J0D01*
G01*
G37*
G36*
G01*
X66346000Y-44980500D02*
X65021000Y-44980500D01*
G75*
G02*
X64946000Y-44905500I0J75000D01*
G01*
X64946000Y-44755500D01*
G75*
G02*
X65021000Y-44680500I75000J0D01*
G01*
X66346000Y-44680500D01*
G75*
G02*
X66421000Y-44755500I0J-75000D01*
G01*
X66421000Y-44905500D01*
G75*
G02*
X66346000Y-44980500I-75000J0D01*
G01*
G37*
G36*
G01*
X66346000Y-45480500D02*
X65021000Y-45480500D01*
G75*
G02*
X64946000Y-45405500I0J75000D01*
G01*
X64946000Y-45255500D01*
G75*
G02*
X65021000Y-45180500I75000J0D01*
G01*
X66346000Y-45180500D01*
G75*
G02*
X66421000Y-45255500I0J-75000D01*
G01*
X66421000Y-45405500D01*
G75*
G02*
X66346000Y-45480500I-75000J0D01*
G01*
G37*
G36*
G01*
X66346000Y-45980500D02*
X65021000Y-45980500D01*
G75*
G02*
X64946000Y-45905500I0J75000D01*
G01*
X64946000Y-45755500D01*
G75*
G02*
X65021000Y-45680500I75000J0D01*
G01*
X66346000Y-45680500D01*
G75*
G02*
X66421000Y-45755500I0J-75000D01*
G01*
X66421000Y-45905500D01*
G75*
G02*
X66346000Y-45980500I-75000J0D01*
G01*
G37*
G36*
G01*
X66346000Y-46480500D02*
X65021000Y-46480500D01*
G75*
G02*
X64946000Y-46405500I0J75000D01*
G01*
X64946000Y-46255500D01*
G75*
G02*
X65021000Y-46180500I75000J0D01*
G01*
X66346000Y-46180500D01*
G75*
G02*
X66421000Y-46255500I0J-75000D01*
G01*
X66421000Y-46405500D01*
G75*
G02*
X66346000Y-46480500I-75000J0D01*
G01*
G37*
G36*
G01*
X66346000Y-46980500D02*
X65021000Y-46980500D01*
G75*
G02*
X64946000Y-46905500I0J75000D01*
G01*
X64946000Y-46755500D01*
G75*
G02*
X65021000Y-46680500I75000J0D01*
G01*
X66346000Y-46680500D01*
G75*
G02*
X66421000Y-46755500I0J-75000D01*
G01*
X66421000Y-46905500D01*
G75*
G02*
X66346000Y-46980500I-75000J0D01*
G01*
G37*
G36*
G01*
X66346000Y-47480500D02*
X65021000Y-47480500D01*
G75*
G02*
X64946000Y-47405500I0J75000D01*
G01*
X64946000Y-47255500D01*
G75*
G02*
X65021000Y-47180500I75000J0D01*
G01*
X66346000Y-47180500D01*
G75*
G02*
X66421000Y-47255500I0J-75000D01*
G01*
X66421000Y-47405500D01*
G75*
G02*
X66346000Y-47480500I-75000J0D01*
G01*
G37*
G36*
G01*
X66346000Y-47980500D02*
X65021000Y-47980500D01*
G75*
G02*
X64946000Y-47905500I0J75000D01*
G01*
X64946000Y-47755500D01*
G75*
G02*
X65021000Y-47680500I75000J0D01*
G01*
X66346000Y-47680500D01*
G75*
G02*
X66421000Y-47755500I0J-75000D01*
G01*
X66421000Y-47905500D01*
G75*
G02*
X66346000Y-47980500I-75000J0D01*
G01*
G37*
G36*
G01*
X66346000Y-48480500D02*
X65021000Y-48480500D01*
G75*
G02*
X64946000Y-48405500I0J75000D01*
G01*
X64946000Y-48255500D01*
G75*
G02*
X65021000Y-48180500I75000J0D01*
G01*
X66346000Y-48180500D01*
G75*
G02*
X66421000Y-48255500I0J-75000D01*
G01*
X66421000Y-48405500D01*
G75*
G02*
X66346000Y-48480500I-75000J0D01*
G01*
G37*
G36*
G01*
X66346000Y-48980500D02*
X65021000Y-48980500D01*
G75*
G02*
X64946000Y-48905500I0J75000D01*
G01*
X64946000Y-48755500D01*
G75*
G02*
X65021000Y-48680500I75000J0D01*
G01*
X66346000Y-48680500D01*
G75*
G02*
X66421000Y-48755500I0J-75000D01*
G01*
X66421000Y-48905500D01*
G75*
G02*
X66346000Y-48980500I-75000J0D01*
G01*
G37*
G36*
G01*
X66346000Y-49480500D02*
X65021000Y-49480500D01*
G75*
G02*
X64946000Y-49405500I0J75000D01*
G01*
X64946000Y-49255500D01*
G75*
G02*
X65021000Y-49180500I75000J0D01*
G01*
X66346000Y-49180500D01*
G75*
G02*
X66421000Y-49255500I0J-75000D01*
G01*
X66421000Y-49405500D01*
G75*
G02*
X66346000Y-49480500I-75000J0D01*
G01*
G37*
%TD*%
D13*
%TO.C,Y1*%
X69748400Y-54633600D03*
X71948400Y-54633600D03*
X71948400Y-52933600D03*
X69748400Y-52933600D03*
%TD*%
M02*
