%TF.GenerationSoftware,KiCad,Pcbnew,(5.1.10)-1*%
%TF.CreationDate,2021-08-15T22:41:54+03:00*%
%TF.ProjectId,jantteri-lora,6a616e74-7465-4726-992d-6c6f72612e6b,rev?*%
%TF.SameCoordinates,Original*%
%TF.FileFunction,Soldermask,Bot*%
%TF.FilePolarity,Negative*%
%FSLAX46Y46*%
G04 Gerber Fmt 4.6, Leading zero omitted, Abs format (unit mm)*
G04 Created by KiCad (PCBNEW (5.1.10)-1) date 2021-08-15 22:41:54*
%MOMM*%
%LPD*%
G01*
G04 APERTURE LIST*
%ADD10C,1.524000*%
%ADD11R,2.000000X1.000000*%
%ADD12R,1.700000X1.700000*%
%ADD13O,1.730000X1.030000*%
%ADD14R,1.000000X1.000000*%
%ADD15O,1.000000X1.000000*%
G04 APERTURE END LIST*
D10*
%TO.C,U1*%
X61214000Y-56515000D03*
X61214000Y-59055000D03*
X61214000Y-61595000D03*
X61214000Y-64135000D03*
X61214000Y-66675000D03*
X61214000Y-69215000D03*
X61214000Y-71755000D03*
X61214000Y-74295000D03*
X61214000Y-76835000D03*
X61214000Y-79375000D03*
X84074000Y-56515000D03*
X84074000Y-59055000D03*
X84074000Y-61595000D03*
X84074000Y-64135000D03*
X84074000Y-66675000D03*
X84074000Y-69215000D03*
X84074000Y-71755000D03*
X84074000Y-74295000D03*
X84074000Y-76835000D03*
X84074000Y-79375000D03*
%TD*%
D11*
%TO.C,U3*%
X80518000Y-67406000D03*
X80518000Y-69406000D03*
X80518000Y-71406000D03*
X80518000Y-73406000D03*
X80518000Y-75406000D03*
X80518000Y-77406000D03*
X80518000Y-79406000D03*
X80518000Y-81406000D03*
X64518000Y-81406000D03*
X64518000Y-79406000D03*
X64518000Y-77406000D03*
X64518000Y-75406000D03*
X64518000Y-73406000D03*
X64518000Y-71406000D03*
X64518000Y-69406000D03*
X64518000Y-67406000D03*
%TD*%
D12*
%TO.C,J1*%
X61849000Y-83439000D03*
%TD*%
%TO.C,J3*%
G36*
G01*
X82276001Y-52839000D02*
X81045999Y-52839000D01*
G75*
G02*
X80796000Y-52589001I0J249999D01*
G01*
X80796000Y-52058999D01*
G75*
G02*
X81045999Y-51809000I249999J0D01*
G01*
X82276001Y-51809000D01*
G75*
G02*
X82526000Y-52058999I0J-249999D01*
G01*
X82526000Y-52589001D01*
G75*
G02*
X82276001Y-52839000I-249999J0D01*
G01*
G37*
D13*
X81661000Y-50824000D03*
X81661000Y-49324000D03*
X81661000Y-47824000D03*
%TD*%
D14*
%TO.C,J2*%
X78105000Y-85598000D03*
D15*
X79375000Y-85598000D03*
X78105000Y-86868000D03*
X79375000Y-86868000D03*
X78105000Y-88138000D03*
X79375000Y-88138000D03*
X78105000Y-89408000D03*
X79375000Y-89408000D03*
X78105000Y-90678000D03*
X79375000Y-90678000D03*
%TD*%
M02*
