%TF.GenerationSoftware,KiCad,Pcbnew,(5.1.10)-1*%
%TF.CreationDate,2021-08-15T22:41:54+03:00*%
%TF.ProjectId,jantteri-lora,6a616e74-7465-4726-992d-6c6f72612e6b,rev?*%
%TF.SameCoordinates,Original*%
%TF.FileFunction,Legend,Top*%
%TF.FilePolarity,Positive*%
%FSLAX46Y46*%
G04 Gerber Fmt 4.6, Leading zero omitted, Abs format (unit mm)*
G04 Created by KiCad (PCBNEW (5.1.10)-1) date 2021-08-15 22:41:54*
%MOMM*%
%LPD*%
G01*
G04 APERTURE LIST*
%ADD10C,0.150000*%
%ADD11C,0.120000*%
G04 APERTURE END LIST*
D10*
X78954333Y-51252380D02*
X78621000Y-50776190D01*
X78382904Y-51252380D02*
X78382904Y-50252380D01*
X78763857Y-50252380D01*
X78859095Y-50300000D01*
X78906714Y-50347619D01*
X78954333Y-50442857D01*
X78954333Y-50585714D01*
X78906714Y-50680952D01*
X78859095Y-50728571D01*
X78763857Y-50776190D01*
X78382904Y-50776190D01*
X79287666Y-50252380D02*
X79954333Y-51252380D01*
X79954333Y-50252380D02*
X79287666Y-51252380D01*
X78359095Y-51903380D02*
X78930523Y-51903380D01*
X78644809Y-52903380D02*
X78644809Y-51903380D01*
X79168619Y-51903380D02*
X79835285Y-52903380D01*
X79835285Y-51903380D02*
X79168619Y-52903380D01*
X78930523Y-48855380D02*
X78454333Y-48855380D01*
X78406714Y-49331571D01*
X78454333Y-49283952D01*
X78549571Y-49236333D01*
X78787666Y-49236333D01*
X78882904Y-49283952D01*
X78930523Y-49331571D01*
X78978142Y-49426809D01*
X78978142Y-49664904D01*
X78930523Y-49760142D01*
X78882904Y-49807761D01*
X78787666Y-49855380D01*
X78549571Y-49855380D01*
X78454333Y-49807761D01*
X78406714Y-49760142D01*
X79263857Y-48855380D02*
X79597190Y-49855380D01*
X79930523Y-48855380D01*
X78621000Y-47751904D02*
X78573380Y-47847142D01*
X78573380Y-47990000D01*
X78621000Y-48132857D01*
X78716238Y-48228095D01*
X78811476Y-48275714D01*
X79001952Y-48323333D01*
X79144809Y-48323333D01*
X79335285Y-48275714D01*
X79430523Y-48228095D01*
X79525761Y-48132857D01*
X79573380Y-47990000D01*
X79573380Y-47894761D01*
X79525761Y-47751904D01*
X79478142Y-47704285D01*
X79144809Y-47704285D01*
X79144809Y-47894761D01*
X79573380Y-47275714D02*
X78573380Y-47275714D01*
X79573380Y-46704285D01*
X78573380Y-46704285D01*
X79573380Y-46228095D02*
X78573380Y-46228095D01*
X78573380Y-45990000D01*
X78621000Y-45847142D01*
X78716238Y-45751904D01*
X78811476Y-45704285D01*
X79001952Y-45656666D01*
X79144809Y-45656666D01*
X79335285Y-45704285D01*
X79430523Y-45751904D01*
X79525761Y-45847142D01*
X79573380Y-45990000D01*
X79573380Y-46228095D01*
X81851523Y-62047380D02*
X81280095Y-62047380D01*
X81565809Y-62047380D02*
X81565809Y-61047380D01*
X81470571Y-61190238D01*
X81375333Y-61285476D01*
X81280095Y-61333095D01*
X82184857Y-61047380D02*
X82803904Y-61047380D01*
X82470571Y-61428333D01*
X82613428Y-61428333D01*
X82708666Y-61475952D01*
X82756285Y-61523571D01*
X82803904Y-61618809D01*
X82803904Y-61856904D01*
X82756285Y-61952142D01*
X82708666Y-61999761D01*
X82613428Y-62047380D01*
X82327714Y-62047380D01*
X82232476Y-61999761D01*
X82184857Y-61952142D01*
X82875380Y-79565476D02*
X82875380Y-80136904D01*
X82875380Y-79851190D02*
X81875380Y-79851190D01*
X82018238Y-79946428D01*
X82113476Y-80041666D01*
X82161095Y-80136904D01*
X81875380Y-78708333D02*
X81875380Y-78898809D01*
X81923000Y-78994047D01*
X81970619Y-79041666D01*
X82113476Y-79136904D01*
X82303952Y-79184523D01*
X82684904Y-79184523D01*
X82780142Y-79136904D01*
X82827761Y-79089285D01*
X82875380Y-78994047D01*
X82875380Y-78803571D01*
X82827761Y-78708333D01*
X82780142Y-78660714D01*
X82684904Y-78613095D01*
X82446809Y-78613095D01*
X82351571Y-78660714D01*
X82303952Y-78708333D01*
X82256333Y-78803571D01*
X82256333Y-78994047D01*
X82303952Y-79089285D01*
X82351571Y-79136904D01*
X82446809Y-79184523D01*
X63317380Y-79565476D02*
X63317380Y-80136904D01*
X63317380Y-79851190D02*
X62317380Y-79851190D01*
X62460238Y-79946428D01*
X62555476Y-80041666D01*
X62603095Y-80136904D01*
X62317380Y-78946428D02*
X62317380Y-78851190D01*
X62365000Y-78755952D01*
X62412619Y-78708333D01*
X62507857Y-78660714D01*
X62698333Y-78613095D01*
X62936428Y-78613095D01*
X63126904Y-78660714D01*
X63222142Y-78708333D01*
X63269761Y-78755952D01*
X63317380Y-78851190D01*
X63317380Y-78946428D01*
X63269761Y-79041666D01*
X63222142Y-79089285D01*
X63126904Y-79136904D01*
X62936428Y-79184523D01*
X62698333Y-79184523D01*
X62507857Y-79136904D01*
X62412619Y-79089285D01*
X62365000Y-79041666D01*
X62317380Y-78946428D01*
X63150714Y-62047380D02*
X62579285Y-62047380D01*
X62865000Y-62047380D02*
X62865000Y-61047380D01*
X62769761Y-61190238D01*
X62674523Y-61285476D01*
X62579285Y-61333095D01*
X62563523Y-59459761D02*
X62706380Y-59507380D01*
X62944476Y-59507380D01*
X63039714Y-59459761D01*
X63087333Y-59412142D01*
X63134952Y-59316904D01*
X63134952Y-59221666D01*
X63087333Y-59126428D01*
X63039714Y-59078809D01*
X62944476Y-59031190D01*
X62754000Y-58983571D01*
X62658761Y-58935952D01*
X62611142Y-58888333D01*
X62563523Y-58793095D01*
X62563523Y-58697857D01*
X62611142Y-58602619D01*
X62658761Y-58555000D01*
X62754000Y-58507380D01*
X62992095Y-58507380D01*
X63134952Y-58555000D01*
X64134952Y-59412142D02*
X64087333Y-59459761D01*
X63944476Y-59507380D01*
X63849238Y-59507380D01*
X63706380Y-59459761D01*
X63611142Y-59364523D01*
X63563523Y-59269285D01*
X63515904Y-59078809D01*
X63515904Y-58935952D01*
X63563523Y-58745476D01*
X63611142Y-58650238D01*
X63706380Y-58555000D01*
X63849238Y-58507380D01*
X63944476Y-58507380D01*
X64087333Y-58555000D01*
X64134952Y-58602619D01*
X65039714Y-59507380D02*
X64563523Y-59507380D01*
X64563523Y-58507380D01*
X62539714Y-57046761D02*
X62682571Y-57094380D01*
X62920666Y-57094380D01*
X63015904Y-57046761D01*
X63063523Y-56999142D01*
X63111142Y-56903904D01*
X63111142Y-56808666D01*
X63063523Y-56713428D01*
X63015904Y-56665809D01*
X62920666Y-56618190D01*
X62730190Y-56570571D01*
X62634952Y-56522952D01*
X62587333Y-56475333D01*
X62539714Y-56380095D01*
X62539714Y-56284857D01*
X62587333Y-56189619D01*
X62634952Y-56142000D01*
X62730190Y-56094380D01*
X62968285Y-56094380D01*
X63111142Y-56142000D01*
X63539714Y-57094380D02*
X63539714Y-56094380D01*
X63777809Y-56094380D01*
X63920666Y-56142000D01*
X64015904Y-56237238D01*
X64063523Y-56332476D01*
X64111142Y-56522952D01*
X64111142Y-56665809D01*
X64063523Y-56856285D01*
X64015904Y-56951523D01*
X63920666Y-57046761D01*
X63777809Y-57094380D01*
X63539714Y-57094380D01*
X64492095Y-56808666D02*
X64968285Y-56808666D01*
X64396857Y-57094380D02*
X64730190Y-56094380D01*
X65063523Y-57094380D01*
X80772095Y-58555000D02*
X80676857Y-58507380D01*
X80534000Y-58507380D01*
X80391142Y-58555000D01*
X80295904Y-58650238D01*
X80248285Y-58745476D01*
X80200666Y-58935952D01*
X80200666Y-59078809D01*
X80248285Y-59269285D01*
X80295904Y-59364523D01*
X80391142Y-59459761D01*
X80534000Y-59507380D01*
X80629238Y-59507380D01*
X80772095Y-59459761D01*
X80819714Y-59412142D01*
X80819714Y-59078809D01*
X80629238Y-59078809D01*
X81248285Y-59507380D02*
X81248285Y-58507380D01*
X81819714Y-59507380D01*
X81819714Y-58507380D01*
X82295904Y-59507380D02*
X82295904Y-58507380D01*
X82534000Y-58507380D01*
X82676857Y-58555000D01*
X82772095Y-58650238D01*
X82819714Y-58745476D01*
X82867333Y-58935952D01*
X82867333Y-59078809D01*
X82819714Y-59269285D01*
X82772095Y-59364523D01*
X82676857Y-59459761D01*
X82534000Y-59507380D01*
X82295904Y-59507380D01*
X81851523Y-55967380D02*
X81375333Y-55967380D01*
X81327714Y-56443571D01*
X81375333Y-56395952D01*
X81470571Y-56348333D01*
X81708666Y-56348333D01*
X81803904Y-56395952D01*
X81851523Y-56443571D01*
X81899142Y-56538809D01*
X81899142Y-56776904D01*
X81851523Y-56872142D01*
X81803904Y-56919761D01*
X81708666Y-56967380D01*
X81470571Y-56967380D01*
X81375333Y-56919761D01*
X81327714Y-56872142D01*
X82184857Y-55967380D02*
X82518190Y-56967380D01*
X82851523Y-55967380D01*
X62024333Y-91638380D02*
X61548142Y-91638380D01*
X61548142Y-90638380D01*
X62500523Y-91638380D02*
X62405285Y-91590761D01*
X62357666Y-91543142D01*
X62310047Y-91447904D01*
X62310047Y-91162190D01*
X62357666Y-91066952D01*
X62405285Y-91019333D01*
X62500523Y-90971714D01*
X62643380Y-90971714D01*
X62738619Y-91019333D01*
X62786238Y-91066952D01*
X62833857Y-91162190D01*
X62833857Y-91447904D01*
X62786238Y-91543142D01*
X62738619Y-91590761D01*
X62643380Y-91638380D01*
X62500523Y-91638380D01*
X63833857Y-91638380D02*
X63500523Y-91162190D01*
X63262428Y-91638380D02*
X63262428Y-90638380D01*
X63643380Y-90638380D01*
X63738619Y-90686000D01*
X63786238Y-90733619D01*
X63833857Y-90828857D01*
X63833857Y-90971714D01*
X63786238Y-91066952D01*
X63738619Y-91114571D01*
X63643380Y-91162190D01*
X63262428Y-91162190D01*
X64691000Y-91638380D02*
X64691000Y-91114571D01*
X64643380Y-91019333D01*
X64548142Y-90971714D01*
X64357666Y-90971714D01*
X64262428Y-91019333D01*
X64691000Y-91590761D02*
X64595761Y-91638380D01*
X64357666Y-91638380D01*
X64262428Y-91590761D01*
X64214809Y-91495523D01*
X64214809Y-91400285D01*
X64262428Y-91305047D01*
X64357666Y-91257428D01*
X64595761Y-91257428D01*
X64691000Y-91209809D01*
X65167190Y-91257428D02*
X65929095Y-91257428D01*
X66405285Y-91638380D02*
X66405285Y-90971714D01*
X66405285Y-91066952D02*
X66452904Y-91019333D01*
X66548142Y-90971714D01*
X66691000Y-90971714D01*
X66786238Y-91019333D01*
X66833857Y-91114571D01*
X66833857Y-91638380D01*
X66833857Y-91114571D02*
X66881476Y-91019333D01*
X66976714Y-90971714D01*
X67119571Y-90971714D01*
X67214809Y-91019333D01*
X67262428Y-91114571D01*
X67262428Y-91638380D01*
X67881476Y-91638380D02*
X67786238Y-91590761D01*
X67738619Y-91543142D01*
X67691000Y-91447904D01*
X67691000Y-91162190D01*
X67738619Y-91066952D01*
X67786238Y-91019333D01*
X67881476Y-90971714D01*
X68024333Y-90971714D01*
X68119571Y-91019333D01*
X68167190Y-91066952D01*
X68214809Y-91162190D01*
X68214809Y-91447904D01*
X68167190Y-91543142D01*
X68119571Y-91590761D01*
X68024333Y-91638380D01*
X67881476Y-91638380D01*
X69071952Y-91638380D02*
X69071952Y-90638380D01*
X69071952Y-91590761D02*
X68976714Y-91638380D01*
X68786238Y-91638380D01*
X68691000Y-91590761D01*
X68643380Y-91543142D01*
X68595761Y-91447904D01*
X68595761Y-91162190D01*
X68643380Y-91066952D01*
X68691000Y-91019333D01*
X68786238Y-90971714D01*
X68976714Y-90971714D01*
X69071952Y-91019333D01*
X69976714Y-90971714D02*
X69976714Y-91638380D01*
X69548142Y-90971714D02*
X69548142Y-91495523D01*
X69595761Y-91590761D01*
X69691000Y-91638380D01*
X69833857Y-91638380D01*
X69929095Y-91590761D01*
X69976714Y-91543142D01*
X70595761Y-91638380D02*
X70500523Y-91590761D01*
X70452904Y-91495523D01*
X70452904Y-90638380D01*
X71357666Y-91590761D02*
X71262428Y-91638380D01*
X71071952Y-91638380D01*
X70976714Y-91590761D01*
X70929095Y-91495523D01*
X70929095Y-91114571D01*
X70976714Y-91019333D01*
X71071952Y-90971714D01*
X71262428Y-90971714D01*
X71357666Y-91019333D01*
X71405285Y-91114571D01*
X71405285Y-91209809D01*
X70929095Y-91305047D01*
X72500523Y-90971714D02*
X72738619Y-91638380D01*
X72976714Y-90971714D01*
X73881476Y-91638380D02*
X73310047Y-91638380D01*
X73595761Y-91638380D02*
X73595761Y-90638380D01*
X73500523Y-90781238D01*
X73405285Y-90876476D01*
X73310047Y-90924095D01*
D11*
%TO.C,U1*%
X85344000Y-45085000D02*
X59944000Y-45085000D01*
X85344000Y-45085000D02*
X85344000Y-92075000D01*
X85344000Y-93345000D02*
X59944000Y-93345000D01*
X59944000Y-93345000D02*
X59944000Y-45085000D01*
X85344000Y-93345000D02*
X85344000Y-92075000D01*
%TO.C,C2*%
X78459000Y-62933252D02*
X78459000Y-62410748D01*
X76989000Y-62933252D02*
X76989000Y-62410748D01*
%TO.C,C1*%
X67759252Y-59409000D02*
X67236748Y-59409000D01*
X67759252Y-57939000D02*
X67236748Y-57939000D01*
%TO.C,C3*%
X64923580Y-70614000D02*
X64642420Y-70614000D01*
X64923580Y-69594000D02*
X64642420Y-69594000D01*
%TO.C,C4*%
X64923580Y-71245000D02*
X64642420Y-71245000D01*
X64923580Y-72265000D02*
X64642420Y-72265000D01*
%TO.C,C5*%
X73023000Y-53199420D02*
X73023000Y-53480580D01*
X74043000Y-53199420D02*
X74043000Y-53480580D01*
%TO.C,C6*%
X64768000Y-51842580D02*
X64768000Y-51561420D01*
X65788000Y-51842580D02*
X65788000Y-51561420D01*
%TO.C,C7*%
X73150000Y-48360420D02*
X73150000Y-48641580D01*
X74170000Y-48360420D02*
X74170000Y-48641580D01*
%TO.C,C8*%
X64895000Y-47016580D02*
X64895000Y-46735420D01*
X65915000Y-47016580D02*
X65915000Y-46735420D01*
%TO.C,C9*%
X72769252Y-86254000D02*
X71346748Y-86254000D01*
X72769252Y-84434000D02*
X71346748Y-84434000D01*
%TO.C,C10*%
X68451000Y-81914420D02*
X68451000Y-82195580D01*
X69471000Y-81914420D02*
X69471000Y-82195580D01*
%TO.C,C11*%
X64923580Y-74547000D02*
X64642420Y-74547000D01*
X64923580Y-75567000D02*
X64642420Y-75567000D01*
%TO.C,C12*%
X64923580Y-73916000D02*
X64642420Y-73916000D01*
X64923580Y-72896000D02*
X64642420Y-72896000D01*
%TO.C,C13*%
X71122000Y-79882420D02*
X71122000Y-80163580D01*
X70102000Y-79882420D02*
X70102000Y-80163580D01*
%TO.C,C14*%
X66800000Y-81914420D02*
X66800000Y-82195580D01*
X67820000Y-81914420D02*
X67820000Y-82195580D01*
%TO.C,C15*%
X72773000Y-79882420D02*
X72773000Y-80163580D01*
X71753000Y-79882420D02*
X71753000Y-80163580D01*
%TO.C,C16*%
X75739164Y-83333000D02*
X75954836Y-83333000D01*
X75739164Y-84053000D02*
X75954836Y-84053000D01*
%TO.C,C17*%
X78253000Y-81525164D02*
X78253000Y-81740836D01*
X78973000Y-81525164D02*
X78973000Y-81740836D01*
%TO.C,D1*%
X67678500Y-88746000D02*
X69963500Y-88746000D01*
X69963500Y-88746000D02*
X69963500Y-87276000D01*
X69963500Y-87276000D02*
X67678500Y-87276000D01*
%TO.C,FB1*%
X67790122Y-57075000D02*
X66990878Y-57075000D01*
X67790122Y-55955000D02*
X66990878Y-55955000D01*
%TO.C,J1*%
X63179000Y-82109000D02*
X60519000Y-82109000D01*
X63179000Y-82169000D02*
X63179000Y-82109000D01*
X60519000Y-82169000D02*
X60519000Y-82109000D01*
X63179000Y-82169000D02*
X60519000Y-82169000D01*
X63179000Y-83439000D02*
X63179000Y-84769000D01*
X63179000Y-84769000D02*
X61849000Y-84769000D01*
%TO.C,J3*%
X80251000Y-53934000D02*
X83971000Y-53934000D01*
X83971000Y-53934000D02*
X83971000Y-46214000D01*
X83971000Y-46214000D02*
X80251000Y-46214000D01*
X80251000Y-46214000D02*
X80251000Y-53934000D01*
X80251000Y-52624000D02*
X80051000Y-52624000D01*
X80051000Y-52624000D02*
X80051000Y-52924000D01*
X80051000Y-52924000D02*
X80251000Y-52924000D01*
X80151000Y-52624000D02*
X80151000Y-52924000D01*
X80651000Y-53534000D02*
X83571000Y-53534000D01*
X83571000Y-53534000D02*
X83571000Y-46614000D01*
X83571000Y-46614000D02*
X80651000Y-46614000D01*
X80651000Y-46614000D02*
X80651000Y-53534000D01*
X81161000Y-53934000D02*
X81161000Y-53534000D01*
X82161000Y-53934000D02*
X82161000Y-53534000D01*
X81161000Y-46214000D02*
X81161000Y-46614000D01*
X82161000Y-46214000D02*
X82161000Y-46614000D01*
X83571000Y-51674000D02*
X83171000Y-51674000D01*
X83171000Y-51674000D02*
X83171000Y-51474000D01*
X83171000Y-51474000D02*
X83571000Y-51474000D01*
X83571000Y-51574000D02*
X83171000Y-51574000D01*
X83571000Y-50174000D02*
X83171000Y-50174000D01*
X83171000Y-50174000D02*
X83171000Y-49974000D01*
X83171000Y-49974000D02*
X83571000Y-49974000D01*
X83571000Y-50074000D02*
X83171000Y-50074000D01*
X83571000Y-48674000D02*
X83171000Y-48674000D01*
X83171000Y-48674000D02*
X83171000Y-48474000D01*
X83171000Y-48474000D02*
X83571000Y-48474000D01*
X83571000Y-48574000D02*
X83171000Y-48574000D01*
X80051000Y-53334000D02*
X80051000Y-54134000D01*
X80051000Y-54134000D02*
X80851000Y-54134000D01*
%TO.C,Q1*%
X77341000Y-54158000D02*
X77341000Y-53228000D01*
X77341000Y-50998000D02*
X77341000Y-51928000D01*
X77341000Y-50998000D02*
X75181000Y-50998000D01*
X77341000Y-54158000D02*
X75881000Y-54158000D01*
%TO.C,Q2*%
X77341000Y-49205000D02*
X75881000Y-49205000D01*
X77341000Y-46045000D02*
X75181000Y-46045000D01*
X77341000Y-46045000D02*
X77341000Y-46975000D01*
X77341000Y-49205000D02*
X77341000Y-48275000D01*
%TO.C,R3*%
X73508359Y-51561000D02*
X73815641Y-51561000D01*
X73508359Y-50801000D02*
X73815641Y-50801000D01*
%TO.C,R4*%
X73508359Y-45848000D02*
X73815641Y-45848000D01*
X73508359Y-46608000D02*
X73815641Y-46608000D01*
%TO.C,R1*%
X71527641Y-88391000D02*
X71220359Y-88391000D01*
X71527641Y-87631000D02*
X71220359Y-87631000D01*
%TO.C,R2*%
X74905359Y-79247000D02*
X75212641Y-79247000D01*
X74905359Y-78487000D02*
X75212641Y-78487000D01*
%TO.C,U2*%
X69601000Y-61956000D02*
X70861000Y-61956000D01*
X76421000Y-61956000D02*
X75161000Y-61956000D01*
X69601000Y-58196000D02*
X69601000Y-61956000D01*
X76421000Y-55946000D02*
X76421000Y-61956000D01*
%TO.C,U4*%
X69392999Y-50968000D02*
X67892999Y-50968000D01*
X69392999Y-50968000D02*
X70892999Y-50968000D01*
X69392999Y-54188000D02*
X67892999Y-54188000D01*
X69392999Y-54188000D02*
X72267999Y-54188000D01*
%TO.C,U5*%
X69469000Y-49362000D02*
X72344000Y-49362000D01*
X69469000Y-49362000D02*
X67969000Y-49362000D01*
X69469000Y-46142000D02*
X70969000Y-46142000D01*
X69469000Y-46142000D02*
X67969000Y-46142000D01*
%TO.C,U6*%
X76123000Y-69836500D02*
X76123000Y-69386500D01*
X76123000Y-69386500D02*
X75673000Y-69386500D01*
X76123000Y-76156500D02*
X76123000Y-76606500D01*
X76123000Y-76606500D02*
X75673000Y-76606500D01*
X68903000Y-69836500D02*
X68903000Y-69386500D01*
X68903000Y-69386500D02*
X69353000Y-69386500D01*
X68903000Y-76156500D02*
X68903000Y-76606500D01*
X68903000Y-76606500D02*
X69353000Y-76606500D01*
X69353000Y-76606500D02*
X69353000Y-77896500D01*
%TO.C,Y1*%
X73819000Y-79757000D02*
X73819000Y-83057000D01*
X73819000Y-83057000D02*
X77819000Y-83057000D01*
%TO.C,J2*%
X79815000Y-84978323D02*
X79815000Y-84903000D01*
X79815000Y-84903000D02*
X80935000Y-84903000D01*
X80935000Y-84903000D02*
X80935000Y-91373000D01*
X80935000Y-91373000D02*
X79815000Y-91373000D01*
X79815000Y-91373000D02*
X79815000Y-91297677D01*
X80935000Y-85338000D02*
X84935000Y-85338000D01*
X84935000Y-85338000D02*
X84935000Y-85858000D01*
X84935000Y-85858000D02*
X80935000Y-85858000D01*
X80935000Y-85398000D02*
X84935000Y-85398000D01*
X80935000Y-85518000D02*
X84935000Y-85518000D01*
X80935000Y-85638000D02*
X84935000Y-85638000D01*
X80935000Y-85758000D02*
X84935000Y-85758000D01*
X79815000Y-86233000D02*
X80935000Y-86233000D01*
X79815000Y-86217677D02*
X79815000Y-86248323D01*
X80935000Y-86608000D02*
X84935000Y-86608000D01*
X84935000Y-86608000D02*
X84935000Y-87128000D01*
X84935000Y-87128000D02*
X80935000Y-87128000D01*
X79815000Y-87503000D02*
X80935000Y-87503000D01*
X79815000Y-87487677D02*
X79815000Y-87518323D01*
X80935000Y-87878000D02*
X84935000Y-87878000D01*
X84935000Y-87878000D02*
X84935000Y-88398000D01*
X84935000Y-88398000D02*
X80935000Y-88398000D01*
X79815000Y-88773000D02*
X80935000Y-88773000D01*
X79815000Y-88757677D02*
X79815000Y-88788323D01*
X80935000Y-89148000D02*
X84935000Y-89148000D01*
X84935000Y-89148000D02*
X84935000Y-89668000D01*
X84935000Y-89668000D02*
X80935000Y-89668000D01*
X79815000Y-90043000D02*
X80935000Y-90043000D01*
X79815000Y-90027677D02*
X79815000Y-90058323D01*
X80935000Y-90418000D02*
X84935000Y-90418000D01*
X84935000Y-90418000D02*
X84935000Y-90938000D01*
X84935000Y-90938000D02*
X80935000Y-90938000D01*
X77345000Y-85598000D02*
X77345000Y-84838000D01*
X77345000Y-84838000D02*
X78105000Y-84838000D01*
%TO.C,U1*%
D10*
X82931095Y-81748380D02*
X82931095Y-82557904D01*
X82978714Y-82653142D01*
X83026333Y-82700761D01*
X83121571Y-82748380D01*
X83312047Y-82748380D01*
X83407285Y-82700761D01*
X83454904Y-82653142D01*
X83502523Y-82557904D01*
X83502523Y-81748380D01*
X84502523Y-82748380D02*
X83931095Y-82748380D01*
X84216809Y-82748380D02*
X84216809Y-81748380D01*
X84121571Y-81891238D01*
X84026333Y-81986476D01*
X83931095Y-82034095D01*
%TO.C,C2*%
X76176142Y-63285666D02*
X76223761Y-63333285D01*
X76271380Y-63476142D01*
X76271380Y-63571380D01*
X76223761Y-63714238D01*
X76128523Y-63809476D01*
X76033285Y-63857095D01*
X75842809Y-63904714D01*
X75699952Y-63904714D01*
X75509476Y-63857095D01*
X75414238Y-63809476D01*
X75319000Y-63714238D01*
X75271380Y-63571380D01*
X75271380Y-63476142D01*
X75319000Y-63333285D01*
X75366619Y-63285666D01*
X75366619Y-62904714D02*
X75319000Y-62857095D01*
X75271380Y-62761857D01*
X75271380Y-62523761D01*
X75319000Y-62428523D01*
X75366619Y-62380904D01*
X75461857Y-62333285D01*
X75557095Y-62333285D01*
X75699952Y-62380904D01*
X76271380Y-62952333D01*
X76271380Y-62333285D01*
%TO.C,C1*%
X66635333Y-60682142D02*
X66587714Y-60729761D01*
X66444857Y-60777380D01*
X66349619Y-60777380D01*
X66206761Y-60729761D01*
X66111523Y-60634523D01*
X66063904Y-60539285D01*
X66016285Y-60348809D01*
X66016285Y-60205952D01*
X66063904Y-60015476D01*
X66111523Y-59920238D01*
X66206761Y-59825000D01*
X66349619Y-59777380D01*
X66444857Y-59777380D01*
X66587714Y-59825000D01*
X66635333Y-59872619D01*
X67587714Y-60777380D02*
X67016285Y-60777380D01*
X67302000Y-60777380D02*
X67302000Y-59777380D01*
X67206761Y-59920238D01*
X67111523Y-60015476D01*
X67016285Y-60063095D01*
%TO.C,C3*%
X67185142Y-70397666D02*
X67232761Y-70445285D01*
X67280380Y-70588142D01*
X67280380Y-70683380D01*
X67232761Y-70826238D01*
X67137523Y-70921476D01*
X67042285Y-70969095D01*
X66851809Y-71016714D01*
X66708952Y-71016714D01*
X66518476Y-70969095D01*
X66423238Y-70921476D01*
X66328000Y-70826238D01*
X66280380Y-70683380D01*
X66280380Y-70588142D01*
X66328000Y-70445285D01*
X66375619Y-70397666D01*
X66280380Y-70064333D02*
X66280380Y-69445285D01*
X66661333Y-69778619D01*
X66661333Y-69635761D01*
X66708952Y-69540523D01*
X66756571Y-69492904D01*
X66851809Y-69445285D01*
X67089904Y-69445285D01*
X67185142Y-69492904D01*
X67232761Y-69540523D01*
X67280380Y-69635761D01*
X67280380Y-69921476D01*
X67232761Y-70016714D01*
X67185142Y-70064333D01*
%TO.C,C4*%
X63121142Y-71921666D02*
X63168761Y-71969285D01*
X63216380Y-72112142D01*
X63216380Y-72207380D01*
X63168761Y-72350238D01*
X63073523Y-72445476D01*
X62978285Y-72493095D01*
X62787809Y-72540714D01*
X62644952Y-72540714D01*
X62454476Y-72493095D01*
X62359238Y-72445476D01*
X62264000Y-72350238D01*
X62216380Y-72207380D01*
X62216380Y-72112142D01*
X62264000Y-71969285D01*
X62311619Y-71921666D01*
X62549714Y-71064523D02*
X63216380Y-71064523D01*
X62168761Y-71302619D02*
X62883047Y-71540714D01*
X62883047Y-70921666D01*
%TO.C,C5*%
X75144333Y-55348142D02*
X75096714Y-55395761D01*
X74953857Y-55443380D01*
X74858619Y-55443380D01*
X74715761Y-55395761D01*
X74620523Y-55300523D01*
X74572904Y-55205285D01*
X74525285Y-55014809D01*
X74525285Y-54871952D01*
X74572904Y-54681476D01*
X74620523Y-54586238D01*
X74715761Y-54491000D01*
X74858619Y-54443380D01*
X74953857Y-54443380D01*
X75096714Y-54491000D01*
X75144333Y-54538619D01*
X76049095Y-54443380D02*
X75572904Y-54443380D01*
X75525285Y-54919571D01*
X75572904Y-54871952D01*
X75668142Y-54824333D01*
X75906238Y-54824333D01*
X76001476Y-54871952D01*
X76049095Y-54919571D01*
X76096714Y-55014809D01*
X76096714Y-55252904D01*
X76049095Y-55348142D01*
X76001476Y-55395761D01*
X75906238Y-55443380D01*
X75668142Y-55443380D01*
X75572904Y-55395761D01*
X75525285Y-55348142D01*
%TO.C,C6*%
X65111333Y-54205142D02*
X65063714Y-54252761D01*
X64920857Y-54300380D01*
X64825619Y-54300380D01*
X64682761Y-54252761D01*
X64587523Y-54157523D01*
X64539904Y-54062285D01*
X64492285Y-53871809D01*
X64492285Y-53728952D01*
X64539904Y-53538476D01*
X64587523Y-53443238D01*
X64682761Y-53348000D01*
X64825619Y-53300380D01*
X64920857Y-53300380D01*
X65063714Y-53348000D01*
X65111333Y-53395619D01*
X65968476Y-53300380D02*
X65778000Y-53300380D01*
X65682761Y-53348000D01*
X65635142Y-53395619D01*
X65539904Y-53538476D01*
X65492285Y-53728952D01*
X65492285Y-54109904D01*
X65539904Y-54205142D01*
X65587523Y-54252761D01*
X65682761Y-54300380D01*
X65873238Y-54300380D01*
X65968476Y-54252761D01*
X66016095Y-54205142D01*
X66063714Y-54109904D01*
X66063714Y-53871809D01*
X66016095Y-53776571D01*
X65968476Y-53728952D01*
X65873238Y-53681333D01*
X65682761Y-53681333D01*
X65587523Y-53728952D01*
X65539904Y-53776571D01*
X65492285Y-53871809D01*
%TO.C,C7*%
X75017333Y-50522142D02*
X74969714Y-50569761D01*
X74826857Y-50617380D01*
X74731619Y-50617380D01*
X74588761Y-50569761D01*
X74493523Y-50474523D01*
X74445904Y-50379285D01*
X74398285Y-50188809D01*
X74398285Y-50045952D01*
X74445904Y-49855476D01*
X74493523Y-49760238D01*
X74588761Y-49665000D01*
X74731619Y-49617380D01*
X74826857Y-49617380D01*
X74969714Y-49665000D01*
X75017333Y-49712619D01*
X75350666Y-49617380D02*
X76017333Y-49617380D01*
X75588761Y-50617380D01*
%TO.C,C8*%
X63079333Y-47728142D02*
X63031714Y-47775761D01*
X62888857Y-47823380D01*
X62793619Y-47823380D01*
X62650761Y-47775761D01*
X62555523Y-47680523D01*
X62507904Y-47585285D01*
X62460285Y-47394809D01*
X62460285Y-47251952D01*
X62507904Y-47061476D01*
X62555523Y-46966238D01*
X62650761Y-46871000D01*
X62793619Y-46823380D01*
X62888857Y-46823380D01*
X63031714Y-46871000D01*
X63079333Y-46918619D01*
X63650761Y-47251952D02*
X63555523Y-47204333D01*
X63507904Y-47156714D01*
X63460285Y-47061476D01*
X63460285Y-47013857D01*
X63507904Y-46918619D01*
X63555523Y-46871000D01*
X63650761Y-46823380D01*
X63841238Y-46823380D01*
X63936476Y-46871000D01*
X63984095Y-46918619D01*
X64031714Y-47013857D01*
X64031714Y-47061476D01*
X63984095Y-47156714D01*
X63936476Y-47204333D01*
X63841238Y-47251952D01*
X63650761Y-47251952D01*
X63555523Y-47299571D01*
X63507904Y-47347190D01*
X63460285Y-47442428D01*
X63460285Y-47632904D01*
X63507904Y-47728142D01*
X63555523Y-47775761D01*
X63650761Y-47823380D01*
X63841238Y-47823380D01*
X63936476Y-47775761D01*
X63984095Y-47728142D01*
X64031714Y-47632904D01*
X64031714Y-47442428D01*
X63984095Y-47347190D01*
X63936476Y-47299571D01*
X63841238Y-47251952D01*
%TO.C,C9*%
X72464142Y-85637666D02*
X72511761Y-85685285D01*
X72559380Y-85828142D01*
X72559380Y-85923380D01*
X72511761Y-86066238D01*
X72416523Y-86161476D01*
X72321285Y-86209095D01*
X72130809Y-86256714D01*
X71987952Y-86256714D01*
X71797476Y-86209095D01*
X71702238Y-86161476D01*
X71607000Y-86066238D01*
X71559380Y-85923380D01*
X71559380Y-85828142D01*
X71607000Y-85685285D01*
X71654619Y-85637666D01*
X72559380Y-85161476D02*
X72559380Y-84971000D01*
X72511761Y-84875761D01*
X72464142Y-84828142D01*
X72321285Y-84732904D01*
X72130809Y-84685285D01*
X71749857Y-84685285D01*
X71654619Y-84732904D01*
X71607000Y-84780523D01*
X71559380Y-84875761D01*
X71559380Y-85066238D01*
X71607000Y-85161476D01*
X71654619Y-85209095D01*
X71749857Y-85256714D01*
X71987952Y-85256714D01*
X72083190Y-85209095D01*
X72130809Y-85161476D01*
X72178428Y-85066238D01*
X72178428Y-84875761D01*
X72130809Y-84780523D01*
X72083190Y-84732904D01*
X71987952Y-84685285D01*
%TO.C,C10*%
X69318142Y-85631857D02*
X69365761Y-85679476D01*
X69413380Y-85822333D01*
X69413380Y-85917571D01*
X69365761Y-86060428D01*
X69270523Y-86155666D01*
X69175285Y-86203285D01*
X68984809Y-86250904D01*
X68841952Y-86250904D01*
X68651476Y-86203285D01*
X68556238Y-86155666D01*
X68461000Y-86060428D01*
X68413380Y-85917571D01*
X68413380Y-85822333D01*
X68461000Y-85679476D01*
X68508619Y-85631857D01*
X69413380Y-84679476D02*
X69413380Y-85250904D01*
X69413380Y-84965190D02*
X68413380Y-84965190D01*
X68556238Y-85060428D01*
X68651476Y-85155666D01*
X68699095Y-85250904D01*
X68413380Y-84060428D02*
X68413380Y-83965190D01*
X68461000Y-83869952D01*
X68508619Y-83822333D01*
X68603857Y-83774714D01*
X68794333Y-83727095D01*
X69032428Y-83727095D01*
X69222904Y-83774714D01*
X69318142Y-83822333D01*
X69365761Y-83869952D01*
X69413380Y-83965190D01*
X69413380Y-84060428D01*
X69365761Y-84155666D01*
X69318142Y-84203285D01*
X69222904Y-84250904D01*
X69032428Y-84298523D01*
X68794333Y-84298523D01*
X68603857Y-84250904D01*
X68508619Y-84203285D01*
X68461000Y-84155666D01*
X68413380Y-84060428D01*
%TO.C,C11*%
X63095142Y-75191857D02*
X63142761Y-75239476D01*
X63190380Y-75382333D01*
X63190380Y-75477571D01*
X63142761Y-75620428D01*
X63047523Y-75715666D01*
X62952285Y-75763285D01*
X62761809Y-75810904D01*
X62618952Y-75810904D01*
X62428476Y-75763285D01*
X62333238Y-75715666D01*
X62238000Y-75620428D01*
X62190380Y-75477571D01*
X62190380Y-75382333D01*
X62238000Y-75239476D01*
X62285619Y-75191857D01*
X63190380Y-74239476D02*
X63190380Y-74810904D01*
X63190380Y-74525190D02*
X62190380Y-74525190D01*
X62333238Y-74620428D01*
X62428476Y-74715666D01*
X62476095Y-74810904D01*
X63190380Y-73287095D02*
X63190380Y-73858523D01*
X63190380Y-73572809D02*
X62190380Y-73572809D01*
X62333238Y-73668047D01*
X62428476Y-73763285D01*
X62476095Y-73858523D01*
%TO.C,C12*%
X67159142Y-73540857D02*
X67206761Y-73588476D01*
X67254380Y-73731333D01*
X67254380Y-73826571D01*
X67206761Y-73969428D01*
X67111523Y-74064666D01*
X67016285Y-74112285D01*
X66825809Y-74159904D01*
X66682952Y-74159904D01*
X66492476Y-74112285D01*
X66397238Y-74064666D01*
X66302000Y-73969428D01*
X66254380Y-73826571D01*
X66254380Y-73731333D01*
X66302000Y-73588476D01*
X66349619Y-73540857D01*
X67254380Y-72588476D02*
X67254380Y-73159904D01*
X67254380Y-72874190D02*
X66254380Y-72874190D01*
X66397238Y-72969428D01*
X66492476Y-73064666D01*
X66540095Y-73159904D01*
X66349619Y-72207523D02*
X66302000Y-72159904D01*
X66254380Y-72064666D01*
X66254380Y-71826571D01*
X66302000Y-71731333D01*
X66349619Y-71683714D01*
X66444857Y-71636095D01*
X66540095Y-71636095D01*
X66682952Y-71683714D01*
X67254380Y-72255142D01*
X67254380Y-71636095D01*
%TO.C,C13*%
X70969142Y-83700857D02*
X71016761Y-83748476D01*
X71064380Y-83891333D01*
X71064380Y-83986571D01*
X71016761Y-84129428D01*
X70921523Y-84224666D01*
X70826285Y-84272285D01*
X70635809Y-84319904D01*
X70492952Y-84319904D01*
X70302476Y-84272285D01*
X70207238Y-84224666D01*
X70112000Y-84129428D01*
X70064380Y-83986571D01*
X70064380Y-83891333D01*
X70112000Y-83748476D01*
X70159619Y-83700857D01*
X71064380Y-82748476D02*
X71064380Y-83319904D01*
X71064380Y-83034190D02*
X70064380Y-83034190D01*
X70207238Y-83129428D01*
X70302476Y-83224666D01*
X70350095Y-83319904D01*
X70064380Y-82415142D02*
X70064380Y-81796095D01*
X70445333Y-82129428D01*
X70445333Y-81986571D01*
X70492952Y-81891333D01*
X70540571Y-81843714D01*
X70635809Y-81796095D01*
X70873904Y-81796095D01*
X70969142Y-81843714D01*
X71016761Y-81891333D01*
X71064380Y-81986571D01*
X71064380Y-82272285D01*
X71016761Y-82367523D01*
X70969142Y-82415142D01*
%TO.C,C14*%
X67667142Y-85745857D02*
X67714761Y-85793476D01*
X67762380Y-85936333D01*
X67762380Y-86031571D01*
X67714761Y-86174428D01*
X67619523Y-86269666D01*
X67524285Y-86317285D01*
X67333809Y-86364904D01*
X67190952Y-86364904D01*
X67000476Y-86317285D01*
X66905238Y-86269666D01*
X66810000Y-86174428D01*
X66762380Y-86031571D01*
X66762380Y-85936333D01*
X66810000Y-85793476D01*
X66857619Y-85745857D01*
X67762380Y-84793476D02*
X67762380Y-85364904D01*
X67762380Y-85079190D02*
X66762380Y-85079190D01*
X66905238Y-85174428D01*
X67000476Y-85269666D01*
X67048095Y-85364904D01*
X67095714Y-83936333D02*
X67762380Y-83936333D01*
X66714761Y-84174428D02*
X67429047Y-84412523D01*
X67429047Y-83793476D01*
%TO.C,C15*%
X73255142Y-83446857D02*
X73302761Y-83494476D01*
X73350380Y-83637333D01*
X73350380Y-83732571D01*
X73302761Y-83875428D01*
X73207523Y-83970666D01*
X73112285Y-84018285D01*
X72921809Y-84065904D01*
X72778952Y-84065904D01*
X72588476Y-84018285D01*
X72493238Y-83970666D01*
X72398000Y-83875428D01*
X72350380Y-83732571D01*
X72350380Y-83637333D01*
X72398000Y-83494476D01*
X72445619Y-83446857D01*
X73350380Y-82494476D02*
X73350380Y-83065904D01*
X73350380Y-82780190D02*
X72350380Y-82780190D01*
X72493238Y-82875428D01*
X72588476Y-82970666D01*
X72636095Y-83065904D01*
X72350380Y-81589714D02*
X72350380Y-82065904D01*
X72826571Y-82113523D01*
X72778952Y-82065904D01*
X72731333Y-81970666D01*
X72731333Y-81732571D01*
X72778952Y-81637333D01*
X72826571Y-81589714D01*
X72921809Y-81542095D01*
X73159904Y-81542095D01*
X73255142Y-81589714D01*
X73302761Y-81637333D01*
X73350380Y-81732571D01*
X73350380Y-81970666D01*
X73302761Y-82065904D01*
X73255142Y-82113523D01*
%TO.C,C16*%
X76049142Y-86367857D02*
X76096761Y-86415476D01*
X76144380Y-86558333D01*
X76144380Y-86653571D01*
X76096761Y-86796428D01*
X76001523Y-86891666D01*
X75906285Y-86939285D01*
X75715809Y-86986904D01*
X75572952Y-86986904D01*
X75382476Y-86939285D01*
X75287238Y-86891666D01*
X75192000Y-86796428D01*
X75144380Y-86653571D01*
X75144380Y-86558333D01*
X75192000Y-86415476D01*
X75239619Y-86367857D01*
X76144380Y-85415476D02*
X76144380Y-85986904D01*
X76144380Y-85701190D02*
X75144380Y-85701190D01*
X75287238Y-85796428D01*
X75382476Y-85891666D01*
X75430095Y-85986904D01*
X75144380Y-84558333D02*
X75144380Y-84748809D01*
X75192000Y-84844047D01*
X75239619Y-84891666D01*
X75382476Y-84986904D01*
X75572952Y-85034523D01*
X75953904Y-85034523D01*
X76049142Y-84986904D01*
X76096761Y-84939285D01*
X76144380Y-84844047D01*
X76144380Y-84653571D01*
X76096761Y-84558333D01*
X76049142Y-84510714D01*
X75953904Y-84463095D01*
X75715809Y-84463095D01*
X75620571Y-84510714D01*
X75572952Y-84558333D01*
X75525333Y-84653571D01*
X75525333Y-84844047D01*
X75572952Y-84939285D01*
X75620571Y-84986904D01*
X75715809Y-85034523D01*
%TO.C,C17*%
X80494142Y-82303857D02*
X80541761Y-82351476D01*
X80589380Y-82494333D01*
X80589380Y-82589571D01*
X80541761Y-82732428D01*
X80446523Y-82827666D01*
X80351285Y-82875285D01*
X80160809Y-82922904D01*
X80017952Y-82922904D01*
X79827476Y-82875285D01*
X79732238Y-82827666D01*
X79637000Y-82732428D01*
X79589380Y-82589571D01*
X79589380Y-82494333D01*
X79637000Y-82351476D01*
X79684619Y-82303857D01*
X80589380Y-81351476D02*
X80589380Y-81922904D01*
X80589380Y-81637190D02*
X79589380Y-81637190D01*
X79732238Y-81732428D01*
X79827476Y-81827666D01*
X79875095Y-81922904D01*
X79589380Y-81018142D02*
X79589380Y-80351476D01*
X80589380Y-80780047D01*
%TO.C,D1*%
X67000380Y-88749095D02*
X66000380Y-88749095D01*
X66000380Y-88511000D01*
X66048000Y-88368142D01*
X66143238Y-88272904D01*
X66238476Y-88225285D01*
X66428952Y-88177666D01*
X66571809Y-88177666D01*
X66762285Y-88225285D01*
X66857523Y-88272904D01*
X66952761Y-88368142D01*
X67000380Y-88511000D01*
X67000380Y-88749095D01*
X67000380Y-87225285D02*
X67000380Y-87796714D01*
X67000380Y-87511000D02*
X66000380Y-87511000D01*
X66143238Y-87606238D01*
X66238476Y-87701476D01*
X66286095Y-87796714D01*
%TO.C,FB1*%
X64444666Y-54919571D02*
X64111333Y-54919571D01*
X64111333Y-55443380D02*
X64111333Y-54443380D01*
X64587523Y-54443380D01*
X65301809Y-54919571D02*
X65444666Y-54967190D01*
X65492285Y-55014809D01*
X65539904Y-55110047D01*
X65539904Y-55252904D01*
X65492285Y-55348142D01*
X65444666Y-55395761D01*
X65349428Y-55443380D01*
X64968476Y-55443380D01*
X64968476Y-54443380D01*
X65301809Y-54443380D01*
X65397047Y-54491000D01*
X65444666Y-54538619D01*
X65492285Y-54633857D01*
X65492285Y-54729095D01*
X65444666Y-54824333D01*
X65397047Y-54871952D01*
X65301809Y-54919571D01*
X64968476Y-54919571D01*
X66492285Y-55443380D02*
X65920857Y-55443380D01*
X66206571Y-55443380D02*
X66206571Y-54443380D01*
X66111333Y-54586238D01*
X66016095Y-54681476D01*
X65920857Y-54729095D01*
%TO.C,J1*%
X63968380Y-83772333D02*
X64682666Y-83772333D01*
X64825523Y-83819952D01*
X64920761Y-83915190D01*
X64968380Y-84058047D01*
X64968380Y-84153285D01*
X64968380Y-82772333D02*
X64968380Y-83343761D01*
X64968380Y-83058047D02*
X63968380Y-83058047D01*
X64111238Y-83153285D01*
X64206476Y-83248523D01*
X64254095Y-83343761D01*
%TO.C,J3*%
X79843380Y-55578333D02*
X80557666Y-55578333D01*
X80700523Y-55625952D01*
X80795761Y-55721190D01*
X80843380Y-55864047D01*
X80843380Y-55959285D01*
X79843380Y-55197380D02*
X79843380Y-54578333D01*
X80224333Y-54911666D01*
X80224333Y-54768809D01*
X80271952Y-54673571D01*
X80319571Y-54625952D01*
X80414809Y-54578333D01*
X80652904Y-54578333D01*
X80748142Y-54625952D01*
X80795761Y-54673571D01*
X80843380Y-54768809D01*
X80843380Y-55054523D01*
X80795761Y-55149761D01*
X80748142Y-55197380D01*
%TO.C,Q1*%
X77501761Y-55792619D02*
X77406523Y-55745000D01*
X77311285Y-55649761D01*
X77168428Y-55506904D01*
X77073190Y-55459285D01*
X76977952Y-55459285D01*
X77025571Y-55697380D02*
X76930333Y-55649761D01*
X76835095Y-55554523D01*
X76787476Y-55364047D01*
X76787476Y-55030714D01*
X76835095Y-54840238D01*
X76930333Y-54745000D01*
X77025571Y-54697380D01*
X77216047Y-54697380D01*
X77311285Y-54745000D01*
X77406523Y-54840238D01*
X77454142Y-55030714D01*
X77454142Y-55364047D01*
X77406523Y-55554523D01*
X77311285Y-55649761D01*
X77216047Y-55697380D01*
X77025571Y-55697380D01*
X78406523Y-55697380D02*
X77835095Y-55697380D01*
X78120809Y-55697380D02*
X78120809Y-54697380D01*
X78025571Y-54840238D01*
X77930333Y-54935476D01*
X77835095Y-54983095D01*
%TO.C,Q2*%
X76866761Y-50712619D02*
X76771523Y-50665000D01*
X76676285Y-50569761D01*
X76533428Y-50426904D01*
X76438190Y-50379285D01*
X76342952Y-50379285D01*
X76390571Y-50617380D02*
X76295333Y-50569761D01*
X76200095Y-50474523D01*
X76152476Y-50284047D01*
X76152476Y-49950714D01*
X76200095Y-49760238D01*
X76295333Y-49665000D01*
X76390571Y-49617380D01*
X76581047Y-49617380D01*
X76676285Y-49665000D01*
X76771523Y-49760238D01*
X76819142Y-49950714D01*
X76819142Y-50284047D01*
X76771523Y-50474523D01*
X76676285Y-50569761D01*
X76581047Y-50617380D01*
X76390571Y-50617380D01*
X77200095Y-49712619D02*
X77247714Y-49665000D01*
X77342952Y-49617380D01*
X77581047Y-49617380D01*
X77676285Y-49665000D01*
X77723904Y-49712619D01*
X77771523Y-49807857D01*
X77771523Y-49903095D01*
X77723904Y-50045952D01*
X77152476Y-50617380D01*
X77771523Y-50617380D01*
%TO.C,R3*%
X71715333Y-50617380D02*
X71382000Y-50141190D01*
X71143904Y-50617380D02*
X71143904Y-49617380D01*
X71524857Y-49617380D01*
X71620095Y-49665000D01*
X71667714Y-49712619D01*
X71715333Y-49807857D01*
X71715333Y-49950714D01*
X71667714Y-50045952D01*
X71620095Y-50093571D01*
X71524857Y-50141190D01*
X71143904Y-50141190D01*
X72048666Y-49617380D02*
X72667714Y-49617380D01*
X72334380Y-49998333D01*
X72477238Y-49998333D01*
X72572476Y-50045952D01*
X72620095Y-50093571D01*
X72667714Y-50188809D01*
X72667714Y-50426904D01*
X72620095Y-50522142D01*
X72572476Y-50569761D01*
X72477238Y-50617380D01*
X72191523Y-50617380D01*
X72096285Y-50569761D01*
X72048666Y-50522142D01*
%TO.C,R4*%
X71461333Y-46299380D02*
X71128000Y-45823190D01*
X70889904Y-46299380D02*
X70889904Y-45299380D01*
X71270857Y-45299380D01*
X71366095Y-45347000D01*
X71413714Y-45394619D01*
X71461333Y-45489857D01*
X71461333Y-45632714D01*
X71413714Y-45727952D01*
X71366095Y-45775571D01*
X71270857Y-45823190D01*
X70889904Y-45823190D01*
X72318476Y-45632714D02*
X72318476Y-46299380D01*
X72080380Y-45251761D02*
X71842285Y-45966047D01*
X72461333Y-45966047D01*
%TO.C,R1*%
X73237333Y-88463380D02*
X72904000Y-87987190D01*
X72665904Y-88463380D02*
X72665904Y-87463380D01*
X73046857Y-87463380D01*
X73142095Y-87511000D01*
X73189714Y-87558619D01*
X73237333Y-87653857D01*
X73237333Y-87796714D01*
X73189714Y-87891952D01*
X73142095Y-87939571D01*
X73046857Y-87987190D01*
X72665904Y-87987190D01*
X74189714Y-88463380D02*
X73618285Y-88463380D01*
X73904000Y-88463380D02*
X73904000Y-87463380D01*
X73808761Y-87606238D01*
X73713523Y-87701476D01*
X73618285Y-87749095D01*
%TO.C,R2*%
X76922333Y-79319380D02*
X76589000Y-78843190D01*
X76350904Y-79319380D02*
X76350904Y-78319380D01*
X76731857Y-78319380D01*
X76827095Y-78367000D01*
X76874714Y-78414619D01*
X76922333Y-78509857D01*
X76922333Y-78652714D01*
X76874714Y-78747952D01*
X76827095Y-78795571D01*
X76731857Y-78843190D01*
X76350904Y-78843190D01*
X77303285Y-78414619D02*
X77350904Y-78367000D01*
X77446142Y-78319380D01*
X77684238Y-78319380D01*
X77779476Y-78367000D01*
X77827095Y-78414619D01*
X77874714Y-78509857D01*
X77874714Y-78605095D01*
X77827095Y-78747952D01*
X77255666Y-79319380D01*
X77874714Y-79319380D01*
%TO.C,U2*%
X76963380Y-60807904D02*
X77772904Y-60807904D01*
X77868142Y-60760285D01*
X77915761Y-60712666D01*
X77963380Y-60617428D01*
X77963380Y-60426952D01*
X77915761Y-60331714D01*
X77868142Y-60284095D01*
X77772904Y-60236476D01*
X76963380Y-60236476D01*
X77058619Y-59807904D02*
X77011000Y-59760285D01*
X76963380Y-59665047D01*
X76963380Y-59426952D01*
X77011000Y-59331714D01*
X77058619Y-59284095D01*
X77153857Y-59236476D01*
X77249095Y-59236476D01*
X77391952Y-59284095D01*
X77963380Y-59855523D01*
X77963380Y-59236476D01*
%TO.C,U4*%
X68631094Y-54480380D02*
X68631094Y-55289904D01*
X68678713Y-55385142D01*
X68726332Y-55432761D01*
X68821570Y-55480380D01*
X69012046Y-55480380D01*
X69107284Y-55432761D01*
X69154903Y-55385142D01*
X69202522Y-55289904D01*
X69202522Y-54480380D01*
X70107284Y-54813714D02*
X70107284Y-55480380D01*
X69869189Y-54432761D02*
X69631094Y-55147047D01*
X70250141Y-55147047D01*
%TO.C,U5*%
X64643095Y-48728380D02*
X64643095Y-49537904D01*
X64690714Y-49633142D01*
X64738333Y-49680761D01*
X64833571Y-49728380D01*
X65024047Y-49728380D01*
X65119285Y-49680761D01*
X65166904Y-49633142D01*
X65214523Y-49537904D01*
X65214523Y-48728380D01*
X66166904Y-48728380D02*
X65690714Y-48728380D01*
X65643095Y-49204571D01*
X65690714Y-49156952D01*
X65785952Y-49109333D01*
X66024047Y-49109333D01*
X66119285Y-49156952D01*
X66166904Y-49204571D01*
X66214523Y-49299809D01*
X66214523Y-49537904D01*
X66166904Y-49633142D01*
X66119285Y-49680761D01*
X66024047Y-49728380D01*
X65785952Y-49728380D01*
X65690714Y-49680761D01*
X65643095Y-49633142D01*
%TO.C,U6*%
X71969380Y-73659904D02*
X72778904Y-73659904D01*
X72874142Y-73612285D01*
X72921761Y-73564666D01*
X72969380Y-73469428D01*
X72969380Y-73278952D01*
X72921761Y-73183714D01*
X72874142Y-73136095D01*
X72778904Y-73088476D01*
X71969380Y-73088476D01*
X71969380Y-72183714D02*
X71969380Y-72374190D01*
X72017000Y-72469428D01*
X72064619Y-72517047D01*
X72207476Y-72612285D01*
X72397952Y-72659904D01*
X72778904Y-72659904D01*
X72874142Y-72612285D01*
X72921761Y-72564666D01*
X72969380Y-72469428D01*
X72969380Y-72278952D01*
X72921761Y-72183714D01*
X72874142Y-72136095D01*
X72778904Y-72088476D01*
X72540809Y-72088476D01*
X72445571Y-72136095D01*
X72397952Y-72183714D01*
X72350333Y-72278952D01*
X72350333Y-72469428D01*
X72397952Y-72564666D01*
X72445571Y-72612285D01*
X72540809Y-72659904D01*
%TO.C,Y1*%
X78302809Y-82991190D02*
X78302809Y-83467380D01*
X77969476Y-82467380D02*
X78302809Y-82991190D01*
X78636142Y-82467380D01*
X79493285Y-83467380D02*
X78921857Y-83467380D01*
X79207571Y-83467380D02*
X79207571Y-82467380D01*
X79112333Y-82610238D01*
X79017095Y-82705476D01*
X78921857Y-82753095D01*
%TO.C,J2*%
X80839166Y-83415380D02*
X80839166Y-84129666D01*
X80791547Y-84272523D01*
X80696309Y-84367761D01*
X80553452Y-84415380D01*
X80458214Y-84415380D01*
X81267738Y-83510619D02*
X81315357Y-83463000D01*
X81410595Y-83415380D01*
X81648690Y-83415380D01*
X81743928Y-83463000D01*
X81791547Y-83510619D01*
X81839166Y-83605857D01*
X81839166Y-83701095D01*
X81791547Y-83843952D01*
X81220119Y-84415380D01*
X81839166Y-84415380D01*
%TD*%
M02*
