M48
; DRILL file {KiCad (5.1.9)-1} date 04/03/24 17:37:10
; FORMAT={-:-/ absolute / metric / decimal}
; #@! TF.CreationDate,2024-04-03T17:37:10+03:00
; #@! TF.GenerationSoftware,Kicad,Pcbnew,(5.1.9)-1
; #@! TF.FileFunction,Plated,1,2,PTH
FMAT,2
METRIC
T1C0.400
T2C0.800
T3C1.700
%
G90
G05
T1
X110.505Y-93.96
X110.818Y-96.906
X113.05Y-100.096
X115.222Y-87.907
X116.919Y-103.754
X117.29Y-99.319
X118.288Y-82.24
X119.144Y-101.191
X119.647Y-81.923
X120.139Y-96.408
X120.162Y-97.536
X120.993Y-81.897
X121.265Y-103.259
X121.547Y-108.4
X122.301Y-81.948
X122.796Y-61.45
X123.698Y-88.943
X123.861Y-78.685
X126.467Y-98.306
X126.657Y-91.75
X126.721Y-61.755
X127.61Y-58.326
X127.775Y-67.305
X128.384Y-95.804
X128.41Y-72.194
X128.969Y-113.314
X129.667Y-64.574
X129.756Y-103.36
X130.48Y-67.483
X130.861Y-84.094
X131.737Y-71.75
X132.715Y-57.353
X133.411Y-58.071
X135.115Y-63.025
X135.141Y-112.86
X135.153Y-77.478
X135.361Y-99.519
X135.433Y-98.522
X135.611Y-103.335
X135.738Y-94.305
X135.763Y-96.096
X136.969Y-59.256
X137.414Y-64.587
X137.541Y-93.581
X138.351Y-59.547
X139.891Y-58.943
X141.135Y-112.707
X141.206Y-59.306
X141.77Y-106.688
X141.924Y-101.925
X142.037Y-55.659
X143.187Y-65.22
X143.548Y-96.197
X143.866Y-107.64
X143.942Y-101.011
X144.107Y-77.871
X145.04Y-71.464
X145.227Y-103.348
X145.377Y-59.253
X145.974Y-72.398
X146.533Y-97.353
X146.537Y-94.818
X146.596Y-83.005
X146.761Y-73.972
X147.078Y-95.659
X147.091Y-105.989
X147.498Y-56.561
X147.815Y-66.932
X147.905Y-106.57
X148.26Y-61.438
X149.077Y-94.818
X149.835Y-96.845
X150.317Y-71.379
X150.698Y-105.481
X152.273Y-104.211
X152.451Y-94.115
X152.756Y-59.139
X152.883Y-99.995
X153.594Y-104.516
X154.153Y-100.096
X154.221Y-101.188
X155.522Y-71.46
X155.613Y-63.838
X156.235Y-95.55
X156.439Y-84.145
X157.512Y-88.152
X157.518Y-68.18
X157.968Y-99.536
X158.013Y-97.168
X158.203Y-69.286
X158.217Y-88.857
X158.217Y-89.987
X160.236Y-105.202
X161.773Y-98.369
X161.773Y-99.385
X161.823Y-83.777
X163.01Y-75.976
X165.9Y-93.467
X167.015Y-76.274
X168.491Y-85.58
T3
X116.053Y-78.557
X116.053Y-82.517
X161.597Y-88.044
X165.557Y-88.044
T2
G00X135.261Y-57.786
M15
G01X134.761Y-57.786
M16
G05
G00X135.261Y-60.726
M15
G01X134.761Y-60.726
M16
G05
G00X143.461Y-57.786
M15
G01X142.961Y-57.786
M16
G05
G00X143.461Y-60.726
M15
G01X142.961Y-60.726
M16
G05
T0
M30
