%TF.GenerationSoftware,KiCad,Pcbnew,(5.1.9)-1*%
%TF.CreationDate,2024-04-03T17:37:13+03:00*%
%TF.ProjectId,jantteri_right,6a616e74-7465-4726-995f-72696768742e,rev?*%
%TF.SameCoordinates,Original*%
%TF.FileFunction,Legend,Bot*%
%TF.FilePolarity,Positive*%
%FSLAX46Y46*%
G04 Gerber Fmt 4.6, Leading zero omitted, Abs format (unit mm)*
G04 Created by KiCad (PCBNEW (5.1.9)-1) date 2024-04-03 17:37:13*
%MOMM*%
%LPD*%
G01*
G04 APERTURE LIST*
%ADD10C,0.150000*%
%ADD11C,0.120000*%
G04 APERTURE END LIST*
D10*
X158781999Y-86286031D02*
X158639141Y-86333650D01*
X158591522Y-86381269D01*
X158543903Y-86476507D01*
X158543903Y-86619364D01*
X158591522Y-86714602D01*
X158639141Y-86762221D01*
X158734380Y-86809840D01*
X159115332Y-86809840D01*
X159115332Y-85809840D01*
X158781999Y-85809840D01*
X158686760Y-85857460D01*
X158639141Y-85905079D01*
X158591522Y-86000317D01*
X158591522Y-86095555D01*
X158639141Y-86190793D01*
X158686760Y-86238412D01*
X158781999Y-86286031D01*
X159115332Y-86286031D01*
X158115332Y-86428888D02*
X157353427Y-86428888D01*
X169307759Y-86872771D02*
X169164901Y-86920390D01*
X169117282Y-86968009D01*
X169069663Y-87063247D01*
X169069663Y-87206104D01*
X169117282Y-87301342D01*
X169164901Y-87348961D01*
X169260140Y-87396580D01*
X169641092Y-87396580D01*
X169641092Y-86396580D01*
X169307759Y-86396580D01*
X169212520Y-86444200D01*
X169164901Y-86491819D01*
X169117282Y-86587057D01*
X169117282Y-86682295D01*
X169164901Y-86777533D01*
X169212520Y-86825152D01*
X169307759Y-86872771D01*
X169641092Y-86872771D01*
X168641092Y-87015628D02*
X167879187Y-87015628D01*
X168260140Y-87396580D02*
X168260140Y-86634676D01*
X117144680Y-75359520D02*
X117144680Y-74359520D01*
X116811347Y-75073806D01*
X116478014Y-74359520D01*
X116478014Y-75359520D01*
X116001823Y-74978568D02*
X115239919Y-74978568D01*
X116662080Y-85910680D02*
X116662080Y-84910680D01*
X116328747Y-85624966D01*
X115995414Y-84910680D01*
X115995414Y-85910680D01*
X115519223Y-85529728D02*
X114757319Y-85529728D01*
X115138271Y-85910680D02*
X115138271Y-85148776D01*
X118772844Y-86736300D02*
X118868082Y-86688680D01*
X119010940Y-86688680D01*
X119153797Y-86736300D01*
X119249035Y-86831538D01*
X119296654Y-86926776D01*
X119344273Y-87117252D01*
X119344273Y-87260109D01*
X119296654Y-87450585D01*
X119249035Y-87545823D01*
X119153797Y-87641061D01*
X119010940Y-87688680D01*
X118915701Y-87688680D01*
X118772844Y-87641061D01*
X118725225Y-87593442D01*
X118725225Y-87260109D01*
X118915701Y-87260109D01*
X118296654Y-87688680D02*
X118296654Y-86688680D01*
X117725225Y-87688680D01*
X117725225Y-86688680D01*
X117249035Y-87688680D02*
X117249035Y-86688680D01*
X117010940Y-86688680D01*
X116868082Y-86736300D01*
X116772844Y-86831538D01*
X116725225Y-86926776D01*
X116677606Y-87117252D01*
X116677606Y-87260109D01*
X116725225Y-87450585D01*
X116772844Y-87545823D01*
X116868082Y-87641061D01*
X117010940Y-87688680D01*
X117249035Y-87688680D01*
X113478724Y-86513420D02*
X113145391Y-87513420D01*
X112812058Y-86513420D01*
X112288248Y-86513420D02*
X112097772Y-86513420D01*
X112002534Y-86561040D01*
X111907296Y-86656278D01*
X111859677Y-86846754D01*
X111859677Y-87180087D01*
X111907296Y-87370563D01*
X112002534Y-87465801D01*
X112097772Y-87513420D01*
X112288248Y-87513420D01*
X112383486Y-87465801D01*
X112478724Y-87370563D01*
X112526343Y-87180087D01*
X112526343Y-86846754D01*
X112478724Y-86656278D01*
X112383486Y-86561040D01*
X112288248Y-86513420D01*
X111431105Y-86513420D02*
X111431105Y-87322944D01*
X111383486Y-87418182D01*
X111335867Y-87465801D01*
X111240629Y-87513420D01*
X111050153Y-87513420D01*
X110954915Y-87465801D01*
X110907296Y-87418182D01*
X110859677Y-87322944D01*
X110859677Y-86513420D01*
X110526343Y-86513420D02*
X109954915Y-86513420D01*
X110240629Y-87513420D02*
X110240629Y-86513420D01*
D11*
%TO.C,J3*%
X115752600Y-75697120D02*
X116052600Y-76297120D01*
X116352600Y-75697120D02*
X115752600Y-75697120D01*
X116052600Y-76297120D02*
X116352600Y-75697120D01*
X120962600Y-84577120D02*
X120962600Y-76497120D01*
X113942600Y-84577120D02*
X120962600Y-84577120D01*
X113942600Y-83377120D02*
X113942600Y-84577120D01*
X112242600Y-83377120D02*
X113942600Y-83377120D01*
X112242600Y-77697120D02*
X112242600Y-83377120D01*
X113942600Y-77697120D02*
X112242600Y-77697120D01*
X113942600Y-76497120D02*
X113942600Y-77697120D01*
X120962600Y-76497120D02*
X113942600Y-76497120D01*
%TO.C,J2*%
X168417200Y-87744020D02*
X167817200Y-88044020D01*
X168417200Y-88344020D02*
X168417200Y-87744020D01*
X167817200Y-88044020D02*
X168417200Y-88344020D01*
X159537200Y-92954020D02*
X167617200Y-92954020D01*
X159537200Y-85934020D02*
X159537200Y-92954020D01*
X160737200Y-85934020D02*
X159537200Y-85934020D01*
X160737200Y-84234020D02*
X160737200Y-85934020D01*
X166417200Y-84234020D02*
X160737200Y-84234020D01*
X166417200Y-85934020D02*
X166417200Y-84234020D01*
X167617200Y-85934020D02*
X166417200Y-85934020D01*
X167617200Y-92954020D02*
X167617200Y-85934020D01*
%TO.C,L1*%
X158423400Y-102033700D02*
X159923400Y-102033700D01*
X158423400Y-94633700D02*
X159923400Y-94633700D01*
X158423400Y-102033700D02*
X158423400Y-94633700D01*
X165223400Y-94633700D02*
X163723400Y-94633700D01*
X165223400Y-102033700D02*
X163723400Y-102033700D01*
X165223400Y-94633700D02*
X165223400Y-102033700D01*
%TO.C,J4*%
X113571320Y-98501280D02*
X113571320Y-98566280D01*
X117101320Y-98501280D02*
X117101320Y-98566280D01*
X113571320Y-88286280D02*
X113571320Y-88351280D01*
X117101320Y-88286280D02*
X117101320Y-88351280D01*
X118426320Y-88351280D02*
X117101320Y-88351280D01*
X117101320Y-98566280D02*
X113571320Y-98566280D01*
X117101320Y-88286280D02*
X113571320Y-88286280D01*
%TO.C,J3*%
D10*
X110604980Y-80203786D02*
X111319266Y-80203786D01*
X111462123Y-80156167D01*
X111557361Y-80060929D01*
X111604980Y-79918072D01*
X111604980Y-79822834D01*
X110604980Y-80584739D02*
X110604980Y-81203786D01*
X110985933Y-80870453D01*
X110985933Y-81013310D01*
X111033552Y-81108548D01*
X111081171Y-81156167D01*
X111176409Y-81203786D01*
X111414504Y-81203786D01*
X111509742Y-81156167D01*
X111557361Y-81108548D01*
X111604980Y-81013310D01*
X111604980Y-80727596D01*
X111557361Y-80632358D01*
X111509742Y-80584739D01*
%TO.C,J2*%
X163910533Y-82596400D02*
X163910533Y-83310686D01*
X163958152Y-83453543D01*
X164053390Y-83548781D01*
X164196247Y-83596400D01*
X164291485Y-83596400D01*
X163481961Y-82691639D02*
X163434342Y-82644020D01*
X163339104Y-82596400D01*
X163101009Y-82596400D01*
X163005771Y-82644020D01*
X162958152Y-82691639D01*
X162910533Y-82786877D01*
X162910533Y-82882115D01*
X162958152Y-83024972D01*
X163529580Y-83596400D01*
X162910533Y-83596400D01*
%TO.C,L1*%
X160489875Y-104824545D02*
X160966066Y-104824545D01*
X160966066Y-103824545D01*
X159632732Y-104824545D02*
X160204161Y-104824545D01*
X159918447Y-104824545D02*
X159918447Y-103824545D01*
X160013685Y-103967403D01*
X160108923Y-104062641D01*
X160204161Y-104110260D01*
%TO.C,J4*%
X115669653Y-86738660D02*
X115669653Y-87452946D01*
X115717272Y-87595803D01*
X115812510Y-87691041D01*
X115955367Y-87738660D01*
X116050605Y-87738660D01*
X114764891Y-87071994D02*
X114764891Y-87738660D01*
X115002986Y-86691041D02*
X115241081Y-87405327D01*
X114622034Y-87405327D01*
%TD*%
M02*
