%TF.GenerationSoftware,KiCad,Pcbnew,(5.1.9)-1*%
%TF.CreationDate,2024-04-03T17:37:13+03:00*%
%TF.ProjectId,jantteri_right,6a616e74-7465-4726-995f-72696768742e,rev?*%
%TF.SameCoordinates,Original*%
%TF.FileFunction,Legend,Top*%
%TF.FilePolarity,Positive*%
%FSLAX46Y46*%
G04 Gerber Fmt 4.6, Leading zero omitted, Abs format (unit mm)*
G04 Created by KiCad (PCBNEW (5.1.9)-1) date 2024-04-03 17:37:13*
%MOMM*%
%LPD*%
G01*
G04 APERTURE LIST*
%ADD10C,0.200000*%
%ADD11C,0.120000*%
%ADD12C,0.150000*%
G04 APERTURE END LIST*
D10*
X144103100Y-57255100D02*
X134103101Y-57255100D01*
X134103101Y-61255100D02*
G75*
G02*
X134103101Y-57255100I0J2000000D01*
G01*
X144103100Y-57255100D02*
G75*
G02*
X144103100Y-61255100I0J-2000000D01*
G01*
X134103101Y-61255100D02*
X144103100Y-61255100D01*
D11*
%TO.C,J1*%
X145260720Y-61905660D02*
X145260720Y-56605660D01*
X145260720Y-61905660D02*
X143610720Y-61905660D01*
X145260720Y-56605660D02*
X143610720Y-56605660D01*
X132960720Y-61455660D02*
X132960720Y-57055660D01*
X134610720Y-61905660D02*
X133410720Y-61905660D01*
X134610720Y-56605660D02*
X133410720Y-56605660D01*
X133410720Y-61905660D02*
X132960720Y-61455660D01*
X133410720Y-56605660D02*
X132960720Y-57055660D01*
D12*
X142722523Y-61755660D02*
G75*
G03*
X142722523Y-61755660I-111803J0D01*
G01*
D11*
%TO.C,C9*%
X132545148Y-102790320D02*
X133067652Y-102790320D01*
X132545148Y-104260320D02*
X133067652Y-104260320D01*
D12*
%TO.C,U2*%
X129240700Y-93439420D02*
X129240700Y-97939420D01*
X134790700Y-92314420D02*
X134790700Y-97939420D01*
D11*
%TO.C,C20*%
X149432600Y-66190956D02*
X149432600Y-65975284D01*
X148712600Y-66190956D02*
X148712600Y-65975284D01*
%TO.C,Q2*%
X154122240Y-81739200D02*
X154122240Y-83199200D01*
X150962240Y-81739200D02*
X150962240Y-83899200D01*
X150962240Y-81739200D02*
X151892240Y-81739200D01*
X154122240Y-81739200D02*
X153192240Y-81739200D01*
%TO.C,C1*%
X132659800Y-71451356D02*
X132659800Y-71235684D01*
X133379800Y-71451356D02*
X133379800Y-71235684D01*
%TO.C,C2*%
X122907380Y-67092716D02*
X122907380Y-66877044D01*
X122187380Y-67092716D02*
X122187380Y-66877044D01*
%TO.C,C3*%
X126866764Y-69053120D02*
X127082436Y-69053120D01*
X126866764Y-69773120D02*
X127082436Y-69773120D01*
%TO.C,C4*%
X123250280Y-69836144D02*
X123250280Y-70051816D01*
X122530280Y-69836144D02*
X122530280Y-70051816D01*
%TO.C,C5*%
X121252660Y-69825984D02*
X121252660Y-70041656D01*
X121972660Y-69825984D02*
X121972660Y-70041656D01*
%TO.C,C6*%
X127431852Y-61899120D02*
X126009348Y-61899120D01*
X127431852Y-63719120D02*
X126009348Y-63719120D01*
%TO.C,C7*%
X156643652Y-74641120D02*
X155221148Y-74641120D01*
X156643652Y-72821120D02*
X155221148Y-72821120D01*
%TO.C,C8*%
X132447420Y-101123020D02*
X132728580Y-101123020D01*
X132447420Y-102143020D02*
X132728580Y-102143020D01*
%TO.C,C10*%
X127049200Y-81290488D02*
X127049200Y-81812992D01*
X125579200Y-81290488D02*
X125579200Y-81812992D01*
%TO.C,C11*%
X144752600Y-95447540D02*
X144752600Y-95728700D01*
X145772600Y-95447540D02*
X145772600Y-95728700D01*
%TO.C,C12*%
X128570048Y-102317220D02*
X129092552Y-102317220D01*
X128570048Y-100847220D02*
X129092552Y-100847220D01*
%TO.C,C14*%
X153870120Y-98133780D02*
X153870120Y-97852620D01*
X152850120Y-98133780D02*
X152850120Y-97852620D01*
%TO.C,C16*%
X149015564Y-105841120D02*
X149231236Y-105841120D01*
X149015564Y-105121120D02*
X149231236Y-105121120D01*
%TO.C,C17*%
X163231100Y-100097200D02*
X163231100Y-99816040D01*
X164251100Y-100097200D02*
X164251100Y-99816040D01*
%TO.C,C18*%
X156567200Y-102171868D02*
X156567200Y-102694372D01*
X158037200Y-102171868D02*
X158037200Y-102694372D01*
%TO.C,C19*%
X150958436Y-65455120D02*
X150742764Y-65455120D01*
X150958436Y-64735120D02*
X150742764Y-64735120D01*
%TO.C,C21*%
X146759600Y-66692372D02*
X146759600Y-66169868D01*
X145289600Y-66692372D02*
X145289600Y-66169868D01*
%TO.C,C22*%
X141125348Y-70202120D02*
X141647852Y-70202120D01*
X141125348Y-71672120D02*
X141647852Y-71672120D01*
%TO.C,C23*%
X132535600Y-65168372D02*
X132535600Y-64645868D01*
X131065600Y-65168372D02*
X131065600Y-64645868D01*
%TO.C,C24*%
X136313852Y-71672120D02*
X135791348Y-71672120D01*
X136313852Y-70202120D02*
X135791348Y-70202120D01*
%TO.C,C25*%
X156591052Y-77130320D02*
X155168548Y-77130320D01*
X156591052Y-75310320D02*
X155168548Y-75310320D01*
%TO.C,C26*%
X154916600Y-78911540D02*
X154916600Y-79192700D01*
X153896600Y-78911540D02*
X153896600Y-79192700D01*
%TO.C,C27*%
X165942600Y-80131868D02*
X165942600Y-81554372D01*
X167762600Y-80131868D02*
X167762600Y-81554372D01*
%TO.C,C28*%
X162331348Y-79171120D02*
X163753852Y-79171120D01*
X162331348Y-80991120D02*
X163753852Y-80991120D01*
%TO.C,C29*%
X161770600Y-91905700D02*
X161770600Y-91624540D01*
X162790600Y-91905700D02*
X162790600Y-91624540D01*
%TO.C,C30*%
X144817220Y-105229120D02*
X145098380Y-105229120D01*
X144817220Y-104209120D02*
X145098380Y-104209120D01*
%TO.C,D1*%
X142598600Y-76651120D02*
X137198600Y-76651120D01*
X142598600Y-73351120D02*
X137198600Y-73351120D01*
X142598600Y-76651120D02*
X142598600Y-73351120D01*
%TO.C,D2*%
X152208600Y-96361120D02*
X150508600Y-96361120D01*
X150508600Y-96361120D02*
X150508600Y-98911120D01*
X152208600Y-96361120D02*
X152208600Y-98911120D01*
%TO.C,D3*%
X131004640Y-58732620D02*
X131004640Y-61017620D01*
X131004640Y-61017620D02*
X132474640Y-61017620D01*
X132474640Y-61017620D02*
X132474640Y-58732620D01*
%TO.C,D4*%
X146334600Y-58253120D02*
X146334600Y-60938120D01*
X146334600Y-60938120D02*
X148254600Y-60938120D01*
X148254600Y-60938120D02*
X148254600Y-58253120D01*
%TO.C,D5*%
X125616600Y-68373120D02*
X125616600Y-65823120D01*
X127316600Y-68373120D02*
X127316600Y-65823120D01*
X125616600Y-68373120D02*
X127316600Y-68373120D01*
%TO.C,D7*%
X139890600Y-62663120D02*
X139890600Y-63463120D01*
X141190600Y-62663120D02*
X139890600Y-62663120D01*
X141190600Y-63463120D02*
X139890600Y-63463120D01*
%TO.C,D8*%
X137650600Y-62663120D02*
X138950600Y-62663120D01*
X137650600Y-63463120D02*
X138950600Y-63463120D01*
X138950600Y-63463120D02*
X138950600Y-62663120D01*
%TO.C,D9*%
X120910600Y-63071120D02*
X120910600Y-62411120D01*
X120910600Y-64731120D02*
X120910600Y-64071120D01*
X120910600Y-64731120D02*
X122940600Y-64731120D01*
X122320600Y-62411120D02*
X120910600Y-62411120D01*
%TO.C,D11*%
X144946000Y-108552920D02*
X147231000Y-108552920D01*
X144946000Y-107082920D02*
X144946000Y-108552920D01*
X147231000Y-107082920D02*
X144946000Y-107082920D01*
%TO.C,Q1*%
X158214600Y-80899120D02*
X158214600Y-79969120D01*
X158214600Y-77739120D02*
X158214600Y-78669120D01*
X158214600Y-77739120D02*
X156054600Y-77739120D01*
X158214600Y-80899120D02*
X156754600Y-80899120D01*
%TO.C,Q3*%
X156019620Y-85512880D02*
X155089620Y-85512880D01*
X152859620Y-85512880D02*
X153789620Y-85512880D01*
X152859620Y-85512880D02*
X152859620Y-87672880D01*
X156019620Y-85512880D02*
X156019620Y-86972880D01*
%TO.C,Q4*%
X159421800Y-100954720D02*
X159421800Y-101884720D01*
X159421800Y-104114720D02*
X159421800Y-103184720D01*
X159421800Y-104114720D02*
X161581800Y-104114720D01*
X159421800Y-100954720D02*
X160881800Y-100954720D01*
%TO.C,Q5*%
X128442600Y-71443120D02*
X128442600Y-69983120D01*
X131602600Y-71443120D02*
X131602600Y-69283120D01*
X131602600Y-71443120D02*
X130672600Y-71443120D01*
X128442600Y-71443120D02*
X129372600Y-71443120D01*
%TO.C,R1*%
X119191040Y-79320419D02*
X119191040Y-79627701D01*
X118431040Y-79320419D02*
X118431040Y-79627701D01*
%TO.C,R2*%
X126848600Y-71344761D02*
X126848600Y-71037479D01*
X127608600Y-71344761D02*
X127608600Y-71037479D01*
%TO.C,R3*%
X133542300Y-69028578D02*
X133542300Y-68554062D01*
X132497300Y-69028578D02*
X132497300Y-68554062D01*
%TO.C,R4*%
X125655639Y-78385940D02*
X125962921Y-78385940D01*
X125655639Y-77625940D02*
X125962921Y-77625940D01*
%TO.C,R5*%
X124957100Y-67110378D02*
X124957100Y-66635862D01*
X123912100Y-67110378D02*
X123912100Y-66635862D01*
%TO.C,R6*%
X123757160Y-81875398D02*
X123757160Y-81400882D01*
X124802160Y-81875398D02*
X124802160Y-81400882D01*
%TO.C,R7*%
X126656562Y-74816440D02*
X127131078Y-74816440D01*
X126656562Y-75861440D02*
X127131078Y-75861440D01*
%TO.C,R8*%
X144007100Y-98860378D02*
X144007100Y-98385862D01*
X142962100Y-98860378D02*
X142962100Y-98385862D01*
%TO.C,R9*%
X157834600Y-83790761D02*
X157834600Y-83483479D01*
X157074600Y-83790761D02*
X157074600Y-83483479D01*
%TO.C,R10*%
X151003759Y-108096320D02*
X151311041Y-108096320D01*
X151003759Y-107336320D02*
X151311041Y-107336320D01*
%TO.C,R11*%
X151258241Y-106218720D02*
X150950959Y-106218720D01*
X151258241Y-106978720D02*
X150950959Y-106978720D01*
%TO.C,R12*%
X151617142Y-109661220D02*
X152091658Y-109661220D01*
X151617142Y-108616220D02*
X152091658Y-108616220D01*
%TO.C,R13*%
X166962400Y-91311856D02*
X166962400Y-95665984D01*
X163542400Y-91311856D02*
X163542400Y-95665984D01*
%TO.C,R14*%
X153622742Y-106787420D02*
X154097258Y-106787420D01*
X153622742Y-107832420D02*
X154097258Y-107832420D01*
%TO.C,R15*%
X124402320Y-70610498D02*
X124402320Y-70135982D01*
X125447320Y-70610498D02*
X125447320Y-70135982D01*
%TO.C,R16*%
X121408922Y-80207380D02*
X121883438Y-80207380D01*
X121408922Y-79162380D02*
X121883438Y-79162380D01*
%TO.C,R17*%
X156056600Y-102436361D02*
X156056600Y-102129079D01*
X155296600Y-102436361D02*
X155296600Y-102129079D01*
%TO.C,R18*%
X126234759Y-77207380D02*
X126542041Y-77207380D01*
X126234759Y-76447380D02*
X126542041Y-76447380D01*
%TO.C,R19*%
X148184600Y-70838761D02*
X148184600Y-70531479D01*
X148944600Y-70838761D02*
X148944600Y-70531479D01*
%TO.C,R20*%
X157100241Y-82239120D02*
X156792959Y-82239120D01*
X157100241Y-81479120D02*
X156792959Y-81479120D01*
%TO.C,R21*%
X145439641Y-110217220D02*
X145132359Y-110217220D01*
X145439641Y-109457220D02*
X145132359Y-109457220D01*
%TO.C,R22*%
X157455841Y-105302320D02*
X157148559Y-105302320D01*
X157455841Y-104542320D02*
X157148559Y-104542320D01*
%TO.C,R23*%
X155296600Y-104671561D02*
X155296600Y-104364279D01*
X156056600Y-104671561D02*
X156056600Y-104364279D01*
%TO.C,R24*%
X130295920Y-60303921D02*
X130295920Y-59996639D01*
X129535920Y-60303921D02*
X129535920Y-59996639D01*
%TO.C,R25*%
X149680959Y-57857120D02*
X149988241Y-57857120D01*
X149680959Y-58617120D02*
X149988241Y-58617120D01*
%TO.C,R26*%
X148918959Y-108147120D02*
X149226241Y-108147120D01*
X148918959Y-107387120D02*
X149226241Y-107387120D01*
%TO.C,R27*%
X147280659Y-109469920D02*
X147587941Y-109469920D01*
X147280659Y-110229920D02*
X147587941Y-110229920D01*
%TO.C,R28*%
X149680959Y-60141120D02*
X149988241Y-60141120D01*
X149680959Y-59381120D02*
X149988241Y-59381120D01*
%TO.C,TH1*%
X146686800Y-111987562D02*
X146686800Y-112462078D01*
X145641800Y-111987562D02*
X145641800Y-112462078D01*
%TO.C,U1*%
X123270520Y-73541360D02*
X123745520Y-73541360D01*
X123745520Y-73541360D02*
X123745520Y-74016360D01*
X120000520Y-77761360D02*
X119525520Y-77761360D01*
X119525520Y-77761360D02*
X119525520Y-77286360D01*
X123270520Y-77761360D02*
X123745520Y-77761360D01*
X123745520Y-77761360D02*
X123745520Y-77286360D01*
X120000520Y-73541360D02*
X119525520Y-73541360D01*
%TO.C,U3*%
X149183600Y-99053120D02*
X149658600Y-99053120D01*
X149658600Y-99053120D02*
X149658600Y-99528120D01*
X145913600Y-103273120D02*
X145438600Y-103273120D01*
X145438600Y-103273120D02*
X145438600Y-102798120D01*
X149183600Y-103273120D02*
X149658600Y-103273120D01*
X149658600Y-103273120D02*
X149658600Y-102798120D01*
X145913600Y-99053120D02*
X145438600Y-99053120D01*
%TO.C,U5*%
X155492600Y-70790120D02*
X155492600Y-71515120D01*
X155492600Y-71515120D02*
X154767600Y-71515120D01*
X150272600Y-67020120D02*
X150272600Y-66295120D01*
X150272600Y-66295120D02*
X150997600Y-66295120D01*
X150272600Y-70790120D02*
X150272600Y-71515120D01*
X150272600Y-71515120D02*
X150997600Y-71515120D01*
X155492600Y-67020120D02*
X155492600Y-66295120D01*
%TO.C,U6*%
X135820600Y-69487120D02*
X135820600Y-69257120D01*
X135820600Y-64767120D02*
X135820600Y-64997120D01*
X135820600Y-64767120D02*
X138540600Y-64767120D01*
X138540600Y-64767120D02*
X138540600Y-66077120D01*
X134680600Y-64997120D02*
X135820600Y-64997120D01*
X138540600Y-69487120D02*
X135820600Y-69487120D01*
X138540600Y-68177120D02*
X138540600Y-69487120D01*
%TO.C,U7*%
X143913100Y-68177120D02*
X143913100Y-69487120D01*
X143913100Y-69487120D02*
X141193100Y-69487120D01*
X140053100Y-64997120D02*
X141193100Y-64997120D01*
X143913100Y-64767120D02*
X143913100Y-66077120D01*
X141193100Y-64767120D02*
X143913100Y-64767120D01*
X141193100Y-64767120D02*
X141193100Y-64997120D01*
X141193100Y-69487120D02*
X141193100Y-69257120D01*
%TO.C,D6*%
X128920600Y-61269120D02*
X128920600Y-59269120D01*
X128920600Y-59269120D02*
X125070600Y-59269120D01*
X128920600Y-61269120D02*
X125070600Y-61269120D01*
%TO.C,J1*%
D12*
X138675786Y-54961540D02*
X138675786Y-55675826D01*
X138628167Y-55818683D01*
X138532929Y-55913921D01*
X138390072Y-55961540D01*
X138294834Y-55961540D01*
X139675786Y-55961540D02*
X139104358Y-55961540D01*
X139390072Y-55961540D02*
X139390072Y-54961540D01*
X139294834Y-55104398D01*
X139199596Y-55199636D01*
X139104358Y-55247255D01*
%TO.C,C9*%
X132637233Y-106028762D02*
X132589614Y-106076381D01*
X132446757Y-106124000D01*
X132351519Y-106124000D01*
X132208661Y-106076381D01*
X132113423Y-105981143D01*
X132065804Y-105885905D01*
X132018185Y-105695429D01*
X132018185Y-105552572D01*
X132065804Y-105362096D01*
X132113423Y-105266858D01*
X132208661Y-105171620D01*
X132351519Y-105124000D01*
X132446757Y-105124000D01*
X132589614Y-105171620D01*
X132637233Y-105219239D01*
X133113423Y-106124000D02*
X133303900Y-106124000D01*
X133399138Y-106076381D01*
X133446757Y-106028762D01*
X133541995Y-105885905D01*
X133589614Y-105695429D01*
X133589614Y-105314477D01*
X133541995Y-105219239D01*
X133494376Y-105171620D01*
X133399138Y-105124000D01*
X133208661Y-105124000D01*
X133113423Y-105171620D01*
X133065804Y-105219239D01*
X133018185Y-105314477D01*
X133018185Y-105552572D01*
X133065804Y-105647810D01*
X133113423Y-105695429D01*
X133208661Y-105743048D01*
X133399138Y-105743048D01*
X133494376Y-105695429D01*
X133541995Y-105647810D01*
X133589614Y-105552572D01*
%TO.C,U2*%
X127392180Y-98407124D02*
X128201704Y-98407124D01*
X128296942Y-98359505D01*
X128344561Y-98311886D01*
X128392180Y-98216648D01*
X128392180Y-98026172D01*
X128344561Y-97930934D01*
X128296942Y-97883315D01*
X128201704Y-97835696D01*
X127392180Y-97835696D01*
X127487419Y-97407124D02*
X127439800Y-97359505D01*
X127392180Y-97264267D01*
X127392180Y-97026172D01*
X127439800Y-96930934D01*
X127487419Y-96883315D01*
X127582657Y-96835696D01*
X127677895Y-96835696D01*
X127820752Y-96883315D01*
X128392180Y-97454743D01*
X128392180Y-96835696D01*
%TO.C,C20*%
X148269742Y-66725977D02*
X148317361Y-66773596D01*
X148364980Y-66916453D01*
X148364980Y-67011691D01*
X148317361Y-67154548D01*
X148222123Y-67249786D01*
X148126885Y-67297405D01*
X147936409Y-67345024D01*
X147793552Y-67345024D01*
X147603076Y-67297405D01*
X147507838Y-67249786D01*
X147412600Y-67154548D01*
X147364980Y-67011691D01*
X147364980Y-66916453D01*
X147412600Y-66773596D01*
X147460219Y-66725977D01*
X147460219Y-66345024D02*
X147412600Y-66297405D01*
X147364980Y-66202167D01*
X147364980Y-65964072D01*
X147412600Y-65868834D01*
X147460219Y-65821215D01*
X147555457Y-65773596D01*
X147650695Y-65773596D01*
X147793552Y-65821215D01*
X148364980Y-66392643D01*
X148364980Y-65773596D01*
X147364980Y-65154548D02*
X147364980Y-65059310D01*
X147412600Y-64964072D01*
X147460219Y-64916453D01*
X147555457Y-64868834D01*
X147745933Y-64821215D01*
X147984028Y-64821215D01*
X148174504Y-64868834D01*
X148269742Y-64916453D01*
X148317361Y-64964072D01*
X148364980Y-65059310D01*
X148364980Y-65154548D01*
X148317361Y-65249786D01*
X148269742Y-65297405D01*
X148174504Y-65345024D01*
X147984028Y-65392643D01*
X147745933Y-65392643D01*
X147555457Y-65345024D01*
X147460219Y-65297405D01*
X147412600Y-65249786D01*
X147364980Y-65154548D01*
%TO.C,Q2*%
X150589859Y-82594438D02*
X150542240Y-82689676D01*
X150447001Y-82784914D01*
X150304144Y-82927771D01*
X150256525Y-83023009D01*
X150256525Y-83118247D01*
X150494620Y-83070628D02*
X150447001Y-83165866D01*
X150351763Y-83261104D01*
X150161287Y-83308723D01*
X149827954Y-83308723D01*
X149637478Y-83261104D01*
X149542240Y-83165866D01*
X149494620Y-83070628D01*
X149494620Y-82880152D01*
X149542240Y-82784914D01*
X149637478Y-82689676D01*
X149827954Y-82642057D01*
X150161287Y-82642057D01*
X150351763Y-82689676D01*
X150447001Y-82784914D01*
X150494620Y-82880152D01*
X150494620Y-83070628D01*
X149589859Y-82261104D02*
X149542240Y-82213485D01*
X149494620Y-82118247D01*
X149494620Y-81880152D01*
X149542240Y-81784914D01*
X149589859Y-81737295D01*
X149685097Y-81689676D01*
X149780335Y-81689676D01*
X149923192Y-81737295D01*
X150494620Y-82308723D01*
X150494620Y-81689676D01*
%TO.C,C1*%
X133081733Y-73986662D02*
X133034114Y-74034281D01*
X132891257Y-74081900D01*
X132796019Y-74081900D01*
X132653161Y-74034281D01*
X132557923Y-73939043D01*
X132510304Y-73843805D01*
X132462685Y-73653329D01*
X132462685Y-73510472D01*
X132510304Y-73319996D01*
X132557923Y-73224758D01*
X132653161Y-73129520D01*
X132796019Y-73081900D01*
X132891257Y-73081900D01*
X133034114Y-73129520D01*
X133081733Y-73177139D01*
X134034114Y-74081900D02*
X133462685Y-74081900D01*
X133748400Y-74081900D02*
X133748400Y-73081900D01*
X133653161Y-73224758D01*
X133557923Y-73319996D01*
X133462685Y-73367615D01*
%TO.C,C2*%
X121446562Y-67128686D02*
X121494181Y-67176305D01*
X121541800Y-67319162D01*
X121541800Y-67414400D01*
X121494181Y-67557258D01*
X121398943Y-67652496D01*
X121303705Y-67700115D01*
X121113229Y-67747734D01*
X120970372Y-67747734D01*
X120779896Y-67700115D01*
X120684658Y-67652496D01*
X120589420Y-67557258D01*
X120541800Y-67414400D01*
X120541800Y-67319162D01*
X120589420Y-67176305D01*
X120637039Y-67128686D01*
X120637039Y-66747734D02*
X120589420Y-66700115D01*
X120541800Y-66604877D01*
X120541800Y-66366781D01*
X120589420Y-66271543D01*
X120637039Y-66223924D01*
X120732277Y-66176305D01*
X120827515Y-66176305D01*
X120970372Y-66223924D01*
X121541800Y-66795353D01*
X121541800Y-66176305D01*
%TO.C,C3*%
X128954233Y-68449462D02*
X128906614Y-68497081D01*
X128763757Y-68544700D01*
X128668519Y-68544700D01*
X128525661Y-68497081D01*
X128430423Y-68401843D01*
X128382804Y-68306605D01*
X128335185Y-68116129D01*
X128335185Y-67973272D01*
X128382804Y-67782796D01*
X128430423Y-67687558D01*
X128525661Y-67592320D01*
X128668519Y-67544700D01*
X128763757Y-67544700D01*
X128906614Y-67592320D01*
X128954233Y-67639939D01*
X129287566Y-67544700D02*
X129906614Y-67544700D01*
X129573280Y-67925653D01*
X129716138Y-67925653D01*
X129811376Y-67973272D01*
X129858995Y-68020891D01*
X129906614Y-68116129D01*
X129906614Y-68354224D01*
X129858995Y-68449462D01*
X129811376Y-68497081D01*
X129716138Y-68544700D01*
X129430423Y-68544700D01*
X129335185Y-68497081D01*
X129287566Y-68449462D01*
%TO.C,C4*%
X122879122Y-72066446D02*
X122926741Y-72114065D01*
X122974360Y-72256922D01*
X122974360Y-72352160D01*
X122926741Y-72495018D01*
X122831503Y-72590256D01*
X122736265Y-72637875D01*
X122545789Y-72685494D01*
X122402932Y-72685494D01*
X122212456Y-72637875D01*
X122117218Y-72590256D01*
X122021980Y-72495018D01*
X121974360Y-72352160D01*
X121974360Y-72256922D01*
X122021980Y-72114065D01*
X122069599Y-72066446D01*
X122307694Y-71209303D02*
X122974360Y-71209303D01*
X121926741Y-71447399D02*
X122641027Y-71685494D01*
X122641027Y-71066446D01*
%TO.C,C5*%
X120839502Y-69986186D02*
X120887121Y-70033805D01*
X120934740Y-70176662D01*
X120934740Y-70271900D01*
X120887121Y-70414758D01*
X120791883Y-70509996D01*
X120696645Y-70557615D01*
X120506169Y-70605234D01*
X120363312Y-70605234D01*
X120172836Y-70557615D01*
X120077598Y-70509996D01*
X119982360Y-70414758D01*
X119934740Y-70271900D01*
X119934740Y-70176662D01*
X119982360Y-70033805D01*
X120029979Y-69986186D01*
X119934740Y-69081424D02*
X119934740Y-69557615D01*
X120410931Y-69605234D01*
X120363312Y-69557615D01*
X120315693Y-69462377D01*
X120315693Y-69224281D01*
X120363312Y-69129043D01*
X120410931Y-69081424D01*
X120506169Y-69033805D01*
X120744264Y-69033805D01*
X120839502Y-69081424D01*
X120887121Y-69129043D01*
X120934740Y-69224281D01*
X120934740Y-69462377D01*
X120887121Y-69557615D01*
X120839502Y-69605234D01*
%TO.C,C6*%
X129982933Y-62480462D02*
X129935314Y-62528081D01*
X129792457Y-62575700D01*
X129697219Y-62575700D01*
X129554361Y-62528081D01*
X129459123Y-62432843D01*
X129411504Y-62337605D01*
X129363885Y-62147129D01*
X129363885Y-62004272D01*
X129411504Y-61813796D01*
X129459123Y-61718558D01*
X129554361Y-61623320D01*
X129697219Y-61575700D01*
X129792457Y-61575700D01*
X129935314Y-61623320D01*
X129982933Y-61670939D01*
X130840076Y-61575700D02*
X130649600Y-61575700D01*
X130554361Y-61623320D01*
X130506742Y-61670939D01*
X130411504Y-61813796D01*
X130363885Y-62004272D01*
X130363885Y-62385224D01*
X130411504Y-62480462D01*
X130459123Y-62528081D01*
X130554361Y-62575700D01*
X130744838Y-62575700D01*
X130840076Y-62528081D01*
X130887695Y-62480462D01*
X130935314Y-62385224D01*
X130935314Y-62147129D01*
X130887695Y-62051891D01*
X130840076Y-62004272D01*
X130744838Y-61956653D01*
X130554361Y-61956653D01*
X130459123Y-62004272D01*
X130411504Y-62051891D01*
X130363885Y-62147129D01*
%TO.C,C7*%
X151814233Y-74100962D02*
X151766614Y-74148581D01*
X151623757Y-74196200D01*
X151528519Y-74196200D01*
X151385661Y-74148581D01*
X151290423Y-74053343D01*
X151242804Y-73958105D01*
X151195185Y-73767629D01*
X151195185Y-73624772D01*
X151242804Y-73434296D01*
X151290423Y-73339058D01*
X151385661Y-73243820D01*
X151528519Y-73196200D01*
X151623757Y-73196200D01*
X151766614Y-73243820D01*
X151814233Y-73291439D01*
X152147566Y-73196200D02*
X152814233Y-73196200D01*
X152385661Y-74196200D01*
%TO.C,C8*%
X135062933Y-102002862D02*
X135015314Y-102050481D01*
X134872457Y-102098100D01*
X134777219Y-102098100D01*
X134634361Y-102050481D01*
X134539123Y-101955243D01*
X134491504Y-101860005D01*
X134443885Y-101669529D01*
X134443885Y-101526672D01*
X134491504Y-101336196D01*
X134539123Y-101240958D01*
X134634361Y-101145720D01*
X134777219Y-101098100D01*
X134872457Y-101098100D01*
X135015314Y-101145720D01*
X135062933Y-101193339D01*
X135634361Y-101526672D02*
X135539123Y-101479053D01*
X135491504Y-101431434D01*
X135443885Y-101336196D01*
X135443885Y-101288577D01*
X135491504Y-101193339D01*
X135539123Y-101145720D01*
X135634361Y-101098100D01*
X135824838Y-101098100D01*
X135920076Y-101145720D01*
X135967695Y-101193339D01*
X136015314Y-101288577D01*
X136015314Y-101336196D01*
X135967695Y-101431434D01*
X135920076Y-101479053D01*
X135824838Y-101526672D01*
X135634361Y-101526672D01*
X135539123Y-101574291D01*
X135491504Y-101621910D01*
X135443885Y-101717148D01*
X135443885Y-101907624D01*
X135491504Y-102002862D01*
X135539123Y-102050481D01*
X135634361Y-102098100D01*
X135824838Y-102098100D01*
X135920076Y-102050481D01*
X135967695Y-102002862D01*
X136015314Y-101907624D01*
X136015314Y-101717148D01*
X135967695Y-101621910D01*
X135920076Y-101574291D01*
X135824838Y-101526672D01*
%TO.C,C10*%
X125267482Y-84639422D02*
X125219863Y-84687041D01*
X125077006Y-84734660D01*
X124981768Y-84734660D01*
X124838911Y-84687041D01*
X124743673Y-84591803D01*
X124696054Y-84496565D01*
X124648435Y-84306089D01*
X124648435Y-84163232D01*
X124696054Y-83972756D01*
X124743673Y-83877518D01*
X124838911Y-83782280D01*
X124981768Y-83734660D01*
X125077006Y-83734660D01*
X125219863Y-83782280D01*
X125267482Y-83829899D01*
X126219863Y-84734660D02*
X125648435Y-84734660D01*
X125934149Y-84734660D02*
X125934149Y-83734660D01*
X125838911Y-83877518D01*
X125743673Y-83972756D01*
X125648435Y-84020375D01*
X126838911Y-83734660D02*
X126934149Y-83734660D01*
X127029387Y-83782280D01*
X127077006Y-83829899D01*
X127124625Y-83925137D01*
X127172244Y-84115613D01*
X127172244Y-84353708D01*
X127124625Y-84544184D01*
X127077006Y-84639422D01*
X127029387Y-84687041D01*
X126934149Y-84734660D01*
X126838911Y-84734660D01*
X126743673Y-84687041D01*
X126696054Y-84639422D01*
X126648435Y-84544184D01*
X126600816Y-84353708D01*
X126600816Y-84115613D01*
X126648435Y-83925137D01*
X126696054Y-83829899D01*
X126743673Y-83782280D01*
X126838911Y-83734660D01*
%TO.C,C11*%
X144518142Y-93493862D02*
X144470523Y-93541481D01*
X144327666Y-93589100D01*
X144232428Y-93589100D01*
X144089571Y-93541481D01*
X143994333Y-93446243D01*
X143946714Y-93351005D01*
X143899095Y-93160529D01*
X143899095Y-93017672D01*
X143946714Y-92827196D01*
X143994333Y-92731958D01*
X144089571Y-92636720D01*
X144232428Y-92589100D01*
X144327666Y-92589100D01*
X144470523Y-92636720D01*
X144518142Y-92684339D01*
X145470523Y-93589100D02*
X144899095Y-93589100D01*
X145184809Y-93589100D02*
X145184809Y-92589100D01*
X145089571Y-92731958D01*
X144994333Y-92827196D01*
X144899095Y-92874815D01*
X146422904Y-93589100D02*
X145851476Y-93589100D01*
X146137190Y-93589100D02*
X146137190Y-92589100D01*
X146041952Y-92731958D01*
X145946714Y-92827196D01*
X145851476Y-92874815D01*
%TO.C,C12*%
X126915942Y-104136462D02*
X126868323Y-104184081D01*
X126725466Y-104231700D01*
X126630228Y-104231700D01*
X126487371Y-104184081D01*
X126392133Y-104088843D01*
X126344514Y-103993605D01*
X126296895Y-103803129D01*
X126296895Y-103660272D01*
X126344514Y-103469796D01*
X126392133Y-103374558D01*
X126487371Y-103279320D01*
X126630228Y-103231700D01*
X126725466Y-103231700D01*
X126868323Y-103279320D01*
X126915942Y-103326939D01*
X127868323Y-104231700D02*
X127296895Y-104231700D01*
X127582609Y-104231700D02*
X127582609Y-103231700D01*
X127487371Y-103374558D01*
X127392133Y-103469796D01*
X127296895Y-103517415D01*
X128249276Y-103326939D02*
X128296895Y-103279320D01*
X128392133Y-103231700D01*
X128630228Y-103231700D01*
X128725466Y-103279320D01*
X128773085Y-103326939D01*
X128820704Y-103422177D01*
X128820704Y-103517415D01*
X128773085Y-103660272D01*
X128201657Y-104231700D01*
X128820704Y-104231700D01*
%TO.C,C14*%
X155558762Y-98978957D02*
X155606381Y-99026576D01*
X155654000Y-99169433D01*
X155654000Y-99264671D01*
X155606381Y-99407528D01*
X155511143Y-99502766D01*
X155415905Y-99550385D01*
X155225429Y-99598004D01*
X155082572Y-99598004D01*
X154892096Y-99550385D01*
X154796858Y-99502766D01*
X154701620Y-99407528D01*
X154654000Y-99264671D01*
X154654000Y-99169433D01*
X154701620Y-99026576D01*
X154749239Y-98978957D01*
X155654000Y-98026576D02*
X155654000Y-98598004D01*
X155654000Y-98312290D02*
X154654000Y-98312290D01*
X154796858Y-98407528D01*
X154892096Y-98502766D01*
X154939715Y-98598004D01*
X154987334Y-97169433D02*
X155654000Y-97169433D01*
X154606381Y-97407528D02*
X155320667Y-97645623D01*
X155320667Y-97026576D01*
%TO.C,C16*%
X151347442Y-104231677D02*
X151395061Y-104279296D01*
X151442680Y-104422153D01*
X151442680Y-104517391D01*
X151395061Y-104660248D01*
X151299823Y-104755486D01*
X151204585Y-104803105D01*
X151014109Y-104850724D01*
X150871252Y-104850724D01*
X150680776Y-104803105D01*
X150585538Y-104755486D01*
X150490300Y-104660248D01*
X150442680Y-104517391D01*
X150442680Y-104422153D01*
X150490300Y-104279296D01*
X150537919Y-104231677D01*
X151442680Y-103279296D02*
X151442680Y-103850724D01*
X151442680Y-103565010D02*
X150442680Y-103565010D01*
X150585538Y-103660248D01*
X150680776Y-103755486D01*
X150728395Y-103850724D01*
X150442680Y-102422153D02*
X150442680Y-102612629D01*
X150490300Y-102707867D01*
X150537919Y-102755486D01*
X150680776Y-102850724D01*
X150871252Y-102898343D01*
X151252204Y-102898343D01*
X151347442Y-102850724D01*
X151395061Y-102803105D01*
X151442680Y-102707867D01*
X151442680Y-102517391D01*
X151395061Y-102422153D01*
X151347442Y-102374534D01*
X151252204Y-102326915D01*
X151014109Y-102326915D01*
X150918871Y-102374534D01*
X150871252Y-102422153D01*
X150823633Y-102517391D01*
X150823633Y-102707867D01*
X150871252Y-102803105D01*
X150918871Y-102850724D01*
X151014109Y-102898343D01*
%TO.C,C17*%
X165774642Y-99608877D02*
X165822261Y-99656496D01*
X165869880Y-99799353D01*
X165869880Y-99894591D01*
X165822261Y-100037448D01*
X165727023Y-100132686D01*
X165631785Y-100180305D01*
X165441309Y-100227924D01*
X165298452Y-100227924D01*
X165107976Y-100180305D01*
X165012738Y-100132686D01*
X164917500Y-100037448D01*
X164869880Y-99894591D01*
X164869880Y-99799353D01*
X164917500Y-99656496D01*
X164965119Y-99608877D01*
X165869880Y-98656496D02*
X165869880Y-99227924D01*
X165869880Y-98942210D02*
X164869880Y-98942210D01*
X165012738Y-99037448D01*
X165107976Y-99132686D01*
X165155595Y-99227924D01*
X164869880Y-98323162D02*
X164869880Y-97656496D01*
X165869880Y-98085067D01*
%TO.C,C18*%
X157722842Y-99837477D02*
X157770461Y-99885096D01*
X157818080Y-100027953D01*
X157818080Y-100123191D01*
X157770461Y-100266048D01*
X157675223Y-100361286D01*
X157579985Y-100408905D01*
X157389509Y-100456524D01*
X157246652Y-100456524D01*
X157056176Y-100408905D01*
X156960938Y-100361286D01*
X156865700Y-100266048D01*
X156818080Y-100123191D01*
X156818080Y-100027953D01*
X156865700Y-99885096D01*
X156913319Y-99837477D01*
X157818080Y-98885096D02*
X157818080Y-99456524D01*
X157818080Y-99170810D02*
X156818080Y-99170810D01*
X156960938Y-99266048D01*
X157056176Y-99361286D01*
X157103795Y-99456524D01*
X157246652Y-98313667D02*
X157199033Y-98408905D01*
X157151414Y-98456524D01*
X157056176Y-98504143D01*
X157008557Y-98504143D01*
X156913319Y-98456524D01*
X156865700Y-98408905D01*
X156818080Y-98313667D01*
X156818080Y-98123191D01*
X156865700Y-98027953D01*
X156913319Y-97980334D01*
X157008557Y-97932715D01*
X157056176Y-97932715D01*
X157151414Y-97980334D01*
X157199033Y-98027953D01*
X157246652Y-98123191D01*
X157246652Y-98313667D01*
X157294271Y-98408905D01*
X157341890Y-98456524D01*
X157437128Y-98504143D01*
X157627604Y-98504143D01*
X157722842Y-98456524D01*
X157770461Y-98408905D01*
X157818080Y-98313667D01*
X157818080Y-98123191D01*
X157770461Y-98027953D01*
X157722842Y-97980334D01*
X157627604Y-97932715D01*
X157437128Y-97932715D01*
X157341890Y-97980334D01*
X157294271Y-98027953D01*
X157246652Y-98123191D01*
%TO.C,C19*%
X150169642Y-63826662D02*
X150122023Y-63874281D01*
X149979166Y-63921900D01*
X149883928Y-63921900D01*
X149741071Y-63874281D01*
X149645833Y-63779043D01*
X149598214Y-63683805D01*
X149550595Y-63493329D01*
X149550595Y-63350472D01*
X149598214Y-63159996D01*
X149645833Y-63064758D01*
X149741071Y-62969520D01*
X149883928Y-62921900D01*
X149979166Y-62921900D01*
X150122023Y-62969520D01*
X150169642Y-63017139D01*
X151122023Y-63921900D02*
X150550595Y-63921900D01*
X150836309Y-63921900D02*
X150836309Y-62921900D01*
X150741071Y-63064758D01*
X150645833Y-63159996D01*
X150550595Y-63207615D01*
X151598214Y-63921900D02*
X151788690Y-63921900D01*
X151883928Y-63874281D01*
X151931547Y-63826662D01*
X152026785Y-63683805D01*
X152074404Y-63493329D01*
X152074404Y-63112377D01*
X152026785Y-63017139D01*
X151979166Y-62969520D01*
X151883928Y-62921900D01*
X151693452Y-62921900D01*
X151598214Y-62969520D01*
X151550595Y-63017139D01*
X151502976Y-63112377D01*
X151502976Y-63350472D01*
X151550595Y-63445710D01*
X151598214Y-63493329D01*
X151693452Y-63540948D01*
X151883928Y-63540948D01*
X151979166Y-63493329D01*
X152026785Y-63445710D01*
X152074404Y-63350472D01*
%TO.C,C21*%
X145330942Y-64207662D02*
X145283323Y-64255281D01*
X145140466Y-64302900D01*
X145045228Y-64302900D01*
X144902371Y-64255281D01*
X144807133Y-64160043D01*
X144759514Y-64064805D01*
X144711895Y-63874329D01*
X144711895Y-63731472D01*
X144759514Y-63540996D01*
X144807133Y-63445758D01*
X144902371Y-63350520D01*
X145045228Y-63302900D01*
X145140466Y-63302900D01*
X145283323Y-63350520D01*
X145330942Y-63398139D01*
X145711895Y-63398139D02*
X145759514Y-63350520D01*
X145854752Y-63302900D01*
X146092847Y-63302900D01*
X146188085Y-63350520D01*
X146235704Y-63398139D01*
X146283323Y-63493377D01*
X146283323Y-63588615D01*
X146235704Y-63731472D01*
X145664276Y-64302900D01*
X146283323Y-64302900D01*
X147235704Y-64302900D02*
X146664276Y-64302900D01*
X146949990Y-64302900D02*
X146949990Y-63302900D01*
X146854752Y-63445758D01*
X146759514Y-63540996D01*
X146664276Y-63588615D01*
%TO.C,C22*%
X140695442Y-72945262D02*
X140647823Y-72992881D01*
X140504966Y-73040500D01*
X140409728Y-73040500D01*
X140266871Y-72992881D01*
X140171633Y-72897643D01*
X140124014Y-72802405D01*
X140076395Y-72611929D01*
X140076395Y-72469072D01*
X140124014Y-72278596D01*
X140171633Y-72183358D01*
X140266871Y-72088120D01*
X140409728Y-72040500D01*
X140504966Y-72040500D01*
X140647823Y-72088120D01*
X140695442Y-72135739D01*
X141076395Y-72135739D02*
X141124014Y-72088120D01*
X141219252Y-72040500D01*
X141457347Y-72040500D01*
X141552585Y-72088120D01*
X141600204Y-72135739D01*
X141647823Y-72230977D01*
X141647823Y-72326215D01*
X141600204Y-72469072D01*
X141028776Y-73040500D01*
X141647823Y-73040500D01*
X142028776Y-72135739D02*
X142076395Y-72088120D01*
X142171633Y-72040500D01*
X142409728Y-72040500D01*
X142504966Y-72088120D01*
X142552585Y-72135739D01*
X142600204Y-72230977D01*
X142600204Y-72326215D01*
X142552585Y-72469072D01*
X141981157Y-73040500D01*
X142600204Y-73040500D01*
%TO.C,C23*%
X128554242Y-66442862D02*
X128506623Y-66490481D01*
X128363766Y-66538100D01*
X128268528Y-66538100D01*
X128125671Y-66490481D01*
X128030433Y-66395243D01*
X127982814Y-66300005D01*
X127935195Y-66109529D01*
X127935195Y-65966672D01*
X127982814Y-65776196D01*
X128030433Y-65680958D01*
X128125671Y-65585720D01*
X128268528Y-65538100D01*
X128363766Y-65538100D01*
X128506623Y-65585720D01*
X128554242Y-65633339D01*
X128935195Y-65633339D02*
X128982814Y-65585720D01*
X129078052Y-65538100D01*
X129316147Y-65538100D01*
X129411385Y-65585720D01*
X129459004Y-65633339D01*
X129506623Y-65728577D01*
X129506623Y-65823815D01*
X129459004Y-65966672D01*
X128887576Y-66538100D01*
X129506623Y-66538100D01*
X129839957Y-65538100D02*
X130459004Y-65538100D01*
X130125671Y-65919053D01*
X130268528Y-65919053D01*
X130363766Y-65966672D01*
X130411385Y-66014291D01*
X130459004Y-66109529D01*
X130459004Y-66347624D01*
X130411385Y-66442862D01*
X130363766Y-66490481D01*
X130268528Y-66538100D01*
X129982814Y-66538100D01*
X129887576Y-66490481D01*
X129839957Y-66442862D01*
%TO.C,C24*%
X135409742Y-72974262D02*
X135362123Y-73021881D01*
X135219266Y-73069500D01*
X135124028Y-73069500D01*
X134981171Y-73021881D01*
X134885933Y-72926643D01*
X134838314Y-72831405D01*
X134790695Y-72640929D01*
X134790695Y-72498072D01*
X134838314Y-72307596D01*
X134885933Y-72212358D01*
X134981171Y-72117120D01*
X135124028Y-72069500D01*
X135219266Y-72069500D01*
X135362123Y-72117120D01*
X135409742Y-72164739D01*
X135790695Y-72164739D02*
X135838314Y-72117120D01*
X135933552Y-72069500D01*
X136171647Y-72069500D01*
X136266885Y-72117120D01*
X136314504Y-72164739D01*
X136362123Y-72259977D01*
X136362123Y-72355215D01*
X136314504Y-72498072D01*
X135743076Y-73069500D01*
X136362123Y-73069500D01*
X137219266Y-72402834D02*
X137219266Y-73069500D01*
X136981171Y-72021881D02*
X136743076Y-72736167D01*
X137362123Y-72736167D01*
%TO.C,C25*%
X151312642Y-76615562D02*
X151265023Y-76663181D01*
X151122166Y-76710800D01*
X151026928Y-76710800D01*
X150884071Y-76663181D01*
X150788833Y-76567943D01*
X150741214Y-76472705D01*
X150693595Y-76282229D01*
X150693595Y-76139372D01*
X150741214Y-75948896D01*
X150788833Y-75853658D01*
X150884071Y-75758420D01*
X151026928Y-75710800D01*
X151122166Y-75710800D01*
X151265023Y-75758420D01*
X151312642Y-75806039D01*
X151693595Y-75806039D02*
X151741214Y-75758420D01*
X151836452Y-75710800D01*
X152074547Y-75710800D01*
X152169785Y-75758420D01*
X152217404Y-75806039D01*
X152265023Y-75901277D01*
X152265023Y-75996515D01*
X152217404Y-76139372D01*
X151645976Y-76710800D01*
X152265023Y-76710800D01*
X153169785Y-75710800D02*
X152693595Y-75710800D01*
X152645976Y-76186991D01*
X152693595Y-76139372D01*
X152788833Y-76091753D01*
X153026928Y-76091753D01*
X153122166Y-76139372D01*
X153169785Y-76186991D01*
X153217404Y-76282229D01*
X153217404Y-76520324D01*
X153169785Y-76615562D01*
X153122166Y-76663181D01*
X153026928Y-76710800D01*
X152788833Y-76710800D01*
X152693595Y-76663181D01*
X152645976Y-76615562D01*
%TO.C,C26*%
X152693642Y-79746077D02*
X152741261Y-79793696D01*
X152788880Y-79936553D01*
X152788880Y-80031791D01*
X152741261Y-80174648D01*
X152646023Y-80269886D01*
X152550785Y-80317505D01*
X152360309Y-80365124D01*
X152217452Y-80365124D01*
X152026976Y-80317505D01*
X151931738Y-80269886D01*
X151836500Y-80174648D01*
X151788880Y-80031791D01*
X151788880Y-79936553D01*
X151836500Y-79793696D01*
X151884119Y-79746077D01*
X151884119Y-79365124D02*
X151836500Y-79317505D01*
X151788880Y-79222267D01*
X151788880Y-78984172D01*
X151836500Y-78888934D01*
X151884119Y-78841315D01*
X151979357Y-78793696D01*
X152074595Y-78793696D01*
X152217452Y-78841315D01*
X152788880Y-79412743D01*
X152788880Y-78793696D01*
X151788880Y-77936553D02*
X151788880Y-78127029D01*
X151836500Y-78222267D01*
X151884119Y-78269886D01*
X152026976Y-78365124D01*
X152217452Y-78412743D01*
X152598404Y-78412743D01*
X152693642Y-78365124D01*
X152741261Y-78317505D01*
X152788880Y-78222267D01*
X152788880Y-78031791D01*
X152741261Y-77936553D01*
X152693642Y-77888934D01*
X152598404Y-77841315D01*
X152360309Y-77841315D01*
X152265071Y-77888934D01*
X152217452Y-77936553D01*
X152169833Y-78031791D01*
X152169833Y-78222267D01*
X152217452Y-78317505D01*
X152265071Y-78365124D01*
X152360309Y-78412743D01*
%TO.C,C27*%
X167209742Y-77421977D02*
X167257361Y-77469596D01*
X167304980Y-77612453D01*
X167304980Y-77707691D01*
X167257361Y-77850548D01*
X167162123Y-77945786D01*
X167066885Y-77993405D01*
X166876409Y-78041024D01*
X166733552Y-78041024D01*
X166543076Y-77993405D01*
X166447838Y-77945786D01*
X166352600Y-77850548D01*
X166304980Y-77707691D01*
X166304980Y-77612453D01*
X166352600Y-77469596D01*
X166400219Y-77421977D01*
X166400219Y-77041024D02*
X166352600Y-76993405D01*
X166304980Y-76898167D01*
X166304980Y-76660072D01*
X166352600Y-76564834D01*
X166400219Y-76517215D01*
X166495457Y-76469596D01*
X166590695Y-76469596D01*
X166733552Y-76517215D01*
X167304980Y-77088643D01*
X167304980Y-76469596D01*
X166304980Y-76136262D02*
X166304980Y-75469596D01*
X167304980Y-75898167D01*
%TO.C,C28*%
X163276042Y-78507862D02*
X163228423Y-78555481D01*
X163085566Y-78603100D01*
X162990328Y-78603100D01*
X162847471Y-78555481D01*
X162752233Y-78460243D01*
X162704614Y-78365005D01*
X162656995Y-78174529D01*
X162656995Y-78031672D01*
X162704614Y-77841196D01*
X162752233Y-77745958D01*
X162847471Y-77650720D01*
X162990328Y-77603100D01*
X163085566Y-77603100D01*
X163228423Y-77650720D01*
X163276042Y-77698339D01*
X163656995Y-77698339D02*
X163704614Y-77650720D01*
X163799852Y-77603100D01*
X164037947Y-77603100D01*
X164133185Y-77650720D01*
X164180804Y-77698339D01*
X164228423Y-77793577D01*
X164228423Y-77888815D01*
X164180804Y-78031672D01*
X163609376Y-78603100D01*
X164228423Y-78603100D01*
X164799852Y-78031672D02*
X164704614Y-77984053D01*
X164656995Y-77936434D01*
X164609376Y-77841196D01*
X164609376Y-77793577D01*
X164656995Y-77698339D01*
X164704614Y-77650720D01*
X164799852Y-77603100D01*
X164990328Y-77603100D01*
X165085566Y-77650720D01*
X165133185Y-77698339D01*
X165180804Y-77793577D01*
X165180804Y-77841196D01*
X165133185Y-77936434D01*
X165085566Y-77984053D01*
X164990328Y-78031672D01*
X164799852Y-78031672D01*
X164704614Y-78079291D01*
X164656995Y-78126910D01*
X164609376Y-78222148D01*
X164609376Y-78412624D01*
X164656995Y-78507862D01*
X164704614Y-78555481D01*
X164799852Y-78603100D01*
X164990328Y-78603100D01*
X165085566Y-78555481D01*
X165133185Y-78507862D01*
X165180804Y-78412624D01*
X165180804Y-78222148D01*
X165133185Y-78126910D01*
X165085566Y-78079291D01*
X164990328Y-78031672D01*
%TO.C,C29*%
X161207742Y-92407977D02*
X161255361Y-92455596D01*
X161302980Y-92598453D01*
X161302980Y-92693691D01*
X161255361Y-92836548D01*
X161160123Y-92931786D01*
X161064885Y-92979405D01*
X160874409Y-93027024D01*
X160731552Y-93027024D01*
X160541076Y-92979405D01*
X160445838Y-92931786D01*
X160350600Y-92836548D01*
X160302980Y-92693691D01*
X160302980Y-92598453D01*
X160350600Y-92455596D01*
X160398219Y-92407977D01*
X160398219Y-92027024D02*
X160350600Y-91979405D01*
X160302980Y-91884167D01*
X160302980Y-91646072D01*
X160350600Y-91550834D01*
X160398219Y-91503215D01*
X160493457Y-91455596D01*
X160588695Y-91455596D01*
X160731552Y-91503215D01*
X161302980Y-92074643D01*
X161302980Y-91455596D01*
X161302980Y-90979405D02*
X161302980Y-90788929D01*
X161255361Y-90693691D01*
X161207742Y-90646072D01*
X161064885Y-90550834D01*
X160874409Y-90503215D01*
X160493457Y-90503215D01*
X160398219Y-90550834D01*
X160350600Y-90598453D01*
X160302980Y-90693691D01*
X160302980Y-90884167D01*
X160350600Y-90979405D01*
X160398219Y-91027024D01*
X160493457Y-91074643D01*
X160731552Y-91074643D01*
X160826790Y-91027024D01*
X160874409Y-90979405D01*
X160922028Y-90884167D01*
X160922028Y-90693691D01*
X160874409Y-90598453D01*
X160826790Y-90550834D01*
X160731552Y-90503215D01*
%TO.C,C30*%
X141114542Y-105139762D02*
X141066923Y-105187381D01*
X140924066Y-105235000D01*
X140828828Y-105235000D01*
X140685971Y-105187381D01*
X140590733Y-105092143D01*
X140543114Y-104996905D01*
X140495495Y-104806429D01*
X140495495Y-104663572D01*
X140543114Y-104473096D01*
X140590733Y-104377858D01*
X140685971Y-104282620D01*
X140828828Y-104235000D01*
X140924066Y-104235000D01*
X141066923Y-104282620D01*
X141114542Y-104330239D01*
X141447876Y-104235000D02*
X142066923Y-104235000D01*
X141733590Y-104615953D01*
X141876447Y-104615953D01*
X141971685Y-104663572D01*
X142019304Y-104711191D01*
X142066923Y-104806429D01*
X142066923Y-105044524D01*
X142019304Y-105139762D01*
X141971685Y-105187381D01*
X141876447Y-105235000D01*
X141590733Y-105235000D01*
X141495495Y-105187381D01*
X141447876Y-105139762D01*
X142685971Y-104235000D02*
X142781209Y-104235000D01*
X142876447Y-104282620D01*
X142924066Y-104330239D01*
X142971685Y-104425477D01*
X143019304Y-104615953D01*
X143019304Y-104854048D01*
X142971685Y-105044524D01*
X142924066Y-105139762D01*
X142876447Y-105187381D01*
X142781209Y-105235000D01*
X142685971Y-105235000D01*
X142590733Y-105187381D01*
X142543114Y-105139762D01*
X142495495Y-105044524D01*
X142447876Y-104854048D01*
X142447876Y-104615953D01*
X142495495Y-104425477D01*
X142543114Y-104330239D01*
X142590733Y-104282620D01*
X142685971Y-104235000D01*
%TO.C,D1*%
X138460504Y-77953500D02*
X138460504Y-76953500D01*
X138698600Y-76953500D01*
X138841457Y-77001120D01*
X138936695Y-77096358D01*
X138984314Y-77191596D01*
X139031933Y-77382072D01*
X139031933Y-77524929D01*
X138984314Y-77715405D01*
X138936695Y-77810643D01*
X138841457Y-77905881D01*
X138698600Y-77953500D01*
X138460504Y-77953500D01*
X139984314Y-77953500D02*
X139412885Y-77953500D01*
X139698600Y-77953500D02*
X139698600Y-76953500D01*
X139603361Y-77096358D01*
X139508123Y-77191596D01*
X139412885Y-77239215D01*
%TO.C,D2*%
X150188704Y-96014800D02*
X150188704Y-95014800D01*
X150426800Y-95014800D01*
X150569657Y-95062420D01*
X150664895Y-95157658D01*
X150712514Y-95252896D01*
X150760133Y-95443372D01*
X150760133Y-95586229D01*
X150712514Y-95776705D01*
X150664895Y-95871943D01*
X150569657Y-95967181D01*
X150426800Y-96014800D01*
X150188704Y-96014800D01*
X151141085Y-95110039D02*
X151188704Y-95062420D01*
X151283942Y-95014800D01*
X151522038Y-95014800D01*
X151617276Y-95062420D01*
X151664895Y-95110039D01*
X151712514Y-95205277D01*
X151712514Y-95300515D01*
X151664895Y-95443372D01*
X151093466Y-96014800D01*
X151712514Y-96014800D01*
%TO.C,D3*%
X132166620Y-62810715D02*
X131166620Y-62810715D01*
X131166620Y-62572620D01*
X131214240Y-62429762D01*
X131309478Y-62334524D01*
X131404716Y-62286905D01*
X131595192Y-62239286D01*
X131738049Y-62239286D01*
X131928525Y-62286905D01*
X132023763Y-62334524D01*
X132119001Y-62429762D01*
X132166620Y-62572620D01*
X132166620Y-62810715D01*
X131166620Y-61905953D02*
X131166620Y-61286905D01*
X131547573Y-61620239D01*
X131547573Y-61477381D01*
X131595192Y-61382143D01*
X131642811Y-61334524D01*
X131738049Y-61286905D01*
X131976144Y-61286905D01*
X132071382Y-61334524D01*
X132119001Y-61382143D01*
X132166620Y-61477381D01*
X132166620Y-61763096D01*
X132119001Y-61858334D01*
X132071382Y-61905953D01*
%TO.C,D4*%
X146188204Y-62499500D02*
X146188204Y-61499500D01*
X146426300Y-61499500D01*
X146569157Y-61547120D01*
X146664395Y-61642358D01*
X146712014Y-61737596D01*
X146759633Y-61928072D01*
X146759633Y-62070929D01*
X146712014Y-62261405D01*
X146664395Y-62356643D01*
X146569157Y-62451881D01*
X146426300Y-62499500D01*
X146188204Y-62499500D01*
X147616776Y-61832834D02*
X147616776Y-62499500D01*
X147378680Y-61451881D02*
X147140585Y-62166167D01*
X147759633Y-62166167D01*
%TO.C,D5*%
X125919004Y-65052200D02*
X125919004Y-64052200D01*
X126157100Y-64052200D01*
X126299957Y-64099820D01*
X126395195Y-64195058D01*
X126442814Y-64290296D01*
X126490433Y-64480772D01*
X126490433Y-64623629D01*
X126442814Y-64814105D01*
X126395195Y-64909343D01*
X126299957Y-65004581D01*
X126157100Y-65052200D01*
X125919004Y-65052200D01*
X127395195Y-64052200D02*
X126919004Y-64052200D01*
X126871385Y-64528391D01*
X126919004Y-64480772D01*
X127014242Y-64433153D01*
X127252338Y-64433153D01*
X127347576Y-64480772D01*
X127395195Y-64528391D01*
X127442814Y-64623629D01*
X127442814Y-64861724D01*
X127395195Y-64956962D01*
X127347576Y-65004581D01*
X127252338Y-65052200D01*
X127014242Y-65052200D01*
X126919004Y-65004581D01*
X126871385Y-64956962D01*
%TO.C,D7*%
X142162304Y-63693300D02*
X142162304Y-62693300D01*
X142400400Y-62693300D01*
X142543257Y-62740920D01*
X142638495Y-62836158D01*
X142686114Y-62931396D01*
X142733733Y-63121872D01*
X142733733Y-63264729D01*
X142686114Y-63455205D01*
X142638495Y-63550443D01*
X142543257Y-63645681D01*
X142400400Y-63693300D01*
X142162304Y-63693300D01*
X143067066Y-62693300D02*
X143733733Y-62693300D01*
X143305161Y-63693300D01*
%TO.C,D8*%
X135545604Y-64137800D02*
X135545604Y-63137800D01*
X135783700Y-63137800D01*
X135926557Y-63185420D01*
X136021795Y-63280658D01*
X136069414Y-63375896D01*
X136117033Y-63566372D01*
X136117033Y-63709229D01*
X136069414Y-63899705D01*
X136021795Y-63994943D01*
X135926557Y-64090181D01*
X135783700Y-64137800D01*
X135545604Y-64137800D01*
X136688461Y-63566372D02*
X136593223Y-63518753D01*
X136545604Y-63471134D01*
X136497985Y-63375896D01*
X136497985Y-63328277D01*
X136545604Y-63233039D01*
X136593223Y-63185420D01*
X136688461Y-63137800D01*
X136878938Y-63137800D01*
X136974176Y-63185420D01*
X137021795Y-63233039D01*
X137069414Y-63328277D01*
X137069414Y-63375896D01*
X137021795Y-63471134D01*
X136974176Y-63518753D01*
X136878938Y-63566372D01*
X136688461Y-63566372D01*
X136593223Y-63613991D01*
X136545604Y-63661610D01*
X136497985Y-63756848D01*
X136497985Y-63947324D01*
X136545604Y-64042562D01*
X136593223Y-64090181D01*
X136688461Y-64137800D01*
X136878938Y-64137800D01*
X136974176Y-64090181D01*
X137021795Y-64042562D01*
X137069414Y-63947324D01*
X137069414Y-63756848D01*
X137021795Y-63661610D01*
X136974176Y-63613991D01*
X136878938Y-63566372D01*
%TO.C,D9*%
X120775504Y-62258200D02*
X120775504Y-61258200D01*
X121013600Y-61258200D01*
X121156457Y-61305820D01*
X121251695Y-61401058D01*
X121299314Y-61496296D01*
X121346933Y-61686772D01*
X121346933Y-61829629D01*
X121299314Y-62020105D01*
X121251695Y-62115343D01*
X121156457Y-62210581D01*
X121013600Y-62258200D01*
X120775504Y-62258200D01*
X121823123Y-62258200D02*
X122013600Y-62258200D01*
X122108838Y-62210581D01*
X122156457Y-62162962D01*
X122251695Y-62020105D01*
X122299314Y-61829629D01*
X122299314Y-61448677D01*
X122251695Y-61353439D01*
X122204076Y-61305820D01*
X122108838Y-61258200D01*
X121918361Y-61258200D01*
X121823123Y-61305820D01*
X121775504Y-61353439D01*
X121727885Y-61448677D01*
X121727885Y-61686772D01*
X121775504Y-61782010D01*
X121823123Y-61829629D01*
X121918361Y-61877248D01*
X122108838Y-61877248D01*
X122204076Y-61829629D01*
X122251695Y-61782010D01*
X122299314Y-61686772D01*
%TO.C,D11*%
X143883214Y-106797100D02*
X143883214Y-105797100D01*
X144121309Y-105797100D01*
X144264166Y-105844720D01*
X144359404Y-105939958D01*
X144407023Y-106035196D01*
X144454642Y-106225672D01*
X144454642Y-106368529D01*
X144407023Y-106559005D01*
X144359404Y-106654243D01*
X144264166Y-106749481D01*
X144121309Y-106797100D01*
X143883214Y-106797100D01*
X145407023Y-106797100D02*
X144835595Y-106797100D01*
X145121309Y-106797100D02*
X145121309Y-105797100D01*
X145026071Y-105939958D01*
X144930833Y-106035196D01*
X144835595Y-106082815D01*
X146359404Y-106797100D02*
X145787976Y-106797100D01*
X146073690Y-106797100D02*
X146073690Y-105797100D01*
X145978452Y-105939958D01*
X145883214Y-106035196D01*
X145787976Y-106082815D01*
%TO.C,Q1*%
X160331161Y-77402939D02*
X160235923Y-77355320D01*
X160140685Y-77260081D01*
X159997828Y-77117224D01*
X159902590Y-77069605D01*
X159807352Y-77069605D01*
X159854971Y-77307700D02*
X159759733Y-77260081D01*
X159664495Y-77164843D01*
X159616876Y-76974367D01*
X159616876Y-76641034D01*
X159664495Y-76450558D01*
X159759733Y-76355320D01*
X159854971Y-76307700D01*
X160045447Y-76307700D01*
X160140685Y-76355320D01*
X160235923Y-76450558D01*
X160283542Y-76641034D01*
X160283542Y-76974367D01*
X160235923Y-77164843D01*
X160140685Y-77260081D01*
X160045447Y-77307700D01*
X159854971Y-77307700D01*
X161235923Y-77307700D02*
X160664495Y-77307700D01*
X160950209Y-77307700D02*
X160950209Y-76307700D01*
X160854971Y-76450558D01*
X160759733Y-76545796D01*
X160664495Y-76593415D01*
%TO.C,Q3*%
X152487239Y-86368118D02*
X152439620Y-86463356D01*
X152344381Y-86558594D01*
X152201524Y-86701451D01*
X152153905Y-86796689D01*
X152153905Y-86891927D01*
X152392000Y-86844308D02*
X152344381Y-86939546D01*
X152249143Y-87034784D01*
X152058667Y-87082403D01*
X151725334Y-87082403D01*
X151534858Y-87034784D01*
X151439620Y-86939546D01*
X151392000Y-86844308D01*
X151392000Y-86653832D01*
X151439620Y-86558594D01*
X151534858Y-86463356D01*
X151725334Y-86415737D01*
X152058667Y-86415737D01*
X152249143Y-86463356D01*
X152344381Y-86558594D01*
X152392000Y-86653832D01*
X152392000Y-86844308D01*
X151392000Y-86082403D02*
X151392000Y-85463356D01*
X151772953Y-85796689D01*
X151772953Y-85653832D01*
X151820572Y-85558594D01*
X151868191Y-85510975D01*
X151963429Y-85463356D01*
X152201524Y-85463356D01*
X152296762Y-85510975D01*
X152344381Y-85558594D01*
X152392000Y-85653832D01*
X152392000Y-85939546D01*
X152344381Y-86034784D01*
X152296762Y-86082403D01*
%TO.C,Q4*%
X159543761Y-99539039D02*
X159448523Y-99491420D01*
X159353285Y-99396181D01*
X159210428Y-99253324D01*
X159115190Y-99205705D01*
X159019952Y-99205705D01*
X159067571Y-99443800D02*
X158972333Y-99396181D01*
X158877095Y-99300943D01*
X158829476Y-99110467D01*
X158829476Y-98777134D01*
X158877095Y-98586658D01*
X158972333Y-98491420D01*
X159067571Y-98443800D01*
X159258047Y-98443800D01*
X159353285Y-98491420D01*
X159448523Y-98586658D01*
X159496142Y-98777134D01*
X159496142Y-99110467D01*
X159448523Y-99300943D01*
X159353285Y-99396181D01*
X159258047Y-99443800D01*
X159067571Y-99443800D01*
X160353285Y-98777134D02*
X160353285Y-99443800D01*
X160115190Y-98396181D02*
X159877095Y-99110467D01*
X160496142Y-99110467D01*
%TO.C,Q5*%
X131764019Y-73724758D02*
X131716400Y-73819996D01*
X131621161Y-73915234D01*
X131478304Y-74058091D01*
X131430685Y-74153329D01*
X131430685Y-74248567D01*
X131668780Y-74200948D02*
X131621161Y-74296186D01*
X131525923Y-74391424D01*
X131335447Y-74439043D01*
X131002114Y-74439043D01*
X130811638Y-74391424D01*
X130716400Y-74296186D01*
X130668780Y-74200948D01*
X130668780Y-74010472D01*
X130716400Y-73915234D01*
X130811638Y-73819996D01*
X131002114Y-73772377D01*
X131335447Y-73772377D01*
X131525923Y-73819996D01*
X131621161Y-73915234D01*
X131668780Y-74010472D01*
X131668780Y-74200948D01*
X130668780Y-72867615D02*
X130668780Y-73343805D01*
X131144971Y-73391424D01*
X131097352Y-73343805D01*
X131049733Y-73248567D01*
X131049733Y-73010472D01*
X131097352Y-72915234D01*
X131144971Y-72867615D01*
X131240209Y-72819996D01*
X131478304Y-72819996D01*
X131573542Y-72867615D01*
X131621161Y-72915234D01*
X131668780Y-73010472D01*
X131668780Y-73248567D01*
X131621161Y-73343805D01*
X131573542Y-73391424D01*
%TO.C,R1*%
X119354860Y-81644786D02*
X118878670Y-81978120D01*
X119354860Y-82216215D02*
X118354860Y-82216215D01*
X118354860Y-81835262D01*
X118402480Y-81740024D01*
X118450099Y-81692405D01*
X118545337Y-81644786D01*
X118688194Y-81644786D01*
X118783432Y-81692405D01*
X118831051Y-81740024D01*
X118878670Y-81835262D01*
X118878670Y-82216215D01*
X119354860Y-80692405D02*
X119354860Y-81263834D01*
X119354860Y-80978120D02*
X118354860Y-80978120D01*
X118497718Y-81073358D01*
X118592956Y-81168596D01*
X118640575Y-81263834D01*
%TO.C,R2*%
X128916133Y-73726300D02*
X128582800Y-73250110D01*
X128344704Y-73726300D02*
X128344704Y-72726300D01*
X128725657Y-72726300D01*
X128820895Y-72773920D01*
X128868514Y-72821539D01*
X128916133Y-72916777D01*
X128916133Y-73059634D01*
X128868514Y-73154872D01*
X128820895Y-73202491D01*
X128725657Y-73250110D01*
X128344704Y-73250110D01*
X129297085Y-72821539D02*
X129344704Y-72773920D01*
X129439942Y-72726300D01*
X129678038Y-72726300D01*
X129773276Y-72773920D01*
X129820895Y-72821539D01*
X129868514Y-72916777D01*
X129868514Y-73012015D01*
X129820895Y-73154872D01*
X129249466Y-73726300D01*
X129868514Y-73726300D01*
%TO.C,R3*%
X134056380Y-66061886D02*
X133580190Y-66395220D01*
X134056380Y-66633315D02*
X133056380Y-66633315D01*
X133056380Y-66252362D01*
X133104000Y-66157124D01*
X133151619Y-66109505D01*
X133246857Y-66061886D01*
X133389714Y-66061886D01*
X133484952Y-66109505D01*
X133532571Y-66157124D01*
X133580190Y-66252362D01*
X133580190Y-66633315D01*
X133056380Y-65728553D02*
X133056380Y-65109505D01*
X133437333Y-65442839D01*
X133437333Y-65299981D01*
X133484952Y-65204743D01*
X133532571Y-65157124D01*
X133627809Y-65109505D01*
X133865904Y-65109505D01*
X133961142Y-65157124D01*
X134008761Y-65204743D01*
X134056380Y-65299981D01*
X134056380Y-65585696D01*
X134008761Y-65680934D01*
X133961142Y-65728553D01*
%TO.C,R4*%
X127526753Y-79296520D02*
X127193420Y-78820330D01*
X126955324Y-79296520D02*
X126955324Y-78296520D01*
X127336277Y-78296520D01*
X127431515Y-78344140D01*
X127479134Y-78391759D01*
X127526753Y-78486997D01*
X127526753Y-78629854D01*
X127479134Y-78725092D01*
X127431515Y-78772711D01*
X127336277Y-78820330D01*
X126955324Y-78820330D01*
X128383896Y-78629854D02*
X128383896Y-79296520D01*
X128145800Y-78248901D02*
X127907705Y-78963187D01*
X128526753Y-78963187D01*
%TO.C,R5*%
X124345960Y-64598846D02*
X123869770Y-64932180D01*
X124345960Y-65170275D02*
X123345960Y-65170275D01*
X123345960Y-64789322D01*
X123393580Y-64694084D01*
X123441199Y-64646465D01*
X123536437Y-64598846D01*
X123679294Y-64598846D01*
X123774532Y-64646465D01*
X123822151Y-64694084D01*
X123869770Y-64789322D01*
X123869770Y-65170275D01*
X123345960Y-63694084D02*
X123345960Y-64170275D01*
X123822151Y-64217894D01*
X123774532Y-64170275D01*
X123726913Y-64075037D01*
X123726913Y-63836941D01*
X123774532Y-63741703D01*
X123822151Y-63694084D01*
X123917389Y-63646465D01*
X124155484Y-63646465D01*
X124250722Y-63694084D01*
X124298341Y-63741703D01*
X124345960Y-63836941D01*
X124345960Y-64075037D01*
X124298341Y-64170275D01*
X124250722Y-64217894D01*
%TO.C,R6*%
X123302040Y-81804806D02*
X122825850Y-82138140D01*
X123302040Y-82376235D02*
X122302040Y-82376235D01*
X122302040Y-81995282D01*
X122349660Y-81900044D01*
X122397279Y-81852425D01*
X122492517Y-81804806D01*
X122635374Y-81804806D01*
X122730612Y-81852425D01*
X122778231Y-81900044D01*
X122825850Y-81995282D01*
X122825850Y-82376235D01*
X122302040Y-80947663D02*
X122302040Y-81138140D01*
X122349660Y-81233378D01*
X122397279Y-81280997D01*
X122540136Y-81376235D01*
X122730612Y-81423854D01*
X123111564Y-81423854D01*
X123206802Y-81376235D01*
X123254421Y-81328616D01*
X123302040Y-81233378D01*
X123302040Y-81042901D01*
X123254421Y-80947663D01*
X123206802Y-80900044D01*
X123111564Y-80852425D01*
X122873469Y-80852425D01*
X122778231Y-80900044D01*
X122730612Y-80947663D01*
X122682993Y-81042901D01*
X122682993Y-81233378D01*
X122730612Y-81328616D01*
X122778231Y-81376235D01*
X122873469Y-81423854D01*
%TO.C,R7*%
X129177753Y-75138540D02*
X128844420Y-74662350D01*
X128606324Y-75138540D02*
X128606324Y-74138540D01*
X128987277Y-74138540D01*
X129082515Y-74186160D01*
X129130134Y-74233779D01*
X129177753Y-74329017D01*
X129177753Y-74471874D01*
X129130134Y-74567112D01*
X129082515Y-74614731D01*
X128987277Y-74662350D01*
X128606324Y-74662350D01*
X129511086Y-74138540D02*
X130177753Y-74138540D01*
X129749181Y-75138540D01*
%TO.C,R8*%
X142235180Y-98840586D02*
X141758990Y-99173920D01*
X142235180Y-99412015D02*
X141235180Y-99412015D01*
X141235180Y-99031062D01*
X141282800Y-98935824D01*
X141330419Y-98888205D01*
X141425657Y-98840586D01*
X141568514Y-98840586D01*
X141663752Y-98888205D01*
X141711371Y-98935824D01*
X141758990Y-99031062D01*
X141758990Y-99412015D01*
X141663752Y-98269158D02*
X141616133Y-98364396D01*
X141568514Y-98412015D01*
X141473276Y-98459634D01*
X141425657Y-98459634D01*
X141330419Y-98412015D01*
X141282800Y-98364396D01*
X141235180Y-98269158D01*
X141235180Y-98078681D01*
X141282800Y-97983443D01*
X141330419Y-97935824D01*
X141425657Y-97888205D01*
X141473276Y-97888205D01*
X141568514Y-97935824D01*
X141616133Y-97983443D01*
X141663752Y-98078681D01*
X141663752Y-98269158D01*
X141711371Y-98364396D01*
X141758990Y-98412015D01*
X141854228Y-98459634D01*
X142044704Y-98459634D01*
X142139942Y-98412015D01*
X142187561Y-98364396D01*
X142235180Y-98269158D01*
X142235180Y-98078681D01*
X142187561Y-97983443D01*
X142139942Y-97935824D01*
X142044704Y-97888205D01*
X141854228Y-97888205D01*
X141758990Y-97935824D01*
X141711371Y-97983443D01*
X141663752Y-98078681D01*
%TO.C,R9*%
X159278580Y-84108586D02*
X158802390Y-84441920D01*
X159278580Y-84680015D02*
X158278580Y-84680015D01*
X158278580Y-84299062D01*
X158326200Y-84203824D01*
X158373819Y-84156205D01*
X158469057Y-84108586D01*
X158611914Y-84108586D01*
X158707152Y-84156205D01*
X158754771Y-84203824D01*
X158802390Y-84299062D01*
X158802390Y-84680015D01*
X159278580Y-83632396D02*
X159278580Y-83441920D01*
X159230961Y-83346681D01*
X159183342Y-83299062D01*
X159040485Y-83203824D01*
X158850009Y-83156205D01*
X158469057Y-83156205D01*
X158373819Y-83203824D01*
X158326200Y-83251443D01*
X158278580Y-83346681D01*
X158278580Y-83537158D01*
X158326200Y-83632396D01*
X158373819Y-83680015D01*
X158469057Y-83727634D01*
X158707152Y-83727634D01*
X158802390Y-83680015D01*
X158850009Y-83632396D01*
X158897628Y-83537158D01*
X158897628Y-83346681D01*
X158850009Y-83251443D01*
X158802390Y-83203824D01*
X158707152Y-83156205D01*
%TO.C,R10*%
X150703042Y-111216700D02*
X150369709Y-110740510D01*
X150131614Y-111216700D02*
X150131614Y-110216700D01*
X150512566Y-110216700D01*
X150607804Y-110264320D01*
X150655423Y-110311939D01*
X150703042Y-110407177D01*
X150703042Y-110550034D01*
X150655423Y-110645272D01*
X150607804Y-110692891D01*
X150512566Y-110740510D01*
X150131614Y-110740510D01*
X151655423Y-111216700D02*
X151083995Y-111216700D01*
X151369709Y-111216700D02*
X151369709Y-110216700D01*
X151274471Y-110359558D01*
X151179233Y-110454796D01*
X151083995Y-110502415D01*
X152274471Y-110216700D02*
X152369709Y-110216700D01*
X152464947Y-110264320D01*
X152512566Y-110311939D01*
X152560185Y-110407177D01*
X152607804Y-110597653D01*
X152607804Y-110835748D01*
X152560185Y-111026224D01*
X152512566Y-111121462D01*
X152464947Y-111169081D01*
X152369709Y-111216700D01*
X152274471Y-111216700D01*
X152179233Y-111169081D01*
X152131614Y-111121462D01*
X152083995Y-111026224D01*
X152036376Y-110835748D01*
X152036376Y-110597653D01*
X152083995Y-110407177D01*
X152131614Y-110311939D01*
X152179233Y-110264320D01*
X152274471Y-110216700D01*
%TO.C,R11*%
X153001742Y-106225600D02*
X152668409Y-105749410D01*
X152430314Y-106225600D02*
X152430314Y-105225600D01*
X152811266Y-105225600D01*
X152906504Y-105273220D01*
X152954123Y-105320839D01*
X153001742Y-105416077D01*
X153001742Y-105558934D01*
X152954123Y-105654172D01*
X152906504Y-105701791D01*
X152811266Y-105749410D01*
X152430314Y-105749410D01*
X153954123Y-106225600D02*
X153382695Y-106225600D01*
X153668409Y-106225600D02*
X153668409Y-105225600D01*
X153573171Y-105368458D01*
X153477933Y-105463696D01*
X153382695Y-105511315D01*
X154906504Y-106225600D02*
X154335076Y-106225600D01*
X154620790Y-106225600D02*
X154620790Y-105225600D01*
X154525552Y-105368458D01*
X154430314Y-105463696D01*
X154335076Y-105511315D01*
%TO.C,R12*%
X154259042Y-109730800D02*
X153925709Y-109254610D01*
X153687614Y-109730800D02*
X153687614Y-108730800D01*
X154068566Y-108730800D01*
X154163804Y-108778420D01*
X154211423Y-108826039D01*
X154259042Y-108921277D01*
X154259042Y-109064134D01*
X154211423Y-109159372D01*
X154163804Y-109206991D01*
X154068566Y-109254610D01*
X153687614Y-109254610D01*
X155211423Y-109730800D02*
X154639995Y-109730800D01*
X154925709Y-109730800D02*
X154925709Y-108730800D01*
X154830471Y-108873658D01*
X154735233Y-108968896D01*
X154639995Y-109016515D01*
X155592376Y-108826039D02*
X155639995Y-108778420D01*
X155735233Y-108730800D01*
X155973328Y-108730800D01*
X156068566Y-108778420D01*
X156116185Y-108826039D01*
X156163804Y-108921277D01*
X156163804Y-109016515D01*
X156116185Y-109159372D01*
X155544757Y-109730800D01*
X156163804Y-109730800D01*
%TO.C,R13*%
X168324780Y-94131777D02*
X167848590Y-94465110D01*
X168324780Y-94703205D02*
X167324780Y-94703205D01*
X167324780Y-94322253D01*
X167372400Y-94227015D01*
X167420019Y-94179396D01*
X167515257Y-94131777D01*
X167658114Y-94131777D01*
X167753352Y-94179396D01*
X167800971Y-94227015D01*
X167848590Y-94322253D01*
X167848590Y-94703205D01*
X168324780Y-93179396D02*
X168324780Y-93750824D01*
X168324780Y-93465110D02*
X167324780Y-93465110D01*
X167467638Y-93560348D01*
X167562876Y-93655586D01*
X167610495Y-93750824D01*
X167324780Y-92846062D02*
X167324780Y-92227015D01*
X167705733Y-92560348D01*
X167705733Y-92417491D01*
X167753352Y-92322253D01*
X167800971Y-92274634D01*
X167896209Y-92227015D01*
X168134304Y-92227015D01*
X168229542Y-92274634D01*
X168277161Y-92322253D01*
X168324780Y-92417491D01*
X168324780Y-92703205D01*
X168277161Y-92798443D01*
X168229542Y-92846062D01*
%TO.C,R14*%
X156405342Y-108130600D02*
X156072009Y-107654410D01*
X155833914Y-108130600D02*
X155833914Y-107130600D01*
X156214866Y-107130600D01*
X156310104Y-107178220D01*
X156357723Y-107225839D01*
X156405342Y-107321077D01*
X156405342Y-107463934D01*
X156357723Y-107559172D01*
X156310104Y-107606791D01*
X156214866Y-107654410D01*
X155833914Y-107654410D01*
X157357723Y-108130600D02*
X156786295Y-108130600D01*
X157072009Y-108130600D02*
X157072009Y-107130600D01*
X156976771Y-107273458D01*
X156881533Y-107368696D01*
X156786295Y-107416315D01*
X158214866Y-107463934D02*
X158214866Y-108130600D01*
X157976771Y-107082981D02*
X157738676Y-107797267D01*
X158357723Y-107797267D01*
%TO.C,R15*%
X126489720Y-73761837D02*
X126013530Y-74095170D01*
X126489720Y-74333265D02*
X125489720Y-74333265D01*
X125489720Y-73952313D01*
X125537340Y-73857075D01*
X125584959Y-73809456D01*
X125680197Y-73761837D01*
X125823054Y-73761837D01*
X125918292Y-73809456D01*
X125965911Y-73857075D01*
X126013530Y-73952313D01*
X126013530Y-74333265D01*
X126489720Y-72809456D02*
X126489720Y-73380884D01*
X126489720Y-73095170D02*
X125489720Y-73095170D01*
X125632578Y-73190408D01*
X125727816Y-73285646D01*
X125775435Y-73380884D01*
X125489720Y-71904694D02*
X125489720Y-72380884D01*
X125965911Y-72428503D01*
X125918292Y-72380884D01*
X125870673Y-72285646D01*
X125870673Y-72047551D01*
X125918292Y-71952313D01*
X125965911Y-71904694D01*
X126061149Y-71857075D01*
X126299244Y-71857075D01*
X126394482Y-71904694D01*
X126442101Y-71952313D01*
X126489720Y-72047551D01*
X126489720Y-72285646D01*
X126442101Y-72380884D01*
X126394482Y-72428503D01*
%TO.C,R16*%
X120507522Y-83860900D02*
X120174189Y-83384710D01*
X119936094Y-83860900D02*
X119936094Y-82860900D01*
X120317046Y-82860900D01*
X120412284Y-82908520D01*
X120459903Y-82956139D01*
X120507522Y-83051377D01*
X120507522Y-83194234D01*
X120459903Y-83289472D01*
X120412284Y-83337091D01*
X120317046Y-83384710D01*
X119936094Y-83384710D01*
X121459903Y-83860900D02*
X120888475Y-83860900D01*
X121174189Y-83860900D02*
X121174189Y-82860900D01*
X121078951Y-83003758D01*
X120983713Y-83098996D01*
X120888475Y-83146615D01*
X122317046Y-82860900D02*
X122126570Y-82860900D01*
X122031332Y-82908520D01*
X121983713Y-82956139D01*
X121888475Y-83098996D01*
X121840856Y-83289472D01*
X121840856Y-83670424D01*
X121888475Y-83765662D01*
X121936094Y-83813281D01*
X122031332Y-83860900D01*
X122221808Y-83860900D01*
X122317046Y-83813281D01*
X122364665Y-83765662D01*
X122412284Y-83670424D01*
X122412284Y-83432329D01*
X122364665Y-83337091D01*
X122317046Y-83289472D01*
X122221808Y-83241853D01*
X122031332Y-83241853D01*
X121936094Y-83289472D01*
X121888475Y-83337091D01*
X121840856Y-83432329D01*
%TO.C,R17*%
X153065242Y-103203000D02*
X152731909Y-102726810D01*
X152493814Y-103203000D02*
X152493814Y-102203000D01*
X152874766Y-102203000D01*
X152970004Y-102250620D01*
X153017623Y-102298239D01*
X153065242Y-102393477D01*
X153065242Y-102536334D01*
X153017623Y-102631572D01*
X152970004Y-102679191D01*
X152874766Y-102726810D01*
X152493814Y-102726810D01*
X154017623Y-103203000D02*
X153446195Y-103203000D01*
X153731909Y-103203000D02*
X153731909Y-102203000D01*
X153636671Y-102345858D01*
X153541433Y-102441096D01*
X153446195Y-102488715D01*
X154350957Y-102203000D02*
X155017623Y-102203000D01*
X154589052Y-103203000D01*
%TO.C,R18*%
X128193562Y-77582020D02*
X127860229Y-77105830D01*
X127622134Y-77582020D02*
X127622134Y-76582020D01*
X128003086Y-76582020D01*
X128098324Y-76629640D01*
X128145943Y-76677259D01*
X128193562Y-76772497D01*
X128193562Y-76915354D01*
X128145943Y-77010592D01*
X128098324Y-77058211D01*
X128003086Y-77105830D01*
X127622134Y-77105830D01*
X129145943Y-77582020D02*
X128574515Y-77582020D01*
X128860229Y-77582020D02*
X128860229Y-76582020D01*
X128764991Y-76724878D01*
X128669753Y-76820116D01*
X128574515Y-76867735D01*
X129717372Y-77010592D02*
X129622134Y-76962973D01*
X129574515Y-76915354D01*
X129526896Y-76820116D01*
X129526896Y-76772497D01*
X129574515Y-76677259D01*
X129622134Y-76629640D01*
X129717372Y-76582020D01*
X129907848Y-76582020D01*
X130003086Y-76629640D01*
X130050705Y-76677259D01*
X130098324Y-76772497D01*
X130098324Y-76820116D01*
X130050705Y-76915354D01*
X130003086Y-76962973D01*
X129907848Y-77010592D01*
X129717372Y-77010592D01*
X129622134Y-77058211D01*
X129574515Y-77105830D01*
X129526896Y-77201068D01*
X129526896Y-77391544D01*
X129574515Y-77486782D01*
X129622134Y-77534401D01*
X129717372Y-77582020D01*
X129907848Y-77582020D01*
X130003086Y-77534401D01*
X130050705Y-77486782D01*
X130098324Y-77391544D01*
X130098324Y-77201068D01*
X130050705Y-77105830D01*
X130003086Y-77058211D01*
X129907848Y-77010592D01*
%TO.C,R19*%
X147581880Y-71160877D02*
X147105690Y-71494210D01*
X147581880Y-71732305D02*
X146581880Y-71732305D01*
X146581880Y-71351353D01*
X146629500Y-71256115D01*
X146677119Y-71208496D01*
X146772357Y-71160877D01*
X146915214Y-71160877D01*
X147010452Y-71208496D01*
X147058071Y-71256115D01*
X147105690Y-71351353D01*
X147105690Y-71732305D01*
X147581880Y-70208496D02*
X147581880Y-70779924D01*
X147581880Y-70494210D02*
X146581880Y-70494210D01*
X146724738Y-70589448D01*
X146819976Y-70684686D01*
X146867595Y-70779924D01*
X147581880Y-69732305D02*
X147581880Y-69541829D01*
X147534261Y-69446591D01*
X147486642Y-69398972D01*
X147343785Y-69303734D01*
X147153309Y-69256115D01*
X146772357Y-69256115D01*
X146677119Y-69303734D01*
X146629500Y-69351353D01*
X146581880Y-69446591D01*
X146581880Y-69637067D01*
X146629500Y-69732305D01*
X146677119Y-69779924D01*
X146772357Y-69827543D01*
X147010452Y-69827543D01*
X147105690Y-69779924D01*
X147153309Y-69732305D01*
X147200928Y-69637067D01*
X147200928Y-69446591D01*
X147153309Y-69351353D01*
X147105690Y-69303734D01*
X147010452Y-69256115D01*
%TO.C,R20*%
X159059642Y-82730600D02*
X158726309Y-82254410D01*
X158488214Y-82730600D02*
X158488214Y-81730600D01*
X158869166Y-81730600D01*
X158964404Y-81778220D01*
X159012023Y-81825839D01*
X159059642Y-81921077D01*
X159059642Y-82063934D01*
X159012023Y-82159172D01*
X158964404Y-82206791D01*
X158869166Y-82254410D01*
X158488214Y-82254410D01*
X159440595Y-81825839D02*
X159488214Y-81778220D01*
X159583452Y-81730600D01*
X159821547Y-81730600D01*
X159916785Y-81778220D01*
X159964404Y-81825839D01*
X160012023Y-81921077D01*
X160012023Y-82016315D01*
X159964404Y-82159172D01*
X159392976Y-82730600D01*
X160012023Y-82730600D01*
X160631071Y-81730600D02*
X160726309Y-81730600D01*
X160821547Y-81778220D01*
X160869166Y-81825839D01*
X160916785Y-81921077D01*
X160964404Y-82111553D01*
X160964404Y-82349648D01*
X160916785Y-82540124D01*
X160869166Y-82635362D01*
X160821547Y-82682981D01*
X160726309Y-82730600D01*
X160631071Y-82730600D01*
X160535833Y-82682981D01*
X160488214Y-82635362D01*
X160440595Y-82540124D01*
X160392976Y-82349648D01*
X160392976Y-82111553D01*
X160440595Y-81921077D01*
X160488214Y-81825839D01*
X160535833Y-81778220D01*
X160631071Y-81730600D01*
%TO.C,R21*%
X142168642Y-110340400D02*
X141835309Y-109864210D01*
X141597214Y-110340400D02*
X141597214Y-109340400D01*
X141978166Y-109340400D01*
X142073404Y-109388020D01*
X142121023Y-109435639D01*
X142168642Y-109530877D01*
X142168642Y-109673734D01*
X142121023Y-109768972D01*
X142073404Y-109816591D01*
X141978166Y-109864210D01*
X141597214Y-109864210D01*
X142549595Y-109435639D02*
X142597214Y-109388020D01*
X142692452Y-109340400D01*
X142930547Y-109340400D01*
X143025785Y-109388020D01*
X143073404Y-109435639D01*
X143121023Y-109530877D01*
X143121023Y-109626115D01*
X143073404Y-109768972D01*
X142501976Y-110340400D01*
X143121023Y-110340400D01*
X144073404Y-110340400D02*
X143501976Y-110340400D01*
X143787690Y-110340400D02*
X143787690Y-109340400D01*
X143692452Y-109483258D01*
X143597214Y-109578496D01*
X143501976Y-109626115D01*
%TO.C,R22*%
X159148542Y-106962200D02*
X158815209Y-106486010D01*
X158577114Y-106962200D02*
X158577114Y-105962200D01*
X158958066Y-105962200D01*
X159053304Y-106009820D01*
X159100923Y-106057439D01*
X159148542Y-106152677D01*
X159148542Y-106295534D01*
X159100923Y-106390772D01*
X159053304Y-106438391D01*
X158958066Y-106486010D01*
X158577114Y-106486010D01*
X159529495Y-106057439D02*
X159577114Y-106009820D01*
X159672352Y-105962200D01*
X159910447Y-105962200D01*
X160005685Y-106009820D01*
X160053304Y-106057439D01*
X160100923Y-106152677D01*
X160100923Y-106247915D01*
X160053304Y-106390772D01*
X159481876Y-106962200D01*
X160100923Y-106962200D01*
X160481876Y-106057439D02*
X160529495Y-106009820D01*
X160624733Y-105962200D01*
X160862828Y-105962200D01*
X160958066Y-106009820D01*
X161005685Y-106057439D01*
X161053304Y-106152677D01*
X161053304Y-106247915D01*
X161005685Y-106390772D01*
X160434257Y-106962200D01*
X161053304Y-106962200D01*
%TO.C,R23*%
X156062442Y-106619300D02*
X155729109Y-106143110D01*
X155491014Y-106619300D02*
X155491014Y-105619300D01*
X155871966Y-105619300D01*
X155967204Y-105666920D01*
X156014823Y-105714539D01*
X156062442Y-105809777D01*
X156062442Y-105952634D01*
X156014823Y-106047872D01*
X155967204Y-106095491D01*
X155871966Y-106143110D01*
X155491014Y-106143110D01*
X156443395Y-105714539D02*
X156491014Y-105666920D01*
X156586252Y-105619300D01*
X156824347Y-105619300D01*
X156919585Y-105666920D01*
X156967204Y-105714539D01*
X157014823Y-105809777D01*
X157014823Y-105905015D01*
X156967204Y-106047872D01*
X156395776Y-106619300D01*
X157014823Y-106619300D01*
X157348157Y-105619300D02*
X157967204Y-105619300D01*
X157633871Y-106000253D01*
X157776728Y-106000253D01*
X157871966Y-106047872D01*
X157919585Y-106095491D01*
X157967204Y-106190729D01*
X157967204Y-106428824D01*
X157919585Y-106524062D01*
X157871966Y-106571681D01*
X157776728Y-106619300D01*
X157491014Y-106619300D01*
X157395776Y-106571681D01*
X157348157Y-106524062D01*
%TO.C,R24*%
X129097802Y-58344060D02*
X128764469Y-57867870D01*
X128526374Y-58344060D02*
X128526374Y-57344060D01*
X128907326Y-57344060D01*
X129002564Y-57391680D01*
X129050183Y-57439299D01*
X129097802Y-57534537D01*
X129097802Y-57677394D01*
X129050183Y-57772632D01*
X129002564Y-57820251D01*
X128907326Y-57867870D01*
X128526374Y-57867870D01*
X129478755Y-57439299D02*
X129526374Y-57391680D01*
X129621612Y-57344060D01*
X129859707Y-57344060D01*
X129954945Y-57391680D01*
X130002564Y-57439299D01*
X130050183Y-57534537D01*
X130050183Y-57629775D01*
X130002564Y-57772632D01*
X129431136Y-58344060D01*
X130050183Y-58344060D01*
X130907326Y-57677394D02*
X130907326Y-58344060D01*
X130669231Y-57296441D02*
X130431136Y-58010727D01*
X131050183Y-58010727D01*
%TO.C,R25*%
X152103080Y-59692777D02*
X151626890Y-60026110D01*
X152103080Y-60264205D02*
X151103080Y-60264205D01*
X151103080Y-59883253D01*
X151150700Y-59788015D01*
X151198319Y-59740396D01*
X151293557Y-59692777D01*
X151436414Y-59692777D01*
X151531652Y-59740396D01*
X151579271Y-59788015D01*
X151626890Y-59883253D01*
X151626890Y-60264205D01*
X151198319Y-59311824D02*
X151150700Y-59264205D01*
X151103080Y-59168967D01*
X151103080Y-58930872D01*
X151150700Y-58835634D01*
X151198319Y-58788015D01*
X151293557Y-58740396D01*
X151388795Y-58740396D01*
X151531652Y-58788015D01*
X152103080Y-59359443D01*
X152103080Y-58740396D01*
X151103080Y-57835634D02*
X151103080Y-58311824D01*
X151579271Y-58359443D01*
X151531652Y-58311824D01*
X151484033Y-58216586D01*
X151484033Y-57978491D01*
X151531652Y-57883253D01*
X151579271Y-57835634D01*
X151674509Y-57788015D01*
X151912604Y-57788015D01*
X152007842Y-57835634D01*
X152055461Y-57883253D01*
X152103080Y-57978491D01*
X152103080Y-58216586D01*
X152055461Y-58311824D01*
X152007842Y-58359443D01*
%TO.C,R26*%
X149664680Y-110492777D02*
X149188490Y-110826110D01*
X149664680Y-111064205D02*
X148664680Y-111064205D01*
X148664680Y-110683253D01*
X148712300Y-110588015D01*
X148759919Y-110540396D01*
X148855157Y-110492777D01*
X148998014Y-110492777D01*
X149093252Y-110540396D01*
X149140871Y-110588015D01*
X149188490Y-110683253D01*
X149188490Y-111064205D01*
X148759919Y-110111824D02*
X148712300Y-110064205D01*
X148664680Y-109968967D01*
X148664680Y-109730872D01*
X148712300Y-109635634D01*
X148759919Y-109588015D01*
X148855157Y-109540396D01*
X148950395Y-109540396D01*
X149093252Y-109588015D01*
X149664680Y-110159443D01*
X149664680Y-109540396D01*
X148664680Y-108683253D02*
X148664680Y-108873729D01*
X148712300Y-108968967D01*
X148759919Y-109016586D01*
X148902776Y-109111824D01*
X149093252Y-109159443D01*
X149474204Y-109159443D01*
X149569442Y-109111824D01*
X149617061Y-109064205D01*
X149664680Y-108968967D01*
X149664680Y-108778491D01*
X149617061Y-108683253D01*
X149569442Y-108635634D01*
X149474204Y-108588015D01*
X149236109Y-108588015D01*
X149140871Y-108635634D01*
X149093252Y-108683253D01*
X149045633Y-108778491D01*
X149045633Y-108968967D01*
X149093252Y-109064205D01*
X149140871Y-109111824D01*
X149236109Y-109159443D01*
%TO.C,R27*%
X148318480Y-112588277D02*
X147842290Y-112921610D01*
X148318480Y-113159705D02*
X147318480Y-113159705D01*
X147318480Y-112778753D01*
X147366100Y-112683515D01*
X147413719Y-112635896D01*
X147508957Y-112588277D01*
X147651814Y-112588277D01*
X147747052Y-112635896D01*
X147794671Y-112683515D01*
X147842290Y-112778753D01*
X147842290Y-113159705D01*
X147413719Y-112207324D02*
X147366100Y-112159705D01*
X147318480Y-112064467D01*
X147318480Y-111826372D01*
X147366100Y-111731134D01*
X147413719Y-111683515D01*
X147508957Y-111635896D01*
X147604195Y-111635896D01*
X147747052Y-111683515D01*
X148318480Y-112254943D01*
X148318480Y-111635896D01*
X147318480Y-111302562D02*
X147318480Y-110635896D01*
X148318480Y-111064467D01*
%TO.C,R28*%
X150131542Y-61826400D02*
X149798209Y-61350210D01*
X149560114Y-61826400D02*
X149560114Y-60826400D01*
X149941066Y-60826400D01*
X150036304Y-60874020D01*
X150083923Y-60921639D01*
X150131542Y-61016877D01*
X150131542Y-61159734D01*
X150083923Y-61254972D01*
X150036304Y-61302591D01*
X149941066Y-61350210D01*
X149560114Y-61350210D01*
X150512495Y-60921639D02*
X150560114Y-60874020D01*
X150655352Y-60826400D01*
X150893447Y-60826400D01*
X150988685Y-60874020D01*
X151036304Y-60921639D01*
X151083923Y-61016877D01*
X151083923Y-61112115D01*
X151036304Y-61254972D01*
X150464876Y-61826400D01*
X151083923Y-61826400D01*
X151655352Y-61254972D02*
X151560114Y-61207353D01*
X151512495Y-61159734D01*
X151464876Y-61064496D01*
X151464876Y-61016877D01*
X151512495Y-60921639D01*
X151560114Y-60874020D01*
X151655352Y-60826400D01*
X151845828Y-60826400D01*
X151941066Y-60874020D01*
X151988685Y-60921639D01*
X152036304Y-61016877D01*
X152036304Y-61064496D01*
X151988685Y-61159734D01*
X151941066Y-61207353D01*
X151845828Y-61254972D01*
X151655352Y-61254972D01*
X151560114Y-61302591D01*
X151512495Y-61350210D01*
X151464876Y-61445448D01*
X151464876Y-61635924D01*
X151512495Y-61731162D01*
X151560114Y-61778781D01*
X151655352Y-61826400D01*
X151845828Y-61826400D01*
X151941066Y-61778781D01*
X151988685Y-61731162D01*
X152036304Y-61635924D01*
X152036304Y-61445448D01*
X151988685Y-61350210D01*
X151941066Y-61302591D01*
X151845828Y-61254972D01*
%TO.C,TH1*%
X143584680Y-113510534D02*
X143584680Y-112939105D01*
X144584680Y-113224820D02*
X143584680Y-113224820D01*
X144584680Y-112605772D02*
X143584680Y-112605772D01*
X144060871Y-112605772D02*
X144060871Y-112034343D01*
X144584680Y-112034343D02*
X143584680Y-112034343D01*
X144584680Y-111034343D02*
X144584680Y-111605772D01*
X144584680Y-111320058D02*
X143584680Y-111320058D01*
X143727538Y-111415296D01*
X143822776Y-111510534D01*
X143870395Y-111605772D01*
%TO.C,U1*%
X117241415Y-73490840D02*
X117241415Y-74300364D01*
X117289034Y-74395602D01*
X117336653Y-74443221D01*
X117431891Y-74490840D01*
X117622367Y-74490840D01*
X117717605Y-74443221D01*
X117765224Y-74395602D01*
X117812843Y-74300364D01*
X117812843Y-73490840D01*
X118812843Y-74490840D02*
X118241415Y-74490840D01*
X118527129Y-74490840D02*
X118527129Y-73490840D01*
X118431891Y-73633698D01*
X118336653Y-73728936D01*
X118241415Y-73776555D01*
%TO.C,U3*%
X147345495Y-97224600D02*
X147345495Y-98034124D01*
X147393114Y-98129362D01*
X147440733Y-98176981D01*
X147535971Y-98224600D01*
X147726447Y-98224600D01*
X147821685Y-98176981D01*
X147869304Y-98129362D01*
X147916923Y-98034124D01*
X147916923Y-97224600D01*
X148297876Y-97224600D02*
X148916923Y-97224600D01*
X148583590Y-97605553D01*
X148726447Y-97605553D01*
X148821685Y-97653172D01*
X148869304Y-97700791D01*
X148916923Y-97796029D01*
X148916923Y-98034124D01*
X148869304Y-98129362D01*
X148821685Y-98176981D01*
X148726447Y-98224600D01*
X148440733Y-98224600D01*
X148345495Y-98176981D01*
X148297876Y-98129362D01*
%TO.C,U5*%
X156159295Y-65868300D02*
X156159295Y-66677824D01*
X156206914Y-66773062D01*
X156254533Y-66820681D01*
X156349771Y-66868300D01*
X156540247Y-66868300D01*
X156635485Y-66820681D01*
X156683104Y-66773062D01*
X156730723Y-66677824D01*
X156730723Y-65868300D01*
X157683104Y-65868300D02*
X157206914Y-65868300D01*
X157159295Y-66344491D01*
X157206914Y-66296872D01*
X157302152Y-66249253D01*
X157540247Y-66249253D01*
X157635485Y-66296872D01*
X157683104Y-66344491D01*
X157730723Y-66439729D01*
X157730723Y-66677824D01*
X157683104Y-66773062D01*
X157635485Y-66820681D01*
X157540247Y-66868300D01*
X157302152Y-66868300D01*
X157206914Y-66820681D01*
X157159295Y-66773062D01*
%TO.C,U6*%
X137820495Y-64953900D02*
X137820495Y-65763424D01*
X137868114Y-65858662D01*
X137915733Y-65906281D01*
X138010971Y-65953900D01*
X138201447Y-65953900D01*
X138296685Y-65906281D01*
X138344304Y-65858662D01*
X138391923Y-65763424D01*
X138391923Y-64953900D01*
X139296685Y-64953900D02*
X139106209Y-64953900D01*
X139010971Y-65001520D01*
X138963352Y-65049139D01*
X138868114Y-65191996D01*
X138820495Y-65382472D01*
X138820495Y-65763424D01*
X138868114Y-65858662D01*
X138915733Y-65906281D01*
X139010971Y-65953900D01*
X139201447Y-65953900D01*
X139296685Y-65906281D01*
X139344304Y-65858662D01*
X139391923Y-65763424D01*
X139391923Y-65525329D01*
X139344304Y-65430091D01*
X139296685Y-65382472D01*
X139201447Y-65334853D01*
X139010971Y-65334853D01*
X138915733Y-65382472D01*
X138868114Y-65430091D01*
X138820495Y-65525329D01*
%TO.C,U7*%
X141871795Y-64915800D02*
X141871795Y-65725324D01*
X141919414Y-65820562D01*
X141967033Y-65868181D01*
X142062271Y-65915800D01*
X142252747Y-65915800D01*
X142347985Y-65868181D01*
X142395604Y-65820562D01*
X142443223Y-65725324D01*
X142443223Y-64915800D01*
X142824176Y-64915800D02*
X143490842Y-64915800D01*
X143062271Y-65915800D01*
%TO.C,D6*%
X125479584Y-58786020D02*
X125479584Y-57786020D01*
X125717680Y-57786020D01*
X125860537Y-57833640D01*
X125955775Y-57928878D01*
X126003394Y-58024116D01*
X126051013Y-58214592D01*
X126051013Y-58357449D01*
X126003394Y-58547925D01*
X125955775Y-58643163D01*
X125860537Y-58738401D01*
X125717680Y-58786020D01*
X125479584Y-58786020D01*
X126908156Y-57786020D02*
X126717680Y-57786020D01*
X126622441Y-57833640D01*
X126574822Y-57881259D01*
X126479584Y-58024116D01*
X126431965Y-58214592D01*
X126431965Y-58595544D01*
X126479584Y-58690782D01*
X126527203Y-58738401D01*
X126622441Y-58786020D01*
X126812918Y-58786020D01*
X126908156Y-58738401D01*
X126955775Y-58690782D01*
X127003394Y-58595544D01*
X127003394Y-58357449D01*
X126955775Y-58262211D01*
X126908156Y-58214592D01*
X126812918Y-58166973D01*
X126622441Y-58166973D01*
X126527203Y-58214592D01*
X126479584Y-58262211D01*
X126431965Y-58357449D01*
%TD*%
M02*
