%TF.GenerationSoftware,KiCad,Pcbnew,(5.1.9)-1*%
%TF.CreationDate,2024-04-03T17:37:13+03:00*%
%TF.ProjectId,jantteri_right,6a616e74-7465-4726-995f-72696768742e,rev?*%
%TF.SameCoordinates,Original*%
%TF.FileFunction,Copper,L2,Bot*%
%TF.FilePolarity,Positive*%
%FSLAX46Y46*%
G04 Gerber Fmt 4.6, Leading zero omitted, Abs format (unit mm)*
G04 Created by KiCad (PCBNEW (5.1.9)-1) date 2024-04-03 17:37:13*
%MOMM*%
%LPD*%
G01*
G04 APERTURE LIST*
%TA.AperFunction,ComponentPad*%
%ADD10O,1.700000X1.200000*%
%TD*%
%TA.AperFunction,ComponentPad*%
%ADD11C,2.700000*%
%TD*%
%TA.AperFunction,SMDPad,CuDef*%
%ADD12R,2.400000X0.740000*%
%TD*%
%TA.AperFunction,ViaPad*%
%ADD13C,0.800000*%
%TD*%
%TA.AperFunction,Conductor*%
%ADD14C,1.000000*%
%TD*%
%TA.AperFunction,Conductor*%
%ADD15C,0.800000*%
%TD*%
%TA.AperFunction,Conductor*%
%ADD16C,0.250000*%
%TD*%
%TA.AperFunction,Conductor*%
%ADD17C,0.254000*%
%TD*%
%TA.AperFunction,Conductor*%
%ADD18C,0.100000*%
%TD*%
G04 APERTURE END LIST*
D10*
%TO.P,J1,S1*%
%TO.N,Net-(J1-PadS1)*%
X143210720Y-60725660D03*
X143210720Y-57785660D03*
X135010720Y-60725660D03*
X135010720Y-57785660D03*
%TD*%
D11*
%TO.P,J3,2*%
%TO.N,/Sheet6601D6D0/MOTOR+*%
X116052600Y-82517120D03*
%TO.P,J3,1*%
%TO.N,/Sheet6601D6D0/MOTOR-*%
%TA.AperFunction,ComponentPad*%
G36*
G01*
X114952601Y-77207120D02*
X117152599Y-77207120D01*
G75*
G02*
X117402600Y-77457121I0J-250001D01*
G01*
X117402600Y-79657119D01*
G75*
G02*
X117152599Y-79907120I-250001J0D01*
G01*
X114952601Y-79907120D01*
G75*
G02*
X114702600Y-79657119I0J250001D01*
G01*
X114702600Y-77457121D01*
G75*
G02*
X114952601Y-77207120I250001J0D01*
G01*
G37*
%TD.AperFunction*%
%TD*%
%TO.P,J2,2*%
%TO.N,GND*%
X161597200Y-88044020D03*
%TO.P,J2,1*%
%TO.N,/Sheet65F0AC28/BAT+*%
%TA.AperFunction,ComponentPad*%
G36*
G01*
X166907200Y-86944021D02*
X166907200Y-89144019D01*
G75*
G02*
X166657199Y-89394020I-250001J0D01*
G01*
X164457201Y-89394020D01*
G75*
G02*
X164207200Y-89144019I0J250001D01*
G01*
X164207200Y-86944021D01*
G75*
G02*
X164457201Y-86694020I250001J0D01*
G01*
X166657199Y-86694020D01*
G75*
G02*
X166907200Y-86944021I0J-250001D01*
G01*
G37*
%TD.AperFunction*%
%TD*%
%TO.P,L1,2*%
%TO.N,Net-(C17-Pad2)*%
%TA.AperFunction,SMDPad,CuDef*%
G36*
G01*
X160358400Y-100183700D02*
X163288400Y-100183700D01*
G75*
G02*
X163523400Y-100418700I0J-235000D01*
G01*
X163523400Y-102298700D01*
G75*
G02*
X163288400Y-102533700I-235000J0D01*
G01*
X160358400Y-102533700D01*
G75*
G02*
X160123400Y-102298700I0J235000D01*
G01*
X160123400Y-100418700D01*
G75*
G02*
X160358400Y-100183700I235000J0D01*
G01*
G37*
%TD.AperFunction*%
%TO.P,L1,1*%
%TO.N,Net-(C11-Pad1)*%
%TA.AperFunction,SMDPad,CuDef*%
G36*
G01*
X160358400Y-94133700D02*
X163288400Y-94133700D01*
G75*
G02*
X163523400Y-94368700I0J-235000D01*
G01*
X163523400Y-96248700D01*
G75*
G02*
X163288400Y-96483700I-235000J0D01*
G01*
X160358400Y-96483700D01*
G75*
G02*
X160123400Y-96248700I0J235000D01*
G01*
X160123400Y-94368700D01*
G75*
G02*
X160358400Y-94133700I235000J0D01*
G01*
G37*
%TD.AperFunction*%
%TD*%
D12*
%TO.P,J4,1*%
%TO.N,GND*%
X117286320Y-88981280D03*
%TO.P,J4,2*%
%TO.N,V_SYSTEM_out*%
X113386320Y-88981280D03*
%TO.P,J4,3*%
%TO.N,GND*%
X117286320Y-90251280D03*
%TO.P,J4,4*%
%TO.N,V_SYSTEM_out*%
X113386320Y-90251280D03*
%TO.P,J4,5*%
%TO.N,SCL_out*%
X117286320Y-91521280D03*
%TO.P,J4,6*%
%TO.N,Net-(J4-Pad6)*%
X113386320Y-91521280D03*
%TO.P,J4,7*%
%TO.N,SDA_out*%
X117286320Y-92791280D03*
%TO.P,J4,8*%
%TO.N,Net-(J4-Pad8)*%
X113386320Y-92791280D03*
%TO.P,J4,9*%
%TO.N,MOTOR_B_out*%
X117286320Y-94061280D03*
%TO.P,J4,10*%
%TO.N,STAT1_out*%
X113386320Y-94061280D03*
%TO.P,J4,11*%
%TO.N,MOTOR_A_out*%
X117286320Y-95331280D03*
%TO.P,J4,12*%
%TO.N,STAT2_out*%
X113386320Y-95331280D03*
%TO.P,J4,13*%
%TO.N,DRV_n_FAULT_out*%
X117286320Y-96601280D03*
%TO.P,J4,14*%
%TO.N,TXD_out*%
X113386320Y-96601280D03*
%TO.P,J4,15*%
%TO.N,DRV_SLEEP_out*%
X117286320Y-97871280D03*
%TO.P,J4,16*%
%TO.N,RXD_out*%
X113386320Y-97871280D03*
%TD*%
D13*
%TO.N,GND*%
X152273000Y-104211120D03*
X150698200Y-105481120D03*
X152882600Y-99994720D03*
X143865600Y-107640120D03*
X143548100Y-96197420D03*
X127609600Y-58326020D03*
X152755600Y-59138820D03*
X142036800Y-55659020D03*
X137414000Y-64587120D03*
X135115300Y-63025020D03*
X145376900Y-59253120D03*
X129667000Y-64574420D03*
X127774700Y-67304920D03*
X161823400Y-83776820D03*
X168490900Y-85580220D03*
X165900100Y-93466920D03*
X130860800Y-84094320D03*
X135153400Y-77477620D03*
X118287800Y-82240120D03*
X122301000Y-81948020D03*
X141135100Y-112707420D03*
X135140700Y-112859820D03*
X135763000Y-96095820D03*
X128384300Y-95803720D03*
X126466600Y-98305620D03*
X135737600Y-94305120D03*
X155613100Y-63837820D03*
X144106900Y-77871320D03*
X156235400Y-95549720D03*
X152450800Y-94114620D03*
X123860560Y-78684880D03*
X123698000Y-88943180D03*
X126657100Y-91749880D03*
X120162320Y-97536000D03*
X143187420Y-65219580D03*
X147815300Y-66931540D03*
X150317200Y-71379080D03*
X155521660Y-71460360D03*
X167015160Y-76273660D03*
X163009580Y-75976480D03*
X146596100Y-83004660D03*
X128968500Y-113314480D03*
X115222020Y-87906860D03*
X117289580Y-99319080D03*
X119143780Y-101191060D03*
X121264680Y-103258620D03*
X121546620Y-108399580D03*
X116918740Y-103753920D03*
X113050320Y-100096320D03*
X145227040Y-103347520D03*
%TO.N,V_SYSTEM_out*%
X146761200Y-73972420D03*
X145973800Y-72397620D03*
X145040350Y-71464170D03*
%TO.N,Net-(C11-Pad2)*%
X149834600Y-96845120D03*
X147077600Y-95659216D03*
%TO.N,Net-(C11-Pad1)*%
X158216600Y-89987120D03*
X149077253Y-94817773D03*
X146537253Y-94817773D03*
X158216600Y-88857120D03*
X157511600Y-88152120D03*
%TO.N,/Sheet6601D6D0/VINT*%
X129755900Y-103360220D03*
X135610600Y-103334820D03*
%TO.N,/Sheet65F0AC28/VREF*%
X132715000Y-57352678D03*
X147497800Y-56560720D03*
X143941800Y-101010720D03*
X147905135Y-106570359D03*
X154152600Y-100096320D03*
%TO.N,Net-(C17-Pad2)*%
X161772600Y-99385120D03*
X161772600Y-98369120D03*
%TO.N,/Sheet65F0AC28/BAT+*%
X157968386Y-99535686D03*
X158013400Y-97167700D03*
%TO.N,STAT1_out*%
X133411039Y-58070684D03*
X141923600Y-101925120D03*
X110505240Y-93959680D03*
%TO.N,STAT2_out*%
X147091400Y-105989120D03*
X148259800Y-61437520D03*
X160235900Y-105201720D03*
X141770100Y-106687620D03*
X110817660Y-96906080D03*
%TO.N,/Sheet65F09169/USB_D-*%
X139891402Y-58943260D03*
X138351094Y-59547004D03*
%TO.N,/Sheet65F09169/CC1*%
X126720600Y-61755020D03*
X141206220Y-59305659D03*
%TO.N,/Sheet65F09169/CC2*%
X122796300Y-61450220D03*
X136969500Y-59255660D03*
%TO.N,SDA_out*%
X120992900Y-81897220D03*
%TO.N,SCL_out*%
X119646700Y-81922620D03*
%TO.N,MOTOR_A_out*%
X135432800Y-98521520D03*
%TO.N,MOTOR_B_out*%
X135360526Y-99518907D03*
%TO.N,DRV_n_FAULT_out*%
X120139460Y-96408240D03*
%TO.N,DRV_SLEEP_out*%
X137541000Y-93581220D03*
%TO.N,TXD_out*%
X157518103Y-68180120D03*
%TO.N,RXD_out*%
X158202989Y-69286120D03*
%TO.N,Net-(Q5-Pad1)*%
X130479800Y-67482720D03*
X131737100Y-71749920D03*
X128409700Y-72194420D03*
%TO.N,Net-(R9-Pad1)*%
X146532600Y-97353120D03*
X156438600Y-84145120D03*
%TO.N,Net-(R12-Pad2)*%
X153593800Y-104515920D03*
X154221470Y-101188120D03*
%TD*%
D14*
%TO.N,V_SYSTEM_out*%
X146761200Y-73185020D02*
X146761200Y-73972420D01*
X145973800Y-72397620D02*
X146761200Y-73185020D01*
X145040350Y-71464170D02*
X145973800Y-72397620D01*
X144226099Y-70649919D02*
X145040350Y-71464170D01*
D15*
X144226099Y-70649919D02*
X144094200Y-70518020D01*
X144094200Y-70518020D02*
X120870980Y-70518020D01*
X120870980Y-70518020D02*
X115768120Y-75620880D01*
X115586744Y-75620880D02*
X115528324Y-75679300D01*
X115768120Y-75620880D02*
X115586744Y-75620880D01*
X115528324Y-75679300D02*
X113517680Y-75679300D01*
X113517680Y-75679300D02*
X111673640Y-77523340D01*
X111701580Y-90058240D02*
X113427680Y-90058240D01*
X111673640Y-90086180D02*
X111701580Y-90058240D01*
X113409900Y-88806020D02*
X113427680Y-88788240D01*
X111673640Y-88806020D02*
X113409900Y-88806020D01*
X111673640Y-77523340D02*
X111673640Y-88806020D01*
X111673640Y-88806020D02*
X111673640Y-90086180D01*
D16*
%TO.N,Net-(C11-Pad2)*%
X148648696Y-95659216D02*
X147077600Y-95659216D01*
X149834600Y-96845120D02*
X148648696Y-95659216D01*
D14*
%TO.N,Net-(C11-Pad1)*%
X158216600Y-89987120D02*
X158216600Y-91301119D01*
D16*
X149077253Y-94817773D02*
X146537253Y-94817773D01*
X153907906Y-89987120D02*
X158216600Y-89987120D01*
X149077253Y-94817773D02*
X153907906Y-89987120D01*
D14*
X158216600Y-89987120D02*
X158216600Y-88857120D01*
X158216600Y-88857120D02*
X157511600Y-88152120D01*
D15*
X158216600Y-91301119D02*
X158216600Y-93687900D01*
X159837400Y-95308700D02*
X161823400Y-95308700D01*
X158216600Y-93687900D02*
X159837400Y-95308700D01*
D16*
%TO.N,/Sheet6601D6D0/VINT*%
X129768600Y-103347520D02*
X129755900Y-103360220D01*
X129781300Y-103334820D02*
X129755900Y-103360220D01*
X135610600Y-103334820D02*
X129781300Y-103334820D01*
%TO.N,/Sheet65F0AC28/VREF*%
X132715000Y-57352678D02*
X133557758Y-56509920D01*
X147447000Y-56509920D02*
X147497800Y-56560720D01*
X143941800Y-101010720D02*
X147802600Y-101010720D01*
X147905135Y-101113255D02*
X147905135Y-106570359D01*
X147802600Y-101010720D02*
X147905135Y-101113255D01*
X153238200Y-101010720D02*
X151815800Y-101010720D01*
X154152600Y-100096320D02*
X153238200Y-101010720D01*
X151815800Y-101010720D02*
X151968200Y-101010720D01*
X147802600Y-101010720D02*
X151815800Y-101010720D01*
X151580844Y-60643764D02*
X147497800Y-56560720D01*
X156891466Y-60643764D02*
X151580844Y-60643764D01*
X157000520Y-60720460D02*
X156891466Y-60643764D01*
X157281089Y-60922600D02*
X157000520Y-60720460D01*
X160278020Y-63919531D02*
X157281089Y-60922600D01*
X160278020Y-77796110D02*
X160278020Y-63919531D01*
X142417800Y-95656330D02*
X160278020Y-77796110D01*
X142417800Y-101010720D02*
X142417800Y-95656330D01*
X143941800Y-101010720D02*
X142417800Y-101010720D01*
X135133659Y-54934019D02*
X133557758Y-56509920D01*
X145871099Y-54934019D02*
X135133659Y-54934019D01*
X147497800Y-56560720D02*
X145871099Y-54934019D01*
D14*
%TO.N,Net-(C17-Pad2)*%
X161772600Y-99385120D02*
X161772600Y-98369120D01*
D15*
X161823400Y-99435920D02*
X161772600Y-99385120D01*
X161823400Y-101358700D02*
X161823400Y-99435920D01*
D16*
%TO.N,/Sheet65F0AC28/BAT+*%
X157968386Y-97212714D02*
X158013400Y-97167700D01*
X157968386Y-99535686D02*
X157968386Y-97212714D01*
%TO.N,STAT1_out*%
X113336240Y-93959680D02*
X113427680Y-93868240D01*
X141923600Y-95030740D02*
X141923600Y-101925120D01*
X159828010Y-64172942D02*
X159828010Y-77126330D01*
X159828010Y-77126330D02*
X141923600Y-95030740D01*
X147775790Y-57475120D02*
X151394444Y-61093774D01*
X146939000Y-57475120D02*
X147775790Y-57475120D01*
X146075400Y-56611520D02*
X146939000Y-57475120D01*
X156748842Y-61093774D02*
X159828010Y-64172942D01*
X134626699Y-56611520D02*
X146075400Y-56611520D01*
X151394444Y-61093774D02*
X156748842Y-61093774D01*
X133411039Y-57827180D02*
X134626699Y-56611520D01*
X133411039Y-58070684D02*
X133411039Y-57827180D01*
X113284720Y-93959680D02*
X113386320Y-94061280D01*
X110505240Y-93959680D02*
X113284720Y-93959680D01*
%TO.N,STAT2_out*%
X141808200Y-105989120D02*
X147091400Y-105989120D01*
X147091400Y-105989120D02*
X147091400Y-106829626D01*
X147091400Y-106829626D02*
X147091400Y-110269020D01*
X147091400Y-110269020D02*
X147904200Y-111081820D01*
X147904200Y-111081820D02*
X154355800Y-111081820D01*
X154355800Y-111081820D02*
X160235900Y-105201720D01*
X141808200Y-106649520D02*
X141770100Y-106687620D01*
X141808200Y-105989120D02*
X141808200Y-106649520D01*
X148412200Y-61589920D02*
X148259800Y-61437520D01*
X156608578Y-61589920D02*
X148412200Y-61589920D01*
X159378000Y-64359342D02*
X156608578Y-61589920D01*
X159378000Y-76939930D02*
X159378000Y-64359342D01*
X141198600Y-95119330D02*
X159378000Y-76939930D01*
X141198600Y-105379520D02*
X141198600Y-95119330D01*
X141808200Y-105989120D02*
X141198600Y-105379520D01*
X110817660Y-96906080D02*
X110817660Y-95902780D01*
X111389160Y-95331280D02*
X113386320Y-95331280D01*
X110817660Y-95902780D02*
X111389160Y-95331280D01*
%TO.N,/Sheet65F09169/USB_D-*%
X138954838Y-58943260D02*
X138351094Y-59547004D01*
X139891402Y-58943260D02*
X138954838Y-58943260D01*
%TO.N,/Sheet65F09169/CC1*%
X140411200Y-60769500D02*
X141206220Y-59974480D01*
X136872980Y-60769500D02*
X140411200Y-60769500D01*
X135747760Y-61894720D02*
X136872980Y-60769500D01*
X126860300Y-61894720D02*
X135747760Y-61894720D01*
X141206220Y-59974480D02*
X141206220Y-59305659D01*
X126720600Y-61755020D02*
X126860300Y-61894720D01*
%TO.N,/Sheet65F09169/CC2*%
X123342400Y-60904120D02*
X128217790Y-60904120D01*
X122796300Y-61450220D02*
X123342400Y-60904120D01*
X136969500Y-59255660D02*
X136878060Y-59255660D01*
X129866250Y-59255660D02*
X128217790Y-60904120D01*
X136969500Y-59255660D02*
X129866250Y-59255660D01*
%TO.N,SDA_out*%
X120992900Y-91257120D02*
X120992900Y-81897220D01*
X119458740Y-92791280D02*
X120992900Y-91257120D01*
X117286320Y-92791280D02*
X119458740Y-92791280D01*
%TO.N,SCL_out*%
X119646700Y-81922620D02*
X119646700Y-89678425D01*
X119646700Y-90462100D02*
X119646700Y-89678425D01*
X118587520Y-91521280D02*
X119646700Y-90462100D01*
X117286320Y-91521280D02*
X118587520Y-91521280D01*
%TO.N,MOTOR_A_out*%
X122682000Y-102180530D02*
X122682000Y-96006920D01*
X127704280Y-107202810D02*
X122682000Y-102180530D01*
X136262400Y-107202810D02*
X127704280Y-107202810D01*
X137090990Y-106374220D02*
X136262400Y-107202810D01*
X137090990Y-98985910D02*
X137090990Y-106374220D01*
X136626600Y-98521520D02*
X137090990Y-98985910D01*
X135432800Y-98521520D02*
X136626600Y-98521520D01*
X122006360Y-95331280D02*
X117286320Y-95331280D01*
X122682000Y-96006920D02*
X122006360Y-95331280D01*
%TO.N,MOTOR_B_out*%
X136640980Y-100223320D02*
X135936567Y-99518907D01*
X136128480Y-106700320D02*
X136640980Y-106187820D01*
X136640980Y-106187820D02*
X136640980Y-100223320D01*
X123190000Y-102052120D02*
X127838200Y-106700320D01*
X127838200Y-106700320D02*
X136128480Y-106700320D01*
X123190000Y-95664020D02*
X123190000Y-102052120D01*
X135936567Y-99518907D02*
X135360526Y-99518907D01*
X122407250Y-94881270D02*
X123190000Y-95664020D01*
X119556310Y-94881270D02*
X122407250Y-94881270D01*
X118736320Y-94061280D02*
X119556310Y-94881270D01*
X117286320Y-94061280D02*
X118736320Y-94061280D01*
%TO.N,DRV_n_FAULT_out*%
X119946420Y-96601280D02*
X120139460Y-96408240D01*
X117286320Y-96601280D02*
X119946420Y-96601280D01*
%TO.N,DRV_SLEEP_out*%
X137541000Y-106560620D02*
X137541000Y-93581220D01*
X136448800Y-107652820D02*
X137541000Y-106560620D01*
X127517879Y-107652819D02*
X136448800Y-107652820D01*
X117543300Y-97678240D02*
X127517879Y-107652819D01*
X117327680Y-97678240D02*
X117543300Y-97678240D01*
%TO.N,TXD_out*%
X158169991Y-68180120D02*
X157518103Y-68180120D01*
X158927990Y-68938119D02*
X158169991Y-68180120D01*
X158927990Y-76753530D02*
X158927990Y-68938119D01*
X139388010Y-96293510D02*
X158927990Y-76753530D01*
X139388009Y-105986431D02*
X139388010Y-96293510D01*
X135709510Y-109664930D02*
X139388009Y-105986431D01*
X121364170Y-109664930D02*
X135709510Y-109664930D01*
X111559340Y-99860100D02*
X121364170Y-109664930D01*
X111559340Y-97096580D02*
X111559340Y-99860100D01*
X112054640Y-96601280D02*
X111559340Y-97096580D01*
X113386320Y-96601280D02*
X112054640Y-96601280D01*
%TO.N,RXD_out*%
X138938000Y-105800030D02*
X138938000Y-95745300D01*
X123837700Y-109214920D02*
X135523110Y-109214920D01*
X115168979Y-100546199D02*
X123837700Y-109214920D01*
X138938000Y-95745300D02*
X158202989Y-76480311D01*
X115143579Y-100546199D02*
X115168979Y-100546199D01*
X158202989Y-76480311D02*
X158202989Y-69286120D01*
X135523110Y-109214920D02*
X138938000Y-105800030D01*
X113427680Y-98830300D02*
X115143579Y-100546199D01*
X113427680Y-97678240D02*
X113427680Y-98830300D01*
%TO.N,Net-(Q5-Pad1)*%
X131292600Y-72194420D02*
X128409700Y-72194420D01*
X131737100Y-71749920D02*
X131292600Y-72194420D01*
%TO.N,Net-(R9-Pad1)*%
X156136904Y-84145120D02*
X156438600Y-84145120D01*
X145812252Y-94469772D02*
X156136904Y-84145120D01*
X145812252Y-96632772D02*
X145812252Y-94469772D01*
X146532600Y-97353120D02*
X145812252Y-96632772D01*
%TO.N,Net-(R12-Pad2)*%
X153593800Y-101815790D02*
X153593800Y-104515920D01*
X154221470Y-101188120D02*
X153593800Y-101815790D01*
%TD*%
D17*
%TO.N,GND*%
X161110563Y-72530993D02*
X161132603Y-72568558D01*
X161154157Y-72606500D01*
X161158067Y-72611961D01*
X161616929Y-73243530D01*
X161645858Y-73276114D01*
X161674359Y-73309132D01*
X161679255Y-73313730D01*
X162252050Y-73844145D01*
X162286751Y-73870484D01*
X162321129Y-73897343D01*
X162326825Y-73900902D01*
X162991737Y-74309958D01*
X163030951Y-74329084D01*
X163069832Y-74348724D01*
X163076111Y-74351110D01*
X163807813Y-74623228D01*
X163849962Y-74634364D01*
X163891951Y-74646087D01*
X163898573Y-74647208D01*
X164669194Y-74772021D01*
X164712754Y-74774761D01*
X164756170Y-74778102D01*
X164762883Y-74777915D01*
X164762884Y-74777915D01*
X165543071Y-74750671D01*
X165586269Y-74744907D01*
X165629572Y-74739743D01*
X165636121Y-74738255D01*
X166396159Y-74559989D01*
X166437377Y-74545957D01*
X166478889Y-74532469D01*
X166485025Y-74529737D01*
X167195962Y-74207242D01*
X167195978Y-74207233D01*
X167217298Y-74197573D01*
X168262281Y-73594252D01*
X168846192Y-75131682D01*
X169479915Y-77231122D01*
X169965643Y-79369645D01*
X170301012Y-81536846D01*
X170484386Y-83722144D01*
X170514877Y-85914953D01*
X170392332Y-88104495D01*
X170117347Y-90280194D01*
X169691266Y-92431393D01*
X169116166Y-94547623D01*
X168394834Y-96618611D01*
X167530802Y-98634219D01*
X166528281Y-100584630D01*
X165392137Y-102460379D01*
X164127918Y-104252300D01*
X162741788Y-105951658D01*
X161240475Y-107550206D01*
X159631327Y-109040117D01*
X157922167Y-110414151D01*
X156996269Y-111057586D01*
X154930806Y-112375209D01*
X154237561Y-112788410D01*
X152280050Y-113777075D01*
X150258362Y-114626773D01*
X148182330Y-115333376D01*
X146062057Y-115893443D01*
X143907892Y-116304240D01*
X141730295Y-116563772D01*
X139539922Y-116670769D01*
X137347410Y-116624713D01*
X135163450Y-116425827D01*
X132998686Y-116075081D01*
X130863666Y-115574183D01*
X128768770Y-114925569D01*
X127744412Y-114528176D01*
X120385236Y-110467942D01*
X119244117Y-109601678D01*
X117594158Y-108157077D01*
X116048993Y-106600901D01*
X115173702Y-105586746D01*
X112690694Y-101707045D01*
X120988798Y-110005150D01*
X121004643Y-110024457D01*
X121081691Y-110087689D01*
X121166179Y-110132849D01*
X121169595Y-110134675D01*
X121264977Y-110163608D01*
X121364170Y-110173378D01*
X121389024Y-110170930D01*
X135684664Y-110170930D01*
X135709510Y-110173377D01*
X135734356Y-110170930D01*
X135734364Y-110170930D01*
X135808703Y-110163608D01*
X135904085Y-110134675D01*
X135991989Y-110087689D01*
X136069037Y-110024457D01*
X136084886Y-110005145D01*
X139728234Y-106361798D01*
X139747535Y-106345958D01*
X139763375Y-106326657D01*
X139763379Y-106326653D01*
X139810767Y-106268910D01*
X139857754Y-106181006D01*
X139886687Y-106085625D01*
X139896456Y-105986432D01*
X139894008Y-105961575D01*
X139894010Y-96503101D01*
X140692601Y-95704510D01*
X140692600Y-105354674D01*
X140690153Y-105379520D01*
X140692600Y-105404366D01*
X140692600Y-105404373D01*
X140699922Y-105478712D01*
X140728855Y-105574094D01*
X140775841Y-105661999D01*
X140839073Y-105739047D01*
X140858385Y-105754896D01*
X141228354Y-106124865D01*
X141163458Y-106189761D01*
X141077987Y-106317678D01*
X141019113Y-106459811D01*
X140989100Y-106610698D01*
X140989100Y-106764542D01*
X141019113Y-106915429D01*
X141077987Y-107057562D01*
X141163458Y-107185479D01*
X141272241Y-107294262D01*
X141400158Y-107379733D01*
X141542291Y-107438607D01*
X141693178Y-107468620D01*
X141847022Y-107468620D01*
X141997909Y-107438607D01*
X142140042Y-107379733D01*
X142267959Y-107294262D01*
X142376742Y-107185479D01*
X142462213Y-107057562D01*
X142521087Y-106915429D01*
X142551100Y-106764542D01*
X142551100Y-106610698D01*
X142528110Y-106495120D01*
X146492899Y-106495120D01*
X146585401Y-106587622D01*
X146585401Y-106804763D01*
X146585400Y-106804773D01*
X146585401Y-110244164D01*
X146582953Y-110269020D01*
X146592722Y-110368212D01*
X146621655Y-110463594D01*
X146638726Y-110495531D01*
X146668642Y-110551499D01*
X146731874Y-110628547D01*
X146751180Y-110644391D01*
X147528828Y-111422040D01*
X147544673Y-111441347D01*
X147621721Y-111504579D01*
X147689534Y-111540826D01*
X147709625Y-111551565D01*
X147805007Y-111580498D01*
X147904200Y-111590268D01*
X147929054Y-111587820D01*
X154330954Y-111587820D01*
X154355800Y-111590267D01*
X154380646Y-111587820D01*
X154380654Y-111587820D01*
X154454993Y-111580498D01*
X154550375Y-111551565D01*
X154638279Y-111504579D01*
X154715327Y-111441347D01*
X154731176Y-111422035D01*
X160170492Y-105982720D01*
X160312822Y-105982720D01*
X160463709Y-105952707D01*
X160605842Y-105893833D01*
X160733759Y-105808362D01*
X160842542Y-105699579D01*
X160928013Y-105571662D01*
X160986887Y-105429529D01*
X161016900Y-105278642D01*
X161016900Y-105124798D01*
X160986887Y-104973911D01*
X160928013Y-104831778D01*
X160842542Y-104703861D01*
X160733759Y-104595078D01*
X160605842Y-104509607D01*
X160463709Y-104450733D01*
X160312822Y-104420720D01*
X160158978Y-104420720D01*
X160008091Y-104450733D01*
X159865958Y-104509607D01*
X159738041Y-104595078D01*
X159629258Y-104703861D01*
X159543787Y-104831778D01*
X159484913Y-104973911D01*
X159454900Y-105124798D01*
X159454900Y-105267128D01*
X154146209Y-110575820D01*
X148113792Y-110575820D01*
X147597400Y-110059429D01*
X147597400Y-107288239D01*
X147677326Y-107321346D01*
X147828213Y-107351359D01*
X147982057Y-107351359D01*
X148132944Y-107321346D01*
X148275077Y-107262472D01*
X148402994Y-107177001D01*
X148511777Y-107068218D01*
X148597248Y-106940301D01*
X148656122Y-106798168D01*
X148686135Y-106647281D01*
X148686135Y-106493437D01*
X148656122Y-106342550D01*
X148597248Y-106200417D01*
X148511777Y-106072500D01*
X148411135Y-105971858D01*
X148411135Y-101516720D01*
X153184657Y-101516720D01*
X153171041Y-101533311D01*
X153124055Y-101621216D01*
X153095122Y-101716598D01*
X153087800Y-101790937D01*
X153087800Y-101790944D01*
X153085353Y-101815790D01*
X153087800Y-101840636D01*
X153087801Y-103917418D01*
X152987158Y-104018061D01*
X152901687Y-104145978D01*
X152842813Y-104288111D01*
X152812800Y-104438998D01*
X152812800Y-104592842D01*
X152842813Y-104743729D01*
X152901687Y-104885862D01*
X152987158Y-105013779D01*
X153095941Y-105122562D01*
X153223858Y-105208033D01*
X153365991Y-105266907D01*
X153516878Y-105296920D01*
X153670722Y-105296920D01*
X153821609Y-105266907D01*
X153963742Y-105208033D01*
X154091659Y-105122562D01*
X154200442Y-105013779D01*
X154285913Y-104885862D01*
X154344787Y-104743729D01*
X154374800Y-104592842D01*
X154374800Y-104438998D01*
X154344787Y-104288111D01*
X154285913Y-104145978D01*
X154200442Y-104018061D01*
X154099800Y-103917419D01*
X154099800Y-102025381D01*
X154156061Y-101969120D01*
X154298392Y-101969120D01*
X154449279Y-101939107D01*
X154591412Y-101880233D01*
X154719329Y-101794762D01*
X154828112Y-101685979D01*
X154913583Y-101558062D01*
X154972457Y-101415929D01*
X155002470Y-101265042D01*
X155002470Y-101111198D01*
X154972457Y-100960311D01*
X154913583Y-100818178D01*
X154828112Y-100690261D01*
X154745636Y-100607785D01*
X154759242Y-100594179D01*
X154844713Y-100466262D01*
X154864414Y-100418700D01*
X159740557Y-100418700D01*
X159740557Y-102298700D01*
X159752429Y-102419235D01*
X159787587Y-102535138D01*
X159844682Y-102641955D01*
X159921519Y-102735581D01*
X160015145Y-102812418D01*
X160121962Y-102869513D01*
X160237865Y-102904671D01*
X160358400Y-102916543D01*
X163288400Y-102916543D01*
X163408935Y-102904671D01*
X163524838Y-102869513D01*
X163631655Y-102812418D01*
X163725281Y-102735581D01*
X163802118Y-102641955D01*
X163859213Y-102535138D01*
X163894371Y-102419235D01*
X163906243Y-102298700D01*
X163906243Y-100418700D01*
X163894371Y-100298165D01*
X163859213Y-100182262D01*
X163802118Y-100075445D01*
X163725281Y-99981819D01*
X163631655Y-99904982D01*
X163524838Y-99847887D01*
X163408935Y-99812729D01*
X163288400Y-99800857D01*
X162604400Y-99800857D01*
X162604400Y-99677991D01*
X162640852Y-99557826D01*
X162653600Y-99428393D01*
X162653600Y-98325847D01*
X162640852Y-98196414D01*
X162590475Y-98030345D01*
X162508668Y-97877295D01*
X162398575Y-97743145D01*
X162264425Y-97633052D01*
X162111375Y-97551245D01*
X161945306Y-97500868D01*
X161772600Y-97483858D01*
X161599895Y-97500868D01*
X161433826Y-97551245D01*
X161280776Y-97633052D01*
X161146626Y-97743145D01*
X161036533Y-97877295D01*
X160954726Y-98030345D01*
X160904349Y-98196414D01*
X160891601Y-98325847D01*
X160891600Y-99428392D01*
X160904348Y-99557825D01*
X160954725Y-99723894D01*
X160995863Y-99800857D01*
X160358400Y-99800857D01*
X160237865Y-99812729D01*
X160121962Y-99847887D01*
X160015145Y-99904982D01*
X159921519Y-99981819D01*
X159844682Y-100075445D01*
X159787587Y-100182262D01*
X159752429Y-100298165D01*
X159740557Y-100418700D01*
X154864414Y-100418700D01*
X154903587Y-100324129D01*
X154933600Y-100173242D01*
X154933600Y-100019398D01*
X154903587Y-99868511D01*
X154844713Y-99726378D01*
X154759242Y-99598461D01*
X154650459Y-99489678D01*
X154604193Y-99458764D01*
X157187386Y-99458764D01*
X157187386Y-99612608D01*
X157217399Y-99763495D01*
X157276273Y-99905628D01*
X157361744Y-100033545D01*
X157470527Y-100142328D01*
X157598444Y-100227799D01*
X157740577Y-100286673D01*
X157891464Y-100316686D01*
X158045308Y-100316686D01*
X158196195Y-100286673D01*
X158338328Y-100227799D01*
X158466245Y-100142328D01*
X158575028Y-100033545D01*
X158660499Y-99905628D01*
X158719373Y-99763495D01*
X158749386Y-99612608D01*
X158749386Y-99458764D01*
X158719373Y-99307877D01*
X158660499Y-99165744D01*
X158575028Y-99037827D01*
X158474386Y-98937185D01*
X158474386Y-97798980D01*
X158511259Y-97774342D01*
X158620042Y-97665559D01*
X158705513Y-97537642D01*
X158764387Y-97395509D01*
X158794400Y-97244622D01*
X158794400Y-97090778D01*
X158764387Y-96939891D01*
X158705513Y-96797758D01*
X158620042Y-96669841D01*
X158511259Y-96561058D01*
X158383342Y-96475587D01*
X158241209Y-96416713D01*
X158090322Y-96386700D01*
X157936478Y-96386700D01*
X157785591Y-96416713D01*
X157643458Y-96475587D01*
X157515541Y-96561058D01*
X157406758Y-96669841D01*
X157321287Y-96797758D01*
X157262413Y-96939891D01*
X157232400Y-97090778D01*
X157232400Y-97244622D01*
X157262413Y-97395509D01*
X157321287Y-97537642D01*
X157406758Y-97665559D01*
X157462387Y-97721188D01*
X157462386Y-98937185D01*
X157361744Y-99037827D01*
X157276273Y-99165744D01*
X157217399Y-99307877D01*
X157187386Y-99458764D01*
X154604193Y-99458764D01*
X154522542Y-99404207D01*
X154380409Y-99345333D01*
X154229522Y-99315320D01*
X154075678Y-99315320D01*
X153924791Y-99345333D01*
X153782658Y-99404207D01*
X153654741Y-99489678D01*
X153545958Y-99598461D01*
X153460487Y-99726378D01*
X153401613Y-99868511D01*
X153371600Y-100019398D01*
X153371600Y-100161728D01*
X153028609Y-100504720D01*
X147827446Y-100504720D01*
X147802600Y-100502273D01*
X147777754Y-100504720D01*
X144540301Y-100504720D01*
X144439659Y-100404078D01*
X144311742Y-100318607D01*
X144169609Y-100259733D01*
X144018722Y-100229720D01*
X143864878Y-100229720D01*
X143713991Y-100259733D01*
X143571858Y-100318607D01*
X143443941Y-100404078D01*
X143343299Y-100504720D01*
X142923800Y-100504720D01*
X142923800Y-95865921D01*
X144319949Y-94469772D01*
X145303805Y-94469772D01*
X145306253Y-94494628D01*
X145306252Y-96607926D01*
X145303805Y-96632772D01*
X145306252Y-96657618D01*
X145306252Y-96657625D01*
X145313574Y-96731964D01*
X145342507Y-96827346D01*
X145389493Y-96915251D01*
X145452725Y-96992299D01*
X145472037Y-97008148D01*
X145751600Y-97287711D01*
X145751600Y-97430042D01*
X145781613Y-97580929D01*
X145840487Y-97723062D01*
X145925958Y-97850979D01*
X146034741Y-97959762D01*
X146162658Y-98045233D01*
X146304791Y-98104107D01*
X146455678Y-98134120D01*
X146609522Y-98134120D01*
X146760409Y-98104107D01*
X146902542Y-98045233D01*
X147030459Y-97959762D01*
X147139242Y-97850979D01*
X147224713Y-97723062D01*
X147283587Y-97580929D01*
X147313600Y-97430042D01*
X147313600Y-97276198D01*
X147283587Y-97125311D01*
X147224713Y-96983178D01*
X147139242Y-96855261D01*
X147030459Y-96746478D01*
X146902542Y-96661007D01*
X146760409Y-96602133D01*
X146609522Y-96572120D01*
X146467191Y-96572120D01*
X146318252Y-96423181D01*
X146318252Y-95844991D01*
X146326613Y-95887025D01*
X146385487Y-96029158D01*
X146470958Y-96157075D01*
X146579741Y-96265858D01*
X146707658Y-96351329D01*
X146849791Y-96410203D01*
X147000678Y-96440216D01*
X147154522Y-96440216D01*
X147305409Y-96410203D01*
X147447542Y-96351329D01*
X147575459Y-96265858D01*
X147676101Y-96165216D01*
X148439105Y-96165216D01*
X149053600Y-96779712D01*
X149053600Y-96922042D01*
X149083613Y-97072929D01*
X149142487Y-97215062D01*
X149227958Y-97342979D01*
X149336741Y-97451762D01*
X149464658Y-97537233D01*
X149606791Y-97596107D01*
X149757678Y-97626120D01*
X149911522Y-97626120D01*
X150062409Y-97596107D01*
X150204542Y-97537233D01*
X150332459Y-97451762D01*
X150441242Y-97342979D01*
X150526713Y-97215062D01*
X150585587Y-97072929D01*
X150615600Y-96922042D01*
X150615600Y-96768198D01*
X150585587Y-96617311D01*
X150526713Y-96475178D01*
X150441242Y-96347261D01*
X150332459Y-96238478D01*
X150204542Y-96153007D01*
X150062409Y-96094133D01*
X149911522Y-96064120D01*
X149769192Y-96064120D01*
X149279013Y-95573941D01*
X149305062Y-95568760D01*
X149447195Y-95509886D01*
X149575112Y-95424415D01*
X149683895Y-95315632D01*
X149769366Y-95187715D01*
X149828240Y-95045582D01*
X149858253Y-94894695D01*
X149858253Y-94752364D01*
X152626653Y-91983965D01*
X152611734Y-92058968D01*
X152611734Y-92451232D01*
X152688261Y-92835960D01*
X152838375Y-93198365D01*
X153056305Y-93524521D01*
X153333678Y-93801894D01*
X153659834Y-94019824D01*
X154022239Y-94169938D01*
X154406967Y-94246465D01*
X154799231Y-94246465D01*
X155183959Y-94169938D01*
X155546364Y-94019824D01*
X155872520Y-93801894D01*
X156149893Y-93524521D01*
X156367823Y-93198365D01*
X156517937Y-92835960D01*
X156594464Y-92451232D01*
X156594464Y-92058968D01*
X156517937Y-91674240D01*
X156367823Y-91311835D01*
X156149893Y-90985679D01*
X155872520Y-90708306D01*
X155550471Y-90493120D01*
X157335600Y-90493120D01*
X157335601Y-91344392D01*
X157348349Y-91473825D01*
X157398726Y-91639894D01*
X157435600Y-91708881D01*
X157435601Y-93649533D01*
X157431822Y-93687900D01*
X157443050Y-93801893D01*
X157446902Y-93841003D01*
X157459609Y-93882892D01*
X157491560Y-93988220D01*
X157564081Y-94123899D01*
X157637225Y-94213025D01*
X157661679Y-94242822D01*
X157691474Y-94267274D01*
X159258026Y-95833827D01*
X159282478Y-95863622D01*
X159312273Y-95888074D01*
X159401400Y-95961219D01*
X159510628Y-96019602D01*
X159537078Y-96033740D01*
X159684297Y-96078399D01*
X159740557Y-96083940D01*
X159740557Y-96248700D01*
X159752429Y-96369235D01*
X159787587Y-96485138D01*
X159844682Y-96591955D01*
X159921519Y-96685581D01*
X160015145Y-96762418D01*
X160121962Y-96819513D01*
X160237865Y-96854671D01*
X160358400Y-96866543D01*
X163288400Y-96866543D01*
X163408935Y-96854671D01*
X163524838Y-96819513D01*
X163631655Y-96762418D01*
X163725281Y-96685581D01*
X163802118Y-96591955D01*
X163859213Y-96485138D01*
X163894371Y-96369235D01*
X163906243Y-96248700D01*
X163906243Y-94368700D01*
X163894371Y-94248165D01*
X163859213Y-94132262D01*
X163802118Y-94025445D01*
X163725281Y-93931819D01*
X163631655Y-93854982D01*
X163524838Y-93797887D01*
X163408935Y-93762729D01*
X163288400Y-93750857D01*
X160358400Y-93750857D01*
X160237865Y-93762729D01*
X160121962Y-93797887D01*
X160015145Y-93854982D01*
X159921519Y-93931819D01*
X159844682Y-94025445D01*
X159787587Y-94132262D01*
X159782438Y-94149237D01*
X158997600Y-93364400D01*
X158997600Y-91708882D01*
X159034475Y-91639894D01*
X159084852Y-91473825D01*
X159097600Y-91344392D01*
X159097600Y-89428858D01*
X160391967Y-89428858D01*
X160529924Y-89729064D01*
X160879167Y-89904902D01*
X161256004Y-90009227D01*
X161645953Y-90038029D01*
X162034028Y-89990204D01*
X162405316Y-89867588D01*
X162664476Y-89729064D01*
X162802433Y-89428858D01*
X161597200Y-88223625D01*
X160391967Y-89428858D01*
X159097600Y-89428858D01*
X159097600Y-88900390D01*
X159101862Y-88857120D01*
X159095078Y-88788240D01*
X159084852Y-88684414D01*
X159034475Y-88518345D01*
X158952668Y-88365295D01*
X158929996Y-88337669D01*
X158870160Y-88264757D01*
X158870157Y-88264754D01*
X158842575Y-88231145D01*
X158808966Y-88203563D01*
X158698176Y-88092773D01*
X159603191Y-88092773D01*
X159651016Y-88480848D01*
X159773632Y-88852136D01*
X159912156Y-89111296D01*
X160212362Y-89249253D01*
X161417595Y-88044020D01*
X161776805Y-88044020D01*
X162982038Y-89249253D01*
X163282244Y-89111296D01*
X163458082Y-88762053D01*
X163562407Y-88385216D01*
X163591209Y-87995267D01*
X163543384Y-87607192D01*
X163420768Y-87235904D01*
X163282244Y-86976744D01*
X163211037Y-86944021D01*
X163824357Y-86944021D01*
X163824357Y-89144019D01*
X163836517Y-89267481D01*
X163872529Y-89386198D01*
X163931010Y-89495608D01*
X164009713Y-89591507D01*
X164105612Y-89670210D01*
X164215022Y-89728691D01*
X164333739Y-89764703D01*
X164457201Y-89776863D01*
X166657199Y-89776863D01*
X166780661Y-89764703D01*
X166899378Y-89728691D01*
X167008788Y-89670210D01*
X167104687Y-89591507D01*
X167183390Y-89495608D01*
X167241871Y-89386198D01*
X167277883Y-89267481D01*
X167290043Y-89144019D01*
X167290043Y-86944021D01*
X167277883Y-86820559D01*
X167241871Y-86701842D01*
X167183390Y-86592432D01*
X167104687Y-86496533D01*
X167008788Y-86417830D01*
X166899378Y-86359349D01*
X166780661Y-86323337D01*
X166657199Y-86311177D01*
X164457201Y-86311177D01*
X164333739Y-86323337D01*
X164215022Y-86359349D01*
X164105612Y-86417830D01*
X164009713Y-86496533D01*
X163931010Y-86592432D01*
X163872529Y-86701842D01*
X163836517Y-86820559D01*
X163824357Y-86944021D01*
X163211037Y-86944021D01*
X162982038Y-86838787D01*
X161776805Y-88044020D01*
X161417595Y-88044020D01*
X160212362Y-86838787D01*
X159912156Y-86976744D01*
X159736318Y-87325987D01*
X159631993Y-87702824D01*
X159603191Y-88092773D01*
X158698176Y-88092773D01*
X158103962Y-87498561D01*
X158003425Y-87416052D01*
X157850374Y-87334245D01*
X157684305Y-87283869D01*
X157511600Y-87266858D01*
X157338895Y-87283869D01*
X157172826Y-87334245D01*
X157019775Y-87416052D01*
X156885626Y-87526146D01*
X156775532Y-87660295D01*
X156693725Y-87813346D01*
X156643349Y-87979415D01*
X156626338Y-88152120D01*
X156643349Y-88324825D01*
X156693725Y-88490894D01*
X156775532Y-88643945D01*
X156858041Y-88744482D01*
X157335601Y-89222043D01*
X157335600Y-89481120D01*
X153932752Y-89481120D01*
X153907906Y-89478673D01*
X153883060Y-89481120D01*
X153883052Y-89481120D01*
X153808713Y-89488442D01*
X153713331Y-89517375D01*
X153625427Y-89564361D01*
X153548379Y-89627593D01*
X153532534Y-89646900D01*
X149142662Y-94036773D01*
X149000331Y-94036773D01*
X148849444Y-94066786D01*
X148707311Y-94125660D01*
X148579394Y-94211131D01*
X148478752Y-94311773D01*
X147135754Y-94311773D01*
X147035112Y-94211131D01*
X146907195Y-94125660D01*
X146882277Y-94115338D01*
X154338433Y-86659182D01*
X160391967Y-86659182D01*
X161597200Y-87864415D01*
X162802433Y-86659182D01*
X162664476Y-86358976D01*
X162315233Y-86183138D01*
X161938396Y-86078813D01*
X161548447Y-86050011D01*
X161160372Y-86097836D01*
X160789084Y-86220452D01*
X160529924Y-86358976D01*
X160391967Y-86659182D01*
X154338433Y-86659182D01*
X156133517Y-84864099D01*
X156210791Y-84896107D01*
X156361678Y-84926120D01*
X156515522Y-84926120D01*
X156666409Y-84896107D01*
X156808542Y-84837233D01*
X156936459Y-84751762D01*
X157045242Y-84642979D01*
X157130713Y-84515062D01*
X157189587Y-84372929D01*
X157219600Y-84222042D01*
X157219600Y-84068198D01*
X157189587Y-83917311D01*
X157130713Y-83775178D01*
X157045242Y-83647261D01*
X156936459Y-83538478D01*
X156808542Y-83453007D01*
X156666409Y-83394133D01*
X156515522Y-83364120D01*
X156361678Y-83364120D01*
X156210791Y-83394133D01*
X156068658Y-83453007D01*
X155940741Y-83538478D01*
X155831958Y-83647261D01*
X155746487Y-83775178D01*
X155714831Y-83851601D01*
X145472033Y-94094400D01*
X145452726Y-94110245D01*
X145389494Y-94187293D01*
X145369373Y-94224937D01*
X145342507Y-94275198D01*
X145313574Y-94370580D01*
X145303805Y-94469772D01*
X144319949Y-94469772D01*
X160618240Y-78171482D01*
X160637547Y-78155637D01*
X160700779Y-78078589D01*
X160747765Y-77990685D01*
X160776698Y-77895303D01*
X160784020Y-77820964D01*
X160784020Y-77820957D01*
X160786467Y-77796111D01*
X160784020Y-77771265D01*
X160784020Y-71824290D01*
X161110563Y-72530993D01*
%TA.AperFunction,Conductor*%
D18*
G36*
X161110563Y-72530993D02*
G01*
X161132603Y-72568558D01*
X161154157Y-72606500D01*
X161158067Y-72611961D01*
X161616929Y-73243530D01*
X161645858Y-73276114D01*
X161674359Y-73309132D01*
X161679255Y-73313730D01*
X162252050Y-73844145D01*
X162286751Y-73870484D01*
X162321129Y-73897343D01*
X162326825Y-73900902D01*
X162991737Y-74309958D01*
X163030951Y-74329084D01*
X163069832Y-74348724D01*
X163076111Y-74351110D01*
X163807813Y-74623228D01*
X163849962Y-74634364D01*
X163891951Y-74646087D01*
X163898573Y-74647208D01*
X164669194Y-74772021D01*
X164712754Y-74774761D01*
X164756170Y-74778102D01*
X164762883Y-74777915D01*
X164762884Y-74777915D01*
X165543071Y-74750671D01*
X165586269Y-74744907D01*
X165629572Y-74739743D01*
X165636121Y-74738255D01*
X166396159Y-74559989D01*
X166437377Y-74545957D01*
X166478889Y-74532469D01*
X166485025Y-74529737D01*
X167195962Y-74207242D01*
X167195978Y-74207233D01*
X167217298Y-74197573D01*
X168262281Y-73594252D01*
X168846192Y-75131682D01*
X169479915Y-77231122D01*
X169965643Y-79369645D01*
X170301012Y-81536846D01*
X170484386Y-83722144D01*
X170514877Y-85914953D01*
X170392332Y-88104495D01*
X170117347Y-90280194D01*
X169691266Y-92431393D01*
X169116166Y-94547623D01*
X168394834Y-96618611D01*
X167530802Y-98634219D01*
X166528281Y-100584630D01*
X165392137Y-102460379D01*
X164127918Y-104252300D01*
X162741788Y-105951658D01*
X161240475Y-107550206D01*
X159631327Y-109040117D01*
X157922167Y-110414151D01*
X156996269Y-111057586D01*
X154930806Y-112375209D01*
X154237561Y-112788410D01*
X152280050Y-113777075D01*
X150258362Y-114626773D01*
X148182330Y-115333376D01*
X146062057Y-115893443D01*
X143907892Y-116304240D01*
X141730295Y-116563772D01*
X139539922Y-116670769D01*
X137347410Y-116624713D01*
X135163450Y-116425827D01*
X132998686Y-116075081D01*
X130863666Y-115574183D01*
X128768770Y-114925569D01*
X127744412Y-114528176D01*
X120385236Y-110467942D01*
X119244117Y-109601678D01*
X117594158Y-108157077D01*
X116048993Y-106600901D01*
X115173702Y-105586746D01*
X112690694Y-101707045D01*
X120988798Y-110005150D01*
X121004643Y-110024457D01*
X121081691Y-110087689D01*
X121166179Y-110132849D01*
X121169595Y-110134675D01*
X121264977Y-110163608D01*
X121364170Y-110173378D01*
X121389024Y-110170930D01*
X135684664Y-110170930D01*
X135709510Y-110173377D01*
X135734356Y-110170930D01*
X135734364Y-110170930D01*
X135808703Y-110163608D01*
X135904085Y-110134675D01*
X135991989Y-110087689D01*
X136069037Y-110024457D01*
X136084886Y-110005145D01*
X139728234Y-106361798D01*
X139747535Y-106345958D01*
X139763375Y-106326657D01*
X139763379Y-106326653D01*
X139810767Y-106268910D01*
X139857754Y-106181006D01*
X139886687Y-106085625D01*
X139896456Y-105986432D01*
X139894008Y-105961575D01*
X139894010Y-96503101D01*
X140692601Y-95704510D01*
X140692600Y-105354674D01*
X140690153Y-105379520D01*
X140692600Y-105404366D01*
X140692600Y-105404373D01*
X140699922Y-105478712D01*
X140728855Y-105574094D01*
X140775841Y-105661999D01*
X140839073Y-105739047D01*
X140858385Y-105754896D01*
X141228354Y-106124865D01*
X141163458Y-106189761D01*
X141077987Y-106317678D01*
X141019113Y-106459811D01*
X140989100Y-106610698D01*
X140989100Y-106764542D01*
X141019113Y-106915429D01*
X141077987Y-107057562D01*
X141163458Y-107185479D01*
X141272241Y-107294262D01*
X141400158Y-107379733D01*
X141542291Y-107438607D01*
X141693178Y-107468620D01*
X141847022Y-107468620D01*
X141997909Y-107438607D01*
X142140042Y-107379733D01*
X142267959Y-107294262D01*
X142376742Y-107185479D01*
X142462213Y-107057562D01*
X142521087Y-106915429D01*
X142551100Y-106764542D01*
X142551100Y-106610698D01*
X142528110Y-106495120D01*
X146492899Y-106495120D01*
X146585401Y-106587622D01*
X146585401Y-106804763D01*
X146585400Y-106804773D01*
X146585401Y-110244164D01*
X146582953Y-110269020D01*
X146592722Y-110368212D01*
X146621655Y-110463594D01*
X146638726Y-110495531D01*
X146668642Y-110551499D01*
X146731874Y-110628547D01*
X146751180Y-110644391D01*
X147528828Y-111422040D01*
X147544673Y-111441347D01*
X147621721Y-111504579D01*
X147689534Y-111540826D01*
X147709625Y-111551565D01*
X147805007Y-111580498D01*
X147904200Y-111590268D01*
X147929054Y-111587820D01*
X154330954Y-111587820D01*
X154355800Y-111590267D01*
X154380646Y-111587820D01*
X154380654Y-111587820D01*
X154454993Y-111580498D01*
X154550375Y-111551565D01*
X154638279Y-111504579D01*
X154715327Y-111441347D01*
X154731176Y-111422035D01*
X160170492Y-105982720D01*
X160312822Y-105982720D01*
X160463709Y-105952707D01*
X160605842Y-105893833D01*
X160733759Y-105808362D01*
X160842542Y-105699579D01*
X160928013Y-105571662D01*
X160986887Y-105429529D01*
X161016900Y-105278642D01*
X161016900Y-105124798D01*
X160986887Y-104973911D01*
X160928013Y-104831778D01*
X160842542Y-104703861D01*
X160733759Y-104595078D01*
X160605842Y-104509607D01*
X160463709Y-104450733D01*
X160312822Y-104420720D01*
X160158978Y-104420720D01*
X160008091Y-104450733D01*
X159865958Y-104509607D01*
X159738041Y-104595078D01*
X159629258Y-104703861D01*
X159543787Y-104831778D01*
X159484913Y-104973911D01*
X159454900Y-105124798D01*
X159454900Y-105267128D01*
X154146209Y-110575820D01*
X148113792Y-110575820D01*
X147597400Y-110059429D01*
X147597400Y-107288239D01*
X147677326Y-107321346D01*
X147828213Y-107351359D01*
X147982057Y-107351359D01*
X148132944Y-107321346D01*
X148275077Y-107262472D01*
X148402994Y-107177001D01*
X148511777Y-107068218D01*
X148597248Y-106940301D01*
X148656122Y-106798168D01*
X148686135Y-106647281D01*
X148686135Y-106493437D01*
X148656122Y-106342550D01*
X148597248Y-106200417D01*
X148511777Y-106072500D01*
X148411135Y-105971858D01*
X148411135Y-101516720D01*
X153184657Y-101516720D01*
X153171041Y-101533311D01*
X153124055Y-101621216D01*
X153095122Y-101716598D01*
X153087800Y-101790937D01*
X153087800Y-101790944D01*
X153085353Y-101815790D01*
X153087800Y-101840636D01*
X153087801Y-103917418D01*
X152987158Y-104018061D01*
X152901687Y-104145978D01*
X152842813Y-104288111D01*
X152812800Y-104438998D01*
X152812800Y-104592842D01*
X152842813Y-104743729D01*
X152901687Y-104885862D01*
X152987158Y-105013779D01*
X153095941Y-105122562D01*
X153223858Y-105208033D01*
X153365991Y-105266907D01*
X153516878Y-105296920D01*
X153670722Y-105296920D01*
X153821609Y-105266907D01*
X153963742Y-105208033D01*
X154091659Y-105122562D01*
X154200442Y-105013779D01*
X154285913Y-104885862D01*
X154344787Y-104743729D01*
X154374800Y-104592842D01*
X154374800Y-104438998D01*
X154344787Y-104288111D01*
X154285913Y-104145978D01*
X154200442Y-104018061D01*
X154099800Y-103917419D01*
X154099800Y-102025381D01*
X154156061Y-101969120D01*
X154298392Y-101969120D01*
X154449279Y-101939107D01*
X154591412Y-101880233D01*
X154719329Y-101794762D01*
X154828112Y-101685979D01*
X154913583Y-101558062D01*
X154972457Y-101415929D01*
X155002470Y-101265042D01*
X155002470Y-101111198D01*
X154972457Y-100960311D01*
X154913583Y-100818178D01*
X154828112Y-100690261D01*
X154745636Y-100607785D01*
X154759242Y-100594179D01*
X154844713Y-100466262D01*
X154864414Y-100418700D01*
X159740557Y-100418700D01*
X159740557Y-102298700D01*
X159752429Y-102419235D01*
X159787587Y-102535138D01*
X159844682Y-102641955D01*
X159921519Y-102735581D01*
X160015145Y-102812418D01*
X160121962Y-102869513D01*
X160237865Y-102904671D01*
X160358400Y-102916543D01*
X163288400Y-102916543D01*
X163408935Y-102904671D01*
X163524838Y-102869513D01*
X163631655Y-102812418D01*
X163725281Y-102735581D01*
X163802118Y-102641955D01*
X163859213Y-102535138D01*
X163894371Y-102419235D01*
X163906243Y-102298700D01*
X163906243Y-100418700D01*
X163894371Y-100298165D01*
X163859213Y-100182262D01*
X163802118Y-100075445D01*
X163725281Y-99981819D01*
X163631655Y-99904982D01*
X163524838Y-99847887D01*
X163408935Y-99812729D01*
X163288400Y-99800857D01*
X162604400Y-99800857D01*
X162604400Y-99677991D01*
X162640852Y-99557826D01*
X162653600Y-99428393D01*
X162653600Y-98325847D01*
X162640852Y-98196414D01*
X162590475Y-98030345D01*
X162508668Y-97877295D01*
X162398575Y-97743145D01*
X162264425Y-97633052D01*
X162111375Y-97551245D01*
X161945306Y-97500868D01*
X161772600Y-97483858D01*
X161599895Y-97500868D01*
X161433826Y-97551245D01*
X161280776Y-97633052D01*
X161146626Y-97743145D01*
X161036533Y-97877295D01*
X160954726Y-98030345D01*
X160904349Y-98196414D01*
X160891601Y-98325847D01*
X160891600Y-99428392D01*
X160904348Y-99557825D01*
X160954725Y-99723894D01*
X160995863Y-99800857D01*
X160358400Y-99800857D01*
X160237865Y-99812729D01*
X160121962Y-99847887D01*
X160015145Y-99904982D01*
X159921519Y-99981819D01*
X159844682Y-100075445D01*
X159787587Y-100182262D01*
X159752429Y-100298165D01*
X159740557Y-100418700D01*
X154864414Y-100418700D01*
X154903587Y-100324129D01*
X154933600Y-100173242D01*
X154933600Y-100019398D01*
X154903587Y-99868511D01*
X154844713Y-99726378D01*
X154759242Y-99598461D01*
X154650459Y-99489678D01*
X154604193Y-99458764D01*
X157187386Y-99458764D01*
X157187386Y-99612608D01*
X157217399Y-99763495D01*
X157276273Y-99905628D01*
X157361744Y-100033545D01*
X157470527Y-100142328D01*
X157598444Y-100227799D01*
X157740577Y-100286673D01*
X157891464Y-100316686D01*
X158045308Y-100316686D01*
X158196195Y-100286673D01*
X158338328Y-100227799D01*
X158466245Y-100142328D01*
X158575028Y-100033545D01*
X158660499Y-99905628D01*
X158719373Y-99763495D01*
X158749386Y-99612608D01*
X158749386Y-99458764D01*
X158719373Y-99307877D01*
X158660499Y-99165744D01*
X158575028Y-99037827D01*
X158474386Y-98937185D01*
X158474386Y-97798980D01*
X158511259Y-97774342D01*
X158620042Y-97665559D01*
X158705513Y-97537642D01*
X158764387Y-97395509D01*
X158794400Y-97244622D01*
X158794400Y-97090778D01*
X158764387Y-96939891D01*
X158705513Y-96797758D01*
X158620042Y-96669841D01*
X158511259Y-96561058D01*
X158383342Y-96475587D01*
X158241209Y-96416713D01*
X158090322Y-96386700D01*
X157936478Y-96386700D01*
X157785591Y-96416713D01*
X157643458Y-96475587D01*
X157515541Y-96561058D01*
X157406758Y-96669841D01*
X157321287Y-96797758D01*
X157262413Y-96939891D01*
X157232400Y-97090778D01*
X157232400Y-97244622D01*
X157262413Y-97395509D01*
X157321287Y-97537642D01*
X157406758Y-97665559D01*
X157462387Y-97721188D01*
X157462386Y-98937185D01*
X157361744Y-99037827D01*
X157276273Y-99165744D01*
X157217399Y-99307877D01*
X157187386Y-99458764D01*
X154604193Y-99458764D01*
X154522542Y-99404207D01*
X154380409Y-99345333D01*
X154229522Y-99315320D01*
X154075678Y-99315320D01*
X153924791Y-99345333D01*
X153782658Y-99404207D01*
X153654741Y-99489678D01*
X153545958Y-99598461D01*
X153460487Y-99726378D01*
X153401613Y-99868511D01*
X153371600Y-100019398D01*
X153371600Y-100161728D01*
X153028609Y-100504720D01*
X147827446Y-100504720D01*
X147802600Y-100502273D01*
X147777754Y-100504720D01*
X144540301Y-100504720D01*
X144439659Y-100404078D01*
X144311742Y-100318607D01*
X144169609Y-100259733D01*
X144018722Y-100229720D01*
X143864878Y-100229720D01*
X143713991Y-100259733D01*
X143571858Y-100318607D01*
X143443941Y-100404078D01*
X143343299Y-100504720D01*
X142923800Y-100504720D01*
X142923800Y-95865921D01*
X144319949Y-94469772D01*
X145303805Y-94469772D01*
X145306253Y-94494628D01*
X145306252Y-96607926D01*
X145303805Y-96632772D01*
X145306252Y-96657618D01*
X145306252Y-96657625D01*
X145313574Y-96731964D01*
X145342507Y-96827346D01*
X145389493Y-96915251D01*
X145452725Y-96992299D01*
X145472037Y-97008148D01*
X145751600Y-97287711D01*
X145751600Y-97430042D01*
X145781613Y-97580929D01*
X145840487Y-97723062D01*
X145925958Y-97850979D01*
X146034741Y-97959762D01*
X146162658Y-98045233D01*
X146304791Y-98104107D01*
X146455678Y-98134120D01*
X146609522Y-98134120D01*
X146760409Y-98104107D01*
X146902542Y-98045233D01*
X147030459Y-97959762D01*
X147139242Y-97850979D01*
X147224713Y-97723062D01*
X147283587Y-97580929D01*
X147313600Y-97430042D01*
X147313600Y-97276198D01*
X147283587Y-97125311D01*
X147224713Y-96983178D01*
X147139242Y-96855261D01*
X147030459Y-96746478D01*
X146902542Y-96661007D01*
X146760409Y-96602133D01*
X146609522Y-96572120D01*
X146467191Y-96572120D01*
X146318252Y-96423181D01*
X146318252Y-95844991D01*
X146326613Y-95887025D01*
X146385487Y-96029158D01*
X146470958Y-96157075D01*
X146579741Y-96265858D01*
X146707658Y-96351329D01*
X146849791Y-96410203D01*
X147000678Y-96440216D01*
X147154522Y-96440216D01*
X147305409Y-96410203D01*
X147447542Y-96351329D01*
X147575459Y-96265858D01*
X147676101Y-96165216D01*
X148439105Y-96165216D01*
X149053600Y-96779712D01*
X149053600Y-96922042D01*
X149083613Y-97072929D01*
X149142487Y-97215062D01*
X149227958Y-97342979D01*
X149336741Y-97451762D01*
X149464658Y-97537233D01*
X149606791Y-97596107D01*
X149757678Y-97626120D01*
X149911522Y-97626120D01*
X150062409Y-97596107D01*
X150204542Y-97537233D01*
X150332459Y-97451762D01*
X150441242Y-97342979D01*
X150526713Y-97215062D01*
X150585587Y-97072929D01*
X150615600Y-96922042D01*
X150615600Y-96768198D01*
X150585587Y-96617311D01*
X150526713Y-96475178D01*
X150441242Y-96347261D01*
X150332459Y-96238478D01*
X150204542Y-96153007D01*
X150062409Y-96094133D01*
X149911522Y-96064120D01*
X149769192Y-96064120D01*
X149279013Y-95573941D01*
X149305062Y-95568760D01*
X149447195Y-95509886D01*
X149575112Y-95424415D01*
X149683895Y-95315632D01*
X149769366Y-95187715D01*
X149828240Y-95045582D01*
X149858253Y-94894695D01*
X149858253Y-94752364D01*
X152626653Y-91983965D01*
X152611734Y-92058968D01*
X152611734Y-92451232D01*
X152688261Y-92835960D01*
X152838375Y-93198365D01*
X153056305Y-93524521D01*
X153333678Y-93801894D01*
X153659834Y-94019824D01*
X154022239Y-94169938D01*
X154406967Y-94246465D01*
X154799231Y-94246465D01*
X155183959Y-94169938D01*
X155546364Y-94019824D01*
X155872520Y-93801894D01*
X156149893Y-93524521D01*
X156367823Y-93198365D01*
X156517937Y-92835960D01*
X156594464Y-92451232D01*
X156594464Y-92058968D01*
X156517937Y-91674240D01*
X156367823Y-91311835D01*
X156149893Y-90985679D01*
X155872520Y-90708306D01*
X155550471Y-90493120D01*
X157335600Y-90493120D01*
X157335601Y-91344392D01*
X157348349Y-91473825D01*
X157398726Y-91639894D01*
X157435600Y-91708881D01*
X157435601Y-93649533D01*
X157431822Y-93687900D01*
X157443050Y-93801893D01*
X157446902Y-93841003D01*
X157459609Y-93882892D01*
X157491560Y-93988220D01*
X157564081Y-94123899D01*
X157637225Y-94213025D01*
X157661679Y-94242822D01*
X157691474Y-94267274D01*
X159258026Y-95833827D01*
X159282478Y-95863622D01*
X159312273Y-95888074D01*
X159401400Y-95961219D01*
X159510628Y-96019602D01*
X159537078Y-96033740D01*
X159684297Y-96078399D01*
X159740557Y-96083940D01*
X159740557Y-96248700D01*
X159752429Y-96369235D01*
X159787587Y-96485138D01*
X159844682Y-96591955D01*
X159921519Y-96685581D01*
X160015145Y-96762418D01*
X160121962Y-96819513D01*
X160237865Y-96854671D01*
X160358400Y-96866543D01*
X163288400Y-96866543D01*
X163408935Y-96854671D01*
X163524838Y-96819513D01*
X163631655Y-96762418D01*
X163725281Y-96685581D01*
X163802118Y-96591955D01*
X163859213Y-96485138D01*
X163894371Y-96369235D01*
X163906243Y-96248700D01*
X163906243Y-94368700D01*
X163894371Y-94248165D01*
X163859213Y-94132262D01*
X163802118Y-94025445D01*
X163725281Y-93931819D01*
X163631655Y-93854982D01*
X163524838Y-93797887D01*
X163408935Y-93762729D01*
X163288400Y-93750857D01*
X160358400Y-93750857D01*
X160237865Y-93762729D01*
X160121962Y-93797887D01*
X160015145Y-93854982D01*
X159921519Y-93931819D01*
X159844682Y-94025445D01*
X159787587Y-94132262D01*
X159782438Y-94149237D01*
X158997600Y-93364400D01*
X158997600Y-91708882D01*
X159034475Y-91639894D01*
X159084852Y-91473825D01*
X159097600Y-91344392D01*
X159097600Y-89428858D01*
X160391967Y-89428858D01*
X160529924Y-89729064D01*
X160879167Y-89904902D01*
X161256004Y-90009227D01*
X161645953Y-90038029D01*
X162034028Y-89990204D01*
X162405316Y-89867588D01*
X162664476Y-89729064D01*
X162802433Y-89428858D01*
X161597200Y-88223625D01*
X160391967Y-89428858D01*
X159097600Y-89428858D01*
X159097600Y-88900390D01*
X159101862Y-88857120D01*
X159095078Y-88788240D01*
X159084852Y-88684414D01*
X159034475Y-88518345D01*
X158952668Y-88365295D01*
X158929996Y-88337669D01*
X158870160Y-88264757D01*
X158870157Y-88264754D01*
X158842575Y-88231145D01*
X158808966Y-88203563D01*
X158698176Y-88092773D01*
X159603191Y-88092773D01*
X159651016Y-88480848D01*
X159773632Y-88852136D01*
X159912156Y-89111296D01*
X160212362Y-89249253D01*
X161417595Y-88044020D01*
X161776805Y-88044020D01*
X162982038Y-89249253D01*
X163282244Y-89111296D01*
X163458082Y-88762053D01*
X163562407Y-88385216D01*
X163591209Y-87995267D01*
X163543384Y-87607192D01*
X163420768Y-87235904D01*
X163282244Y-86976744D01*
X163211037Y-86944021D01*
X163824357Y-86944021D01*
X163824357Y-89144019D01*
X163836517Y-89267481D01*
X163872529Y-89386198D01*
X163931010Y-89495608D01*
X164009713Y-89591507D01*
X164105612Y-89670210D01*
X164215022Y-89728691D01*
X164333739Y-89764703D01*
X164457201Y-89776863D01*
X166657199Y-89776863D01*
X166780661Y-89764703D01*
X166899378Y-89728691D01*
X167008788Y-89670210D01*
X167104687Y-89591507D01*
X167183390Y-89495608D01*
X167241871Y-89386198D01*
X167277883Y-89267481D01*
X167290043Y-89144019D01*
X167290043Y-86944021D01*
X167277883Y-86820559D01*
X167241871Y-86701842D01*
X167183390Y-86592432D01*
X167104687Y-86496533D01*
X167008788Y-86417830D01*
X166899378Y-86359349D01*
X166780661Y-86323337D01*
X166657199Y-86311177D01*
X164457201Y-86311177D01*
X164333739Y-86323337D01*
X164215022Y-86359349D01*
X164105612Y-86417830D01*
X164009713Y-86496533D01*
X163931010Y-86592432D01*
X163872529Y-86701842D01*
X163836517Y-86820559D01*
X163824357Y-86944021D01*
X163211037Y-86944021D01*
X162982038Y-86838787D01*
X161776805Y-88044020D01*
X161417595Y-88044020D01*
X160212362Y-86838787D01*
X159912156Y-86976744D01*
X159736318Y-87325987D01*
X159631993Y-87702824D01*
X159603191Y-88092773D01*
X158698176Y-88092773D01*
X158103962Y-87498561D01*
X158003425Y-87416052D01*
X157850374Y-87334245D01*
X157684305Y-87283869D01*
X157511600Y-87266858D01*
X157338895Y-87283869D01*
X157172826Y-87334245D01*
X157019775Y-87416052D01*
X156885626Y-87526146D01*
X156775532Y-87660295D01*
X156693725Y-87813346D01*
X156643349Y-87979415D01*
X156626338Y-88152120D01*
X156643349Y-88324825D01*
X156693725Y-88490894D01*
X156775532Y-88643945D01*
X156858041Y-88744482D01*
X157335601Y-89222043D01*
X157335600Y-89481120D01*
X153932752Y-89481120D01*
X153907906Y-89478673D01*
X153883060Y-89481120D01*
X153883052Y-89481120D01*
X153808713Y-89488442D01*
X153713331Y-89517375D01*
X153625427Y-89564361D01*
X153548379Y-89627593D01*
X153532534Y-89646900D01*
X149142662Y-94036773D01*
X149000331Y-94036773D01*
X148849444Y-94066786D01*
X148707311Y-94125660D01*
X148579394Y-94211131D01*
X148478752Y-94311773D01*
X147135754Y-94311773D01*
X147035112Y-94211131D01*
X146907195Y-94125660D01*
X146882277Y-94115338D01*
X154338433Y-86659182D01*
X160391967Y-86659182D01*
X161597200Y-87864415D01*
X162802433Y-86659182D01*
X162664476Y-86358976D01*
X162315233Y-86183138D01*
X161938396Y-86078813D01*
X161548447Y-86050011D01*
X161160372Y-86097836D01*
X160789084Y-86220452D01*
X160529924Y-86358976D01*
X160391967Y-86659182D01*
X154338433Y-86659182D01*
X156133517Y-84864099D01*
X156210791Y-84896107D01*
X156361678Y-84926120D01*
X156515522Y-84926120D01*
X156666409Y-84896107D01*
X156808542Y-84837233D01*
X156936459Y-84751762D01*
X157045242Y-84642979D01*
X157130713Y-84515062D01*
X157189587Y-84372929D01*
X157219600Y-84222042D01*
X157219600Y-84068198D01*
X157189587Y-83917311D01*
X157130713Y-83775178D01*
X157045242Y-83647261D01*
X156936459Y-83538478D01*
X156808542Y-83453007D01*
X156666409Y-83394133D01*
X156515522Y-83364120D01*
X156361678Y-83364120D01*
X156210791Y-83394133D01*
X156068658Y-83453007D01*
X155940741Y-83538478D01*
X155831958Y-83647261D01*
X155746487Y-83775178D01*
X155714831Y-83851601D01*
X145472033Y-94094400D01*
X145452726Y-94110245D01*
X145389494Y-94187293D01*
X145369373Y-94224937D01*
X145342507Y-94275198D01*
X145313574Y-94370580D01*
X145303805Y-94469772D01*
X144319949Y-94469772D01*
X160618240Y-78171482D01*
X160637547Y-78155637D01*
X160700779Y-78078589D01*
X160747765Y-77990685D01*
X160776698Y-77895303D01*
X160784020Y-77820964D01*
X160784020Y-77820957D01*
X160786467Y-77796111D01*
X160784020Y-77771265D01*
X160784020Y-71824290D01*
X161110563Y-72530993D01*
G37*
%TD.AperFunction*%
D17*
X112111631Y-98616767D02*
X112186320Y-98624123D01*
X112921681Y-98624123D01*
X112921681Y-98805444D01*
X112919233Y-98830300D01*
X112929002Y-98929492D01*
X112957935Y-99024874D01*
X112964859Y-99037827D01*
X113004922Y-99112779D01*
X113068154Y-99189827D01*
X113087461Y-99205672D01*
X114768207Y-100886419D01*
X114784052Y-100905726D01*
X114861100Y-100968958D01*
X114893425Y-100986236D01*
X123066118Y-109158930D01*
X121573762Y-109158930D01*
X112065340Y-99650509D01*
X112065340Y-98602725D01*
X112111631Y-98616767D01*
%TA.AperFunction,Conductor*%
D18*
G36*
X112111631Y-98616767D02*
G01*
X112186320Y-98624123D01*
X112921681Y-98624123D01*
X112921681Y-98805444D01*
X112919233Y-98830300D01*
X112929002Y-98929492D01*
X112957935Y-99024874D01*
X112964859Y-99037827D01*
X113004922Y-99112779D01*
X113068154Y-99189827D01*
X113087461Y-99205672D01*
X114768207Y-100886419D01*
X114784052Y-100905726D01*
X114861100Y-100968958D01*
X114893425Y-100986236D01*
X123066118Y-109158930D01*
X121573762Y-109158930D01*
X112065340Y-99650509D01*
X112065340Y-98602725D01*
X112111631Y-98616767D01*
G37*
%TD.AperFunction*%
D17*
X133217541Y-56134546D02*
X133217536Y-56134550D01*
X132780408Y-56571678D01*
X132638078Y-56571678D01*
X132487191Y-56601691D01*
X132345058Y-56660565D01*
X132217141Y-56746036D01*
X132108358Y-56854819D01*
X132022887Y-56982736D01*
X131964013Y-57124869D01*
X131934000Y-57275756D01*
X131934000Y-57429600D01*
X131964013Y-57580487D01*
X132022887Y-57722620D01*
X132108358Y-57850537D01*
X132217141Y-57959320D01*
X132345058Y-58044791D01*
X132487191Y-58103665D01*
X132630039Y-58132079D01*
X132630039Y-58147606D01*
X132660052Y-58298493D01*
X132718926Y-58440626D01*
X132804397Y-58568543D01*
X132913180Y-58677326D01*
X133021436Y-58749660D01*
X129891095Y-58749660D01*
X129866249Y-58747213D01*
X129841403Y-58749660D01*
X129841396Y-58749660D01*
X129776944Y-58756008D01*
X129767056Y-58756982D01*
X129747887Y-58762797D01*
X129671675Y-58785915D01*
X129583771Y-58832901D01*
X129506723Y-58896133D01*
X129490878Y-58915440D01*
X128008199Y-60398120D01*
X123367245Y-60398120D01*
X123342399Y-60395673D01*
X123317553Y-60398120D01*
X123317546Y-60398120D01*
X123243207Y-60405442D01*
X123147825Y-60434375D01*
X123059921Y-60481361D01*
X122982873Y-60544593D01*
X122967029Y-60563899D01*
X122861708Y-60669220D01*
X122719378Y-60669220D01*
X122568491Y-60699233D01*
X122426358Y-60758107D01*
X122298441Y-60843578D01*
X122189658Y-60952361D01*
X122104187Y-61080278D01*
X122045313Y-61222411D01*
X122015300Y-61373298D01*
X122015300Y-61527142D01*
X122045313Y-61678029D01*
X122104187Y-61820162D01*
X122189658Y-61948079D01*
X122298441Y-62056862D01*
X122426358Y-62142333D01*
X122568491Y-62201207D01*
X122719378Y-62231220D01*
X122873222Y-62231220D01*
X123024109Y-62201207D01*
X123166242Y-62142333D01*
X123294159Y-62056862D01*
X123402942Y-61948079D01*
X123488413Y-61820162D01*
X123547287Y-61678029D01*
X123577300Y-61527142D01*
X123577300Y-61410120D01*
X126018114Y-61410120D01*
X125969613Y-61527211D01*
X125939600Y-61678098D01*
X125939600Y-61831942D01*
X125969613Y-61982829D01*
X126028487Y-62124962D01*
X126113958Y-62252879D01*
X126222741Y-62361662D01*
X126350658Y-62447133D01*
X126492791Y-62506007D01*
X126643678Y-62536020D01*
X126797522Y-62536020D01*
X126948409Y-62506007D01*
X127090542Y-62447133D01*
X127160004Y-62400720D01*
X135722914Y-62400720D01*
X135747760Y-62403167D01*
X135772606Y-62400720D01*
X135772614Y-62400720D01*
X135846953Y-62393398D01*
X135942335Y-62364465D01*
X136030239Y-62317479D01*
X136107287Y-62254247D01*
X136123136Y-62234935D01*
X137082572Y-61275500D01*
X140386354Y-61275500D01*
X140411200Y-61277947D01*
X140436046Y-61275500D01*
X140436054Y-61275500D01*
X140510393Y-61268178D01*
X140605775Y-61239245D01*
X140693679Y-61192259D01*
X140770727Y-61129027D01*
X140786576Y-61109715D01*
X141170631Y-60725660D01*
X141974974Y-60725660D01*
X141993915Y-60917970D01*
X142050009Y-61102889D01*
X142141102Y-61273311D01*
X142263692Y-61422688D01*
X142413069Y-61545278D01*
X142583491Y-61636371D01*
X142768410Y-61692465D01*
X142912533Y-61706660D01*
X143508907Y-61706660D01*
X143653030Y-61692465D01*
X143837949Y-61636371D01*
X144008371Y-61545278D01*
X144157748Y-61422688D01*
X144280338Y-61273311D01*
X144331711Y-61177199D01*
X144412080Y-61210489D01*
X144543647Y-61236660D01*
X144677793Y-61236660D01*
X144809360Y-61210489D01*
X144933294Y-61159154D01*
X145044832Y-61084627D01*
X145139687Y-60989772D01*
X145214214Y-60878234D01*
X145265549Y-60754300D01*
X145291720Y-60622733D01*
X145291720Y-60488587D01*
X145265549Y-60357020D01*
X145214214Y-60233086D01*
X145139687Y-60121548D01*
X145044832Y-60026693D01*
X144933294Y-59952166D01*
X144809360Y-59900831D01*
X144677793Y-59874660D01*
X144543647Y-59874660D01*
X144412080Y-59900831D01*
X144288146Y-59952166D01*
X144176608Y-60026693D01*
X144165375Y-60037926D01*
X144157748Y-60028632D01*
X144008371Y-59906042D01*
X143837949Y-59814949D01*
X143653030Y-59758855D01*
X143508907Y-59744660D01*
X142912533Y-59744660D01*
X142768410Y-59758855D01*
X142583491Y-59814949D01*
X142413069Y-59906042D01*
X142263692Y-60028632D01*
X142141102Y-60178009D01*
X142050009Y-60348431D01*
X141993915Y-60533350D01*
X141974974Y-60725660D01*
X141170631Y-60725660D01*
X141546440Y-60349852D01*
X141565747Y-60334007D01*
X141628979Y-60256959D01*
X141675965Y-60169055D01*
X141704898Y-60073673D01*
X141712220Y-59999334D01*
X141712220Y-59999327D01*
X141714667Y-59974481D01*
X141712220Y-59949635D01*
X141712220Y-59904160D01*
X141812862Y-59803518D01*
X141898333Y-59675601D01*
X141957207Y-59533468D01*
X141987220Y-59382581D01*
X141987220Y-59228737D01*
X141957207Y-59077850D01*
X141898333Y-58935717D01*
X141812862Y-58807800D01*
X141704079Y-58699017D01*
X141576162Y-58613546D01*
X141434029Y-58554672D01*
X141283142Y-58524659D01*
X141129298Y-58524659D01*
X140978411Y-58554672D01*
X140836278Y-58613546D01*
X140708361Y-58699017D01*
X140650608Y-58756770D01*
X140642389Y-58715451D01*
X140583515Y-58573318D01*
X140498044Y-58445401D01*
X140389261Y-58336618D01*
X140261344Y-58251147D01*
X140119211Y-58192273D01*
X139968324Y-58162260D01*
X139814480Y-58162260D01*
X139663593Y-58192273D01*
X139521460Y-58251147D01*
X139393543Y-58336618D01*
X139292901Y-58437260D01*
X138979684Y-58437260D01*
X138954838Y-58434813D01*
X138929992Y-58437260D01*
X138929984Y-58437260D01*
X138855645Y-58444582D01*
X138760263Y-58473515D01*
X138672359Y-58520501D01*
X138595311Y-58583733D01*
X138579466Y-58603040D01*
X138416502Y-58766004D01*
X138274172Y-58766004D01*
X138123285Y-58796017D01*
X137981152Y-58854891D01*
X137853235Y-58940362D01*
X137744452Y-59049145D01*
X137729249Y-59071899D01*
X137720487Y-59027851D01*
X137661613Y-58885718D01*
X137576142Y-58757801D01*
X137467359Y-58649018D01*
X137339442Y-58563547D01*
X137197309Y-58504673D01*
X137046422Y-58474660D01*
X136892578Y-58474660D01*
X136741691Y-58504673D01*
X136599558Y-58563547D01*
X136471641Y-58649018D01*
X136370999Y-58749660D01*
X135462277Y-58749660D01*
X135637949Y-58696371D01*
X135808371Y-58605278D01*
X135957748Y-58482688D01*
X136080338Y-58333311D01*
X136171431Y-58162889D01*
X136227525Y-57977970D01*
X136246466Y-57785660D01*
X136227525Y-57593350D01*
X136171431Y-57408431D01*
X136080338Y-57238009D01*
X135981456Y-57117520D01*
X142239984Y-57117520D01*
X142141102Y-57238009D01*
X142050009Y-57408431D01*
X141993915Y-57593350D01*
X141974974Y-57785660D01*
X141993915Y-57977970D01*
X142050009Y-58162889D01*
X142141102Y-58333311D01*
X142263692Y-58482688D01*
X142413069Y-58605278D01*
X142583491Y-58696371D01*
X142768410Y-58752465D01*
X142912533Y-58766660D01*
X143508907Y-58766660D01*
X143653030Y-58752465D01*
X143837949Y-58696371D01*
X144008371Y-58605278D01*
X144157748Y-58482688D01*
X144280338Y-58333311D01*
X144371431Y-58162889D01*
X144427525Y-57977970D01*
X144446466Y-57785660D01*
X144427525Y-57593350D01*
X144371431Y-57408431D01*
X144280338Y-57238009D01*
X144181456Y-57117520D01*
X145865809Y-57117520D01*
X146563628Y-57815340D01*
X146579473Y-57834647D01*
X146656521Y-57897879D01*
X146716121Y-57929736D01*
X146744425Y-57944865D01*
X146839807Y-57973798D01*
X146939000Y-57983568D01*
X146963854Y-57981120D01*
X147566199Y-57981120D01*
X150668998Y-61083920D01*
X148958682Y-61083920D01*
X148951913Y-61067578D01*
X148866442Y-60939661D01*
X148757659Y-60830878D01*
X148629742Y-60745407D01*
X148487609Y-60686533D01*
X148336722Y-60656520D01*
X148182878Y-60656520D01*
X148031991Y-60686533D01*
X147889858Y-60745407D01*
X147761941Y-60830878D01*
X147653158Y-60939661D01*
X147567687Y-61067578D01*
X147508813Y-61209711D01*
X147478800Y-61360598D01*
X147478800Y-61514442D01*
X147508813Y-61665329D01*
X147567687Y-61807462D01*
X147653158Y-61935379D01*
X147761941Y-62044162D01*
X147889858Y-62129633D01*
X148031991Y-62188507D01*
X148182878Y-62218520D01*
X148336722Y-62218520D01*
X148487609Y-62188507D01*
X148629742Y-62129633D01*
X148680197Y-62095920D01*
X156398987Y-62095920D01*
X158872001Y-64568935D01*
X158872001Y-68166538D01*
X158545367Y-67839905D01*
X158529518Y-67820593D01*
X158452470Y-67757361D01*
X158364566Y-67710375D01*
X158269184Y-67681442D01*
X158194845Y-67674120D01*
X158194837Y-67674120D01*
X158169991Y-67671673D01*
X158145145Y-67674120D01*
X158116604Y-67674120D01*
X158015962Y-67573478D01*
X157888045Y-67488007D01*
X157745912Y-67429133D01*
X157595025Y-67399120D01*
X157441181Y-67399120D01*
X157290294Y-67429133D01*
X157148161Y-67488007D01*
X157020244Y-67573478D01*
X156911461Y-67682261D01*
X156825990Y-67810178D01*
X156767116Y-67952311D01*
X156737103Y-68103198D01*
X156737103Y-68257042D01*
X156767116Y-68407929D01*
X156825990Y-68550062D01*
X156911461Y-68677979D01*
X157020244Y-68786762D01*
X157148161Y-68872233D01*
X157290294Y-68931107D01*
X157441181Y-68961120D01*
X157492260Y-68961120D01*
X157452002Y-69058311D01*
X157421989Y-69209198D01*
X157421989Y-69363042D01*
X157452002Y-69513929D01*
X157510876Y-69656062D01*
X157596347Y-69783979D01*
X157696990Y-69884622D01*
X157696989Y-76270719D01*
X145090964Y-88876744D01*
X145571181Y-87934267D01*
X145910662Y-86889451D01*
X146082518Y-85804392D01*
X146082518Y-84705808D01*
X145910662Y-83620749D01*
X145571181Y-82575933D01*
X145072434Y-81597088D01*
X144426702Y-80708314D01*
X143649886Y-79931498D01*
X142761112Y-79285766D01*
X141782267Y-78787019D01*
X141316170Y-78635575D01*
X144861734Y-78635575D01*
X144861734Y-79027839D01*
X144938261Y-79412567D01*
X145088375Y-79774972D01*
X145306305Y-80101128D01*
X145583678Y-80378501D01*
X145909834Y-80596431D01*
X146272239Y-80746545D01*
X146656967Y-80823072D01*
X147049231Y-80823072D01*
X147433959Y-80746545D01*
X147796364Y-80596431D01*
X148122520Y-80378501D01*
X148399893Y-80101128D01*
X148617823Y-79774972D01*
X148767937Y-79412567D01*
X148844464Y-79027839D01*
X148844464Y-78635575D01*
X148767937Y-78250847D01*
X148617823Y-77888442D01*
X148399893Y-77562286D01*
X148122520Y-77284913D01*
X147796364Y-77066983D01*
X147433959Y-76916869D01*
X147049231Y-76840342D01*
X146656967Y-76840342D01*
X146272239Y-76916869D01*
X145909834Y-77066983D01*
X145583678Y-77284913D01*
X145306305Y-77562286D01*
X145088375Y-77888442D01*
X144938261Y-78250847D01*
X144861734Y-78635575D01*
X141316170Y-78635575D01*
X140737451Y-78447538D01*
X139652392Y-78275682D01*
X138553808Y-78275682D01*
X137468749Y-78447538D01*
X136423933Y-78787019D01*
X135445088Y-79285766D01*
X134556314Y-79931498D01*
X133779498Y-80708314D01*
X133133766Y-81597088D01*
X132635019Y-82575933D01*
X132295538Y-83620749D01*
X132123682Y-84705808D01*
X132123682Y-85804392D01*
X132295538Y-86889451D01*
X132635019Y-87934267D01*
X133133766Y-88913112D01*
X133779498Y-89801886D01*
X134556314Y-90578702D01*
X135445088Y-91224434D01*
X136423933Y-91723181D01*
X137468749Y-92062662D01*
X138553808Y-92234518D01*
X139652392Y-92234518D01*
X140737451Y-92062662D01*
X141782267Y-91723181D01*
X142724745Y-91242964D01*
X138597781Y-95369928D01*
X138578474Y-95385773D01*
X138515242Y-95462821D01*
X138498912Y-95493372D01*
X138468255Y-95550726D01*
X138439322Y-95646108D01*
X138429553Y-95745300D01*
X138432001Y-95770156D01*
X138432000Y-105590438D01*
X138047000Y-105975438D01*
X138047000Y-94179721D01*
X138147642Y-94079079D01*
X138233113Y-93951162D01*
X138291987Y-93809029D01*
X138322000Y-93658142D01*
X138322000Y-93504298D01*
X138291987Y-93353411D01*
X138233113Y-93211278D01*
X138147642Y-93083361D01*
X138038859Y-92974578D01*
X137910942Y-92889107D01*
X137768809Y-92830233D01*
X137617922Y-92800220D01*
X137464078Y-92800220D01*
X137313191Y-92830233D01*
X137171058Y-92889107D01*
X137043141Y-92974578D01*
X136934358Y-93083361D01*
X136848887Y-93211278D01*
X136790013Y-93353411D01*
X136760000Y-93504298D01*
X136760000Y-93658142D01*
X136790013Y-93809029D01*
X136848887Y-93951162D01*
X136934358Y-94079079D01*
X137035001Y-94179722D01*
X137035001Y-98214330D01*
X137001976Y-98181305D01*
X136986127Y-98161993D01*
X136909079Y-98098761D01*
X136821175Y-98051775D01*
X136725793Y-98022842D01*
X136651454Y-98015520D01*
X136651446Y-98015520D01*
X136626600Y-98013073D01*
X136601754Y-98015520D01*
X136031301Y-98015520D01*
X135930659Y-97914878D01*
X135802742Y-97829407D01*
X135660609Y-97770533D01*
X135509722Y-97740520D01*
X135355878Y-97740520D01*
X135204991Y-97770533D01*
X135062858Y-97829407D01*
X134934941Y-97914878D01*
X134826158Y-98023661D01*
X134740687Y-98151578D01*
X134681813Y-98293711D01*
X134651800Y-98444598D01*
X134651800Y-98598442D01*
X134681813Y-98749329D01*
X134740687Y-98891462D01*
X134797878Y-98977054D01*
X134753884Y-99021048D01*
X134668413Y-99148965D01*
X134609539Y-99291098D01*
X134579526Y-99441985D01*
X134579526Y-99595829D01*
X134609539Y-99746716D01*
X134668413Y-99888849D01*
X134753884Y-100016766D01*
X134862667Y-100125549D01*
X134990584Y-100211020D01*
X135132717Y-100269894D01*
X135283604Y-100299907D01*
X135437448Y-100299907D01*
X135588335Y-100269894D01*
X135730468Y-100211020D01*
X135839941Y-100137873D01*
X136134981Y-100432913D01*
X136134981Y-102754700D01*
X136108459Y-102728178D01*
X135980542Y-102642707D01*
X135838409Y-102583833D01*
X135687522Y-102553820D01*
X135533678Y-102553820D01*
X135382791Y-102583833D01*
X135240658Y-102642707D01*
X135112741Y-102728178D01*
X135012099Y-102828820D01*
X130329001Y-102828820D01*
X130253759Y-102753578D01*
X130125842Y-102668107D01*
X129983709Y-102609233D01*
X129832822Y-102579220D01*
X129678978Y-102579220D01*
X129528091Y-102609233D01*
X129385958Y-102668107D01*
X129258041Y-102753578D01*
X129149258Y-102862361D01*
X129063787Y-102990278D01*
X129004913Y-103132411D01*
X128974900Y-103283298D01*
X128974900Y-103437142D01*
X129004913Y-103588029D01*
X129063787Y-103730162D01*
X129149258Y-103858079D01*
X129258041Y-103966862D01*
X129385958Y-104052333D01*
X129528091Y-104111207D01*
X129678978Y-104141220D01*
X129832822Y-104141220D01*
X129983709Y-104111207D01*
X130125842Y-104052333D01*
X130253759Y-103966862D01*
X130362542Y-103858079D01*
X130374074Y-103840820D01*
X135012099Y-103840820D01*
X135112741Y-103941462D01*
X135240658Y-104026933D01*
X135382791Y-104085807D01*
X135533678Y-104115820D01*
X135687522Y-104115820D01*
X135838409Y-104085807D01*
X135980542Y-104026933D01*
X136108459Y-103941462D01*
X136134980Y-103914941D01*
X136134980Y-105978228D01*
X135918889Y-106194320D01*
X128047792Y-106194320D01*
X123696000Y-101842529D01*
X123696000Y-95688874D01*
X123698448Y-95664020D01*
X123688678Y-95564827D01*
X123659745Y-95469445D01*
X123655635Y-95461756D01*
X123612759Y-95381541D01*
X123549527Y-95304493D01*
X123530220Y-95288648D01*
X122782626Y-94541055D01*
X122766777Y-94521743D01*
X122689729Y-94458511D01*
X122601825Y-94411525D01*
X122506443Y-94382592D01*
X122432104Y-94375270D01*
X122432096Y-94375270D01*
X122407250Y-94372823D01*
X122382404Y-94375270D01*
X119765902Y-94375270D01*
X119111696Y-93721065D01*
X119095847Y-93701753D01*
X119018799Y-93638521D01*
X118930895Y-93591535D01*
X118846435Y-93565915D01*
X118840021Y-93544772D01*
X118804642Y-93478584D01*
X118761718Y-93426280D01*
X118804642Y-93373976D01*
X118840021Y-93307788D01*
X118843209Y-93297280D01*
X119433894Y-93297280D01*
X119458740Y-93299727D01*
X119483586Y-93297280D01*
X119483594Y-93297280D01*
X119557933Y-93289958D01*
X119653315Y-93261025D01*
X119741219Y-93214039D01*
X119818267Y-93150807D01*
X119834116Y-93131495D01*
X120906644Y-92058967D01*
X121611736Y-92058967D01*
X121611736Y-92451231D01*
X121688263Y-92835959D01*
X121838377Y-93198364D01*
X122056307Y-93524520D01*
X122333680Y-93801893D01*
X122659836Y-94019823D01*
X123022241Y-94169937D01*
X123406969Y-94246464D01*
X123799233Y-94246464D01*
X124183961Y-94169937D01*
X124546366Y-94019823D01*
X124872522Y-93801893D01*
X125149895Y-93524520D01*
X125367825Y-93198364D01*
X125517939Y-92835959D01*
X125594466Y-92451231D01*
X125594466Y-92058967D01*
X125517939Y-91674239D01*
X125367825Y-91311834D01*
X125149895Y-90985678D01*
X124872522Y-90708305D01*
X124546366Y-90490375D01*
X124183961Y-90340261D01*
X123799233Y-90263734D01*
X123406969Y-90263734D01*
X123022241Y-90340261D01*
X122659836Y-90490375D01*
X122333680Y-90708305D01*
X122056307Y-90985678D01*
X121838377Y-91311834D01*
X121688263Y-91674239D01*
X121611736Y-92058967D01*
X120906644Y-92058967D01*
X121333120Y-91632492D01*
X121352427Y-91616647D01*
X121415659Y-91539599D01*
X121462645Y-91451695D01*
X121491578Y-91356313D01*
X121498900Y-91281974D01*
X121498900Y-91281973D01*
X121501348Y-91257120D01*
X121498900Y-91232266D01*
X121498900Y-82495721D01*
X121599542Y-82395079D01*
X121685013Y-82267162D01*
X121743887Y-82125029D01*
X121773900Y-81974142D01*
X121773900Y-81820298D01*
X121743887Y-81669411D01*
X121685013Y-81527278D01*
X121599542Y-81399361D01*
X121490759Y-81290578D01*
X121362842Y-81205107D01*
X121220709Y-81146233D01*
X121069822Y-81116220D01*
X120915978Y-81116220D01*
X120765091Y-81146233D01*
X120622958Y-81205107D01*
X120495041Y-81290578D01*
X120386258Y-81399361D01*
X120311314Y-81511523D01*
X120253342Y-81424761D01*
X120144559Y-81315978D01*
X120016642Y-81230507D01*
X119874509Y-81171633D01*
X119723622Y-81141620D01*
X119569778Y-81141620D01*
X119418891Y-81171633D01*
X119276758Y-81230507D01*
X119148841Y-81315978D01*
X119040058Y-81424761D01*
X118954587Y-81552678D01*
X118895713Y-81694811D01*
X118865700Y-81845698D01*
X118865700Y-81999542D01*
X118895713Y-82150429D01*
X118954587Y-82292562D01*
X119040058Y-82420479D01*
X119140700Y-82521121D01*
X119140701Y-89653571D01*
X119140700Y-90252508D01*
X118988749Y-90404459D01*
X118962570Y-90378280D01*
X117413320Y-90378280D01*
X117413320Y-90398280D01*
X117159320Y-90398280D01*
X117159320Y-90378280D01*
X115610070Y-90378280D01*
X115451320Y-90537030D01*
X115448248Y-90621280D01*
X115460508Y-90745762D01*
X115496818Y-90865460D01*
X115555783Y-90975774D01*
X115635135Y-91072465D01*
X115705548Y-91130251D01*
X115703477Y-91151280D01*
X115703477Y-91891280D01*
X115710833Y-91965969D01*
X115732619Y-92037788D01*
X115767998Y-92103976D01*
X115810922Y-92156280D01*
X115767998Y-92208584D01*
X115732619Y-92274772D01*
X115710833Y-92346591D01*
X115703477Y-92421280D01*
X115703477Y-93161280D01*
X115710833Y-93235969D01*
X115732619Y-93307788D01*
X115767998Y-93373976D01*
X115810922Y-93426280D01*
X115767998Y-93478584D01*
X115732619Y-93544772D01*
X115710833Y-93616591D01*
X115703477Y-93691280D01*
X115703477Y-94431280D01*
X115710833Y-94505969D01*
X115732619Y-94577788D01*
X115767998Y-94643976D01*
X115810922Y-94696280D01*
X115767998Y-94748584D01*
X115732619Y-94814772D01*
X115710833Y-94886591D01*
X115703477Y-94961280D01*
X115703477Y-95701280D01*
X115710833Y-95775969D01*
X115732619Y-95847788D01*
X115767998Y-95913976D01*
X115810922Y-95966280D01*
X115767998Y-96018584D01*
X115732619Y-96084772D01*
X115710833Y-96156591D01*
X115703477Y-96231280D01*
X115703477Y-96971280D01*
X115710833Y-97045969D01*
X115732619Y-97117788D01*
X115767998Y-97183976D01*
X115810922Y-97236280D01*
X115767998Y-97288584D01*
X115732619Y-97354772D01*
X115710833Y-97426591D01*
X115703477Y-97501280D01*
X115703477Y-98241280D01*
X115710833Y-98315969D01*
X115732619Y-98387788D01*
X115767998Y-98453976D01*
X115815609Y-98511991D01*
X115873624Y-98559602D01*
X115939812Y-98594981D01*
X116011631Y-98616767D01*
X116086320Y-98624123D01*
X117773592Y-98624123D01*
X127142512Y-107993044D01*
X127158352Y-108012345D01*
X127177653Y-108028185D01*
X127177657Y-108028189D01*
X127235400Y-108075577D01*
X127323304Y-108122564D01*
X127418686Y-108151497D01*
X127517879Y-108161267D01*
X127542743Y-108158818D01*
X135863619Y-108158820D01*
X135313519Y-108708920D01*
X124047292Y-108708920D01*
X115544355Y-100205984D01*
X115528506Y-100186672D01*
X115451458Y-100123440D01*
X115419135Y-100106163D01*
X113937094Y-98624123D01*
X114586320Y-98624123D01*
X114661009Y-98616767D01*
X114732828Y-98594981D01*
X114799016Y-98559602D01*
X114857031Y-98511991D01*
X114904642Y-98453976D01*
X114940021Y-98387788D01*
X114961807Y-98315969D01*
X114969163Y-98241280D01*
X114969163Y-97501280D01*
X114961807Y-97426591D01*
X114940021Y-97354772D01*
X114904642Y-97288584D01*
X114861718Y-97236280D01*
X114904642Y-97183976D01*
X114940021Y-97117788D01*
X114961807Y-97045969D01*
X114969163Y-96971280D01*
X114969163Y-96231280D01*
X114961807Y-96156591D01*
X114940021Y-96084772D01*
X114904642Y-96018584D01*
X114861718Y-95966280D01*
X114904642Y-95913976D01*
X114940021Y-95847788D01*
X114961807Y-95775969D01*
X114969163Y-95701280D01*
X114969163Y-94961280D01*
X114961807Y-94886591D01*
X114940021Y-94814772D01*
X114904642Y-94748584D01*
X114861718Y-94696280D01*
X114904642Y-94643976D01*
X114940021Y-94577788D01*
X114961807Y-94505969D01*
X114969163Y-94431280D01*
X114969163Y-93691280D01*
X114961807Y-93616591D01*
X114940021Y-93544772D01*
X114904642Y-93478584D01*
X114861718Y-93426280D01*
X114904642Y-93373976D01*
X114940021Y-93307788D01*
X114961807Y-93235969D01*
X114969163Y-93161280D01*
X114969163Y-92421280D01*
X114961807Y-92346591D01*
X114940021Y-92274772D01*
X114904642Y-92208584D01*
X114861718Y-92156280D01*
X114904642Y-92103976D01*
X114940021Y-92037788D01*
X114961807Y-91965969D01*
X114969163Y-91891280D01*
X114969163Y-91151280D01*
X114961807Y-91076591D01*
X114940021Y-91004772D01*
X114904642Y-90938584D01*
X114861718Y-90886280D01*
X114904642Y-90833976D01*
X114940021Y-90767788D01*
X114961807Y-90695969D01*
X114969163Y-90621280D01*
X114969163Y-89881280D01*
X114961807Y-89806591D01*
X114940021Y-89734772D01*
X114904642Y-89668584D01*
X114861718Y-89616280D01*
X114904642Y-89563976D01*
X114940021Y-89497788D01*
X114961807Y-89425969D01*
X114969163Y-89351280D01*
X115448248Y-89351280D01*
X115460508Y-89475762D01*
X115496818Y-89595460D01*
X115507947Y-89616280D01*
X115496818Y-89637100D01*
X115460508Y-89756798D01*
X115448248Y-89881280D01*
X115451320Y-89965530D01*
X115610070Y-90124280D01*
X117159320Y-90124280D01*
X117159320Y-89108280D01*
X117413320Y-89108280D01*
X117413320Y-90124280D01*
X118962570Y-90124280D01*
X119121320Y-89965530D01*
X119124392Y-89881280D01*
X119112132Y-89756798D01*
X119075822Y-89637100D01*
X119064693Y-89616280D01*
X119075822Y-89595460D01*
X119112132Y-89475762D01*
X119124392Y-89351280D01*
X119121320Y-89267030D01*
X118962570Y-89108280D01*
X117413320Y-89108280D01*
X117159320Y-89108280D01*
X115610070Y-89108280D01*
X115451320Y-89267030D01*
X115448248Y-89351280D01*
X114969163Y-89351280D01*
X114969163Y-88611280D01*
X115448248Y-88611280D01*
X115451320Y-88695530D01*
X115610070Y-88854280D01*
X117159320Y-88854280D01*
X117159320Y-88135030D01*
X117413320Y-88135030D01*
X117413320Y-88854280D01*
X118962570Y-88854280D01*
X119121320Y-88695530D01*
X119124392Y-88611280D01*
X119112132Y-88486798D01*
X119075822Y-88367100D01*
X119016857Y-88256786D01*
X118937505Y-88160095D01*
X118840814Y-88080743D01*
X118730500Y-88021778D01*
X118610802Y-87985468D01*
X118486320Y-87973208D01*
X117572070Y-87976280D01*
X117413320Y-88135030D01*
X117159320Y-88135030D01*
X117000570Y-87976280D01*
X116086320Y-87973208D01*
X115961838Y-87985468D01*
X115842140Y-88021778D01*
X115731826Y-88080743D01*
X115635135Y-88160095D01*
X115555783Y-88256786D01*
X115496818Y-88367100D01*
X115460508Y-88486798D01*
X115448248Y-88611280D01*
X114969163Y-88611280D01*
X114961807Y-88536591D01*
X114940021Y-88464772D01*
X114904642Y-88398584D01*
X114857031Y-88340569D01*
X114799016Y-88292958D01*
X114732828Y-88257579D01*
X114661009Y-88235793D01*
X114586320Y-88228437D01*
X113976654Y-88228437D01*
X113863679Y-88135721D01*
X113728001Y-88063200D01*
X113580782Y-88018542D01*
X113427680Y-88003462D01*
X113274578Y-88018542D01*
X113253223Y-88025020D01*
X112454640Y-88025020D01*
X112454640Y-82346631D01*
X114321600Y-82346631D01*
X114321600Y-82687609D01*
X114388121Y-83022034D01*
X114518607Y-83337056D01*
X114708044Y-83620568D01*
X114949152Y-83861676D01*
X115232664Y-84051113D01*
X115547686Y-84181599D01*
X115882111Y-84248120D01*
X116223089Y-84248120D01*
X116557514Y-84181599D01*
X116872536Y-84051113D01*
X117156048Y-83861676D01*
X117397156Y-83620568D01*
X117586593Y-83337056D01*
X117717079Y-83022034D01*
X117783600Y-82687609D01*
X117783600Y-82346631D01*
X117717079Y-82012206D01*
X117586593Y-81697184D01*
X117397156Y-81413672D01*
X117156048Y-81172564D01*
X116872536Y-80983127D01*
X116557514Y-80852641D01*
X116223089Y-80786120D01*
X115882111Y-80786120D01*
X115547686Y-80852641D01*
X115232664Y-80983127D01*
X114949152Y-81172564D01*
X114708044Y-81413672D01*
X114518607Y-81697184D01*
X114388121Y-82012206D01*
X114321600Y-82346631D01*
X112454640Y-82346631D01*
X112454640Y-77846840D01*
X112844359Y-77457121D01*
X114319757Y-77457121D01*
X114319757Y-79657119D01*
X114331917Y-79780581D01*
X114367929Y-79899298D01*
X114426410Y-80008708D01*
X114505113Y-80104607D01*
X114601012Y-80183310D01*
X114710422Y-80241791D01*
X114829139Y-80277803D01*
X114952601Y-80289963D01*
X117152599Y-80289963D01*
X117276061Y-80277803D01*
X117394778Y-80241791D01*
X117504188Y-80183310D01*
X117600087Y-80104607D01*
X117678790Y-80008708D01*
X117737271Y-79899298D01*
X117773283Y-79780581D01*
X117785443Y-79657119D01*
X117785443Y-78635575D01*
X129361736Y-78635575D01*
X129361736Y-79027839D01*
X129438263Y-79412567D01*
X129588377Y-79774972D01*
X129806307Y-80101128D01*
X130083680Y-80378501D01*
X130409836Y-80596431D01*
X130772241Y-80746545D01*
X131156969Y-80823072D01*
X131549233Y-80823072D01*
X131933961Y-80746545D01*
X132296366Y-80596431D01*
X132622522Y-80378501D01*
X132899895Y-80101128D01*
X133117825Y-79774972D01*
X133267939Y-79412567D01*
X133344466Y-79027839D01*
X133344466Y-78635575D01*
X133267939Y-78250847D01*
X133117825Y-77888442D01*
X132899895Y-77562286D01*
X132622522Y-77284913D01*
X132296366Y-77066983D01*
X131933961Y-76916869D01*
X131549233Y-76840342D01*
X131156969Y-76840342D01*
X130772241Y-76916869D01*
X130409836Y-77066983D01*
X130083680Y-77284913D01*
X129806307Y-77562286D01*
X129588377Y-77888442D01*
X129438263Y-78250847D01*
X129361736Y-78635575D01*
X117785443Y-78635575D01*
X117785443Y-77457121D01*
X117773283Y-77333659D01*
X117737271Y-77214942D01*
X117678790Y-77105532D01*
X117600087Y-77009633D01*
X117504188Y-76930930D01*
X117394778Y-76872449D01*
X117276061Y-76836437D01*
X117152599Y-76824277D01*
X114952601Y-76824277D01*
X114829139Y-76836437D01*
X114710422Y-76872449D01*
X114601012Y-76930930D01*
X114505113Y-77009633D01*
X114426410Y-77105532D01*
X114367929Y-77214942D01*
X114331917Y-77333659D01*
X114319757Y-77457121D01*
X112844359Y-77457121D01*
X113841181Y-76460300D01*
X115489967Y-76460300D01*
X115528324Y-76464078D01*
X115566681Y-76460300D01*
X115566684Y-76460300D01*
X115681427Y-76448999D01*
X115828646Y-76404340D01*
X115839295Y-76398648D01*
X115921223Y-76390579D01*
X116068442Y-76345920D01*
X116204119Y-76273399D01*
X116323042Y-76175802D01*
X116347498Y-76146002D01*
X121194481Y-71299020D01*
X131099081Y-71299020D01*
X131044987Y-71379978D01*
X130986113Y-71522111D01*
X130956100Y-71672998D01*
X130956100Y-71688420D01*
X129008201Y-71688420D01*
X128907559Y-71587778D01*
X128779642Y-71502307D01*
X128637509Y-71443433D01*
X128486622Y-71413420D01*
X128332778Y-71413420D01*
X128181891Y-71443433D01*
X128039758Y-71502307D01*
X127911841Y-71587778D01*
X127803058Y-71696561D01*
X127717587Y-71824478D01*
X127658713Y-71966611D01*
X127628700Y-72117498D01*
X127628700Y-72271342D01*
X127658713Y-72422229D01*
X127717587Y-72564362D01*
X127803058Y-72692279D01*
X127911841Y-72801062D01*
X128039758Y-72886533D01*
X128181891Y-72945407D01*
X128332778Y-72975420D01*
X128486622Y-72975420D01*
X128637509Y-72945407D01*
X128779642Y-72886533D01*
X128907559Y-72801062D01*
X129008201Y-72700420D01*
X131267754Y-72700420D01*
X131292600Y-72702867D01*
X131317446Y-72700420D01*
X131317454Y-72700420D01*
X131391793Y-72693098D01*
X131487175Y-72664165D01*
X131575079Y-72617179D01*
X131652127Y-72553947D01*
X131667976Y-72534635D01*
X131671691Y-72530920D01*
X131814022Y-72530920D01*
X131964909Y-72500907D01*
X132107042Y-72442033D01*
X132234959Y-72356562D01*
X132343742Y-72247779D01*
X132429213Y-72119862D01*
X132488087Y-71977729D01*
X132518100Y-71826842D01*
X132518100Y-71672998D01*
X132488087Y-71522111D01*
X132429213Y-71379978D01*
X132375119Y-71299020D01*
X143629279Y-71299020D01*
X144447987Y-72117729D01*
X144447992Y-72117733D01*
X145381437Y-73051179D01*
X145381442Y-73051183D01*
X145880200Y-73549942D01*
X145880200Y-74015693D01*
X145892949Y-74145126D01*
X145943326Y-74311195D01*
X146025133Y-74464245D01*
X146135226Y-74598395D01*
X146269376Y-74708488D01*
X146422426Y-74790295D01*
X146588495Y-74840672D01*
X146761200Y-74857682D01*
X146933906Y-74840672D01*
X147099975Y-74790295D01*
X147253025Y-74708488D01*
X147387175Y-74598395D01*
X147497268Y-74464245D01*
X147579075Y-74311195D01*
X147629452Y-74145126D01*
X147642200Y-74015693D01*
X147642200Y-73228290D01*
X147646462Y-73185020D01*
X147638961Y-73108861D01*
X147629452Y-73012314D01*
X147579075Y-72846245D01*
X147553035Y-72797528D01*
X147497268Y-72693194D01*
X147434883Y-72617178D01*
X147387175Y-72559045D01*
X147353562Y-72531460D01*
X146627363Y-71805262D01*
X146627359Y-71805257D01*
X145693913Y-70871812D01*
X145693909Y-70871807D01*
X144818461Y-69996360D01*
X144717924Y-69913851D01*
X144564873Y-69832044D01*
X144398804Y-69781668D01*
X144337243Y-69775604D01*
X144247303Y-69748321D01*
X144132560Y-69737020D01*
X144132557Y-69737020D01*
X144094200Y-69733242D01*
X144055843Y-69737020D01*
X120909337Y-69737020D01*
X120870980Y-69733242D01*
X120832623Y-69737020D01*
X120832620Y-69737020D01*
X120717877Y-69748321D01*
X120570658Y-69792980D01*
X120512027Y-69824319D01*
X120434980Y-69865501D01*
X120379530Y-69911008D01*
X120316058Y-69963098D01*
X120291606Y-69992893D01*
X115433179Y-74851321D01*
X115286422Y-74895840D01*
X115281820Y-74898300D01*
X113556028Y-74898300D01*
X113517679Y-74894523D01*
X113479330Y-74898300D01*
X113479320Y-74898300D01*
X113364577Y-74909601D01*
X113232295Y-74949729D01*
X113217358Y-74954260D01*
X113081680Y-75026781D01*
X113033943Y-75065958D01*
X112962758Y-75124378D01*
X112938306Y-75154173D01*
X111148518Y-76943962D01*
X111118718Y-76968418D01*
X111070528Y-77027138D01*
X111021121Y-77087341D01*
X111000281Y-77126331D01*
X110948600Y-77223019D01*
X110903941Y-77370238D01*
X110896370Y-77447111D01*
X110888862Y-77523340D01*
X110892640Y-77561697D01*
X110892641Y-88767650D01*
X110888862Y-88806020D01*
X110892640Y-88844380D01*
X110892641Y-90047814D01*
X110888862Y-90086180D01*
X110898780Y-90186873D01*
X110903942Y-90239283D01*
X110917389Y-90283611D01*
X110948600Y-90386500D01*
X111021121Y-90522179D01*
X111065356Y-90576079D01*
X111118719Y-90641102D01*
X111165182Y-90679233D01*
X111237641Y-90738699D01*
X111298509Y-90771233D01*
X111373319Y-90811220D01*
X111520538Y-90855879D01*
X111673640Y-90870958D01*
X111826743Y-90855879D01*
X111874167Y-90841493D01*
X111910922Y-90886280D01*
X111867998Y-90938584D01*
X111832619Y-91004772D01*
X111810833Y-91076591D01*
X111803477Y-91151280D01*
X111803477Y-91891280D01*
X111810833Y-91965969D01*
X111832619Y-92037788D01*
X111867998Y-92103976D01*
X111910922Y-92156280D01*
X111867998Y-92208584D01*
X111832619Y-92274772D01*
X111810833Y-92346591D01*
X111803477Y-92421280D01*
X111803477Y-93161280D01*
X111810833Y-93235969D01*
X111832619Y-93307788D01*
X111867998Y-93373976D01*
X111910922Y-93426280D01*
X111888436Y-93453680D01*
X111103741Y-93453680D01*
X111003099Y-93353038D01*
X110875182Y-93267567D01*
X110733049Y-93208693D01*
X110582162Y-93178680D01*
X110428318Y-93178680D01*
X110277431Y-93208693D01*
X110135298Y-93267567D01*
X110007381Y-93353038D01*
X109898598Y-93461821D01*
X109813127Y-93589738D01*
X109754253Y-93731871D01*
X109724240Y-93882758D01*
X109724240Y-94036602D01*
X109754253Y-94187489D01*
X109813127Y-94329622D01*
X109898598Y-94457539D01*
X110007381Y-94566322D01*
X110135298Y-94651793D01*
X110277431Y-94710667D01*
X110428318Y-94740680D01*
X110582162Y-94740680D01*
X110733049Y-94710667D01*
X110875182Y-94651793D01*
X111003099Y-94566322D01*
X111103741Y-94465680D01*
X111806865Y-94465680D01*
X111810833Y-94505969D01*
X111832619Y-94577788D01*
X111867998Y-94643976D01*
X111910922Y-94696280D01*
X111867998Y-94748584D01*
X111832619Y-94814772D01*
X111829431Y-94825280D01*
X111414005Y-94825280D01*
X111389159Y-94822833D01*
X111364313Y-94825280D01*
X111364306Y-94825280D01*
X111289967Y-94832602D01*
X111194585Y-94861535D01*
X111106681Y-94908521D01*
X111029633Y-94971753D01*
X111013788Y-94991060D01*
X110477440Y-95527409D01*
X110458134Y-95543253D01*
X110394902Y-95620301D01*
X110381108Y-95646108D01*
X110347915Y-95708206D01*
X110318982Y-95803588D01*
X110309213Y-95902780D01*
X110311661Y-95927636D01*
X110311661Y-96307578D01*
X110211018Y-96408221D01*
X110125547Y-96536138D01*
X110066673Y-96678271D01*
X110036660Y-96829158D01*
X110036660Y-96983002D01*
X110066673Y-97133889D01*
X110125547Y-97276022D01*
X110211018Y-97403939D01*
X110319801Y-97512722D01*
X110447718Y-97598193D01*
X110589851Y-97657067D01*
X110740738Y-97687080D01*
X110894582Y-97687080D01*
X111045469Y-97657067D01*
X111053340Y-97653807D01*
X111053341Y-99148681D01*
X110621701Y-98474244D01*
X110138631Y-97428622D01*
X109360008Y-95378518D01*
X108784536Y-93472057D01*
X107798744Y-84402766D01*
X109311338Y-75327202D01*
X109813032Y-73886806D01*
X109933631Y-73588312D01*
X110988901Y-74197573D01*
X110990437Y-74198269D01*
X111019913Y-74215014D01*
X111039871Y-74223900D01*
X111058799Y-74234828D01*
X111064935Y-74237560D01*
X111780305Y-74550097D01*
X111821769Y-74563569D01*
X111863036Y-74577617D01*
X111869585Y-74579105D01*
X112632037Y-74746741D01*
X112675303Y-74751900D01*
X112718538Y-74757669D01*
X112725251Y-74757856D01*
X113505743Y-74774206D01*
X113549190Y-74770863D01*
X113592720Y-74768124D01*
X113599342Y-74767004D01*
X114368145Y-74631444D01*
X114410116Y-74619725D01*
X114452283Y-74608584D01*
X114458561Y-74606199D01*
X115186392Y-74323892D01*
X115225262Y-74304257D01*
X115264488Y-74285125D01*
X115270184Y-74281566D01*
X115929318Y-73863266D01*
X115963655Y-73836439D01*
X115998397Y-73810068D01*
X116003293Y-73805471D01*
X116568628Y-73267110D01*
X116597129Y-73234091D01*
X116626058Y-73201508D01*
X116629968Y-73196047D01*
X117079967Y-72558132D01*
X117101509Y-72520211D01*
X117123561Y-72482624D01*
X117126335Y-72476508D01*
X117443860Y-71763337D01*
X117457623Y-71721962D01*
X117471957Y-71680801D01*
X117473491Y-71674262D01*
X117646446Y-70912999D01*
X117651909Y-70869753D01*
X117657977Y-70826577D01*
X117658211Y-70819865D01*
X117680009Y-70039506D01*
X117676970Y-69996044D01*
X117674535Y-69952489D01*
X117673461Y-69945859D01*
X117543271Y-69176129D01*
X117531841Y-69134061D01*
X117520999Y-69091833D01*
X117518658Y-69085538D01*
X117241439Y-68355755D01*
X117222067Y-68316731D01*
X117203218Y-68277390D01*
X117199699Y-68271670D01*
X116786010Y-67609630D01*
X116759426Y-67575110D01*
X116733296Y-67540182D01*
X116728733Y-67535254D01*
X116607166Y-67405798D01*
X129698800Y-67405798D01*
X129698800Y-67559642D01*
X129728813Y-67710529D01*
X129787687Y-67852662D01*
X129873158Y-67980579D01*
X129981941Y-68089362D01*
X130109858Y-68174833D01*
X130251991Y-68233707D01*
X130402878Y-68263720D01*
X130556722Y-68263720D01*
X130707609Y-68233707D01*
X130849742Y-68174833D01*
X130977659Y-68089362D01*
X131086442Y-67980579D01*
X131171913Y-67852662D01*
X131230787Y-67710529D01*
X131260800Y-67559642D01*
X131260800Y-67405798D01*
X131230787Y-67254911D01*
X131171913Y-67112778D01*
X131086442Y-66984861D01*
X130977659Y-66876078D01*
X130849742Y-66790607D01*
X130707609Y-66731733D01*
X130556722Y-66701720D01*
X130402878Y-66701720D01*
X130251991Y-66731733D01*
X130109858Y-66790607D01*
X129981941Y-66876078D01*
X129873158Y-66984861D01*
X129787687Y-67112778D01*
X129728813Y-67254911D01*
X129698800Y-67405798D01*
X116607166Y-67405798D01*
X116194333Y-66966175D01*
X116161528Y-66937456D01*
X116129133Y-66908288D01*
X116123700Y-66904340D01*
X115490606Y-66451091D01*
X115469901Y-66436253D01*
X114537167Y-65897739D01*
X115099079Y-65006431D01*
X115464419Y-64558534D01*
X116965719Y-62960002D01*
X118574874Y-61470083D01*
X119947376Y-60366696D01*
X126005856Y-56832583D01*
X134455993Y-54896094D01*
X133217541Y-56134546D01*
%TA.AperFunction,Conductor*%
D18*
G36*
X133217541Y-56134546D02*
G01*
X133217536Y-56134550D01*
X132780408Y-56571678D01*
X132638078Y-56571678D01*
X132487191Y-56601691D01*
X132345058Y-56660565D01*
X132217141Y-56746036D01*
X132108358Y-56854819D01*
X132022887Y-56982736D01*
X131964013Y-57124869D01*
X131934000Y-57275756D01*
X131934000Y-57429600D01*
X131964013Y-57580487D01*
X132022887Y-57722620D01*
X132108358Y-57850537D01*
X132217141Y-57959320D01*
X132345058Y-58044791D01*
X132487191Y-58103665D01*
X132630039Y-58132079D01*
X132630039Y-58147606D01*
X132660052Y-58298493D01*
X132718926Y-58440626D01*
X132804397Y-58568543D01*
X132913180Y-58677326D01*
X133021436Y-58749660D01*
X129891095Y-58749660D01*
X129866249Y-58747213D01*
X129841403Y-58749660D01*
X129841396Y-58749660D01*
X129776944Y-58756008D01*
X129767056Y-58756982D01*
X129747887Y-58762797D01*
X129671675Y-58785915D01*
X129583771Y-58832901D01*
X129506723Y-58896133D01*
X129490878Y-58915440D01*
X128008199Y-60398120D01*
X123367245Y-60398120D01*
X123342399Y-60395673D01*
X123317553Y-60398120D01*
X123317546Y-60398120D01*
X123243207Y-60405442D01*
X123147825Y-60434375D01*
X123059921Y-60481361D01*
X122982873Y-60544593D01*
X122967029Y-60563899D01*
X122861708Y-60669220D01*
X122719378Y-60669220D01*
X122568491Y-60699233D01*
X122426358Y-60758107D01*
X122298441Y-60843578D01*
X122189658Y-60952361D01*
X122104187Y-61080278D01*
X122045313Y-61222411D01*
X122015300Y-61373298D01*
X122015300Y-61527142D01*
X122045313Y-61678029D01*
X122104187Y-61820162D01*
X122189658Y-61948079D01*
X122298441Y-62056862D01*
X122426358Y-62142333D01*
X122568491Y-62201207D01*
X122719378Y-62231220D01*
X122873222Y-62231220D01*
X123024109Y-62201207D01*
X123166242Y-62142333D01*
X123294159Y-62056862D01*
X123402942Y-61948079D01*
X123488413Y-61820162D01*
X123547287Y-61678029D01*
X123577300Y-61527142D01*
X123577300Y-61410120D01*
X126018114Y-61410120D01*
X125969613Y-61527211D01*
X125939600Y-61678098D01*
X125939600Y-61831942D01*
X125969613Y-61982829D01*
X126028487Y-62124962D01*
X126113958Y-62252879D01*
X126222741Y-62361662D01*
X126350658Y-62447133D01*
X126492791Y-62506007D01*
X126643678Y-62536020D01*
X126797522Y-62536020D01*
X126948409Y-62506007D01*
X127090542Y-62447133D01*
X127160004Y-62400720D01*
X135722914Y-62400720D01*
X135747760Y-62403167D01*
X135772606Y-62400720D01*
X135772614Y-62400720D01*
X135846953Y-62393398D01*
X135942335Y-62364465D01*
X136030239Y-62317479D01*
X136107287Y-62254247D01*
X136123136Y-62234935D01*
X137082572Y-61275500D01*
X140386354Y-61275500D01*
X140411200Y-61277947D01*
X140436046Y-61275500D01*
X140436054Y-61275500D01*
X140510393Y-61268178D01*
X140605775Y-61239245D01*
X140693679Y-61192259D01*
X140770727Y-61129027D01*
X140786576Y-61109715D01*
X141170631Y-60725660D01*
X141974974Y-60725660D01*
X141993915Y-60917970D01*
X142050009Y-61102889D01*
X142141102Y-61273311D01*
X142263692Y-61422688D01*
X142413069Y-61545278D01*
X142583491Y-61636371D01*
X142768410Y-61692465D01*
X142912533Y-61706660D01*
X143508907Y-61706660D01*
X143653030Y-61692465D01*
X143837949Y-61636371D01*
X144008371Y-61545278D01*
X144157748Y-61422688D01*
X144280338Y-61273311D01*
X144331711Y-61177199D01*
X144412080Y-61210489D01*
X144543647Y-61236660D01*
X144677793Y-61236660D01*
X144809360Y-61210489D01*
X144933294Y-61159154D01*
X145044832Y-61084627D01*
X145139687Y-60989772D01*
X145214214Y-60878234D01*
X145265549Y-60754300D01*
X145291720Y-60622733D01*
X145291720Y-60488587D01*
X145265549Y-60357020D01*
X145214214Y-60233086D01*
X145139687Y-60121548D01*
X145044832Y-60026693D01*
X144933294Y-59952166D01*
X144809360Y-59900831D01*
X144677793Y-59874660D01*
X144543647Y-59874660D01*
X144412080Y-59900831D01*
X144288146Y-59952166D01*
X144176608Y-60026693D01*
X144165375Y-60037926D01*
X144157748Y-60028632D01*
X144008371Y-59906042D01*
X143837949Y-59814949D01*
X143653030Y-59758855D01*
X143508907Y-59744660D01*
X142912533Y-59744660D01*
X142768410Y-59758855D01*
X142583491Y-59814949D01*
X142413069Y-59906042D01*
X142263692Y-60028632D01*
X142141102Y-60178009D01*
X142050009Y-60348431D01*
X141993915Y-60533350D01*
X141974974Y-60725660D01*
X141170631Y-60725660D01*
X141546440Y-60349852D01*
X141565747Y-60334007D01*
X141628979Y-60256959D01*
X141675965Y-60169055D01*
X141704898Y-60073673D01*
X141712220Y-59999334D01*
X141712220Y-59999327D01*
X141714667Y-59974481D01*
X141712220Y-59949635D01*
X141712220Y-59904160D01*
X141812862Y-59803518D01*
X141898333Y-59675601D01*
X141957207Y-59533468D01*
X141987220Y-59382581D01*
X141987220Y-59228737D01*
X141957207Y-59077850D01*
X141898333Y-58935717D01*
X141812862Y-58807800D01*
X141704079Y-58699017D01*
X141576162Y-58613546D01*
X141434029Y-58554672D01*
X141283142Y-58524659D01*
X141129298Y-58524659D01*
X140978411Y-58554672D01*
X140836278Y-58613546D01*
X140708361Y-58699017D01*
X140650608Y-58756770D01*
X140642389Y-58715451D01*
X140583515Y-58573318D01*
X140498044Y-58445401D01*
X140389261Y-58336618D01*
X140261344Y-58251147D01*
X140119211Y-58192273D01*
X139968324Y-58162260D01*
X139814480Y-58162260D01*
X139663593Y-58192273D01*
X139521460Y-58251147D01*
X139393543Y-58336618D01*
X139292901Y-58437260D01*
X138979684Y-58437260D01*
X138954838Y-58434813D01*
X138929992Y-58437260D01*
X138929984Y-58437260D01*
X138855645Y-58444582D01*
X138760263Y-58473515D01*
X138672359Y-58520501D01*
X138595311Y-58583733D01*
X138579466Y-58603040D01*
X138416502Y-58766004D01*
X138274172Y-58766004D01*
X138123285Y-58796017D01*
X137981152Y-58854891D01*
X137853235Y-58940362D01*
X137744452Y-59049145D01*
X137729249Y-59071899D01*
X137720487Y-59027851D01*
X137661613Y-58885718D01*
X137576142Y-58757801D01*
X137467359Y-58649018D01*
X137339442Y-58563547D01*
X137197309Y-58504673D01*
X137046422Y-58474660D01*
X136892578Y-58474660D01*
X136741691Y-58504673D01*
X136599558Y-58563547D01*
X136471641Y-58649018D01*
X136370999Y-58749660D01*
X135462277Y-58749660D01*
X135637949Y-58696371D01*
X135808371Y-58605278D01*
X135957748Y-58482688D01*
X136080338Y-58333311D01*
X136171431Y-58162889D01*
X136227525Y-57977970D01*
X136246466Y-57785660D01*
X136227525Y-57593350D01*
X136171431Y-57408431D01*
X136080338Y-57238009D01*
X135981456Y-57117520D01*
X142239984Y-57117520D01*
X142141102Y-57238009D01*
X142050009Y-57408431D01*
X141993915Y-57593350D01*
X141974974Y-57785660D01*
X141993915Y-57977970D01*
X142050009Y-58162889D01*
X142141102Y-58333311D01*
X142263692Y-58482688D01*
X142413069Y-58605278D01*
X142583491Y-58696371D01*
X142768410Y-58752465D01*
X142912533Y-58766660D01*
X143508907Y-58766660D01*
X143653030Y-58752465D01*
X143837949Y-58696371D01*
X144008371Y-58605278D01*
X144157748Y-58482688D01*
X144280338Y-58333311D01*
X144371431Y-58162889D01*
X144427525Y-57977970D01*
X144446466Y-57785660D01*
X144427525Y-57593350D01*
X144371431Y-57408431D01*
X144280338Y-57238009D01*
X144181456Y-57117520D01*
X145865809Y-57117520D01*
X146563628Y-57815340D01*
X146579473Y-57834647D01*
X146656521Y-57897879D01*
X146716121Y-57929736D01*
X146744425Y-57944865D01*
X146839807Y-57973798D01*
X146939000Y-57983568D01*
X146963854Y-57981120D01*
X147566199Y-57981120D01*
X150668998Y-61083920D01*
X148958682Y-61083920D01*
X148951913Y-61067578D01*
X148866442Y-60939661D01*
X148757659Y-60830878D01*
X148629742Y-60745407D01*
X148487609Y-60686533D01*
X148336722Y-60656520D01*
X148182878Y-60656520D01*
X148031991Y-60686533D01*
X147889858Y-60745407D01*
X147761941Y-60830878D01*
X147653158Y-60939661D01*
X147567687Y-61067578D01*
X147508813Y-61209711D01*
X147478800Y-61360598D01*
X147478800Y-61514442D01*
X147508813Y-61665329D01*
X147567687Y-61807462D01*
X147653158Y-61935379D01*
X147761941Y-62044162D01*
X147889858Y-62129633D01*
X148031991Y-62188507D01*
X148182878Y-62218520D01*
X148336722Y-62218520D01*
X148487609Y-62188507D01*
X148629742Y-62129633D01*
X148680197Y-62095920D01*
X156398987Y-62095920D01*
X158872001Y-64568935D01*
X158872001Y-68166538D01*
X158545367Y-67839905D01*
X158529518Y-67820593D01*
X158452470Y-67757361D01*
X158364566Y-67710375D01*
X158269184Y-67681442D01*
X158194845Y-67674120D01*
X158194837Y-67674120D01*
X158169991Y-67671673D01*
X158145145Y-67674120D01*
X158116604Y-67674120D01*
X158015962Y-67573478D01*
X157888045Y-67488007D01*
X157745912Y-67429133D01*
X157595025Y-67399120D01*
X157441181Y-67399120D01*
X157290294Y-67429133D01*
X157148161Y-67488007D01*
X157020244Y-67573478D01*
X156911461Y-67682261D01*
X156825990Y-67810178D01*
X156767116Y-67952311D01*
X156737103Y-68103198D01*
X156737103Y-68257042D01*
X156767116Y-68407929D01*
X156825990Y-68550062D01*
X156911461Y-68677979D01*
X157020244Y-68786762D01*
X157148161Y-68872233D01*
X157290294Y-68931107D01*
X157441181Y-68961120D01*
X157492260Y-68961120D01*
X157452002Y-69058311D01*
X157421989Y-69209198D01*
X157421989Y-69363042D01*
X157452002Y-69513929D01*
X157510876Y-69656062D01*
X157596347Y-69783979D01*
X157696990Y-69884622D01*
X157696989Y-76270719D01*
X145090964Y-88876744D01*
X145571181Y-87934267D01*
X145910662Y-86889451D01*
X146082518Y-85804392D01*
X146082518Y-84705808D01*
X145910662Y-83620749D01*
X145571181Y-82575933D01*
X145072434Y-81597088D01*
X144426702Y-80708314D01*
X143649886Y-79931498D01*
X142761112Y-79285766D01*
X141782267Y-78787019D01*
X141316170Y-78635575D01*
X144861734Y-78635575D01*
X144861734Y-79027839D01*
X144938261Y-79412567D01*
X145088375Y-79774972D01*
X145306305Y-80101128D01*
X145583678Y-80378501D01*
X145909834Y-80596431D01*
X146272239Y-80746545D01*
X146656967Y-80823072D01*
X147049231Y-80823072D01*
X147433959Y-80746545D01*
X147796364Y-80596431D01*
X148122520Y-80378501D01*
X148399893Y-80101128D01*
X148617823Y-79774972D01*
X148767937Y-79412567D01*
X148844464Y-79027839D01*
X148844464Y-78635575D01*
X148767937Y-78250847D01*
X148617823Y-77888442D01*
X148399893Y-77562286D01*
X148122520Y-77284913D01*
X147796364Y-77066983D01*
X147433959Y-76916869D01*
X147049231Y-76840342D01*
X146656967Y-76840342D01*
X146272239Y-76916869D01*
X145909834Y-77066983D01*
X145583678Y-77284913D01*
X145306305Y-77562286D01*
X145088375Y-77888442D01*
X144938261Y-78250847D01*
X144861734Y-78635575D01*
X141316170Y-78635575D01*
X140737451Y-78447538D01*
X139652392Y-78275682D01*
X138553808Y-78275682D01*
X137468749Y-78447538D01*
X136423933Y-78787019D01*
X135445088Y-79285766D01*
X134556314Y-79931498D01*
X133779498Y-80708314D01*
X133133766Y-81597088D01*
X132635019Y-82575933D01*
X132295538Y-83620749D01*
X132123682Y-84705808D01*
X132123682Y-85804392D01*
X132295538Y-86889451D01*
X132635019Y-87934267D01*
X133133766Y-88913112D01*
X133779498Y-89801886D01*
X134556314Y-90578702D01*
X135445088Y-91224434D01*
X136423933Y-91723181D01*
X137468749Y-92062662D01*
X138553808Y-92234518D01*
X139652392Y-92234518D01*
X140737451Y-92062662D01*
X141782267Y-91723181D01*
X142724745Y-91242964D01*
X138597781Y-95369928D01*
X138578474Y-95385773D01*
X138515242Y-95462821D01*
X138498912Y-95493372D01*
X138468255Y-95550726D01*
X138439322Y-95646108D01*
X138429553Y-95745300D01*
X138432001Y-95770156D01*
X138432000Y-105590438D01*
X138047000Y-105975438D01*
X138047000Y-94179721D01*
X138147642Y-94079079D01*
X138233113Y-93951162D01*
X138291987Y-93809029D01*
X138322000Y-93658142D01*
X138322000Y-93504298D01*
X138291987Y-93353411D01*
X138233113Y-93211278D01*
X138147642Y-93083361D01*
X138038859Y-92974578D01*
X137910942Y-92889107D01*
X137768809Y-92830233D01*
X137617922Y-92800220D01*
X137464078Y-92800220D01*
X137313191Y-92830233D01*
X137171058Y-92889107D01*
X137043141Y-92974578D01*
X136934358Y-93083361D01*
X136848887Y-93211278D01*
X136790013Y-93353411D01*
X136760000Y-93504298D01*
X136760000Y-93658142D01*
X136790013Y-93809029D01*
X136848887Y-93951162D01*
X136934358Y-94079079D01*
X137035001Y-94179722D01*
X137035001Y-98214330D01*
X137001976Y-98181305D01*
X136986127Y-98161993D01*
X136909079Y-98098761D01*
X136821175Y-98051775D01*
X136725793Y-98022842D01*
X136651454Y-98015520D01*
X136651446Y-98015520D01*
X136626600Y-98013073D01*
X136601754Y-98015520D01*
X136031301Y-98015520D01*
X135930659Y-97914878D01*
X135802742Y-97829407D01*
X135660609Y-97770533D01*
X135509722Y-97740520D01*
X135355878Y-97740520D01*
X135204991Y-97770533D01*
X135062858Y-97829407D01*
X134934941Y-97914878D01*
X134826158Y-98023661D01*
X134740687Y-98151578D01*
X134681813Y-98293711D01*
X134651800Y-98444598D01*
X134651800Y-98598442D01*
X134681813Y-98749329D01*
X134740687Y-98891462D01*
X134797878Y-98977054D01*
X134753884Y-99021048D01*
X134668413Y-99148965D01*
X134609539Y-99291098D01*
X134579526Y-99441985D01*
X134579526Y-99595829D01*
X134609539Y-99746716D01*
X134668413Y-99888849D01*
X134753884Y-100016766D01*
X134862667Y-100125549D01*
X134990584Y-100211020D01*
X135132717Y-100269894D01*
X135283604Y-100299907D01*
X135437448Y-100299907D01*
X135588335Y-100269894D01*
X135730468Y-100211020D01*
X135839941Y-100137873D01*
X136134981Y-100432913D01*
X136134981Y-102754700D01*
X136108459Y-102728178D01*
X135980542Y-102642707D01*
X135838409Y-102583833D01*
X135687522Y-102553820D01*
X135533678Y-102553820D01*
X135382791Y-102583833D01*
X135240658Y-102642707D01*
X135112741Y-102728178D01*
X135012099Y-102828820D01*
X130329001Y-102828820D01*
X130253759Y-102753578D01*
X130125842Y-102668107D01*
X129983709Y-102609233D01*
X129832822Y-102579220D01*
X129678978Y-102579220D01*
X129528091Y-102609233D01*
X129385958Y-102668107D01*
X129258041Y-102753578D01*
X129149258Y-102862361D01*
X129063787Y-102990278D01*
X129004913Y-103132411D01*
X128974900Y-103283298D01*
X128974900Y-103437142D01*
X129004913Y-103588029D01*
X129063787Y-103730162D01*
X129149258Y-103858079D01*
X129258041Y-103966862D01*
X129385958Y-104052333D01*
X129528091Y-104111207D01*
X129678978Y-104141220D01*
X129832822Y-104141220D01*
X129983709Y-104111207D01*
X130125842Y-104052333D01*
X130253759Y-103966862D01*
X130362542Y-103858079D01*
X130374074Y-103840820D01*
X135012099Y-103840820D01*
X135112741Y-103941462D01*
X135240658Y-104026933D01*
X135382791Y-104085807D01*
X135533678Y-104115820D01*
X135687522Y-104115820D01*
X135838409Y-104085807D01*
X135980542Y-104026933D01*
X136108459Y-103941462D01*
X136134980Y-103914941D01*
X136134980Y-105978228D01*
X135918889Y-106194320D01*
X128047792Y-106194320D01*
X123696000Y-101842529D01*
X123696000Y-95688874D01*
X123698448Y-95664020D01*
X123688678Y-95564827D01*
X123659745Y-95469445D01*
X123655635Y-95461756D01*
X123612759Y-95381541D01*
X123549527Y-95304493D01*
X123530220Y-95288648D01*
X122782626Y-94541055D01*
X122766777Y-94521743D01*
X122689729Y-94458511D01*
X122601825Y-94411525D01*
X122506443Y-94382592D01*
X122432104Y-94375270D01*
X122432096Y-94375270D01*
X122407250Y-94372823D01*
X122382404Y-94375270D01*
X119765902Y-94375270D01*
X119111696Y-93721065D01*
X119095847Y-93701753D01*
X119018799Y-93638521D01*
X118930895Y-93591535D01*
X118846435Y-93565915D01*
X118840021Y-93544772D01*
X118804642Y-93478584D01*
X118761718Y-93426280D01*
X118804642Y-93373976D01*
X118840021Y-93307788D01*
X118843209Y-93297280D01*
X119433894Y-93297280D01*
X119458740Y-93299727D01*
X119483586Y-93297280D01*
X119483594Y-93297280D01*
X119557933Y-93289958D01*
X119653315Y-93261025D01*
X119741219Y-93214039D01*
X119818267Y-93150807D01*
X119834116Y-93131495D01*
X120906644Y-92058967D01*
X121611736Y-92058967D01*
X121611736Y-92451231D01*
X121688263Y-92835959D01*
X121838377Y-93198364D01*
X122056307Y-93524520D01*
X122333680Y-93801893D01*
X122659836Y-94019823D01*
X123022241Y-94169937D01*
X123406969Y-94246464D01*
X123799233Y-94246464D01*
X124183961Y-94169937D01*
X124546366Y-94019823D01*
X124872522Y-93801893D01*
X125149895Y-93524520D01*
X125367825Y-93198364D01*
X125517939Y-92835959D01*
X125594466Y-92451231D01*
X125594466Y-92058967D01*
X125517939Y-91674239D01*
X125367825Y-91311834D01*
X125149895Y-90985678D01*
X124872522Y-90708305D01*
X124546366Y-90490375D01*
X124183961Y-90340261D01*
X123799233Y-90263734D01*
X123406969Y-90263734D01*
X123022241Y-90340261D01*
X122659836Y-90490375D01*
X122333680Y-90708305D01*
X122056307Y-90985678D01*
X121838377Y-91311834D01*
X121688263Y-91674239D01*
X121611736Y-92058967D01*
X120906644Y-92058967D01*
X121333120Y-91632492D01*
X121352427Y-91616647D01*
X121415659Y-91539599D01*
X121462645Y-91451695D01*
X121491578Y-91356313D01*
X121498900Y-91281974D01*
X121498900Y-91281973D01*
X121501348Y-91257120D01*
X121498900Y-91232266D01*
X121498900Y-82495721D01*
X121599542Y-82395079D01*
X121685013Y-82267162D01*
X121743887Y-82125029D01*
X121773900Y-81974142D01*
X121773900Y-81820298D01*
X121743887Y-81669411D01*
X121685013Y-81527278D01*
X121599542Y-81399361D01*
X121490759Y-81290578D01*
X121362842Y-81205107D01*
X121220709Y-81146233D01*
X121069822Y-81116220D01*
X120915978Y-81116220D01*
X120765091Y-81146233D01*
X120622958Y-81205107D01*
X120495041Y-81290578D01*
X120386258Y-81399361D01*
X120311314Y-81511523D01*
X120253342Y-81424761D01*
X120144559Y-81315978D01*
X120016642Y-81230507D01*
X119874509Y-81171633D01*
X119723622Y-81141620D01*
X119569778Y-81141620D01*
X119418891Y-81171633D01*
X119276758Y-81230507D01*
X119148841Y-81315978D01*
X119040058Y-81424761D01*
X118954587Y-81552678D01*
X118895713Y-81694811D01*
X118865700Y-81845698D01*
X118865700Y-81999542D01*
X118895713Y-82150429D01*
X118954587Y-82292562D01*
X119040058Y-82420479D01*
X119140700Y-82521121D01*
X119140701Y-89653571D01*
X119140700Y-90252508D01*
X118988749Y-90404459D01*
X118962570Y-90378280D01*
X117413320Y-90378280D01*
X117413320Y-90398280D01*
X117159320Y-90398280D01*
X117159320Y-90378280D01*
X115610070Y-90378280D01*
X115451320Y-90537030D01*
X115448248Y-90621280D01*
X115460508Y-90745762D01*
X115496818Y-90865460D01*
X115555783Y-90975774D01*
X115635135Y-91072465D01*
X115705548Y-91130251D01*
X115703477Y-91151280D01*
X115703477Y-91891280D01*
X115710833Y-91965969D01*
X115732619Y-92037788D01*
X115767998Y-92103976D01*
X115810922Y-92156280D01*
X115767998Y-92208584D01*
X115732619Y-92274772D01*
X115710833Y-92346591D01*
X115703477Y-92421280D01*
X115703477Y-93161280D01*
X115710833Y-93235969D01*
X115732619Y-93307788D01*
X115767998Y-93373976D01*
X115810922Y-93426280D01*
X115767998Y-93478584D01*
X115732619Y-93544772D01*
X115710833Y-93616591D01*
X115703477Y-93691280D01*
X115703477Y-94431280D01*
X115710833Y-94505969D01*
X115732619Y-94577788D01*
X115767998Y-94643976D01*
X115810922Y-94696280D01*
X115767998Y-94748584D01*
X115732619Y-94814772D01*
X115710833Y-94886591D01*
X115703477Y-94961280D01*
X115703477Y-95701280D01*
X115710833Y-95775969D01*
X115732619Y-95847788D01*
X115767998Y-95913976D01*
X115810922Y-95966280D01*
X115767998Y-96018584D01*
X115732619Y-96084772D01*
X115710833Y-96156591D01*
X115703477Y-96231280D01*
X115703477Y-96971280D01*
X115710833Y-97045969D01*
X115732619Y-97117788D01*
X115767998Y-97183976D01*
X115810922Y-97236280D01*
X115767998Y-97288584D01*
X115732619Y-97354772D01*
X115710833Y-97426591D01*
X115703477Y-97501280D01*
X115703477Y-98241280D01*
X115710833Y-98315969D01*
X115732619Y-98387788D01*
X115767998Y-98453976D01*
X115815609Y-98511991D01*
X115873624Y-98559602D01*
X115939812Y-98594981D01*
X116011631Y-98616767D01*
X116086320Y-98624123D01*
X117773592Y-98624123D01*
X127142512Y-107993044D01*
X127158352Y-108012345D01*
X127177653Y-108028185D01*
X127177657Y-108028189D01*
X127235400Y-108075577D01*
X127323304Y-108122564D01*
X127418686Y-108151497D01*
X127517879Y-108161267D01*
X127542743Y-108158818D01*
X135863619Y-108158820D01*
X135313519Y-108708920D01*
X124047292Y-108708920D01*
X115544355Y-100205984D01*
X115528506Y-100186672D01*
X115451458Y-100123440D01*
X115419135Y-100106163D01*
X113937094Y-98624123D01*
X114586320Y-98624123D01*
X114661009Y-98616767D01*
X114732828Y-98594981D01*
X114799016Y-98559602D01*
X114857031Y-98511991D01*
X114904642Y-98453976D01*
X114940021Y-98387788D01*
X114961807Y-98315969D01*
X114969163Y-98241280D01*
X114969163Y-97501280D01*
X114961807Y-97426591D01*
X114940021Y-97354772D01*
X114904642Y-97288584D01*
X114861718Y-97236280D01*
X114904642Y-97183976D01*
X114940021Y-97117788D01*
X114961807Y-97045969D01*
X114969163Y-96971280D01*
X114969163Y-96231280D01*
X114961807Y-96156591D01*
X114940021Y-96084772D01*
X114904642Y-96018584D01*
X114861718Y-95966280D01*
X114904642Y-95913976D01*
X114940021Y-95847788D01*
X114961807Y-95775969D01*
X114969163Y-95701280D01*
X114969163Y-94961280D01*
X114961807Y-94886591D01*
X114940021Y-94814772D01*
X114904642Y-94748584D01*
X114861718Y-94696280D01*
X114904642Y-94643976D01*
X114940021Y-94577788D01*
X114961807Y-94505969D01*
X114969163Y-94431280D01*
X114969163Y-93691280D01*
X114961807Y-93616591D01*
X114940021Y-93544772D01*
X114904642Y-93478584D01*
X114861718Y-93426280D01*
X114904642Y-93373976D01*
X114940021Y-93307788D01*
X114961807Y-93235969D01*
X114969163Y-93161280D01*
X114969163Y-92421280D01*
X114961807Y-92346591D01*
X114940021Y-92274772D01*
X114904642Y-92208584D01*
X114861718Y-92156280D01*
X114904642Y-92103976D01*
X114940021Y-92037788D01*
X114961807Y-91965969D01*
X114969163Y-91891280D01*
X114969163Y-91151280D01*
X114961807Y-91076591D01*
X114940021Y-91004772D01*
X114904642Y-90938584D01*
X114861718Y-90886280D01*
X114904642Y-90833976D01*
X114940021Y-90767788D01*
X114961807Y-90695969D01*
X114969163Y-90621280D01*
X114969163Y-89881280D01*
X114961807Y-89806591D01*
X114940021Y-89734772D01*
X114904642Y-89668584D01*
X114861718Y-89616280D01*
X114904642Y-89563976D01*
X114940021Y-89497788D01*
X114961807Y-89425969D01*
X114969163Y-89351280D01*
X115448248Y-89351280D01*
X115460508Y-89475762D01*
X115496818Y-89595460D01*
X115507947Y-89616280D01*
X115496818Y-89637100D01*
X115460508Y-89756798D01*
X115448248Y-89881280D01*
X115451320Y-89965530D01*
X115610070Y-90124280D01*
X117159320Y-90124280D01*
X117159320Y-89108280D01*
X117413320Y-89108280D01*
X117413320Y-90124280D01*
X118962570Y-90124280D01*
X119121320Y-89965530D01*
X119124392Y-89881280D01*
X119112132Y-89756798D01*
X119075822Y-89637100D01*
X119064693Y-89616280D01*
X119075822Y-89595460D01*
X119112132Y-89475762D01*
X119124392Y-89351280D01*
X119121320Y-89267030D01*
X118962570Y-89108280D01*
X117413320Y-89108280D01*
X117159320Y-89108280D01*
X115610070Y-89108280D01*
X115451320Y-89267030D01*
X115448248Y-89351280D01*
X114969163Y-89351280D01*
X114969163Y-88611280D01*
X115448248Y-88611280D01*
X115451320Y-88695530D01*
X115610070Y-88854280D01*
X117159320Y-88854280D01*
X117159320Y-88135030D01*
X117413320Y-88135030D01*
X117413320Y-88854280D01*
X118962570Y-88854280D01*
X119121320Y-88695530D01*
X119124392Y-88611280D01*
X119112132Y-88486798D01*
X119075822Y-88367100D01*
X119016857Y-88256786D01*
X118937505Y-88160095D01*
X118840814Y-88080743D01*
X118730500Y-88021778D01*
X118610802Y-87985468D01*
X118486320Y-87973208D01*
X117572070Y-87976280D01*
X117413320Y-88135030D01*
X117159320Y-88135030D01*
X117000570Y-87976280D01*
X116086320Y-87973208D01*
X115961838Y-87985468D01*
X115842140Y-88021778D01*
X115731826Y-88080743D01*
X115635135Y-88160095D01*
X115555783Y-88256786D01*
X115496818Y-88367100D01*
X115460508Y-88486798D01*
X115448248Y-88611280D01*
X114969163Y-88611280D01*
X114961807Y-88536591D01*
X114940021Y-88464772D01*
X114904642Y-88398584D01*
X114857031Y-88340569D01*
X114799016Y-88292958D01*
X114732828Y-88257579D01*
X114661009Y-88235793D01*
X114586320Y-88228437D01*
X113976654Y-88228437D01*
X113863679Y-88135721D01*
X113728001Y-88063200D01*
X113580782Y-88018542D01*
X113427680Y-88003462D01*
X113274578Y-88018542D01*
X113253223Y-88025020D01*
X112454640Y-88025020D01*
X112454640Y-82346631D01*
X114321600Y-82346631D01*
X114321600Y-82687609D01*
X114388121Y-83022034D01*
X114518607Y-83337056D01*
X114708044Y-83620568D01*
X114949152Y-83861676D01*
X115232664Y-84051113D01*
X115547686Y-84181599D01*
X115882111Y-84248120D01*
X116223089Y-84248120D01*
X116557514Y-84181599D01*
X116872536Y-84051113D01*
X117156048Y-83861676D01*
X117397156Y-83620568D01*
X117586593Y-83337056D01*
X117717079Y-83022034D01*
X117783600Y-82687609D01*
X117783600Y-82346631D01*
X117717079Y-82012206D01*
X117586593Y-81697184D01*
X117397156Y-81413672D01*
X117156048Y-81172564D01*
X116872536Y-80983127D01*
X116557514Y-80852641D01*
X116223089Y-80786120D01*
X115882111Y-80786120D01*
X115547686Y-80852641D01*
X115232664Y-80983127D01*
X114949152Y-81172564D01*
X114708044Y-81413672D01*
X114518607Y-81697184D01*
X114388121Y-82012206D01*
X114321600Y-82346631D01*
X112454640Y-82346631D01*
X112454640Y-77846840D01*
X112844359Y-77457121D01*
X114319757Y-77457121D01*
X114319757Y-79657119D01*
X114331917Y-79780581D01*
X114367929Y-79899298D01*
X114426410Y-80008708D01*
X114505113Y-80104607D01*
X114601012Y-80183310D01*
X114710422Y-80241791D01*
X114829139Y-80277803D01*
X114952601Y-80289963D01*
X117152599Y-80289963D01*
X117276061Y-80277803D01*
X117394778Y-80241791D01*
X117504188Y-80183310D01*
X117600087Y-80104607D01*
X117678790Y-80008708D01*
X117737271Y-79899298D01*
X117773283Y-79780581D01*
X117785443Y-79657119D01*
X117785443Y-78635575D01*
X129361736Y-78635575D01*
X129361736Y-79027839D01*
X129438263Y-79412567D01*
X129588377Y-79774972D01*
X129806307Y-80101128D01*
X130083680Y-80378501D01*
X130409836Y-80596431D01*
X130772241Y-80746545D01*
X131156969Y-80823072D01*
X131549233Y-80823072D01*
X131933961Y-80746545D01*
X132296366Y-80596431D01*
X132622522Y-80378501D01*
X132899895Y-80101128D01*
X133117825Y-79774972D01*
X133267939Y-79412567D01*
X133344466Y-79027839D01*
X133344466Y-78635575D01*
X133267939Y-78250847D01*
X133117825Y-77888442D01*
X132899895Y-77562286D01*
X132622522Y-77284913D01*
X132296366Y-77066983D01*
X131933961Y-76916869D01*
X131549233Y-76840342D01*
X131156969Y-76840342D01*
X130772241Y-76916869D01*
X130409836Y-77066983D01*
X130083680Y-77284913D01*
X129806307Y-77562286D01*
X129588377Y-77888442D01*
X129438263Y-78250847D01*
X129361736Y-78635575D01*
X117785443Y-78635575D01*
X117785443Y-77457121D01*
X117773283Y-77333659D01*
X117737271Y-77214942D01*
X117678790Y-77105532D01*
X117600087Y-77009633D01*
X117504188Y-76930930D01*
X117394778Y-76872449D01*
X117276061Y-76836437D01*
X117152599Y-76824277D01*
X114952601Y-76824277D01*
X114829139Y-76836437D01*
X114710422Y-76872449D01*
X114601012Y-76930930D01*
X114505113Y-77009633D01*
X114426410Y-77105532D01*
X114367929Y-77214942D01*
X114331917Y-77333659D01*
X114319757Y-77457121D01*
X112844359Y-77457121D01*
X113841181Y-76460300D01*
X115489967Y-76460300D01*
X115528324Y-76464078D01*
X115566681Y-76460300D01*
X115566684Y-76460300D01*
X115681427Y-76448999D01*
X115828646Y-76404340D01*
X115839295Y-76398648D01*
X115921223Y-76390579D01*
X116068442Y-76345920D01*
X116204119Y-76273399D01*
X116323042Y-76175802D01*
X116347498Y-76146002D01*
X121194481Y-71299020D01*
X131099081Y-71299020D01*
X131044987Y-71379978D01*
X130986113Y-71522111D01*
X130956100Y-71672998D01*
X130956100Y-71688420D01*
X129008201Y-71688420D01*
X128907559Y-71587778D01*
X128779642Y-71502307D01*
X128637509Y-71443433D01*
X128486622Y-71413420D01*
X128332778Y-71413420D01*
X128181891Y-71443433D01*
X128039758Y-71502307D01*
X127911841Y-71587778D01*
X127803058Y-71696561D01*
X127717587Y-71824478D01*
X127658713Y-71966611D01*
X127628700Y-72117498D01*
X127628700Y-72271342D01*
X127658713Y-72422229D01*
X127717587Y-72564362D01*
X127803058Y-72692279D01*
X127911841Y-72801062D01*
X128039758Y-72886533D01*
X128181891Y-72945407D01*
X128332778Y-72975420D01*
X128486622Y-72975420D01*
X128637509Y-72945407D01*
X128779642Y-72886533D01*
X128907559Y-72801062D01*
X129008201Y-72700420D01*
X131267754Y-72700420D01*
X131292600Y-72702867D01*
X131317446Y-72700420D01*
X131317454Y-72700420D01*
X131391793Y-72693098D01*
X131487175Y-72664165D01*
X131575079Y-72617179D01*
X131652127Y-72553947D01*
X131667976Y-72534635D01*
X131671691Y-72530920D01*
X131814022Y-72530920D01*
X131964909Y-72500907D01*
X132107042Y-72442033D01*
X132234959Y-72356562D01*
X132343742Y-72247779D01*
X132429213Y-72119862D01*
X132488087Y-71977729D01*
X132518100Y-71826842D01*
X132518100Y-71672998D01*
X132488087Y-71522111D01*
X132429213Y-71379978D01*
X132375119Y-71299020D01*
X143629279Y-71299020D01*
X144447987Y-72117729D01*
X144447992Y-72117733D01*
X145381437Y-73051179D01*
X145381442Y-73051183D01*
X145880200Y-73549942D01*
X145880200Y-74015693D01*
X145892949Y-74145126D01*
X145943326Y-74311195D01*
X146025133Y-74464245D01*
X146135226Y-74598395D01*
X146269376Y-74708488D01*
X146422426Y-74790295D01*
X146588495Y-74840672D01*
X146761200Y-74857682D01*
X146933906Y-74840672D01*
X147099975Y-74790295D01*
X147253025Y-74708488D01*
X147387175Y-74598395D01*
X147497268Y-74464245D01*
X147579075Y-74311195D01*
X147629452Y-74145126D01*
X147642200Y-74015693D01*
X147642200Y-73228290D01*
X147646462Y-73185020D01*
X147638961Y-73108861D01*
X147629452Y-73012314D01*
X147579075Y-72846245D01*
X147553035Y-72797528D01*
X147497268Y-72693194D01*
X147434883Y-72617178D01*
X147387175Y-72559045D01*
X147353562Y-72531460D01*
X146627363Y-71805262D01*
X146627359Y-71805257D01*
X145693913Y-70871812D01*
X145693909Y-70871807D01*
X144818461Y-69996360D01*
X144717924Y-69913851D01*
X144564873Y-69832044D01*
X144398804Y-69781668D01*
X144337243Y-69775604D01*
X144247303Y-69748321D01*
X144132560Y-69737020D01*
X144132557Y-69737020D01*
X144094200Y-69733242D01*
X144055843Y-69737020D01*
X120909337Y-69737020D01*
X120870980Y-69733242D01*
X120832623Y-69737020D01*
X120832620Y-69737020D01*
X120717877Y-69748321D01*
X120570658Y-69792980D01*
X120512027Y-69824319D01*
X120434980Y-69865501D01*
X120379530Y-69911008D01*
X120316058Y-69963098D01*
X120291606Y-69992893D01*
X115433179Y-74851321D01*
X115286422Y-74895840D01*
X115281820Y-74898300D01*
X113556028Y-74898300D01*
X113517679Y-74894523D01*
X113479330Y-74898300D01*
X113479320Y-74898300D01*
X113364577Y-74909601D01*
X113232295Y-74949729D01*
X113217358Y-74954260D01*
X113081680Y-75026781D01*
X113033943Y-75065958D01*
X112962758Y-75124378D01*
X112938306Y-75154173D01*
X111148518Y-76943962D01*
X111118718Y-76968418D01*
X111070528Y-77027138D01*
X111021121Y-77087341D01*
X111000281Y-77126331D01*
X110948600Y-77223019D01*
X110903941Y-77370238D01*
X110896370Y-77447111D01*
X110888862Y-77523340D01*
X110892640Y-77561697D01*
X110892641Y-88767650D01*
X110888862Y-88806020D01*
X110892640Y-88844380D01*
X110892641Y-90047814D01*
X110888862Y-90086180D01*
X110898780Y-90186873D01*
X110903942Y-90239283D01*
X110917389Y-90283611D01*
X110948600Y-90386500D01*
X111021121Y-90522179D01*
X111065356Y-90576079D01*
X111118719Y-90641102D01*
X111165182Y-90679233D01*
X111237641Y-90738699D01*
X111298509Y-90771233D01*
X111373319Y-90811220D01*
X111520538Y-90855879D01*
X111673640Y-90870958D01*
X111826743Y-90855879D01*
X111874167Y-90841493D01*
X111910922Y-90886280D01*
X111867998Y-90938584D01*
X111832619Y-91004772D01*
X111810833Y-91076591D01*
X111803477Y-91151280D01*
X111803477Y-91891280D01*
X111810833Y-91965969D01*
X111832619Y-92037788D01*
X111867998Y-92103976D01*
X111910922Y-92156280D01*
X111867998Y-92208584D01*
X111832619Y-92274772D01*
X111810833Y-92346591D01*
X111803477Y-92421280D01*
X111803477Y-93161280D01*
X111810833Y-93235969D01*
X111832619Y-93307788D01*
X111867998Y-93373976D01*
X111910922Y-93426280D01*
X111888436Y-93453680D01*
X111103741Y-93453680D01*
X111003099Y-93353038D01*
X110875182Y-93267567D01*
X110733049Y-93208693D01*
X110582162Y-93178680D01*
X110428318Y-93178680D01*
X110277431Y-93208693D01*
X110135298Y-93267567D01*
X110007381Y-93353038D01*
X109898598Y-93461821D01*
X109813127Y-93589738D01*
X109754253Y-93731871D01*
X109724240Y-93882758D01*
X109724240Y-94036602D01*
X109754253Y-94187489D01*
X109813127Y-94329622D01*
X109898598Y-94457539D01*
X110007381Y-94566322D01*
X110135298Y-94651793D01*
X110277431Y-94710667D01*
X110428318Y-94740680D01*
X110582162Y-94740680D01*
X110733049Y-94710667D01*
X110875182Y-94651793D01*
X111003099Y-94566322D01*
X111103741Y-94465680D01*
X111806865Y-94465680D01*
X111810833Y-94505969D01*
X111832619Y-94577788D01*
X111867998Y-94643976D01*
X111910922Y-94696280D01*
X111867998Y-94748584D01*
X111832619Y-94814772D01*
X111829431Y-94825280D01*
X111414005Y-94825280D01*
X111389159Y-94822833D01*
X111364313Y-94825280D01*
X111364306Y-94825280D01*
X111289967Y-94832602D01*
X111194585Y-94861535D01*
X111106681Y-94908521D01*
X111029633Y-94971753D01*
X111013788Y-94991060D01*
X110477440Y-95527409D01*
X110458134Y-95543253D01*
X110394902Y-95620301D01*
X110381108Y-95646108D01*
X110347915Y-95708206D01*
X110318982Y-95803588D01*
X110309213Y-95902780D01*
X110311661Y-95927636D01*
X110311661Y-96307578D01*
X110211018Y-96408221D01*
X110125547Y-96536138D01*
X110066673Y-96678271D01*
X110036660Y-96829158D01*
X110036660Y-96983002D01*
X110066673Y-97133889D01*
X110125547Y-97276022D01*
X110211018Y-97403939D01*
X110319801Y-97512722D01*
X110447718Y-97598193D01*
X110589851Y-97657067D01*
X110740738Y-97687080D01*
X110894582Y-97687080D01*
X111045469Y-97657067D01*
X111053340Y-97653807D01*
X111053341Y-99148681D01*
X110621701Y-98474244D01*
X110138631Y-97428622D01*
X109360008Y-95378518D01*
X108784536Y-93472057D01*
X107798744Y-84402766D01*
X109311338Y-75327202D01*
X109813032Y-73886806D01*
X109933631Y-73588312D01*
X110988901Y-74197573D01*
X110990437Y-74198269D01*
X111019913Y-74215014D01*
X111039871Y-74223900D01*
X111058799Y-74234828D01*
X111064935Y-74237560D01*
X111780305Y-74550097D01*
X111821769Y-74563569D01*
X111863036Y-74577617D01*
X111869585Y-74579105D01*
X112632037Y-74746741D01*
X112675303Y-74751900D01*
X112718538Y-74757669D01*
X112725251Y-74757856D01*
X113505743Y-74774206D01*
X113549190Y-74770863D01*
X113592720Y-74768124D01*
X113599342Y-74767004D01*
X114368145Y-74631444D01*
X114410116Y-74619725D01*
X114452283Y-74608584D01*
X114458561Y-74606199D01*
X115186392Y-74323892D01*
X115225262Y-74304257D01*
X115264488Y-74285125D01*
X115270184Y-74281566D01*
X115929318Y-73863266D01*
X115963655Y-73836439D01*
X115998397Y-73810068D01*
X116003293Y-73805471D01*
X116568628Y-73267110D01*
X116597129Y-73234091D01*
X116626058Y-73201508D01*
X116629968Y-73196047D01*
X117079967Y-72558132D01*
X117101509Y-72520211D01*
X117123561Y-72482624D01*
X117126335Y-72476508D01*
X117443860Y-71763337D01*
X117457623Y-71721962D01*
X117471957Y-71680801D01*
X117473491Y-71674262D01*
X117646446Y-70912999D01*
X117651909Y-70869753D01*
X117657977Y-70826577D01*
X117658211Y-70819865D01*
X117680009Y-70039506D01*
X117676970Y-69996044D01*
X117674535Y-69952489D01*
X117673461Y-69945859D01*
X117543271Y-69176129D01*
X117531841Y-69134061D01*
X117520999Y-69091833D01*
X117518658Y-69085538D01*
X117241439Y-68355755D01*
X117222067Y-68316731D01*
X117203218Y-68277390D01*
X117199699Y-68271670D01*
X116786010Y-67609630D01*
X116759426Y-67575110D01*
X116733296Y-67540182D01*
X116728733Y-67535254D01*
X116607166Y-67405798D01*
X129698800Y-67405798D01*
X129698800Y-67559642D01*
X129728813Y-67710529D01*
X129787687Y-67852662D01*
X129873158Y-67980579D01*
X129981941Y-68089362D01*
X130109858Y-68174833D01*
X130251991Y-68233707D01*
X130402878Y-68263720D01*
X130556722Y-68263720D01*
X130707609Y-68233707D01*
X130849742Y-68174833D01*
X130977659Y-68089362D01*
X131086442Y-67980579D01*
X131171913Y-67852662D01*
X131230787Y-67710529D01*
X131260800Y-67559642D01*
X131260800Y-67405798D01*
X131230787Y-67254911D01*
X131171913Y-67112778D01*
X131086442Y-66984861D01*
X130977659Y-66876078D01*
X130849742Y-66790607D01*
X130707609Y-66731733D01*
X130556722Y-66701720D01*
X130402878Y-66701720D01*
X130251991Y-66731733D01*
X130109858Y-66790607D01*
X129981941Y-66876078D01*
X129873158Y-66984861D01*
X129787687Y-67112778D01*
X129728813Y-67254911D01*
X129698800Y-67405798D01*
X116607166Y-67405798D01*
X116194333Y-66966175D01*
X116161528Y-66937456D01*
X116129133Y-66908288D01*
X116123700Y-66904340D01*
X115490606Y-66451091D01*
X115469901Y-66436253D01*
X114537167Y-65897739D01*
X115099079Y-65006431D01*
X115464419Y-64558534D01*
X116965719Y-62960002D01*
X118574874Y-61470083D01*
X119947376Y-60366696D01*
X126005856Y-56832583D01*
X134455993Y-54896094D01*
X133217541Y-56134546D01*
G37*
%TD.AperFunction*%
D17*
X143443941Y-101617362D02*
X143571858Y-101702833D01*
X143713991Y-101761707D01*
X143864878Y-101791720D01*
X144018722Y-101791720D01*
X144169609Y-101761707D01*
X144311742Y-101702833D01*
X144439659Y-101617362D01*
X144540301Y-101516720D01*
X147399135Y-101516720D01*
X147399136Y-105271240D01*
X147319209Y-105238133D01*
X147168322Y-105208120D01*
X147014478Y-105208120D01*
X146863591Y-105238133D01*
X146721458Y-105297007D01*
X146593541Y-105382478D01*
X146492899Y-105483120D01*
X142017792Y-105483120D01*
X141704600Y-105169929D01*
X141704600Y-102677859D01*
X141846678Y-102706120D01*
X142000522Y-102706120D01*
X142151409Y-102676107D01*
X142293542Y-102617233D01*
X142421459Y-102531762D01*
X142530242Y-102422979D01*
X142615713Y-102295062D01*
X142674587Y-102152929D01*
X142704600Y-102002042D01*
X142704600Y-101848198D01*
X142674587Y-101697311D01*
X142615713Y-101555178D01*
X142590016Y-101516720D01*
X143343299Y-101516720D01*
X143443941Y-101617362D01*
%TA.AperFunction,Conductor*%
D18*
G36*
X143443941Y-101617362D02*
G01*
X143571858Y-101702833D01*
X143713991Y-101761707D01*
X143864878Y-101791720D01*
X144018722Y-101791720D01*
X144169609Y-101761707D01*
X144311742Y-101702833D01*
X144439659Y-101617362D01*
X144540301Y-101516720D01*
X147399135Y-101516720D01*
X147399136Y-105271240D01*
X147319209Y-105238133D01*
X147168322Y-105208120D01*
X147014478Y-105208120D01*
X146863591Y-105238133D01*
X146721458Y-105297007D01*
X146593541Y-105382478D01*
X146492899Y-105483120D01*
X142017792Y-105483120D01*
X141704600Y-105169929D01*
X141704600Y-102677859D01*
X141846678Y-102706120D01*
X142000522Y-102706120D01*
X142151409Y-102676107D01*
X142293542Y-102617233D01*
X142421459Y-102531762D01*
X142530242Y-102422979D01*
X142615713Y-102295062D01*
X142674587Y-102152929D01*
X142704600Y-102002042D01*
X142704600Y-101848198D01*
X142674587Y-101697311D01*
X142615713Y-101555178D01*
X142590016Y-101516720D01*
X143343299Y-101516720D01*
X143443941Y-101617362D01*
G37*
%TD.AperFunction*%
D17*
X122176001Y-96216513D02*
X122176000Y-101595349D01*
X118864928Y-98284277D01*
X118869163Y-98241280D01*
X118869163Y-97501280D01*
X118861807Y-97426591D01*
X118840021Y-97354772D01*
X118804642Y-97288584D01*
X118761718Y-97236280D01*
X118804642Y-97183976D01*
X118840021Y-97117788D01*
X118843209Y-97107280D01*
X119786241Y-97107280D01*
X119911651Y-97159227D01*
X120062538Y-97189240D01*
X120216382Y-97189240D01*
X120367269Y-97159227D01*
X120509402Y-97100353D01*
X120637319Y-97014882D01*
X120746102Y-96906099D01*
X120831573Y-96778182D01*
X120890447Y-96636049D01*
X120920460Y-96485162D01*
X120920460Y-96331318D01*
X120890447Y-96180431D01*
X120831573Y-96038298D01*
X120746102Y-95910381D01*
X120673001Y-95837280D01*
X121796769Y-95837280D01*
X122176001Y-96216513D01*
%TA.AperFunction,Conductor*%
D18*
G36*
X122176001Y-96216513D02*
G01*
X122176000Y-101595349D01*
X118864928Y-98284277D01*
X118869163Y-98241280D01*
X118869163Y-97501280D01*
X118861807Y-97426591D01*
X118840021Y-97354772D01*
X118804642Y-97288584D01*
X118761718Y-97236280D01*
X118804642Y-97183976D01*
X118840021Y-97117788D01*
X118843209Y-97107280D01*
X119786241Y-97107280D01*
X119911651Y-97159227D01*
X120062538Y-97189240D01*
X120216382Y-97189240D01*
X120367269Y-97159227D01*
X120509402Y-97100353D01*
X120637319Y-97014882D01*
X120746102Y-96906099D01*
X120831573Y-96778182D01*
X120890447Y-96636049D01*
X120920460Y-96485162D01*
X120920460Y-96331318D01*
X120890447Y-96180431D01*
X120831573Y-96038298D01*
X120746102Y-95910381D01*
X120673001Y-95837280D01*
X121796769Y-95837280D01*
X122176001Y-96216513D01*
G37*
%TD.AperFunction*%
D17*
X147342540Y-54936018D02*
X148106487Y-55172549D01*
X152695648Y-56948999D01*
X153466174Y-57311636D01*
X155380426Y-58381624D01*
X155661940Y-58565865D01*
X159782677Y-61626984D01*
X160612041Y-62353124D01*
X162157201Y-63909292D01*
X163593359Y-65573297D01*
X163791569Y-65826993D01*
X162736299Y-66436254D01*
X162734935Y-66437231D01*
X162705684Y-66454393D01*
X162688008Y-66467236D01*
X162669088Y-66478159D01*
X162663654Y-66482107D01*
X162035302Y-66945367D01*
X162002926Y-66974519D01*
X161970102Y-67003254D01*
X161965539Y-67008182D01*
X161439136Y-67584667D01*
X161413024Y-67619572D01*
X161386422Y-67654116D01*
X161382902Y-67659836D01*
X160978499Y-68327587D01*
X160959677Y-68366872D01*
X160940278Y-68405951D01*
X160937937Y-68412246D01*
X160784020Y-68835128D01*
X160784020Y-63944376D01*
X160786467Y-63919530D01*
X160784020Y-63894684D01*
X160784020Y-63894677D01*
X160776698Y-63820338D01*
X160747765Y-63724956D01*
X160700779Y-63637052D01*
X160637547Y-63560004D01*
X160618240Y-63544159D01*
X157662792Y-60588712D01*
X157653073Y-60575979D01*
X157627634Y-60553554D01*
X157621310Y-60547230D01*
X157608997Y-60537125D01*
X157597038Y-60526583D01*
X157589776Y-60521351D01*
X157563567Y-60499842D01*
X157549442Y-60492292D01*
X157314125Y-60322754D01*
X157311933Y-60320866D01*
X157293949Y-60308218D01*
X157276138Y-60295386D01*
X157273640Y-60293935D01*
X157197937Y-60240695D01*
X157173945Y-60221005D01*
X157135273Y-60200334D01*
X157097200Y-60178800D01*
X157091423Y-60176896D01*
X157086041Y-60174019D01*
X157044107Y-60161299D01*
X157002537Y-60147596D01*
X156996487Y-60146854D01*
X156990659Y-60145086D01*
X156947082Y-60140794D01*
X156903605Y-60135461D01*
X156872667Y-60137764D01*
X151790436Y-60137764D01*
X148278800Y-56626129D01*
X148278800Y-56483798D01*
X148248787Y-56332911D01*
X148189913Y-56190778D01*
X148104442Y-56062861D01*
X147995659Y-55954078D01*
X147867742Y-55868607D01*
X147725609Y-55809733D01*
X147574722Y-55779720D01*
X147432392Y-55779720D01*
X146357617Y-54704945D01*
X147342540Y-54936018D01*
%TA.AperFunction,Conductor*%
D18*
G36*
X147342540Y-54936018D02*
G01*
X148106487Y-55172549D01*
X152695648Y-56948999D01*
X153466174Y-57311636D01*
X155380426Y-58381624D01*
X155661940Y-58565865D01*
X159782677Y-61626984D01*
X160612041Y-62353124D01*
X162157201Y-63909292D01*
X163593359Y-65573297D01*
X163791569Y-65826993D01*
X162736299Y-66436254D01*
X162734935Y-66437231D01*
X162705684Y-66454393D01*
X162688008Y-66467236D01*
X162669088Y-66478159D01*
X162663654Y-66482107D01*
X162035302Y-66945367D01*
X162002926Y-66974519D01*
X161970102Y-67003254D01*
X161965539Y-67008182D01*
X161439136Y-67584667D01*
X161413024Y-67619572D01*
X161386422Y-67654116D01*
X161382902Y-67659836D01*
X160978499Y-68327587D01*
X160959677Y-68366872D01*
X160940278Y-68405951D01*
X160937937Y-68412246D01*
X160784020Y-68835128D01*
X160784020Y-63944376D01*
X160786467Y-63919530D01*
X160784020Y-63894684D01*
X160784020Y-63894677D01*
X160776698Y-63820338D01*
X160747765Y-63724956D01*
X160700779Y-63637052D01*
X160637547Y-63560004D01*
X160618240Y-63544159D01*
X157662792Y-60588712D01*
X157653073Y-60575979D01*
X157627634Y-60553554D01*
X157621310Y-60547230D01*
X157608997Y-60537125D01*
X157597038Y-60526583D01*
X157589776Y-60521351D01*
X157563567Y-60499842D01*
X157549442Y-60492292D01*
X157314125Y-60322754D01*
X157311933Y-60320866D01*
X157293949Y-60308218D01*
X157276138Y-60295386D01*
X157273640Y-60293935D01*
X157197937Y-60240695D01*
X157173945Y-60221005D01*
X157135273Y-60200334D01*
X157097200Y-60178800D01*
X157091423Y-60176896D01*
X157086041Y-60174019D01*
X157044107Y-60161299D01*
X157002537Y-60147596D01*
X156996487Y-60146854D01*
X156990659Y-60145086D01*
X156947082Y-60140794D01*
X156903605Y-60135461D01*
X156872667Y-60137764D01*
X151790436Y-60137764D01*
X148278800Y-56626129D01*
X148278800Y-56483798D01*
X148248787Y-56332911D01*
X148189913Y-56190778D01*
X148104442Y-56062861D01*
X147995659Y-55954078D01*
X147867742Y-55868607D01*
X147725609Y-55809733D01*
X147574722Y-55779720D01*
X147432392Y-55779720D01*
X146357617Y-54704945D01*
X147342540Y-54936018D01*
G37*
%TD.AperFunction*%
D17*
X146716800Y-56495312D02*
X146716800Y-56537329D01*
X146450776Y-56271305D01*
X146434927Y-56251993D01*
X146357879Y-56188761D01*
X146269975Y-56141775D01*
X146174593Y-56112842D01*
X146100254Y-56105520D01*
X146100246Y-56105520D01*
X146075400Y-56103073D01*
X146050554Y-56105520D01*
X134677749Y-56105520D01*
X135343251Y-55440019D01*
X145661508Y-55440019D01*
X146716800Y-56495312D01*
%TA.AperFunction,Conductor*%
D18*
G36*
X146716800Y-56495312D02*
G01*
X146716800Y-56537329D01*
X146450776Y-56271305D01*
X146434927Y-56251993D01*
X146357879Y-56188761D01*
X146269975Y-56141775D01*
X146174593Y-56112842D01*
X146100254Y-56105520D01*
X146100246Y-56105520D01*
X146075400Y-56103073D01*
X146050554Y-56105520D01*
X134677749Y-56105520D01*
X135343251Y-55440019D01*
X145661508Y-55440019D01*
X146716800Y-56495312D01*
G37*
%TD.AperFunction*%
%TD*%
M02*
