%TF.GenerationSoftware,KiCad,Pcbnew,(5.1.9)-1*%
%TF.CreationDate,2024-04-03T17:37:13+03:00*%
%TF.ProjectId,jantteri_right,6a616e74-7465-4726-995f-72696768742e,rev?*%
%TF.SameCoordinates,Original*%
%TF.FileFunction,Soldermask,Bot*%
%TF.FilePolarity,Negative*%
%FSLAX46Y46*%
G04 Gerber Fmt 4.6, Leading zero omitted, Abs format (unit mm)*
G04 Created by KiCad (PCBNEW (5.1.9)-1) date 2024-04-03 17:37:13*
%MOMM*%
%LPD*%
G01*
G04 APERTURE LIST*
%ADD10O,1.700000X1.200000*%
%ADD11C,0.600000*%
%ADD12C,2.700000*%
%ADD13R,2.400000X0.740000*%
G04 APERTURE END LIST*
D10*
%TO.C,J1*%
X143210720Y-60725660D03*
D11*
X144610720Y-60555660D03*
D10*
X143210720Y-57785660D03*
X135010720Y-60725660D03*
X135010720Y-57785660D03*
D11*
X133610720Y-60555660D03*
%TD*%
D12*
%TO.C,J3*%
X116052600Y-82517120D03*
G36*
G01*
X114952601Y-77207120D02*
X117152599Y-77207120D01*
G75*
G02*
X117402600Y-77457121I0J-250001D01*
G01*
X117402600Y-79657119D01*
G75*
G02*
X117152599Y-79907120I-250001J0D01*
G01*
X114952601Y-79907120D01*
G75*
G02*
X114702600Y-79657119I0J250001D01*
G01*
X114702600Y-77457121D01*
G75*
G02*
X114952601Y-77207120I250001J0D01*
G01*
G37*
%TD*%
%TO.C,J2*%
X161597200Y-88044020D03*
G36*
G01*
X166907200Y-86944021D02*
X166907200Y-89144019D01*
G75*
G02*
X166657199Y-89394020I-250001J0D01*
G01*
X164457201Y-89394020D01*
G75*
G02*
X164207200Y-89144019I0J250001D01*
G01*
X164207200Y-86944021D01*
G75*
G02*
X164457201Y-86694020I250001J0D01*
G01*
X166657199Y-86694020D01*
G75*
G02*
X166907200Y-86944021I0J-250001D01*
G01*
G37*
%TD*%
%TO.C,L1*%
G36*
G01*
X160358400Y-100183700D02*
X163288400Y-100183700D01*
G75*
G02*
X163523400Y-100418700I0J-235000D01*
G01*
X163523400Y-102298700D01*
G75*
G02*
X163288400Y-102533700I-235000J0D01*
G01*
X160358400Y-102533700D01*
G75*
G02*
X160123400Y-102298700I0J235000D01*
G01*
X160123400Y-100418700D01*
G75*
G02*
X160358400Y-100183700I235000J0D01*
G01*
G37*
G36*
G01*
X160358400Y-94133700D02*
X163288400Y-94133700D01*
G75*
G02*
X163523400Y-94368700I0J-235000D01*
G01*
X163523400Y-96248700D01*
G75*
G02*
X163288400Y-96483700I-235000J0D01*
G01*
X160358400Y-96483700D01*
G75*
G02*
X160123400Y-96248700I0J235000D01*
G01*
X160123400Y-94368700D01*
G75*
G02*
X160358400Y-94133700I235000J0D01*
G01*
G37*
%TD*%
D13*
%TO.C,J4*%
X117286320Y-88981280D03*
X113386320Y-88981280D03*
X117286320Y-90251280D03*
X113386320Y-90251280D03*
X117286320Y-91521280D03*
X113386320Y-91521280D03*
X117286320Y-92791280D03*
X113386320Y-92791280D03*
X117286320Y-94061280D03*
X113386320Y-94061280D03*
X117286320Y-95331280D03*
X113386320Y-95331280D03*
X117286320Y-96601280D03*
X113386320Y-96601280D03*
X117286320Y-97871280D03*
X113386320Y-97871280D03*
%TD*%
M02*
