%TF.GenerationSoftware,KiCad,Pcbnew,(5.1.9)-1*%
%TF.CreationDate,2024-04-03T17:37:13+03:00*%
%TF.ProjectId,jantteri_right,6a616e74-7465-4726-995f-72696768742e,rev?*%
%TF.SameCoordinates,Original*%
%TF.FileFunction,Paste,Top*%
%TF.FilePolarity,Positive*%
%FSLAX46Y46*%
G04 Gerber Fmt 4.6, Leading zero omitted, Abs format (unit mm)*
G04 Created by KiCad (PCBNEW (5.1.9)-1) date 2024-04-03 17:37:13*
%MOMM*%
%LPD*%
G01*
G04 APERTURE LIST*
%ADD10R,0.270000X1.300000*%
%ADD11R,0.450000X1.050000*%
%ADD12R,0.537000X0.882000*%
%ADD13R,0.800000X0.900000*%
%ADD14R,2.500000X1.800000*%
%ADD15R,0.450000X0.600000*%
%ADD16R,0.360000X0.250000*%
%ADD17R,0.700000X0.450000*%
%ADD18R,0.900000X0.800000*%
%ADD19C,0.100000*%
%ADD20R,1.300000X0.900000*%
%ADD21R,1.100000X1.100000*%
G04 APERTURE END LIST*
D10*
%TO.C,J1*%
X141860720Y-61005660D03*
X141360720Y-61005660D03*
X140860720Y-61005660D03*
X140360720Y-61005660D03*
X139860720Y-61005660D03*
X139360720Y-61005660D03*
X138860720Y-61005660D03*
X136360720Y-61005660D03*
X137360720Y-61005660D03*
X137860720Y-61005660D03*
X138360720Y-61005660D03*
X136860720Y-61005660D03*
X136360720Y-57505660D03*
X136860720Y-57505660D03*
X137360720Y-57505660D03*
X137860720Y-57505660D03*
X138360720Y-57505660D03*
X138860720Y-57505660D03*
X139360720Y-57505660D03*
X139860720Y-57505660D03*
X140360720Y-57505660D03*
X140860720Y-57505660D03*
X141360720Y-57505660D03*
X141860720Y-57505660D03*
%TD*%
%TO.C,C9*%
G36*
G01*
X131356400Y-104000320D02*
X131356400Y-103050320D01*
G75*
G02*
X131606400Y-102800320I250000J0D01*
G01*
X132106400Y-102800320D01*
G75*
G02*
X132356400Y-103050320I0J-250000D01*
G01*
X132356400Y-104000320D01*
G75*
G02*
X132106400Y-104250320I-250000J0D01*
G01*
X131606400Y-104250320D01*
G75*
G02*
X131356400Y-104000320I0J250000D01*
G01*
G37*
G36*
G01*
X133256400Y-104000320D02*
X133256400Y-103050320D01*
G75*
G02*
X133506400Y-102800320I250000J0D01*
G01*
X134006400Y-102800320D01*
G75*
G02*
X134256400Y-103050320I0J-250000D01*
G01*
X134256400Y-104000320D01*
G75*
G02*
X134006400Y-104250320I-250000J0D01*
G01*
X133506400Y-104250320D01*
G75*
G02*
X133256400Y-104000320I0J250000D01*
G01*
G37*
%TD*%
D11*
%TO.C,U2*%
X134240700Y-92914420D03*
X133590700Y-92914420D03*
X132940700Y-92914420D03*
X132290700Y-92914420D03*
X131640700Y-92914420D03*
X130990700Y-92914420D03*
X130340700Y-92914420D03*
X129690700Y-92914420D03*
X129690700Y-98464420D03*
X130340700Y-98464420D03*
X130990700Y-98464420D03*
X131640700Y-98464420D03*
X132290700Y-98464420D03*
X132940700Y-98464420D03*
X133590700Y-98464420D03*
X134240700Y-98464420D03*
D12*
X130623200Y-96424420D03*
X131518200Y-96424420D03*
X132413200Y-96424420D03*
X133308200Y-96424420D03*
X130623200Y-94954420D03*
X131518200Y-94954420D03*
X132413200Y-94954420D03*
X133308200Y-94954420D03*
%TD*%
%TO.C,C20*%
G36*
G01*
X149242600Y-65883120D02*
X148902600Y-65883120D01*
G75*
G02*
X148762600Y-65743120I0J140000D01*
G01*
X148762600Y-65463120D01*
G75*
G02*
X148902600Y-65323120I140000J0D01*
G01*
X149242600Y-65323120D01*
G75*
G02*
X149382600Y-65463120I0J-140000D01*
G01*
X149382600Y-65743120D01*
G75*
G02*
X149242600Y-65883120I-140000J0D01*
G01*
G37*
G36*
G01*
X149242600Y-66843120D02*
X148902600Y-66843120D01*
G75*
G02*
X148762600Y-66703120I0J140000D01*
G01*
X148762600Y-66423120D01*
G75*
G02*
X148902600Y-66283120I140000J0D01*
G01*
X149242600Y-66283120D01*
G75*
G02*
X149382600Y-66423120I0J-140000D01*
G01*
X149382600Y-66703120D01*
G75*
G02*
X149242600Y-66843120I-140000J0D01*
G01*
G37*
%TD*%
D13*
%TO.C,Q2*%
X152542240Y-81499200D03*
X153492240Y-83499200D03*
X151592240Y-83499200D03*
%TD*%
%TO.C,C1*%
G36*
G01*
X133189800Y-72103520D02*
X132849800Y-72103520D01*
G75*
G02*
X132709800Y-71963520I0J140000D01*
G01*
X132709800Y-71683520D01*
G75*
G02*
X132849800Y-71543520I140000J0D01*
G01*
X133189800Y-71543520D01*
G75*
G02*
X133329800Y-71683520I0J-140000D01*
G01*
X133329800Y-71963520D01*
G75*
G02*
X133189800Y-72103520I-140000J0D01*
G01*
G37*
G36*
G01*
X133189800Y-71143520D02*
X132849800Y-71143520D01*
G75*
G02*
X132709800Y-71003520I0J140000D01*
G01*
X132709800Y-70723520D01*
G75*
G02*
X132849800Y-70583520I140000J0D01*
G01*
X133189800Y-70583520D01*
G75*
G02*
X133329800Y-70723520I0J-140000D01*
G01*
X133329800Y-71003520D01*
G75*
G02*
X133189800Y-71143520I-140000J0D01*
G01*
G37*
%TD*%
%TO.C,C2*%
G36*
G01*
X122717380Y-66784880D02*
X122377380Y-66784880D01*
G75*
G02*
X122237380Y-66644880I0J140000D01*
G01*
X122237380Y-66364880D01*
G75*
G02*
X122377380Y-66224880I140000J0D01*
G01*
X122717380Y-66224880D01*
G75*
G02*
X122857380Y-66364880I0J-140000D01*
G01*
X122857380Y-66644880D01*
G75*
G02*
X122717380Y-66784880I-140000J0D01*
G01*
G37*
G36*
G01*
X122717380Y-67744880D02*
X122377380Y-67744880D01*
G75*
G02*
X122237380Y-67604880I0J140000D01*
G01*
X122237380Y-67324880D01*
G75*
G02*
X122377380Y-67184880I140000J0D01*
G01*
X122717380Y-67184880D01*
G75*
G02*
X122857380Y-67324880I0J-140000D01*
G01*
X122857380Y-67604880D01*
G75*
G02*
X122717380Y-67744880I-140000J0D01*
G01*
G37*
%TD*%
%TO.C,C3*%
G36*
G01*
X126214600Y-69583120D02*
X126214600Y-69243120D01*
G75*
G02*
X126354600Y-69103120I140000J0D01*
G01*
X126634600Y-69103120D01*
G75*
G02*
X126774600Y-69243120I0J-140000D01*
G01*
X126774600Y-69583120D01*
G75*
G02*
X126634600Y-69723120I-140000J0D01*
G01*
X126354600Y-69723120D01*
G75*
G02*
X126214600Y-69583120I0J140000D01*
G01*
G37*
G36*
G01*
X127174600Y-69583120D02*
X127174600Y-69243120D01*
G75*
G02*
X127314600Y-69103120I140000J0D01*
G01*
X127594600Y-69103120D01*
G75*
G02*
X127734600Y-69243120I0J-140000D01*
G01*
X127734600Y-69583120D01*
G75*
G02*
X127594600Y-69723120I-140000J0D01*
G01*
X127314600Y-69723120D01*
G75*
G02*
X127174600Y-69583120I0J140000D01*
G01*
G37*
%TD*%
%TO.C,C4*%
G36*
G01*
X122720280Y-69183980D02*
X123060280Y-69183980D01*
G75*
G02*
X123200280Y-69323980I0J-140000D01*
G01*
X123200280Y-69603980D01*
G75*
G02*
X123060280Y-69743980I-140000J0D01*
G01*
X122720280Y-69743980D01*
G75*
G02*
X122580280Y-69603980I0J140000D01*
G01*
X122580280Y-69323980D01*
G75*
G02*
X122720280Y-69183980I140000J0D01*
G01*
G37*
G36*
G01*
X122720280Y-70143980D02*
X123060280Y-70143980D01*
G75*
G02*
X123200280Y-70283980I0J-140000D01*
G01*
X123200280Y-70563980D01*
G75*
G02*
X123060280Y-70703980I-140000J0D01*
G01*
X122720280Y-70703980D01*
G75*
G02*
X122580280Y-70563980I0J140000D01*
G01*
X122580280Y-70283980D01*
G75*
G02*
X122720280Y-70143980I140000J0D01*
G01*
G37*
%TD*%
%TO.C,C5*%
G36*
G01*
X121442660Y-70133820D02*
X121782660Y-70133820D01*
G75*
G02*
X121922660Y-70273820I0J-140000D01*
G01*
X121922660Y-70553820D01*
G75*
G02*
X121782660Y-70693820I-140000J0D01*
G01*
X121442660Y-70693820D01*
G75*
G02*
X121302660Y-70553820I0J140000D01*
G01*
X121302660Y-70273820D01*
G75*
G02*
X121442660Y-70133820I140000J0D01*
G01*
G37*
G36*
G01*
X121442660Y-69173820D02*
X121782660Y-69173820D01*
G75*
G02*
X121922660Y-69313820I0J-140000D01*
G01*
X121922660Y-69593820D01*
G75*
G02*
X121782660Y-69733820I-140000J0D01*
G01*
X121442660Y-69733820D01*
G75*
G02*
X121302660Y-69593820I0J140000D01*
G01*
X121302660Y-69313820D01*
G75*
G02*
X121442660Y-69173820I140000J0D01*
G01*
G37*
%TD*%
%TO.C,C6*%
G36*
G01*
X125820600Y-62159119D02*
X125820600Y-63459121D01*
G75*
G02*
X125570601Y-63709120I-249999J0D01*
G01*
X124920599Y-63709120D01*
G75*
G02*
X124670600Y-63459121I0J249999D01*
G01*
X124670600Y-62159119D01*
G75*
G02*
X124920599Y-61909120I249999J0D01*
G01*
X125570601Y-61909120D01*
G75*
G02*
X125820600Y-62159119I0J-249999D01*
G01*
G37*
G36*
G01*
X128770600Y-62159119D02*
X128770600Y-63459121D01*
G75*
G02*
X128520601Y-63709120I-249999J0D01*
G01*
X127870599Y-63709120D01*
G75*
G02*
X127620600Y-63459121I0J249999D01*
G01*
X127620600Y-62159119D01*
G75*
G02*
X127870599Y-61909120I249999J0D01*
G01*
X128520601Y-61909120D01*
G75*
G02*
X128770600Y-62159119I0J-249999D01*
G01*
G37*
%TD*%
%TO.C,C7*%
G36*
G01*
X157982400Y-73081119D02*
X157982400Y-74381121D01*
G75*
G02*
X157732401Y-74631120I-249999J0D01*
G01*
X157082399Y-74631120D01*
G75*
G02*
X156832400Y-74381121I0J249999D01*
G01*
X156832400Y-73081119D01*
G75*
G02*
X157082399Y-72831120I249999J0D01*
G01*
X157732401Y-72831120D01*
G75*
G02*
X157982400Y-73081119I0J-249999D01*
G01*
G37*
G36*
G01*
X155032400Y-73081119D02*
X155032400Y-74381121D01*
G75*
G02*
X154782401Y-74631120I-249999J0D01*
G01*
X154132399Y-74631120D01*
G75*
G02*
X153882400Y-74381121I0J249999D01*
G01*
X153882400Y-73081119D01*
G75*
G02*
X154132399Y-72831120I249999J0D01*
G01*
X154782401Y-72831120D01*
G75*
G02*
X155032400Y-73081119I0J-249999D01*
G01*
G37*
%TD*%
%TO.C,C8*%
G36*
G01*
X131363000Y-101883020D02*
X131363000Y-101383020D01*
G75*
G02*
X131588000Y-101158020I225000J0D01*
G01*
X132038000Y-101158020D01*
G75*
G02*
X132263000Y-101383020I0J-225000D01*
G01*
X132263000Y-101883020D01*
G75*
G02*
X132038000Y-102108020I-225000J0D01*
G01*
X131588000Y-102108020D01*
G75*
G02*
X131363000Y-101883020I0J225000D01*
G01*
G37*
G36*
G01*
X132913000Y-101883020D02*
X132913000Y-101383020D01*
G75*
G02*
X133138000Y-101158020I225000J0D01*
G01*
X133588000Y-101158020D01*
G75*
G02*
X133813000Y-101383020I0J-225000D01*
G01*
X133813000Y-101883020D01*
G75*
G02*
X133588000Y-102108020I-225000J0D01*
G01*
X133138000Y-102108020D01*
G75*
G02*
X132913000Y-101883020I0J225000D01*
G01*
G37*
%TD*%
%TO.C,C10*%
G36*
G01*
X125839200Y-80101740D02*
X126789200Y-80101740D01*
G75*
G02*
X127039200Y-80351740I0J-250000D01*
G01*
X127039200Y-80851740D01*
G75*
G02*
X126789200Y-81101740I-250000J0D01*
G01*
X125839200Y-81101740D01*
G75*
G02*
X125589200Y-80851740I0J250000D01*
G01*
X125589200Y-80351740D01*
G75*
G02*
X125839200Y-80101740I250000J0D01*
G01*
G37*
G36*
G01*
X125839200Y-82001740D02*
X126789200Y-82001740D01*
G75*
G02*
X127039200Y-82251740I0J-250000D01*
G01*
X127039200Y-82751740D01*
G75*
G02*
X126789200Y-83001740I-250000J0D01*
G01*
X125839200Y-83001740D01*
G75*
G02*
X125589200Y-82751740I0J250000D01*
G01*
X125589200Y-82251740D01*
G75*
G02*
X125839200Y-82001740I250000J0D01*
G01*
G37*
%TD*%
%TO.C,C11*%
G36*
G01*
X145012600Y-95913120D02*
X145512600Y-95913120D01*
G75*
G02*
X145737600Y-96138120I0J-225000D01*
G01*
X145737600Y-96588120D01*
G75*
G02*
X145512600Y-96813120I-225000J0D01*
G01*
X145012600Y-96813120D01*
G75*
G02*
X144787600Y-96588120I0J225000D01*
G01*
X144787600Y-96138120D01*
G75*
G02*
X145012600Y-95913120I225000J0D01*
G01*
G37*
G36*
G01*
X145012600Y-94363120D02*
X145512600Y-94363120D01*
G75*
G02*
X145737600Y-94588120I0J-225000D01*
G01*
X145737600Y-95038120D01*
G75*
G02*
X145512600Y-95263120I-225000J0D01*
G01*
X145012600Y-95263120D01*
G75*
G02*
X144787600Y-95038120I0J225000D01*
G01*
X144787600Y-94588120D01*
G75*
G02*
X145012600Y-94363120I225000J0D01*
G01*
G37*
%TD*%
%TO.C,C12*%
G36*
G01*
X129281300Y-102057220D02*
X129281300Y-101107220D01*
G75*
G02*
X129531300Y-100857220I250000J0D01*
G01*
X130031300Y-100857220D01*
G75*
G02*
X130281300Y-101107220I0J-250000D01*
G01*
X130281300Y-102057220D01*
G75*
G02*
X130031300Y-102307220I-250000J0D01*
G01*
X129531300Y-102307220D01*
G75*
G02*
X129281300Y-102057220I0J250000D01*
G01*
G37*
G36*
G01*
X127381300Y-102057220D02*
X127381300Y-101107220D01*
G75*
G02*
X127631300Y-100857220I250000J0D01*
G01*
X128131300Y-100857220D01*
G75*
G02*
X128381300Y-101107220I0J-250000D01*
G01*
X128381300Y-102057220D01*
G75*
G02*
X128131300Y-102307220I-250000J0D01*
G01*
X127631300Y-102307220D01*
G75*
G02*
X127381300Y-102057220I0J250000D01*
G01*
G37*
%TD*%
%TO.C,C14*%
G36*
G01*
X153610120Y-97668200D02*
X153110120Y-97668200D01*
G75*
G02*
X152885120Y-97443200I0J225000D01*
G01*
X152885120Y-96993200D01*
G75*
G02*
X153110120Y-96768200I225000J0D01*
G01*
X153610120Y-96768200D01*
G75*
G02*
X153835120Y-96993200I0J-225000D01*
G01*
X153835120Y-97443200D01*
G75*
G02*
X153610120Y-97668200I-225000J0D01*
G01*
G37*
G36*
G01*
X153610120Y-99218200D02*
X153110120Y-99218200D01*
G75*
G02*
X152885120Y-98993200I0J225000D01*
G01*
X152885120Y-98543200D01*
G75*
G02*
X153110120Y-98318200I225000J0D01*
G01*
X153610120Y-98318200D01*
G75*
G02*
X153835120Y-98543200I0J-225000D01*
G01*
X153835120Y-98993200D01*
G75*
G02*
X153610120Y-99218200I-225000J0D01*
G01*
G37*
%TD*%
%TO.C,C16*%
G36*
G01*
X149323400Y-105651120D02*
X149323400Y-105311120D01*
G75*
G02*
X149463400Y-105171120I140000J0D01*
G01*
X149743400Y-105171120D01*
G75*
G02*
X149883400Y-105311120I0J-140000D01*
G01*
X149883400Y-105651120D01*
G75*
G02*
X149743400Y-105791120I-140000J0D01*
G01*
X149463400Y-105791120D01*
G75*
G02*
X149323400Y-105651120I0J140000D01*
G01*
G37*
G36*
G01*
X148363400Y-105651120D02*
X148363400Y-105311120D01*
G75*
G02*
X148503400Y-105171120I140000J0D01*
G01*
X148783400Y-105171120D01*
G75*
G02*
X148923400Y-105311120I0J-140000D01*
G01*
X148923400Y-105651120D01*
G75*
G02*
X148783400Y-105791120I-140000J0D01*
G01*
X148503400Y-105791120D01*
G75*
G02*
X148363400Y-105651120I0J140000D01*
G01*
G37*
%TD*%
%TO.C,C17*%
G36*
G01*
X163991100Y-101181620D02*
X163491100Y-101181620D01*
G75*
G02*
X163266100Y-100956620I0J225000D01*
G01*
X163266100Y-100506620D01*
G75*
G02*
X163491100Y-100281620I225000J0D01*
G01*
X163991100Y-100281620D01*
G75*
G02*
X164216100Y-100506620I0J-225000D01*
G01*
X164216100Y-100956620D01*
G75*
G02*
X163991100Y-101181620I-225000J0D01*
G01*
G37*
G36*
G01*
X163991100Y-99631620D02*
X163491100Y-99631620D01*
G75*
G02*
X163266100Y-99406620I0J225000D01*
G01*
X163266100Y-98956620D01*
G75*
G02*
X163491100Y-98731620I225000J0D01*
G01*
X163991100Y-98731620D01*
G75*
G02*
X164216100Y-98956620I0J-225000D01*
G01*
X164216100Y-99406620D01*
G75*
G02*
X163991100Y-99631620I-225000J0D01*
G01*
G37*
%TD*%
%TO.C,C18*%
G36*
G01*
X156827200Y-102883120D02*
X157777200Y-102883120D01*
G75*
G02*
X158027200Y-103133120I0J-250000D01*
G01*
X158027200Y-103633120D01*
G75*
G02*
X157777200Y-103883120I-250000J0D01*
G01*
X156827200Y-103883120D01*
G75*
G02*
X156577200Y-103633120I0J250000D01*
G01*
X156577200Y-103133120D01*
G75*
G02*
X156827200Y-102883120I250000J0D01*
G01*
G37*
G36*
G01*
X156827200Y-100983120D02*
X157777200Y-100983120D01*
G75*
G02*
X158027200Y-101233120I0J-250000D01*
G01*
X158027200Y-101733120D01*
G75*
G02*
X157777200Y-101983120I-250000J0D01*
G01*
X156827200Y-101983120D01*
G75*
G02*
X156577200Y-101733120I0J250000D01*
G01*
X156577200Y-101233120D01*
G75*
G02*
X156827200Y-100983120I250000J0D01*
G01*
G37*
%TD*%
%TO.C,C19*%
G36*
G01*
X151610600Y-64925120D02*
X151610600Y-65265120D01*
G75*
G02*
X151470600Y-65405120I-140000J0D01*
G01*
X151190600Y-65405120D01*
G75*
G02*
X151050600Y-65265120I0J140000D01*
G01*
X151050600Y-64925120D01*
G75*
G02*
X151190600Y-64785120I140000J0D01*
G01*
X151470600Y-64785120D01*
G75*
G02*
X151610600Y-64925120I0J-140000D01*
G01*
G37*
G36*
G01*
X150650600Y-64925120D02*
X150650600Y-65265120D01*
G75*
G02*
X150510600Y-65405120I-140000J0D01*
G01*
X150230600Y-65405120D01*
G75*
G02*
X150090600Y-65265120I0J140000D01*
G01*
X150090600Y-64925120D01*
G75*
G02*
X150230600Y-64785120I140000J0D01*
G01*
X150510600Y-64785120D01*
G75*
G02*
X150650600Y-64925120I0J-140000D01*
G01*
G37*
%TD*%
%TO.C,C21*%
G36*
G01*
X146499600Y-65981120D02*
X145549600Y-65981120D01*
G75*
G02*
X145299600Y-65731120I0J250000D01*
G01*
X145299600Y-65231120D01*
G75*
G02*
X145549600Y-64981120I250000J0D01*
G01*
X146499600Y-64981120D01*
G75*
G02*
X146749600Y-65231120I0J-250000D01*
G01*
X146749600Y-65731120D01*
G75*
G02*
X146499600Y-65981120I-250000J0D01*
G01*
G37*
G36*
G01*
X146499600Y-67881120D02*
X145549600Y-67881120D01*
G75*
G02*
X145299600Y-67631120I0J250000D01*
G01*
X145299600Y-67131120D01*
G75*
G02*
X145549600Y-66881120I250000J0D01*
G01*
X146499600Y-66881120D01*
G75*
G02*
X146749600Y-67131120I0J-250000D01*
G01*
X146749600Y-67631120D01*
G75*
G02*
X146499600Y-67881120I-250000J0D01*
G01*
G37*
%TD*%
%TO.C,C22*%
G36*
G01*
X139936600Y-71412120D02*
X139936600Y-70462120D01*
G75*
G02*
X140186600Y-70212120I250000J0D01*
G01*
X140686600Y-70212120D01*
G75*
G02*
X140936600Y-70462120I0J-250000D01*
G01*
X140936600Y-71412120D01*
G75*
G02*
X140686600Y-71662120I-250000J0D01*
G01*
X140186600Y-71662120D01*
G75*
G02*
X139936600Y-71412120I0J250000D01*
G01*
G37*
G36*
G01*
X141836600Y-71412120D02*
X141836600Y-70462120D01*
G75*
G02*
X142086600Y-70212120I250000J0D01*
G01*
X142586600Y-70212120D01*
G75*
G02*
X142836600Y-70462120I0J-250000D01*
G01*
X142836600Y-71412120D01*
G75*
G02*
X142586600Y-71662120I-250000J0D01*
G01*
X142086600Y-71662120D01*
G75*
G02*
X141836600Y-71412120I0J250000D01*
G01*
G37*
%TD*%
%TO.C,C23*%
G36*
G01*
X132275600Y-64457120D02*
X131325600Y-64457120D01*
G75*
G02*
X131075600Y-64207120I0J250000D01*
G01*
X131075600Y-63707120D01*
G75*
G02*
X131325600Y-63457120I250000J0D01*
G01*
X132275600Y-63457120D01*
G75*
G02*
X132525600Y-63707120I0J-250000D01*
G01*
X132525600Y-64207120D01*
G75*
G02*
X132275600Y-64457120I-250000J0D01*
G01*
G37*
G36*
G01*
X132275600Y-66357120D02*
X131325600Y-66357120D01*
G75*
G02*
X131075600Y-66107120I0J250000D01*
G01*
X131075600Y-65607120D01*
G75*
G02*
X131325600Y-65357120I250000J0D01*
G01*
X132275600Y-65357120D01*
G75*
G02*
X132525600Y-65607120I0J-250000D01*
G01*
X132525600Y-66107120D01*
G75*
G02*
X132275600Y-66357120I-250000J0D01*
G01*
G37*
%TD*%
%TO.C,C24*%
G36*
G01*
X137502600Y-70462120D02*
X137502600Y-71412120D01*
G75*
G02*
X137252600Y-71662120I-250000J0D01*
G01*
X136752600Y-71662120D01*
G75*
G02*
X136502600Y-71412120I0J250000D01*
G01*
X136502600Y-70462120D01*
G75*
G02*
X136752600Y-70212120I250000J0D01*
G01*
X137252600Y-70212120D01*
G75*
G02*
X137502600Y-70462120I0J-250000D01*
G01*
G37*
G36*
G01*
X135602600Y-70462120D02*
X135602600Y-71412120D01*
G75*
G02*
X135352600Y-71662120I-250000J0D01*
G01*
X134852600Y-71662120D01*
G75*
G02*
X134602600Y-71412120I0J250000D01*
G01*
X134602600Y-70462120D01*
G75*
G02*
X134852600Y-70212120I250000J0D01*
G01*
X135352600Y-70212120D01*
G75*
G02*
X135602600Y-70462120I0J-250000D01*
G01*
G37*
%TD*%
%TO.C,C25*%
G36*
G01*
X157929800Y-75570319D02*
X157929800Y-76870321D01*
G75*
G02*
X157679801Y-77120320I-249999J0D01*
G01*
X157029799Y-77120320D01*
G75*
G02*
X156779800Y-76870321I0J249999D01*
G01*
X156779800Y-75570319D01*
G75*
G02*
X157029799Y-75320320I249999J0D01*
G01*
X157679801Y-75320320D01*
G75*
G02*
X157929800Y-75570319I0J-249999D01*
G01*
G37*
G36*
G01*
X154979800Y-75570319D02*
X154979800Y-76870321D01*
G75*
G02*
X154729801Y-77120320I-249999J0D01*
G01*
X154079799Y-77120320D01*
G75*
G02*
X153829800Y-76870321I0J249999D01*
G01*
X153829800Y-75570319D01*
G75*
G02*
X154079799Y-75320320I249999J0D01*
G01*
X154729801Y-75320320D01*
G75*
G02*
X154979800Y-75570319I0J-249999D01*
G01*
G37*
%TD*%
%TO.C,C26*%
G36*
G01*
X154156600Y-77827120D02*
X154656600Y-77827120D01*
G75*
G02*
X154881600Y-78052120I0J-225000D01*
G01*
X154881600Y-78502120D01*
G75*
G02*
X154656600Y-78727120I-225000J0D01*
G01*
X154156600Y-78727120D01*
G75*
G02*
X153931600Y-78502120I0J225000D01*
G01*
X153931600Y-78052120D01*
G75*
G02*
X154156600Y-77827120I225000J0D01*
G01*
G37*
G36*
G01*
X154156600Y-79377120D02*
X154656600Y-79377120D01*
G75*
G02*
X154881600Y-79602120I0J-225000D01*
G01*
X154881600Y-80052120D01*
G75*
G02*
X154656600Y-80277120I-225000J0D01*
G01*
X154156600Y-80277120D01*
G75*
G02*
X153931600Y-80052120I0J225000D01*
G01*
X153931600Y-79602120D01*
G75*
G02*
X154156600Y-79377120I225000J0D01*
G01*
G37*
%TD*%
%TO.C,C27*%
G36*
G01*
X166202599Y-81743120D02*
X167502601Y-81743120D01*
G75*
G02*
X167752600Y-81993119I0J-249999D01*
G01*
X167752600Y-82643121D01*
G75*
G02*
X167502601Y-82893120I-249999J0D01*
G01*
X166202599Y-82893120D01*
G75*
G02*
X165952600Y-82643121I0J249999D01*
G01*
X165952600Y-81993119D01*
G75*
G02*
X166202599Y-81743120I249999J0D01*
G01*
G37*
G36*
G01*
X166202599Y-78793120D02*
X167502601Y-78793120D01*
G75*
G02*
X167752600Y-79043119I0J-249999D01*
G01*
X167752600Y-79693121D01*
G75*
G02*
X167502601Y-79943120I-249999J0D01*
G01*
X166202599Y-79943120D01*
G75*
G02*
X165952600Y-79693121I0J249999D01*
G01*
X165952600Y-79043119D01*
G75*
G02*
X166202599Y-78793120I249999J0D01*
G01*
G37*
%TD*%
%TO.C,C28*%
G36*
G01*
X160992600Y-80731121D02*
X160992600Y-79431119D01*
G75*
G02*
X161242599Y-79181120I249999J0D01*
G01*
X161892601Y-79181120D01*
G75*
G02*
X162142600Y-79431119I0J-249999D01*
G01*
X162142600Y-80731121D01*
G75*
G02*
X161892601Y-80981120I-249999J0D01*
G01*
X161242599Y-80981120D01*
G75*
G02*
X160992600Y-80731121I0J249999D01*
G01*
G37*
G36*
G01*
X163942600Y-80731121D02*
X163942600Y-79431119D01*
G75*
G02*
X164192599Y-79181120I249999J0D01*
G01*
X164842601Y-79181120D01*
G75*
G02*
X165092600Y-79431119I0J-249999D01*
G01*
X165092600Y-80731121D01*
G75*
G02*
X164842601Y-80981120I-249999J0D01*
G01*
X164192599Y-80981120D01*
G75*
G02*
X163942600Y-80731121I0J249999D01*
G01*
G37*
%TD*%
%TO.C,C29*%
G36*
G01*
X162530600Y-92990120D02*
X162030600Y-92990120D01*
G75*
G02*
X161805600Y-92765120I0J225000D01*
G01*
X161805600Y-92315120D01*
G75*
G02*
X162030600Y-92090120I225000J0D01*
G01*
X162530600Y-92090120D01*
G75*
G02*
X162755600Y-92315120I0J-225000D01*
G01*
X162755600Y-92765120D01*
G75*
G02*
X162530600Y-92990120I-225000J0D01*
G01*
G37*
G36*
G01*
X162530600Y-91440120D02*
X162030600Y-91440120D01*
G75*
G02*
X161805600Y-91215120I0J225000D01*
G01*
X161805600Y-90765120D01*
G75*
G02*
X162030600Y-90540120I225000J0D01*
G01*
X162530600Y-90540120D01*
G75*
G02*
X162755600Y-90765120I0J-225000D01*
G01*
X162755600Y-91215120D01*
G75*
G02*
X162530600Y-91440120I-225000J0D01*
G01*
G37*
%TD*%
%TO.C,C30*%
G36*
G01*
X145282800Y-104969120D02*
X145282800Y-104469120D01*
G75*
G02*
X145507800Y-104244120I225000J0D01*
G01*
X145957800Y-104244120D01*
G75*
G02*
X146182800Y-104469120I0J-225000D01*
G01*
X146182800Y-104969120D01*
G75*
G02*
X145957800Y-105194120I-225000J0D01*
G01*
X145507800Y-105194120D01*
G75*
G02*
X145282800Y-104969120I0J225000D01*
G01*
G37*
G36*
G01*
X143732800Y-104969120D02*
X143732800Y-104469120D01*
G75*
G02*
X143957800Y-104244120I225000J0D01*
G01*
X144407800Y-104244120D01*
G75*
G02*
X144632800Y-104469120I0J-225000D01*
G01*
X144632800Y-104969120D01*
G75*
G02*
X144407800Y-105194120I-225000J0D01*
G01*
X143957800Y-105194120D01*
G75*
G02*
X143732800Y-104969120I0J225000D01*
G01*
G37*
%TD*%
D14*
%TO.C,D1*%
X137198600Y-75001120D03*
X141198600Y-75001120D03*
%TD*%
D15*
%TO.C,D2*%
X151358600Y-96811120D03*
X151358600Y-98911120D03*
%TD*%
%TO.C,D3*%
G36*
G01*
X131995890Y-60757620D02*
X131483390Y-60757620D01*
G75*
G02*
X131264640Y-60538870I0J218750D01*
G01*
X131264640Y-60101370D01*
G75*
G02*
X131483390Y-59882620I218750J0D01*
G01*
X131995890Y-59882620D01*
G75*
G02*
X132214640Y-60101370I0J-218750D01*
G01*
X132214640Y-60538870D01*
G75*
G02*
X131995890Y-60757620I-218750J0D01*
G01*
G37*
G36*
G01*
X131995890Y-59182620D02*
X131483390Y-59182620D01*
G75*
G02*
X131264640Y-58963870I0J218750D01*
G01*
X131264640Y-58526370D01*
G75*
G02*
X131483390Y-58307620I218750J0D01*
G01*
X131995890Y-58307620D01*
G75*
G02*
X132214640Y-58526370I0J-218750D01*
G01*
X132214640Y-58963870D01*
G75*
G02*
X131995890Y-59182620I-218750J0D01*
G01*
G37*
%TD*%
%TO.C,D4*%
G36*
G01*
X147750850Y-60678120D02*
X146838350Y-60678120D01*
G75*
G02*
X146594600Y-60434370I0J243750D01*
G01*
X146594600Y-59946870D01*
G75*
G02*
X146838350Y-59703120I243750J0D01*
G01*
X147750850Y-59703120D01*
G75*
G02*
X147994600Y-59946870I0J-243750D01*
G01*
X147994600Y-60434370D01*
G75*
G02*
X147750850Y-60678120I-243750J0D01*
G01*
G37*
G36*
G01*
X147750850Y-58803120D02*
X146838350Y-58803120D01*
G75*
G02*
X146594600Y-58559370I0J243750D01*
G01*
X146594600Y-58071870D01*
G75*
G02*
X146838350Y-57828120I243750J0D01*
G01*
X147750850Y-57828120D01*
G75*
G02*
X147994600Y-58071870I0J-243750D01*
G01*
X147994600Y-58559370D01*
G75*
G02*
X147750850Y-58803120I-243750J0D01*
G01*
G37*
%TD*%
%TO.C,D5*%
X126466600Y-65823120D03*
X126466600Y-67923120D03*
%TD*%
D16*
%TO.C,D7*%
X141110600Y-63063120D03*
X140270600Y-63063120D03*
%TD*%
%TO.C,D8*%
X138570600Y-63063120D03*
X137730600Y-63063120D03*
%TD*%
D17*
%TO.C,D9*%
X122640600Y-64221120D03*
X122640600Y-62921120D03*
X120640600Y-63571120D03*
%TD*%
%TO.C,D11*%
G36*
G01*
X146781000Y-108074170D02*
X146781000Y-107561670D01*
G75*
G02*
X146999750Y-107342920I218750J0D01*
G01*
X147437250Y-107342920D01*
G75*
G02*
X147656000Y-107561670I0J-218750D01*
G01*
X147656000Y-108074170D01*
G75*
G02*
X147437250Y-108292920I-218750J0D01*
G01*
X146999750Y-108292920D01*
G75*
G02*
X146781000Y-108074170I0J218750D01*
G01*
G37*
G36*
G01*
X145206000Y-108074170D02*
X145206000Y-107561670D01*
G75*
G02*
X145424750Y-107342920I218750J0D01*
G01*
X145862250Y-107342920D01*
G75*
G02*
X146081000Y-107561670I0J-218750D01*
G01*
X146081000Y-108074170D01*
G75*
G02*
X145862250Y-108292920I-218750J0D01*
G01*
X145424750Y-108292920D01*
G75*
G02*
X145206000Y-108074170I0J218750D01*
G01*
G37*
%TD*%
D18*
%TO.C,Q1*%
X156454600Y-78369120D03*
X156454600Y-80269120D03*
X158454600Y-79319120D03*
%TD*%
D13*
%TO.C,Q3*%
X153489620Y-87272880D03*
X155389620Y-87272880D03*
X154439620Y-85272880D03*
%TD*%
D18*
%TO.C,Q4*%
X161181800Y-103484720D03*
X161181800Y-101584720D03*
X159181800Y-102534720D03*
%TD*%
D13*
%TO.C,Q5*%
X130022600Y-71683120D03*
X129072600Y-69683120D03*
X130972600Y-69683120D03*
%TD*%
%TO.C,R1*%
G36*
G01*
X118626040Y-78694060D02*
X118996040Y-78694060D01*
G75*
G02*
X119131040Y-78829060I0J-135000D01*
G01*
X119131040Y-79099060D01*
G75*
G02*
X118996040Y-79234060I-135000J0D01*
G01*
X118626040Y-79234060D01*
G75*
G02*
X118491040Y-79099060I0J135000D01*
G01*
X118491040Y-78829060D01*
G75*
G02*
X118626040Y-78694060I135000J0D01*
G01*
G37*
G36*
G01*
X118626040Y-79714060D02*
X118996040Y-79714060D01*
G75*
G02*
X119131040Y-79849060I0J-135000D01*
G01*
X119131040Y-80119060D01*
G75*
G02*
X118996040Y-80254060I-135000J0D01*
G01*
X118626040Y-80254060D01*
G75*
G02*
X118491040Y-80119060I0J135000D01*
G01*
X118491040Y-79849060D01*
G75*
G02*
X118626040Y-79714060I135000J0D01*
G01*
G37*
%TD*%
%TO.C,R2*%
G36*
G01*
X127413600Y-71971120D02*
X127043600Y-71971120D01*
G75*
G02*
X126908600Y-71836120I0J135000D01*
G01*
X126908600Y-71566120D01*
G75*
G02*
X127043600Y-71431120I135000J0D01*
G01*
X127413600Y-71431120D01*
G75*
G02*
X127548600Y-71566120I0J-135000D01*
G01*
X127548600Y-71836120D01*
G75*
G02*
X127413600Y-71971120I-135000J0D01*
G01*
G37*
G36*
G01*
X127413600Y-70951120D02*
X127043600Y-70951120D01*
G75*
G02*
X126908600Y-70816120I0J135000D01*
G01*
X126908600Y-70546120D01*
G75*
G02*
X127043600Y-70411120I135000J0D01*
G01*
X127413600Y-70411120D01*
G75*
G02*
X127548600Y-70546120I0J-135000D01*
G01*
X127548600Y-70816120D01*
G75*
G02*
X127413600Y-70951120I-135000J0D01*
G01*
G37*
%TD*%
%TO.C,R3*%
G36*
G01*
X133294800Y-68366320D02*
X132744800Y-68366320D01*
G75*
G02*
X132544800Y-68166320I0J200000D01*
G01*
X132544800Y-67766320D01*
G75*
G02*
X132744800Y-67566320I200000J0D01*
G01*
X133294800Y-67566320D01*
G75*
G02*
X133494800Y-67766320I0J-200000D01*
G01*
X133494800Y-68166320D01*
G75*
G02*
X133294800Y-68366320I-200000J0D01*
G01*
G37*
G36*
G01*
X133294800Y-70016320D02*
X132744800Y-70016320D01*
G75*
G02*
X132544800Y-69816320I0J200000D01*
G01*
X132544800Y-69416320D01*
G75*
G02*
X132744800Y-69216320I200000J0D01*
G01*
X133294800Y-69216320D01*
G75*
G02*
X133494800Y-69416320I0J-200000D01*
G01*
X133494800Y-69816320D01*
G75*
G02*
X133294800Y-70016320I-200000J0D01*
G01*
G37*
%TD*%
%TO.C,R4*%
G36*
G01*
X126049280Y-78190940D02*
X126049280Y-77820940D01*
G75*
G02*
X126184280Y-77685940I135000J0D01*
G01*
X126454280Y-77685940D01*
G75*
G02*
X126589280Y-77820940I0J-135000D01*
G01*
X126589280Y-78190940D01*
G75*
G02*
X126454280Y-78325940I-135000J0D01*
G01*
X126184280Y-78325940D01*
G75*
G02*
X126049280Y-78190940I0J135000D01*
G01*
G37*
G36*
G01*
X125029280Y-78190940D02*
X125029280Y-77820940D01*
G75*
G02*
X125164280Y-77685940I135000J0D01*
G01*
X125434280Y-77685940D01*
G75*
G02*
X125569280Y-77820940I0J-135000D01*
G01*
X125569280Y-78190940D01*
G75*
G02*
X125434280Y-78325940I-135000J0D01*
G01*
X125164280Y-78325940D01*
G75*
G02*
X125029280Y-78190940I0J135000D01*
G01*
G37*
%TD*%
%TO.C,R5*%
G36*
G01*
X124709600Y-66448120D02*
X124159600Y-66448120D01*
G75*
G02*
X123959600Y-66248120I0J200000D01*
G01*
X123959600Y-65848120D01*
G75*
G02*
X124159600Y-65648120I200000J0D01*
G01*
X124709600Y-65648120D01*
G75*
G02*
X124909600Y-65848120I0J-200000D01*
G01*
X124909600Y-66248120D01*
G75*
G02*
X124709600Y-66448120I-200000J0D01*
G01*
G37*
G36*
G01*
X124709600Y-68098120D02*
X124159600Y-68098120D01*
G75*
G02*
X123959600Y-67898120I0J200000D01*
G01*
X123959600Y-67498120D01*
G75*
G02*
X124159600Y-67298120I200000J0D01*
G01*
X124709600Y-67298120D01*
G75*
G02*
X124909600Y-67498120I0J-200000D01*
G01*
X124909600Y-67898120D01*
G75*
G02*
X124709600Y-68098120I-200000J0D01*
G01*
G37*
%TD*%
%TO.C,R6*%
G36*
G01*
X124554660Y-82863140D02*
X124004660Y-82863140D01*
G75*
G02*
X123804660Y-82663140I0J200000D01*
G01*
X123804660Y-82263140D01*
G75*
G02*
X124004660Y-82063140I200000J0D01*
G01*
X124554660Y-82063140D01*
G75*
G02*
X124754660Y-82263140I0J-200000D01*
G01*
X124754660Y-82663140D01*
G75*
G02*
X124554660Y-82863140I-200000J0D01*
G01*
G37*
G36*
G01*
X124554660Y-81213140D02*
X124004660Y-81213140D01*
G75*
G02*
X123804660Y-81013140I0J200000D01*
G01*
X123804660Y-80613140D01*
G75*
G02*
X124004660Y-80413140I200000J0D01*
G01*
X124554660Y-80413140D01*
G75*
G02*
X124754660Y-80613140I0J-200000D01*
G01*
X124754660Y-81013140D01*
G75*
G02*
X124554660Y-81213140I-200000J0D01*
G01*
G37*
%TD*%
%TO.C,R7*%
G36*
G01*
X125668820Y-75613940D02*
X125668820Y-75063940D01*
G75*
G02*
X125868820Y-74863940I200000J0D01*
G01*
X126268820Y-74863940D01*
G75*
G02*
X126468820Y-75063940I0J-200000D01*
G01*
X126468820Y-75613940D01*
G75*
G02*
X126268820Y-75813940I-200000J0D01*
G01*
X125868820Y-75813940D01*
G75*
G02*
X125668820Y-75613940I0J200000D01*
G01*
G37*
G36*
G01*
X127318820Y-75613940D02*
X127318820Y-75063940D01*
G75*
G02*
X127518820Y-74863940I200000J0D01*
G01*
X127918820Y-74863940D01*
G75*
G02*
X128118820Y-75063940I0J-200000D01*
G01*
X128118820Y-75613940D01*
G75*
G02*
X127918820Y-75813940I-200000J0D01*
G01*
X127518820Y-75813940D01*
G75*
G02*
X127318820Y-75613940I0J200000D01*
G01*
G37*
%TD*%
%TO.C,R8*%
G36*
G01*
X143759600Y-98198120D02*
X143209600Y-98198120D01*
G75*
G02*
X143009600Y-97998120I0J200000D01*
G01*
X143009600Y-97598120D01*
G75*
G02*
X143209600Y-97398120I200000J0D01*
G01*
X143759600Y-97398120D01*
G75*
G02*
X143959600Y-97598120I0J-200000D01*
G01*
X143959600Y-97998120D01*
G75*
G02*
X143759600Y-98198120I-200000J0D01*
G01*
G37*
G36*
G01*
X143759600Y-99848120D02*
X143209600Y-99848120D01*
G75*
G02*
X143009600Y-99648120I0J200000D01*
G01*
X143009600Y-99248120D01*
G75*
G02*
X143209600Y-99048120I200000J0D01*
G01*
X143759600Y-99048120D01*
G75*
G02*
X143959600Y-99248120I0J-200000D01*
G01*
X143959600Y-99648120D01*
G75*
G02*
X143759600Y-99848120I-200000J0D01*
G01*
G37*
%TD*%
%TO.C,R9*%
G36*
G01*
X157639600Y-83397120D02*
X157269600Y-83397120D01*
G75*
G02*
X157134600Y-83262120I0J135000D01*
G01*
X157134600Y-82992120D01*
G75*
G02*
X157269600Y-82857120I135000J0D01*
G01*
X157639600Y-82857120D01*
G75*
G02*
X157774600Y-82992120I0J-135000D01*
G01*
X157774600Y-83262120D01*
G75*
G02*
X157639600Y-83397120I-135000J0D01*
G01*
G37*
G36*
G01*
X157639600Y-84417120D02*
X157269600Y-84417120D01*
G75*
G02*
X157134600Y-84282120I0J135000D01*
G01*
X157134600Y-84012120D01*
G75*
G02*
X157269600Y-83877120I135000J0D01*
G01*
X157639600Y-83877120D01*
G75*
G02*
X157774600Y-84012120I0J-135000D01*
G01*
X157774600Y-84282120D01*
G75*
G02*
X157639600Y-84417120I-135000J0D01*
G01*
G37*
%TD*%
%TO.C,R10*%
G36*
G01*
X151397400Y-107901320D02*
X151397400Y-107531320D01*
G75*
G02*
X151532400Y-107396320I135000J0D01*
G01*
X151802400Y-107396320D01*
G75*
G02*
X151937400Y-107531320I0J-135000D01*
G01*
X151937400Y-107901320D01*
G75*
G02*
X151802400Y-108036320I-135000J0D01*
G01*
X151532400Y-108036320D01*
G75*
G02*
X151397400Y-107901320I0J135000D01*
G01*
G37*
G36*
G01*
X150377400Y-107901320D02*
X150377400Y-107531320D01*
G75*
G02*
X150512400Y-107396320I135000J0D01*
G01*
X150782400Y-107396320D01*
G75*
G02*
X150917400Y-107531320I0J-135000D01*
G01*
X150917400Y-107901320D01*
G75*
G02*
X150782400Y-108036320I-135000J0D01*
G01*
X150512400Y-108036320D01*
G75*
G02*
X150377400Y-107901320I0J135000D01*
G01*
G37*
%TD*%
%TO.C,R11*%
G36*
G01*
X150864600Y-106413720D02*
X150864600Y-106783720D01*
G75*
G02*
X150729600Y-106918720I-135000J0D01*
G01*
X150459600Y-106918720D01*
G75*
G02*
X150324600Y-106783720I0J135000D01*
G01*
X150324600Y-106413720D01*
G75*
G02*
X150459600Y-106278720I135000J0D01*
G01*
X150729600Y-106278720D01*
G75*
G02*
X150864600Y-106413720I0J-135000D01*
G01*
G37*
G36*
G01*
X151884600Y-106413720D02*
X151884600Y-106783720D01*
G75*
G02*
X151749600Y-106918720I-135000J0D01*
G01*
X151479600Y-106918720D01*
G75*
G02*
X151344600Y-106783720I0J135000D01*
G01*
X151344600Y-106413720D01*
G75*
G02*
X151479600Y-106278720I135000J0D01*
G01*
X151749600Y-106278720D01*
G75*
G02*
X151884600Y-106413720I0J-135000D01*
G01*
G37*
%TD*%
%TO.C,R12*%
G36*
G01*
X152279400Y-109413720D02*
X152279400Y-108863720D01*
G75*
G02*
X152479400Y-108663720I200000J0D01*
G01*
X152879400Y-108663720D01*
G75*
G02*
X153079400Y-108863720I0J-200000D01*
G01*
X153079400Y-109413720D01*
G75*
G02*
X152879400Y-109613720I-200000J0D01*
G01*
X152479400Y-109613720D01*
G75*
G02*
X152279400Y-109413720I0J200000D01*
G01*
G37*
G36*
G01*
X150629400Y-109413720D02*
X150629400Y-108863720D01*
G75*
G02*
X150829400Y-108663720I200000J0D01*
G01*
X151229400Y-108663720D01*
G75*
G02*
X151429400Y-108863720I0J-200000D01*
G01*
X151429400Y-109413720D01*
G75*
G02*
X151229400Y-109613720I-200000J0D01*
G01*
X150829400Y-109613720D01*
G75*
G02*
X150629400Y-109413720I0J200000D01*
G01*
G37*
%TD*%
%TO.C,R13*%
G36*
G01*
X163827400Y-89913920D02*
X166677400Y-89913920D01*
G75*
G02*
X166927400Y-90163920I0J-250000D01*
G01*
X166927400Y-90888920D01*
G75*
G02*
X166677400Y-91138920I-250000J0D01*
G01*
X163827400Y-91138920D01*
G75*
G02*
X163577400Y-90888920I0J250000D01*
G01*
X163577400Y-90163920D01*
G75*
G02*
X163827400Y-89913920I250000J0D01*
G01*
G37*
G36*
G01*
X163827400Y-95838920D02*
X166677400Y-95838920D01*
G75*
G02*
X166927400Y-96088920I0J-250000D01*
G01*
X166927400Y-96813920D01*
G75*
G02*
X166677400Y-97063920I-250000J0D01*
G01*
X163827400Y-97063920D01*
G75*
G02*
X163577400Y-96813920I0J250000D01*
G01*
X163577400Y-96088920D01*
G75*
G02*
X163827400Y-95838920I250000J0D01*
G01*
G37*
%TD*%
%TO.C,R14*%
G36*
G01*
X152635000Y-107584920D02*
X152635000Y-107034920D01*
G75*
G02*
X152835000Y-106834920I200000J0D01*
G01*
X153235000Y-106834920D01*
G75*
G02*
X153435000Y-107034920I0J-200000D01*
G01*
X153435000Y-107584920D01*
G75*
G02*
X153235000Y-107784920I-200000J0D01*
G01*
X152835000Y-107784920D01*
G75*
G02*
X152635000Y-107584920I0J200000D01*
G01*
G37*
G36*
G01*
X154285000Y-107584920D02*
X154285000Y-107034920D01*
G75*
G02*
X154485000Y-106834920I200000J0D01*
G01*
X154885000Y-106834920D01*
G75*
G02*
X155085000Y-107034920I0J-200000D01*
G01*
X155085000Y-107584920D01*
G75*
G02*
X154885000Y-107784920I-200000J0D01*
G01*
X154485000Y-107784920D01*
G75*
G02*
X154285000Y-107584920I0J200000D01*
G01*
G37*
%TD*%
%TO.C,R15*%
G36*
G01*
X125199820Y-71598240D02*
X124649820Y-71598240D01*
G75*
G02*
X124449820Y-71398240I0J200000D01*
G01*
X124449820Y-70998240D01*
G75*
G02*
X124649820Y-70798240I200000J0D01*
G01*
X125199820Y-70798240D01*
G75*
G02*
X125399820Y-70998240I0J-200000D01*
G01*
X125399820Y-71398240D01*
G75*
G02*
X125199820Y-71598240I-200000J0D01*
G01*
G37*
G36*
G01*
X125199820Y-69948240D02*
X124649820Y-69948240D01*
G75*
G02*
X124449820Y-69748240I0J200000D01*
G01*
X124449820Y-69348240D01*
G75*
G02*
X124649820Y-69148240I200000J0D01*
G01*
X125199820Y-69148240D01*
G75*
G02*
X125399820Y-69348240I0J-200000D01*
G01*
X125399820Y-69748240D01*
G75*
G02*
X125199820Y-69948240I-200000J0D01*
G01*
G37*
%TD*%
%TO.C,R16*%
G36*
G01*
X122071180Y-79959880D02*
X122071180Y-79409880D01*
G75*
G02*
X122271180Y-79209880I200000J0D01*
G01*
X122671180Y-79209880D01*
G75*
G02*
X122871180Y-79409880I0J-200000D01*
G01*
X122871180Y-79959880D01*
G75*
G02*
X122671180Y-80159880I-200000J0D01*
G01*
X122271180Y-80159880D01*
G75*
G02*
X122071180Y-79959880I0J200000D01*
G01*
G37*
G36*
G01*
X120421180Y-79959880D02*
X120421180Y-79409880D01*
G75*
G02*
X120621180Y-79209880I200000J0D01*
G01*
X121021180Y-79209880D01*
G75*
G02*
X121221180Y-79409880I0J-200000D01*
G01*
X121221180Y-79959880D01*
G75*
G02*
X121021180Y-80159880I-200000J0D01*
G01*
X120621180Y-80159880D01*
G75*
G02*
X120421180Y-79959880I0J200000D01*
G01*
G37*
%TD*%
%TO.C,R17*%
G36*
G01*
X155861600Y-102042720D02*
X155491600Y-102042720D01*
G75*
G02*
X155356600Y-101907720I0J135000D01*
G01*
X155356600Y-101637720D01*
G75*
G02*
X155491600Y-101502720I135000J0D01*
G01*
X155861600Y-101502720D01*
G75*
G02*
X155996600Y-101637720I0J-135000D01*
G01*
X155996600Y-101907720D01*
G75*
G02*
X155861600Y-102042720I-135000J0D01*
G01*
G37*
G36*
G01*
X155861600Y-103062720D02*
X155491600Y-103062720D01*
G75*
G02*
X155356600Y-102927720I0J135000D01*
G01*
X155356600Y-102657720D01*
G75*
G02*
X155491600Y-102522720I135000J0D01*
G01*
X155861600Y-102522720D01*
G75*
G02*
X155996600Y-102657720I0J-135000D01*
G01*
X155996600Y-102927720D01*
G75*
G02*
X155861600Y-103062720I-135000J0D01*
G01*
G37*
%TD*%
%TO.C,R18*%
G36*
G01*
X126628400Y-77012380D02*
X126628400Y-76642380D01*
G75*
G02*
X126763400Y-76507380I135000J0D01*
G01*
X127033400Y-76507380D01*
G75*
G02*
X127168400Y-76642380I0J-135000D01*
G01*
X127168400Y-77012380D01*
G75*
G02*
X127033400Y-77147380I-135000J0D01*
G01*
X126763400Y-77147380D01*
G75*
G02*
X126628400Y-77012380I0J135000D01*
G01*
G37*
G36*
G01*
X125608400Y-77012380D02*
X125608400Y-76642380D01*
G75*
G02*
X125743400Y-76507380I135000J0D01*
G01*
X126013400Y-76507380D01*
G75*
G02*
X126148400Y-76642380I0J-135000D01*
G01*
X126148400Y-77012380D01*
G75*
G02*
X126013400Y-77147380I-135000J0D01*
G01*
X125743400Y-77147380D01*
G75*
G02*
X125608400Y-77012380I0J135000D01*
G01*
G37*
%TD*%
%TO.C,R19*%
G36*
G01*
X148749600Y-71465120D02*
X148379600Y-71465120D01*
G75*
G02*
X148244600Y-71330120I0J135000D01*
G01*
X148244600Y-71060120D01*
G75*
G02*
X148379600Y-70925120I135000J0D01*
G01*
X148749600Y-70925120D01*
G75*
G02*
X148884600Y-71060120I0J-135000D01*
G01*
X148884600Y-71330120D01*
G75*
G02*
X148749600Y-71465120I-135000J0D01*
G01*
G37*
G36*
G01*
X148749600Y-70445120D02*
X148379600Y-70445120D01*
G75*
G02*
X148244600Y-70310120I0J135000D01*
G01*
X148244600Y-70040120D01*
G75*
G02*
X148379600Y-69905120I135000J0D01*
G01*
X148749600Y-69905120D01*
G75*
G02*
X148884600Y-70040120I0J-135000D01*
G01*
X148884600Y-70310120D01*
G75*
G02*
X148749600Y-70445120I-135000J0D01*
G01*
G37*
%TD*%
%TO.C,R20*%
G36*
G01*
X157726600Y-81674120D02*
X157726600Y-82044120D01*
G75*
G02*
X157591600Y-82179120I-135000J0D01*
G01*
X157321600Y-82179120D01*
G75*
G02*
X157186600Y-82044120I0J135000D01*
G01*
X157186600Y-81674120D01*
G75*
G02*
X157321600Y-81539120I135000J0D01*
G01*
X157591600Y-81539120D01*
G75*
G02*
X157726600Y-81674120I0J-135000D01*
G01*
G37*
G36*
G01*
X156706600Y-81674120D02*
X156706600Y-82044120D01*
G75*
G02*
X156571600Y-82179120I-135000J0D01*
G01*
X156301600Y-82179120D01*
G75*
G02*
X156166600Y-82044120I0J135000D01*
G01*
X156166600Y-81674120D01*
G75*
G02*
X156301600Y-81539120I135000J0D01*
G01*
X156571600Y-81539120D01*
G75*
G02*
X156706600Y-81674120I0J-135000D01*
G01*
G37*
%TD*%
%TO.C,R21*%
G36*
G01*
X146066000Y-109652220D02*
X146066000Y-110022220D01*
G75*
G02*
X145931000Y-110157220I-135000J0D01*
G01*
X145661000Y-110157220D01*
G75*
G02*
X145526000Y-110022220I0J135000D01*
G01*
X145526000Y-109652220D01*
G75*
G02*
X145661000Y-109517220I135000J0D01*
G01*
X145931000Y-109517220D01*
G75*
G02*
X146066000Y-109652220I0J-135000D01*
G01*
G37*
G36*
G01*
X145046000Y-109652220D02*
X145046000Y-110022220D01*
G75*
G02*
X144911000Y-110157220I-135000J0D01*
G01*
X144641000Y-110157220D01*
G75*
G02*
X144506000Y-110022220I0J135000D01*
G01*
X144506000Y-109652220D01*
G75*
G02*
X144641000Y-109517220I135000J0D01*
G01*
X144911000Y-109517220D01*
G75*
G02*
X145046000Y-109652220I0J-135000D01*
G01*
G37*
%TD*%
%TO.C,R22*%
G36*
G01*
X158082200Y-104737320D02*
X158082200Y-105107320D01*
G75*
G02*
X157947200Y-105242320I-135000J0D01*
G01*
X157677200Y-105242320D01*
G75*
G02*
X157542200Y-105107320I0J135000D01*
G01*
X157542200Y-104737320D01*
G75*
G02*
X157677200Y-104602320I135000J0D01*
G01*
X157947200Y-104602320D01*
G75*
G02*
X158082200Y-104737320I0J-135000D01*
G01*
G37*
G36*
G01*
X157062200Y-104737320D02*
X157062200Y-105107320D01*
G75*
G02*
X156927200Y-105242320I-135000J0D01*
G01*
X156657200Y-105242320D01*
G75*
G02*
X156522200Y-105107320I0J135000D01*
G01*
X156522200Y-104737320D01*
G75*
G02*
X156657200Y-104602320I135000J0D01*
G01*
X156927200Y-104602320D01*
G75*
G02*
X157062200Y-104737320I0J-135000D01*
G01*
G37*
%TD*%
%TO.C,R23*%
G36*
G01*
X155861600Y-105297920D02*
X155491600Y-105297920D01*
G75*
G02*
X155356600Y-105162920I0J135000D01*
G01*
X155356600Y-104892920D01*
G75*
G02*
X155491600Y-104757920I135000J0D01*
G01*
X155861600Y-104757920D01*
G75*
G02*
X155996600Y-104892920I0J-135000D01*
G01*
X155996600Y-105162920D01*
G75*
G02*
X155861600Y-105297920I-135000J0D01*
G01*
G37*
G36*
G01*
X155861600Y-104277920D02*
X155491600Y-104277920D01*
G75*
G02*
X155356600Y-104142920I0J135000D01*
G01*
X155356600Y-103872920D01*
G75*
G02*
X155491600Y-103737920I135000J0D01*
G01*
X155861600Y-103737920D01*
G75*
G02*
X155996600Y-103872920I0J-135000D01*
G01*
X155996600Y-104142920D01*
G75*
G02*
X155861600Y-104277920I-135000J0D01*
G01*
G37*
%TD*%
%TO.C,R24*%
G36*
G01*
X130100920Y-59910280D02*
X129730920Y-59910280D01*
G75*
G02*
X129595920Y-59775280I0J135000D01*
G01*
X129595920Y-59505280D01*
G75*
G02*
X129730920Y-59370280I135000J0D01*
G01*
X130100920Y-59370280D01*
G75*
G02*
X130235920Y-59505280I0J-135000D01*
G01*
X130235920Y-59775280D01*
G75*
G02*
X130100920Y-59910280I-135000J0D01*
G01*
G37*
G36*
G01*
X130100920Y-60930280D02*
X129730920Y-60930280D01*
G75*
G02*
X129595920Y-60795280I0J135000D01*
G01*
X129595920Y-60525280D01*
G75*
G02*
X129730920Y-60390280I135000J0D01*
G01*
X130100920Y-60390280D01*
G75*
G02*
X130235920Y-60525280I0J-135000D01*
G01*
X130235920Y-60795280D01*
G75*
G02*
X130100920Y-60930280I-135000J0D01*
G01*
G37*
%TD*%
%TO.C,R25*%
G36*
G01*
X149054600Y-58422120D02*
X149054600Y-58052120D01*
G75*
G02*
X149189600Y-57917120I135000J0D01*
G01*
X149459600Y-57917120D01*
G75*
G02*
X149594600Y-58052120I0J-135000D01*
G01*
X149594600Y-58422120D01*
G75*
G02*
X149459600Y-58557120I-135000J0D01*
G01*
X149189600Y-58557120D01*
G75*
G02*
X149054600Y-58422120I0J135000D01*
G01*
G37*
G36*
G01*
X150074600Y-58422120D02*
X150074600Y-58052120D01*
G75*
G02*
X150209600Y-57917120I135000J0D01*
G01*
X150479600Y-57917120D01*
G75*
G02*
X150614600Y-58052120I0J-135000D01*
G01*
X150614600Y-58422120D01*
G75*
G02*
X150479600Y-58557120I-135000J0D01*
G01*
X150209600Y-58557120D01*
G75*
G02*
X150074600Y-58422120I0J135000D01*
G01*
G37*
%TD*%
%TO.C,R26*%
G36*
G01*
X149312600Y-107952120D02*
X149312600Y-107582120D01*
G75*
G02*
X149447600Y-107447120I135000J0D01*
G01*
X149717600Y-107447120D01*
G75*
G02*
X149852600Y-107582120I0J-135000D01*
G01*
X149852600Y-107952120D01*
G75*
G02*
X149717600Y-108087120I-135000J0D01*
G01*
X149447600Y-108087120D01*
G75*
G02*
X149312600Y-107952120I0J135000D01*
G01*
G37*
G36*
G01*
X148292600Y-107952120D02*
X148292600Y-107582120D01*
G75*
G02*
X148427600Y-107447120I135000J0D01*
G01*
X148697600Y-107447120D01*
G75*
G02*
X148832600Y-107582120I0J-135000D01*
G01*
X148832600Y-107952120D01*
G75*
G02*
X148697600Y-108087120I-135000J0D01*
G01*
X148427600Y-108087120D01*
G75*
G02*
X148292600Y-107952120I0J135000D01*
G01*
G37*
%TD*%
%TO.C,R27*%
G36*
G01*
X146654300Y-110034920D02*
X146654300Y-109664920D01*
G75*
G02*
X146789300Y-109529920I135000J0D01*
G01*
X147059300Y-109529920D01*
G75*
G02*
X147194300Y-109664920I0J-135000D01*
G01*
X147194300Y-110034920D01*
G75*
G02*
X147059300Y-110169920I-135000J0D01*
G01*
X146789300Y-110169920D01*
G75*
G02*
X146654300Y-110034920I0J135000D01*
G01*
G37*
G36*
G01*
X147674300Y-110034920D02*
X147674300Y-109664920D01*
G75*
G02*
X147809300Y-109529920I135000J0D01*
G01*
X148079300Y-109529920D01*
G75*
G02*
X148214300Y-109664920I0J-135000D01*
G01*
X148214300Y-110034920D01*
G75*
G02*
X148079300Y-110169920I-135000J0D01*
G01*
X147809300Y-110169920D01*
G75*
G02*
X147674300Y-110034920I0J135000D01*
G01*
G37*
%TD*%
%TO.C,R28*%
G36*
G01*
X150074600Y-59946120D02*
X150074600Y-59576120D01*
G75*
G02*
X150209600Y-59441120I135000J0D01*
G01*
X150479600Y-59441120D01*
G75*
G02*
X150614600Y-59576120I0J-135000D01*
G01*
X150614600Y-59946120D01*
G75*
G02*
X150479600Y-60081120I-135000J0D01*
G01*
X150209600Y-60081120D01*
G75*
G02*
X150074600Y-59946120I0J135000D01*
G01*
G37*
G36*
G01*
X149054600Y-59946120D02*
X149054600Y-59576120D01*
G75*
G02*
X149189600Y-59441120I135000J0D01*
G01*
X149459600Y-59441120D01*
G75*
G02*
X149594600Y-59576120I0J-135000D01*
G01*
X149594600Y-59946120D01*
G75*
G02*
X149459600Y-60081120I-135000J0D01*
G01*
X149189600Y-60081120D01*
G75*
G02*
X149054600Y-59946120I0J135000D01*
G01*
G37*
%TD*%
%TO.C,TH1*%
G36*
G01*
X145889300Y-110999820D02*
X146439300Y-110999820D01*
G75*
G02*
X146639300Y-111199820I0J-200000D01*
G01*
X146639300Y-111599820D01*
G75*
G02*
X146439300Y-111799820I-200000J0D01*
G01*
X145889300Y-111799820D01*
G75*
G02*
X145689300Y-111599820I0J200000D01*
G01*
X145689300Y-111199820D01*
G75*
G02*
X145889300Y-110999820I200000J0D01*
G01*
G37*
G36*
G01*
X145889300Y-112649820D02*
X146439300Y-112649820D01*
G75*
G02*
X146639300Y-112849820I0J-200000D01*
G01*
X146639300Y-113249820D01*
G75*
G02*
X146439300Y-113449820I-200000J0D01*
G01*
X145889300Y-113449820D01*
G75*
G02*
X145689300Y-113249820I0J200000D01*
G01*
X145689300Y-112849820D01*
G75*
G02*
X145889300Y-112649820I200000J0D01*
G01*
G37*
%TD*%
%TO.C,U1*%
G36*
G01*
X119260520Y-74463860D02*
X119260520Y-74338860D01*
G75*
G02*
X119323020Y-74276360I62500J0D01*
G01*
X120023020Y-74276360D01*
G75*
G02*
X120085520Y-74338860I0J-62500D01*
G01*
X120085520Y-74463860D01*
G75*
G02*
X120023020Y-74526360I-62500J0D01*
G01*
X119323020Y-74526360D01*
G75*
G02*
X119260520Y-74463860I0J62500D01*
G01*
G37*
G36*
G01*
X119260520Y-74963860D02*
X119260520Y-74838860D01*
G75*
G02*
X119323020Y-74776360I62500J0D01*
G01*
X120023020Y-74776360D01*
G75*
G02*
X120085520Y-74838860I0J-62500D01*
G01*
X120085520Y-74963860D01*
G75*
G02*
X120023020Y-75026360I-62500J0D01*
G01*
X119323020Y-75026360D01*
G75*
G02*
X119260520Y-74963860I0J62500D01*
G01*
G37*
G36*
G01*
X119260520Y-75463860D02*
X119260520Y-75338860D01*
G75*
G02*
X119323020Y-75276360I62500J0D01*
G01*
X120023020Y-75276360D01*
G75*
G02*
X120085520Y-75338860I0J-62500D01*
G01*
X120085520Y-75463860D01*
G75*
G02*
X120023020Y-75526360I-62500J0D01*
G01*
X119323020Y-75526360D01*
G75*
G02*
X119260520Y-75463860I0J62500D01*
G01*
G37*
G36*
G01*
X119260520Y-75963860D02*
X119260520Y-75838860D01*
G75*
G02*
X119323020Y-75776360I62500J0D01*
G01*
X120023020Y-75776360D01*
G75*
G02*
X120085520Y-75838860I0J-62500D01*
G01*
X120085520Y-75963860D01*
G75*
G02*
X120023020Y-76026360I-62500J0D01*
G01*
X119323020Y-76026360D01*
G75*
G02*
X119260520Y-75963860I0J62500D01*
G01*
G37*
G36*
G01*
X119260520Y-76463860D02*
X119260520Y-76338860D01*
G75*
G02*
X119323020Y-76276360I62500J0D01*
G01*
X120023020Y-76276360D01*
G75*
G02*
X120085520Y-76338860I0J-62500D01*
G01*
X120085520Y-76463860D01*
G75*
G02*
X120023020Y-76526360I-62500J0D01*
G01*
X119323020Y-76526360D01*
G75*
G02*
X119260520Y-76463860I0J62500D01*
G01*
G37*
G36*
G01*
X119260520Y-76963860D02*
X119260520Y-76838860D01*
G75*
G02*
X119323020Y-76776360I62500J0D01*
G01*
X120023020Y-76776360D01*
G75*
G02*
X120085520Y-76838860I0J-62500D01*
G01*
X120085520Y-76963860D01*
G75*
G02*
X120023020Y-77026360I-62500J0D01*
G01*
X119323020Y-77026360D01*
G75*
G02*
X119260520Y-76963860I0J62500D01*
G01*
G37*
G36*
G01*
X120260520Y-77963860D02*
X120260520Y-77263860D01*
G75*
G02*
X120323020Y-77201360I62500J0D01*
G01*
X120448020Y-77201360D01*
G75*
G02*
X120510520Y-77263860I0J-62500D01*
G01*
X120510520Y-77963860D01*
G75*
G02*
X120448020Y-78026360I-62500J0D01*
G01*
X120323020Y-78026360D01*
G75*
G02*
X120260520Y-77963860I0J62500D01*
G01*
G37*
G36*
G01*
X120760520Y-77963860D02*
X120760520Y-77263860D01*
G75*
G02*
X120823020Y-77201360I62500J0D01*
G01*
X120948020Y-77201360D01*
G75*
G02*
X121010520Y-77263860I0J-62500D01*
G01*
X121010520Y-77963860D01*
G75*
G02*
X120948020Y-78026360I-62500J0D01*
G01*
X120823020Y-78026360D01*
G75*
G02*
X120760520Y-77963860I0J62500D01*
G01*
G37*
G36*
G01*
X121260520Y-77963860D02*
X121260520Y-77263860D01*
G75*
G02*
X121323020Y-77201360I62500J0D01*
G01*
X121448020Y-77201360D01*
G75*
G02*
X121510520Y-77263860I0J-62500D01*
G01*
X121510520Y-77963860D01*
G75*
G02*
X121448020Y-78026360I-62500J0D01*
G01*
X121323020Y-78026360D01*
G75*
G02*
X121260520Y-77963860I0J62500D01*
G01*
G37*
G36*
G01*
X121760520Y-77963860D02*
X121760520Y-77263860D01*
G75*
G02*
X121823020Y-77201360I62500J0D01*
G01*
X121948020Y-77201360D01*
G75*
G02*
X122010520Y-77263860I0J-62500D01*
G01*
X122010520Y-77963860D01*
G75*
G02*
X121948020Y-78026360I-62500J0D01*
G01*
X121823020Y-78026360D01*
G75*
G02*
X121760520Y-77963860I0J62500D01*
G01*
G37*
G36*
G01*
X122260520Y-77963860D02*
X122260520Y-77263860D01*
G75*
G02*
X122323020Y-77201360I62500J0D01*
G01*
X122448020Y-77201360D01*
G75*
G02*
X122510520Y-77263860I0J-62500D01*
G01*
X122510520Y-77963860D01*
G75*
G02*
X122448020Y-78026360I-62500J0D01*
G01*
X122323020Y-78026360D01*
G75*
G02*
X122260520Y-77963860I0J62500D01*
G01*
G37*
G36*
G01*
X122760520Y-77963860D02*
X122760520Y-77263860D01*
G75*
G02*
X122823020Y-77201360I62500J0D01*
G01*
X122948020Y-77201360D01*
G75*
G02*
X123010520Y-77263860I0J-62500D01*
G01*
X123010520Y-77963860D01*
G75*
G02*
X122948020Y-78026360I-62500J0D01*
G01*
X122823020Y-78026360D01*
G75*
G02*
X122760520Y-77963860I0J62500D01*
G01*
G37*
G36*
G01*
X123185520Y-76963860D02*
X123185520Y-76838860D01*
G75*
G02*
X123248020Y-76776360I62500J0D01*
G01*
X123948020Y-76776360D01*
G75*
G02*
X124010520Y-76838860I0J-62500D01*
G01*
X124010520Y-76963860D01*
G75*
G02*
X123948020Y-77026360I-62500J0D01*
G01*
X123248020Y-77026360D01*
G75*
G02*
X123185520Y-76963860I0J62500D01*
G01*
G37*
G36*
G01*
X123185520Y-76463860D02*
X123185520Y-76338860D01*
G75*
G02*
X123248020Y-76276360I62500J0D01*
G01*
X123948020Y-76276360D01*
G75*
G02*
X124010520Y-76338860I0J-62500D01*
G01*
X124010520Y-76463860D01*
G75*
G02*
X123948020Y-76526360I-62500J0D01*
G01*
X123248020Y-76526360D01*
G75*
G02*
X123185520Y-76463860I0J62500D01*
G01*
G37*
G36*
G01*
X123185520Y-75963860D02*
X123185520Y-75838860D01*
G75*
G02*
X123248020Y-75776360I62500J0D01*
G01*
X123948020Y-75776360D01*
G75*
G02*
X124010520Y-75838860I0J-62500D01*
G01*
X124010520Y-75963860D01*
G75*
G02*
X123948020Y-76026360I-62500J0D01*
G01*
X123248020Y-76026360D01*
G75*
G02*
X123185520Y-75963860I0J62500D01*
G01*
G37*
G36*
G01*
X123185520Y-75463860D02*
X123185520Y-75338860D01*
G75*
G02*
X123248020Y-75276360I62500J0D01*
G01*
X123948020Y-75276360D01*
G75*
G02*
X124010520Y-75338860I0J-62500D01*
G01*
X124010520Y-75463860D01*
G75*
G02*
X123948020Y-75526360I-62500J0D01*
G01*
X123248020Y-75526360D01*
G75*
G02*
X123185520Y-75463860I0J62500D01*
G01*
G37*
G36*
G01*
X123185520Y-74963860D02*
X123185520Y-74838860D01*
G75*
G02*
X123248020Y-74776360I62500J0D01*
G01*
X123948020Y-74776360D01*
G75*
G02*
X124010520Y-74838860I0J-62500D01*
G01*
X124010520Y-74963860D01*
G75*
G02*
X123948020Y-75026360I-62500J0D01*
G01*
X123248020Y-75026360D01*
G75*
G02*
X123185520Y-74963860I0J62500D01*
G01*
G37*
G36*
G01*
X123185520Y-74463860D02*
X123185520Y-74338860D01*
G75*
G02*
X123248020Y-74276360I62500J0D01*
G01*
X123948020Y-74276360D01*
G75*
G02*
X124010520Y-74338860I0J-62500D01*
G01*
X124010520Y-74463860D01*
G75*
G02*
X123948020Y-74526360I-62500J0D01*
G01*
X123248020Y-74526360D01*
G75*
G02*
X123185520Y-74463860I0J62500D01*
G01*
G37*
G36*
G01*
X122760520Y-74038860D02*
X122760520Y-73338860D01*
G75*
G02*
X122823020Y-73276360I62500J0D01*
G01*
X122948020Y-73276360D01*
G75*
G02*
X123010520Y-73338860I0J-62500D01*
G01*
X123010520Y-74038860D01*
G75*
G02*
X122948020Y-74101360I-62500J0D01*
G01*
X122823020Y-74101360D01*
G75*
G02*
X122760520Y-74038860I0J62500D01*
G01*
G37*
G36*
G01*
X122260520Y-74038860D02*
X122260520Y-73338860D01*
G75*
G02*
X122323020Y-73276360I62500J0D01*
G01*
X122448020Y-73276360D01*
G75*
G02*
X122510520Y-73338860I0J-62500D01*
G01*
X122510520Y-74038860D01*
G75*
G02*
X122448020Y-74101360I-62500J0D01*
G01*
X122323020Y-74101360D01*
G75*
G02*
X122260520Y-74038860I0J62500D01*
G01*
G37*
G36*
G01*
X121760520Y-74038860D02*
X121760520Y-73338860D01*
G75*
G02*
X121823020Y-73276360I62500J0D01*
G01*
X121948020Y-73276360D01*
G75*
G02*
X122010520Y-73338860I0J-62500D01*
G01*
X122010520Y-74038860D01*
G75*
G02*
X121948020Y-74101360I-62500J0D01*
G01*
X121823020Y-74101360D01*
G75*
G02*
X121760520Y-74038860I0J62500D01*
G01*
G37*
G36*
G01*
X121260520Y-74038860D02*
X121260520Y-73338860D01*
G75*
G02*
X121323020Y-73276360I62500J0D01*
G01*
X121448020Y-73276360D01*
G75*
G02*
X121510520Y-73338860I0J-62500D01*
G01*
X121510520Y-74038860D01*
G75*
G02*
X121448020Y-74101360I-62500J0D01*
G01*
X121323020Y-74101360D01*
G75*
G02*
X121260520Y-74038860I0J62500D01*
G01*
G37*
G36*
G01*
X120760520Y-74038860D02*
X120760520Y-73338860D01*
G75*
G02*
X120823020Y-73276360I62500J0D01*
G01*
X120948020Y-73276360D01*
G75*
G02*
X121010520Y-73338860I0J-62500D01*
G01*
X121010520Y-74038860D01*
G75*
G02*
X120948020Y-74101360I-62500J0D01*
G01*
X120823020Y-74101360D01*
G75*
G02*
X120760520Y-74038860I0J62500D01*
G01*
G37*
G36*
G01*
X120260520Y-74038860D02*
X120260520Y-73338860D01*
G75*
G02*
X120323020Y-73276360I62500J0D01*
G01*
X120448020Y-73276360D01*
G75*
G02*
X120510520Y-73338860I0J-62500D01*
G01*
X120510520Y-74038860D01*
G75*
G02*
X120448020Y-74101360I-62500J0D01*
G01*
X120323020Y-74101360D01*
G75*
G02*
X120260520Y-74038860I0J62500D01*
G01*
G37*
G36*
G01*
X120415520Y-75271360D02*
X120415520Y-74681360D01*
G75*
G02*
X120665520Y-74431360I250000J0D01*
G01*
X121255520Y-74431360D01*
G75*
G02*
X121505520Y-74681360I0J-250000D01*
G01*
X121505520Y-75271360D01*
G75*
G02*
X121255520Y-75521360I-250000J0D01*
G01*
X120665520Y-75521360D01*
G75*
G02*
X120415520Y-75271360I0J250000D01*
G01*
G37*
G36*
G01*
X120415520Y-76621360D02*
X120415520Y-76031360D01*
G75*
G02*
X120665520Y-75781360I250000J0D01*
G01*
X121255520Y-75781360D01*
G75*
G02*
X121505520Y-76031360I0J-250000D01*
G01*
X121505520Y-76621360D01*
G75*
G02*
X121255520Y-76871360I-250000J0D01*
G01*
X120665520Y-76871360D01*
G75*
G02*
X120415520Y-76621360I0J250000D01*
G01*
G37*
G36*
G01*
X121765520Y-75271360D02*
X121765520Y-74681360D01*
G75*
G02*
X122015520Y-74431360I250000J0D01*
G01*
X122605520Y-74431360D01*
G75*
G02*
X122855520Y-74681360I0J-250000D01*
G01*
X122855520Y-75271360D01*
G75*
G02*
X122605520Y-75521360I-250000J0D01*
G01*
X122015520Y-75521360D01*
G75*
G02*
X121765520Y-75271360I0J250000D01*
G01*
G37*
G36*
G01*
X121765520Y-76621360D02*
X121765520Y-76031360D01*
G75*
G02*
X122015520Y-75781360I250000J0D01*
G01*
X122605520Y-75781360D01*
G75*
G02*
X122855520Y-76031360I0J-250000D01*
G01*
X122855520Y-76621360D01*
G75*
G02*
X122605520Y-76871360I-250000J0D01*
G01*
X122015520Y-76871360D01*
G75*
G02*
X121765520Y-76621360I0J250000D01*
G01*
G37*
%TD*%
%TO.C,U3*%
G36*
G01*
X145173600Y-99975620D02*
X145173600Y-99850620D01*
G75*
G02*
X145236100Y-99788120I62500J0D01*
G01*
X145886100Y-99788120D01*
G75*
G02*
X145948600Y-99850620I0J-62500D01*
G01*
X145948600Y-99975620D01*
G75*
G02*
X145886100Y-100038120I-62500J0D01*
G01*
X145236100Y-100038120D01*
G75*
G02*
X145173600Y-99975620I0J62500D01*
G01*
G37*
G36*
G01*
X145173600Y-100475620D02*
X145173600Y-100350620D01*
G75*
G02*
X145236100Y-100288120I62500J0D01*
G01*
X145886100Y-100288120D01*
G75*
G02*
X145948600Y-100350620I0J-62500D01*
G01*
X145948600Y-100475620D01*
G75*
G02*
X145886100Y-100538120I-62500J0D01*
G01*
X145236100Y-100538120D01*
G75*
G02*
X145173600Y-100475620I0J62500D01*
G01*
G37*
G36*
G01*
X145173600Y-100975620D02*
X145173600Y-100850620D01*
G75*
G02*
X145236100Y-100788120I62500J0D01*
G01*
X145886100Y-100788120D01*
G75*
G02*
X145948600Y-100850620I0J-62500D01*
G01*
X145948600Y-100975620D01*
G75*
G02*
X145886100Y-101038120I-62500J0D01*
G01*
X145236100Y-101038120D01*
G75*
G02*
X145173600Y-100975620I0J62500D01*
G01*
G37*
G36*
G01*
X145173600Y-101475620D02*
X145173600Y-101350620D01*
G75*
G02*
X145236100Y-101288120I62500J0D01*
G01*
X145886100Y-101288120D01*
G75*
G02*
X145948600Y-101350620I0J-62500D01*
G01*
X145948600Y-101475620D01*
G75*
G02*
X145886100Y-101538120I-62500J0D01*
G01*
X145236100Y-101538120D01*
G75*
G02*
X145173600Y-101475620I0J62500D01*
G01*
G37*
G36*
G01*
X145173600Y-101975620D02*
X145173600Y-101850620D01*
G75*
G02*
X145236100Y-101788120I62500J0D01*
G01*
X145886100Y-101788120D01*
G75*
G02*
X145948600Y-101850620I0J-62500D01*
G01*
X145948600Y-101975620D01*
G75*
G02*
X145886100Y-102038120I-62500J0D01*
G01*
X145236100Y-102038120D01*
G75*
G02*
X145173600Y-101975620I0J62500D01*
G01*
G37*
G36*
G01*
X145173600Y-102475620D02*
X145173600Y-102350620D01*
G75*
G02*
X145236100Y-102288120I62500J0D01*
G01*
X145886100Y-102288120D01*
G75*
G02*
X145948600Y-102350620I0J-62500D01*
G01*
X145948600Y-102475620D01*
G75*
G02*
X145886100Y-102538120I-62500J0D01*
G01*
X145236100Y-102538120D01*
G75*
G02*
X145173600Y-102475620I0J62500D01*
G01*
G37*
G36*
G01*
X146173600Y-103475620D02*
X146173600Y-102825620D01*
G75*
G02*
X146236100Y-102763120I62500J0D01*
G01*
X146361100Y-102763120D01*
G75*
G02*
X146423600Y-102825620I0J-62500D01*
G01*
X146423600Y-103475620D01*
G75*
G02*
X146361100Y-103538120I-62500J0D01*
G01*
X146236100Y-103538120D01*
G75*
G02*
X146173600Y-103475620I0J62500D01*
G01*
G37*
G36*
G01*
X146673600Y-103475620D02*
X146673600Y-102825620D01*
G75*
G02*
X146736100Y-102763120I62500J0D01*
G01*
X146861100Y-102763120D01*
G75*
G02*
X146923600Y-102825620I0J-62500D01*
G01*
X146923600Y-103475620D01*
G75*
G02*
X146861100Y-103538120I-62500J0D01*
G01*
X146736100Y-103538120D01*
G75*
G02*
X146673600Y-103475620I0J62500D01*
G01*
G37*
G36*
G01*
X147173600Y-103475620D02*
X147173600Y-102825620D01*
G75*
G02*
X147236100Y-102763120I62500J0D01*
G01*
X147361100Y-102763120D01*
G75*
G02*
X147423600Y-102825620I0J-62500D01*
G01*
X147423600Y-103475620D01*
G75*
G02*
X147361100Y-103538120I-62500J0D01*
G01*
X147236100Y-103538120D01*
G75*
G02*
X147173600Y-103475620I0J62500D01*
G01*
G37*
G36*
G01*
X147673600Y-103475620D02*
X147673600Y-102825620D01*
G75*
G02*
X147736100Y-102763120I62500J0D01*
G01*
X147861100Y-102763120D01*
G75*
G02*
X147923600Y-102825620I0J-62500D01*
G01*
X147923600Y-103475620D01*
G75*
G02*
X147861100Y-103538120I-62500J0D01*
G01*
X147736100Y-103538120D01*
G75*
G02*
X147673600Y-103475620I0J62500D01*
G01*
G37*
G36*
G01*
X148173600Y-103475620D02*
X148173600Y-102825620D01*
G75*
G02*
X148236100Y-102763120I62500J0D01*
G01*
X148361100Y-102763120D01*
G75*
G02*
X148423600Y-102825620I0J-62500D01*
G01*
X148423600Y-103475620D01*
G75*
G02*
X148361100Y-103538120I-62500J0D01*
G01*
X148236100Y-103538120D01*
G75*
G02*
X148173600Y-103475620I0J62500D01*
G01*
G37*
G36*
G01*
X148673600Y-103475620D02*
X148673600Y-102825620D01*
G75*
G02*
X148736100Y-102763120I62500J0D01*
G01*
X148861100Y-102763120D01*
G75*
G02*
X148923600Y-102825620I0J-62500D01*
G01*
X148923600Y-103475620D01*
G75*
G02*
X148861100Y-103538120I-62500J0D01*
G01*
X148736100Y-103538120D01*
G75*
G02*
X148673600Y-103475620I0J62500D01*
G01*
G37*
G36*
G01*
X149148600Y-102475620D02*
X149148600Y-102350620D01*
G75*
G02*
X149211100Y-102288120I62500J0D01*
G01*
X149861100Y-102288120D01*
G75*
G02*
X149923600Y-102350620I0J-62500D01*
G01*
X149923600Y-102475620D01*
G75*
G02*
X149861100Y-102538120I-62500J0D01*
G01*
X149211100Y-102538120D01*
G75*
G02*
X149148600Y-102475620I0J62500D01*
G01*
G37*
G36*
G01*
X149148600Y-101975620D02*
X149148600Y-101850620D01*
G75*
G02*
X149211100Y-101788120I62500J0D01*
G01*
X149861100Y-101788120D01*
G75*
G02*
X149923600Y-101850620I0J-62500D01*
G01*
X149923600Y-101975620D01*
G75*
G02*
X149861100Y-102038120I-62500J0D01*
G01*
X149211100Y-102038120D01*
G75*
G02*
X149148600Y-101975620I0J62500D01*
G01*
G37*
G36*
G01*
X149148600Y-101475620D02*
X149148600Y-101350620D01*
G75*
G02*
X149211100Y-101288120I62500J0D01*
G01*
X149861100Y-101288120D01*
G75*
G02*
X149923600Y-101350620I0J-62500D01*
G01*
X149923600Y-101475620D01*
G75*
G02*
X149861100Y-101538120I-62500J0D01*
G01*
X149211100Y-101538120D01*
G75*
G02*
X149148600Y-101475620I0J62500D01*
G01*
G37*
G36*
G01*
X149148600Y-100975620D02*
X149148600Y-100850620D01*
G75*
G02*
X149211100Y-100788120I62500J0D01*
G01*
X149861100Y-100788120D01*
G75*
G02*
X149923600Y-100850620I0J-62500D01*
G01*
X149923600Y-100975620D01*
G75*
G02*
X149861100Y-101038120I-62500J0D01*
G01*
X149211100Y-101038120D01*
G75*
G02*
X149148600Y-100975620I0J62500D01*
G01*
G37*
G36*
G01*
X149148600Y-100475620D02*
X149148600Y-100350620D01*
G75*
G02*
X149211100Y-100288120I62500J0D01*
G01*
X149861100Y-100288120D01*
G75*
G02*
X149923600Y-100350620I0J-62500D01*
G01*
X149923600Y-100475620D01*
G75*
G02*
X149861100Y-100538120I-62500J0D01*
G01*
X149211100Y-100538120D01*
G75*
G02*
X149148600Y-100475620I0J62500D01*
G01*
G37*
G36*
G01*
X149148600Y-99975620D02*
X149148600Y-99850620D01*
G75*
G02*
X149211100Y-99788120I62500J0D01*
G01*
X149861100Y-99788120D01*
G75*
G02*
X149923600Y-99850620I0J-62500D01*
G01*
X149923600Y-99975620D01*
G75*
G02*
X149861100Y-100038120I-62500J0D01*
G01*
X149211100Y-100038120D01*
G75*
G02*
X149148600Y-99975620I0J62500D01*
G01*
G37*
G36*
G01*
X148673600Y-99500620D02*
X148673600Y-98850620D01*
G75*
G02*
X148736100Y-98788120I62500J0D01*
G01*
X148861100Y-98788120D01*
G75*
G02*
X148923600Y-98850620I0J-62500D01*
G01*
X148923600Y-99500620D01*
G75*
G02*
X148861100Y-99563120I-62500J0D01*
G01*
X148736100Y-99563120D01*
G75*
G02*
X148673600Y-99500620I0J62500D01*
G01*
G37*
G36*
G01*
X148173600Y-99500620D02*
X148173600Y-98850620D01*
G75*
G02*
X148236100Y-98788120I62500J0D01*
G01*
X148361100Y-98788120D01*
G75*
G02*
X148423600Y-98850620I0J-62500D01*
G01*
X148423600Y-99500620D01*
G75*
G02*
X148361100Y-99563120I-62500J0D01*
G01*
X148236100Y-99563120D01*
G75*
G02*
X148173600Y-99500620I0J62500D01*
G01*
G37*
G36*
G01*
X147673600Y-99500620D02*
X147673600Y-98850620D01*
G75*
G02*
X147736100Y-98788120I62500J0D01*
G01*
X147861100Y-98788120D01*
G75*
G02*
X147923600Y-98850620I0J-62500D01*
G01*
X147923600Y-99500620D01*
G75*
G02*
X147861100Y-99563120I-62500J0D01*
G01*
X147736100Y-99563120D01*
G75*
G02*
X147673600Y-99500620I0J62500D01*
G01*
G37*
G36*
G01*
X147173600Y-99500620D02*
X147173600Y-98850620D01*
G75*
G02*
X147236100Y-98788120I62500J0D01*
G01*
X147361100Y-98788120D01*
G75*
G02*
X147423600Y-98850620I0J-62500D01*
G01*
X147423600Y-99500620D01*
G75*
G02*
X147361100Y-99563120I-62500J0D01*
G01*
X147236100Y-99563120D01*
G75*
G02*
X147173600Y-99500620I0J62500D01*
G01*
G37*
G36*
G01*
X146673600Y-99500620D02*
X146673600Y-98850620D01*
G75*
G02*
X146736100Y-98788120I62500J0D01*
G01*
X146861100Y-98788120D01*
G75*
G02*
X146923600Y-98850620I0J-62500D01*
G01*
X146923600Y-99500620D01*
G75*
G02*
X146861100Y-99563120I-62500J0D01*
G01*
X146736100Y-99563120D01*
G75*
G02*
X146673600Y-99500620I0J62500D01*
G01*
G37*
G36*
G01*
X146173600Y-99500620D02*
X146173600Y-98850620D01*
G75*
G02*
X146236100Y-98788120I62500J0D01*
G01*
X146361100Y-98788120D01*
G75*
G02*
X146423600Y-98850620I0J-62500D01*
G01*
X146423600Y-99500620D01*
G75*
G02*
X146361100Y-99563120I-62500J0D01*
G01*
X146236100Y-99563120D01*
G75*
G02*
X146173600Y-99500620I0J62500D01*
G01*
G37*
G36*
G01*
X146283600Y-100778120D02*
X146283600Y-100148120D01*
G75*
G02*
X146533600Y-99898120I250000J0D01*
G01*
X147163600Y-99898120D01*
G75*
G02*
X147413600Y-100148120I0J-250000D01*
G01*
X147413600Y-100778120D01*
G75*
G02*
X147163600Y-101028120I-250000J0D01*
G01*
X146533600Y-101028120D01*
G75*
G02*
X146283600Y-100778120I0J250000D01*
G01*
G37*
G36*
G01*
X146283600Y-102178120D02*
X146283600Y-101548120D01*
G75*
G02*
X146533600Y-101298120I250000J0D01*
G01*
X147163600Y-101298120D01*
G75*
G02*
X147413600Y-101548120I0J-250000D01*
G01*
X147413600Y-102178120D01*
G75*
G02*
X147163600Y-102428120I-250000J0D01*
G01*
X146533600Y-102428120D01*
G75*
G02*
X146283600Y-102178120I0J250000D01*
G01*
G37*
G36*
G01*
X147683600Y-100778120D02*
X147683600Y-100148120D01*
G75*
G02*
X147933600Y-99898120I250000J0D01*
G01*
X148563600Y-99898120D01*
G75*
G02*
X148813600Y-100148120I0J-250000D01*
G01*
X148813600Y-100778120D01*
G75*
G02*
X148563600Y-101028120I-250000J0D01*
G01*
X147933600Y-101028120D01*
G75*
G02*
X147683600Y-100778120I0J250000D01*
G01*
G37*
G36*
G01*
X147683600Y-102178120D02*
X147683600Y-101548120D01*
G75*
G02*
X147933600Y-101298120I250000J0D01*
G01*
X148563600Y-101298120D01*
G75*
G02*
X148813600Y-101548120I0J-250000D01*
G01*
X148813600Y-102178120D01*
G75*
G02*
X148563600Y-102428120I-250000J0D01*
G01*
X147933600Y-102428120D01*
G75*
G02*
X147683600Y-102178120I0J250000D01*
G01*
G37*
%TD*%
%TO.C,U5*%
G36*
G01*
X154320100Y-66055120D02*
X154445100Y-66055120D01*
G75*
G02*
X154507600Y-66117620I0J-62500D01*
G01*
X154507600Y-66792620D01*
G75*
G02*
X154445100Y-66855120I-62500J0D01*
G01*
X154320100Y-66855120D01*
G75*
G02*
X154257600Y-66792620I0J62500D01*
G01*
X154257600Y-66117620D01*
G75*
G02*
X154320100Y-66055120I62500J0D01*
G01*
G37*
G36*
G01*
X153820100Y-66055120D02*
X153945100Y-66055120D01*
G75*
G02*
X154007600Y-66117620I0J-62500D01*
G01*
X154007600Y-66792620D01*
G75*
G02*
X153945100Y-66855120I-62500J0D01*
G01*
X153820100Y-66855120D01*
G75*
G02*
X153757600Y-66792620I0J62500D01*
G01*
X153757600Y-66117620D01*
G75*
G02*
X153820100Y-66055120I62500J0D01*
G01*
G37*
G36*
G01*
X153320100Y-66055120D02*
X153445100Y-66055120D01*
G75*
G02*
X153507600Y-66117620I0J-62500D01*
G01*
X153507600Y-66792620D01*
G75*
G02*
X153445100Y-66855120I-62500J0D01*
G01*
X153320100Y-66855120D01*
G75*
G02*
X153257600Y-66792620I0J62500D01*
G01*
X153257600Y-66117620D01*
G75*
G02*
X153320100Y-66055120I62500J0D01*
G01*
G37*
G36*
G01*
X152820100Y-66055120D02*
X152945100Y-66055120D01*
G75*
G02*
X153007600Y-66117620I0J-62500D01*
G01*
X153007600Y-66792620D01*
G75*
G02*
X152945100Y-66855120I-62500J0D01*
G01*
X152820100Y-66855120D01*
G75*
G02*
X152757600Y-66792620I0J62500D01*
G01*
X152757600Y-66117620D01*
G75*
G02*
X152820100Y-66055120I62500J0D01*
G01*
G37*
G36*
G01*
X152320100Y-66055120D02*
X152445100Y-66055120D01*
G75*
G02*
X152507600Y-66117620I0J-62500D01*
G01*
X152507600Y-66792620D01*
G75*
G02*
X152445100Y-66855120I-62500J0D01*
G01*
X152320100Y-66855120D01*
G75*
G02*
X152257600Y-66792620I0J62500D01*
G01*
X152257600Y-66117620D01*
G75*
G02*
X152320100Y-66055120I62500J0D01*
G01*
G37*
G36*
G01*
X151820100Y-66055120D02*
X151945100Y-66055120D01*
G75*
G02*
X152007600Y-66117620I0J-62500D01*
G01*
X152007600Y-66792620D01*
G75*
G02*
X151945100Y-66855120I-62500J0D01*
G01*
X151820100Y-66855120D01*
G75*
G02*
X151757600Y-66792620I0J62500D01*
G01*
X151757600Y-66117620D01*
G75*
G02*
X151820100Y-66055120I62500J0D01*
G01*
G37*
G36*
G01*
X151320100Y-66055120D02*
X151445100Y-66055120D01*
G75*
G02*
X151507600Y-66117620I0J-62500D01*
G01*
X151507600Y-66792620D01*
G75*
G02*
X151445100Y-66855120I-62500J0D01*
G01*
X151320100Y-66855120D01*
G75*
G02*
X151257600Y-66792620I0J62500D01*
G01*
X151257600Y-66117620D01*
G75*
G02*
X151320100Y-66055120I62500J0D01*
G01*
G37*
G36*
G01*
X150095100Y-67280120D02*
X150770100Y-67280120D01*
G75*
G02*
X150832600Y-67342620I0J-62500D01*
G01*
X150832600Y-67467620D01*
G75*
G02*
X150770100Y-67530120I-62500J0D01*
G01*
X150095100Y-67530120D01*
G75*
G02*
X150032600Y-67467620I0J62500D01*
G01*
X150032600Y-67342620D01*
G75*
G02*
X150095100Y-67280120I62500J0D01*
G01*
G37*
G36*
G01*
X150095100Y-67780120D02*
X150770100Y-67780120D01*
G75*
G02*
X150832600Y-67842620I0J-62500D01*
G01*
X150832600Y-67967620D01*
G75*
G02*
X150770100Y-68030120I-62500J0D01*
G01*
X150095100Y-68030120D01*
G75*
G02*
X150032600Y-67967620I0J62500D01*
G01*
X150032600Y-67842620D01*
G75*
G02*
X150095100Y-67780120I62500J0D01*
G01*
G37*
G36*
G01*
X150095100Y-68280120D02*
X150770100Y-68280120D01*
G75*
G02*
X150832600Y-68342620I0J-62500D01*
G01*
X150832600Y-68467620D01*
G75*
G02*
X150770100Y-68530120I-62500J0D01*
G01*
X150095100Y-68530120D01*
G75*
G02*
X150032600Y-68467620I0J62500D01*
G01*
X150032600Y-68342620D01*
G75*
G02*
X150095100Y-68280120I62500J0D01*
G01*
G37*
G36*
G01*
X150095100Y-68780120D02*
X150770100Y-68780120D01*
G75*
G02*
X150832600Y-68842620I0J-62500D01*
G01*
X150832600Y-68967620D01*
G75*
G02*
X150770100Y-69030120I-62500J0D01*
G01*
X150095100Y-69030120D01*
G75*
G02*
X150032600Y-68967620I0J62500D01*
G01*
X150032600Y-68842620D01*
G75*
G02*
X150095100Y-68780120I62500J0D01*
G01*
G37*
G36*
G01*
X150095100Y-69280120D02*
X150770100Y-69280120D01*
G75*
G02*
X150832600Y-69342620I0J-62500D01*
G01*
X150832600Y-69467620D01*
G75*
G02*
X150770100Y-69530120I-62500J0D01*
G01*
X150095100Y-69530120D01*
G75*
G02*
X150032600Y-69467620I0J62500D01*
G01*
X150032600Y-69342620D01*
G75*
G02*
X150095100Y-69280120I62500J0D01*
G01*
G37*
G36*
G01*
X150095100Y-69780120D02*
X150770100Y-69780120D01*
G75*
G02*
X150832600Y-69842620I0J-62500D01*
G01*
X150832600Y-69967620D01*
G75*
G02*
X150770100Y-70030120I-62500J0D01*
G01*
X150095100Y-70030120D01*
G75*
G02*
X150032600Y-69967620I0J62500D01*
G01*
X150032600Y-69842620D01*
G75*
G02*
X150095100Y-69780120I62500J0D01*
G01*
G37*
G36*
G01*
X150095100Y-70280120D02*
X150770100Y-70280120D01*
G75*
G02*
X150832600Y-70342620I0J-62500D01*
G01*
X150832600Y-70467620D01*
G75*
G02*
X150770100Y-70530120I-62500J0D01*
G01*
X150095100Y-70530120D01*
G75*
G02*
X150032600Y-70467620I0J62500D01*
G01*
X150032600Y-70342620D01*
G75*
G02*
X150095100Y-70280120I62500J0D01*
G01*
G37*
G36*
G01*
X151320100Y-70955120D02*
X151445100Y-70955120D01*
G75*
G02*
X151507600Y-71017620I0J-62500D01*
G01*
X151507600Y-71692620D01*
G75*
G02*
X151445100Y-71755120I-62500J0D01*
G01*
X151320100Y-71755120D01*
G75*
G02*
X151257600Y-71692620I0J62500D01*
G01*
X151257600Y-71017620D01*
G75*
G02*
X151320100Y-70955120I62500J0D01*
G01*
G37*
G36*
G01*
X151820100Y-70955120D02*
X151945100Y-70955120D01*
G75*
G02*
X152007600Y-71017620I0J-62500D01*
G01*
X152007600Y-71692620D01*
G75*
G02*
X151945100Y-71755120I-62500J0D01*
G01*
X151820100Y-71755120D01*
G75*
G02*
X151757600Y-71692620I0J62500D01*
G01*
X151757600Y-71017620D01*
G75*
G02*
X151820100Y-70955120I62500J0D01*
G01*
G37*
G36*
G01*
X152320100Y-70955120D02*
X152445100Y-70955120D01*
G75*
G02*
X152507600Y-71017620I0J-62500D01*
G01*
X152507600Y-71692620D01*
G75*
G02*
X152445100Y-71755120I-62500J0D01*
G01*
X152320100Y-71755120D01*
G75*
G02*
X152257600Y-71692620I0J62500D01*
G01*
X152257600Y-71017620D01*
G75*
G02*
X152320100Y-70955120I62500J0D01*
G01*
G37*
G36*
G01*
X152820100Y-70955120D02*
X152945100Y-70955120D01*
G75*
G02*
X153007600Y-71017620I0J-62500D01*
G01*
X153007600Y-71692620D01*
G75*
G02*
X152945100Y-71755120I-62500J0D01*
G01*
X152820100Y-71755120D01*
G75*
G02*
X152757600Y-71692620I0J62500D01*
G01*
X152757600Y-71017620D01*
G75*
G02*
X152820100Y-70955120I62500J0D01*
G01*
G37*
G36*
G01*
X153320100Y-70955120D02*
X153445100Y-70955120D01*
G75*
G02*
X153507600Y-71017620I0J-62500D01*
G01*
X153507600Y-71692620D01*
G75*
G02*
X153445100Y-71755120I-62500J0D01*
G01*
X153320100Y-71755120D01*
G75*
G02*
X153257600Y-71692620I0J62500D01*
G01*
X153257600Y-71017620D01*
G75*
G02*
X153320100Y-70955120I62500J0D01*
G01*
G37*
G36*
G01*
X153820100Y-70955120D02*
X153945100Y-70955120D01*
G75*
G02*
X154007600Y-71017620I0J-62500D01*
G01*
X154007600Y-71692620D01*
G75*
G02*
X153945100Y-71755120I-62500J0D01*
G01*
X153820100Y-71755120D01*
G75*
G02*
X153757600Y-71692620I0J62500D01*
G01*
X153757600Y-71017620D01*
G75*
G02*
X153820100Y-70955120I62500J0D01*
G01*
G37*
G36*
G01*
X154320100Y-70955120D02*
X154445100Y-70955120D01*
G75*
G02*
X154507600Y-71017620I0J-62500D01*
G01*
X154507600Y-71692620D01*
G75*
G02*
X154445100Y-71755120I-62500J0D01*
G01*
X154320100Y-71755120D01*
G75*
G02*
X154257600Y-71692620I0J62500D01*
G01*
X154257600Y-71017620D01*
G75*
G02*
X154320100Y-70955120I62500J0D01*
G01*
G37*
G36*
G01*
X154995100Y-70280120D02*
X155670100Y-70280120D01*
G75*
G02*
X155732600Y-70342620I0J-62500D01*
G01*
X155732600Y-70467620D01*
G75*
G02*
X155670100Y-70530120I-62500J0D01*
G01*
X154995100Y-70530120D01*
G75*
G02*
X154932600Y-70467620I0J62500D01*
G01*
X154932600Y-70342620D01*
G75*
G02*
X154995100Y-70280120I62500J0D01*
G01*
G37*
G36*
G01*
X154995100Y-69780120D02*
X155670100Y-69780120D01*
G75*
G02*
X155732600Y-69842620I0J-62500D01*
G01*
X155732600Y-69967620D01*
G75*
G02*
X155670100Y-70030120I-62500J0D01*
G01*
X154995100Y-70030120D01*
G75*
G02*
X154932600Y-69967620I0J62500D01*
G01*
X154932600Y-69842620D01*
G75*
G02*
X154995100Y-69780120I62500J0D01*
G01*
G37*
G36*
G01*
X154995100Y-69280120D02*
X155670100Y-69280120D01*
G75*
G02*
X155732600Y-69342620I0J-62500D01*
G01*
X155732600Y-69467620D01*
G75*
G02*
X155670100Y-69530120I-62500J0D01*
G01*
X154995100Y-69530120D01*
G75*
G02*
X154932600Y-69467620I0J62500D01*
G01*
X154932600Y-69342620D01*
G75*
G02*
X154995100Y-69280120I62500J0D01*
G01*
G37*
G36*
G01*
X154995100Y-68780120D02*
X155670100Y-68780120D01*
G75*
G02*
X155732600Y-68842620I0J-62500D01*
G01*
X155732600Y-68967620D01*
G75*
G02*
X155670100Y-69030120I-62500J0D01*
G01*
X154995100Y-69030120D01*
G75*
G02*
X154932600Y-68967620I0J62500D01*
G01*
X154932600Y-68842620D01*
G75*
G02*
X154995100Y-68780120I62500J0D01*
G01*
G37*
G36*
G01*
X154995100Y-68280120D02*
X155670100Y-68280120D01*
G75*
G02*
X155732600Y-68342620I0J-62500D01*
G01*
X155732600Y-68467620D01*
G75*
G02*
X155670100Y-68530120I-62500J0D01*
G01*
X154995100Y-68530120D01*
G75*
G02*
X154932600Y-68467620I0J62500D01*
G01*
X154932600Y-68342620D01*
G75*
G02*
X154995100Y-68280120I62500J0D01*
G01*
G37*
G36*
G01*
X154995100Y-67780120D02*
X155670100Y-67780120D01*
G75*
G02*
X155732600Y-67842620I0J-62500D01*
G01*
X155732600Y-67967620D01*
G75*
G02*
X155670100Y-68030120I-62500J0D01*
G01*
X154995100Y-68030120D01*
G75*
G02*
X154932600Y-67967620I0J62500D01*
G01*
X154932600Y-67842620D01*
G75*
G02*
X154995100Y-67780120I62500J0D01*
G01*
G37*
G36*
G01*
X154995100Y-67280120D02*
X155670100Y-67280120D01*
G75*
G02*
X155732600Y-67342620I0J-62500D01*
G01*
X155732600Y-67467620D01*
G75*
G02*
X155670100Y-67530120I-62500J0D01*
G01*
X154995100Y-67530120D01*
G75*
G02*
X154932600Y-67467620I0J62500D01*
G01*
X154932600Y-67342620D01*
G75*
G02*
X154995100Y-67280120I62500J0D01*
G01*
G37*
G36*
G01*
X153777600Y-67335120D02*
X154227600Y-67335120D01*
G75*
G02*
X154452600Y-67560120I0J-225000D01*
G01*
X154452600Y-68010120D01*
G75*
G02*
X154227600Y-68235120I-225000J0D01*
G01*
X153777600Y-68235120D01*
G75*
G02*
X153552600Y-68010120I0J225000D01*
G01*
X153552600Y-67560120D01*
G75*
G02*
X153777600Y-67335120I225000J0D01*
G01*
G37*
G36*
G01*
X152657600Y-67335120D02*
X153107600Y-67335120D01*
G75*
G02*
X153332600Y-67560120I0J-225000D01*
G01*
X153332600Y-68010120D01*
G75*
G02*
X153107600Y-68235120I-225000J0D01*
G01*
X152657600Y-68235120D01*
G75*
G02*
X152432600Y-68010120I0J225000D01*
G01*
X152432600Y-67560120D01*
G75*
G02*
X152657600Y-67335120I225000J0D01*
G01*
G37*
G36*
G01*
X151537600Y-67335120D02*
X151987600Y-67335120D01*
G75*
G02*
X152212600Y-67560120I0J-225000D01*
G01*
X152212600Y-68010120D01*
G75*
G02*
X151987600Y-68235120I-225000J0D01*
G01*
X151537600Y-68235120D01*
G75*
G02*
X151312600Y-68010120I0J225000D01*
G01*
X151312600Y-67560120D01*
G75*
G02*
X151537600Y-67335120I225000J0D01*
G01*
G37*
G36*
G01*
X153777600Y-68455120D02*
X154227600Y-68455120D01*
G75*
G02*
X154452600Y-68680120I0J-225000D01*
G01*
X154452600Y-69130120D01*
G75*
G02*
X154227600Y-69355120I-225000J0D01*
G01*
X153777600Y-69355120D01*
G75*
G02*
X153552600Y-69130120I0J225000D01*
G01*
X153552600Y-68680120D01*
G75*
G02*
X153777600Y-68455120I225000J0D01*
G01*
G37*
G36*
G01*
X152657600Y-68455120D02*
X153107600Y-68455120D01*
G75*
G02*
X153332600Y-68680120I0J-225000D01*
G01*
X153332600Y-69130120D01*
G75*
G02*
X153107600Y-69355120I-225000J0D01*
G01*
X152657600Y-69355120D01*
G75*
G02*
X152432600Y-69130120I0J225000D01*
G01*
X152432600Y-68680120D01*
G75*
G02*
X152657600Y-68455120I225000J0D01*
G01*
G37*
G36*
G01*
X151537600Y-68455120D02*
X151987600Y-68455120D01*
G75*
G02*
X152212600Y-68680120I0J-225000D01*
G01*
X152212600Y-69130120D01*
G75*
G02*
X151987600Y-69355120I-225000J0D01*
G01*
X151537600Y-69355120D01*
G75*
G02*
X151312600Y-69130120I0J225000D01*
G01*
X151312600Y-68680120D01*
G75*
G02*
X151537600Y-68455120I225000J0D01*
G01*
G37*
G36*
G01*
X153777600Y-69575120D02*
X154227600Y-69575120D01*
G75*
G02*
X154452600Y-69800120I0J-225000D01*
G01*
X154452600Y-70250120D01*
G75*
G02*
X154227600Y-70475120I-225000J0D01*
G01*
X153777600Y-70475120D01*
G75*
G02*
X153552600Y-70250120I0J225000D01*
G01*
X153552600Y-69800120D01*
G75*
G02*
X153777600Y-69575120I225000J0D01*
G01*
G37*
G36*
G01*
X152657600Y-69575120D02*
X153107600Y-69575120D01*
G75*
G02*
X153332600Y-69800120I0J-225000D01*
G01*
X153332600Y-70250120D01*
G75*
G02*
X153107600Y-70475120I-225000J0D01*
G01*
X152657600Y-70475120D01*
G75*
G02*
X152432600Y-70250120I0J225000D01*
G01*
X152432600Y-69800120D01*
G75*
G02*
X152657600Y-69575120I225000J0D01*
G01*
G37*
G36*
G01*
X151537600Y-69575120D02*
X151987600Y-69575120D01*
G75*
G02*
X152212600Y-69800120I0J-225000D01*
G01*
X152212600Y-70250120D01*
G75*
G02*
X151987600Y-70475120I-225000J0D01*
G01*
X151537600Y-70475120D01*
G75*
G02*
X151312600Y-70250120I0J225000D01*
G01*
X151312600Y-69800120D01*
G75*
G02*
X151537600Y-69575120I225000J0D01*
G01*
G37*
%TD*%
D19*
%TO.C,U6*%
G36*
X139180600Y-67993620D02*
G01*
X136055600Y-67993620D01*
X136055600Y-67577120D01*
X134580600Y-67577120D01*
X134580600Y-66677120D01*
X136055600Y-66677120D01*
X136055600Y-66260620D01*
X139180600Y-66260620D01*
X139180600Y-67993620D01*
G37*
D20*
X135230600Y-68627120D03*
X135230600Y-65627120D03*
%TD*%
%TO.C,U7*%
X140603100Y-65627120D03*
X140603100Y-68627120D03*
D19*
G36*
X144553100Y-67993620D02*
G01*
X141428100Y-67993620D01*
X141428100Y-67577120D01*
X139953100Y-67577120D01*
X139953100Y-66677120D01*
X141428100Y-66677120D01*
X141428100Y-66260620D01*
X144553100Y-66260620D01*
X144553100Y-67993620D01*
G37*
%TD*%
D21*
%TO.C,D6*%
X128120600Y-60269120D03*
X125320600Y-60269120D03*
%TD*%
M02*
