%TF.GenerationSoftware,KiCad,Pcbnew,8.0.1*%
%TF.CreationDate,2024-05-30T20:05:05+03:00*%
%TF.ProjectId,jantteri-hit-detector,6a616e74-7465-4726-992d-6869742d6465,rev?*%
%TF.SameCoordinates,Original*%
%TF.FileFunction,Legend,Top*%
%TF.FilePolarity,Positive*%
%FSLAX46Y46*%
G04 Gerber Fmt 4.6, Leading zero omitted, Abs format (unit mm)*
G04 Created by KiCad (PCBNEW 8.0.1) date 2024-05-30 20:05:05*
%MOMM*%
%LPD*%
G01*
G04 APERTURE LIST*
%ADD10C,0.150000*%
%ADD11C,0.120000*%
G04 APERTURE END LIST*
D10*
X101269580Y-48834866D02*
X101317200Y-48882485D01*
X101317200Y-48882485D02*
X101364819Y-49025342D01*
X101364819Y-49025342D02*
X101364819Y-49120580D01*
X101364819Y-49120580D02*
X101317200Y-49263437D01*
X101317200Y-49263437D02*
X101221961Y-49358675D01*
X101221961Y-49358675D02*
X101126723Y-49406294D01*
X101126723Y-49406294D02*
X100936247Y-49453913D01*
X100936247Y-49453913D02*
X100793390Y-49453913D01*
X100793390Y-49453913D02*
X100602914Y-49406294D01*
X100602914Y-49406294D02*
X100507676Y-49358675D01*
X100507676Y-49358675D02*
X100412438Y-49263437D01*
X100412438Y-49263437D02*
X100364819Y-49120580D01*
X100364819Y-49120580D02*
X100364819Y-49025342D01*
X100364819Y-49025342D02*
X100412438Y-48882485D01*
X100412438Y-48882485D02*
X100460057Y-48834866D01*
X101364819Y-47882485D02*
X101364819Y-48453913D01*
X101364819Y-48168199D02*
X100364819Y-48168199D01*
X100364819Y-48168199D02*
X100507676Y-48263437D01*
X100507676Y-48263437D02*
X100602914Y-48358675D01*
X100602914Y-48358675D02*
X100650533Y-48453913D01*
X96048533Y-46028780D02*
X96000914Y-46076400D01*
X96000914Y-46076400D02*
X95858057Y-46124019D01*
X95858057Y-46124019D02*
X95762819Y-46124019D01*
X95762819Y-46124019D02*
X95619962Y-46076400D01*
X95619962Y-46076400D02*
X95524724Y-45981161D01*
X95524724Y-45981161D02*
X95477105Y-45885923D01*
X95477105Y-45885923D02*
X95429486Y-45695447D01*
X95429486Y-45695447D02*
X95429486Y-45552590D01*
X95429486Y-45552590D02*
X95477105Y-45362114D01*
X95477105Y-45362114D02*
X95524724Y-45266876D01*
X95524724Y-45266876D02*
X95619962Y-45171638D01*
X95619962Y-45171638D02*
X95762819Y-45124019D01*
X95762819Y-45124019D02*
X95858057Y-45124019D01*
X95858057Y-45124019D02*
X96000914Y-45171638D01*
X96000914Y-45171638D02*
X96048533Y-45219257D01*
X96619962Y-45552590D02*
X96524724Y-45504971D01*
X96524724Y-45504971D02*
X96477105Y-45457352D01*
X96477105Y-45457352D02*
X96429486Y-45362114D01*
X96429486Y-45362114D02*
X96429486Y-45314495D01*
X96429486Y-45314495D02*
X96477105Y-45219257D01*
X96477105Y-45219257D02*
X96524724Y-45171638D01*
X96524724Y-45171638D02*
X96619962Y-45124019D01*
X96619962Y-45124019D02*
X96810438Y-45124019D01*
X96810438Y-45124019D02*
X96905676Y-45171638D01*
X96905676Y-45171638D02*
X96953295Y-45219257D01*
X96953295Y-45219257D02*
X97000914Y-45314495D01*
X97000914Y-45314495D02*
X97000914Y-45362114D01*
X97000914Y-45362114D02*
X96953295Y-45457352D01*
X96953295Y-45457352D02*
X96905676Y-45504971D01*
X96905676Y-45504971D02*
X96810438Y-45552590D01*
X96810438Y-45552590D02*
X96619962Y-45552590D01*
X96619962Y-45552590D02*
X96524724Y-45600209D01*
X96524724Y-45600209D02*
X96477105Y-45647828D01*
X96477105Y-45647828D02*
X96429486Y-45743066D01*
X96429486Y-45743066D02*
X96429486Y-45933542D01*
X96429486Y-45933542D02*
X96477105Y-46028780D01*
X96477105Y-46028780D02*
X96524724Y-46076400D01*
X96524724Y-46076400D02*
X96619962Y-46124019D01*
X96619962Y-46124019D02*
X96810438Y-46124019D01*
X96810438Y-46124019D02*
X96905676Y-46076400D01*
X96905676Y-46076400D02*
X96953295Y-46028780D01*
X96953295Y-46028780D02*
X97000914Y-45933542D01*
X97000914Y-45933542D02*
X97000914Y-45743066D01*
X97000914Y-45743066D02*
X96953295Y-45647828D01*
X96953295Y-45647828D02*
X96905676Y-45600209D01*
X96905676Y-45600209D02*
X96810438Y-45552590D01*
X94829333Y-40034380D02*
X94781714Y-40082000D01*
X94781714Y-40082000D02*
X94638857Y-40129619D01*
X94638857Y-40129619D02*
X94543619Y-40129619D01*
X94543619Y-40129619D02*
X94400762Y-40082000D01*
X94400762Y-40082000D02*
X94305524Y-39986761D01*
X94305524Y-39986761D02*
X94257905Y-39891523D01*
X94257905Y-39891523D02*
X94210286Y-39701047D01*
X94210286Y-39701047D02*
X94210286Y-39558190D01*
X94210286Y-39558190D02*
X94257905Y-39367714D01*
X94257905Y-39367714D02*
X94305524Y-39272476D01*
X94305524Y-39272476D02*
X94400762Y-39177238D01*
X94400762Y-39177238D02*
X94543619Y-39129619D01*
X94543619Y-39129619D02*
X94638857Y-39129619D01*
X94638857Y-39129619D02*
X94781714Y-39177238D01*
X94781714Y-39177238D02*
X94829333Y-39224857D01*
X95305524Y-40129619D02*
X95496000Y-40129619D01*
X95496000Y-40129619D02*
X95591238Y-40082000D01*
X95591238Y-40082000D02*
X95638857Y-40034380D01*
X95638857Y-40034380D02*
X95734095Y-39891523D01*
X95734095Y-39891523D02*
X95781714Y-39701047D01*
X95781714Y-39701047D02*
X95781714Y-39320095D01*
X95781714Y-39320095D02*
X95734095Y-39224857D01*
X95734095Y-39224857D02*
X95686476Y-39177238D01*
X95686476Y-39177238D02*
X95591238Y-39129619D01*
X95591238Y-39129619D02*
X95400762Y-39129619D01*
X95400762Y-39129619D02*
X95305524Y-39177238D01*
X95305524Y-39177238D02*
X95257905Y-39224857D01*
X95257905Y-39224857D02*
X95210286Y-39320095D01*
X95210286Y-39320095D02*
X95210286Y-39558190D01*
X95210286Y-39558190D02*
X95257905Y-39653428D01*
X95257905Y-39653428D02*
X95305524Y-39701047D01*
X95305524Y-39701047D02*
X95400762Y-39748666D01*
X95400762Y-39748666D02*
X95591238Y-39748666D01*
X95591238Y-39748666D02*
X95686476Y-39701047D01*
X95686476Y-39701047D02*
X95734095Y-39653428D01*
X95734095Y-39653428D02*
X95781714Y-39558190D01*
X104334480Y-40584357D02*
X104382100Y-40631976D01*
X104382100Y-40631976D02*
X104429719Y-40774833D01*
X104429719Y-40774833D02*
X104429719Y-40870071D01*
X104429719Y-40870071D02*
X104382100Y-41012928D01*
X104382100Y-41012928D02*
X104286861Y-41108166D01*
X104286861Y-41108166D02*
X104191623Y-41155785D01*
X104191623Y-41155785D02*
X104001147Y-41203404D01*
X104001147Y-41203404D02*
X103858290Y-41203404D01*
X103858290Y-41203404D02*
X103667814Y-41155785D01*
X103667814Y-41155785D02*
X103572576Y-41108166D01*
X103572576Y-41108166D02*
X103477338Y-41012928D01*
X103477338Y-41012928D02*
X103429719Y-40870071D01*
X103429719Y-40870071D02*
X103429719Y-40774833D01*
X103429719Y-40774833D02*
X103477338Y-40631976D01*
X103477338Y-40631976D02*
X103524957Y-40584357D01*
X104429719Y-39631976D02*
X104429719Y-40203404D01*
X104429719Y-39917690D02*
X103429719Y-39917690D01*
X103429719Y-39917690D02*
X103572576Y-40012928D01*
X103572576Y-40012928D02*
X103667814Y-40108166D01*
X103667814Y-40108166D02*
X103715433Y-40203404D01*
X103524957Y-39251023D02*
X103477338Y-39203404D01*
X103477338Y-39203404D02*
X103429719Y-39108166D01*
X103429719Y-39108166D02*
X103429719Y-38870071D01*
X103429719Y-38870071D02*
X103477338Y-38774833D01*
X103477338Y-38774833D02*
X103524957Y-38727214D01*
X103524957Y-38727214D02*
X103620195Y-38679595D01*
X103620195Y-38679595D02*
X103715433Y-38679595D01*
X103715433Y-38679595D02*
X103858290Y-38727214D01*
X103858290Y-38727214D02*
X104429719Y-39298642D01*
X104429719Y-39298642D02*
X104429719Y-38679595D01*
X109096980Y-40647857D02*
X109144600Y-40695476D01*
X109144600Y-40695476D02*
X109192219Y-40838333D01*
X109192219Y-40838333D02*
X109192219Y-40933571D01*
X109192219Y-40933571D02*
X109144600Y-41076428D01*
X109144600Y-41076428D02*
X109049361Y-41171666D01*
X109049361Y-41171666D02*
X108954123Y-41219285D01*
X108954123Y-41219285D02*
X108763647Y-41266904D01*
X108763647Y-41266904D02*
X108620790Y-41266904D01*
X108620790Y-41266904D02*
X108430314Y-41219285D01*
X108430314Y-41219285D02*
X108335076Y-41171666D01*
X108335076Y-41171666D02*
X108239838Y-41076428D01*
X108239838Y-41076428D02*
X108192219Y-40933571D01*
X108192219Y-40933571D02*
X108192219Y-40838333D01*
X108192219Y-40838333D02*
X108239838Y-40695476D01*
X108239838Y-40695476D02*
X108287457Y-40647857D01*
X109192219Y-39695476D02*
X109192219Y-40266904D01*
X109192219Y-39981190D02*
X108192219Y-39981190D01*
X108192219Y-39981190D02*
X108335076Y-40076428D01*
X108335076Y-40076428D02*
X108430314Y-40171666D01*
X108430314Y-40171666D02*
X108477933Y-40266904D01*
X108192219Y-39362142D02*
X108192219Y-38743095D01*
X108192219Y-38743095D02*
X108573171Y-39076428D01*
X108573171Y-39076428D02*
X108573171Y-38933571D01*
X108573171Y-38933571D02*
X108620790Y-38838333D01*
X108620790Y-38838333D02*
X108668409Y-38790714D01*
X108668409Y-38790714D02*
X108763647Y-38743095D01*
X108763647Y-38743095D02*
X109001742Y-38743095D01*
X109001742Y-38743095D02*
X109096980Y-38790714D01*
X109096980Y-38790714D02*
X109144600Y-38838333D01*
X109144600Y-38838333D02*
X109192219Y-38933571D01*
X109192219Y-38933571D02*
X109192219Y-39219285D01*
X109192219Y-39219285D02*
X109144600Y-39314523D01*
X109144600Y-39314523D02*
X109096980Y-39362142D01*
X138586380Y-40927257D02*
X138634000Y-40974876D01*
X138634000Y-40974876D02*
X138681619Y-41117733D01*
X138681619Y-41117733D02*
X138681619Y-41212971D01*
X138681619Y-41212971D02*
X138634000Y-41355828D01*
X138634000Y-41355828D02*
X138538761Y-41451066D01*
X138538761Y-41451066D02*
X138443523Y-41498685D01*
X138443523Y-41498685D02*
X138253047Y-41546304D01*
X138253047Y-41546304D02*
X138110190Y-41546304D01*
X138110190Y-41546304D02*
X137919714Y-41498685D01*
X137919714Y-41498685D02*
X137824476Y-41451066D01*
X137824476Y-41451066D02*
X137729238Y-41355828D01*
X137729238Y-41355828D02*
X137681619Y-41212971D01*
X137681619Y-41212971D02*
X137681619Y-41117733D01*
X137681619Y-41117733D02*
X137729238Y-40974876D01*
X137729238Y-40974876D02*
X137776857Y-40927257D01*
X138681619Y-39974876D02*
X138681619Y-40546304D01*
X138681619Y-40260590D02*
X137681619Y-40260590D01*
X137681619Y-40260590D02*
X137824476Y-40355828D01*
X137824476Y-40355828D02*
X137919714Y-40451066D01*
X137919714Y-40451066D02*
X137967333Y-40546304D01*
X138014952Y-39117733D02*
X138681619Y-39117733D01*
X137634000Y-39355828D02*
X138348285Y-39593923D01*
X138348285Y-39593923D02*
X138348285Y-38974876D01*
X143069480Y-40457357D02*
X143117100Y-40504976D01*
X143117100Y-40504976D02*
X143164719Y-40647833D01*
X143164719Y-40647833D02*
X143164719Y-40743071D01*
X143164719Y-40743071D02*
X143117100Y-40885928D01*
X143117100Y-40885928D02*
X143021861Y-40981166D01*
X143021861Y-40981166D02*
X142926623Y-41028785D01*
X142926623Y-41028785D02*
X142736147Y-41076404D01*
X142736147Y-41076404D02*
X142593290Y-41076404D01*
X142593290Y-41076404D02*
X142402814Y-41028785D01*
X142402814Y-41028785D02*
X142307576Y-40981166D01*
X142307576Y-40981166D02*
X142212338Y-40885928D01*
X142212338Y-40885928D02*
X142164719Y-40743071D01*
X142164719Y-40743071D02*
X142164719Y-40647833D01*
X142164719Y-40647833D02*
X142212338Y-40504976D01*
X142212338Y-40504976D02*
X142259957Y-40457357D01*
X143164719Y-39504976D02*
X143164719Y-40076404D01*
X143164719Y-39790690D02*
X142164719Y-39790690D01*
X142164719Y-39790690D02*
X142307576Y-39885928D01*
X142307576Y-39885928D02*
X142402814Y-39981166D01*
X142402814Y-39981166D02*
X142450433Y-40076404D01*
X142164719Y-38600214D02*
X142164719Y-39076404D01*
X142164719Y-39076404D02*
X142640909Y-39124023D01*
X142640909Y-39124023D02*
X142593290Y-39076404D01*
X142593290Y-39076404D02*
X142545671Y-38981166D01*
X142545671Y-38981166D02*
X142545671Y-38743071D01*
X142545671Y-38743071D02*
X142593290Y-38647833D01*
X142593290Y-38647833D02*
X142640909Y-38600214D01*
X142640909Y-38600214D02*
X142736147Y-38552595D01*
X142736147Y-38552595D02*
X142974242Y-38552595D01*
X142974242Y-38552595D02*
X143069480Y-38600214D01*
X143069480Y-38600214D02*
X143117100Y-38647833D01*
X143117100Y-38647833D02*
X143164719Y-38743071D01*
X143164719Y-38743071D02*
X143164719Y-38981166D01*
X143164719Y-38981166D02*
X143117100Y-39076404D01*
X143117100Y-39076404D02*
X143069480Y-39124023D01*
X73917980Y-40571657D02*
X73965600Y-40619276D01*
X73965600Y-40619276D02*
X74013219Y-40762133D01*
X74013219Y-40762133D02*
X74013219Y-40857371D01*
X74013219Y-40857371D02*
X73965600Y-41000228D01*
X73965600Y-41000228D02*
X73870361Y-41095466D01*
X73870361Y-41095466D02*
X73775123Y-41143085D01*
X73775123Y-41143085D02*
X73584647Y-41190704D01*
X73584647Y-41190704D02*
X73441790Y-41190704D01*
X73441790Y-41190704D02*
X73251314Y-41143085D01*
X73251314Y-41143085D02*
X73156076Y-41095466D01*
X73156076Y-41095466D02*
X73060838Y-41000228D01*
X73060838Y-41000228D02*
X73013219Y-40857371D01*
X73013219Y-40857371D02*
X73013219Y-40762133D01*
X73013219Y-40762133D02*
X73060838Y-40619276D01*
X73060838Y-40619276D02*
X73108457Y-40571657D01*
X74013219Y-39619276D02*
X74013219Y-40190704D01*
X74013219Y-39904990D02*
X73013219Y-39904990D01*
X73013219Y-39904990D02*
X73156076Y-40000228D01*
X73156076Y-40000228D02*
X73251314Y-40095466D01*
X73251314Y-40095466D02*
X73298933Y-40190704D01*
X73013219Y-38762133D02*
X73013219Y-38952609D01*
X73013219Y-38952609D02*
X73060838Y-39047847D01*
X73060838Y-39047847D02*
X73108457Y-39095466D01*
X73108457Y-39095466D02*
X73251314Y-39190704D01*
X73251314Y-39190704D02*
X73441790Y-39238323D01*
X73441790Y-39238323D02*
X73822742Y-39238323D01*
X73822742Y-39238323D02*
X73917980Y-39190704D01*
X73917980Y-39190704D02*
X73965600Y-39143085D01*
X73965600Y-39143085D02*
X74013219Y-39047847D01*
X74013219Y-39047847D02*
X74013219Y-38857371D01*
X74013219Y-38857371D02*
X73965600Y-38762133D01*
X73965600Y-38762133D02*
X73917980Y-38714514D01*
X73917980Y-38714514D02*
X73822742Y-38666895D01*
X73822742Y-38666895D02*
X73584647Y-38666895D01*
X73584647Y-38666895D02*
X73489409Y-38714514D01*
X73489409Y-38714514D02*
X73441790Y-38762133D01*
X73441790Y-38762133D02*
X73394171Y-38857371D01*
X73394171Y-38857371D02*
X73394171Y-39047847D01*
X73394171Y-39047847D02*
X73441790Y-39143085D01*
X73441790Y-39143085D02*
X73489409Y-39190704D01*
X73489409Y-39190704D02*
X73584647Y-39238323D01*
X69447580Y-40825657D02*
X69495200Y-40873276D01*
X69495200Y-40873276D02*
X69542819Y-41016133D01*
X69542819Y-41016133D02*
X69542819Y-41111371D01*
X69542819Y-41111371D02*
X69495200Y-41254228D01*
X69495200Y-41254228D02*
X69399961Y-41349466D01*
X69399961Y-41349466D02*
X69304723Y-41397085D01*
X69304723Y-41397085D02*
X69114247Y-41444704D01*
X69114247Y-41444704D02*
X68971390Y-41444704D01*
X68971390Y-41444704D02*
X68780914Y-41397085D01*
X68780914Y-41397085D02*
X68685676Y-41349466D01*
X68685676Y-41349466D02*
X68590438Y-41254228D01*
X68590438Y-41254228D02*
X68542819Y-41111371D01*
X68542819Y-41111371D02*
X68542819Y-41016133D01*
X68542819Y-41016133D02*
X68590438Y-40873276D01*
X68590438Y-40873276D02*
X68638057Y-40825657D01*
X69542819Y-39873276D02*
X69542819Y-40444704D01*
X69542819Y-40158990D02*
X68542819Y-40158990D01*
X68542819Y-40158990D02*
X68685676Y-40254228D01*
X68685676Y-40254228D02*
X68780914Y-40349466D01*
X68780914Y-40349466D02*
X68828533Y-40444704D01*
X68542819Y-39539942D02*
X68542819Y-38873276D01*
X68542819Y-38873276D02*
X69542819Y-39301847D01*
X133303180Y-51392057D02*
X133350800Y-51439676D01*
X133350800Y-51439676D02*
X133398419Y-51582533D01*
X133398419Y-51582533D02*
X133398419Y-51677771D01*
X133398419Y-51677771D02*
X133350800Y-51820628D01*
X133350800Y-51820628D02*
X133255561Y-51915866D01*
X133255561Y-51915866D02*
X133160323Y-51963485D01*
X133160323Y-51963485D02*
X132969847Y-52011104D01*
X132969847Y-52011104D02*
X132826990Y-52011104D01*
X132826990Y-52011104D02*
X132636514Y-51963485D01*
X132636514Y-51963485D02*
X132541276Y-51915866D01*
X132541276Y-51915866D02*
X132446038Y-51820628D01*
X132446038Y-51820628D02*
X132398419Y-51677771D01*
X132398419Y-51677771D02*
X132398419Y-51582533D01*
X132398419Y-51582533D02*
X132446038Y-51439676D01*
X132446038Y-51439676D02*
X132493657Y-51392057D01*
X133398419Y-50439676D02*
X133398419Y-51011104D01*
X133398419Y-50725390D02*
X132398419Y-50725390D01*
X132398419Y-50725390D02*
X132541276Y-50820628D01*
X132541276Y-50820628D02*
X132636514Y-50915866D01*
X132636514Y-50915866D02*
X132684133Y-51011104D01*
X132826990Y-49868247D02*
X132779371Y-49963485D01*
X132779371Y-49963485D02*
X132731752Y-50011104D01*
X132731752Y-50011104D02*
X132636514Y-50058723D01*
X132636514Y-50058723D02*
X132588895Y-50058723D01*
X132588895Y-50058723D02*
X132493657Y-50011104D01*
X132493657Y-50011104D02*
X132446038Y-49963485D01*
X132446038Y-49963485D02*
X132398419Y-49868247D01*
X132398419Y-49868247D02*
X132398419Y-49677771D01*
X132398419Y-49677771D02*
X132446038Y-49582533D01*
X132446038Y-49582533D02*
X132493657Y-49534914D01*
X132493657Y-49534914D02*
X132588895Y-49487295D01*
X132588895Y-49487295D02*
X132636514Y-49487295D01*
X132636514Y-49487295D02*
X132731752Y-49534914D01*
X132731752Y-49534914D02*
X132779371Y-49582533D01*
X132779371Y-49582533D02*
X132826990Y-49677771D01*
X132826990Y-49677771D02*
X132826990Y-49868247D01*
X132826990Y-49868247D02*
X132874609Y-49963485D01*
X132874609Y-49963485D02*
X132922228Y-50011104D01*
X132922228Y-50011104D02*
X133017466Y-50058723D01*
X133017466Y-50058723D02*
X133207942Y-50058723D01*
X133207942Y-50058723D02*
X133303180Y-50011104D01*
X133303180Y-50011104D02*
X133350800Y-49963485D01*
X133350800Y-49963485D02*
X133398419Y-49868247D01*
X133398419Y-49868247D02*
X133398419Y-49677771D01*
X133398419Y-49677771D02*
X133350800Y-49582533D01*
X133350800Y-49582533D02*
X133303180Y-49534914D01*
X133303180Y-49534914D02*
X133207942Y-49487295D01*
X133207942Y-49487295D02*
X133017466Y-49487295D01*
X133017466Y-49487295D02*
X132922228Y-49534914D01*
X132922228Y-49534914D02*
X132874609Y-49582533D01*
X132874609Y-49582533D02*
X132826990Y-49677771D01*
X118266380Y-45570457D02*
X118314000Y-45618076D01*
X118314000Y-45618076D02*
X118361619Y-45760933D01*
X118361619Y-45760933D02*
X118361619Y-45856171D01*
X118361619Y-45856171D02*
X118314000Y-45999028D01*
X118314000Y-45999028D02*
X118218761Y-46094266D01*
X118218761Y-46094266D02*
X118123523Y-46141885D01*
X118123523Y-46141885D02*
X117933047Y-46189504D01*
X117933047Y-46189504D02*
X117790190Y-46189504D01*
X117790190Y-46189504D02*
X117599714Y-46141885D01*
X117599714Y-46141885D02*
X117504476Y-46094266D01*
X117504476Y-46094266D02*
X117409238Y-45999028D01*
X117409238Y-45999028D02*
X117361619Y-45856171D01*
X117361619Y-45856171D02*
X117361619Y-45760933D01*
X117361619Y-45760933D02*
X117409238Y-45618076D01*
X117409238Y-45618076D02*
X117456857Y-45570457D01*
X118361619Y-44618076D02*
X118361619Y-45189504D01*
X118361619Y-44903790D02*
X117361619Y-44903790D01*
X117361619Y-44903790D02*
X117504476Y-44999028D01*
X117504476Y-44999028D02*
X117599714Y-45094266D01*
X117599714Y-45094266D02*
X117647333Y-45189504D01*
X118361619Y-44141885D02*
X118361619Y-43951409D01*
X118361619Y-43951409D02*
X118314000Y-43856171D01*
X118314000Y-43856171D02*
X118266380Y-43808552D01*
X118266380Y-43808552D02*
X118123523Y-43713314D01*
X118123523Y-43713314D02*
X117933047Y-43665695D01*
X117933047Y-43665695D02*
X117552095Y-43665695D01*
X117552095Y-43665695D02*
X117456857Y-43713314D01*
X117456857Y-43713314D02*
X117409238Y-43760933D01*
X117409238Y-43760933D02*
X117361619Y-43856171D01*
X117361619Y-43856171D02*
X117361619Y-44046647D01*
X117361619Y-44046647D02*
X117409238Y-44141885D01*
X117409238Y-44141885D02*
X117456857Y-44189504D01*
X117456857Y-44189504D02*
X117552095Y-44237123D01*
X117552095Y-44237123D02*
X117790190Y-44237123D01*
X117790190Y-44237123D02*
X117885428Y-44189504D01*
X117885428Y-44189504D02*
X117933047Y-44141885D01*
X117933047Y-44141885D02*
X117980666Y-44046647D01*
X117980666Y-44046647D02*
X117980666Y-43856171D01*
X117980666Y-43856171D02*
X117933047Y-43760933D01*
X117933047Y-43760933D02*
X117885428Y-43713314D01*
X117885428Y-43713314D02*
X117790190Y-43665695D01*
X89203205Y-52321619D02*
X89203205Y-51321619D01*
X89203205Y-51321619D02*
X89441300Y-51321619D01*
X89441300Y-51321619D02*
X89584157Y-51369238D01*
X89584157Y-51369238D02*
X89679395Y-51464476D01*
X89679395Y-51464476D02*
X89727014Y-51559714D01*
X89727014Y-51559714D02*
X89774633Y-51750190D01*
X89774633Y-51750190D02*
X89774633Y-51893047D01*
X89774633Y-51893047D02*
X89727014Y-52083523D01*
X89727014Y-52083523D02*
X89679395Y-52178761D01*
X89679395Y-52178761D02*
X89584157Y-52274000D01*
X89584157Y-52274000D02*
X89441300Y-52321619D01*
X89441300Y-52321619D02*
X89203205Y-52321619D01*
X90727014Y-52321619D02*
X90155586Y-52321619D01*
X90441300Y-52321619D02*
X90441300Y-51321619D01*
X90441300Y-51321619D02*
X90346062Y-51464476D01*
X90346062Y-51464476D02*
X90250824Y-51559714D01*
X90250824Y-51559714D02*
X90155586Y-51607333D01*
X128503466Y-44635009D02*
X128170133Y-44635009D01*
X128170133Y-45158819D02*
X128170133Y-44158819D01*
X128170133Y-44158819D02*
X128646323Y-44158819D01*
X129360609Y-44635009D02*
X129503466Y-44682628D01*
X129503466Y-44682628D02*
X129551085Y-44730247D01*
X129551085Y-44730247D02*
X129598704Y-44825485D01*
X129598704Y-44825485D02*
X129598704Y-44968342D01*
X129598704Y-44968342D02*
X129551085Y-45063580D01*
X129551085Y-45063580D02*
X129503466Y-45111200D01*
X129503466Y-45111200D02*
X129408228Y-45158819D01*
X129408228Y-45158819D02*
X129027276Y-45158819D01*
X129027276Y-45158819D02*
X129027276Y-44158819D01*
X129027276Y-44158819D02*
X129360609Y-44158819D01*
X129360609Y-44158819D02*
X129455847Y-44206438D01*
X129455847Y-44206438D02*
X129503466Y-44254057D01*
X129503466Y-44254057D02*
X129551085Y-44349295D01*
X129551085Y-44349295D02*
X129551085Y-44444533D01*
X129551085Y-44444533D02*
X129503466Y-44539771D01*
X129503466Y-44539771D02*
X129455847Y-44587390D01*
X129455847Y-44587390D02*
X129360609Y-44635009D01*
X129360609Y-44635009D02*
X129027276Y-44635009D01*
X130551085Y-45158819D02*
X129979657Y-45158819D01*
X130265371Y-45158819D02*
X130265371Y-44158819D01*
X130265371Y-44158819D02*
X130170133Y-44301676D01*
X130170133Y-44301676D02*
X130074895Y-44396914D01*
X130074895Y-44396914D02*
X129979657Y-44444533D01*
X106245066Y-45632019D02*
X106245066Y-46346304D01*
X106245066Y-46346304D02*
X106197447Y-46489161D01*
X106197447Y-46489161D02*
X106102209Y-46584400D01*
X106102209Y-46584400D02*
X105959352Y-46632019D01*
X105959352Y-46632019D02*
X105864114Y-46632019D01*
X107245066Y-46632019D02*
X106673638Y-46632019D01*
X106959352Y-46632019D02*
X106959352Y-45632019D01*
X106959352Y-45632019D02*
X106864114Y-45774876D01*
X106864114Y-45774876D02*
X106768876Y-45870114D01*
X106768876Y-45870114D02*
X106673638Y-45917733D01*
X73114819Y-49202933D02*
X73829104Y-49202933D01*
X73829104Y-49202933D02*
X73971961Y-49250552D01*
X73971961Y-49250552D02*
X74067200Y-49345790D01*
X74067200Y-49345790D02*
X74114819Y-49488647D01*
X74114819Y-49488647D02*
X74114819Y-49583885D01*
X73210057Y-48774361D02*
X73162438Y-48726742D01*
X73162438Y-48726742D02*
X73114819Y-48631504D01*
X73114819Y-48631504D02*
X73114819Y-48393409D01*
X73114819Y-48393409D02*
X73162438Y-48298171D01*
X73162438Y-48298171D02*
X73210057Y-48250552D01*
X73210057Y-48250552D02*
X73305295Y-48202933D01*
X73305295Y-48202933D02*
X73400533Y-48202933D01*
X73400533Y-48202933D02*
X73543390Y-48250552D01*
X73543390Y-48250552D02*
X74114819Y-48821980D01*
X74114819Y-48821980D02*
X74114819Y-48202933D01*
X91945619Y-42279866D02*
X91469428Y-42613199D01*
X91945619Y-42851294D02*
X90945619Y-42851294D01*
X90945619Y-42851294D02*
X90945619Y-42470342D01*
X90945619Y-42470342D02*
X90993238Y-42375104D01*
X90993238Y-42375104D02*
X91040857Y-42327485D01*
X91040857Y-42327485D02*
X91136095Y-42279866D01*
X91136095Y-42279866D02*
X91278952Y-42279866D01*
X91278952Y-42279866D02*
X91374190Y-42327485D01*
X91374190Y-42327485D02*
X91421809Y-42375104D01*
X91421809Y-42375104D02*
X91469428Y-42470342D01*
X91469428Y-42470342D02*
X91469428Y-42851294D01*
X91945619Y-41327485D02*
X91945619Y-41898913D01*
X91945619Y-41613199D02*
X90945619Y-41613199D01*
X90945619Y-41613199D02*
X91088476Y-41708437D01*
X91088476Y-41708437D02*
X91183714Y-41803675D01*
X91183714Y-41803675D02*
X91231333Y-41898913D01*
X98791733Y-52524819D02*
X98458400Y-52048628D01*
X98220305Y-52524819D02*
X98220305Y-51524819D01*
X98220305Y-51524819D02*
X98601257Y-51524819D01*
X98601257Y-51524819D02*
X98696495Y-51572438D01*
X98696495Y-51572438D02*
X98744114Y-51620057D01*
X98744114Y-51620057D02*
X98791733Y-51715295D01*
X98791733Y-51715295D02*
X98791733Y-51858152D01*
X98791733Y-51858152D02*
X98744114Y-51953390D01*
X98744114Y-51953390D02*
X98696495Y-52001009D01*
X98696495Y-52001009D02*
X98601257Y-52048628D01*
X98601257Y-52048628D02*
X98220305Y-52048628D01*
X99172686Y-51620057D02*
X99220305Y-51572438D01*
X99220305Y-51572438D02*
X99315543Y-51524819D01*
X99315543Y-51524819D02*
X99553638Y-51524819D01*
X99553638Y-51524819D02*
X99648876Y-51572438D01*
X99648876Y-51572438D02*
X99696495Y-51620057D01*
X99696495Y-51620057D02*
X99744114Y-51715295D01*
X99744114Y-51715295D02*
X99744114Y-51810533D01*
X99744114Y-51810533D02*
X99696495Y-51953390D01*
X99696495Y-51953390D02*
X99125067Y-52524819D01*
X99125067Y-52524819D02*
X99744114Y-52524819D01*
X84531295Y-51278819D02*
X84531295Y-52088342D01*
X84531295Y-52088342D02*
X84578914Y-52183580D01*
X84578914Y-52183580D02*
X84626533Y-52231200D01*
X84626533Y-52231200D02*
X84721771Y-52278819D01*
X84721771Y-52278819D02*
X84912247Y-52278819D01*
X84912247Y-52278819D02*
X85007485Y-52231200D01*
X85007485Y-52231200D02*
X85055104Y-52183580D01*
X85055104Y-52183580D02*
X85102723Y-52088342D01*
X85102723Y-52088342D02*
X85102723Y-51278819D01*
X86102723Y-52278819D02*
X85531295Y-52278819D01*
X85817009Y-52278819D02*
X85817009Y-51278819D01*
X85817009Y-51278819D02*
X85721771Y-51421676D01*
X85721771Y-51421676D02*
X85626533Y-51516914D01*
X85626533Y-51516914D02*
X85531295Y-51564533D01*
X104838595Y-41872819D02*
X104838595Y-42682342D01*
X104838595Y-42682342D02*
X104886214Y-42777580D01*
X104886214Y-42777580D02*
X104933833Y-42825200D01*
X104933833Y-42825200D02*
X105029071Y-42872819D01*
X105029071Y-42872819D02*
X105219547Y-42872819D01*
X105219547Y-42872819D02*
X105314785Y-42825200D01*
X105314785Y-42825200D02*
X105362404Y-42777580D01*
X105362404Y-42777580D02*
X105410023Y-42682342D01*
X105410023Y-42682342D02*
X105410023Y-41872819D01*
X105790976Y-41872819D02*
X106410023Y-41872819D01*
X106410023Y-41872819D02*
X106076690Y-42253771D01*
X106076690Y-42253771D02*
X106219547Y-42253771D01*
X106219547Y-42253771D02*
X106314785Y-42301390D01*
X106314785Y-42301390D02*
X106362404Y-42349009D01*
X106362404Y-42349009D02*
X106410023Y-42444247D01*
X106410023Y-42444247D02*
X106410023Y-42682342D01*
X106410023Y-42682342D02*
X106362404Y-42777580D01*
X106362404Y-42777580D02*
X106314785Y-42825200D01*
X106314785Y-42825200D02*
X106219547Y-42872819D01*
X106219547Y-42872819D02*
X105933833Y-42872819D01*
X105933833Y-42872819D02*
X105838595Y-42825200D01*
X105838595Y-42825200D02*
X105790976Y-42777580D01*
X138480895Y-44666819D02*
X138480895Y-45476342D01*
X138480895Y-45476342D02*
X138528514Y-45571580D01*
X138528514Y-45571580D02*
X138576133Y-45619200D01*
X138576133Y-45619200D02*
X138671371Y-45666819D01*
X138671371Y-45666819D02*
X138861847Y-45666819D01*
X138861847Y-45666819D02*
X138957085Y-45619200D01*
X138957085Y-45619200D02*
X139004704Y-45571580D01*
X139004704Y-45571580D02*
X139052323Y-45476342D01*
X139052323Y-45476342D02*
X139052323Y-44666819D01*
X139957085Y-45000152D02*
X139957085Y-45666819D01*
X139718990Y-44619200D02*
X139480895Y-45333485D01*
X139480895Y-45333485D02*
X140099942Y-45333485D01*
X69951695Y-41872819D02*
X69951695Y-42682342D01*
X69951695Y-42682342D02*
X69999314Y-42777580D01*
X69999314Y-42777580D02*
X70046933Y-42825200D01*
X70046933Y-42825200D02*
X70142171Y-42872819D01*
X70142171Y-42872819D02*
X70332647Y-42872819D01*
X70332647Y-42872819D02*
X70427885Y-42825200D01*
X70427885Y-42825200D02*
X70475504Y-42777580D01*
X70475504Y-42777580D02*
X70523123Y-42682342D01*
X70523123Y-42682342D02*
X70523123Y-41872819D01*
X71475504Y-41872819D02*
X70999314Y-41872819D01*
X70999314Y-41872819D02*
X70951695Y-42349009D01*
X70951695Y-42349009D02*
X70999314Y-42301390D01*
X70999314Y-42301390D02*
X71094552Y-42253771D01*
X71094552Y-42253771D02*
X71332647Y-42253771D01*
X71332647Y-42253771D02*
X71427885Y-42301390D01*
X71427885Y-42301390D02*
X71475504Y-42349009D01*
X71475504Y-42349009D02*
X71523123Y-42444247D01*
X71523123Y-42444247D02*
X71523123Y-42682342D01*
X71523123Y-42682342D02*
X71475504Y-42777580D01*
X71475504Y-42777580D02*
X71427885Y-42825200D01*
X71427885Y-42825200D02*
X71332647Y-42872819D01*
X71332647Y-42872819D02*
X71094552Y-42872819D01*
X71094552Y-42872819D02*
X70999314Y-42825200D01*
X70999314Y-42825200D02*
X70951695Y-42777580D01*
X119393619Y-50901504D02*
X120203142Y-50901504D01*
X120203142Y-50901504D02*
X120298380Y-50853885D01*
X120298380Y-50853885D02*
X120346000Y-50806266D01*
X120346000Y-50806266D02*
X120393619Y-50711028D01*
X120393619Y-50711028D02*
X120393619Y-50520552D01*
X120393619Y-50520552D02*
X120346000Y-50425314D01*
X120346000Y-50425314D02*
X120298380Y-50377695D01*
X120298380Y-50377695D02*
X120203142Y-50330076D01*
X120203142Y-50330076D02*
X119393619Y-50330076D01*
X119393619Y-49425314D02*
X119393619Y-49615790D01*
X119393619Y-49615790D02*
X119441238Y-49711028D01*
X119441238Y-49711028D02*
X119488857Y-49758647D01*
X119488857Y-49758647D02*
X119631714Y-49853885D01*
X119631714Y-49853885D02*
X119822190Y-49901504D01*
X119822190Y-49901504D02*
X120203142Y-49901504D01*
X120203142Y-49901504D02*
X120298380Y-49853885D01*
X120298380Y-49853885D02*
X120346000Y-49806266D01*
X120346000Y-49806266D02*
X120393619Y-49711028D01*
X120393619Y-49711028D02*
X120393619Y-49520552D01*
X120393619Y-49520552D02*
X120346000Y-49425314D01*
X120346000Y-49425314D02*
X120298380Y-49377695D01*
X120298380Y-49377695D02*
X120203142Y-49330076D01*
X120203142Y-49330076D02*
X119965047Y-49330076D01*
X119965047Y-49330076D02*
X119869809Y-49377695D01*
X119869809Y-49377695D02*
X119822190Y-49425314D01*
X119822190Y-49425314D02*
X119774571Y-49520552D01*
X119774571Y-49520552D02*
X119774571Y-49711028D01*
X119774571Y-49711028D02*
X119822190Y-49806266D01*
X119822190Y-49806266D02*
X119869809Y-49853885D01*
X119869809Y-49853885D02*
X119965047Y-49901504D01*
X91725809Y-40720228D02*
X91725809Y-41196419D01*
X91392476Y-40196419D02*
X91725809Y-40720228D01*
X91725809Y-40720228D02*
X92059142Y-40196419D01*
X92916285Y-41196419D02*
X92344857Y-41196419D01*
X92630571Y-41196419D02*
X92630571Y-40196419D01*
X92630571Y-40196419D02*
X92535333Y-40339276D01*
X92535333Y-40339276D02*
X92440095Y-40434514D01*
X92440095Y-40434514D02*
X92344857Y-40482133D01*
X130208495Y-40552019D02*
X130779923Y-40552019D01*
X130494209Y-41552019D02*
X130494209Y-40552019D01*
X131113257Y-41552019D02*
X131113257Y-40552019D01*
X131113257Y-40552019D02*
X131494209Y-40552019D01*
X131494209Y-40552019D02*
X131589447Y-40599638D01*
X131589447Y-40599638D02*
X131637066Y-40647257D01*
X131637066Y-40647257D02*
X131684685Y-40742495D01*
X131684685Y-40742495D02*
X131684685Y-40885352D01*
X131684685Y-40885352D02*
X131637066Y-40980590D01*
X131637066Y-40980590D02*
X131589447Y-41028209D01*
X131589447Y-41028209D02*
X131494209Y-41075828D01*
X131494209Y-41075828D02*
X131113257Y-41075828D01*
X132637066Y-41552019D02*
X132065638Y-41552019D01*
X132351352Y-41552019D02*
X132351352Y-40552019D01*
X132351352Y-40552019D02*
X132256114Y-40694876D01*
X132256114Y-40694876D02*
X132160876Y-40790114D01*
X132160876Y-40790114D02*
X132065638Y-40837733D01*
X124620495Y-40806019D02*
X125191923Y-40806019D01*
X124906209Y-41806019D02*
X124906209Y-40806019D01*
X125525257Y-41806019D02*
X125525257Y-40806019D01*
X125525257Y-40806019D02*
X125906209Y-40806019D01*
X125906209Y-40806019D02*
X126001447Y-40853638D01*
X126001447Y-40853638D02*
X126049066Y-40901257D01*
X126049066Y-40901257D02*
X126096685Y-40996495D01*
X126096685Y-40996495D02*
X126096685Y-41139352D01*
X126096685Y-41139352D02*
X126049066Y-41234590D01*
X126049066Y-41234590D02*
X126001447Y-41282209D01*
X126001447Y-41282209D02*
X125906209Y-41329828D01*
X125906209Y-41329828D02*
X125525257Y-41329828D01*
X126477638Y-40901257D02*
X126525257Y-40853638D01*
X126525257Y-40853638D02*
X126620495Y-40806019D01*
X126620495Y-40806019D02*
X126858590Y-40806019D01*
X126858590Y-40806019D02*
X126953828Y-40853638D01*
X126953828Y-40853638D02*
X127001447Y-40901257D01*
X127001447Y-40901257D02*
X127049066Y-40996495D01*
X127049066Y-40996495D02*
X127049066Y-41091733D01*
X127049066Y-41091733D02*
X127001447Y-41234590D01*
X127001447Y-41234590D02*
X126430019Y-41806019D01*
X126430019Y-41806019D02*
X127049066Y-41806019D01*
X127312895Y-40704419D02*
X127884323Y-40704419D01*
X127598609Y-41704419D02*
X127598609Y-40704419D01*
X128217657Y-41704419D02*
X128217657Y-40704419D01*
X128217657Y-40704419D02*
X128598609Y-40704419D01*
X128598609Y-40704419D02*
X128693847Y-40752038D01*
X128693847Y-40752038D02*
X128741466Y-40799657D01*
X128741466Y-40799657D02*
X128789085Y-40894895D01*
X128789085Y-40894895D02*
X128789085Y-41037752D01*
X128789085Y-41037752D02*
X128741466Y-41132990D01*
X128741466Y-41132990D02*
X128693847Y-41180609D01*
X128693847Y-41180609D02*
X128598609Y-41228228D01*
X128598609Y-41228228D02*
X128217657Y-41228228D01*
X129122419Y-40704419D02*
X129741466Y-40704419D01*
X129741466Y-40704419D02*
X129408133Y-41085371D01*
X129408133Y-41085371D02*
X129550990Y-41085371D01*
X129550990Y-41085371D02*
X129646228Y-41132990D01*
X129646228Y-41132990D02*
X129693847Y-41180609D01*
X129693847Y-41180609D02*
X129741466Y-41275847D01*
X129741466Y-41275847D02*
X129741466Y-41513942D01*
X129741466Y-41513942D02*
X129693847Y-41609180D01*
X129693847Y-41609180D02*
X129646228Y-41656800D01*
X129646228Y-41656800D02*
X129550990Y-41704419D01*
X129550990Y-41704419D02*
X129265276Y-41704419D01*
X129265276Y-41704419D02*
X129170038Y-41656800D01*
X129170038Y-41656800D02*
X129122419Y-41609180D01*
X86469695Y-38469219D02*
X87041123Y-38469219D01*
X86755409Y-39469219D02*
X86755409Y-38469219D01*
X87374457Y-39469219D02*
X87374457Y-38469219D01*
X87374457Y-38469219D02*
X87755409Y-38469219D01*
X87755409Y-38469219D02*
X87850647Y-38516838D01*
X87850647Y-38516838D02*
X87898266Y-38564457D01*
X87898266Y-38564457D02*
X87945885Y-38659695D01*
X87945885Y-38659695D02*
X87945885Y-38802552D01*
X87945885Y-38802552D02*
X87898266Y-38897790D01*
X87898266Y-38897790D02*
X87850647Y-38945409D01*
X87850647Y-38945409D02*
X87755409Y-38993028D01*
X87755409Y-38993028D02*
X87374457Y-38993028D01*
X88803028Y-38802552D02*
X88803028Y-39469219D01*
X88564933Y-38421600D02*
X88326838Y-39135885D01*
X88326838Y-39135885D02*
X88945885Y-39135885D01*
X118321295Y-40120019D02*
X118892723Y-40120019D01*
X118607009Y-41120019D02*
X118607009Y-40120019D01*
X119226057Y-41120019D02*
X119226057Y-40120019D01*
X119226057Y-40120019D02*
X119607009Y-40120019D01*
X119607009Y-40120019D02*
X119702247Y-40167638D01*
X119702247Y-40167638D02*
X119749866Y-40215257D01*
X119749866Y-40215257D02*
X119797485Y-40310495D01*
X119797485Y-40310495D02*
X119797485Y-40453352D01*
X119797485Y-40453352D02*
X119749866Y-40548590D01*
X119749866Y-40548590D02*
X119702247Y-40596209D01*
X119702247Y-40596209D02*
X119607009Y-40643828D01*
X119607009Y-40643828D02*
X119226057Y-40643828D01*
X120702247Y-40120019D02*
X120226057Y-40120019D01*
X120226057Y-40120019D02*
X120178438Y-40596209D01*
X120178438Y-40596209D02*
X120226057Y-40548590D01*
X120226057Y-40548590D02*
X120321295Y-40500971D01*
X120321295Y-40500971D02*
X120559390Y-40500971D01*
X120559390Y-40500971D02*
X120654628Y-40548590D01*
X120654628Y-40548590D02*
X120702247Y-40596209D01*
X120702247Y-40596209D02*
X120749866Y-40691447D01*
X120749866Y-40691447D02*
X120749866Y-40929542D01*
X120749866Y-40929542D02*
X120702247Y-41024780D01*
X120702247Y-41024780D02*
X120654628Y-41072400D01*
X120654628Y-41072400D02*
X120559390Y-41120019D01*
X120559390Y-41120019D02*
X120321295Y-41120019D01*
X120321295Y-41120019D02*
X120226057Y-41072400D01*
X120226057Y-41072400D02*
X120178438Y-41024780D01*
X66048095Y-38215219D02*
X66619523Y-38215219D01*
X66333809Y-39215219D02*
X66333809Y-38215219D01*
X66952857Y-39215219D02*
X66952857Y-38215219D01*
X66952857Y-38215219D02*
X67333809Y-38215219D01*
X67333809Y-38215219D02*
X67429047Y-38262838D01*
X67429047Y-38262838D02*
X67476666Y-38310457D01*
X67476666Y-38310457D02*
X67524285Y-38405695D01*
X67524285Y-38405695D02*
X67524285Y-38548552D01*
X67524285Y-38548552D02*
X67476666Y-38643790D01*
X67476666Y-38643790D02*
X67429047Y-38691409D01*
X67429047Y-38691409D02*
X67333809Y-38739028D01*
X67333809Y-38739028D02*
X66952857Y-38739028D01*
X68381428Y-38215219D02*
X68190952Y-38215219D01*
X68190952Y-38215219D02*
X68095714Y-38262838D01*
X68095714Y-38262838D02*
X68048095Y-38310457D01*
X68048095Y-38310457D02*
X67952857Y-38453314D01*
X67952857Y-38453314D02*
X67905238Y-38643790D01*
X67905238Y-38643790D02*
X67905238Y-39024742D01*
X67905238Y-39024742D02*
X67952857Y-39119980D01*
X67952857Y-39119980D02*
X68000476Y-39167600D01*
X68000476Y-39167600D02*
X68095714Y-39215219D01*
X68095714Y-39215219D02*
X68286190Y-39215219D01*
X68286190Y-39215219D02*
X68381428Y-39167600D01*
X68381428Y-39167600D02*
X68429047Y-39119980D01*
X68429047Y-39119980D02*
X68476666Y-39024742D01*
X68476666Y-39024742D02*
X68476666Y-38786647D01*
X68476666Y-38786647D02*
X68429047Y-38691409D01*
X68429047Y-38691409D02*
X68381428Y-38643790D01*
X68381428Y-38643790D02*
X68286190Y-38596171D01*
X68286190Y-38596171D02*
X68095714Y-38596171D01*
X68095714Y-38596171D02*
X68000476Y-38643790D01*
X68000476Y-38643790D02*
X67952857Y-38691409D01*
X67952857Y-38691409D02*
X67905238Y-38786647D01*
X79256095Y-40755219D02*
X79827523Y-40755219D01*
X79541809Y-41755219D02*
X79541809Y-40755219D01*
X80160857Y-41755219D02*
X80160857Y-40755219D01*
X80160857Y-40755219D02*
X80541809Y-40755219D01*
X80541809Y-40755219D02*
X80637047Y-40802838D01*
X80637047Y-40802838D02*
X80684666Y-40850457D01*
X80684666Y-40850457D02*
X80732285Y-40945695D01*
X80732285Y-40945695D02*
X80732285Y-41088552D01*
X80732285Y-41088552D02*
X80684666Y-41183790D01*
X80684666Y-41183790D02*
X80637047Y-41231409D01*
X80637047Y-41231409D02*
X80541809Y-41279028D01*
X80541809Y-41279028D02*
X80160857Y-41279028D01*
X81065619Y-40755219D02*
X81732285Y-40755219D01*
X81732285Y-40755219D02*
X81303714Y-41755219D01*
X140571695Y-44717619D02*
X141143123Y-44717619D01*
X140857409Y-45717619D02*
X140857409Y-44717619D01*
X141476457Y-45717619D02*
X141476457Y-44717619D01*
X141476457Y-44717619D02*
X141857409Y-44717619D01*
X141857409Y-44717619D02*
X141952647Y-44765238D01*
X141952647Y-44765238D02*
X142000266Y-44812857D01*
X142000266Y-44812857D02*
X142047885Y-44908095D01*
X142047885Y-44908095D02*
X142047885Y-45050952D01*
X142047885Y-45050952D02*
X142000266Y-45146190D01*
X142000266Y-45146190D02*
X141952647Y-45193809D01*
X141952647Y-45193809D02*
X141857409Y-45241428D01*
X141857409Y-45241428D02*
X141476457Y-45241428D01*
X142619314Y-45146190D02*
X142524076Y-45098571D01*
X142524076Y-45098571D02*
X142476457Y-45050952D01*
X142476457Y-45050952D02*
X142428838Y-44955714D01*
X142428838Y-44955714D02*
X142428838Y-44908095D01*
X142428838Y-44908095D02*
X142476457Y-44812857D01*
X142476457Y-44812857D02*
X142524076Y-44765238D01*
X142524076Y-44765238D02*
X142619314Y-44717619D01*
X142619314Y-44717619D02*
X142809790Y-44717619D01*
X142809790Y-44717619D02*
X142905028Y-44765238D01*
X142905028Y-44765238D02*
X142952647Y-44812857D01*
X142952647Y-44812857D02*
X143000266Y-44908095D01*
X143000266Y-44908095D02*
X143000266Y-44955714D01*
X143000266Y-44955714D02*
X142952647Y-45050952D01*
X142952647Y-45050952D02*
X142905028Y-45098571D01*
X142905028Y-45098571D02*
X142809790Y-45146190D01*
X142809790Y-45146190D02*
X142619314Y-45146190D01*
X142619314Y-45146190D02*
X142524076Y-45193809D01*
X142524076Y-45193809D02*
X142476457Y-45241428D01*
X142476457Y-45241428D02*
X142428838Y-45336666D01*
X142428838Y-45336666D02*
X142428838Y-45527142D01*
X142428838Y-45527142D02*
X142476457Y-45622380D01*
X142476457Y-45622380D02*
X142524076Y-45670000D01*
X142524076Y-45670000D02*
X142619314Y-45717619D01*
X142619314Y-45717619D02*
X142809790Y-45717619D01*
X142809790Y-45717619D02*
X142905028Y-45670000D01*
X142905028Y-45670000D02*
X142952647Y-45622380D01*
X142952647Y-45622380D02*
X143000266Y-45527142D01*
X143000266Y-45527142D02*
X143000266Y-45336666D01*
X143000266Y-45336666D02*
X142952647Y-45241428D01*
X142952647Y-45241428D02*
X142905028Y-45193809D01*
X142905028Y-45193809D02*
X142809790Y-45146190D01*
X75801695Y-41517219D02*
X76373123Y-41517219D01*
X76087409Y-42517219D02*
X76087409Y-41517219D01*
X76706457Y-42517219D02*
X76706457Y-41517219D01*
X76706457Y-41517219D02*
X77087409Y-41517219D01*
X77087409Y-41517219D02*
X77182647Y-41564838D01*
X77182647Y-41564838D02*
X77230266Y-41612457D01*
X77230266Y-41612457D02*
X77277885Y-41707695D01*
X77277885Y-41707695D02*
X77277885Y-41850552D01*
X77277885Y-41850552D02*
X77230266Y-41945790D01*
X77230266Y-41945790D02*
X77182647Y-41993409D01*
X77182647Y-41993409D02*
X77087409Y-42041028D01*
X77087409Y-42041028D02*
X76706457Y-42041028D01*
X77754076Y-42517219D02*
X77944552Y-42517219D01*
X77944552Y-42517219D02*
X78039790Y-42469600D01*
X78039790Y-42469600D02*
X78087409Y-42421980D01*
X78087409Y-42421980D02*
X78182647Y-42279123D01*
X78182647Y-42279123D02*
X78230266Y-42088647D01*
X78230266Y-42088647D02*
X78230266Y-41707695D01*
X78230266Y-41707695D02*
X78182647Y-41612457D01*
X78182647Y-41612457D02*
X78135028Y-41564838D01*
X78135028Y-41564838D02*
X78039790Y-41517219D01*
X78039790Y-41517219D02*
X77849314Y-41517219D01*
X77849314Y-41517219D02*
X77754076Y-41564838D01*
X77754076Y-41564838D02*
X77706457Y-41612457D01*
X77706457Y-41612457D02*
X77658838Y-41707695D01*
X77658838Y-41707695D02*
X77658838Y-41945790D01*
X77658838Y-41945790D02*
X77706457Y-42041028D01*
X77706457Y-42041028D02*
X77754076Y-42088647D01*
X77754076Y-42088647D02*
X77849314Y-42136266D01*
X77849314Y-42136266D02*
X78039790Y-42136266D01*
X78039790Y-42136266D02*
X78135028Y-42088647D01*
X78135028Y-42088647D02*
X78182647Y-42041028D01*
X78182647Y-42041028D02*
X78230266Y-41945790D01*
X75935105Y-38367619D02*
X76506533Y-38367619D01*
X76220819Y-39367619D02*
X76220819Y-38367619D01*
X76839867Y-39367619D02*
X76839867Y-38367619D01*
X76839867Y-38367619D02*
X77220819Y-38367619D01*
X77220819Y-38367619D02*
X77316057Y-38415238D01*
X77316057Y-38415238D02*
X77363676Y-38462857D01*
X77363676Y-38462857D02*
X77411295Y-38558095D01*
X77411295Y-38558095D02*
X77411295Y-38700952D01*
X77411295Y-38700952D02*
X77363676Y-38796190D01*
X77363676Y-38796190D02*
X77316057Y-38843809D01*
X77316057Y-38843809D02*
X77220819Y-38891428D01*
X77220819Y-38891428D02*
X76839867Y-38891428D01*
X78363676Y-39367619D02*
X77792248Y-39367619D01*
X78077962Y-39367619D02*
X78077962Y-38367619D01*
X78077962Y-38367619D02*
X77982724Y-38510476D01*
X77982724Y-38510476D02*
X77887486Y-38605714D01*
X77887486Y-38605714D02*
X77792248Y-38653333D01*
X78982724Y-38367619D02*
X79077962Y-38367619D01*
X79077962Y-38367619D02*
X79173200Y-38415238D01*
X79173200Y-38415238D02*
X79220819Y-38462857D01*
X79220819Y-38462857D02*
X79268438Y-38558095D01*
X79268438Y-38558095D02*
X79316057Y-38748571D01*
X79316057Y-38748571D02*
X79316057Y-38986666D01*
X79316057Y-38986666D02*
X79268438Y-39177142D01*
X79268438Y-39177142D02*
X79220819Y-39272380D01*
X79220819Y-39272380D02*
X79173200Y-39320000D01*
X79173200Y-39320000D02*
X79077962Y-39367619D01*
X79077962Y-39367619D02*
X78982724Y-39367619D01*
X78982724Y-39367619D02*
X78887486Y-39320000D01*
X78887486Y-39320000D02*
X78839867Y-39272380D01*
X78839867Y-39272380D02*
X78792248Y-39177142D01*
X78792248Y-39177142D02*
X78744629Y-38986666D01*
X78744629Y-38986666D02*
X78744629Y-38748571D01*
X78744629Y-38748571D02*
X78792248Y-38558095D01*
X78792248Y-38558095D02*
X78839867Y-38462857D01*
X78839867Y-38462857D02*
X78887486Y-38415238D01*
X78887486Y-38415238D02*
X78982724Y-38367619D01*
X130545105Y-42025219D02*
X131116533Y-42025219D01*
X130830819Y-43025219D02*
X130830819Y-42025219D01*
X131449867Y-43025219D02*
X131449867Y-42025219D01*
X131449867Y-42025219D02*
X131830819Y-42025219D01*
X131830819Y-42025219D02*
X131926057Y-42072838D01*
X131926057Y-42072838D02*
X131973676Y-42120457D01*
X131973676Y-42120457D02*
X132021295Y-42215695D01*
X132021295Y-42215695D02*
X132021295Y-42358552D01*
X132021295Y-42358552D02*
X131973676Y-42453790D01*
X131973676Y-42453790D02*
X131926057Y-42501409D01*
X131926057Y-42501409D02*
X131830819Y-42549028D01*
X131830819Y-42549028D02*
X131449867Y-42549028D01*
X132973676Y-43025219D02*
X132402248Y-43025219D01*
X132687962Y-43025219D02*
X132687962Y-42025219D01*
X132687962Y-42025219D02*
X132592724Y-42168076D01*
X132592724Y-42168076D02*
X132497486Y-42263314D01*
X132497486Y-42263314D02*
X132402248Y-42310933D01*
X133926057Y-43025219D02*
X133354629Y-43025219D01*
X133640343Y-43025219D02*
X133640343Y-42025219D01*
X133640343Y-42025219D02*
X133545105Y-42168076D01*
X133545105Y-42168076D02*
X133449867Y-42263314D01*
X133449867Y-42263314D02*
X133354629Y-42310933D01*
X78499619Y-47966094D02*
X78499619Y-47394666D01*
X79499619Y-47680380D02*
X78499619Y-47680380D01*
X79499619Y-47061332D02*
X78499619Y-47061332D01*
X78499619Y-47061332D02*
X78499619Y-46680380D01*
X78499619Y-46680380D02*
X78547238Y-46585142D01*
X78547238Y-46585142D02*
X78594857Y-46537523D01*
X78594857Y-46537523D02*
X78690095Y-46489904D01*
X78690095Y-46489904D02*
X78832952Y-46489904D01*
X78832952Y-46489904D02*
X78928190Y-46537523D01*
X78928190Y-46537523D02*
X78975809Y-46585142D01*
X78975809Y-46585142D02*
X79023428Y-46680380D01*
X79023428Y-46680380D02*
X79023428Y-47061332D01*
X79499619Y-45537523D02*
X79499619Y-46108951D01*
X79499619Y-45823237D02*
X78499619Y-45823237D01*
X78499619Y-45823237D02*
X78642476Y-45918475D01*
X78642476Y-45918475D02*
X78737714Y-46013713D01*
X78737714Y-46013713D02*
X78785333Y-46108951D01*
X78594857Y-45156570D02*
X78547238Y-45108951D01*
X78547238Y-45108951D02*
X78499619Y-45013713D01*
X78499619Y-45013713D02*
X78499619Y-44775618D01*
X78499619Y-44775618D02*
X78547238Y-44680380D01*
X78547238Y-44680380D02*
X78594857Y-44632761D01*
X78594857Y-44632761D02*
X78690095Y-44585142D01*
X78690095Y-44585142D02*
X78785333Y-44585142D01*
X78785333Y-44585142D02*
X78928190Y-44632761D01*
X78928190Y-44632761D02*
X79499619Y-45204189D01*
X79499619Y-45204189D02*
X79499619Y-44585142D01*
X135474857Y-44951638D02*
X135427238Y-45046876D01*
X135427238Y-45046876D02*
X135332000Y-45142114D01*
X135332000Y-45142114D02*
X135189142Y-45284971D01*
X135189142Y-45284971D02*
X135141523Y-45380209D01*
X135141523Y-45380209D02*
X135141523Y-45475447D01*
X135379619Y-45427828D02*
X135332000Y-45523066D01*
X135332000Y-45523066D02*
X135236761Y-45618304D01*
X135236761Y-45618304D02*
X135046285Y-45665923D01*
X135046285Y-45665923D02*
X134712952Y-45665923D01*
X134712952Y-45665923D02*
X134522476Y-45618304D01*
X134522476Y-45618304D02*
X134427238Y-45523066D01*
X134427238Y-45523066D02*
X134379619Y-45427828D01*
X134379619Y-45427828D02*
X134379619Y-45237352D01*
X134379619Y-45237352D02*
X134427238Y-45142114D01*
X134427238Y-45142114D02*
X134522476Y-45046876D01*
X134522476Y-45046876D02*
X134712952Y-44999257D01*
X134712952Y-44999257D02*
X135046285Y-44999257D01*
X135046285Y-44999257D02*
X135236761Y-45046876D01*
X135236761Y-45046876D02*
X135332000Y-45142114D01*
X135332000Y-45142114D02*
X135379619Y-45237352D01*
X135379619Y-45237352D02*
X135379619Y-45427828D01*
X135379619Y-44046876D02*
X135379619Y-44618304D01*
X135379619Y-44332590D02*
X134379619Y-44332590D01*
X134379619Y-44332590D02*
X134522476Y-44427828D01*
X134522476Y-44427828D02*
X134617714Y-44523066D01*
X134617714Y-44523066D02*
X134665333Y-44618304D01*
D11*
%TO.C,C1*%
X98150000Y-47956948D02*
X98150000Y-49379452D01*
X99970000Y-47956948D02*
X99970000Y-49379452D01*
%TO.C,C2*%
X92454820Y-46429200D02*
X92735980Y-46429200D01*
X92454820Y-47449200D02*
X92735980Y-47449200D01*
%TO.C,C3*%
X96088780Y-46429200D02*
X95807620Y-46429200D01*
X96088780Y-47449200D02*
X95807620Y-47449200D01*
%TO.C,C4*%
X94740000Y-49325620D02*
X94740000Y-49606780D01*
X95760000Y-49325620D02*
X95760000Y-49606780D01*
%TO.C,C5*%
X96416400Y-49351620D02*
X96416400Y-49632780D01*
X97436400Y-49351620D02*
X97436400Y-49632780D01*
%TO.C,C6*%
X93063600Y-49300820D02*
X93063600Y-49581980D01*
X94083600Y-49300820D02*
X94083600Y-49581980D01*
%TO.C,C7*%
X91285600Y-49300820D02*
X91285600Y-49581980D01*
X92305600Y-49300820D02*
X92305600Y-49581980D01*
%TO.C,C8*%
X94098164Y-45258400D02*
X94313836Y-45258400D01*
X94098164Y-45978400D02*
X94313836Y-45978400D01*
%TO.C,C9*%
X94735764Y-40584800D02*
X94951436Y-40584800D01*
X94735764Y-41304800D02*
X94951436Y-41304800D01*
%TO.C,C12*%
X104925400Y-40145580D02*
X104925400Y-39864420D01*
X105945400Y-40145580D02*
X105945400Y-39864420D01*
%TO.C,C13*%
X106512900Y-40132580D02*
X106512900Y-39851420D01*
X107532900Y-40132580D02*
X107532900Y-39851420D01*
%TO.C,C14*%
X139088400Y-40132580D02*
X139088400Y-39851420D01*
X140108400Y-40132580D02*
X140108400Y-39851420D01*
%TO.C,C15*%
X140739400Y-40132580D02*
X140739400Y-39851420D01*
X141759400Y-40132580D02*
X141759400Y-39851420D01*
%TO.C,C16*%
X71422800Y-40157980D02*
X71422800Y-39876820D01*
X72442800Y-40157980D02*
X72442800Y-39876820D01*
%TO.C,C17*%
X69848000Y-40157980D02*
X69848000Y-39876820D01*
X70868000Y-40157980D02*
X70868000Y-39876820D01*
%TO.C,C18*%
X130005148Y-50014200D02*
X130527652Y-50014200D01*
X130005148Y-51484200D02*
X130527652Y-51484200D01*
%TO.C,C19*%
X115343000Y-45407252D02*
X115343000Y-44884748D01*
X116813000Y-45407252D02*
X116813000Y-44884748D01*
%TO.C,D1*%
X91732100Y-52703400D02*
X94017100Y-52703400D01*
X94017100Y-51233400D02*
X91732100Y-51233400D01*
X94017100Y-52703400D02*
X94017100Y-51233400D01*
%TO.C,FB1*%
X128726000Y-47647922D02*
X128726000Y-46848678D01*
X129846000Y-47647922D02*
X129846000Y-46848678D01*
%TO.C,J1*%
X103926000Y-47158000D02*
X103926000Y-47958000D01*
X104126000Y-47358000D02*
X104126000Y-51078000D01*
X104126000Y-48268000D02*
X104526000Y-48268000D01*
X104126000Y-49268000D02*
X104526000Y-49268000D01*
X104126000Y-51078000D02*
X111846000Y-51078000D01*
X104526000Y-47758000D02*
X104526000Y-50678000D01*
X104526000Y-50678000D02*
X111446000Y-50678000D01*
X104726000Y-47158000D02*
X103926000Y-47158000D01*
X105136000Y-47158000D02*
X105136000Y-47358000D01*
X105436000Y-47158000D02*
X105136000Y-47158000D01*
X105436000Y-47258000D02*
X105136000Y-47258000D01*
X105436000Y-47358000D02*
X105436000Y-47158000D01*
X106386000Y-50278000D02*
X106586000Y-50278000D01*
X106386000Y-50678000D02*
X106386000Y-50278000D01*
X106486000Y-50678000D02*
X106486000Y-50278000D01*
X106586000Y-50278000D02*
X106586000Y-50678000D01*
X107886000Y-50278000D02*
X108086000Y-50278000D01*
X107886000Y-50678000D02*
X107886000Y-50278000D01*
X107986000Y-50678000D02*
X107986000Y-50278000D01*
X108086000Y-50278000D02*
X108086000Y-50678000D01*
X109386000Y-50278000D02*
X109586000Y-50278000D01*
X109386000Y-50678000D02*
X109386000Y-50278000D01*
X109486000Y-50678000D02*
X109486000Y-50278000D01*
X109586000Y-50278000D02*
X109586000Y-50678000D01*
X111446000Y-47758000D02*
X104526000Y-47758000D01*
X111446000Y-50678000D02*
X111446000Y-47758000D01*
X111846000Y-47358000D02*
X104126000Y-47358000D01*
X111846000Y-48268000D02*
X111446000Y-48268000D01*
X111846000Y-49268000D02*
X111446000Y-49268000D01*
X111846000Y-51078000D02*
X111846000Y-47358000D01*
%TO.C,J2*%
X67157600Y-46863000D02*
X67792600Y-46863000D01*
X67157600Y-47498000D02*
X67157600Y-46863000D01*
%TO.C,R1*%
X91161600Y-44195241D02*
X91161600Y-43887959D01*
X91921600Y-44195241D02*
X91921600Y-43887959D01*
%TO.C,R2*%
X96574041Y-51588400D02*
X96266759Y-51588400D01*
X96574041Y-52348400D02*
X96266759Y-52348400D01*
%TO.C,U1*%
X81683200Y-42364000D02*
X81683200Y-42814000D01*
X81683200Y-49584000D02*
X81683200Y-49134000D01*
X82133200Y-42364000D02*
X81683200Y-42364000D01*
X82133200Y-49584000D02*
X81683200Y-49584000D01*
X88453200Y-42364000D02*
X88903200Y-42364000D01*
X88453200Y-49584000D02*
X88903200Y-49584000D01*
X88903200Y-42364000D02*
X88903200Y-42814000D01*
X88903200Y-49134000D02*
X90193200Y-49134000D01*
X88903200Y-49584000D02*
X88903200Y-49134000D01*
%TO.C,U3*%
X102214500Y-41889500D02*
X102214500Y-41889500D01*
X102214500Y-43589500D02*
X102214500Y-43589500D01*
X102214500Y-44089500D02*
X102214500Y-43589500D01*
X102714500Y-41889500D02*
X102214500Y-41889500D01*
X102714500Y-44089500D02*
X102214500Y-44089500D01*
X103914500Y-41889500D02*
X104414500Y-41889500D01*
X103914500Y-44089500D02*
X103914500Y-44089500D01*
X104414500Y-41889500D02*
X104414500Y-42389500D01*
X104414500Y-42389500D02*
X104414500Y-42389500D01*
X104414500Y-43589500D02*
X104414500Y-44089500D01*
X104414500Y-44089500D02*
X103914500Y-44089500D01*
%TO.C,U4*%
X137203000Y-41889500D02*
X137203000Y-41889500D01*
X137203000Y-43589500D02*
X137203000Y-43589500D01*
X137203000Y-44089500D02*
X137203000Y-43589500D01*
X137703000Y-41889500D02*
X137203000Y-41889500D01*
X137703000Y-44089500D02*
X137203000Y-44089500D01*
X138903000Y-41889500D02*
X139403000Y-41889500D01*
X138903000Y-44089500D02*
X138903000Y-44089500D01*
X139403000Y-41889500D02*
X139403000Y-42389500D01*
X139403000Y-42389500D02*
X139403000Y-42389500D01*
X139403000Y-43589500D02*
X139403000Y-44089500D01*
X139403000Y-44089500D02*
X138903000Y-44089500D01*
%TO.C,U5*%
X67162500Y-41889500D02*
X67162500Y-41889500D01*
X67162500Y-43589500D02*
X67162500Y-43589500D01*
X67162500Y-44089500D02*
X67162500Y-43589500D01*
X67662500Y-41889500D02*
X67162500Y-41889500D01*
X67662500Y-44089500D02*
X67162500Y-44089500D01*
X68862500Y-41889500D02*
X69362500Y-41889500D01*
X68862500Y-44089500D02*
X68862500Y-44089500D01*
X69362500Y-41889500D02*
X69362500Y-42389500D01*
X69362500Y-42389500D02*
X69362500Y-42389500D01*
X69362500Y-43589500D02*
X69362500Y-44089500D01*
X69362500Y-44089500D02*
X68862500Y-44089500D01*
%TO.C,U6*%
X120897600Y-45588400D02*
X122157600Y-45588400D01*
X120897600Y-51598400D02*
X120897600Y-45588400D01*
X127717600Y-45588400D02*
X126457600Y-45588400D01*
X127717600Y-49348400D02*
X127717600Y-45588400D01*
%TO.C,Y1*%
X92335600Y-41631600D02*
X92335600Y-44931600D01*
X92335600Y-44931600D02*
X96335600Y-44931600D01*
%TO.C,TP1*%
X131865600Y-39116000D02*
G75*
G02*
X130465600Y-39116000I-700000J0D01*
G01*
X130465600Y-39116000D02*
G75*
G02*
X131865600Y-39116000I700000J0D01*
G01*
%TO.C,TP2*%
X126480800Y-39166800D02*
G75*
G02*
X125080800Y-39166800I-700000J0D01*
G01*
X125080800Y-39166800D02*
G75*
G02*
X126480800Y-39166800I700000J0D01*
G01*
%TO.C,TP3*%
X129224000Y-39116000D02*
G75*
G02*
X127824000Y-39116000I-700000J0D01*
G01*
X127824000Y-39116000D02*
G75*
G02*
X129224000Y-39116000I700000J0D01*
G01*
%TO.C,TP4*%
X85332800Y-39319200D02*
G75*
G02*
X83932800Y-39319200I-700000J0D01*
G01*
X83932800Y-39319200D02*
G75*
G02*
X85332800Y-39319200I700000J0D01*
G01*
%TO.C,TP5*%
X120283200Y-42113200D02*
G75*
G02*
X118883200Y-42113200I-700000J0D01*
G01*
X118883200Y-42113200D02*
G75*
G02*
X120283200Y-42113200I700000J0D01*
G01*
%TO.C,TP6*%
X68314800Y-39928800D02*
G75*
G02*
X66914800Y-39928800I-700000J0D01*
G01*
X66914800Y-39928800D02*
G75*
G02*
X68314800Y-39928800I700000J0D01*
G01*
%TO.C,TP7*%
X83250000Y-39319200D02*
G75*
G02*
X81850000Y-39319200I-700000J0D01*
G01*
X81850000Y-39319200D02*
G75*
G02*
X83250000Y-39319200I700000J0D01*
G01*
%TO.C,TP8*%
X142584400Y-43891200D02*
G75*
G02*
X141184400Y-43891200I-700000J0D01*
G01*
X141184400Y-43891200D02*
G75*
G02*
X142584400Y-43891200I700000J0D01*
G01*
%TO.C,TP9*%
X77712800Y-44297600D02*
G75*
G02*
X76312800Y-44297600I-700000J0D01*
G01*
X76312800Y-44297600D02*
G75*
G02*
X77712800Y-44297600I700000J0D01*
G01*
%TO.C,TP10*%
X81167200Y-39319200D02*
G75*
G02*
X79767200Y-39319200I-700000J0D01*
G01*
X79767200Y-39319200D02*
G75*
G02*
X81167200Y-39319200I700000J0D01*
G01*
%TO.C,TP11*%
X132830800Y-43891200D02*
G75*
G02*
X131430800Y-43891200I-700000J0D01*
G01*
X131430800Y-43891200D02*
G75*
G02*
X132830800Y-43891200I700000J0D01*
G01*
%TO.C,TP12*%
X77916000Y-46329600D02*
G75*
G02*
X76516000Y-46329600I-700000J0D01*
G01*
X76516000Y-46329600D02*
G75*
G02*
X77916000Y-46329600I700000J0D01*
G01*
%TO.C,Q1*%
X130855600Y-48020000D02*
X130855600Y-46560000D01*
X130855600Y-48020000D02*
X131785600Y-48020000D01*
X134015600Y-48020000D02*
X133085600Y-48020000D01*
X134015600Y-48020000D02*
X134015600Y-45860000D01*
%TD*%
M02*
