G04 #@! TF.GenerationSoftware,KiCad,Pcbnew,(5.1.9)-1*
G04 #@! TF.CreationDate,2021-01-26T16:41:02+02:00*
G04 #@! TF.ProjectId,jantteri-main,6a616e74-7465-4726-992d-6d61696e2e6b,rev?*
G04 #@! TF.SameCoordinates,Original*
G04 #@! TF.FileFunction,Soldermask,Bot*
G04 #@! TF.FilePolarity,Negative*
%FSLAX46Y46*%
G04 Gerber Fmt 4.6, Leading zero omitted, Abs format (unit mm)*
G04 Created by KiCad (PCBNEW (5.1.9)-1) date 2021-01-26 16:41:02*
%MOMM*%
%LPD*%
G01*
G04 APERTURE LIST*
%ADD10R,5.000000X5.000000*%
%ADD11R,0.900000X2.000000*%
%ADD12R,2.000000X0.900000*%
%ADD13O,1.700000X1.700000*%
%ADD14R,1.700000X1.700000*%
%ADD15O,1.030000X1.730000*%
%ADD16R,2.000000X1.000000*%
G04 APERTURE END LIST*
D10*
X202304000Y-75311000D03*
D11*
X209804000Y-82811000D03*
X208534000Y-82811000D03*
X207264000Y-82811000D03*
X205994000Y-82811000D03*
X204724000Y-82811000D03*
X203454000Y-82811000D03*
X202184000Y-82811000D03*
X200914000Y-82811000D03*
X199644000Y-82811000D03*
X198374000Y-82811000D03*
X197104000Y-82811000D03*
X195834000Y-82811000D03*
X194564000Y-82811000D03*
X193294000Y-82811000D03*
D12*
X192294000Y-80026000D03*
X192294000Y-78756000D03*
X192294000Y-77486000D03*
X192294000Y-76216000D03*
X192294000Y-74946000D03*
X192294000Y-73676000D03*
X192294000Y-72406000D03*
X192294000Y-71136000D03*
X192294000Y-69866000D03*
X192294000Y-68596000D03*
D11*
X193294000Y-65811000D03*
X194564000Y-65811000D03*
X195834000Y-65811000D03*
X197104000Y-65811000D03*
X198374000Y-65811000D03*
X199644000Y-65811000D03*
X200914000Y-65811000D03*
X202184000Y-65811000D03*
X203454000Y-65811000D03*
X204724000Y-65811000D03*
X205994000Y-65811000D03*
X207264000Y-65811000D03*
X208534000Y-65811000D03*
X209804000Y-65811000D03*
D13*
X208407000Y-61595000D03*
D14*
X208407000Y-59055000D03*
D13*
X154305000Y-56515000D03*
D14*
X154305000Y-53975000D03*
X202311000Y-58928000D03*
D13*
X202311000Y-61468000D03*
D14*
X175260000Y-65532000D03*
D13*
X172720000Y-65532000D03*
D14*
X172466000Y-58293000D03*
D13*
X172466000Y-55753000D03*
X172466000Y-53213000D03*
D14*
X142113000Y-56515000D03*
D13*
X142113000Y-53975000D03*
G36*
G01*
X188348000Y-53486997D02*
X188348000Y-54717003D01*
G75*
G02*
X188098003Y-54967000I-249997J0D01*
G01*
X187567997Y-54967000D01*
G75*
G02*
X187318000Y-54717003I0J249997D01*
G01*
X187318000Y-53486997D01*
G75*
G02*
X187567997Y-53237000I249997J0D01*
G01*
X188098003Y-53237000D01*
G75*
G02*
X188348000Y-53486997I0J-249997D01*
G01*
G37*
D15*
X186333000Y-54102000D03*
X184833000Y-54102000D03*
X183333000Y-54102000D03*
X181833000Y-54102000D03*
X180333000Y-54102000D03*
G36*
G01*
X172600000Y-81680997D02*
X172600000Y-82911003D01*
G75*
G02*
X172350003Y-83161000I-249997J0D01*
G01*
X171819997Y-83161000D01*
G75*
G02*
X171570000Y-82911003I0J249997D01*
G01*
X171570000Y-81680997D01*
G75*
G02*
X171819997Y-81431000I249997J0D01*
G01*
X172350003Y-81431000D01*
G75*
G02*
X172600000Y-81680997I0J-249997D01*
G01*
G37*
X170585000Y-82296000D03*
X169085000Y-82296000D03*
X167585000Y-82296000D03*
D14*
X142240000Y-82550000D03*
D16*
X161416000Y-69200000D03*
X161416000Y-71200000D03*
X161416000Y-73200000D03*
X161416000Y-75200000D03*
X161416000Y-77200000D03*
X161416000Y-79200000D03*
X161416000Y-81200000D03*
X161416000Y-83200000D03*
X145416000Y-83200000D03*
X145416000Y-81200000D03*
X145416000Y-79200000D03*
X145416000Y-77200000D03*
X145416000Y-75200000D03*
X145416000Y-73200000D03*
X145416000Y-71200000D03*
X145416000Y-69200000D03*
M02*
