G04 #@! TF.GenerationSoftware,KiCad,Pcbnew,(5.1.9)-1*
G04 #@! TF.CreationDate,2021-01-26T16:41:02+02:00*
G04 #@! TF.ProjectId,jantteri-main,6a616e74-7465-4726-992d-6d61696e2e6b,rev?*
G04 #@! TF.SameCoordinates,Original*
G04 #@! TF.FileFunction,Legend,Bot*
G04 #@! TF.FilePolarity,Positive*
%FSLAX46Y46*%
G04 Gerber Fmt 4.6, Leading zero omitted, Abs format (unit mm)*
G04 Created by KiCad (PCBNEW (5.1.9)-1) date 2021-01-26 16:41:02*
%MOMM*%
%LPD*%
G01*
G04 APERTURE LIST*
%ADD10C,0.120000*%
%ADD11C,0.150000*%
G04 APERTURE END LIST*
D10*
X192449000Y-83431000D02*
X191669000Y-83431000D01*
X191669000Y-83431000D02*
X191669000Y-82431000D01*
X192449000Y-65191000D02*
X191669000Y-65191000D01*
X191669000Y-65191000D02*
X191669000Y-66191000D01*
X217414000Y-83431000D02*
X217414000Y-65191000D01*
X217414000Y-65191000D02*
X210994000Y-65191000D01*
X217414000Y-83431000D02*
X210994000Y-83431000D01*
X210994000Y-83431000D02*
X210994000Y-83811000D01*
X161516000Y-68100000D02*
X145316000Y-68100000D01*
X145316000Y-68100000D02*
X145316000Y-68500000D01*
X161516000Y-83900000D02*
X161516000Y-84300000D01*
X161516000Y-84300000D02*
X145316000Y-84300000D01*
X145316000Y-84300000D02*
X145316000Y-83900000D01*
X161516000Y-68100000D02*
X161516000Y-68450000D01*
X161516000Y-68450000D02*
X162416000Y-68450000D01*
D11*
X193880904Y-84373380D02*
X193880904Y-85182904D01*
X193833285Y-85278142D01*
X193785666Y-85325761D01*
X193690428Y-85373380D01*
X193499952Y-85373380D01*
X193404714Y-85325761D01*
X193357095Y-85278142D01*
X193309476Y-85182904D01*
X193309476Y-84373380D01*
X192928523Y-84373380D02*
X192309476Y-84373380D01*
X192642809Y-84754333D01*
X192499952Y-84754333D01*
X192404714Y-84801952D01*
X192357095Y-84849571D01*
X192309476Y-84944809D01*
X192309476Y-85182904D01*
X192357095Y-85278142D01*
X192404714Y-85325761D01*
X192499952Y-85373380D01*
X192785666Y-85373380D01*
X192880904Y-85325761D01*
X192928523Y-85278142D01*
X154177904Y-66452380D02*
X154177904Y-67261904D01*
X154130285Y-67357142D01*
X154082666Y-67404761D01*
X153987428Y-67452380D01*
X153796952Y-67452380D01*
X153701714Y-67404761D01*
X153654095Y-67357142D01*
X153606476Y-67261904D01*
X153606476Y-66452380D01*
X152701714Y-66785714D02*
X152701714Y-67452380D01*
X152939809Y-66404761D02*
X153177904Y-67119047D01*
X152558857Y-67119047D01*
M02*
