M48
; DRILL file {KiCad (5.1.9)-1} date 01/26/21 16:41:00
; FORMAT={-:-/ absolute / inch / decimal}
; #@! TF.CreationDate,2021-01-26T16:41:00+02:00
; #@! TF.GenerationSoftware,Kicad,Pcbnew,(5.1.9)-1
; #@! TF.FileFunction,Plated,1,2,PTH
FMAT,2
INCH
T1C0.0157
T2C0.0287
T3C0.0394
%
G90
G05
T1
X5.58Y-2.96
X5.6Y-2.57
X5.68Y-2.07
X5.68Y-2.35
X5.83Y-2.07
X5.86Y-2.31
X5.88Y-2.07
X5.96Y-2.47
X5.99Y-2.07
X6.08Y-2.8
X6.16Y-3.11
X6.18Y-3.21
X6.36Y-2.48
X6.445Y-2.805
X6.465Y-2.88
X6.525Y-2.81
X6.66Y-2.39
X6.79Y-3.16
X6.88Y-3.21
X6.95Y-2.66
X6.975Y-2.39
X7.0077Y-3.0377
X7.02Y-2.76
X7.02Y-2.84
X7.11Y-3.03
X7.11Y-3.205
X7.12Y-3.28
X7.15Y-2.75
X7.15Y-3.07
X7.16Y-2.84
X7.17Y-3.24
X7.22Y-2.99
X7.2298Y-3.0402
X7.29Y-3.07
X7.32Y-3.2715
X7.38Y-2.27
X7.44Y-2.95
X7.49Y-2.48
X7.51Y-2.39
X7.53Y-2.52
X7.71Y-2.69
X7.73Y-2.76
X7.86Y-2.29
X8.11Y-3.15
X8.26Y-3.15
X8.26Y-3.32
T2
X6.5978Y-3.24
X6.6569Y-3.24
X6.7159Y-3.24
X6.775Y-3.24
X7.0997Y-2.13
X7.1588Y-2.13
X7.2178Y-2.13
X7.2769Y-2.13
X7.3359Y-2.13
X7.395Y-2.13
T3
X5.595Y-2.125
X5.595Y-2.225
X5.6Y-3.25
X6.075Y-2.125
X6.075Y-2.225
X6.79Y-2.095
X6.79Y-2.195
X6.79Y-2.295
X6.8Y-2.58
X6.9Y-2.58
X7.965Y-2.32
X7.965Y-2.42
X8.205Y-2.325
X8.205Y-2.425
T0
M30
