G04 #@! TF.GenerationSoftware,KiCad,Pcbnew,(5.1.9)-1*
G04 #@! TF.CreationDate,2021-01-26T16:41:02+02:00*
G04 #@! TF.ProjectId,jantteri-main,6a616e74-7465-4726-992d-6d61696e2e6b,rev?*
G04 #@! TF.SameCoordinates,Original*
G04 #@! TF.FileFunction,Copper,L2,Bot*
G04 #@! TF.FilePolarity,Positive*
%FSLAX46Y46*%
G04 Gerber Fmt 4.6, Leading zero omitted, Abs format (unit mm)*
G04 Created by KiCad (PCBNEW (5.1.9)-1) date 2021-01-26 16:41:02*
%MOMM*%
%LPD*%
G01*
G04 APERTURE LIST*
G04 #@! TA.AperFunction,SMDPad,CuDef*
%ADD10R,5.000000X5.000000*%
G04 #@! TD*
G04 #@! TA.AperFunction,SMDPad,CuDef*
%ADD11R,0.900000X2.000000*%
G04 #@! TD*
G04 #@! TA.AperFunction,SMDPad,CuDef*
%ADD12R,2.000000X0.900000*%
G04 #@! TD*
G04 #@! TA.AperFunction,ComponentPad*
%ADD13O,1.700000X1.700000*%
G04 #@! TD*
G04 #@! TA.AperFunction,ComponentPad*
%ADD14R,1.700000X1.700000*%
G04 #@! TD*
G04 #@! TA.AperFunction,ComponentPad*
%ADD15O,1.030000X1.730000*%
G04 #@! TD*
G04 #@! TA.AperFunction,SMDPad,CuDef*
%ADD16R,2.000000X1.000000*%
G04 #@! TD*
G04 #@! TA.AperFunction,ViaPad*
%ADD17C,0.800000*%
G04 #@! TD*
G04 #@! TA.AperFunction,Conductor*
%ADD18C,0.250000*%
G04 #@! TD*
G04 #@! TA.AperFunction,Conductor*
%ADD19C,1.000000*%
G04 #@! TD*
G04 #@! TA.AperFunction,Conductor*
%ADD20C,0.750000*%
G04 #@! TD*
G04 #@! TA.AperFunction,Conductor*
%ADD21C,0.500000*%
G04 #@! TD*
G04 #@! TA.AperFunction,Conductor*
%ADD22C,0.254000*%
G04 #@! TD*
G04 #@! TA.AperFunction,Conductor*
%ADD23C,0.100000*%
G04 #@! TD*
G04 APERTURE END LIST*
D10*
X202304000Y-75311000D03*
D11*
X209804000Y-82811000D03*
X208534000Y-82811000D03*
X207264000Y-82811000D03*
X205994000Y-82811000D03*
X204724000Y-82811000D03*
X203454000Y-82811000D03*
X202184000Y-82811000D03*
X200914000Y-82811000D03*
X199644000Y-82811000D03*
X198374000Y-82811000D03*
X197104000Y-82811000D03*
X195834000Y-82811000D03*
X194564000Y-82811000D03*
X193294000Y-82811000D03*
D12*
X192294000Y-80026000D03*
X192294000Y-78756000D03*
X192294000Y-77486000D03*
X192294000Y-76216000D03*
X192294000Y-74946000D03*
X192294000Y-73676000D03*
X192294000Y-72406000D03*
X192294000Y-71136000D03*
X192294000Y-69866000D03*
X192294000Y-68596000D03*
D11*
X193294000Y-65811000D03*
X194564000Y-65811000D03*
X195834000Y-65811000D03*
X197104000Y-65811000D03*
X198374000Y-65811000D03*
X199644000Y-65811000D03*
X200914000Y-65811000D03*
X202184000Y-65811000D03*
X203454000Y-65811000D03*
X204724000Y-65811000D03*
X205994000Y-65811000D03*
X207264000Y-65811000D03*
X208534000Y-65811000D03*
X209804000Y-65811000D03*
D13*
X208407000Y-61595000D03*
D14*
X208407000Y-59055000D03*
D13*
X154305000Y-56515000D03*
D14*
X154305000Y-53975000D03*
X202311000Y-58928000D03*
D13*
X202311000Y-61468000D03*
D14*
X175260000Y-65532000D03*
D13*
X172720000Y-65532000D03*
D14*
X172466000Y-58293000D03*
D13*
X172466000Y-55753000D03*
X172466000Y-53213000D03*
D14*
X142113000Y-56515000D03*
D13*
X142113000Y-53975000D03*
G04 #@! TA.AperFunction,ComponentPad*
G36*
G01*
X188348000Y-53486997D02*
X188348000Y-54717003D01*
G75*
G02*
X188098003Y-54967000I-249997J0D01*
G01*
X187567997Y-54967000D01*
G75*
G02*
X187318000Y-54717003I0J249997D01*
G01*
X187318000Y-53486997D01*
G75*
G02*
X187567997Y-53237000I249997J0D01*
G01*
X188098003Y-53237000D01*
G75*
G02*
X188348000Y-53486997I0J-249997D01*
G01*
G37*
G04 #@! TD.AperFunction*
D15*
X186333000Y-54102000D03*
X184833000Y-54102000D03*
X183333000Y-54102000D03*
X181833000Y-54102000D03*
X180333000Y-54102000D03*
G04 #@! TA.AperFunction,ComponentPad*
G36*
G01*
X172600000Y-81680997D02*
X172600000Y-82911003D01*
G75*
G02*
X172350003Y-83161000I-249997J0D01*
G01*
X171819997Y-83161000D01*
G75*
G02*
X171570000Y-82911003I0J249997D01*
G01*
X171570000Y-81680997D01*
G75*
G02*
X171819997Y-81431000I249997J0D01*
G01*
X172350003Y-81431000D01*
G75*
G02*
X172600000Y-81680997I0J-249997D01*
G01*
G37*
G04 #@! TD.AperFunction*
X170585000Y-82296000D03*
X169085000Y-82296000D03*
X167585000Y-82296000D03*
D14*
X142240000Y-82550000D03*
D16*
X161416000Y-69200000D03*
X161416000Y-71200000D03*
X161416000Y-73200000D03*
X161416000Y-75200000D03*
X161416000Y-77200000D03*
X161416000Y-79200000D03*
X161416000Y-81200000D03*
X161416000Y-83200000D03*
X145416000Y-83200000D03*
X145416000Y-81200000D03*
X145416000Y-79200000D03*
X145416000Y-77200000D03*
X145416000Y-75200000D03*
X145416000Y-73200000D03*
X145416000Y-71200000D03*
X145416000Y-69200000D03*
D17*
X177165000Y-60706000D03*
X169163990Y-60706010D03*
X205994000Y-80010000D03*
X149352000Y-52578000D03*
X148844000Y-58674000D03*
X183637347Y-77220653D03*
X190754000Y-60706000D03*
X185166000Y-77978000D03*
X190246000Y-62992000D03*
X188976000Y-74930000D03*
X191262000Y-64008000D03*
X181610000Y-69850000D03*
X199644000Y-58166000D03*
X144272000Y-59690000D03*
X180594000Y-76962000D03*
X148082000Y-52578000D03*
X178308000Y-70104000D03*
X165735000Y-71374000D03*
X163703000Y-71247000D03*
X164211000Y-73152000D03*
X180594000Y-81407000D03*
X180848000Y-83312000D03*
X182118000Y-82296000D03*
X195834000Y-68326000D03*
X196342000Y-70104000D03*
X144272000Y-52578000D03*
X181610000Y-77978000D03*
X152146000Y-52578000D03*
X183388000Y-75946000D03*
X141732000Y-75184000D03*
X174752000Y-81534000D03*
X187452000Y-57658000D03*
X209804000Y-80010000D03*
X185928000Y-83095000D03*
X178308000Y-72136000D03*
X181864000Y-72136000D03*
X176530000Y-67564000D03*
X172466000Y-80264000D03*
X177996500Y-77158500D03*
X156464000Y-78994000D03*
X156972000Y-81534000D03*
X154432000Y-71120000D03*
X151384000Y-62738000D03*
X161544000Y-62992000D03*
X209804000Y-84328000D03*
X142240000Y-65278000D03*
D18*
X177164990Y-60706010D02*
X177165000Y-60706000D01*
X169163990Y-60706010D02*
X177164990Y-60706010D01*
X207264000Y-82811000D02*
X207264000Y-81788000D01*
X207264000Y-81788000D02*
X205994000Y-80518000D01*
X205994000Y-80518000D02*
X205994000Y-80010000D01*
X149352000Y-58166000D02*
X149352000Y-52578000D01*
X148844000Y-58674000D02*
X149352000Y-58166000D01*
X184113001Y-76744999D02*
X184113001Y-67346999D01*
X183637347Y-77220653D02*
X184113001Y-76744999D01*
X184113001Y-67346999D02*
X190754000Y-60706000D01*
X185166000Y-77978000D02*
X185166000Y-68072000D01*
X185166000Y-68072000D02*
X190246000Y-62992000D01*
X188976000Y-74930000D02*
X188976000Y-66802000D01*
X188976000Y-66802000D02*
X188976000Y-66040000D01*
X188976000Y-66040000D02*
X191008000Y-64008000D01*
X191008000Y-64008000D02*
X191262000Y-64008000D01*
X181610000Y-69850000D02*
X181610000Y-67056000D01*
X181610000Y-67056000D02*
X190500000Y-58166000D01*
X190500000Y-58166000D02*
X199644000Y-58166000D01*
X205994000Y-64008000D02*
X205994000Y-65811000D01*
X208407000Y-61595000D02*
X205994000Y-64008000D01*
X204724000Y-62738000D02*
X208407000Y-59055000D01*
X204724000Y-65811000D02*
X204724000Y-62738000D01*
X193294000Y-65045998D02*
X194077998Y-64262000D01*
X193294000Y-65811000D02*
X193294000Y-65045998D01*
X199517000Y-64262000D02*
X202311000Y-61468000D01*
X194077998Y-64262000D02*
X199517000Y-64262000D01*
D19*
X142890000Y-83200000D02*
X142240000Y-82550000D01*
X145416000Y-83200000D02*
X142890000Y-83200000D01*
D18*
X144272000Y-59690000D02*
X144272000Y-62992000D01*
X144272000Y-62992000D02*
X148590000Y-67310000D01*
X148590000Y-67310000D02*
X163576000Y-67310000D01*
X163576000Y-67310000D02*
X171704000Y-75438000D01*
X171704000Y-75438000D02*
X180340000Y-75438000D01*
X180340000Y-75438000D02*
X180594000Y-75692000D01*
X180594000Y-75692000D02*
X180594000Y-76962000D01*
X148082000Y-58985002D02*
X148082000Y-62230000D01*
X148082000Y-62230000D02*
X150114000Y-64262000D01*
X150114000Y-64262000D02*
X165354000Y-64262000D01*
X165354000Y-64262000D02*
X171196000Y-70104000D01*
X171196000Y-70104000D02*
X178308000Y-70104000D01*
X148082000Y-58985002D02*
X148082000Y-52578000D01*
X163236002Y-75200000D02*
X161416000Y-75200000D01*
X165735000Y-72701002D02*
X163236002Y-75200000D01*
X165735000Y-71374000D02*
X165735000Y-72701002D01*
X161463000Y-71247000D02*
X161416000Y-71200000D01*
X163703000Y-71247000D02*
X161463000Y-71247000D01*
X161464000Y-73152000D02*
X161416000Y-73200000D01*
X164211000Y-73152000D02*
X161464000Y-73152000D01*
X150876000Y-76200000D02*
X147876000Y-73200000D01*
X172720000Y-76200000D02*
X150876000Y-76200000D01*
X177927000Y-81407000D02*
X172720000Y-76200000D01*
X147876000Y-73200000D02*
X145416000Y-73200000D01*
X180594000Y-81407000D02*
X177927000Y-81407000D01*
X173745002Y-79200000D02*
X161416000Y-79200000D01*
X177857002Y-83312000D02*
X173745002Y-79200000D01*
X180848000Y-83312000D02*
X177857002Y-83312000D01*
X182118000Y-82296000D02*
X177673000Y-82296000D01*
X172577000Y-77200000D02*
X161416000Y-77200000D01*
X177673000Y-82296000D02*
X172577000Y-77200000D01*
X195834000Y-68326000D02*
X195834000Y-65811000D01*
X197104000Y-69342000D02*
X196342000Y-70104000D01*
X197104000Y-65811000D02*
X197104000Y-69342000D01*
X181102000Y-74676000D02*
X181610000Y-75184000D01*
X148844000Y-66294000D02*
X164084000Y-66294000D01*
X145796000Y-63246000D02*
X148844000Y-66294000D01*
X164084000Y-66294000D02*
X172466000Y-74676000D01*
X145796000Y-54102000D02*
X145796000Y-63246000D01*
X181610000Y-75184000D02*
X181610000Y-77978000D01*
X172466000Y-74676000D02*
X181102000Y-74676000D01*
X144272000Y-52578000D02*
X145796000Y-54102000D01*
X147066000Y-62738000D02*
X149606000Y-65278000D01*
X149606000Y-65278000D02*
X164592000Y-65278000D01*
X164592000Y-65278000D02*
X172974000Y-73660000D01*
X172974000Y-73660000D02*
X181102000Y-73660000D01*
X181102000Y-73660000D02*
X183388000Y-75946000D01*
X147066000Y-52520998D02*
X147066000Y-62738000D01*
X147733999Y-51852999D02*
X147066000Y-52520998D01*
X151420999Y-51852999D02*
X147733999Y-51852999D01*
X152146000Y-52578000D02*
X151420999Y-51852999D01*
D20*
X145916000Y-75200000D02*
X145416000Y-75200000D01*
X155102001Y-84386001D02*
X145916000Y-75200000D01*
X208534000Y-84026002D02*
X208174001Y-84386001D01*
X208534000Y-82811000D02*
X208534000Y-84026002D01*
X145400000Y-75184000D02*
X145416000Y-75200000D01*
X141732000Y-75184000D02*
X145400000Y-75184000D01*
X174810001Y-84386001D02*
X155102001Y-84386001D01*
D18*
X186944000Y-84328000D02*
X186885999Y-84386001D01*
D20*
X208174001Y-84386001D02*
X186885999Y-84386001D01*
D21*
X184024000Y-57658000D02*
X187452000Y-57658000D01*
X181833000Y-55467000D02*
X184024000Y-57658000D01*
X181833000Y-54102000D02*
X181833000Y-55467000D01*
D18*
X208534000Y-82811000D02*
X208534000Y-81280000D01*
X208534000Y-81280000D02*
X209804000Y-80010000D01*
X185928000Y-84328000D02*
X185869999Y-84386001D01*
X185928000Y-83095000D02*
X185928000Y-84328000D01*
D20*
X185869999Y-84386001D02*
X174810001Y-84386001D01*
X186885999Y-84386001D02*
X185869999Y-84386001D01*
D21*
X174752000Y-84328000D02*
X174810001Y-84386001D01*
X174752000Y-81534000D02*
X174752000Y-84328000D01*
D22*
X210414001Y-63988049D02*
X210412036Y-64008000D01*
X210419875Y-64087590D01*
X210443090Y-64164121D01*
X210480790Y-64234653D01*
X210531526Y-64296474D01*
X210593347Y-64347210D01*
X210663879Y-64384910D01*
X210740410Y-64408125D01*
X210800059Y-64414000D01*
X210800060Y-64414000D01*
X210820000Y-64415964D01*
X210839941Y-64414000D01*
X217780000Y-64414000D01*
X217780001Y-84684000D01*
X208945146Y-84684000D01*
X209042306Y-84586840D01*
X209071159Y-84563161D01*
X209165632Y-84448045D01*
X209235832Y-84316710D01*
X209279060Y-84174204D01*
X209287820Y-84085262D01*
X209292733Y-84035380D01*
X209302322Y-84023696D01*
X209337701Y-83957508D01*
X209359487Y-83885689D01*
X209366843Y-83811000D01*
X209366843Y-81811000D01*
X209359487Y-81736311D01*
X209337701Y-81664492D01*
X209302322Y-81598304D01*
X209254711Y-81540289D01*
X209196696Y-81492678D01*
X209130508Y-81457299D01*
X209085842Y-81443750D01*
X209738592Y-80791000D01*
X209880922Y-80791000D01*
X210031809Y-80760987D01*
X210173942Y-80702113D01*
X210301859Y-80616642D01*
X210410642Y-80507859D01*
X210496113Y-80379942D01*
X210554987Y-80237809D01*
X210585000Y-80086922D01*
X210585000Y-79933078D01*
X210554987Y-79782191D01*
X210496113Y-79640058D01*
X210410642Y-79512141D01*
X210301859Y-79403358D01*
X210173942Y-79317887D01*
X210031809Y-79259013D01*
X209880922Y-79229000D01*
X209727078Y-79229000D01*
X209576191Y-79259013D01*
X209434058Y-79317887D01*
X209306141Y-79403358D01*
X209197358Y-79512141D01*
X209111887Y-79640058D01*
X209053013Y-79782191D01*
X209023000Y-79933078D01*
X209023000Y-80075408D01*
X208193780Y-80904629D01*
X208174474Y-80920473D01*
X208111242Y-80997521D01*
X208095780Y-81026448D01*
X208064255Y-81085426D01*
X208035322Y-81180808D01*
X208025553Y-81280000D01*
X208028001Y-81304856D01*
X208028001Y-81433672D01*
X208009311Y-81435513D01*
X207937492Y-81457299D01*
X207899000Y-81477874D01*
X207860508Y-81457299D01*
X207788689Y-81435513D01*
X207714000Y-81428157D01*
X207623142Y-81428157D01*
X207604220Y-81412628D01*
X206640219Y-80448628D01*
X206686113Y-80379942D01*
X206744987Y-80237809D01*
X206775000Y-80086922D01*
X206775000Y-79933078D01*
X206744987Y-79782191D01*
X206686113Y-79640058D01*
X206600642Y-79512141D01*
X206491859Y-79403358D01*
X206363942Y-79317887D01*
X206221809Y-79259013D01*
X206070922Y-79229000D01*
X205917078Y-79229000D01*
X205766191Y-79259013D01*
X205624058Y-79317887D01*
X205496141Y-79403358D01*
X205387358Y-79512141D01*
X205301887Y-79640058D01*
X205243013Y-79782191D01*
X205213000Y-79933078D01*
X205213000Y-80086922D01*
X205243013Y-80237809D01*
X205301887Y-80379942D01*
X205387358Y-80507859D01*
X205495172Y-80615673D01*
X205495322Y-80617192D01*
X205524255Y-80712574D01*
X205571241Y-80800479D01*
X205634473Y-80877527D01*
X205653785Y-80893376D01*
X206188566Y-81428157D01*
X205544000Y-81428157D01*
X205469311Y-81435513D01*
X205397492Y-81457299D01*
X205359000Y-81477874D01*
X205320508Y-81457299D01*
X205248689Y-81435513D01*
X205174000Y-81428157D01*
X204274000Y-81428157D01*
X204199311Y-81435513D01*
X204127492Y-81457299D01*
X204089000Y-81477874D01*
X204050508Y-81457299D01*
X203978689Y-81435513D01*
X203904000Y-81428157D01*
X203004000Y-81428157D01*
X202929311Y-81435513D01*
X202857492Y-81457299D01*
X202819000Y-81477874D01*
X202780508Y-81457299D01*
X202708689Y-81435513D01*
X202634000Y-81428157D01*
X201734000Y-81428157D01*
X201659311Y-81435513D01*
X201587492Y-81457299D01*
X201549000Y-81477874D01*
X201510508Y-81457299D01*
X201438689Y-81435513D01*
X201364000Y-81428157D01*
X200464000Y-81428157D01*
X200389311Y-81435513D01*
X200317492Y-81457299D01*
X200279000Y-81477874D01*
X200240508Y-81457299D01*
X200168689Y-81435513D01*
X200094000Y-81428157D01*
X199194000Y-81428157D01*
X199119311Y-81435513D01*
X199047492Y-81457299D01*
X199009000Y-81477874D01*
X198970508Y-81457299D01*
X198898689Y-81435513D01*
X198824000Y-81428157D01*
X197924000Y-81428157D01*
X197849311Y-81435513D01*
X197777492Y-81457299D01*
X197739000Y-81477874D01*
X197700508Y-81457299D01*
X197628689Y-81435513D01*
X197554000Y-81428157D01*
X196654000Y-81428157D01*
X196579311Y-81435513D01*
X196507492Y-81457299D01*
X196469000Y-81477874D01*
X196430508Y-81457299D01*
X196358689Y-81435513D01*
X196284000Y-81428157D01*
X195384000Y-81428157D01*
X195309311Y-81435513D01*
X195237492Y-81457299D01*
X195199000Y-81477874D01*
X195160508Y-81457299D01*
X195088689Y-81435513D01*
X195014000Y-81428157D01*
X194114000Y-81428157D01*
X194039311Y-81435513D01*
X193967492Y-81457299D01*
X193929000Y-81477874D01*
X193890508Y-81457299D01*
X193818689Y-81435513D01*
X193744000Y-81428157D01*
X192844000Y-81428157D01*
X192769311Y-81435513D01*
X192697492Y-81457299D01*
X192631304Y-81492678D01*
X192573289Y-81540289D01*
X192525678Y-81598304D01*
X192490299Y-81664492D01*
X192468513Y-81736311D01*
X192461157Y-81811000D01*
X192461157Y-83630001D01*
X186497500Y-83630001D01*
X186534642Y-83592859D01*
X186620113Y-83464942D01*
X186678987Y-83322809D01*
X186709000Y-83171922D01*
X186709000Y-83018078D01*
X186678987Y-82867191D01*
X186620113Y-82725058D01*
X186534642Y-82597141D01*
X186425859Y-82488358D01*
X186297942Y-82402887D01*
X186155809Y-82344013D01*
X186004922Y-82314000D01*
X185851078Y-82314000D01*
X185700191Y-82344013D01*
X185558058Y-82402887D01*
X185430141Y-82488358D01*
X185321358Y-82597141D01*
X185235887Y-82725058D01*
X185177013Y-82867191D01*
X185147000Y-83018078D01*
X185147000Y-83171922D01*
X185177013Y-83322809D01*
X185235887Y-83464942D01*
X185321358Y-83592859D01*
X185358500Y-83630001D01*
X181561628Y-83630001D01*
X181598987Y-83539809D01*
X181629000Y-83388922D01*
X181629000Y-83235078D01*
X181598987Y-83084191D01*
X181540113Y-82942058D01*
X181454642Y-82814141D01*
X181442501Y-82802000D01*
X181519499Y-82802000D01*
X181620141Y-82902642D01*
X181748058Y-82988113D01*
X181890191Y-83046987D01*
X182041078Y-83077000D01*
X182194922Y-83077000D01*
X182345809Y-83046987D01*
X182487942Y-82988113D01*
X182615859Y-82902642D01*
X182724642Y-82793859D01*
X182810113Y-82665942D01*
X182868987Y-82523809D01*
X182899000Y-82372922D01*
X182899000Y-82219078D01*
X182868987Y-82068191D01*
X182810113Y-81926058D01*
X182724642Y-81798141D01*
X182615859Y-81689358D01*
X182487942Y-81603887D01*
X182345809Y-81545013D01*
X182194922Y-81515000D01*
X182041078Y-81515000D01*
X181890191Y-81545013D01*
X181748058Y-81603887D01*
X181620141Y-81689358D01*
X181519499Y-81790000D01*
X181277388Y-81790000D01*
X181286113Y-81776942D01*
X181344987Y-81634809D01*
X181375000Y-81483922D01*
X181375000Y-81330078D01*
X181344987Y-81179191D01*
X181286113Y-81037058D01*
X181200642Y-80909141D01*
X181091859Y-80800358D01*
X180963942Y-80714887D01*
X180821809Y-80656013D01*
X180670922Y-80626000D01*
X180517078Y-80626000D01*
X180366191Y-80656013D01*
X180224058Y-80714887D01*
X180096141Y-80800358D01*
X179995499Y-80901000D01*
X178136592Y-80901000D01*
X173179591Y-75944000D01*
X180088000Y-75944000D01*
X180088001Y-76363498D01*
X179987358Y-76464141D01*
X179901887Y-76592058D01*
X179843013Y-76734191D01*
X179813000Y-76885078D01*
X179813000Y-77038922D01*
X179843013Y-77189809D01*
X179901887Y-77331942D01*
X179987358Y-77459859D01*
X180096141Y-77568642D01*
X180224058Y-77654113D01*
X180366191Y-77712987D01*
X180517078Y-77743000D01*
X180670922Y-77743000D01*
X180821809Y-77712987D01*
X180885321Y-77686679D01*
X180859013Y-77750191D01*
X180829000Y-77901078D01*
X180829000Y-78054922D01*
X180859013Y-78205809D01*
X180917887Y-78347942D01*
X181003358Y-78475859D01*
X181112141Y-78584642D01*
X181240058Y-78670113D01*
X181382191Y-78728987D01*
X181533078Y-78759000D01*
X181686922Y-78759000D01*
X181837809Y-78728987D01*
X181979942Y-78670113D01*
X182107859Y-78584642D01*
X182216642Y-78475859D01*
X182302113Y-78347942D01*
X182360987Y-78205809D01*
X182391000Y-78054922D01*
X182391000Y-77901078D01*
X182360987Y-77750191D01*
X182302113Y-77608058D01*
X182216642Y-77480141D01*
X182116000Y-77379499D01*
X182116000Y-75389592D01*
X182607000Y-75880592D01*
X182607000Y-76022922D01*
X182637013Y-76173809D01*
X182695887Y-76315942D01*
X182781358Y-76443859D01*
X182890141Y-76552642D01*
X183018058Y-76638113D01*
X183086879Y-76666620D01*
X183030705Y-76722794D01*
X182945234Y-76850711D01*
X182886360Y-76992844D01*
X182856347Y-77143731D01*
X182856347Y-77297575D01*
X182886360Y-77448462D01*
X182945234Y-77590595D01*
X183030705Y-77718512D01*
X183139488Y-77827295D01*
X183267405Y-77912766D01*
X183409538Y-77971640D01*
X183560425Y-78001653D01*
X183714269Y-78001653D01*
X183865156Y-77971640D01*
X184007289Y-77912766D01*
X184135206Y-77827295D01*
X184243989Y-77718512D01*
X184329460Y-77590595D01*
X184388334Y-77448462D01*
X184418347Y-77297575D01*
X184418347Y-77155245D01*
X184453221Y-77120371D01*
X184472528Y-77104526D01*
X184535760Y-77027478D01*
X184582746Y-76939574D01*
X184611679Y-76844192D01*
X184619001Y-76769853D01*
X184619001Y-76769846D01*
X184621448Y-76745000D01*
X184619001Y-76720154D01*
X184619001Y-67556590D01*
X189554598Y-62620993D01*
X189553887Y-62622058D01*
X189495013Y-62764191D01*
X189465000Y-62915078D01*
X189465000Y-63057408D01*
X184825781Y-67696628D01*
X184806474Y-67712473D01*
X184743242Y-67789521D01*
X184729089Y-67816000D01*
X184696255Y-67877426D01*
X184667322Y-67972808D01*
X184657553Y-68072000D01*
X184660001Y-68096856D01*
X184660000Y-77379499D01*
X184559358Y-77480141D01*
X184473887Y-77608058D01*
X184415013Y-77750191D01*
X184385000Y-77901078D01*
X184385000Y-78054922D01*
X184415013Y-78205809D01*
X184473887Y-78347942D01*
X184559358Y-78475859D01*
X184668141Y-78584642D01*
X184796058Y-78670113D01*
X184938191Y-78728987D01*
X185089078Y-78759000D01*
X185242922Y-78759000D01*
X185393809Y-78728987D01*
X185535942Y-78670113D01*
X185663859Y-78584642D01*
X185772642Y-78475859D01*
X185858113Y-78347942D01*
X185916987Y-78205809D01*
X185947000Y-78054922D01*
X185947000Y-77901078D01*
X185916987Y-77750191D01*
X185858113Y-77608058D01*
X185772642Y-77480141D01*
X185672000Y-77379499D01*
X185672000Y-68281591D01*
X190180592Y-63773000D01*
X190322922Y-63773000D01*
X190473809Y-63742987D01*
X190537321Y-63716679D01*
X190511013Y-63780191D01*
X190508728Y-63791680D01*
X188635781Y-65664628D01*
X188616474Y-65680473D01*
X188553242Y-65757521D01*
X188537942Y-65786146D01*
X188506255Y-65845426D01*
X188477322Y-65940808D01*
X188467553Y-66040000D01*
X188470001Y-66064856D01*
X188470000Y-66826853D01*
X188470001Y-66826863D01*
X188470000Y-74331499D01*
X188369358Y-74432141D01*
X188283887Y-74560058D01*
X188225013Y-74702191D01*
X188195000Y-74853078D01*
X188195000Y-75006922D01*
X188225013Y-75157809D01*
X188283887Y-75299942D01*
X188369358Y-75427859D01*
X188478141Y-75536642D01*
X188606058Y-75622113D01*
X188748191Y-75680987D01*
X188899078Y-75711000D01*
X189052922Y-75711000D01*
X189203809Y-75680987D01*
X189345942Y-75622113D01*
X189473859Y-75536642D01*
X189582642Y-75427859D01*
X189668113Y-75299942D01*
X189726987Y-75157809D01*
X189757000Y-75006922D01*
X189757000Y-74853078D01*
X189726987Y-74702191D01*
X189668113Y-74560058D01*
X189582642Y-74432141D01*
X189482000Y-74331499D01*
X189482000Y-68146000D01*
X190911157Y-68146000D01*
X190911157Y-69046000D01*
X190918513Y-69120689D01*
X190940299Y-69192508D01*
X190960874Y-69231000D01*
X190940299Y-69269492D01*
X190918513Y-69341311D01*
X190911157Y-69416000D01*
X190911157Y-70316000D01*
X190918513Y-70390689D01*
X190940299Y-70462508D01*
X190960874Y-70501000D01*
X190940299Y-70539492D01*
X190918513Y-70611311D01*
X190911157Y-70686000D01*
X190911157Y-71586000D01*
X190918513Y-71660689D01*
X190940299Y-71732508D01*
X190960874Y-71771000D01*
X190940299Y-71809492D01*
X190918513Y-71881311D01*
X190911157Y-71956000D01*
X190911157Y-72856000D01*
X190918513Y-72930689D01*
X190940299Y-73002508D01*
X190960874Y-73041000D01*
X190940299Y-73079492D01*
X190918513Y-73151311D01*
X190911157Y-73226000D01*
X190911157Y-74126000D01*
X190918513Y-74200689D01*
X190940299Y-74272508D01*
X190960874Y-74311000D01*
X190940299Y-74349492D01*
X190918513Y-74421311D01*
X190911157Y-74496000D01*
X190911157Y-75396000D01*
X190918513Y-75470689D01*
X190940299Y-75542508D01*
X190960874Y-75581000D01*
X190940299Y-75619492D01*
X190918513Y-75691311D01*
X190911157Y-75766000D01*
X190911157Y-76666000D01*
X190918513Y-76740689D01*
X190940299Y-76812508D01*
X190960874Y-76851000D01*
X190940299Y-76889492D01*
X190918513Y-76961311D01*
X190911157Y-77036000D01*
X190911157Y-77936000D01*
X190918513Y-78010689D01*
X190940299Y-78082508D01*
X190960874Y-78121000D01*
X190940299Y-78159492D01*
X190918513Y-78231311D01*
X190911157Y-78306000D01*
X190911157Y-79206000D01*
X190918513Y-79280689D01*
X190940299Y-79352508D01*
X190975678Y-79418696D01*
X191023289Y-79476711D01*
X191081304Y-79524322D01*
X191147492Y-79559701D01*
X191219311Y-79581487D01*
X191294000Y-79588843D01*
X193294000Y-79588843D01*
X193368689Y-79581487D01*
X193440508Y-79559701D01*
X193506696Y-79524322D01*
X193564711Y-79476711D01*
X193612322Y-79418696D01*
X193647701Y-79352508D01*
X193669487Y-79280689D01*
X193676843Y-79206000D01*
X193676843Y-78306000D01*
X193669487Y-78231311D01*
X193647701Y-78159492D01*
X193627126Y-78121000D01*
X193647701Y-78082508D01*
X193669487Y-78010689D01*
X193676843Y-77936000D01*
X193676843Y-77036000D01*
X193669487Y-76961311D01*
X193647701Y-76889492D01*
X193627126Y-76851000D01*
X193647701Y-76812508D01*
X193669487Y-76740689D01*
X193676843Y-76666000D01*
X193676843Y-75766000D01*
X193669487Y-75691311D01*
X193647701Y-75619492D01*
X193627126Y-75581000D01*
X193647701Y-75542508D01*
X193669487Y-75470689D01*
X193676843Y-75396000D01*
X193676843Y-74496000D01*
X193669487Y-74421311D01*
X193647701Y-74349492D01*
X193627126Y-74311000D01*
X193647701Y-74272508D01*
X193669487Y-74200689D01*
X193676843Y-74126000D01*
X193676843Y-73226000D01*
X193669487Y-73151311D01*
X193647701Y-73079492D01*
X193627126Y-73041000D01*
X193647701Y-73002508D01*
X193669487Y-72930689D01*
X193676843Y-72856000D01*
X193676843Y-71956000D01*
X193669487Y-71881311D01*
X193647701Y-71809492D01*
X193627126Y-71771000D01*
X193647701Y-71732508D01*
X193669487Y-71660689D01*
X193676843Y-71586000D01*
X193676843Y-70686000D01*
X193669487Y-70611311D01*
X193647701Y-70539492D01*
X193627126Y-70501000D01*
X193647701Y-70462508D01*
X193669487Y-70390689D01*
X193676843Y-70316000D01*
X193676843Y-69416000D01*
X193669487Y-69341311D01*
X193647701Y-69269492D01*
X193627126Y-69231000D01*
X193647701Y-69192508D01*
X193669487Y-69120689D01*
X193676843Y-69046000D01*
X193676843Y-68146000D01*
X193669487Y-68071311D01*
X193647701Y-67999492D01*
X193612322Y-67933304D01*
X193564711Y-67875289D01*
X193506696Y-67827678D01*
X193440508Y-67792299D01*
X193368689Y-67770513D01*
X193294000Y-67763157D01*
X191294000Y-67763157D01*
X191219311Y-67770513D01*
X191147492Y-67792299D01*
X191081304Y-67827678D01*
X191023289Y-67875289D01*
X190975678Y-67933304D01*
X190940299Y-67999492D01*
X190918513Y-68071311D01*
X190911157Y-68146000D01*
X189482000Y-68146000D01*
X189482000Y-66249591D01*
X190920591Y-64811000D01*
X192461157Y-64811000D01*
X192461157Y-66811000D01*
X192468513Y-66885689D01*
X192490299Y-66957508D01*
X192525678Y-67023696D01*
X192573289Y-67081711D01*
X192631304Y-67129322D01*
X192697492Y-67164701D01*
X192769311Y-67186487D01*
X192844000Y-67193843D01*
X193744000Y-67193843D01*
X193818689Y-67186487D01*
X193890508Y-67164701D01*
X193929000Y-67144126D01*
X193967492Y-67164701D01*
X194039311Y-67186487D01*
X194114000Y-67193843D01*
X195014000Y-67193843D01*
X195088689Y-67186487D01*
X195160508Y-67164701D01*
X195199000Y-67144126D01*
X195237492Y-67164701D01*
X195309311Y-67186487D01*
X195328000Y-67188328D01*
X195328000Y-67727499D01*
X195227358Y-67828141D01*
X195141887Y-67956058D01*
X195083013Y-68098191D01*
X195053000Y-68249078D01*
X195053000Y-68402922D01*
X195083013Y-68553809D01*
X195141887Y-68695942D01*
X195227358Y-68823859D01*
X195336141Y-68932642D01*
X195464058Y-69018113D01*
X195606191Y-69076987D01*
X195757078Y-69107000D01*
X195910922Y-69107000D01*
X196061809Y-69076987D01*
X196203942Y-69018113D01*
X196331859Y-68932642D01*
X196440642Y-68823859D01*
X196526113Y-68695942D01*
X196584987Y-68553809D01*
X196598001Y-68488384D01*
X196598001Y-69132407D01*
X196407408Y-69323000D01*
X196265078Y-69323000D01*
X196114191Y-69353013D01*
X195972058Y-69411887D01*
X195844141Y-69497358D01*
X195735358Y-69606141D01*
X195649887Y-69734058D01*
X195591013Y-69876191D01*
X195561000Y-70027078D01*
X195561000Y-70180922D01*
X195591013Y-70331809D01*
X195649887Y-70473942D01*
X195735358Y-70601859D01*
X195844141Y-70710642D01*
X195972058Y-70796113D01*
X196114191Y-70854987D01*
X196265078Y-70885000D01*
X196418922Y-70885000D01*
X196569809Y-70854987D01*
X196711942Y-70796113D01*
X196839859Y-70710642D01*
X196948642Y-70601859D01*
X197034113Y-70473942D01*
X197092987Y-70331809D01*
X197123000Y-70180922D01*
X197123000Y-70038592D01*
X197444220Y-69717372D01*
X197463527Y-69701527D01*
X197526759Y-69624479D01*
X197573745Y-69536575D01*
X197602678Y-69441193D01*
X197610000Y-69366854D01*
X197612448Y-69342000D01*
X197610000Y-69317146D01*
X197610000Y-67188328D01*
X197628689Y-67186487D01*
X197700508Y-67164701D01*
X197739000Y-67144126D01*
X197777492Y-67164701D01*
X197849311Y-67186487D01*
X197924000Y-67193843D01*
X198824000Y-67193843D01*
X198898689Y-67186487D01*
X198970508Y-67164701D01*
X199009000Y-67144126D01*
X199047492Y-67164701D01*
X199119311Y-67186487D01*
X199194000Y-67193843D01*
X200094000Y-67193843D01*
X200168689Y-67186487D01*
X200240508Y-67164701D01*
X200279000Y-67144126D01*
X200317492Y-67164701D01*
X200389311Y-67186487D01*
X200464000Y-67193843D01*
X201364000Y-67193843D01*
X201438689Y-67186487D01*
X201510508Y-67164701D01*
X201549000Y-67144126D01*
X201587492Y-67164701D01*
X201659311Y-67186487D01*
X201734000Y-67193843D01*
X202634000Y-67193843D01*
X202708689Y-67186487D01*
X202780508Y-67164701D01*
X202819000Y-67144126D01*
X202857492Y-67164701D01*
X202929311Y-67186487D01*
X203004000Y-67193843D01*
X203904000Y-67193843D01*
X203978689Y-67186487D01*
X204050508Y-67164701D01*
X204089000Y-67144126D01*
X204127492Y-67164701D01*
X204199311Y-67186487D01*
X204274000Y-67193843D01*
X205174000Y-67193843D01*
X205248689Y-67186487D01*
X205320508Y-67164701D01*
X205359000Y-67144126D01*
X205397492Y-67164701D01*
X205469311Y-67186487D01*
X205544000Y-67193843D01*
X206444000Y-67193843D01*
X206518689Y-67186487D01*
X206590508Y-67164701D01*
X206629000Y-67144126D01*
X206667492Y-67164701D01*
X206739311Y-67186487D01*
X206814000Y-67193843D01*
X207714000Y-67193843D01*
X207788689Y-67186487D01*
X207860508Y-67164701D01*
X207899000Y-67144126D01*
X207937492Y-67164701D01*
X208009311Y-67186487D01*
X208084000Y-67193843D01*
X208984000Y-67193843D01*
X209058689Y-67186487D01*
X209130508Y-67164701D01*
X209196696Y-67129322D01*
X209254711Y-67081711D01*
X209302322Y-67023696D01*
X209337701Y-66957508D01*
X209359487Y-66885689D01*
X209366843Y-66811000D01*
X209366843Y-64811000D01*
X209359487Y-64736311D01*
X209337701Y-64664492D01*
X209302322Y-64598304D01*
X209254711Y-64540289D01*
X209196696Y-64492678D01*
X209130508Y-64457299D01*
X209058689Y-64435513D01*
X208984000Y-64428157D01*
X208084000Y-64428157D01*
X208009311Y-64435513D01*
X207937492Y-64457299D01*
X207899000Y-64477874D01*
X207860508Y-64457299D01*
X207788689Y-64435513D01*
X207714000Y-64428157D01*
X206814000Y-64428157D01*
X206739311Y-64435513D01*
X206667492Y-64457299D01*
X206629000Y-64477874D01*
X206590508Y-64457299D01*
X206518689Y-64435513D01*
X206500000Y-64433672D01*
X206500000Y-64217591D01*
X207970833Y-62746758D01*
X208047931Y-62778693D01*
X208285757Y-62826000D01*
X208528243Y-62826000D01*
X208766069Y-62778693D01*
X208990097Y-62685898D01*
X209191717Y-62551180D01*
X209363180Y-62379717D01*
X209497898Y-62178097D01*
X209590693Y-61954069D01*
X209638000Y-61716243D01*
X209638000Y-61473757D01*
X209590693Y-61235931D01*
X209497898Y-61011903D01*
X209363180Y-60810283D01*
X209191717Y-60638820D01*
X208990097Y-60504102D01*
X208766069Y-60411307D01*
X208528243Y-60364000D01*
X208285757Y-60364000D01*
X208047931Y-60411307D01*
X207823903Y-60504102D01*
X207622283Y-60638820D01*
X207450820Y-60810283D01*
X207316102Y-61011903D01*
X207223307Y-61235931D01*
X207176000Y-61473757D01*
X207176000Y-61716243D01*
X207223307Y-61954069D01*
X207255242Y-62031167D01*
X205653785Y-63632624D01*
X205634473Y-63648473D01*
X205571241Y-63725521D01*
X205524255Y-63813426D01*
X205495322Y-63908808D01*
X205488000Y-63983147D01*
X205488000Y-63983154D01*
X205485553Y-64008000D01*
X205488000Y-64032847D01*
X205488000Y-64433672D01*
X205469311Y-64435513D01*
X205397492Y-64457299D01*
X205359000Y-64477874D01*
X205320508Y-64457299D01*
X205248689Y-64435513D01*
X205230000Y-64433672D01*
X205230000Y-62947591D01*
X207889749Y-60287843D01*
X209257000Y-60287843D01*
X209331689Y-60280487D01*
X209403508Y-60258701D01*
X209469696Y-60223322D01*
X209527711Y-60175711D01*
X209575322Y-60117696D01*
X209610701Y-60051508D01*
X209632487Y-59979689D01*
X209639843Y-59905000D01*
X209639843Y-58205000D01*
X209632487Y-58130311D01*
X209610701Y-58058492D01*
X209575322Y-57992304D01*
X209527711Y-57934289D01*
X209469696Y-57886678D01*
X209403508Y-57851299D01*
X209331689Y-57829513D01*
X209257000Y-57822157D01*
X207557000Y-57822157D01*
X207482311Y-57829513D01*
X207410492Y-57851299D01*
X207344304Y-57886678D01*
X207286289Y-57934289D01*
X207238678Y-57992304D01*
X207203299Y-58058492D01*
X207181513Y-58130311D01*
X207174157Y-58205000D01*
X207174157Y-59572251D01*
X204383781Y-62362628D01*
X204364474Y-62378473D01*
X204301242Y-62455521D01*
X204281037Y-62493322D01*
X204254255Y-62543426D01*
X204225322Y-62638808D01*
X204215553Y-62738000D01*
X204218001Y-62762854D01*
X204218000Y-64433672D01*
X204199311Y-64435513D01*
X204127492Y-64457299D01*
X204089000Y-64477874D01*
X204050508Y-64457299D01*
X203978689Y-64435513D01*
X203904000Y-64428157D01*
X203004000Y-64428157D01*
X202929311Y-64435513D01*
X202857492Y-64457299D01*
X202819000Y-64477874D01*
X202780508Y-64457299D01*
X202708689Y-64435513D01*
X202634000Y-64428157D01*
X201734000Y-64428157D01*
X201659311Y-64435513D01*
X201587492Y-64457299D01*
X201549000Y-64477874D01*
X201510508Y-64457299D01*
X201438689Y-64435513D01*
X201364000Y-64428157D01*
X200464000Y-64428157D01*
X200389311Y-64435513D01*
X200317492Y-64457299D01*
X200279000Y-64477874D01*
X200240508Y-64457299D01*
X200168689Y-64435513D01*
X200094000Y-64428157D01*
X200066434Y-64428157D01*
X201874833Y-62619758D01*
X201951931Y-62651693D01*
X202189757Y-62699000D01*
X202432243Y-62699000D01*
X202670069Y-62651693D01*
X202894097Y-62558898D01*
X203095717Y-62424180D01*
X203267180Y-62252717D01*
X203401898Y-62051097D01*
X203494693Y-61827069D01*
X203542000Y-61589243D01*
X203542000Y-61346757D01*
X203494693Y-61108931D01*
X203401898Y-60884903D01*
X203267180Y-60683283D01*
X203095717Y-60511820D01*
X202894097Y-60377102D01*
X202670069Y-60284307D01*
X202432243Y-60237000D01*
X202189757Y-60237000D01*
X201951931Y-60284307D01*
X201727903Y-60377102D01*
X201526283Y-60511820D01*
X201354820Y-60683283D01*
X201220102Y-60884903D01*
X201127307Y-61108931D01*
X201080000Y-61346757D01*
X201080000Y-61589243D01*
X201127307Y-61827069D01*
X201159242Y-61904167D01*
X199307409Y-63756000D01*
X194102852Y-63756000D01*
X194077998Y-63753552D01*
X194053144Y-63756000D01*
X193978805Y-63763322D01*
X193883423Y-63792255D01*
X193795519Y-63839241D01*
X193718471Y-63902473D01*
X193702628Y-63921778D01*
X193196250Y-64428157D01*
X192844000Y-64428157D01*
X192769311Y-64435513D01*
X192697492Y-64457299D01*
X192631304Y-64492678D01*
X192573289Y-64540289D01*
X192525678Y-64598304D01*
X192490299Y-64664492D01*
X192468513Y-64736311D01*
X192461157Y-64811000D01*
X190920591Y-64811000D01*
X190990643Y-64740949D01*
X191034191Y-64758987D01*
X191185078Y-64789000D01*
X191338922Y-64789000D01*
X191489809Y-64758987D01*
X191631942Y-64700113D01*
X191759859Y-64614642D01*
X191868642Y-64505859D01*
X191954113Y-64377942D01*
X192012987Y-64235809D01*
X192043000Y-64084922D01*
X192043000Y-63931078D01*
X192012987Y-63780191D01*
X191954113Y-63638058D01*
X191868642Y-63510141D01*
X191759859Y-63401358D01*
X191631942Y-63315887D01*
X191489809Y-63257013D01*
X191338922Y-63227000D01*
X191185078Y-63227000D01*
X191034191Y-63257013D01*
X190970679Y-63283321D01*
X190996987Y-63219809D01*
X191027000Y-63068922D01*
X191027000Y-62915078D01*
X190996987Y-62764191D01*
X190938113Y-62622058D01*
X190852642Y-62494141D01*
X190743859Y-62385358D01*
X190615942Y-62299887D01*
X190473809Y-62241013D01*
X190322922Y-62211000D01*
X190169078Y-62211000D01*
X190018191Y-62241013D01*
X189876058Y-62299887D01*
X189874994Y-62300598D01*
X190688592Y-61487000D01*
X190830922Y-61487000D01*
X190981809Y-61456987D01*
X191123942Y-61398113D01*
X191251859Y-61312642D01*
X191360642Y-61203859D01*
X191446113Y-61075942D01*
X191504987Y-60933809D01*
X191535000Y-60782922D01*
X191535000Y-60629078D01*
X191504987Y-60478191D01*
X191446113Y-60336058D01*
X191360642Y-60208141D01*
X191251859Y-60099358D01*
X191123942Y-60013887D01*
X190981809Y-59955013D01*
X190830922Y-59925000D01*
X190677078Y-59925000D01*
X190526191Y-59955013D01*
X190384058Y-60013887D01*
X190256141Y-60099358D01*
X190147358Y-60208141D01*
X190061887Y-60336058D01*
X190003013Y-60478191D01*
X189973000Y-60629078D01*
X189973000Y-60771408D01*
X183772782Y-66971627D01*
X183753475Y-66987472D01*
X183690243Y-67064520D01*
X183681054Y-67081711D01*
X183643256Y-67152425D01*
X183614323Y-67247807D01*
X183604554Y-67346999D01*
X183607002Y-67371855D01*
X183607001Y-75193261D01*
X183464922Y-75165000D01*
X183322592Y-75165000D01*
X181477376Y-73319785D01*
X181461527Y-73300473D01*
X181384479Y-73237241D01*
X181296575Y-73190255D01*
X181201193Y-73161322D01*
X181126854Y-73154000D01*
X181126846Y-73154000D01*
X181102000Y-73151553D01*
X181077154Y-73154000D01*
X173183592Y-73154000D01*
X164967376Y-64937785D01*
X164951527Y-64918473D01*
X164874479Y-64855241D01*
X164786575Y-64808255D01*
X164691193Y-64779322D01*
X164616854Y-64772000D01*
X164616846Y-64772000D01*
X164592000Y-64769553D01*
X164567154Y-64772000D01*
X149815592Y-64772000D01*
X147572000Y-62528409D01*
X147572000Y-53172501D01*
X147576001Y-53176502D01*
X147576000Y-58960148D01*
X147576000Y-58960149D01*
X147576001Y-62205144D01*
X147573553Y-62230000D01*
X147583322Y-62329192D01*
X147612255Y-62424574D01*
X147612256Y-62424575D01*
X147659242Y-62512479D01*
X147722474Y-62589527D01*
X147741781Y-62605372D01*
X149738628Y-64602220D01*
X149754473Y-64621527D01*
X149831521Y-64684759D01*
X149919425Y-64731745D01*
X150014807Y-64760678D01*
X150089146Y-64768000D01*
X150089154Y-64768000D01*
X150114000Y-64770447D01*
X150138846Y-64768000D01*
X165144409Y-64768000D01*
X170820628Y-70444220D01*
X170836473Y-70463527D01*
X170913521Y-70526759D01*
X171001425Y-70573745D01*
X171096807Y-70602678D01*
X171196000Y-70612448D01*
X171220854Y-70610000D01*
X177709499Y-70610000D01*
X177810141Y-70710642D01*
X177938058Y-70796113D01*
X178080191Y-70854987D01*
X178231078Y-70885000D01*
X178384922Y-70885000D01*
X178535809Y-70854987D01*
X178677942Y-70796113D01*
X178805859Y-70710642D01*
X178914642Y-70601859D01*
X179000113Y-70473942D01*
X179058987Y-70331809D01*
X179089000Y-70180922D01*
X179089000Y-70027078D01*
X179058987Y-69876191D01*
X179016276Y-69773078D01*
X180829000Y-69773078D01*
X180829000Y-69926922D01*
X180859013Y-70077809D01*
X180917887Y-70219942D01*
X181003358Y-70347859D01*
X181112141Y-70456642D01*
X181240058Y-70542113D01*
X181382191Y-70600987D01*
X181533078Y-70631000D01*
X181686922Y-70631000D01*
X181837809Y-70600987D01*
X181979942Y-70542113D01*
X182107859Y-70456642D01*
X182216642Y-70347859D01*
X182302113Y-70219942D01*
X182360987Y-70077809D01*
X182391000Y-69926922D01*
X182391000Y-69773078D01*
X182360987Y-69622191D01*
X182302113Y-69480058D01*
X182216642Y-69352141D01*
X182116000Y-69251499D01*
X182116000Y-67265591D01*
X190709592Y-58672000D01*
X199045499Y-58672000D01*
X199146141Y-58772642D01*
X199274058Y-58858113D01*
X199416191Y-58916987D01*
X199567078Y-58947000D01*
X199720922Y-58947000D01*
X199871809Y-58916987D01*
X200013942Y-58858113D01*
X200141859Y-58772642D01*
X200250642Y-58663859D01*
X200336113Y-58535942D01*
X200394987Y-58393809D01*
X200425000Y-58242922D01*
X200425000Y-58089078D01*
X200394987Y-57938191D01*
X200336113Y-57796058D01*
X200250642Y-57668141D01*
X200141859Y-57559358D01*
X200013942Y-57473887D01*
X199871809Y-57415013D01*
X199720922Y-57385000D01*
X199567078Y-57385000D01*
X199416191Y-57415013D01*
X199274058Y-57473887D01*
X199146141Y-57559358D01*
X199045499Y-57660000D01*
X190524854Y-57660000D01*
X190500000Y-57657552D01*
X190475146Y-57660000D01*
X190400807Y-57667322D01*
X190305425Y-57696255D01*
X190217521Y-57743241D01*
X190140473Y-57806473D01*
X190124628Y-57825780D01*
X181269781Y-66680628D01*
X181250474Y-66696473D01*
X181187242Y-66773521D01*
X181171780Y-66802448D01*
X181140255Y-66861426D01*
X181111322Y-66956808D01*
X181101553Y-67056000D01*
X181104001Y-67080856D01*
X181104000Y-69251499D01*
X181003358Y-69352141D01*
X180917887Y-69480058D01*
X180859013Y-69622191D01*
X180829000Y-69773078D01*
X179016276Y-69773078D01*
X179000113Y-69734058D01*
X178914642Y-69606141D01*
X178805859Y-69497358D01*
X178677942Y-69411887D01*
X178535809Y-69353013D01*
X178384922Y-69323000D01*
X178231078Y-69323000D01*
X178080191Y-69353013D01*
X177938058Y-69411887D01*
X177810141Y-69497358D01*
X177709499Y-69598000D01*
X171405592Y-69598000D01*
X167218349Y-65410757D01*
X171489000Y-65410757D01*
X171489000Y-65653243D01*
X171536307Y-65891069D01*
X171629102Y-66115097D01*
X171763820Y-66316717D01*
X171935283Y-66488180D01*
X172136903Y-66622898D01*
X172360931Y-66715693D01*
X172598757Y-66763000D01*
X172841243Y-66763000D01*
X173079069Y-66715693D01*
X173303097Y-66622898D01*
X173504717Y-66488180D01*
X173676180Y-66316717D01*
X173810898Y-66115097D01*
X173903693Y-65891069D01*
X173951000Y-65653243D01*
X173951000Y-65410757D01*
X173903693Y-65172931D01*
X173810898Y-64948903D01*
X173676180Y-64747283D01*
X173610897Y-64682000D01*
X174027157Y-64682000D01*
X174027157Y-66382000D01*
X174034513Y-66456689D01*
X174056299Y-66528508D01*
X174091678Y-66594696D01*
X174139289Y-66652711D01*
X174197304Y-66700322D01*
X174263492Y-66735701D01*
X174335311Y-66757487D01*
X174410000Y-66764843D01*
X176110000Y-66764843D01*
X176184689Y-66757487D01*
X176256508Y-66735701D01*
X176322696Y-66700322D01*
X176380711Y-66652711D01*
X176428322Y-66594696D01*
X176463701Y-66528508D01*
X176485487Y-66456689D01*
X176492843Y-66382000D01*
X176492843Y-64682000D01*
X176485487Y-64607311D01*
X176463701Y-64535492D01*
X176428322Y-64469304D01*
X176380711Y-64411289D01*
X176322696Y-64363678D01*
X176256508Y-64328299D01*
X176184689Y-64306513D01*
X176110000Y-64299157D01*
X174410000Y-64299157D01*
X174335311Y-64306513D01*
X174263492Y-64328299D01*
X174197304Y-64363678D01*
X174139289Y-64411289D01*
X174091678Y-64469304D01*
X174056299Y-64535492D01*
X174034513Y-64607311D01*
X174027157Y-64682000D01*
X173610897Y-64682000D01*
X173504717Y-64575820D01*
X173303097Y-64441102D01*
X173079069Y-64348307D01*
X172841243Y-64301000D01*
X172598757Y-64301000D01*
X172360931Y-64348307D01*
X172136903Y-64441102D01*
X171935283Y-64575820D01*
X171763820Y-64747283D01*
X171629102Y-64948903D01*
X171536307Y-65172931D01*
X171489000Y-65410757D01*
X167218349Y-65410757D01*
X165729376Y-63921785D01*
X165713527Y-63902473D01*
X165636479Y-63839241D01*
X165548575Y-63792255D01*
X165453193Y-63763322D01*
X165378854Y-63756000D01*
X165378846Y-63756000D01*
X165354000Y-63753553D01*
X165329154Y-63756000D01*
X150323592Y-63756000D01*
X148588000Y-62020409D01*
X148588000Y-60629088D01*
X168382990Y-60629088D01*
X168382990Y-60782932D01*
X168413003Y-60933819D01*
X168471877Y-61075952D01*
X168557348Y-61203869D01*
X168666131Y-61312652D01*
X168794048Y-61398123D01*
X168936181Y-61456997D01*
X169087068Y-61487010D01*
X169240912Y-61487010D01*
X169391799Y-61456997D01*
X169533932Y-61398123D01*
X169661849Y-61312652D01*
X169762491Y-61212010D01*
X176566509Y-61212010D01*
X176667141Y-61312642D01*
X176795058Y-61398113D01*
X176937191Y-61456987D01*
X177088078Y-61487000D01*
X177241922Y-61487000D01*
X177392809Y-61456987D01*
X177534942Y-61398113D01*
X177662859Y-61312642D01*
X177771642Y-61203859D01*
X177857113Y-61075942D01*
X177915987Y-60933809D01*
X177946000Y-60782922D01*
X177946000Y-60629078D01*
X177915987Y-60478191D01*
X177857113Y-60336058D01*
X177771642Y-60208141D01*
X177662859Y-60099358D01*
X177534942Y-60013887D01*
X177392809Y-59955013D01*
X177241922Y-59925000D01*
X177088078Y-59925000D01*
X176937191Y-59955013D01*
X176795058Y-60013887D01*
X176667141Y-60099358D01*
X176566489Y-60200010D01*
X169762491Y-60200010D01*
X169661849Y-60099368D01*
X169533932Y-60013897D01*
X169391799Y-59955023D01*
X169240912Y-59925010D01*
X169087068Y-59925010D01*
X168936181Y-59955023D01*
X168794048Y-60013897D01*
X168666131Y-60099368D01*
X168557348Y-60208151D01*
X168471877Y-60336068D01*
X168413003Y-60478201D01*
X168382990Y-60629088D01*
X148588000Y-60629088D01*
X148588000Y-59413310D01*
X148616191Y-59424987D01*
X148767078Y-59455000D01*
X148920922Y-59455000D01*
X149071809Y-59424987D01*
X149213942Y-59366113D01*
X149341859Y-59280642D01*
X149450642Y-59171859D01*
X149536113Y-59043942D01*
X149594987Y-58901809D01*
X149625000Y-58750922D01*
X149625000Y-58608592D01*
X149692220Y-58541372D01*
X149711527Y-58525527D01*
X149774759Y-58448479D01*
X149821745Y-58360575D01*
X149850678Y-58265193D01*
X149858000Y-58190854D01*
X149858000Y-58190847D01*
X149860447Y-58166001D01*
X149858000Y-58141155D01*
X149858000Y-56393757D01*
X153074000Y-56393757D01*
X153074000Y-56636243D01*
X153121307Y-56874069D01*
X153214102Y-57098097D01*
X153348820Y-57299717D01*
X153520283Y-57471180D01*
X153721903Y-57605898D01*
X153945931Y-57698693D01*
X154183757Y-57746000D01*
X154426243Y-57746000D01*
X154664069Y-57698693D01*
X154888097Y-57605898D01*
X155089717Y-57471180D01*
X155261180Y-57299717D01*
X155395898Y-57098097D01*
X155488693Y-56874069D01*
X155536000Y-56636243D01*
X155536000Y-56393757D01*
X155488693Y-56155931D01*
X155395898Y-55931903D01*
X155261180Y-55730283D01*
X155162654Y-55631757D01*
X171235000Y-55631757D01*
X171235000Y-55874243D01*
X171282307Y-56112069D01*
X171375102Y-56336097D01*
X171509820Y-56537717D01*
X171681283Y-56709180D01*
X171882903Y-56843898D01*
X172106931Y-56936693D01*
X172344757Y-56984000D01*
X172587243Y-56984000D01*
X172825069Y-56936693D01*
X173049097Y-56843898D01*
X173250717Y-56709180D01*
X173422180Y-56537717D01*
X173556898Y-56336097D01*
X173649693Y-56112069D01*
X173697000Y-55874243D01*
X173697000Y-55631757D01*
X173649693Y-55393931D01*
X173556898Y-55169903D01*
X173422180Y-54968283D01*
X173250717Y-54796820D01*
X173049097Y-54662102D01*
X172825069Y-54569307D01*
X172587243Y-54522000D01*
X172344757Y-54522000D01*
X172106931Y-54569307D01*
X171882903Y-54662102D01*
X171681283Y-54796820D01*
X171509820Y-54968283D01*
X171375102Y-55169903D01*
X171282307Y-55393931D01*
X171235000Y-55631757D01*
X155162654Y-55631757D01*
X155089717Y-55558820D01*
X154888097Y-55424102D01*
X154664069Y-55331307D01*
X154426243Y-55284000D01*
X154183757Y-55284000D01*
X153945931Y-55331307D01*
X153721903Y-55424102D01*
X153520283Y-55558820D01*
X153348820Y-55730283D01*
X153214102Y-55931903D01*
X153121307Y-56155931D01*
X153074000Y-56393757D01*
X149858000Y-56393757D01*
X149858000Y-53176501D01*
X149958642Y-53075859D01*
X150044113Y-52947942D01*
X150102987Y-52805809D01*
X150133000Y-52654922D01*
X150133000Y-52501078D01*
X150104739Y-52358999D01*
X151211408Y-52358999D01*
X151365000Y-52512591D01*
X151365000Y-52654922D01*
X151395013Y-52805809D01*
X151453887Y-52947942D01*
X151539358Y-53075859D01*
X151648141Y-53184642D01*
X151776058Y-53270113D01*
X151918191Y-53328987D01*
X152069078Y-53359000D01*
X152222922Y-53359000D01*
X152373809Y-53328987D01*
X152515942Y-53270113D01*
X152643859Y-53184642D01*
X152736744Y-53091757D01*
X171235000Y-53091757D01*
X171235000Y-53334243D01*
X171282307Y-53572069D01*
X171375102Y-53796097D01*
X171509820Y-53997717D01*
X171681283Y-54169180D01*
X171882903Y-54303898D01*
X172106931Y-54396693D01*
X172344757Y-54444000D01*
X172587243Y-54444000D01*
X172825069Y-54396693D01*
X173049097Y-54303898D01*
X173250717Y-54169180D01*
X173422180Y-53997717D01*
X173556898Y-53796097D01*
X173593394Y-53707987D01*
X180937000Y-53707987D01*
X180937000Y-54496012D01*
X180949965Y-54627646D01*
X181001199Y-54796542D01*
X181084399Y-54952198D01*
X181196367Y-55088633D01*
X181202001Y-55093256D01*
X181202001Y-55436000D01*
X181198948Y-55467000D01*
X181211130Y-55590697D01*
X181247211Y-55709641D01*
X181305804Y-55819260D01*
X181364897Y-55891265D01*
X181364900Y-55891268D01*
X181384658Y-55915343D01*
X181408733Y-55935101D01*
X183555899Y-58082268D01*
X183575657Y-58106343D01*
X183599732Y-58126101D01*
X183599734Y-58126103D01*
X183671739Y-58185196D01*
X183781358Y-58243789D01*
X183900302Y-58279870D01*
X183993002Y-58289000D01*
X183993009Y-58289000D01*
X184024000Y-58292052D01*
X184054990Y-58289000D01*
X186990595Y-58289000D01*
X187082058Y-58350113D01*
X187224191Y-58408987D01*
X187375078Y-58439000D01*
X187528922Y-58439000D01*
X187679809Y-58408987D01*
X187821942Y-58350113D01*
X187949859Y-58264642D01*
X188058642Y-58155859D01*
X188144113Y-58027942D01*
X188202987Y-57885809D01*
X188233000Y-57734922D01*
X188233000Y-57581078D01*
X188202987Y-57430191D01*
X188144113Y-57288058D01*
X188058642Y-57160141D01*
X187949859Y-57051358D01*
X187821942Y-56965887D01*
X187679809Y-56907013D01*
X187528922Y-56877000D01*
X187375078Y-56877000D01*
X187224191Y-56907013D01*
X187082058Y-56965887D01*
X186990595Y-57027000D01*
X184285369Y-57027000D01*
X182464000Y-55205632D01*
X182464000Y-55093256D01*
X182469633Y-55088633D01*
X182581601Y-54952199D01*
X182583000Y-54949581D01*
X182584399Y-54952198D01*
X182696367Y-55088633D01*
X182832801Y-55200601D01*
X182988457Y-55283801D01*
X183157353Y-55335035D01*
X183333000Y-55352335D01*
X183508646Y-55335035D01*
X183677542Y-55283801D01*
X183833198Y-55200601D01*
X183969633Y-55088633D01*
X184081601Y-54952199D01*
X184083000Y-54949581D01*
X184084399Y-54952198D01*
X184196367Y-55088633D01*
X184332801Y-55200601D01*
X184488457Y-55283801D01*
X184657353Y-55335035D01*
X184833000Y-55352335D01*
X185008646Y-55335035D01*
X185177542Y-55283801D01*
X185333198Y-55200601D01*
X185469633Y-55088633D01*
X185581601Y-54952199D01*
X185583000Y-54949581D01*
X185584399Y-54952198D01*
X185696367Y-55088633D01*
X185832801Y-55200601D01*
X185988457Y-55283801D01*
X186157353Y-55335035D01*
X186333000Y-55352335D01*
X186508646Y-55335035D01*
X186677542Y-55283801D01*
X186833198Y-55200601D01*
X186969633Y-55088633D01*
X187019830Y-55027468D01*
X187041810Y-55068590D01*
X187120512Y-55164488D01*
X187216410Y-55243190D01*
X187325820Y-55301671D01*
X187444536Y-55337683D01*
X187567997Y-55349843D01*
X188098003Y-55349843D01*
X188221464Y-55337683D01*
X188340180Y-55301671D01*
X188449590Y-55243190D01*
X188545488Y-55164488D01*
X188624190Y-55068590D01*
X188682671Y-54959180D01*
X188718683Y-54840464D01*
X188730843Y-54717003D01*
X188730843Y-53486997D01*
X188718683Y-53363536D01*
X188682671Y-53244820D01*
X188624190Y-53135410D01*
X188545488Y-53039512D01*
X188449590Y-52960810D01*
X188340180Y-52902329D01*
X188221464Y-52866317D01*
X188098003Y-52854157D01*
X187567997Y-52854157D01*
X187444536Y-52866317D01*
X187325820Y-52902329D01*
X187216410Y-52960810D01*
X187120512Y-53039512D01*
X187041810Y-53135410D01*
X187019830Y-53176532D01*
X186969633Y-53115367D01*
X186833199Y-53003399D01*
X186677543Y-52920199D01*
X186508647Y-52868965D01*
X186333000Y-52851665D01*
X186157354Y-52868965D01*
X185988458Y-52920199D01*
X185832802Y-53003399D01*
X185696368Y-53115367D01*
X185584400Y-53251801D01*
X185583001Y-53254419D01*
X185581601Y-53251801D01*
X185469633Y-53115367D01*
X185333199Y-53003399D01*
X185177543Y-52920199D01*
X185008647Y-52868965D01*
X184833000Y-52851665D01*
X184657354Y-52868965D01*
X184488458Y-52920199D01*
X184332802Y-53003399D01*
X184196368Y-53115367D01*
X184084400Y-53251801D01*
X184083001Y-53254419D01*
X184081601Y-53251801D01*
X183969633Y-53115367D01*
X183833199Y-53003399D01*
X183677543Y-52920199D01*
X183508647Y-52868965D01*
X183333000Y-52851665D01*
X183157354Y-52868965D01*
X182988458Y-52920199D01*
X182832802Y-53003399D01*
X182696368Y-53115367D01*
X182584400Y-53251801D01*
X182583001Y-53254419D01*
X182581601Y-53251801D01*
X182469633Y-53115367D01*
X182333199Y-53003399D01*
X182177543Y-52920199D01*
X182008647Y-52868965D01*
X181833000Y-52851665D01*
X181657354Y-52868965D01*
X181488458Y-52920199D01*
X181332802Y-53003399D01*
X181196368Y-53115367D01*
X181084400Y-53251801D01*
X181001200Y-53407457D01*
X180949965Y-53576353D01*
X180937000Y-53707987D01*
X173593394Y-53707987D01*
X173649693Y-53572069D01*
X173697000Y-53334243D01*
X173697000Y-53091757D01*
X173649693Y-52853931D01*
X173556898Y-52629903D01*
X173422180Y-52428283D01*
X173250717Y-52256820D01*
X173049097Y-52122102D01*
X172825069Y-52029307D01*
X172587243Y-51982000D01*
X172344757Y-51982000D01*
X172106931Y-52029307D01*
X171882903Y-52122102D01*
X171681283Y-52256820D01*
X171509820Y-52428283D01*
X171375102Y-52629903D01*
X171282307Y-52853931D01*
X171235000Y-53091757D01*
X152736744Y-53091757D01*
X152752642Y-53075859D01*
X152838113Y-52947942D01*
X152896987Y-52805809D01*
X152927000Y-52654922D01*
X152927000Y-52501078D01*
X152896987Y-52350191D01*
X152838113Y-52208058D01*
X152752642Y-52080141D01*
X152643859Y-51971358D01*
X152515942Y-51885887D01*
X152373809Y-51827013D01*
X152222922Y-51797000D01*
X152080591Y-51797000D01*
X151796375Y-51512784D01*
X151780526Y-51493472D01*
X151703478Y-51430240D01*
X151615574Y-51383254D01*
X151520192Y-51354321D01*
X151445853Y-51346999D01*
X151445845Y-51346999D01*
X151420999Y-51344552D01*
X151396153Y-51346999D01*
X147758844Y-51346999D01*
X147733998Y-51344552D01*
X147709152Y-51346999D01*
X147709145Y-51346999D01*
X147644693Y-51353347D01*
X147634805Y-51354321D01*
X147539424Y-51383254D01*
X147451520Y-51430240D01*
X147374472Y-51493472D01*
X147358627Y-51512779D01*
X146725785Y-52145622D01*
X146706473Y-52161471D01*
X146643241Y-52238519D01*
X146596255Y-52326424D01*
X146567322Y-52421806D01*
X146560000Y-52496145D01*
X146560000Y-52496152D01*
X146557553Y-52520998D01*
X146560000Y-52545844D01*
X146560001Y-62713144D01*
X146557553Y-62738000D01*
X146567322Y-62837192D01*
X146596255Y-62932574D01*
X146596256Y-62932575D01*
X146643242Y-63020479D01*
X146706474Y-63097527D01*
X146725779Y-63113370D01*
X149230628Y-65618220D01*
X149246473Y-65637527D01*
X149323521Y-65700759D01*
X149411425Y-65747745D01*
X149484607Y-65769944D01*
X149506806Y-65776678D01*
X149516694Y-65777652D01*
X149581146Y-65784000D01*
X149581153Y-65784000D01*
X149605999Y-65786447D01*
X149630845Y-65784000D01*
X164382409Y-65784000D01*
X172598628Y-74000220D01*
X172614473Y-74019527D01*
X172691521Y-74082759D01*
X172779425Y-74129745D01*
X172874807Y-74158678D01*
X172949146Y-74166000D01*
X172949153Y-74166000D01*
X172973999Y-74168447D01*
X172998845Y-74166000D01*
X180892409Y-74166000D01*
X180896409Y-74170000D01*
X172675592Y-74170000D01*
X164459376Y-65953785D01*
X164443527Y-65934473D01*
X164366479Y-65871241D01*
X164278575Y-65824255D01*
X164183193Y-65795322D01*
X164108854Y-65788000D01*
X164108846Y-65788000D01*
X164084000Y-65785553D01*
X164059154Y-65788000D01*
X149053592Y-65788000D01*
X146302000Y-63036409D01*
X146302000Y-54126845D01*
X146304447Y-54101999D01*
X146302000Y-54077153D01*
X146302000Y-54077146D01*
X146294678Y-54002807D01*
X146265745Y-53907425D01*
X146218759Y-53819521D01*
X146155527Y-53742473D01*
X146136220Y-53726628D01*
X145053000Y-52643409D01*
X145053000Y-52501078D01*
X145022987Y-52350191D01*
X144964113Y-52208058D01*
X144878642Y-52080141D01*
X144769859Y-51971358D01*
X144641942Y-51885887D01*
X144499809Y-51827013D01*
X144348922Y-51797000D01*
X144195078Y-51797000D01*
X144044191Y-51827013D01*
X143902058Y-51885887D01*
X143774141Y-51971358D01*
X143665358Y-52080141D01*
X143579887Y-52208058D01*
X143521013Y-52350191D01*
X143491000Y-52501078D01*
X143491000Y-52654922D01*
X143521013Y-52805809D01*
X143579887Y-52947942D01*
X143665358Y-53075859D01*
X143774141Y-53184642D01*
X143902058Y-53270113D01*
X144044191Y-53328987D01*
X144195078Y-53359000D01*
X144337409Y-53359000D01*
X145290000Y-54311592D01*
X145290001Y-63221144D01*
X145287553Y-63246000D01*
X145292574Y-63296983D01*
X144778000Y-62782409D01*
X144778000Y-60288501D01*
X144878642Y-60187859D01*
X144964113Y-60059942D01*
X145022987Y-59917809D01*
X145053000Y-59766922D01*
X145053000Y-59613078D01*
X145022987Y-59462191D01*
X144964113Y-59320058D01*
X144878642Y-59192141D01*
X144769859Y-59083358D01*
X144641942Y-58997887D01*
X144499809Y-58939013D01*
X144348922Y-58909000D01*
X144195078Y-58909000D01*
X144044191Y-58939013D01*
X143902058Y-58997887D01*
X143774141Y-59083358D01*
X143665358Y-59192141D01*
X143579887Y-59320058D01*
X143521013Y-59462191D01*
X143491000Y-59613078D01*
X143491000Y-59766922D01*
X143521013Y-59917809D01*
X143579887Y-60059942D01*
X143665358Y-60187859D01*
X143766000Y-60288501D01*
X143766001Y-62967144D01*
X143763553Y-62992000D01*
X143773322Y-63091192D01*
X143802255Y-63186574D01*
X143820020Y-63219809D01*
X143849242Y-63274479D01*
X143912474Y-63351527D01*
X143931781Y-63367372D01*
X148214628Y-67650220D01*
X148230473Y-67669527D01*
X148307521Y-67732759D01*
X148395425Y-67779745D01*
X148490806Y-67808678D01*
X148500694Y-67809652D01*
X148565146Y-67816000D01*
X148565153Y-67816000D01*
X148589999Y-67818447D01*
X148614845Y-67816000D01*
X163366409Y-67816000D01*
X171244408Y-75694000D01*
X163350617Y-75694000D01*
X163430577Y-75669745D01*
X163518481Y-75622759D01*
X163595529Y-75559527D01*
X163611378Y-75540215D01*
X166075220Y-73076374D01*
X166094527Y-73060529D01*
X166157759Y-72983481D01*
X166204745Y-72895577D01*
X166233678Y-72800195D01*
X166240567Y-72730255D01*
X166243448Y-72701002D01*
X166241000Y-72676148D01*
X166241000Y-71972501D01*
X166341642Y-71871859D01*
X166427113Y-71743942D01*
X166485987Y-71601809D01*
X166516000Y-71450922D01*
X166516000Y-71297078D01*
X166485987Y-71146191D01*
X166427113Y-71004058D01*
X166341642Y-70876141D01*
X166232859Y-70767358D01*
X166104942Y-70681887D01*
X165962809Y-70623013D01*
X165811922Y-70593000D01*
X165658078Y-70593000D01*
X165507191Y-70623013D01*
X165365058Y-70681887D01*
X165237141Y-70767358D01*
X165128358Y-70876141D01*
X165042887Y-71004058D01*
X164984013Y-71146191D01*
X164954000Y-71297078D01*
X164954000Y-71450922D01*
X164984013Y-71601809D01*
X165042887Y-71743942D01*
X165128358Y-71871859D01*
X165229000Y-71972501D01*
X165229001Y-72491409D01*
X164913434Y-72806976D01*
X164903113Y-72782058D01*
X164817642Y-72654141D01*
X164708859Y-72545358D01*
X164580942Y-72459887D01*
X164438809Y-72401013D01*
X164287922Y-72371000D01*
X164134078Y-72371000D01*
X163983191Y-72401013D01*
X163841058Y-72459887D01*
X163713141Y-72545358D01*
X163612499Y-72646000D01*
X162793525Y-72646000D01*
X162791487Y-72625311D01*
X162769701Y-72553492D01*
X162734322Y-72487304D01*
X162686711Y-72429289D01*
X162628696Y-72381678D01*
X162562508Y-72346299D01*
X162490689Y-72324513D01*
X162416000Y-72317157D01*
X160416000Y-72317157D01*
X160341311Y-72324513D01*
X160269492Y-72346299D01*
X160203304Y-72381678D01*
X160145289Y-72429289D01*
X160097678Y-72487304D01*
X160062299Y-72553492D01*
X160040513Y-72625311D01*
X160033157Y-72700000D01*
X160033157Y-73700000D01*
X160040513Y-73774689D01*
X160062299Y-73846508D01*
X160097678Y-73912696D01*
X160145289Y-73970711D01*
X160203304Y-74018322D01*
X160269492Y-74053701D01*
X160341311Y-74075487D01*
X160416000Y-74082843D01*
X162416000Y-74082843D01*
X162490689Y-74075487D01*
X162562508Y-74053701D01*
X162628696Y-74018322D01*
X162686711Y-73970711D01*
X162734322Y-73912696D01*
X162769701Y-73846508D01*
X162791487Y-73774689D01*
X162798843Y-73700000D01*
X162798843Y-73658000D01*
X163612499Y-73658000D01*
X163713141Y-73758642D01*
X163841058Y-73844113D01*
X163865976Y-73854435D01*
X163026411Y-74694000D01*
X162798252Y-74694000D01*
X162791487Y-74625311D01*
X162769701Y-74553492D01*
X162734322Y-74487304D01*
X162686711Y-74429289D01*
X162628696Y-74381678D01*
X162562508Y-74346299D01*
X162490689Y-74324513D01*
X162416000Y-74317157D01*
X160416000Y-74317157D01*
X160341311Y-74324513D01*
X160269492Y-74346299D01*
X160203304Y-74381678D01*
X160145289Y-74429289D01*
X160097678Y-74487304D01*
X160062299Y-74553492D01*
X160040513Y-74625311D01*
X160033157Y-74700000D01*
X160033157Y-75694000D01*
X151085592Y-75694000D01*
X148251376Y-72859785D01*
X148235527Y-72840473D01*
X148158479Y-72777241D01*
X148070575Y-72730255D01*
X147975193Y-72701322D01*
X147900854Y-72694000D01*
X147900846Y-72694000D01*
X147876000Y-72691553D01*
X147851154Y-72694000D01*
X146798252Y-72694000D01*
X146791487Y-72625311D01*
X146769701Y-72553492D01*
X146734322Y-72487304D01*
X146686711Y-72429289D01*
X146628696Y-72381678D01*
X146562508Y-72346299D01*
X146490689Y-72324513D01*
X146416000Y-72317157D01*
X144416000Y-72317157D01*
X144341311Y-72324513D01*
X144269492Y-72346299D01*
X144203304Y-72381678D01*
X144145289Y-72429289D01*
X144097678Y-72487304D01*
X144062299Y-72553492D01*
X144040513Y-72625311D01*
X144033157Y-72700000D01*
X144033157Y-73700000D01*
X144040513Y-73774689D01*
X144062299Y-73846508D01*
X144097678Y-73912696D01*
X144145289Y-73970711D01*
X144203304Y-74018322D01*
X144269492Y-74053701D01*
X144341311Y-74075487D01*
X144416000Y-74082843D01*
X146416000Y-74082843D01*
X146490689Y-74075487D01*
X146562508Y-74053701D01*
X146628696Y-74018322D01*
X146686711Y-73970711D01*
X146734322Y-73912696D01*
X146769701Y-73846508D01*
X146791487Y-73774689D01*
X146798252Y-73706000D01*
X147666409Y-73706000D01*
X150500628Y-76540220D01*
X150516473Y-76559527D01*
X150593521Y-76622759D01*
X150674419Y-76666000D01*
X150681425Y-76669745D01*
X150776807Y-76698678D01*
X150876000Y-76708448D01*
X150900854Y-76706000D01*
X160033157Y-76706000D01*
X160033157Y-77700000D01*
X160040513Y-77774689D01*
X160062299Y-77846508D01*
X160097678Y-77912696D01*
X160145289Y-77970711D01*
X160203304Y-78018322D01*
X160269492Y-78053701D01*
X160341311Y-78075487D01*
X160416000Y-78082843D01*
X162416000Y-78082843D01*
X162490689Y-78075487D01*
X162562508Y-78053701D01*
X162628696Y-78018322D01*
X162686711Y-77970711D01*
X162734322Y-77912696D01*
X162769701Y-77846508D01*
X162791487Y-77774689D01*
X162798252Y-77706000D01*
X172367409Y-77706000D01*
X173355409Y-78694000D01*
X162798252Y-78694000D01*
X162791487Y-78625311D01*
X162769701Y-78553492D01*
X162734322Y-78487304D01*
X162686711Y-78429289D01*
X162628696Y-78381678D01*
X162562508Y-78346299D01*
X162490689Y-78324513D01*
X162416000Y-78317157D01*
X160416000Y-78317157D01*
X160341311Y-78324513D01*
X160269492Y-78346299D01*
X160203304Y-78381678D01*
X160145289Y-78429289D01*
X160097678Y-78487304D01*
X160062299Y-78553492D01*
X160040513Y-78625311D01*
X160033157Y-78700000D01*
X160033157Y-79700000D01*
X160040513Y-79774689D01*
X160062299Y-79846508D01*
X160097678Y-79912696D01*
X160145289Y-79970711D01*
X160203304Y-80018322D01*
X160269492Y-80053701D01*
X160341311Y-80075487D01*
X160416000Y-80082843D01*
X162416000Y-80082843D01*
X162490689Y-80075487D01*
X162562508Y-80053701D01*
X162628696Y-80018322D01*
X162686711Y-79970711D01*
X162734322Y-79912696D01*
X162769701Y-79846508D01*
X162791487Y-79774689D01*
X162798252Y-79706000D01*
X173535411Y-79706000D01*
X174597785Y-80768374D01*
X174524191Y-80783013D01*
X174382058Y-80841887D01*
X174254141Y-80927358D01*
X174145358Y-81036141D01*
X174059887Y-81164058D01*
X174001013Y-81306191D01*
X173971000Y-81457078D01*
X173971000Y-81610922D01*
X174001013Y-81761809D01*
X174059887Y-81903942D01*
X174121000Y-81995405D01*
X174121001Y-83630001D01*
X155415146Y-83630001D01*
X152485145Y-80700000D01*
X160033157Y-80700000D01*
X160033157Y-81700000D01*
X160040513Y-81774689D01*
X160062299Y-81846508D01*
X160097678Y-81912696D01*
X160145289Y-81970711D01*
X160203304Y-82018322D01*
X160269492Y-82053701D01*
X160341311Y-82075487D01*
X160416000Y-82082843D01*
X162416000Y-82082843D01*
X162490689Y-82075487D01*
X162562508Y-82053701D01*
X162628696Y-82018322D01*
X162686711Y-81970711D01*
X162734322Y-81912696D01*
X162740046Y-81901987D01*
X166689000Y-81901987D01*
X166689000Y-82690012D01*
X166701965Y-82821646D01*
X166753199Y-82990542D01*
X166836399Y-83146198D01*
X166948367Y-83282633D01*
X167084801Y-83394601D01*
X167240457Y-83477801D01*
X167409353Y-83529035D01*
X167585000Y-83546335D01*
X167760646Y-83529035D01*
X167929542Y-83477801D01*
X168085198Y-83394601D01*
X168221633Y-83282633D01*
X168333601Y-83146199D01*
X168335000Y-83143581D01*
X168336399Y-83146198D01*
X168448367Y-83282633D01*
X168584801Y-83394601D01*
X168740457Y-83477801D01*
X168909353Y-83529035D01*
X169085000Y-83546335D01*
X169260646Y-83529035D01*
X169429542Y-83477801D01*
X169585198Y-83394601D01*
X169721633Y-83282633D01*
X169833601Y-83146199D01*
X169835000Y-83143581D01*
X169836399Y-83146198D01*
X169948367Y-83282633D01*
X170084801Y-83394601D01*
X170240457Y-83477801D01*
X170409353Y-83529035D01*
X170585000Y-83546335D01*
X170760646Y-83529035D01*
X170929542Y-83477801D01*
X171085198Y-83394601D01*
X171221633Y-83282633D01*
X171271830Y-83221468D01*
X171293810Y-83262590D01*
X171372512Y-83358488D01*
X171468410Y-83437190D01*
X171577820Y-83495671D01*
X171696536Y-83531683D01*
X171819997Y-83543843D01*
X172350003Y-83543843D01*
X172473464Y-83531683D01*
X172592180Y-83495671D01*
X172701590Y-83437190D01*
X172797488Y-83358488D01*
X172876190Y-83262590D01*
X172934671Y-83153180D01*
X172970683Y-83034464D01*
X172982843Y-82911003D01*
X172982843Y-81680997D01*
X172970683Y-81557536D01*
X172934671Y-81438820D01*
X172876190Y-81329410D01*
X172797488Y-81233512D01*
X172701590Y-81154810D01*
X172592180Y-81096329D01*
X172473464Y-81060317D01*
X172350003Y-81048157D01*
X171819997Y-81048157D01*
X171696536Y-81060317D01*
X171577820Y-81096329D01*
X171468410Y-81154810D01*
X171372512Y-81233512D01*
X171293810Y-81329410D01*
X171271830Y-81370532D01*
X171221633Y-81309367D01*
X171085199Y-81197399D01*
X170929543Y-81114199D01*
X170760647Y-81062965D01*
X170585000Y-81045665D01*
X170409354Y-81062965D01*
X170240458Y-81114199D01*
X170084802Y-81197399D01*
X169948368Y-81309367D01*
X169836400Y-81445801D01*
X169835001Y-81448419D01*
X169833601Y-81445801D01*
X169721633Y-81309367D01*
X169585199Y-81197399D01*
X169429543Y-81114199D01*
X169260647Y-81062965D01*
X169085000Y-81045665D01*
X168909354Y-81062965D01*
X168740458Y-81114199D01*
X168584802Y-81197399D01*
X168448368Y-81309367D01*
X168336400Y-81445801D01*
X168335001Y-81448419D01*
X168333601Y-81445801D01*
X168221633Y-81309367D01*
X168085199Y-81197399D01*
X167929543Y-81114199D01*
X167760647Y-81062965D01*
X167585000Y-81045665D01*
X167409354Y-81062965D01*
X167240458Y-81114199D01*
X167084802Y-81197399D01*
X166948368Y-81309367D01*
X166836400Y-81445801D01*
X166753200Y-81601457D01*
X166701965Y-81770353D01*
X166689000Y-81901987D01*
X162740046Y-81901987D01*
X162769701Y-81846508D01*
X162791487Y-81774689D01*
X162798843Y-81700000D01*
X162798843Y-80700000D01*
X162791487Y-80625311D01*
X162769701Y-80553492D01*
X162734322Y-80487304D01*
X162686711Y-80429289D01*
X162628696Y-80381678D01*
X162562508Y-80346299D01*
X162490689Y-80324513D01*
X162416000Y-80317157D01*
X160416000Y-80317157D01*
X160341311Y-80324513D01*
X160269492Y-80346299D01*
X160203304Y-80381678D01*
X160145289Y-80429289D01*
X160097678Y-80487304D01*
X160062299Y-80553492D01*
X160040513Y-80625311D01*
X160033157Y-80700000D01*
X152485145Y-80700000D01*
X146798843Y-75013699D01*
X146798843Y-74700000D01*
X146791487Y-74625311D01*
X146769701Y-74553492D01*
X146734322Y-74487304D01*
X146686711Y-74429289D01*
X146628696Y-74381678D01*
X146562508Y-74346299D01*
X146490689Y-74324513D01*
X146416000Y-74317157D01*
X144416000Y-74317157D01*
X144341311Y-74324513D01*
X144269492Y-74346299D01*
X144203304Y-74381678D01*
X144146860Y-74428000D01*
X141934607Y-74428000D01*
X141808922Y-74403000D01*
X141655078Y-74403000D01*
X141504191Y-74433013D01*
X141362058Y-74491887D01*
X141234141Y-74577358D01*
X141125358Y-74686141D01*
X141039887Y-74814058D01*
X140981013Y-74956191D01*
X140951000Y-75107078D01*
X140951000Y-75260922D01*
X140981013Y-75411809D01*
X141039887Y-75553942D01*
X141125358Y-75681859D01*
X141234141Y-75790642D01*
X141362058Y-75876113D01*
X141504191Y-75934987D01*
X141655078Y-75965000D01*
X141808922Y-75965000D01*
X141934607Y-75940000D01*
X144120085Y-75940000D01*
X144145289Y-75970711D01*
X144203304Y-76018322D01*
X144269492Y-76053701D01*
X144341311Y-76075487D01*
X144416000Y-76082843D01*
X145729699Y-76082843D01*
X145964013Y-76317157D01*
X144416000Y-76317157D01*
X144341311Y-76324513D01*
X144269492Y-76346299D01*
X144203304Y-76381678D01*
X144145289Y-76429289D01*
X144097678Y-76487304D01*
X144062299Y-76553492D01*
X144040513Y-76625311D01*
X144033157Y-76700000D01*
X144033157Y-77700000D01*
X144040513Y-77774689D01*
X144062299Y-77846508D01*
X144097678Y-77912696D01*
X144145289Y-77970711D01*
X144203304Y-78018322D01*
X144269492Y-78053701D01*
X144341311Y-78075487D01*
X144416000Y-78082843D01*
X146416000Y-78082843D01*
X146490689Y-78075487D01*
X146562508Y-78053701D01*
X146628696Y-78018322D01*
X146686711Y-77970711D01*
X146734322Y-77912696D01*
X146769701Y-77846508D01*
X146791487Y-77774689D01*
X146798843Y-77700000D01*
X146798843Y-77151987D01*
X154330855Y-84684000D01*
X140106000Y-84684000D01*
X140106000Y-81700000D01*
X141007157Y-81700000D01*
X141007157Y-83400000D01*
X141014513Y-83474689D01*
X141036299Y-83546508D01*
X141071678Y-83612696D01*
X141119289Y-83670711D01*
X141177304Y-83718322D01*
X141243492Y-83753701D01*
X141315311Y-83775487D01*
X141390000Y-83782843D01*
X142226921Y-83782843D01*
X142236438Y-83792360D01*
X142264025Y-83825975D01*
X142324981Y-83876000D01*
X142398174Y-83936068D01*
X142438286Y-83957508D01*
X142551225Y-84017875D01*
X142717294Y-84068252D01*
X142846727Y-84081000D01*
X142846730Y-84081000D01*
X142890000Y-84085262D01*
X142933270Y-84081000D01*
X144397287Y-84081000D01*
X144416000Y-84082843D01*
X146416000Y-84082843D01*
X146490689Y-84075487D01*
X146562508Y-84053701D01*
X146628696Y-84018322D01*
X146686711Y-83970711D01*
X146734322Y-83912696D01*
X146769701Y-83846508D01*
X146791487Y-83774689D01*
X146798843Y-83700000D01*
X146798843Y-82700000D01*
X146791487Y-82625311D01*
X146769701Y-82553492D01*
X146734322Y-82487304D01*
X146686711Y-82429289D01*
X146628696Y-82381678D01*
X146562508Y-82346299D01*
X146490689Y-82324513D01*
X146416000Y-82317157D01*
X144416000Y-82317157D01*
X144397287Y-82319000D01*
X143472843Y-82319000D01*
X143472843Y-81700000D01*
X143465487Y-81625311D01*
X143443701Y-81553492D01*
X143408322Y-81487304D01*
X143360711Y-81429289D01*
X143302696Y-81381678D01*
X143236508Y-81346299D01*
X143164689Y-81324513D01*
X143090000Y-81317157D01*
X141390000Y-81317157D01*
X141315311Y-81324513D01*
X141243492Y-81346299D01*
X141177304Y-81381678D01*
X141119289Y-81429289D01*
X141071678Y-81487304D01*
X141036299Y-81553492D01*
X141014513Y-81625311D01*
X141007157Y-81700000D01*
X140106000Y-81700000D01*
X140106000Y-78700000D01*
X144033157Y-78700000D01*
X144033157Y-79700000D01*
X144040513Y-79774689D01*
X144062299Y-79846508D01*
X144097678Y-79912696D01*
X144145289Y-79970711D01*
X144203304Y-80018322D01*
X144269492Y-80053701D01*
X144341311Y-80075487D01*
X144416000Y-80082843D01*
X146416000Y-80082843D01*
X146490689Y-80075487D01*
X146562508Y-80053701D01*
X146628696Y-80018322D01*
X146686711Y-79970711D01*
X146734322Y-79912696D01*
X146769701Y-79846508D01*
X146791487Y-79774689D01*
X146798843Y-79700000D01*
X146798843Y-78700000D01*
X146791487Y-78625311D01*
X146769701Y-78553492D01*
X146734322Y-78487304D01*
X146686711Y-78429289D01*
X146628696Y-78381678D01*
X146562508Y-78346299D01*
X146490689Y-78324513D01*
X146416000Y-78317157D01*
X144416000Y-78317157D01*
X144341311Y-78324513D01*
X144269492Y-78346299D01*
X144203304Y-78381678D01*
X144145289Y-78429289D01*
X144097678Y-78487304D01*
X144062299Y-78553492D01*
X144040513Y-78625311D01*
X144033157Y-78700000D01*
X140106000Y-78700000D01*
X140106000Y-70700000D01*
X144033157Y-70700000D01*
X144033157Y-71700000D01*
X144040513Y-71774689D01*
X144062299Y-71846508D01*
X144097678Y-71912696D01*
X144145289Y-71970711D01*
X144203304Y-72018322D01*
X144269492Y-72053701D01*
X144341311Y-72075487D01*
X144416000Y-72082843D01*
X146416000Y-72082843D01*
X146490689Y-72075487D01*
X146562508Y-72053701D01*
X146628696Y-72018322D01*
X146686711Y-71970711D01*
X146734322Y-71912696D01*
X146769701Y-71846508D01*
X146791487Y-71774689D01*
X146798843Y-71700000D01*
X146798843Y-70700000D01*
X160033157Y-70700000D01*
X160033157Y-71700000D01*
X160040513Y-71774689D01*
X160062299Y-71846508D01*
X160097678Y-71912696D01*
X160145289Y-71970711D01*
X160203304Y-72018322D01*
X160269492Y-72053701D01*
X160341311Y-72075487D01*
X160416000Y-72082843D01*
X162416000Y-72082843D01*
X162490689Y-72075487D01*
X162562508Y-72053701D01*
X162628696Y-72018322D01*
X162686711Y-71970711D01*
X162734322Y-71912696D01*
X162769701Y-71846508D01*
X162791487Y-71774689D01*
X162793623Y-71753000D01*
X163104499Y-71753000D01*
X163205141Y-71853642D01*
X163333058Y-71939113D01*
X163475191Y-71997987D01*
X163626078Y-72028000D01*
X163779922Y-72028000D01*
X163930809Y-71997987D01*
X164072942Y-71939113D01*
X164200859Y-71853642D01*
X164309642Y-71744859D01*
X164395113Y-71616942D01*
X164453987Y-71474809D01*
X164484000Y-71323922D01*
X164484000Y-71170078D01*
X164453987Y-71019191D01*
X164395113Y-70877058D01*
X164309642Y-70749141D01*
X164200859Y-70640358D01*
X164072942Y-70554887D01*
X163930809Y-70496013D01*
X163779922Y-70466000D01*
X163626078Y-70466000D01*
X163475191Y-70496013D01*
X163333058Y-70554887D01*
X163205141Y-70640358D01*
X163104499Y-70741000D01*
X162798843Y-70741000D01*
X162798843Y-70700000D01*
X162791487Y-70625311D01*
X162769701Y-70553492D01*
X162734322Y-70487304D01*
X162686711Y-70429289D01*
X162628696Y-70381678D01*
X162562508Y-70346299D01*
X162490689Y-70324513D01*
X162416000Y-70317157D01*
X160416000Y-70317157D01*
X160341311Y-70324513D01*
X160269492Y-70346299D01*
X160203304Y-70381678D01*
X160145289Y-70429289D01*
X160097678Y-70487304D01*
X160062299Y-70553492D01*
X160040513Y-70625311D01*
X160033157Y-70700000D01*
X146798843Y-70700000D01*
X146791487Y-70625311D01*
X146769701Y-70553492D01*
X146734322Y-70487304D01*
X146686711Y-70429289D01*
X146628696Y-70381678D01*
X146562508Y-70346299D01*
X146490689Y-70324513D01*
X146416000Y-70317157D01*
X144416000Y-70317157D01*
X144341311Y-70324513D01*
X144269492Y-70346299D01*
X144203304Y-70381678D01*
X144145289Y-70429289D01*
X144097678Y-70487304D01*
X144062299Y-70553492D01*
X144040513Y-70625311D01*
X144033157Y-70700000D01*
X140106000Y-70700000D01*
X140106000Y-68700000D01*
X144033157Y-68700000D01*
X144033157Y-69700000D01*
X144040513Y-69774689D01*
X144062299Y-69846508D01*
X144097678Y-69912696D01*
X144145289Y-69970711D01*
X144203304Y-70018322D01*
X144269492Y-70053701D01*
X144341311Y-70075487D01*
X144416000Y-70082843D01*
X146416000Y-70082843D01*
X146490689Y-70075487D01*
X146562508Y-70053701D01*
X146628696Y-70018322D01*
X146686711Y-69970711D01*
X146734322Y-69912696D01*
X146769701Y-69846508D01*
X146791487Y-69774689D01*
X146798843Y-69700000D01*
X146798843Y-68700000D01*
X146791487Y-68625311D01*
X146769701Y-68553492D01*
X146734322Y-68487304D01*
X146686711Y-68429289D01*
X146628696Y-68381678D01*
X146562508Y-68346299D01*
X146490689Y-68324513D01*
X146416000Y-68317157D01*
X144416000Y-68317157D01*
X144341311Y-68324513D01*
X144269492Y-68346299D01*
X144203304Y-68381678D01*
X144145289Y-68429289D01*
X144097678Y-68487304D01*
X144062299Y-68553492D01*
X144040513Y-68625311D01*
X144033157Y-68700000D01*
X140106000Y-68700000D01*
X140106000Y-55665000D01*
X140880157Y-55665000D01*
X140880157Y-57365000D01*
X140887513Y-57439689D01*
X140909299Y-57511508D01*
X140944678Y-57577696D01*
X140992289Y-57635711D01*
X141050304Y-57683322D01*
X141116492Y-57718701D01*
X141188311Y-57740487D01*
X141263000Y-57747843D01*
X142963000Y-57747843D01*
X143037689Y-57740487D01*
X143109508Y-57718701D01*
X143175696Y-57683322D01*
X143233711Y-57635711D01*
X143281322Y-57577696D01*
X143316701Y-57511508D01*
X143338487Y-57439689D01*
X143345843Y-57365000D01*
X143345843Y-55665000D01*
X143338487Y-55590311D01*
X143316701Y-55518492D01*
X143281322Y-55452304D01*
X143233711Y-55394289D01*
X143175696Y-55346678D01*
X143109508Y-55311299D01*
X143037689Y-55289513D01*
X142963000Y-55282157D01*
X141263000Y-55282157D01*
X141188311Y-55289513D01*
X141116492Y-55311299D01*
X141050304Y-55346678D01*
X140992289Y-55394289D01*
X140944678Y-55452304D01*
X140909299Y-55518492D01*
X140887513Y-55590311D01*
X140880157Y-55665000D01*
X140106000Y-55665000D01*
X140106000Y-53853757D01*
X140882000Y-53853757D01*
X140882000Y-54096243D01*
X140929307Y-54334069D01*
X141022102Y-54558097D01*
X141156820Y-54759717D01*
X141328283Y-54931180D01*
X141529903Y-55065898D01*
X141753931Y-55158693D01*
X141991757Y-55206000D01*
X142234243Y-55206000D01*
X142472069Y-55158693D01*
X142696097Y-55065898D01*
X142897717Y-54931180D01*
X143069180Y-54759717D01*
X143203898Y-54558097D01*
X143296693Y-54334069D01*
X143344000Y-54096243D01*
X143344000Y-53853757D01*
X143296693Y-53615931D01*
X143203898Y-53391903D01*
X143069180Y-53190283D01*
X142897717Y-53018820D01*
X142696097Y-52884102D01*
X142472069Y-52791307D01*
X142234243Y-52744000D01*
X141991757Y-52744000D01*
X141753931Y-52791307D01*
X141529903Y-52884102D01*
X141328283Y-53018820D01*
X141156820Y-53190283D01*
X141022102Y-53391903D01*
X140929307Y-53615931D01*
X140882000Y-53853757D01*
X140106000Y-53853757D01*
X140106000Y-51206000D01*
X210414000Y-51206000D01*
X210414001Y-63988049D01*
G04 #@! TA.AperFunction,Conductor*
D23*
G36*
X210414001Y-63988049D02*
G01*
X210412036Y-64008000D01*
X210419875Y-64087590D01*
X210443090Y-64164121D01*
X210480790Y-64234653D01*
X210531526Y-64296474D01*
X210593347Y-64347210D01*
X210663879Y-64384910D01*
X210740410Y-64408125D01*
X210800059Y-64414000D01*
X210800060Y-64414000D01*
X210820000Y-64415964D01*
X210839941Y-64414000D01*
X217780000Y-64414000D01*
X217780001Y-84684000D01*
X208945146Y-84684000D01*
X209042306Y-84586840D01*
X209071159Y-84563161D01*
X209165632Y-84448045D01*
X209235832Y-84316710D01*
X209279060Y-84174204D01*
X209287820Y-84085262D01*
X209292733Y-84035380D01*
X209302322Y-84023696D01*
X209337701Y-83957508D01*
X209359487Y-83885689D01*
X209366843Y-83811000D01*
X209366843Y-81811000D01*
X209359487Y-81736311D01*
X209337701Y-81664492D01*
X209302322Y-81598304D01*
X209254711Y-81540289D01*
X209196696Y-81492678D01*
X209130508Y-81457299D01*
X209085842Y-81443750D01*
X209738592Y-80791000D01*
X209880922Y-80791000D01*
X210031809Y-80760987D01*
X210173942Y-80702113D01*
X210301859Y-80616642D01*
X210410642Y-80507859D01*
X210496113Y-80379942D01*
X210554987Y-80237809D01*
X210585000Y-80086922D01*
X210585000Y-79933078D01*
X210554987Y-79782191D01*
X210496113Y-79640058D01*
X210410642Y-79512141D01*
X210301859Y-79403358D01*
X210173942Y-79317887D01*
X210031809Y-79259013D01*
X209880922Y-79229000D01*
X209727078Y-79229000D01*
X209576191Y-79259013D01*
X209434058Y-79317887D01*
X209306141Y-79403358D01*
X209197358Y-79512141D01*
X209111887Y-79640058D01*
X209053013Y-79782191D01*
X209023000Y-79933078D01*
X209023000Y-80075408D01*
X208193780Y-80904629D01*
X208174474Y-80920473D01*
X208111242Y-80997521D01*
X208095780Y-81026448D01*
X208064255Y-81085426D01*
X208035322Y-81180808D01*
X208025553Y-81280000D01*
X208028001Y-81304856D01*
X208028001Y-81433672D01*
X208009311Y-81435513D01*
X207937492Y-81457299D01*
X207899000Y-81477874D01*
X207860508Y-81457299D01*
X207788689Y-81435513D01*
X207714000Y-81428157D01*
X207623142Y-81428157D01*
X207604220Y-81412628D01*
X206640219Y-80448628D01*
X206686113Y-80379942D01*
X206744987Y-80237809D01*
X206775000Y-80086922D01*
X206775000Y-79933078D01*
X206744987Y-79782191D01*
X206686113Y-79640058D01*
X206600642Y-79512141D01*
X206491859Y-79403358D01*
X206363942Y-79317887D01*
X206221809Y-79259013D01*
X206070922Y-79229000D01*
X205917078Y-79229000D01*
X205766191Y-79259013D01*
X205624058Y-79317887D01*
X205496141Y-79403358D01*
X205387358Y-79512141D01*
X205301887Y-79640058D01*
X205243013Y-79782191D01*
X205213000Y-79933078D01*
X205213000Y-80086922D01*
X205243013Y-80237809D01*
X205301887Y-80379942D01*
X205387358Y-80507859D01*
X205495172Y-80615673D01*
X205495322Y-80617192D01*
X205524255Y-80712574D01*
X205571241Y-80800479D01*
X205634473Y-80877527D01*
X205653785Y-80893376D01*
X206188566Y-81428157D01*
X205544000Y-81428157D01*
X205469311Y-81435513D01*
X205397492Y-81457299D01*
X205359000Y-81477874D01*
X205320508Y-81457299D01*
X205248689Y-81435513D01*
X205174000Y-81428157D01*
X204274000Y-81428157D01*
X204199311Y-81435513D01*
X204127492Y-81457299D01*
X204089000Y-81477874D01*
X204050508Y-81457299D01*
X203978689Y-81435513D01*
X203904000Y-81428157D01*
X203004000Y-81428157D01*
X202929311Y-81435513D01*
X202857492Y-81457299D01*
X202819000Y-81477874D01*
X202780508Y-81457299D01*
X202708689Y-81435513D01*
X202634000Y-81428157D01*
X201734000Y-81428157D01*
X201659311Y-81435513D01*
X201587492Y-81457299D01*
X201549000Y-81477874D01*
X201510508Y-81457299D01*
X201438689Y-81435513D01*
X201364000Y-81428157D01*
X200464000Y-81428157D01*
X200389311Y-81435513D01*
X200317492Y-81457299D01*
X200279000Y-81477874D01*
X200240508Y-81457299D01*
X200168689Y-81435513D01*
X200094000Y-81428157D01*
X199194000Y-81428157D01*
X199119311Y-81435513D01*
X199047492Y-81457299D01*
X199009000Y-81477874D01*
X198970508Y-81457299D01*
X198898689Y-81435513D01*
X198824000Y-81428157D01*
X197924000Y-81428157D01*
X197849311Y-81435513D01*
X197777492Y-81457299D01*
X197739000Y-81477874D01*
X197700508Y-81457299D01*
X197628689Y-81435513D01*
X197554000Y-81428157D01*
X196654000Y-81428157D01*
X196579311Y-81435513D01*
X196507492Y-81457299D01*
X196469000Y-81477874D01*
X196430508Y-81457299D01*
X196358689Y-81435513D01*
X196284000Y-81428157D01*
X195384000Y-81428157D01*
X195309311Y-81435513D01*
X195237492Y-81457299D01*
X195199000Y-81477874D01*
X195160508Y-81457299D01*
X195088689Y-81435513D01*
X195014000Y-81428157D01*
X194114000Y-81428157D01*
X194039311Y-81435513D01*
X193967492Y-81457299D01*
X193929000Y-81477874D01*
X193890508Y-81457299D01*
X193818689Y-81435513D01*
X193744000Y-81428157D01*
X192844000Y-81428157D01*
X192769311Y-81435513D01*
X192697492Y-81457299D01*
X192631304Y-81492678D01*
X192573289Y-81540289D01*
X192525678Y-81598304D01*
X192490299Y-81664492D01*
X192468513Y-81736311D01*
X192461157Y-81811000D01*
X192461157Y-83630001D01*
X186497500Y-83630001D01*
X186534642Y-83592859D01*
X186620113Y-83464942D01*
X186678987Y-83322809D01*
X186709000Y-83171922D01*
X186709000Y-83018078D01*
X186678987Y-82867191D01*
X186620113Y-82725058D01*
X186534642Y-82597141D01*
X186425859Y-82488358D01*
X186297942Y-82402887D01*
X186155809Y-82344013D01*
X186004922Y-82314000D01*
X185851078Y-82314000D01*
X185700191Y-82344013D01*
X185558058Y-82402887D01*
X185430141Y-82488358D01*
X185321358Y-82597141D01*
X185235887Y-82725058D01*
X185177013Y-82867191D01*
X185147000Y-83018078D01*
X185147000Y-83171922D01*
X185177013Y-83322809D01*
X185235887Y-83464942D01*
X185321358Y-83592859D01*
X185358500Y-83630001D01*
X181561628Y-83630001D01*
X181598987Y-83539809D01*
X181629000Y-83388922D01*
X181629000Y-83235078D01*
X181598987Y-83084191D01*
X181540113Y-82942058D01*
X181454642Y-82814141D01*
X181442501Y-82802000D01*
X181519499Y-82802000D01*
X181620141Y-82902642D01*
X181748058Y-82988113D01*
X181890191Y-83046987D01*
X182041078Y-83077000D01*
X182194922Y-83077000D01*
X182345809Y-83046987D01*
X182487942Y-82988113D01*
X182615859Y-82902642D01*
X182724642Y-82793859D01*
X182810113Y-82665942D01*
X182868987Y-82523809D01*
X182899000Y-82372922D01*
X182899000Y-82219078D01*
X182868987Y-82068191D01*
X182810113Y-81926058D01*
X182724642Y-81798141D01*
X182615859Y-81689358D01*
X182487942Y-81603887D01*
X182345809Y-81545013D01*
X182194922Y-81515000D01*
X182041078Y-81515000D01*
X181890191Y-81545013D01*
X181748058Y-81603887D01*
X181620141Y-81689358D01*
X181519499Y-81790000D01*
X181277388Y-81790000D01*
X181286113Y-81776942D01*
X181344987Y-81634809D01*
X181375000Y-81483922D01*
X181375000Y-81330078D01*
X181344987Y-81179191D01*
X181286113Y-81037058D01*
X181200642Y-80909141D01*
X181091859Y-80800358D01*
X180963942Y-80714887D01*
X180821809Y-80656013D01*
X180670922Y-80626000D01*
X180517078Y-80626000D01*
X180366191Y-80656013D01*
X180224058Y-80714887D01*
X180096141Y-80800358D01*
X179995499Y-80901000D01*
X178136592Y-80901000D01*
X173179591Y-75944000D01*
X180088000Y-75944000D01*
X180088001Y-76363498D01*
X179987358Y-76464141D01*
X179901887Y-76592058D01*
X179843013Y-76734191D01*
X179813000Y-76885078D01*
X179813000Y-77038922D01*
X179843013Y-77189809D01*
X179901887Y-77331942D01*
X179987358Y-77459859D01*
X180096141Y-77568642D01*
X180224058Y-77654113D01*
X180366191Y-77712987D01*
X180517078Y-77743000D01*
X180670922Y-77743000D01*
X180821809Y-77712987D01*
X180885321Y-77686679D01*
X180859013Y-77750191D01*
X180829000Y-77901078D01*
X180829000Y-78054922D01*
X180859013Y-78205809D01*
X180917887Y-78347942D01*
X181003358Y-78475859D01*
X181112141Y-78584642D01*
X181240058Y-78670113D01*
X181382191Y-78728987D01*
X181533078Y-78759000D01*
X181686922Y-78759000D01*
X181837809Y-78728987D01*
X181979942Y-78670113D01*
X182107859Y-78584642D01*
X182216642Y-78475859D01*
X182302113Y-78347942D01*
X182360987Y-78205809D01*
X182391000Y-78054922D01*
X182391000Y-77901078D01*
X182360987Y-77750191D01*
X182302113Y-77608058D01*
X182216642Y-77480141D01*
X182116000Y-77379499D01*
X182116000Y-75389592D01*
X182607000Y-75880592D01*
X182607000Y-76022922D01*
X182637013Y-76173809D01*
X182695887Y-76315942D01*
X182781358Y-76443859D01*
X182890141Y-76552642D01*
X183018058Y-76638113D01*
X183086879Y-76666620D01*
X183030705Y-76722794D01*
X182945234Y-76850711D01*
X182886360Y-76992844D01*
X182856347Y-77143731D01*
X182856347Y-77297575D01*
X182886360Y-77448462D01*
X182945234Y-77590595D01*
X183030705Y-77718512D01*
X183139488Y-77827295D01*
X183267405Y-77912766D01*
X183409538Y-77971640D01*
X183560425Y-78001653D01*
X183714269Y-78001653D01*
X183865156Y-77971640D01*
X184007289Y-77912766D01*
X184135206Y-77827295D01*
X184243989Y-77718512D01*
X184329460Y-77590595D01*
X184388334Y-77448462D01*
X184418347Y-77297575D01*
X184418347Y-77155245D01*
X184453221Y-77120371D01*
X184472528Y-77104526D01*
X184535760Y-77027478D01*
X184582746Y-76939574D01*
X184611679Y-76844192D01*
X184619001Y-76769853D01*
X184619001Y-76769846D01*
X184621448Y-76745000D01*
X184619001Y-76720154D01*
X184619001Y-67556590D01*
X189554598Y-62620993D01*
X189553887Y-62622058D01*
X189495013Y-62764191D01*
X189465000Y-62915078D01*
X189465000Y-63057408D01*
X184825781Y-67696628D01*
X184806474Y-67712473D01*
X184743242Y-67789521D01*
X184729089Y-67816000D01*
X184696255Y-67877426D01*
X184667322Y-67972808D01*
X184657553Y-68072000D01*
X184660001Y-68096856D01*
X184660000Y-77379499D01*
X184559358Y-77480141D01*
X184473887Y-77608058D01*
X184415013Y-77750191D01*
X184385000Y-77901078D01*
X184385000Y-78054922D01*
X184415013Y-78205809D01*
X184473887Y-78347942D01*
X184559358Y-78475859D01*
X184668141Y-78584642D01*
X184796058Y-78670113D01*
X184938191Y-78728987D01*
X185089078Y-78759000D01*
X185242922Y-78759000D01*
X185393809Y-78728987D01*
X185535942Y-78670113D01*
X185663859Y-78584642D01*
X185772642Y-78475859D01*
X185858113Y-78347942D01*
X185916987Y-78205809D01*
X185947000Y-78054922D01*
X185947000Y-77901078D01*
X185916987Y-77750191D01*
X185858113Y-77608058D01*
X185772642Y-77480141D01*
X185672000Y-77379499D01*
X185672000Y-68281591D01*
X190180592Y-63773000D01*
X190322922Y-63773000D01*
X190473809Y-63742987D01*
X190537321Y-63716679D01*
X190511013Y-63780191D01*
X190508728Y-63791680D01*
X188635781Y-65664628D01*
X188616474Y-65680473D01*
X188553242Y-65757521D01*
X188537942Y-65786146D01*
X188506255Y-65845426D01*
X188477322Y-65940808D01*
X188467553Y-66040000D01*
X188470001Y-66064856D01*
X188470000Y-66826853D01*
X188470001Y-66826863D01*
X188470000Y-74331499D01*
X188369358Y-74432141D01*
X188283887Y-74560058D01*
X188225013Y-74702191D01*
X188195000Y-74853078D01*
X188195000Y-75006922D01*
X188225013Y-75157809D01*
X188283887Y-75299942D01*
X188369358Y-75427859D01*
X188478141Y-75536642D01*
X188606058Y-75622113D01*
X188748191Y-75680987D01*
X188899078Y-75711000D01*
X189052922Y-75711000D01*
X189203809Y-75680987D01*
X189345942Y-75622113D01*
X189473859Y-75536642D01*
X189582642Y-75427859D01*
X189668113Y-75299942D01*
X189726987Y-75157809D01*
X189757000Y-75006922D01*
X189757000Y-74853078D01*
X189726987Y-74702191D01*
X189668113Y-74560058D01*
X189582642Y-74432141D01*
X189482000Y-74331499D01*
X189482000Y-68146000D01*
X190911157Y-68146000D01*
X190911157Y-69046000D01*
X190918513Y-69120689D01*
X190940299Y-69192508D01*
X190960874Y-69231000D01*
X190940299Y-69269492D01*
X190918513Y-69341311D01*
X190911157Y-69416000D01*
X190911157Y-70316000D01*
X190918513Y-70390689D01*
X190940299Y-70462508D01*
X190960874Y-70501000D01*
X190940299Y-70539492D01*
X190918513Y-70611311D01*
X190911157Y-70686000D01*
X190911157Y-71586000D01*
X190918513Y-71660689D01*
X190940299Y-71732508D01*
X190960874Y-71771000D01*
X190940299Y-71809492D01*
X190918513Y-71881311D01*
X190911157Y-71956000D01*
X190911157Y-72856000D01*
X190918513Y-72930689D01*
X190940299Y-73002508D01*
X190960874Y-73041000D01*
X190940299Y-73079492D01*
X190918513Y-73151311D01*
X190911157Y-73226000D01*
X190911157Y-74126000D01*
X190918513Y-74200689D01*
X190940299Y-74272508D01*
X190960874Y-74311000D01*
X190940299Y-74349492D01*
X190918513Y-74421311D01*
X190911157Y-74496000D01*
X190911157Y-75396000D01*
X190918513Y-75470689D01*
X190940299Y-75542508D01*
X190960874Y-75581000D01*
X190940299Y-75619492D01*
X190918513Y-75691311D01*
X190911157Y-75766000D01*
X190911157Y-76666000D01*
X190918513Y-76740689D01*
X190940299Y-76812508D01*
X190960874Y-76851000D01*
X190940299Y-76889492D01*
X190918513Y-76961311D01*
X190911157Y-77036000D01*
X190911157Y-77936000D01*
X190918513Y-78010689D01*
X190940299Y-78082508D01*
X190960874Y-78121000D01*
X190940299Y-78159492D01*
X190918513Y-78231311D01*
X190911157Y-78306000D01*
X190911157Y-79206000D01*
X190918513Y-79280689D01*
X190940299Y-79352508D01*
X190975678Y-79418696D01*
X191023289Y-79476711D01*
X191081304Y-79524322D01*
X191147492Y-79559701D01*
X191219311Y-79581487D01*
X191294000Y-79588843D01*
X193294000Y-79588843D01*
X193368689Y-79581487D01*
X193440508Y-79559701D01*
X193506696Y-79524322D01*
X193564711Y-79476711D01*
X193612322Y-79418696D01*
X193647701Y-79352508D01*
X193669487Y-79280689D01*
X193676843Y-79206000D01*
X193676843Y-78306000D01*
X193669487Y-78231311D01*
X193647701Y-78159492D01*
X193627126Y-78121000D01*
X193647701Y-78082508D01*
X193669487Y-78010689D01*
X193676843Y-77936000D01*
X193676843Y-77036000D01*
X193669487Y-76961311D01*
X193647701Y-76889492D01*
X193627126Y-76851000D01*
X193647701Y-76812508D01*
X193669487Y-76740689D01*
X193676843Y-76666000D01*
X193676843Y-75766000D01*
X193669487Y-75691311D01*
X193647701Y-75619492D01*
X193627126Y-75581000D01*
X193647701Y-75542508D01*
X193669487Y-75470689D01*
X193676843Y-75396000D01*
X193676843Y-74496000D01*
X193669487Y-74421311D01*
X193647701Y-74349492D01*
X193627126Y-74311000D01*
X193647701Y-74272508D01*
X193669487Y-74200689D01*
X193676843Y-74126000D01*
X193676843Y-73226000D01*
X193669487Y-73151311D01*
X193647701Y-73079492D01*
X193627126Y-73041000D01*
X193647701Y-73002508D01*
X193669487Y-72930689D01*
X193676843Y-72856000D01*
X193676843Y-71956000D01*
X193669487Y-71881311D01*
X193647701Y-71809492D01*
X193627126Y-71771000D01*
X193647701Y-71732508D01*
X193669487Y-71660689D01*
X193676843Y-71586000D01*
X193676843Y-70686000D01*
X193669487Y-70611311D01*
X193647701Y-70539492D01*
X193627126Y-70501000D01*
X193647701Y-70462508D01*
X193669487Y-70390689D01*
X193676843Y-70316000D01*
X193676843Y-69416000D01*
X193669487Y-69341311D01*
X193647701Y-69269492D01*
X193627126Y-69231000D01*
X193647701Y-69192508D01*
X193669487Y-69120689D01*
X193676843Y-69046000D01*
X193676843Y-68146000D01*
X193669487Y-68071311D01*
X193647701Y-67999492D01*
X193612322Y-67933304D01*
X193564711Y-67875289D01*
X193506696Y-67827678D01*
X193440508Y-67792299D01*
X193368689Y-67770513D01*
X193294000Y-67763157D01*
X191294000Y-67763157D01*
X191219311Y-67770513D01*
X191147492Y-67792299D01*
X191081304Y-67827678D01*
X191023289Y-67875289D01*
X190975678Y-67933304D01*
X190940299Y-67999492D01*
X190918513Y-68071311D01*
X190911157Y-68146000D01*
X189482000Y-68146000D01*
X189482000Y-66249591D01*
X190920591Y-64811000D01*
X192461157Y-64811000D01*
X192461157Y-66811000D01*
X192468513Y-66885689D01*
X192490299Y-66957508D01*
X192525678Y-67023696D01*
X192573289Y-67081711D01*
X192631304Y-67129322D01*
X192697492Y-67164701D01*
X192769311Y-67186487D01*
X192844000Y-67193843D01*
X193744000Y-67193843D01*
X193818689Y-67186487D01*
X193890508Y-67164701D01*
X193929000Y-67144126D01*
X193967492Y-67164701D01*
X194039311Y-67186487D01*
X194114000Y-67193843D01*
X195014000Y-67193843D01*
X195088689Y-67186487D01*
X195160508Y-67164701D01*
X195199000Y-67144126D01*
X195237492Y-67164701D01*
X195309311Y-67186487D01*
X195328000Y-67188328D01*
X195328000Y-67727499D01*
X195227358Y-67828141D01*
X195141887Y-67956058D01*
X195083013Y-68098191D01*
X195053000Y-68249078D01*
X195053000Y-68402922D01*
X195083013Y-68553809D01*
X195141887Y-68695942D01*
X195227358Y-68823859D01*
X195336141Y-68932642D01*
X195464058Y-69018113D01*
X195606191Y-69076987D01*
X195757078Y-69107000D01*
X195910922Y-69107000D01*
X196061809Y-69076987D01*
X196203942Y-69018113D01*
X196331859Y-68932642D01*
X196440642Y-68823859D01*
X196526113Y-68695942D01*
X196584987Y-68553809D01*
X196598001Y-68488384D01*
X196598001Y-69132407D01*
X196407408Y-69323000D01*
X196265078Y-69323000D01*
X196114191Y-69353013D01*
X195972058Y-69411887D01*
X195844141Y-69497358D01*
X195735358Y-69606141D01*
X195649887Y-69734058D01*
X195591013Y-69876191D01*
X195561000Y-70027078D01*
X195561000Y-70180922D01*
X195591013Y-70331809D01*
X195649887Y-70473942D01*
X195735358Y-70601859D01*
X195844141Y-70710642D01*
X195972058Y-70796113D01*
X196114191Y-70854987D01*
X196265078Y-70885000D01*
X196418922Y-70885000D01*
X196569809Y-70854987D01*
X196711942Y-70796113D01*
X196839859Y-70710642D01*
X196948642Y-70601859D01*
X197034113Y-70473942D01*
X197092987Y-70331809D01*
X197123000Y-70180922D01*
X197123000Y-70038592D01*
X197444220Y-69717372D01*
X197463527Y-69701527D01*
X197526759Y-69624479D01*
X197573745Y-69536575D01*
X197602678Y-69441193D01*
X197610000Y-69366854D01*
X197612448Y-69342000D01*
X197610000Y-69317146D01*
X197610000Y-67188328D01*
X197628689Y-67186487D01*
X197700508Y-67164701D01*
X197739000Y-67144126D01*
X197777492Y-67164701D01*
X197849311Y-67186487D01*
X197924000Y-67193843D01*
X198824000Y-67193843D01*
X198898689Y-67186487D01*
X198970508Y-67164701D01*
X199009000Y-67144126D01*
X199047492Y-67164701D01*
X199119311Y-67186487D01*
X199194000Y-67193843D01*
X200094000Y-67193843D01*
X200168689Y-67186487D01*
X200240508Y-67164701D01*
X200279000Y-67144126D01*
X200317492Y-67164701D01*
X200389311Y-67186487D01*
X200464000Y-67193843D01*
X201364000Y-67193843D01*
X201438689Y-67186487D01*
X201510508Y-67164701D01*
X201549000Y-67144126D01*
X201587492Y-67164701D01*
X201659311Y-67186487D01*
X201734000Y-67193843D01*
X202634000Y-67193843D01*
X202708689Y-67186487D01*
X202780508Y-67164701D01*
X202819000Y-67144126D01*
X202857492Y-67164701D01*
X202929311Y-67186487D01*
X203004000Y-67193843D01*
X203904000Y-67193843D01*
X203978689Y-67186487D01*
X204050508Y-67164701D01*
X204089000Y-67144126D01*
X204127492Y-67164701D01*
X204199311Y-67186487D01*
X204274000Y-67193843D01*
X205174000Y-67193843D01*
X205248689Y-67186487D01*
X205320508Y-67164701D01*
X205359000Y-67144126D01*
X205397492Y-67164701D01*
X205469311Y-67186487D01*
X205544000Y-67193843D01*
X206444000Y-67193843D01*
X206518689Y-67186487D01*
X206590508Y-67164701D01*
X206629000Y-67144126D01*
X206667492Y-67164701D01*
X206739311Y-67186487D01*
X206814000Y-67193843D01*
X207714000Y-67193843D01*
X207788689Y-67186487D01*
X207860508Y-67164701D01*
X207899000Y-67144126D01*
X207937492Y-67164701D01*
X208009311Y-67186487D01*
X208084000Y-67193843D01*
X208984000Y-67193843D01*
X209058689Y-67186487D01*
X209130508Y-67164701D01*
X209196696Y-67129322D01*
X209254711Y-67081711D01*
X209302322Y-67023696D01*
X209337701Y-66957508D01*
X209359487Y-66885689D01*
X209366843Y-66811000D01*
X209366843Y-64811000D01*
X209359487Y-64736311D01*
X209337701Y-64664492D01*
X209302322Y-64598304D01*
X209254711Y-64540289D01*
X209196696Y-64492678D01*
X209130508Y-64457299D01*
X209058689Y-64435513D01*
X208984000Y-64428157D01*
X208084000Y-64428157D01*
X208009311Y-64435513D01*
X207937492Y-64457299D01*
X207899000Y-64477874D01*
X207860508Y-64457299D01*
X207788689Y-64435513D01*
X207714000Y-64428157D01*
X206814000Y-64428157D01*
X206739311Y-64435513D01*
X206667492Y-64457299D01*
X206629000Y-64477874D01*
X206590508Y-64457299D01*
X206518689Y-64435513D01*
X206500000Y-64433672D01*
X206500000Y-64217591D01*
X207970833Y-62746758D01*
X208047931Y-62778693D01*
X208285757Y-62826000D01*
X208528243Y-62826000D01*
X208766069Y-62778693D01*
X208990097Y-62685898D01*
X209191717Y-62551180D01*
X209363180Y-62379717D01*
X209497898Y-62178097D01*
X209590693Y-61954069D01*
X209638000Y-61716243D01*
X209638000Y-61473757D01*
X209590693Y-61235931D01*
X209497898Y-61011903D01*
X209363180Y-60810283D01*
X209191717Y-60638820D01*
X208990097Y-60504102D01*
X208766069Y-60411307D01*
X208528243Y-60364000D01*
X208285757Y-60364000D01*
X208047931Y-60411307D01*
X207823903Y-60504102D01*
X207622283Y-60638820D01*
X207450820Y-60810283D01*
X207316102Y-61011903D01*
X207223307Y-61235931D01*
X207176000Y-61473757D01*
X207176000Y-61716243D01*
X207223307Y-61954069D01*
X207255242Y-62031167D01*
X205653785Y-63632624D01*
X205634473Y-63648473D01*
X205571241Y-63725521D01*
X205524255Y-63813426D01*
X205495322Y-63908808D01*
X205488000Y-63983147D01*
X205488000Y-63983154D01*
X205485553Y-64008000D01*
X205488000Y-64032847D01*
X205488000Y-64433672D01*
X205469311Y-64435513D01*
X205397492Y-64457299D01*
X205359000Y-64477874D01*
X205320508Y-64457299D01*
X205248689Y-64435513D01*
X205230000Y-64433672D01*
X205230000Y-62947591D01*
X207889749Y-60287843D01*
X209257000Y-60287843D01*
X209331689Y-60280487D01*
X209403508Y-60258701D01*
X209469696Y-60223322D01*
X209527711Y-60175711D01*
X209575322Y-60117696D01*
X209610701Y-60051508D01*
X209632487Y-59979689D01*
X209639843Y-59905000D01*
X209639843Y-58205000D01*
X209632487Y-58130311D01*
X209610701Y-58058492D01*
X209575322Y-57992304D01*
X209527711Y-57934289D01*
X209469696Y-57886678D01*
X209403508Y-57851299D01*
X209331689Y-57829513D01*
X209257000Y-57822157D01*
X207557000Y-57822157D01*
X207482311Y-57829513D01*
X207410492Y-57851299D01*
X207344304Y-57886678D01*
X207286289Y-57934289D01*
X207238678Y-57992304D01*
X207203299Y-58058492D01*
X207181513Y-58130311D01*
X207174157Y-58205000D01*
X207174157Y-59572251D01*
X204383781Y-62362628D01*
X204364474Y-62378473D01*
X204301242Y-62455521D01*
X204281037Y-62493322D01*
X204254255Y-62543426D01*
X204225322Y-62638808D01*
X204215553Y-62738000D01*
X204218001Y-62762854D01*
X204218000Y-64433672D01*
X204199311Y-64435513D01*
X204127492Y-64457299D01*
X204089000Y-64477874D01*
X204050508Y-64457299D01*
X203978689Y-64435513D01*
X203904000Y-64428157D01*
X203004000Y-64428157D01*
X202929311Y-64435513D01*
X202857492Y-64457299D01*
X202819000Y-64477874D01*
X202780508Y-64457299D01*
X202708689Y-64435513D01*
X202634000Y-64428157D01*
X201734000Y-64428157D01*
X201659311Y-64435513D01*
X201587492Y-64457299D01*
X201549000Y-64477874D01*
X201510508Y-64457299D01*
X201438689Y-64435513D01*
X201364000Y-64428157D01*
X200464000Y-64428157D01*
X200389311Y-64435513D01*
X200317492Y-64457299D01*
X200279000Y-64477874D01*
X200240508Y-64457299D01*
X200168689Y-64435513D01*
X200094000Y-64428157D01*
X200066434Y-64428157D01*
X201874833Y-62619758D01*
X201951931Y-62651693D01*
X202189757Y-62699000D01*
X202432243Y-62699000D01*
X202670069Y-62651693D01*
X202894097Y-62558898D01*
X203095717Y-62424180D01*
X203267180Y-62252717D01*
X203401898Y-62051097D01*
X203494693Y-61827069D01*
X203542000Y-61589243D01*
X203542000Y-61346757D01*
X203494693Y-61108931D01*
X203401898Y-60884903D01*
X203267180Y-60683283D01*
X203095717Y-60511820D01*
X202894097Y-60377102D01*
X202670069Y-60284307D01*
X202432243Y-60237000D01*
X202189757Y-60237000D01*
X201951931Y-60284307D01*
X201727903Y-60377102D01*
X201526283Y-60511820D01*
X201354820Y-60683283D01*
X201220102Y-60884903D01*
X201127307Y-61108931D01*
X201080000Y-61346757D01*
X201080000Y-61589243D01*
X201127307Y-61827069D01*
X201159242Y-61904167D01*
X199307409Y-63756000D01*
X194102852Y-63756000D01*
X194077998Y-63753552D01*
X194053144Y-63756000D01*
X193978805Y-63763322D01*
X193883423Y-63792255D01*
X193795519Y-63839241D01*
X193718471Y-63902473D01*
X193702628Y-63921778D01*
X193196250Y-64428157D01*
X192844000Y-64428157D01*
X192769311Y-64435513D01*
X192697492Y-64457299D01*
X192631304Y-64492678D01*
X192573289Y-64540289D01*
X192525678Y-64598304D01*
X192490299Y-64664492D01*
X192468513Y-64736311D01*
X192461157Y-64811000D01*
X190920591Y-64811000D01*
X190990643Y-64740949D01*
X191034191Y-64758987D01*
X191185078Y-64789000D01*
X191338922Y-64789000D01*
X191489809Y-64758987D01*
X191631942Y-64700113D01*
X191759859Y-64614642D01*
X191868642Y-64505859D01*
X191954113Y-64377942D01*
X192012987Y-64235809D01*
X192043000Y-64084922D01*
X192043000Y-63931078D01*
X192012987Y-63780191D01*
X191954113Y-63638058D01*
X191868642Y-63510141D01*
X191759859Y-63401358D01*
X191631942Y-63315887D01*
X191489809Y-63257013D01*
X191338922Y-63227000D01*
X191185078Y-63227000D01*
X191034191Y-63257013D01*
X190970679Y-63283321D01*
X190996987Y-63219809D01*
X191027000Y-63068922D01*
X191027000Y-62915078D01*
X190996987Y-62764191D01*
X190938113Y-62622058D01*
X190852642Y-62494141D01*
X190743859Y-62385358D01*
X190615942Y-62299887D01*
X190473809Y-62241013D01*
X190322922Y-62211000D01*
X190169078Y-62211000D01*
X190018191Y-62241013D01*
X189876058Y-62299887D01*
X189874994Y-62300598D01*
X190688592Y-61487000D01*
X190830922Y-61487000D01*
X190981809Y-61456987D01*
X191123942Y-61398113D01*
X191251859Y-61312642D01*
X191360642Y-61203859D01*
X191446113Y-61075942D01*
X191504987Y-60933809D01*
X191535000Y-60782922D01*
X191535000Y-60629078D01*
X191504987Y-60478191D01*
X191446113Y-60336058D01*
X191360642Y-60208141D01*
X191251859Y-60099358D01*
X191123942Y-60013887D01*
X190981809Y-59955013D01*
X190830922Y-59925000D01*
X190677078Y-59925000D01*
X190526191Y-59955013D01*
X190384058Y-60013887D01*
X190256141Y-60099358D01*
X190147358Y-60208141D01*
X190061887Y-60336058D01*
X190003013Y-60478191D01*
X189973000Y-60629078D01*
X189973000Y-60771408D01*
X183772782Y-66971627D01*
X183753475Y-66987472D01*
X183690243Y-67064520D01*
X183681054Y-67081711D01*
X183643256Y-67152425D01*
X183614323Y-67247807D01*
X183604554Y-67346999D01*
X183607002Y-67371855D01*
X183607001Y-75193261D01*
X183464922Y-75165000D01*
X183322592Y-75165000D01*
X181477376Y-73319785D01*
X181461527Y-73300473D01*
X181384479Y-73237241D01*
X181296575Y-73190255D01*
X181201193Y-73161322D01*
X181126854Y-73154000D01*
X181126846Y-73154000D01*
X181102000Y-73151553D01*
X181077154Y-73154000D01*
X173183592Y-73154000D01*
X164967376Y-64937785D01*
X164951527Y-64918473D01*
X164874479Y-64855241D01*
X164786575Y-64808255D01*
X164691193Y-64779322D01*
X164616854Y-64772000D01*
X164616846Y-64772000D01*
X164592000Y-64769553D01*
X164567154Y-64772000D01*
X149815592Y-64772000D01*
X147572000Y-62528409D01*
X147572000Y-53172501D01*
X147576001Y-53176502D01*
X147576000Y-58960148D01*
X147576000Y-58960149D01*
X147576001Y-62205144D01*
X147573553Y-62230000D01*
X147583322Y-62329192D01*
X147612255Y-62424574D01*
X147612256Y-62424575D01*
X147659242Y-62512479D01*
X147722474Y-62589527D01*
X147741781Y-62605372D01*
X149738628Y-64602220D01*
X149754473Y-64621527D01*
X149831521Y-64684759D01*
X149919425Y-64731745D01*
X150014807Y-64760678D01*
X150089146Y-64768000D01*
X150089154Y-64768000D01*
X150114000Y-64770447D01*
X150138846Y-64768000D01*
X165144409Y-64768000D01*
X170820628Y-70444220D01*
X170836473Y-70463527D01*
X170913521Y-70526759D01*
X171001425Y-70573745D01*
X171096807Y-70602678D01*
X171196000Y-70612448D01*
X171220854Y-70610000D01*
X177709499Y-70610000D01*
X177810141Y-70710642D01*
X177938058Y-70796113D01*
X178080191Y-70854987D01*
X178231078Y-70885000D01*
X178384922Y-70885000D01*
X178535809Y-70854987D01*
X178677942Y-70796113D01*
X178805859Y-70710642D01*
X178914642Y-70601859D01*
X179000113Y-70473942D01*
X179058987Y-70331809D01*
X179089000Y-70180922D01*
X179089000Y-70027078D01*
X179058987Y-69876191D01*
X179016276Y-69773078D01*
X180829000Y-69773078D01*
X180829000Y-69926922D01*
X180859013Y-70077809D01*
X180917887Y-70219942D01*
X181003358Y-70347859D01*
X181112141Y-70456642D01*
X181240058Y-70542113D01*
X181382191Y-70600987D01*
X181533078Y-70631000D01*
X181686922Y-70631000D01*
X181837809Y-70600987D01*
X181979942Y-70542113D01*
X182107859Y-70456642D01*
X182216642Y-70347859D01*
X182302113Y-70219942D01*
X182360987Y-70077809D01*
X182391000Y-69926922D01*
X182391000Y-69773078D01*
X182360987Y-69622191D01*
X182302113Y-69480058D01*
X182216642Y-69352141D01*
X182116000Y-69251499D01*
X182116000Y-67265591D01*
X190709592Y-58672000D01*
X199045499Y-58672000D01*
X199146141Y-58772642D01*
X199274058Y-58858113D01*
X199416191Y-58916987D01*
X199567078Y-58947000D01*
X199720922Y-58947000D01*
X199871809Y-58916987D01*
X200013942Y-58858113D01*
X200141859Y-58772642D01*
X200250642Y-58663859D01*
X200336113Y-58535942D01*
X200394987Y-58393809D01*
X200425000Y-58242922D01*
X200425000Y-58089078D01*
X200394987Y-57938191D01*
X200336113Y-57796058D01*
X200250642Y-57668141D01*
X200141859Y-57559358D01*
X200013942Y-57473887D01*
X199871809Y-57415013D01*
X199720922Y-57385000D01*
X199567078Y-57385000D01*
X199416191Y-57415013D01*
X199274058Y-57473887D01*
X199146141Y-57559358D01*
X199045499Y-57660000D01*
X190524854Y-57660000D01*
X190500000Y-57657552D01*
X190475146Y-57660000D01*
X190400807Y-57667322D01*
X190305425Y-57696255D01*
X190217521Y-57743241D01*
X190140473Y-57806473D01*
X190124628Y-57825780D01*
X181269781Y-66680628D01*
X181250474Y-66696473D01*
X181187242Y-66773521D01*
X181171780Y-66802448D01*
X181140255Y-66861426D01*
X181111322Y-66956808D01*
X181101553Y-67056000D01*
X181104001Y-67080856D01*
X181104000Y-69251499D01*
X181003358Y-69352141D01*
X180917887Y-69480058D01*
X180859013Y-69622191D01*
X180829000Y-69773078D01*
X179016276Y-69773078D01*
X179000113Y-69734058D01*
X178914642Y-69606141D01*
X178805859Y-69497358D01*
X178677942Y-69411887D01*
X178535809Y-69353013D01*
X178384922Y-69323000D01*
X178231078Y-69323000D01*
X178080191Y-69353013D01*
X177938058Y-69411887D01*
X177810141Y-69497358D01*
X177709499Y-69598000D01*
X171405592Y-69598000D01*
X167218349Y-65410757D01*
X171489000Y-65410757D01*
X171489000Y-65653243D01*
X171536307Y-65891069D01*
X171629102Y-66115097D01*
X171763820Y-66316717D01*
X171935283Y-66488180D01*
X172136903Y-66622898D01*
X172360931Y-66715693D01*
X172598757Y-66763000D01*
X172841243Y-66763000D01*
X173079069Y-66715693D01*
X173303097Y-66622898D01*
X173504717Y-66488180D01*
X173676180Y-66316717D01*
X173810898Y-66115097D01*
X173903693Y-65891069D01*
X173951000Y-65653243D01*
X173951000Y-65410757D01*
X173903693Y-65172931D01*
X173810898Y-64948903D01*
X173676180Y-64747283D01*
X173610897Y-64682000D01*
X174027157Y-64682000D01*
X174027157Y-66382000D01*
X174034513Y-66456689D01*
X174056299Y-66528508D01*
X174091678Y-66594696D01*
X174139289Y-66652711D01*
X174197304Y-66700322D01*
X174263492Y-66735701D01*
X174335311Y-66757487D01*
X174410000Y-66764843D01*
X176110000Y-66764843D01*
X176184689Y-66757487D01*
X176256508Y-66735701D01*
X176322696Y-66700322D01*
X176380711Y-66652711D01*
X176428322Y-66594696D01*
X176463701Y-66528508D01*
X176485487Y-66456689D01*
X176492843Y-66382000D01*
X176492843Y-64682000D01*
X176485487Y-64607311D01*
X176463701Y-64535492D01*
X176428322Y-64469304D01*
X176380711Y-64411289D01*
X176322696Y-64363678D01*
X176256508Y-64328299D01*
X176184689Y-64306513D01*
X176110000Y-64299157D01*
X174410000Y-64299157D01*
X174335311Y-64306513D01*
X174263492Y-64328299D01*
X174197304Y-64363678D01*
X174139289Y-64411289D01*
X174091678Y-64469304D01*
X174056299Y-64535492D01*
X174034513Y-64607311D01*
X174027157Y-64682000D01*
X173610897Y-64682000D01*
X173504717Y-64575820D01*
X173303097Y-64441102D01*
X173079069Y-64348307D01*
X172841243Y-64301000D01*
X172598757Y-64301000D01*
X172360931Y-64348307D01*
X172136903Y-64441102D01*
X171935283Y-64575820D01*
X171763820Y-64747283D01*
X171629102Y-64948903D01*
X171536307Y-65172931D01*
X171489000Y-65410757D01*
X167218349Y-65410757D01*
X165729376Y-63921785D01*
X165713527Y-63902473D01*
X165636479Y-63839241D01*
X165548575Y-63792255D01*
X165453193Y-63763322D01*
X165378854Y-63756000D01*
X165378846Y-63756000D01*
X165354000Y-63753553D01*
X165329154Y-63756000D01*
X150323592Y-63756000D01*
X148588000Y-62020409D01*
X148588000Y-60629088D01*
X168382990Y-60629088D01*
X168382990Y-60782932D01*
X168413003Y-60933819D01*
X168471877Y-61075952D01*
X168557348Y-61203869D01*
X168666131Y-61312652D01*
X168794048Y-61398123D01*
X168936181Y-61456997D01*
X169087068Y-61487010D01*
X169240912Y-61487010D01*
X169391799Y-61456997D01*
X169533932Y-61398123D01*
X169661849Y-61312652D01*
X169762491Y-61212010D01*
X176566509Y-61212010D01*
X176667141Y-61312642D01*
X176795058Y-61398113D01*
X176937191Y-61456987D01*
X177088078Y-61487000D01*
X177241922Y-61487000D01*
X177392809Y-61456987D01*
X177534942Y-61398113D01*
X177662859Y-61312642D01*
X177771642Y-61203859D01*
X177857113Y-61075942D01*
X177915987Y-60933809D01*
X177946000Y-60782922D01*
X177946000Y-60629078D01*
X177915987Y-60478191D01*
X177857113Y-60336058D01*
X177771642Y-60208141D01*
X177662859Y-60099358D01*
X177534942Y-60013887D01*
X177392809Y-59955013D01*
X177241922Y-59925000D01*
X177088078Y-59925000D01*
X176937191Y-59955013D01*
X176795058Y-60013887D01*
X176667141Y-60099358D01*
X176566489Y-60200010D01*
X169762491Y-60200010D01*
X169661849Y-60099368D01*
X169533932Y-60013897D01*
X169391799Y-59955023D01*
X169240912Y-59925010D01*
X169087068Y-59925010D01*
X168936181Y-59955023D01*
X168794048Y-60013897D01*
X168666131Y-60099368D01*
X168557348Y-60208151D01*
X168471877Y-60336068D01*
X168413003Y-60478201D01*
X168382990Y-60629088D01*
X148588000Y-60629088D01*
X148588000Y-59413310D01*
X148616191Y-59424987D01*
X148767078Y-59455000D01*
X148920922Y-59455000D01*
X149071809Y-59424987D01*
X149213942Y-59366113D01*
X149341859Y-59280642D01*
X149450642Y-59171859D01*
X149536113Y-59043942D01*
X149594987Y-58901809D01*
X149625000Y-58750922D01*
X149625000Y-58608592D01*
X149692220Y-58541372D01*
X149711527Y-58525527D01*
X149774759Y-58448479D01*
X149821745Y-58360575D01*
X149850678Y-58265193D01*
X149858000Y-58190854D01*
X149858000Y-58190847D01*
X149860447Y-58166001D01*
X149858000Y-58141155D01*
X149858000Y-56393757D01*
X153074000Y-56393757D01*
X153074000Y-56636243D01*
X153121307Y-56874069D01*
X153214102Y-57098097D01*
X153348820Y-57299717D01*
X153520283Y-57471180D01*
X153721903Y-57605898D01*
X153945931Y-57698693D01*
X154183757Y-57746000D01*
X154426243Y-57746000D01*
X154664069Y-57698693D01*
X154888097Y-57605898D01*
X155089717Y-57471180D01*
X155261180Y-57299717D01*
X155395898Y-57098097D01*
X155488693Y-56874069D01*
X155536000Y-56636243D01*
X155536000Y-56393757D01*
X155488693Y-56155931D01*
X155395898Y-55931903D01*
X155261180Y-55730283D01*
X155162654Y-55631757D01*
X171235000Y-55631757D01*
X171235000Y-55874243D01*
X171282307Y-56112069D01*
X171375102Y-56336097D01*
X171509820Y-56537717D01*
X171681283Y-56709180D01*
X171882903Y-56843898D01*
X172106931Y-56936693D01*
X172344757Y-56984000D01*
X172587243Y-56984000D01*
X172825069Y-56936693D01*
X173049097Y-56843898D01*
X173250717Y-56709180D01*
X173422180Y-56537717D01*
X173556898Y-56336097D01*
X173649693Y-56112069D01*
X173697000Y-55874243D01*
X173697000Y-55631757D01*
X173649693Y-55393931D01*
X173556898Y-55169903D01*
X173422180Y-54968283D01*
X173250717Y-54796820D01*
X173049097Y-54662102D01*
X172825069Y-54569307D01*
X172587243Y-54522000D01*
X172344757Y-54522000D01*
X172106931Y-54569307D01*
X171882903Y-54662102D01*
X171681283Y-54796820D01*
X171509820Y-54968283D01*
X171375102Y-55169903D01*
X171282307Y-55393931D01*
X171235000Y-55631757D01*
X155162654Y-55631757D01*
X155089717Y-55558820D01*
X154888097Y-55424102D01*
X154664069Y-55331307D01*
X154426243Y-55284000D01*
X154183757Y-55284000D01*
X153945931Y-55331307D01*
X153721903Y-55424102D01*
X153520283Y-55558820D01*
X153348820Y-55730283D01*
X153214102Y-55931903D01*
X153121307Y-56155931D01*
X153074000Y-56393757D01*
X149858000Y-56393757D01*
X149858000Y-53176501D01*
X149958642Y-53075859D01*
X150044113Y-52947942D01*
X150102987Y-52805809D01*
X150133000Y-52654922D01*
X150133000Y-52501078D01*
X150104739Y-52358999D01*
X151211408Y-52358999D01*
X151365000Y-52512591D01*
X151365000Y-52654922D01*
X151395013Y-52805809D01*
X151453887Y-52947942D01*
X151539358Y-53075859D01*
X151648141Y-53184642D01*
X151776058Y-53270113D01*
X151918191Y-53328987D01*
X152069078Y-53359000D01*
X152222922Y-53359000D01*
X152373809Y-53328987D01*
X152515942Y-53270113D01*
X152643859Y-53184642D01*
X152736744Y-53091757D01*
X171235000Y-53091757D01*
X171235000Y-53334243D01*
X171282307Y-53572069D01*
X171375102Y-53796097D01*
X171509820Y-53997717D01*
X171681283Y-54169180D01*
X171882903Y-54303898D01*
X172106931Y-54396693D01*
X172344757Y-54444000D01*
X172587243Y-54444000D01*
X172825069Y-54396693D01*
X173049097Y-54303898D01*
X173250717Y-54169180D01*
X173422180Y-53997717D01*
X173556898Y-53796097D01*
X173593394Y-53707987D01*
X180937000Y-53707987D01*
X180937000Y-54496012D01*
X180949965Y-54627646D01*
X181001199Y-54796542D01*
X181084399Y-54952198D01*
X181196367Y-55088633D01*
X181202001Y-55093256D01*
X181202001Y-55436000D01*
X181198948Y-55467000D01*
X181211130Y-55590697D01*
X181247211Y-55709641D01*
X181305804Y-55819260D01*
X181364897Y-55891265D01*
X181364900Y-55891268D01*
X181384658Y-55915343D01*
X181408733Y-55935101D01*
X183555899Y-58082268D01*
X183575657Y-58106343D01*
X183599732Y-58126101D01*
X183599734Y-58126103D01*
X183671739Y-58185196D01*
X183781358Y-58243789D01*
X183900302Y-58279870D01*
X183993002Y-58289000D01*
X183993009Y-58289000D01*
X184024000Y-58292052D01*
X184054990Y-58289000D01*
X186990595Y-58289000D01*
X187082058Y-58350113D01*
X187224191Y-58408987D01*
X187375078Y-58439000D01*
X187528922Y-58439000D01*
X187679809Y-58408987D01*
X187821942Y-58350113D01*
X187949859Y-58264642D01*
X188058642Y-58155859D01*
X188144113Y-58027942D01*
X188202987Y-57885809D01*
X188233000Y-57734922D01*
X188233000Y-57581078D01*
X188202987Y-57430191D01*
X188144113Y-57288058D01*
X188058642Y-57160141D01*
X187949859Y-57051358D01*
X187821942Y-56965887D01*
X187679809Y-56907013D01*
X187528922Y-56877000D01*
X187375078Y-56877000D01*
X187224191Y-56907013D01*
X187082058Y-56965887D01*
X186990595Y-57027000D01*
X184285369Y-57027000D01*
X182464000Y-55205632D01*
X182464000Y-55093256D01*
X182469633Y-55088633D01*
X182581601Y-54952199D01*
X182583000Y-54949581D01*
X182584399Y-54952198D01*
X182696367Y-55088633D01*
X182832801Y-55200601D01*
X182988457Y-55283801D01*
X183157353Y-55335035D01*
X183333000Y-55352335D01*
X183508646Y-55335035D01*
X183677542Y-55283801D01*
X183833198Y-55200601D01*
X183969633Y-55088633D01*
X184081601Y-54952199D01*
X184083000Y-54949581D01*
X184084399Y-54952198D01*
X184196367Y-55088633D01*
X184332801Y-55200601D01*
X184488457Y-55283801D01*
X184657353Y-55335035D01*
X184833000Y-55352335D01*
X185008646Y-55335035D01*
X185177542Y-55283801D01*
X185333198Y-55200601D01*
X185469633Y-55088633D01*
X185581601Y-54952199D01*
X185583000Y-54949581D01*
X185584399Y-54952198D01*
X185696367Y-55088633D01*
X185832801Y-55200601D01*
X185988457Y-55283801D01*
X186157353Y-55335035D01*
X186333000Y-55352335D01*
X186508646Y-55335035D01*
X186677542Y-55283801D01*
X186833198Y-55200601D01*
X186969633Y-55088633D01*
X187019830Y-55027468D01*
X187041810Y-55068590D01*
X187120512Y-55164488D01*
X187216410Y-55243190D01*
X187325820Y-55301671D01*
X187444536Y-55337683D01*
X187567997Y-55349843D01*
X188098003Y-55349843D01*
X188221464Y-55337683D01*
X188340180Y-55301671D01*
X188449590Y-55243190D01*
X188545488Y-55164488D01*
X188624190Y-55068590D01*
X188682671Y-54959180D01*
X188718683Y-54840464D01*
X188730843Y-54717003D01*
X188730843Y-53486997D01*
X188718683Y-53363536D01*
X188682671Y-53244820D01*
X188624190Y-53135410D01*
X188545488Y-53039512D01*
X188449590Y-52960810D01*
X188340180Y-52902329D01*
X188221464Y-52866317D01*
X188098003Y-52854157D01*
X187567997Y-52854157D01*
X187444536Y-52866317D01*
X187325820Y-52902329D01*
X187216410Y-52960810D01*
X187120512Y-53039512D01*
X187041810Y-53135410D01*
X187019830Y-53176532D01*
X186969633Y-53115367D01*
X186833199Y-53003399D01*
X186677543Y-52920199D01*
X186508647Y-52868965D01*
X186333000Y-52851665D01*
X186157354Y-52868965D01*
X185988458Y-52920199D01*
X185832802Y-53003399D01*
X185696368Y-53115367D01*
X185584400Y-53251801D01*
X185583001Y-53254419D01*
X185581601Y-53251801D01*
X185469633Y-53115367D01*
X185333199Y-53003399D01*
X185177543Y-52920199D01*
X185008647Y-52868965D01*
X184833000Y-52851665D01*
X184657354Y-52868965D01*
X184488458Y-52920199D01*
X184332802Y-53003399D01*
X184196368Y-53115367D01*
X184084400Y-53251801D01*
X184083001Y-53254419D01*
X184081601Y-53251801D01*
X183969633Y-53115367D01*
X183833199Y-53003399D01*
X183677543Y-52920199D01*
X183508647Y-52868965D01*
X183333000Y-52851665D01*
X183157354Y-52868965D01*
X182988458Y-52920199D01*
X182832802Y-53003399D01*
X182696368Y-53115367D01*
X182584400Y-53251801D01*
X182583001Y-53254419D01*
X182581601Y-53251801D01*
X182469633Y-53115367D01*
X182333199Y-53003399D01*
X182177543Y-52920199D01*
X182008647Y-52868965D01*
X181833000Y-52851665D01*
X181657354Y-52868965D01*
X181488458Y-52920199D01*
X181332802Y-53003399D01*
X181196368Y-53115367D01*
X181084400Y-53251801D01*
X181001200Y-53407457D01*
X180949965Y-53576353D01*
X180937000Y-53707987D01*
X173593394Y-53707987D01*
X173649693Y-53572069D01*
X173697000Y-53334243D01*
X173697000Y-53091757D01*
X173649693Y-52853931D01*
X173556898Y-52629903D01*
X173422180Y-52428283D01*
X173250717Y-52256820D01*
X173049097Y-52122102D01*
X172825069Y-52029307D01*
X172587243Y-51982000D01*
X172344757Y-51982000D01*
X172106931Y-52029307D01*
X171882903Y-52122102D01*
X171681283Y-52256820D01*
X171509820Y-52428283D01*
X171375102Y-52629903D01*
X171282307Y-52853931D01*
X171235000Y-53091757D01*
X152736744Y-53091757D01*
X152752642Y-53075859D01*
X152838113Y-52947942D01*
X152896987Y-52805809D01*
X152927000Y-52654922D01*
X152927000Y-52501078D01*
X152896987Y-52350191D01*
X152838113Y-52208058D01*
X152752642Y-52080141D01*
X152643859Y-51971358D01*
X152515942Y-51885887D01*
X152373809Y-51827013D01*
X152222922Y-51797000D01*
X152080591Y-51797000D01*
X151796375Y-51512784D01*
X151780526Y-51493472D01*
X151703478Y-51430240D01*
X151615574Y-51383254D01*
X151520192Y-51354321D01*
X151445853Y-51346999D01*
X151445845Y-51346999D01*
X151420999Y-51344552D01*
X151396153Y-51346999D01*
X147758844Y-51346999D01*
X147733998Y-51344552D01*
X147709152Y-51346999D01*
X147709145Y-51346999D01*
X147644693Y-51353347D01*
X147634805Y-51354321D01*
X147539424Y-51383254D01*
X147451520Y-51430240D01*
X147374472Y-51493472D01*
X147358627Y-51512779D01*
X146725785Y-52145622D01*
X146706473Y-52161471D01*
X146643241Y-52238519D01*
X146596255Y-52326424D01*
X146567322Y-52421806D01*
X146560000Y-52496145D01*
X146560000Y-52496152D01*
X146557553Y-52520998D01*
X146560000Y-52545844D01*
X146560001Y-62713144D01*
X146557553Y-62738000D01*
X146567322Y-62837192D01*
X146596255Y-62932574D01*
X146596256Y-62932575D01*
X146643242Y-63020479D01*
X146706474Y-63097527D01*
X146725779Y-63113370D01*
X149230628Y-65618220D01*
X149246473Y-65637527D01*
X149323521Y-65700759D01*
X149411425Y-65747745D01*
X149484607Y-65769944D01*
X149506806Y-65776678D01*
X149516694Y-65777652D01*
X149581146Y-65784000D01*
X149581153Y-65784000D01*
X149605999Y-65786447D01*
X149630845Y-65784000D01*
X164382409Y-65784000D01*
X172598628Y-74000220D01*
X172614473Y-74019527D01*
X172691521Y-74082759D01*
X172779425Y-74129745D01*
X172874807Y-74158678D01*
X172949146Y-74166000D01*
X172949153Y-74166000D01*
X172973999Y-74168447D01*
X172998845Y-74166000D01*
X180892409Y-74166000D01*
X180896409Y-74170000D01*
X172675592Y-74170000D01*
X164459376Y-65953785D01*
X164443527Y-65934473D01*
X164366479Y-65871241D01*
X164278575Y-65824255D01*
X164183193Y-65795322D01*
X164108854Y-65788000D01*
X164108846Y-65788000D01*
X164084000Y-65785553D01*
X164059154Y-65788000D01*
X149053592Y-65788000D01*
X146302000Y-63036409D01*
X146302000Y-54126845D01*
X146304447Y-54101999D01*
X146302000Y-54077153D01*
X146302000Y-54077146D01*
X146294678Y-54002807D01*
X146265745Y-53907425D01*
X146218759Y-53819521D01*
X146155527Y-53742473D01*
X146136220Y-53726628D01*
X145053000Y-52643409D01*
X145053000Y-52501078D01*
X145022987Y-52350191D01*
X144964113Y-52208058D01*
X144878642Y-52080141D01*
X144769859Y-51971358D01*
X144641942Y-51885887D01*
X144499809Y-51827013D01*
X144348922Y-51797000D01*
X144195078Y-51797000D01*
X144044191Y-51827013D01*
X143902058Y-51885887D01*
X143774141Y-51971358D01*
X143665358Y-52080141D01*
X143579887Y-52208058D01*
X143521013Y-52350191D01*
X143491000Y-52501078D01*
X143491000Y-52654922D01*
X143521013Y-52805809D01*
X143579887Y-52947942D01*
X143665358Y-53075859D01*
X143774141Y-53184642D01*
X143902058Y-53270113D01*
X144044191Y-53328987D01*
X144195078Y-53359000D01*
X144337409Y-53359000D01*
X145290000Y-54311592D01*
X145290001Y-63221144D01*
X145287553Y-63246000D01*
X145292574Y-63296983D01*
X144778000Y-62782409D01*
X144778000Y-60288501D01*
X144878642Y-60187859D01*
X144964113Y-60059942D01*
X145022987Y-59917809D01*
X145053000Y-59766922D01*
X145053000Y-59613078D01*
X145022987Y-59462191D01*
X144964113Y-59320058D01*
X144878642Y-59192141D01*
X144769859Y-59083358D01*
X144641942Y-58997887D01*
X144499809Y-58939013D01*
X144348922Y-58909000D01*
X144195078Y-58909000D01*
X144044191Y-58939013D01*
X143902058Y-58997887D01*
X143774141Y-59083358D01*
X143665358Y-59192141D01*
X143579887Y-59320058D01*
X143521013Y-59462191D01*
X143491000Y-59613078D01*
X143491000Y-59766922D01*
X143521013Y-59917809D01*
X143579887Y-60059942D01*
X143665358Y-60187859D01*
X143766000Y-60288501D01*
X143766001Y-62967144D01*
X143763553Y-62992000D01*
X143773322Y-63091192D01*
X143802255Y-63186574D01*
X143820020Y-63219809D01*
X143849242Y-63274479D01*
X143912474Y-63351527D01*
X143931781Y-63367372D01*
X148214628Y-67650220D01*
X148230473Y-67669527D01*
X148307521Y-67732759D01*
X148395425Y-67779745D01*
X148490806Y-67808678D01*
X148500694Y-67809652D01*
X148565146Y-67816000D01*
X148565153Y-67816000D01*
X148589999Y-67818447D01*
X148614845Y-67816000D01*
X163366409Y-67816000D01*
X171244408Y-75694000D01*
X163350617Y-75694000D01*
X163430577Y-75669745D01*
X163518481Y-75622759D01*
X163595529Y-75559527D01*
X163611378Y-75540215D01*
X166075220Y-73076374D01*
X166094527Y-73060529D01*
X166157759Y-72983481D01*
X166204745Y-72895577D01*
X166233678Y-72800195D01*
X166240567Y-72730255D01*
X166243448Y-72701002D01*
X166241000Y-72676148D01*
X166241000Y-71972501D01*
X166341642Y-71871859D01*
X166427113Y-71743942D01*
X166485987Y-71601809D01*
X166516000Y-71450922D01*
X166516000Y-71297078D01*
X166485987Y-71146191D01*
X166427113Y-71004058D01*
X166341642Y-70876141D01*
X166232859Y-70767358D01*
X166104942Y-70681887D01*
X165962809Y-70623013D01*
X165811922Y-70593000D01*
X165658078Y-70593000D01*
X165507191Y-70623013D01*
X165365058Y-70681887D01*
X165237141Y-70767358D01*
X165128358Y-70876141D01*
X165042887Y-71004058D01*
X164984013Y-71146191D01*
X164954000Y-71297078D01*
X164954000Y-71450922D01*
X164984013Y-71601809D01*
X165042887Y-71743942D01*
X165128358Y-71871859D01*
X165229000Y-71972501D01*
X165229001Y-72491409D01*
X164913434Y-72806976D01*
X164903113Y-72782058D01*
X164817642Y-72654141D01*
X164708859Y-72545358D01*
X164580942Y-72459887D01*
X164438809Y-72401013D01*
X164287922Y-72371000D01*
X164134078Y-72371000D01*
X163983191Y-72401013D01*
X163841058Y-72459887D01*
X163713141Y-72545358D01*
X163612499Y-72646000D01*
X162793525Y-72646000D01*
X162791487Y-72625311D01*
X162769701Y-72553492D01*
X162734322Y-72487304D01*
X162686711Y-72429289D01*
X162628696Y-72381678D01*
X162562508Y-72346299D01*
X162490689Y-72324513D01*
X162416000Y-72317157D01*
X160416000Y-72317157D01*
X160341311Y-72324513D01*
X160269492Y-72346299D01*
X160203304Y-72381678D01*
X160145289Y-72429289D01*
X160097678Y-72487304D01*
X160062299Y-72553492D01*
X160040513Y-72625311D01*
X160033157Y-72700000D01*
X160033157Y-73700000D01*
X160040513Y-73774689D01*
X160062299Y-73846508D01*
X160097678Y-73912696D01*
X160145289Y-73970711D01*
X160203304Y-74018322D01*
X160269492Y-74053701D01*
X160341311Y-74075487D01*
X160416000Y-74082843D01*
X162416000Y-74082843D01*
X162490689Y-74075487D01*
X162562508Y-74053701D01*
X162628696Y-74018322D01*
X162686711Y-73970711D01*
X162734322Y-73912696D01*
X162769701Y-73846508D01*
X162791487Y-73774689D01*
X162798843Y-73700000D01*
X162798843Y-73658000D01*
X163612499Y-73658000D01*
X163713141Y-73758642D01*
X163841058Y-73844113D01*
X163865976Y-73854435D01*
X163026411Y-74694000D01*
X162798252Y-74694000D01*
X162791487Y-74625311D01*
X162769701Y-74553492D01*
X162734322Y-74487304D01*
X162686711Y-74429289D01*
X162628696Y-74381678D01*
X162562508Y-74346299D01*
X162490689Y-74324513D01*
X162416000Y-74317157D01*
X160416000Y-74317157D01*
X160341311Y-74324513D01*
X160269492Y-74346299D01*
X160203304Y-74381678D01*
X160145289Y-74429289D01*
X160097678Y-74487304D01*
X160062299Y-74553492D01*
X160040513Y-74625311D01*
X160033157Y-74700000D01*
X160033157Y-75694000D01*
X151085592Y-75694000D01*
X148251376Y-72859785D01*
X148235527Y-72840473D01*
X148158479Y-72777241D01*
X148070575Y-72730255D01*
X147975193Y-72701322D01*
X147900854Y-72694000D01*
X147900846Y-72694000D01*
X147876000Y-72691553D01*
X147851154Y-72694000D01*
X146798252Y-72694000D01*
X146791487Y-72625311D01*
X146769701Y-72553492D01*
X146734322Y-72487304D01*
X146686711Y-72429289D01*
X146628696Y-72381678D01*
X146562508Y-72346299D01*
X146490689Y-72324513D01*
X146416000Y-72317157D01*
X144416000Y-72317157D01*
X144341311Y-72324513D01*
X144269492Y-72346299D01*
X144203304Y-72381678D01*
X144145289Y-72429289D01*
X144097678Y-72487304D01*
X144062299Y-72553492D01*
X144040513Y-72625311D01*
X144033157Y-72700000D01*
X144033157Y-73700000D01*
X144040513Y-73774689D01*
X144062299Y-73846508D01*
X144097678Y-73912696D01*
X144145289Y-73970711D01*
X144203304Y-74018322D01*
X144269492Y-74053701D01*
X144341311Y-74075487D01*
X144416000Y-74082843D01*
X146416000Y-74082843D01*
X146490689Y-74075487D01*
X146562508Y-74053701D01*
X146628696Y-74018322D01*
X146686711Y-73970711D01*
X146734322Y-73912696D01*
X146769701Y-73846508D01*
X146791487Y-73774689D01*
X146798252Y-73706000D01*
X147666409Y-73706000D01*
X150500628Y-76540220D01*
X150516473Y-76559527D01*
X150593521Y-76622759D01*
X150674419Y-76666000D01*
X150681425Y-76669745D01*
X150776807Y-76698678D01*
X150876000Y-76708448D01*
X150900854Y-76706000D01*
X160033157Y-76706000D01*
X160033157Y-77700000D01*
X160040513Y-77774689D01*
X160062299Y-77846508D01*
X160097678Y-77912696D01*
X160145289Y-77970711D01*
X160203304Y-78018322D01*
X160269492Y-78053701D01*
X160341311Y-78075487D01*
X160416000Y-78082843D01*
X162416000Y-78082843D01*
X162490689Y-78075487D01*
X162562508Y-78053701D01*
X162628696Y-78018322D01*
X162686711Y-77970711D01*
X162734322Y-77912696D01*
X162769701Y-77846508D01*
X162791487Y-77774689D01*
X162798252Y-77706000D01*
X172367409Y-77706000D01*
X173355409Y-78694000D01*
X162798252Y-78694000D01*
X162791487Y-78625311D01*
X162769701Y-78553492D01*
X162734322Y-78487304D01*
X162686711Y-78429289D01*
X162628696Y-78381678D01*
X162562508Y-78346299D01*
X162490689Y-78324513D01*
X162416000Y-78317157D01*
X160416000Y-78317157D01*
X160341311Y-78324513D01*
X160269492Y-78346299D01*
X160203304Y-78381678D01*
X160145289Y-78429289D01*
X160097678Y-78487304D01*
X160062299Y-78553492D01*
X160040513Y-78625311D01*
X160033157Y-78700000D01*
X160033157Y-79700000D01*
X160040513Y-79774689D01*
X160062299Y-79846508D01*
X160097678Y-79912696D01*
X160145289Y-79970711D01*
X160203304Y-80018322D01*
X160269492Y-80053701D01*
X160341311Y-80075487D01*
X160416000Y-80082843D01*
X162416000Y-80082843D01*
X162490689Y-80075487D01*
X162562508Y-80053701D01*
X162628696Y-80018322D01*
X162686711Y-79970711D01*
X162734322Y-79912696D01*
X162769701Y-79846508D01*
X162791487Y-79774689D01*
X162798252Y-79706000D01*
X173535411Y-79706000D01*
X174597785Y-80768374D01*
X174524191Y-80783013D01*
X174382058Y-80841887D01*
X174254141Y-80927358D01*
X174145358Y-81036141D01*
X174059887Y-81164058D01*
X174001013Y-81306191D01*
X173971000Y-81457078D01*
X173971000Y-81610922D01*
X174001013Y-81761809D01*
X174059887Y-81903942D01*
X174121000Y-81995405D01*
X174121001Y-83630001D01*
X155415146Y-83630001D01*
X152485145Y-80700000D01*
X160033157Y-80700000D01*
X160033157Y-81700000D01*
X160040513Y-81774689D01*
X160062299Y-81846508D01*
X160097678Y-81912696D01*
X160145289Y-81970711D01*
X160203304Y-82018322D01*
X160269492Y-82053701D01*
X160341311Y-82075487D01*
X160416000Y-82082843D01*
X162416000Y-82082843D01*
X162490689Y-82075487D01*
X162562508Y-82053701D01*
X162628696Y-82018322D01*
X162686711Y-81970711D01*
X162734322Y-81912696D01*
X162740046Y-81901987D01*
X166689000Y-81901987D01*
X166689000Y-82690012D01*
X166701965Y-82821646D01*
X166753199Y-82990542D01*
X166836399Y-83146198D01*
X166948367Y-83282633D01*
X167084801Y-83394601D01*
X167240457Y-83477801D01*
X167409353Y-83529035D01*
X167585000Y-83546335D01*
X167760646Y-83529035D01*
X167929542Y-83477801D01*
X168085198Y-83394601D01*
X168221633Y-83282633D01*
X168333601Y-83146199D01*
X168335000Y-83143581D01*
X168336399Y-83146198D01*
X168448367Y-83282633D01*
X168584801Y-83394601D01*
X168740457Y-83477801D01*
X168909353Y-83529035D01*
X169085000Y-83546335D01*
X169260646Y-83529035D01*
X169429542Y-83477801D01*
X169585198Y-83394601D01*
X169721633Y-83282633D01*
X169833601Y-83146199D01*
X169835000Y-83143581D01*
X169836399Y-83146198D01*
X169948367Y-83282633D01*
X170084801Y-83394601D01*
X170240457Y-83477801D01*
X170409353Y-83529035D01*
X170585000Y-83546335D01*
X170760646Y-83529035D01*
X170929542Y-83477801D01*
X171085198Y-83394601D01*
X171221633Y-83282633D01*
X171271830Y-83221468D01*
X171293810Y-83262590D01*
X171372512Y-83358488D01*
X171468410Y-83437190D01*
X171577820Y-83495671D01*
X171696536Y-83531683D01*
X171819997Y-83543843D01*
X172350003Y-83543843D01*
X172473464Y-83531683D01*
X172592180Y-83495671D01*
X172701590Y-83437190D01*
X172797488Y-83358488D01*
X172876190Y-83262590D01*
X172934671Y-83153180D01*
X172970683Y-83034464D01*
X172982843Y-82911003D01*
X172982843Y-81680997D01*
X172970683Y-81557536D01*
X172934671Y-81438820D01*
X172876190Y-81329410D01*
X172797488Y-81233512D01*
X172701590Y-81154810D01*
X172592180Y-81096329D01*
X172473464Y-81060317D01*
X172350003Y-81048157D01*
X171819997Y-81048157D01*
X171696536Y-81060317D01*
X171577820Y-81096329D01*
X171468410Y-81154810D01*
X171372512Y-81233512D01*
X171293810Y-81329410D01*
X171271830Y-81370532D01*
X171221633Y-81309367D01*
X171085199Y-81197399D01*
X170929543Y-81114199D01*
X170760647Y-81062965D01*
X170585000Y-81045665D01*
X170409354Y-81062965D01*
X170240458Y-81114199D01*
X170084802Y-81197399D01*
X169948368Y-81309367D01*
X169836400Y-81445801D01*
X169835001Y-81448419D01*
X169833601Y-81445801D01*
X169721633Y-81309367D01*
X169585199Y-81197399D01*
X169429543Y-81114199D01*
X169260647Y-81062965D01*
X169085000Y-81045665D01*
X168909354Y-81062965D01*
X168740458Y-81114199D01*
X168584802Y-81197399D01*
X168448368Y-81309367D01*
X168336400Y-81445801D01*
X168335001Y-81448419D01*
X168333601Y-81445801D01*
X168221633Y-81309367D01*
X168085199Y-81197399D01*
X167929543Y-81114199D01*
X167760647Y-81062965D01*
X167585000Y-81045665D01*
X167409354Y-81062965D01*
X167240458Y-81114199D01*
X167084802Y-81197399D01*
X166948368Y-81309367D01*
X166836400Y-81445801D01*
X166753200Y-81601457D01*
X166701965Y-81770353D01*
X166689000Y-81901987D01*
X162740046Y-81901987D01*
X162769701Y-81846508D01*
X162791487Y-81774689D01*
X162798843Y-81700000D01*
X162798843Y-80700000D01*
X162791487Y-80625311D01*
X162769701Y-80553492D01*
X162734322Y-80487304D01*
X162686711Y-80429289D01*
X162628696Y-80381678D01*
X162562508Y-80346299D01*
X162490689Y-80324513D01*
X162416000Y-80317157D01*
X160416000Y-80317157D01*
X160341311Y-80324513D01*
X160269492Y-80346299D01*
X160203304Y-80381678D01*
X160145289Y-80429289D01*
X160097678Y-80487304D01*
X160062299Y-80553492D01*
X160040513Y-80625311D01*
X160033157Y-80700000D01*
X152485145Y-80700000D01*
X146798843Y-75013699D01*
X146798843Y-74700000D01*
X146791487Y-74625311D01*
X146769701Y-74553492D01*
X146734322Y-74487304D01*
X146686711Y-74429289D01*
X146628696Y-74381678D01*
X146562508Y-74346299D01*
X146490689Y-74324513D01*
X146416000Y-74317157D01*
X144416000Y-74317157D01*
X144341311Y-74324513D01*
X144269492Y-74346299D01*
X144203304Y-74381678D01*
X144146860Y-74428000D01*
X141934607Y-74428000D01*
X141808922Y-74403000D01*
X141655078Y-74403000D01*
X141504191Y-74433013D01*
X141362058Y-74491887D01*
X141234141Y-74577358D01*
X141125358Y-74686141D01*
X141039887Y-74814058D01*
X140981013Y-74956191D01*
X140951000Y-75107078D01*
X140951000Y-75260922D01*
X140981013Y-75411809D01*
X141039887Y-75553942D01*
X141125358Y-75681859D01*
X141234141Y-75790642D01*
X141362058Y-75876113D01*
X141504191Y-75934987D01*
X141655078Y-75965000D01*
X141808922Y-75965000D01*
X141934607Y-75940000D01*
X144120085Y-75940000D01*
X144145289Y-75970711D01*
X144203304Y-76018322D01*
X144269492Y-76053701D01*
X144341311Y-76075487D01*
X144416000Y-76082843D01*
X145729699Y-76082843D01*
X145964013Y-76317157D01*
X144416000Y-76317157D01*
X144341311Y-76324513D01*
X144269492Y-76346299D01*
X144203304Y-76381678D01*
X144145289Y-76429289D01*
X144097678Y-76487304D01*
X144062299Y-76553492D01*
X144040513Y-76625311D01*
X144033157Y-76700000D01*
X144033157Y-77700000D01*
X144040513Y-77774689D01*
X144062299Y-77846508D01*
X144097678Y-77912696D01*
X144145289Y-77970711D01*
X144203304Y-78018322D01*
X144269492Y-78053701D01*
X144341311Y-78075487D01*
X144416000Y-78082843D01*
X146416000Y-78082843D01*
X146490689Y-78075487D01*
X146562508Y-78053701D01*
X146628696Y-78018322D01*
X146686711Y-77970711D01*
X146734322Y-77912696D01*
X146769701Y-77846508D01*
X146791487Y-77774689D01*
X146798843Y-77700000D01*
X146798843Y-77151987D01*
X154330855Y-84684000D01*
X140106000Y-84684000D01*
X140106000Y-81700000D01*
X141007157Y-81700000D01*
X141007157Y-83400000D01*
X141014513Y-83474689D01*
X141036299Y-83546508D01*
X141071678Y-83612696D01*
X141119289Y-83670711D01*
X141177304Y-83718322D01*
X141243492Y-83753701D01*
X141315311Y-83775487D01*
X141390000Y-83782843D01*
X142226921Y-83782843D01*
X142236438Y-83792360D01*
X142264025Y-83825975D01*
X142324981Y-83876000D01*
X142398174Y-83936068D01*
X142438286Y-83957508D01*
X142551225Y-84017875D01*
X142717294Y-84068252D01*
X142846727Y-84081000D01*
X142846730Y-84081000D01*
X142890000Y-84085262D01*
X142933270Y-84081000D01*
X144397287Y-84081000D01*
X144416000Y-84082843D01*
X146416000Y-84082843D01*
X146490689Y-84075487D01*
X146562508Y-84053701D01*
X146628696Y-84018322D01*
X146686711Y-83970711D01*
X146734322Y-83912696D01*
X146769701Y-83846508D01*
X146791487Y-83774689D01*
X146798843Y-83700000D01*
X146798843Y-82700000D01*
X146791487Y-82625311D01*
X146769701Y-82553492D01*
X146734322Y-82487304D01*
X146686711Y-82429289D01*
X146628696Y-82381678D01*
X146562508Y-82346299D01*
X146490689Y-82324513D01*
X146416000Y-82317157D01*
X144416000Y-82317157D01*
X144397287Y-82319000D01*
X143472843Y-82319000D01*
X143472843Y-81700000D01*
X143465487Y-81625311D01*
X143443701Y-81553492D01*
X143408322Y-81487304D01*
X143360711Y-81429289D01*
X143302696Y-81381678D01*
X143236508Y-81346299D01*
X143164689Y-81324513D01*
X143090000Y-81317157D01*
X141390000Y-81317157D01*
X141315311Y-81324513D01*
X141243492Y-81346299D01*
X141177304Y-81381678D01*
X141119289Y-81429289D01*
X141071678Y-81487304D01*
X141036299Y-81553492D01*
X141014513Y-81625311D01*
X141007157Y-81700000D01*
X140106000Y-81700000D01*
X140106000Y-78700000D01*
X144033157Y-78700000D01*
X144033157Y-79700000D01*
X144040513Y-79774689D01*
X144062299Y-79846508D01*
X144097678Y-79912696D01*
X144145289Y-79970711D01*
X144203304Y-80018322D01*
X144269492Y-80053701D01*
X144341311Y-80075487D01*
X144416000Y-80082843D01*
X146416000Y-80082843D01*
X146490689Y-80075487D01*
X146562508Y-80053701D01*
X146628696Y-80018322D01*
X146686711Y-79970711D01*
X146734322Y-79912696D01*
X146769701Y-79846508D01*
X146791487Y-79774689D01*
X146798843Y-79700000D01*
X146798843Y-78700000D01*
X146791487Y-78625311D01*
X146769701Y-78553492D01*
X146734322Y-78487304D01*
X146686711Y-78429289D01*
X146628696Y-78381678D01*
X146562508Y-78346299D01*
X146490689Y-78324513D01*
X146416000Y-78317157D01*
X144416000Y-78317157D01*
X144341311Y-78324513D01*
X144269492Y-78346299D01*
X144203304Y-78381678D01*
X144145289Y-78429289D01*
X144097678Y-78487304D01*
X144062299Y-78553492D01*
X144040513Y-78625311D01*
X144033157Y-78700000D01*
X140106000Y-78700000D01*
X140106000Y-70700000D01*
X144033157Y-70700000D01*
X144033157Y-71700000D01*
X144040513Y-71774689D01*
X144062299Y-71846508D01*
X144097678Y-71912696D01*
X144145289Y-71970711D01*
X144203304Y-72018322D01*
X144269492Y-72053701D01*
X144341311Y-72075487D01*
X144416000Y-72082843D01*
X146416000Y-72082843D01*
X146490689Y-72075487D01*
X146562508Y-72053701D01*
X146628696Y-72018322D01*
X146686711Y-71970711D01*
X146734322Y-71912696D01*
X146769701Y-71846508D01*
X146791487Y-71774689D01*
X146798843Y-71700000D01*
X146798843Y-70700000D01*
X160033157Y-70700000D01*
X160033157Y-71700000D01*
X160040513Y-71774689D01*
X160062299Y-71846508D01*
X160097678Y-71912696D01*
X160145289Y-71970711D01*
X160203304Y-72018322D01*
X160269492Y-72053701D01*
X160341311Y-72075487D01*
X160416000Y-72082843D01*
X162416000Y-72082843D01*
X162490689Y-72075487D01*
X162562508Y-72053701D01*
X162628696Y-72018322D01*
X162686711Y-71970711D01*
X162734322Y-71912696D01*
X162769701Y-71846508D01*
X162791487Y-71774689D01*
X162793623Y-71753000D01*
X163104499Y-71753000D01*
X163205141Y-71853642D01*
X163333058Y-71939113D01*
X163475191Y-71997987D01*
X163626078Y-72028000D01*
X163779922Y-72028000D01*
X163930809Y-71997987D01*
X164072942Y-71939113D01*
X164200859Y-71853642D01*
X164309642Y-71744859D01*
X164395113Y-71616942D01*
X164453987Y-71474809D01*
X164484000Y-71323922D01*
X164484000Y-71170078D01*
X164453987Y-71019191D01*
X164395113Y-70877058D01*
X164309642Y-70749141D01*
X164200859Y-70640358D01*
X164072942Y-70554887D01*
X163930809Y-70496013D01*
X163779922Y-70466000D01*
X163626078Y-70466000D01*
X163475191Y-70496013D01*
X163333058Y-70554887D01*
X163205141Y-70640358D01*
X163104499Y-70741000D01*
X162798843Y-70741000D01*
X162798843Y-70700000D01*
X162791487Y-70625311D01*
X162769701Y-70553492D01*
X162734322Y-70487304D01*
X162686711Y-70429289D01*
X162628696Y-70381678D01*
X162562508Y-70346299D01*
X162490689Y-70324513D01*
X162416000Y-70317157D01*
X160416000Y-70317157D01*
X160341311Y-70324513D01*
X160269492Y-70346299D01*
X160203304Y-70381678D01*
X160145289Y-70429289D01*
X160097678Y-70487304D01*
X160062299Y-70553492D01*
X160040513Y-70625311D01*
X160033157Y-70700000D01*
X146798843Y-70700000D01*
X146791487Y-70625311D01*
X146769701Y-70553492D01*
X146734322Y-70487304D01*
X146686711Y-70429289D01*
X146628696Y-70381678D01*
X146562508Y-70346299D01*
X146490689Y-70324513D01*
X146416000Y-70317157D01*
X144416000Y-70317157D01*
X144341311Y-70324513D01*
X144269492Y-70346299D01*
X144203304Y-70381678D01*
X144145289Y-70429289D01*
X144097678Y-70487304D01*
X144062299Y-70553492D01*
X144040513Y-70625311D01*
X144033157Y-70700000D01*
X140106000Y-70700000D01*
X140106000Y-68700000D01*
X144033157Y-68700000D01*
X144033157Y-69700000D01*
X144040513Y-69774689D01*
X144062299Y-69846508D01*
X144097678Y-69912696D01*
X144145289Y-69970711D01*
X144203304Y-70018322D01*
X144269492Y-70053701D01*
X144341311Y-70075487D01*
X144416000Y-70082843D01*
X146416000Y-70082843D01*
X146490689Y-70075487D01*
X146562508Y-70053701D01*
X146628696Y-70018322D01*
X146686711Y-69970711D01*
X146734322Y-69912696D01*
X146769701Y-69846508D01*
X146791487Y-69774689D01*
X146798843Y-69700000D01*
X146798843Y-68700000D01*
X146791487Y-68625311D01*
X146769701Y-68553492D01*
X146734322Y-68487304D01*
X146686711Y-68429289D01*
X146628696Y-68381678D01*
X146562508Y-68346299D01*
X146490689Y-68324513D01*
X146416000Y-68317157D01*
X144416000Y-68317157D01*
X144341311Y-68324513D01*
X144269492Y-68346299D01*
X144203304Y-68381678D01*
X144145289Y-68429289D01*
X144097678Y-68487304D01*
X144062299Y-68553492D01*
X144040513Y-68625311D01*
X144033157Y-68700000D01*
X140106000Y-68700000D01*
X140106000Y-55665000D01*
X140880157Y-55665000D01*
X140880157Y-57365000D01*
X140887513Y-57439689D01*
X140909299Y-57511508D01*
X140944678Y-57577696D01*
X140992289Y-57635711D01*
X141050304Y-57683322D01*
X141116492Y-57718701D01*
X141188311Y-57740487D01*
X141263000Y-57747843D01*
X142963000Y-57747843D01*
X143037689Y-57740487D01*
X143109508Y-57718701D01*
X143175696Y-57683322D01*
X143233711Y-57635711D01*
X143281322Y-57577696D01*
X143316701Y-57511508D01*
X143338487Y-57439689D01*
X143345843Y-57365000D01*
X143345843Y-55665000D01*
X143338487Y-55590311D01*
X143316701Y-55518492D01*
X143281322Y-55452304D01*
X143233711Y-55394289D01*
X143175696Y-55346678D01*
X143109508Y-55311299D01*
X143037689Y-55289513D01*
X142963000Y-55282157D01*
X141263000Y-55282157D01*
X141188311Y-55289513D01*
X141116492Y-55311299D01*
X141050304Y-55346678D01*
X140992289Y-55394289D01*
X140944678Y-55452304D01*
X140909299Y-55518492D01*
X140887513Y-55590311D01*
X140880157Y-55665000D01*
X140106000Y-55665000D01*
X140106000Y-53853757D01*
X140882000Y-53853757D01*
X140882000Y-54096243D01*
X140929307Y-54334069D01*
X141022102Y-54558097D01*
X141156820Y-54759717D01*
X141328283Y-54931180D01*
X141529903Y-55065898D01*
X141753931Y-55158693D01*
X141991757Y-55206000D01*
X142234243Y-55206000D01*
X142472069Y-55158693D01*
X142696097Y-55065898D01*
X142897717Y-54931180D01*
X143069180Y-54759717D01*
X143203898Y-54558097D01*
X143296693Y-54334069D01*
X143344000Y-54096243D01*
X143344000Y-53853757D01*
X143296693Y-53615931D01*
X143203898Y-53391903D01*
X143069180Y-53190283D01*
X142897717Y-53018820D01*
X142696097Y-52884102D01*
X142472069Y-52791307D01*
X142234243Y-52744000D01*
X141991757Y-52744000D01*
X141753931Y-52791307D01*
X141529903Y-52884102D01*
X141328283Y-53018820D01*
X141156820Y-53190283D01*
X141022102Y-53391903D01*
X140929307Y-53615931D01*
X140882000Y-53853757D01*
X140106000Y-53853757D01*
X140106000Y-51206000D01*
X210414000Y-51206000D01*
X210414001Y-63988049D01*
G37*
G04 #@! TD.AperFunction*
M02*
