M48
; DRILL file {KiCad 8.0.1} date 2024-05-30T19:24:29+0300
; FORMAT={-:-/ absolute / metric / decimal}
; #@! TF.CreationDate,2024-05-30T19:24:29+03:00
; #@! TF.GenerationSoftware,Kicad,Pcbnew,8.0.1
; #@! TF.FileFunction,MixedPlating,1,2
FMAT,2
METRIC
; #@! TA.AperFunction,Plated,PTH,ViaDrill
T1C0.400
; #@! TA.AperFunction,Plated,PTH,ComponentDrill
T2C0.800
; #@! TA.AperFunction,Plated,PTH,ComponentDrill
T3C1.700
; #@! TA.AperFunction,NonPlated,NPTH,ComponentDrill
T4C0.600
%
G90
G05
T1
X-28.712Y-8.73
X-28.4Y-11.676
X-26.167Y-14.867
X-23.995Y-2.677
X-22.299Y-18.524
X-21.928Y-14.089
X-20.93Y2.99
X-20.074Y-15.961
X-19.571Y3.307
X-19.078Y-11.179
X-19.055Y-12.306
X-18.224Y3.332
X-17.953Y-18.029
X-17.671Y-23.17
X-16.916Y3.282
X-16.421Y23.779
X-15.519Y-3.713
X-15.357Y6.545
X-12.751Y-13.076
X-12.56Y-6.52
X-12.497Y23.475
X-11.938Y7.62
X-11.608Y26.904
X-11.443Y17.925
X-10.833Y-10.574
X-10.249Y-28.085
X-9.906Y2.286
X-9.55Y20.655
X-9.461Y-18.131
X-8.382Y10.16
X-6.604Y2.794
X-6.502Y27.877
X-5.842Y8.89
X-5.806Y27.159
X-4.102Y22.205
X-4.077Y-27.63
X-4.064Y-8.382
X-3.857Y-14.289
X-3.785Y-13.292
X-3.607Y-18.105
X-3.454Y-10.866
X-3.302Y9.652
X-3.048Y12.192
X-2.248Y25.974
X-1.803Y20.643
X-1.524Y-7.366
X-0.866Y25.683
X-0.828Y-9.586
X-0.762Y-13.716
X-0.508Y13.462
X-0.508Y-12.446
X-0.508Y-19.05
X0.254Y-7.874
X0.356Y-17.526
X0.674Y26.286
X1.918Y-27.478
X1.989Y25.924
X2.553Y-21.458
X2.706Y-16.695
X2.819Y29.571
X3.048Y12.954
X3.556Y-15.748
X3.81Y9.144
X3.97Y20.01
X4.648Y-22.41
X4.826Y-12.446
X6.01Y-18.118
X6.159Y25.977
X7.112Y-0.254
X7.366Y12.446
X7.366Y9.906
X7.424Y-11.123
X7.62Y15.24
X7.874Y-20.759
X8.28Y28.669
X8.382Y12.446
X8.598Y18.298
X8.688Y-21.341
X9.042Y23.792
X9.398Y12.446
X9.906Y3.048
X11.1Y13.851
X11.481Y-20.251
X12.192Y6.096
X12.192Y-10.922
X13.056Y-18.981
X13.538Y26.091
X13.665Y-14.765
X14.376Y-19.286
X14.935Y-14.867
X15.004Y-15.958
X16.304Y13.769
X16.396Y21.392
X16.764Y2.032
X18.294Y-2.922
X18.751Y-14.306
X18.796Y-11.938
X18.833Y16.1
X18.999Y-3.627
X18.999Y-4.757
X19.436Y17.018
X21.018Y-19.972
X22.555Y-13.139
X22.555Y-14.155
X22.606Y1.453
X26.683Y-8.237
X29.273Y-0.351
T3
X-23.165Y6.673
X-23.165Y2.713
X22.38Y-2.814
X26.34Y-2.814
T4
X-5.607Y24.674
X5.393Y24.674
T2
X-3.957Y27.444G85X-4.457Y27.444
G05
X-3.957Y24.504G85X-4.457Y24.504
G05
X4.243Y27.444G85X3.743Y27.444
G05
X4.243Y24.504G85X3.743Y24.504
G05
M30
