%TF.GenerationSoftware,KiCad,Pcbnew,8.0.1*%
%TF.CreationDate,2024-05-30T19:24:29+03:00*%
%TF.ProjectId,jantteri_right,6a616e74-7465-4726-995f-72696768742e,rev?*%
%TF.SameCoordinates,Original*%
%TF.FileFunction,Copper,L2,Bot*%
%TF.FilePolarity,Positive*%
%FSLAX46Y46*%
G04 Gerber Fmt 4.6, Leading zero omitted, Abs format (unit mm)*
G04 Created by KiCad (PCBNEW 8.0.1) date 2024-05-30 19:24:29*
%MOMM*%
%LPD*%
G01*
G04 APERTURE LIST*
G04 Aperture macros list*
%AMRoundRect*
0 Rectangle with rounded corners*
0 $1 Rounding radius*
0 $2 $3 $4 $5 $6 $7 $8 $9 X,Y pos of 4 corners*
0 Add a 4 corners polygon primitive as box body*
4,1,4,$2,$3,$4,$5,$6,$7,$8,$9,$2,$3,0*
0 Add four circle primitives for the rounded corners*
1,1,$1+$1,$2,$3*
1,1,$1+$1,$4,$5*
1,1,$1+$1,$6,$7*
1,1,$1+$1,$8,$9*
0 Add four rect primitives between the rounded corners*
20,1,$1+$1,$2,$3,$4,$5,0*
20,1,$1+$1,$4,$5,$6,$7,0*
20,1,$1+$1,$6,$7,$8,$9,0*
20,1,$1+$1,$8,$9,$2,$3,0*%
G04 Aperture macros list end*
%TA.AperFunction,ComponentPad*%
%ADD10O,1.700000X1.200000*%
%TD*%
%TA.AperFunction,ComponentPad*%
%ADD11RoundRect,0.250001X1.099999X1.099999X-1.099999X1.099999X-1.099999X-1.099999X1.099999X-1.099999X0*%
%TD*%
%TA.AperFunction,ComponentPad*%
%ADD12C,2.700000*%
%TD*%
%TA.AperFunction,ComponentPad*%
%ADD13RoundRect,0.250001X-1.099999X1.099999X-1.099999X-1.099999X1.099999X-1.099999X1.099999X1.099999X0*%
%TD*%
%TA.AperFunction,SMDPad,CuDef*%
%ADD14RoundRect,0.235000X-1.465000X0.940000X-1.465000X-0.940000X1.465000X-0.940000X1.465000X0.940000X0*%
%TD*%
%TA.AperFunction,SMDPad,CuDef*%
%ADD15R,2.400000X0.740000*%
%TD*%
%TA.AperFunction,ViaPad*%
%ADD16C,0.800000*%
%TD*%
%TA.AperFunction,Conductor*%
%ADD17C,0.800000*%
%TD*%
%TA.AperFunction,Conductor*%
%ADD18C,1.000000*%
%TD*%
%TA.AperFunction,Conductor*%
%ADD19C,0.250000*%
%TD*%
%TA.AperFunction,Conductor*%
%ADD20C,0.500000*%
%TD*%
G04 APERTURE END LIST*
D10*
%TO.P,J1,S1,SHIELD*%
%TO.N,unconnected-(J1-SHIELD-PadS1)_0*%
X3993320Y24504040D03*
%TO.N,unconnected-(J1-SHIELD-PadS1)_1*%
X3993320Y27444040D03*
%TO.N,unconnected-(J1-SHIELD-PadS1)*%
X-4206680Y24504040D03*
%TO.N,unconnected-(J1-SHIELD-PadS1)_2*%
X-4206680Y27444040D03*
%TD*%
D11*
%TO.P,J2,1,Pin_1*%
%TO.N,/Sheet65F0AC28/BAT+*%
X26339800Y-2814320D03*
D12*
%TO.P,J2,2,Pin_2*%
%TO.N,GND*%
X22379800Y-2814320D03*
%TD*%
D13*
%TO.P,J3,1,Pin_1*%
%TO.N,/Sheet6601D6D0/MOTOR-*%
X-23164800Y6672580D03*
D12*
%TO.P,J3,2,Pin_2*%
%TO.N,/Sheet6601D6D0/MOTOR+*%
X-23164800Y2712580D03*
%TD*%
D14*
%TO.P,L1,1*%
%TO.N,Net-(Q2-S)*%
X22606000Y-10079000D03*
%TO.P,L1,2*%
%TO.N,Net-(U3-SRP)*%
X22606000Y-16129000D03*
%TD*%
D15*
%TO.P,J4,1,Pin_1*%
%TO.N,GND*%
X-21931080Y-3751580D03*
%TO.P,J4,2,Pin_2*%
%TO.N,V_SYSTEM_out*%
X-25831080Y-3751580D03*
%TO.P,J4,3,Pin_3*%
%TO.N,GND*%
X-21931080Y-5021580D03*
%TO.P,J4,4,Pin_4*%
%TO.N,V_SYSTEM_out*%
X-25831080Y-5021580D03*
%TO.P,J4,5,Pin_5*%
%TO.N,SCL_out*%
X-21931080Y-6291580D03*
%TO.P,J4,6,Pin_6*%
%TO.N,unconnected-(J4-Pin_6-Pad6)*%
X-25831080Y-6291580D03*
%TO.P,J4,7,Pin_7*%
%TO.N,SDA_out*%
X-21931080Y-7561580D03*
%TO.P,J4,8,Pin_8*%
%TO.N,unconnected-(J4-Pin_8-Pad8)*%
X-25831080Y-7561580D03*
%TO.P,J4,9,Pin_9*%
%TO.N,MOTOR_B_out*%
X-21931080Y-8831580D03*
%TO.P,J4,10,Pin_10*%
%TO.N,STAT1_out*%
X-25831080Y-8831580D03*
%TO.P,J4,11,Pin_11*%
%TO.N,MOTOR_A_out*%
X-21931080Y-10101580D03*
%TO.P,J4,12,Pin_12*%
%TO.N,STAT2_out*%
X-25831080Y-10101580D03*
%TO.P,J4,13,Pin_13*%
%TO.N,DRV_n_FAULT_out*%
X-21931080Y-11371580D03*
%TO.P,J4,14,Pin_14*%
%TO.N,RXD_out*%
X-25831080Y-11371580D03*
%TO.P,J4,15,Pin_15*%
%TO.N,DRV_SLEEP_out*%
X-21931080Y-12641580D03*
%TO.P,J4,16,Pin_16*%
%TO.N,TXD_out*%
X-25831080Y-12641580D03*
%TD*%
D16*
%TO.N,GND*%
X-1524000Y-7366000D03*
X-12560300Y-6520180D03*
X-20929600Y2989580D03*
X3970020Y20010120D03*
X7620000Y15240000D03*
X-17670780Y-23169880D03*
X11099800Y13850620D03*
X-16916400Y3281680D03*
X-9550400Y20655280D03*
X13538200Y26090880D03*
X-3454400Y-10866120D03*
X-10248900Y-28084780D03*
X16395700Y21391880D03*
X-23995380Y-2677160D03*
X-12750800Y-13075920D03*
X-10833100Y-10574020D03*
X-6604000Y2794000D03*
X-11442700Y17924780D03*
X-508000Y-19050000D03*
X16304260Y13769340D03*
X13665200Y-14765020D03*
X-20073620Y-15961360D03*
X-4102100Y22204680D03*
X9906000Y3048000D03*
X-9906000Y2286000D03*
X6159500Y25976580D03*
X2819400Y29570680D03*
X-5842000Y8890000D03*
X13055600Y-18981420D03*
X8597900Y18298160D03*
X-8382000Y10160000D03*
X-22298660Y-18524220D03*
X4648200Y-22410420D03*
X6009640Y-18117820D03*
X11480800Y-20251420D03*
X12192000Y6096000D03*
X-15356840Y6544820D03*
X-4076700Y-27630120D03*
X7366000Y9906000D03*
X-19055080Y-12306300D03*
X-11607800Y26903680D03*
X-508000Y13462000D03*
X7112000Y-254000D03*
X1917700Y-27477720D03*
X-11938000Y7620000D03*
X22606000Y1452880D03*
X26682700Y-8237220D03*
X-15519400Y-3713480D03*
X-1803400Y20642580D03*
X-762000Y-13716000D03*
X29273500Y-350520D03*
X-21927820Y-14089380D03*
X-26167080Y-14866620D03*
X-17952720Y-18028920D03*
%TO.N,V_SYSTEM_out*%
X8382000Y12446000D03*
X9398000Y12446000D03*
X7366000Y12446000D03*
%TO.N,Net-(Q2-S)*%
X18999200Y-4757420D03*
X18294200Y-2922420D03*
X18999200Y-3627420D03*
%TO.N,Net-(D2-K)*%
X12192000Y-10922000D03*
X7423993Y-11123000D03*
%TO.N,/Sheet6601D6D0/VINT*%
X-9461500Y-18130520D03*
X-3606800Y-18105120D03*
%TO.N,/Sheet65F0AC28/VREF*%
X-6502400Y27877022D03*
X14935200Y-14866620D03*
X8687735Y-21340659D03*
X3556000Y-15748000D03*
X8280400Y28668980D03*
%TO.N,Net-(Q6-S)*%
X-3048000Y12192000D03*
X3810000Y9144000D03*
X-508000Y-12446000D03*
X-3302000Y9652000D03*
X3048000Y12954000D03*
X-828485Y-9585515D03*
%TO.N,/Sheet65F0AC28/BAT+*%
X18796000Y-11938000D03*
X18750986Y-14305986D03*
%TO.N,Net-(U3-SRP)*%
X22555200Y-14155420D03*
X22555200Y-13139420D03*
%TO.N,STAT1_out*%
X-5806361Y27159016D03*
X-28712160Y-8729980D03*
X2706200Y-16695420D03*
%TO.N,STAT2_out*%
X-28399740Y-11676380D03*
X2552700Y-21457920D03*
X9042400Y23792180D03*
X21018500Y-19972020D03*
X7874000Y-20759420D03*
%TO.N,/Sheet65F09169/USB_D-*%
X-866306Y25682696D03*
X674002Y26286440D03*
%TO.N,/Sheet65F09169/CC1*%
X1988820Y25924041D03*
X-12496800Y23474680D03*
%TO.N,/Sheet65F09169/CC2*%
X-16421100Y23779480D03*
X-2247900Y25974040D03*
%TO.N,SDA_out*%
X-18224500Y3332480D03*
%TO.N,SCL_out*%
X-19570700Y3307080D03*
%TO.N,MOTOR_A_out*%
X-3784600Y-13291820D03*
%TO.N,MOTOR_B_out*%
X-3856874Y-14289207D03*
%TO.N,DRV_n_FAULT_out*%
X-19077940Y-11178540D03*
%TO.N,DRV_SLEEP_out*%
X-4064000Y-8382000D03*
%TO.N,TXD_out*%
X19435600Y17018000D03*
%TO.N,RXD_out*%
X18833000Y16099580D03*
%TO.N,Net-(U3-BATDRV)*%
X4826000Y-12446000D03*
X16764000Y2032000D03*
%TO.N,Net-(U3-ISET2)*%
X14376400Y-19286220D03*
X15004070Y-15958420D03*
%TO.N,Net-(U3-ACDRV)*%
X356200Y-17526000D03*
X254000Y-7874000D03*
%TD*%
D17*
%TO.N,V_SYSTEM_out*%
X4876800Y14711680D02*
X-18346420Y14711680D01*
X-27543760Y-3576320D02*
X-27543760Y-4856480D01*
X-23689076Y9550400D02*
X-25699720Y9550400D01*
X-27543760Y7706360D02*
X-27543760Y-3576320D01*
X-27543760Y-3576320D02*
X-25807500Y-3576320D01*
D18*
X7112000Y12446000D02*
X9398000Y12446000D01*
X5822950Y13765530D02*
X5822950Y13735050D01*
X5822950Y13735050D02*
X7112000Y12446000D01*
D17*
X5008699Y14579781D02*
X4876800Y14711680D01*
X-27543760Y-4856480D02*
X-27515820Y-4828540D01*
X-25699720Y9550400D02*
X-27543760Y7706360D01*
X-25807500Y-3576320D02*
X-25789720Y-3558540D01*
X-18346420Y14711680D02*
X-23449280Y9608820D01*
X-27515820Y-4828540D02*
X-25789720Y-4828540D01*
D18*
X5008699Y14579781D02*
X5822950Y13765530D01*
D17*
X-23449280Y9608820D02*
X-23630656Y9608820D01*
X-23630656Y9608820D02*
X-23689076Y9550400D01*
%TO.N,Net-(Q2-S)*%
X18999200Y-6071419D02*
X18999200Y-8458200D01*
X18999200Y-8458200D02*
X20620000Y-10079000D01*
X20620000Y-10079000D02*
X22606000Y-10079000D01*
D18*
X18999200Y-3627420D02*
X18294200Y-2922420D01*
X18999200Y-4757420D02*
X18999200Y-6071419D01*
X18999200Y-4757420D02*
X18999200Y-3627420D01*
D19*
%TO.N,Net-(D2-K)*%
X11991000Y-11123000D02*
X12192000Y-10922000D01*
X7423993Y-11123000D02*
X11991000Y-11123000D01*
%TO.N,/Sheet6601D6D0/VINT*%
X-3606800Y-18105120D02*
X-9436100Y-18105120D01*
X-9448800Y-18117820D02*
X-9461500Y-18130520D01*
X-9436100Y-18105120D02*
X-9461500Y-18130520D01*
%TO.N,/Sheet65F0AC28/VREF*%
X3522980Y-15781020D02*
X3200400Y-15781020D01*
X8229600Y28719780D02*
X8280400Y28668980D01*
X3589020Y-15781020D02*
X3556000Y-15748000D01*
X14935200Y-14866620D02*
X14020800Y-15781020D01*
X8585200Y-15781020D02*
X12598400Y-15781020D01*
X17674066Y24585936D02*
X12363444Y24585936D01*
X17783120Y24509240D02*
X17674066Y24585936D01*
X3200400Y-15781020D02*
X3200400Y-10426630D01*
X8687735Y-15883555D02*
X8687735Y-21340659D01*
X8585200Y-15781020D02*
X8687735Y-15883555D01*
X8280400Y28668980D02*
X6653699Y30295681D01*
X-6502400Y27877022D02*
X-5659642Y28719780D01*
X6653699Y30295681D02*
X-4083741Y30295681D01*
X18063689Y24307100D02*
X17783120Y24509240D01*
X4724400Y-15781020D02*
X8585200Y-15781020D01*
X14020800Y-15781020D02*
X12598400Y-15781020D01*
X-4083741Y30295681D02*
X-5659642Y28719780D01*
X21060620Y21310169D02*
X18063689Y24307100D01*
X21060620Y7433590D02*
X21060620Y21310169D01*
X3556000Y-15748000D02*
X3522980Y-15781020D01*
X3200400Y-10426630D02*
X21060620Y7433590D01*
X12363444Y24585936D02*
X8280400Y28668980D01*
X4724400Y-15781020D02*
X3589020Y-15781020D01*
D20*
%TO.N,Net-(Q6-S)*%
X-3302000Y9652000D02*
X-3302000Y11938000D01*
X3810000Y12192000D02*
X3048000Y12954000D01*
X-828485Y-12125515D02*
X-508000Y-12446000D01*
X-3302000Y11938000D02*
X-3048000Y12192000D01*
X-828485Y-9585515D02*
X-828485Y-12125515D01*
X3810000Y9144000D02*
X3810000Y12192000D01*
D19*
%TO.N,/Sheet65F0AC28/BAT+*%
X18750986Y-11983014D02*
X18796000Y-11938000D01*
X18750986Y-14305986D02*
X18750986Y-11983014D01*
D17*
%TO.N,Net-(U3-SRP)*%
X22606000Y-16129000D02*
X22606000Y-14206220D01*
X22606000Y-14206220D02*
X22555200Y-14155420D01*
D18*
X22555200Y-14155420D02*
X22555200Y-13139420D01*
D19*
%TO.N,STAT1_out*%
X-5806361Y27159016D02*
X-5806361Y27402520D01*
X17531442Y24135926D02*
X20610610Y21056758D01*
X-25932680Y-8729980D02*
X-25831080Y-8831580D01*
X12177044Y24135926D02*
X17531442Y24135926D01*
X-4590701Y28618180D02*
X6858000Y28618180D01*
X20610610Y21056758D02*
X20610610Y8103370D01*
X8558390Y27754580D02*
X12177044Y24135926D01*
X20610610Y8103370D02*
X2706200Y-9801040D01*
X2706200Y-9801040D02*
X2706200Y-16695420D01*
X-25881160Y-8729980D02*
X-25789720Y-8638540D01*
X-28712160Y-8729980D02*
X-25932680Y-8729980D01*
X7721600Y27754580D02*
X8558390Y27754580D01*
X6858000Y28618180D02*
X7721600Y27754580D01*
X-5806361Y27402520D02*
X-4590701Y28618180D01*
%TO.N,STAT2_out*%
X7874000Y-20759420D02*
X7874000Y-21599926D01*
X-27828240Y-10101580D02*
X-25831080Y-10101580D01*
X2590800Y-20759420D02*
X7874000Y-20759420D01*
X20160600Y8289770D02*
X20160600Y20870358D01*
X2590800Y-21419820D02*
X2552700Y-21457920D01*
X17391178Y23639780D02*
X9194800Y23639780D01*
X8686800Y-25852120D02*
X15138400Y-25852120D01*
X7874000Y-25039320D02*
X8686800Y-25852120D01*
X2590800Y-20759420D02*
X1981200Y-20149820D01*
X7874000Y-21599926D02*
X7874000Y-25039320D01*
X1981200Y-9889630D02*
X20160600Y8289770D01*
X-28399740Y-11676380D02*
X-28399740Y-10673080D01*
X15138400Y-25852120D02*
X21018500Y-19972020D01*
X2590800Y-20759420D02*
X2590800Y-21419820D01*
X9194800Y23639780D02*
X9042400Y23792180D01*
X-28399740Y-10673080D02*
X-27828240Y-10101580D01*
X1981200Y-20149820D02*
X1981200Y-9889630D01*
X20160600Y20870358D02*
X17391178Y23639780D01*
%TO.N,/Sheet65F09169/USB_D-*%
X674002Y26286440D02*
X-262562Y26286440D01*
X-262562Y26286440D02*
X-866306Y25682696D01*
%TO.N,/Sheet65F09169/CC1*%
X-12496800Y23474680D02*
X-12357100Y23334980D01*
X-12357100Y23334980D02*
X-3469640Y23334980D01*
X-3469640Y23334980D02*
X-2344420Y24460200D01*
X-2344420Y24460200D02*
X1193800Y24460200D01*
X1193800Y24460200D02*
X1988820Y25255220D01*
X1988820Y25255220D02*
X1988820Y25924041D01*
%TO.N,/Sheet65F09169/CC2*%
X-15875000Y24325580D02*
X-10999610Y24325580D01*
X-9351150Y25974040D02*
X-10999610Y24325580D01*
X-16421100Y23779480D02*
X-15875000Y24325580D01*
X-2247900Y25974040D02*
X-2339340Y25974040D01*
X-2247900Y25974040D02*
X-9351150Y25974040D01*
%TO.N,SDA_out*%
X-18224500Y-6027420D02*
X-18224500Y3332480D01*
X-19758660Y-7561580D02*
X-18224500Y-6027420D01*
X-21931080Y-7561580D02*
X-19758660Y-7561580D01*
%TO.N,SCL_out*%
X-21931080Y-6291580D02*
X-20629880Y-6291580D01*
X-19570700Y-5232400D02*
X-19570700Y-4448725D01*
X-19570700Y3307080D02*
X-19570700Y-4448725D01*
X-20629880Y-6291580D02*
X-19570700Y-5232400D01*
%TO.N,MOTOR_A_out*%
X-16535400Y-16950830D02*
X-16535400Y-10777220D01*
X-16535400Y-10777220D02*
X-17211040Y-10101580D01*
X-2126410Y-21144520D02*
X-2955000Y-21973110D01*
X-2590800Y-13291820D02*
X-2126410Y-13756210D01*
X-11513120Y-21973110D02*
X-16535400Y-16950830D01*
X-2126410Y-13756210D02*
X-2126410Y-21144520D01*
X-3784600Y-13291820D02*
X-2590800Y-13291820D01*
X-17211040Y-10101580D02*
X-21931080Y-10101580D01*
X-2955000Y-21973110D02*
X-11513120Y-21973110D01*
%TO.N,MOTOR_B_out*%
X-3088920Y-21470620D02*
X-2576420Y-20958120D01*
X-2576420Y-20958120D02*
X-2576420Y-14993620D01*
X-2576420Y-14993620D02*
X-3280833Y-14289207D01*
X-21931080Y-8831580D02*
X-20481080Y-8831580D01*
X-16810150Y-9651570D02*
X-16027400Y-10434320D01*
X-16027400Y-10434320D02*
X-16027400Y-16822420D01*
X-16027400Y-16822420D02*
X-11379200Y-21470620D01*
X-20481080Y-8831580D02*
X-19661090Y-9651570D01*
X-19661090Y-9651570D02*
X-16810150Y-9651570D01*
X-11379200Y-21470620D02*
X-3088920Y-21470620D01*
X-3280833Y-14289207D02*
X-3856874Y-14289207D01*
%TO.N,DRV_n_FAULT_out*%
X-21931080Y-11371580D02*
X-19270980Y-11371580D01*
X-19270980Y-11371580D02*
X-19077940Y-11178540D01*
%TO.N,DRV_SLEEP_out*%
X-1676400Y-10769600D02*
X-4064000Y-8382000D01*
X-1676400Y-21330920D02*
X-1676400Y-10769600D01*
X-21889720Y-12448540D02*
X-21674100Y-12448540D01*
X-21674100Y-12448540D02*
X-11699521Y-22423119D01*
X-2768600Y-22423120D02*
X-1676400Y-21330920D01*
X-11699521Y-22423119D02*
X-2768600Y-22423120D01*
%TO.N,TXD_out*%
X1531200Y-19396112D02*
X-3456688Y-24384000D01*
X-25831080Y-12641580D02*
X-14088660Y-24384000D01*
X1531200Y-9703234D02*
X1531200Y-19396112D01*
X19558000Y16895600D02*
X19435600Y17018000D01*
X1531200Y-9703234D02*
X19558000Y8323566D01*
X-3456688Y-24384000D02*
X-14088660Y-24384000D01*
X19558000Y8323566D02*
X19558000Y16895600D01*
%TO.N,RXD_out*%
X-13716000Y-23934000D02*
X-24130000Y-13520000D01*
X-24130000Y-12242660D02*
X-25001080Y-11371580D01*
X-3643084Y-23934000D02*
X-13716000Y-23934000D01*
X1081200Y-9516838D02*
X1081200Y-19209716D01*
X19050000Y14806000D02*
X19050000Y8451962D01*
X1081200Y-19209716D02*
X-3643084Y-23934000D01*
X19050000Y8451962D02*
X1081200Y-9516838D01*
X-25001080Y-11371580D02*
X-25831080Y-11371580D01*
X18833000Y15023000D02*
X19050000Y14806000D01*
X-24130000Y-13520000D02*
X-24130000Y-12242660D01*
X18833000Y16099580D02*
X18833000Y15023000D01*
%TO.N,Net-(U3-BATDRV)*%
X4826000Y-9906000D02*
X16764000Y2032000D01*
X4826000Y-12446000D02*
X4826000Y-9906000D01*
%TO.N,Net-(U3-ISET2)*%
X15004070Y-15958420D02*
X14376400Y-16586090D01*
X14376400Y-16586090D02*
X14376400Y-19286220D01*
%TO.N,Net-(U3-ACDRV)*%
X356200Y-17526000D02*
X631200Y-17251000D01*
X631200Y-17251000D02*
X631200Y-8251200D01*
X631200Y-8251200D02*
X254000Y-7874000D01*
%TD*%
%TA.AperFunction,Conductor*%
%TO.N,GND*%
G36*
X440732Y31769218D02*
G01*
X1541420Y31730928D01*
X1545758Y31730701D01*
X2644410Y31654172D01*
X2648763Y31653793D01*
X3744113Y31539112D01*
X3748454Y31538581D01*
X4839190Y31385883D01*
X4843416Y31385216D01*
X5928168Y31194694D01*
X5932438Y31193868D01*
X7009926Y30965746D01*
X7014162Y30964772D01*
X8083051Y30699332D01*
X8087267Y30698207D01*
X8258449Y30649319D01*
X9146225Y30395783D01*
X9150410Y30394509D01*
X10198265Y30055437D01*
X10202378Y30054027D01*
X11237836Y29678721D01*
X11241838Y29677191D01*
X12263632Y29266110D01*
X12267640Y29264416D01*
X13274526Y28818059D01*
X13278389Y28816265D01*
X14269156Y28335170D01*
X14273039Y28333200D01*
X15246404Y27817992D01*
X15250240Y27815876D01*
X16205162Y27267107D01*
X16208862Y27264894D01*
X17144133Y26683255D01*
X17147762Y26680909D01*
X18062234Y26067115D01*
X18065795Y26064634D01*
X18947963Y25426946D01*
X18958354Y25419435D01*
X18961851Y25416813D01*
X19209244Y25224540D01*
X19831418Y24740989D01*
X19834830Y24738241D01*
X20063838Y24547124D01*
X20680387Y24032587D01*
X20683673Y24029746D01*
X21451516Y23342279D01*
X21504221Y23295091D01*
X21507398Y23292146D01*
X22301897Y22529418D01*
X22304977Y22526357D01*
X23072473Y21736476D01*
X23075471Y21733281D01*
X23815021Y20917220D01*
X23817906Y20913923D01*
X24528629Y20072653D01*
X24531398Y20069258D01*
X25053200Y19406155D01*
X25079607Y19340253D01*
X25066192Y19270535D01*
X25017215Y19219137D01*
X25017181Y19219118D01*
X23762050Y18494467D01*
X23762046Y18494464D01*
X23752929Y18489201D01*
X23732969Y18477678D01*
X23712296Y18465741D01*
X23712295Y18465741D01*
X23701989Y18459789D01*
X23701667Y18459560D01*
X23560477Y18378042D01*
X23560462Y18378032D01*
X23242252Y18151430D01*
X23242250Y18151429D01*
X22947015Y17895604D01*
X22677432Y17612869D01*
X22677425Y17612861D01*
X22435952Y17305798D01*
X22435936Y17305776D01*
X22224746Y16977154D01*
X22045733Y16629913D01*
X22045733Y16629912D01*
X21900542Y16267238D01*
X21900540Y16267233D01*
X21900539Y16267229D01*
X21790485Y15892414D01*
X21790482Y15892402D01*
X21716554Y15508822D01*
X21716551Y15508799D01*
X21691549Y15246960D01*
X21665163Y15181049D01*
X21607331Y15139867D01*
X21536415Y15136489D01*
X21474930Y15171987D01*
X21442397Y15235091D01*
X21440120Y15258937D01*
X21440120Y21360130D01*
X21440120Y21360131D01*
X21414258Y21456651D01*
X21414256Y21456654D01*
X21414256Y21456656D01*
X21364298Y21543185D01*
X21364290Y21543195D01*
X21289250Y21618235D01*
X21289227Y21618256D01*
X18350057Y24557426D01*
X18341546Y24566840D01*
X18326067Y24585801D01*
X18326064Y24585804D01*
X18318624Y24591164D01*
X18303186Y24604297D01*
X18296708Y24610775D01*
X18296705Y24610777D01*
X18296704Y24610778D01*
X18275509Y24623016D01*
X18264859Y24629902D01*
X18051773Y24783422D01*
X18044339Y24789483D01*
X18003773Y24818014D01*
X18002607Y24818844D01*
X17962400Y24847811D01*
X17954230Y24852856D01*
X17928126Y24871214D01*
X17911514Y24885183D01*
X17907085Y24889612D01*
X17883363Y24903308D01*
X17873889Y24909358D01*
X17851512Y24925096D01*
X17845634Y24927249D01*
X17825976Y24936441D01*
X17820555Y24939571D01*
X17820549Y24939574D01*
X17820548Y24939574D01*
X17820546Y24939575D01*
X17820545Y24939575D01*
X17794098Y24946662D01*
X17783377Y24950055D01*
X17757684Y24959466D01*
X17751435Y24960026D01*
X17730082Y24963814D01*
X17724029Y24965436D01*
X17724028Y24965436D01*
X17696671Y24965436D01*
X17685432Y24965938D01*
X17681554Y24966286D01*
X17658158Y24968381D01*
X17658157Y24968381D01*
X17658156Y24968381D01*
X17653679Y24967601D01*
X17651986Y24967306D01*
X17630361Y24965436D01*
X12572828Y24965436D01*
X12504707Y24985438D01*
X12483733Y25002341D01*
X8969812Y28516262D01*
X8935786Y28578574D01*
X8933826Y28620545D01*
X8939707Y28668978D01*
X8939707Y28668983D01*
X8920550Y28826760D01*
X8884483Y28921859D01*
X8864187Y28975375D01*
X8773898Y29106181D01*
X8654929Y29211579D01*
X8654928Y29211580D01*
X8654925Y29211582D01*
X8514197Y29285441D01*
X8514195Y29285442D01*
X8514193Y29285443D01*
X8514191Y29285444D01*
X8514190Y29285444D01*
X8359872Y29323480D01*
X8359871Y29323480D01*
X8214784Y29323480D01*
X8146663Y29343482D01*
X8125689Y29360385D01*
X6964563Y30521511D01*
X6964551Y30521525D01*
X6886724Y30599352D01*
X6886714Y30599360D01*
X6800179Y30649320D01*
X6789982Y30652052D01*
X6779783Y30654785D01*
X6703664Y30675182D01*
X6703661Y30675182D01*
X6603737Y30675182D01*
X6596019Y30675182D01*
X6596003Y30675181D01*
X-4026045Y30675181D01*
X-4026061Y30675182D01*
X-4033779Y30675182D01*
X-4133703Y30675182D01*
X-4181963Y30662251D01*
X-4230224Y30649320D01*
X-4256998Y30633862D01*
X-4266797Y30628204D01*
X-4297375Y30610550D01*
X-4316757Y30599359D01*
X-4316764Y30599354D01*
X-4352090Y30564027D01*
X-4387417Y30528700D01*
X-5892660Y29023457D01*
X-5892660Y29023456D01*
X-6347691Y28568426D01*
X-6410003Y28534401D01*
X-6436786Y28531522D01*
X-6581873Y28531522D01*
X-6736191Y28493486D01*
X-6736198Y28493483D01*
X-6876926Y28419624D01*
X-6876931Y28419620D01*
X-6995899Y28314222D01*
X-7086185Y28183421D01*
X-7086188Y28183415D01*
X-7142551Y28034802D01*
X-7161707Y27877026D01*
X-7161707Y27877019D01*
X-7142551Y27719243D01*
X-7093953Y27591103D01*
X-7086187Y27570627D01*
X-6995898Y27439821D01*
X-6876929Y27334423D01*
X-6876928Y27334423D01*
X-6876926Y27334421D01*
X-6802200Y27295202D01*
X-6736193Y27260559D01*
X-6581871Y27222522D01*
X-6581865Y27222522D01*
X-6574308Y27221604D01*
X-6574569Y27219458D01*
X-6516884Y27202520D01*
X-6470391Y27148864D01*
X-6459924Y27111709D01*
X-6446512Y27001237D01*
X-6409218Y26902904D01*
X-6390148Y26852621D01*
X-6299859Y26721815D01*
X-6180890Y26616417D01*
X-6132664Y26591106D01*
X-6081643Y26541739D01*
X-6065411Y26472623D01*
X-6089122Y26405703D01*
X-6145249Y26362226D01*
X-6191221Y26353540D01*
X-9401112Y26353540D01*
X-9451361Y26340076D01*
X-9497637Y26327677D01*
X-9584166Y26277719D01*
X-9584171Y26277715D01*
X-9619498Y26242387D01*
X-9654826Y26207059D01*
X-9654828Y26207057D01*
X-11119899Y24741985D01*
X-11182211Y24707960D01*
X-11208994Y24705080D01*
X-15817304Y24705080D01*
X-15817320Y24705081D01*
X-15825038Y24705081D01*
X-15924962Y24705081D01*
X-15924966Y24705081D01*
X-15993927Y24686603D01*
X-15993926Y24686602D01*
X-16021485Y24679218D01*
X-16108016Y24629259D01*
X-16108021Y24629255D01*
X-16126497Y24610778D01*
X-16178676Y24558599D01*
X-16266390Y24470885D01*
X-16328702Y24436859D01*
X-16355485Y24433980D01*
X-16500573Y24433980D01*
X-16654891Y24395944D01*
X-16654898Y24395941D01*
X-16795626Y24322082D01*
X-16795631Y24322078D01*
X-16914599Y24216680D01*
X-17004885Y24085879D01*
X-17004888Y24085873D01*
X-17061251Y23937260D01*
X-17080407Y23779484D01*
X-17080407Y23779477D01*
X-17061251Y23621701D01*
X-17012653Y23493561D01*
X-17004887Y23473085D01*
X-16914598Y23342279D01*
X-16795629Y23236881D01*
X-16795628Y23236881D01*
X-16795626Y23236879D01*
X-16720900Y23197660D01*
X-16654893Y23163017D01*
X-16500571Y23124980D01*
X-16500570Y23124980D01*
X-16341630Y23124980D01*
X-16341629Y23124980D01*
X-16187307Y23163017D01*
X-16046571Y23236881D01*
X-15927602Y23342279D01*
X-15837313Y23473085D01*
X-15780951Y23621698D01*
X-15780951Y23621699D01*
X-15780950Y23621701D01*
X-15761793Y23779477D01*
X-15761793Y23779485D01*
X-15764878Y23804893D01*
X-15753233Y23874928D01*
X-15705572Y23927549D01*
X-15639797Y23946080D01*
X-13200551Y23946080D01*
X-13132430Y23926078D01*
X-13085937Y23872422D01*
X-13075833Y23802148D01*
X-13082738Y23775405D01*
X-13101234Y23726635D01*
X-13136951Y23632460D01*
X-13156107Y23474684D01*
X-13156107Y23474677D01*
X-13136951Y23316901D01*
X-13106602Y23236879D01*
X-13080587Y23168285D01*
X-12990298Y23037479D01*
X-12871329Y22932081D01*
X-12871328Y22932081D01*
X-12871326Y22932079D01*
X-12796600Y22892860D01*
X-12730593Y22858217D01*
X-12576271Y22820180D01*
X-12576270Y22820180D01*
X-12417330Y22820180D01*
X-12417329Y22820180D01*
X-12263007Y22858217D01*
X-12122271Y22932081D01*
X-12122270Y22932083D01*
X-12120687Y22933174D01*
X-12119345Y22933617D01*
X-12115522Y22935623D01*
X-12115189Y22934988D01*
X-12053263Y22955411D01*
X-12049108Y22955480D01*
X-3527336Y22955480D01*
X-3527320Y22955479D01*
X-3519602Y22955479D01*
X-3419679Y22955479D01*
X-3419678Y22955479D01*
X-3343560Y22975876D01*
X-3343558Y22975876D01*
X-3336092Y22977878D01*
X-3323158Y22981342D01*
X-3236621Y23031304D01*
X-3165964Y23101961D01*
X-3155599Y23112326D01*
X-3155593Y23112335D01*
X-2224129Y24043798D01*
X-2161819Y24077821D01*
X-2135036Y24080700D01*
X1136104Y24080700D01*
X1136120Y24080699D01*
X1143838Y24080699D01*
X1243761Y24080699D01*
X1243762Y24080699D01*
X1319880Y24101096D01*
X1319882Y24101096D01*
X1327348Y24103098D01*
X1340282Y24106562D01*
X1426819Y24156524D01*
X1497476Y24227181D01*
X1507843Y24237548D01*
X1507850Y24237558D01*
X1690169Y24419877D01*
X2888820Y24419877D01*
X2921658Y24254791D01*
X2921660Y24254786D01*
X2985612Y24100393D01*
X2986072Y24099282D01*
X3079586Y23959328D01*
X3198608Y23840306D01*
X3338562Y23746792D01*
X3494071Y23682378D01*
X3659159Y23649540D01*
X3659160Y23649540D01*
X4327480Y23649540D01*
X4327481Y23649540D01*
X4492569Y23682378D01*
X4648078Y23746792D01*
X4788032Y23840306D01*
X4907054Y23959328D01*
X5000568Y24099282D01*
X5001025Y24100388D01*
X5001421Y24100879D01*
X5003485Y24104739D01*
X5004217Y24104348D01*
X5045571Y24155666D01*
X5112934Y24178089D01*
X5172783Y24163192D01*
X5173208Y24164215D01*
X5180040Y24161385D01*
X5180436Y24161287D01*
X5180835Y24161056D01*
X5320845Y24123540D01*
X5320847Y24123540D01*
X5465793Y24123540D01*
X5465795Y24123540D01*
X5605805Y24161056D01*
X5731335Y24233531D01*
X5833829Y24336025D01*
X5906304Y24461555D01*
X5943820Y24601565D01*
X5943820Y24746515D01*
X5906304Y24886525D01*
X5850239Y24983632D01*
X5833831Y25012052D01*
X5833823Y25012062D01*
X5731341Y25114544D01*
X5731331Y25114552D01*
X5605805Y25187024D01*
X5465795Y25224540D01*
X5320845Y25224540D01*
X5248881Y25205257D01*
X5180834Y25187024D01*
X5055308Y25114552D01*
X5055301Y25114547D01*
X5037374Y25096619D01*
X4975061Y25062595D01*
X4904245Y25067661D01*
X4859185Y25096621D01*
X4788034Y25167772D01*
X4788032Y25167774D01*
X4648078Y25261288D01*
X4523435Y25312917D01*
X4492574Y25325700D01*
X4492569Y25325702D01*
X4327483Y25358540D01*
X4327481Y25358540D01*
X3659159Y25358540D01*
X3659156Y25358540D01*
X3494070Y25325702D01*
X3494065Y25325700D01*
X3338561Y25261288D01*
X3198612Y25167777D01*
X3198605Y25167772D01*
X3079588Y25048755D01*
X3079583Y25048748D01*
X2986072Y24908799D01*
X2921660Y24753295D01*
X2921658Y24753290D01*
X2888820Y24588204D01*
X2888820Y24419877D01*
X1690169Y24419877D01*
X2211462Y24941170D01*
X2211472Y24941177D01*
X2292490Y25022195D01*
X2292496Y25022201D01*
X2342458Y25108738D01*
X2349063Y25133388D01*
X2368321Y25205258D01*
X2368321Y25305182D01*
X2368321Y25312899D01*
X2368320Y25312917D01*
X2368320Y25329139D01*
X2388322Y25397260D01*
X2410762Y25423448D01*
X2482318Y25486840D01*
X2572607Y25617646D01*
X2628969Y25766259D01*
X2628969Y25766260D01*
X2628970Y25766262D01*
X2648127Y25924038D01*
X2648127Y25924045D01*
X2628970Y26081821D01*
X2610007Y26131822D01*
X2572607Y26230436D01*
X2482318Y26361242D01*
X2363349Y26466640D01*
X2363348Y26466641D01*
X2363345Y26466643D01*
X2222617Y26540502D01*
X2222615Y26540503D01*
X2222613Y26540504D01*
X2222611Y26540505D01*
X2222610Y26540505D01*
X2068292Y26578541D01*
X2068291Y26578541D01*
X1909349Y26578541D01*
X1909347Y26578541D01*
X1755029Y26540505D01*
X1755022Y26540502D01*
X1614294Y26466643D01*
X1614289Y26466639D01*
X1519421Y26382592D01*
X1455168Y26352391D01*
X1384787Y26361722D01*
X1330624Y26407623D01*
X1317619Y26437386D01*
X1316854Y26437095D01*
X1303380Y26472623D01*
X1257789Y26592835D01*
X1167500Y26723641D01*
X1048531Y26829039D01*
X1048530Y26829040D01*
X1048527Y26829042D01*
X907799Y26902901D01*
X907797Y26902902D01*
X907795Y26902903D01*
X907793Y26902904D01*
X907792Y26902904D01*
X753474Y26940940D01*
X753473Y26940940D01*
X594531Y26940940D01*
X594529Y26940940D01*
X440211Y26902904D01*
X440204Y26902901D01*
X299476Y26829042D01*
X299471Y26829038D01*
X180505Y26723643D01*
X180504Y26723642D01*
X178243Y26720365D01*
X175970Y26718524D01*
X175451Y26717937D01*
X175353Y26718024D01*
X123085Y26675665D01*
X74546Y26665940D01*
X-204866Y26665940D01*
X-204882Y26665941D01*
X-212600Y26665941D01*
X-312524Y26665941D01*
X-344696Y26657321D01*
X-388646Y26645545D01*
X-388647Y26645544D01*
X-409044Y26640078D01*
X-409045Y26640078D01*
X-409047Y26640077D01*
X-409048Y26640077D01*
X-494895Y26590514D01*
X-494894Y26590513D01*
X-495580Y26590117D01*
X-495582Y26590116D01*
X-569055Y26516642D01*
X-711598Y26374100D01*
X-773907Y26340076D01*
X-800691Y26337196D01*
X-945779Y26337196D01*
X-1100097Y26299160D01*
X-1100104Y26299157D01*
X-1240832Y26225298D01*
X-1240837Y26225294D01*
X-1332664Y26143942D01*
X-1348210Y26130168D01*
X-1359806Y26119895D01*
X-1359807Y26119895D01*
X-1381309Y26088743D01*
X-1436468Y26044043D01*
X-1507037Y26036261D01*
X-1570610Y26067867D01*
X-1604632Y26124853D01*
X-1605048Y26124695D01*
X-1605937Y26127039D01*
X-1607004Y26128826D01*
X-1607343Y26130168D01*
X-1607751Y26131820D01*
X-1607751Y26131822D01*
X-1664113Y26280435D01*
X-1754402Y26411241D01*
X-1873371Y26516639D01*
X-1873372Y26516640D01*
X-1873375Y26516642D01*
X-2014103Y26590501D01*
X-2014105Y26590502D01*
X-2014107Y26590503D01*
X-2014109Y26590504D01*
X-2014110Y26590504D01*
X-2168428Y26628540D01*
X-2168429Y26628540D01*
X-2327371Y26628540D01*
X-2327373Y26628540D01*
X-2481691Y26590504D01*
X-2481698Y26590501D01*
X-2622426Y26516642D01*
X-2622431Y26516638D01*
X-2741397Y26411243D01*
X-2741398Y26411242D01*
X-2743659Y26407965D01*
X-2745932Y26406124D01*
X-2746451Y26405537D01*
X-2746549Y26405624D01*
X-2798817Y26363265D01*
X-2847356Y26353540D01*
X-3779671Y26353540D01*
X-3847792Y26373542D01*
X-3894285Y26427198D01*
X-3904389Y26497472D01*
X-3874895Y26562052D01*
X-3815169Y26600436D01*
X-3804253Y26603119D01*
X-3707431Y26622378D01*
X-3551922Y26686792D01*
X-3411968Y26780306D01*
X-3292946Y26899328D01*
X-3199432Y27039282D01*
X-3135018Y27194791D01*
X-3102180Y27359879D01*
X-3102180Y27528201D01*
X-3135018Y27693289D01*
X-3199432Y27848798D01*
X-3292946Y27988752D01*
X-3327779Y28023585D01*
X-3361805Y28085897D01*
X-3356740Y28156712D01*
X-3314193Y28213548D01*
X-3247673Y28238359D01*
X-3238684Y28238680D01*
X3025324Y28238680D01*
X3093445Y28218678D01*
X3139938Y28165022D01*
X3150042Y28094748D01*
X3120548Y28030168D01*
X3114419Y28023585D01*
X3079588Y27988755D01*
X3079583Y27988748D01*
X2986072Y27848799D01*
X2921660Y27693295D01*
X2921658Y27693290D01*
X2888820Y27528204D01*
X2888820Y27359877D01*
X2921658Y27194791D01*
X2921660Y27194786D01*
X2938994Y27152938D01*
X2986072Y27039282D01*
X3079586Y26899328D01*
X3198608Y26780306D01*
X3338562Y26686792D01*
X3494071Y26622378D01*
X3659159Y26589540D01*
X3659160Y26589540D01*
X4327480Y26589540D01*
X4327481Y26589540D01*
X4492569Y26622378D01*
X4648078Y26686792D01*
X4788032Y26780306D01*
X4907054Y26899328D01*
X5000568Y27039282D01*
X5064982Y27194791D01*
X5097820Y27359879D01*
X5097820Y27528201D01*
X5064982Y27693289D01*
X5000568Y27848798D01*
X4907054Y27988752D01*
X4872221Y28023585D01*
X4838195Y28085897D01*
X4843260Y28156712D01*
X4885807Y28213548D01*
X4952327Y28238359D01*
X4961316Y28238680D01*
X6648616Y28238680D01*
X6716737Y28218678D01*
X6737711Y28201775D01*
X7413513Y27525973D01*
X7413534Y27525950D01*
X7488574Y27450910D01*
X7488579Y27450906D01*
X7488581Y27450904D01*
X7488582Y27450903D01*
X7488584Y27450902D01*
X7575114Y27400944D01*
X7575118Y27400942D01*
X7595509Y27395479D01*
X7595514Y27395476D01*
X7595515Y27395477D01*
X7671638Y27375079D01*
X7779280Y27375079D01*
X7779296Y27375080D01*
X8349006Y27375080D01*
X8417127Y27355078D01*
X8438101Y27338175D01*
X11541901Y24234375D01*
X11575927Y24172063D01*
X11570862Y24101248D01*
X11528315Y24044412D01*
X11461795Y24019601D01*
X11452806Y24019280D01*
X9743231Y24019280D01*
X9675110Y24039282D01*
X9628617Y24092938D01*
X9626564Y24097855D01*
X9626189Y24098569D01*
X9626187Y24098575D01*
X9535898Y24229381D01*
X9416929Y24334779D01*
X9416928Y24334780D01*
X9416925Y24334782D01*
X9276197Y24408641D01*
X9276195Y24408642D01*
X9276193Y24408643D01*
X9276191Y24408644D01*
X9276190Y24408644D01*
X9121872Y24446680D01*
X9121871Y24446680D01*
X8962929Y24446680D01*
X8962927Y24446680D01*
X8808609Y24408644D01*
X8808602Y24408641D01*
X8667874Y24334782D01*
X8667869Y24334778D01*
X8548901Y24229380D01*
X8458615Y24098579D01*
X8458612Y24098573D01*
X8402249Y23949960D01*
X8383093Y23792184D01*
X8383093Y23792177D01*
X8402249Y23634401D01*
X8450847Y23506261D01*
X8458613Y23485785D01*
X8548902Y23354979D01*
X8667871Y23249581D01*
X8667872Y23249581D01*
X8667874Y23249579D01*
X8717802Y23223375D01*
X8808607Y23175717D01*
X8962929Y23137680D01*
X8962930Y23137680D01*
X9121870Y23137680D01*
X9121871Y23137680D01*
X9276193Y23175717D01*
X9409816Y23245849D01*
X9468371Y23260280D01*
X17181794Y23260280D01*
X17249915Y23240278D01*
X17270889Y23223375D01*
X19744195Y20750069D01*
X19778221Y20687757D01*
X19781100Y20660974D01*
X19781100Y17767758D01*
X19761098Y17699637D01*
X19707442Y17653144D01*
X19637168Y17643040D01*
X19624947Y17645419D01*
X19515074Y17672500D01*
X19515071Y17672500D01*
X19356129Y17672500D01*
X19356127Y17672500D01*
X19201809Y17634464D01*
X19201802Y17634461D01*
X19061074Y17560602D01*
X19061069Y17560598D01*
X18942101Y17455200D01*
X18851815Y17324399D01*
X18851812Y17324393D01*
X18795449Y17175780D01*
X18776293Y17018004D01*
X18776293Y17017997D01*
X18793290Y16878009D01*
X18781645Y16807974D01*
X18733984Y16755353D01*
X18698363Y16740483D01*
X18599209Y16716044D01*
X18599202Y16716041D01*
X18458474Y16642182D01*
X18458469Y16642178D01*
X18339501Y16536780D01*
X18249215Y16405979D01*
X18249212Y16405973D01*
X18192849Y16257360D01*
X18173693Y16099584D01*
X18173693Y16099577D01*
X18192849Y15941801D01*
X18249212Y15793188D01*
X18249215Y15793182D01*
X18339500Y15662381D01*
X18339501Y15662380D01*
X18339502Y15662379D01*
X18411055Y15598988D01*
X18448779Y15538846D01*
X18453500Y15504678D01*
X18453500Y15080697D01*
X18453499Y15080679D01*
X18453499Y14973037D01*
X18472375Y14902595D01*
X18472375Y14902593D01*
X18479362Y14876518D01*
X18479363Y14876514D01*
X18529321Y14789985D01*
X18529329Y14789975D01*
X18607156Y14712148D01*
X18607170Y14712136D01*
X18633595Y14685711D01*
X18667621Y14623399D01*
X18670500Y14596616D01*
X18670500Y8661346D01*
X18650498Y8593225D01*
X18633595Y8572251D01*
X1225795Y-8835549D01*
X1163483Y-8869575D01*
X1092668Y-8864510D01*
X1035832Y-8821963D01*
X1011021Y-8755443D01*
X1010700Y-8746454D01*
X1010700Y-8201239D01*
X1002682Y-8171314D01*
X984838Y-8104718D01*
X984836Y-8104715D01*
X984836Y-8104713D01*
X936405Y-8020829D01*
X934876Y-8018181D01*
X934873Y-8018178D01*
X932460Y-8015033D01*
X931246Y-8011893D01*
X930747Y-8011029D01*
X930881Y-8010951D01*
X906858Y-7948814D01*
X907340Y-7923138D01*
X907639Y-7920683D01*
X913307Y-7874000D01*
X912246Y-7865258D01*
X894150Y-7716220D01*
X880538Y-7680331D01*
X837787Y-7567605D01*
X747498Y-7436799D01*
X628529Y-7331401D01*
X628528Y-7331400D01*
X628525Y-7331398D01*
X487797Y-7257539D01*
X487795Y-7257538D01*
X487793Y-7257537D01*
X487791Y-7257536D01*
X487790Y-7257536D01*
X333472Y-7219500D01*
X333471Y-7219500D01*
X174529Y-7219500D01*
X174527Y-7219500D01*
X20209Y-7257536D01*
X20202Y-7257539D01*
X-120526Y-7331398D01*
X-120531Y-7331402D01*
X-224181Y-7423229D01*
X-230806Y-7429099D01*
X-239499Y-7436800D01*
X-329785Y-7567601D01*
X-329788Y-7567607D01*
X-386151Y-7716220D01*
X-405307Y-7873996D01*
X-405307Y-7874003D01*
X-386151Y-8031779D01*
X-340348Y-8152548D01*
X-329787Y-8180395D01*
X-239498Y-8311201D01*
X-120529Y-8416599D01*
X-120528Y-8416599D01*
X-120526Y-8416601D01*
X-52928Y-8452079D01*
X20207Y-8490463D01*
X150856Y-8522665D01*
X155854Y-8523897D01*
X217208Y-8559621D01*
X249510Y-8622844D01*
X251700Y-8646236D01*
X251700Y-11990111D01*
X231698Y-12058232D01*
X178042Y-12104725D01*
X107768Y-12114829D01*
X43188Y-12085335D01*
X22004Y-12061687D01*
X-14501Y-12008800D01*
X-43873Y-11982778D01*
X-133471Y-11903401D01*
X-133472Y-11903400D01*
X-133475Y-11903398D01*
X-256540Y-11838809D01*
X-307563Y-11789441D01*
X-323985Y-11727242D01*
X-323985Y-10046039D01*
X-303983Y-9977918D01*
X-301708Y-9974501D01*
X-244698Y-9891910D01*
X-188336Y-9743297D01*
X-188336Y-9743296D01*
X-188335Y-9743294D01*
X-169178Y-9585518D01*
X-169178Y-9585511D01*
X-188335Y-9427735D01*
X-204740Y-9384479D01*
X-244698Y-9279120D01*
X-334987Y-9148314D01*
X-453956Y-9042916D01*
X-453957Y-9042915D01*
X-453960Y-9042913D01*
X-594688Y-8969054D01*
X-594690Y-8969053D01*
X-594692Y-8969052D01*
X-594694Y-8969051D01*
X-594695Y-8969051D01*
X-749013Y-8931015D01*
X-749014Y-8931015D01*
X-907956Y-8931015D01*
X-907958Y-8931015D01*
X-1062276Y-8969051D01*
X-1062283Y-8969054D01*
X-1203011Y-9042913D01*
X-1203016Y-9042917D01*
X-1321984Y-9148315D01*
X-1412270Y-9279116D01*
X-1412273Y-9279122D01*
X-1468636Y-9427735D01*
X-1487792Y-9585511D01*
X-1487792Y-9585518D01*
X-1468636Y-9743294D01*
X-1447924Y-9797905D01*
X-1412272Y-9891910D01*
X-1355289Y-9974464D01*
X-1333053Y-10041887D01*
X-1332985Y-10046039D01*
X-1332985Y-10272131D01*
X-1352987Y-10340252D01*
X-1406643Y-10386745D01*
X-1476917Y-10396849D01*
X-1541497Y-10367355D01*
X-1548080Y-10361226D01*
X-3374588Y-8534718D01*
X-3408614Y-8472406D01*
X-3410574Y-8430435D01*
X-3404693Y-8382002D01*
X-3404693Y-8381997D01*
X-3423850Y-8224220D01*
X-3460462Y-8127684D01*
X-3480213Y-8075605D01*
X-3570502Y-7944799D01*
X-3689471Y-7839401D01*
X-3689472Y-7839400D01*
X-3689475Y-7839398D01*
X-3830203Y-7765539D01*
X-3830205Y-7765538D01*
X-3830207Y-7765537D01*
X-3830209Y-7765536D01*
X-3830210Y-7765536D01*
X-3984528Y-7727500D01*
X-3984529Y-7727500D01*
X-4143471Y-7727500D01*
X-4143473Y-7727500D01*
X-4297791Y-7765536D01*
X-4297798Y-7765539D01*
X-4438526Y-7839398D01*
X-4438531Y-7839402D01*
X-4557499Y-7944800D01*
X-4647785Y-8075601D01*
X-4647788Y-8075607D01*
X-4704151Y-8224220D01*
X-4723307Y-8381996D01*
X-4723307Y-8382003D01*
X-4704151Y-8539779D01*
X-4669612Y-8630848D01*
X-4647787Y-8688395D01*
X-4557498Y-8819201D01*
X-4438529Y-8924599D01*
X-4438528Y-8924599D01*
X-4438526Y-8924601D01*
X-4363800Y-8963820D01*
X-4297793Y-8998463D01*
X-4143471Y-9036500D01*
X-4143470Y-9036500D01*
X-3998384Y-9036500D01*
X-3930263Y-9056502D01*
X-3909289Y-9073405D01*
X-2092805Y-10889889D01*
X-2058779Y-10952201D01*
X-2055900Y-10978984D01*
X-2055900Y-12985836D01*
X-2075902Y-13053957D01*
X-2129558Y-13100450D01*
X-2199832Y-13110554D01*
X-2264412Y-13081060D01*
X-2270995Y-13074931D01*
X-2279936Y-13065990D01*
X-2279948Y-13065976D01*
X-2357775Y-12988149D01*
X-2357785Y-12988141D01*
X-2444320Y-12938181D01*
X-2454517Y-12935449D01*
X-2464716Y-12932716D01*
X-2540835Y-12912319D01*
X-2540838Y-12912319D01*
X-2640762Y-12912319D01*
X-2648480Y-12912319D01*
X-2648496Y-12912320D01*
X-3185144Y-12912320D01*
X-3253265Y-12892318D01*
X-3288841Y-12857895D01*
X-3291102Y-12854619D01*
X-3318538Y-12830313D01*
X-3410070Y-12749222D01*
X-3410075Y-12749218D01*
X-3550803Y-12675359D01*
X-3550805Y-12675358D01*
X-3550807Y-12675357D01*
X-3550809Y-12675356D01*
X-3550810Y-12675356D01*
X-3705128Y-12637320D01*
X-3705129Y-12637320D01*
X-3864071Y-12637320D01*
X-3864073Y-12637320D01*
X-4018391Y-12675356D01*
X-4018398Y-12675359D01*
X-4159126Y-12749218D01*
X-4159131Y-12749222D01*
X-4278099Y-12854620D01*
X-4368385Y-12985421D01*
X-4368388Y-12985427D01*
X-4424751Y-13134040D01*
X-4443907Y-13291816D01*
X-4443907Y-13291823D01*
X-4424751Y-13449599D01*
X-4368388Y-13598212D01*
X-4368385Y-13598218D01*
X-4316257Y-13673738D01*
X-4294021Y-13741163D01*
X-4311768Y-13809905D01*
X-4336397Y-13839624D01*
X-4350369Y-13852002D01*
X-4350374Y-13852007D01*
X-4440659Y-13982808D01*
X-4440662Y-13982814D01*
X-4497025Y-14131427D01*
X-4516181Y-14289203D01*
X-4516181Y-14289210D01*
X-4497025Y-14446986D01*
X-4454079Y-14560221D01*
X-4440661Y-14595602D01*
X-4350372Y-14726408D01*
X-4231403Y-14831806D01*
X-4231402Y-14831806D01*
X-4231400Y-14831808D01*
X-4165078Y-14866616D01*
X-4090667Y-14905670D01*
X-3936345Y-14943707D01*
X-3936344Y-14943707D01*
X-3777404Y-14943707D01*
X-3777403Y-14943707D01*
X-3623081Y-14905670D01*
X-3482345Y-14831806D01*
X-3461144Y-14813022D01*
X-3396894Y-14782822D01*
X-3326513Y-14792151D01*
X-3288495Y-14818239D01*
X-2992825Y-15113909D01*
X-2958799Y-15176221D01*
X-2955920Y-15203004D01*
X-2955920Y-17527386D01*
X-2975922Y-17595507D01*
X-3029578Y-17642000D01*
X-3099852Y-17652104D01*
X-3164432Y-17622610D01*
X-3165473Y-17621698D01*
X-3232265Y-17562525D01*
X-3232275Y-17562518D01*
X-3373003Y-17488659D01*
X-3373005Y-17488658D01*
X-3373007Y-17488657D01*
X-3373009Y-17488656D01*
X-3373010Y-17488656D01*
X-3527328Y-17450620D01*
X-3527329Y-17450620D01*
X-3686271Y-17450620D01*
X-3686273Y-17450620D01*
X-3840591Y-17488656D01*
X-3840598Y-17488659D01*
X-3981326Y-17562518D01*
X-3981331Y-17562522D01*
X-4100297Y-17667917D01*
X-4100298Y-17667918D01*
X-4102559Y-17671195D01*
X-4104832Y-17673036D01*
X-4105351Y-17673623D01*
X-4105449Y-17673536D01*
X-4157717Y-17715895D01*
X-4206256Y-17725620D01*
X-8883757Y-17725620D01*
X-8951878Y-17705618D01*
X-8967311Y-17693932D01*
X-8968001Y-17693321D01*
X-8968002Y-17693319D01*
X-9086971Y-17587921D01*
X-9086972Y-17587920D01*
X-9086975Y-17587918D01*
X-9227703Y-17514059D01*
X-9227705Y-17514058D01*
X-9227707Y-17514057D01*
X-9227709Y-17514056D01*
X-9227710Y-17514056D01*
X-9382028Y-17476020D01*
X-9382029Y-17476020D01*
X-9540971Y-17476020D01*
X-9540973Y-17476020D01*
X-9695291Y-17514056D01*
X-9695298Y-17514059D01*
X-9836026Y-17587918D01*
X-9836031Y-17587922D01*
X-9954999Y-17693320D01*
X-10045285Y-17824121D01*
X-10045288Y-17824127D01*
X-10101651Y-17972740D01*
X-10120807Y-18130516D01*
X-10120807Y-18130523D01*
X-10101651Y-18288299D01*
X-10054920Y-18411515D01*
X-10045287Y-18436915D01*
X-9954998Y-18567721D01*
X-9836029Y-18673119D01*
X-9836028Y-18673119D01*
X-9836026Y-18673121D01*
X-9801358Y-18691316D01*
X-9695293Y-18746983D01*
X-9540971Y-18785020D01*
X-9540970Y-18785020D01*
X-9382030Y-18785020D01*
X-9382029Y-18785020D01*
X-9227707Y-18746983D01*
X-9086971Y-18673119D01*
X-8968002Y-18567721D01*
X-8948206Y-18539042D01*
X-8893047Y-18494343D01*
X-8844511Y-18484620D01*
X-4206256Y-18484620D01*
X-4138135Y-18504622D01*
X-4102559Y-18539045D01*
X-4100298Y-18542321D01*
X-4100297Y-18542322D01*
X-4098626Y-18543802D01*
X-3981329Y-18647719D01*
X-3981328Y-18647719D01*
X-3981326Y-18647721D01*
X-3932930Y-18673121D01*
X-3840593Y-18721583D01*
X-3686271Y-18759620D01*
X-3686270Y-18759620D01*
X-3527330Y-18759620D01*
X-3527329Y-18759620D01*
X-3373007Y-18721583D01*
X-3232271Y-18647719D01*
X-3165473Y-18588540D01*
X-3101221Y-18558340D01*
X-3030841Y-18567671D01*
X-2976677Y-18613571D01*
X-2955928Y-18681468D01*
X-2955920Y-18682853D01*
X-2955920Y-20748736D01*
X-2975922Y-20816857D01*
X-2992825Y-20837831D01*
X-3209209Y-21054215D01*
X-3271521Y-21088241D01*
X-3298304Y-21091120D01*
X-11169816Y-21091120D01*
X-11237937Y-21071118D01*
X-11258911Y-21054215D01*
X-15610995Y-16702131D01*
X-15645021Y-16639819D01*
X-15647900Y-16613036D01*
X-15647900Y-10494445D01*
X-15647899Y-10494432D01*
X-15647899Y-10384358D01*
X-15647900Y-10384356D01*
X-15649228Y-10379401D01*
X-15669020Y-10305537D01*
X-15673762Y-10287838D01*
X-15723724Y-10201301D01*
X-15723726Y-10201299D01*
X-15723730Y-10201294D01*
X-15798770Y-10126254D01*
X-15798793Y-10126233D01*
X-16499286Y-9425740D01*
X-16499298Y-9425726D01*
X-16577125Y-9347899D01*
X-16577135Y-9347891D01*
X-16647834Y-9307074D01*
X-16663668Y-9297932D01*
X-16663669Y-9297931D01*
X-16663670Y-9297931D01*
X-16673867Y-9295199D01*
X-16684066Y-9292466D01*
X-16760185Y-9272069D01*
X-16760188Y-9272069D01*
X-16860112Y-9272069D01*
X-16867830Y-9272069D01*
X-16867846Y-9272070D01*
X-19451704Y-9272070D01*
X-19519825Y-9252068D01*
X-19540799Y-9235166D01*
X-20170219Y-8605747D01*
X-20170229Y-8605735D01*
X-20248055Y-8527909D01*
X-20248065Y-8527901D01*
X-20334600Y-8477941D01*
X-20344797Y-8475209D01*
X-20354996Y-8472476D01*
X-20371400Y-8468080D01*
X-20400189Y-8460366D01*
X-20460811Y-8423414D01*
X-20485987Y-8373490D01*
X-20486597Y-8373744D01*
X-20489993Y-8365546D01*
X-20491155Y-8363242D01*
X-20491346Y-8362279D01*
X-20547596Y-8278096D01*
X-20547597Y-8278095D01*
X-20554491Y-8267777D01*
X-20551047Y-8265475D01*
X-20574042Y-8223363D01*
X-20568977Y-8152548D01*
X-20552411Y-8126771D01*
X-20554490Y-8125382D01*
X-20491346Y-8030882D01*
X-20486597Y-8019417D01*
X-20482473Y-8021125D01*
X-20460780Y-7979620D01*
X-20399097Y-7944467D01*
X-20370078Y-7941080D01*
X-19816356Y-7941080D01*
X-19816340Y-7941081D01*
X-19808622Y-7941081D01*
X-19708699Y-7941081D01*
X-19708698Y-7941081D01*
X-19632580Y-7920684D01*
X-19632578Y-7920684D01*
X-19625112Y-7918682D01*
X-19612178Y-7915218D01*
X-19525641Y-7865256D01*
X-19454984Y-7794599D01*
X-19444617Y-7784232D01*
X-19444610Y-7784222D01*
X-18685787Y-7025399D01*
X-17219748Y-7025399D01*
X-17199982Y-7276547D01*
X-17186813Y-7331401D01*
X-17141173Y-7521508D01*
X-17055848Y-7727500D01*
X-17044765Y-7754258D01*
X-16920737Y-7956653D01*
X-16913134Y-7969059D01*
X-16913133Y-7969061D01*
X-16749524Y-8160623D01*
X-16573219Y-8311201D01*
X-16557958Y-8324235D01*
X-16343158Y-8455865D01*
X-16110410Y-8552272D01*
X-15865447Y-8611082D01*
X-15614299Y-8630848D01*
X-15363151Y-8611082D01*
X-15118188Y-8552272D01*
X-14885440Y-8455865D01*
X-14670640Y-8324235D01*
X-14479075Y-8160623D01*
X-14315463Y-7969058D01*
X-14183833Y-7754258D01*
X-14087426Y-7521510D01*
X-14028616Y-7276547D01*
X-14008850Y-7025399D01*
X-14028616Y-6774251D01*
X-14087426Y-6529288D01*
X-14183833Y-6296540D01*
X-14315463Y-6081740D01*
X-14315466Y-6081737D01*
X-14315466Y-6081736D01*
X-14479075Y-5890174D01*
X-14670637Y-5726565D01*
X-14670639Y-5726564D01*
X-14670640Y-5726563D01*
X-14885440Y-5594933D01*
X-14902940Y-5587684D01*
X-15118190Y-5498525D01*
X-15285763Y-5458295D01*
X-15363151Y-5439716D01*
X-15614299Y-5419950D01*
X-15865447Y-5439716D01*
X-16110409Y-5498525D01*
X-16343157Y-5594932D01*
X-16557960Y-5726564D01*
X-16557962Y-5726565D01*
X-16749524Y-5890174D01*
X-16913133Y-6081736D01*
X-16913134Y-6081738D01*
X-17044766Y-6296541D01*
X-17141173Y-6529289D01*
X-17196772Y-6760880D01*
X-17199982Y-6774251D01*
X-17219748Y-7025399D01*
X-18685787Y-7025399D01*
X-18001858Y-6341470D01*
X-18001848Y-6341463D01*
X-17920830Y-6260445D01*
X-17920824Y-6260439D01*
X-17870862Y-6173902D01*
X-17863144Y-6145098D01*
X-17844999Y-6077382D01*
X-17844999Y-5977458D01*
X-17844999Y-5969741D01*
X-17845000Y-5969723D01*
X-17845000Y-25400D01*
X-6719647Y-25400D01*
X-6700266Y-531034D01*
X-6646325Y-998271D01*
X-6642235Y-1033700D01*
X-6642232Y-1033720D01*
X-6545899Y-1530443D01*
X-6545897Y-1530448D01*
X-6545896Y-1530451D01*
X-6443013Y-1904839D01*
X-6411812Y-2018375D01*
X-6240775Y-2494595D01*
X-6045076Y-2931135D01*
X-6033784Y-2956323D01*
X-5792056Y-3400856D01*
X-5517007Y-3825579D01*
X-5517006Y-3825580D01*
X-5517007Y-3825580D01*
X-5210258Y-4227998D01*
X-5045954Y-4412361D01*
X-4876062Y-4602994D01*
X-4873591Y-4605766D01*
X-4509010Y-4956641D01*
X-4509005Y-4956645D01*
X-4118633Y-5278582D01*
X-4118630Y-5278585D01*
X-3737801Y-5546454D01*
X-3704752Y-5569700D01*
X-3269805Y-5828278D01*
X-2816340Y-6052803D01*
X-2744540Y-6081741D01*
X-2347033Y-6241952D01*
X-2347024Y-6241955D01*
X-2347019Y-6241957D01*
X-1864595Y-6394629D01*
X-1864585Y-6394631D01*
X-1864583Y-6394632D01*
X-1718532Y-6428809D01*
X-1371899Y-6509924D01*
X-871824Y-6587166D01*
X-871816Y-6587166D01*
X-871806Y-6587168D01*
X-367306Y-6625900D01*
X-367303Y-6625900D01*
X138706Y-6625900D01*
X643205Y-6587168D01*
X643213Y-6587166D01*
X643224Y-6587166D01*
X1143299Y-6509924D01*
X1635995Y-6394629D01*
X2118419Y-6241957D01*
X2118428Y-6241953D01*
X2118432Y-6241952D01*
X2287274Y-6173902D01*
X2587740Y-6052803D01*
X3041205Y-5828278D01*
X3476152Y-5569700D01*
X3890029Y-5278585D01*
X4280407Y-4956643D01*
X4644995Y-4605762D01*
X4981654Y-4228002D01*
X5288407Y-3825579D01*
X5563456Y-3400856D01*
X5805184Y-2956323D01*
X6012176Y-2494591D01*
X6183214Y-2018369D01*
X6317296Y-1530451D01*
X6351293Y-1355156D01*
X6413631Y-1033720D01*
X6413635Y-1033701D01*
X6471666Y-531034D01*
X6491047Y-25400D01*
X6471666Y480234D01*
X6413635Y982901D01*
X6358527Y1267055D01*
X6317298Y1479644D01*
X6317296Y1479649D01*
X6317296Y1479651D01*
X6183214Y1967569D01*
X6012176Y2443791D01*
X5953535Y2574599D01*
X5903969Y2685165D01*
X5805184Y2905523D01*
X5563456Y3350056D01*
X5288407Y3774779D01*
X5288405Y3774781D01*
X5288406Y3774781D01*
X4981657Y4177199D01*
X4852574Y4322041D01*
X4644995Y4554962D01*
X4410332Y4780803D01*
X4280409Y4905842D01*
X4280404Y4905846D01*
X3890032Y5227783D01*
X3890029Y5227786D01*
X3476160Y5518895D01*
X3467025Y5524326D01*
X3041205Y5777478D01*
X2587740Y6002003D01*
X2587738Y6002004D01*
X2587721Y6002011D01*
X2118432Y6191153D01*
X2118414Y6191159D01*
X1823639Y6284446D01*
X1635995Y6343829D01*
X1635991Y6343830D01*
X1635982Y6343833D01*
X1404536Y6397993D01*
X6030250Y6397993D01*
X6050016Y6146846D01*
X6108825Y5901884D01*
X6179233Y5731905D01*
X6205233Y5669134D01*
X6330793Y5464239D01*
X6336864Y5454333D01*
X6336865Y5454331D01*
X6500474Y5262769D01*
X6692036Y5099160D01*
X6692040Y5099157D01*
X6906840Y4967527D01*
X7139588Y4871120D01*
X7384551Y4812310D01*
X7635699Y4792544D01*
X7886847Y4812310D01*
X8131810Y4871120D01*
X8364558Y4967527D01*
X8579358Y5099157D01*
X8770923Y5262769D01*
X8934535Y5454334D01*
X9066165Y5669134D01*
X9162572Y5901882D01*
X9221382Y6146845D01*
X9241148Y6397993D01*
X9221382Y6649141D01*
X9162572Y6894104D01*
X9066165Y7126852D01*
X8934535Y7341652D01*
X8934532Y7341656D01*
X8770923Y7533218D01*
X8579361Y7696827D01*
X8579359Y7696828D01*
X8579358Y7696829D01*
X8364558Y7828459D01*
X8237916Y7880916D01*
X8131808Y7924867D01*
X7964235Y7965097D01*
X7886847Y7983676D01*
X7635699Y8003442D01*
X7384551Y7983676D01*
X7139589Y7924867D01*
X6906841Y7828460D01*
X6692038Y7696828D01*
X6692036Y7696827D01*
X6500474Y7533218D01*
X6336865Y7341656D01*
X6336864Y7341654D01*
X6205232Y7126851D01*
X6108825Y6894103D01*
X6050016Y6649141D01*
X6030250Y6397993D01*
X1404536Y6397993D01*
X1143301Y6459124D01*
X1143284Y6459127D01*
X643233Y6536365D01*
X643205Y6536369D01*
X138706Y6575100D01*
X138703Y6575100D01*
X-367303Y6575100D01*
X-367306Y6575100D01*
X-871806Y6536369D01*
X-871834Y6536365D01*
X-1371885Y6459127D01*
X-1371902Y6459124D01*
X-1864583Y6343833D01*
X-1864592Y6343830D01*
X-2347015Y6191159D01*
X-2347033Y6191153D01*
X-2816322Y6002011D01*
X-2816339Y6002004D01*
X-3269796Y5777483D01*
X-3269803Y5777479D01*
X-3704761Y5518895D01*
X-4118630Y5227786D01*
X-4118633Y5227783D01*
X-4509005Y4905846D01*
X-4509010Y4905842D01*
X-4873591Y4554967D01*
X-5210258Y4177199D01*
X-5517006Y3774781D01*
X-5792053Y3350061D01*
X-6033787Y2905518D01*
X-6240775Y2443796D01*
X-6411812Y1967576D01*
X-6545897Y1479649D01*
X-6545899Y1479644D01*
X-6642232Y982921D01*
X-6642235Y982901D01*
X-6700266Y480234D01*
X-6719647Y-25400D01*
X-17845000Y-25400D01*
X-17845000Y2737578D01*
X-17824998Y2805699D01*
X-17802558Y2831887D01*
X-17731002Y2895279D01*
X-17640713Y3026085D01*
X-17584351Y3174698D01*
X-17584351Y3174699D01*
X-17584350Y3174701D01*
X-17565193Y3332477D01*
X-17565193Y3332484D01*
X-17584350Y3490260D01*
X-17626847Y3602313D01*
X-17640713Y3638875D01*
X-17731002Y3769681D01*
X-17849971Y3875079D01*
X-17849972Y3875080D01*
X-17849975Y3875082D01*
X-17990703Y3948941D01*
X-17990705Y3948942D01*
X-17990707Y3948943D01*
X-17990709Y3948944D01*
X-17990710Y3948944D01*
X-18145028Y3986980D01*
X-18145029Y3986980D01*
X-18303971Y3986980D01*
X-18303973Y3986980D01*
X-18458291Y3948944D01*
X-18458298Y3948941D01*
X-18599026Y3875082D01*
X-18599031Y3875078D01*
X-18627701Y3849678D01*
X-18712243Y3774779D01*
X-18718000Y3769679D01*
X-18718001Y3769679D01*
X-18802672Y3647012D01*
X-18857830Y3602313D01*
X-18928399Y3594530D01*
X-18991973Y3626136D01*
X-19010063Y3647013D01*
X-19018060Y3658599D01*
X-19077202Y3744281D01*
X-19196171Y3849679D01*
X-19196172Y3849680D01*
X-19196175Y3849682D01*
X-19336903Y3923541D01*
X-19336905Y3923542D01*
X-19336907Y3923543D01*
X-19336909Y3923544D01*
X-19336910Y3923544D01*
X-19491228Y3961580D01*
X-19491229Y3961580D01*
X-19650171Y3961580D01*
X-19650173Y3961580D01*
X-19804491Y3923544D01*
X-19804498Y3923541D01*
X-19945226Y3849682D01*
X-19945231Y3849678D01*
X-20064199Y3744280D01*
X-20154485Y3613479D01*
X-20154488Y3613473D01*
X-20210851Y3464860D01*
X-20230007Y3307084D01*
X-20230007Y3307077D01*
X-20210851Y3149301D01*
X-20154488Y3000688D01*
X-20154485Y3000682D01*
X-20064200Y2869881D01*
X-20064199Y2869880D01*
X-20064198Y2869879D01*
X-19992645Y2806488D01*
X-19954921Y2746346D01*
X-19950200Y2712178D01*
X-19950200Y-5023014D01*
X-19970202Y-5091135D01*
X-19987105Y-5112109D01*
X-20113671Y-5238675D01*
X-20175983Y-5272701D01*
X-20202766Y-5275580D01*
X-23639080Y-5275580D01*
X-23639080Y-5440177D01*
X-23632575Y-5500673D01*
X-23581525Y-5637544D01*
X-23581525Y-5637545D01*
X-23493987Y-5754481D01*
X-23436071Y-5797836D01*
X-23393525Y-5854672D01*
X-23385580Y-5898705D01*
X-23385580Y-6686643D01*
X-23385579Y-6686653D01*
X-23370815Y-6760880D01*
X-23307669Y-6855383D01*
X-23311114Y-6857684D01*
X-23288118Y-6899797D01*
X-23293183Y-6970612D01*
X-23309750Y-6996388D01*
X-23307670Y-6997778D01*
X-23370814Y-7092277D01*
X-23385580Y-7166510D01*
X-23385580Y-7956643D01*
X-23385579Y-7956653D01*
X-23370815Y-8030880D01*
X-23307669Y-8125383D01*
X-23311114Y-8127684D01*
X-23288118Y-8169797D01*
X-23293183Y-8240612D01*
X-23309750Y-8266388D01*
X-23307670Y-8267778D01*
X-23370814Y-8362277D01*
X-23385580Y-8436510D01*
X-23385580Y-9226643D01*
X-23385579Y-9226653D01*
X-23370815Y-9300880D01*
X-23307669Y-9395383D01*
X-23311114Y-9397684D01*
X-23288118Y-9439797D01*
X-23293183Y-9510612D01*
X-23309750Y-9536388D01*
X-23307670Y-9537778D01*
X-23370814Y-9632277D01*
X-23385580Y-9706510D01*
X-23385580Y-10496643D01*
X-23385579Y-10496653D01*
X-23370815Y-10570880D01*
X-23307669Y-10665383D01*
X-23311114Y-10667684D01*
X-23288118Y-10709797D01*
X-23293183Y-10780612D01*
X-23309750Y-10806388D01*
X-23307670Y-10807778D01*
X-23370814Y-10902277D01*
X-23385580Y-10976510D01*
X-23385580Y-11766643D01*
X-23385579Y-11766653D01*
X-23370815Y-11840880D01*
X-23307669Y-11935383D01*
X-23311114Y-11937684D01*
X-23288118Y-11979797D01*
X-23293183Y-12050612D01*
X-23309750Y-12076388D01*
X-23307670Y-12077778D01*
X-23370814Y-12172277D01*
X-23385580Y-12246510D01*
X-23385580Y-13036643D01*
X-23385579Y-13036653D01*
X-23370815Y-13110880D01*
X-23314564Y-13195064D01*
X-23230383Y-13251313D01*
X-23230381Y-13251314D01*
X-23156147Y-13266080D01*
X-21445445Y-13266079D01*
X-21377324Y-13286081D01*
X-21356350Y-13302984D01*
X-12007608Y-22651726D01*
X-12007587Y-22651749D01*
X-11932547Y-22726789D01*
X-11932542Y-22726793D01*
X-11932540Y-22726795D01*
X-11932539Y-22726796D01*
X-11932537Y-22726797D01*
X-11846007Y-22776755D01*
X-11846003Y-22776757D01*
X-11825612Y-22782220D01*
X-11825607Y-22782223D01*
X-11825606Y-22782222D01*
X-11749483Y-22802620D01*
X-11639408Y-22802620D01*
X-11639396Y-22802619D01*
X-3352589Y-22802619D01*
X-3284468Y-22822621D01*
X-3237975Y-22876277D01*
X-3227871Y-22946551D01*
X-3257365Y-23011131D01*
X-3263493Y-23017714D01*
X-3763373Y-23517595D01*
X-3825686Y-23551620D01*
X-3852469Y-23554500D01*
X-13506616Y-23554500D01*
X-13574737Y-23534498D01*
X-13595711Y-23517595D01*
X-23713595Y-13399711D01*
X-23747621Y-13337399D01*
X-23750500Y-13310616D01*
X-23750500Y-12302785D01*
X-23750499Y-12302772D01*
X-23750499Y-12192698D01*
X-23750500Y-12192694D01*
X-23776360Y-12096184D01*
X-23776365Y-12096172D01*
X-23792998Y-12067363D01*
X-23826322Y-12009644D01*
X-23826330Y-12009634D01*
X-23901370Y-11934594D01*
X-23901393Y-11934573D01*
X-24339676Y-11496290D01*
X-24373702Y-11433978D01*
X-24376581Y-11407195D01*
X-24376581Y-10976516D01*
X-24376582Y-10976507D01*
X-24391346Y-10902279D01*
X-24454491Y-10807777D01*
X-24451047Y-10805475D01*
X-24474042Y-10763363D01*
X-24468977Y-10692548D01*
X-24452411Y-10666771D01*
X-24454490Y-10665382D01*
X-24414419Y-10605411D01*
X-24391346Y-10570881D01*
X-24376580Y-10496647D01*
X-24376581Y-9706514D01*
X-24376582Y-9706510D01*
X-24376582Y-9706506D01*
X-24391346Y-9632279D01*
X-24454491Y-9537777D01*
X-24451047Y-9535475D01*
X-24474042Y-9493363D01*
X-24468977Y-9422548D01*
X-24452411Y-9396771D01*
X-24454490Y-9395382D01*
X-24391347Y-9300882D01*
X-24391348Y-9300882D01*
X-24391346Y-9300881D01*
X-24376580Y-9226647D01*
X-24376581Y-8436514D01*
X-24376582Y-8436510D01*
X-24376582Y-8436506D01*
X-24391346Y-8362279D01*
X-24454491Y-8267777D01*
X-24451047Y-8265475D01*
X-24474042Y-8223363D01*
X-24468977Y-8152548D01*
X-24452411Y-8126771D01*
X-24454490Y-8125382D01*
X-24391347Y-8030882D01*
X-24391348Y-8030882D01*
X-24391346Y-8030881D01*
X-24376580Y-7956647D01*
X-24376581Y-7166514D01*
X-24376582Y-7166510D01*
X-24376582Y-7166506D01*
X-24391346Y-7092279D01*
X-24454491Y-6997777D01*
X-24451047Y-6995475D01*
X-24474042Y-6953363D01*
X-24468977Y-6882548D01*
X-24452411Y-6856771D01*
X-24454490Y-6855382D01*
X-24414177Y-6795049D01*
X-24391346Y-6760881D01*
X-24376580Y-6686647D01*
X-24376581Y-5896514D01*
X-24376582Y-5896510D01*
X-24376582Y-5896506D01*
X-24391346Y-5822279D01*
X-24454491Y-5727777D01*
X-24451047Y-5725475D01*
X-24474042Y-5683363D01*
X-24468977Y-5612548D01*
X-24452411Y-5586771D01*
X-24454490Y-5585382D01*
X-24396455Y-5498527D01*
X-24391346Y-5490881D01*
X-24376580Y-5416647D01*
X-24376581Y-4626514D01*
X-24376582Y-4626511D01*
X-24376582Y-4626506D01*
X-24391346Y-4552279D01*
X-24454491Y-4457777D01*
X-24451047Y-4455475D01*
X-24474042Y-4413363D01*
X-24468977Y-4342548D01*
X-24452411Y-4316771D01*
X-24454490Y-4315382D01*
X-24396104Y-4228002D01*
X-24391346Y-4220881D01*
X-24376580Y-4146647D01*
X-24376580Y-4005580D01*
X-23639080Y-4005580D01*
X-23639080Y-4170177D01*
X-23632575Y-4230675D01*
X-23590849Y-4342549D01*
X-23585785Y-4413364D01*
X-23590849Y-4430611D01*
X-23632575Y-4542484D01*
X-23639080Y-4602982D01*
X-23639080Y-4767580D01*
X-22185080Y-4767580D01*
X-22185080Y-4005580D01*
X-21677080Y-4005580D01*
X-21677080Y-4767580D01*
X-20223080Y-4767580D01*
X-20223080Y-4602994D01*
X-20223081Y-4602982D01*
X-20229586Y-4542483D01*
X-20271312Y-4430613D01*
X-20276378Y-4359797D01*
X-20271312Y-4342547D01*
X-20229586Y-4230676D01*
X-20223081Y-4170177D01*
X-20223080Y-4170165D01*
X-20223080Y-4005580D01*
X-21677080Y-4005580D01*
X-22185080Y-4005580D01*
X-23639080Y-4005580D01*
X-24376580Y-4005580D01*
X-24376581Y-3497580D01*
X-23639080Y-3497580D01*
X-22185080Y-3497580D01*
X-22185080Y-2873580D01*
X-21677080Y-2873580D01*
X-21677080Y-3497580D01*
X-20223080Y-3497580D01*
X-20223080Y-3332994D01*
X-20223081Y-3332982D01*
X-20229586Y-3272486D01*
X-20280636Y-3135615D01*
X-20280636Y-3135614D01*
X-20368176Y-3018675D01*
X-20485115Y-2931135D01*
X-20621987Y-2880085D01*
X-20682483Y-2873580D01*
X-21677080Y-2873580D01*
X-22185080Y-2873580D01*
X-23179678Y-2873580D01*
X-23240174Y-2880085D01*
X-23377045Y-2931135D01*
X-23377046Y-2931135D01*
X-23493985Y-3018675D01*
X-23581525Y-3135614D01*
X-23581525Y-3135615D01*
X-23632575Y-3272486D01*
X-23639080Y-3332982D01*
X-23639080Y-3497580D01*
X-24376581Y-3497580D01*
X-24376581Y-3356514D01*
X-24376582Y-3356511D01*
X-24376582Y-3356506D01*
X-24391346Y-3282279D01*
X-24447597Y-3198095D01*
X-24531778Y-3141846D01*
X-24606011Y-3127080D01*
X-24606013Y-3127080D01*
X-25243387Y-3127080D01*
X-25311508Y-3107078D01*
X-25332483Y-3090174D01*
X-25372496Y-3050160D01*
X-25372502Y-3050155D01*
X-25426100Y-3014342D01*
X-25479698Y-2978529D01*
X-25598809Y-2929191D01*
X-25598812Y-2929190D01*
X-25598815Y-2929189D01*
X-25598814Y-2929189D01*
X-25725251Y-2904040D01*
X-25725258Y-2904040D01*
X-25854182Y-2904040D01*
X-25854187Y-2904040D01*
X-25917030Y-2916540D01*
X-25931403Y-2919399D01*
X-25955981Y-2921820D01*
X-26763260Y-2921820D01*
X-26831381Y-2901818D01*
X-26877874Y-2848162D01*
X-26889260Y-2795820D01*
X-26889260Y2712580D01*
X-24774261Y2712580D01*
X-24754446Y2460806D01*
X-24695489Y2215231D01*
X-24695488Y2215229D01*
X-24598840Y1981900D01*
X-24467251Y1767166D01*
X-24466880Y1766562D01*
X-24466879Y1766560D01*
X-24302862Y1574519D01*
X-24116716Y1415537D01*
X-24110817Y1410499D01*
X-23895480Y1278540D01*
X-23662151Y1181892D01*
X-23416575Y1122934D01*
X-23164800Y1103119D01*
X-22913025Y1122934D01*
X-22667449Y1181892D01*
X-22434120Y1278540D01*
X-22218783Y1410499D01*
X-22026739Y1574519D01*
X-21862719Y1766563D01*
X-21730760Y1981900D01*
X-21634112Y2215229D01*
X-21575154Y2460805D01*
X-21555339Y2712580D01*
X-21575154Y2964355D01*
X-21634112Y3209931D01*
X-21730760Y3443260D01*
X-21862719Y3658597D01*
X-21862722Y3658601D01*
X-22026739Y3850642D01*
X-22218780Y4014659D01*
X-22218782Y4014660D01*
X-22218783Y4014661D01*
X-22434120Y4146620D01*
X-22507951Y4177202D01*
X-22667451Y4243269D01*
X-22835442Y4283600D01*
X-22913025Y4302226D01*
X-23164800Y4322041D01*
X-23416575Y4302226D01*
X-23662150Y4243269D01*
X-23895479Y4146621D01*
X-24110819Y4014660D01*
X-24110821Y4014659D01*
X-24302862Y3850642D01*
X-24466879Y3658601D01*
X-24466880Y3658599D01*
X-24598841Y3443259D01*
X-24695489Y3209930D01*
X-24754446Y2964355D01*
X-24774261Y2712580D01*
X-26889260Y2712580D01*
X-26889260Y5524314D01*
X-24769300Y5524314D01*
X-24762842Y5464245D01*
X-24762841Y5464240D01*
X-24762840Y5464239D01*
X-24712142Y5328313D01*
X-24625204Y5212176D01*
X-24509067Y5125238D01*
X-24373141Y5074540D01*
X-24373138Y5074540D01*
X-24373136Y5074539D01*
X-24313067Y5068081D01*
X-24313059Y5068081D01*
X-24313054Y5068080D01*
X-24313050Y5068080D01*
X-22016550Y5068080D01*
X-22016546Y5068080D01*
X-22016541Y5068081D01*
X-22016534Y5068081D01*
X-21956465Y5074539D01*
X-21956464Y5074540D01*
X-21956459Y5074540D01*
X-21820533Y5125238D01*
X-21704396Y5212176D01*
X-21617458Y5328313D01*
X-21566760Y5464239D01*
X-21560300Y5524326D01*
X-21560300Y6397993D01*
X-9469748Y6397993D01*
X-9449982Y6146846D01*
X-9391173Y5901884D01*
X-9320765Y5731905D01*
X-9294765Y5669134D01*
X-9169205Y5464239D01*
X-9163134Y5454333D01*
X-9163133Y5454331D01*
X-8999524Y5262769D01*
X-8807962Y5099160D01*
X-8807958Y5099157D01*
X-8593158Y4967527D01*
X-8360410Y4871120D01*
X-8115447Y4812310D01*
X-7864299Y4792544D01*
X-7613151Y4812310D01*
X-7368188Y4871120D01*
X-7135440Y4967527D01*
X-6920640Y5099157D01*
X-6729075Y5262769D01*
X-6565463Y5454334D01*
X-6433833Y5669134D01*
X-6337426Y5901882D01*
X-6278616Y6146845D01*
X-6258850Y6397993D01*
X-6278616Y6649141D01*
X-6337426Y6894104D01*
X-6433833Y7126852D01*
X-6565463Y7341652D01*
X-6565466Y7341656D01*
X-6729075Y7533218D01*
X-6920637Y7696827D01*
X-6920639Y7696828D01*
X-6920640Y7696829D01*
X-7135440Y7828459D01*
X-7262082Y7880916D01*
X-7368190Y7924867D01*
X-7535763Y7965097D01*
X-7613151Y7983676D01*
X-7864299Y8003442D01*
X-8115447Y7983676D01*
X-8360409Y7924867D01*
X-8593157Y7828460D01*
X-8807960Y7696828D01*
X-8807962Y7696827D01*
X-8999524Y7533218D01*
X-9163133Y7341656D01*
X-9163134Y7341654D01*
X-9294766Y7126851D01*
X-9391173Y6894103D01*
X-9449982Y6649141D01*
X-9469748Y6397993D01*
X-21560300Y6397993D01*
X-21560300Y7820834D01*
X-21560301Y7820847D01*
X-21566759Y7880916D01*
X-21566760Y7880918D01*
X-21566760Y7880921D01*
X-21617458Y8016847D01*
X-21704396Y8132984D01*
X-21820533Y8219922D01*
X-21956459Y8270620D01*
X-21956460Y8270621D01*
X-21956465Y8270622D01*
X-22016534Y8277080D01*
X-22016546Y8277080D01*
X-24313054Y8277080D01*
X-24313067Y8277080D01*
X-24373136Y8270622D01*
X-24373141Y8270620D01*
X-24509067Y8219922D01*
X-24509068Y8219922D01*
X-24509069Y8219921D01*
X-24625204Y8132984D01*
X-24712141Y8016849D01*
X-24762842Y7880916D01*
X-24769300Y7820847D01*
X-24769300Y5524314D01*
X-26889260Y5524314D01*
X-26889260Y7383068D01*
X-26869258Y7451189D01*
X-26852355Y7472163D01*
X-25465523Y8858995D01*
X-25403211Y8893021D01*
X-25376428Y8895900D01*
X-23624614Y8895900D01*
X-23624613Y8895900D01*
X-23498165Y8921052D01*
X-23441003Y8944730D01*
X-23392785Y8954320D01*
X-23384818Y8954320D01*
X-23384817Y8954320D01*
X-23258369Y8979472D01*
X-23139258Y9028809D01*
X-23032060Y9100437D01*
X-22940897Y9191600D01*
X-22940896Y9191601D01*
X-22480500Y9651997D01*
X-3961307Y9651997D01*
X-3942151Y9494221D01*
X-3893553Y9366081D01*
X-3885787Y9345605D01*
X-3795498Y9214799D01*
X-3676529Y9109401D01*
X-3676528Y9109401D01*
X-3676526Y9109399D01*
X-3659450Y9100437D01*
X-3535793Y9035537D01*
X-3381471Y8997500D01*
X-3381470Y8997500D01*
X-3222530Y8997500D01*
X-3222529Y8997500D01*
X-3068207Y9035537D01*
X-2927471Y9109401D01*
X-2808502Y9214799D01*
X-2718213Y9345605D01*
X-2661851Y9494218D01*
X-2661851Y9494219D01*
X-2661850Y9494221D01*
X-2642693Y9651997D01*
X-2642693Y9652004D01*
X-2661850Y9809780D01*
X-2675462Y9845669D01*
X-2718213Y9958395D01*
X-2775197Y10040950D01*
X-2797432Y10108374D01*
X-2797500Y10112525D01*
X-2797500Y11508136D01*
X-2777498Y11576257D01*
X-2730054Y11619704D01*
X-2718986Y11625514D01*
X-2673471Y11649401D01*
X-2554502Y11754799D01*
X-2464213Y11885605D01*
X-2407851Y12034218D01*
X-2407851Y12034219D01*
X-2407850Y12034221D01*
X-2388693Y12191997D01*
X-2388693Y12192004D01*
X-2407850Y12349780D01*
X-2426280Y12398375D01*
X-2464213Y12498395D01*
X-2554502Y12629201D01*
X-2673471Y12734599D01*
X-2673472Y12734600D01*
X-2673475Y12734602D01*
X-2814203Y12808461D01*
X-2814205Y12808462D01*
X-2814207Y12808463D01*
X-2814209Y12808464D01*
X-2814210Y12808464D01*
X-2968528Y12846500D01*
X-2968529Y12846500D01*
X-3127471Y12846500D01*
X-3127473Y12846500D01*
X-3281791Y12808464D01*
X-3281798Y12808461D01*
X-3422526Y12734602D01*
X-3422531Y12734598D01*
X-3541499Y12629200D01*
X-3631785Y12498399D01*
X-3631788Y12498393D01*
X-3688150Y12349780D01*
X-3696060Y12284635D01*
X-3712020Y12236825D01*
X-3734576Y12197755D01*
X-3734578Y12197753D01*
X-3772117Y12132736D01*
X-3772120Y12132729D01*
X-3806500Y12004418D01*
X-3806500Y10112525D01*
X-3826502Y10044404D01*
X-3828804Y10040949D01*
X-3885785Y9958399D01*
X-3885788Y9958393D01*
X-3942151Y9809780D01*
X-3961307Y9652004D01*
X-3961307Y9651997D01*
X-22480500Y9651997D01*
X-19178500Y12953997D01*
X2388693Y12953997D01*
X2407849Y12796221D01*
X2456447Y12668081D01*
X2464213Y12647605D01*
X2554502Y12516799D01*
X2673471Y12411401D01*
X2673472Y12411401D01*
X2673474Y12411399D01*
X2734484Y12379379D01*
X2814207Y12337537D01*
X2961632Y12301200D01*
X3020573Y12267956D01*
X3268595Y12019934D01*
X3302621Y11957622D01*
X3305500Y11930839D01*
X3305500Y9604525D01*
X3285498Y9536404D01*
X3283196Y9532949D01*
X3226215Y9450399D01*
X3226212Y9450393D01*
X3169849Y9301780D01*
X3150693Y9144004D01*
X3150693Y9143997D01*
X3169849Y8986221D01*
X3194564Y8921055D01*
X3226213Y8837605D01*
X3316502Y8706799D01*
X3435471Y8601401D01*
X3435472Y8601401D01*
X3435474Y8601399D01*
X3510200Y8562180D01*
X3576207Y8527537D01*
X3730529Y8489500D01*
X3730530Y8489500D01*
X3889470Y8489500D01*
X3889471Y8489500D01*
X4043793Y8527537D01*
X4184529Y8601401D01*
X4303498Y8706799D01*
X4393787Y8837605D01*
X4450149Y8986218D01*
X4450149Y8986219D01*
X4450150Y8986221D01*
X4469307Y9143997D01*
X4469307Y9144004D01*
X4450150Y9301780D01*
X4433528Y9345608D01*
X4393787Y9450395D01*
X4336803Y9532950D01*
X4314568Y9600374D01*
X4314500Y9604525D01*
X4314500Y12258418D01*
X4314500Y12258419D01*
X4280119Y12386730D01*
X4262744Y12416824D01*
X4245899Y12446001D01*
X4245898Y12446002D01*
X4239094Y12457786D01*
X4213701Y12501770D01*
X3730564Y12984907D01*
X3696541Y13047217D01*
X3694582Y13058793D01*
X3688149Y13111782D01*
X3631787Y13260395D01*
X3541498Y13391201D01*
X3422529Y13496599D01*
X3422528Y13496600D01*
X3422525Y13496602D01*
X3281797Y13570461D01*
X3281795Y13570462D01*
X3281793Y13570463D01*
X3281791Y13570464D01*
X3281790Y13570464D01*
X3127472Y13608500D01*
X3127471Y13608500D01*
X2968529Y13608500D01*
X2968527Y13608500D01*
X2814209Y13570464D01*
X2814202Y13570461D01*
X2673474Y13496602D01*
X2673469Y13496598D01*
X2554501Y13391200D01*
X2464215Y13260399D01*
X2464212Y13260393D01*
X2407849Y13111780D01*
X2388693Y12954004D01*
X2388693Y12953997D01*
X-19178500Y12953997D01*
X-18112222Y14020275D01*
X-18049910Y14054301D01*
X-18023127Y14057180D01*
X4412085Y14057180D01*
X4480206Y14037178D01*
X4501180Y14020275D01*
X5166735Y13354720D01*
X5182405Y13335627D01*
X5236890Y13254085D01*
X5236895Y13254079D01*
X5947580Y12543395D01*
X6631034Y11859941D01*
X6754611Y11777370D01*
X6809103Y11754799D01*
X6891920Y11720495D01*
X6896731Y11719539D01*
X6916106Y11715684D01*
X6916109Y11715684D01*
X6933809Y11712164D01*
X7037688Y11691499D01*
X7037691Y11691499D01*
X7192525Y11691499D01*
X7192545Y11691500D01*
X9472311Y11691500D01*
X9472312Y11691500D01*
X9618080Y11720495D01*
X9755390Y11777371D01*
X9878966Y11859941D01*
X9984059Y11965034D01*
X10066629Y12088610D01*
X10123505Y12225920D01*
X10152500Y12371688D01*
X10152500Y12520312D01*
X10123505Y12666080D01*
X10066629Y12803390D01*
X9984059Y12926966D01*
X9984057Y12926968D01*
X9984052Y12926974D01*
X9878973Y13032053D01*
X9878967Y13032058D01*
X9838922Y13058815D01*
X9755390Y13114629D01*
X9618080Y13171505D01*
X9472314Y13200500D01*
X9472312Y13200500D01*
X7476715Y13200500D01*
X7408594Y13220502D01*
X7387620Y13237405D01*
X6479160Y14145865D01*
X6463489Y14164959D01*
X6437872Y14203298D01*
X6437872Y14203299D01*
X6409011Y14246493D01*
X6409005Y14246501D01*
X6299521Y14355985D01*
X6299510Y14355995D01*
X5489669Y15165836D01*
X5489668Y15165837D01*
X5489665Y15165840D01*
X5366088Y15248411D01*
X5261600Y15291691D01*
X5228781Y15305285D01*
X5228780Y15305286D01*
X5097075Y15331485D01*
X5073443Y15338654D01*
X5067717Y15341026D01*
X5067713Y15341028D01*
X5067711Y15341028D01*
X5025561Y15349412D01*
X4941265Y15366180D01*
X4941263Y15366180D01*
X-18410883Y15366180D01*
X-18410886Y15366180D01*
X-18537332Y15341028D01*
X-18537337Y15341026D01*
X-18656443Y15291691D01*
X-18763639Y15220065D01*
X-18763645Y15220060D01*
X-23699630Y10284075D01*
X-23761942Y10250049D01*
X-23764142Y10249591D01*
X-23821570Y10238168D01*
X-23821571Y10238167D01*
X-23878729Y10214491D01*
X-23926947Y10204900D01*
X-25764186Y10204900D01*
X-25890632Y10179748D01*
X-25890637Y10179746D01*
X-26009742Y10130411D01*
X-26116940Y10058784D01*
X-26162521Y10013202D01*
X-26208103Y9967620D01*
X-28052142Y8123582D01*
X-28052147Y8123575D01*
X-28096797Y8056751D01*
X-28123771Y8016382D01*
X-28173106Y7897277D01*
X-28173108Y7897272D01*
X-28198260Y7770826D01*
X-28198260Y-4920944D01*
X-28173108Y-5047391D01*
X-28173106Y-5047396D01*
X-28123771Y-5166502D01*
X-28052145Y-5273698D01*
X-28052140Y-5273704D01*
X-27960985Y-5364859D01*
X-27960979Y-5364864D01*
X-27853782Y-5436491D01*
X-27734671Y-5485828D01*
X-27608223Y-5510980D01*
X-27608222Y-5510980D01*
X-27479298Y-5510980D01*
X-27479297Y-5510980D01*
X-27365988Y-5488441D01*
X-27295279Y-5494769D01*
X-27239211Y-5538322D01*
X-27236661Y-5541994D01*
X-27214564Y-5575064D01*
X-27214563Y-5575064D01*
X-27207669Y-5585382D01*
X-27211115Y-5587684D01*
X-27188118Y-5629797D01*
X-27193183Y-5700612D01*
X-27209750Y-5726388D01*
X-27207670Y-5727778D01*
X-27270814Y-5822277D01*
X-27285580Y-5896510D01*
X-27285580Y-6686643D01*
X-27285579Y-6686653D01*
X-27270815Y-6760880D01*
X-27207669Y-6855383D01*
X-27211114Y-6857684D01*
X-27188118Y-6899797D01*
X-27193183Y-6970612D01*
X-27209750Y-6996388D01*
X-27207670Y-6997778D01*
X-27270814Y-7092277D01*
X-27285580Y-7166510D01*
X-27285580Y-7956643D01*
X-27285579Y-7956653D01*
X-27270815Y-8030880D01*
X-27207669Y-8125383D01*
X-27211114Y-8127684D01*
X-27188118Y-8169797D01*
X-27193183Y-8240612D01*
X-27209749Y-8266388D01*
X-27207669Y-8267778D01*
X-27214563Y-8278095D01*
X-27214564Y-8278096D01*
X-27225515Y-8294484D01*
X-27279991Y-8340010D01*
X-27330278Y-8350480D01*
X-28112704Y-8350480D01*
X-28180825Y-8330478D01*
X-28216401Y-8296055D01*
X-28217486Y-8294483D01*
X-28218662Y-8292779D01*
X-28235236Y-8278096D01*
X-28337630Y-8187382D01*
X-28337635Y-8187378D01*
X-28478363Y-8113519D01*
X-28478365Y-8113518D01*
X-28478367Y-8113517D01*
X-28478369Y-8113516D01*
X-28478370Y-8113516D01*
X-28632688Y-8075480D01*
X-28632689Y-8075480D01*
X-28791631Y-8075480D01*
X-28791633Y-8075480D01*
X-28945951Y-8113516D01*
X-28945958Y-8113519D01*
X-29086686Y-8187378D01*
X-29086691Y-8187382D01*
X-29205659Y-8292780D01*
X-29295945Y-8423581D01*
X-29295948Y-8423587D01*
X-29352311Y-8572200D01*
X-29371467Y-8729976D01*
X-29371467Y-8729983D01*
X-29352311Y-8887759D01*
X-29310325Y-8998463D01*
X-29295947Y-9036375D01*
X-29205658Y-9167181D01*
X-29086689Y-9272579D01*
X-29086688Y-9272579D01*
X-29086686Y-9272581D01*
X-29048798Y-9292466D01*
X-28945953Y-9346443D01*
X-28791631Y-9384480D01*
X-28791630Y-9384480D01*
X-28632690Y-9384480D01*
X-28632689Y-9384480D01*
X-28478367Y-9346443D01*
X-28337631Y-9272579D01*
X-28218662Y-9167181D01*
X-28216401Y-9163904D01*
X-28214129Y-9162063D01*
X-28213609Y-9161477D01*
X-28213512Y-9161563D01*
X-28161243Y-9119205D01*
X-28112704Y-9109480D01*
X-27411319Y-9109480D01*
X-27343198Y-9129482D01*
X-27296705Y-9183138D01*
X-27285926Y-9223129D01*
X-27285580Y-9226644D01*
X-27270815Y-9300880D01*
X-27207669Y-9395383D01*
X-27211114Y-9397684D01*
X-27188118Y-9439797D01*
X-27193183Y-9510612D01*
X-27209750Y-9536388D01*
X-27207670Y-9537778D01*
X-27270815Y-9632277D01*
X-27275563Y-9643743D01*
X-27279688Y-9642034D01*
X-27301380Y-9683540D01*
X-27363063Y-9718693D01*
X-27392082Y-9722080D01*
X-27770544Y-9722080D01*
X-27770560Y-9722079D01*
X-27778278Y-9722079D01*
X-27878202Y-9722079D01*
X-27910374Y-9730699D01*
X-27954324Y-9742475D01*
X-27954325Y-9742476D01*
X-27974722Y-9747942D01*
X-27974723Y-9747942D01*
X-27974725Y-9747943D01*
X-27974726Y-9747943D01*
X-28061256Y-9797901D01*
X-28061261Y-9797905D01*
X-28096588Y-9833233D01*
X-28131916Y-9868561D01*
X-28131918Y-9868563D01*
X-28632757Y-10369402D01*
X-28632759Y-10369404D01*
X-28660204Y-10396849D01*
X-28703415Y-10440059D01*
X-28703419Y-10440064D01*
X-28753379Y-10526599D01*
X-28757672Y-10542622D01*
X-28779241Y-10623114D01*
X-28779241Y-10733192D01*
X-28779240Y-10733205D01*
X-28779240Y-11081476D01*
X-28799242Y-11149597D01*
X-28821686Y-11175788D01*
X-28893237Y-11239177D01*
X-28893240Y-11239180D01*
X-28983525Y-11369981D01*
X-28983528Y-11369987D01*
X-29039891Y-11518600D01*
X-29059047Y-11676376D01*
X-29059047Y-11676383D01*
X-29039891Y-11834159D01*
X-29011960Y-11907804D01*
X-28983527Y-11982775D01*
X-28893238Y-12113581D01*
X-28774269Y-12218979D01*
X-28774268Y-12218979D01*
X-28774266Y-12218981D01*
X-28721802Y-12246516D01*
X-28633533Y-12292843D01*
X-28479211Y-12330880D01*
X-28479210Y-12330880D01*
X-28320270Y-12330880D01*
X-28320269Y-12330880D01*
X-28165947Y-12292843D01*
X-28025211Y-12218979D01*
X-27906242Y-12113581D01*
X-27815953Y-11982775D01*
X-27759591Y-11834162D01*
X-27759591Y-11834161D01*
X-27759590Y-11834159D01*
X-27740433Y-11676383D01*
X-27740433Y-11676376D01*
X-27759590Y-11518600D01*
X-27782048Y-11459385D01*
X-27815953Y-11369985D01*
X-27877525Y-11280782D01*
X-27906241Y-11239180D01*
X-27906244Y-11239177D01*
X-27977794Y-11175788D01*
X-28015519Y-11115643D01*
X-28020240Y-11081476D01*
X-28020240Y-10882464D01*
X-28000238Y-10814343D01*
X-27983335Y-10793369D01*
X-27707951Y-10517985D01*
X-27645639Y-10483959D01*
X-27618856Y-10481080D01*
X-27392082Y-10481080D01*
X-27323961Y-10501082D01*
X-27277468Y-10554738D01*
X-27275911Y-10559560D01*
X-27275563Y-10559416D01*
X-27270815Y-10570880D01*
X-27207669Y-10665383D01*
X-27211114Y-10667684D01*
X-27188118Y-10709797D01*
X-27193183Y-10780612D01*
X-27209750Y-10806388D01*
X-27207670Y-10807778D01*
X-27270814Y-10902277D01*
X-27285580Y-10976510D01*
X-27285580Y-11766643D01*
X-27285579Y-11766653D01*
X-27270815Y-11840880D01*
X-27207669Y-11935383D01*
X-27211114Y-11937684D01*
X-27188118Y-11979797D01*
X-27193183Y-12050612D01*
X-27209750Y-12076388D01*
X-27207670Y-12077778D01*
X-27270814Y-12172277D01*
X-27285580Y-12246510D01*
X-27285580Y-13036643D01*
X-27285579Y-13036653D01*
X-27270815Y-13110880D01*
X-27214564Y-13195064D01*
X-27130383Y-13251313D01*
X-27130381Y-13251314D01*
X-27056147Y-13266080D01*
X-25795465Y-13266079D01*
X-25727344Y-13286081D01*
X-25706370Y-13302984D01*
X-14396747Y-24612607D01*
X-14396726Y-24612630D01*
X-14321686Y-24687670D01*
X-14321679Y-24687676D01*
X-14271716Y-24716522D01*
X-14271715Y-24716523D01*
X-14242872Y-24733175D01*
X-14235141Y-24737639D01*
X-14138622Y-24763501D01*
X-14138620Y-24763501D01*
X-14030980Y-24763501D01*
X-14030964Y-24763500D01*
X-3514384Y-24763500D01*
X-3514368Y-24763501D01*
X-3506650Y-24763501D01*
X-3406727Y-24763501D01*
X-3406726Y-24763501D01*
X-3330608Y-24743104D01*
X-3330606Y-24743104D01*
X-3323140Y-24741102D01*
X-3310206Y-24737638D01*
X-3223669Y-24687676D01*
X-3153012Y-24617019D01*
X-3142645Y-24606652D01*
X-3142638Y-24606642D01*
X1386606Y-20077399D01*
X1448916Y-20043375D01*
X1519731Y-20048440D01*
X1576567Y-20090987D01*
X1601378Y-20157507D01*
X1601699Y-20166496D01*
X1601699Y-20199785D01*
X1622096Y-20275904D01*
X1622097Y-20275906D01*
X1627561Y-20296300D01*
X1677521Y-20382835D01*
X1677529Y-20382845D01*
X1755356Y-20460672D01*
X1755370Y-20460684D01*
X2100404Y-20805718D01*
X2134430Y-20868030D01*
X2129365Y-20938845D01*
X2094865Y-20989123D01*
X2059202Y-21020719D01*
X2059201Y-21020719D01*
X1968915Y-21151521D01*
X1968912Y-21151527D01*
X1912549Y-21300140D01*
X1893393Y-21457916D01*
X1893393Y-21457923D01*
X1912549Y-21615699D01*
X1924440Y-21647051D01*
X1968913Y-21764315D01*
X2059202Y-21895121D01*
X2178171Y-22000519D01*
X2178172Y-22000519D01*
X2178174Y-22000521D01*
X2252900Y-22039740D01*
X2318907Y-22074383D01*
X2473229Y-22112420D01*
X2473230Y-22112420D01*
X2632170Y-22112420D01*
X2632171Y-22112420D01*
X2786493Y-22074383D01*
X2927229Y-22000519D01*
X3046198Y-21895121D01*
X3136487Y-21764315D01*
X3192849Y-21615702D01*
X3192849Y-21615701D01*
X3192850Y-21615699D01*
X3212007Y-21457923D01*
X3212007Y-21457916D01*
X3192850Y-21300141D01*
X3191601Y-21295073D01*
X3194720Y-21224145D01*
X3235691Y-21166163D01*
X3301505Y-21139535D01*
X3313940Y-21138920D01*
X7274544Y-21138920D01*
X7342665Y-21158922D01*
X7378240Y-21193344D01*
X7380502Y-21196621D01*
X7452054Y-21260011D01*
X7489779Y-21320153D01*
X7494500Y-21354322D01*
X7494500Y-24981623D01*
X7494499Y-24981641D01*
X7494499Y-25089285D01*
X7514896Y-25165404D01*
X7514897Y-25165406D01*
X7520361Y-25185800D01*
X7570321Y-25272335D01*
X7570329Y-25272345D01*
X7648156Y-25350172D01*
X7648170Y-25350184D01*
X8378713Y-26080727D01*
X8378734Y-26080750D01*
X8453774Y-26155790D01*
X8453779Y-26155794D01*
X8453781Y-26155796D01*
X8453782Y-26155797D01*
X8453784Y-26155798D01*
X8540314Y-26205756D01*
X8540318Y-26205758D01*
X8560709Y-26211221D01*
X8560714Y-26211224D01*
X8560715Y-26211223D01*
X8636838Y-26231621D01*
X8744480Y-26231621D01*
X8744496Y-26231620D01*
X15080704Y-26231620D01*
X15080720Y-26231621D01*
X15088438Y-26231621D01*
X15188361Y-26231621D01*
X15188362Y-26231621D01*
X15264480Y-26211224D01*
X15264482Y-26211224D01*
X15271948Y-26209222D01*
X15284882Y-26205758D01*
X15371419Y-26155796D01*
X15442076Y-26085139D01*
X15452443Y-26074772D01*
X15452450Y-26074762D01*
X20863788Y-20663425D01*
X20926100Y-20629399D01*
X20952883Y-20626520D01*
X21097970Y-20626520D01*
X21097971Y-20626520D01*
X21252293Y-20588483D01*
X21393029Y-20514619D01*
X21511998Y-20409221D01*
X21602287Y-20278415D01*
X21658649Y-20129802D01*
X21658649Y-20129801D01*
X21658650Y-20129799D01*
X21677807Y-19972023D01*
X21677807Y-19972016D01*
X21658650Y-19814240D01*
X21624206Y-19723421D01*
X21602287Y-19665625D01*
X21511998Y-19534819D01*
X21393029Y-19429421D01*
X21393028Y-19429420D01*
X21393025Y-19429418D01*
X21252297Y-19355559D01*
X21252295Y-19355558D01*
X21252293Y-19355557D01*
X21252291Y-19355556D01*
X21252290Y-19355556D01*
X21097972Y-19317520D01*
X21097971Y-19317520D01*
X20939029Y-19317520D01*
X20939027Y-19317520D01*
X20784709Y-19355556D01*
X20784702Y-19355559D01*
X20643974Y-19429418D01*
X20643969Y-19429422D01*
X20525001Y-19534820D01*
X20434715Y-19665621D01*
X20434712Y-19665627D01*
X20378349Y-19814240D01*
X20359193Y-19972016D01*
X20359193Y-19972020D01*
X20365074Y-20020456D01*
X20353427Y-20090491D01*
X20329087Y-20124737D01*
X15018111Y-25435715D01*
X14955799Y-25469741D01*
X14929016Y-25472620D01*
X8896184Y-25472620D01*
X8828063Y-25452618D01*
X8807089Y-25435715D01*
X8290405Y-24919031D01*
X8256379Y-24856719D01*
X8253500Y-24829936D01*
X8253500Y-22060351D01*
X8273502Y-21992230D01*
X8327158Y-21945737D01*
X8397432Y-21935633D01*
X8438054Y-21948783D01*
X8453942Y-21957122D01*
X8608264Y-21995159D01*
X8608265Y-21995159D01*
X8767205Y-21995159D01*
X8767206Y-21995159D01*
X8921528Y-21957122D01*
X9062264Y-21883258D01*
X9181233Y-21777860D01*
X9271522Y-21647054D01*
X9327884Y-21498441D01*
X9327884Y-21498440D01*
X9327885Y-21498438D01*
X9347042Y-21340662D01*
X9347042Y-21340655D01*
X9327885Y-21182879D01*
X9311213Y-21138920D01*
X9271522Y-21034264D01*
X9205659Y-20938845D01*
X9181234Y-20903459D01*
X9181231Y-20903456D01*
X9109681Y-20840067D01*
X9071956Y-20779922D01*
X9067235Y-20745755D01*
X9067235Y-16286520D01*
X9087237Y-16218399D01*
X9140893Y-16171906D01*
X9193235Y-16160520D01*
X12548438Y-16160520D01*
X13963104Y-16160520D01*
X13963120Y-16160521D01*
X13965654Y-16160521D01*
X13966335Y-16160721D01*
X13978732Y-16161493D01*
X13978740Y-16161494D01*
X13978394Y-16164261D01*
X14033775Y-16180523D01*
X14080268Y-16234179D01*
X14090372Y-16304453D01*
X14074774Y-16349520D01*
X14022762Y-16439608D01*
X14022762Y-16439610D01*
X13996899Y-16536126D01*
X13996899Y-16646202D01*
X13996900Y-16646215D01*
X13996900Y-18691316D01*
X13976898Y-18759437D01*
X13954454Y-18785628D01*
X13882903Y-18849017D01*
X13882900Y-18849020D01*
X13792615Y-18979821D01*
X13792612Y-18979827D01*
X13736249Y-19128440D01*
X13717093Y-19286216D01*
X13717093Y-19286223D01*
X13736249Y-19443999D01*
X13770694Y-19534820D01*
X13792613Y-19592615D01*
X13882902Y-19723421D01*
X14001871Y-19828819D01*
X14001872Y-19828819D01*
X14001874Y-19828821D01*
X14065675Y-19862306D01*
X14142607Y-19902683D01*
X14296929Y-19940720D01*
X14296930Y-19940720D01*
X14455870Y-19940720D01*
X14455871Y-19940720D01*
X14610193Y-19902683D01*
X14750929Y-19828819D01*
X14869898Y-19723421D01*
X14960187Y-19592615D01*
X15016549Y-19444002D01*
X15016549Y-19444001D01*
X15016550Y-19443999D01*
X15035707Y-19286223D01*
X15035707Y-19286216D01*
X15016550Y-19128440D01*
X14993799Y-19068453D01*
X14960187Y-18979825D01*
X14869898Y-18849019D01*
X14869896Y-18849017D01*
X14798346Y-18785628D01*
X14760621Y-18725483D01*
X14755900Y-18691316D01*
X14755900Y-17115829D01*
X20651500Y-17115829D01*
X20653306Y-17132621D01*
X20657768Y-17174121D01*
X20692201Y-17266439D01*
X20706959Y-17306007D01*
X20706959Y-17306008D01*
X20791311Y-17418688D01*
X20903991Y-17503040D01*
X20903993Y-17503040D01*
X20903995Y-17503042D01*
X21035879Y-17552232D01*
X21094178Y-17558500D01*
X21094183Y-17558500D01*
X24117817Y-17558500D01*
X24117822Y-17558500D01*
X24176121Y-17552232D01*
X24308005Y-17503042D01*
X24327219Y-17488659D01*
X24420688Y-17418688D01*
X24505040Y-17306008D01*
X24505040Y-17306007D01*
X24505042Y-17306005D01*
X24554232Y-17174121D01*
X24560500Y-17115822D01*
X24560500Y-15142178D01*
X24554232Y-15083879D01*
X24505042Y-14951995D01*
X24505040Y-14951992D01*
X24505040Y-14951991D01*
X24420688Y-14839311D01*
X24308008Y-14754959D01*
X24262056Y-14737820D01*
X24176121Y-14705768D01*
X24168833Y-14704984D01*
X24117829Y-14699500D01*
X24117822Y-14699500D01*
X23386500Y-14699500D01*
X23318379Y-14679498D01*
X23271886Y-14625842D01*
X23260500Y-14573500D01*
X23260500Y-14449340D01*
X23270091Y-14401122D01*
X23280705Y-14375500D01*
X23309700Y-14229732D01*
X23309700Y-13065108D01*
X23280705Y-12919340D01*
X23223829Y-12782030D01*
X23141259Y-12658454D01*
X23141257Y-12658452D01*
X23141252Y-12658446D01*
X23036173Y-12553367D01*
X23036167Y-12553362D01*
X22967752Y-12507649D01*
X22912590Y-12470791D01*
X22775280Y-12413915D01*
X22629514Y-12384920D01*
X22629512Y-12384920D01*
X22480888Y-12384920D01*
X22480885Y-12384920D01*
X22335119Y-12413915D01*
X22335114Y-12413917D01*
X22197810Y-12470791D01*
X22074232Y-12553362D01*
X22074226Y-12553367D01*
X21969147Y-12658446D01*
X21969142Y-12658452D01*
X21886571Y-12782030D01*
X21829697Y-12919334D01*
X21829695Y-12919339D01*
X21800700Y-13065105D01*
X21800700Y-14229734D01*
X21829695Y-14375500D01*
X21829697Y-14375505D01*
X21886569Y-14512806D01*
X21887260Y-14514098D01*
X21887417Y-14514852D01*
X21888940Y-14518529D01*
X21888242Y-14518817D01*
X21901735Y-14583604D01*
X21876335Y-14649901D01*
X21819124Y-14691942D01*
X21776141Y-14699500D01*
X21094170Y-14699500D01*
X21035879Y-14705768D01*
X20903992Y-14754959D01*
X20903991Y-14754959D01*
X20791311Y-14839311D01*
X20706959Y-14951991D01*
X20706959Y-14951992D01*
X20657768Y-15083879D01*
X20651500Y-15142170D01*
X20651500Y-17115829D01*
X14755900Y-17115829D01*
X14755900Y-16795474D01*
X14775902Y-16727353D01*
X14792805Y-16706379D01*
X14849359Y-16649825D01*
X14911671Y-16615799D01*
X14938454Y-16612920D01*
X15083540Y-16612920D01*
X15083541Y-16612920D01*
X15237863Y-16574883D01*
X15378599Y-16501019D01*
X15497568Y-16395621D01*
X15587857Y-16264815D01*
X15644219Y-16116202D01*
X15644219Y-16116201D01*
X15644220Y-16116199D01*
X15663377Y-15958423D01*
X15663377Y-15958416D01*
X15644220Y-15800640D01*
X15612736Y-15717626D01*
X15587857Y-15652025D01*
X15497568Y-15521219D01*
X15445267Y-15474884D01*
X15407542Y-15414739D01*
X15408322Y-15343747D01*
X15425125Y-15308995D01*
X15428693Y-15303824D01*
X15428698Y-15303821D01*
X15518987Y-15173015D01*
X15575349Y-15024402D01*
X15575349Y-15024401D01*
X15575350Y-15024399D01*
X15594507Y-14866623D01*
X15594507Y-14866616D01*
X15575350Y-14708840D01*
X15537858Y-14609984D01*
X15518987Y-14560225D01*
X15428698Y-14429419D01*
X15309729Y-14324021D01*
X15309728Y-14324020D01*
X15309725Y-14324018D01*
X15275373Y-14305989D01*
X18091679Y-14305989D01*
X18110835Y-14463765D01*
X18147419Y-14560227D01*
X18167199Y-14612381D01*
X18257488Y-14743187D01*
X18376457Y-14848585D01*
X18376458Y-14848585D01*
X18376460Y-14848587D01*
X18410827Y-14866624D01*
X18517193Y-14922449D01*
X18671515Y-14960486D01*
X18671516Y-14960486D01*
X18830456Y-14960486D01*
X18830457Y-14960486D01*
X18984779Y-14922449D01*
X19125515Y-14848585D01*
X19244484Y-14743187D01*
X19334773Y-14612381D01*
X19391135Y-14463768D01*
X19391135Y-14463767D01*
X19391136Y-14463765D01*
X19410293Y-14305989D01*
X19410293Y-14305982D01*
X19391136Y-14148206D01*
X19358964Y-14063377D01*
X19334773Y-13999591D01*
X19272730Y-13909706D01*
X19244485Y-13868786D01*
X19244482Y-13868783D01*
X19172932Y-13805394D01*
X19135207Y-13745249D01*
X19130486Y-13711082D01*
X19130486Y-12572781D01*
X19150488Y-12504660D01*
X19172928Y-12478473D01*
X19289498Y-12375201D01*
X19379787Y-12244395D01*
X19436149Y-12095782D01*
X19436149Y-12095781D01*
X19436150Y-12095779D01*
X19455307Y-11938003D01*
X19455307Y-11937996D01*
X19436150Y-11780220D01*
X19422538Y-11744331D01*
X19379787Y-11631605D01*
X19289498Y-11500799D01*
X19170529Y-11395401D01*
X19170528Y-11395400D01*
X19170525Y-11395398D01*
X19029797Y-11321539D01*
X19029795Y-11321538D01*
X19029793Y-11321537D01*
X19029791Y-11321536D01*
X19029790Y-11321536D01*
X18875472Y-11283500D01*
X18875471Y-11283500D01*
X18716529Y-11283500D01*
X18716527Y-11283500D01*
X18562209Y-11321536D01*
X18562202Y-11321539D01*
X18421474Y-11395398D01*
X18421469Y-11395402D01*
X18302501Y-11500800D01*
X18212215Y-11631601D01*
X18212212Y-11631607D01*
X18155849Y-11780220D01*
X18136693Y-11937996D01*
X18136693Y-11938003D01*
X18155849Y-12095779D01*
X18212212Y-12244392D01*
X18212215Y-12244398D01*
X18302500Y-12375199D01*
X18302502Y-12375201D01*
X18329038Y-12398710D01*
X18366764Y-12458853D01*
X18371486Y-12493023D01*
X18371486Y-13711082D01*
X18351484Y-13779203D01*
X18329040Y-13805394D01*
X18257489Y-13868783D01*
X18257486Y-13868786D01*
X18167201Y-13999587D01*
X18167198Y-13999593D01*
X18110835Y-14148206D01*
X18091679Y-14305982D01*
X18091679Y-14305989D01*
X15275373Y-14305989D01*
X15168997Y-14250159D01*
X15168995Y-14250158D01*
X15168993Y-14250157D01*
X15168991Y-14250156D01*
X15168990Y-14250156D01*
X15014672Y-14212120D01*
X15014671Y-14212120D01*
X14855729Y-14212120D01*
X14855727Y-14212120D01*
X14701409Y-14250156D01*
X14701402Y-14250159D01*
X14560674Y-14324018D01*
X14560669Y-14324022D01*
X14441701Y-14429420D01*
X14351415Y-14560221D01*
X14351412Y-14560227D01*
X14295049Y-14708840D01*
X14275893Y-14866616D01*
X14275893Y-14866624D01*
X14281773Y-14915055D01*
X14270128Y-14985090D01*
X14245788Y-15019336D01*
X13900511Y-15364615D01*
X13838199Y-15398640D01*
X13811415Y-15401520D01*
X8642896Y-15401520D01*
X8642880Y-15401519D01*
X8635162Y-15401519D01*
X8535238Y-15401519D01*
X8527520Y-15401519D01*
X8527504Y-15401520D01*
X4178248Y-15401520D01*
X4110127Y-15381518D01*
X4074552Y-15347096D01*
X4049499Y-15310800D01*
X4049496Y-15310797D01*
X3930530Y-15205402D01*
X3930525Y-15205398D01*
X3789797Y-15131539D01*
X3789796Y-15131538D01*
X3789793Y-15131537D01*
X3789789Y-15131536D01*
X3789784Y-15131534D01*
X3675745Y-15103425D01*
X3614391Y-15067702D01*
X3582090Y-15004479D01*
X3579900Y-14981087D01*
X3579900Y-10636013D01*
X3599902Y-10567892D01*
X3616800Y-10546923D01*
X4231407Y-9932316D01*
X4293717Y-9898292D01*
X4364532Y-9903357D01*
X4421368Y-9945904D01*
X4446179Y-10012424D01*
X4446500Y-10021413D01*
X4446500Y-11851096D01*
X4426498Y-11919217D01*
X4404054Y-11945408D01*
X4332503Y-12008797D01*
X4332500Y-12008800D01*
X4242215Y-12139601D01*
X4242212Y-12139607D01*
X4185849Y-12288220D01*
X4166693Y-12445996D01*
X4166693Y-12446003D01*
X4185849Y-12603779D01*
X4229518Y-12718921D01*
X4242213Y-12752395D01*
X4332502Y-12883201D01*
X4451471Y-12988599D01*
X4451472Y-12988599D01*
X4451474Y-12988601D01*
X4526200Y-13027820D01*
X4592207Y-13062463D01*
X4746529Y-13100500D01*
X4746530Y-13100500D01*
X4905470Y-13100500D01*
X4905471Y-13100500D01*
X5059793Y-13062463D01*
X5200529Y-12988599D01*
X5319498Y-12883201D01*
X5409787Y-12752395D01*
X5466149Y-12603782D01*
X5466149Y-12603781D01*
X5466150Y-12603779D01*
X5485307Y-12446003D01*
X5485307Y-12445996D01*
X5466150Y-12288220D01*
X5449528Y-12244392D01*
X5409787Y-12139605D01*
X5353619Y-12058232D01*
X5319499Y-12008800D01*
X5319496Y-12008797D01*
X5247946Y-11945408D01*
X5210221Y-11885263D01*
X5205500Y-11851096D01*
X5205500Y-11123003D01*
X6764686Y-11123003D01*
X6783842Y-11280779D01*
X6827314Y-11395401D01*
X6840206Y-11429395D01*
X6930495Y-11560201D01*
X7049464Y-11665599D01*
X7049465Y-11665599D01*
X7049467Y-11665601D01*
X7124193Y-11704820D01*
X7190200Y-11739463D01*
X7344522Y-11777500D01*
X7344523Y-11777500D01*
X7503463Y-11777500D01*
X7503464Y-11777500D01*
X7657786Y-11739463D01*
X7798522Y-11665599D01*
X7917491Y-11560201D01*
X7919752Y-11556924D01*
X7922024Y-11555083D01*
X7922544Y-11554497D01*
X7922641Y-11554583D01*
X7974910Y-11512225D01*
X8023449Y-11502500D01*
X11858629Y-11502500D01*
X11917182Y-11516931D01*
X11958207Y-11538463D01*
X12112529Y-11576500D01*
X12112530Y-11576500D01*
X12271470Y-11576500D01*
X12271471Y-11576500D01*
X12425793Y-11538463D01*
X12566529Y-11464599D01*
X12685498Y-11359201D01*
X12775787Y-11228395D01*
X12832149Y-11079782D01*
X12832149Y-11079781D01*
X12832150Y-11079779D01*
X12851307Y-10922003D01*
X12851307Y-10921996D01*
X12832150Y-10764220D01*
X12803847Y-10689592D01*
X12775787Y-10615605D01*
X12685498Y-10484799D01*
X12566529Y-10379401D01*
X12566528Y-10379400D01*
X12566525Y-10379398D01*
X12425797Y-10305539D01*
X12425795Y-10305538D01*
X12425793Y-10305537D01*
X12425791Y-10305536D01*
X12425790Y-10305536D01*
X12271472Y-10267500D01*
X12271471Y-10267500D01*
X12112529Y-10267500D01*
X12112527Y-10267500D01*
X11958209Y-10305536D01*
X11958202Y-10305539D01*
X11817474Y-10379398D01*
X11817469Y-10379402D01*
X11698501Y-10484800D01*
X11608215Y-10615601D01*
X11608212Y-10615607D01*
X11604645Y-10625012D01*
X11591752Y-10659010D01*
X11590549Y-10662181D01*
X11547690Y-10718782D01*
X11481034Y-10743227D01*
X11472737Y-10743500D01*
X8023449Y-10743500D01*
X7955328Y-10723498D01*
X7919752Y-10689075D01*
X7917491Y-10685799D01*
X7798522Y-10580401D01*
X7798521Y-10580400D01*
X7798518Y-10580398D01*
X7657790Y-10506539D01*
X7657788Y-10506538D01*
X7657786Y-10506537D01*
X7657784Y-10506536D01*
X7657783Y-10506536D01*
X7503465Y-10468500D01*
X7503464Y-10468500D01*
X7344522Y-10468500D01*
X7344520Y-10468500D01*
X7190202Y-10506536D01*
X7190195Y-10506539D01*
X7049467Y-10580398D01*
X7049462Y-10580402D01*
X6930494Y-10685800D01*
X6840208Y-10816601D01*
X6840205Y-10816607D01*
X6783842Y-10965220D01*
X6764686Y-11122996D01*
X6764686Y-11123003D01*
X5205500Y-11123003D01*
X5205500Y-10115383D01*
X5225502Y-10047262D01*
X5242400Y-10026293D01*
X8243293Y-7025400D01*
X13780250Y-7025400D01*
X13800016Y-7276547D01*
X13858825Y-7521509D01*
X13929233Y-7691488D01*
X13955233Y-7754259D01*
X14086862Y-7969058D01*
X14086864Y-7969060D01*
X14086865Y-7969062D01*
X14250474Y-8160624D01*
X14442035Y-8324232D01*
X14442040Y-8324236D01*
X14656840Y-8455866D01*
X14889588Y-8552273D01*
X15134551Y-8611083D01*
X15385699Y-8630849D01*
X15636847Y-8611083D01*
X15881810Y-8552273D01*
X16114558Y-8455866D01*
X16329358Y-8324236D01*
X16520923Y-8160624D01*
X16684535Y-7969059D01*
X16816165Y-7754259D01*
X16912572Y-7521511D01*
X16971382Y-7276548D01*
X16991148Y-7025400D01*
X16971382Y-6774252D01*
X16912572Y-6529289D01*
X16816165Y-6296541D01*
X16684535Y-6081741D01*
X16684532Y-6081738D01*
X16684532Y-6081737D01*
X16520923Y-5890175D01*
X16329361Y-5726566D01*
X16329359Y-5726565D01*
X16329358Y-5726564D01*
X16114558Y-5594934D01*
X16114554Y-5594932D01*
X15881808Y-5498526D01*
X15714235Y-5458296D01*
X15636847Y-5439717D01*
X15385699Y-5419951D01*
X15134551Y-5439717D01*
X14889589Y-5498526D01*
X14656841Y-5594933D01*
X14442038Y-5726565D01*
X14442036Y-5726566D01*
X14250474Y-5890175D01*
X14086865Y-6081737D01*
X14086864Y-6081739D01*
X13955232Y-6296542D01*
X13858825Y-6529290D01*
X13800016Y-6774252D01*
X13780250Y-7025400D01*
X8243293Y-7025400D01*
X12271961Y-2996732D01*
X17539699Y-2996732D01*
X17568695Y-3142499D01*
X17625570Y-3279809D01*
X17708141Y-3403386D01*
X17708144Y-3403389D01*
X17708145Y-3403390D01*
X18207795Y-3903040D01*
X18241821Y-3965352D01*
X18244700Y-3992135D01*
X18244700Y-6145733D01*
X18273695Y-6291499D01*
X18273697Y-6291504D01*
X18332940Y-6434528D01*
X18331731Y-6435028D01*
X18344700Y-6486804D01*
X18344700Y-8522665D01*
X18369852Y-8649111D01*
X18369854Y-8649116D01*
X18419189Y-8768222D01*
X18464175Y-8835549D01*
X18490816Y-8875419D01*
X20107216Y-10491818D01*
X20107237Y-10491841D01*
X20202774Y-10587378D01*
X20202780Y-10587383D01*
X20309978Y-10659011D01*
X20429089Y-10708348D01*
X20541143Y-10730637D01*
X20550082Y-10732415D01*
X20612991Y-10765323D01*
X20648123Y-10827018D01*
X20651500Y-10855994D01*
X20651500Y-11065829D01*
X20653183Y-11081476D01*
X20657768Y-11124121D01*
X20700683Y-11239180D01*
X20706959Y-11256007D01*
X20706959Y-11256008D01*
X20791311Y-11368688D01*
X20903991Y-11453040D01*
X20903993Y-11453040D01*
X20903995Y-11453042D01*
X21035879Y-11502232D01*
X21094178Y-11508500D01*
X21094183Y-11508500D01*
X24117817Y-11508500D01*
X24117822Y-11508500D01*
X24176121Y-11502232D01*
X24308005Y-11453042D01*
X24333472Y-11433978D01*
X24420688Y-11368688D01*
X24505040Y-11256008D01*
X24505040Y-11256007D01*
X24505042Y-11256005D01*
X24554232Y-11124121D01*
X24560500Y-11065822D01*
X24560500Y-9092178D01*
X24554232Y-9033879D01*
X24505042Y-8901995D01*
X24505040Y-8901992D01*
X24505040Y-8901991D01*
X24420688Y-8789311D01*
X24308008Y-8704959D01*
X24263590Y-8688392D01*
X24176121Y-8655768D01*
X24168833Y-8654984D01*
X24117829Y-8649500D01*
X24117822Y-8649500D01*
X21094178Y-8649500D01*
X21094170Y-8649500D01*
X21035879Y-8655768D01*
X20903992Y-8704959D01*
X20903991Y-8704959D01*
X20791311Y-8789311D01*
X20706960Y-8901990D01*
X20706958Y-8901994D01*
X20706958Y-8901995D01*
X20683554Y-8964741D01*
X20641009Y-9021575D01*
X20574488Y-9046386D01*
X20505114Y-9031294D01*
X20476405Y-9009802D01*
X19690605Y-8224002D01*
X19656579Y-8161690D01*
X19653700Y-8134907D01*
X19653700Y-6486804D01*
X19666668Y-6435028D01*
X19665460Y-6434528D01*
X19677620Y-6405172D01*
X19724705Y-6291499D01*
X19753700Y-6145731D01*
X19753700Y-4683108D01*
X19753700Y-3707965D01*
X19753701Y-3707944D01*
X19753701Y-3553112D01*
X19753701Y-3553108D01*
X19724705Y-3407341D01*
X19718849Y-3393204D01*
X19718848Y-3393201D01*
X19672903Y-3282278D01*
X19672902Y-3282277D01*
X19671880Y-3279809D01*
X19667830Y-3270031D01*
X19640290Y-3228815D01*
X19585259Y-3146454D01*
X19585258Y-3146453D01*
X19585255Y-3146449D01*
X19475771Y-3036965D01*
X19475760Y-3036955D01*
X19253125Y-2814320D01*
X20517054Y-2814320D01*
X20536013Y-3079412D01*
X20592507Y-3339113D01*
X20685387Y-3588134D01*
X20812758Y-3821396D01*
X20898703Y-3936205D01*
X20898703Y-3936206D01*
X21624028Y-3210881D01*
X21626540Y-3216946D01*
X21719562Y-3356164D01*
X21837956Y-3474558D01*
X21977174Y-3567580D01*
X21983236Y-3570091D01*
X21257912Y-4295415D01*
X21257913Y-4295416D01*
X21372719Y-4381359D01*
X21605985Y-4508732D01*
X21855006Y-4601612D01*
X22114707Y-4658106D01*
X22379800Y-4677065D01*
X22644892Y-4658106D01*
X22904593Y-4601612D01*
X23153614Y-4508732D01*
X23386876Y-4381362D01*
X23501685Y-4295415D01*
X23501686Y-4295415D01*
X23168857Y-3962586D01*
X24735300Y-3962586D01*
X24741758Y-4022655D01*
X24741759Y-4022660D01*
X24741760Y-4022661D01*
X24792458Y-4158587D01*
X24879396Y-4274724D01*
X24995533Y-4361662D01*
X25131459Y-4412360D01*
X25131462Y-4412360D01*
X25131464Y-4412361D01*
X25191533Y-4418819D01*
X25191541Y-4418819D01*
X25191546Y-4418820D01*
X25191550Y-4418820D01*
X27488050Y-4418820D01*
X27488054Y-4418820D01*
X27488059Y-4418819D01*
X27488066Y-4418819D01*
X27548135Y-4412361D01*
X27548136Y-4412360D01*
X27548141Y-4412360D01*
X27684067Y-4361662D01*
X27800204Y-4274724D01*
X27887142Y-4158587D01*
X27937840Y-4022661D01*
X27939677Y-4005580D01*
X27944299Y-3962586D01*
X27944300Y-3962569D01*
X27944300Y-1666070D01*
X27944299Y-1666053D01*
X27937841Y-1605984D01*
X27937840Y-1605982D01*
X27937840Y-1605979D01*
X27887142Y-1470053D01*
X27800204Y-1353916D01*
X27684067Y-1266978D01*
X27548141Y-1216280D01*
X27548140Y-1216279D01*
X27548135Y-1216278D01*
X27488066Y-1209820D01*
X27488054Y-1209820D01*
X25191546Y-1209820D01*
X25191533Y-1209820D01*
X25131464Y-1216278D01*
X25131459Y-1216280D01*
X24995533Y-1266978D01*
X24995532Y-1266978D01*
X24995531Y-1266979D01*
X24879396Y-1353916D01*
X24792459Y-1470051D01*
X24741758Y-1605984D01*
X24735300Y-1666053D01*
X24735300Y-3962586D01*
X23168857Y-3962586D01*
X22776362Y-3570091D01*
X22782426Y-3567580D01*
X22921644Y-3474558D01*
X23040038Y-3356164D01*
X23133060Y-3216946D01*
X23135571Y-3210882D01*
X23860895Y-3936206D01*
X23860895Y-3936205D01*
X23946842Y-3821396D01*
X24074212Y-3588134D01*
X24167092Y-3339113D01*
X24223586Y-3079412D01*
X24242545Y-2814320D01*
X24223586Y-2549227D01*
X24167092Y-2289526D01*
X24074212Y-2040505D01*
X23946839Y-1807239D01*
X23860896Y-1692433D01*
X23860895Y-1692432D01*
X23135571Y-2417756D01*
X23133060Y-2411694D01*
X23040038Y-2272476D01*
X22921644Y-2154082D01*
X22782426Y-2061060D01*
X22776362Y-2058548D01*
X23501686Y-1333223D01*
X23386876Y-1247278D01*
X23153614Y-1119907D01*
X22904593Y-1027027D01*
X22644892Y-970533D01*
X22379800Y-951574D01*
X22114707Y-970533D01*
X21855006Y-1027027D01*
X21605985Y-1119907D01*
X21372724Y-1247277D01*
X21257913Y-1333222D01*
X21257912Y-1333223D01*
X21983237Y-2058548D01*
X21977174Y-2061060D01*
X21837956Y-2154082D01*
X21719562Y-2272476D01*
X21626540Y-2411694D01*
X21624028Y-2417757D01*
X20898703Y-1692432D01*
X20898702Y-1692433D01*
X20812757Y-1807244D01*
X20685387Y-2040505D01*
X20592507Y-2289526D01*
X20536013Y-2549227D01*
X20517054Y-2814320D01*
X19253125Y-2814320D01*
X18775170Y-2336365D01*
X18775169Y-2336364D01*
X18775166Y-2336361D01*
X18651589Y-2253790D01*
X18554496Y-2213573D01*
X18514282Y-2196916D01*
X18514279Y-2196915D01*
X18368512Y-2167919D01*
X18219888Y-2167919D01*
X18147004Y-2182417D01*
X18074120Y-2196915D01*
X18074117Y-2196916D01*
X17936809Y-2253791D01*
X17813235Y-2336360D01*
X17813229Y-2336365D01*
X17708145Y-2441449D01*
X17708140Y-2441455D01*
X17625571Y-2565029D01*
X17568696Y-2702337D01*
X17568695Y-2702340D01*
X17568695Y-2702341D01*
X17539699Y-2848108D01*
X17539699Y-2996732D01*
X12271961Y-2996732D01*
X16609288Y1340596D01*
X16671600Y1374621D01*
X16698383Y1377500D01*
X16843470Y1377500D01*
X16843471Y1377500D01*
X16997793Y1415537D01*
X17138529Y1489401D01*
X17257498Y1594799D01*
X17347787Y1725605D01*
X17404149Y1874218D01*
X17404149Y1874219D01*
X17404150Y1874221D01*
X17423307Y2031997D01*
X17423307Y2032004D01*
X17404150Y2189780D01*
X17390538Y2225669D01*
X17347787Y2338395D01*
X17257498Y2469201D01*
X17138529Y2574599D01*
X17138528Y2574600D01*
X17138525Y2574602D01*
X17027694Y2632770D01*
X16976671Y2682138D01*
X16960439Y2751254D01*
X16984150Y2818174D01*
X16997148Y2833426D01*
X21283262Y7119540D01*
X21283272Y7119547D01*
X21364290Y7200565D01*
X21364296Y7200571D01*
X21414258Y7287108D01*
X21440120Y7383628D01*
X21440120Y14590260D01*
X21460122Y14658381D01*
X21513778Y14704874D01*
X21584052Y14714978D01*
X21648632Y14685484D01*
X21687016Y14625758D01*
X21691549Y14602238D01*
X21716555Y14340376D01*
X21716557Y14340359D01*
X21790488Y13956779D01*
X21790492Y13956762D01*
X21900549Y13581940D01*
X22045739Y13219274D01*
X22045746Y13219259D01*
X22128461Y13058815D01*
X22224753Y12872035D01*
X22380813Y12629200D01*
X22435957Y12543395D01*
X22435961Y12543389D01*
X22550002Y12398374D01*
X22677447Y12236315D01*
X22925172Y11976508D01*
X22936112Y11965033D01*
X22947031Y11953582D01*
X22973278Y11930839D01*
X23242269Y11697756D01*
X23242280Y11697748D01*
X23508552Y11508136D01*
X23560490Y11471151D01*
X23729750Y11373428D01*
X23898810Y11275820D01*
X23927138Y11262883D01*
X24254163Y11113535D01*
X24623334Y10985762D01*
X25002979Y10893659D01*
X25002989Y10893658D01*
X25003001Y10893655D01*
X25259443Y10856784D01*
X25389660Y10838060D01*
X25389667Y10838060D01*
X25389673Y10838059D01*
X25779869Y10819470D01*
X25779875Y10819470D01*
X25779882Y10819470D01*
X26170072Y10838055D01*
X26170078Y10838055D01*
X26170082Y10838056D01*
X26170090Y10838056D01*
X26556772Y10893649D01*
X26556780Y10893652D01*
X26556787Y10893652D01*
X26784559Y10948909D01*
X26936418Y10985748D01*
X27305591Y11113516D01*
X27660947Y11275798D01*
X27830108Y11373462D01*
X27830108Y11373461D01*
X27853429Y11386925D01*
X27853429Y11386928D01*
X27873433Y11398476D01*
X27873442Y11398482D01*
X27923240Y11427233D01*
X29117640Y12116820D01*
X29186632Y12133557D01*
X29253724Y12110337D01*
X29297611Y12054530D01*
X29297635Y12054471D01*
X29615340Y11259730D01*
X29616911Y11255589D01*
X29993612Y10207841D01*
X29995037Y10203647D01*
X30334680Y9143308D01*
X30335957Y9139067D01*
X30638128Y8067425D01*
X30639255Y8063141D01*
X30903568Y6981562D01*
X30904544Y6977242D01*
X31130684Y5887012D01*
X31131507Y5882660D01*
X31319184Y4785182D01*
X31319854Y4780803D01*
X31468846Y3677381D01*
X31469361Y3672982D01*
X31579472Y2565048D01*
X31579833Y2560634D01*
X31650939Y1449467D01*
X31651144Y1445042D01*
X31683150Y332074D01*
X31683199Y327645D01*
X31676069Y-785732D01*
X31675963Y-790160D01*
X31629701Y-1902630D01*
X31629439Y-1907052D01*
X31544108Y-3017192D01*
X31543691Y-3021601D01*
X31419396Y-4128039D01*
X31418825Y-4132431D01*
X31255711Y-5233863D01*
X31254985Y-5238233D01*
X31053263Y-6333226D01*
X31052384Y-6337567D01*
X30812301Y-7424789D01*
X30811270Y-7429097D01*
X30533117Y-8507229D01*
X30531935Y-8511497D01*
X30216071Y-9579154D01*
X30214740Y-9583379D01*
X29861542Y-10639280D01*
X29860064Y-10643455D01*
X29469961Y-11686326D01*
X29468336Y-11690447D01*
X29041833Y-12718921D01*
X29040065Y-12722982D01*
X28577666Y-13735859D01*
X28575756Y-13739855D01*
X28078044Y-14735851D01*
X28075995Y-14739776D01*
X27579324Y-15652021D01*
X27543594Y-15717646D01*
X27541407Y-15721498D01*
X26974961Y-16680056D01*
X26972641Y-16683829D01*
X26372853Y-17621887D01*
X26370402Y-17625576D01*
X25738018Y-18541966D01*
X25735439Y-18545567D01*
X25071217Y-19439193D01*
X25068512Y-19442701D01*
X24373307Y-20312410D01*
X24370481Y-20315820D01*
X23645156Y-21160534D01*
X23642212Y-21163844D01*
X22887613Y-21982577D01*
X22884555Y-21985780D01*
X22101661Y-22777469D01*
X22098492Y-22780563D01*
X21288240Y-23544263D01*
X21284963Y-23547244D01*
X20448409Y-24281958D01*
X20445031Y-24284822D01*
X19583133Y-24989710D01*
X19579655Y-24992454D01*
X18693511Y-25666615D01*
X18689939Y-25669234D01*
X17780677Y-26311811D01*
X17777016Y-26314304D01*
X16845710Y-26924539D01*
X16841963Y-26926900D01*
X15889791Y-27504023D01*
X15885963Y-27506252D01*
X14914103Y-28049545D01*
X14910200Y-28051638D01*
X13919837Y-28560442D01*
X13915862Y-28562397D01*
X12908228Y-29036077D01*
X12904187Y-29037891D01*
X11880507Y-29475871D01*
X11876405Y-29477541D01*
X10837989Y-29879260D01*
X10833831Y-29880785D01*
X9781924Y-30245764D01*
X9777714Y-30247142D01*
X8713663Y-30574911D01*
X8709408Y-30576141D01*
X7634445Y-30866324D01*
X7630149Y-30867403D01*
X6545664Y-31119620D01*
X6541333Y-31120547D01*
X5448683Y-31334485D01*
X5444322Y-31335260D01*
X4344769Y-31510672D01*
X4340383Y-31511292D01*
X3235428Y-31647938D01*
X3231024Y-31648405D01*
X2121873Y-31746138D01*
X2117454Y-31746449D01*
X1005598Y-31805133D01*
X1001172Y-31805289D01*
X-112085Y-31824860D01*
X-116515Y-31824860D01*
X-1229772Y-31805289D01*
X-1234198Y-31805133D01*
X-2346054Y-31746449D01*
X-2350473Y-31746138D01*
X-3459624Y-31648406D01*
X-3464028Y-31647939D01*
X-4568983Y-31511292D01*
X-4573369Y-31510672D01*
X-5672922Y-31335260D01*
X-5677283Y-31334485D01*
X-6769933Y-31120547D01*
X-6774264Y-31119620D01*
X-7611995Y-30924791D01*
X-7858756Y-30867402D01*
X-7863038Y-30866326D01*
X-8037839Y-30819140D01*
X-8938008Y-30576142D01*
X-8942263Y-30574912D01*
X-10006323Y-30247139D01*
X-10010532Y-30245761D01*
X-11062421Y-29880790D01*
X-11066580Y-29879265D01*
X-12105005Y-29477541D01*
X-12109107Y-29475871D01*
X-13132787Y-29037891D01*
X-13136828Y-29036077D01*
X-14144463Y-28562397D01*
X-14148438Y-28560442D01*
X-15138800Y-28051638D01*
X-15142681Y-28049557D01*
X-16114585Y-27506240D01*
X-16118370Y-27504036D01*
X-17070584Y-26926889D01*
X-17074331Y-26924526D01*
X-18005616Y-26314304D01*
X-18009277Y-26311812D01*
X-18918539Y-25669234D01*
X-18922111Y-25666615D01*
X-19808255Y-24992454D01*
X-19811733Y-24989710D01*
X-20673631Y-24284822D01*
X-20677009Y-24281958D01*
X-21513563Y-23547245D01*
X-21516839Y-23544265D01*
X-22327092Y-22780565D01*
X-22330262Y-22777470D01*
X-22987924Y-22112420D01*
X-23113171Y-21985766D01*
X-23116199Y-21982594D01*
X-23870824Y-21163831D01*
X-23873756Y-21160534D01*
X-23881492Y-21151525D01*
X-24599089Y-20315810D01*
X-24601907Y-20312410D01*
X-24614785Y-20296300D01*
X-25297115Y-19442699D01*
X-25299817Y-19439194D01*
X-25361984Y-19355557D01*
X-25738488Y-18849019D01*
X-25964040Y-18545568D01*
X-25966619Y-18541967D01*
X-26599002Y-17625577D01*
X-26601453Y-17621888D01*
X-27201228Y-16683851D01*
X-27203548Y-16680078D01*
X-27770019Y-15721478D01*
X-27772188Y-15717656D01*
X-28304596Y-14739777D01*
X-28306645Y-14735852D01*
X-28368344Y-14612384D01*
X-28804357Y-13739856D01*
X-28806267Y-13735860D01*
X-29268666Y-12722983D01*
X-29270434Y-12718922D01*
X-29387629Y-12436315D01*
X-29696952Y-11690409D01*
X-29698546Y-11686366D01*
X-30052050Y-10741339D01*
X-30088665Y-10643456D01*
X-30090143Y-10639281D01*
X-30402153Y-9706510D01*
X-30443342Y-9583374D01*
X-30444671Y-9579155D01*
X-30457324Y-9536388D01*
X-30691025Y-8746454D01*
X-30760536Y-8511498D01*
X-30761718Y-8507230D01*
X-30913044Y-7920684D01*
X-31039873Y-7429091D01*
X-31040902Y-7424791D01*
X-31061524Y-7331402D01*
X-31280988Y-6337551D01*
X-31281863Y-6333227D01*
X-31282255Y-6331097D01*
X-31483595Y-5238180D01*
X-31484304Y-5233917D01*
X-31647428Y-4132412D01*
X-31647996Y-4128040D01*
X-31659835Y-4022655D01*
X-31772294Y-3021586D01*
X-31772709Y-3017192D01*
X-31774282Y-2996732D01*
X-31858041Y-1907042D01*
X-31858302Y-1902631D01*
X-31858302Y-1902630D01*
X-31904565Y-790118D01*
X-31904669Y-785775D01*
X-31911800Y327660D01*
X-31911751Y332073D01*
X-31882748Y1340595D01*
X-31879745Y1445055D01*
X-31879540Y1449467D01*
X-31877609Y1479644D01*
X-31808432Y2560667D01*
X-31808076Y2565012D01*
X-31697957Y3673031D01*
X-31697453Y3677331D01*
X-31548454Y4780811D01*
X-31547785Y4785181D01*
X-31543146Y4812310D01*
X-31360100Y5882706D01*
X-31359293Y5886967D01*
X-31133138Y6977273D01*
X-31132177Y6981530D01*
X-30867844Y8063186D01*
X-30866742Y8067378D01*
X-30564558Y9139072D01*
X-30563282Y9143307D01*
X-30498482Y9345608D01*
X-30223636Y10203655D01*
X-30222214Y10207840D01*
X-29845500Y11255624D01*
X-29843956Y11259695D01*
X-29526236Y12054473D01*
X-29482378Y12110300D01*
X-29415297Y12133554D01*
X-29346297Y12116852D01*
X-28485212Y11619704D01*
X-28103495Y11399319D01*
X-28103399Y11399219D01*
X-28058728Y11373429D01*
X-28058728Y11373428D01*
X-27889566Y11275764D01*
X-27534206Y11113480D01*
X-27165030Y10985710D01*
X-27099666Y10969854D01*
X-26785396Y10893614D01*
X-26785385Y10893612D01*
X-26785383Y10893612D01*
X-26785380Y10893611D01*
X-26398695Y10838017D01*
X-26398682Y10838017D01*
X-26398679Y10838016D01*
X-26008483Y10819431D01*
X-26008476Y10819431D01*
X-26008470Y10819431D01*
X-25618271Y10838021D01*
X-25618267Y10838022D01*
X-25618257Y10838022D01*
X-25300963Y10883644D01*
X-25231592Y10893618D01*
X-25231587Y10893619D01*
X-25231572Y10893621D01*
X-24851923Y10985724D01*
X-24482749Y11113498D01*
X-24127391Y11275786D01*
X-23789069Y11471118D01*
X-23470846Y11697725D01*
X-23175604Y11953554D01*
X-22906018Y12236289D01*
X-22664527Y12543370D01*
X-22453320Y12872015D01*
X-22274308Y13219249D01*
X-22129114Y13581926D01*
X-22019051Y13956763D01*
X-21945117Y14340364D01*
X-21920110Y14602238D01*
X-21907982Y14729239D01*
X-21907981Y14729258D01*
X-21907981Y14902595D01*
X-21907980Y15119918D01*
X-21945113Y15508811D01*
X-21950902Y15538846D01*
X-21974711Y15662381D01*
X-22019045Y15892413D01*
X-22129105Y16267250D01*
X-22274297Y16629928D01*
X-22453307Y16977163D01*
X-22457566Y16983790D01*
X-22664505Y17305798D01*
X-22664512Y17305809D01*
X-22781993Y17455200D01*
X-22905996Y17612886D01*
X-22906003Y17612894D01*
X-23053663Y17767758D01*
X-23175586Y17895629D01*
X-23470826Y18151460D01*
X-23700665Y18315130D01*
X-23789042Y18378064D01*
X-23789050Y18378070D01*
X-23857547Y18417617D01*
X-23940896Y18465740D01*
X-23940897Y18465741D01*
X-24269288Y18655338D01*
X-25245782Y19219118D01*
X-25294775Y19270501D01*
X-25308211Y19340214D01*
X-25281825Y19406125D01*
X-24759977Y20069287D01*
X-24757254Y20072625D01*
X-24046481Y20913954D01*
X-24043648Y20917191D01*
X-23304057Y21733298D01*
X-23301090Y21736460D01*
X-22533550Y22526386D01*
X-22530528Y22529390D01*
X-21735970Y23292173D01*
X-21732859Y23295058D01*
X-20912246Y24029771D01*
X-20909017Y24032562D01*
X-20063419Y24738252D01*
X-20060019Y24740989D01*
X-20052910Y24746514D01*
X-19190424Y25416835D01*
X-19186992Y25419408D01*
X-18294370Y26064653D01*
X-18290862Y26067097D01*
X-17376337Y26680927D01*
X-17372761Y26683238D01*
X-16437438Y27264910D01*
X-16433789Y27267093D01*
X-15478824Y27815886D01*
X-15475023Y27817983D01*
X-14501615Y28333213D01*
X-14497780Y28335159D01*
X-13506968Y28816276D01*
X-13503149Y28818049D01*
X-12496221Y29264425D01*
X-12492254Y29266102D01*
X-11470420Y29677199D01*
X-11466456Y29678714D01*
X-10430961Y30054033D01*
X-10426884Y30055431D01*
X-9378995Y30394515D01*
X-9374849Y30395777D01*
X-8315853Y30698211D01*
X-8311666Y30699329D01*
X-7242750Y30964775D01*
X-7238540Y30965743D01*
X-6161029Y31193871D01*
X-6156780Y31194692D01*
X-5072008Y31385218D01*
X-5067799Y31385882D01*
X-3977048Y31538582D01*
X-3972721Y31539111D01*
X-2877359Y31653793D01*
X-2873016Y31654172D01*
X-1774356Y31730702D01*
X-1770024Y31730928D01*
X-669333Y31769218D01*
X-664953Y31769293D01*
X436353Y31769293D01*
X440732Y31769218D01*
G37*
%TD.AperFunction*%
%TA.AperFunction,Conductor*%
G36*
X-1088388Y-12764361D02*
G01*
X-1067206Y-12788007D01*
X-1001498Y-12883201D01*
X-882529Y-12988599D01*
X-882528Y-12988599D01*
X-882526Y-12988601D01*
X-807800Y-13027820D01*
X-741793Y-13062463D01*
X-587471Y-13100500D01*
X-587470Y-13100500D01*
X-428530Y-13100500D01*
X-428529Y-13100500D01*
X-274207Y-13062463D01*
X-133471Y-12988599D01*
X-14502Y-12883201D01*
X22004Y-12830312D01*
X77162Y-12785612D01*
X147730Y-12777829D01*
X211304Y-12809433D01*
X247700Y-12870391D01*
X251700Y-12901888D01*
X251700Y-16778954D01*
X231698Y-16847075D01*
X178042Y-16893568D01*
X155854Y-16901293D01*
X122409Y-16909536D01*
X122402Y-16909539D01*
X-18326Y-16983398D01*
X-18331Y-16983402D01*
X-137299Y-17088800D01*
X-227585Y-17219601D01*
X-227588Y-17219607D01*
X-283951Y-17368220D01*
X-303107Y-17525996D01*
X-303107Y-17526003D01*
X-283951Y-17683779D01*
X-235353Y-17811919D01*
X-227587Y-17832395D01*
X-137298Y-17963201D01*
X-18329Y-18068599D01*
X-18328Y-18068599D01*
X-18326Y-18068601D01*
X56400Y-18107820D01*
X122407Y-18142463D01*
X276729Y-18180500D01*
X276730Y-18180500D01*
X435670Y-18180500D01*
X435671Y-18180500D01*
X545546Y-18153418D01*
X616474Y-18156537D01*
X674457Y-18197507D01*
X701085Y-18263320D01*
X701700Y-18275757D01*
X701700Y-19000332D01*
X681698Y-19068453D01*
X664795Y-19089427D01*
X-1081805Y-20836027D01*
X-1144117Y-20870053D01*
X-1214932Y-20864988D01*
X-1271768Y-20822441D01*
X-1296579Y-20755921D01*
X-1296900Y-20746932D01*
X-1296900Y-12859585D01*
X-1276898Y-12791464D01*
X-1223242Y-12744971D01*
X-1152968Y-12734867D01*
X-1088388Y-12764361D01*
G37*
%TD.AperFunction*%
%TA.AperFunction,Conductor*%
G36*
X8250356Y-16180522D02*
G01*
X8296849Y-16234178D01*
X8308235Y-16286520D01*
X8308235Y-20039727D01*
X8288233Y-20107848D01*
X8234577Y-20154341D01*
X8164303Y-20164445D01*
X8123683Y-20151296D01*
X8107796Y-20142958D01*
X8107790Y-20142956D01*
X7953472Y-20104920D01*
X7953471Y-20104920D01*
X7794529Y-20104920D01*
X7794527Y-20104920D01*
X7640209Y-20142956D01*
X7640202Y-20142959D01*
X7499474Y-20216818D01*
X7499469Y-20216822D01*
X7380503Y-20322217D01*
X7380502Y-20322218D01*
X7378241Y-20325495D01*
X7375968Y-20327336D01*
X7375449Y-20327923D01*
X7375351Y-20327836D01*
X7323083Y-20370195D01*
X7274544Y-20379920D01*
X2800184Y-20379920D01*
X2732063Y-20359918D01*
X2711089Y-20343015D01*
X2397605Y-20029531D01*
X2363579Y-19967219D01*
X2360700Y-19940436D01*
X2360700Y-17445177D01*
X2380702Y-17377056D01*
X2434358Y-17330563D01*
X2504632Y-17320459D01*
X2516849Y-17322837D01*
X2626729Y-17349920D01*
X2626730Y-17349920D01*
X2785670Y-17349920D01*
X2785671Y-17349920D01*
X2939993Y-17311883D01*
X3080729Y-17238019D01*
X3199698Y-17132621D01*
X3289987Y-17001815D01*
X3346349Y-16853202D01*
X3346349Y-16853201D01*
X3346350Y-16853199D01*
X3365507Y-16695423D01*
X3365507Y-16695416D01*
X3347084Y-16543687D01*
X3358729Y-16473652D01*
X3406389Y-16421031D01*
X3472165Y-16402500D01*
X3635470Y-16402500D01*
X3635471Y-16402500D01*
X3789793Y-16364463D01*
X3930529Y-16290599D01*
X4041589Y-16192208D01*
X4105842Y-16162007D01*
X4125143Y-16160520D01*
X4674438Y-16160520D01*
X8182235Y-16160520D01*
X8250356Y-16180522D01*
G37*
%TD.AperFunction*%
%TA.AperFunction,Conductor*%
G36*
X-17352303Y-10501082D02*
G01*
X-17331329Y-10517985D01*
X-16951805Y-10897509D01*
X-16917779Y-10959821D01*
X-16914900Y-10986604D01*
X-16914900Y-16366856D01*
X-16934902Y-16434977D01*
X-16988558Y-16481470D01*
X-17058832Y-16491574D01*
X-17123412Y-16462080D01*
X-17129995Y-16455951D01*
X-20441022Y-13144924D01*
X-20475048Y-13082612D01*
X-20475387Y-13042990D01*
X-20477187Y-13042813D01*
X-20476582Y-13036656D01*
X-20476580Y-13036647D01*
X-20476581Y-12246514D01*
X-20476582Y-12246510D01*
X-20476582Y-12246506D01*
X-20491346Y-12172279D01*
X-20554491Y-12077777D01*
X-20551047Y-12075475D01*
X-20574042Y-12033363D01*
X-20568977Y-11962548D01*
X-20552411Y-11936771D01*
X-20554490Y-11935382D01*
X-20491346Y-11840882D01*
X-20486597Y-11829417D01*
X-20482473Y-11831125D01*
X-20460780Y-11789620D01*
X-20399097Y-11754467D01*
X-20370078Y-11751080D01*
X-19426477Y-11751080D01*
X-19367922Y-11765513D01*
X-19345084Y-11777499D01*
X-19311733Y-11795003D01*
X-19157411Y-11833040D01*
X-19157410Y-11833040D01*
X-18998470Y-11833040D01*
X-18998469Y-11833040D01*
X-18844147Y-11795003D01*
X-18703411Y-11721139D01*
X-18584442Y-11615741D01*
X-18494153Y-11484935D01*
X-18437791Y-11336322D01*
X-18437791Y-11336321D01*
X-18437790Y-11336319D01*
X-18418633Y-11178543D01*
X-18418633Y-11178536D01*
X-18437790Y-11020760D01*
X-18460902Y-10959821D01*
X-18494153Y-10872145D01*
X-18584442Y-10741339D01*
X-18629534Y-10701391D01*
X-18667258Y-10641247D01*
X-18666478Y-10570255D01*
X-18627440Y-10510954D01*
X-18562539Y-10482173D01*
X-18545979Y-10481080D01*
X-17420424Y-10481080D01*
X-17352303Y-10501082D01*
G37*
%TD.AperFunction*%
%TA.AperFunction,Conductor*%
G36*
X6512436Y29896179D02*
G01*
X6533410Y29879276D01*
X7590987Y28821699D01*
X7625013Y28759387D01*
X7626974Y28717419D01*
X7622272Y28678689D01*
X7594205Y28613475D01*
X7535338Y28573788D01*
X7464358Y28572227D01*
X7408095Y28604779D01*
X7168864Y28844010D01*
X7168852Y28844024D01*
X7091025Y28921851D01*
X7091015Y28921859D01*
X7004480Y28971819D01*
X6991215Y28975373D01*
X6984084Y28977284D01*
X6907965Y28997681D01*
X6907962Y28997681D01*
X6808038Y28997681D01*
X6800320Y28997681D01*
X6800304Y28997680D01*
X-4533005Y28997680D01*
X-4533021Y28997681D01*
X-4540739Y28997681D01*
X-4540857Y28997681D01*
X-4542966Y28998301D01*
X-4548633Y28998653D01*
X-4548641Y28998654D01*
X-4548483Y28999921D01*
X-4608978Y29017683D01*
X-4655471Y29071339D01*
X-4665575Y29141613D01*
X-4636081Y29206193D01*
X-4629952Y29212776D01*
X-3963452Y29879276D01*
X-3901140Y29913302D01*
X-3874357Y29916181D01*
X6444315Y29916181D01*
X6512436Y29896179D01*
G37*
%TD.AperFunction*%
%TD*%
M02*
